<svg width="700" height="619" viewBox="0 0 700 619" fill="none" xmlns="http://www.w3.org/2000/svg">
<path d="M65.7991 375.081C102.139 375.081 131.598 345.622 131.598 309.282C131.598 272.942 102.139 243.483 65.7991 243.483C29.4593 243.483 0 272.942 0 309.282C0 345.622 29.4593 375.081 65.7991 375.081Z" fill="white"/>
<path d="M217.766 365.211C248.655 365.211 273.695 340.171 273.695 309.282C273.695 278.393 248.655 253.353 217.766 253.353C186.877 253.353 161.837 278.393 161.837 309.282C161.837 340.171 186.877 365.211 217.766 365.211Z" fill="white"/>
<path d="M369.746 355.341C395.184 355.341 415.806 334.72 415.806 309.282C415.806 283.844 395.184 263.223 369.746 263.223C344.308 263.223 323.687 283.844 323.687 309.282C323.687 334.72 344.308 355.341 369.746 355.341Z" fill="white"/>
<path d="M521.713 345.471C541.7 345.471 557.903 329.269 557.903 309.282C557.903 289.295 541.7 273.092 521.713 273.092C501.726 273.092 485.524 289.295 485.524 309.282C485.524 329.269 501.726 345.471 521.713 345.471Z" fill="white"/>
<path d="M673.68 335.602C688.216 335.602 700 323.818 700 309.282C700 294.746 688.216 282.962 673.68 282.962C659.144 282.962 647.361 294.746 647.361 309.282C647.361 323.818 659.144 335.602 673.68 335.602Z" fill="white"/>
<path d="M141.783 496.822C172.671 496.822 197.712 471.782 197.712 440.893C197.712 410.004 172.671 384.964 141.783 384.964C110.894 384.964 85.8534 410.004 85.8534 440.893C85.8534 471.782 110.894 496.822 141.783 496.822Z" fill="white"/>
<path d="M293.763 486.953C319.201 486.953 339.822 466.331 339.822 440.893C339.822 415.455 319.201 394.834 293.763 394.834C268.325 394.834 247.703 415.455 247.703 440.893C247.703 466.331 268.325 486.953 293.763 486.953Z" fill="white"/>
<path d="M445.73 477.083C465.717 477.083 481.919 460.88 481.919 440.893C481.919 420.906 465.717 404.704 445.73 404.704C425.743 404.704 409.54 420.906 409.54 440.893C409.54 460.88 425.743 477.083 445.73 477.083Z" fill="white"/>
<path d="M597.697 467.213C612.233 467.213 624.017 455.429 624.017 440.893C624.017 426.357 612.233 414.574 597.697 414.574C583.161 414.574 571.377 426.357 571.377 440.893C571.377 455.429 583.161 467.213 597.697 467.213Z" fill="white"/>
<path d="M217.766 618.551C243.204 618.551 263.826 597.929 263.826 572.491C263.826 547.054 243.204 526.432 217.766 526.432C192.328 526.432 171.707 547.054 171.707 572.491C171.707 597.929 192.328 618.551 217.766 618.551Z" fill="white"/>
<path d="M369.746 608.681C389.733 608.681 405.936 592.478 405.936 572.491C405.936 552.505 389.733 536.302 369.746 536.302C349.759 536.302 333.557 552.505 333.557 572.491C333.557 592.478 349.759 608.681 369.746 608.681Z" fill="white"/>
<path d="M521.713 598.811C536.249 598.811 548.033 587.027 548.033 572.491C548.033 557.955 536.249 546.172 521.713 546.172C507.177 546.172 495.394 557.955 495.394 572.491C495.394 587.027 507.177 598.811 521.713 598.811Z" fill="white"/>
<path d="M141.783 233.6C172.671 233.6 197.712 208.56 197.712 177.671C197.712 146.782 172.671 121.741 141.783 121.741C110.894 121.741 85.8534 146.782 85.8534 177.671C85.8534 208.56 110.894 233.6 141.783 233.6Z" fill="white"/>
<path d="M293.763 223.73C319.201 223.73 339.822 203.109 339.822 177.671C339.822 152.233 319.201 131.611 293.763 131.611C268.325 131.611 247.703 152.233 247.703 177.671C247.703 203.109 268.325 223.73 293.763 223.73Z" fill="white"/>
<path d="M445.73 213.86C465.717 213.86 481.919 197.658 481.919 177.671C481.919 157.684 465.717 141.481 445.73 141.481C425.743 141.481 409.54 157.684 409.54 177.671C409.54 197.658 425.743 213.86 445.73 213.86Z" fill="white"/>
<path d="M597.697 203.99C612.233 203.99 624.017 192.207 624.017 177.671C624.017 163.135 612.233 151.351 597.697 151.351C583.161 151.351 571.377 163.135 571.377 177.671C571.377 192.207 583.161 203.99 597.697 203.99Z" fill="white"/>
<path d="M217.766 92.1187C243.204 92.1187 263.826 71.4972 263.826 46.0594C263.826 20.6215 243.204 0 217.766 0C192.328 0 171.707 20.6215 171.707 46.0594C171.707 71.4972 192.328 92.1187 217.766 92.1187Z" fill="white"/>
<path d="M369.746 82.2489C389.733 82.2489 405.936 66.0463 405.936 46.0594C405.936 26.0725 389.733 9.86987 369.746 9.86987C349.759 9.86987 333.557 26.0725 333.557 46.0594C333.557 66.0463 349.759 82.2489 369.746 82.2489Z" fill="white"/>
<path d="M521.713 72.379C536.249 72.379 548.033 60.5953 548.033 46.0594C548.033 31.5234 536.249 19.7397 521.713 19.7397C507.177 19.7397 495.394 31.5234 495.394 46.0594C495.394 60.5953 507.177 72.379 521.713 72.379Z" fill="white"/>
</svg>
