<svg width="58" height="58" viewBox="0 0 58 58" fill="none" xmlns="http://www.w3.org/2000/svg">
<path d="M28.7 57.4C44.5506 57.4 57.4 44.5506 57.4 28.7C57.4 12.8494 44.5506 0 28.7 0C12.8494 0 0 12.8494 0 28.7C0 44.5506 12.8494 57.4 28.7 57.4Z" fill="#D8B577"/>
<path d="M42.9589 31.6819C42.9883 31.5762 43 31.4763 43.0411 31.3824C43.1174 31.2121 43.1233 31.0418 43.1292 30.8539C43.1292 30.525 43.0998 30.202 43.1527 29.8673C43.1879 29.6441 43.1233 29.4151 43.1233 29.1861C43.1233 28.2465 43.1116 27.3068 43.1233 26.3672C43.1233 26.1676 43.0881 26.0149 42.8943 25.9209C42.8238 25.8857 42.7592 25.8328 42.6946 25.78C42.5478 25.6625 42.5478 25.5921 42.6712 25.457C42.7005 25.4276 42.7357 25.41 42.7651 25.3865C42.8825 25.4394 42.9589 25.504 42.8591 25.686L43.0235 25.5803C43.3876 25.7976 43.8045 25.8035 44.2156 25.7859C44.4858 25.7741 44.7559 25.7506 45.032 25.7448C45.8365 25.7213 46.5707 25.8916 47.1462 26.5082C47.5221 26.9134 47.7334 27.4008 47.8274 27.9352C47.939 28.5812 47.8861 29.2154 47.6865 29.8379C47.6395 29.9906 47.6395 30.1903 47.4222 30.2431C47.4222 30.2431 47.4164 30.2666 47.4222 30.2725C47.4986 30.3488 47.4398 30.4193 47.3987 30.4839C46.8937 31.3236 46.1302 31.7934 45.079 31.629C44.7149 31.5703 44.3508 31.5057 43.9808 31.4528C43.7106 31.4117 43.4522 31.4528 43.2349 31.629C43.1703 31.6819 43.1058 31.7347 42.9648 31.676L42.9589 31.6819ZM44.9556 31.1886C45.1612 31.1886 45.3609 31.1768 45.5018 31.0124C45.5958 30.9008 45.6898 30.7834 45.7544 30.6542C45.8718 30.4193 45.9247 30.1609 45.954 29.8966C46.0186 29.3387 46.0303 28.7809 45.9951 28.223C45.9716 27.8765 45.9364 27.5359 45.8836 27.1953C45.8307 26.8782 45.7015 26.5845 45.5018 26.3203C45.3785 26.15 45.2141 26.1206 45.0203 26.1441C44.9439 26.1558 44.9028 26.1969 44.8969 26.2733C44.8969 26.3731 44.8969 26.4729 44.891 26.5669C44.891 26.6256 44.8911 26.6902 44.8617 26.7313C44.8382 26.7724 44.7794 26.7842 44.7324 26.8077C44.8793 26.7959 44.891 26.884 44.891 26.9839C44.891 27.2305 44.8735 27.4772 44.8735 27.7238C44.8735 28.7632 44.8735 29.8027 44.8735 30.8362C44.8735 30.9537 44.8734 31.0829 44.9556 31.1827V31.1886Z" fill="white"/>
<path d="M5.10297 29.4092C5.13821 29.2859 5.10294 29.2506 4.99723 29.2741C4.65661 29.3328 4.31599 29.3857 3.97537 29.4385C3.92839 29.4444 3.88142 29.4385 3.80507 29.4385C3.80507 29.0392 3.79919 28.6516 3.79332 28.264C3.79332 28.1231 3.79332 27.988 3.79332 27.8471C3.79332 27.4125 3.78744 26.978 3.79332 26.5375C3.79332 26.3731 3.74634 26.2498 3.61126 26.1558C3.51142 26.0853 3.41159 26.0031 3.3235 25.9209C3.18843 25.7917 3.15905 25.6332 3.24127 25.4981C3.34111 25.3337 3.5173 25.3395 3.61126 25.4981C3.61713 25.5098 3.62302 25.5274 3.6289 25.5451C3.78159 25.8798 3.81094 25.9092 4.16918 25.8798C4.52155 25.8504 4.86803 25.7917 5.2204 25.7506C6.00735 25.6508 6.77081 25.7154 7.45792 26.1617C7.593 26.2498 7.72809 26.3555 7.84555 26.467C8.06871 26.6843 8.15681 26.9603 8.18618 27.2716C7.91603 27.5065 7.54604 27.5946 7.30526 27.8941C7.39923 27.9763 7.4873 28.0585 7.58126 28.1407C7.75745 28.2993 7.93949 28.4578 8.12155 28.6164C8.20377 28.6927 8.24489 28.7749 8.24489 28.8924C8.23902 29.4385 8.24489 29.9788 8.24489 30.525C8.24489 30.7364 8.1568 30.9125 8.02172 31.0594C7.68697 31.4469 7.27002 31.6642 6.74734 31.6525C6.5829 31.6525 6.42433 31.6642 6.25989 31.6701C6.1718 31.6701 6.09547 31.6525 6.09547 31.5292L6.03672 31.6466L5.00311 31.4704C4.99723 31.3882 5.03837 31.3001 4.92091 31.2943C4.82108 31.4469 4.82107 31.4469 4.61552 31.4352C4.53917 31.4352 4.4687 31.4528 4.39235 31.4469C4.33362 31.4469 4.26901 31.4235 4.19266 31.4117C4.06933 31.535 3.86966 31.5879 3.68173 31.5174C3.70522 31.4469 3.74634 31.3823 3.75808 31.3119C3.78157 31.1651 3.79919 31.0241 3.79919 30.8773C3.79919 30.431 3.79919 29.9906 3.79919 29.5501C4.01061 29.4503 4.91504 29.3505 5.10297 29.4033V29.4092ZM5.93689 31.2766C5.978 31.2473 6.0191 31.1886 6.07196 31.1768C6.36559 31.1005 6.47718 30.9008 6.51241 30.6189C6.57114 30.0845 6.54765 29.5501 6.50654 29.0157C6.50066 28.9218 6.46545 28.8219 6.42434 28.7338C6.34213 28.5518 6.16591 28.4872 5.98973 28.587C5.71958 28.7456 5.5023 28.9511 5.52579 29.3093C5.53754 29.5149 5.53754 29.7204 5.52579 29.926C5.51405 30.1256 5.50817 30.3253 5.52579 30.525C5.53754 30.6542 5.52579 30.7892 5.52579 30.9184C5.53166 31.0887 5.56689 31.124 5.73132 31.1768C5.80767 31.2003 5.87229 31.2414 5.93102 31.2649L5.93689 31.2766ZM5.51404 27.4478C5.51404 27.6592 5.51404 27.8764 5.51404 28.0879C5.51991 28.3228 5.60213 28.3639 5.80767 28.2464C5.85466 28.2171 5.90167 28.1818 5.94865 28.1407C6.20705 27.9117 6.38321 27.6239 6.47718 27.2951C6.54765 27.0543 6.54178 26.8077 6.47718 26.5669C6.39496 26.2439 6.11895 26.0325 5.79007 26.0384C5.57278 26.0384 5.50819 26.103 5.50819 26.3144C5.50819 26.6902 5.50819 27.0719 5.50819 27.4478H5.51404ZM4.26313 27.7238C4.21028 27.8999 4.27488 28.0468 4.38059 28.1583C4.52154 28.3051 4.6155 28.4696 4.70359 28.6458C4.70946 28.6575 4.72708 28.6634 4.7447 28.681L4.82693 28.634C4.77995 28.5929 4.73298 28.5518 4.69775 28.5048C4.66838 28.4637 4.66836 28.3991 4.639 28.3756C4.5744 28.3228 4.7271 28.311 4.65075 28.2699C4.60964 28.2464 4.56853 28.2229 4.53917 28.1877C4.51568 28.1642 4.5098 28.129 4.49806 28.0996C4.42171 27.9763 4.35123 27.8471 4.27489 27.7238H4.26313Z" fill="white"/>
<path d="M41.6375 29.9377C41.526 29.832 41.4496 29.9789 41.3439 29.973C41.3087 29.926 41.2793 29.8673 41.2323 29.8203C41.1559 29.7498 41.015 29.7792 41.0091 29.8673C40.9974 30.1022 40.8095 30.2549 40.7566 30.4663C40.7566 30.4839 40.7566 30.5015 40.7566 30.525C40.8153 30.5544 40.8975 30.5661 40.9269 30.619C40.9621 30.6718 40.9563 30.7599 40.9622 30.8304C40.9622 30.895 40.9622 30.9596 40.9622 31.03C40.9622 31.0946 40.9563 31.1592 40.9504 31.2238C41.062 31.3706 41.2382 31.3883 41.3967 31.4294C41.4555 31.4881 41.4613 31.5527 41.3967 31.6232C41.3439 31.6819 41.2851 31.6878 41.2205 31.6584C40.4805 31.3648 39.8698 30.754 39.9873 29.8027C40.0519 29.2859 40.0401 29.3329 39.6584 29.1508C39.4822 29.0686 39.3295 28.9394 39.1475 28.822C39.077 28.9512 39.0828 29.098 39.0828 29.2389C39.0828 29.7028 39.0828 30.1609 39.0828 30.6248C39.0828 30.8891 39.0828 31.1534 39.0828 31.4176C39.0828 31.4998 39.0711 31.5762 39.0594 31.676C38.4897 31.7289 37.9436 31.7112 37.3798 31.676C37.368 31.6055 37.3504 31.5527 37.3504 31.4998C37.3621 31.2121 37.3152 30.9302 37.3798 30.6424C37.415 30.4839 37.3445 30.3018 37.3445 30.1315C37.3386 29.2683 37.3386 28.3991 37.3327 27.5359C37.3327 27.1424 37.3269 26.749 37.3093 26.3555C37.3034 26.1911 37.2506 26.0325 37.2212 25.874C37.2153 25.827 37.2035 25.78 37.1918 25.7095C37.2564 25.7095 37.3034 25.7095 37.3445 25.7095C37.8319 25.7683 38.3194 25.874 38.8186 25.8211C39.03 25.7976 39.2473 25.7917 39.4587 25.78C39.5292 25.78 39.5997 25.7859 39.5762 25.8798C39.6467 25.8446 39.7112 25.78 39.7758 25.78C40.2457 25.7859 40.7155 25.8094 41.15 26.0149C41.4319 26.15 41.6669 26.332 41.8548 26.5787C41.9253 26.6726 41.9899 26.7666 42.0545 26.8605C42.5478 27.5594 42.354 28.4109 41.5964 28.8102C41.3556 28.9394 41.1089 29.0451 40.8623 29.1626C40.7977 29.1919 40.7331 29.2272 40.645 29.2741C40.6979 29.3211 40.739 29.3622 40.7801 29.3857C41.0208 29.5091 41.2675 29.6206 41.5142 29.744C41.5729 29.7733 41.6316 29.8085 41.6786 29.8438C41.6845 29.8438 41.6552 29.9025 41.6434 29.9319H41.6492L41.6375 29.9377ZM39.0653 27.3186L38.9771 27.1248C38.9302 27.1894 38.8538 27.2423 38.848 27.301C38.8362 27.5359 38.66 27.6651 38.5484 27.8236L38.66 27.9998C38.7011 27.8882 38.7423 27.8001 38.7716 27.7121C38.8303 27.5476 38.9478 27.4243 39.0711 27.3127C39.0888 27.4654 39.1122 27.6181 39.124 27.7708C39.1357 27.9352 39.124 28.0996 39.124 28.2641C39.124 28.3111 39.1415 28.3522 39.1533 28.4168C39.2003 28.405 39.2297 28.3933 39.259 28.3874C39.3471 28.3757 39.4411 28.3404 39.5233 28.358C39.5938 28.3757 39.6584 28.4403 39.6995 28.5049C39.7465 28.5812 39.676 28.6399 39.6173 28.6869C39.5879 28.7104 39.5644 28.7456 39.5292 28.7809C39.5703 28.8043 39.5938 28.8278 39.6231 28.8337C39.9873 28.9159 40.275 28.7809 40.416 28.4226C40.6509 27.806 40.6744 27.1894 40.3866 26.5787C40.2222 26.2322 39.9168 26.0795 39.5468 26.1382C39.5116 26.1382 39.4763 26.1265 39.4528 26.1206C39.4117 26.1735 39.3824 26.2381 39.3354 26.2792C39.1063 26.4788 39.0946 26.7431 39.1122 27.0191C39.1181 27.1189 39.171 27.2305 39.0653 27.3127V27.3186ZM38.0434 29.2154C38.2078 29.2037 38.1549 29.0451 38.2137 28.957C38.2724 28.8631 38.29 28.7456 38.3253 28.6399C38.0962 28.9159 38.061 28.9864 38.0492 29.2154H38.0434Z" fill="white"/>
<path d="M26.1275 31.9637C26.0747 31.8756 26.01 31.7758 25.9572 31.6818C25.5872 31.0124 25.2231 30.337 24.8531 29.6676C24.8061 29.5853 24.7768 29.4855 24.6417 29.4444C24.6417 29.5384 24.6299 29.6147 24.6299 29.6969C24.6299 30.2666 24.6299 30.8362 24.6299 31.4058C24.6299 31.4704 24.6299 31.535 24.6299 31.6055C24.6299 31.6818 24.583 31.723 24.5066 31.7288C24.4714 31.7288 24.442 31.7288 24.4068 31.7288C23.9839 31.7288 23.567 31.7288 23.1442 31.7288C22.968 31.7288 22.9444 31.7053 22.9444 31.5292C22.9444 29.6911 22.9444 27.853 22.9444 26.0149C22.9444 25.9444 22.9503 25.868 22.9562 25.8034C23.1559 25.7271 24.3951 25.7271 24.6124 25.7976C24.6828 25.962 24.5947 26.1382 24.6299 26.3144C24.6652 26.4964 24.6417 26.6902 24.6417 26.884C24.6417 27.066 24.6417 27.2481 24.6417 27.4301C24.6417 27.6122 24.6417 27.7942 24.6417 27.9763C24.6417 28.1642 24.6417 28.358 24.6417 28.5459C24.6417 28.728 24.6417 28.9041 24.6417 29.0979C24.8355 29.1332 24.9588 29.0333 25.0763 28.9394C25.3758 28.6986 25.5637 28.3874 25.6635 28.0174C25.7516 27.6768 25.7399 27.3479 25.5754 27.0308C25.5226 26.931 25.4756 26.8253 25.4227 26.7137C25.5872 26.5023 25.8045 26.3496 25.9983 26.1793C26.1921 26.009 26.427 25.8974 26.6267 25.7036C26.6795 25.7565 26.7265 25.7917 26.7676 25.8446C27.0495 26.238 27.1318 26.6667 27.0026 27.1365C26.891 27.5417 26.6737 27.8882 26.4094 28.2112C26.2567 28.405 26.1158 28.6046 25.9689 28.8102L27.5488 31.0476C27.355 31.3765 26.5915 31.8756 26.1393 31.9755L26.1275 31.9637Z" fill="white"/>
<path d="M12.7669 28.2699L13.0547 28.2347C12.9901 28.0879 12.8727 28.2171 12.7728 28.1819C12.8668 27.8354 13.0253 27.53 13.2602 27.2716C13.4423 27.0661 13.642 26.8664 13.8652 26.7079C14.3232 26.3849 14.7989 26.0912 15.2688 25.78C15.3627 25.7154 15.4567 25.6919 15.5683 25.7683C16.226 26.2204 16.8368 26.7196 17.242 27.4243C17.4769 27.8295 17.6179 28.2699 17.6355 28.7397C17.6472 29.2565 17.4711 29.7263 17.1892 30.155C16.8485 30.6718 16.3552 31.0124 15.8384 31.3237C15.6094 31.4646 15.3568 31.5703 15.1043 31.676C15.0456 31.7054 14.9516 31.7054 14.8929 31.6878C13.9885 31.3589 13.2368 30.8362 12.8257 29.926C12.6084 29.4444 12.5673 28.9394 12.6965 28.4285C12.7082 28.3874 12.72 28.3522 12.7376 28.3111C12.7435 28.2993 12.761 28.2876 12.7787 28.2641L12.7669 28.2699ZM16.5607 29.6735C16.3846 29.5384 16.2142 29.4033 16.1966 29.1567C16.1966 29.1097 16.1791 29.0627 16.1673 29.0099C15.9794 28.1877 15.5506 27.5065 14.9457 26.931C14.8459 26.837 14.7343 26.749 14.6228 26.6609C14.5464 26.6022 14.4701 26.6021 14.4055 26.6785C14.1471 26.9956 13.9297 27.3303 13.918 27.759C13.918 27.853 13.9063 27.9528 13.9004 28.0468L13.2191 28.176V28.1995L13.8886 28.1525C14.1353 29.3446 14.7049 30.2842 15.6857 30.9537C15.856 30.8715 15.9383 30.754 16.0087 30.619C16.1144 30.4134 16.1731 30.1903 16.2025 29.9612C16.2201 29.8262 16.2377 29.6911 16.2612 29.509L16.4903 29.7674L16.5607 29.6676V29.6735Z" fill="white"/>
<path d="M34.7429 25.7095C34.9602 25.8798 35.1716 26.009 35.3713 26.1793C35.5533 26.332 35.7354 26.4847 35.9057 26.6433C36.4989 27.2012 36.8454 27.8882 36.9158 28.7045C36.9452 29.0451 36.8571 29.374 36.7279 29.6911C36.5575 30.1022 36.3168 30.4545 35.9644 30.7423C35.5886 31.0535 35.1833 31.3237 34.7546 31.5468C34.6489 31.6055 34.5315 31.6525 34.414 31.6878C34.3435 31.7112 34.2613 31.6995 34.1909 31.7054C34.091 31.3941 34.3729 31.3589 34.4727 31.1886L34.2672 31.2825C34.1615 31.0711 34.091 30.4604 34.1439 30.2607L34.9837 30.9831C35.1775 30.8597 35.2891 30.7012 35.3595 30.5133C35.5357 30.0552 35.5885 29.5854 35.4828 29.1038C35.2832 28.1466 34.7722 27.3773 34.0205 26.7607C33.9618 26.7137 33.8972 26.6785 33.8267 26.6315C33.7798 26.6667 33.7269 26.6902 33.6917 26.7313C33.2982 27.1894 33.1455 27.7179 33.2453 28.3169C33.3393 28.8983 33.5801 29.4151 33.9148 29.8908C34.0264 30.0493 34.0676 30.202 34.0734 30.3958C34.0734 30.619 34.1145 30.8362 34.1321 31.0594C34.138 31.1475 34.1263 31.2356 34.1204 31.3237C34.1204 31.4235 34.1086 31.5233 34.1027 31.6467C34.0381 31.629 33.9795 31.6232 33.9325 31.5997C33.3922 31.3589 32.9047 31.0418 32.5289 30.572C31.9005 29.7909 31.7654 28.9335 32.153 28.0057C32.3116 27.6181 32.5347 27.2775 32.846 26.9956C33.3099 26.5728 33.8385 26.2381 34.3787 25.9151C34.4903 25.8505 34.6079 25.7859 34.7429 25.7095Z" fill="white"/>
<path d="M47.9331 30.6424C48.2385 30.2783 48.4558 30.1491 48.9256 30.0376H48.6849C48.8376 29.7792 49.0079 29.7204 49.4953 29.9084L49.3955 29.9671C49.3955 29.9671 49.4013 29.9788 49.4072 29.9788C49.9769 29.926 50.388 30.249 50.7873 30.5896C50.846 30.6366 50.8871 30.7012 50.9459 30.7481C51.0633 30.8421 51.1455 30.8245 51.2336 30.7012C51.3746 30.5015 51.3628 30.2314 51.2101 30.0023C51.1631 29.9377 51.1103 29.879 51.0457 29.7909L51.3511 29.7146V29.6911C51.2688 29.697 51.1867 29.6911 51.1103 29.7204C51.0222 29.7557 50.9576 29.7263 50.8813 29.6852C50.3821 29.4092 49.8888 29.1332 49.3896 28.8631C49.1194 28.7162 48.861 28.5518 48.6555 28.3228C48.2561 27.8823 48.2679 27.254 48.679 26.8253C48.8493 26.6491 49.0372 26.5082 49.2545 26.4083C49.3896 26.3496 49.5246 26.285 49.6597 26.2263C50.0297 26.0795 50.3938 25.9385 50.7638 25.7976C50.8166 25.78 50.8754 25.7682 50.94 25.7448C51.169 25.9679 51.3804 26.2145 51.6329 26.4083C51.8855 26.5963 52.1792 26.7313 52.4787 26.8958C52.3964 26.9486 52.3318 26.9897 52.2614 27.0308C52.1322 27.1013 51.9853 27.1542 51.8679 27.2364C51.6623 27.3773 51.4627 27.3773 51.2336 27.3068C50.7991 27.1718 50.3997 26.9897 50.1413 26.5904C50.1178 26.5493 50.0826 26.5141 50.0473 26.4788C49.9651 26.4083 49.8887 26.4025 49.8065 26.4671C49.6714 26.5786 49.6069 26.7255 49.6069 26.9016C49.6069 26.9956 49.6656 27.0543 49.7361 27.0954C49.9475 27.2246 50.1648 27.3421 50.3762 27.4654C50.8637 27.7414 51.357 28.0115 51.8327 28.2993C51.9912 28.3933 52.1322 28.5283 52.2731 28.6516C52.5139 28.8689 52.6372 29.1508 52.6314 29.4621C52.6314 29.5971 52.649 29.7322 52.6255 29.8673C52.555 30.2725 52.3143 30.5602 51.9912 30.7716C51.404 31.1592 50.7638 31.4352 50.106 31.7171C49.9533 31.5997 49.7948 31.4939 49.6479 31.3765C49.2134 31.03 48.726 30.8069 48.1622 30.7599C48.08 30.754 47.9742 30.7599 47.9331 30.6366V30.6424Z" fill="white"/>
<path d="M8.5209 31.7112C8.51503 30.8127 8.50329 29.9319 8.49742 29.051C8.49742 29.0216 8.51503 28.9923 8.52678 28.9629C8.62074 28.9629 8.67946 28.9453 8.7793 28.8748C8.86739 28.8102 8.94374 28.7867 9.00247 28.9453C9.00247 28.8043 9.04359 28.7397 9.16105 28.7339C9.31374 28.7221 9.46642 28.6928 9.66022 28.6693C9.43118 28.6223 9.2374 28.7162 9.05534 28.681C8.86154 28.6399 8.70297 28.7632 8.5033 28.7632C8.49743 28.6751 8.48566 28.6047 8.48566 28.5342C8.48566 28.0468 8.50329 27.5594 8.49742 27.0778C8.49742 26.7255 8.47982 26.3731 8.47982 26.0208C8.47982 25.9327 8.49155 25.8446 8.49742 25.7624C8.69122 25.7095 9.9245 25.7036 10.1477 25.7565C10.1477 25.8093 10.1653 25.8622 10.1653 25.915C10.1477 26.2498 10.2005 26.5845 10.1359 26.9251C10.1065 27.0602 10.1653 27.2129 10.1653 27.3597C10.1653 28.4637 10.1653 29.5678 10.1653 30.6718C10.1653 30.9478 10.1946 31.2297 10.2123 31.5057C10.2123 31.5351 10.2358 31.5644 10.271 31.5879L10.2475 31.3001C10.3532 31.306 10.4296 31.3001 10.5118 31.3178C10.8054 31.3589 11.0756 31.2708 11.2929 31.0887C11.5043 30.9126 11.7392 30.7892 11.98 30.66C12.2736 30.5074 12.2795 30.4897 12.162 30.1844C11.9917 29.7204 11.8273 29.2565 11.7509 28.7632C11.7039 28.4637 11.6335 28.1583 11.7274 27.8589C11.7627 27.7414 11.8155 27.6298 11.8743 27.5241C11.9506 27.3949 12.0857 27.3714 12.2208 27.3773C12.3911 27.3832 12.5026 27.6005 12.4146 27.7473C12.3734 27.8119 12.3088 27.853 12.2266 27.8295C12.162 27.8119 12.1033 27.7884 12.027 27.759C11.9213 27.9469 11.9154 28.1525 11.9506 28.3522C12.0093 28.681 12.0739 29.0157 12.1738 29.3387C12.3911 30.0317 12.6084 30.7188 12.9138 31.3824C12.949 31.4587 12.9666 31.5468 12.996 31.6231C12.8844 31.7347 12.7611 31.7112 12.6495 31.7171C12.0211 31.723 11.3986 31.723 10.7702 31.7288C10.0596 31.7288 9.35485 31.7288 8.64424 31.7288C8.61488 31.7288 8.57965 31.723 8.50918 31.7171L8.5209 31.7112Z" fill="white"/>
<path d="M27.8776 25.7683C28.136 25.7095 29.3165 25.7213 29.5161 25.7859C29.5161 25.8916 29.522 26.0032 29.522 26.1147C29.522 27.5652 29.522 29.0158 29.522 30.4663C29.522 30.6718 29.5337 30.8773 29.5513 31.0829C29.569 31.2532 29.6101 31.2943 29.7804 31.3119C30.0858 31.3413 30.3618 31.3119 30.6202 31.1064C30.8199 30.9478 31.0489 30.8362 31.2662 30.7012C31.3308 30.6601 31.4013 30.6307 31.46 30.5955C31.5951 30.5132 31.6068 30.4898 31.554 30.3312C31.4424 29.9847 31.3191 29.6441 31.2134 29.2976C31.0959 28.9042 31.0254 28.4931 31.0372 28.082C31.0431 27.8824 31.09 27.6886 31.2251 27.53C31.3249 27.4067 31.4541 27.3773 31.6009 27.4067C31.7125 27.4302 31.783 27.5241 31.7889 27.6357C31.7889 27.7884 31.6714 27.8824 31.5246 27.8354C31.4717 27.8178 31.4248 27.7884 31.3719 27.759C31.2544 27.9881 31.2662 28.223 31.3073 28.4461C31.3543 28.7221 31.4131 28.9981 31.4953 29.2624C31.7126 29.973 31.9475 30.6777 32.247 31.353C32.2822 31.4352 32.3057 31.5233 32.3468 31.6232C32.2939 31.6525 32.247 31.6878 32.1941 31.6936C32.0943 31.7054 31.9944 31.7054 31.9005 31.7054C30.6554 31.7054 29.4104 31.7171 28.1654 31.723C28.0832 31.723 28.001 31.723 27.907 31.723C27.8307 31.4294 27.907 31.1416 27.8835 30.8656C27.86 30.5896 27.8776 30.3077 27.8776 30.0258C27.8776 29.7381 27.8776 29.4503 27.8776 29.1626C27.8776 28.8807 27.8776 28.6047 27.8776 28.3228C27.8776 28.035 27.8776 27.7473 27.8776 27.4595C27.8776 27.1777 27.8776 26.9016 27.8776 26.6198C27.8776 26.332 27.86 26.0501 27.8894 25.7683H27.8776Z" fill="white"/>
<path d="M22.5745 30.4311C22.5568 30.666 22.4453 30.8304 22.3102 30.9772C21.9226 31.3941 21.441 31.6232 20.8772 31.6643C20.5542 31.6878 20.2312 31.6702 19.9199 31.5938C19.7731 31.5586 19.6264 31.4881 19.4678 31.4294V31.1416H19.4325L19.3444 31.3061C19.3444 31.3061 19.2916 31.2943 19.274 31.2826C19.2328 31.2591 19.1918 31.2297 19.1506 31.2004C18.9099 31.0418 18.904 31.0418 18.7102 31.2708C18.6515 31.3354 18.5986 31.4059 18.5047 31.5175C18.4283 31.0653 18.581 30.6718 18.5105 30.2784L18.4635 30.478C18.4341 30.4663 18.3989 30.4663 18.393 30.4487C18.2873 30.2373 18.1817 30.0258 18.076 29.8144L18.3049 29.6324C18.2521 29.5737 18.211 29.5384 18.1816 29.4914C17.888 29.0921 17.8586 29.0216 17.8997 28.5107C17.9467 27.9411 18.1229 27.4126 18.4518 26.9428C18.534 26.8312 18.6103 26.7138 18.7571 26.6726C18.8276 26.655 18.8688 26.6022 18.8805 26.5082C18.8864 26.4377 18.9569 26.3673 19.0215 26.3203C19.7027 25.7741 20.4603 25.6215 21.2942 25.9033C21.441 25.9503 21.5937 26.0032 21.7347 26.0678C21.9578 26.1676 22.1458 26.1441 22.322 25.9679C22.3748 25.9151 22.4335 25.8798 22.4922 25.8387C22.686 25.9621 22.7037 25.9973 22.6038 26.15C22.4453 26.3908 22.275 26.6257 22.0988 26.8547C21.3823 27.7884 20.6599 28.7221 19.9317 29.65C19.7438 29.8908 19.6968 30.1316 19.7966 30.4134C19.8789 30.6483 20.0081 30.8597 20.2019 31.0242C20.6306 31.4 21.2002 31.3413 21.5467 30.895C21.6759 30.7305 21.7582 30.5426 21.7993 30.3371C21.811 30.2725 21.8345 30.2138 21.858 30.1198L22.5862 30.4369L22.5745 30.4311ZM19.691 29.192C19.7849 29.1039 19.8495 29.051 19.8965 28.9864C20.2665 28.4931 20.6365 27.9998 20.9947 27.5007C21.1415 27.2951 21.2179 27.0602 21.2061 26.8077C21.1944 26.5669 21.0945 26.3731 20.8713 26.2733C20.6423 26.1735 20.4191 26.2146 20.2312 26.3849C20.0903 26.5082 19.9963 26.655 19.9199 26.8253C19.7731 27.1542 19.7203 27.5007 19.6792 27.853C19.6616 27.9822 19.6968 28.1173 19.6029 28.2289C19.691 28.4755 19.6028 28.728 19.6498 28.9747C19.6616 29.0275 19.6792 29.0862 19.7027 29.192H19.691ZM18.6044 27.8883C18.4811 28.6282 18.5458 29.3623 18.4929 30.0904C18.5281 29.9436 18.5516 29.7909 18.5575 29.6383C18.5692 29.4034 18.5634 29.1626 18.5869 28.9277C18.6045 28.7222 18.5634 28.5049 18.7043 28.3228C18.5751 28.2054 18.669 28.0351 18.6044 27.8883Z" fill="white"/>
<path d="M41.3908 31.4235L40.9798 31.1181C40.9798 31.03 40.968 30.895 40.9798 30.7599C40.9915 30.6072 41.0444 30.5779 41.1853 30.5896C41.2617 30.5955 41.3438 30.6013 41.426 30.6072C41.5435 30.8069 41.5436 30.8127 41.4966 31.1357C41.5318 31.1064 41.5552 31.077 41.5787 31.077C41.614 31.077 41.6669 31.077 41.6904 31.0946C41.9311 31.3354 42.2365 31.4176 42.5654 31.4294C42.5948 31.4294 42.6182 31.4529 42.6828 31.4763C42.3305 31.7289 41.9722 31.8052 41.5846 31.7524L41.4613 31.3237L41.385 31.4176L41.3908 31.4235Z" fill="white"/>
<path d="M18.4283 31.0417L18.3696 31.6877H18.0407C18.0407 31.5116 18.1875 31.259 18.4283 31.0417Z" fill="white"/>
<path d="M41.6316 29.9319C41.6434 29.9612 41.6727 29.9965 41.6668 30.02C41.6375 30.155 41.6023 30.2842 41.5553 30.4545C41.5083 30.3899 41.4789 30.3547 41.4613 30.3136C41.3497 30.0846 41.3614 30.0493 41.5964 29.9554C41.614 29.9495 41.6258 29.9378 41.6375 29.9319H41.6316Z" fill="white"/>
</svg>
