<?xml version="1.0" encoding="UTF-8"?><svg id="katman_1" xmlns="http://www.w3.org/2000/svg" viewBox="0 0 256 256"><defs><style>.cls-1{fill:#fff;fill-rule:evenodd;}</style></defs><path class="cls-1" d="M86.4,6.93C99.73,2.67,113.6,0,128.53,0c70.93,0,128,57.07,127.46,128,0,70.4-57.6,128-128,128S0,198.93,0,128C0,94.24,13.09,63.96,34.13,41.12v91.68c1.07,51.73,42.67,92.8,94.4,92.8s94.4-42.13,94.4-94.4-42.13-94.4-94.4-94.4h-21.33v14.93h22.93c43.73,.53,78.4,36.27,78.4,79.47s-35.73,79.47-79.47,79.47-79.47-35.73-79.47-79.47V27.2c6.93-5.33,14.4-10.13,22.4-13.87v118.4c.53,31.47,25.6,56.53,57.07,56.53s57.07-25.6,57.07-57.07-25.6-57.07-57.07-57.07h-21.33v14.93h22.4c22.93,.53,41.6,19.73,41.6,42.67s-19.2,42.67-42.67,42.67-42.67-19.2-42.67-42.67V6.93ZM34.13,41.12c2.22-2.41,4.54-4.74,6.93-6.99-1.8,1.44-3.36,3.13-4.84,4.72-.71,.77-1.4,1.52-2.1,2.21v.05Zm94.4,67.68h-21.33v21.87c0,11.2,9.6,20.8,21.33,20.8s21.33-9.6,21.33-21.33-9.6-21.33-21.33-21.33Z"/></svg>