<?xml version="1.0" encoding="utf-8"?>
<!-- Generator: Adobe Illustrator 26.3.1, SVG Export Plug-In . SVG Version: 6.00 Build 0)  -->
<svg version="1.1" id="katman_1" xmlns="http://www.w3.org/2000/svg" xmlns:xlink="http://www.w3.org/1999/xlink" x="0px" y="0px"
	 viewBox="0 0 256 256" style="enable-background:new 0 0 256 256;" xml:space="preserve">
<style type="text/css">
	.st0{fill:#009EE2;}
</style>
<g>
	<g>
		<rect x="143.2" y="105.8" class="st0" width="10.2" height="19.2"/>
	</g>
	<g>
		<rect x="122.8" y="96.7" class="st0" width="10.2" height="51.1"/>
	</g>
	<g>
		<rect x="102.3" y="132.5" class="st0" width="11" height="22.4"/>
	</g>
	<g>
		<g>
			<path class="st0" d="M127.9,50.1v26.7c-25,0-45.9,17.8-50.5,41.5l-5.9,2.1l0,0c3.5-25.1,23.4-45,48.5-48.5l0,0L127.9,50.1z"/>
		</g>
		<g>
			<path class="st0" d="M206,128.4h-26.7c0-25-17.8-45.9-41.5-50.5l-2.1-5.9l0,0c25.1,3.5,45,23.4,48.5,48.5l0,0L206,128.4z"/>
		</g>
		<g>
			<path class="st0" d="M127.8,206.6v-26.7c25,0,45.9-17.8,50.5-41.5l5.9-2.1l0,0c-3.5,25.1-23.4,45-48.5,48.5l0,0L127.8,206.6z"/>
		</g>
		<g>
			<path class="st0" d="M49.7,128.4h26.7c0,25,17.8,45.9,41.5,50.5l2.1,5.9l0,0c-25.1-3.5-45-23.4-48.5-48.5l0,0L49.7,128.4z"/>
		</g>
	</g>
	<g>
		<g>
			<path class="st0" d="M127.9,50.1v26.7c-25,0-45.9,17.8-50.5,41.5l-5.9,2.1l0,0c3.5-25.1,23.4-45,48.5-48.5l0,0L127.9,50.1z"/>
		</g>
		<g>
			<path class="st0" d="M206,128.4h-26.7c0-25-17.8-45.9-41.5-50.5l-2.1-5.9l0,0c25.1,3.5,45,23.4,48.5,48.5l0,0L206,128.4z"/>
		</g>
		<g>
			<path class="st0" d="M127.8,206.6v-26.7c25,0,45.9-17.8,50.5-41.5l5.9-2.1l0,0c-3.5,25.1-23.4,45-48.5,48.5l0,0L127.8,206.6z"/>
		</g>
		<g>
			<path class="st0" d="M49.7,128.4h26.7c0,25,17.8,45.9,41.5,50.5l2.1,5.9l0,0c-25.1-3.5-45-23.4-48.5-48.5l0,0L49.7,128.4z"/>
		</g>
	</g>
</g>
</svg>
