<svg width="58" height="58" viewBox="0 0 58 58" fill="none" xmlns="http://www.w3.org/2000/svg">
<path d="M28.715 57.43C44.5739 57.43 57.43 44.5739 57.43 28.715C57.43 12.8561 44.5739 0 28.715 0C12.8561 0 0 12.8561 0 28.715C0 44.5739 12.8561 57.43 28.715 57.43Z" fill="#ED1C24"/>
<path d="M16.2422 17.8404H34.0754L31.5429 21.0191C31.1903 21.0191 30.8613 21.0191 30.5381 21.0191C27.9351 21.0426 25.3321 21.0661 22.735 21.1072C21.9124 21.1189 21.0956 21.1836 20.2848 21.2247C20.6491 23.0344 21.0075 24.8676 21.3894 26.7007C21.7302 28.3635 22.0945 30.0205 22.4353 31.6774C22.4647 31.8184 22.453 32.024 22.3707 32.1298C21.6245 33.111 20.8547 34.0687 20.0556 35.0911C19.6502 33.2755 19.2565 31.5305 18.8628 29.7854C18.3751 27.5938 17.8815 25.4022 17.3997 23.2106C17.0354 21.542 16.6829 19.8733 16.3186 18.2046C16.3186 18.187 16.2774 18.1811 16.2539 18.1694V17.8404H16.2422Z" fill="white"/>
<path d="M36.1848 17.8227H39.6574C33.4878 25.3905 27.3886 32.8701 21.2719 40.3674L20.4728 37.03L25.0559 31.4012L23.5282 26.0544L27.6354 28.2754C30.497 24.7736 33.3644 21.2658 36.1848 17.8169V17.8227Z" fill="white"/>
<path d="M22.3002 41.8421C23.1815 40.7669 24.0512 39.6917 24.9384 38.6223C25.6905 37.7175 26.4661 36.8302 27.2183 35.9254C27.8 35.2321 28.3405 34.5035 28.9399 33.8219C29.1514 33.581 29.457 33.4048 29.739 33.2461C31.7779 32.1004 33.8286 30.9664 35.8734 29.8265C37.7771 28.7689 39.6868 27.7054 41.5906 26.6478C42.3662 26.2189 43.1418 25.79 43.9174 25.3611L43.9762 25.4257C43.6001 26.1073 43.2417 26.7947 42.8539 27.4704C42.2017 28.6044 41.5318 29.7267 40.8796 30.8606C40.6504 31.2602 40.4918 31.7244 40.1862 32.0534C39.8807 32.3824 39.4459 32.5998 39.0404 32.8231C36.8253 34.0335 34.6042 35.2262 32.3831 36.4366C30.967 37.2063 29.5568 37.9877 28.1408 38.7633C26.2899 39.7798 24.439 40.8021 22.5822 41.8186C22.5117 41.8539 22.4353 41.8774 22.3648 41.9067L22.3002 41.848V41.8421Z" fill="white"/>
<path d="M44.082 24.2271H37.5421C38.5645 22.3587 39.5928 20.4668 40.6563 18.5161C41.8021 20.4256 42.9127 22.2764 44.082 24.2271Z" fill="white"/>
<path d="M43.9174 25.367L44.0173 25.2789L44.0584 25.3082L43.9762 25.4316L43.9174 25.367Z" fill="white"/>
<path d="M22.3648 41.9009L22.2414 41.9832L22.212 41.9421L22.3061 41.8422L22.3707 41.9009H22.3648Z" fill="white"/>
</svg>
