<?xml version="1.0" encoding="UTF-8"?>
<svg id="katman_1" data-name="katman 1" xmlns="http://www.w3.org/2000/svg" width="256" height="256" viewBox="0 0 256 256">
  <defs>
    <style>
      .cls-1 {
        fill: #fefefe;
      }

      .cls-2 {
        fill: #fdfdfe;
      }

      .cls-3 {
        fill: #8b82ea;
      }

      .cls-4 {
        fill: #7368e6;
      }

      .cls-5 {
        fill: #9a93ed;
      }

      .cls-6 {
        fill: #7a70e7;
      }
    </style>
  </defs>
  <path class="cls-4" d="M156.03,35.07h3.76c9.03,2,18.51,1.43,27.19,5.49,21.33,9.98,36.64,25.72,43.39,48.21,3.86,12.86,3.26,26.65,2.53,40.13-.58,10.72-.93,21.5-6.31,31.3-14,25.51-34.17,41.88-64.31,43.91-5.42,.36-10.82,.58-16.24,.57-35.28,0-70.56,.02-105.84-.06-2.11,0-4.61,1.16-6.37-1.15-.19-5.62,.32-11.26-.19-16.83-.47-5.06,1.88-7.69,6.3-8.2,6.23-.72,8.18-4.25,8.85-9.92,.59-4.95,1.31-9.85,1.29-14.86-.07-23.7,0-47.4-.05-71.1-.02-6.67-1.1-13.2-3.57-19.43-1.75-2.09-4.18-2.39-6.66-2.59-2.5-.21-4.96-.51-5.98-3.37,.19-7.36-.8-14.75,.55-22.08h1.25c2.16,1.18,4.51,.59,6.77,.6,34.91,.04,69.82,.03,104.72,.03,2.96-.3,6.02,.68,8.92-.63Z"/>
  <path class="cls-1" d="M34.39,203.82c39.45,.03,78.94,1.03,118.35-.16,50.21-1.52,85.06-43.46,79.28-93.35-4.66-40.17-27.5-65.13-67.16-73.52-1.7-.36-3.89,.32-5.06-1.71,23.38,0,46.76,.05,70.14-.06,2.88-.01,3.97,.33,3.96,3.71-.14,54.37-.13,108.74-.02,163.11,0,2.86-.46,3.56-3.49,3.56-64.92-.12-129.84-.08-194.76-.15-.79,0-2.7,1.28-2.5-1.19,.28-.87,.7-.94,1.27-.23Z"/>
  <path class="cls-1" d="M34.33,57.69c5.24,0,10.47,0,15.71-.01,2.35,1.16,1.2,3.31,1.2,4.95,.08,37.48-.02,74.96,.17,112.45,.02,4.67-1.16,6.52-5.91,5.87-4.09-.55-8.31,.7-12.38-.67V57.6c.47-.86,.87-.84,1.21,.08Z"/>
  <path class="cls-6" d="M33.12,180.27q17.57,.88,17.57-16.47c0-32.9,.01-65.8-.03-98.7,0-2.47-.4-4.94-.62-7.42,2.25,1.88,1.88,4.48,1.89,6.95,.02,36.45-.11,72.9,.12,109.35,.04,6.22-2.34,7.86-8.12,7.69-9.54-.28-9.55,0-9.56,9.66,0,4.17,0,8.33,.01,12.5l-1.27,.23v-23.78Z"/>
  <path class="cls-6" d="M148.53,36.31c-35,0-70.01,.02-105.01,0-2.68,0-5.45,.4-7.89-1.24h112.88c.85,.4,.86,.81,.02,1.24Z"/>
  <path class="cls-5" d="M34.33,57.69l-.62,.09-.6-.18c0-6.88-.02-13.77,.03-20.65,0-.76-.78-2.31,1.23-1.88l-.04,22.61Z"/>
  <path class="cls-3" d="M148.53,36.31c-.02-.41-.02-.82-.02-1.24h7.53c-2.29,1.72-4.95,1.12-7.5,1.24Z"/>
  <path class="cls-1" d="M123.24,119.14c0-18.35,.18-36.7-.12-55.04-.08-5.09,1.62-6.35,6.42-6.21,10.85,.31,21.77-.02,32.38,2.64,25.26,6.32,40.65,27.22,41.43,55.81,.17,6.27-.17,12.51-1.33,18.67-5.3,28.02-25.92,45.2-54.57,45.51-6.06,.07-12.14-.34-18.17,.11-5.23,.4-6.2-1.78-6.14-6.45,.22-18.34,.09-36.69,.09-55.04Z"/>
  <path class="cls-2" d="M78.44,119.11c0-18.34,.12-36.68-.08-55.01-.05-4.37,.76-6.41,5.77-6.22,13.44,.51,11.29-1.58,11.33,11.21,.11,34.8-.06,69.6,.14,104.4,.03,5.2-.9,7.47-6.77,7.17-12.18-.62-10.28,1.31-10.36-10.28-.11-17.09-.03-34.17-.03-51.26Z"/>
</svg>