<?xml version="1.0" encoding="utf-8"?>
<!-- Generator: Adobe Illustrator 26.5.0, SVG Export Plug-In . SVG Version: 6.00 Build 0)  -->
<svg version="1.1" id="Layer_1" xmlns="http://www.w3.org/2000/svg" xmlns:xlink="http://www.w3.org/1999/xlink" x="0px" y="0px"
	 viewBox="0 0 168 168" style="enable-background:new 0 0 168 168;" xml:space="preserve">
<style type="text/css">
	.st0{clip-path:url(#SVGID_00000129197405076855868520000009349264502258742164_);}
	.st1{fill:#232A32;}
	.st2{fill-rule:evenodd;clip-rule:evenodd;fill:url(#SVGID_00000092416854599637627410000002554494541455606916_);}
	.st3{fill:url(#SVGID_00000117676839447652936140000011255101849391395475_);}
</style>
<g>
	<defs>
		<rect id="SVGID_1_" x="0.7" y="0.7" width="166.7" height="166.7"/>
	</defs>
	<clipPath id="SVGID_00000056424301352689232050000009027296086721127582_">
		<use xlink:href="#SVGID_1_"  style="overflow:visible;"/>
	</clipPath>
	<g style="clip-path:url(#SVGID_00000056424301352689232050000009027296086721127582_);">
		<path class="st1" d="M84,167.3c46,0,83.3-37.3,83.3-83.3C167.3,38,130,0.7,84,0.7C38,0.7,0.7,38,0.7,84C0.7,130,38,167.3,84,167.3
			z"/>
		
			<linearGradient id="SVGID_00000170978255702442132460000011150289990017749123_" gradientUnits="userSpaceOnUse" x1="31.3556" y1="131.8239" x2="148.3131" y2="100.6678" gradientTransform="matrix(1 0 0 -1 0 167.8898)">
			<stop  offset="0" style="stop-color:#9488F0"/>
			<stop  offset="1" style="stop-color:#3AEAB5"/>
		</linearGradient>
		<path style="fill-rule:evenodd;clip-rule:evenodd;fill:url(#SVGID_00000170978255702442132460000011150289990017749123_);" d="
			M84.1,29.4c-6,0-10.7,2.4-13.8,6.2c-3,3.7-4.3,8.5-4.3,13c0,4.8,1.9,10.2,4.8,14.4c2.9,4.1,7.4,8.1,13.2,8.1
			c5.8,0,10.4-3.9,13.2-8.1c2.9-4.2,4.8-9.6,4.8-14.4c0-4.5-1.2-9.3-4.2-13C94.8,31.7,90.1,29.4,84.1,29.4z M74.2,48.6
			c0-3.1,0.9-5.9,2.4-7.8c1.5-1.8,3.7-3.1,7.4-3.1c3.8,0,6,1.4,7.4,3.1c1.5,1.9,2.4,4.7,2.4,7.8c0,2.9-1.2,6.7-3.3,9.7
			c-2.2,3.1-4.6,4.5-6.5,4.5c-1.9,0-4.3-1.4-6.5-4.5C75.4,55.3,74.2,51.5,74.2,48.6z"/>
		
			<linearGradient id="SVGID_00000158020043976347270310000000879813093720167817_" gradientUnits="userSpaceOnUse" x1="18.289" y1="82.7732" x2="135.2465" y2="51.6171" gradientTransform="matrix(1 0 0 -1 0 167.8898)">
			<stop  offset="0" style="stop-color:#9488F0"/>
			<stop  offset="1" style="stop-color:#3AEAB5"/>
		</linearGradient>
		<path style="fill:url(#SVGID_00000158020043976347270310000000879813093720167817_);" d="M56.6,89.7c-8.3-0.9-15.2,5.7-15.2,12.6
			c0,6.8,5.4,13,15.4,13c3.6,0,7.3-1.6,11.4-4.5c4.7-3.4,8.7-7.5,12.6-11.6c3.9-4.1,7.9-8.1,12.7-11.6c4.7-3.4,10.1-6.1,16.2-6.1
			c13.9,0,23.7,9.2,23.7,21.2c0,12-11.4,22.2-24.4,20.8c-5.2-0.6-11.3-2.3-16.2-7.1l5.7-5.9c3.1,3,7.2,4.4,11.4,4.8l0,0
			c8.3,0.9,15.2-5.7,15.2-12.6c0-6.8-5.4-13-15.4-13c-3.6,0-7.3,1.6-11.4,4.5c-4.7,3.4-8.7,7.5-12.6,11.6
			c-3.9,4.1-7.9,8.1-12.7,11.6c-4.7,3.4-10.1,6.1-16.2,6.1c-13.9,0-23.7-9.2-23.7-21.2c0-12,11.4-22.2,24.4-20.8
			c5.2,0.6,11.3,2.3,16.2,7.1L68,94.5C64.8,91.5,60.8,90.1,56.6,89.7L56.6,89.7z"/>
	</g>
</g>
</svg>
