<?xml version="1.0" encoding="utf-8"?>
<!-- Generator: Adobe Illustrator 26.3.1, SVG Export Plug-In . SVG Version: 6.00 Build 0)  -->
<svg version="1.1" id="katman_1" xmlns="http://www.w3.org/2000/svg" xmlns:xlink="http://www.w3.org/1999/xlink" x="0px" y="0px"
	 viewBox="0 0 256 256" style="enable-background:new 0 0 256 256;" xml:space="preserve">
<style type="text/css">
	.st0{fill:#B1E1FF;}
	.st1{fill:#2B56FE;}
	.st2{fill:#3B82FF;}
	.st3{fill:#5FADFF;}
</style>
<path class="st0" d="M205.5,112.9L144.6,52c-8.7-8.7-23.2-8.7-31.9,0l-60.5,60.5l6.2,15.7l136.6,0.8
	C195.1,123.2,205.5,112.9,205.5,112.9z"/>
<path class="st1" d="M144.6,173.7c-4.1-4.1-9.9-7-16.1-7c-6.2,0-12,2.9-16.1,7H82.1l30.6,30.6c2.9,2.9,5.8,4.6,9.1,5.8l0,0h0.4
	c2.1,0.4,4.1,0.8,6.2,0.8c2.1,0,4.1-0.4,6.2-0.8h0.4l0,0c3.3-1.2,6.6-2.9,9.1-5.8l29.8-29.8l0.4-1.2L144.6,173.7z"/>
<path class="st2" d="M53.1,136.1c1.2,2.9-1.7,7-1.7,7s27.3,27.3,29.8,29.8c4.1,4.6,9.9,7.5,16.6,7.5c6.2,0,12-2.5,16.1-7
	c3.7-3.7,9.1-5.8,14.5-5.8c5.4,0,10.8,2.1,14.5,5.8c4.1,4.1,9.5,7,16.1,7c5.8,0,11.2-2.5,15.3-6.2c3.3-2.9,30.6-30.6,30.6-30.6
	c2.5-2.5,3.7-5,5-7.5H53.1z"/>
<path class="st3" d="M211.3,126.9c-0.8-10.8-9.5-19.9-20.3-20.7c-7-0.4-13.3,2.1-17.4,6.6c-3.7,3.7-9.1,6.2-14.5,6.2h-0.4
	c-5.4,0-10.8-2.5-14.5-6.2c-4.1-4.1-9.5-6.6-15.7-6.6c-6.2,0-11.6,2.5-15.7,6.6c-3.7,3.7-9.1,6.2-14.5,6.2h-0.4
	c-5.4,0-10.8-2.5-14.5-6.2c-4.6-4.6-10.8-7-17.4-6.6c-10.8,0.8-19.5,9.9-20.3,20.7c-0.8,12.8,9.5,23.6,21.9,23.6
	c6.2,0,12-2.5,16.1-7c3.7-3.7,9.1-5.8,14.5-5.8s10.4,2.1,14.1,5.8c4.1,4.6,9.9,7,16.1,7c6.2,0,12-2.5,16.1-7
	c3.7-3.7,9.1-5.8,14.5-5.8s10.8,2.1,14.5,5.8c4.1,4.1,9.5,7,16.1,7C202.2,150.5,212.1,139.8,211.3,126.9z"/>
</svg>
