<?xml version="1.0" encoding="utf-8"?>
<!-- Generator: Adobe Illustrator 26.3.1, SVG Export Plug-In . SVG Version: 6.00 Build 0)  -->
<svg version="1.1" id="katman_1" xmlns="http://www.w3.org/2000/svg" xmlns:xlink="http://www.w3.org/1999/xlink" x="0px" y="0px"
	 viewBox="0 0 256 256" style="enable-background:new 0 0 256 256;" xml:space="preserve">
<style type="text/css">
	.st0{fill:#EEEEEE;}
	.st1{fill:#0F0F0F;}
	.st2{fill:#C0C0C0;}
	.st3{fill:#DADADA;}
	.st4{fill:#575757;}
	.st5{fill:#C3C3C3;}
	.st6{fill:#F5F5F5;}
	.st7{fill:#F8F8F8;}
	.st8{fill:#181818;}
	.st9{fill:#545454;}
	.st10{fill:#F9F9F9;}
	.st11{fill:#F6F6F6;}
	.st12{fill:#131313;}
	.st13{fill:#171717;}
	.st14{fill:#040404;}
	.st15{fill:#080808;}
	.st16{fill:#050505;}
	.st17{fill:#020202;}
	.st18{fill:#030303;}
	.st19{fill:#1D1D1D;}
	.st20{fill:#414141;}
	.st21{fill:#060606;}
	.st22{fill:#0E0E0E;}
	.st23{fill:#0C0C0C;}
	.st24{fill:#0A0A0A;}
	.st25{fill:#090909;}
	.st26{fill:#3A3A3A;}
	.st27{fill:#121212;}
	.st28{fill:#070707;}
	.st29{fill:#0B0B0B;}
	.st30{fill:#111111;}
	.st31{fill:#161616;}
	.st32{fill:#141414;}
	.st33{fill:#C4C4C4;}
	.st34{fill:#FDFDFD;}
	.st35{fill:#BDBDBD;}
	.st36{fill:#7D7D7D;}
	.st37{fill:#E1E1E1;}
	.st38{fill:#E4E4E4;}
	.st39{fill:#404040;}
	.st40{fill:#0D0D0D;}
	.st41{fill:#333333;}
	.st42{fill:#3D3D3D;}
	.st43{fill:#353535;}
	.st44{fill:#E9E9E9;}
	.st45{fill:#C2C2C2;}
	.st46{fill:#FEFEFE;}
	.st47{fill:#C1C1C1;}
	.st48{fill:#B8B8B8;}
	.st49{fill:#D4D4D4;}
	.st50{fill:#F7F7F7;}
	.st51{fill:#F1F1F1;}
	.st52{fill:#BFBFBF;}
	.st53{fill:#FAFAFA;}
	.st54{fill:#ECECEC;}
	.st55{fill:#F4F4F4;}
	.st56{fill:#F3F3F3;}
	.st57{fill:#EFEFEF;}
</style>
<g>
	<path class="st0" d="M33.7,201.8c-2.7-3.6-2.4-7.9-2.4-11.9c-0.1-42.1-0.1-84.3,0-126.4c0-5.6,0.5-11.3,3.3-16.4
		c0.6-1.1,1-2.5,2.6-2.6c0.4,1.7-0.7,2.9-1.2,4.4c-1.6,3.7-2.6,7.4-2.6,11.5c0.1,44,0.1,88,0,132c0,2.9,1,5.6,1,8.4
		C34.3,201.2,34.1,201.5,33.7,201.8z"/>
	<path class="st1" d="M215.5,43.3c0.2,0.2,0.5,0.3,0.7,0.5c4.9,6.3,6,13.6,5.7,21.4c-0.3,9.1,0.1,18.3-0.1,27.4
		c-0.2,10.4,0.3,20.9,0.2,31.3c-0.3,22.3-0.2,44.6-0.1,67c0,5.2-1.2,10-3.6,14.5c-1.8,2.3-3.1,5-5.8,6.4c-0.3-0.2-0.5-0.4-0.6-0.7
		c0.4-2.6,2.5-4.1,3.8-6.2c0.6-0.7,1-1.5,1.3-2.4c1.5-2.8,1.1-6.1,2.8-8.9c0.1-1.8,0.1-3.5,0.1-5.3c0-41.5,0-82.9,0-124.4
		c0-1.5,0.2-3.1-0.2-4.6c-0.8-1.6-1-3.3-1.3-5c-0.6-2.7-1.2-5.5-3.7-7.4c-1.2-0.9-1.3-2.4-1.5-3.8C214.1,41.4,214.7,42.8,215.5,43.3
		z"/>
	<path class="st2" d="M212.2,211.4c2.6-0.9,3.1-3.9,5.3-5.2c0.4,0.4,0.5,0.9,0,1.3c-3.1,4-6.6,7.6-11.2,10c-0.5,1.2-1.9,0.7-2.7,1.3
		c-1.7,1.5-4.1,1-6,1.9c-0.9,0.7-1.9,0.4-2.9,0.4c-45.2,0-90.4,0-135.6,0c-1,0-2,0.3-2.9-0.3c-0.6-0.2-1.3-0.5-1.9-0.7
		c-1.3-0.6-2.9-0.1-4-1.3c-1.2,0.2-2.1-0.2-2.7-1.3c-0.5-0.7-3.5,0-1.4-2.3c0.9,0,1.8,0.1,2.5,0.6c5.2,2.8,10.8,3.4,16.6,3.4
		c41.3,0,82.6,0,124,0c5.2,0,10.3-0.7,15-3C207.3,215.1,209.4,212.8,212.2,211.4z"/>
	<path class="st3" d="M217.4,207.5c0-0.4,0-0.9,0-1.3c3.7-6.8,4.1-14.1,4.1-21.7c-0.1-37.5-0.1-75,0-112.5c0-9.8,0.4-19.5-5.4-28.2
		c4.4,3.5,5,8.7,6,13.7c0.2,1.1,0.1,2.2,0.1,3.3c0.4,1.4,0.4,2.8,0,4.3c0,14.4,0,28.9,0,43.3c0.4,3.8,0.4,7.7,0,11.5
		c0,2.5,0,5.1,0,7.6c0.4,3.8,0.4,7.7,0,11.5c0,18.4,0.1,36.8-0.1,55.1C222.1,199,220.6,203.6,217.4,207.5z"/>
	<path class="st4" d="M200.3,32.6c1.3,0.4,2.6,0.9,3.9,1.3c3.3,1.1,6.1,2.8,8.2,5.5c0,0.3-0.2,0.6-0.5,0.7c-2.2,0.1-3.4-1.7-5.1-2.7
		c-1-0.6-2.1-1.1-3.3-1.6c-2.6-1.3-5.3-1.7-8.1-2.2c-1.4-0.2-2.9-0.1-4.3-0.1c-42.3,0-84.6,0-126.9,0c-1.5,0-3.1-0.1-4.6,0.3
		c-1,0.3-2,0.4-3,0.4c-1,0-1.9,0-2.8-0.6c-0.3-0.3-0.4-0.6-0.2-1l0,0c2.8-0.9,5.8-1,8.7-1c43.6,0,87.2,0,130.8,0
		C195.6,31.6,198,31.8,200.3,32.6z"/>
	<path class="st5" d="M200.3,32.6c-9.5-1.4-19.1-0.7-28.6-0.8c-35.6-0.1-71.2,0-106.9-0.1c-3.7,0-7.4,0.4-11.1,0.8
		c1.8-1.2,3.8-1.4,5.9-1.4c44.9,0,89.9,0,134.8,0C196.5,31.2,198.6,31.1,200.3,32.6z"/>
	<path class="st0" d="M56.3,220.8c45.9,0,91.8,0,137.7,0c1.2,0,2.4-0.1,3.6-0.1c-0.8,1.2-2,0.7-3,0.7c-45.1,0-90.1,0-135.2,0
		C58.4,221.5,57.2,221.8,56.3,220.8z"/>
	<path class="st0" d="M45.8,215.5c-0.2,1.5,1.5,1.2,1.9,2c-1.1-0.1-2.7,1.2-2.8-1.3c-0.1-1-1.5-1.5-2.4-2c-4.6-2.9-7.2-7.3-8.7-12.4
		c0.1-0.1,0.2-0.1,0.3-0.2c1.5,0.2,1.6,1.6,2.4,2.5c1.2,1.9,2.4,3.7,3.8,5.4c0.8,1.5,2.2,2.4,3.5,3.4
		C44.5,213.6,45.9,214,45.8,215.5z"/>
	<path class="st5" d="M53.7,32.6c0,0.2,0,0.4-0.1,0.6c-1.6,2.1-4.4,2-6.3,3.6c-2.1,0.9-3.7,2.4-5.3,4.1c-1.1,0.8-1.8,2.4-3.5,1.7
		c-0.2-0.7,0-1.2,0.5-1.5c0.7-2,2-3.3,4-3.9C46.6,35.5,49.5,32.4,53.7,32.6z"/>
	<path class="st3" d="M212.4,39.7c-2.3-2.5-5.4-3.9-8.1-5.8c4.5,0.5,10.2,5,11.2,8.7C213.9,42.1,212.6,41.5,212.4,39.7z"/>
	<path class="st6" d="M43.2,37.2c-1.3,1.3-2.7,2.6-4,3.9c-1.3-3.7-1.2-3.9,3.4-3.9C42.7,37.2,42.9,37.2,43.2,37.2z"/>
	<path class="st7" d="M74,29.1c-3.2,0-6.5,0-9.7,0c0-0.1,0-0.2,0-0.3c3.2,0,6.5,0,9.7,0C74,28.9,74,29,74,29.1z"/>
	<path class="st3" d="M222.2,139c0-3.8,0-7.7,0-11.5C223.1,131.4,223.1,135.2,222.2,139z"/>
	<path class="st3" d="M222.2,119.9c0-3.8,0-7.7,0-11.5C223.1,112.2,223.1,116.1,222.2,119.9z"/>
	<path class="st7" d="M223.6,116.9c0-3,0-6,0-9c0.1,0,0.2,0,0.3,0c0,3,0,6.1,0,9.1C223.9,117,223.7,116.9,223.6,116.9z"/>
	<path class="st7" d="M223.6,138.2c0-3,0-6,0-9c0.1,0,0.2,0,0.2,0c0,3,0,6,0,9C223.8,138.2,223.7,138.2,223.6,138.2z"/>
	<path class="st8" d="M38.6,42.6c1.5-0.1,1.9-1.8,3.1-2.2c0.1,0.1,0.3,0.2,0.4,0.3c0.2,2.6-1.4,3.8-3.7,4.4
		c-0.3-0.7-0.4-1.3,0.2-1.9C38.6,43,38.6,42.8,38.6,42.6z"/>
	<path class="st7" d="M39.6,35c-1.1-0.4-0.7-1.3-0.8-2c0-0.7,0.4-1.1,1-0.9c0.6,0.2,1.2,1,0.7,1.5C40.1,34.1,40.6,35.1,39.6,35z"/>
	<path class="st9" d="M38.6,43.2c0,0.6-0.1,1.2-0.1,1.8c-0.1,1.1-0.8,2-1.6,2.7C36.6,48,36.3,48,36,47.9c-0.1-0.1-0.2-0.2-0.3-0.4
		c0.5-1,1-2.1,1.6-3.1C37.9,44.3,37.7,43.2,38.6,43.2z"/>
	<path class="st4" d="M212.4,39.7c1,1,2,2,3,2.9c0,0.2,0.1,0.4,0.1,0.7c-1.1,0.6-1.1-0.9-1.9-1c-0.8,0-1.2-0.5-1.6-1.1
		c-0.2-0.4-0.2-0.8,0-1.2C212.1,39.9,212.2,39.8,212.4,39.7z"/>
	<path class="st7" d="M223.6,101.2c0-1.2,0-2.5,0-3.7c0.1,0,0.2,0,0.3,0c0,1.2,0,2.4,0,3.6C223.8,101.1,223.7,101.2,223.6,101.2z"/>
	<path class="st7" d="M224,155.5c0,1.2,0,2.5,0,3.7c-0.1,0-0.2,0-0.3,0c0-1.2,0-2.5,0-3.7C223.8,155.5,223.9,155.5,224,155.5z"/>
	<path class="st7" d="M223.7,86.1c-0.3-2-0.4-3.3,0.1-5.3C224.2,82.8,224.3,84.1,223.7,86.1z"/>
	<path class="st10" d="M195.9,223.8c-1.1,0.6-1.7,0-2.4-0.7C194.6,222.7,195.4,222.6,195.9,223.8z"/>
	<path class="st7" d="M30.5,59.1c-0.1,0.1-0.2,0.6-0.4,0.6c-0.5,0-0.7-0.4-0.8-0.9c-0.1-0.4,0-1,0.6-0.9
		C30.5,58,30.5,58.6,30.5,59.1z"/>
	<path class="st0" d="M50.4,218.8c1.3,0.4,2.7,0.9,4,1.3C52.9,220.1,51.3,220.7,50.4,218.8z"/>
	<path class="st11" d="M29.6,192.5c0.3,1.2,0.6,2.2,0,3.3C29,194.6,29.3,193.5,29.6,192.5z"/>
	<path class="st3" d="M222.2,65.1c0-1.4,0-2.8,0-4.3C223,62.2,223,63.6,222.2,65.1z"/>
	<path class="st6" d="M212.3,33.6c1.1,0.3,1.5,0.8,1.8,1.9C213.1,35.3,212.6,34.8,212.3,33.6z"/>
	<path class="st0" d="M203.6,218.8c0.9-0.4,1.8-0.9,2.7-1.3C206,219.3,204.7,218.7,203.6,218.8z"/>
	<path class="st9" d="M35.8,204.3c-1.1-0.6-0.9-2.1-1.8-2.8c-2.2-6.5-1.7-13.2-1.7-19.9c0-39.5,0-79,0-118.5
		c0-5.4,0.5-10.7,3.4-15.5c0.1,0.1,0.3,0.2,0.4,0.4c1.1,2.5-1.1,4.3-1.2,6.6c-0.8,2.1-0.7,4.3-0.7,6.5c0,43.5,0,87,0,130.5
		c0,0.9,0,1.9,0,2.8c0.2,1.5,0.6,2.9,1,4.3c0.2,1.2,0.6,2.4,1.1,3.5c0.1,0.3,0.2,0.6,0.2,0.9C36.4,203.6,36.2,204,35.8,204.3z"/>
	<path d="M212.3,41.1c0.4,0.4,0.8,0.8,1.3,1.3c0.6,4.1,4.7,6.4,5.5,10.6c0.3,1.5-0.9,3.6,1.1,4.7c0.6,1.1,0.3,2.4,0.3,3.6
		c0,40.6,0,81.2,0,121.8c0,4-0.2,8-0.3,12c-1.7,2.3-0.6,5.7-2.7,7.9c-0.6,0.5-0.8,1.4-1.3,2c-0.9,2.3-2.7,3.9-4.1,5.9
		c-0.4,0.9-1.1,1.5-2.1,1.7c-1.5-0.4-3.1-2-4.4,0.5c-0.4,0.6-1.4,0.1-2-0.3c0.7,1,2.9,0.4,2.9,2.4c-0.5,1.2-1.9,1-2.6,1.8
		c-1.8,0.6-3.4,2-5.5,1.6c-0.8-1.3,0.5-1.6,1.1-2.2c0.5-0.6,2.2,0,1.5-1.8c0.4,1.6-1.1,1.3-1.7,1.9c-0.7,0.4-1.4,0.6-2.2,0.3
		c-0.7-0.2-1.3-0.8-2.2-0.6c0.4,0.8,1.2,0.7,1.7,1.1c0.4,0.4,0.6,0.8,0.2,1.3c-0.3,0.2-0.7,0.3-1,0.3c-1.4,0-2.7,0.4-4.1,0.3
		c-40.6,0-81.3,0-121.9,0c-1.9,0-3.7-0.1-5.6,0.2c-1.7,0.3-3.4,0.4-5-0.1c-2.2-3.3-6.2-3.5-9.2-5.3c-0.5-0.3-1.2-0.4-1.7-0.9
		c-0.5-0.7-1.2-1.4-0.8-2.3c0.4-1,1.4,0,2-0.5c-2.2-0.9-4.8-1-6-3.7c-0.1-0.2-1.3-2-1.5,0.4c-0.1,1.6-1.3,0.9-2.1,0.1
		c-0.9-1.6-1.2-3.5-2.6-4.9c-1.3-1.2,0.1-2.1,0.7-3.2c-1.9-0.4-4-0.6-2-3.3c0.8-1.1-0.2-2.8-0.1-4.2c2-3,2.2-6.3,2.2-9.7
		c-0.1-35.8,0-71.5-0.1-107.4c-0.6,0.5-0.6,1.6-1.5,1.3c-0.9-0.3-1.3-1.1-1.5-2c-0.4-2.6-0.2-5.3-0.1-7.9c-0.3-3.3,2-6.7,0-10.1
		c-0.5-0.7,0.3-1.4,0.9-1.9c0.4-0.3,0.9-0.5,1.3-0.9c0.4-0.5,0.2-0.9-0.1-1.3c-0.1-0.2-0.2-0.5-0.2-0.8c0.3-1,1.1-1.7,1.6-2.5
		c0.3-0.5,0.7-1,1.1-1.4c0.3-0.3,0.6-0.7,0.9-1c1.9-2.9,2.2-3,3.7-0.8c-0.2,1.1-1,1.9-2,3.3c1.4-0.9,2.5-1.5,3.7-1.6
		c1.1-0.1,1.9-0.4,2.1-1.6c0-0.2,0-0.4,0.1-0.6c-0.3,0.2-0.1,0.5-0.2,0.8c-1,1.5-1.7,0.8-2.4-0.3c-0.1-0.3-0.1-0.6-0.1-0.9
		c0.4-1.2,0.7-2.5,1.6-3.5c0.4-0.3,0.9-0.4,1.3-0.5c3-0.5,5.9-0.4,9.7-0.1c-1.7-1.3-4.1,0.3-4-2.4c1.2-2.3,3.4-2.4,5.4-2.2
		c5,0.6,10,1.1,15,1.1c37.4,0.1,74.8,0.1,112.2,0c-37.5,0-75,0-112.5,0c-4.2,0-8.3-1.1-12.5-0.7c-0.6,0.1-1.4,0.1-1.6-0.8
		c-0.2-1,0.6-1.3,1.4-1.4c1.2-0.2,2.4-0.1,3.6-0.1c40.6,0,81.2,0,121.8,0c1.5,0,3.1,0,4.6-0.1c0.7-0.2,1.4-0.3,2.2-0.3
		c0.7,0.1,1.2,0.4,1.8,0.7c3.2,1.6,3.2,1.6,0.8,4.6c1.3-0.7,1.6-2.3,2.9-2.3c1.1,0,2.3-1.8,3.4,0c0.1,0.5,0,0.9-0.2,1.3
		c-0.2,0.2-0.5,0.4-0.7,0.7c2.4,0.4,3.9,3.6,6.9,2.3C209.6,41.8,211.4,39.6,212.3,41.1z"/>
	<path class="st1" d="M220.1,195c-0.9-1.5-1-2.7-0.3-4.7c0.8-2.3,0.3-5.1,0.3-7.7c0-41.7,0-83.3,0-125c1.1,1,0.6,2.3,0.6,3.4
		c0,43.5,0,87,0,130.6C220.8,192.8,221.2,194.1,220.1,195z"/>
	<path class="st12" d="M203.6,216.2c0.6-1.1,2.1-0.3,2.7-1.3c1-1.4,2.3-2.3,3.9-2.7c0.6-0.5,1.3-0.9,1.9-1.4
		c0.1,0.2,0.1,0.4,0.1,0.6c-1.6,2.3-3.8,3.9-6.4,4.8C205,216.6,204.3,216.8,203.6,216.2z"/>
	<path class="st1" d="M216.2,204.9c0-1,0-1.9,1.3-2C217.5,203.9,217.1,204.6,216.2,204.9z"/>
	<path class="st13" d="M203.6,216.2c0.7,0,1.4,0,2.1,0.1c-4.1,3.2-8.9,3.7-13.7,3.7c-43.5,0.1-87.1,0.1-130.6,0
		c-5.6,0-10.7-1.9-15.6-4.4c-2-2-4.8-3.1-6.1-5.8c0.1-0.1,0.2-0.2,0.3-0.4c1.7-0.5,2.4,1,3.6,1.6c0.4,0.3,0.7,0.6,1,0.9
		c1.5,1.3,2.9,2.8,5.2,2.1c0.3-0.1,0.9-0.1,0.9,0.1c1.4,4.2,5.5,2.7,8.3,4.1c1.4,1.2,3.1,0.4,4.6,0.6c1.3-0.6,2.6-0.3,3.9-0.3
		c41.4,0,82.7,0,124.1,0c1.6-0.2,3.2,0.4,4.7-0.3c0.2,0,0.4,0,0.7,0c0.4-0.4,0.9-0.4,1.3,0C200.3,218.1,201.9,217.1,203.6,216.2z"/>
	<path class="st14" d="M192.4,33.2c-1.2,1.2-2.7,0.6-4.1,0.6c-41.3,0-82.5,0-123.8,0c-1.3,0-2.6-0.2-4.1,0.4
		c1.2,1.4,2.6,0.8,3.7,0.8c40.8,0,81.6,0,122.4,0.1c1.4,0,4-1.1,4,1.1c0,1.6-2.6,0.8-4,0.8c-37.2,0.1-74.4,0-111.6,0.1
		c-5,0-9.9-2.6-14.8-1.2c-1.9,0.5-5.4-1.4-5.9,2.5c-0.5,0.2-0.8,0-1.1-0.3c-1.4-0.7-2.2-1.8-1.7-3.5c1.3-1.5,3.2-0.9,4.8-1.4
		c0.9,0,1.8-0.1,2.6-0.1c1-0.6,2.2-0.3,3.2-0.3c42.3,0,84.7,0,127,0C190.2,32.9,191.4,32.6,192.4,33.2z"/>
	<path class="st8" d="M192.4,33.2c-44.5,0-89,0-133.4,0c1-1.1,2.3-0.6,3.4-0.6c43.2,0,86.4,0,129.6,0c1.5,0,3.1-0.3,4.5,0.6
		c-0.7,0.6-1.3,0.5-2,0.1C193.7,33.2,193.1,33.2,192.4,33.2z"/>
	<path class="st14" d="M194.4,33.2c0.7,0,1.4,0,2-0.1c2.8-0.1,5.3,0.9,7.8,2.1c-0.3,1.4-1.1,1.1-2,0.6c-2.2,0.3-4.2,1.2-5.5,3.2
		c-0.3,0.4-0.5,1.5-1.4,0.7c-0.6-0.5-0.5-1.2,0-1.8c0.7-0.9,1.5-1.7,2.3-2.5C196.6,34.8,195,34.7,194.4,33.2z"/>
	<path class="st15" d="M202.3,35.9c0.7,0,1.5,0.1,2-0.6c3,1,5,3.4,7.7,4.8c0.1,0.3,0.2,0.7,0.4,1c-0.8,0.3-1.9-0.4-2.4,0.6
		c-0.4,0.9-0.9,1-1.4,0.3c-0.2-0.3,0.2-1,0.3-1.5c-1.9-1.6-4.4-2.2-6.6-3.3C202.3,36.7,202.3,36.3,202.3,35.9z"/>
	<path class="st8" d="M56.3,33.3c-1.4,1.1-3.5,0.2-4.6,1.9c-1,1-2.3,1.3-3.6,1.7c-0.3,0-0.6,0-0.9-0.2c-0.1-0.1-0.2-0.2-0.3-0.4
		c1.9-1.8,4.3-2.5,6.7-3.2C54.5,33.2,55.4,33.3,56.3,33.3z"/>
	<path class="st13" d="M35.8,204.3c0-0.5,0.1-0.9,0.1-1.4c0.3-0.2,0.5-0.2,0.8-0.1c1.3,1.6,2.4,3.4,3.4,5.2c0.1,0.5,0.1,0.9-0.2,1.3
		c-0.1,0.1-0.2,0.2-0.3,0.3C38,208.2,36.8,206.4,35.8,204.3z"/>
	<path class="st8" d="M41.7,40.4c1.3-1.9,3.1-3.2,5.3-4c0.1,0.1,0.1,0.2,0.2,0.3c0.2,0.7,0,1.4-0.3,2.1c-0.2,0.6-0.6,1-1.2,1.3
		c-1.3-0.1-2.4,1.1-3.8,0.6C41.9,40.5,41.8,40.5,41.7,40.4z"/>
	<path class="st16" d="M42,40.6c1.3-0.3,2.2-2.1,3.8-0.8c-0.1,1.3,0.6,2.7,0,4c0,0.2,0,0.4,0,0.7c0.4,0.5,0.4,1.1-0.1,1.4
		c-0.8,0.5-1.4,0-1.8-0.7c-0.3-1.4-0.9-1.9-1.8-0.5c-0.4,0.7-0.3,1.8-1.5,1.8c-0.4,0-0.6,0.2-0.7,0.7c-0.2,0.4-0.4,0.9-0.7,1.3
		c-0.9,0.2-1.8,0.2-2.7,0.1c-0.2-0.2-0.2-0.3-0.2-0.5c0.1-0.2,0.1-0.2,0.2-0.2c0.5-1,0.9-2.1,1.9-2.7C39.4,43.5,41.6,42.8,42,40.6z"
		/>
	<path class="st1" d="M36.6,47.8c0,0.2,0,0.4,0,0.6c0.9,0.7,0.2,1.8,0.6,2.6l0,0c0.2,0.2,0.3,0.4,0.3,0.7c-0.2,0.7-0.8,0.8-1.3,1
		c-0.5,0.3-0.7,0.9-1.3,1.1c-0.1-0.1-0.3-0.1-0.4-0.2c-0.2-2.1,1.6-3.7,1.6-5.7C36.2,47.9,36.4,47.8,36.6,47.8z"/>
	<path class="st1" d="M33.3,192.4c0-6.1-0.1-12.1-0.1-18.2c0-38.3,0-76.6,0-114.9c0-2,0.2-3.9,1.3-5.7c0,0,0.1,0.1,0.1,0.1
		c0.4,1.1,0.4,2.2,0.5,3.3c-0.3,1.1-0.3,2.3-0.2,3.5c-0.1,42.8,0,85.6,0,128.4c0,0.8,0,1.5-0.2,2.3
		C34.4,191.8,34.1,192.4,33.3,192.4z"/>
	<path class="st14" d="M39.8,208.2c-1.5-1.5-2.7-3.2-3.3-5.2c-0.7-0.9-0.5-2.1-1.3-2.9c-0.2-0.3-0.4-0.7-0.6-1.1
		c-0.4-1.3-0.8-2.6-1.2-4c0.6-1,0.7-2.2,1.2-3.2c0.1-0.6,0.2-1.2,0.8-1.5c1.1,0.2,0.7,1.2,0.8,1.9c0,1,0,2-0.1,3
		c0,0.4,0.4,0.2,0.3,0.1c-0.4-0.7-0.2-1.6-0.2-2.4c0.1-0.1,0.2-0.2,0.3-0.3c1.1,1.9,1.2,3.6-0.7,5.1c1.4,0.4,3.2-0.2,4.3,1.3
		c-0.2,1.3-1.5,0.6-2.1,1.1c-0.5,0.5-1,1.1-0.1,1.5c2.5,1.1,2.1,3.5,2.5,5.4C40.8,207.6,40.4,208,39.8,208.2z"/>
	<path class="st17" d="M35.2,192.4c-0.7,0.8-0.3,2.4-1.8,2.6c0-0.9-0.1-1.8-0.1-2.6c0.2-0.2,0.4-0.4,0.6-0.7
		c0.2-0.2,0.4-0.3,0.6-0.2C34.8,191.7,34.9,192.1,35.2,192.4z"/>
	<path class="st13" d="M34.6,199c0.2,0.2,0.4,0.4,0.6,0.7c1,0.7,1.3,1.6,0.6,2.7C35,201.4,34.5,200.3,34.6,199z"/>
	<path class="st1" d="M35.8,202.4c0.2-1-0.2-1.9-0.6-2.7c2.1,0.5,1,2.1,1.3,3.3c-0.2,0-0.4,0-0.6,0
		C35.8,202.8,35.8,202.6,35.8,202.4z"/>
	<path class="st17" d="M35.9,192.4c0-0.7,0.1-1.5-0.7-2c-1.4-2.3-0.1-4.9-0.9-7.3c-0.1-0.8-0.1-1.6,0.1-2.4
		c0.3-7.9,0.1-15.8,0.1-23.7c0-24.1,0-48.1,0-72.2c0-1.4,0.1-2.9-0.1-4.3c-0.4-1.6-0.2-3.2-0.1-4.8C35,72,34,68.2,34.9,64.5
		c0.3-0.4,0.6-0.5,1-0.3c0.3,3.5-0.6,7.2,0.7,10.8c1.4-1.5-0.4-4.5,1.4-4.3c2.2,0.2,1.1,2.9,1.1,4.5c0.1,36.1,0.1,72.2,0,108.3
		c0,2.7,0.7,5.6-2.4,7.3c-0.3,0.2-0.2,1-0.3,1.6h0C36.3,192.7,36.1,192.7,35.9,192.4z"/>
	<path class="st18" d="M154.8,161.4c-2.2,1.6-4.2-1.6-6.5-0.2c-0.4,0.3-0.9-1-0.6-1.1c2.3-1.2,0.6-2.1-0.2-3c-1-1.2-2-2-3.5-0.6
		c-0.8,0.7-1.7,0.2-2.2-0.7c-0.3-0.5-0.8-1.1-0.2-1.8c1.1-1.3,2.1,0.4,3.3,0.3c-2.4-3.1-2.5-3.2-2-5.4c0-0.2,1.1-0.4,0-0.7
		c-1.5,1.1-3.5,0.6-5.2,1.3c-0.8,0.3-1.5,0.7-2.2,1.2c-0.8,0.6-1.2,2.1-2.5,1.6c-1.2-0.5-1.3-1.9-1.6-3c-0.1-0.5,0.4-1.1-0.6-1.4
		c-0.8,1.6-0.3,3.4-0.4,5c-0.5,0.6-1.1,1.1-0.9,2c0.7-0.5,0.2-1.5,0.9-2c1.4,0.6,1.6,1.8,1.2,3c-0.5,1.3-2,1.7-3,1.4
		c-3.1-0.8-3.8,1.5-4.6,3.4c-0.4,1-0.9,1.5-1.8,2.3c-2.4,1.9-4.7-0.2-6.9,0.5c-0.5-1-0.4-2-0.4-3c4.1-5.4,9.4-9.5,13.8-14.5
		c4.6-4.4,9.3-8.7,13.3-13.5c0.2-0.2,0.5-0.3,0.8-0.3c1.1,0.1,2,0.8,3.1,0.7c0.2,0.1,0.4,0.2,0.6,0.4c0.9-0.6,0.1-1.7,0.7-2.4
		c0.8-1.3,1.8-1.8,3.1-0.6c0.3,1.4,0.4,2.9,0.9,4.3c-1,2.2-3,3.4-4.6,4.9c-1.4,0-2.1,0.8-2.5,2.1c-1.3,1.9-1.1,3.5,0.8,4.9
		c0.8,0.6,1.4,1.3,1.6,2.3c0.1,0.4-0.3,0.7-0.1,1c0.1,0.2,0.5-0.2,0.8-0.2c3.8,2.8,7.5,5.7,9.8,9.9
		C156.5,160.2,155.8,161,154.8,161.4z"/>
	<path class="st19" d="M146.1,148.8c-0.7-0.8-1.3-1.8-2.1-2.4c-2.6-1.7-2.2-3.5-0.5-5.6c0.8-0.8,1.5-1.6,2.6-2
		c1.5-1.6,3.1-3.1,4.6-4.7c0.4-0.3,0.4-0.8,0.6-1.2c1.6-2.6,3.9-4.6,6.1-6.6c2-1.3,2.8-3.8,5.2-4.7c1.4-1,2.6-2.4,4.6-2
		c5.3-0.1,10.6-1.2,15.9,0c1.4-0.2,2.3,0.8,3.3,1.3c0.2,0.1,0.3,0.3,0.2,0.4c0,0.2,0,0.3-0.1,0.3c0,0.2,0,0.5,0,0.7
		c0,1.5-0.8,2.1-2.2,2.3c-0.4,0-0.6-0.2-0.8-0.5c0.4-1.6,0.1-2.4-2-2.6c-4.2-0.4-8.3-0.3-12.5-0.2c-1.8,0-3.4,0.8-4.7,2.1
		c-1.9,2-3.9,3.9-5.8,5.9c-3.9,4-8,7.9-12,11.8c-1.9,1.8-1.8,3.1,0,4.9c5.8,5.6,11.4,11.3,17.1,17c1.5,1.5,3.1,2.3,5.3,2.2
		c4.8-0.1,9.6-0.1,15.3,0.3c-2.8-4.5-6.6-7-9.5-10.3c-2.9-3.2-6-6-9-9.1c-2.3-2.5-2.1-3.6,1.2-5.4c0.3,0.1,0.5,0.2,0.7,0.6
		c0.1,0.6-0.1,1.1-0.3,1.7c-0.3,0.7,0.1,1.2,0.5,1.7c1.4,1.5,2.9,2.9,4.3,4.3c0.7,0.7,1.4,1.4,2.1,2.1c0.9,0.9,1.8,1.8,2.7,2.7
		c0.7,0.7,1.5,1.4,2.2,2.1c2.1,2.1,4.3,4.2,6.4,6.4c0.9,1,2.1,2.1,1,3.6c-0.2,0.4-0.5,0.9-0.7,1.3c-4.4,0.7-8.9,0.1-13.3,0.3
		c-1.3,0.1-2.6-0.4-3.8,0.3c-2.6,0.5-4.1-1.4-6-2.6c-0.2-0.2-0.6-0.3-0.7-0.7c-0.4-0.9-1.1-1.5-1.9-2c-0.5-0.3-0.2-1-0.7-1.3
		c-0.4-0.2-0.9-0.5-1.3-0.7c-0.3-0.6-1.7-0.1-1.3-1.3c-3-3.6-6.5-6.7-9.9-9.9C146.5,149.4,146.2,149.2,146.1,148.8z"/>
	<path class="st18" d="M176.5,154.1c-1.1-0.7-2-1.5-2.7-2.7c-0.5-0.8-0.9-1.8-2-2c-1.8-1.3-3.3-2.8-4.6-4.6c0.3-0.8-1.3-1-0.7-2
		c0.2-0.4,0.5-0.9,0.7-1.3c1.9-1.6,3.6-3.4,5.9-4.6c0.8,0.7,2.2,0.4,3.1,1.9c-2.4-0.9-3.4-0.5-2.6,1.9c0.2,0.6-0.3,1.6-0.8,2.1
		c-1.7,1.7,0.5,3,0.3,4.5c1.5,0.1,3.2,1.1,4.4,0.1c2-1.9,4,1.2,5.9-0.3c0,0,0.7,0.5,0.7,0.6c-0.8,2.4,2.4,5-0.7,7.4
		c-1.7,1.3-1.5,1.6,0.1,3.2c0.8-0.7,0.8-1.8,1.2-3.6c0.2,3.3,4.4,1.9,4.1,5.1c0,0.4,1,0.3,1.3-0.2c0.4-0.8,0.9-2,1.8-0.8
		c0.7,1,1,3.1-0.5,3.3c-3.2,0.4-2.4,2.2-1.9,4.3c-1.1,0-2.1-0.7-3.1-0.2c0.2-1.9-1.3-2.9-2.4-4c-1.9-2-3.7-3.9-5.6-5.9
		c-0.5-1.5,0.5-2.1,1.7-2.6c0.8-0.3,1.2-0.9,0.7-1.8c-0.3-0.5-0.8-1-1.4-1.3c0.4,1.7-2,0.7-2,2.1
		C177.4,153.1,177.1,153.7,176.5,154.1z"/>
	<path class="st18" d="M92.7,92c-0.7-2.5-2.8-4.7-1.1-7.5c0.4-0.7-0.2-0.9-0.6-1.3c-0.8-0.7-0.4-1.1,0.3-1.4
		c0.5-0.2,1.5-0.8,1.6,0.2c0.1,2.9,1.3,1.4,2.4,0.8c0.9-0.6,1.6-0.2,2.3,0.5c1.1,0.9,2.6,2.2,3.7,0.7c1.3-2-1.1-1.8-2.1-2.4
		c-0.3-0.2-0.5-0.6-1-1.2c2.3-0.2,4.4,0.3,5.8-2.1c0.7-1.2,5.7,0.2,6.4,1.5c1.5,3.1-1.8,3-3,4.6c1.2,0.3,3-0.4,2.5,1.8
		c-0.3,0.4-0.7,0.5-1.2,0.5c-1.2-0.1-2.5-0.7-3.7,0.1c-1.7,1.1-2.7,3.1-4.8,3.8c-0.7,0.1-1.4-0.1-2.1-0.2c-0.6-0.1-1.1,0-1.7,0
		c-0.8-0.1-0.9,0-1,1C95.1,93.5,94,93.6,92.7,92z"/>
	<path class="st14" d="M34.5,181.2c0,0.7,0,1.3,0,2c0.5,2.9,0.5,5.7,0,8.6c-0.2,0-0.4,0-0.7,0c0-44,0-88.1,0-132.1
		c0.9-0.7,0.6-1.7,0.7-2.6c0-1.1,0-2.2,0.1-3.3c0.4-0.7,0.8-1.3,1.3-2c0.3,0.6,1.1,1.1,0.7,2c-0.3,0.4-0.7,0.8-1,1.2
		c3.2,2.5-0.5,5.8,0.9,8.6c0.1,0.1-0.3,0.5-0.5,0.8c-0.2,0-0.4,0-0.7,0c-0.9,3.7,0.2,7.5-0.7,11.2c0,1.5,0,3.1,0,4.6
		c0.6,0.9,0.3,1.9,0.3,2.9c0,31.8,0,63.5,0,95.3C34.8,179.2,35.1,180.3,34.5,181.2z"/>
	<path class="st16" d="M137.6,105.9c0.8-0.4,1.6-0.7,2.5-0.7c1.3,0.1,2.1,0.6,2.1,2c-0.1,2.3-1.6,0.1-2.4,0.7c0.4,1.4,1.8,2.8,0,4.4
		c-0.3,0.2,0.4,2.2,1.1,2.9c1,1.1,0.9-0.1,1.2-0.8c0.3-0.6,0.6,0.1,0.8,0.4c0.6,1.6,1.2,1.6,2.9,1.1c1.6-0.5,2.8,1.9,4.4,2.6
		c0.5,0.3,1,0.6,0.7,1.3c0,1.1,0,2.2,0,3.3c-2.4,0.7-4.4-1.3-6.7-1.1c-4.4-2.7-8-6.2-10.7-10.6c0.1-0.5,0.4-0.8,0.9-1
		c0.7-0.2,1.3,0.1,1.9,0.3c0.1-0.8-0.9-1.2-0.8-1.9C135.5,107.2,136.5,106.5,137.6,105.9z"/>
	<path class="st16" d="M192.4,218.8c-42.9,0-85.9,0-128.8,0c1.1-1.1,2.5-0.6,3.8-0.6c41.7,0,83.4,0,125,0c0.2,0.1,0.3,0.3,0.2,0.4
		C192.5,218.7,192.5,218.8,192.4,218.8z"/>
	<path class="st20" d="M111.8,163.2c-1.5,1.2-2.2,3.1-4,4c-2.1,0.9-4.3,0.3-6.4,0.4c-5.4,0.3-10.9-0.3-16.3,0.5
		c-2.4,0.4-4.9-0.5-7.4-0.6c-2.6-0.1-5.1,1.1-7.8,0.5c-0.5-0.2-1.1-0.4-1.6-0.6c-1.7-1.8-0.7-3.4,0.5-5c0.5-0.8,1.2-1.4,2.2-1.7
		c1.7-1.3,3.3-2.9,4.6-4.6c0.6-1.2,1.5-2.1,2.5-3c0.7-0.3,1.4-0.7,2.1-0.7c0.3,0.1,0.6,0.2,0.8,0.4c0,2-1.9,2.8-2.9,4.1
		c-2.2,2.7-5.6,4.4-6.9,7.9c5.7,0.6,11.4,0.1,17.1,0.2c4.7,0.1,9.4-0.2,14.1,0.1c3.5,0.2,6.2-0.7,8.2-3.6c0.6-0.5,1.2-0.7,2-0.6
		c0.4,0.1,0.6,0.3,0.8,0.6C113.3,162.6,112.7,163.1,111.8,163.2z"/>
	<path class="st16" d="M39.8,208.2c0.2-0.4,0.4-0.9,0.6-1.3c0.6,0.2,1.3,0.5,1.3-0.6c0-1-0.9-1.8-0.3-3.2c1.3,2,4,2.4,4.5,5
		c0,0.2,2.1,0.4,3.2,0.9c0.6,0.3,1.7-0.2,2.2,0.8c0.2,0.4,0.1,0.8-0.3,1.2c-1.1,1.1-2,0-3.7-0.6c1.9,3.2,5.4,4.9,7.1,4.7
		c3.3-0.5,3.4,1.5,4.4,3.1c-2.3-0.2-4.6,0.5-6.7-0.8c-0.8-0.5-2-0.6-1.7-2c0.1-0.6,0.2-1.3-0.6-0.9c-3.1,1.8-4.2-1.2-6.1-2.3
		c0.2-0.2,0.4-0.5,0.1-0.7c-0.2-0.2-0.5-0.2-0.8,0.1c-1-0.7-2.1-1.4-3.1-2.1C39.9,209,39.9,208.6,39.8,208.2z"/>
	<path class="st18" d="M116.4,93.3c1.9-0.3,1.6-1.6,1.4-3c-0.1-0.5,0-1.2,0.6-1.4c0.8-0.3,1.4,0.2,1.5,0.8c0.3,1.2,1.6,1.8,1.8,2.8
		c0.4,2,1.6,2.1,3.1,2.1c1.3,0,2.6-0.2,3.6,1.1c0.6,0.8,0.4,1.4-0.2,2c-0.7,0.7-0.9,0.4-1.3-0.4c-0.7-1.4-1.6,1.1-2.5,0
		c1,1.6,2.4,2.7,4.3,2.6c2.1-0.2,2.4,1,2.2,2.7c2,0.7,2.3,1.6,0.4,2.8c-1.1,0-1.4,1.4-2.5,1.5c-0.5-0.1-0.8-0.4-1-0.8
		c-0.4-0.8-0.5-1.7-0.8-2.6c-0.2-0.4-0.1-1.1-0.8-0.9c-0.5,0.3-1,0.4-1.6,0.4c-2.4-1.2-4-3.2-5.3-5.5c-0.1-0.7,1.1-1,0.8-1.5
		c-0.6-0.9-1.6-0.2-2.4-0.2c-0.7-0.1-1.2-0.4-1.6-1C116,94.2,116,93.7,116.4,93.3z"/>
	<path class="st14" d="M103.9,125.7c-1.6-2.9,1.9-1.3,2.3-2.6c0-1.1-2.5-1.4-1-2.8c1.4-1.3,2.8-0.2,4.9,1c-1.4-2.4-2.3-4.2-1.2-6.3
		c0.1-0.1-0.5-0.8-0.8-0.9c-0.7-0.2-0.8,0.5-1,1c-0.6,2-1.4,3.7-4.3,3c0.4-0.6,0.8-1,1.1-1.4c0.5-0.7,1.6-1.1,0.9-2.2
		c-0.6-0.9-1.4-0.9-2.3-0.4c-0.4,0.3-0.9,0.8-1.2-0.1c-0.2-0.6,0-1.2,0.5-1.4c1.5-0.7,3.1-1.3,4.7-0.2c1.9-2.7,2-2.7,4.4-0.2
		c1,1,2.1,1.9,3,3c0.7,0.9,1.4,1.7,0.6,2.9c-0.2,0.2-0.4,0.4-0.7,0.5c-1.7-0.4-0.3,1.1-0.9,1.4c-2.3,2.2-3.9,5.1-7.1,6.2
		C105,126.4,104.4,126.2,103.9,125.7z"/>
	<path class="st16" d="M81,216.9c36.4,0,72.8,0,109.2,0c0,0.1,0,0.2,0,0.3c-36.4,0-72.9,0-109.3,0C80.9,217.2,80.9,217,81,216.9z"/>
	<path class="st16" d="M70.9,160.7c-0.5,0.6-1,1.3-1.4,1.9c-1.3,0.8-2.2,2-3.1,3.1c-0.1,0.1-0.3,0.3-0.4,0.4c0.2,0.1,0.2,0,0.2-0.3
		c0.1-0.4,0,0.2,0.2-0.2c0.9-0.4,1.3,0.3,1.7,0.9c0.2,0.2,0.5,0.4,0.7,0.7c0.2,0.1,0.2,0.3,0.2,0.4c-0.1,0.1-0.1,0.2-0.2,0.2
		c-1.1,0.5-0.1,2.7-2,2.5c-1.6-0.2-1.9-1.4-2.2-2.8c-0.3-1.3-1-2.6-1.5-3.9c-0.4-1.1-0.6-2.2,1-2.4c0.6,0.5,1.2,0.8,2,0.7
		c0.9-0.1,1.5-0.6,1.1-1.5c-0.4-0.9-1.2-1.3-2.1-0.9c-0.8,0.3-1.7,0.5-1.9-0.5c-0.4-1.4,1.1-1.2,1.7-1.4c1.6-0.5,3.4,0,5-0.1
		C72.7,157.5,70.1,159.8,70.9,160.7z"/>
	<path class="st14" d="M90.7,136.3c2.6,0.7,3.2-3.1,6-2.5c-1.9-1.5-2.1-3.4-2.3-5.3c-0.1-0.8,0.3-1.4,0.9-1.5
		c0.8-0.2,0.5,0.7,0.8,1.1c0.8,1.5,2.2,2.6,2.6,4.3c0.2,2-1.2,3.1-2.4,4.3c-0.8,0.8-1.9,1.5-2.5,2.5c-2.3,2.5-4.1,5.5-7.7,6.4
		c-0.3-0.4-0.4-0.8-0.3-1.3c0.6-1.2,1.4-2.4,2.3-3.4c2.7,0.2,1.4-1.5,1.3-2.6C88.7,136.9,88.6,135.8,90.7,136.3z"/>
	<path class="st17" d="M88,140.9c0.2,1.6-0.6,2.6-2,3.3c-2.4,0.2-0.2,1.4-0.4,2.1c-0.3,1.9-1.7,3-3,4.2c-0.6,0.4-1.1,1-1.8,1.2
		c-0.7,0.1-1.1-0.3-1.4-0.9c-0.2-0.5-0.3-1-0.6-1.5c-0.4-0.7-1.7-1.1-1-2.1c0.7-1,1.8-1,2.9-0.4c0.1,0.2,0.2,0.3,0.2,0.4
		c0-0.1,0-0.2-0.2-0.4C80.3,142.8,84.5,139.4,88,140.9z"/>
	<path class="st21" d="M92.7,92c0.7,0.2,1.4,1,2,0.1c0.9-1.3-1.4-1.5-0.9-2.8c1.2-0.8,1.9,0.5,2.8,0.7c0.4,0.2,0.7,0.6,0.9,1.1
		c0.1,0.3,0.1,0.6,0,0.9c-0.3,0.6-0.8,1-1.2,1.5c-1.4,1.9-1.1,3.6,0.9,5.1c1.1,0.8,2.5,1.5,2.2,3.3c0,1.6-0.8,3.4-2.2,3.2
		c-1.4-0.2-2.3-1.9-3.1-3.5C92.2,98.3,94.3,95,92.7,92z"/>
	<path class="st18" d="M131,105.2c1.2-0.9,1.2-1.8,0-2.6c0.7-0.3,1.3-0.8,2.1-1c1.6-0.5,3.1-1,2.6,1.8c-0.3,1.4,0,2.7,1.9,2.5
		c-0.7,0.9-1.3,1.8-2,2.6c-1.4,0-0.4,1.6-1.3,2c-0.2,0.2-0.4,0.4-0.7,0.7c-2.2,0.1-2.9-1.4-3.7-3C129.9,107,130.6,106.2,131,105.2z"
		/>
	<path class="st17" d="M144.2,121.7c0.6-1.9,2.1-0.6,2.4-0.2c1.6,2.2,1.4-0.3,2-0.7c1.3,0.2,0.4,2.5,2.2,2.3c0.5,0,1,0.1,1.3,0.7
		c0,0.1,0,0.3,0,0.4c-1.7,1.7-1.5,4-2,6.2c-1.1-0.7-2.1-0.7-2.6,0.7c-0.9,0.6,0.5,2.5-1.3,2.6c0-0.2,0-0.4,0-0.7
		c-0.8-0.8-0.9-1.8-0.7-2.9c1.3-2.5,1.5-4.9-0.9-6.9C144.1,122.8,143.9,122.3,144.2,121.7z"/>
	<path class="st15" d="M99.3,101.9c-1.2-1.3-1.8-3.3-4.2-2.9c-1.1,0.2-0.7-0.6-0.7-1.2c0.1-2.6,0.5-4.9,2.9-6.4
		c0.4-0.4,0.8-0.4,1.3-0.2c0.5,0.7,0.1,1.3-0.3,1.8c-2.5,2.4-1.3,4,0.7,6c2.7,2.7,5.9,5,7.8,8.4c0,0.3-0.1,0.6-0.4,0.7
		c-0.3,0.1-0.7,0.2-0.9,0c-2.4-1.9-2.9-0.2-3.5,1.7c-2-0.5-2.5-1.4-1.4-3.5C101.3,104.9,101,103,99.3,101.9z"/>
	<path class="st17" d="M158,127c-2.5,1.9-4.4,4.4-6.6,6.6c-1.1-2.5-1.9-5,0.2-7.4c0.7-0.8,0.1-1.7,0.4-2.4c0,0,0,0,0,0
		c1.2-0.2,2.5-1,3,1.1c0.2,1,1.4,0.9,2.3,0.9C158.5,125.7,158.5,126.2,158,127z"/>
	<path class="st17" d="M156.1,117.8c1.7,1.6,2.1-1.4,3.7-1c0.2,2-0.9,3.4-2,4.8c-0.5,0.6-1.6,1.1-0.4,2.1c0.2,0.2,0.2,0.4,0,0.7
		c-2.3,0.3-2.3-3.3-4.8-2.8c-0.2,0,0.8-1.1,0.9-1.8c0.6-0.8,1.3-1.5,2.2-1.9C155.8,117.8,155.9,117.8,156.1,117.8z"/>
	<path class="st22" d="M68.9,168c0-0.2,0-0.4,0-0.7c13,0,26-0.1,38.9-0.1c-0.9,1.2-2.2,0.7-3.3,0.7c-5.7,0.1-11.4,0-17.1,0
		c-1.8,1.2-3.5,1.4-5.3,0c-2.6,0-5.3,0-7.9,0C72.4,169.4,70.6,169.1,68.9,168L68.9,168z"/>
	<path class="st23" d="M173.2,136.9c-1.1,2.5-3.5,4.4-5.9,4.6c0-0.3-0.1-0.5-0.1-0.8c-0.2-0.6,0-1.1,0.4-1.5
		c3.5-3.4,6.4-7.4,10.6-10c0.3,0,0.6,0.1,0.9,0.2c0.2,0.3,0.2,0.6,0,0.8c-0.9,0.4-1.5,1.1-2,2c0.2,2.4-2.1,2.4-3.3,3.3
		C173.4,135.9,173.3,136.4,173.2,136.9z"/>
	<path class="st21" d="M183.1,119.7c-5.3,0-10.6,0-15.9,0c-0.1-0.6-0.2-1-0.9-1.2c-0.7-0.2-1.2-0.6-0.6-1.4c0.5-0.6,1.2-0.6,1.6,0.1
		c2.1,3.5,5.5,1.5,8.3,1.8c0.5,0.1,1.4-0.1,1.5-0.9c0.5-3,2.4-1.7,2.9-0.5C180.8,119.2,182.4,118.7,183.1,119.7z"/>
	<path class="st14" d="M202.3,37.2c2.9-0.4,5.3,0.4,6.6,3.3c-2,0.4-4.5,2.8-5.4-1.3c-0.1-0.5-0.7-0.3-1.1-0.1
		c-1.5,0.9-2.3-0.4-2.2-1.2C200.2,36.7,201.5,37.4,202.3,37.2z"/>
	<path class="st21" d="M157.4,124.4c0-0.2,0-0.4,0-0.7c1.5-2.4,3.7-4.1,6.4-5.6c0,1.4-1.6,2.3-1.1,3.6c-1.4,1.9-2.7,3.8-4.6,5.3
		c0-0.5-0.1-1-0.7-1.3C157.4,125.2,157.4,124.8,157.4,124.4z"/>
	<path class="st14" d="M43.8,45.1c0.9,0.4,1.8,1.1,2-0.7c4,2.9-0.1-3,2.5-1.6c0.3,2,0.9,4.5-3,4.5c-0.2,0-0.4,0.3-0.6,0.2
		c-1.6-0.4-2.2,3.3-3.6,1.3C40.3,47.7,42.6,46.2,43.8,45.1z"/>
	<path class="st15" d="M113.8,118.4c0.5-0.8,0.6-1.5-0.3-2.3c-1.8-1.7-3.4-3.6-4.9-5.2c-1.5-0.1,0.7,3.5-2.1,1.5c0-0.4,0-0.9,0-1.3
		c0.1-1.1-1.8-2.1-0.1-3.2l0.1-0.1c3.8,1,5.3,4.6,8,6.8c0.9,0.7,1.8,1.7,1.5,3.1c-0.2,0.5-0.5,0.8-1,1.1
		C114.6,118.8,114.2,118.8,113.8,118.4z"/>
	<path class="st24" d="M210.2,212.2c-1.3,1-2.2,2.4-3.9,2.7c-1.1-1.5-3.8-1.2-4.2-3.8c3.7,2.2,3.9,2.1,3.9-1.1
		C207.3,211,209.2,210.7,210.2,212.2z"/>
	<path class="st18" d="M53.7,37.8c0.2,0.2,0.4,0.4,0.7,0.7c1.4-0.4,2.9-0.9,4.4-0.1c0.2,0.1,0.2,0.9,0,1.2c-1.1,1.5-2.9,1.2-4.2,0.7
		c-2.1-0.8-4,0.6-6.1,0.2c0-1.7,1.8-1.4,2.5-2.3C51.8,37.8,52.7,37.6,53.7,37.8z"/>
	<path class="st14" d="M106.5,107.9c-1,1.1,1.1,2.1,0.1,3.2c-1.2-1.6-3.7,1.2-4.6-1.3c-0.2-1.2-1-2.5,0.6-3.5
		c1.4-0.8,1.9,0.7,2.7,1.1C105.6,107.7,106.1,107.8,106.5,107.9z"/>
	<path class="st14" d="M78.2,153.5c-0.5,1.2-1.5,2-2.6,2.6c-1.8-4.5-1.8-4.5,0.4-6.4c-0.3,2.5,1.5,2.1,2.9,2.4
		C79.2,152.9,78.5,153.1,78.2,153.5z"/>
	<path class="st17" d="M90.7,136.3c-1.3,0.1-1.3,1-1.3,2c-0.8-0.5-2.2,1.2-2.6-0.7c-0.3-1.3-1.1-2.7,0.1-4c0.6-0.6,1.3-1.4,2.2-1
		c1.2,0.4,0.4,1.1,0.1,1.8C88.4,135.9,90.5,135.3,90.7,136.3z"/>
	<path class="st16" d="M82.1,168c1.8,0,3.5,0,5.3,0c-0.1,0.8,0.8,2-1,2c-2.5-0.1-5.1,0-7.9,0C79.3,168,81.8,170.1,82.1,168z"/>
	<path class="st12" d="M93.3,138.8c1.2-2.6,4.3-3.7,5.3-6.5c0.7-0.7,1.3-1.3,2-2c0.4-0.4,0.8-0.4,1.3-0.2c0.4,0.6,0.2,1.2,0,1.8
		c-1.9,2.7-4.2,4.9-6.8,6.8C94.5,139,93.9,139.3,93.3,138.8z"/>
	<path class="st25" d="M173.9,135.6c1.1-1.1,2.2-2.2,3.3-3.3c1.1,0.9,2.3,1.3,3.6,0.4c0.5-0.4,1.1-0.4,1.3,0.2c0.1,0.3-0.3,1-0.5,1
		C178.9,133.8,176.7,135.8,173.9,135.6z"/>
	<path class="st14" d="M101.8,130.3c-0.4,0-0.8,0-1.2,0c-0.1-0.3-0.2-0.9-0.3-0.9c-1.7-0.1-2.1-1.7-1.9-2.4c0.4-1,1.8-1.1,3-0.5
		c0.3,0.1,0.8-0.1,1.2-0.1c0.5,0.9,0.5,1.9,0.2,2.8C102.5,129.6,102.3,130,101.8,130.3z"/>
	<path class="st16" d="M111.8,163.2c0.4-0.4,0.9-0.8,1.3-1.2c0.6-0.5,0.7-1.8,2-1.3c0.6,0.9,0.6,1.8,0,2.6c0.1,0.6,1.3,1.3-0.6,1.6
		C112.6,165.3,112.1,164.8,111.8,163.2z"/>
	<path class="st16" d="M68.9,168c1.8,0,3.5,0,5.3,0c1.1,1.7-0.2,2.2-1.4,2.3C71,170.4,69.1,170.5,68.9,168z"/>
	<path class="st17" d="M152.8,117.8c-0.9-2-1.7-3.9,1.9-2.8c1.2,0.4,2.5-1.4,3.6,0.2c-0.4,1.2-2.3,1-2.2,2.5l0,0
		C155,117.9,153.9,116.9,152.8,117.8z"/>
	<path class="st26" d="M104.5,86c1.3-1.3,2.6-0.5,3.9,0.1c1.2,0.9,2,2,2.7,3.2c0.3,0.8,0.9,1.3,1.9,1.4c0.5,0.6,1.2,1.1,0.8,2
		c-0.4,0.3-0.9,0.3-1.3,0.2c-2.2-1.4-3.8-3.5-5.7-5.3C106.3,86.9,105.1,86.9,104.5,86z"/>
	<path class="st23" d="M168.6,168c2.5-1.4,5.1-0.5,7.7-0.6c3.2-0.2,6.3-0.1,9.5-0.1c-2,1.4-4.2,0.5-6.3,0.6
		C175.9,168.1,172.2,168,168.6,168z"/>
	<path class="st16" d="M103.3,169.6c-2.5,1.3-4.9,1.2-7.4,0C98.4,169.6,100.8,169.6,103.3,169.6z"/>
	<path class="st16" d="M51,38.5c0,1.9-2.1,0.9-2.6,2c-0.4,0-0.9,0-1.3,0c-0.8-0.5-0.2-1.4-0.6-2c0.3-0.6,0.5-1.2,0.8-1.8
		c0.2,0,0.4-0.1,0.6-0.1C48.9,37.3,50.2,37.5,51,38.5z"/>
	<path class="st21" d="M186.6,121.7c-0.1-0.2-0.1-0.5-0.2-0.7c0.3-1.1-0.7-1.9-0.8-3c1.3-0.7,2.3,0.4,3.4,0.4l0,0
		C189.6,120.5,188.1,121.1,186.6,121.7z"/>
	<path class="st16" d="M175,117.2c-1,0.9-2,0.4-2.9,0.6c-0.9,0.2-1.8,1-2.7,0.1c-0.2-0.2-0.3-0.7-0.2-0.8c0.8-1.1,1.9-0.7,3-0.7
		C173.1,116.5,174.3,116,175,117.2z"/>
	<path class="st16" d="M152.8,117.8c1.1-3.5,2.2-0.6,3.3,0c-0.6,1.1-1.3,1.9-2.6,2C153.2,119.1,153,118.4,152.8,117.8z"/>
	<path class="st14" d="M45.4,49.3c0.9,0,1.5,0.3,1.5,1.1c0,1-0.7,1.6-1.6,1.8c-0.7,0.1-1.2-0.4-1.3-1.1
		C43.7,49.8,44.8,49.7,45.4,49.3z"/>
	<path class="st14" d="M46.4,38.5c0.8,0.5,0.6,1.3,0.6,2c0,1.3-0.3,2.4-1.3,3.3c0-1.3-2.2-2.7,0-4C46,39.4,46.2,38.9,46.4,38.5z"/>
	<path class="st21" d="M184.5,124.4c0.7-0.7,1.4-1.4,2.1-2c0.7,0.1,1.4,0.3,2.9,0.5c-2.2,0.7-2.4,3.7-5,2.1
		c-0.2-0.1-0.3-0.3-0.2-0.4C184.4,124.5,184.4,124.4,184.5,124.4z"/>
	<path class="st23" d="M113.7,92.8c-0.2-0.7-0.5-1.4-0.7-2.1c1.9-0.1,2.8,1.1,3.4,2.6c0,0.4,0,0.9,0,1.3c-0.2,0.2-0.5,0.3-0.8,0.4
		C114.5,94.7,113.6,94.1,113.7,92.8z"/>
	<path class="st27" d="M184.5,124.4c0,0.2,0,0.4,0,0.6c-0.2,0.2-0.4,0.4-0.7,0.7c-0.7,1.1-1.3,2.3-2.6,2.6c-0.4,0.4-0.9,0.9-1.3,1.3
		c-0.2,0.3-0.4,0.3-0.6,0c-0.3,0-0.5-0.1-0.8-0.1c0.7-2.8,2.5-4.5,5.3-5.3C184,124.4,184.3,124.4,184.5,124.4z"/>
	<path class="st28" d="M159.4,161.4c0.6,0.2,0.6,0.7,0.7,1.3c-0.5,1.2-1.8,2.3-0.4,3.9c-2-0.7-2.8-1.6-1.3-3.2
		C158.9,162.8,159.4,162.3,159.4,161.4z"/>
	<path class="st16" d="M196.4,217.5c-1.1,0.1-2.2-0.2-2.7-1.2c-0.4-0.7,0.4-0.9,0.8-1.1c1.2-0.6,2-0.1,2.6,1
		C197.1,216.8,196.8,217.2,196.4,217.5z"/>
	<path class="st25" d="M179.2,129.7c0.2,0,0.4,0,0.6,0c1.1,1.7,2.9-1,4.3,0.9c-1.8,1.5-3.4,0.5-4.9-0.3
		C179.2,130.1,179.2,129.9,179.2,129.7z"/>
	<path class="st23" d="M111.2,89.3c-1.2-0.8-2.4-1.7-2.7-3.2c0.5,0,0.9,0,1.4,0C111.7,86.6,111.1,88.1,111.2,89.3z"/>
	<path class="st24" d="M199.7,216.2c0.3-0.4,0.6-0.8,0.9-1.2c0.3-0.6-1.9-0.6-0.3-1.3c0.5-0.2,1.4-0.3,1.7,0.4
		c0.3,0.7,0.3,1.6-0.4,2C201.1,216.3,200.3,216.1,199.7,216.2L199.7,216.2z"/>
	<path class="st14" d="M101.8,119.5c0.9,1.3,0.9,2.5-0.1,4.2C101,121.9,101.3,120.7,101.8,119.5z"/>
	<path class="st14" d="M37.2,51c-1-0.7-0.6-1.7-0.6-2.6c0.9-0.6,1.7-1.3,2.6,0C38.5,49.3,37.8,50.2,37.2,51z"/>
	<path class="st25" d="M181.2,128.3c0.6-1.1,1.5-2,2.6-2.6C183.5,127.2,184.1,129.5,181.2,128.3z"/>
	<path class="st28" d="M156.7,159.4c0.4,0.4,0.9,0.9,1.3,1.3c-1.2-0.5-1.9,2.1-3.3,0.7C155.2,160.5,155.4,159.4,156.7,159.4z"/>
	<path class="st24" d="M196.4,217.5c0-0.5,0.1-1,0.7-1.3c0.9,0,1.8,0,2.6,0c0,0,0,0,0,0c-0.4,0.7-0.9,1.3-1.3,2c-0.4,0-0.9,0-1.3,0
		C196.8,217.9,196.6,217.7,196.4,217.5z"/>
	<path class="st14" d="M92.1,132.1c0.6,0.1,1,0.7,0.8,1.1c-0.2,0.5-0.8,0.8-1.3,1.2c-0.2-0.4-0.5-0.7-0.6-1.1
		C90.8,132.4,91.4,132.3,92.1,132.1z"/>
	<path class="st24" d="M78.2,153.5c0.2-0.5,0.4-0.9,0.6-1.4c0.2-0.4,0.4-0.9,0.7-1.3c0.4,0.2,0.8,0.4,1.2,0.6c0.5,0.9-0.2,1-0.7,1.2
		C79.3,153,78.7,153.2,78.2,153.5z"/>
	<path class="st14" d="M42.1,51.2c0.1,0.2,0.6,0.5,0.6,0.8c0,0.6-0.6,0.9-1.2,0.8c-0.4-0.1-0.8-0.4-0.6-0.9
		C41,51.4,41.4,51.2,42.1,51.2z"/>
	<path class="st23" d="M111.7,86.8c1.4,0.8,2.1,1.3,2.4,2.4C112.5,89.5,112.4,88.3,111.7,86.8z"/>
	<path class="st16" d="M56.4,209.6c0.4,0.1,1,0.1,0.8,0.7c-0.1,0.5-0.6,0.5-1,0.5c-0.4-0.1-1-0.1-0.8-0.7
		C55.5,209.6,56,209.6,56.4,209.6z"/>
	<path class="st29" d="M66.2,162c-0.2,0.5-0.5,1.1-1.1,0.9c-0.7-0.2-0.8-0.9-0.9-1.6C65.2,160.7,65.7,161.4,66.2,162z"/>
	<path class="st21" d="M189.1,118.4c0.1-0.3,0-0.7,0.2-1c0.3-0.5,0.4-1.3,1.2-1.4c0.1,0,0.4,0.2,0.4,0.4c0.2,0.8-0.4,1.2-0.9,1.5
		C189.7,118.1,189.4,118.3,189.1,118.4L189.1,118.4z"/>
	<path class="st14" d="M193.8,36.5c-0.4,0-0.9,0-1-0.5c-0.1-0.6,0.4-0.6,0.8-0.7c0.4-0.1,0.9,0,1,0.5
		C194.8,36.4,194.2,36.4,193.8,36.5z"/>
	<path class="st16" d="M36.5,53.7c-0.2-0.7-0.4-1.3-0.7-2c0.4,0.1,0.9,0.7,1.3,0c1.2-0.1,1.1,0.6,0.7,1.3
		C37.6,53.6,37.1,53.7,36.5,53.7z"/>
	<path class="st24" d="M192.4,218.8c0-0.2,0-0.4,0-0.6c1.3,0,2.6,0,4,0C195.2,219.3,193.7,218.6,192.4,218.8z"/>
	<path class="st15" d="M154.7,165.7c-0.6-0.1-1-0.3-0.8-0.8c0.1-0.2,0.5-0.5,0.7-0.5c0.4,0.1,0.7,0.4,1.1,0.6
		C155.3,165.2,154.9,165.5,154.7,165.7z"/>
	<path class="st14" d="M102,129.1c0.2-0.9,0.4-1.8,0.6-2.8c0.4,0.4,0.9,0.9,1.3,1.3c0.1,0.1,0.1,0.3,0.2,0.4
		C103.7,129.1,103.1,129.7,102,129.1z"/>
	<path class="st14" d="M103.9,125.7c0.7,0,1.4,0,2,0c0.1,1.4-0.6,2.1-2,2c0,0-0.1,0-0.1-0.1C103.9,127,103.9,126.3,103.9,125.7z"/>
	<path class="st23" d="M39.8,47.1c-0.7-0.5-0.7-1.2,0.1-1.5c0.6-0.3,0.5,0.4,0.6,0.8C40.3,46.6,40,46.9,39.8,47.1z"/>
	<path class="st14" d="M37.8,53c0-0.5-0.1-1-0.7-1.3c0-0.2,0-0.4,0-0.7c0.7,0,1.4,0.1,1.6,0.8C38.9,52.5,38.3,52.8,37.8,53z"/>
	<path class="st25" d="M142.9,148.1c0.9-0.7,1.7-0.1,1.6,0.6c-0.1,0.7-1-0.1-1.6,0.1C142.9,148.6,142.9,148.4,142.9,148.1z"/>
	<path class="st28" d="M162,164.7c0.2,0.2,0.5,0.4,0.7,0.7c-0.5,0.1-1.2,0.9-1.6,0.1C160.7,164.9,161.5,164.7,162,164.7z"/>
	<path class="st17" d="M150.8,119.7c-0.2-0.4-0.4-0.9-0.7-1.3c0.5-0.1,1-0.7,1.4-0.1C152.1,119.2,151.3,119.4,150.8,119.7z"/>
	<path class="st30" d="M43.1,211.6c0.5-0.5,1.2-1.3,1.7-0.7c0.7,0.8-0.3,1.2-1,1.3C43.6,212,43.3,211.8,43.1,211.6z"/>
	<path d="M51,38.5c-1.3-0.3-2.8-0.1-3.3-1.9c1.2-0.7,2.4-1.5,3.9-1.4c0.1,1.3,1.5,1.6,2,2.6C52.9,38.3,52,38.6,51,38.5z"/>
	<path d="M34.5,57c0.9,1.2,1.2,2.2-0.7,2.6C34,58.7,33.6,57.7,34.5,57z"/>
	<path d="M34.5,191.7c0-2.9,0-5.7,0-8.6c1.4,2.3,0.3,4.9,0.7,7.3c0,0.7,0,1.3,0,2C35,192.2,34.8,192,34.5,191.7z"/>
	<path d="M35.9,192.4c0.2,0,0.4,0,0.7,0c0,1.1,0,2.1,0,3.2c-0.2,0-0.4,0-0.7,0C35.9,194.6,35.9,193.5,35.9,192.4z"/>
	<path d="M34.5,181.2c0-33.7,0-67.4,0-101.1c1.1,1,0.6,2.3,0.6,3.4c0,31.4,0,62.8,0,94.2C35.2,178.9,35.6,180.2,34.5,181.2z"/>
	<path d="M36.6,181.4c-0.9-1.7-0.9-3.4-0.1-5.9C37.4,178,37.3,179.7,36.6,181.4z"/>
	<path d="M34.5,75.5c0.4-3.7-0.8-7.6,0.7-11.2C34.8,68,36,71.8,34.5,75.5z"/>
	<path class="st31" d="M115.1,160.7c-0.7,0.4-1.4,0.9-2,1.3c0-0.3,0-0.5-0.1-0.8c4.2-6.3,9.7-11.3,15.7-15.9c0.1,0,0.2,0,0.3,0.1
		c0.2,0.2,0.2,0.4,0.2,0.5c-0.1,0.2-0.1,0.3-0.2,0.3C124.8,151.4,119.6,155.7,115.1,160.7z"/>
	<path class="st32" d="M129,146.2c0-0.3,0-0.5-0.1-0.8c-0.2-0.7,0.1-1.2,0.5-1.7c4-3.9,7.6-8.1,11.9-11.6c0.3-0.1,0.6,0,0.9,0.2
		c-0.1,1.9-1.7,2.9-2.8,3.9C135.9,139.5,133,143.4,129,146.2z"/>
	<path class="st15" d="M152.1,123.7c0.9,1.3,1.9,2.5-0.3,3.5c-1.3,0.6-1.2,2-0.8,3.2c0.3,1.1,0.5,2.1,0.5,3.2
		c-0.2,0.2-0.4,0.4-0.7,0.6c-2.2-1-1.1-2.5-0.7-3.9C148.6,127.5,149.7,125.4,152.1,123.7z"/>
	<path class="st33" d="M142.2,132.4c-0.2,0-0.5-0.1-0.7-0.1c-0.6,0.2-0.8-0.2-1-0.7c0-0.1,0-0.3,0-0.3c3.5-3,4-6.1,0.6-9.5
		c0-0.3,0.2-0.6,0.4-0.8c2.3,0.7,3.6,2.7,5.1,4.4c0.9,0.9,0.7,2-0.2,3c-1,1.1-1.7,2.6-3,3.5c-0.3,0.2-0.5,0.3-0.8,0.5l-0.3,0
		L142.2,132.4z"/>
	<path class="st25" d="M130.3,152.8c0.2,0.6,0.4,1.2,0.5,1.9c0.2,0.8-0.1,1.3-0.9,1.4c-0.6,0.1-1.4,0.2-1.8-0.4
		c-0.2-0.3,0.1-1,0.2-1.5C128.7,153.3,129.3,152.8,130.3,152.8C130.3,152.8,130.3,152.8,130.3,152.8z"/>
	<path class="st15" d="M142.7,132.2c0-0.2,0.1-0.4,0.2-0.6c1.2-0.4,1.7-2.2,3.3-2c0,1.1,0,2.2,0,3.3
		C144.8,133.6,143.7,132.9,142.7,132.2z"/>
	<path class="st29" d="M141.5,143.3c-0.1,0.8-0.2,1.5-0.9,1.3c-0.5-0.2-1.2-0.7-1.3-1.2c-0.2-0.6,0.4-0.9,1-0.8
		C140.9,142.6,141.7,142.5,141.5,143.3z"/>
	<path class="st15" d="M140.2,140.3c-0.1,0.4-0.2,0.9-0.8,0.7c-0.7-0.2-1.2-0.6-1.1-1.3c0.1-0.6,0.7-0.4,1.1-0.4
		C140.2,139.2,140.2,139.7,140.2,140.3z"/>
	<path class="st23" d="M146.2,138.9c-0.6,1-1.3,1.9-2.6,2C143.8,139.5,144.2,138.1,146.2,138.9z"/>
	<path class="st29" d="M146.1,148.8c0.2,0.2,0.5,0.4,0.7,0.6c-0.1,0.9-0.5,2.2-1.4,1.6C144.4,150.4,145.6,149.5,146.1,148.8z"/>
	<path class="st15" d="M146.2,133.6c1.1-0.6,0.3-2.1,1.3-2.6c-0.3,1.1,0.8,2.6-1,3.2c-0.1,0-0.3,0-0.3-0.1
		C146.1,134,146.2,133.8,146.2,133.6z"/>
	<path class="st29" d="M147.3,154.6c0.1-0.9,0.6-1.4,1.3-2C148.9,153.8,148.5,154.3,147.3,154.6z"/>
	<path class="st23" d="M145.2,135.4c-0.3,0.3-0.5,0.6-0.8,0.6c-0.2,0-0.4-0.2-0.6-0.4c0.2-0.2,0.4-0.5,0.6-0.5
		C144.6,135,144.8,135.2,145.2,135.4z"/>
	<path class="st34" d="M175.2,154.7c3,2.9,5.9,5.9,8.9,8.8c0.5,0.5,1.2,1.1,0.9,1.9c-0.4,0.9-1.2,0.8-2,0.8c-4.9,0-9.9-0.1-14.8,0
		c-1.4,0-2.5-0.4-3.5-1.4c-6.6-6.6-13.2-13.1-19.9-19.7c-1.2-1.2-1-2.1,0.1-3.3c4.4-4.3,8.6-8.7,13-13c2.6-1.3,4.3-3.8,6.3-5.7
		c1.3-1.2,2.6-2.1,4.3-2c4.4,0.1,8.8-0.4,13.2,0.3c0.8,0.1,1.9-0.4,2.3,0.7c0.4,1.2-0.7,1.8-1.4,2.4c-5,5.1-10.1,10.1-15.2,15.2
		c-4.3,4.3-4.2,3.5,0.1,7.8C170.1,149.9,172.3,152.7,175.2,154.7z"/>
	<path class="st35" d="M175.2,154.7c-4.7-2.2-7.3-6.8-10.9-10.2c-1.3-1.2,0.2-2.6,1.2-3.6c5.1-5.1,10.3-10.2,15.4-15.4
		c1-1,2.2-1.9,2.9-3.8c-5.9,0-11.5-0.1-17.1,0.1c-1.5,0.1-2.3,1.9-3.5,2.9c-1.7,1.4-2.7,3.9-5.3,4.1c0.1-0.2,0.2-0.4,0.3-0.6
		c7.4-7.6,7.4-7.6,18.4-7.7c1.7,0,3.5,0.1,5.2,0.2c1.1,0.1,2.5-0.8,3.2,0.7c0.6,1.3-1,1.8-1.3,2.8c-1.8,1.8-3.5,3.5-5.3,5.3
		c-4,3.4-7.6,7.3-11.2,11.1c-2.7,1.6-2.8,3.2-0.3,5.4C169.9,148.8,172.8,151.5,175.2,154.7z"/>
	<path class="st25" d="M176.5,154.1c0.8-1-1.1-3.6,2.2-3.2c0.9,0.1-1.3-1.5,0.1-2.5c1.2,0.7,2.1,1.9,3.2,2.8
		c1.4,1.1-0.1,2.6-1.2,2.9c-1.3,0.3-1.8,0.9-2.3,1.9C177.6,155.6,177,155,176.5,154.1z"/>
	<path class="st23" d="M166.6,142.9c-0.6,0.9,3.5,0.3,0.7,2C166.6,144.4,165.5,144,166.6,142.9z"/>
	<path class="st23" d="M171.9,149.5c2.2-0.9,1.9,0.8,2,2C173,151,172.4,150.4,171.9,149.5z"/>
	<path class="st36" d="M104.5,86c1,0.2,2.3-0.6,2.7,1c-3.2,1.5-5.7,4-8.1,6.5c-0.7,0.8-1.6,1.5-1.2,2.8c3.3,3.9,7.1,7.4,10.8,10.9
		c0.6,0.5,1,1.1,1.5,1.7c2.1,2.4,4.5,4.4,6.5,6.8c0.5,1.2,0.7,2.2-1.2,2.1c-2.3-4-5.9-6.8-9.1-9.9c-2.8-2.9-5.7-5.7-8.5-8.6
		c-3.3-3.3-3.3-3.4-0.2-6.8c0.3-0.3,0.5-0.7,0.8-1.1c0.1-0.8,0.9-0.9,1.4-1.3C101.5,88.7,103,87.4,104.5,86z"/>
	<path class="st21" d="M100,90.1c-0.5,0.4-0.9,0.9-1.4,1.3c-0.4,0-0.9,0-1.3,0c0,0,0,0,0,0c-0.4-0.8,0.2-1.4,0.7-2
		C98.6,89.6,99.3,89.8,100,90.1z"/>
	<path class="st12" d="M97.9,89.4c-0.2,0.7-0.4,1.3-0.7,2c-0.5-0.3-0.7-0.8-0.7-1.3C96.9,89.5,97.4,89.4,97.9,89.4z"/>
	<path class="st8" d="M146.2,129.6c-1.2,0.5-1.7,2-3.3,2c0-0.1,0-0.3,0-0.3c4.6-5.5,4.6-5.5-1.4-10.3c-2-0.6-2.9-2.5-4.4-3.6
		c-3.9-4-7.9-7.9-11.8-11.8c-2.6-2.7-5.3-5.2-7.9-7.9c-0.8-0.8-1.9-1.5-1.8-3c0.3,0,0.6-0.1,0.9-0.1c0.4,0.2,0.9,0.4,1.3,0.7
		c1,0.3,1.6,1,2,2c1.8,1.7,3.1,3.9,5.3,5.3c1.7,0.6,2.5,1.9,3.3,3.3c0.2,0.2,0.4,0.4,0.7,0.7c0.6,0.3,1.1,0.7,1.3,1.3
		c0.8,1.4,1.9,2.5,3.3,3.3c3.2,3.8,6.8,7.3,10.6,10.6C148.3,126,148.3,126.3,146.2,129.6z"/>
	<path class="st29" d="M134.3,110.5c0.1-0.9-0.3-1.9,0.4-2.7c0,0,0.6,0.4,1,0.7c0.8,0.9,1.9,1.7,2.2,3
		C136.3,112.1,135.4,110.8,134.3,110.5z"/>
	<path class="st37" d="M111.3,161.4c-1.6,3.2-3.8,4.9-7.7,4.9c-10.6-0.2-21.2-0.1-31.8-0.2c-0.9,0-3,1.1-2.3-1.6
		c1.2,0,2.4-0.5,3.7-0.3c6.5,0.2,12.9,0,19.4,0.1c3.8,0.2,7.6,0,11.4,0.1c3,0.5,4.1-2.7,6.5-3.4C110.8,161,111.1,161.2,111.3,161.4z
		"/>
	<path class="st35" d="M129.6,144.2c-0.2,0.4-0.5,0.8-0.7,1.3c-5.5,5-10.8,10.3-15.9,15.8c-0.6,0.1-1.2,0.1-1.7,0.2
		c-0.1,0-0.3,0-0.4-0.1c0-1.5,1.2-2.3,2-3.2c4.3-4.5,8.9-8.7,13.3-13c0.9-0.9,1.9-1.8,3.4-1.7c0.2,0.2,0.3,0.3,0.2,0.5
		C129.8,144.1,129.7,144.2,129.6,144.2z"/>
	<path class="st38" d="M72.2,164.7c-0.9,0.4-1.8,1.2-2.7-0.1c3.8-3.9,7.5-7.9,11.3-11.8c0.4-0.9,1-1.7,1.8-2.4
		c1.3-0.7,1.7-2.6,3.5-2.6c0.3,0.1,0.6,0.2,0.8,0.5c0,1.6-1.3,2.4-2.3,3.4C80.5,156,75.9,159.9,72.2,164.7z"/>
	<path class="st22" d="M68.2,166.6c-0.6-0.2-1.3-0.4-1.9-0.7l0,0c0.3-1.8,1.5-2.9,3.2-3.3C68.7,163.9,67.4,164.9,68.2,166.6z"/>
	<path class="st39" d="M82.7,150.8c-0.4,0.9-1,1.6-2,2c-0.3,0-0.6-0.1-0.9-0.1c0.2-0.4,0.5-0.8,0.7-1.2c0.5-0.5,0.9-0.9,1.4-1.4
		C82.5,150.2,82.7,150.4,82.7,150.8z"/>
	<path class="st23" d="M119.7,97.3c-0.9-0.4-1.5-1.1-2-2c0.9-1.3,2-1.4,3.1-0.2C122.2,96.6,120.1,96.5,119.7,97.3z"/>
	<path class="st24" d="M128.3,105.9c-1.4-0.9-2.5-1.9-3.3-3.3c0.4-0.2,0.9-0.4,1.3-0.7c0.7,0.2,0.8,0.9,1.3,1.3
		C128.1,104.1,128.4,104.9,128.3,105.9z"/>
	<path class="st24" d="M130.3,107.8c-0.6-0.2-1.1-0.7-1.3-1.3c0.8-0.2-0.1-3,2-1.3C131.8,106.3,130.7,107,130.3,107.8z"/>
	<path class="st40" d="M127.7,103.2c-0.9,0-1.3-0.5-1.3-1.3c0.1-0.4,0.1-1.3,0.8-0.9C128.1,101.5,127.5,102.5,127.7,103.2z"/>
	<path class="st41" d="M103.9,127.7c0.8-0.5,1.5-1.1,2-2c2.6-1.6,4.1-4.3,6.5-6c0.4-0.5,0.7-1,1.3-1.3c0,0,0,0,0,0
		c0.4,0,0.8,0,1.2,0c0.8,1.3-0.4,2-1.1,2.7c-2.3,2.4-4.6,4.8-7.1,7c-1.1,0.7-2,1.5-2.8,2.6c-0.6,0.8-1.3,1.8-2.6,1.1
		c0.2-0.5,0.3-1,0.5-1.5c0.1-0.4,0.1-0.8,0.2-1.2C102.9,129,103.5,128.5,103.9,127.7z"/>
	<path class="st15" d="M113.8,118.4c-0.2,0.6-0.7,1.1-1.3,1.3c0.5-0.9-1.8-1.4-0.4-2.3C113,116.8,113.1,118.2,113.8,118.4z"/>
	<path d="M66.2,166c0.2,0.6,0.5,1.2,0.7,1.8C66.5,167.2,64.1,167.3,66.2,166C66.2,166,66.2,166,66.2,166z"/>
	<path class="st42" d="M93.3,138.8c0.5-0.2,1-0.4,1.4-0.5c0.6,0.8,0.1,1.4-0.3,2.1c-0.3,0.4-0.6,0.7-0.9,1c-1,1-2,2-3.1,3.1
		c-0.5,0.5-1,1-1.6,1.5c-0.8,0.7-1.5,1.5-2.8,1.1c-0.3-0.2-0.4-0.4-0.4-0.8c0-0.3,0.1-0.6,0.3-0.8C88.5,143.3,90.9,141.1,93.3,138.8
		z"/>
	<path d="M86.1,145.5c0,0.2,0,0.3-0.1,0.5c-0.1,0.5-0.3,0.5-0.6,0.1c-1.4,0.3-0.4-2.4-2.2-1.9c-0.3,0.1,0.1-1.1,0.5-1
		c0.8,0.1,1.6,0.6,2.4,0.9C86.1,144.6,86.1,145.1,86.1,145.5z"/>
	<path class="st43" d="M85.4,146.2c0.2,0,0.4-0.1,0.6-0.1c0.1,0.3,0.1,0.7,0.2,1c0.2,0.4,0.3,0.8-0.3,1c-1.1,0.9-2.1,1.8-3.2,2.7
		c-0.2-0.2-0.4-0.5-0.7-0.7C83.2,148.8,84.3,147.5,85.4,146.2z"/>
	<path class="st24" d="M80.8,146.8c0.8,0.6,0.9,1.4,0.3,2.2c-0.3,0.4-0.8,0.2-1.1-0.2C79.1,147.7,80.5,147.5,80.8,146.8L80.8,146.8z
		"/>
	<path class="st25" d="M97,100.8c0.1,0.6-0.2,0.9-0.5,0.8c-0.4-0.1-0.8-0.4-0.9-0.7c-0.2-0.4,0.1-0.9,0.6-0.7
		C96.6,100.3,96.8,100.7,97,100.8z"/>
	<path class="st44" d="M106.5,127.5c2.5-3.3,6.1-5.7,8.5-9.2c0.3-0.2,0.5-0.5,0.8-0.7c1.7-0.1,1-1.1,0.8-1.9
		c0.3-0.2,0.6-0.3,0.9-0.2c1.6,2-0.4,4.1,0.3,6.2c0.1,0.3-1,0.9-1.6,0.8c-2.4-0.7-3.2,1-4.4,2.5c-1.4,1.7-2.9,3.3-5.2,3.4
		C106.2,128.1,106.3,127.8,106.5,127.5z"/>
	<path class="st15" d="M103.4,107.5c0.5,0.5,0.7,0.7,0.9,0.9c-0.2,0.2-0.4,0.5-0.6,0.5c-0.2-0.1-0.5-0.3-0.6-0.6
		C103,108.2,103.3,107.9,103.4,107.5z"/>
	<path class="st45" d="M106.5,127.5c0,0.3,0,0.5,0.1,0.8c-2.6,5-7.2,8.2-11.2,12c-0.4,0.4-1,0.3-1.4-0.2c0.3-0.6,0.6-1.2,0.9-1.8
		c2.5-1.9,4.5-4.2,6.6-6.5C103.5,131,104.2,128.3,106.5,127.5z"/>
	<path class="st46" d="M93.9,140.1c4-2.2,6.7-5.9,9.9-9.1c0.9-0.9,1.7-2,2.8-2.7c2.7-1.6,4.4-4.2,6.7-6.2c0.5-0.4,1.1-2.5,2.2-0.3
		c0.3,0.6,1.3,0,1.8-0.3c0.8-0.5,0.2-1.2-0.3-1.5c-1.1-0.7-0.4-1.2,0.1-1.8c0.7-0.8,1.2-1.6,0.2-2.5c-2.9-1.6-4.3-5-7.4-6.5
		c-0.4-0.5-0.8-1-1.2-1.5c-2.4-2.2-4-5.1-6.7-7c-0.8-0.5-1.9-1.2-1.3-2.6c0.1-0.3,0-0.4-0.6-0.4c-1.1,0.2-1.8-0.6-2.6-1.1
		c-1.1-0.9-0.5-1.8,0.2-2.5c2.4-2.4,4.9-4.6,7.3-7c0.8-0.8,1.6-0.1,2.5-0.1c1.8,1.8,3.5,3.7,5.3,5.5c4.1,4.7,9,8.6,13.3,13.2
		c3.8,3.6,7.2,7.6,11.1,11.1c1.4,1.8,3.3,3,4.5,5c1,1.9,4.2,2.8,3.7,5c-0.5,1.8-2.8,3.2-4.3,4.7c-0.3,0.7-0.5,1.5-1.4,1.7
		c-2.6-1.4-1.1,1-1.5,1.6c-2.5,3.1-4.9,6.3-8.4,8.4c-6.5,5.7-12.6,11.8-18.6,18c-2.1,1-3.1,3.6-5.6,3.9c-4.2-0.5-8.4-0.5-12.6,0
		c-5.8,0-11.6,0-17.4,0c-1.1,0-2.2,0.3-3.1-0.6c-0.2-1.7,1-2.6,2-3.6c4.2-4.3,8.8-8.3,12.6-12.9c0-1.4,1.9-1.4,1.9-2.8
		c0.4-0.4,0.9-0.9,1.3-1.3c1.5-0.7,2.6-1.8,3.3-3.3C93.4,140.5,93.6,140.3,93.9,140.1z"/>
	<path class="st47" d="M125.6,106.1c-4.1-4.7-10-7.7-13-13.5c0.4,0.1,0.8,0.2,1.1,0.3c0.4,0.8,1.1,1.5,1.9,1.9
		c3.4,3.5,6.8,6.9,10.1,10.4C126,105.5,126,105.8,125.6,106.1z"/>
	<path class="st48" d="M139.4,132.9c0.5-0.5,0.9-0.9,1.4-1.4c0.2,0.2,0.4,0.5,0.7,0.7c-3.7,4.2-7.6,8.3-11.9,11.9
		c0-0.3-0.1-0.6-0.1-0.9c2.7-2.8,5.3-5.6,8-8.4C138,134.1,138.7,133.4,139.4,132.9z"/>
	<path class="st49" d="M141.5,121.8c-1.8-1.2-3.6-2.6-4.6-4.6c0.2-0.4,0.5-0.4,0.8-0.1c1.5,1.2,2.9,2.4,3.9,4
		C141.5,121.3,141.5,121.5,141.5,121.8z"/>
	<path class="st50" d="M177,161.3c-0.2,0.2-0.4,0.4-0.5,0.4c-0.2-0.2-0.5-0.4-0.6-0.6c-0.1-0.3,0.1-0.7,0.5-0.5
		C176.7,160.7,176.9,161,177,161.3z"/>
	<path class="st51" d="M97.3,96.6c1,0,2,0.8,3.2,0.2c0.7-0.4,2-0.4,2.3,0.6c0.4,1.5-1.3,0.8-2.1,1.2c1.1,1.6,2,2.9,4,2.6
		c0.3,0,0.6,0,0.9,0c-2,3.6,3.2,3.8,3,6.5C104.4,104.4,100.8,100.6,97.3,96.6z"/>
	<path class="st0" d="M109.8,109.2c2.9-0.5,3.1,2.5,4.7,3.7c1,0.8,1.8,1.9,2.7,2.8c-0.2,0-0.4,0-0.6,0
		C113.9,113.9,111.9,111.5,109.8,109.2z"/>
	<path class="st52" d="M137.6,117.1c-0.3,0-0.6,0.1-0.8,0.1c-3.8-1.8-5.3-5.9-8.6-8.3c-1-0.7-1.8-1.9-2.6-2.9c0-0.3,0.1-0.6,0.1-0.9
		C129.9,108.9,133.9,112.8,137.6,117.1z"/>
	<path class="st44" d="M92.6,165.3c4.2-1,8.4-1,12.6,0C101,165.3,96.8,165.3,92.6,165.3z"/>
	<path class="st45" d="M88.6,145.4c0.4,1.6-1.3,1.8-1.9,2.8c-0.3,0-0.5-0.1-0.8-0.1c0.1-0.3,0.2-0.7,0.3-1
		C87,146.5,87.8,145.9,88.6,145.4z"/>
	<path class="st45" d="M93.2,140.7c-0.2,2-1.3,3.1-3.3,3.3C90.7,142.7,91.9,141.7,93.2,140.7z"/>
	<path class="st50" d="M109.6,92.8c-1.3-0.4-2,2.7-3.3,0.6c-0.5-0.9-1.4-2.4-0.5-3C107.9,89.1,108.1,92,109.6,92.8z"/>
	<path class="st50" d="M98.8,140.8c-0.5,1.1,1.5,2.5-0.4,3.1c-1,0.3-1.3-1-1-1.5c0.8-1.1-0.8-3,0.8-3.3
		C99.8,138.8,98.5,140.3,98.8,140.8z"/>
	<path class="st53" d="M110.1,99c-0.7-0.7-1.3-1.3-1.9-1.9c-0.4-0.5-0.9-1-0.5-1.7c0.2-0.3,0.8-0.6,1-0.5c0.5,0.3,1.2,0.8,1.3,1.3
		C110.3,97,110.1,97.9,110.1,99z"/>
	<path class="st7" d="M108.5,129.9c1,0.7,0.7,1.9,1,2.9c0.2,0.5-0.4,0.8-0.9,0.6c-1.1-0.4-1.1-1.6-1.2-2.5
		C107.3,130.4,107.8,130,108.5,129.9z"/>
	<path class="st51" d="M125,144.2c0-0.5-0.2-0.8-0.1-0.8c1-0.8,0.3-2.8,2.2-2.8c0.2,0,0.7,0.6,0.7,1
		C127.8,143.3,126,143.2,125,144.2z"/>
	<path class="st54" d="M139.4,132.9c-0.3,0.9-1,1.6-1.9,2c-0.2-0.6-0.4-1.2-0.5-1.8c-0.2-0.9-0.3-2,0.6-2.2c1.6-0.3,0.3,1.3,0.9,1.8
		C138.8,132.8,139.1,132.8,139.4,132.9z"/>
	<path class="st50" d="M140.3,129.9c-0.6-0.3-1.4-0.4-1.1-1.3c0.2-0.6,0.7-1.3,1.4-1.1c0.5,0.2,1.1,0.9,1.1,1.4
		C141.7,129.5,141.1,130,140.3,129.9z"/>
	<path class="st55" d="M106.6,163.6c-0.8,0.1-1.2-0.4-1.3-1.1c0-0.4,0.1-0.9,0.7-0.9c0.7,0,1.3,0.3,1.6,0.9
		C107.8,163.2,107,163.3,106.6,163.6z"/>
	<path class="st0" d="M134.3,118.4c2.3,1.7-0.3,2-0.5,3.4C132.2,120,134.6,119.6,134.3,118.4L134.3,118.4z"/>
	<path class="st56" d="M112.6,106.2c-0.9,1.2-1.9,1.1-3.2,0.2C110.6,105.5,111.7,106.5,112.6,106.2z"/>
	<path class="st56" d="M113,153.1c-0.7,0.1-1-0.1-1-0.7c0-0.5,0.2-0.9,0.7-0.9c0.4,0,0.9,0.1,0.9,0.6
		C113.5,152.6,113.1,152.9,113,153.1z"/>
	<path class="st51" d="M115.6,111.7c-0.4,0-1-0.1-0.9-0.6c0.1-0.3,0.4-0.8,0.7-0.9c0.4-0.2,0.8,0.1,0.8,0.6
		C116.3,111.3,116.1,111.6,115.6,111.7z"/>
	<path class="st7" d="M134.8,128.7c0.1-0.9,0.6-1.4,1.5-1.4c0.1,0,0.5,0.5,0.4,0.7C136.2,128.7,135.7,129.2,134.8,128.7z"/>
	<path class="st6" d="M108.9,103.1c-0.4-0.6-0.6-1-0.7-1.3c-0.2-0.5-0.2-0.9,0.4-0.9c0.5,0,0.9,0.3,0.9,0.8
		C109.4,102,109.2,102.4,108.9,103.1z"/>
	<path class="st7" d="M116.2,107.8c0.2-1.2,0.5-2.1,1.3-1.8c1.2,0.4,0.1,0.9-0.2,1.3C117.1,107.5,116.8,107.6,116.2,107.8z"/>
	<path class="st0" d="M114.6,153.8c0.7-0.3,1.1-0.6,1.4-0.6c0.2,0,0.6,0.3,0.6,0.5c0.1,0.5-0.3,0.8-0.7,0.9
		C115.7,154.6,115.5,154.3,114.6,153.8z"/>
	<path class="st0" d="M116.7,151.4c-0.4-0.1-0.6-0.2-0.5-0.6c0.1-0.4,0.2-0.9,0.8-0.8c0.2,0.1,0.5,0.4,0.5,0.7
		C117.6,151.2,117.2,151.4,116.7,151.4z"/>
	<path class="st0" d="M134.3,118.4c-1.2-0.1-2-0.6-1.8-2.4C133.2,117,133.7,117.7,134.3,118.4C134.3,118.4,134.3,118.4,134.3,118.4z
		"/>
	<path class="st56" d="M101.2,94.3c-0.1,0.4-0.3,0.7-0.6,0.5c-0.2-0.2-0.4-0.5-0.4-0.8c0-0.1,0.4-0.3,0.6-0.4
		C101,93.9,101.1,94.1,101.2,94.3z"/>
	<path class="st57" d="M88.6,153.7c-0.1,0.4-0.3,0.7-0.6,0.5c-0.2-0.2-0.4-0.5-0.4-0.8c0-0.1,0.4-0.3,0.6-0.4
		C88.4,153.3,88.5,153.6,88.6,153.7z"/>
</g>
</svg>
