<svg width="58" height="58" viewBox="0 0 58 58" fill="none" xmlns="http://www.w3.org/2000/svg">
<path d="M28.715 57.43C44.5738 57.43 57.43 44.5739 57.43 28.715C57.43 12.8561 44.5738 0 28.715 0C12.8561 0 0 12.8561 0 28.715C0 44.5739 12.8561 57.43 28.715 57.43Z" fill="#E7305C"/>
<path d="M27.0051 9.76726C30.3367 11.4477 32.7811 14.0329 34.6261 17.2293C35.4252 18.6159 35.3429 20.0319 34.6848 21.4303C34.3088 22.2294 33.8504 22.9932 33.4391 23.7747C33.0455 24.5209 32.687 25.2788 32.9162 26.1602C33.1042 26.877 33.5978 27.2941 34.2618 27.3235C34.914 27.3529 35.4487 27.0004 35.6837 26.3247C35.9716 25.508 36.0128 24.6854 35.5251 23.9098C35.4839 23.8511 35.4781 23.7688 35.5309 23.6219C35.6896 23.7394 35.8659 23.8334 36.0069 23.9686C36.7002 24.6325 37.1468 25.4551 37.4406 26.3541C38.7098 30.1908 38.0164 34.4212 34.6848 37.2591C33.5625 38.2169 32.2816 38.8456 30.8655 39.2334C30.2721 39.392 30.0958 39.251 30.1428 38.6458C30.3543 35.896 30.5894 33.1462 30.7833 30.3906C30.9067 28.6397 30.983 26.8829 31.0653 25.1261C31.0712 24.9439 31.0242 24.7206 30.9184 24.5796C30.2368 23.7159 29.5258 22.8757 28.8325 22.0237C28.6268 21.7652 28.4682 21.7711 28.2625 22.0237C27.5692 22.8757 26.8582 23.7159 26.1707 24.5738C26.0591 24.7089 26.0062 24.9322 26.0121 25.1143C26.1531 27.5233 26.2941 29.9382 26.4586 32.3472C26.5879 34.198 26.7465 36.0488 26.8993 37.8996C26.9169 38.1111 26.9405 38.3226 26.964 38.5342C27.0462 39.2099 26.8406 39.3979 26.1942 39.2216C24.3434 38.7163 22.7216 37.7997 21.47 36.3367C18.9552 33.4048 18.4499 30.0968 19.7719 26.4892C19.8483 26.2836 19.9776 26.0897 20.195 25.9134C20.1774 26.1602 20.1656 26.4069 20.1421 26.6478C20.0422 27.6878 20.054 28.716 20.4006 29.7149C20.7591 30.7431 21.6405 31.2132 22.5042 30.8371C23.1388 30.5669 23.4855 29.9264 23.2974 29.2213C23.1447 28.6397 22.9449 28.058 22.6805 27.5174C21.805 25.7195 21.0822 23.8804 21.0705 21.8416C21.0646 20.6489 21.6757 19.6735 22.275 18.7158C23.3386 17.0295 24.7311 15.637 26.253 14.3679C26.3353 14.2973 26.4469 14.2562 26.6173 14.2562C26.5292 14.4149 26.4528 14.5794 26.3529 14.7263C25.5949 15.7897 25.1836 16.9531 25.213 18.2692C25.2423 19.4855 25.9533 20.3257 27.1461 20.502C28.2978 20.6724 29.2086 20.0789 29.5729 18.9038C30.0018 17.5172 29.8549 16.1423 29.4847 14.7791C29.0205 13.0517 28.1685 11.5358 27.0168 10.1727C26.917 10.0552 26.87 9.89065 26.7994 9.74963H26.9992L27.0051 9.76726Z" fill="white"/>
<path d="M28.6855 47.4533V47.653H28.1861C27.9099 47.3123 27.387 47.1712 27.4516 46.566C27.481 46.2781 27.5104 46.0607 27.7924 45.9432C28.0803 45.9432 28.3682 45.9432 28.6561 45.9432C28.9264 46.0255 29.3495 45.8375 29.3848 46.3545C29.4259 46.9068 29.1732 47.324 28.6738 47.4591C28.8383 47.1712 29.0146 46.8892 29.1438 46.5837C29.1791 46.5014 29.0557 46.2546 28.9911 46.2488C28.8089 46.2311 28.5563 46.1724 28.5621 46.5308C28.5621 46.7129 28.4622 46.901 28.4035 47.089C28.3682 47.2006 28.3447 47.3122 28.3095 47.4298L28.6738 47.4533H28.6855Z" fill="white"/>
<path d="M31.8938 41.4837C31.3414 41.5718 30.6834 41.66 30.0311 41.801C29.9195 41.8245 29.7961 42.0478 29.7667 42.1947C29.708 42.5237 29.5493 42.6882 29.2144 42.6882C28.7032 42.6882 28.1979 42.7058 27.6867 42.6882C27.5222 42.6823 27.3635 42.5707 27.2166 42.4532C27.9217 42.1653 28.7796 42.6412 29.3789 41.9479L24.7958 41.566C24.8369 41.7011 25.1013 41.8833 24.784 42.1653C24.4373 42.4767 24.2611 42.4532 23.8968 42.1947C23.3914 41.8362 23.1564 41.4778 23.4385 40.8785C23.6089 40.5201 23.697 40.1206 23.8968 39.7857C23.9614 39.674 24.2846 39.6212 24.4432 39.6682C27.0756 40.526 29.7021 40.5319 32.3286 39.6682C32.7281 39.5389 33.0983 39.7504 33.21 40.1793C33.3157 40.573 33.4215 40.9725 33.4803 41.378C33.5038 41.519 33.4156 41.707 33.3216 41.8304C33.2158 41.9714 33.0278 42.0419 32.9103 42.177C32.5813 42.5531 32.264 42.5237 32.0172 42.13C31.9114 41.9596 31.929 41.7129 31.8879 41.4955L31.8938 41.4837Z" fill="white"/>
<path d="M28.474 44.1336C28.3624 44.1277 28.2449 44.1336 28.1332 44.1101C27.957 44.0748 27.6396 44.0219 27.6396 43.9691C27.6396 43.6048 27.6926 43.2464 27.7337 42.8821C28.0157 42.9232 28.3036 42.9526 28.5798 42.9996C28.7326 43.0231 28.8794 43.1171 29.0263 43.1171C29.2614 43.1171 29.3319 43.1817 29.3378 43.4226C29.3672 44.1923 29.3613 44.1982 28.474 44.1394V44.1336Z" fill="white"/>
<path d="M28.4975 45.4673C28.38 45.4615 28.2683 45.4673 28.1567 45.4438C27.9746 45.4086 27.6455 45.3616 27.6455 45.3146C27.6455 44.9914 27.6984 44.6624 27.763 44.3392C27.7689 44.2981 27.9569 44.2687 28.0568 44.2863C28.427 44.3392 28.8148 44.351 29.1438 44.5038C29.279 44.5625 29.3084 44.9268 29.3143 45.1559C29.3143 45.2617 29.185 45.438 29.0792 45.4673C28.8971 45.5202 28.6914 45.4791 28.4916 45.4791V45.4673H28.4975Z" fill="white"/>
<path d="M28.6503 45.9491C28.3624 45.9491 28.0745 45.9491 27.7866 45.9491L27.9276 45.6201C28.145 45.7846 28.5798 45.4732 28.6503 45.955V45.9491Z" fill="white"/>
</svg>
