<svg width="58" height="58" viewBox="0 0 58 58" fill="none" xmlns="http://www.w3.org/2000/svg">
<path d="M28.715 57.43C44.5739 57.43 57.43 44.5739 57.43 28.715C57.43 12.8561 44.5739 0 28.715 0C12.8561 0 0 12.8561 0 28.715C0 44.5739 12.8561 57.43 28.715 57.43Z" fill="#28E05C"/>
<path d="M42.8055 28.7712C42.7231 36.7952 36.1708 43.0237 28.2351 42.8059C20.5289 42.5999 14.4063 36.0711 14.6242 28.259C14.8361 20.6352 21.2412 14.3067 29.2947 14.6304C36.7831 14.9307 42.8056 21.065 42.8114 28.7712H42.8055ZM35.9766 19.7227C35.9177 19.6757 35.8294 19.5991 35.7352 19.5285C33.922 18.1509 31.8909 17.3679 29.6185 17.1795C29.3359 17.156 29.1829 17.2149 29.0239 17.468C27.3815 20.0995 25.7213 22.7193 24.0729 25.3449C22.2833 28.1884 20.4877 31.0318 18.7039 33.8811C18.6274 34.0048 18.545 34.2285 18.5979 34.3227C18.9453 34.9114 19.3279 35.4765 19.6812 36.0181C25.1444 30.5549 30.5546 25.1447 35.9707 19.7227H35.9766ZM21.4355 37.7548C21.9359 38.0845 22.4598 38.4142 22.972 38.7674C23.184 38.9146 23.3429 38.9087 23.5666 38.7674C29.0357 35.3117 34.5048 31.8678 39.9798 28.4297C40.1858 28.3002 40.2506 28.1648 40.2388 27.9293C40.1269 26.3221 39.7207 24.7915 38.9495 23.3727C38.5845 22.6957 38.143 22.0599 37.7486 21.4359C32.2795 26.905 26.8751 32.3093 21.4296 37.7548H21.4355ZM39.9798 31.1554C35.329 34.0813 30.7076 36.9954 26.0451 39.933C32.7446 41.6285 38.873 36.8894 39.9798 31.1554Z" fill="white"/>
</svg>
