<svg width="62" height="48" viewBox="0 0 62 48" fill="none" xmlns="http://www.w3.org/2000/svg">
<path d="M31 9L28.1066 26.9491C28.0311 27.4335 27.7634 27.8761 27.3516 28.1737L27.3452 28.1783L20.7194 32.8711L18 34.8207L26.4646 44.024C28.8877 46.6586 33.1123 46.6587 35.5354 44.024L44 34.8207L41.2806 32.8711L34.6548 28.1783L34.6484 28.1737C34.2366 27.8761 33.9689 27.4335 33.8934 26.9491L31 9Z" fill="url(#paint0_linear_5082_40102)"/>
<path d="M31 11.8605L28.4086 28.0954C28.341 28.5336 28.1012 28.9339 27.7324 29.203L27.7266 29.2073L21.7925 33.4519L19.3569 35.2153L2.38893 47.7021C1.26503 48.5292 -0.289914 47.5099 0.0467188 46.1668C6.40258 20.8072 20.6373 6.08665 29.8356 0.279561C30.2129 0.0413561 30.4537 0 31 0C31.5463 0 31.7871 0.0413561 32.1644 0.279561C41.3627 6.08665 55.5974 20.8072 61.9533 46.1668C62.2899 47.5099 60.735 48.5292 59.6111 47.7021L42.6431 35.2153L40.2075 33.4519L34.2734 29.2073L34.2676 29.203C33.8988 28.9339 33.659 28.5336 33.5914 28.0954L31 11.8605Z" fill="url(#paint1_linear_5082_40102)"/>
<defs>
<linearGradient id="paint0_linear_5082_40102" x1="31.0599" y1="45.3045" x2="31.0599" y2="8.97498" gradientUnits="userSpaceOnUse">
<stop stop-color="#FCD314"/>
<stop offset="0.302083" stop-color="#C9AA0F"/>
<stop offset="1" stop-color="#876F01"/>
</linearGradient>
<linearGradient id="paint1_linear_5082_40102" x1="15.0286" y1="0" x2="15.0286" y2="50.1627" gradientUnits="userSpaceOnUse">
<stop stop-color="#FFE463"/>
<stop offset="1" stop-color="#FBD20F"/>
</linearGradient>
</defs>
</svg>
