<?xml version="1.0" encoding="utf-8"?>
<!-- Generator: Adobe Illustrator 26.3.1, SVG Export Plug-In . SVG Version: 6.00 Build 0)  -->
<svg version="1.1" id="katman_1" xmlns="http://www.w3.org/2000/svg" xmlns:xlink="http://www.w3.org/1999/xlink" x="0px" y="0px"
	 viewBox="0 0 256 256" style="enable-background:new 0 0 256 256;" xml:space="preserve">
<style type="text/css">
	.st0{fill-rule:evenodd;clip-rule:evenodd;fill:#0F0E25;}
	.st1{fill-rule:evenodd;clip-rule:evenodd;fill:#FFFFFF;}
	.st2{fill-rule:evenodd;clip-rule:evenodd;fill:url(#Rectangle_00000160903017582075852160000000119694539269600406_);}
</style>
<g id="Flux-Logo-New" transform="translate(70.000000, 70.000000) rotate(90.000000) translate(-70.000000, -70.000000) ">
	<circle id="Oval" class="st0" cx="128" cy="12" r="128"/>
	<path id="Rectangle" class="st1" d="M188.3,35.8L188.3,35.8c0,13.1-10.6,23.8-23.8,23.8H91.4c-13.1,0-23.8-10.6-23.8-23.8l0,0
		C67.7,22.6,78.3,12,91.4,12h73.1C177.7,12,188.3,22.6,188.3,35.8z"/>
	<path id="Rectangle_00000029015086407828866110000007906558987987159941_" class="st1" d="M91.4-61.1c13.1,0,23.8,10.6,23.8,23.8
		v96.9l0,0H91.4c-13.1,0-23.8-10.6-23.8-23.8v-73.1C67.7-50.5,78.3-61.1,91.4-61.1z"/>
	
		<radialGradient id="Rectangle_00000172414668220536296240000016133236171706858910_" cx="259.2" cy="140.6773" r="2.5385" gradientTransform="matrix(47.5429 0 0 -47.5428 -12184.1348 6652.6519)" gradientUnits="userSpaceOnUse">
		<stop  offset="0" style="stop-color:#FE84FC"/>
		<stop  offset="1" style="stop-color:#2ED1FF"/>
	</radialGradient>
	
		<path id="Rectangle_00000000916468336965698830000013691228868808612282_" style="fill-rule:evenodd;clip-rule:evenodd;fill:url(#Rectangle_00000172414668220536296240000016133236171706858910_);" d="
		M115.2-35.5H139c13.1,0,23.8,10.6,23.8,23.8v73.1c0,13.1-10.6,23.8-23.8,23.8c-13.1,0-23.8-10.6-23.8-23.8V-35.5L115.2-35.5z"/>
</g>
</svg>
