<?xml version="1.0" encoding="utf-8"?>
<!-- Generator: Adobe Illustrator 26.3.1, SVG Export Plug-In . SVG Version: 6.00 Build 0)  -->
<svg version="1.1" id="katman_1" xmlns="http://www.w3.org/2000/svg" xmlns:xlink="http://www.w3.org/1999/xlink" x="0px" y="0px"
	 viewBox="0 0 256 256" style="enable-background:new 0 0 256 256;" xml:space="preserve">
<style type="text/css">
	.st0{fill-rule:evenodd;clip-rule:evenodd;fill:#0F0E25;}
	.st1{fill-rule:evenodd;clip-rule:evenodd;fill:#FFFFFF;}
	.st2{fill-rule:evenodd;clip-rule:evenodd;fill:url(#Rectangle_00000024718987842981987260000012796135254024630170_);}
</style>
<g id="Flux-Logo-New" transform="translate(70.000000, 70.000000) rotate(90.000000) translate(-70.000000, -70.000000) ">
	<circle id="Oval" class="st0" cx="128.2" cy="12.4" r="70"/>
	<path id="Rectangle" class="st1" d="M161.2,25.4L161.2,25.4c0,7.2-5.8,13-13,13h-40c-7.2,0-13-5.8-13-13l0,0c0-7.2,5.8-13,13-13h40
		C155.4,12.4,161.2,18.2,161.2,25.4z"/>
	<path id="Rectangle_00000029015086407828866110000007906558987987159941_" class="st1" d="M108.2-27.6c7.2,0,13,5.8,13,13v53l0,0
		h-13c-7.2,0-13-5.8-13-13v-40C95.2-21.8,101-27.6,108.2-27.6z"/>
	
		<radialGradient id="Rectangle_00000008129667953268651730000011288967065798453171_" cx="259.2" cy="140.6773" r="2.5385" gradientTransform="matrix(26 0 0 -26 -6605 3643.9963)" gradientUnits="userSpaceOnUse">
		<stop  offset="0" style="stop-color:#FE84FC"/>
		<stop  offset="1" style="stop-color:#2ED1FF"/>
	</radialGradient>
	
		<path id="Rectangle_00000000916468336965698830000013691228868808612282_" style="fill-rule:evenodd;clip-rule:evenodd;fill:url(#Rectangle_00000008129667953268651730000011288967065798453171_);" d="
		M121.2-13.6h13c7.2,0,13,5.8,13,13v40c0,7.2-5.8,13-13,13c-7.2,0-13-5.8-13-13V-13.6L121.2-13.6z"/>
</g>
</svg>
