<svg width="87" height="87" viewBox="0 0 87 87" fill="none" xmlns="http://www.w3.org/2000/svg">
<path d="M43.3 86.6C67.2139 86.6 86.6 67.2139 86.6 43.3C86.6 19.3861 67.2139 0 43.3 0C19.3861 0 0 19.3861 0 43.3C0 67.2139 19.3861 86.6 43.3 86.6Z" fill="#ED1C24"/>
<path d="M6.4563 40.5457C6.47402 40.3154 6.49175 40.085 6.51833 39.8635C6.55377 39.58 6.58922 39.2965 6.64239 39.013C6.73985 38.4902 7.04111 38.1004 7.43097 37.7637C8.06005 37.2233 8.79542 36.9309 9.61057 36.8334C10.4966 36.7271 11.3649 36.7625 12.2244 37.0106C12.6142 37.1258 12.9687 37.303 13.3142 37.5156C13.9965 37.9409 14.4129 38.5434 14.5546 39.3408C14.6698 40.0407 14.6876 40.7495 14.6787 41.4672H11.1523C11.1523 41.4229 11.1523 41.3697 11.1523 41.3166C11.1435 40.7229 11.1346 40.1293 11.1257 39.5357C11.1257 39.4028 11.0991 39.2699 11.0725 39.137C11.0371 38.9775 10.9396 38.8712 10.7801 38.8446C10.6561 38.8269 10.5321 38.8269 10.4169 38.8446C10.2485 38.8712 10.1333 38.9775 10.1067 39.1459C10.0713 39.3939 10.027 39.6509 10.027 39.899C10.0182 41.2014 10.027 42.5126 10.027 43.8151C10.027 44.5238 10.027 45.2326 10.027 45.9414C10.027 46.2338 10.0448 46.5351 10.0802 46.8274C10.1334 47.2527 10.4789 47.4388 10.8776 47.2793C11.0283 47.2173 11.1345 47.1021 11.1611 46.9426C11.2054 46.6768 11.2586 46.4022 11.2674 46.1364C11.2852 45.6136 11.2674 45.082 11.2674 44.5593C11.2674 44.5327 11.2674 44.515 11.2674 44.4707H10.5675V42.6455H14.6876V49.1133C14.6433 49.1133 14.5989 49.1133 14.5546 49.1133C13.9078 49.1133 13.2522 49.1133 12.6054 49.1133C12.5079 49.1133 12.4636 49.0867 12.4282 48.9893C12.3485 48.75 12.2509 48.5108 12.1535 48.245C12.1092 48.307 12.0738 48.3513 12.0383 48.3956C11.6042 48.9715 11.0194 49.2728 10.3194 49.3348C9.3005 49.4323 8.37014 49.1665 7.57271 48.5197C6.9259 47.9969 6.60696 47.297 6.54493 46.4819C6.52721 46.2427 6.5095 45.9946 6.49177 45.7554V40.528L6.4563 40.5457Z" fill="white"/>
<path d="M69.4001 50.2208C69.4001 50.1588 69.4001 50.0967 69.4001 50.0347C69.4001 46.4021 69.4001 42.7784 69.4001 39.1459V38.9509H72.8379L72.7847 39.8015C72.7847 39.8015 72.8467 39.7572 72.8644 39.7306C73.4847 39.0395 74.2644 38.7117 75.1858 38.7649C75.4782 38.7826 75.7795 38.8003 76.063 38.8712C76.8427 39.0661 77.3123 39.5888 77.5338 40.3508C77.649 40.7495 77.7022 41.1571 77.7022 41.5646C77.7022 43.1062 77.7022 44.6479 77.7022 46.1806C77.7022 46.5705 77.649 46.9603 77.6224 47.3502C77.587 47.802 77.3478 48.1387 77.0111 48.4133C76.6123 48.75 76.1428 48.9272 75.6289 48.9981C75.0618 49.0778 74.5036 49.007 73.9631 48.8209C73.5378 48.6703 73.2012 48.4045 72.8999 48.0944C72.8733 48.0678 72.8379 48.0324 72.8113 48.0058H72.7759V50.2208H69.3912H69.4001ZM73.8214 43.7707C73.8214 43.0088 73.8214 42.238 73.8214 41.476C73.8214 41.2457 73.7948 41.0064 73.7682 40.7761C73.7682 40.7141 73.715 40.6343 73.6619 40.5989C73.3784 40.3597 72.8999 40.5369 72.8467 40.9001C72.8201 41.095 72.7935 41.2988 72.7935 41.5026C72.7935 43.0974 72.7935 44.6833 72.7935 46.2781C72.7935 46.5085 72.829 46.7477 72.8644 46.978C72.891 47.1287 72.9885 47.2261 73.1391 47.2527C73.2543 47.2704 73.3695 47.2793 73.4758 47.2527C73.6353 47.235 73.7327 47.1287 73.7505 46.9692C73.777 46.7565 73.8036 46.5528 73.8036 46.3401C73.8036 45.4807 73.8036 44.6302 73.8036 43.7707H73.8214Z" fill="white"/>
<path d="M50.4567 36.355C50.6339 36.3727 50.8022 36.3904 50.9794 36.417C51.6528 36.4967 52.2996 36.6739 52.8933 37.0106C53.4692 37.3296 53.7704 37.8169 53.8679 38.4636C53.9565 39.075 53.9742 39.6952 53.9742 40.3065C53.9742 40.3331 53.9742 40.3597 53.9653 40.3951H50.7047C50.7047 40.342 50.7047 40.2888 50.7047 40.2445C50.7047 39.899 50.7047 39.5534 50.6959 39.2079C50.6959 39.0838 50.6782 38.9598 50.6339 38.8446C50.5985 38.756 50.5364 38.6674 50.4567 38.6143C50.182 38.4459 49.7744 38.5611 49.6327 38.8446C49.5884 38.9332 49.5529 39.0307 49.544 39.1281C49.4909 39.4737 49.4997 39.8104 49.5972 40.147C49.6592 40.3685 49.7833 40.5457 49.9782 40.6698C50.3415 40.9001 50.7225 41.1216 51.0946 41.3343C51.7591 41.7064 52.4059 42.0962 53.0261 42.5481C53.6818 43.0265 54.054 43.6556 54.178 44.453C54.3021 45.2149 54.302 45.9857 54.2134 46.7565C54.1071 47.6514 53.6021 48.2184 52.8135 48.5817C51.9186 48.9981 50.9794 49.1133 50.0048 49.069C49.2694 49.0335 48.5517 48.9006 47.8872 48.5728C47.8163 48.5374 47.7543 48.5019 47.6834 48.4665C46.9657 48.0855 46.5581 47.4831 46.4341 46.6857C46.3189 45.9769 46.3189 45.2681 46.3277 44.5504C46.3277 44.5416 46.3277 44.5327 46.3366 44.515H49.5972C49.5972 44.577 49.5972 44.6302 49.5972 44.6833C49.5972 45.2238 49.5972 45.7642 49.6061 46.3047C49.6061 46.4376 49.6327 46.5705 49.6681 46.7034C49.7035 46.8629 49.8187 46.9692 49.9782 47.0135C50.368 47.1109 50.7756 47.0135 50.8731 46.5085C50.9883 45.9769 50.9351 45.4453 50.7668 44.9225C50.7047 44.7542 50.5896 44.6213 50.4478 44.5238C49.925 44.1872 49.4111 43.8416 48.8795 43.5227C48.4099 43.2303 47.9315 42.9645 47.4619 42.6898C46.7796 42.2911 46.372 41.6887 46.2125 40.9356C46.0176 40.023 46.0708 39.1016 46.3012 38.1978C46.4607 37.5865 46.8771 37.1967 47.3999 36.9043C47.9315 36.6119 48.5163 36.479 49.1099 36.417C49.2871 36.3993 49.4643 36.3816 49.6327 36.355H50.4655H50.4567Z" fill="white"/>
<path d="M79.9349 38.7649C79.9349 38.7649 79.8818 38.8357 79.8641 38.8712C79.6692 39.1724 79.3148 39.2965 78.9781 39.199C78.6502 39.1015 78.4199 38.7826 78.4287 38.4459C78.4287 38.1004 78.6591 37.7991 78.9957 37.7017C79.3236 37.6042 79.678 37.7371 79.873 38.0295C79.8995 38.0649 79.9172 38.1004 79.9438 38.1358V38.7649H79.9349ZM79.2084 37.7814C78.8363 37.7814 78.535 38.0738 78.535 38.437C78.535 38.8003 78.8274 39.1104 79.1996 39.1104C79.5806 39.1104 79.8818 38.818 79.8818 38.4459C79.8818 38.0827 79.5805 37.7814 79.2173 37.7814H79.2084Z" fill="white"/>
<path d="M27.6679 39.2256L27.6148 40.1116C28.1641 39.394 28.8906 39.0396 29.7855 39.0396C30.6893 39.0396 31.407 39.4028 31.9386 40.1559C31.9829 40.1116 32.0183 40.0673 32.0538 40.023C32.993 38.8712 34.3929 38.8624 35.3144 39.2876C35.9257 39.5711 36.289 40.0496 36.3422 40.7318C36.3776 41.1925 36.4131 41.6532 36.4219 42.1228C36.4219 44.3998 36.4219 46.6768 36.4219 48.9538V49.1133H33.1259C33.1259 49.0601 33.1259 49.007 33.1259 48.9538C33.1259 46.7211 33.1259 44.4884 33.1259 42.2557C33.1259 41.9545 33.0905 41.6444 33.0727 41.3431C33.0727 41.29 33.055 41.2368 33.0461 41.1837C32.993 40.9267 32.8424 40.8027 32.5854 40.8027C32.3196 40.8027 32.1335 40.9267 32.0981 41.1837C32.0538 41.5115 32.0184 41.8482 32.0184 42.1848C32.0184 44.4353 32.0184 46.6945 32.0184 48.945C32.0184 48.9981 32.0184 49.0601 32.0184 49.1222H28.7223C28.7223 49.0601 28.7223 48.9981 28.7223 48.9361C28.7223 46.6325 28.7223 44.3289 28.7134 42.0165C28.7134 41.7507 28.6957 41.4849 28.6603 41.2191C28.616 40.8736 28.3502 40.7141 28.0135 40.8293C27.8097 40.9001 27.6768 41.0508 27.6502 41.2723C27.6325 41.4317 27.6236 41.6001 27.6236 41.7596C27.6236 44.1517 27.6236 46.5528 27.6236 48.945C27.6236 48.9981 27.6236 49.0601 27.6236 49.1222H24.2301V39.2345H27.6768L27.6679 39.2256Z" fill="white"/>
<path d="M23.2998 49.1133H19.8531V48.2982H19.8266C19.8266 48.2982 19.7911 48.3336 19.7734 48.3513C19.4279 48.8741 18.9405 49.1753 18.3292 49.2639C17.6558 49.3614 17.009 49.2462 16.3976 48.945C15.9192 48.7057 15.6888 48.307 15.5825 47.8109C15.547 47.6337 15.5116 47.4565 15.5116 47.2704C15.4939 46.6502 15.4673 46.03 15.547 45.4098C15.6179 44.8694 15.8837 44.4884 16.3799 44.2403C16.9558 43.9568 17.5494 43.753 18.1431 43.5315C18.5684 43.3721 18.9848 43.1949 19.4013 43.0177C19.5962 42.9379 19.6937 42.7873 19.7202 42.5835C19.7645 42.1228 19.7822 41.671 19.6848 41.2102C19.605 40.8381 19.2683 40.6786 18.9228 40.8293C18.8076 40.8736 18.7456 40.9622 18.7368 41.0773C18.7102 41.29 18.6925 41.4938 18.6836 41.7064C18.6747 42.0962 18.6836 42.4949 18.6836 42.8848C18.6836 42.9291 18.6836 42.9822 18.6836 43.0354H15.5205C15.5205 43.0354 15.5027 43.0265 15.5027 43.0177C15.4939 42.4329 15.4938 41.8482 15.5913 41.2723C15.7153 40.5014 16.1672 39.9876 16.8229 39.6066C17.3191 39.3231 17.8419 39.1547 18.4089 39.0927C19.3393 38.9864 20.2696 39.0218 21.191 39.2256C21.7492 39.3585 22.2454 39.6066 22.653 40.0319C23.0074 40.3951 23.1492 40.847 23.2023 41.3431C23.2998 42.2734 23.3087 43.2037 23.3087 44.134C23.3087 45.7377 23.3087 47.3502 23.3087 48.9538V49.1044L23.2998 49.1133ZM19.7468 44.4175C19.4101 44.6567 19.0734 44.8605 18.8608 45.2149C18.8165 45.2858 18.7899 45.3744 18.7722 45.4541C18.6659 45.906 18.6747 46.3667 18.7013 46.8186C18.7101 46.9603 18.7367 47.1021 18.7722 47.2439C18.8076 47.4033 18.9228 47.5008 19.0823 47.5274C19.1975 47.5451 19.3215 47.5451 19.4367 47.5274C19.5785 47.5096 19.6759 47.421 19.6936 47.2793C19.7202 47.0932 19.7468 46.9072 19.7468 46.7211C19.7468 46.0035 19.7468 45.2769 19.7468 44.5593C19.7468 44.5238 19.7468 44.4884 19.738 44.4264L19.7468 44.4175Z" fill="white"/>
<path d="M68.4698 43.9125C68.452 44.5859 68.452 45.2592 68.4165 45.9326C68.39 46.5085 68.2925 47.0666 67.9647 47.5717C67.5128 48.245 66.8837 48.6348 66.1129 48.8386C65.4129 49.0158 64.7041 49.0424 63.9953 48.9981C63.5168 48.9715 63.0472 48.9006 62.5865 48.7589C61.541 48.4399 60.9562 47.7311 60.7967 46.6679C60.7258 46.1984 60.6992 45.7199 60.6992 45.2415C60.6904 44.1872 60.6993 43.124 60.717 42.0696C60.717 41.6001 60.8055 41.1305 60.9562 40.6786C61.2131 39.9167 61.7714 39.4382 62.489 39.1193C63.1004 38.8535 63.7472 38.7737 64.4117 38.7737C65.2269 38.7737 66.0243 38.8623 66.7774 39.2079C67.4862 39.5357 68.0001 40.0496 68.2837 40.7849C68.4343 41.1748 68.4609 41.6001 68.4609 42.0165C68.4698 42.6544 68.4609 43.2923 68.4609 43.9214H68.4786L68.4698 43.9125ZM64.0928 43.8859C64.0928 44.7896 64.0928 45.6934 64.0928 46.5971C64.0928 46.73 64.1193 46.8717 64.1636 47.0046C64.2168 47.1907 64.3763 47.2704 64.6244 47.2616C64.837 47.2616 64.9699 47.1641 65.0142 46.9692C65.0497 46.8097 65.0762 46.6414 65.0762 46.473C65.0762 44.7631 65.0762 43.062 65.0762 41.352C65.0762 41.1659 65.0497 40.9799 65.0231 40.7938C65.0054 40.652 64.9167 40.5457 64.775 40.528C64.6509 40.5103 64.5269 40.5103 64.4117 40.528C64.2788 40.5457 64.1902 40.6432 64.1636 40.7761C64.137 40.909 64.1104 41.0419 64.1104 41.1748C64.1104 42.0785 64.1104 42.9822 64.1104 43.8859H64.0928Z" fill="white"/>
<path d="M40.8964 44.3378C40.8964 44.3378 40.8787 44.3909 40.8787 44.3998C40.8787 45.2415 40.8875 46.0832 40.8964 46.9249C40.8964 47.0046 40.9141 47.0755 40.923 47.1552C40.9762 47.421 41.0913 47.5273 41.3571 47.5451C41.7027 47.5716 41.9242 47.421 41.9862 47.0755C42.0217 46.8628 42.0394 46.6502 42.0483 46.4376C42.0571 46.0123 42.0483 45.587 42.0483 45.1617C42.0483 45.1086 42.0483 45.0554 42.0483 44.9934H45.238L45.2557 45.0111C45.238 45.5693 45.2469 46.1275 45.2114 46.6856C45.1671 47.359 44.8215 47.8817 44.3608 48.3424C43.8823 48.8209 43.2976 49.0778 42.6419 49.193C41.6318 49.3613 40.6217 49.3348 39.6382 49.0335C38.8674 48.8032 38.2471 48.3779 37.8484 47.6514C37.6181 47.2261 37.5295 46.7565 37.5118 46.2869C37.4852 45.4187 37.4852 44.5504 37.4852 43.6733C37.4852 43.1239 37.4852 42.5746 37.5118 42.0253C37.5295 41.6178 37.6092 41.2191 37.7599 40.8381C38.0345 40.1381 38.5573 39.6863 39.2395 39.4028C39.9926 39.0838 40.7901 39.0041 41.5964 39.0395C42.1369 39.0661 42.6685 39.1458 43.1824 39.3319C43.5634 39.4737 43.9178 39.6774 44.2279 39.9344C44.7418 40.3596 45.0076 40.9267 45.1316 41.5735C45.2202 42.0342 45.2557 42.4949 45.2557 42.9556C45.2557 43.372 45.2557 43.7884 45.2557 44.2049C45.2557 44.2403 45.2557 44.2757 45.2557 44.3289H40.8876L40.8964 44.3378ZM41.8622 42.7252C41.8622 42.3443 41.8622 41.9722 41.8622 41.6C41.8622 41.4317 41.8356 41.2545 41.8002 41.0862C41.7559 40.8647 41.6052 40.7761 41.3571 40.7938C41.0736 40.8115 40.9496 40.8912 40.9319 41.1393C40.9053 41.6266 40.8964 42.1228 40.8787 42.6101C40.8787 42.6455 40.8787 42.6809 40.8787 42.7252H41.8533H41.8622Z" fill="white"/>
<path d="M55.4627 37.6308H58.998V38.8092H59.9372V40.3685H59.0069C59.0069 40.4217 58.998 40.4571 58.998 40.4926C58.998 42.4506 58.998 44.4175 58.998 46.3756C58.998 46.5793 59.0246 46.7743 59.0512 46.978C59.0778 47.1464 59.1221 47.1907 59.2904 47.2084C59.4144 47.2261 59.5473 47.235 59.6714 47.2438C59.7423 47.2438 59.8132 47.2438 59.8929 47.2438V48.8298C59.8929 48.8298 59.8132 48.8386 59.7689 48.8386C59.0246 48.8386 58.2803 48.8386 57.5361 48.812C57.2437 48.812 56.9601 48.7589 56.6766 48.6969C56.3931 48.6348 56.1539 48.4754 55.9324 48.2804C55.6311 48.0147 55.5159 47.6691 55.4982 47.2793C55.4805 46.7211 55.4627 46.1718 55.4627 45.6136C55.4627 43.9302 55.4627 42.2468 55.4627 40.5634V40.3685H54.7362V38.8092H55.4539V37.6219L55.4627 37.6308Z" fill="white"/>
<path d="M79.3591 38.4813L79.6249 38.8623L79.5983 38.8978C79.554 38.8712 79.5008 38.8535 79.4654 38.818C79.4211 38.7649 79.3768 38.7028 79.3413 38.6408C79.2616 38.4991 79.1376 38.4636 78.987 38.4991C78.9692 38.6231 78.9603 38.7471 78.9426 38.8712C78.9426 38.8712 78.8983 38.8712 78.8718 38.8712V37.994C79.0401 37.994 79.1996 37.994 79.3591 37.994C79.4831 38.0029 79.554 38.0738 79.5717 38.189C79.5894 38.3041 79.5451 38.375 79.4211 38.437C79.4034 38.4459 79.3768 38.4548 79.3591 38.4636V38.4813ZM78.9781 38.3927C79.1021 38.3927 79.2085 38.3927 79.3148 38.3927C79.3945 38.3927 79.4565 38.3307 79.4477 38.2333C79.4477 38.1447 79.3857 38.1004 79.3059 38.1004C79.1996 38.1004 79.0933 38.1004 78.9781 38.1004V38.3927Z" fill="white"/>
</svg>
