<?xml version="1.0" encoding="utf-8"?>
<!-- Generator: Adobe Illustrator 26.3.1, SVG Export Plug-In . SVG Version: 6.00 Build 0)  -->
<svg version="1.1" id="katman_1" xmlns="http://www.w3.org/2000/svg" xmlns:xlink="http://www.w3.org/1999/xlink" x="0px" y="0px"
	 viewBox="0 0 256 256" style="enable-background:new 0 0 256 256;" xml:space="preserve">
<style type="text/css">
	.st0{display:none;fill:#FEFEFE;}
	.st1{fill:#986DFE;}
	.st2{fill:#8F6DFE;}
	.st3{fill:#946DFD;}
	.st4{fill:#896EFE;}
	.st5{fill:#8E6EFE;}
	.st6{fill:#7A63FE;}
	.st7{fill:#7E68FE;}
	.st8{fill:#8A6DFE;}
	.st9{fill:#876DFE;}
	.st10{fill:#7860FE;}
	.st11{fill:#866DFE;}
	.st12{fill:#7B64FE;}
	.st13{fill:#856DFE;}
	.st14{fill:#7860FD;}
	.st15{fill:#765EFE;}
	.st16{fill:#836BFE;}
	.st17{fill:#9C6DFD;}
	.st18{fill:#926DFE;}
	.st19{fill:#816BFE;}
	.st20{fill:#936DFE;}
	.st21{fill:#836CFE;}
	.st22{fill:#9E70FC;}
	.st23{fill:#8169FC;}
	.st24{fill:#8D6FFC;}
	.st25{fill:#7860FC;}
	.st26{fill:#765DFA;}
	.st27{fill:#966FFD;}
	.st28{fill:#9F7AEC;}
	.st29{fill:#FEFEFE;}
	.st30{fill:#8A6FFD;}
	.st31{fill:#715BFD;}
	.st32{fill:#694FFD;}
	.st33{fill:#8972EB;}
	.st34{fill:#A071FC;}
	.st35{fill:#AA90E6;}
	.st36{fill:#8173D8;}
	.st37{fill:#1F1F1F;}
	.st38{fill:#A46DFE;}
	.st39{fill:#966EFC;}
	.st40{fill:#8A71FC;}
	.st41{fill:#7963FD;}
	.st42{fill:#816AFD;}
	.st43{fill:#A379FB;}
</style>
<g>
	<path class="st0" d="M91.9,212.6c0-52.4,0-104.8,0-157.3c0-1.1,0.3-1.4,1.4-1.4c284.8,0,569.6,0,854.4,0c1.1,0,1.4,0.2,1.4,1.4
		c0,52,0,104,0,155.9c0,1.1-0.3,1.4-1.4,1.4C662.4,212.6,377.2,212.6,91.9,212.6z"/>
	<path class="st1" d="M83.2,172.9c-0.2-0.2-0.4-0.4-0.7-0.7c-0.2-0.5-0.1-1,0-1.5c0.5-1.8,0.3-2.7-1.3-3.5c-1.2-0.6-1.6-1.3-1.6-2.5
		c0-1.3-0.5-1.9-1.9-1.8c-1.8,0.1-3.4-1.4-3.6-3.3c-0.3-2.6-2.1-4.2-3.8-5.8c-0.7-0.7-2.1,0.2-2.9,1.6c-0.2,0.4-0.1,1.1-0.9,1
		c-0.2-0.2-0.4-0.4-0.7-0.7c-0.1-0.3-0.2-0.7-0.1-1c1.2-2.3-0.5-3.6-1.7-4.9c-0.4-0.5-1-0.8-1-1.5c0-1.6-1.1-2.3-2.2-3
		c-1.2-0.8-2.4-1.7-3.7-2.4c-0.5,0.6,0.4,1.9-0.9,2.2c-1.7-2.5-2.9-5.3-3.5-8.2c0.4-0.6,0.4-1.1,0-1.8c-1.2-1.9-0.1-6.7,1.6-8.1
		c0.9-0.7,4.6-0.8,5.5-0.1c0.7,0.6,0.7,1.4,0.7,2.2c0.1,2.7,0.1,2.7,2.8,2.8c2.2,0.1,2.7,0.5,2.7,2.8c0.1,2.6,0.1,2.6,2.7,2.7
		c2.3,0.1,2.7,0.5,2.8,2.9c0.1,2.4,0.3,2.5,2.6,2.6c2.5,0.1,2.8,0.4,2.9,3c0.1,2.2,0.3,2.4,2.5,2.5c2.6,0.1,3,0.5,3,3
		c0.1,2.4,0.1,2.4,2.6,2.5c2.5,0.1,2.8,0.4,2.9,2.9c0.1,2.3,0.3,2.5,2.7,2.6c2.4,0.1,2.8,0.5,2.9,2.9c0.1,2.6,0.1,2.6,2.7,2.6
		c2.3,0.1,2.7,0.5,2.8,2.8c0.1,2.5,0.2,2.6,2.6,2.7c2.4,0.1,2.8,0.5,2.9,2.8c0.1,2.6,0.1,2.6,2.7,2.7c2.3,0.1,2.7,0.5,2.8,2.7
		c0.1,2.6,0.2,2.6,2.8,2.8c2.3,0.1,2.7,0.5,2.7,2.8c0.1,2.6,0.1,2.6,2.7,2.7c2.3,0.1,2.7,0.5,2.8,2.7c0.1,2.6,0.1,2.7,2.7,2.8
		c2.3,0.1,2.7,0.5,2.8,2.7c0.1,2.6,0.1,2.7,2.8,2.8c2.3,0.1,2.7,0.5,2.7,2.8c0,1.4,0,2.5,1.8,3.1c1.1,0.3,2.3,1.5,2.8,2.9
		c-6.8,1.5-13.3,0.9-19.6-2.1c0.4-1.3,1.5-0.5,2.4-0.8c-0.8-0.2-1.3-0.7-1.7-1.3c-0.4-0.7-1-1.2-1.8-1.5c-0.6-0.2-1.1-0.5-1.3-1.2
		c-0.1-0.5-0.4-0.8-0.9-0.9c-0.8-0.2-1.1-0.8-1.2-1.5c-0.1-1.1-0.8-1.5-1.8-1.3c-1.1,0.2-1.9-0.2-2.7-1.1c-1-1.3-2-2.5-3.4-3.3
		c-1-0.5-1.1-1.6-1-2.6c0.1-1.3-0.3-2.2-1.6-2.7c-0.7-0.3-1.4-0.9-1.6-1.7c-0.5-1.8-1.9-2.7-3.3-3.5c-1.2-0.7-2.1-1.5-2.5-2.9
		c-0.4-1.3-1.7-1.9-2.7-2.5c-1.3-0.9-2.3-1.8-2.9-3.2c-0.5-1.1-1.5-2-2.8-2c-1.2,0-2.1,0.8-2.5,2C83.8,172.7,83.7,173,83.2,172.9z"
		/>
	<path class="st2" d="M53.9,118.2c1.5-4.5,4.1-8.2,7.6-11.4c1.5,0.4,2.4,1.5,3.4,2.6c1.3,1.4,3,2.6,3.9,4.4c0.6,1.9,1.2,3.8,3.3,4.7
		c1.2,0.5,1.6,1.7,2,2.9c0.5,1.4,1.4,2.3,2.8,2.7c2.1,0.7,3.4,2.2,4.4,4.2c0.7,1.4,2.2,1.1,3.4,1.6c0.9,0.2,1.4,0.9,2,1.5
		c2,1.9,3.9,4,6,5.9c0.1,0.1,0.2,0.3,0.3,0.4c0.9,1.4,1.9,2.7,3.6,3.2c0.7,1.4,1.9,2.4,3,3.4c2,1.9,3.7,4,5.8,5.7
		c6.2,6.2,12.2,12.4,18.5,18.5c1.3,1.3,2.4,2.7,3.9,3.8c1,1.7,2.5,1.9,4.3,1.5c0.7,0,1.4-0.1,1.5,0.8c0.2,0.9,0.9,1.2,1.7,1.1
		c2.3-0.2,2.7,1.3,2.7,3c0,2.1,0,2.1,2.1,2.2c2.7,0.2,3.1,0.6,3.1,3.3c0,2.3,0.2,2.4,2.5,2.5c0.3,0,0.7,0,1,0c1.3,0,2.1,0.6,2,1.9
		c-0.3,4.2,1.1,3.5,3.9,3.6c0.7,0,1.5,0,2.2,0c0.9,0.1,1.5,0.5,1.6,1.4c-3.9,4.4-8.1,8.5-13.7,10.8c-0.4-0.4-0.4-0.9-0.4-1.4
		c0.6-1.4,2-1.9,3.1-2.9c0.3-0.3,0.8-0.5,0.6-1.1c-0.2-0.4-0.7-0.4-1.1-0.4c-3-0.3-5-2-6.2-4.6c-0.1-0.3-0.2-0.6-0.4-0.7
		c-1.9-0.6-1.6-2.1-1.6-3.5c0-2.1-0.1-2.3-2.1-2.1c-2.9,0.2-4.6-1.6-6.4-3.4c-0.6-0.6-0.4-1.4-0.5-2.1c-0.1-1.3-0.5-2.5-2-2.8
		c-0.7-0.2-1-0.6-1.3-1.2c-0.6-1.5-1.8-1.9-3.2-1c-0.7,0.4-1.3,1.1-2.2,0.6c-1.1-0.7-2.1-1.6-2.6-2.9c-0.2-0.5,0.1-0.8,0.4-1.2
		c0.9-1,0.7-2.1-0.7-2.2c-2.9-0.2-3.1-2-2.9-4.1c0.1-1.2-0.6-1.6-1.7-1.6c-1.5,0-3,0-4.5,0c-0.9,0-1.7-0.3-2-1.3
		c-0.4-1,0.1-1.5,0.9-1.9c0.8-0.4,0.7-0.9,0.1-1.5c-0.4-0.4-0.9-0.7-1.5-0.7c-1.7,0-2.4-0.9-2.3-2.5c0-0.9-0.2-1.6-1.2-1.7
		c-0.7-0.1-1.4-0.5-1.2-1.4c0.1-0.8,0.9-0.8,1.5-0.9c0.5-0.1,1,0.1,1.5-0.2c0-0.1,0-0.1-0.1-0.1c-2.7-0.5-2.7-0.5-3.2-3.3
		c-0.1-0.6-0.4-0.9-0.8-1.3c-0.5-0.4-0.8-1-1.2-1.4c-0.4-0.4-0.6-1-0.9-1.8c-0.3,1.1-0.5,2.1-1.6,2.1c-0.9,0-1.7,0.1-2.6,0
		c-1.4-0.2-3.1-1.8-3.1-3.2c0-1.8-0.7-2.2-2.3-2.3c-1.6-0.1-2.6-1.3-3.2-2.8c-0.2-0.4-0.1-1-0.6-1.1c-1.5-0.5-1.5-1.7-1.5-2.9
		c0-0.9,0.5-2.1-0.6-2.5c-1.2-0.5-2.6-0.5-3.8,0.1c-2,1-2.2,1.2-3.5-0.5c-1.2-1.4-2.8-1.1-4.2-1.5c-0.5-0.3-0.8-0.8-1.2-1.2
		c-1.2-1.3-1.3-1.9-0.2-3.4c0.5-0.7,0.7-1.3,0.2-2c-0.3-0.4-0.7-0.9-1.3-0.5c-0.6,0.4-1.3,0.4-1.9,0.7c-1.8,0.9-2.2,0.7-2.2-1.3
		c0-0.6,0-1.3,0.1-1.9c0.3-2.2,0.1-2.8-1.9-3.9c-0.7-0.4-1.2-0.8-1.3-1.6c-0.1-0.9-0.7-1.1-1.5-1.1c-0.9,0-1.1,0.6-1.2,1.4
		C56.9,118.2,55.9,118.7,53.9,118.2z"/>
	<path class="st3" d="M142.9,203.1c0,0.5,0,1,0,1.5c-1.9,0.9-3.8,1.7-5.9,1.9c-0.8-0.9-2.6-0.8-2.6-2.5c0-0.1-0.5-0.2-0.8-0.2
		c-1.8,0.3-1.8-0.8-1.8-2.1c0-3.8,0.4-3.5-3.3-3.4c-1.5,0-2.3-0.5-2.2-2.1c0-0.3,0-0.7,0-1c0-2.4,0-2.4-2.4-2.4c-3.1,0-3.1,0-3.1-3
		c0-2.5,0-2.5-2.4-2.5c-0.1,0-0.2,0-0.3,0c-2.7,0-2.7,0-2.7-2.7c0-2.8,0-2.8-2.7-2.8c-2.7,0-2.8-0.1-2.8-2.8c0-2.7,0-2.7-2.7-2.7
		c-0.2,0-0.3,0-0.5,0c-2.3,0-2.3,0-2.3-2.2c0-0.2,0-0.3,0-0.5c0-2.8,0-2.8-2.8-2.8c-2.5,0-2.7-0.2-2.7-2.6c0-2.9,0-2.9-2.9-2.9
		c-0.5,0-0.9,0-1.4,0c-1,0.1-1.3-0.4-1.3-1.3c0.1-0.9,0-1.8,0-2.7c0-1-0.4-1.4-1.4-1.4c-3.8-0.2-3.8-0.2-4.1-4.1
		c-0.1-1.1-0.5-1.3-1.5-1.4c-1.3-0.1-2.9,0.6-3.8-0.4c-0.8-0.9-0.2-2.4-0.2-3.7c0-1-0.4-1.5-1.4-1.4c-0.1,0-0.2,0-0.3,0
		c-3.7,0.1-3.9,0.1-3.7-3.8c0-1.2-0.4-1.9-1.7-1.7c-0.3,0-0.7,0-1,0c-2.7,0-2.8-0.1-2.8-2.8c0-2.7,0-2.7-2.7-2.7
		c-2.8,0-2.8,0-2.8-2.7c0-2.8,0-2.8-2.8-2.8c-2.7,0-2.7,0-2.7-2.7c0-0.9,0.6-2.2-0.8-2.7c-1.4-0.5-3.9,0.4-4.9,0.9
		c-1.5,0.8-1.3,2-1.2,3.2c0.1,1-1.1,1.7-0.4,2.9c0.4,0.6,0.3,1.4,1.3,1.5c0.4,0,0.8,0.3,0.6,0.8c-0.2,0.5-0.5,0.4-0.9,0.1
		c-0.5-0.4-0.6,0.3-1,0.4c-1.7-5.9-1.5-11.8,0.6-17.6c0.9-0.3,1.5,0.1,2.1,0.7c1.4,1.3,2.8,1.4,4.2,0.2c1.1-0.9,2.1-0.6,2.8,0.6
		c0.5,1,0.4,2.1,0.4,3.2c0,1,0.1,1.9,1.1,2.5c0.1,0.1,0.3,0.2,0.4,0.4c1.8,2.2,3.8,4.1,6.4,5.4c0.9,0.5,2,1.2,2.8,2.1
		c0.7,0.8,1.4,1.6,2.5,2c0.7,0.2,0.9,0.8,0.6,1.5c-0.3,0.4-0.8,0.3-1.2,0.6c0.3,0.6,1.1,0.3,1.3,0.9c0.4,2.1,0.4,2.1,2.7,2.1
		c2.3,0,2,0.2,3.2,2.2c0.8,1.4,1.3,2.7,1.4,4.2c0,0.2,0.3,0.3,0.5,0.3c1.5,0,2.9,0,4.4,0.3c0.7,0.2,1,0.7,1.1,1.4c0.1,1.3,1,2,2,2.5
		c2,1.1,3.2,2.4,2.9,4.8c-0.1,0.7-0.5,1.7,0.7,2c0.7,0,1.4,0,2.1,0c1.8,0,3.4,0.2,3.6,2.5c0.1,0.4,0.5,0.9,0.9,1
		c1.7,0.8,2.3,2.4,3.2,3.8c0.5,0.7,0.5,1.5,0.5,2.3c0,1.1,0.6,1.6,1.6,1.5c0.6,0,1.1,0,1.7,0c1.5-0.1,2.7,0.3,3,2.1
		c0.2,1,1.1,1.6,1.9,2.1c1.1,0.6,2,1.4,2.6,2.4c0.9,1.4,1.8,2.6,3.3,3.4c1.1,0.6,0.9,1.2-0.4,2.2c0.4,0.5,1.2,0.7,1.3,1.5
		c0,1.4,1,1.6,2.1,1.5c0.6,0,1.3,0,1.9,0.1c0.6,0.1,1.3,0.3,1.3,0.9c0.1,1.5,1.5,2.3,1.7,3.7c0.1,0.8,0.9,0.8,1.5,0.8
		c1.5,0,2.3,0.5,2.7,2c0.2,1.1,1.2,1.9,1.5,3c0.1,0.5,0.9,0.5,1.4,0.5c1.4,0,2.1,0.5,2.6,1.9c0.4,1.3,1.2,2.7,2.9,3
		C141.8,201.6,142.4,202.3,142.9,203.1z"/>
	<path class="st4" d="M110.4,58c5.6-4.8,12-7.3,19.3-7.2c0.1,0.4-0.2,0.6-0.5,0.8c-1.8,0.8-2.7,2.3-3.4,4c-0.4,1,0,1.3,0.8,1.3
		c1,0.1,2.1,0,3.1,0.1c1.8,0.1,2.2,0.5,2.6,2.3c0.1,0.4,0.1,0.8,0.3,1.1c0.9,1.2,1.1,2.5,1,3.9c-0.1,1.1,0.4,1.5,1.5,1.6
		c2.2,0.1,2.1,0.2,2.7,2.4c0.3,1.2,1.1,2.3,2.1,2.9c0.9,0.5,1.5,1,1.9,2c0.7,1.6,2.4,1.9,3.6,0.7c1.3-1.2,3.8-1.3,5.2-0.3
		c0.4,0.3,0.9,0.7,0.7,1.3c-0.2,0.8-0.9,0.8-1.5,0.8c-1.3-0.1-2.7,0.1-4,0.1c-0.5,0-1,0.1-1.4,0.4c-0.2,0.1-0.4,0.1-0.7,0.1
		c-0.8-0.1-1.5,0.1-2.2,0.5c-4.2,1-8.3,2-12.2,3.9c-1.3,0.7-2.6,1.3-3.9,2.1c-0.5,0.3-1,0.8-1.7,0.5c-0.5-0.7-0.8-1.4-1.9-1.6
		c-1.1-0.2-1.6-1.1-1.6-2.1c0-1.6-1-2.6-1.6-3.9c-0.3-0.7-1.2-0.6-1.8-0.9c-1.7-0.7-2-1.5-1.3-3.2c0.4-1,0.4-1.1,0.2-2.6
		c-0.3-0.1-0.2,0.2-0.3,0.3c-0.4,2.8-2.3,3.9-4.9,2.9c-1.1-0.4-1.5-1.2-1.5-2.3c0-2.6-0.1-5.1,0-7.7c0-0.5,0-1,0.4-1.3
		C110.8,60,110.6,59,110.4,58z"/>
	<path class="st5" d="M149.8,75.2c0.5-0.1,1.4,0.2,1.5-0.5c0.1-0.6-0.6-1-1.3-1.2c-0.7-0.2-1.5-0.3-2.2-0.4
		c-0.6-0.1-1.2-0.1-1.5,0.7c-0.4,1.1-1.6,1.5-2.6,1.2c-0.9-0.3-2.2-0.5-2.2-2c0-0.8-0.5-1.5-1.5-1.4c-0.2,0-0.6-0.1-0.6-0.2
		c-0.1-1.4-2.2-1.9-1.9-3.6c0.2-1.3-0.2-1.9-1.7-1.8c-2.7,0.1-2.5,0.4-2.5-2.5c0-1.2,0-2.3-1.1-3.1c-0.5-0.4-0.4-1-0.3-1.4
		c0.2-1.4-0.7-1.8-1.8-1.9c-1.2-0.1-2.4,0-3.6,0c-0.5,0-1.3,0.2-1.4-0.6c-0.1-0.5-0.2-1.1,0.4-1.6c0.6-0.5,1-1.1,0.7-1.9
		c-0.1-0.3,0-0.6,0.3-0.7c1.4-0.2,2-1.7,3.4-1.8c8.8-0.4,16.1,2.9,22.3,8.8c2.8,2.7,5.5,5.5,8.3,8.3c0.6,0.6,1.2,1,2.1,0.9
		c0.1,0.4-0.1,0.6-0.3,0.8c-0.1,0-0.3,0.1-0.4,0c-0.6-0.1-1.2-0.1-1.7,0.3c-3.2,0.9-5.9,2.4-7.8,5.2c-0.6,0.8-1.4,1.2-2.4,0.6
		C149.7,75.5,149.6,75.4,149.8,75.2z"/>
	<path class="st6" d="M69,99.2c2.8-2.8,5.5-5.5,8.3-8.3c1.2-0.5,2.5-0.5,3.7-0.4c0.8,0,1.5,0.4,1.7,1.2c0.4,1.3,1.3,1.5,2.5,1.5
		c2.7,0,2.9,0.2,3,2.9c0,2.5,0,2.5,2.5,2.5c2.8,0,3,0.2,3,3c0,2.4,0,2.4,2.5,2.5c2.7,0,2.9,0.3,3,3c0.1,2.4,0.4,4.8-0.7,7.1
		c-0.1,0.3-0.1,0.7-0.4,0.9c-2.5,2.6-4.9,5.4-7.7,7.6c-0.8,0-1.2,0.4-1.2,1.2c-0.4,0.6-0.7,1.5-1.7,1c-0.2-0.4-0.4-0.8-0.1-1.1
		c1.3-1.9,0.4-4,0.5-6c0.1-1.1-0.6-1.5-1.6-1.5c-0.7,0-1.5,0-2.2,0c-1.9-0.1-2.2-0.3-2.3-2.2c0-0.7,0-1.5,0-2.2
		c0-1.4-0.7-2.3-2.1-2.4c-1.3-0.1-1.9-0.7-2.1-2c-0.2-1.9-1.5-3-3.3-3.5c-1.1-0.3-1.5-0.7-0.3-1.4c0.3-0.2,0.8-0.4,0.6-0.9
		c-0.1-0.5-0.6-0.7-1-0.8c-0.5-0.1-1-0.1-1.5,0C70.6,101.1,69.6,100.5,69,99.2z"/>
	<path class="st7" d="M98.1,114.8c-0.3-1,0.5-1.7,0.7-2.6c0.4-2.2-0.2-4.3,0-6.4c0.1-0.8-0.4-0.9-1.1-1c-1.4-0.1-3.2,0.6-4.1-0.3
		c-0.9-0.9-0.2-2.6-0.3-4c0-0.9-0.4-1.2-1.2-1.2c-1,0-2.1,0-3.1,0c-0.9,0-1.3-0.3-1.2-1.2c0-0.1,0-0.2,0-0.3
		c-0.1-1.2,0.5-2.8-0.3-3.6c-0.8-0.8-2.3-0.2-3.5-0.3c-0.8,0-1.3-0.2-1.4-1.1c-0.1-1.4-0.9-1.8-2.2-1.7c-1,0.1-2,0.3-3.1,0
		c4.9-4.9,9.9-9.9,14.8-14.8c1.2,0.2,0.6,1,0.4,1.5c-0.4,0.7-1,1.2-1.5,2.2c1.4-0.5,2.1,0.3,2.4,1.3c0.5,1.4,1.8,1.3,2.9,1.4
		c2.3,0.3,2.3,0.3,2.7,2.6c0.2,1.3,0.7,2.3,1.5,3.4c1.1,1.4,1.9,3.1,3.5,4.1c0.3,0.2,0.5,0.7,0.5,1.1c0,1.8,1.3,3.2,1.3,4.9
		c0,0.8,0.6,1.2,1.2,1.5c1.1,0.7,1.1,1.5,0.6,2.6c-0.7,1.4-2,2.7-2,4.5c-0.1,0.7-0.5,1.1-0.9,1.6c-1.7,1.7-3.4,3.5-5.2,5.2
		C99.1,114.4,98.8,115,98.1,114.8z"/>
	<path class="st8" d="M208.6,132.3c-0.4,4.9-2,9.4-4.8,13.4c-0.9-1.8-2.4-2.1-4.3-2c-1.7,0.1-1.9-0.3-2-2c0-0.2,0,0.1,0-0.2
		c-0.1-3.3-0.1-3.4-3.5-3.6c-1.4-0.1-2-0.7-2.1-2.1c-0.1-2.2-1.2-3.3-3.4-3.4c-1.5-0.1-2.1-0.7-2-2.1c0.2-3.3-1.9-5.1-4.5-6.3
		c-0.8-0.4-1.7-0.7-2.3-1.5c-0.5-0.6-1.1-0.7-1.8-0.8c-1.8-0.2-2.4-0.8-2.4-2.7c-0.1-1,0-2.1,0-3.1c0-1.3-0.5-2.2-1.8-2.6
		c-1.5-0.4-2.2-1.2-1.9-2.7c0.2-1-0.4-1.2-1.1-1.3c-0.6-0.7,0.2-0.9,0.6-1.1c2.6-0.8,4.9-2.1,7.6-2.8c0.8,0,1.7,0.4,2.1-0.7
		c0.4-0.5,0.8-0.8,1.5-0.6c1.1,1.3,0,2.4-0.7,3.1c-1.5,1.4-1.1,2.6-0.4,4.1c0.8,1.9,1.8,3.4,4.3,3.2c0.9-0.1,1.3,0.6,1.5,1.4
		c0.4,1.7,1.2,2.7,3,3.3c1.5,0.6,3.1,1.7,3.2,4c0,2.1,1.9,3.2,4.2,2.8c2.1-0.3,2.9,0.3,3.2,2.3c0,0.3,0,0.6,0.1,0.9
		c0.2,2.2,0.3,2,2.4,2.6C204.9,132.6,206.7,132.1,208.6,132.3z"/>
	<path class="st9" d="M170.4,109.2c0.6-0.1,1.1-0.2,1.7-0.3c0.3,0.1,0.3,0.5,0.2,0.7c-0.6,2-0.1,3.2,2.2,3.6c1.1,0.2,1.5,1,1.5,2.2
		c-0.1,1.3,0,2.5,0,3.8c-0.1,1.4,0.5,2.2,2,2.1c1.1-0.1,2,0.1,2.5,1.3c0.4,1,1.7,0.7,2.5,1.3c2.3,1.5,4.5,3.1,4,6.3
		c-0.2,1.3,0.2,1.8,1.7,1.8c2.5-0.1,3.9,1.3,3.8,3.8c0,1.4,0.4,1.9,1.7,1.7c0.2,0,0.3,0,0.5,0c3.1,0.1,3.3,0.3,3.3,3.3
		c0,2.8-0.3,2.6,2.6,2.5c1.9-0.1,3.1,0.4,3.2,2.4c-1.3,2.2-2.9,4.1-4.8,5.8c-3.1-3-6.2-6.1-9.2-9.3c-2-2.2-4.3-4.1-6.3-6.3
		c-2.2-2.4-4.5-4.7-6.9-6.9c-0.3-0.2-0.5-0.4-0.8-0.6c-3.8-3.9-7.7-7.7-11.5-11.5c-0.4-0.4-0.9-0.9-1.1-1.5
		c-0.1-0.8,0.3-1.4,0.9-1.9c1.4-1.2,2.4-2.6,3.8-3.8C168.7,109.2,169.4,108.7,170.4,109.2z"/>
	<path class="st8" d="M156.5,193.8c-0.6-0.8-1.3-1.1-2.3-1c-1.4,0.1-2.8,0-4.1,0c-1.1,0-1.6-0.6-1.7-1.7c-0.1-1.2,0.6-2.9-0.4-3.6
		c-0.8-0.6-2.3-0.2-3.5-0.2c-1,0-1.5-0.5-1.6-1.4c0-0.5,0-0.9,0-1.4c0-2.7-0.8-3.5-3.5-3c-1.5,0.2-2.1,0-1.7-1.6c0.1-0.5,0-1,0-1.5
		c0-1.4-0.5-2.2-2.2-2.1c-1.3,0.1-2.1-0.1-2.3-1.9c-0.1-1.2-0.7,0.6-1.3,0.2c0.1-0.2,0.1-0.5,0.2-0.8c-0.1-0.8,0.6-1.2,1-1.7
		c1.3-1.4,2.7-2.7,4-4.1c0.5-0.5,0.9-1,1.7-0.6c0.8,0.6,1.6,1.4,2.7,0.5c0.6-0.4,1.2,0,1.6,0.5c1,1.3,2.3,2.1,4,2
		c1,0,1.4,0.6,1.5,1.5c0,0.6,0.1,1.1,0,1.7c-0.1,1.3,0.1,2.3,1.7,2.4c0.1,0,0.2,0.1,0.3,0.1c1.6,1.9,3.7,2.5,6.1,2.7
		c1.7,0.2,2.6,2.3,2.7,3.8c0.2,2.3,0.6,4.2,2.4,5.7C160.4,190.3,158.5,192.1,156.5,193.8z"/>
	<path class="st10" d="M69,99.2c1.3,1.3,2.7,1.3,4.4,0.9c0.8-0.2,1.8,0.5,2,1.5c0.2,1-0.7,0.9-1.3,1.1c-0.2,0.1-0.4,0.2-0.6,0.4
		c2.9,0.4,4.4,1.8,4.6,4.6c0.1,0.8,0.4,1,1.2,1.1c2.4,0.2,3,0.8,3,3.2c0,3.7,0,3.7,3.7,3.7c2.3,0,2.5,0.2,2.5,2.4
		c0,1.1-0.1,2.2,0.2,3.2c0.2,0.7-0.1,1.5-0.6,2c-0.5,0.5-0.4,1-0.3,1.6c0.2,0.8-0.5,1.2-0.9,1.7c-0.9,0.8-1.6,1.7-2.1,2.9
		c-0.7,0.4-1.1-0.2-1.4-0.6c-4.6-4.8-9.3-9.3-14-14c-0.4-0.4-0.5-0.9-0.9-1.3c-1.9-2-3.6-4.1-5.8-5.7c-0.4-0.3-0.8-0.8-1.2-1.2
		C63.9,104.2,66.4,101.7,69,99.2z"/>
	<path class="st11" d="M162,188.3c-2-0.9-2.9-2.3-2.7-4.6c0.2-3.1-1.8-4.9-4.8-4.6c-1.8,0.2-2.2-1.3-3.3-2c-0.4-0.3-0.6-0.9-1.2-0.8
		c-1.6,0.2-1.8-0.6-1.7-1.9c0.1-0.5-0.1-0.9,0-1.4c0.3-1.8-0.4-2.5-2.2-2.3c-1.6,0.2-2.4-1.1-3.2-2.1c-0.4-0.5-0.7-0.8-1.2-0.4
		c-1.3,0.9-2.1,0.7-3-0.8c0,0,0-0.1,0-0.2c0.1,0,0.1-0.1,0.2-0.1c0.4-0.2,0.3-0.7,0.5-1c2.4-2.8,5.2-5.2,7.7-7.9
		c0.2-0.2,0.4-0.4,0.8-0.2c0.7,0.3,1.2,0.7,1.5,1.5c0.5,1.3,1.3,2.5,2.9,2.9c0.7,0.1,1.3,0.6,1.6,1.2c0.4,0.7,0.9,1.2,1.7,1.4
		c0.1,0,0.3,0.1,0.3,0.2c0.8,2,2.9,2.7,4,4.3c0.3,0.4,0.6,0.6,1,0.9c1.5,1.2,2.4,3.1,4.3,4.1c0.4,0.2,0.3,1.1,0.8,1.5
		c1.3,0.9,2.8,0.4,4.2,0.7c0.2,0,0.3,0.1,0.4,0.2c0.2,1.1-0.7,2.1-0.1,3.2C167.7,183,165,185.7,162,188.3z"/>
	<path class="st7" d="M181.4,169.1c-1.4,1.6-2.9,3.1-4.5,4.5c-0.4,0.3-0.7,0.6-1,0.9c-0.2,0.1-0.3,0.3-0.5,0.4
		c-1.4,0.2-2.1-0.4-2.3-1.9c-0.3-1.8-0.4-1.9-2.2-1.5c-1.3,0.4-2.3,0.2-3.1-1c-0.7-0.9-1.5-1.8-2.5-2.5c-0.4-1.5-1.1-2.5-2.8-3.1
		c-1.3-0.4-2.4-1.8-2.9-3.2c-0.4-1.1-1.1-1.7-2.1-2.2c-3.2-1.6-5.6-5.8-2.1-9.2c0.8-0.8,2.2-1.3,2.3-2.7c0.8-1.9,2.5-3,4-4.3
		c0.3-0.3,0.7-0.4,1,0.2c-0.1,1.2-0.1,2.3,1.2,3.1c1,0.6,0.8,1.6-0.2,2.4c-0.5,0.4-1.2,0.6-0.9,1.4c0.3,0.7,0.9,0.5,1.5,0.6
		c0.1,0,0.2,0,0.3,0c3.2,0.1,3.4,0.2,3.5,3.4c0,1.9,0.2,2,2.1,2.1c0.4,0,0.8,0,1.2,0c1.7,0.1,2.1,0.6,2.2,2.2
		c0.2,3.1,0.2,3.1,3.2,3.3c1.7,0.1,2.2,0.6,2.3,2.3c0,0.6,0,1.1,0,1.7C179.2,168.4,179.3,168.5,181.4,169.1z"/>
	<path class="st2" d="M208.6,132.3c-1.8,0.6-3.6,1.2-5.5,0.1c-0.1-0.1-0.3-0.1-0.5-0.1c-2.3-0.1-2.5-0.3-2.6-2.7
		c0-0.7,0.1-1.4-0.3-2c-0.5-0.8-0.7-1.6-2.1-1c-2.2,1-5.2-0.9-5.1-3.3c0.1-2.3-1.9-3.4-2.8-3.5c-2.5-0.4-2.8-2.1-3.3-3.9
		c-0.2-0.5-0.3-0.9-0.8-0.8c-2.8,0.5-4-1.2-4.9-3.4c-0.6-1.6-1.8-3.1,0.5-4.5c0.5-0.3,1.8-1.5,0.8-2.7c0.5-1.3,1.7-1.4,2.8-1.8
		c1.9,0.1,2.5,0.6,2.6,2.4c0,1.1,0.5,1.8,1.5,1.9c1.4,0.2,2,1.1,2.7,2.2c0.9,1.5,1.5,3.5,3.9,3.6c0.6,0,1.1,0.5,1.2,1.1
		c0.3,1.3,1.5,2,1.9,3.2c0.2,0.7,1,0.8,1.7,1c0.6,0.1,1.3,0.2,1.5,0.7c0.5,1.5,1.7,2,3.1,2.5c0.9,0.3,1.6,0.8,2.4,0
		c0.2-0.2,0.4,0.1,0.5,0.3C208.9,125.1,209,128.7,208.6,132.3z"/>
	<path class="st12" d="M181.4,169.1c-1.8,0.7-2.7,0.1-2.7-1.8c0-0.1,0-0.1,0-0.2c-0.1-1.4,0.6-3.1-0.3-4.2c-0.9-1.1-2.6-0.4-3.9-0.4
		c-1,0-1.2-0.5-1.2-1.4c-0.1-4-0.2-4-4.2-4.1c-1.1,0-1.3-0.5-1.3-1.4c-0.1-3.9-0.1-3.9-4.1-4.1c-0.7,0-1.4,0.1-1.4-1
		c0-0.8-0.3-1.8,1.1-1.8c0.5,0,0.8-0.3,0.9-0.9c0.1-0.5-0.1-1-0.6-1.1c-2-0.4-1.8-1.6-1.1-3c0.1-0.1,0-0.3,0-0.5
		c0.4-1.6,2.5-3.6,3.9-3.7c-0.3,1.4,0.2,2.1,1.7,1.9c1.2-0.2,2,0.5,2.7,1.4c1.1,1.3,2.3,2.6,3.9,3.5c1.2,0.7,1.7,2.2,2.3,3.5
		c0.5,1,0.9,1.8,2.1,1.9c0.4,0,0.9,0.1,1.1,0.5c1,1.8,2.6,3,4.1,4c1.6,1.1,2.4,3,4.4,3.5c0.4,0.1,0.7,0.5,0.9,1
		c-2.3,2.6-4.7,4.9-7.3,7.2C182,168.3,181.7,168.7,181.4,169.1L181.4,169.1z"/>
	<path class="st13" d="M110.4,58c1,1,1.4,2-0.1,2.8c-0.5,0.3-0.5,0.7-0.5,1.1c0,2.6,0,5.2,0,7.9c0,1.9,1.3,2,2.8,2
		c1.5,0,2.6-0.2,2.8-2c0.1-0.7-0.6-2.1,0.7-2c1.1,0.1,0.5,1.4,0.6,2.2c0.1,0.5,0.1,1.1-0.1,1.5c-0.4,0.6-1.2,1-0.7,1.9
		c0.4,0.7,1.3,1.1,2,1.1c1.1,0,1.3,0.6,1.8,1.5c0.7,1.4,1.3,2.7,1.3,4.2c0,0.7,0.7,1.3,1.3,1.1c1.7-0.3,1.5,0.8,1.7,1.8
		c-2.1,2.6-4.7,4.6-7.1,6.9c-0.2,0.2-0.5,0.1-0.8-0.1c-1.2-1.2-1.3-2.7-1.2-4.3c0-2-0.3-2.3-2.3-2.3c-3-0.1-3.1-0.2-3.2-3.3
		c-0.1-1.9-0.3-2.2-2.2-2.2c-0.3,0-0.7,0-1,0c-1.7-0.1-2.3-0.5-2.2-2.2c0.1-3.7-0.7-3.1-3.6-3.5c-0.6-0.1-1.5,0.2-1.8-0.6
		c-0.3-0.8,0.5-1.2,0.9-1.7c1.1-1.4,2.9-2.3,3.8-3.9c0.2-0.3,0.4-0.5,0.4-0.9C105.7,62.5,107.9,60.1,110.4,58z"/>
	<path class="st14" d="M189.6,160.8c-1.5-0.7-2.7-1.7-3.9-2.8c-1.4-1.3-3-2.7-4.6-3.9c-1-0.8-1.5-2.2-3.2-2.1c-0.5,0-1-0.4-1-1
		c0-1.5-1.7-2.3-1.8-3.8c0-0.1-0.2-0.3-0.3-0.4c-2.2-0.6-3.4-2.4-4.6-4.1c-0.6-0.8-1.4-0.9-2.3-0.9c-2.7,0-2.7,0-1.7-2.4
		c-0.2-0.7,0.3-1.1,0.7-1.4c1.6-1.7,3.3-3.3,5-4.9c0.4-0.4,0.8-0.9,1.5-0.4c0.3,0.3,0.3,0.7,0.3,1.1c-0.1,1.8,0.8,3,2.6,3.5
		c0.8,0.2,1.4,0.6,1.4,1.5c0.1,1.1,0.8,1.3,1.7,1.3c0.5,0,0.9,0,1.4,0c1.4,0,2.2,0.7,2.3,2c0.2,1.6,0.5,3.2-0.7,4.6
		c-0.7,0.8-0.3,1.4,0.7,1.6c0.9,0.1,1.7,0,2.6,0.1c0.9,0,1.5,0.4,1.7,1.4c0,0.2,0.1,0.3,0.1,0.5c0.3,1.4,2.6,0.4,2.7,2.2
		c0.1,1.9,1.7,1.3,2.8,1.3c1.1,0,2.1,0.2,2.2,1.5C193.4,157.3,191.6,159.1,189.6,160.8z"/>
	<path class="st15" d="M195.2,155.3c-0.9-1.5-2.3-1-3.6-1c-1.3,0.1-2.1-0.2-1.9-1.7c0.1-0.9-0.4-1.1-1.2-1c-1.1,0.1-1.8-0.2-1.6-1.5
		c0.1-1-0.4-1.3-1.3-1.3c-0.9,0.1-1.7,0-2.6,0c-0.7,0-1.3-0.1-1.5-0.8c-0.3-0.7,0-1.3,0.5-1.8c1-0.9,1.1-4.5,0.1-5.3
		c-0.8-0.6-1.9-0.3-2.8-0.3c-1.3,0.1-2.3-0.1-2-1.8c0.1-0.9-0.5-1-1.2-1c-0.7,0-1.1-0.3-1.6-0.7c-1.8-1.2-1.1-2.9-1.3-4.4
		c-0.2-0.5,0.1-0.9,0.5-1.2c1-0.9,1.8-2,2.3-3.3c1.8,1.5,3.6,3.1,5.3,4.8c2.5,2.7,5.2,5.3,7.8,7.9c3.3,3.4,6.7,6.7,9.9,10.2
		c0.1,0.1,0.1,0.3,0.1,0.5C197.8,152.9,196.6,154.2,195.2,155.3z"/>
	<path class="st16" d="M103.5,64.8c0.4,1.4-0.6,2.3-1.4,3c-1.1,0.9-2.1,1.8-3,2.9c-0.2,0.2-0.5,0.4-0.3,0.7c0.1,0.1,0.4,0.3,0.6,0.2
		c1.2-0.5,2.3,0.3,3.5,0.2c1-0.1,1.4,0.7,1.5,1.7c0.2,3.5,0.2,3.5,3.7,3.7c1.2,0.1,1.7,0.6,1.8,1.8c0.2,3.5,0.2,3.5,3.8,3.7
		c1,0.1,1.7,0.4,1.7,1.5c0,2-0.1,4.1,1.1,5.9c0,0.8-0.6,1.2-1,1.7c-0.9,0.1-0.8,0.9-1,1.5c-0.3,0.6-0.7,1-1.4,1.1
		c-0.5,0-0.9,0-1.4,0c-1.8-0.2-2.2-0.5-2.2-2.3c0-3.3,0.1-3.2-3.2-3.2c-1.9,0-2.3-0.4-2.4-2.3c0-0.2,0,0.1,0-0.2
		c-0.1-2.9-0.1-2.9-2.9-3c-2.2-0.1-2.5-0.4-2.6-2.7c0-0.5,0-0.9,0-1.4c0-1-0.5-1.5-1.5-1.5c-0.2,0-0.5,0-0.7,0
		c-2.6-0.1-3.1-0.8-2.2-3.4C97.1,71.2,100.3,68,103.5,64.8z"/>
	<path class="st17" d="M83.2,172.9c0.8-0.6,0.1-1.8,1.5-2.4c1.9-0.8,4.6-0.2,5,1.9c0.3,1.3,1.2,1.9,2,2.5c1.6,1.1,3.2,1.8,3.8,4
		c0.4,1.6,2.6,1.9,3.8,2.9c0.7,0.5,1.3,1,1.4,1.8c0.2,1.3,1.1,2.1,2.1,2.4c1.2,0.4,1.5,1.1,1.3,2.2c-0.2,1.7,0.3,3,2,3.6
		c1.3,0.5,1.8,1.9,2.6,2.8c0.7,0.7,1.2,1,2,0.8c1.5-0.4,2.3,0.2,2.4,1.7c0,0.2,0,0.5,0,0.5c1.3,0.5,1.8,1.9,2.8,2.5
		c0.7,0.5,1.5,0.9,2.1,1.5c0.6,0.6,0.8,1.6,2,1.4c0.4-0.1,0.6,0.3,0.4,0.7c-0.2,0.5-0.6,0.7-1.1,0.5c-0.8-0.5-1.5-0.3-2.2,0.1
		c-0.6-0.2-1.3-0.5-1.8-0.9c-0.3-0.5-0.6-1.1-1.4-0.8c-1.9-0.9-3.5-2.2-4.9-3.7c-8.6-8.5-17.1-17.1-25.7-25.6
		C83.5,173.3,83.4,173.1,83.2,172.9z"/>
	<path class="st18" d="M207.9,121.6c-0.4-0.2-0.5,0-0.7,0.4c-0.4,0.9-1.1,1-1.7,0.2c0,0-0.1-0.1-0.1-0.1c-1.6-0.8-3.7-0.9-4-3.3
		c0-0.1-0.7-0.1-1.1-0.2c-1-0.3-1.7-0.9-2.4-1.8c-1-1.3-0.7-4-3.6-3.8c-0.7,0.1-1.3-1.1-1.9-1.7c-1.2-1.2-0.7-4-3.6-3.8
		c-0.7,0.1-2-0.5-1.8-2c0.2-1.9-0.2-2.3-2.1-2.4c0-0.3,0.1-0.6,0.3-0.7c2-1.1,3.7-2.6,5.8-3.5c0.4,0,0.6,0.3,0.8,0.5
		c5.2,5.2,11.2,9.9,14.3,16.9C206.9,117.9,207.6,119.7,207.9,121.6z"/>
	<path class="st19" d="M93.9,74.4c0,0.1,0,0.2,0,0.3c0.1,2.6-0.5,2.5,2.6,2.5c2.2,0,2.2,0,2.2,2.3c0,3.2,0,3.3,3.3,3.2
		c1.7-0.1,2.3,0.4,2.3,2.2c-0.1,3.3,0,3.4,3.3,3.3c1.8-0.1,2.3,0.5,2.2,2.2c-0.1,3.1,0,3.1,3.1,3.6c0.1,0,0.3,0.2,0.4,0.3
		c0.4,0.7,0,1.3-0.4,1.8c-0.5,0.4-0.6,0.9-0.6,1.4c-0.5,2-1.5,3.9-2.2,5.8c-0.2,0.3-0.4,0.5-0.6,0.7c-0.4,0.4-0.7,0.9-1.3,0.9
		c-0.7-0.2-0.7,0.2-0.6,0.7c-0.4,1-0.9,1.9-2.2,1.9c-0.8-2.1,1.1-3.3,1.9-4.8c0.7-1.4,0.5-1.9-0.8-2.4c-0.4-0.1-0.9-0.3-0.9-0.7
		c0.2-1.8-1.2-3.1-1.3-4.8c0-1.1-0.3-2-1.5-2.6c-0.9-0.4-2-1.2-2-2.5c0-0.4-0.2-1-0.5-1c-2.4-0.7-1.4-2.8-1.8-4.2
		c-0.3-0.9-0.5-1.4-1.5-1.4c-1,0-1.9-0.3-2.9-0.3c-0.8,0-0.7-0.7-1-1.2c-0.4-0.9-0.6-2.4-2.2-1.1c-0.2,0.1-0.4,0.1-0.6-0.1
		c-0.2-0.3-0.2-0.5,0-0.8c0.6-0.7,1.1-1.4,1.7-2.1c0.4-0.5,0.8-0.9,0.1-1.4C92.7,75.6,93.3,75,93.9,74.4z"/>
	<path class="st17" d="M66.7,156.4c0.3-1.1,1-2,1.8-2.9c0.8-0.8,1.8-0.7,2.7,0c1.4,1.1,1.6,3,3.2,3.9c0.2,0.1,0.3,0.5,0.3,0.8
		c0.1,1.3,0,2.4,1.2,3.5c0.7,0.7,1.2,1,2,0.8c1.8-0.2,2.3,0.2,2.3,1.9c0,1.2-0.1,2.1,1.6,2.4c1.4,0.2,1.9,2.3,1.3,3.8
		c-0.2,0.5-0.3,1.1-0.5,1.6C77.1,167.1,71.9,161.8,66.7,156.4z"/>
	<path class="st20" d="M76.7,137.8c0-0.5,0-1.2-0.6-1.3c-1.5-0.2-1.9-1.7-3-2.3c-1.1-0.6-2-1.5-3.2-2.1c-1.5-0.8-3.3-1.7-4.2-3.4
		c-0.4-0.8-1.8-0.8-1.2-2.2c0.1-0.1,0,0-0.1,0.1c0.1-0.1,0.3-0.2,0.1-0.1c-1.4,0.3-1.6-0.4-1.6-1.4c0-1.6,0.3-3.2-0.7-4.6
		c-0.6-0.9-1.3-1.1-2-0.1c-0.8,1.1-3.7,1.2-4.5,0c-0.6-0.8-1.2-1.2-2.1-1.4c0-0.3,0-0.7,0.3-1c0.5-0.1,1-0.3,1.5-0.3
		c1.2,0,1.5-0.7,1.3-1.7c-0.1-0.9-0.2-1.9,1.1-1.8c0.9,0.1,2.5-0.8,2.4,1.3c-0.1,0.8,0.3,1.2,1.1,1.4c1.7,0.4,2.7,2.1,2.2,3.8
		c-0.3,1.1-0.2,2.3-0.2,3.4c0,0.4,0.4,1,0.6,0.7c0.6-1.3,1.6-1,2.6-1.2c0.6-0.1,0.4-0.9,1.1-1.2c0.1,1.2,2,1.3,1.6,2.8
		c-0.1,0.5-0.1,0.9-0.7,1.2c-1.1,0.7-1.1,2,0,2.6c0.7,0.4,0.7,1,1,1.5c2.9,0.8,5,3.1,7.4,4.7C78,136.4,77.9,137.2,76.7,137.8z"/>
	<path class="st17" d="M56.4,145c0.5-0.7,0.3-1.4,0.2-2.1c0-0.3-0.3-0.7,0.2-0.9c0.4-0.2,0.9-0.1,1.1,0.3c0.6,1.3,2.1,1.3,3.1,2.3
		c1.1,1.2,3,1.6,2.7,3.7c-0.1,0.4,0.1,0.8,0.5,0.8c1.5,0.3,1.4,2.2,2.7,2.8c0.4,0.2,0.4,1,0.1,1.4c-0.5,0.7-0.5,1.6-0.9,2.4
		C62.6,152.4,58.8,149.3,56.4,145z"/>
	<path class="st21" d="M165.6,168.1c1.6,0.1,1.9,1.7,2.8,2.6c0.8,0.8,1.3,0.9,2.2,0.6c0.4-0.1,0.8-0.4,1.1-0.3
		c0.9,0.2,2.3-0.3,1.9,1.6c-0.3,1.3,0.4,2.3,1.9,2.4c-1.5,1.9-3.3,3.5-5.1,5.1c-1.5-1.1-0.4-2.1,0.1-3.1c-0.2-0.8-0.7-1.3-1.5-1.7
		c-1.1-0.6-2.2-1.4-2.4-2.9c-0.1-0.7-0.5-1.1-1.2-1.3c-0.8-0.3-0.9-1-0.9-1.7C164.6,168.8,164.6,168,165.6,168.1z"/>
	<path class="st22" d="M191.8,99.3c-0.2-0.1-0.4-0.2-0.7-0.3c-0.3-0.6,0.2-0.9,0.5-1.1c0.9-0.7,1.6-1.7,2.3-2.6c2-2.5,2-4.8,0.1-7.4
		c-0.3-0.4-0.6-0.7-0.7-1.2c0.2-1.4,1-1.7,2.3-1.7c0.6,0.4,1,0.9,1.3,1.5c-0.2,0.9,0.3,1.4,1,1.7c1,2.4,0.1,4.4-1.3,6.3
		c-1,1.3-2.2,2.3-3.5,3.3C192.6,98.3,191.8,98.4,191.8,99.3z"/>
	<path class="st23" d="M175.6,74.2c1.2,2.9,4.2,2.7,6.6,3.7c0.7,0.3,1.4,0.5,2.1,0.8c0.5,1.5,0.4,1.7-1,1.9c-0.7,0.1-1.5,0-2.2,0.1
		c-2.2-0.3-4.2-1.1-6.3-1.6c-0.6-0.1-1.2-0.4-1.3-1.2c0-0.4,0.1-0.8,0.3-0.9C175.1,76.6,175.2,75.3,175.6,74.2z"/>
	<path class="st24" d="M181.1,80.3c0.5-0.7,1.2-0.2,1.7-0.2c1.2,0.1,1.6-0.3,1.4-1.5c2.2,0.6,4.3,1.5,6.2,2.7
		c-0.3,0.6-0.8,1.2-0.3,2c0.2,0.3-0.2,0.5-0.6,0.6c-2.7-0.8-5.2-2.1-7.9-3.1C181.3,80.9,181.2,80.6,181.1,80.3z"/>
	<path class="st25" d="M175.6,74.2c0,1-0.1,1.9,0.4,3.2c-1.1-0.8-1.9-0.9-2.4,0.2c-0.7-0.2-0.8-0.7-1-1.2c-0.6-1.5-1.9-2.6-2.6-4.1
		c0-0.2,0.2-0.6,0.4-0.5c1.1,0.4,1.6-0.4,2.2-1C174.2,71.3,174.7,72.9,175.6,74.2z"/>
	<path class="st26" d="M172.5,70.8c0,1.9-1.3,1.6-2.5,1.5c-0.1,0-0.1,0.1-0.2,0c-2.4-1.3-5.1-2.1-7.7-3c0.1-0.2,0.2-0.4,0.3-0.6
		C166.1,67.9,169.5,68.4,172.5,70.8z"/>
	<path class="st27" d="M189.6,83.8c-0.1-0.9-1-2.1,0.8-2.4c2,0.8,3.7,2.2,5.2,3.7c-0.8,0.4-1.7,0.6-2.1,1.5
		C191.8,86.2,190.5,85.4,189.6,83.8z"/>
	<path class="st28" d="M197.9,88.3c-0.6-0.1-1.3,0.3-1.6-0.5c-0.2-0.6,0.3-0.9,0.6-1.2C197.4,87,197.9,87.6,197.9,88.3z"/>
	<path class="st1" d="M114.3,202.8c0.4-0.4,0.8-0.8,1.3-0.6c0.5,0.3-0.1,0.9,0.1,1.3C115.1,203.4,114.7,203.1,114.3,202.8z"/>
	<path class="st21" d="M175.9,174.5c0.1-0.6,0.4-0.9,1-0.9C176.7,174,176.4,174.3,175.9,174.5z"/>
	<path class="st7" d="M181.4,169c0.1-0.6,0.4-0.9,0.9-1C182.2,168.5,181.8,168.8,181.4,169z"/>
	<path class="st29" d="M127.6,172.6c-4.3-4.2-8.6-8.5-12.9-12.7c-3.2-3.2-6.3-6.4-9.5-9.6c-0.3-1-0.3-2.2-1-3.1
		c-0.2-0.3-0.4-0.8-0.8-0.9c-1.7-0.5-2.1-2.2-3.1-3.3c-0.2-0.2-0.5-0.6-0.2-0.7c1.1-0.8,1.3-2.7,3-2.9c1-0.1,1.3-0.8,1.3-1.7
		c0-0.5,0-1,0-1.5c0.1-1.7,0.4-3.1,2.3-3.8c1-0.4,2-1,0.4-2.1c-0.4-0.3-0.7-0.8-0.4-1.2c0.8-1.1,1-2.6,2.2-3.2
		c1.5-0.9,1.6-2.1,1.1-3.4c-0.6-1.8-0.1-3.7-1-5.4c-0.3-0.5,0.1-1,0.5-1.3c0.9-0.7,1.1-1.6,0.6-2.6c-0.4-0.9-0.1-1.3,0.7-1.8
		c2.1-1.3,3.7-3.2,5.3-5.1c1.2-1.5,0.7-3.4-1-4.3c-0.2-0.1-0.4-0.2-0.6-0.3c-2.4-1-2.5-1.1-1-3.1c0.6-0.8,1-1.6,1.2-2.6
		c0.5-1.7,1.8-2.2,3.3-1.4c2.1,1,3.2,0.6,4-1.6c0.3-0.9,0.8-1.4,1.7-1.7c2.1-0.8,2.4-1.6,1.5-3.6c-0.4-0.8,0-1.4,0.6-1.8
		c1.1-0.7,1.9-1.8,3-2.6c0.6-0.4,0.8-1.1,1-1.7c0.3-0.8,0.6-1.1,1.5-0.5c1.3,1,2.4,0.8,3.2-0.5c0.5-0.8,1.1-0.9,1.9-0.6
		c1.3,0.5,2.3,0.1,3-1c1-1.6,2.9-1.5,4.1-2.6c0.1-0.1,0.2-0.1,0.3,0c2.4,1.1,5.2,0.2,7.7,1.2c1.1,0.4,1.1,1.4,1.6,2.1
		c0.2,0.7,0.2,1.4,0.2,2c0.3,3.8,3,6.8,6.6,7.6c3.4,0.8,7-0.8,8.9-4.1c0.4-0.6,0.6-1.2,1.2-1.6c1.3-0.4,1.7-1.8,2.8-2.5
		c0.9-0.6,1.5-0.7,2.3,0c0.4,0.4,0.9,0.7,1.3,1.1c0.7,0.9,1.6,1.1,2.8,1c1.8-0.3,3.5,0.4,5.3,0.1c0.8-0.1,1.2,0.5,1.3,1.3
		c0.1,1.4,0.9,1.8,2.2,1.8c2.5,0,4.1,1.7,5.4,3.5c1.2,1.8-0.4,5.3-2.5,5.7c-1.2,0.2-1.6,0.9-2.3,1.9c-1.2,1.8-3.1,3-5.3,3.3
		c-1.4,0.1-2.5,0.3-2.9,1.9c-0.2,0.7-0.8,0.8-1.3,0.9c-1.5,0.4-3.1,0.3-4.2,1.6c-0.2,0.2-0.4,0.3-0.6,0.2c-1.6-0.7-2.7,0.5-4,1.1
		c-1.7,0.8-4,0.3-5,2.5c-2.5-0.3-3.6,1.6-5.1,3.1c-2.2,2.3-4.7,4.1-6.2,7c-0.5,1-1.7,1.6-2.7,2c-1,0.4-1.7,0.9-1.8,2.1
		c0,0.7-0.5,1.1-1,1.5c-0.9,0.6-1.3,1.5-1.7,2.5c-0.5,1.2,0.3,1.8,0.9,2.5c0.6,0.7,0.4,1.4-0.1,2.1c-0.4,0.6-0.9,1.2-0.8,1.9
		c0.3,2.3-0.3,4.3-1.7,6.2c-0.6,0.8-0.5,1.8-0.1,2.6c1,2.3,0.5,4.7,0.9,7.1c0.1,0.5-0.2,0.9-0.4,1.3c-0.4,0.7-0.4,1.4-0.2,2.2
		c0.9,3.1,0.1,4.9-2.4,6.7c-1.2,0.9-2.2,2.1-3,3.2c-1.4,1.9-3.5,3-5,4.8c-0.4,0.4-0.7,0.9-1.1,1.3c-1.8,1.5-4,2.3-5.9,3.6
		C128.1,172.8,127.8,172.7,127.6,172.6z"/>
	<path class="st29" d="M153.2,79.7c-1.6-2.4-3.9-2.6-6.4-2.2c-0.1,0-0.3,0.1-0.3,0.1c-1.7-1.3-3.3-0.2-4.9,0.2
		c-0.5,0.1-0.6,0.3-0.9,0.6c-0.5,0.7-1.1,1.4-1.7,1.9c-1.1,0.9-2.7-0.6-3.3,0c-0.8,0.8-1.1,2-2.6,1.8c-0.9-0.1-1.8,0-2.2-1.3
		c-0.2,2.8-2.6,3.7-4.3,5.2c-0.8,0.7-1.3,1-0.2,1.9c1.1,0.9,0,3.4-1.9,3.7c-1.1,0.2-1.4,0.6-1.7,1.7c-0.4,2.1-2.7,2.8-4.5,1.6
		c-1.3-0.8-2.8-0.4-2.9,1.1c-0.1,1.5-1,2.4-1.8,3.4c-0.8,0.9-0.8,1.3,0.5,1.7c2.9,0.7,3.4,1.5,3.3,4.1c0,0.5-0.1,0.9-0.4,1.3
		c-1.7,1.7-3.5,3.4-5.2,5.2c-0.4,0.4-1,0.3-1.4,0.6c0.9,1.5,1.4,2.9-0.6,4c-0.5,0.3-0.4,0.9-0.1,1.2c0.7,0.7,0.7,1.6,0.6,2.4
		c-0.3,1.6,1,2.9,0.6,4.5c-0.1,0.5,0,1.3-0.5,1.4c-1.9,0.3-1.8,2.3-2.9,3.3c-0.8,0.6-0.2,1.1,0.5,1.3c0.5,0.2,1,0.4,1.1,1
		c0,0.7-0.6,0.9-1.1,1.1c-2.3,0.8-3.1,2.5-2.9,4.8c0.2,1.6-0.1,2.9-2.2,2.8c-0.4,0-0.8,0.3-0.8,0.7c0,1-0.7,1.3-1.6,1.8
		c0.7,0.5,1.2,1.1,1.5,1.8c0.4,0.8,0.8,1.5,2,1.6c1,0.1,1.8,2.7,1.5,4.5c-2.8-2.7-5.6-5.5-8.4-8.2c-0.4-0.4-0.5-0.7-0.3-1.2
		c0.1-1.3,1.3-1.7,1.9-2.6c1-1.2,1.9-2.4,2.8-3.7c0.5-0.6,0.5-1.4,1-1.9c1.8-2.5,3.4-5.1,4.1-8.1c0.9-2.7,1.5-5.5,2-8.3
		c0.3-0.9,0.2-1.8,0.3-2.7c0-0.2,0.1-0.4,0.1-0.5c0.3-1.3-0.1-2.7,0.3-4c0.3-1.2,0.1-2.5,0.2-3.7c0-0.7,0-1.4,0.4-2
		c0.4-2.1,1.6-4,2.2-6.1c0.2-0.5,0.2-1.1,0.7-1.4c0.4-0.5,0.7-1,0.7-1.6c0.3-0.4,0.6-0.8,0.9-1.2c0.2-0.6,0.5-1,1-1.3
		c0.4-0.5,0.8-1.1,1.1-1.6c2.4-2.5,4.8-4.9,7.5-7c5.5-3.5,11.5-5.7,17.9-6.9c0.7-0.2,1.4-0.2,2.1-0.3c0.2,0,0.5,0,0.7-0.1
		c0.5-0.2,1.1-0.1,1.6-0.5c1.2,0.1,2.4-0.2,3.5,0.1c1,0.2,1.7,0,2.3-0.9c1.9-2.9,4.7-4.4,8-5.2c0.6-0.3,1.1-0.2,1.7-0.1
		c0.1,0,0.2,0,0.4,0c3,0,5.5,1.2,7.9,2.9c1.5,1.6,2.7,3.3,3.5,5.4c0,0.8,0.6,0.9,1.1,1c2.1,0.6,4.3,1.2,6.4,1.7
		c2.8,1.2,5.7,2.3,8.5,3.5c1.3,0.9,2.6,1.8,3.9,2.7c4.1,4.5,2.4,7.5-1,11.1c-0.4,0.4-0.9,0.9-1.4,1.3c-2.1,1.4-4.2,2.7-6.3,4.1
		c-1,0.4-1.9,0.8-2.7,1.4c-0.7-0.2-0.8,0.7-1.3,0.7c-0.5,0.4-1,0.8-1.7,0.7c-2.9,1.1-5.8,2.3-8.7,3.4c-0.8,0.1-1.6,0.4-2.4,0.8
		c-2.8,1.7-5.7,3.2-8,5.5c-1.8,1.8-3.5,3.6-4.7,5.8c-4.5,7-6.6,14.7-6.8,22.9c-0.1,4.2-0.3,8.4,0.4,12.5c-0.2,0.7-0.4,1.3-1.2,1.4
		c-2.8,2.8-5.5,5.5-8.3,8.3c-0.3,0.2-0.2,0.9-0.7,0.9c0,0,0,0,0,0c-2.3,2.1-4.4,4.2-6.5,6.5c-2.2,1.3-2.4,1.2-4.5-1.3
		c1-0.3,2-0.4,2.3-1.7c0-0.2,0.3-0.5,0.4-0.5c2.5,0.2,3.3-2.1,5-3.1c0.5-0.3,0.7-0.9,1.1-1.3c0.5-0.7,0.9-1.3,1.8-1.5
		c0.7-0.2,1.2-0.6,1.3-1.4c0-0.6,0.4-1,0.9-1.1c1-0.2,1.4-0.9,1.7-1.7c0.1-0.4,0.3-0.8,0.7-0.9c1.5-0.3,2-1.3,2.4-2.6
		c0.4-1.4,0.5-2.5-0.1-3.8c-0.2-0.5-0.4-1.1-0.1-1.5c0.8-1.1,0.5-2.3,0.6-3.6c0.1-1.7,0.1-3.3-0.6-4.8c-0.9-2.2,0-3.9,1.2-5.5
		c0.5-0.6,0.5-1,0.5-1.8c-0.1-1.6-0.4-3.2,1-4.5c0.5-0.4,0.5-1.1,0-1.5c-0.6-0.6-1.6-0.9-1.3-2c0.4-1.3,0.7-2.8,2-3.5
		c0.8-0.5,1.2-0.9,1.1-1.8c-0.1-0.6,0.2-1.3,0.8-1.4c2.9-0.6,3.9-3.2,5.6-5.1c1.2-1.4,2.4-2.8,3.9-3.9c0.4-0.3,0.9-0.6,1.1-1.1
		c1-1.8,2.2-3,4.5-2.6c0.7,0.1,0.9-0.6,1-1.2c0.3-0.8,0.9-1.5,1.6-1.1c1.7,0.9,2.7-0.5,3.8-1.1c0.9-0.5,1.5-1,2.4-0.3
		c0.2,0.2,0.6,0.3,0.8,0c1-2,3.1-1.4,4.7-1.8c0.6-0.2,0.6-0.4,0.7-0.9c0.2-0.9,0.8-1.9,1.8-1.8c2.6,0.3,4.3-1.4,6.3-2.6
		c0.1-0.1,0.2-0.2,0.2-0.2c-0.2-2.2,1.3-2.4,2.9-2.5c1.6-0.1,1.7-1.2,1.9-2.5c0.2-1.4,0.4-2.4-1-3.5c-1-0.8-1.8-1.7-3.1-2.1
		c-0.1,0-0.1-0.1-0.1-0.1c-2.1,0.2-3.7,0-3.5-2.8c0-0.4-0.6-0.5-1.1-0.4c-2,0.6-4-0.4-6.1,0.1c-1.3,0.3-1.7-1.4-2.7-1.9
		c-0.5-0.3-1-1.3-1.4-1c-0.7,0.6-1.7,0.9-2,1.7c-0.3,1.1-0.9,1.2-1.8,1.1c-0.6-0.5-0.2-1.2-0.2-1.8c0.1-3.1-1-5.6-3.4-7.6
		c-0.9-0.7-1.5-0.6-1.8,0.5c-0.5,1.4-1.1,2.8-2.6,3.4c-0.3,0.1-0.5,0.1-0.8,0c-0.2-1.1,0.5-2,0.7-3c0.3-1.2-1.2-4.2-2.4-4.5
		c-0.4-0.1-0.8-0.1-1.1,0.3c-0.6,1.1-1.4,2.1-1.7,3.4c-0.2,0.7,0.2,1.2,0.7,1.6c0.8,0.7,1.2,1.5,0.9,2.6c-1.7,0.8-2.6-0.7-3.9-1.4
		C154,77.9,154.3,79.2,153.2,79.7z"/>
	<path class="st18" d="M76.7,137.8c1.1-0.6,0.8-1.5,0-1.8c-1.9-0.8-3-2.5-4.7-3.6c-0.8-0.5-2.2-0.1-2.5-1.5c0.3,0,0.6,0,0.9,0
		c2-0.4,3.3,0.6,4.4,2.2c0.6,0.9,1.3,0.8,1.9-0.1c0.5-0.6,4.6-1.1,5.3-0.6c0.4,0.3,0.3,0.7,0.3,1.1c0,0.9,0,1.8,0,2.7
		c0,0.9,0.1,1.6,1.3,1.5c0.9-0.1,0.8,0.6,0.8,1.2c0,0.6,0.3,1,0.7,1.6c1,1.4,2.3,1.5,3.7,1.3c1.2-0.1,1.1,0.7,1.1,1.5
		c0.1,3.1,2.6,4.9,5.5,4c0.9-0.3,0.6-1,0.7-1.6c0.1-0.4-0.2-1,0.5-1.1c0.6,0,0.8,0.6,0.8,1c-0.2,1.5,1.2,2.4,1.8,2.7
		c1.3,0.8,1.1,1.7,1,2.7c-0.1,1.3,0.3,1.9,1.7,1.8c0.8,0,2.2-0.5,2.3,0.7c0,1.1-1.4,0.4-2.1,0.6c-0.6,0.2-1.6-0.4-1.7,0.6
		c-0.1,1,0.9,0.8,1.6,0.8c1,0,1,0.6,1.1,1.3c0.1,2.5,0.1,2.5,2.5,2.8c1.2,0.2,1.5,1.3,2.3,2c0.4,0.4-0.6,0.6-0.9,1
		c-0.4,0.5-1.6,0.2-1.2,1.4c0.4,1.2,1.1,1.1,2,1.1c1.7,0,3.4,0,5.2,0c0.9,0,1.3,0.3,1.2,1.2c0,0.5,0,1,0,1.5c0,2.5,0,2.4,2.5,2.8
		c1.1,0.2,1.5,1.3,2.2,2c0.4,0.3-0.3,0.7-0.8,0.9c-1.2,0.4-1,1.2-0.4,2c0.5,0.7,1.3,1,1.8,1.7c0.3,0.5,1.1,0.3,1.4-0.3
		c1-1.8,2.5-0.7,3.8-0.8c0.6,0,0.4,0.8,0.5,1.3c0,0.7,0.2,1.2,1,1.3c1.7,0.3,2.4,1.3,2.4,3.2c0,2,1.2,2.6,2.6,3.9
		c1.8,1.6,3.5,1.1,5.4,1.2c0.6,0,0.9,0.3,0.9,0.9c0,0.9,0,1.7,0,2.6c0,1-0.2,2.2,1.4,2c0.3,0,0.6,0.2,0.6,0.5c0,2.1,1.7,2.6,3,3.8
		c1.3,1.2,2.4,1,3.7,1.1c0.5,0,0.9,0.1,0.9,0.7c0,0.5,0.2,1-0.5,1.3c-1.4,0.6-2.3,2-3.6,2.8c-1.2-0.5-2.1-1.4-3.5-1.6
		c-0.8-0.2-1.8-1.7-1.9-2.8c-0.2-1.6-0.9-1.9-2.2-1.8c-1.3,0.1-2.3,0-2.1-1.7c0.1-0.5-0.3-0.9-0.8-1c-0.4-0.1-0.6-0.4-0.6-0.7
		c0.3-2.2-1.1-2.1-2.6-2c-1.2,0.1-1.7-0.3-1.6-1.5c0.1-0.5-0.1-1-0.6-1.1c-0.8-0.2-0.8-0.8-0.8-1.5c0.1-1.1-0.5-1.4-1.5-1.4
		c-0.5,0-1,0-1.5,0c-1.4,0-2.9,0.3-2.5-2c0.1-0.7-0.5-0.8-1.1-0.8c-0.5,0-0.9-0.3-0.9-0.8c0-0.6,0.5-0.5,0.9-0.5c0.4,0,1,0.1,1-0.6
		c0-0.5-0.4-0.7-0.8-0.7c-1.3,0-1.9-1.2-2.4-2c-1.1-1.5-1.9-3-3.9-3.8c-0.6-0.2-2.1-1.1-1.8-2.7c0.2-0.8-0.4-1.2-1.3-1.2
		c-1.1,0-2.3,0-3.4,0c-1,0-1.5-0.4-1.5-1.4c0-1.2,0.4-2.5-1.2-3.2c-0.2-0.1-0.2-0.7-0.2-1.1c0-0.5-0.2-0.9-0.7-1.1
		c-1.7-0.4-2.8-1.4-2.8-3.3c0-0.6-0.5-0.9-1.1-0.9c-1.4,0.1-2.7-0.4-4.1,0c-1-0.6-0.9-1.5-0.8-2.4c0.3-2.9-0.1-3.5-2.6-5
		c-1-0.6-2.2-1.3-2.2-2.8c0-0.5-0.3-1-1-0.8c-1.5,0.2-3-0.4-4.5,0c-0.3-0.2-0.8-0.5-0.7-0.9c0.3-1.9-0.7-3.4-1.3-5
		c-0.4-0.9-0.7-1.4-1.6-1.3c-0.2,0-0.5,0-0.7,0c-2.7,0-2.7,0-3.6-2.4c-0.2,0-0.5,0-0.7,0c-0.6,0-1.3,0-1.3-0.8
		c0-0.9,0.8-0.5,1.3-0.6C76.3,137.8,76.5,137.8,76.7,137.8z"/>
	<path class="st29" d="M108.1,104.8c0.3-0.3,0.7-0.7,1-1c1.1,0.5,0.1,1.4,0.3,2.1c-0.1,1.8-0.6,3.5-0.9,5.2c-0.8,3.9-1.6,7.8-3,11.6
		c-0.9,2.3-1.9,4.5-3.2,6.6c-0.8,1.1-1.6,2.2-2.6,3.2c-0.7,0.7-1.4,1.4-2.2,2.1c-0.6,0.5-1.2,0.9-1.8,1.4c-0.9,0.5-1.7,1.5-2.8,1.5
		c-1.4-0.5-2.1-1.7-3.1-2.7c-1.6-1.5-3.2-3.1-4.8-4.7c-0.3-0.2-0.6-0.3-0.4-0.7c-0.1-1.4,0.9-2.1,1.8-3c0.5-0.5,0.9-1,1.4-1.5
		c0.6-0.3,1-0.8,1.4-1.4c0.2-0.5,0.3-1.1,1-1.1c2.9-2.4,5.4-5.1,7.9-7.8c2.5-2.3,4.9-4.7,7.2-7.2c0.8-0.6,1.5-1.3,2.1-2.1
		C107.5,105.1,107.7,104.9,108.1,104.8z"/>
	<path class="st30" d="M84.6,129.5c0.1,0.2,0.3,0.4,0.4,0.7c-1.3,0.2-2.4-0.8-3.6-0.8c-0.1,0-0.4-0.2-0.4-0.3c0.3-1.5-1.3-1.9-1.7-3
		c-0.2-0.7-1-1.2-1.7-1.3c-2.4-0.4-3.7-1.9-4.4-4.1c-0.4-1.2-1.1-2.1-2.5-2.2c-0.3,0-0.7-0.2-0.7-0.3c0.2-1.8-2.3-2.5-1.6-4.4
		c3,2.7,5.8,5.6,8.6,8.5C79.5,124.7,82.1,127.1,84.6,129.5z"/>
	<path class="st31" d="M95.6,135.7c0.4-0.6,1.1-1,1.7-1.4c1.5,0,1.9,0.9,1.9,2.2c0,0.7-0.2,1.3-0.4,2c-0.7,0.8-1.4,1.6-2.1,2.4
		c-0.7,0.3-1.2,0.1-1.6-0.5c-0.6-0.9-2-1.3-2.1-2.6c1-0.1,1.4,0.8,2,1.3c0.8,0.8,1.1,0.4,1.4-0.5C96.7,137.5,95.8,136.7,95.6,135.7z
		"/>
	<path class="st32" d="M95.6,135.7c1.1,0.4,1.2,1.5,1.3,2.4c0.1,0.7,0,1.7-0.9,2.1c-0.8,0.4-1.1-0.6-1.6-1c-0.6-0.4-1-0.9-1.5-1.4
		c0-0.1,0-0.2,0-0.3C93.8,136.9,94.7,136.3,95.6,135.7z"/>
	<path class="st20" d="M76.7,139.2c0.8,2.3,2.7,2.2,4.6,2.1c0.3,0,0.8,0.1,0.9,0.3c0.6,1.5,2.1,2.8,1.9,4.4c-0.1,1.1-0.1,2,0.5,2.9
		c-1,0.1-1-0.6-1-1.3c0-1.1,0.5-2.5-1.1-3c-0.1,0-0.2-0.3-0.2-0.4c0.4-2.5-1.4-2.1-2.8-2.1C76.3,141.9,76.8,142.3,76.7,139.2z"/>
	<path class="st20" d="M89.1,148.8c0.9-0.7,1.3,0.1,1.3,0.6c0,1.4,1,2.1,1.9,2.6c2.4,1.3,3.7,2.9,2.8,5.7c-0.3,0.8,0.3,1.4,0.6,2.1
		c-0.7,0-1.1-0.2-1-1c0-0.7,0-1.4,0-2c0-2.1-0.8-3-2.7-3.9c-0.9-0.5-2.2-1.2-2.1-2.6C89.8,149.6,89.8,149.1,89.1,148.8z"/>
	<path class="st33" d="M149.7,75.5c-1.2,0-2.5,0.1-3.7,0.1c-0.2,0.1-0.3,0.1-0.4-0.1c1.3-0.5,2.8-0.4,4.1-0.3
		C149.7,75.3,149.7,75.4,149.7,75.5z"/>
	<path class="st5" d="M143.9,75.9c-0.6,0.5-1.4,0.3-2.1,0.3C142.5,75.9,143.1,75.5,143.9,75.9z"/>
	<path class="st5" d="M145.6,75.5c0.1,0,0.3,0,0.4,0.1c-0.4,0.3-0.9,0.3-1.5,0.3C144.8,75.3,145.2,75.3,145.6,75.5z"/>
	<path class="st26" d="M161.8,69.3c-0.6,0-1.1,0-1.7,0.1C160.6,68.8,161.2,68.9,161.8,69.3z"/>
	<path class="st10" d="M90.1,122.6c-0.4,0.3-0.4,1-1,1.1C88.9,122.8,89.1,122.5,90.1,122.6z"/>
	<path class="st2" d="M179,105.8c0.5-0.4,1-0.8,1.7-0.7C180.6,106.3,179.9,106.3,179,105.8z"/>
	<path class="st29" d="M175.9,128.2c0.3,1.3-0.4,2.1-1.3,2.9c-0.5,0.5-1,1.1-1.5,1.6c-2.4,2.2-4.7,4.4-6.9,6.9
		c-1.4,1.1-2.6,2.4-3.8,3.8c-1.6,1.4-3.1,2.9-4.5,4.5c-0.2,0.4-0.4,0.9-1,0.7c-0.4-0.2-0.6-0.6-0.7-1c-2.2-7.6-3-15.1,0.1-22.7
		c1-2.4,2.3-4.5,3.7-6.6c0.6-0.7,1.1-1.5,1.8-2.2c0.4-0.4,0.8-1.1,1.6-0.5c3.6,3.6,7.1,7.2,10.7,10.8
		C174.8,126.9,175.3,127.6,175.9,128.2z"/>
	<path class="st34" d="M163.5,115.5c-1.1-0.2-1.3,0.8-1.8,1.3c-0.5,0.4-0.8,0.9-1.2,1.4c-0.5-0.3-0.2-1-0.6-1.4
		c-1.2,0.5-1.8,1.6-2.5,2.6c-0.6,0.7-1,1.7-2.2,1.4c3.1-5.1,7.2-8.9,12.8-10.9c-1.1,1.2-2.1,2.4-3.3,3.5
		C164.1,114.1,163.4,114.6,163.5,115.5z"/>
	<path class="st16" d="M157.3,148.4c0.2-0.2,0.5-0.4,0.7-0.7c0.6,0.6,0.8,0.8-0.2,1.4c-2,1.2-3.9,2.7-3.6,5.6c0.1,1,0.3,1.8,1.3,2.6
		c1.1,1,1.9,2.3,3.6,2.4c0.2,0,0.4,0.4,0.5,0.7c0.2,1.8,1.9,2.5,2.6,3.9c0.2,0.4,0.6,0.6,1,0.6c2.2-0.1,2.4,1.5,2.5,3.1
		c-1.2,1.4-1,2.2,0.7,2.8c0.5,0.1,0.7,0.4,0.7,0.8c0,2,1.1,2.9,2.9,3.4c0.7,0.2,1.2,1.1,0.6,2c-0.1,0-0.2,0-0.3,0
		c-1.4-0.7-3.1,0-4.5-0.7c-0.3,0-0.6-0.1-0.6-0.5c0-1.4-0.7-2-2-2.1c-0.1,0-0.1,0-0.2-0.1c-0.8-1.7-2.6-2.6-3.4-4.1
		c-0.3-0.5-0.6-1-1.2-1.1c-0.4-0.1-1-0.1-1.1-0.4c-0.6-1.8-2.3-2.6-3.4-3.9c-0.5-0.7-1.1-1.3-1.9-1.4c-2.1-0.1-2.1-2.2-3.3-3.1
		c-0.2-0.2,0.7-1.9-0.7-0.6c0-0.3-0.1-0.7-0.1-1c0.3-0.4,0.6-0.8,0.9-1.2c1.4-1.9,3.2-3.3,4.8-5
		C154.6,150.8,155.6,149.2,157.3,148.4z"/>
	<path class="st21" d="M165.6,176.3c1,0,1.9,0,2.9,0c0.6,0,1.3,0,1.6,0.7C168.6,176.9,166.9,177.5,165.6,176.3z"/>
	<path class="st8" d="M138.7,167.3c0.2-0.3,0.5-0.6,0.7-0.9c-0.1,0.4,0.5,0.7,0.1,1.1C139.2,167.8,139,167.4,138.7,167.3z"/>
	<path class="st14" d="M177.1,135.4c-1.3,0.2-1.3,0.2-1.8-1C175.9,134.8,176.4,135,177.1,135.4z"/>
	<path class="st13" d="M115.2,91.7c-0.3,0.5-0.5,1-1,1.3C114,92.2,113.7,91.3,115.2,91.7z"/>
	<path class="st35" d="M109.2,105.8c-0.2-0.7,0.8-1.4,0-2c0.1-0.3,0.3-0.4,0.6-0.4c0,2,0.3,4-0.2,6
		C108.5,108.3,109.6,107,109.2,105.8z"/>
	<path class="st7" d="M108.1,104.8c-0.2,0.2-0.5,0.5-0.7,0.7c-0.9-0.2-0.6-0.6-0.2-1C107.6,104,108,104.1,108.1,104.8z"/>
	<path class="st36" d="M112.6,95.9c-0.1,0.6-0.4,1-0.7,1.4C111.8,96.7,111.8,96.1,112.6,95.9z"/>
	<path class="st3" d="M64.9,125.5c0.4,0,0.6,0.2,0.7,0.6c0.1,0.6-0.4,0.6-0.8,0.6c-0.2,0-0.6,0.2-0.5-0.3
		C64.4,126,64.5,125.7,64.9,125.5z"/>
	<path class="st1" d="M60.9,146c-0.2,0-0.5,0-0.5-0.3c0-0.3,0.3-0.3,0.5-0.3c0.2,0,0.5,0,0.5,0.3C61.4,146,61.1,146,60.9,146z"/>
	<path class="st37" d="M153.2,79.7c0.5-1.1,0.7-2.3,1.5-3.3c1.1,1.2,2.1,2.4,4,2.4c0.9-0.2,1.8-0.5,2.8-0.3c1.9-0.7,3-2.1,3.2-4
		c0.1-1.8,0.8-1.3,1.8-0.7c3.5,2.1,4.8,5.5,4,10.2c-1.1,2.6-2.8,4.7-5.6,5.6c-5.7,2-11.7-2.2-11.7-8.2
		C153.2,80.7,153.2,80.2,153.2,79.7z"/>
	<path class="st38" d="M157.3,148.4c-2.8,2.9-5.4,6.2-8.7,8.6c-1-6.1-0.9-12.3-0.1-18.5c0.8-6,2.8-11.7,6-16.8
		c0.2-0.3,0.4-0.5,0.6-0.8c0.9-0.4,1.6-1.1,2.1-1.9c0.4-0.6,0.6-1.3,1.2-1.6c0.7-0.3,0.9-1.6,1.9-1.1c1,0.5-0.1,1.3,0.2,2
		c-2.1,3.4-4.1,6.8-5,10.8c-1.4,6.4-0.4,12.7,1.4,18.9C157,148.1,157.2,148.3,157.3,148.4z"/>
	<path class="st29" d="M161.5,78.4c-0.9,0.5-1.8,0.8-2.8,0.3c-0.3-0.9-0.5-1.9-1.4-2.6c-0.7-0.5-1-1.2-0.4-2.3c0.5-1,1.2-1.9,1.6-3
		c0.4-1,1.7-0.8,2.6,0.2C163,73.2,163.2,76.2,161.5,78.4z"/>
	<path class="st39" d="M105,122.7c1.3-3.8,2.1-7.8,3.1-11.7c1.1,0.5,1.1,1.4,1,2.4l0,0c-0.8,0.8,0,1.9-0.4,2.7c-0.2,3-0.8,5.9-2,8.6
		C105,125.1,105.4,123.5,105,122.7z"/>
	<path class="st40" d="M105,122.7c0.6,0.7,0.7,1.8,1.7,2.1c-0.8,3.1-2.3,5.8-4.2,8.3c-0.6-0.7-0.1-1.2,0.2-1.7
		c0.1-0.1,0.2-0.3,0.2-0.4c0.6-1.2-0.2-1.5-1.1-1.7C103.2,127.1,104.2,124.9,105,122.7z"/>
	<path class="st41" d="M98.8,138.5c-0.3-0.4-0.1-0.9,0-1.3c0.2-1.3-0.2-2.3-1.4-2.9c0.7-0.7,1.4-1.3,2.1-2c1.8-0.1,2.5,0.8,2.1,2.5
		C100.8,136.1,99.9,137.4,98.8,138.5z"/>
	<path class="st42" d="M101.5,134.8c0.1-1.5-0.9-2-2.1-2.5c0.8-1,1.6-2.1,2.5-3.1c0.5,0,1-0.6,1.5,0.1c0.5,0.7,0.4,1.4-0.2,2
		c-0.1-0.1-0.1-0.1-0.1-0.2c0,0,0.1,0.1,0.1,0.2c-0.3,0.5-0.8,1-0.7,1.8C102.1,133.5,102.3,134.4,101.5,134.8z"/>
	<path class="st43" d="M109.1,113.4c-0.3-0.8-0.7-1.6-1-2.4c0.3-1.7,0.7-3.4,1-5.2c0.6,1.1,0.1,2.3,0.3,3.5
		C109.4,110.7,109.7,112.1,109.1,113.4z"/>
	<path class="st43" d="M108.8,116.1c0.2-0.9-1-2,0.4-2.7C109.1,114.3,109.3,115.3,108.8,116.1z"/>
	<path class="st29" d="M111.5,106.4c-0.1-0.2-0.3-0.3-0.3-0.4c0-0.1,0.1-0.4,0.2-0.4c0.3-0.1,0.4,0.1,0.4,0.3
		C111.8,106.1,111.7,106.2,111.5,106.4z"/>
	<path class="st40" d="M103.2,131.3c-0.4-0.3-0.6-0.6-0.5-1.2C103.6,130.2,103.1,130.9,103.2,131.3
		C103.2,131.3,103.2,131.3,103.2,131.3z"/>
</g>
</svg>
