<svg width="87" height="87" viewBox="0 0 87 87" fill="none" xmlns="http://www.w3.org/2000/svg">
<path d="M43.3 86.6C67.2139 86.6 86.6 67.2139 86.6 43.3C86.6 19.3861 67.2139 0 43.3 0C19.386 0 0 19.3861 0 43.3C0 67.2139 19.386 86.6 43.3 86.6Z" fill="#333333"/>
<path d="M38.0278 32.1906C38.0278 32.1906 38.0455 32.2349 38.0278 32.2704C37.9392 32.4919 37.6202 33.0766 37.5847 33.1032L37.3278 33.05C37.3278 33.05 37.1152 32.6779 36.7962 32.483C36.7076 32.4298 36.619 32.3855 36.5304 32.359C36.4329 32.3324 36.3355 32.3147 36.238 32.3147C36.176 32.3147 36.1051 32.3324 36.0165 32.359C35.9279 32.3855 35.8481 32.4298 35.7595 32.483C35.6798 32.5273 35.5912 32.6159 35.5026 32.7311C35.414 32.8374 35.3431 32.9614 35.2899 33.0943C35.2013 33.2892 35.1482 33.4664 35.1216 33.6259C35.0862 33.8386 35.0684 34.0689 35.0684 34.3259C35.0684 34.6625 35.1039 34.9461 35.1836 35.1941C35.2634 35.4334 35.3609 35.6283 35.476 35.77C35.5912 35.9295 35.733 36.0447 35.9013 36.1156C36.0519 36.1864 36.2203 36.2219 36.4152 36.2219C36.5038 36.2219 36.6101 36.213 36.7431 36.1953C36.8317 36.1776 36.9202 36.151 37.0089 36.1156V34.9638C37.0089 34.9195 37.0088 34.8929 37 34.8752C36.9823 34.8132 36.7253 34.6625 36.4418 34.6448V34.3436H38.3999V34.6448C38.1696 34.6803 38.0721 34.8486 38.0544 34.8663C38.0366 34.8929 38.0366 34.9283 38.0366 34.9638V36.8244L37.062 37.8964L37.0354 36.6915C36.9379 36.7358 36.7962 36.7801 36.6101 36.8155C36.4949 36.8332 36.3709 36.8421 36.2469 36.8421C36.0697 36.8421 35.8747 36.8244 35.6709 36.7889C35.538 36.7623 35.3697 36.6915 35.1482 36.594C34.9975 36.5231 34.8469 36.4168 34.6786 36.275C34.5545 36.1776 34.4305 36.027 34.3065 35.8143C34.2001 35.6283 34.1204 35.4422 34.0672 35.2384C34.0141 35.0169 33.9786 34.7777 33.9786 34.5208C33.9786 34.0955 34.0406 33.7057 34.1735 33.369C34.2976 33.0678 34.4837 32.7842 34.7495 32.5184C34.9976 32.2792 35.2899 32.1109 35.6089 31.9868C35.9456 31.8628 36.3089 31.8008 36.681 31.8008C36.7873 31.8008 36.8937 31.8096 37 31.8274C37.062 31.8362 37.1772 31.8628 37.3632 31.8982C37.4518 31.9248 37.5759 31.9603 37.7443 32.0223C37.8595 32.0754 37.9569 32.1286 38.0278 32.1906Z" fill="white"/>
<path d="M43.3528 34.2727C43.3528 34.4854 43.3263 34.7069 43.2643 34.9549C43.2111 35.1587 43.1225 35.3625 43.0161 35.584C42.9098 35.7878 42.7858 35.965 42.6529 36.1156C42.5466 36.2396 42.3871 36.3814 42.1656 36.5409C41.9707 36.6561 41.7846 36.7447 41.5896 36.7978C41.3947 36.8598 41.1821 36.8864 40.9605 36.8864C40.6239 36.8864 40.3138 36.8155 40.0657 36.6826C39.8176 36.5675 39.5784 36.3814 39.3834 36.1333C39.1974 35.903 39.0556 35.646 38.9582 35.3448C38.8607 35.0524 38.8075 34.7423 38.8075 34.4056C38.8075 34.0601 38.8695 33.7146 38.9847 33.3956C39.0999 33.0678 39.2682 32.7931 39.4809 32.5628C39.6935 32.3147 39.9505 32.1198 40.234 31.9869C40.5087 31.8451 40.8365 31.7742 41.1998 31.7742C41.5631 31.7742 41.8732 31.8451 42.1213 31.9869C42.3783 32.1198 42.6086 32.3058 42.8035 32.545C42.9896 32.7931 43.1225 33.0589 43.2022 33.3424C43.2997 33.6437 43.3528 33.9538 43.3528 34.2639V34.2727ZM42.2364 34.3436C42.2364 34.069 42.2099 33.812 42.1479 33.5728C42.0947 33.3247 42.0061 33.1032 41.8909 32.9083C41.7757 32.7311 41.6428 32.5805 41.4922 32.4742C41.3416 32.359 41.1643 32.3058 40.9605 32.3058C40.7922 32.3058 40.6416 32.3501 40.4998 32.4299C40.3847 32.5096 40.2695 32.6425 40.172 32.8286C40.0834 32.9969 40.0214 33.2007 39.9859 33.4488C39.9416 33.6791 39.9239 33.9626 39.9239 34.2993C39.9239 34.6006 39.9593 34.8664 40.0214 35.1056C40.0745 35.3536 40.1632 35.5663 40.2783 35.7701C40.3758 35.9295 40.4998 36.0713 40.6682 36.2042C40.81 36.3105 40.9694 36.3637 41.1466 36.3637C41.3061 36.3637 41.4479 36.3194 41.5808 36.2396C41.7048 36.1776 41.82 36.0536 41.9175 35.8764C42.0149 35.6992 42.0947 35.4954 42.139 35.2562C42.201 34.9815 42.2276 34.6803 42.2276 34.3436H42.2364Z" fill="white"/>
<path d="M48.2703 34.2018C48.2703 34.5385 48.2438 34.822 48.1817 35.0789C48.1109 35.3359 48.0134 35.5662 47.9071 35.7612C47.7919 35.9561 47.659 36.1156 47.5083 36.2485C47.3311 36.3991 47.1716 36.5054 47.0033 36.5763C46.835 36.6649 46.6577 36.718 46.4451 36.7623C46.2945 36.8066 46.1085 36.8244 45.8869 36.8244H43.5301V36.5143C43.7693 36.4788 44.0617 36.3991 44.0617 36.2662V32.7576C44.2477 32.5716 44.6287 32.3412 44.7439 32.3058C44.5224 32.2615 43.5389 32.4387 43.5389 32.4387L43.4858 32.04L43.7427 31.9868C43.7427 31.9868 43.8313 31.978 43.9465 31.9514C44.1858 31.916 44.3807 31.8894 44.5313 31.8805C44.6642 31.8628 44.8591 31.8451 45.1338 31.8274C45.4085 31.8185 45.6034 31.8096 45.7097 31.8096C46.1262 31.8096 46.4983 31.8628 46.8084 31.9691C47.1274 32.0754 47.3931 32.226 47.6058 32.4387C47.8184 32.6513 47.9868 32.8994 48.1108 33.1918C48.226 33.4753 48.2792 33.812 48.2792 34.2107L48.2703 34.2018ZM47.1008 34.3524C47.1008 33.6525 46.959 33.1298 46.6843 32.7842C46.4008 32.4298 45.9755 32.2526 45.4262 32.2526C45.4262 32.2526 45.2578 32.2526 45.1692 32.2615V36.213C45.1781 36.2573 45.1958 36.2839 45.2312 36.3016C45.249 36.3193 45.3021 36.3459 45.3907 36.3636C45.4882 36.3725 45.5945 36.3814 45.7097 36.3814C45.8515 36.3814 46.0021 36.3459 46.1527 36.2662C46.3211 36.1953 46.4717 36.0801 46.6134 35.9206C46.7552 35.7612 46.8615 35.5485 46.9501 35.2739C47.0565 35.0435 47.1008 34.7423 47.1008 34.3524Z" fill="white"/>
<path d="M52.16 35.3448C52.16 35.4511 52.1423 35.5663 52.1069 35.708C52.0626 35.8321 52.0094 35.9473 51.9474 36.0713C51.8499 36.2131 51.7613 36.3194 51.6638 36.3991C51.5664 36.4966 51.4423 36.594 51.2828 36.6738C51.1499 36.7447 50.9816 36.8067 50.7689 36.8598C50.6183 36.9041 50.4146 36.9307 50.1488 36.9307C50.0336 36.9307 49.9184 36.9219 49.8121 36.9041C49.626 36.8776 49.4931 36.851 49.4133 36.8244C49.2982 36.7978 49.1652 36.7624 49.0235 36.7004C48.8994 36.6561 48.7843 36.6029 48.6957 36.5497C48.6779 36.5409 48.669 36.5143 48.6602 36.4611C48.6602 36.4611 48.6336 35.6815 48.7488 35.2207L49.05 35.2385C49.1121 35.3891 49.1829 35.5397 49.2715 35.6815C49.3424 35.7966 49.4399 35.903 49.5551 36.0181C49.688 36.1333 49.8032 36.2042 49.9006 36.2396C50.0158 36.2928 50.1487 36.3194 50.2816 36.3194C50.4234 36.3194 50.5297 36.3105 50.6095 36.2839C50.7335 36.2574 50.831 36.2131 50.9019 36.1599C50.9816 36.0979 51.0436 36.0181 51.0968 35.9384C51.1411 35.8409 51.1588 35.7346 51.1588 35.6194C51.1588 35.4511 51.1234 35.3093 51.0525 35.2119C50.9816 35.0878 50.893 34.9904 50.7778 34.9018C50.636 34.7866 50.5031 34.7069 50.3791 34.6626C50.2019 34.5651 50.0513 34.4942 49.9184 34.4411C49.7323 34.3525 49.5817 34.2727 49.4488 34.2019C49.3424 34.1487 49.2095 34.0601 49.05 33.9361C48.926 33.812 48.8285 33.688 48.7754 33.5728C48.7045 33.4488 48.669 33.2893 48.669 33.0855C48.669 32.9969 48.6868 32.9083 48.7222 32.8108C48.7576 32.7045 48.8108 32.6159 48.8729 32.5273C48.9349 32.4387 49.0235 32.3413 49.1298 32.2438C49.2273 32.1552 49.3513 32.0755 49.493 32.0134C49.5994 31.9514 49.7589 31.8894 49.9715 31.8451C50.2108 31.8008 50.3968 31.7742 50.5563 31.7742C50.9107 31.7742 51.1411 31.8363 51.2208 31.8451C51.3006 31.8628 51.6195 31.9426 51.717 31.9957C51.8056 32.0312 51.8765 32.0755 51.9385 32.1286C51.9562 32.1463 51.9562 32.1729 51.9385 32.2084C51.779 32.7222 51.4689 33.1121 51.4689 33.1121C51.4689 33.1121 51.5044 32.9083 51.1854 32.5805C51.0436 32.4299 50.8487 32.3501 50.6006 32.2793C50.512 32.2527 50.4323 32.2438 50.3614 32.2438C50.2285 32.2438 50.1221 32.2615 50.0424 32.297C49.9538 32.3324 49.8829 32.3678 49.8209 32.421C49.7766 32.4564 49.7323 32.5185 49.6969 32.6071C49.6792 32.6602 49.6703 32.7311 49.6703 32.8108C49.6703 32.9437 49.6969 33.0501 49.7589 33.1387C49.8564 33.245 49.9538 33.3336 50.0513 33.4045C50.1842 33.5019 50.3171 33.5728 50.45 33.6348L50.9107 33.8563C51.0525 33.9183 51.2031 34.0069 51.3803 34.1133C51.4866 34.1753 51.6195 34.2816 51.779 34.4145C51.9031 34.5474 51.9917 34.6803 52.0626 34.8221C52.1157 34.9727 52.1511 35.141 52.1511 35.3448H52.16Z" fill="white"/>
<path d="M24.8082 50.1675L24.8791 49.0068L24.6222 48.9802L24.2677 48.9537H23.7627L23.4791 48.8916L23.2842 48.8562L22.9918 48.7942L22.7969 48.741L22.6463 48.6702C22.6463 48.6702 22.5577 48.6967 22.5311 48.5727C22.5045 48.4487 22.7438 48.4841 22.5045 48.4487C22.2653 48.4132 22.4159 48.4221 22.2653 48.4132C22.1147 48.4044 22.2033 48.5018 22.1147 48.4043C22.0261 48.3069 22.0438 48.3955 22.026 48.3069C22.0172 48.2183 22.2122 48.1651 22.0172 48.2183C21.9818 48.2272 21.9641 48.236 21.9552 48.236C21.9906 48.2449 21.9109 48.2537 21.9552 48.236C21.9463 48.236 21.9197 48.2272 21.8843 48.2272H21.8045L22.9387 50.832V50.8497L24.0462 52.0103L23.1691 50.8497L24.9765 50.7522L26.0663 51.8863L25.0563 50.5485L24.8259 50.1763L24.8082 50.1675Z" fill="white"/>
<path d="M40.0922 41.272L40.4289 40.5455H37.8506L38.0633 41.2543V44.4705H36.0431L36.1406 40.9797L36.3532 40.5898L33.7572 40.6076L34.0406 41.3341L33.8369 49.4232L33.4205 50.4952H36.2203L35.7595 49.5206L35.857 46.5348L38.0544 46.5083L38.1075 49.37L37.7088 50.4952H40.4821L40.0391 49.4498L40.0834 41.2809L40.0922 41.272Z" fill="white"/>
<path d="M60.6482 50.8408L60.1432 50.1054L59.6116 41.4847L59.8419 40.8822L57.3699 40.7936L57.6888 41.3872L57.8572 45.1616L55.1814 40.7316L53.0903 40.6607L53.2853 41.0417L53.746 49.689L53.427 50.6193L56.2092 50.6547L55.6865 49.8839L55.4383 45.2767L58.4774 50.7522L60.6305 50.8319L60.6482 50.8408Z" fill="white"/>
<path d="M9.08114 44.3996L9.0634 44.5148L9.97604 45.0996H10.49C10.49 45.0996 10.4368 45.0464 10.7291 45.0996C10.7646 45.1084 10.8001 45.1084 10.8266 45.1173C10.7469 45.0996 10.9241 45.0996 10.9241 45.0996C10.9241 45.0996 10.9861 45.135 10.8266 45.1173C10.8532 45.1262 10.9064 45.135 11.0127 45.1527C11.4203 45.2148 11.1722 45.197 11.1722 45.197L11.4203 45.2148H11.7215L12.2177 39.9608L6.58252 40.3418L9.4001 41.7062L9.08114 44.3908V44.3996Z" fill="white"/>
<path d="M17.0288 46.5881L16.9491 46.5526L16.7542 46.4552L16.5327 46.4197L16.0897 46.3577H15.9745L15.7795 46.3311H15.3454L15.4428 46.4463L15.1859 46.2691L14.9644 46.2248L14.8314 46.1362L14.5834 46.0831L14.3884 46.0476L14.0252 49.6713L13.3252 50.2915L11.5975 50.389L11.3051 50.0169L11.7303 45.454C11.5177 45.4363 11.8101 45.4806 11.5177 45.4363C11.3671 45.4097 11.3139 45.4008 11.2962 45.4008H10.8709C10.8709 45.4008 11.119 45.4806 10.6937 45.4008C10.2684 45.3211 10.2684 45.3122 10.2684 45.3122L10.0469 45.2502C10.0469 45.2502 10.0203 45.2325 10.0026 45.2236C9.95831 45.1971 9.89624 45.1528 9.89624 45.1528C9.89624 45.1528 9.83427 45.0996 10.0026 45.2236C10.0558 45.2591 10.0735 45.2679 9.8254 45.0907C9.46212 44.8427 9.51525 45.0464 9.28488 44.9401C9.24944 44.9224 9.15199 44.7895 9.08111 44.7186L8.27484 51.337L9.7545 52.7635L11.624 54.6329L10.1444 52.8166L14.3087 52.6483L15.8593 54.1899L14.6543 52.6305H14.6808L16.4972 50.894L17.9769 52.3648L16.6921 50.6991L17.082 46.5969L17.0288 46.5881Z" fill="white"/>
<path d="M14.6277 45.9235C14.6986 45.8881 14.9112 46.021 14.9112 46.021L15.1505 46.145L15.3454 46.2159H15.939L16.444 46.2868H16.6922L16.9845 46.3842L17.0465 46.4108L17.6225 40.5367L17.9414 39.5975L14.9909 39.7747L14.3708 45.9235C14.4594 45.9324 14.5745 45.9324 14.6188 45.9147L14.6277 45.9235Z" fill="white"/>
<path d="M20.2628 50.2649L20.4578 48.2005L20.3249 48.0411L19.8819 47.917L19.4654 47.7487L19.2528 47.6601L18.8718 47.4917L18.6503 47.288L18.5705 47.2348L18.3136 50.2649L17.968 51.0357L19.0845 52.2052L18.1984 51.0269L20.4135 50.9205V50.9383L21.5299 52.0989L20.6173 50.8851L20.2806 50.2738L20.2628 50.2649Z" fill="white"/>
<path d="M22.097 48.0056H22.283L22.4425 48.0676H22.8235L23.0184 48.2005L23.364 48.2891L23.5589 48.3512L23.8425 48.4752L24.188 48.5727H24.3741C24.4981 48.5638 24.7108 48.5727 24.7108 48.5727L24.8702 48.6258L25.3487 41.2189L25.6322 40.8025L23.0893 40.8734L23.3551 41.5467L23.0096 45.6046L20.8654 40.9974L18.6946 41.1214L18.987 41.7416L18.5263 47.1196H18.5971L19.0047 47.1816L19.2174 47.2791L19.4123 47.4031L19.6338 47.4652L19.9173 47.5538L20.2717 47.6069L20.449 47.7221L20.635 45.7286L21.5919 47.917L21.7514 47.9436L22.0438 47.9879L22.097 48.0056Z" fill="white"/>
<path d="M32.2332 43.2478H31.8611L31.4446 43.363L31.2674 43.4605L31.3294 43.6731C31.2674 43.806 31.0902 44.0098 31.0902 44.0098L30.8776 44.3642L30.5054 44.5679V44.8692L32.7648 43.9212V43.3364L32.4458 43.2921L32.2509 43.239L32.2332 43.2478Z" fill="white"/>
<path d="M27.8384 40.7582L26.3588 42.0517L25.9424 49.37L27.3157 50.6636L30.9573 50.5395L32.5078 49.0688L32.6053 45.7817L30.4079 46.7563L30.3548 48.3245L29.8763 48.7675H28.5118L28.1663 48.422L28.4853 42.8934L28.6802 42.5745L30.5497 42.6453L30.4877 44.5414L30.7358 44.3464L30.8067 44.2224L30.8864 44.0984L31.1788 43.6908L31.0459 43.5313L31.2408 43.3364L31.5243 43.2655V43.1415H32.5256C32.5256 43.1415 32.7382 43.2389 32.7382 43.2655V41.91L31.3914 40.6607L27.8296 40.767L27.8384 40.7582Z" fill="white"/>
<path d="M48.4564 49.3081L48.3944 49.3258L48.2703 49.4764L47.8628 49.7333L47.6147 49.9814L47.5438 50.1143L47.6678 50.1497L47.8539 50.0257L47.8185 50.1586C47.8185 50.1586 47.4641 50.2472 47.4197 50.2561C47.3843 50.2649 47.0831 50.389 47.0831 50.389L46.8527 50.513H49.0235L48.607 49.8308L48.4741 49.2992L48.4564 49.3081Z" fill="white"/>
<path d="M47.3843 50.1231V49.9725L48.1108 49.3877L48.2615 49.2903L48.4121 49.1485L46.4628 41.1037L46.6932 40.581L43.0073 40.5632L43.3617 41.1303L41.5365 49.751L41.1378 50.5041H44.0794L43.8313 49.8839L44.0794 48.2714H45.9046L46.2236 49.751L45.8869 50.5661H46.6666L46.8261 50.3889L47.3843 50.1497V50.1231ZM44.3541 46.3665L44.9034 43.0972L45.559 46.3665H44.3629H44.3541Z" fill="white"/>
<path d="M49.7677 48.4841L49.8475 48.4486L50.0336 48.3512L50.2551 48.236L50.3879 48.112L50.4854 47.9791L50.7601 47.917L51.1234 47.8284L51.3626 47.6335L51.5752 47.4475L51.717 47.3323L51.9208 47.226L51.7613 41.2632L51.9917 40.6608L49.3956 40.6165L49.6703 41.1569L49.7411 48.4929L49.7677 48.4841Z" fill="white"/>
<path d="M51.9562 47.7752L51.779 47.8018L51.5664 47.8638L51.3271 48.0233L51.1499 48.2625L50.9284 48.3511L50.6803 48.3866H50.3791L50.1842 48.4486C50.069 48.5106 49.9981 48.546 49.9981 48.546L49.8652 48.6346L49.7677 48.6789V50.1408L49.5551 50.5395L52.4524 50.6015L52.0094 49.5472L51.9828 47.7664L51.9562 47.7752Z" fill="white"/>
<path d="M65.929 42.3352C65.9644 42.5302 65.9289 42.3352 66.0176 42.4859C66.1062 42.6365 66.0176 42.4859 66.0264 42.6453V42.7782H66.5226L67.2225 43.0086L66.62 41.21H66.434L66.3454 41.4315L66.0973 41.7682L66.0264 41.91C66.0264 41.91 65.9023 42.1315 65.9378 42.3264L65.929 42.3352Z" fill="white"/>
<path d="M68.0732 51.2395V51.2218L68.339 48.9891C68.339 48.9891 67.9668 49.308 66.6643 49.2637C65.3707 49.2106 63.9177 49.1131 63.9177 49.1131L63.7227 46.4994L66.1505 46.5703L66.6555 46.7209L66.5315 44.6477L65.734 44.8249L63.5367 44.7717L63.4126 42.6985L65.7252 42.7517V42.415L65.8138 42.2378L65.9112 41.9986L65.9998 41.6796L66.0885 41.1746L60.9672 40.9177L61.2596 41.3607L61.7646 50.3003L61.5254 50.8231L60.6039 52.0457L61.7203 50.8762L67.8605 51.204L66.9745 52.3736L68.082 51.2306L68.0732 51.2395Z" fill="white"/>
<path d="M69.2161 46.7386C69.3756 46.6943 69.5085 46.6589 69.5085 46.6589L69.9515 46.4728H70.111L70.2262 46.3488H70.4743C70.6072 46.2868 70.687 46.207 70.687 46.207H70.8641L70.9882 46.1539L71.3249 46.083C71.3249 46.083 71.3072 46.0564 71.4578 46.083C71.6084 46.1096 71.4489 46.0741 71.6084 46.1096L71.7679 46.145L71.3249 42.0252L73.5488 42.1669L74.24 42.9111L74.5234 45.4894L75.1525 45.4185L75.4981 45.3476H76.0652L76.1892 45.2767H76.8183L76.9955 45.2059C76.9955 45.2059 77.0664 45.1704 77.1107 45.2059C77.155 45.2413 77.1461 45.2413 77.1461 45.2413L77.2081 45.2236L76.7651 41.6619L79.6359 40.4392L68.02 39.7659C68.02 39.7659 68.649 40.8379 68.649 40.8911C68.6225 40.9088 68.9149 43.9389 69.1984 46.7475L69.2161 46.7386Z" fill="white"/>
<path d="M77.0132 45.5691L76.7563 45.516C76.7563 45.516 76.7297 45.516 76.5614 45.4628C76.3842 45.4097 76.4994 45.3831 76.3842 45.4097L76.269 45.4362L75.8437 45.4717H75.6665C75.5336 45.516 75.3741 45.5426 75.3741 45.5426H75.0374L74.7007 45.6046H74.5589L75.0374 49.8662L74.4703 50.4067L72.2287 50.2472L71.7945 46.2159H71.1743L70.9617 46.3577H70.7401L70.5186 46.4994H70.3148L70.1199 46.6678L69.9427 46.6943L69.5971 46.8184C69.5971 46.8184 69.482 46.907 69.4377 46.9158C69.3845 46.9247 69.6326 46.9247 69.3845 46.9247H69.2604C69.4908 49.2637 69.6946 51.3901 69.6946 51.3901L69.287 52.471L67.7188 54.4025L69.5883 52.5419L75.9943 52.9406L74.4792 54.81L76.331 52.9672H76.3399L77.9879 51.1509L77.2879 45.6577L77.0576 45.578L77.0132 45.5691Z" fill="white"/>
<path d="M65.8935 42.5479L65.8581 42.6011L65.7872 42.6542V42.7694L65.9378 42.7428V42.5922L65.9112 42.5036L65.8935 42.5479Z" fill="white"/>
<path d="M53.8258 34.3613L53.5245 34.6626L71.4401 34.379L53.8258 34.3613Z" fill="white"/>
<path d="M53.8258 34.2107L53.5245 33.9006L71.4401 34.2284L53.8258 34.2107Z" fill="white"/>
<path d="M32.2331 34.3613L32.5432 34.6626L14.6277 34.379L32.2331 34.3613Z" fill="white"/>
<path d="M32.2331 34.2107L32.5432 33.9006L14.6277 34.2284L32.2331 34.2107Z" fill="white"/>
</svg>
