<svg width="58" height="58" viewBox="0 0 58 58" fill="none" xmlns="http://www.w3.org/2000/svg">
<path d="M28.715 57.43C44.5739 57.43 57.43 44.5739 57.43 28.715C57.43 12.8561 44.5739 0 28.715 0C12.8561 0 0 12.8561 0 28.715C0 44.5739 12.8561 57.43 28.715 57.43Z" fill="#00E6AE"/>
<path d="M29.2644 35.0064C29.2644 34.8302 29.2644 34.6539 29.2644 34.4835C29.2644 32.7502 29.2644 31.011 29.2644 29.2777C29.2644 28.32 29.5406 28.038 30.4866 28.0556C31.368 28.0732 32.2552 28.0909 33.1366 28.1672C34.9111 28.3259 36.1392 29.7125 36.0745 31.4164C36.0393 32.3037 35.5751 32.95 34.8289 33.4377L36.4095 36.3813C35.5398 36.2814 34.7995 36.2109 34.065 36.1052C33.9534 36.0875 33.8417 35.9172 33.7712 35.7938C33.4892 35.3237 33.2189 34.8419 32.9486 34.3601C32.5432 33.6492 32.4962 33.6257 31.5619 33.7608V35.8878H27.1726L26.8671 34.8889C25.8036 34.9771 24.7459 35.0476 23.6941 35.1768C23.5355 35.1945 23.3416 35.4354 23.2711 35.6175C23.0889 36.0699 22.7775 36.2462 22.3074 36.2756C21.761 36.3108 21.2204 36.3813 20.5682 36.4518C21.0147 35.5646 21.4202 34.7479 21.8315 33.943C22.6424 32.3683 23.4356 30.7878 24.2876 29.2425C24.4991 28.8547 24.8576 28.4787 25.2395 28.2613C26.2795 27.6737 27.4018 28.179 27.7015 29.3306C28.1598 31.0874 28.5946 32.856 29.0411 34.6187C29.0764 34.7538 29.1293 34.8889 29.1704 35.0241L29.2644 35.0064ZM31.5795 29.9358V31.8395C31.6383 31.8571 31.697 31.8983 31.7558 31.8983C32.1024 31.9159 32.455 31.9335 32.8017 31.9276C33.401 31.9218 33.7653 31.6162 33.8065 31.1109C33.8476 30.5704 33.4833 30.1003 32.9251 30.0239C32.5138 29.9652 32.0966 29.9652 31.5795 29.9358ZM26.4793 33.1086L25.8329 30.5704L24.4404 33.2496C25.1807 33.1968 25.7859 33.1556 26.4734 33.1086H26.4793Z" fill="white"/>
<path d="M41.5919 24.7242V28.5962L39.4061 28.1614V20.3821C40.593 20.4468 41.6389 20.6818 42.203 21.9568C42.6437 22.9615 43.243 23.8957 43.7777 24.8652C43.8541 25.0062 43.9482 25.1414 44.1186 25.2648V21.2576L46.2221 21.7335C46.2985 24.4304 46.3807 27.1038 46.4571 29.7948C45.0822 29.6009 44.0128 29.1661 43.4369 27.8559C43.0139 26.8982 42.438 26.0051 41.9327 25.0826C41.8563 24.9475 41.7741 24.8182 41.6918 24.6831L41.5919 24.7183V24.7242Z" fill="white"/>
<path d="M44.0833 38.097C43.2724 37.8679 42.4498 37.674 41.6566 37.392C41.4098 37.3038 41.2218 36.9924 41.0572 36.7515C40.5167 35.9348 39.9996 35.1005 39.4707 34.2603C38.9419 34.5717 38.6599 34.936 38.7363 35.5412C38.7833 35.9348 38.748 36.3344 38.748 36.8162C37.9607 36.681 37.2497 36.5635 36.4858 36.4342V28.5668L38.6658 28.8606V31.7338C39.1652 31.2755 39.6177 30.9758 39.9232 30.5645C40.7752 29.4305 41.8094 29.1661 43.0962 29.7184C43.3665 29.836 43.672 29.8653 44.0774 29.9711C42.9904 30.9582 41.9739 31.8807 40.928 32.8325C42.0209 34.5658 43.0903 36.2639 44.1656 37.9678L44.0892 38.1029L44.0833 38.097Z" fill="white"/>
<path d="M24.0643 24.6184L25.639 27.3329C24.8517 27.3917 24.1466 27.4563 23.4415 27.4798C23.3239 27.4798 23.1594 27.3153 23.083 27.1861C22.7716 26.6925 22.4602 26.199 22.1899 25.6819C21.9255 25.1707 21.5024 25.3764 21.1323 25.4175C20.7503 25.4586 20.8326 25.7994 20.8267 26.0521C20.8208 26.5985 20.8267 27.1508 20.8267 27.7736L18.6703 28.0909C18.6527 27.8676 18.635 27.709 18.635 27.5504C18.6703 25.4821 18.6997 23.4139 18.7408 21.3398C18.7525 20.5936 19.017 20.247 19.7456 20.1354C20.6857 19.9943 21.6317 19.8592 22.5777 19.8004C23.8763 19.7241 24.7988 20.2587 25.1983 21.2341C25.6684 22.3681 25.4158 23.4844 24.4756 24.3775C24.3699 24.4774 24.2171 24.5303 24.0702 24.6126L24.0643 24.6184ZM20.8972 21.7159V23.7665C21.473 23.6783 22.0077 23.6431 22.5131 23.5021C23.0008 23.361 23.2769 22.8381 23.2064 22.3563C23.1477 21.945 22.9126 21.6395 22.5013 21.6278C21.9784 21.6043 21.4495 21.6865 20.8972 21.7276V21.7159Z" fill="white"/>
<path d="M34.8994 21.6513V22.6971L38.0665 23.1437C38.0958 23.7077 38.1193 24.2483 38.1546 24.8887L34.9346 24.5068V25.5585L38.8068 26.1049V28.0556C38.1428 27.9675 37.5023 27.8735 36.8619 27.7971C35.8336 27.6737 34.8054 27.5621 33.7712 27.4563C33.0426 27.38 32.7077 27.0627 32.6959 26.3341C32.6665 24.4128 32.6548 22.4915 32.6548 20.5701C32.6548 19.9943 32.9368 19.6712 33.4715 19.7123C35.199 19.8416 36.9265 20.012 38.701 20.1647V22.1213L34.8994 21.6395V21.6513Z" fill="white"/>
<path d="M31.3856 24.2189H28.1833V25.3176H32.0672V27.3153C31.8733 27.3271 31.7146 27.3447 31.5501 27.3388C30.0459 27.3212 28.5417 27.2977 27.0434 27.2859C26.209 27.2801 25.9387 27.0215 25.9387 26.1696C25.9446 24.3305 25.9563 22.4973 25.9681 20.6583C25.9739 19.8709 26.2325 19.5654 27.0022 19.5537C28.6651 19.5302 30.3338 19.5478 32.0437 19.5478V21.381H28.195V22.4621H31.3856V24.2189Z" fill="white"/>
<path d="M17.5245 34.7773V37.0394C16.7606 37.2157 16.0555 37.3802 15.2917 37.5565C15.2917 36.681 15.2858 35.8702 15.2917 35.0652C15.3093 33.6316 15.3445 32.1979 15.3622 30.7643C15.3739 29.8183 15.6853 29.4129 16.602 29.2366C17.6479 29.0369 18.6996 28.8371 19.7573 28.6961C21.7198 28.4317 23.0595 30.1238 22.3897 31.9923C21.9137 33.326 20.9207 34.0605 19.581 34.366C18.917 34.5188 18.2472 34.6422 17.5245 34.7891V34.7773ZM17.5774 32.903C18.3001 32.7385 19.0052 32.6562 19.6339 32.3918C19.9336 32.2684 20.1862 31.8336 20.2861 31.487C20.433 30.9817 20.0335 30.541 19.5046 30.5939C18.87 30.6585 18.2413 30.8113 17.5774 30.9288V32.903Z" fill="white"/>
<path d="M16.4139 23.1025C14.6629 22.2153 13.0001 23.9897 13.0706 25.3646C13.1 25.9698 13.4055 26.4692 13.9226 26.6631C14.4514 26.8629 15.4386 26.7278 15.7206 26.3693C15.844 26.2166 15.891 25.9757 15.9027 25.77C15.9321 25.3764 15.9086 24.9768 15.9086 24.5362L18.0063 24.1308C18.0063 25.0297 18.0239 25.8758 17.9887 26.716C17.9828 26.8805 17.783 27.0509 17.642 27.1919C16.6079 28.2789 15.3798 28.9252 13.8344 28.9076C12.1069 28.8841 10.9906 27.7912 10.9671 26.0521C10.9318 23.5549 13.1 21.0696 15.5737 20.7875C16.3787 20.6935 17.1308 20.8639 17.8476 21.428L16.4022 23.1201L16.4139 23.1025Z" fill="white"/>
</svg>
