<svg width="58" height="58" viewBox="0 0 58 58" fill="none" xmlns="http://www.w3.org/2000/svg">
<path d="M28.7 57.4C44.5506 57.4 57.4 44.5506 57.4 28.7C57.4 12.8494 44.5506 0 28.7 0C12.8494 0 0 12.8494 0 28.7C0 44.5506 12.8494 57.4 28.7 57.4Z" fill="#838383"/>
<path d="M33.8537 37.2882V37.0388C33.8537 34.6787 33.8537 32.3245 33.8537 29.9644C33.8537 29.8426 33.8303 29.715 33.7833 29.5991C33.5191 28.8916 33.2491 28.19 32.9791 27.4883C32.85 27.1462 32.9791 26.9433 33.3548 26.9433C35.7791 26.9433 38.2034 26.9433 40.6277 26.9375C40.9271 26.9375 41.1502 27.1752 41.0034 27.4883C40.6864 28.19 40.3988 28.909 40.1053 29.6223C40.0525 29.744 40.0231 29.889 40.0231 30.0224C40.0231 33.374 40.0231 36.7315 40.0231 40.0831C40.0231 40.1411 40.0231 40.2049 40.0231 40.2629C40.0231 40.6572 39.8059 40.779 39.4478 40.605C38.4852 40.1295 37.5166 39.6482 36.5539 39.1785C36.4835 39.1438 36.372 39.1264 36.3074 39.1611C35.1686 39.7468 33.9535 40.1179 32.6973 40.3615C30.3434 40.8196 27.9837 40.837 25.6474 40.2803C22.2487 39.4685 19.5426 37.6651 17.8227 34.5976C16.6487 32.4984 16.185 30.2253 16.4021 27.8305C16.6252 25.3602 17.494 23.1451 19.1435 21.2547C20.834 19.3179 22.9824 18.1176 25.4713 17.4913C27.2382 17.0506 29.0403 16.9637 30.8542 17.1144C32.5506 17.2594 34.1883 17.6247 35.7615 18.28C37.0353 18.8135 38.1564 19.5673 39.1543 20.5125C39.3657 20.7154 39.3657 20.9474 39.1426 21.1329C37.5577 22.455 35.9728 23.783 34.3879 25.1051C34.2411 25.2268 34.1003 25.2268 33.9711 25.0819C33.9007 25.0065 33.8537 24.9137 33.8009 24.8267C33.2021 23.8062 32.5154 22.861 31.582 22.1071C30.5724 21.2953 29.4277 20.7502 28.1011 20.698C26.0936 20.6227 24.6437 21.5331 23.6751 23.2321C23.0764 24.2816 22.8181 25.4182 22.7829 26.6069C22.7418 27.9464 22.8298 29.2685 23.2642 30.5501C23.8629 32.3245 24.9607 33.7336 26.4517 34.8643C28.1129 36.1226 30.003 36.8359 32.0634 37.12C32.6386 37.2012 33.2256 37.2244 33.842 37.2824L33.8537 37.2882Z" fill="white"/>
</svg>
