<svg width="58" height="58" viewBox="0 0 58 58" fill="none" xmlns="http://www.w3.org/2000/svg">
<path d="M28.715 57.43C44.5739 57.43 57.43 44.5739 57.43 28.715C57.43 12.8561 44.5739 0 28.715 0C12.8561 0 0 12.8561 0 28.715C0 44.5739 12.8561 57.43 28.715 57.43Z" fill="#25B8EE"/>
<path d="M33.3555 25.7171C33.3555 29.2072 33.3555 32.7032 33.3555 36.1933C33.3555 37.0276 33.3203 37.057 32.4977 37.057C30.9406 37.057 29.3776 37.057 27.8205 37.057C27.0037 37.057 26.9685 37.0217 26.9685 36.1874C26.9685 34.1486 26.9685 32.1097 26.9685 30.0709C26.9685 29.0192 26.9156 28.9722 25.8873 28.978C25.0236 28.978 24.959 29.0485 24.959 29.9416C24.959 32.0686 24.959 34.2014 24.959 36.3284C24.959 36.9747 24.8826 37.0511 24.2362 37.057C22.5851 37.0628 20.9399 37.0628 19.2888 37.057C18.6424 37.057 18.5602 36.963 18.5602 36.3284C18.5602 29.2542 18.5602 22.18 18.5602 15.1058C18.5602 14.4712 18.6365 14.3948 19.2476 14.3889C20.9281 14.3889 22.6027 14.3889 24.2832 14.3889C24.8943 14.3889 24.959 14.4594 24.959 15.0588C24.959 17.2151 24.959 19.3773 24.959 21.5337C24.959 22.3562 25.0471 22.4444 25.8462 22.462C26.8921 22.4855 26.9685 22.4091 26.9685 21.3574C26.9685 19.2716 26.9685 17.1916 26.9685 15.1058C26.9685 14.4359 27.0155 14.3889 27.6795 14.3831C29.313 14.3772 30.9464 14.3772 32.5799 14.3831C33.3144 14.3831 33.3438 14.4183 33.3438 15.1469C33.3438 18.6723 33.3438 22.1917 33.3438 25.7171H33.3555Z" fill="white"/>
<path d="M38.6027 41.0582C38.4558 40.9348 38.3559 40.8526 38.2619 40.7644C37.2454 39.748 36.223 38.7315 35.23 37.6974C35.0772 37.5329 34.9597 37.2626 34.9538 37.0393C34.9421 30.3118 34.9538 23.5901 34.9538 16.8625C34.9538 16.7157 34.9715 16.5688 34.9832 16.3572C35.1242 16.463 35.2241 16.5159 35.3005 16.5923C36.3229 17.5559 37.357 18.5195 38.3618 19.5007C38.5028 19.6358 38.6145 19.8767 38.6145 20.0706C38.6262 26.9333 38.6203 33.7901 38.6145 40.6528C38.6145 40.7644 38.5969 40.8761 38.5851 41.0582H38.6027Z" fill="white"/>
<path d="M29.172 42.6799C28.9369 42.6975 28.79 42.7152 28.6431 42.7152C27.1272 42.7152 25.6171 42.7034 24.1011 42.721C23.6663 42.721 23.3373 42.5859 23.0317 42.2745C21.9917 41.2169 20.9223 40.1828 19.8705 39.1428C19.7471 39.0194 19.6355 38.8902 19.4298 38.6669C19.6942 38.6434 19.847 38.6199 19.9998 38.6199C21.5451 38.6199 23.0846 38.6081 24.6299 38.6316C24.8885 38.6316 25.2175 38.7256 25.3997 38.9019C26.616 40.0594 27.797 41.2463 28.9957 42.4273C29.0486 42.4743 29.0779 42.5448 29.1778 42.6799H29.172Z" fill="white"/>
<path d="M27.6384 38.6669C27.891 38.6434 28.032 38.6199 28.1731 38.6199C29.7302 38.6199 31.2873 38.6081 32.8502 38.6316C33.1088 38.6316 33.432 38.7374 33.6141 38.9137C34.8069 40.0712 35.9644 41.2639 37.1337 42.4449C37.1807 42.4978 37.216 42.5624 37.2983 42.674C37.0985 42.6917 36.9574 42.7093 36.8105 42.7093C35.2828 42.7093 33.7551 42.7093 32.2274 42.7093C31.8572 42.7093 31.5693 42.6094 31.3049 42.345C30.2061 41.2404 29.0897 40.1534 27.985 39.0547C27.8851 38.9548 27.797 38.8432 27.6325 38.661L27.6384 38.6669Z" fill="white"/>
</svg>
