<?xml version="1.0" encoding="utf-8"?>
<!-- Generator: Adobe Illustrator 26.3.1, SVG Export Plug-In . SVG Version: 6.00 Build 0)  -->
<svg version="1.1" id="katman_1" xmlns="http://www.w3.org/2000/svg" xmlns:xlink="http://www.w3.org/1999/xlink" x="0px" y="0px"
	 viewBox="0 0 256 256" style="enable-background:new 0 0 256 256;" xml:space="preserve">
<style type="text/css">
	.st0{fill:#FFFFFF;}
	.st1{fill:#1E3A2B;}
</style>
<g>
	<path class="st0" d="M97.9,113.1c2.6-2.3,5.4-2.5,8.1-0.8c0.7-5.3-2.4-7.6-9.3-6.8c-0.4,2-0.2,4.1,0.6,6.4
		C97.5,112.3,97.7,112.7,97.9,113.1z M104.7,110.1c-3.2-0.5-5.4,0.1-6.6,1.8C99.2,109.6,101.4,109,104.7,110.1z"/>
	<path class="st0" d="M153,164.7c-1.6,2.6-1.5,5.8-1,8.7c1.3,6.8,2.1,13.1,2.3,18.8c0.4,0.5,0.9,1.4,1.3,2.7
		c0.9-2.1,1.6-4.4,2.1-7.1c0.6-3.5,0.8-7.4,0.6-11.9c-0.9-1.2-2-2.6-3.1-4.3C153.7,169.5,152.3,167.5,153,164.7z"/>
	<path class="st0" d="M204.1,90.4c0.2,0.3,0.3,0.6,0.4,0.9c0.3,0.5,0.5,1,0.7,1.5c0,0.1,0.1,0.2,0.1,0.3c0.1,0.3,0.2,0.5,0.4,0.8
		c0.1,0.2,0.2,0.4,0.2,0.5c0.1,0.2,0.2,0.3,0.2,0.5c0.3,0.6,0.5,1.2,0.8,1.9l0.8,2.1l4.6-1.6c-1.8-4.8-4-9.5-6.6-14l-10.2,6
		l-0.2,0.1l-0.1,0l-0.1,0l0,0.1l0-0.2l-0.2-0.1h0l-0.2,0l0-0.1l-0.1,0l0,0.1l-0.1,0h0c-2.5-5-5.2-8.2-8.5-11.9l0.1-0.1v0
		c-1-0.1-0.3-0.3-0.3-0.5c0-0.2,0-0.4,0.2-0.5l4.7-4.1c0.1-0.1,0.3-0.2,0.5-0.2c0.2,0,0.4,0.1,0.5,0.2l1.6,1.9
		c0.2,0.2,0.4,0.4,0.5,0.6l0.2,0.2c0.1,0.1,0.2,0.3,0.3,0.4c0.1,0.2,0.3,0.3,0.4,0.5l0.2,0.2c0.2,0.2,0.4,0.5,0.5,0.7l0.1,0.1
		c0.3,0.4,0.6,0.8,0.9,1.2l1,1.4l4-2.8c-2.9-4.2-6.3-8.2-9.9-11.9l-8.3,8.4l-0.1,0.1l-0.1,0l-0.1-0.5l-0.1-0.6h-0.1l-0.1,0l-0.1,0h0
		l-0.1,0.6l-0.1-0.2l-0.1-0.4h-0.1l-0.1,0.5l-0.1-0.3l-0.1-0.3h0v1l0-0.5l-0.1-0.5h0c-3.4-3-7.2-6.1-11.3-8.8
		c-0.2-0.1-0.3,0-0.3-0.2c0-0.2,0-0.3,0.1-0.4l3.5-5.1c0.1-0.2,0.3-0.2,0.5-0.3c0.2,0,0.4,0,0.5,0.1l0,0l3,2.1l2.9,2.3
		c0.1,0.1,0.2,0.1,0.2,0.2l0.2,0.2c0.1,0.1,0.3,0.3,0.4,0.4l0.5,0.4l3.2-3.7c-3.9-3.3-8.2-6.4-12.6-9l-5.9,10.3l-0.1,0.1l-0.1,0.1
		l0-0.4l-0.1-0.3h0l-0.1,0l0,0h0l-0.2,0.5l0,0.3l0,0.1l-0.1,0l0-0.1l-0.2-0.2l0,0c-4.2-2.9-8.6-4.3-13.2-5.9l0,0.1
		c-0.4-0.1-0.6-0.5-0.4-0.9l2.1-5.9c0.1-0.4,0.5-0.6,0.9-0.4c0.3,0.1,0.5,0.2,0.8,0.3l0.1,0c0.1,0,0.2,0.1,0.3,0.1
		c0.2,0.1,0.4,0.1,0.5,0.2l0.1,0c0.2,0.1,0.3,0.1,0.5,0.2l1.1,0.4l1.2,0.5l2.3,1c0.2,0.1,0.4,0.2,0.5,0.2c0.4,0.2,0.7,0.3,1.1,0.5
		l2.1-4.4c-4.7-2.2-9.5-4-14.5-5.4l-3.1,11.5l-0.1,0.2l0,0l-0.1,0.2l0,0c-0.1,0.1-0.3,0.1-0.4,0.1l0,0l0,0.4l-0.2,0.4h0
		c-4.7-2-9.5-3-14.3-3h0c-0.2,0-0.4-0.2-0.5-0.4c-0.1-0.1-0.2-0.4-0.2-0.6l0.5-6.4c0-0.4,0.4-0.7,0.8-0.7h0h0l0.7,0.1l0.5,0l0,0
		c0.4,0,0.8,0.1,1.3,0.1l3.7,0.5l3,0.5l0.9-4.8c-5.1-0.9-10.2-1.4-15.4-1.5L128.7,50c0,0.4-0.3,0.7-0.7,0.7l-0.8,0
		c-5.1,0-10.9,0.6-14.9,1.7v0.8h-0.4h0l-0.1-0.5l0-0.5h-0.2l-0.1,0l-0.1-0.1l0,0c-0.2-0.1-0.3-0.3-0.3-0.5l-1.3-6.2
		c-0.1-0.3,0.1-0.7,0.4-0.8l0,0l0.1,0.3l0,0.3h0l0-0.3c0.2-0.1,0.5-0.2,0.7-0.2c0.3,0,0.5-0.2,0.8-0.2l1-0.2c0.3,0,0.6-0.1,0.8-0.2
		l0,0c0.5-0.1,1.1-0.2,1.6-0.3l2.5-0.3l1.2-0.1c0.2,0,0.4,0,0.5-0.1l-0.4-4.9c-5.2,0.5-10.3,1.4-15.2,2.7l3.2,11.4
		c0.1,0.4-0.1,0.6-0.5,0.7c-4.7,1.3-9.2,3.9-13.5,4.9h0.3v0.4L93,58.8l-0.1,0l-0.2,0l-0.1,0l-0.1,0l0,0l0,0l-0.1,0l-0.1,0l-0.1,0
		l-0.1-0.1l-0.1,0L92,58.6l0-0.1l-0.1-0.1l-2.8-5.6c-0.2-0.4,0-0.8,0.3-1c0.1-0.1,0.3-0.1,0.4-0.2c0.9-0.5,1.9-0.9,2.8-1.3
		c0.1,0,0.2-0.1,0.3-0.1c0.4-0.2,0.7-0.3,1.1-0.5c0.6-0.3,1.2-0.5,1.9-0.8l2.1-0.8l-1.6-4.6c-4.8,1.8-9.5,4-14,6.6l6.6,10.2
		c0.2,0.3,0.3,0.8,0.3,1v0c-5,2.5-9,4.8-12.7,7.8h-0.1l-0.2,0.4l0,0.2L76,69.9l0-0.4l-0.1-0.4h0h-0.1h0c-0.2,0-0.4,0.4-0.5,0.2
		L71.1,65c-0.1-0.1-0.2-0.2-0.2-0.4c0-0.2,0.1-0.3,0.2-0.5l0.9-0.7l1-0.9c0.2-0.1,0.3-0.3,0.5-0.4l0.1-0.1c0.2-0.2,0.4-0.3,0.6-0.5
		c0.1-0.1,0.2-0.1,0.2-0.2c0.2-0.1,0.3-0.2,0.5-0.4c0.2-0.2,0.5-0.4,0.7-0.5c0.1-0.1,0.3-0.2,0.4-0.3c0.3-0.2,0.6-0.5,0.9-0.7l1.4-1
		L77,56.3l-1.3-1.9c-4.2,3-8.2,6.3-11.9,9.9l8.4,8.3l0.1,0.1l0,0.1l0,0l0,0.1l0,0l0,0.1l0,0l0,0.1l0,0.1l0,0.1l0,0.1l0,0.4l-0.1,0.2
		h0h0h0.1c-3.4,3-6.1,6.9-9.1,11v-0.1l-0.1,0.4c-0.1,0.2-0.4,0.7-0.6,0.7h-0.1l-0.1-0.5l-0.1-0.2l-0.1-0.1L62,85.3L62,85.2l-5.2-3.5
		c-0.2-0.1-0.3-0.3-0.3-0.5c0-0.2,0-0.4,0.1-0.5l1.2-1.7l0.9-1.3l1.4-1.8l0.9-1.2c0.1-0.2,0.2-0.3,0.4-0.5c0.1-0.1,0.2-0.3,0.4-0.4
		l0.4-0.5l-3.7-3.2c-3.3,3.9-6.4,8.2-9,12.6l10.3,5.9l0.1,0.1l0.1,0.1l0,0l0,0.1l0.1,0c0,0.1,0.1,0.2,0.1,0.3v0l0,0.1l0,0l0,0.1
		L60,89.4l-0.1-0.2h0c-2,5-4.3,8.9-5.9,13.4l0.1,0.1l-0.1,0.2l0,0.1l-0.1,0.1l-0.1,0l-0.1,0.1l-0.1,0l-0.2,0l0,0c-0.1,0-0.2,0-0.2,0
		l-5.9-2.1c-0.4-0.1-0.6-0.5-0.5-0.9c0.1-0.3,0.2-0.5,0.3-0.7c0.1-0.3,0.3-0.7,0.4-1l0-0.1c0.1-0.2,0.1-0.3,0.2-0.5l0.8-2l0.1-0.3
		l1-2.3c0.1-0.2,0.2-0.4,0.2-0.5c0.2-0.4,0.3-0.7,0.5-1.1l-4.4-2.1c-2.2,4.7-4,9.5-5.4,14.5l11.5,3.1l0.1,0.1
		c0.3,0.1,0.4,0.4,0.4,0.7l0.1,0.1c-1.2,4.7-2.3,9.5-2.3,14.3v0c0,0.2-0.2,0.4-0.4,0.5c-0.1,0.1-0.4,0.2-0.6,0.2l-0.1,0l-6.3-0.5
		c-0.4,0-0.7-0.4-0.7-0.8l0-0.4l0.1-0.9l0-0.2l0-0.1l0-0.2l0-0.1c0-0.1,0-0.2,0-0.3l0-0.1c0-0.1,0-0.2,0-0.3l0-0.3l0.4-3.4l0.5-3
		l-4.8-0.9c-0.9,5.1-1.4,10.2-1.5,15.4l11.9,0.1l0.1,0l0.1,0l0.1,0l0.1,0l0.1,0l0.1,0l0,0l0.1,0l0,0l0.1,0.1l0,0.1l0,0.1l0,0.1
		l0,0.1l0,0.1l0,0.1l0,1c0,5.1,0.7,10.2,1.7,15.2h0.7v-0.1c0,0.2-0.5,0.4-0.6,0.5c-0.1,0.2-0.6,0.3-0.8,0.3l-6.2,1.3l-0.2,0
		c-0.2,0-0.4-0.1-0.5-0.2l0,0l-0.1-0.1l0,0c-0.1-0.1-0.1-0.2-0.1-0.2l0,0l0,0l0,0c-0.1-0.2-0.1-0.5-0.1-0.7c0-0.2-0.1-0.5-0.1-0.7
		l-0.2-1c0-0.3-0.1-0.6-0.2-0.9c0-0.1-0.1-0.3-0.1-0.4c-0.1-0.4-0.2-0.7-0.3-1.1l-0.2-0.1l0,0l0-1.3l-0.2-2.3c0-0.2,0-0.4,0-0.5
		l-4.8,0.4c0.5,5.2,1.4,10.3,2.8,15.2l11.4-3.2l0.1,0.6l0.1,0.6h0c0.2,0,0.4-0.5,0.5-0.3l0-0.3l0.1,0l0.1,0.1
		c1.3,4.7,3.1,9.2,5.2,13.5c0.2,0.4,0,0.8-0.3,1l-5.6,2.9c-0.1,0-0.2,0.2-0.3,0.2h0l0-0.1l-0.1-0.2l-0.1,0l-0.1,0l-0.1-0.1l-0.1,0
		l-0.1-0.1l0,0l-0.1-0.1l-0.1,0l-0.1,0v0c-0.5-1.1-1-2.3-1.5-3.5c-0.1-0.3-0.2-0.5-0.3-0.8c0-0.1,0-0.2-0.1-0.3
		c0-0.1-0.1-0.2-0.1-0.2c-0.2-0.5-0.4-1.1-0.6-1.6l-0.8-2.1l-4.6,1.6c1.8,4.8,4,9.5,6.6,14l10-6c0.3-0.2,0.9-0.1,0.9,0.3v0
		c3,4.2,5.8,7.3,9,12.3H69l-0.8-0.5v0c0,0.1,0.6,0.3,0.6,0.5c0,0.2,0.1,0.4-0.1,0.5l-4.6,4.1c-0.1,0.1-0.2,0.2-0.4,0.2l0,0.2
		c-0.2,0-0.3,0-0.5,0h0l-1.6-2.1c-0.1-0.2-0.3-0.4-0.4-0.6l-0.1-0.2c-0.2-0.2-0.3-0.5-0.5-0.7c-0.1-0.1-0.2-0.2-0.3-0.4
		c-0.1-0.1-0.2-0.2-0.3-0.3c-0.2-0.2-0.4-0.5-0.5-0.7c-0.3-0.4-0.7-0.8-1-1.3l-1-1.4l-4,2.8c3,4.2,6.3,8.2,9.9,11.9l8.3-8.4l0.1-0.1
		l0.1,0l0.1,0l0.1,0l0,0.3l0.1,0.3h0l0-0.3l0.1-0.2l0-0.1l0.1,0l0.1,0l0.1,0l0.2,0.1l0.2,0v0c4,3.4,7,6.5,11.1,9.3
		c0.2,0.1,0.1,0.3,0.1,0.5c0,0.2,0,0.4-0.1,0.5l-3.5,5.2c-0.1,0.2-0.3,0.3-0.5,0.3l-0.1,0l0,0l-0.2,0l-0.1,0l-0.2-0.2l-0.1-0.1h-0.4
		v0.2l-2.8-2.1l-2.8-2.3c-0.2-0.1-0.2-0.2-0.4-0.4c-0.1-0.1-0.3-0.2-0.4-0.4l-0.5-0.4l-3.2,3.7c3.9,3.3,8.2,6.4,12.6,9l5.9-10.3
		l0.1-0.1l0.1-0.1l0,0.1l0.1,0.1h0c0.1,0,0.2-0.2,0.3-0.2l0,0l0.1,0.1l0.1-0.5l0.1,0.1l0.3,0.1l0.3,0.1v0c4,2.4,8.4,4.5,13,6.1
		c0.4,0.1,0.4,0.5,0.3,0.9l-2.1,5.9c-0.1,0.4-0.5,0.6-0.9,0.5c-0.3-0.1-0.5-0.2-0.8-0.2c-0.3-0.1-0.7-0.2-1-0.4
		c-0.2-0.1-0.4-0.1-0.6-0.2l-2.2-1l-0.1-0.2h0l-2.3-0.9l-0.2,0c-0.1-0.1-0.2-0.1-0.4-0.1c-0.3-0.2-0.7-0.3-1.1-0.5l-2.1,4.4
		c4.7,2.2,9.5,4,14.5,5.4l3.1-11.5c0.1-0.3,0.4-0.6,0.7-0.5l0.1,0l0.1,0.1c4.7,1.2,9.5,2.5,14.3,2.5h0c0.2,0,0.4,0,0.5,0.1
		c0.1,0.1,0.2,0.3,0.2,0.5l-0.5,6.2c0,0.4-0.4,0.7-0.8,0.6l-1.2-0.1c-0.2,0-0.4,0-0.6-0.1c-0.2,0-0.4,0-0.7-0.1l-0.6-0.1l-3-0.4
		l-3-0.5l-0.9,4.8c5.1,0.9,10.2,1.4,15.4,1.5l0.1-11.9l0-0.1l0,0l0-0.1l0,0l0-0.1l0,0l0.1-0.1l0,0l0.1-0.1l0.1,0l0.1,0l0.1,0l0.1,0
		l0.1,0l0.1-0.1l1-0.1c5.1,0,10.2,0.2,15.1-1.8h0c0.2,0,0.4,0.2,0.5,0.3c0.2,0.1,0.3,0.5,0.3,0.7l1.3,6.2c0.1,0.3-0.1,0.7-0.4,0.8
		l0,0l-0.1,0l0,0l0,0l0,0c-0.2,0.1-0.5,0.1-0.7,0.1c-0.2,0-0.3,0.1-0.5,0.1l-1.2,0.2c-0.3,0-0.6,0.1-0.9,0.1c-0.5,0.1-1,0.2-1.5,0.2
		l-0.1,0l-2.5,0.3l-1.2,0.1c-0.2,0-0.4,0-0.5,0l0.4,4.8c5.2-0.5,10.3-1.4,15.2-2.7l-3.2-11.4c-0.1-0.4,0.1-0.8,0.5-0.9
		c4.7-1.3,9.2-3.1,13.6-5.2c0.4-0.2,0.8,0,1,0.3l2.8,5.6c0.2,0.4,0,0.8-0.3,1c-0.3,0.2-0.6,0.3-0.9,0.4c-0.9,0.4-1.7,0.8-2.6,1.2
		c-0.2,0.1-0.4,0.2-0.6,0.3c-0.1,0.1-0.3,0.1-0.4,0.2c-0.1,0-0.2,0.1-0.3,0.1c-0.3,0.1-0.7,0.3-1,0.4c-0.2,0.1-0.4,0.1-0.6,0.2
		l-2.1,0.8l1.6,4.6c4.8-1.8,9.5-4,14-6.6l-6-10.2c-0.2-0.3-0.3-0.8,0-1c4.2-2.5,9.5-5.3,11.5-8.6v0c0-0.1,0.6-0.2,0.8-0.2
		c0.2,0,0.5,0.1,0.6,0.2l4.2,4.7c0.1,0.1,0.2,0.3,0.2,0.5c0,0.2,0.1,0.4,0,0.5l0.2,0v0l-2.1,1.6c-0.4,0.4-0.9,0.7-1.3,1
		c-0.2,0.2-0.5,0.4-0.8,0.5c-0.2,0.2-0.5,0.4-0.7,0.5c-0.3,0.3-0.7,0.6-1.1,0.8l-0.2,0.2l-1.4,1l2.8,4c4.2-2.9,8.2-6.3,11.9-9.9
		l-8.4-8.3l-0.1-0.1l0-0.1l0,0l0-0.1l0,0l0-0.1l0,0l0-0.1l0-0.1l0-0.1l0-0.1l0-0.1l0.1-0.1c3.4-3.4,6.5-7.2,9.3-11.3
		c0.1-0.2,0.3-0.3,0.5-0.3c0.2,0,0.4,0,0.5,0.1l5.2,3.5c0.2,0.1,0.7,0.3,0.7,0.5c0,0.2,0.3,0.4,0.3,0.5v0l-2.5,3l-2.5,2.9l-0.2,0.2
		c-0.1,0.1-0.2,0.2-0.3,0.3l-0.2,0.2c-0.1,0.1-0.2,0.2-0.2,0.2l-0.4,0.5l3.7,3.2c3.3-3.9,6.4-8.2,9-12.6l-10.3-5.9l-0.1-0.1L195,168
		l0,0l-0.1-0.1l0.2,0c0-0.1,0.1-0.2,0.1-0.3v0l-0.2-0.1l-0.1,0l0-0.1l0-0.1l0-0.1c2.4-4.2,4.5-8.6,6-13.2c0.1-0.4,0.5-0.6,0.9-0.4
		l5.9,2.1c0.4,0.1,0.6,0.5,0.5,0.9c-0.2,0.6-0.4,1.1-0.6,1.6l0,0.1c-0.1,0.2-0.2,0.4-0.2,0.6l-0.4,0.9l-0.5,1.4l-1,2.3
		c-0.1,0.2-0.1,0.3-0.2,0.5l0,0.1c-0.2,0.3-0.3,0.7-0.5,1.1l4.4,2.1c2.2-4.7,4-9.5,5.4-14.5l-11.5-3.1c-0.1,0-0.2-0.1-0.3-0.1
		c-0.2-0.1-0.3-0.4-0.3-0.6l0.1-0.1c1.2-4.7,2.5-9.5,2.5-14.3v-0.2h-0.3l0.1,0.1c0-0.2,0.1-0.3,0.3-0.4c0.1-0.1,0.4-0.2,0.5-0.2
		l6.3,0.5c0.4,0,0.5,0.4,0.5,0.8l-0.3,1.2v0c0,0.4,0.2,0.8,0.1,1.3l0,0.8l-0.3,2.9l-0.5,3l4.8,0.9c0.9-5.1,1.5-10.2,1.5-15.4
		l-11.9-0.1l-0.1,0l-0.1,0l-0.1,0l-0.1,0l-0.1,0l-0.1,0l-0.1,0l-0.1,0l0,0l-0.1-0.1l0-0.1l0-0.1l0-0.1l0-0.1l0-0.1l0-0.1l0-1.3
		c0-5.1-0.6-10.4-1.6-15.4h-0.1h-0.3v0.5c0-0.2,0.2-0.4,0.4-0.5c0.1-0.2,0.5-0.3,0.6-0.3l6.2-1.3c0.3-0.1,0.7,0.1,0.8,0.4l0,0l0,0.1
		l0,0l0,0l0,0c0.1,0.2,0.1,0.5,0.1,0.7c0,0.2,0.1,0.5,0.1,0.7l0.2,1c0,0.3,0.1,0.6,0.1,0.9c0.1,0.4,0.2,0.9,0.2,1.4
		c0,0.1,0,0.2,0,0.2l0.2,1.9l0.2,1.8c0,0.2,0,0.4,0,0.5l4.8-0.4c-0.5-5.2-1.4-10.3-2.7-15.2l-11.4,3.2l-0.2,0l0,0l0,0l-0.2,0
		l-0.2-0.1l0,0l-0.1-0.1l0,0l-0.1-0.2c-1.3-4.7-3.1-9.2-5.2-13.6l0,0c-0.2-0.4,0-0.8,0.3-1l5.6-2.8C203.5,89.9,203.9,90,204.1,90.4z
		 M109.3,173.5c-2.5,5.5-3.8,11.1-3.8,16.9c0,3.1,0.4,6.1,1.1,9.2c-2.5-0.7-5-1.7-7.4-2.6c0-0.3,0.1-0.4,0.1-0.9l0,0
		c0.9-5.1,2.1-9.8,3.8-13.6C104.8,178.6,106.8,175.7,109.3,173.5L109.3,173.5L109.3,173.5z M172.8,187.3c-0.2-0.7-0.4-1.4-0.7-2
		c-2.5-4.9-5.6-9.4-9.3-13.4c-1.7-1.9-6.1-6.5-8.1-7.1c2.3,1.2,6,7.7,7.2,10.9c2.8,2.5,5.2,5.2,7.4,8c1,1.3,2,2.7,2.9,4
		c-0.3,0.2-0.6,0.4-0.9,0.7c-0.9-1.4-1.9-2.7-2.9-4c-1.8-2.3-3.9-4.6-6.1-6.7c0,0.1,0,0.3,0,0.4c2.3,3.4,4.2,7.4,5.7,11.7
		c0.1,0.2,0.2,0.5,0.2,0.7c-0.3,0.2-0.7,0.4-1,0.6c-0.1-0.3-0.3-0.5-0.3-0.8v0c-1.5-4.2-3.2-8-5.4-11.4c-0.4,0-1-0.3-1.7-1
		c-0.2-0.2-0.4-0.4-0.6-0.6c0,1,0,2,0,2.9c0,2.8-0.3,5.4-0.7,7.8c-0.5,3.1-1.4,5.7-2.5,8l0,0c-0.1,0.2-0.2,0.4-0.3,0.5
		c0,0.1,0,0.2,0,0.4c-1.7,0.7-3.3,1.3-5.1,1.9c0-0.3,0.1-0.6,0.1-0.8c0.1-0.8,0.2-1.6,0.4-2.3c0.5-2,1.1-3.2,1.7-3.7
		c-0.2-6.2-1.1-13.1-2.7-20.6c-0.2-0.9-0.4-1.8-0.6-2.7c-1,0-2-0.1-2.9-0.1c-2.4-0.2-4.6-0.5-6.6-0.9c-8.4-1.9-9.5-3.1-19.3-2.2
		c-12.8,2.2-20.6,11.9-23.2,29c-0.1,0.6-0.2,1.3-0.3,1.9c-3.5-1.6-6.9-3.4-10.2-5.5c-1.4-2.7,1.6-4.2,4.6-6.1
		c1.7-1.1,3.2-2.4,4.7-3.9c1.1-1.2,2.2-2.8,3.4-4.8c-3.7,5-6.3,6.4-11,9.7c-1.5,1.1-2.5,2.2-2.8,3.4c0,0.4,0,0.8,0.1,1.2
		c-2-1.3-4-2.8-5.9-4.3c0.5-3,2.2-5.5,5.2-7.5c-3.8-7.7-1.3-12.9,7.5-15.7c9.6-1.8,11.3-5.8,5.2-12c-3.6,0.5-7.2-0.7-9.8-3
		c-4.6-4.1-6.1-10.7-2-15.7c2.3-2.8,5.7-5.1,7.7-8.1c3.1-4.8,1.5-9.6-0.3-16.7c-1.5-5.6-0.6-11,2.5-16c-2.4-2.1-3.6-5.3-3-8.4
		c0.4-2.6,2-4.8,4.1-6.1c0.3,1.2,0.9,4.2,2.6,4.4c3.5,0.4,3.9,1.9,4.3,3.4c-4.4,0.6-6.7,6.8-7.1,18.7c6.8,0.3,10,3,9.5,8.4
		c-0.8,2.9-2,5.8-3.7,8.9c-1.4,2.5-1.1,4.2,0.9,5.2c2.3,1.2,2.3-0.8,4.2-1c0.5-0.1,1,0.1,1.6,0.5c1,0.7,2.4,2.1,3.6,1
		c0.7-0.7,0.9-1.6,0.7-2.5c-0.2-0.7-0.5-1.3-1.1-1.8c-0.8-0.6-0.5-0.8,0.3-0.2c1.4,1.3,1.8,2.7,1.1,4.3c-0.6,1.4-1.9,1.8-3.7,1.1
		c-0.9-0.2-2,0.2-2.9,0.2c-0.6,0-1.1-0.5-1.8-0.4c-1.9-0.1-3.1-0.7-3.6-2c-0.9-2.2,0.7-5,1.7-6.8c0.9-2,1.5-3.4,1.8-4.4
		c-0.3-0.9-1.1-1.5-1.8-1.6c0.3,0.7,0.1,1.8-0.4,2.3c-1.1,0.9-3.1,0.4-3.3-1.4c-0.7,0.2-1.5,0.5-1.1,1.5c0.1,0.3,0.5,0.5,1.2,0.6
		c1.8,0.1,3.1,0,4.4-0.7c0.8-0.3,0.8-0.3,0.2,0.3c-2.3,1.2-4.5,1.5-6.6,0.7c0,0.4-0.1,0.8-0.2,1.1c-0.4,1.7-0.7,3.4-0.9,5
		c-0.4,5.1,5.3,25.9,8.9,29.4c0.9,0.8,1.9,1.4,3.1,1.6c8,1.3,16.8,0.2,26.5-3.1c-3.4,2.1-9.1,3.9-16.9,5.4c1.1,1.5,1.8,3.3,2.1,5.3
		c10.3-4.5,20.9-7.2,31.9-7.9c1.2,3.9,3,7.7,5.3,11.5c-1.3-2.7-2.6-6.6-4-11.6c-1.7-6-2.5-12.5-2.4-19.5c-2.9-0.8-3.8-2.9-2.7-6.1
		c-0.2,4.1,4.1,2.8,6.2,1.1c3-2.4,4.1-7,3.2-13.7c8.1-4.9,9.6-11,4.4-18.3c4.5,8.4,1,14.5-10.4,18.2c-0.6-3.7-3.5-5.8-8.6-6.2
		c-0.3-2.3-1.4-5-3.3-8.2c4.1-2.7,6.7-5.8,7.9-9.3c3.4-11.1-6.3-16.3-29.3-15.7c0-0.3,0-0.6-0.1-0.9c-0.1-1-0.4-2-0.9-3.2v0
		c31.4-4,47.6,3.9,48.9,23.7c6.1,7.1,9,13.6,8.9,19.3c-0.2,7.3-5.5,13.5-15.9,18.5c8.4,2.5,12.6,5.8,12.8,10.1
		c0.1,1.4-0.3,2.9-1.2,4.5c-2.6-4.2-6.2-7.1-10.9-8.6c4.6,2.3,7.9,5.6,9.9,10.2c0.4,1.3,0.5,2.6,0.5,3.8c-0.2,5.3-4.3,9.6-12.3,13.1
		c2.5,4.3,5.4,6.1,8.3,9.9c3,3.7,5.1,7.5,6.6,11.3C173.4,186.8,173.1,187,172.8,187.3z M110.3,64.9c3.9,1.7,6.3,4.7,7.3,9.1
		c0.9,3.2-0.4,5.9-4.4,7.2c-2.1,0.5-3.3,1.9-3.6,4.2c-0.4,1.8-1.1,2.8-1.9,3c-0.2,0.8-0.3,1.6-0.4,2.4c-0.1,0.9-0.1,1.9-0.1,2.8
		c0.4,0.2,0.8,0.8,0.8,1.6c0,0.9-0.5,1.7-1.1,1.7c-0.6,0-1.1-0.7-1.1-1.7c0-0.8,0.4-1.4,0.8-1.6c0-0.9,0-1.9,0.1-2.8
		c0.1-0.8,0.2-1.6,0.4-2.4c-0.8-0.2-1.5-1.4-1.7-3.5c-0.2-2.4-1.6-3.9-4.2-4.5c-0.9-0.2-1.6-1-2-2.4c-1.4-4.9-1.2-9.1,0.6-12.7
		c4.5,0.9,7,6,7.5,15.3C107.1,70.8,108.1,65.5,110.3,64.9z M119.1,75.9c0.5,0,0.8,0,1.2-0.1c5.2-0.2,9.7,0,13.7,0.7
		c6.1,1.1,15.3,3.9,13.6,11.9c-0.6,2.7-2.5,5.4-5.9,8.3c-2.9,2.6-8.2,6.2-3.3,10.2c3.6,3,8.2,2,10.8,5.1c1.8,2.2,1.5,5.7-0.9,10.4
		c-1.4,1.5-3.1,2.8-5.1,3.8c-3.6,2.1-3.4,4.2,0.5,6.4c-3.3,2.7-6.1,4.1-8.5,4.4c-3,0.3-5.7-1.7-5.9-4.8c-0.2-1.9,1-3.7,3.5-5.4
		c2.7-1.5,4.1-2.3,4.1-2.3c4.1-2.6,3.7-6.5,0.8-7.2c-6.9-3.3-9.8-7.3-8.8-12c0.1-2.3,0.9-4.3,2.4-6c3.9-4.5,12.1-5.3,13.8-11.8
		c0.7-2.8-1.1-5.2-5.6-7.2c-5.2-2.2-12.1-3-20.6-2.6C119.1,77.2,119.1,76.6,119.1,75.9z M126.6,111.7c-0.7-0.2-1.2-0.3-1.7-0.3
		c-0.1,1.2-1.1,2.2-2.4,2.2c-1.2,0.1-2.3-0.8-2.5-2c-0.4,0-1.1,0.2-1.8,0.6c-0.3,0.1-0.4,0.1-0.3-0.2c2.1-3,5.8-3.2,11.1-0.5
		c1.7,1,1.6,1.7-0.3,2.2c-3.4,0.9-6.5,0.9-9.4,0c3.4,0.3,5.8,0.2,7.3-0.3C127.8,112.8,127.8,112.2,126.6,111.7z M114.9,136
		c-1.3-0.3-3-0.5-5.1-0.4c-1.2-0.1-2.1,0-3,0.1c-1.1,0.2-1.3,0.3-2.1,0.8c-0.6,0.3-0.9,0-0.8-0.8c0.3-2.4,1.3-3.2,3.4-2.5
		c1.6-1.3,3.5-1.3,5.8,0.1c1.7,1.3,3.3,2.2,4.8,2.8c0.7,0.3,0.9,0.6,0.5,0.7c-1.7,0.6-2.9,1.1-4.1,1.9c-1.9,1.3-2.2,2.1-4.8,2.5
		c-0.7,0.1-1.2,0.1-1.7-0.1c-1.2-0.4-2.2-1.9-2.5-3.3c-0.2-0.9-0.2-1.4,0.9-1.8c0.5-0.1,1.1-0.2,2-0.1c0.7,0.1,1.3,0.1,2,0
		c1.4-0.4,3-0.3,4.9,0.2C116.1,136.5,116.2,136.4,114.9,136z M127.7,104.3c-5.4-2.3-9.7-1.9-12.9,1.2c-0.8,0.8-1.6,0.2-1.2-0.5
		c3-4.1,9.3-4.3,14.6-1.4C128.7,104,128.4,104.5,127.7,104.3z M128.1,109.7c-4.7-2.1-8.5-1.7-11.2,1
		C119.5,107.2,123.3,106.9,128.1,109.7z M140,82.5c5.4,3.3,4,7.3-4.3,11.8c-4.8-6.2-13.2-9.1-25.2-8.7c0.1-1.6,0.8-2.7,2.2-3.4
		c3.5-0.9,5.3-2,6-3.2C129.7,78.8,137,80,140,82.5z M154.2,117.5c-0.4,0.8-0.7,0.1-0.3-0.5c1.2-1.8,3-1.3,3.3,1c0,4.1-1.6,7-4.8,8.7
		c2.9-2.3,4.4-5.1,4.3-8.3C156.5,116.3,155,115.9,154.2,117.5z M201,128.4l0,0.4c0,9.6-2,19.3-5.7,28c-3.7,8.7-9.2,16.9-16,23.7
		c-1.5,1.5-3.1,2.9-4.8,4.3c-1.5-3.6-3.6-7.1-6.3-10.5c-2.4-3-5.2-5.3-7.4-8.4c4.9-2.4,10-6,11.3-11.5c0.4-1.9,0.4-3.8-0.1-5.7
		l0.7-1.3c1.1-2,1.6-4.3,1.1-6.6c-1-4.6-5.9-7.3-10.4-9c6-3.3,11.7-8.1,13.2-14.8c2-8.5-3.3-16.9-8.5-23.2c-0.4-5.4-2-10.5-5.4-14.8
		c-4.3-5.4-10.6-8.2-17.2-9.6c-8.9-1.9-19-1.4-28-0.2l-0.4,0c-1.4-2.6-3.6-4.6-6.6-5.8l-0.5-0.2l-0.5,0.2c-2.2,0.7-3,3.5-3.4,5.6
		c0,0.1,0,0.2-0.1,0.3c-1.3-2.7-3.3-4.9-6.4-5.5L99,63.6l-0.5,1c-1.8,3.4-2,7.2-1.4,10.9l-0.2,0.1c-2.5,1.6-4.3,4.2-4.8,7.1
		c-0.6,3.2,0.4,6.5,2.6,8.9c-2.8,5-3.6,10.4-2.1,16.1c0.9,3.5,2.5,8.4,1.9,12c-0.2,1.3-0.7,2.4-1.4,3.5c-1.9,3-5.3,5.2-7.6,8
		c-4.6,5.6-3,13.1,2.2,17.7c2.8,2.5,6.5,3.7,10.2,3.4c1.2,1.3,3.1,3.6,2.6,5.2c-0.6,2.3-5.6,3.4-7.5,3.8l-0.1,0l-0.1,0
		c-8.7,2.8-12.5,8.3-8.9,16.6c-2.3,1.8-3.7,3.8-4.4,6.1c-1.4-1.2-2.8-2.5-4.2-3.8c-6.8-6.8-12.3-15-15.9-23.8
		c-3.6-8.7-5.5-18.4-5.5-28l0-0.4c0-9.6,2-19.3,5.7-28c3.7-8.7,9.2-16.9,16-23.7c6.8-6.8,15-12.2,23.8-15.8c8.7-3.6,18.4-5.4,28-5.4
		h0h0.4h0h0c9.6,0,19.3,1.9,28,5.6c8.7,3.7,16.9,9.1,23.7,15.9c6.8,6.8,12.3,15,15.9,23.8C199.1,109.2,201,118.8,201,128.4z"/>
	<path class="st0" d="M195.2,61.2c-8.8-8.8-19.4-16-30.7-20.7c-11.3-4.8-23.9-7.3-36.3-7.3h0c0,0,0,0,0,0h-0.5c0,0,0,0,0,0
		c-12.4,0-25,2.4-36.3,7.1c-11.4,4.7-22,11.8-30.8,20.6c-8.8,8.8-16,19.4-20.7,30.7c-4.8,11.3-7.3,23.9-7.4,36.3l0,0.5
		c0,12.4,2.5,25,7.2,36.4c4.7,11.4,11.8,22,20.6,30.8c8.8,8.8,19.4,15.7,30.7,20.5c11.3,4.8,23.9,7.1,36.3,7.1c0,0,0,0,0,0h0.5
		c0,0,0,0,0,0c12.4,0,25-2.2,36.3-6.9c11.4-4.7,22-11.7,30.8-20.4c8.8-8.8,16-19.3,20.7-30.7c4.8-11.3,7.3-23.9,7.4-36.3l0-0.5
		c0-12.4-2.5-25-7.2-36.4C211.1,80.7,204,70,195.2,61.2z M203.6,106.3l11.4-3.2l0.1,0c0.1,0,0.3,0,0.4,0.1l0.1,0l0,0l0.2,0.2l0,0
		l0,0l0,0c1.5,5.5,2.6,10.8,3.1,16.8h0.2v0.3l-0.1,0.1l-0.1,0.1l0,0l-0.1,0.1l0,0c0,0.1-0.1,0.2-0.2,0.2l0,0l-0.1,0.1l0,0l-0.1,0
		l-0.1,0l-6.3,0.5l-0.1,0l0,0l-0.1,0l-0.1,0l-0.1,0l-0.1,0l0,0l-0.1-0.1l0,0c-0.1-0.1-0.2-0.3-0.3-0.5c0-0.2,0-0.3,0-0.5
		c0-0.3,0-0.5-0.1-0.8l-0.2-1.8l-0.2-1.9l0-0.2c-0.1-0.4-0.1-0.9-0.2-1.4c-0.1-0.3-0.1-0.6-0.2-0.9c-0.1-0.3-0.1-0.6-0.1-0.9
		c0-0.3-0.1-0.5-0.1-0.8l0,0l-5,1c0.9,4.8,1.2,9.8,1.2,14.7v0.3h3.1l0.1,0l9.1,0c0.4,0,0.5,0.4,0.5,0.8c0,5.7,0.1,11.5-1.9,17.1v0
		l0.2,0l0.1,0.1l0,0l0,0.1l0,0l-0.1,0.1l0,0l-0.1,0.1l0,0l-0.1,0l0,0l-0.1,0l0,0l-0.1-0.2l0-0.2h0l-0.1,0.2l-6.2-1.1
		c-0.3-0.1-0.6-0.3-0.6-0.6l0-0.1l0.6-3.6l0.4-3.6c0-0.2,0.1-0.4,0.1-0.6c0-0.2,0-0.3,0-0.5l0-0.1l0-0.5l-4.8-0.4
		c-0.4,4.5-1.1,8.9-2.2,13.2l11.5,3.1c0.1,0,0.2,0.1,0.3,0.1c0.2,0.1,0.3,0.3,0.3,0.5l0,0.1h0c-1.5,5-3.5,11-6,16.2l-0.1,0.2l0,0
		l-0.1,0.1l0,0l-0.1,0.1l0,0l-0.1,0.1l-0.1,0l0,0l-0.1,0l0,0l-0.1,0l0,0l-0.1-0.1l-5.7-2.8c-0.2-0.1-0.3-0.2-0.4-0.4
		c0-0.1,0-0.2,0-0.3c0-0.1,0-0.2,0.1-0.3c0.2-0.3,0.3-0.7,0.5-1c0.1-0.2,0.2-0.4,0.3-0.6c0.1-0.2,0.2-0.4,0.2-0.6l1-2.3l0.8-2.1
		l0.1-0.2l0-0.1c0.1-0.2,0.1-0.4,0.2-0.6c0.1-0.3,0.2-0.6,0.3-0.8l0.1-0.2l-4.6-1.6c-1.5,4.2-3.4,8.3-5.6,12.2l10.3,5.9l0.1,0.1
		l0.1,0.1l0,0l0,0.1l-0.5,0c0,0.1-0.4,0.2-0.4,0.3v0l0,0.1l0,0v0.1l0.5,0l0.2,0.1l0.1,0c-2.9,4.9-6.1,9.7-9.9,14l-0.1,0.1l0,0
		l-0.1,0.1l0,0l-0.1,0l-0.1,0l-0.1,0l0,0l0,0l-0.1,0l-0.1,0l-0.1,0l-0.1,0l0,0l-0.1-0.1l-4.8-4.1c-0.1-0.1-0.2-0.3-0.2-0.5
		c0-0.2,0.1-0.4,0.2-0.5l0.9-1c0.1-0.1,0.2-0.2,0.3-0.3l0.1-0.1c0.1-0.1,0.2-0.3,0.3-0.4l0.9-1.1l1.4-1.8l1.7-2.4l-4-2.7
		c-2.5,3.7-5.4,7.2-8.5,10.4l8.4,8.4l0.1,0.1l0,0.1l0,0l0,0.1l-0.4,0l-0.4,0.1v0l0.4,0.1l0.2,0l0.1,0.1l0,0.1l0,0.1l-0.3,0.1
		c-4.1,4.1-8.3,7.8-13.3,11v0l0,0.1l0.1,0l-0.1,0h0l0,0l-0.1,0H179l-0.1-0.1l-0.1,0l-0.1-0.1l0,0l-0.1-0.1l-3.6-5.2
		c-0.2-0.3-0.1-0.8,0.2-1l2-1.4c0.4-0.3,0.8-0.6,1.2-0.9l0.1-0.1c0.2-0.2,0.4-0.3,0.6-0.5c0.2-0.2,0.4-0.4,0.7-0.5l0,0
		c0.4-0.3,0.8-0.6,1.2-1l0.9-0.8l0.4-0.4l-3.2-3.6c-3.4,2.9-7,5.6-10.8,7.9l6,10.2c0.2,0.3,0.1,0.8-0.3,1l0,0
		c-5,2.9-10.2,5.4-15.6,7.3l-0.1,0l0,0l-0.1,0l0,0l-0.2,0l0,0l-0.2-0.1l0,0l-0.1-0.1l0,0l-0.1-0.2l-2.1-5.9c0-0.1,0-0.2,0-0.3
		c0-0.3,0.2-0.5,0.5-0.6l2.8-1.1c0.3-0.1,0.6-0.2,0.9-0.4l0,0c0.3-0.1,0.6-0.2,0.8-0.4c0.4-0.2,0.7-0.3,1.1-0.5
		c0.9-0.4,1.8-0.8,2.7-1.3l-2.2-4.3c-4,1.9-8.2,3.6-12.5,4.8l3.2,11.4l0,0.1c0,0.3-0.2,0.7-0.5,0.7c-5.5,1.5-11.2,2.7-16.9,3.2
		l-0.1,0.2h0l-0.1-0.2l-0.1-0.1l-0.1-0.1l-0.1,0l-0.1,0l-0.1,0l0,0l0,0l-0.1-0.1l0,0l-0.1-0.1l0,0l0-0.1l0,0l0-0.1l-0.5-6.3
		c0-0.2,0-0.4,0.2-0.5c0.1-0.1,0.3-0.2,0.5-0.3c0.1,0,0.3,0,0.4,0c0.3,0,0.5,0,0.8-0.1l1.2-0.1l2.5-0.3c0.5-0.1,1-0.2,1.5-0.2
		c0.1,0,0.3,0,0.4-0.1c0.2,0,0.3-0.1,0.5-0.1c0.3-0.1,0.6-0.1,0.9-0.1c0.1,0,0.3,0,0.4-0.1l0.2,0l0.2,0l0,0l-1-4.7
		c-4.8,0.9-9.8,1.4-14.7,1.4l-0.3,0l-0.1,11.4c0,0.4-0.3,0.2-0.7,0.2h0c-5.7,0-11.5-0.1-17.1-1.1l0,0.3c-0.1,0-0.3,0-0.4-0.1l0,0
		l-0.1-0.1l0,0l0-0.1l0-0.1l0,0c0-0.1,0-0.2,0-0.3l1.2-6.2c0.1-0.3,0.4-0.6,0.7-0.6l0.1,0l3.7,0.6l3.6,0.4c0.1,0,0.2,0,0.2,0
		c0.1,0,0.3,0,0.4,0c0.2,0,0.4,0,0.6,0l0.5,0l0.4-4.8c-4.5-0.4-8.9-1.1-13.2-2.2l-3.1,11.5l-0.1,0.2l0,0l-0.1,0.1l0,0
		c-0.1,0.1-0.3,0.1-0.4,0.1l0,0l0,0l-0.2,0c-5.5-1.5-11-3.5-16.1-6l-0.1-0.1l-0.1-0.1l0,0l-0.1-0.1l0,0l0-0.1l0,0l0,0l0-0.1l0-0.1
		l0-0.1l0-0.1l0-0.1l0.1-0.1l2.8-5.7c0.1-0.2,0.2-0.3,0.4-0.4l0.2,0c0.1,0,0.2,0,0.3,0.1l0.1,0c0.2,0.1,0.3,0.2,0.5,0.2
		c0.1,0,0.2,0.1,0.3,0.1l0.2,0.1c0.2,0.1,0.4,0.2,0.6,0.3c0.1,0.1,0.2,0.1,0.4,0.2l0.2,0.1l1.3,0.6l0.9,0.4l1.9,0.7l0.3,0.1
		c0.2,0.1,0.4,0.2,0.6,0.2c0.3,0.1,0.7,0.3,1,0.4l1.6-4.6c-4.2-1.5-8.3-3.4-12.2-5.6l-5.9,10.3l-0.1,0.1l-0.1,0.1l0,0l-0.1,0l0,0.1
		c-0.1,0-0.2,0.1-0.3,0.1h0l0,0l-0.1,0l0,0.1l-0.2,0h0c-4.9-3-9.6-6.3-14-10c-0.2-0.2-0.3-0.5-0.2-0.8c0-0.1,0.1-0.2,0.1-0.3
		l4.1-4.8c0.1-0.1,0.3-0.2,0.5-0.3c0.2,0,0.4,0,0.5,0.2l1,0.9l0.2,0.2l0.2,0.2c0.1,0.1,0.3,0.2,0.4,0.3l1.9,1.5l1,0.8l1.7,1.2
		l0.7,0.5l2.7-4c-3.7-2.5-7.2-5.4-10.3-8.5l-8.4,8.4l-0.1,0.1l0,0l-0.1,0l0,0l-0.1,0l0-0.3l-0.1-0.3h0l-0.1,0.3l-0.1,0.3l-0.1,0
		l-0.1,0l-0.1,0l-0.1,0l-0.1-0.1c-4.1-4.1-7.8-8.5-11-13.2c-0.2-0.3-0.1-0.8,0.2-1l5.2-3.6c0.3-0.2,0.8-0.1,1,0.2l1.4,2
		c0.3,0.4,0.6,0.8,0.9,1.2c0.2,0.2,0.4,0.5,0.5,0.7c0.1,0.2,0.3,0.3,0.4,0.5l0.2,0.2c0.2,0.2,0.3,0.4,0.5,0.6l0.1,0.1
		c0.1,0.2,0.2,0.3,0.4,0.5l1.1,1.3l3.6-3.2c-2.9-3.4-5.6-7-7.9-10.8l-10.2,6l-0.2,0.1l0,0l-0.1-0.1l0-0.1h0c-0.1,0-0.2,0.1-0.3,0
		l0,0l0.2-0.1l0.4,0V175v0c-4-5-5.8-10.2-7.7-15.6c-0.1-0.3-0.2-0.7,0.1-0.9l0-0.1l5.9-2.1c0.4-0.1,0.8,0.1,0.9,0.4l1.1,2.8
		c0.1,0.3,0.2,0.6,0.3,0.9c0,0.1,0.1,0.2,0.1,0.3c0.1,0.2,0.2,0.4,0.2,0.6c0.2,0.4,0.3,0.7,0.5,1.1c0.1,0.3,0.2,0.5,0.4,0.8
		c0.3,0.7,0.6,1.3,0.9,1.9l4.3-2.2c-2-4-3.6-8.2-4.8-12.5L40,153.8l-0.2,0l0,0l0,0c-0.1,0-0.3-0.1-0.4-0.1l0,0l-0.1-0.1l0,0
		l-0.5-0.2c-1.5-5.5-1.5-11.2-3.5-16.9v0l0.4-0.1l0.2-0.1l0.1-0.1l0.1-0.1l0,0l0.1-0.1l0,0l0,0l0.1-0.1l0,0l0.1-0.1l0,0l0.1,0l0.1,0
		L43,135c0.2,0,0.4,0,0.5,0.2c0.1,0.1,0.2,0.3,0.3,0.5c0,0.1,0,0.3,0,0.5c0,0.3,0,0.5,0.1,0.8l0.5,3.7c0,0.2,0.1,0.4,0.1,0.6
		c0,0.2,0.1,0.3,0.1,0.5c0,0.2,0.1,0.3,0.1,0.5c0.1,0.3,0.1,0.6,0.2,0.9c0.1,0.3,0.1,0.6,0.2,0.9c0,0.3,0.1,0.5,0.1,0.8l0,0.1l5.1-1
		c-0.9-4.8-1-9.8-1-14.7v-0.3L37,128.7c-0.4,0-0.7-0.3-0.7-0.7c0-5.7-1.1-11.5,1.9-17.1v0c0-0.4,0-0.6,0.4-0.6l5.9,1.2
		c0.4,0.1,0.6,0.4,0.5,0.8l-0.7,3.7l-0.4,2.9l-0.1,0.8c-0.1,0.4-0.1,0.8-0.1,1.2l0,0.5l4.8,0.4c0.4-4.5,1.1-8.9,2.2-13.2l-11.5-3.1
		c-0.3-0.1-0.6-0.4-0.5-0.7l0-0.1c1.5-5.5,3.5-11,6-16.1l0.1-0.1l0.1-0.1l0,0l0.1-0.1l0,0l0.1-0.1l0,0l0.1,0l0.1,0l0.1,0l0.1,0
		l0.1,0l0.1,0.1l5.7,2.8c0.2,0.1,0.3,0.2,0.4,0.4c0,0.1,0,0.2,0,0.3c0,0.1,0,0.2-0.1,0.3c-0.1,0.3-0.3,0.5-0.4,0.8
		c-0.1,0.3-0.2,0.5-0.4,0.8c-0.1,0.2-0.2,0.4-0.2,0.6l-1,2.3l-0.1,0.3l-0.8,2c-0.1,0.2-0.2,0.4-0.2,0.6c-0.1,0.2-0.2,0.4-0.2,0.6
		c0,0.1-0.1,0.2-0.1,0.4l4.6,1.6c1.5-4.2,3.4-8.3,5.6-12.2l-10.3-5.9l-0.1-0.1L48,83.5l0,0l-0.1-0.1l-0.3,0c0-0.1-0.4-0.2-0.4-0.3v0
		l0.3-0.1l0.2,0l0-0.1l-0.2,0l-0.3-0.1v0c4-4.9,6.6-9.7,10.3-14c0.2-0.3,0.8-0.3,1.1-0.2l0.2,0.1l4.8,4.1c0.1,0.1,0.2,0.3,0.3,0.5
		c0,0.2,0,0.4-0.2,0.5l-0.9,1c-0.2,0.2-0.3,0.4-0.5,0.6c-0.1,0.1-0.1,0.2-0.2,0.3l-1.6,2l-0.7,0.9l-1.7,2.4l4,2.7
		c2.5-3.7,5.4-7.2,8.5-10.4l-8.4-8.4l-0.1-0.1l0-0.1l0,0l0-0.1l0,0l0-0.1l0,0l0-0.1l0,0l0-0.1l0-0.1l0-0.1l0.1-0.1
		c4.1-4.1,8.5-7.8,13.2-11v0l0.1-0.1c0.3-0.1,0.6-0.1,0.8,0.1l0,0l0.1,0.1l3.6,5.2c0.1,0.1,0.1,0.3,0.1,0.4c0,0.2-0.1,0.5-0.3,0.6
		l-2,1.4c-0.4,0.3-0.7,0.5-1.1,0.8l-0.1,0.1c-0.2,0.2-0.5,0.4-0.7,0.5c-0.2,0.2-0.5,0.4-0.7,0.5c-0.4,0.3-0.8,0.6-1.2,0.9L74,63.6
		l-1.3,1.1l3.2,3.6c3.4-2.9,7-5.6,10.8-7.9l-6.3-10.2c-0.2-0.3-0.1-0.7-0.1-0.9v0l0.4-0.2h0.2c5-3,10.3-6,15.7-7h0l0.1-0.1
		c0.4-0.1,0.7,0.1,0.9,0.4l2.1,5.9c0.1,0.4-0.1,0.8-0.4,0.9l-2.8,1.1c-0.3,0.1-0.6,0.2-0.9,0.3c-0.3,0.1-0.6,0.2-0.9,0.4
		c-0.4,0.2-0.7,0.3-1.1,0.5c-0.1,0.1-0.3,0.1-0.4,0.2c-0.8,0.3-1.6,0.7-2.4,1.1l2.2,4.3c4-1.9,8.2-3.6,12.5-4.8l-3.1-11.4l0-0.1v0
		c0-0.3,0.2-0.6,0.5-0.7c5.5-1.5,11.2-2.6,16.9-3.1c0.3,0,0.6,0.1,0.7,0.4l0,0l0,0.1l0,0.1l0.5,6.3c0,0.2,0,0.4-0.2,0.5
		c-0.1,0.1-0.3,0.2-0.5,0.3c-0.1,0-0.3,0-0.4,0c-0.3,0-0.5,0-0.8,0.1l-1.2,0.1l-2.5,0.3c-0.3,0-0.5,0.1-0.8,0.1
		c-0.3,0-0.5,0.1-0.8,0.1c-0.3,0.1-0.6,0.1-0.9,0.2c-0.3,0.1-0.6,0.1-0.9,0.2l-0.2,0l-0.4,0.1c-0.1,0-0.2,0-0.3,0l0.6,4.7
		c4.8-0.9,9.3-1.4,14.3-1.4v-0.1h1l-0.3-11.8c0-0.4,0.3-0.7,0.3-0.7v0.2c6,0,12.3-0.7,17.9,2.3h0c0.1,0,0.2-0.4,0.3-0.3l0-0.3l0.1,0
		l0,0l0.1,0.1l0,0l0,0.1l0,0.1l0,0c0,0.1,0,0.2,0,0.3l-1.2,6.2c-0.1,0.4-0.4,0.7-0.8,0.6l-3.7-0.6l-2-0.2l-1.6,0h0
		c-0.2,0-0.4-0.2-0.6-0.2l-0.2-0.2c-0.1,0-0.3,0.2-0.4,0.2l-0.4,0.2h-0.2l-0.4,4.6c4.5,0.4,8.9,1,13.2,2.1l3.1-11.5
		c0-0.1,0.1-0.2,0.1-0.3c0.2-0.2,0.5-0.3,0.8-0.3c5.5,1.5,11,3.5,16.1,6l0.1,0.1l0.1,0.1l0,0l0.1,0.1l0,0l0,0.1l0,0l0,0l0,0.1l0,0.1
		l0,0.1l0,0.1l0,0.1l-0.1,0.1l-2.8,5.7c-0.1,0.2-0.2,0.3-0.4,0.4c-0.2,0.1-0.4,0-0.6,0c-0.5-0.3-1.1-0.5-1.6-0.8
		c-0.2-0.1-0.4-0.2-0.6-0.2l-2.3-1l-1.1-0.4l-1.2-0.5c-0.2-0.1-0.4-0.2-0.6-0.2c-0.3-0.1-0.7-0.3-1-0.4l-1.6,4.6
		c4.2,1.5,8.3,3.4,12.2,5.6l5.9-10.3l0.1-0.1l0.1-0.1l0,0l0.1-0.1l0-0.3c0.1,0,0.2-0.3,0.3-0.3h0l0.1,0.3l0.1,0.2l0.1,0.1l0.1,0.1
		c4.9,2.9,9.7,6.2,14,10c0.3,0.2,0.3,0.6,0.2,0.9l-0.1,0.1l-4.1,4.8c-0.1,0.1-0.3,0.2-0.5,0.3l-0.1,0l-0.1,0l0,0l-0.1,0l0,0l-0.1,0
		l0,0l-0.1-0.1l-1-0.9c-0.1-0.1-0.3-0.2-0.4-0.3l-0.1-0.1c-0.1-0.1-0.2-0.2-0.3-0.2l-2.9-2.3l-2.4-1.7l-2.7,4
		c3.7,2.5,7.2,5.4,10.4,8.5l8.3-8.4l0.1-0.1l0.1-0.1l0,0l0.1,0l0,0l0.1,0c0.1,0,0.3,0,0.4,0.1l0,0l-0.3,0.1l-0.4,0v0
		c5,4.1,8.2,8.5,11.5,13.2c0.2,0.3,0.4,0.8,0.1,1l-5.1,3.6l-0.1,0.2h0h-0.2h0l0-0.1l-0.1-0.1l-0.1,0l-0.1,0l0,0l-0.1-0.1l0,0
		l-0.1-0.1l-1.4-2c-0.3-0.4-0.6-0.8-0.9-1.1l-0.1-0.1c-0.2-0.2-0.4-0.5-0.5-0.7c-0.1-0.1-0.1-0.2-0.2-0.2c-0.1-0.2-0.2-0.3-0.4-0.5
		c-0.3-0.4-0.6-0.8-0.9-1.2l0,0l-1.1-1.3l-3.6,3.2c2.9,3.4,5.6,7,7.9,10.8l10-6c0.3-0.2,0.8-0.1,0.8,0.3v0c3,5,6,10.2,7,15.6v0
		c0,0.3,0.4,0.7,0.1,0.9l0,0.1l-5.8,2.1l-0.1,0l0,0l-0.1,0l0,0l-0.2,0l0,0l-0.1-0.1l0,0l-0.1-0.1l0,0l-0.1-0.2l-1.1-2.8
		c-0.1-0.2-0.1-0.3-0.2-0.5c-0.1-0.3-0.2-0.6-0.4-0.9c-0.1-0.1-0.1-0.2-0.2-0.4c-0.1-0.2-0.2-0.5-0.3-0.7c-0.1-0.1-0.1-0.2-0.2-0.4
		c-0.4-0.9-0.8-1.8-1.3-2.7l-4.3,2.2C200.7,97.8,202.4,102,203.6,106.3z"/>
	<path class="st1" d="M204.4,94.4c0.1,0.1,0.1,0.2,0.2,0.4c0.1,0.2,0.2,0.5,0.3,0.7c0.1,0.1,0.1,0.2,0.2,0.4
		c0.1,0.3,0.3,0.6,0.4,0.9c0.1,0.2,0.1,0.3,0.2,0.5l1.1,2.8l0.1,0.2l0,0l0.1,0.1l0,0l0.1,0.1l0,0l0.2,0l0,0l0.1,0l0,0l0.1,0l5.9-2.1
		l-0.2-0.1c0.3-0.2-0.1-0.5-0.1-0.9v0c-1-5.4-4-10.6-7-15.6v0c0-0.3-0.4-0.5-0.8-0.3l-10.1,6c-2.3-3.8-4.9-7.4-7.8-10.8l3.7-3.2
		l1.2,1.3l0,0c0.3,0.4,0.6,0.8,0.9,1.2c0.1,0.2,0.2,0.3,0.4,0.5c0.1,0.1,0.1,0.2,0.2,0.2c0.2,0.2,0.4,0.5,0.6,0.7l0.1,0.1
		c0.3,0.4,0.6,0.7,0.9,1.1l1.4,2l0.1,0.1l0,0L197,81l0,0l0.1,0l0.1,0l0.1,0.1l0,0.1h0l0.2-0.1l0,0l0.2-0.1l5.2-3.6
		c0.3-0.2,0-0.7-0.3-1c-3.2-4.7-6.5-9.1-11.5-13.2v0l0.4,0l0.1-0.1l0.1,0c-0.1-0.1-0.3-0.1-0.4-0.1l-0.2,0v0l0,0l0,0l-0.1,0.1
		l-0.1,0.1l-8.3,8.4c-3.2-3.1-6.7-6-10.4-8.5l2.7-4l2.4,1.7l2.9,2.3c0.1,0.1,0.2,0.2,0.3,0.2l0.1,0.1c0.1,0.1,0.3,0.2,0.4,0.3l1,0.9
		l0.1,0.1l0,0l0.1,0l0,0l0.1,0l0,0l0.1,0l0.1,0c0.2,0,0.4-0.1,0.5-0.2l4.1-4.8l0.1-0.1c0.2-0.3,0.1-0.7-0.2-0.9
		c-4.4-3.8-9.1-7.1-14-10l-0.1-0.1l-0.1,0l-0.1-0.3l-0.1-0.3h0c-0.1,0-0.2,0.3-0.3,0.3l0,0.1l-0.1,0.1l0,0.1l-0.1,0.1l-0.1,0.1
		l-5.9,10.3c-3.9-2.2-8-4.1-12.2-5.6l1.6-4.6c0.3,0.1,0.7,0.2,1,0.4c0.2,0.1,0.4,0.2,0.6,0.2l1.2,0.5l1.1,0.4l2.3,1
		c0.2,0.1,0.4,0.2,0.6,0.2c0.6,0.3,1.1,0.5,1.6,0.8c0.2,0.1,0.4,0.1,0.6,0c0.2-0.1,0.3-0.2,0.4-0.4l2.8-5.7l0.1-0.1l0-0.1l0-0.1
		l0-0.1l0-0.1l0-0.1l0,0l0,0l0-0.1l0,0l-0.1-0.1l0,0l-0.1-0.1l-0.1-0.1c-5.2-2.5-10.6-4.5-16.1-6c-0.3-0.1-0.6,0-0.8,0.3
		c-0.1,0.1-0.1,0.2-0.1,0.3l-3.1,11.5c-4.3-1.1-8.7-1.9-13.2-2.2l0.4-4.8l0.2,0l0.4,0c0.1,0,0.3,0,0.4,0l0.2,0.2
		c0.2,0,0.4,0.2,0.6,0.2h0l1.6,0l2,0.2l3.7,0.6c0.4,0.1,0.8-0.2,0.8-0.6l1.2-6.2c0-0.1,0-0.2,0-0.3l0,0l0-0.1l0-0.1l0,0l-0.1-0.1
		l0,0l-0.1-0.1l0,0.4c-0.1-0.1-0.2,0.3-0.3,0.3h0c-5.6-3-11.9-2.3-17.9-2.3v-0.1c0,0-0.3,0.2-0.3,0.6l0.3,11.8h-1v0.1
		c-5,0-9.5,0.5-14.3,1.4l-0.8-4.7c0.1,0,0.3,0,0.3,0l0.4-0.1l0.2,0c0.3,0,0.6-0.1,0.9-0.1c0.3,0,0.6-0.1,0.9-0.2
		c0.2,0,0.5-0.1,0.8-0.1c0.3,0,0.5-0.1,0.8-0.1l2.5-0.3l1.2-0.1c0.3,0,0.5,0,0.8-0.1c0.1,0,0.3,0,0.4,0c0.2,0,0.4-0.1,0.5-0.3
		c0.1-0.1,0.2-0.3,0.2-0.5l-0.5-6.3l0-0.1l0-0.1l0,0c-0.1-0.3-0.4-0.4-0.7-0.4c-5.7,0.5-11.4,1.5-16.9,3.1c-0.3,0.1-0.5,0.4-0.5,0.7
		v0l0,0.1l3.2,11.4c-4.3,1.2-8.5,2.9-12.5,4.8l-2.2-4.3c0.8-0.4,1.6-0.7,2.4-1.1c0.1-0.1,0.3-0.1,0.4-0.2c0.4-0.2,0.7-0.3,1.1-0.5
		c0.3-0.1,0.6-0.3,0.9-0.4c0.3-0.1,0.6-0.2,0.9-0.4l2.8-1.1c0.4-0.1,0.6-0.5,0.4-0.9l-2.1-5.9c-0.1-0.4-0.5-0.4-0.9-0.3l-0.1,0.1h0
		c-5.4,1-10.6,4.3-15.6,7.2l-0.3,0l-0.3,0v0c0,0.2,0,0.6,0.1,0.9l6.2,10.2c-3.8,2.3-7.4,4.9-10.8,7.9l-3.1-3.6l1.3-1.1l0.1-0.1
		c0.4-0.3,0.8-0.6,1.2-0.9c0.2-0.2,0.5-0.4,0.7-0.5c0.2-0.2,0.5-0.4,0.7-0.5l0.1-0.1c0.4-0.3,0.7-0.6,1.1-0.8l2-1.4
		c0.2-0.1,0.3-0.4,0.3-0.6c0-0.1,0-0.3-0.1-0.4L76.4,53l-0.1-0.1l0,0c-0.2-0.2-0.5-0.2-0.8-0.1l-0.1,0.1v0c-4.7,3.2-9.1,6.9-13.2,11
		L62.2,64l0,0.1l0,0.1l0,0.1l0,0l0,0.1l0,0l0,0.1l0,0l0,0.1l0,0l0,0.1l0.1,0.1l8.4,8.4c-3.1,3.2-6,6.7-8.5,10.4l-4-2.7l1.7-2.4
		l0.7-0.9l1.6-2c0.1-0.1,0.1-0.2,0.2-0.3c0.1-0.2,0.3-0.4,0.5-0.6l0.9-1c0.1-0.1,0.2-0.3,0.2-0.5c0-0.2-0.1-0.4-0.2-0.5l-4.8-4.1
		l-0.1-0.1c-0.3-0.2-1-0.1-1.2,0.2c-3.8,4.4-6.3,9.1-10.3,14v0l0.3,0.1l0.2,0.1l0.1,0.1l-0.3,0L47.2,83v0c0,0.1,0.3,0.2,0.4,0.3
		l0.2,0l0.1,0.1l0.1,0l0.1,0.1l0.1,0.1l10.3,5.9c-2.2,3.9-4.1,8-5.6,12.2l-4.6-1.6c0-0.1,0.1-0.2,0.1-0.4c0.1-0.2,0.2-0.4,0.2-0.6
		c0.1-0.2,0.2-0.4,0.2-0.6l0.8-2l0.1-0.3l1-2.3c0.1-0.2,0.2-0.4,0.2-0.6c0.1-0.3,0.2-0.6,0.4-0.8c0.1-0.3,0.3-0.5,0.4-0.8
		c0-0.1,0.1-0.2,0.1-0.3c0-0.1,0-0.2,0-0.3c-0.1-0.2-0.2-0.3-0.4-0.4l-5.7-2.8l-0.1,0l-0.1,0l-0.1,0l-0.1,0l-0.1,0l-0.1,0l0,0
		l-0.1,0.1l0,0L45,88.2l0,0l-0.1,0.1l-0.1,0.1c-2.5,5.2-4.5,10.6-6,16.1l0,0.1c0,0.3,0.2,0.7,0.5,0.7l11.5,3.1
		c-1.1,4.3-1.9,8.7-2.2,13.2l-4.8-0.4l0-0.5c0-0.4,0.1-0.8,0.1-1.2l0.1-0.8l0.4-2.9l0.6-3.7c0.1-0.4-0.2-0.8-0.6-0.8l-5.8-1.2
		c-0.4-0.1-0.4,0.2-0.4,0.6v0c-3,5.6-2.1,11.4-2.1,17.1c0,0.4,0.6,0.7,1,0.7l12.1,0.1v0.3c0,5,0.1,9.9,1,14.7l-5,1l-0.1-0.1
		c0-0.2-0.1-0.5-0.2-0.8c0-0.3-0.1-0.6-0.2-0.9c0-0.3-0.1-0.6-0.2-0.9c0-0.2-0.1-0.3-0.1-0.5c0-0.2-0.1-0.3-0.1-0.5
		c0-0.2-0.1-0.4-0.1-0.6l-0.5-3.7c0-0.3,0-0.5-0.1-0.8c0-0.1,0-0.3,0-0.5c0-0.2-0.1-0.4-0.3-0.5c-0.1-0.1-0.3-0.2-0.5-0.2l-6.3,0.5
		l-0.1,0l-0.1,0l0,0l-0.1,0.1l0,0l-0.1,0.1l0,0l0,0l-0.1,0.1l0,0l0,0.1l0,0.1l-0.4,0.1l-0.4,0.1v0c2,5.7,1.9,11.4,3.5,16.9l0.3,0.2
		l0.1,0l0.2,0.1l0.1,0c0.1,0.1,0.3,0.1,0.4,0.1l0,0l0,0l0.2,0l11.4-3.2c1.2,4.3,2.9,8.5,4.8,12.5l-4.3,2.2c-0.3-0.6-0.6-1.3-0.9-1.9
		c-0.1-0.3-0.2-0.5-0.4-0.8c-0.2-0.4-0.3-0.7-0.5-1.1c-0.1-0.2-0.2-0.4-0.3-0.6c0-0.1-0.1-0.2-0.1-0.3c-0.1-0.3-0.2-0.6-0.4-0.9
		l-1.1-2.8c-0.1-0.4-0.5-0.6-0.9-0.4l-5.9,2.1l-0.1,0.1c-0.3,0.2-0.3,0.5-0.1,0.9c1.9,5.4,3.9,10.6,7.5,15.6v0l0,0.1l0,0l0.1,0.1
		l0-0.1c0.1,0.1,0.2,0,0.3,0h0h0h0.1l0,0.1l0.2,0l10.2-6c2.3,3.8,4.9,7.5,7.9,10.8l-3.6,3.2l-1.1-1.3c-0.1-0.2-0.3-0.3-0.4-0.5
		l-0.1-0.1c-0.2-0.2-0.3-0.4-0.5-0.6l-0.2-0.2c-0.1-0.2-0.3-0.3-0.4-0.5c-0.2-0.2-0.4-0.5-0.5-0.7c-0.3-0.4-0.6-0.8-0.9-1.2l-1.4-2
		c-0.2-0.3-0.7-0.4-1-0.2l-5.2,3.6c-0.3,0.2-0.4,0.7-0.2,1c3.2,4.7,6.9,9.1,11,13.2l0.1,0.1l0.1,0l0.1,0l0.1,0l0.1,0l0.1-0.3
		l0.1-0.3h0l0.1,0.3l0-0.1l0.1-0.2h0l0.1,0.3l0,0.1l0.1,0l8.4-8.4c3.2,3.1,6.7,6,10.3,8.5l-2.7,4l-0.7-0.5l-1.7-1.2l-1-0.8l-1.9-1.5
		c-0.1-0.1-0.3-0.2-0.4-0.3l-0.2-0.2l-0.2-0.2l-1-0.9c-0.1-0.1-0.3-0.2-0.5-0.2c-0.2,0-0.4,0.1-0.5,0.2l-4.1,4.8
		c-0.1,0.1-0.1,0.2-0.1,0.3c-0.1,0.3,0,0.7,0.2,0.9c4.4,3.8,9.1,7,14,10h0l0.2,0l0,0l0.1,0l0,0h0c0.1,0,0.2-0.1,0.3-0.1l0,0l0.1-0.1
		l0,0l0.1-0.1l0.1-0.1l5.9-10.3c3.9,2.2,8,4.1,12.2,5.6l-1.6,4.6c-0.3-0.1-0.7-0.2-1-0.4c-0.2-0.1-0.4-0.2-0.6-0.2l-0.3-0.1
		l-1.9-0.7l-0.9-0.4l-1.3-0.6l-0.2-0.1c-0.1-0.1-0.2-0.1-0.4-0.2c-0.2-0.1-0.4-0.2-0.6-0.3l-0.2-0.1c-0.1,0-0.2-0.1-0.3-0.1
		c-0.2-0.1-0.3-0.2-0.5-0.2l-0.1,0c-0.1,0-0.2-0.1-0.3-0.1l-0.2,0c-0.2,0.1-0.3,0.2-0.4,0.4l-2.8,5.7l-0.1,0.1l0,0.1l0,0.1l0,0.1
		l0,0.1l0,0.1l0,0l0,0l0,0.1l0,0l0.1,0.1l0,0l0.1,0.1l0.1,0.1c5.2,2.5,10.6,4.5,16.1,6l0.2,0l0,0l0,0c0.1,0,0.3-0.1,0.4-0.1l0,0
		l0.1-0.1l0,0l0.1-0.2l3.1-11.5c4.3,1.1,8.7,1.9,13.2,2.2l-0.4,4.8l-0.5,0c-0.2,0-0.4,0-0.6,0c-0.1,0-0.2,0-0.4,0
		c-0.1,0-0.2,0-0.2,0l-3.6-0.4l-3.7-0.6l-0.1,0c-0.3,0-0.6,0.2-0.7,0.6l-1.2,6.2c0,0.1,0,0.2,0,0.3l0,0l0,0.1l0,0.1l0,0l0.1,0.1l0,0
		c0.1,0.1,0.2,0.2,0.4,0.2l0-0.5c5.6,1.1,11.4,1.1,17.1,1.1h0c0.4,0,0.7,0.2,0.7-0.2l0.1-11.6l0.3,0.1c5,0,9.9-0.5,14.7-1.4l1,4.8
		l0,0l-0.2,0l-0.2,0c-0.1,0-0.3,0-0.4,0.1c-0.3,0.1-0.6,0.1-0.9,0.2c-0.2,0-0.3,0.1-0.5,0.1c-0.1,0-0.3,0-0.4,0.1
		c-0.5,0.1-1,0.2-1.5,0.2l-2.5,0.3l-1.2,0.1c-0.3,0-0.5,0-0.8,0.1c-0.2,0-0.3,0-0.4,0c-0.2,0-0.4,0.1-0.5,0.3
		c-0.1,0.1-0.2,0.3-0.2,0.5l0.5,6.3l0,0.1l0,0l0,0.1l0,0l0.1,0.1l0,0l0.1,0.1l0,0l0,0l0.1,0l0.1,0l0.1,0l0.1,0l0.1,0.2l0.1,0.2h0
		l0.1-0.1c5.7-0.5,11.4-1.6,16.9-3.1c0.3-0.1,0.6-0.4,0.5-0.8l0-0.2l-3.2-11.4c4.3-1.2,8.5-2.9,12.5-4.8l2.2,4.3
		c-0.9,0.5-1.8,0.9-2.7,1.3c-0.4,0.2-0.7,0.3-1.1,0.5c-0.3,0.1-0.6,0.3-0.8,0.4l0,0c-0.3,0.1-0.6,0.2-0.9,0.4l-2.8,1.1
		c-0.3,0.1-0.4,0.4-0.5,0.6c0,0.1,0,0.2,0,0.3l2.1,5.9l0.1,0.2l0,0l0.1,0.1l0,0l0.2,0.1l0,0l0.2,0l0,0l0.1,0l0,0l0.1,0
		c5.4-1.9,10.6-4.4,15.6-7.3l0,0c0.3-0.2,0.5-0.6,0.3-1l-6-10.2c3.8-2.3,7.4-4.9,10.8-7.9l3.2,3.6l-0.4,0.4l-0.9,0.8
		c-0.4,0.3-0.8,0.7-1.2,1l0,0c-0.2,0.2-0.5,0.4-0.7,0.5c-0.2,0.2-0.4,0.3-0.6,0.5l-0.1,0.1c-0.4,0.3-0.8,0.6-1.2,0.9l-2,1.4
		c-0.3,0.2-0.4,0.7-0.2,1l3.6,5.2l0.1,0.1l0,0l0.1,0.1l0.1,0l0.1,0l0.1,0l0.1,0l0,0h0l0.2,0l0,0.1l0.2,0h0c4.7-4,9.1-7,13.2-11.1
		l0.1-0.1l0-0.1l0-0.1l0-0.1l-0.4,0l-0.4-0.1v0l0.4-0.1l0.2,0l0.1-0.1l0,0l0-0.1l-0.1-0.1l-8.4-8.4c3.1-3.2,6-6.7,8.5-10.4l4,2.7
		l-1.7,2.4l-1.4,1.8l-0.9,1.1c-0.1,0.1-0.2,0.3-0.3,0.4l-0.1,0.1c-0.1,0.1-0.2,0.2-0.3,0.3l-0.9,1c-0.1,0.1-0.2,0.3-0.2,0.5
		c0,0.2,0.1,0.4,0.2,0.5l4.8,4.1l0.1,0.1l0,0l0.1,0l0.1,0l0.1,0l0.1,0l0,0l0,0l0.1,0l0.1,0l0.1,0l0.1,0l0.1-0.1l0,0l0.1-0.1
		c3.8-4.4,7.1-9.1,10-14l0,0l0-0.1l0,0l0-0.1l-0.5,0l-0.5-0.1v0c0-0.1,0.5-0.2,0.4-0.3l0.2,0l0.1-0.1l0,0l0-0.1l-0.1-0.1l-10.3-5.9
		c2.2-3.9,4.1-8,5.6-12.2l4.6,1.6l-0.1,0.2c-0.1,0.3-0.2,0.5-0.3,0.8c-0.1,0.2-0.1,0.4-0.2,0.6l0,0.1l-0.1,0.2l-0.8,2.1l-1,2.3
		c-0.1,0.2-0.2,0.4-0.2,0.6c-0.1,0.2-0.2,0.4-0.3,0.6c-0.2,0.4-0.3,0.7-0.5,1c0,0.1-0.1,0.2-0.1,0.3c0,0.1,0,0.2,0,0.3
		c0.1,0.2,0.2,0.3,0.4,0.4l5.7,2.8l0.1,0.1l0,0l0.1,0l0,0l0.1,0l0,0l0.1,0l0.1-0.1l0,0l0.1-0.1l0,0l0.1-0.1l0,0l0.1-0.2
		c2.5-5.2,4.5-11.2,6-16.2h0l0-0.1c0-0.2-0.1-0.4-0.3-0.6c-0.1-0.1-0.2-0.1-0.3-0.1l-11.5-3.1c1.1-4.3,1.9-8.7,2.2-13.2l4.8,0.4
		l0,0.5l0,0.1c0,0.2,0,0.3,0,0.5c0,0.2,0,0.4-0.1,0.6l-0.4,3.6l-0.6,3.7l0,0.1c0,0.3,0.2,0.6,0.6,0.7l6.2,1l0.1-0.2h0l0,0.2l0.1,0.1
		l0-0.1l0.1-0.2h0l0.1,0.1l0,0.1l0.1,0l0,0l0.1-0.1l0,0l0-0.1l0,0l-0.2-0.1l-0.2,0v0c2-5.6,1.9-11.4,1.9-17.1c0-0.4-0.2-0.7-0.6-0.7
		l-9.1,0l-0.1,0h-3.1v-0.3c0-5-0.3-9.9-1.2-14.7l4.9-1l0.1,0c0,0.3,0.1,0.5,0.2,0.8c0.1,0.3,0.1,0.6,0.2,0.9c0,0.3,0.1,0.6,0.2,0.9
		c0.1,0.4,0.2,0.9,0.2,1.4l0,0.2l0.2,1.9l0.2,1.8c0,0.3,0,0.5,0.1,0.8c0,0.2,0,0.3,0,0.5c0,0.2,0.1,0.4,0.3,0.5l0,0l0.1,0.1l0,0
		l0.1,0l0.1,0l0.1,0l0.1,0l0,0l0.1,0l6.3-0.5l0.1,0l0.1,0l0,0l0.1-0.1l0,0c0.1-0.1,0.1-0.1,0.2-0.2l0,0l0-0.1l0,0l0.1-0.1l0.1-0.1
		v-0.3H219c-0.5-6-1.5-11.3-3.1-16.8l0,0.4l0,0.4h0l-0.2-0.6l0-0.2l-0.1-0.1c-0.1-0.1-0.3-0.2-0.4-0.1l-0.1,0l-11.4,3.2
		c-1.2-4.3-2.9-8.5-4.8-12.5l4.3-2.2C203.6,92.6,204,93.5,204.4,94.4z M197.5,92.8c-0.4,0.2-0.5,0.6-0.3,1l0,0
		c2.2,4.3,3.9,8.9,5.2,13.6l0.1,0.2l0,0l0.1,0.1l0,0l0.2,0.1l0.2,0l0,0l0,0l0.2,0l11.4-3.2c1.3,5,2.3,10.1,2.7,15.2l-4.8,0.4
		c0-0.2,0-0.4,0-0.5l-0.2-1.8l-0.2-1.9c0-0.1,0-0.2,0-0.2c-0.1-0.5-0.1-0.9-0.2-1.4c-0.1-0.3-0.1-0.6-0.1-0.9l-0.2-1
		c0-0.2-0.1-0.5-0.1-0.7c0-0.2-0.1-0.5-0.1-0.7l0,0l0,0l0,0l0-0.1l0,0c-0.1-0.3-0.5-0.5-0.8-0.4l-6.1,1.3c-0.2,0-0.6,0.1-0.7,0.3
		c-0.1,0.2-0.4,0.4-0.4,0.5v-0.5h0.3h0.1c1,5,1.6,10.3,1.6,15.4l0,1.1l0,0.1l0,0.1l0,0.1l0,0.1l0,0.1l0,0.1l0.1,0.1l0,0l0.1,0l0.1,0
		l0.1,0l0.1,0l0.1,0l0.1,0l0.1,0l0.1,0l11.9,0.1c-0.1,5.2-0.6,10.3-1.5,15.4l-4.8-0.9l0.5-3l0.4-2.9l0.1-0.8
		c0.1-0.4,0.1-0.9,0.1-1.3l0,0l0.1-1.2c0-0.4-0.3-0.7-0.7-0.8l-6.3-0.5c-0.2,0-0.4,0-0.5,0.2c-0.1,0.1-0.3,0.2-0.3,0.4l-0.2-0.1h0.3
		v0.2c0,4.9-1.3,9.7-2.5,14.3l-0.1,0.1c0,0.2,0.1,0.5,0.3,0.6c0.1,0.1,0.2,0.1,0.2,0.1l11.5,3.1c-1.4,5-3.2,9.9-5.4,14.5l-4.4-2.1
		c0.2-0.4,0.3-0.7,0.5-1.1l0-0.1c0.1-0.2,0.1-0.3,0.2-0.5l1-2.3l0.5-1.4l0.4-0.9c0.1-0.2,0.2-0.4,0.2-0.6l0-0.1
		c0.2-0.5,0.4-1.1,0.6-1.6c0.1-0.4-0.1-0.8-0.5-0.9l-5.9-2.1c-0.4-0.1-0.8,0.1-0.9,0.4c-1.6,4.6-3.6,9-6,13.2l0,0.1l0,0.1l0,0.1
		l0.2,0l0.2,0.1v0c0,0.1,0,0.2,0,0.3v0l-0.1,0.1l0,0l0,0.1l0.1,0.1l10.3,5.9c-2.6,4.4-5.6,8.7-9,12.6l-3.7-3.2l0.4-0.5
		c0.1-0.1,0.1-0.2,0.2-0.2l0.2-0.2c0.1-0.1,0.2-0.2,0.2-0.3l0.1-0.2l2.7-2.9l2.5-3v0c0-0.2-0.2-0.4-0.3-0.5c0-0.2-0.3-0.4-0.5-0.5
		l-5.3-3.5c-0.2-0.1-0.4-0.1-0.6-0.1c-0.2,0-0.4,0.1-0.5,0.3c-2.7,4-5.8,7.8-9.3,11.3l-0.1,0.1l0,0.1l0,0.1l0,0.1l0,0.1l0,0.1l0,0
		l0,0.1l0,0l0,0.1l0,0l0,0.1l0.1,0.1l8.4,8.3c-3.7,3.6-7.7,7-11.9,9.9l-2.8-4l1.4-1l0.2-0.2c0.4-0.3,0.7-0.5,1.1-0.8
		c0.2-0.2,0.5-0.4,0.7-0.5c0.2-0.2,0.5-0.4,0.7-0.5c0.4-0.3,1-0.7,1.5-1l2.1-1.6v0l-0.2,0c0.1-0.1,0.1-0.3,0.2-0.5
		c0-0.2-0.1-0.4-0.2-0.5l-4.2-4.7c-0.1-0.1-0.6-0.2-0.8-0.2c-0.2,0-0.8,0.1-0.8,0.2v0c-2,3.2-7.4,6.1-11.5,8.6
		c-0.3,0.2-0.3,0.6-0.1,1l6.1,10.2c-4.5,2.6-9.2,4.8-14,6.6l-1.6-4.6l2.1-0.8c0.2-0.1,0.4-0.1,0.6-0.2c0.3-0.1,0.7-0.3,1-0.4
		c0.1,0,0.2-0.1,0.3-0.1c0.1-0.1,0.3-0.1,0.4-0.2c0.2-0.1,0.4-0.2,0.6-0.3c0.9-0.4,1.7-0.8,2.6-1.2c0.3-0.1,0.6-0.3,0.9-0.4
		c0.3-0.2,0.5-0.6,0.3-1l-2.8-5.6c-0.2-0.4-0.6-0.5-1-0.3c-4.3,2.2-8.9,3.9-13.6,5.2c-0.4,0.1-0.6,0.5-0.5,0.9l3.2,11.4
		c-5,1.3-10.1,2.3-15.2,2.7l-0.4-4.8c0.2,0,0.4,0,0.5,0l1.2-0.1l2.5-0.3l0.1,0c0.5-0.1,1-0.2,1.5-0.2c0.3-0.1,0.6-0.1,0.9-0.1
		l1.2-0.2c0.2,0,0.3-0.1,0.5-0.1c0.2,0,0.5-0.6,0.7-0.6l0-0.5h0l0,0.5l0.1,0.2l0,0.1c0.3-0.1,0.5-0.4,0.4-0.7l-1.3-6.1
		c0-0.2-0.1-0.6-0.3-0.7c-0.2-0.1-0.4-0.3-0.5-0.3h0c-4.9,2-10,1.8-15.1,1.8l-1,0.1l-0.1,0.1l-0.1,0l-0.1,0l-0.1,0l-0.1,0l-0.1,0
		l-0.1,0.1l0,0l-0.1,0.1l0,0l0,0.1l0,0l0,0.1l0,0l0,0.1l-0.1,11.9c-5.2-0.1-10.3-0.6-15.4-1.5l0.9-4.8l3,0.5l3,0.4l0.6,0.1
		c0.2,0,0.4,0.1,0.7,0.1c0.2,0,0.4,0,0.6,0l1.2,0.1c0.4,0,0.7-0.3,0.8-0.7l0.5-6.3c0-0.2,0-0.3-0.2-0.4c-0.1-0.1-0.3-0.1-0.5-0.1h0
		c-4.9,0-9.7-1.3-14.3-2.5l-0.1-0.1l-0.1,0c-0.3,0-0.6,0.2-0.7,0.5l-3.1,11.5c-5-1.4-9.8-3.2-14.5-5.4l2.1-4.4
		c0.4,0.2,0.7,0.3,1.1,0.5c0.1,0.1,0.2,0.1,0.4,0.2l0.2-0.1l2.3,0.9l0,0l0.1,0.2l2.2,0.9c0.2,0.1,0.4,0.2,0.6,0.3
		c0.3,0.1,0.7,0.3,1,0.4c0.2,0.1,0.5,0.2,0.7,0.3c0.4,0.1,0.8-0.1,0.9-0.5l2.1-5.9c0.1-0.4-0.1-0.8-0.5-0.9c-4.6-1.6-8.7-3.6-13.3-6
		v0l0,0l-0.1,0l-0.1,0l0,0l-0.1,0l0,0.2c-0.1,0-0.2,0.2-0.3,0.2h0l-0.1-0.1l0-0.1l-0.1,0l-0.1,0.1l-5.9,10.3
		c-4.4-2.6-8.7-5.6-12.6-9l3.2-3.7l0.5,0.4c0.1,0.1,0.3,0.2,0.4,0.4c0.1,0.1,0.3,0.2,0.5,0.4l2.7,2.3l2.8,2.1v-0.2h0.4l0,0.1
		l0.2,0.1l0.1,0l0.2,0l0,0l0.1,0c0.2,0,0.4-0.1,0.5-0.3l3.5-5.2c0.1-0.2,0.1-0.4,0.1-0.5c0-0.2,0.1-0.4-0.1-0.5
		c-4-2.7-7.1-5.8-11.1-9.3v0l-0.2,0l-0.2-0.1l-0.1,0l-0.1,0l-0.1,0l0,0l-0.1,0.3l0,0.3h0l-0.1-0.3l0-0.2l-0.1-0.1l-0.1,0l-0.1,0
		l-0.1,0.1l-8.3,8.4c-3.6-3.7-7-7.7-9.9-11.9l4-2.8l1,1.4c0.3,0.4,0.7,0.9,1,1.3c0.2,0.2,0.4,0.5,0.5,0.7c0.1,0.1,0.2,0.2,0.3,0.3
		c0.1,0.1,0.2,0.2,0.3,0.3c0.2,0.2,0.3,0.4,0.5,0.6l0.1,0.2c0.1,0.2,0.2,0.5,0.4,0.7l1.6,2.1h0c0.1,0,0.3,0,0.5,0l0-0.1
		c0.2,0,0.3-0.1,0.5-0.2l4.7-4.2c0.1-0.1-0.2-0.3-0.2-0.5c0-0.2-0.6-0.4-0.6-0.5v0l0.8,0.5h0.2c-3.2-5-6-8.1-9-12.3v0
		c0-0.3-0.5-0.5-0.9-0.3l-10.2,6c-2.6-4.5-4.8-9.2-6.6-14l4.6-1.6l0.8,2.1c0.2,0.5,0.4,1.1,0.7,1.6c0,0.1,0.1,0.2,0.1,0.2
		c0,0.1,0.1,0.2,0.1,0.3c0.1,0.3,0.1,0.5,0.2,0.8c0.5,1.1,1,2.3,1.5,3.5v0l0.1,0l0.1,0l0.1,0.1l0.1,0l0.1,0.1l0.1,0l0.1,0.1l0.1,0
		l0.1,0l0.1,0.2l0,0.1h0c0.1,0,0.2-0.2,0.3-0.2l5.6-2.9c0.4-0.2,0.5-0.6,0.3-1c-2.2-4.3-3.9-8.9-5.2-13.6l-0.1-0.1l-0.1-0.1l0,0.6
		c-0.1-0.2-0.3,0.3-0.5,0.3h0l-0.1-0.6l-0.1-0.3l-11.4,3c-1.3-5-2.3-10.2-2.7-15.3l4.8-0.5c0,0.2,0,0.3,0,0.5l0.2,2.3l0,1.3l0,0
		l0.2,0.1c0,0.4,0.2,0.7,0.2,1.1c0,0.1,0.1,0.3,0.1,0.4c0.1,0.3,0.1,0.6,0.2,0.9l0.2,1c0,0.2,0.1,0.5,0.1,0.7c0,0.2,0.1,0.5,0.1,0.7
		l0,0l0,0l0,0c0,0.1,0.1,0.2,0.1,0.2l0,0l0.1,0.1l0,0c0.1,0.1,0.3,0.2,0.5,0.2l0.1,0l6.1-1.3c0.2,0,0.8-0.1,0.9-0.3s0.6-0.4,0.6-0.5
		v0.1h-0.7c-1-5-1.6-10.1-1.7-15.2l0-1l0-0.1l0-0.1l0-0.1l0-0.1l0-0.1l0-0.1l-0.1-0.1l0,0l-0.1,0l0,0l-0.1,0l-0.1,0l-0.1,0l-0.1,0
		l-0.1,0l-0.1,0l-11.9-0.1c0.1-5.2,0.6-10.3,1.5-15.4l4.8,0.9l-0.5,3l-0.4,3.4l0,0.3c0,0.1,0,0.2,0,0.3l0,0.1c0,0.1,0,0.2,0,0.3
		l0,0.1l0,0.2l0,0.1l0,0.2l-0.1,0.9l0,0.4c0,0.4,0.3,0.7,0.7,0.8l6.3,0.5l0.1,0c0.2,0,0.5-0.1,0.6-0.2c0.1-0.1,0.4-0.3,0.4-0.5v0
		c0-4.9,1.1-9.7,2.3-14.3l0-0.1c0-0.3-0.2-0.6-0.4-0.7l-0.2-0.1l-11.5-3.1c1.4-5,3.2-9.8,5.4-14.5l4.4,2.1c-0.2,0.4-0.3,0.7-0.5,1.1
		c-0.1,0.2-0.2,0.4-0.2,0.5l-1,2.3L48.3,96l-0.8,2c-0.1,0.2-0.1,0.3-0.2,0.5l0,0.1c-0.1,0.3-0.3,0.7-0.4,1c-0.1,0.2-0.2,0.5-0.3,0.7
		c-0.1,0.4,0.1,0.8,0.5,0.9l5.9,2.1c0.1,0,0.2,0,0.2,0l0,0l0.2,0l0.1,0l0.1-0.1l0.1,0l0.1-0.1l0-0.1l0.1-0.2l-0.1,0
		c1.6-4.6,3.9-9,5.9-13.2v0l0.2-0.1l0.1-0.1l0.1-0.1l0.1,0l0-0.1v0c0-0.1-0.1-0.2-0.1-0.3l0,0L60,88.9l0,0l-0.1-0.1l-0.1-0.1
		l-10.3-5.9c2.6-4.4,5.6-8.7,9-12.6l3.7,3.2l-0.4,0.5c-0.1,0.1-0.2,0.3-0.4,0.4c-0.1,0.1-0.2,0.3-0.4,0.5l-0.9,1.2l-1.4,1.8
		l-0.9,1.3l-1.2,1.7c-0.1,0.2-0.2,0.4-0.1,0.5c0,0.2,0.1,0.4,0.3,0.5l5.2,3.5l0.1,0l0.1,0l0.1,0l0.1,0l0.1,0l0.1,0
		c0.2,0,0.5-0.1,0.6-0.3l0.1,0v0.2c3-4,5.7-8,9.1-11h-0.1h0h0l0.1-0.3l0-0.2l0-0.1l0-0.1l0-0.1l0-0.1l0,0l0-0.1l0,0l0-0.1l0,0l0-0.1
		l-0.1-0.1l-8.4-8.3c3.7-3.6,7.7-7,11.9-9.9l1.3,1.9l1.5,2.1l-1.4,1c-0.3,0.2-0.6,0.4-0.9,0.7c-0.1,0.1-0.3,0.2-0.4,0.3
		c-0.2,0.2-0.5,0.4-0.7,0.5c-0.2,0.1-0.3,0.2-0.5,0.4c-0.1,0.1-0.2,0.1-0.2,0.2c-0.2,0.2-0.4,0.3-0.6,0.5l-0.1,0.1
		c-0.2,0.1-0.4,0.3-0.5,0.4l-1,0.9l-0.9,0.7c-0.1,0.1-0.2,0.3-0.2,0.5c0,0.2,0.1,0.4,0.2,0.5l4.1,4.2c0.1,0.1,0.3-0.2,0.5-0.2h0h0.1
		h0l0.1,0.4l0,0.2l0.1,0.1l0-0.1l0.1-0.2l0.5,0c3.7-3,7.4-5.8,12.4-8.2v0c0-0.2-0.1-0.6-0.3-1l-6.3-10.2c4.5-2.6,9-4.8,13.9-6.6
		l1.6,4.6L95.8,49c-0.6,0.2-1.3,0.5-1.9,0.8c-0.4,0.2-0.7,0.3-1.1,0.5c-0.1,0-0.2,0.1-0.3,0.1c-0.9,0.4-1.9,0.8-2.8,1.3
		c-0.1,0.1-0.3,0.1-0.4,0.2c-0.3,0.2-0.5,0.6-0.3,1l2.8,5.6l0.1,0.1l0,0.1l0.1,0.1l0.1,0l0.1,0.1l0.1,0l0.1,0l0.1,0l0,0l0,0l0.1,0
		l0.1,0l0.1,0l0.2,0l0.2-0.2v-0.4h-0.3c4.3-1,8.9-3.6,13.5-4.9c0.4-0.1,0.6-0.4,0.5-0.8l-3.2-11.4c5-1.3,10.1-2.2,15.2-2.7l0.4,4.9
		c-0.2,0-0.4,0-0.5,0.1l-1.2,0.1l-2.5,0.3c-0.5,0.1-1.1,0.2-1.6,0.3l0,0c-0.3,0.1-0.6,0.1-0.8,0.1l-1,0.2c-0.2,0-0.5,0.1-0.8,0.1
		c-0.2,0-0.5,0.3-0.7,0.4l0,0.3h0l0-0.3l-0.1-0.1l0-0.1c-0.3,0.1-0.5,0.4-0.4,0.8l1.3,6.1c0,0.2,0.2,0.3,0.3,0.5l0,0l0.1,0.1l0.1,0
		l0.2,0l0,0.5l0.2,0.5h0h0.4v-0.8c4-1,9.8-1.6,14.9-1.7l0.9,0c0.4,0,0.7-0.3,0.7-0.7l0-11.9c5.2,0.1,10.3,0.6,15.4,1.5l-0.9,4.8
		l-3-0.5l-3.7-0.5c-0.4-0.1-0.9-0.2-1.3-0.2h0l-0.5,0l-0.7,0h0h0c-0.4,0-0.7,0.3-0.8,0.7l-0.5,6.3c0,0.2,0,0.5,0.2,0.7
		c0.1,0.1,0.3,0.4,0.5,0.4h0c4.9,0,9.7,1,14.3,3h0l0.2-0.4l0-0.2l0-0.1c0.1,0,0.3-0.1,0.4-0.2l0,0l0.1-0.2l0,0l0.1-0.2l3.1-11.5
		c5,1.4,9.8,3.2,14.5,5.4l-2.1,4.4c-0.4-0.2-0.7-0.3-1.1-0.5c-0.2-0.1-0.4-0.2-0.5-0.2l-2.3-1l-1.2-0.5l-1.1-0.4
		c-0.2-0.1-0.3-0.1-0.5-0.2l-0.1,0c-0.2-0.1-0.4-0.1-0.5-0.2c-0.1,0-0.2-0.1-0.3-0.1l-0.1,0c-0.3-0.1-0.5-0.2-0.8-0.3
		c-0.4-0.1-0.8,0.1-0.9,0.5l-2.1,5.9c-0.1,0.4,0.1,0.8,0.4,0.9l0-0.2c4.6,1.6,9,2.9,13.2,5.9l0,0l0.2,0.2l0-0.4l0.1-0.3h0l0,0l0.2,0
		h0l0,0.4l0.1,0.2l0,0.1l0.1,0l0,0l0.1,0l0.1-0.1l5.9-10.3c4.4,2.6,8.7,5.6,12.6,9l-3.2,3.7l-0.5-0.4c-0.1-0.1-0.3-0.3-0.4-0.4
		l-0.2-0.2c-0.1-0.1-0.2-0.1-0.2-0.2l-2.9-2.3l-3-2.1l0,0c-0.2-0.1-0.4-0.2-0.5-0.1c-0.2,0-0.4,0.1-0.5,0.3l-3.5,5.2
		c-0.1,0.2-0.1,0.4-0.1,0.5c0,0.2,0.1-0.1,0.3,0c4,2.7,7.8,5.8,11.3,8.8h0h0.1l0.1,0.6l0.1,0.3l0.1,0.2l0.1,0.1l0.1-0.5l0.1-0.5h0
		l0.1,0.6l0.1,0.3l0.1,0.1l0.1,0.1l0.1,0l0.1,0l0.1-0.1l8.3-8.4c3.6,3.7,7,7.7,9.9,11.9l-4,2.8l-1-1.4c-0.3-0.4-0.6-0.8-0.9-1.2
		l-0.1-0.1c-0.2-0.2-0.4-0.5-0.5-0.7l-0.2-0.2c-0.1-0.2-0.3-0.3-0.4-0.5c-0.1-0.1-0.2-0.3-0.3-0.4l-0.2-0.2
		c-0.2-0.2-0.3-0.4-0.5-0.6l-1.6-1.9c-0.1-0.1-0.3-0.2-0.5-0.2c-0.2,0-0.4,0.1-0.5,0.2l-4.7,4.1c-0.1,0.1-0.2,0.4-0.2,0.6
		c0,0.2,0.1,0.6,0.2,0.6l0,0l0,0.1c3.2,3.7,6.1,6.8,8.6,11.8h0l0.1,0l0,0l0.1,0l0,0l0.2,0h0l0.2,0.1l0,0l0,0l0.1,0l0.1,0l0.2-0.1
		l10.2-6c2.6,4.5,4.8,9.2,6.6,14l-4.6,1.6l-0.8-2.1c-0.2-0.6-0.5-1.2-0.8-1.9c-0.1-0.2-0.2-0.3-0.2-0.5c-0.1-0.2-0.2-0.4-0.2-0.5
		c-0.1-0.3-0.2-0.5-0.4-0.8c0-0.1-0.1-0.2-0.1-0.3c-0.2-0.5-0.5-1-0.7-1.5c-0.1-0.3-0.3-0.6-0.4-0.9c-0.2-0.3-0.6-0.5-1-0.3
		L197.5,92.8z"/>
	<path class="st1" d="M179.6,76.6c-6.8-6.8-15-12.2-23.7-15.9c-8.7-3.7-18.4-5.6-28-5.6h0h0h-0.4h0c-9.6,0-19.3,1.8-28,5.4
		c-8.8,3.6-17,9-23.8,15.8c-6.8,6.8-12.3,14.9-16,23.7c-3.7,8.7-5.6,18.4-5.7,28l0,0.4c0,9.6,1.9,19.3,5.5,28
		c3.6,8.8,9.1,17,15.9,23.8c1.3,1.3,2.7,2.6,4.2,3.8c0.7-2.2,2.1-4.3,4.4-6.1c-3.6-8.3,0.2-13.8,8.9-16.6l0.1,0l0.1,0
		c1.9-0.4,6.9-1.5,7.5-3.8c0.5-1.7-1.3-3.9-2.6-5.2c-3.7,0.3-7.4-1-10.2-3.4c-5.2-4.6-6.8-12.1-2.2-17.7c2.3-2.8,5.7-5,7.6-8
		c0.7-1.1,1.2-2.3,1.4-3.5c0.6-3.6-1-8.5-1.9-12c-1.5-5.7-0.8-11.1,2.1-16.1c-2.2-2.4-3.2-5.7-2.6-8.9c0.5-3,2.3-5.5,4.8-7.1
		l0.2-0.1c-0.6-3.7-0.4-7.4,1.4-10.9l0.5-1l1.1,0.2c3.1,0.6,5.1,2.8,6.4,5.5c0-0.1,0-0.2,0.1-0.3c0.4-2,1.2-4.9,3.4-5.6l0.5-0.2
		l0.5,0.2c3,1.3,5.2,3.2,6.6,5.8l0.4,0c9-1.2,19.1-1.7,28,0.2c6.6,1.4,12.9,4.2,17.2,9.6c3.4,4.3,4.9,9.4,5.4,14.8
		c5.2,6.2,10.5,14.7,8.5,23.2c-1.6,6.8-7.3,11.5-13.2,14.8c4.5,1.7,9.4,4.4,10.4,9c0.5,2.3-0.1,4.5-1.1,6.6l-0.7,1.3
		c0.4,1.9,0.5,3.8,0.1,5.7c-1.3,5.5-6.4,9.1-11.3,11.5c2.2,3.1,5,5.4,7.4,8.4c2.7,3.4,4.8,6.9,6.3,10.5c1.6-1.4,3.2-2.8,4.8-4.3
		c6.8-6.8,12.3-15,16-23.7c3.7-8.7,5.6-18.4,5.7-28l0-0.4c0-9.6-1.9-19.3-5.5-28C191.9,91.6,186.4,83.4,179.6,76.6z"/>
	<polygon class="st1" points="182,73.2 182,73.2 182.2,73.2 182.2,73.2 	"/>
	<path class="st1" d="M103.1,182.4c-1.6,3.8-2.9,8.6-3.8,13.6l0,0c0,0.5-0.1,0.6-0.1,0.9c2.4,1,4.8,1.9,7.4,2.7
		c-0.7-3.2-1.1-6.2-1.1-9.2c0-5.8,1.2-11.4,3.8-16.9l0,0l0,0C106.8,175.7,104.8,178.6,103.1,182.4z"/>
	<path class="st1" d="M104.7,110.1c-3.3-1.1-5.5-0.5-6.6,1.8C99.3,110.2,101.5,109.6,104.7,110.1z"/>
	<path class="st1" d="M152.3,126.8c3.3-1.7,4.9-4.6,4.8-8.7c-0.3-2.3-2.1-2.9-3.3-1c-0.4,0.6-0.1,1.3,0.3,0.5c0.8-1.6,2.3-1.2,2.4,1
		C156.7,121.7,155.2,124.5,152.3,126.8z"/>
	<path class="st1" d="M158.8,165.3c8-3.5,12.1-7.8,12.3-13.1c0-1.2-0.1-2.5-0.5-3.8c-2-4.6-5.3-7.9-9.9-10.2
		c4.7,1.5,8.3,4.4,10.9,8.6c0.8-1.6,1.2-3.1,1.2-4.5c-0.2-4.2-4.5-7.6-12.8-10.1c10.4-5,15.7-11.1,15.9-18.5
		c0.1-5.7-2.8-12.1-8.9-19.3c-1.3-19.8-17.6-27.7-48.9-23.7v0c0.5,1.1,0.7,2.2,0.9,3.2c0,0.3,0.1,0.6,0.1,0.9
		c23-0.6,32.8,4.6,29.3,15.7c-1.2,3.5-3.9,6.6-7.9,9.3c1.9,3.2,3,5.9,3.3,8.2c5.1,0.4,7.9,2.5,8.6,6.2c11.4-3.8,14.8-9.8,10.4-18.2
		c5.2,7.3,3.8,13.4-4.4,18.3c0.9,6.7-0.1,11.3-3.2,13.7c-2.1,1.7-6.4,3-6.2-1.1c-1.1,3.2-0.2,5.3,2.7,6.1c-0.1,7,0.7,13.5,2.4,19.5
		c1.4,5,2.7,8.8,4,11.6c-2.3-3.8-4-7.6-5.3-11.5c-10.9,0.7-21.6,3.4-31.9,7.9c-0.4-2-1.1-3.8-2.1-5.3c7.8-1.5,13.5-3.3,16.9-5.4
		c-9.7,3.4-18.5,4.4-26.5,3.1c-1.2-0.2-2.2-0.8-3.1-1.6c-3.6-3.5-9.3-24.3-8.9-29.4c0.2-1.6,0.5-3.3,0.9-5c0.1-0.4,0.2-0.8,0.2-1.1
		c2.1,0.7,4.3,0.5,6.6-0.7c0.7-0.5,0.6-0.6-0.2-0.3c-1.3,0.7-2.6,0.8-4.4,0.7c-0.7-0.1-1.1-0.3-1.2-0.6c-0.4-1,0.4-1.3,1.1-1.5
		c0.1,1.8,2.2,2.3,3.3,1.4c0.6-0.5,0.7-1.6,0.4-2.3c0.8,0.1,1.6,0.7,1.8,1.6c-0.2,1-0.8,2.5-1.8,4.4c-1,1.9-2.6,4.6-1.7,6.8
		c0.5,1.2,1.7,1.9,3.6,2c0.7-0.1,1.2,0.4,1.8,0.4c1,0,2-0.4,2.9-0.2c1.9,0.6,3.1,0.3,3.7-1.1c0.7-1.6,0.3-3-1.1-4.3
		c-0.8-0.6-1-0.4-0.3,0.2c0.6,0.5,1,1.1,1.1,1.8c0.2,0.9,0,1.8-0.7,2.5c-1.1,1.1-2.6-0.3-3.6-1c-0.6-0.4-1.2-0.6-1.6-0.5
		c-1.9,0.2-1.9,2.2-4.2,1c-1.9-1-2.2-2.8-0.9-5.2c1.7-3.1,2.9-6,3.7-8.9c0.5-5.3-2.6-8.1-9.5-8.4c0.4-11.9,2.8-18.1,7.1-18.7
		c-0.4-1.5-0.8-3-4.3-3.4c-1.8-0.2-2.4-3.2-2.6-4.4c-2.2,1.4-3.7,3.6-4.1,6.1c-0.5,3.1,0.6,6.3,3,8.4c-3.2,5-4,10.3-2.5,16
		c1.9,7.1,3.5,11.8,0.3,16.7c-2,3-5.3,5.3-7.7,8.1c-4.1,5-2.6,11.6,2,15.7c2.6,2.3,6.2,3.5,9.8,3c6.1,6.2,4.4,10.1-5.2,12
		c-8.8,2.8-11.3,8-7.5,15.7c-3,2-4.7,4.5-5.2,7.5c1.9,1.5,3.8,3,5.9,4.3c-0.1-0.4-0.1-0.8-0.1-1.2c0.3-1.2,1.3-2.3,2.8-3.4
		c4.7-3.3,7.3-4.7,11-9.7c-1.2,2-2.3,3.6-3.4,4.8c-1.5,1.5-3,2.8-4.7,3.9c-3,2-6,3.5-4.6,6.1c3.2,2.1,6.6,3.9,10.2,5.5
		c0.1-0.6,0.2-1.3,0.3-1.9c2.7-17.1,10.4-26.8,23.2-29c9.8-0.9,10.9,0.3,19.3,2.2c1.9,0.4,4.1,0.7,6.6,0.9c0.9,0.1,1.9,0.1,2.9,0.1
		c0.2,0.9,0.4,1.8,0.6,2.7c1.6,7.5,2.4,14.4,2.7,20.6c-0.6,0.4-1.2,1.7-1.7,3.7c-0.2,0.7-0.3,1.5-0.4,2.3c0,0.3-0.1,0.6-0.1,0.8
		c1.7-0.6,3.4-1.2,5.1-1.9c0-0.1,0-0.2,0-0.4c0.1-0.2,0.2-0.4,0.3-0.5l0,0c1.1-2.3,2-5,2.5-8c0.4-2.4,0.6-5,0.7-7.8
		c0-0.9,0-1.9,0-2.9c0.2,0.2,0.4,0.4,0.6,0.6c0.7,0.7,1.3,1,1.7,1c2.2,3.3,3.9,7.1,5.4,11.4v0c0,0.3,0.2,0.5,0.3,0.8
		c0.3-0.2,0.7-0.4,1-0.6c-0.1-0.2-0.2-0.5-0.2-0.7c-1.5-4.4-3.3-8.3-5.7-11.7c0-0.1,0-0.3,0-0.4c2.2,2.1,4.2,4.4,6.1,6.7
		c1,1.3,2,2.6,2.9,4c0.3-0.2,0.6-0.4,0.9-0.7c-0.9-1.4-1.9-2.7-2.9-4c-2.2-2.8-4.7-5.5-7.4-8c-1.2-3.2-4.8-9.7-7.2-10.9
		c1.9,0.6,6.3,5.2,8.1,7.1c3.7,4.1,6.8,8.5,9.3,13.4c0.2,0.7,0.5,1.4,0.7,2c0.3-0.2,0.6-0.5,0.9-0.7c-1.5-3.9-3.6-7.6-6.6-11.3
		C164.2,171.4,161.3,169.6,158.8,165.3z M96.7,105.5c6.9-0.8,10,1.5,9.3,6.8c-2.8-1.8-5.5-1.5-8.1,0.8c-0.1-0.4-0.3-0.8-0.6-1.2
		C96.5,109.6,96.2,107.5,96.7,105.5z M155.1,171.7c1.1,1.7,2.1,3.1,3.1,4.3c0.2,4.5,0,8.5-0.6,11.9c-0.5,2.6-1.1,5-2.1,7.1
		c-0.4-1.4-0.8-2.3-1.3-2.7c-0.2-5.7-0.9-12-2.3-18.8c-0.6-2.9-0.6-6.1,1-8.7C152.3,167.5,153.7,169.5,155.1,171.7z"/>
	<path class="st1" d="M112.8,82.2c-1.4,0.7-2.2,1.8-2.2,3.4c12-0.3,20.4,2.6,25.2,8.7c8.3-4.5,9.7-8.4,4.3-11.8
		c-3-2.5-10.3-3.7-21.2-3.6C118.1,80.2,116.3,81.3,112.8,82.2z"/>
	<path class="st1" d="M99.7,65.3c-1.8,3.5-2,7.7-0.6,12.7c0.4,1.4,1.1,2.3,2,2.4c2.6,0.6,4,2.1,4.2,4.5c0.2,2.2,0.9,3.3,1.7,3.5
		c-0.2,0.8-0.3,1.6-0.4,2.4c-0.1,0.9-0.1,1.9-0.1,2.8c-0.5,0.2-0.8,0.8-0.8,1.6c0,0.9,0.5,1.7,1.1,1.7c0.6,0,1.1-0.7,1.1-1.7
		c0-0.7-0.3-1.4-0.8-1.6c0-0.9,0-1.9,0.1-2.8c0.1-0.8,0.2-1.6,0.4-2.4c0.8-0.2,1.6-1.3,1.9-3c0.3-2.4,1.5-3.8,3.6-4.2
		c4-1.3,5.3-4,4.4-7.2c-0.9-4.4-3.4-7.4-7.3-9.1c-2.2,0.7-3.2,5.9-3,15.7C106.7,71.3,104.2,66.2,99.7,65.3z"/>
	<path class="st1" d="M126.5,113.5c-1.5,0.5-3.9,0.6-7.3,0.3c2.8,0.9,6,0.9,9.4,0c1.9-0.5,2-1.2,0.3-2.2c-5.3-2.6-9-2.4-11.1,0.5
		c-0.1,0.3,0,0.3,0.3,0.2c0.8-0.4,1.4-0.6,1.8-0.6c0.2,1.2,1.3,2.1,2.5,2c1.2-0.1,2.2-1,2.4-2.2c0.5,0,1.1,0.1,1.7,0.3
		C127.8,112.2,127.8,112.8,126.5,113.5z"/>
	<path class="st1" d="M139.5,80.4c4.4,2.1,6.3,4.5,5.6,7.2c-1.7,6.5-10,7.3-13.8,11.8c-1.4,1.7-2.2,3.7-2.4,6c-1,4.7,1.9,8.8,8.8,12
		c2.9,0.7,3.3,4.6-0.8,7.2c0,0-1.4,0.8-4.1,2.3c-2.5,1.7-3.7,3.5-3.5,5.4c0.3,3.1,3,5.1,5.9,4.8c2.4-0.2,5.2-1.7,8.5-4.4
		c-4-2.2-4.2-4.4-0.5-6.4c2-1,3.7-2.3,5.1-3.8c2.5-4.7,2.8-8.1,0.9-10.4c-2.6-3.1-7.2-2.1-10.8-5.1c-4.9-4.1,0.4-7.7,3.3-10.2
		c3.3-2.9,5.3-5.7,5.9-8.3c1.8-8-7.5-10.9-13.6-11.9c-4-0.7-8.6-0.9-13.7-0.7c-0.5,0-0.8,0-1.2,0.1c0,0.8,0,1.3-0.1,2
		C127.4,77.4,134.4,78.2,139.5,80.4z"/>
	<path class="st1" d="M114.8,136.3c-1.9-0.5-3.5-0.6-4.9-0.2c-0.6,0.1-1.3,0.1-2,0c-0.8-0.1-1.5-0.1-2,0.1c-1,0.3-1.1,0.8-0.9,1.8
		c0.3,1.4,1.3,2.9,2.5,3.3c0.5,0.2,1.1,0.2,1.7,0.1c2.6-0.4,2.9-1.2,4.8-2.5c1.2-0.8,2.4-1.3,4.1-1.9c0.4-0.1,0.3-0.4-0.5-0.7
		c-1.5-0.6-3.1-1.5-4.8-2.8c-2.3-1.4-4.2-1.4-5.8-0.1c-2-0.7-3,0.1-3.4,2.5c-0.1,0.8,0.2,1.2,0.8,0.8c0.9-0.5,1.1-0.7,2.1-0.8
		c0.8-0.1,1.8-0.2,3-0.1c2,0,3.7,0.1,5.1,0.4C116.2,136.4,116.1,136.5,114.8,136.3z"/>
	<path class="st1" d="M128.1,103.6c-5.2-2.9-11.5-2.7-14.6,1.4c-0.4,0.7,0.4,1.2,1.2,0.5c3.2-3.1,7.5-3.5,12.9-1.2
		C128.4,104.5,128.7,104,128.1,103.6z"/>
	<path class="st1" d="M116.9,110.6c2.8-2.7,6.5-3,11.2-1C123.3,106.9,119.5,107.2,116.9,110.6z"/>
</g>
</svg>
