<?xml version="1.0" encoding="utf-8"?>
<!-- Generator: Adobe Illustrator 26.3.1, SVG Export Plug-In . SVG Version: 6.00 Build 0)  -->
<svg version="1.1" id="katman_1" xmlns="http://www.w3.org/2000/svg" xmlns:xlink="http://www.w3.org/1999/xlink" x="0px" y="0px"
	 viewBox="0 0 256 256" style="enable-background:new 0 0 256 256;" xml:space="preserve">
<style type="text/css">
	.st0{fill:url(#SVGID_1_);}
	.st1{fill:url(#SVGID_00000026162894910302371180000013343062691902435770_);}
</style>
<linearGradient id="SVGID_1_" gradientUnits="userSpaceOnUse" x1="269.7308" y1="22.2622" x2="-44.7915" y2="409.6228" gradientTransform="matrix(1 0 0 -1 0 258)">
	<stop  offset="0.15" style="stop-color:#B32EFF"/>
	<stop  offset="0.42" style="stop-color:#CE60D3"/>
	<stop  offset="0.65" style="stop-color:#E185B3"/>
	<stop  offset="0.84" style="stop-color:#EE9C9F"/>
	<stop  offset="0.96" style="stop-color:#F2A498"/>
</linearGradient>
<path class="st0" d="M251.4,84.8L197.9,6.4c-8.4-12.3-27.4-5.8-26.8,9.2c0.6,13.6,5.6,28,17.7,45.7c0,0,0,0.1,0,0.1c0,0,0,0,0,0
	c-4.9-3.7-79.4-60.1-168-30.1h-0.1C10.9,35,5.9,43,8.4,52.5c2.3,8.7,11.2,14,20,12.5c18.8-3.2,37.5-4.7,55.8-3s36.3,6.4,53,14.6
	s31.9,20,45.8,33.4c15.7,15.1,35.1,47.2,35.1,47.2c2.4,4.2,7.4,6.1,11.9,4.5c5.3-1.9,7.7-8,5.7-13.3c-4.1-11-9.2-21.5-15.1-31.6
	c0,0,0-0.1,0-0.1c0,0,0,0,0.1,0c6.5,2.5,12.6,5.6,19.8,3.9c5.8-1.4,11-5.4,13.4-11C257.4,101.4,256.5,92.1,251.4,84.8z"/>
<linearGradient id="SVGID_00000175306328900548008680000014622421431469886132_" gradientUnits="userSpaceOnUse" x1="613.2866" y1="-5075.9272" x2="298.7538" y2="-4688.5562" gradientTransform="matrix(-1 0 0 1 599.51 5095.8101)">
	<stop  offset="0.15" style="stop-color:#B32EFF"/>
	<stop  offset="0.42" style="stop-color:#CE60D3"/>
	<stop  offset="0.65" style="stop-color:#E185B3"/>
	<stop  offset="0.84" style="stop-color:#EE9C9F"/>
	<stop  offset="0.96" style="stop-color:#F2A498"/>
</linearGradient>
<path style="fill:url(#SVGID_00000175306328900548008680000014622421431469886132_);" d="M4.6,170.8l53.8,78.8
	c8.4,12.3,27.1,5.6,26.5-9.4c-0.5-13.7-5.6-28.1-17.7-45.9c0-0.1,0-0.1,0.1-0.1c5,3.7,79.5,60.1,168,30.1c0,0,0.1,0,0.1,0
	c9.8-3.7,14.7-11.7,12.3-21.2c-2.3-8.7-11.2-14-20-12.5c-18.8,3.2-37.5,4.6-55.8,3s-36.3-6.4-53-14.6s-31.9-20-45.8-33.4
	c-15.7-15.1-35.1-47.2-35.1-47.2c-2.4-4.4-7.7-6.2-12.4-4.3c-5,2.1-7.2,8.1-5.2,13.2c4.1,10.9,9.2,21.5,15.1,31.5c0,0,0,0.1,0,0.1
	c0,0,0,0,0,0c-6.5-2.5-12.6-5.6-19.8-3.9c-5.8,1.4-11,5.4-13.3,11C-1.4,154.2-0.5,163.5,4.6,170.8z"/>
</svg>
