<?xml version="1.0" encoding="UTF-8"?><svg id="katman_1" xmlns="http://www.w3.org/2000/svg" viewBox="0 0 256 256"><defs><style>.cls-1{fill:#615ccd;}</style></defs><path class="cls-1" d="M107.6,161.24v22.09c0,6.18-4.48,11.04-10.17,11.04h-20.34c-5.7,0-10.17-4.86-10.17-11.04V72.89c0-6.18,4.48-11.04,10.17-11.04h5.9c9.15,0,13.63-11.93,7.12-18.77L53.9,3.31c-3.88-4.33-10.25-4.43-14.24-.22-.07,.07-.14,.15-.2,.22L3.04,43.07c-6.51,6.85-1.83,18.77,7.12,18.77h5.9c5.7,0,10.17,4.86,10.17,11.04V227.51c0,6.18,4.48,11.04,10.17,11.04h101.71c5.7,0,10.17-4.86,10.17-11.04v-66.26c0-6.18-4.48-11.04-10.17-11.04h-20.34c-5.49,0-10.17,4.86-10.17,11.04Z"/><path class="cls-1" d="M239.83,194.37c-5.7,0-10.17-4.86-10.17-11.04V28.72c0-6.18-4.48-11.04-10.17-11.04H117.77c-5.7,0-10.17,4.86-10.17,11.04V94.98c0,6.18,4.48,11.04,10.17,11.04h20.34c5.7,0,10.17-4.86,10.17-11.04v-22.09c0-6.18,4.48-11.04,10.17-11.04h20.34c5.7,0,10.17,4.86,10.17,11.04v110.44c0,6.18-4.48,11.04-10.17,11.04h-5.9c-9.15,0-13.63,11.93-7.12,18.77l36.41,39.54c4.07,4.42,10.37,4.42,14.44,0l36.41-39.54c6.31-6.85,1.83-18.77-7.12-18.77h-6.1Z"/></svg>