<svg width="58" height="58" viewBox="0 0 58 58" fill="none" xmlns="http://www.w3.org/2000/svg">
<path d="M28.715 57.43C44.5739 57.43 57.43 44.5739 57.43 28.715C57.43 12.8561 44.5739 0 28.715 0C12.8561 0 0 12.8561 0 28.715C0 44.5739 12.8561 57.43 28.715 57.43Z" fill="#4E1282"/>
<path d="M30.8556 19.0071C31.0613 21.4984 31.3668 23.9544 32.8181 26.099C32.8534 26.1519 32.8886 26.2106 32.918 26.2752C32.9298 26.3046 32.9298 26.3399 32.9357 26.3516C32.7535 26.7042 32.5067 27.0214 32.4245 27.3799C32.2776 28.0203 32.1601 28.6784 32.1542 29.3306C32.1365 31.1344 32.1659 32.9382 32.2071 34.7361C32.2306 35.7702 32.5831 36.7338 32.9298 37.6915C32.965 37.7914 33.0062 37.8972 32.9885 38.0499L29.9331 35.6644C29.9977 35.5411 30.0389 35.4 30.127 35.3001C30.5089 34.8654 30.6558 34.3542 30.6617 33.7842C30.6617 32.521 30.6735 31.2519 30.6793 29.9886C30.697 26.5396 30.7146 23.0907 30.7263 19.6417C30.7263 19.4302 30.7263 19.2187 30.7263 19.0071H30.8615H30.8556Z" fill="white"/>
<path d="M26.7543 19.0071C26.7602 20.5289 26.766 22.0566 26.7719 23.5783C26.7954 26.9862 26.8189 30.3882 26.8366 33.796C26.8366 34.3366 26.9541 34.836 27.336 35.2531C27.4359 35.3589 27.4888 35.5117 27.5769 35.6644L24.5097 38.0617L24.451 38.0264C24.4862 37.9207 24.5215 37.809 24.5685 37.7033C25.0914 36.3989 25.35 35.0475 25.3382 33.6374C25.3206 32.1685 25.35 30.6996 25.3382 29.2365C25.3323 28.2201 25.256 27.2153 24.5097 26.4045C24.5391 26.3399 24.5508 26.2811 24.5802 26.24C25.6085 24.8475 26.061 23.2376 26.3371 21.5689C26.4781 20.7169 26.5721 19.8591 26.6838 19.0071H26.7484H26.7543Z" fill="white"/>
<path d="M32.1894 38.3555C29.9272 36.9453 27.6533 36.8924 25.3735 38.3202L25.3558 38.2144C25.4146 38.1616 25.4675 38.0969 25.5321 38.0499C26.484 37.3155 27.4359 36.5928 28.3819 35.8525C28.6463 35.6468 28.852 35.6351 29.1223 35.8525C30.1505 36.6633 31.1964 37.4506 32.2306 38.2497L32.1953 38.3613L32.1894 38.3555Z" fill="white"/>
<path d="M28.805 21.7099V31.0991H28.6757V21.7099H28.805Z" fill="white"/>
<path d="M28.7227 42.1687C36.1735 42.1687 42.2136 36.1289 42.2136 28.6783C42.2136 21.2278 36.1735 15.188 28.7227 15.188C21.2718 15.188 15.2317 21.2278 15.2317 28.6783C15.2317 36.1289 21.2718 42.1687 28.7227 42.1687Z" stroke="white" stroke-width="2" stroke-miterlimit="10"/>
</svg>
