<svg width="88" height="88" viewBox="0 0 88 88" fill="none" xmlns="http://www.w3.org/2000/svg">
<path d="M44 88C68.3005 88 88 68.3005 88 44C88 19.6995 68.3005 0 44 0C19.6994 0 0 19.6995 0 44C0 68.3005 19.6994 88 44 88Z" fill="#333333"/>
<g clip-path="url(#clip0_926_3457)">
<path d="M65.2196 60.1943C59.0575 56.6696 46.548 49.5085 46.3725 49.4242C46.3725 50.6586 46.2996 51.8106 46.3922 52.949C46.4947 54.2166 47.2438 55.1179 48.3477 55.7488C52.576 58.1665 63.6781 64.54 65.0047 65.2983C65.1644 65.3903 65.3595 65.4863 65.5764 65.6C65.5902 65.3805 65.5724 62.2614 65.5882 60.8703C65.5921 60.5568 65.5113 60.3609 65.2196 60.1943Z" fill="white"/>
<path d="M48.4048 46.8791C53.2245 49.6339 64.6104 56.17 65.5546 56.7088C65.5704 56.4717 65.5743 53.4094 65.598 52.0359C65.6039 51.646 65.4738 51.4384 65.1348 51.2444C60.7566 48.7483 56.3923 46.2228 52.0063 43.7365C51.2257 43.2937 50.8827 42.7529 50.8906 41.8438C50.9241 37.1043 50.9063 27.1787 50.9063 26.7986C49.763 27.4843 48.6926 28.0466 47.7109 28.7363C46.818 29.3652 46.3685 30.3174 46.3646 31.4146C46.3488 35.5134 46.339 39.6142 46.3685 43.713C46.3784 45.1569 47.161 46.1679 48.4029 46.8772L48.4048 46.8791Z" fill="white"/>
<path d="M59.7375 38.6796C61.7127 39.7866 62.9566 40.3802 64.9337 41.4833C65.324 41.7008 65.4403 41.9418 65.4324 42.3669C65.4068 43.8677 65.4226 45.3685 65.4226 46.9889C65.0421 46.7733 58.2256 43.0135 54.7306 41.0268C54.3521 40.8132 54.2121 40.584 54.218 40.1471C54.2437 37.892 54.2338 27.6998 54.224 25.4447C54.224 25.1391 54.2713 24.9294 54.5748 24.7609C55.864 24.0497 58.6041 22.4803 58.7736 22.4C58.7736 23.2915 58.7953 35.6133 58.7657 36.9848C58.748 37.7685 59.0515 38.2936 59.7375 38.6796Z" fill="white"/>
<path d="M23.8471 60.1943C30.0092 56.6696 42.5187 49.5085 42.6942 49.4242C42.6942 50.6586 42.7671 51.8106 42.6745 52.949C42.572 54.2166 41.8229 55.1179 40.719 55.7488C36.4907 58.1665 25.3886 64.54 24.062 65.2983C23.9023 65.3903 23.7072 65.4863 23.4903 65.6C23.4765 65.3805 23.4943 62.2614 23.4785 60.8703C23.4746 60.5568 23.5554 60.3609 23.8471 60.1943Z" fill="white"/>
<path d="M40.6618 46.8791C35.8421 49.6339 24.4562 56.17 23.5101 56.7108C23.4943 56.4737 23.4903 53.4113 23.4667 52.0379C23.4608 51.648 23.5909 51.4403 23.9299 51.2463C28.3081 48.7502 32.6724 46.2247 37.0584 43.7384C37.839 43.2956 38.182 42.7549 38.1741 41.8458C38.1406 37.1063 38.1584 27.1806 38.1584 26.8005C39.3017 27.4863 40.3721 28.0486 41.3537 28.7382C42.2467 29.3672 42.6962 30.3194 42.7001 31.4166C42.7159 35.5154 42.7257 39.6161 42.6962 43.7149C42.6863 45.1589 41.9037 46.1699 40.6618 46.8791Z" fill="white"/>
<path d="M29.3291 38.6796C27.354 39.7866 26.1101 40.3802 24.1329 41.4833C23.7426 41.7008 23.6263 41.9418 23.6342 42.3669C23.6598 43.8677 23.6441 45.3685 23.6441 46.9889C24.0245 46.7733 30.8411 43.0135 34.3361 41.0268C34.7146 40.8132 34.8545 40.584 34.8486 40.1471C34.823 37.892 34.8328 27.6998 34.8427 25.4447C34.8427 25.1391 34.7954 24.9294 34.4918 24.7609C33.2026 24.0497 30.4626 22.4803 30.2931 22.4C30.2931 23.2915 30.2714 35.6133 30.301 36.9848C30.3187 37.7685 30.0151 38.2936 29.3291 38.6796Z" fill="white"/>
</g>
<defs>
<clipPath id="clip0_926_3457">
<rect width="42.1333" height="43.2" fill="white" transform="translate(23.4667 22.4)"/>
</clipPath>
</defs>
</svg>
