<svg width="58" height="58" viewBox="0 0 58 58" fill="none" xmlns="http://www.w3.org/2000/svg">
<path d="M28.715 57.43C44.5738 57.43 57.43 44.5739 57.43 28.715C57.43 12.8561 44.5738 0 28.715 0C12.8561 0 0 12.8561 0 28.715C0 44.5739 12.8561 57.43 28.715 57.43Z" fill="#D293DB"/>
<path d="M40.7454 23.4034C40.7454 24.2025 40.5457 24.9545 40.1814 25.6596C40.1108 25.7947 40.1108 25.7948 40.2401 25.8653C41.3213 26.4528 42.0851 27.3283 42.4847 28.4916C42.708 29.1321 42.896 29.7843 43.084 30.4306C43.2015 30.836 43.2955 31.2473 43.3954 31.6586C43.4307 31.7996 43.4483 31.9524 43.4601 32.0993C43.4777 32.3637 43.5071 32.6339 43.5012 32.8983C43.5012 33.4213 43.4131 33.9324 43.2838 34.4319C43.0311 35.4013 42.5904 36.2827 41.9735 37.0759C41.2508 37.9984 40.34 38.6799 39.2588 39.1382C38.6419 39.3967 38.0073 39.573 37.3433 39.6611C35.6511 39.8844 34.0998 39.5025 32.672 38.5859C32.3547 38.3803 32.0668 38.1335 31.7671 37.9043C31.7378 37.8808 31.7025 37.8691 31.6731 37.8515C31.6555 37.8867 31.632 37.922 31.6202 37.9572C31.5262 38.4331 31.4675 38.9208 31.3265 39.3791C30.8916 40.7893 29.9691 41.7822 28.6294 42.3933C28.1535 42.6107 27.654 42.7341 27.137 42.7752C26.8667 42.7987 26.5846 42.8281 26.3143 42.8046C25.5681 42.7282 24.8513 42.5284 24.199 42.1406C23.8054 41.9056 23.4469 41.6236 23.1296 41.2887C22.025 40.1253 20.9203 38.9678 19.8215 37.7986C19.2104 37.1464 18.8344 36.3708 18.6581 35.5012C18.429 34.379 18.5817 33.3155 19.1105 32.299C19.1811 32.1698 19.1752 32.1698 19.0459 32.0993C17.859 31.4529 17.0717 30.4776 16.6839 29.185C16.3666 28.1332 16.0375 27.0815 15.7202 26.0298C15.5792 25.5715 15.4852 25.1014 15.4852 24.6196C15.4852 24.555 15.4617 24.4727 15.4264 24.4199C14.9975 23.7559 14.7389 23.0274 14.6626 22.24C14.6391 21.958 14.6038 21.6701 14.6332 21.3881C14.6919 20.871 14.8036 20.3657 15.0092 19.8839C15.5674 18.603 16.4841 17.6982 17.8002 17.2105C18.4936 16.952 19.2105 16.8345 19.9508 16.9226C21.502 17.1106 22.7242 17.8451 23.5821 19.1553L23.6056 19.1906C23.6702 19.2905 23.6878 19.2905 23.7584 19.1906C23.9053 18.9908 24.0463 18.7852 24.2049 18.5972C25.0687 17.5572 26.1616 16.8639 27.4601 16.4761C28.0889 16.2881 28.7293 16.2058 29.3815 16.194C29.4521 16.194 29.5343 16.1588 29.599 16.1177C30.4568 15.5477 31.3911 15.1893 32.4076 15.0424C33.9236 14.825 35.3455 15.1129 36.6735 15.8591C38.0014 16.6053 38.9944 17.6688 39.5997 19.0731C39.7877 19.5137 39.9287 19.9779 40.0756 20.4362C40.246 20.9533 40.3988 21.4821 40.5515 22.005C40.6867 22.4574 40.7513 22.9157 40.7513 23.3858L40.7454 23.4034ZM29.9162 17.2105C29.4579 17.2046 29.0114 17.2752 28.5707 17.4044C27.3544 17.7628 26.4084 18.4796 25.7679 19.5843C25.051 20.8064 24.863 22.1049 25.2449 23.4798C25.3918 24.0086 25.5563 24.5256 25.7209 25.0486C25.8325 25.407 25.9324 25.7712 26.0852 26.112C26.5553 27.1638 27.8303 27.9393 29.0995 27.7219C29.9985 27.5633 30.686 27.0933 31.1267 26.2824C31.1795 26.1825 31.2207 26.1825 31.3147 26.2295C31.8611 26.5116 32.437 26.6232 33.0422 26.5174C33.9412 26.3588 34.6169 25.877 35.0635 25.0779C35.1164 24.9839 35.1575 24.978 35.2456 25.025C35.8802 25.3541 36.5383 25.4305 37.2376 25.2601C38.8182 24.8664 39.676 23.186 39.2706 21.7465C39.0649 21.012 38.8299 20.2893 38.6066 19.5549C38.2658 18.4385 37.6254 17.5396 36.6558 16.8874C35.5453 16.1353 34.329 15.8356 33.0011 16.0883C32.1373 16.2528 31.3734 16.623 30.7153 17.2105C30.6566 17.2634 30.6037 17.281 30.5273 17.2752C30.3217 17.2516 30.116 17.2399 29.9104 17.2223L29.9162 17.2105ZM42.1321 31.6938C42.1028 31.4999 42.0792 31.1357 41.997 30.789C41.8853 30.319 41.7384 29.8548 41.5974 29.3906C41.4623 28.9558 41.3389 28.5151 41.1802 28.0862C40.7395 26.8994 39.441 26.1825 38.3011 26.2824C37.2434 26.3764 36.4384 26.8641 35.9155 27.7925C35.8626 27.8865 35.8215 27.8923 35.7333 27.8453C35.2398 27.5986 34.7227 27.4693 34.1703 27.5281C33.3477 27.6162 32.6485 27.9511 32.1373 28.6092C31.5262 29.3906 31.3147 30.2602 31.585 31.2297C31.7495 31.8231 31.9493 32.4107 32.1256 33.0041C32.2666 33.4741 32.4252 33.9324 32.6661 34.3614C33.2067 35.3132 33.9941 35.983 34.9812 36.4237C35.6276 36.7175 36.3033 36.8702 37.0084 36.8702C37.4667 36.8702 37.9133 36.7997 38.3539 36.6763C39.3528 36.4002 40.2225 35.9066 40.8923 35.1017C41.6738 34.1616 42.1145 33.0864 42.138 31.688L42.1321 31.6938ZM30.9974 32.4048C30.9798 32.0111 30.8975 31.6351 30.7565 31.2767C30.257 30.0193 28.8821 29.2496 27.5542 29.4964C26.6493 29.6668 25.9618 30.1486 25.5152 30.9594C25.4623 31.0534 25.4212 31.0652 25.3272 31.0123C25.0687 30.8771 24.7984 30.7773 24.5105 30.7302C23.823 30.6186 23.1766 30.7302 22.5655 31.0593C21.4844 31.6351 20.8851 32.8572 21.079 34.0676C21.1847 34.708 21.4727 35.2427 21.9192 35.7127C22.9534 36.7939 23.9817 37.8808 25.0158 38.9619C25.9207 39.9079 27.0077 40.2076 28.2534 39.7669C29.2581 39.4085 29.8751 38.6799 30.1219 37.6399C30.1807 37.4049 30.2042 37.1581 30.2453 36.9172C30.351 36.3238 30.451 35.7245 30.5567 35.1311C30.6625 34.52 30.7682 33.9031 30.8681 33.292C30.9151 32.9982 30.9563 32.7044 31.0033 32.4048H30.9974ZM19.8979 17.9097C19.5571 17.9097 19.0753 18.0331 18.6288 18.274C16.9248 19.1965 16.5957 21.5173 17.9648 22.8863C18.0235 22.9451 18.0353 22.9921 18.0176 23.0685C17.9295 23.4915 17.9354 23.9146 18.0529 24.3317C18.1763 24.7665 18.3115 25.1954 18.4407 25.6244C18.6699 26.3823 18.8932 27.1403 19.14 27.8923C19.5571 29.1556 20.8909 29.9782 22.2071 29.796C23.0709 29.6785 23.7819 29.2848 24.2813 28.5504C24.7984 27.7866 24.9453 26.964 24.6809 26.0768C24.3871 25.1014 24.0757 24.132 23.7936 23.1566C23.6173 22.5456 23.3882 21.9756 22.9181 21.5232C22.8946 21.4997 22.8828 21.4409 22.8946 21.4057C22.9886 20.9415 22.9651 20.4832 22.8358 20.0308C22.4892 18.7969 21.3316 17.9156 19.892 17.9156L19.8979 17.9097Z" fill="white"/>
<path d="M38.6242 14.9249C38.965 14.9366 39.2647 15.2069 39.2647 15.5594C39.2647 15.9237 38.9885 16.2057 38.6301 16.2057C38.2717 16.2057 37.9896 15.9296 37.9896 15.5771C37.9896 15.2245 38.2834 14.9249 38.6242 14.9249ZM38.6242 16.1294C38.9298 16.1294 39.1766 15.8826 39.1824 15.5712C39.1824 15.2656 38.9357 15.013 38.6242 15.0071C38.3187 15.0071 38.0601 15.2598 38.0601 15.5712C38.0601 15.8708 38.3128 16.1235 38.6242 16.1235V16.1294Z" fill="white"/>
<path d="M26.8784 22.2341C26.8784 21.5996 27.0429 21.0179 27.372 20.4832C28.0359 19.4021 29.3756 18.8439 30.6037 19.1377C30.7917 19.1847 30.9739 19.2611 31.156 19.3316C31.2324 19.361 31.2853 19.361 31.3382 19.2787C31.8435 18.4796 32.5662 18.0331 33.5005 17.8862C34.7697 17.6806 36.2269 18.4561 36.7263 19.7546C36.9379 20.3011 37.0906 20.871 37.2669 21.4351C37.3433 21.6818 37.4197 21.9286 37.4902 22.1754C37.6488 22.7336 37.3609 23.2682 36.8027 23.4445C36.2857 23.609 35.7157 23.3211 35.5453 22.7923C35.322 22.099 35.1105 21.3998 34.899 20.7065C34.7227 20.1483 34.1645 19.8545 33.6063 20.0308C33.0774 20.1953 32.7836 20.7652 32.954 21.3117C33.1656 21.9991 33.383 22.6807 33.5827 23.374C33.7238 23.8734 33.4476 24.4669 32.8894 24.6431C32.3899 24.8018 31.8141 24.5374 31.632 24.0321C31.4909 23.6443 31.3852 23.2447 31.2618 22.8511C31.156 22.5044 31.062 22.1578 30.9386 21.817C30.7565 21.3352 30.2277 21.0708 29.7576 21.2C29.2405 21.3469 28.8997 21.8464 28.9937 22.3517C29.0407 22.5984 29.1289 22.8393 29.2053 23.0861C29.3522 23.5738 29.5108 24.0615 29.6518 24.555C29.8104 25.1073 29.4932 25.6772 28.9526 25.8359C28.4237 25.9945 27.8538 25.6772 27.6834 25.1308C27.4601 24.414 27.2369 23.6913 27.0312 22.9686C26.9607 22.7277 26.9372 22.475 26.896 22.2283L26.8784 22.2341Z" fill="white"/>
<path d="M37.0143 35.0077C35.8391 34.9959 34.4583 34.2615 34.0176 32.7514C33.8237 32.0875 33.618 31.4235 33.4065 30.7596C33.2361 30.2191 33.5181 29.7314 33.8707 29.5316C34.3114 29.2848 34.8637 29.3671 35.2045 29.7314C35.3631 29.9018 35.4219 30.1192 35.4866 30.3307C35.6746 30.9535 35.8626 31.5763 36.0624 32.1933C36.2151 32.6809 36.7851 32.9864 37.2728 32.8748C37.8134 32.7455 38.1836 32.2403 38.0896 31.7056C38.0425 31.4529 37.9485 31.2003 37.8721 30.9535C37.7194 30.4482 37.5607 29.9429 37.4138 29.4317C37.261 28.9029 37.6958 28.2742 38.2482 28.1685C38.7065 28.0803 39.3117 28.3447 39.488 28.9793C39.6702 29.6432 39.8875 30.3013 40.0873 30.9652C40.5574 32.4988 39.7348 34.1851 38.2306 34.7668C37.831 34.9195 37.4021 35.0077 37.0143 35.0077Z" fill="white"/>
<path d="M26.5553 34.7256C26.5788 34.6022 26.6023 34.473 26.6258 34.3496C26.755 33.5975 26.8725 32.8454 27.0077 32.0934C27.1193 31.4999 27.8421 31.1533 28.4179 31.4C28.8938 31.6057 29.1524 32.0934 29.0584 32.5987C28.9232 33.3507 28.7998 34.1087 28.6706 34.8666C28.5354 35.6598 28.4003 36.453 28.2592 37.2463C28.1887 37.6575 27.942 37.9219 27.5424 38.0453C27.1311 38.1687 26.7727 38.0806 26.473 37.7692C26.0793 37.3579 25.6856 36.9407 25.2919 36.5294C24.628 35.8302 23.964 35.1252 23.2942 34.4319C23.018 34.1439 22.8711 33.8208 22.9416 33.4212C23.0297 32.9218 23.4234 32.5987 23.9346 32.5517C24.246 32.5223 24.5046 32.6398 24.7102 32.8572C25.2743 33.4506 25.8384 34.0382 26.4025 34.6316C26.4377 34.6669 26.4554 34.7139 26.4789 34.755L26.5435 34.7256H26.5553Z" fill="white"/>
<path d="M22.9416 26.9053C22.9298 27.4223 22.5597 27.8512 22.0426 27.9394C21.5725 28.0216 21.079 27.7396 20.9203 27.2637C20.7558 26.7701 20.6089 26.2648 20.4561 25.7654C20.2681 25.1426 20.0742 24.5256 19.8862 23.9028C19.7216 23.3446 20.0272 22.7688 20.5737 22.6102C21.1319 22.4457 21.7018 22.7512 21.8722 23.3035C22.213 24.4022 22.5479 25.5069 22.8829 26.6056C22.9122 26.6996 22.9181 26.7995 22.9357 26.8994L22.9416 26.9053Z" fill="white"/>
<path d="M21.0731 20.8592C21.0731 21.435 20.6147 21.8933 20.033 21.8933C19.4513 21.8933 18.9872 21.4174 18.9872 20.8239C18.9872 20.2481 19.4455 19.7781 20.0154 19.7722C20.5913 19.7722 21.0731 20.2599 21.0731 20.8592Z" fill="white"/>
<path d="M38.4597 15.9178C38.4597 15.9178 38.4421 15.8826 38.4421 15.8649C38.4421 15.6769 38.4421 15.4948 38.4421 15.3068C38.4421 15.2833 38.4538 15.248 38.4773 15.2363C38.5478 15.1893 38.7594 15.2245 38.8181 15.2833C38.8828 15.3479 38.8828 15.4302 38.8123 15.5124C38.7653 15.5653 38.7711 15.6064 38.8005 15.6652C38.8358 15.7357 38.8534 15.8179 38.8828 15.9002L38.8358 15.9178C38.8181 15.8649 38.7946 15.8121 38.7829 15.7592C38.7594 15.6711 38.7182 15.6123 38.6184 15.6064C38.5537 15.6064 38.5244 15.624 38.5244 15.6946C38.5244 15.7651 38.5185 15.8414 38.5126 15.9119H38.4773L38.4597 15.9178ZM38.5067 15.4243C38.5067 15.5535 38.5185 15.577 38.589 15.577C38.7065 15.577 38.7887 15.5065 38.7946 15.4184C38.7946 15.3303 38.7241 15.2715 38.6125 15.2656C38.4891 15.2656 38.5126 15.3479 38.5126 15.4243H38.5067Z" fill="white"/>
</svg>
