<svg width="87" height="87" viewBox="0 0 87 87" fill="none" xmlns="http://www.w3.org/2000/svg">
<path d="M43.45 86.9C67.4468 86.9 86.9 67.4468 86.9 43.45C86.9 19.4532 67.4468 0 43.45 0C19.4532 0 0 19.4532 0 43.45C0 67.4468 19.4532 86.9 43.45 86.9Z" fill="#FCBF21"/>
<path d="M61.3187 54.3844C61.0431 52.5085 60.394 50.7481 59.4605 49.1034C57.9134 46.3562 56.5442 43.5378 55.3884 40.6039C54.2681 37.7678 52.8633 35.0917 50.765 32.8246C50.685 32.7446 50.6495 32.5935 50.4628 32.7179C49.5825 33.3314 48.5956 33.6692 47.5643 33.9093C45.386 34.3983 43.1988 34.4249 41.0027 34.1049C39.6602 33.9093 38.3443 33.5625 37.1262 32.9491C36.9217 32.8424 36.6906 32.629 36.5127 32.6646C36.3349 32.709 36.2104 33.0024 36.0504 33.1714C34.6367 34.7361 33.4898 36.4876 32.6274 38.4168C32.1117 39.5637 31.6671 40.7462 31.1959 41.9108C30.3335 44.0357 29.4533 46.1517 28.2352 48.1165C27.7818 48.8544 27.3817 49.6101 27.0438 50.4014C26.3147 52.1084 25.8168 53.8687 25.719 55.7358C25.6123 57.8429 26.1191 59.8255 26.9904 61.7281C28.2441 64.4575 30.1201 66.689 32.4851 68.5205C33.0897 68.9828 33.7121 69.4096 34.4145 69.8185C34.3433 69.5963 34.2366 69.4718 34.1388 69.3384C33.4631 68.4316 32.7163 67.5781 32.165 66.5823C31.1159 64.6975 30.6091 62.6527 30.4313 60.51C30.2357 58.1185 30.4757 55.7624 31.107 53.4509C31.8361 50.7748 32.9919 48.3032 34.8412 46.2228C35.428 45.5649 35.5436 44.9959 35.1524 44.1868C34.4945 42.8088 34.2633 41.333 34.5478 39.8127C34.8145 38.3635 35.4014 37.0566 36.4861 36.0253C37.7397 34.8339 39.4557 34.7983 40.7982 35.8919C41.2072 36.2297 41.5362 36.6298 41.8118 37.0743C42.2297 37.7411 42.4964 38.4791 42.7898 39.1992C42.9558 39.6082 43.261 39.8127 43.7056 39.8127C44.2035 39.8127 44.2124 39.8127 44.3635 39.3237C44.6658 38.3724 45.0303 37.4655 45.6082 36.6387C47.0219 34.6116 49.956 34.6739 51.2896 36.6209C52.4188 38.2657 52.8722 40.0794 52.641 42.062C52.5343 42.9688 52.2498 43.8223 51.8675 44.6492C51.6719 45.0581 51.6897 45.4226 52.0276 45.7961C53.7613 47.7164 54.9971 49.9213 55.7707 52.3929C56.4819 54.6422 56.7842 56.9538 56.7754 59.3098C56.7754 61.3635 56.4375 63.355 55.6462 65.2665C55.0772 66.6446 54.2147 67.827 53.299 68.9739C53.1211 69.1962 52.9433 69.4362 52.7655 69.6674C52.9078 69.7118 52.97 69.6318 53.05 69.5874C53.8947 69.0806 54.686 68.4938 55.4328 67.8626C57.9401 65.7377 59.7983 63.1772 60.7941 60.0211C61.372 58.1807 61.6032 56.3048 61.3187 54.3844Z" fill="white"/>
<path d="M35.428 26.0589C35.508 26.4589 35.5792 26.859 35.6503 27.2591C35.7748 27.8992 35.8904 28.5393 36.0148 29.1706C36.1304 29.7485 36.2727 30.3175 36.3616 30.8954C36.3971 31.171 36.4949 31.3488 36.735 31.4644C36.8239 31.5088 36.9039 31.5533 36.984 31.5977C37.9086 32.1045 38.8955 32.4246 39.918 32.6557C40.8604 32.8691 41.8118 33.0113 42.772 33.0469C44.4168 33.118 46.0528 33.0469 47.662 32.6468C48.6934 32.389 49.6714 32.0156 50.5339 31.3844C50.605 31.331 50.6672 31.2866 50.685 31.1888C50.7828 30.6998 50.8895 30.2197 50.9873 29.7396C51.1829 28.7883 51.3785 27.837 51.5741 26.8857C51.7608 25.9788 51.9475 25.072 52.1431 24.1563C52.3387 23.1961 52.5432 22.2359 52.7299 21.2757C52.7833 21.0001 52.89 20.7245 52.8722 20.3778C52.4988 20.7245 52.1787 21.0357 51.8497 21.3379C50.4094 22.716 48.969 24.0851 47.5287 25.4632C47.3598 25.6232 47.3064 25.6054 47.2175 25.3921C46.8707 24.5386 46.5062 23.6851 46.1417 22.8316C45.4926 21.2935 44.8436 19.7554 44.1946 18.2262C44.0078 17.7906 43.8211 17.3461 43.6077 16.8482C43.2254 17.7461 42.8787 18.573 42.523 19.4087C42.1407 20.3066 41.7673 21.2135 41.385 22.1114C41.0827 22.8405 40.7804 23.5784 40.4781 24.3074C40.3181 24.6897 40.1492 25.072 39.9802 25.4543C39.918 25.5966 39.8646 25.7121 39.7046 25.5165C39.5623 25.3387 39.4023 25.1876 39.2423 25.0364C37.8908 23.7473 36.5394 22.4582 35.188 21.169C34.9123 20.9023 34.6278 20.6445 34.29 20.3244C34.5034 21.4446 34.7078 22.4937 34.9123 23.5428C35.0813 24.3874 35.2502 25.232 35.4102 26.0766L35.428 26.0589Z" fill="white"/>
<path d="M44.6569 40.5506C44.3457 40.275 43.9811 40.0972 43.5455 40.115C43.1009 40.0972 42.7364 40.2928 42.443 40.6039C41.9718 41.0929 41.6428 41.6797 41.385 42.3109C41.2516 42.6488 41.0916 42.9777 41.0827 43.3511C41.0827 43.6356 41.2338 43.7779 41.5183 43.7779C41.625 43.7779 41.7229 43.7601 41.8207 43.7246C42.2563 43.5734 42.6831 43.4045 43.1454 43.36C43.91 43.2889 44.648 43.4134 45.3504 43.7423C45.6882 43.9024 45.9905 43.8935 45.9994 43.36C45.9994 43.2356 46.0172 43.12 45.9994 42.9955C45.8749 42.0087 45.3948 41.2085 44.6569 40.5595V40.5506Z" fill="white"/>
<path d="M38.4954 22.7071L39.5713 23.854C39.7313 23.4628 39.8736 23.0983 40.0158 22.7249C40.167 22.3515 40.3181 21.9781 40.4781 21.6136C40.5404 21.4713 40.5048 21.3735 40.4337 21.2579C40.2203 20.929 40.0158 20.6 39.8113 20.2711C39.5712 19.8888 39.3223 19.5154 39.0556 19.0797C38.6644 20.0844 38.2998 21.0268 37.9353 21.9603C37.8997 22.0403 37.8997 22.1114 37.962 22.1737C38.1398 22.3515 38.3176 22.5293 38.4866 22.7071H38.4954Z" fill="white"/>
<path d="M47.0397 22.307L47.6621 23.8451C48.1778 23.3028 48.6579 22.796 49.138 22.2804C49.2447 22.2004 49.3781 22.1292 49.3069 21.9514C48.9513 21.0535 48.6045 20.1555 48.2489 19.2576C48.2311 19.2131 48.1955 19.1509 48.16 19.142C48.0977 19.1242 48.0889 19.1953 48.0622 19.2398C47.6265 19.9244 47.1998 20.6178 46.7552 21.3024C46.7019 21.3913 46.6841 21.4802 46.7285 21.5691C46.8352 21.8181 46.933 22.0581 47.0397 22.307Z" fill="white"/>
<path d="M37.8731 39.4393C37.2952 39.5993 36.9129 40.1416 36.904 40.7995C36.904 40.9685 36.9484 41.1552 37.0107 41.333C37.0551 41.4486 37.0907 41.5019 37.2329 41.4308C37.9531 41.0307 38.6733 40.6395 39.4023 40.2483C39.5179 40.1861 39.5179 40.1327 39.4468 40.035C39.1267 39.546 38.4332 39.2792 37.8642 39.4393H37.8731Z" fill="white"/>
<path d="M49.298 39.4571C48.729 39.2704 48.0444 39.5193 47.6799 40.0172C47.5821 40.1505 47.5998 40.2039 47.7421 40.2839C48.3467 40.5951 48.9424 40.9329 49.5559 41.2441C49.7159 41.3241 49.8937 41.5553 50.0627 41.4219C50.2049 41.3063 50.2049 41.0396 50.2049 40.8351C50.2049 40.8351 50.2049 40.8173 50.2049 40.8084C50.2049 40.1772 49.8404 39.6349 49.2891 39.4571H49.298Z" fill="white"/>
<path d="M44.3813 44.0624C44.1146 44.0091 43.8567 43.9646 43.6967 43.9379C43.2522 43.9202 43.0121 44.1246 42.7632 44.3025C42.7098 44.338 42.7098 44.3914 42.7543 44.4358C42.9587 44.6314 43.1188 44.8715 43.4122 44.9604C44.0168 45.1471 44.3902 44.667 44.5147 44.1869C44.5414 44.0802 44.4524 44.0802 44.3902 44.0624H44.3813Z" fill="white"/>
</svg>
