<?xml version="1.0" encoding="utf-8"?>
<!-- Generator: Adobe Illustrator 26.3.1, SVG Export Plug-In . SVG Version: 6.00 Build 0)  -->
<svg version="1.1" id="katman_1" xmlns="http://www.w3.org/2000/svg" xmlns:xlink="http://www.w3.org/1999/xlink" x="0px" y="0px"
	 viewBox="0 0 256 256" style="enable-background:new 0 0 256 256;" xml:space="preserve">
<style type="text/css">
	.st0{fill-rule:evenodd;clip-rule:evenodd;fill:#1DE9B6;}
</style>
<path class="st0" d="M135.2,151.7c2.8-0.1,5.1,2.2,5.1,4.9l1.6,85.7c0.1,2.4-1.6,4.5-4,5l-34.5,6.9c-0.9,0.2-1.8,0.1-2.7-0.2
	c-2.6-0.9-4-3.8-3-6.4l33-92.7C131.2,153.1,133.1,151.8,135.2,151.7L135.2,151.7z M153,155.9c2-1.9,5.2-1.7,7.1,0.3l54.1,58.9
	c0.6,0.7,1.1,1.6,1.3,2.5c0.5,2.7-1.3,5.3-4,5.9l-52.9,9.7c-0.3,0.1-0.5,0.1-0.8,0.1c-2.8,0.1-5.1-2.2-5.1-4.9l-1.3-68.6
	C151.4,158.2,152,156.8,153,155.9z M122.7,145.5c0.3,1,0.2,2-0.1,2.9l-26.1,73.7c-0.9,2.6-3.8,4-6.4,3.1c-0.7-0.2-1.3-0.6-1.8-1.1
	L34,171.3c-2-1.9-2-5.1-0.1-7.1c0.6-0.6,1.5-1.1,2.3-1.4l80.4-21C119.3,141.2,122,142.8,122.7,145.5z M169.7,134l82.3,16.9
	c2.6,0.5,4.3,3,4,5.6l-8.8,63.8c-0.4,2.7-2.9,4.7-5.7,4.3c-1.2-0.2-2.2-0.7-3-1.6L165,142.2c-1.9-2-1.7-5.2,0.3-7.1
	C166.5,134.1,168.2,133.6,169.7,134z M6.3,79.1c1-2.6,3.9-3.9,6.5-2.9l112.8,43.1c1.5,0.6,2.7,1.9,3.1,3.4c0.7,2.7-0.9,5.4-3.6,6.1
	L6.3,159.7c-0.5,0.1-1.1,0.2-1.7,0.1c-2.8-0.2-4.8-2.6-4.6-5.4l6-74C6,80,6.1,79.5,6.3,79.1L6.3,79.1z M224.1,40.9
	c0.9,0.7,1.6,1.8,1.8,2.9l17,85.1c0.6,2.7-1.2,5.4-3.9,5.9c-0.7,0.1-1.3,0.1-2,0l-73.2-15c-2.7-0.6-4.5-3.2-3.9-5.9
	c0.2-0.8,0.5-1.5,1-2.1l56.1-70.1C218.8,39.5,221.9,39.2,224.1,40.9z M140.5,26.2c0.4,0.8,0.7,1.6,0.7,2.5v77.5c0,2.8-2.2,5-5,5
	c-0.6,0-1.2-0.1-1.8-0.3L54,80.1c-2.6-1-3.9-3.9-2.9-6.5c0.4-1.1,1.2-2,2.2-2.6l80.3-46.7C136,23,139.1,23.8,140.5,26.2z M151.5,4.1
	c0.9-2.6,3.8-4,6.4-3l53.6,19.1c0.5,0.2,1,0.5,1.5,0.8c2.2,1.7,2.5,4.9,0.8,7.1l-53.6,66.9c-0.9,1.2-2.4,1.9-3.9,1.9
	c-2.8,0-5-2.2-5-5v-86C151.2,5.2,151.3,4.6,151.5,4.1L151.5,4.1z"/>
</svg>
