<?xml version="1.0" encoding="utf-8"?>
<!-- Generator: Adobe Illustrator 26.3.1, SVG Export Plug-In . SVG Version: 6.00 Build 0)  -->
<svg version="1.1" id="katman_1" xmlns="http://www.w3.org/2000/svg" xmlns:xlink="http://www.w3.org/1999/xlink" x="0px" y="0px"
	 viewBox="0 0 256 256" style="enable-background:new 0 0 256 256;" xml:space="preserve">
<style type="text/css">
	.st0{opacity:0.96;}
	.st1{fill-rule:evenodd;clip-rule:evenodd;fill:url(#SVGID_1_);}
</style>
<g class="st0">
	
		<radialGradient id="SVGID_1_" cx="5.2825" cy="252.7335" r="10.1803" gradientTransform="matrix(25.6901 0 0 -25.6901 -7.6885 6620.3574)" gradientUnits="userSpaceOnUse">
		<stop  offset="0" style="stop-color:#FFDB00"/>
		<stop  offset="1" style="stop-color:#F5B42E"/>
	</radialGradient>
	<path class="st1" d="M154.7,191.6c17.7,0,32,14.3,32,32c0,17.7-14.3,32-32,32c-17.7,0-32-14.3-32-32
		C122.7,205.9,137,191.6,154.7,191.6z M48,111.6c26.5,0,48,21.5,48,48c0,26.5-21.5,48-48,48c-26.5,0-48-21.5-48-48
		C0,133.1,21.5,111.6,48,111.6z M184-0.4c39.8,0,72,32.2,72,72c0,39.8-32.2,72-72,72s-72-32.2-72-72C112,31.9,144.3-0.4,184-0.4z"/>
</g>
</svg>
