<?xml version="1.0" encoding="utf-8"?>
<!-- Generator: Adobe Illustrator 26.3.1, SVG Export Plug-In . SVG Version: 6.00 Build 0)  -->
<svg version="1.1" id="katman_1" xmlns="http://www.w3.org/2000/svg" xmlns:xlink="http://www.w3.org/1999/xlink" x="0px" y="0px"
	 viewBox="0 0 256 256" style="enable-background:new 0 0 256 256;" xml:space="preserve">
<style type="text/css">
	.st0{fill:#00DACC;}
	.st1{fill:#313144;}
</style>
<path id="Path_1" class="st0" d="M172,84.3c-0.5-24.6-20.9-44.1-45.5-43.5C102,41.3,82.5,61.7,83,86.3c0.4,17.4,10.8,33,26.8,39.9
	c2.2-3.3,3.8-6.8,4.9-10.6c0.9-2.3,1.9-4.5,2.9-6.7c4.9,1.5,10.3,0.1,13.9-3.5l0.1-0.1l0,0c-4.4-1.7-9.4-0.9-13.2,2
	c1.2-2.6,2.6-5.1,3.9-7.5c4.8,1.7,10.2,0.6,14-2.9l0.1-0.1l0,0c-4.3-1.8-9.2-1.4-13.1,1.2c1.4-2.3,2.8-4.5,4.3-6.6
	c5,1.3,10.4-0.3,13.8-4.1l0.1-0.1l0,0c-4.1-1.3-8.6-0.7-12.2,1.9c0.1-0.1,0.3-0.3,0.4-0.5c0.9-1.2,1.8-2.3,2.8-3.4
	c5.8-1.9,10-6.8,11.1-12.8l0-0.2h0c-6,1.6-10.6,6.4-11.9,12.5c-0.9,1.1-1.8,2.2-2.6,3.3c1.5-3.8,1.1-8.1-0.9-11.6l0,0l-0.1,0.1
	c-3.1,4.2-3.6,9.8-1.2,14.5c-1.4,2-2.8,4.1-4.1,6.2c0.9-4.4-0.5-8.9-3.6-12.2l0,0l-0.1,0.2c-1.9,4.8-1,10.3,2.4,14.3
	c-1.3,2.3-2.5,4.6-3.7,7c0.7-4.6-0.8-9.2-4.1-12.5l0,0l-0.1,0.2c-1.7,5.1-0.5,10.6,3.1,14.5c-0.8,1.7-1.5,3.3-2.2,5.1
	c-0.2-0.2-0.4-0.3-0.7-0.4c-1.3-0.4-2.5-0.9-3.6-1.6c-0.9-0.6-1.9-1-2.9-1.3c-4-1.3-3.4-3.2-5.5-7.1c-0.7-0.8-1.4-1.6-2.2-2.3
	c-0.7-0.5-1.3-1.1-1.7-1.8c-0.5-0.9-0.7-1.9-0.9-2.9c0-1.2-0.8-2.2-1.9-2.5c-5.9-2-3.3-9.7-3.1-10.7c-0.1-1.3-0.4-2.6-0.9-3.8
	c0-0.2-0.1-0.3-0.1-0.5c-0.3-1.6,0.1-3.3,1.2-4.5c0.7-0.7,3.2-1.9,3.7-2.5c0.5-0.7,0.9-1.4,1.4-2c1.7-1.6,3.6-3,5.7-4.1
	c1.7-0.9,2-3.3,2.7-4.1c1.1-1.3,2.8-1.3,4.1-2.4c0.6-0.6,1.6-0.9,2.2-1.5c3-2.7,6.7-4.5,10.7-4.9c2.8-0.2,5.6,0,8.3,0.7
	c0.4,0.1,0.8,0.2,1.2,0.3c6.1,0.2,13.5,1.5,16.2,4.1c1.3,1.3,2.3,2.9,2.9,4.6c0.4,1.4,1,2.7,1.8,3.9l1.6,2.7c1,1.7,1.4,3.7,0.9,5.7
	c-0.3,0.9-0.3,1.9-0.1,2.9c0.9,1.3,1.9,2.5,3,3.6c0.5,0.4,1,0.8,1.5,1.2c1.3,0.8,2.5,1.6,3.6,2.5c0.1,0.7-0.3,1.4-0.9,1.9
	c-1,0.9-3.1,2.4-3.1,2.4c0.1,0.4,0.2,0.8,0.4,1.2c0.3,0.5,1,1.3,0.7,2c-0.2,0.7-1.7,1.3-1.3,2.1c0.4,0.8,1.5,1,1.2,1.8
	c-0.3,0.7-1.7,2-1.6,2.5c0.1,0.5,1.3,5.5-1.4,6.4c-3.4,0.7-6.9,1.1-10.3,1.2c-1.1,0.1-2.2,0.7-2.7,1.7c-0.5,1-0.9,2.1-1,3.2
	c-1,4-2.3,7.8-4,11.6c0,0-0.1,0.2-0.3,0.6c-0.4,0.7-0.6,1.5-0.7,2.3c0.2,0.6,0.6,1.1,1,1.6c0.5,0.6,1.3,0.8,2,0.6
	C160.2,121.1,172.4,103.7,172,84.3z"/>
<g id="Group_1" transform="translate(146.582 70.216)">
	<path id="Path_2" class="st1" d="M-90,86.1h5.2l5.7,9.2l5.7-9.2h5.2v21.9h-4.8V93.7l-6.2,9.3h-0.1l-6.1-9.2v14.2H-90L-90,86.1
		L-90,86.1z"/>
	<path id="Path_3" class="st1" d="M-51,86.1h16.5v4.3h-11.7v4.4h10.3v4.3h-10.3v4.6h11.9v4.3H-51L-51,86.1L-51,86.1z"/>
	<path id="Path_4" class="st1" d="M-13.1,90.5h-6.6v-4.4h18.1v4.4h-6.6v17.4h-4.8L-13.1,90.5z"/>
	<path id="Path_5" class="st1" d="M14.1,86.1h4.8v21.9h-4.8V86.1z"/>
	<path id="Path_6" class="st1" d="M34.7,104.7l2.8-3.4c1.8,1.6,4.1,2.6,6.5,2.7c2,0,3.1-0.8,3.1-2.1v-0.1c0-1.2-0.8-1.9-4.4-2.8
		c-4.4-1.1-7.2-2.4-7.2-6.7v-0.1c0-4,3.1-6.6,7.7-6.6c2.9,0,5.8,0.9,8.1,2.8l-2.5,3.6c-1.6-1.3-3.6-2-5.7-2.2
		c-1.9,0-2.8,0.8-2.8,1.9v0.1c0,1.5,0.9,1.9,4.7,2.9c4.4,1.2,6.9,2.7,6.9,6.6v0.1c0,4.3-3.3,6.8-8,6.8
		C40.6,108.3,37.3,107,34.7,104.7z"/>
</g>
<image style="overflow:visible;" width="425" height="99" xlink:href="Standardized/Safe.png"  transform="matrix(0.3535 0 0 0.3535 52 184)">
</image>
</svg>
