<?xml version="1.0" encoding="UTF-8"?>
<svg id="katman_1" data-name="katman 1" xmlns="http://www.w3.org/2000/svg" width="256" height="256" viewBox="0 0 256 256">
  <defs>
    <style>
      .cls-1 {
        fill: #fefefe;
      }
    </style>
  </defs>
  <path class="cls-1" d="M.21,255.79C.21,173.87,.34,91.96,0,10.05-.03,1.85,1.8-.04,9.79,0c78.8,.35,157.61,.35,236.41,0,7.99-.04,9.83,1.85,9.79,10.04-.35,78.64-.35,157.27,0,235.91,.04,8.19-1.8,10.08-9.79,10.04-82-.35-164-.21-246-.21Z"/>
  <path d="M219,79.54c7.43,26.51-2.63,44.38-21.33,61.12-29.05,25.99-56.19,54.21-86.25,83.55,.01-21.74-7.6-40.12,14.01-57.25,30.44-24.14,56.87-53.59,85.08-80.7,2.52-2.43,5.49-4.36,8.5-6.71Z"/>
  <path d="M196.8,84.07c2.73,6.83-1.1,8.74-3.75,11.11-5.97,5.33-13.14,9.66-17.9,15.93-24.14,31.78-59.03,45.76-93.35,60.9-9.86,4.35-14.55,4.53-14.97-9.48-.41-13.9,3.23-21.75,15.91-27.24,38.07-16.47,75.74-33.93,114.06-51.22Z"/>
  <path d="M159.07,42.98c-34.64,42.23-74.13,77.57-127.95,90.63-6.94-28.49-5.07-30.46,22.15-42.14,35.62-15.3,70.57-32.25,105.8-48.49Z"/>
  <path d="M88.35,123.18c19.47-18.83,38.96-37.64,58.42-56.49,7.71-7.47,15.3-15.09,23.08-22.48,1.74-1.65,3.08-5.03,6.36-3.42,2.79,1.37,2.25,4.48,2.93,7.06,5.95,22.38-8.46,35.84-23,45.34-20.49,13.38-43.65,22.46-65.67,33.37l-2.13-3.38Z"/>
</svg>