<svg width="111" height="111" viewBox="0 0 111 111" fill="none" xmlns="http://www.w3.org/2000/svg">
<circle cx="55.5" cy="55.5" r="53.5" stroke="url(#paint0_linear_350_4163)" stroke-width="4"/>
<path d="M24.8609 78.6576H20.0133C4.24894 37.3615 28.7014 22.5785 53.4705 37.9218C52.098 38.7713 50.7244 39.7132 49.3567 40.7483C28.886 28.7077 10.431 38.5837 24.8609 78.6576Z" fill="url(#paint1_linear_350_4163)"/>
<path d="M79.6392 78.6576C79.2156 77.6064 78.7775 76.5722 78.3257 75.5555C69.0033 56.9656 40.6475 56.6732 31.1514 75.2656C30.6538 76.3755 30.1724 77.5062 29.7085 78.6575H25.3457C25.7433 77.4899 26.1885 76.3695 26.6777 75.2963C43.0722 35.7669 74.3959 24.0322 87.8842 37.1255C86.6317 37.5665 85.5712 38.4837 84.8768 39.6849C75.4577 30.2431 54.0138 39.122 38.863 61.4072C48.5888 55.5547 61.0236 55.6747 70.789 61.8578C66.3108 55.18 61.2656 49.684 56.1347 45.4986C57.4028 44.4647 58.6762 43.5109 59.9475 42.6391C68.9435 50.2112 77.5126 61.881 83.6842 77.827C83.7927 78.1011 83.8987 78.378 84.0021 78.6576H79.6392Z" fill="url(#paint2_linear_350_4163)"/>
<path d="M89.5768 46.4873C91.3171 46.4873 92.7278 44.927 92.7278 43.0022C92.7278 41.0774 91.3171 39.5171 89.5768 39.5171C87.8366 39.5171 86.4259 41.0774 86.4259 43.0022C86.4259 44.927 87.8366 46.4873 89.5768 46.4873Z" fill="url(#paint3_linear_350_4163)"/>
<path d="M89.3344 78.6576H84.4868C89.1121 65.8124 90.3587 56.0699 89.2432 49.1573C89.3009 49.1611 89.3589 49.1639 89.417 49.1657C89.4509 49.1668 89.4848 49.1675 89.5188 49.1679C89.5381 49.1681 89.5575 49.1682 89.5768 49.1682C91.0855 49.1682 92.4543 48.5053 93.4579 47.4285C95.293 55.0815 94.3458 65.5299 89.3344 78.6576Z" fill="url(#paint4_linear_350_4163)"/>
<defs>
<linearGradient id="paint0_linear_350_4163" x1="55.5" y1="0" x2="55.5" y2="111" gradientUnits="userSpaceOnUse">
<stop stop-color="#E6E6E6"/>
<stop offset="1" stop-color="#282828"/>
</linearGradient>
<linearGradient id="paint1_linear_350_4163" x1="15" y1="55" x2="94" y2="55" gradientUnits="userSpaceOnUse">
<stop stop-color="#507298"/>
<stop offset="0.979167" stop-color="#514373"/>
</linearGradient>
<linearGradient id="paint2_linear_350_4163" x1="15" y1="55" x2="94" y2="55" gradientUnits="userSpaceOnUse">
<stop stop-color="#507298"/>
<stop offset="0.979167" stop-color="#514373"/>
</linearGradient>
<linearGradient id="paint3_linear_350_4163" x1="15" y1="55" x2="94" y2="55" gradientUnits="userSpaceOnUse">
<stop stop-color="#507298"/>
<stop offset="0.979167" stop-color="#514373"/>
</linearGradient>
<linearGradient id="paint4_linear_350_4163" x1="15" y1="55" x2="94" y2="55" gradientUnits="userSpaceOnUse">
<stop stop-color="#507298"/>
<stop offset="0.979167" stop-color="#514373"/>
</linearGradient>
</defs>
</svg>
