<?xml version="1.0" encoding="utf-8"?>
<!-- Generator: Adobe Illustrator 25.2.0, SVG Export Plug-In . SVG Version: 6.00 Build 0)  -->
<svg version="1.1" id="Warstwa_1" xmlns="http://www.w3.org/2000/svg" xmlns:xlink="http://www.w3.org/1999/xlink" x="0px" y="0px"
	 viewBox="0 0 1000 1000" style="enable-background:new 0 0 1000 1000;" xml:space="preserve">
<style type="text/css">
	.st0{fill:#CD00FF;}
	.st1{fill:#00A4FF;}
</style>
<g>
	<path class="st0" d="M500.05,669.28l-0.03,0.03L380.48,549.77l-2.33-2.33l-60.33,60.32l2.33,2.33L439.67,729.6
		c33.33,33.33,87.37,33.33,120.7,0l0,0L500.05,669.28z"/>
	<path class="st1" d="M729.78,560.19L729.78,560.19c33.33-33.32,33.33-87.35,0-120.68l-168.9-168.9
		c-33.61-33.61-88.11-33.61-121.72,0L270.2,439.57c-33.29,33.29-33.29,87.27,0,120.56l0,0l30.16-30.16l0.04,0.04l84.73-84.73
		l198.05,198.05l0.1-0.11l31.73,31.73l60.28-60.28l-60.32-60.33l-0.06,0.06L445.45,384.96l54.56-54.56l169.45,169.45l-0.02,0.01
		L729.78,560.19z"/>
</g>
</svg>
