<?xml version="1.0" encoding="utf-8"?>
<!-- Generator: Adobe Illustrator 26.3.1, SVG Export Plug-In . SVG Version: 6.00 Build 0)  -->
<svg version="1.1" id="katman_1" xmlns="http://www.w3.org/2000/svg" xmlns:xlink="http://www.w3.org/1999/xlink" x="0px" y="0px"
	 viewBox="0 0 256 256" style="enable-background:new 0 0 256 256;" xml:space="preserve">
<style type="text/css">
	.st0{fill:#349EA3;}
</style>
<g id="Layer_2">
	<g id="Layer_1-2">
		<path id="path16" class="st0" d="M54.7,42l-5.1-5.3c-0.4,4.8-4,8.7-8.8,9.5l5.3,4.9l188,175.3L54.7,42z M67.1,92.8v104.6
			c3.7-3.9,9.8-4.3,14-0.9v-70.2l113.3,110.4h19.5L67.1,92.8z M199,68.6c-2.7,0-5.3-1-7.2-2.9v70.8L80.6,26H59.1l146.7,143.6V66.1
			C203.9,67.7,201.5,68.6,199,68.6L199,68.6z"/>
		<path id="path18" class="st0" d="M39.2,19.3c-9.2,0-16.6,7.4-16.7,16.6S30,52.5,39.2,52.6s16.6-7.4,16.7-16.6c0,0,0,0,0,0l0,0
			C55.8,26.7,48.4,19.3,39.2,19.3z M40.8,46.2c-0.5,0.1-1.1,0.1-1.6,0.1c-5.8,0-10.4-4.6-10.4-10.4c0-5.8,4.6-10.4,10.4-10.4
			s10.4,4.6,10.4,10.4c0,0,0,0,0,0v0.8C49.2,41.5,45.5,45.4,40.8,46.2z"/>
		<path id="path20" class="st0" d="M199,41.5c-9.2,0.2-16.5,7.8-16.2,17c0.2,8.9,7.4,16,16.2,16.2c2.3,0,4.6-0.5,6.8-1.4
			c8.4-3.7,12.2-13.5,8.5-21.9C211.6,45.4,205.6,41.5,199,41.5z M205.8,66.1c-4.4,3.7-10.9,3.2-14.7-1.2c-3.7-4.4-3.2-10.9,1.2-14.7
			c4.4-3.7,10.9-3.2,14.7,1.2c1.6,1.9,2.5,4.3,2.5,6.8C209.4,61.2,208.1,64.1,205.8,66.1z"/>
		<path id="path22" class="st0" d="M81.1,189.3c-8.5-3.6-18.2,0.4-21.8,8.8s0.4,18.2,8.8,21.8c8.5,3.6,18.2-0.4,21.8-8.8
			c0.9-2.1,1.3-4.3,1.3-6.5C91.2,197.9,87.2,191.9,81.1,189.3L81.1,189.3z M74.5,215c-5.7,0-10.4-4.7-10.4-10.4s4.7-10.4,10.4-10.4
			c5.7,0,10.4,4.7,10.4,10.4C85,210.3,80.3,215,74.5,215C74.6,215,74.6,215,74.5,215L74.5,215z"/>
	</g>
</g>
</svg>
