<svg width="58" height="58" viewBox="0 0 58 58" fill="none" xmlns="http://www.w3.org/2000/svg">
<path d="M28.715 57.43C44.5739 57.43 57.43 44.5739 57.43 28.715C57.43 12.8561 44.5739 0 28.715 0C12.8561 0 0 12.8561 0 28.715C0 44.5739 12.8561 57.43 28.715 57.43Z" fill="#58B74A"/>
<path opacity="0.73" d="M15.0125 17.483L23.9673 21.3844L32.9162 17.4888L33.1336 17.718C30.1193 22.9296 27.105 28.1472 23.9673 33.5762C20.8355 28.1589 17.8153 22.9355 14.7951 17.7121L15.0184 17.4888L15.0125 17.483Z" fill="white"/>
<path d="M33.3334 23.9344C36.477 29.3752 39.4795 34.5633 42.4762 39.7514L42.247 40.01C39.2915 38.7232 36.3301 37.4423 33.3393 36.138L24.4491 40.01L24.2023 39.7632C27.1931 34.5809 30.1839 29.3928 33.3393 23.9344H33.3334Z" fill="white"/>
</svg>
