<svg width="87" height="87" viewBox="0 0 87 87" fill="none" xmlns="http://www.w3.org/2000/svg">
<path d="M43.3 86.6C67.2139 86.6 86.6 67.2139 86.6 43.3C86.6 19.3861 67.2139 0 43.3 0C19.3861 0 0 19.3861 0 43.3C0 67.2139 19.3861 86.6 43.3 86.6Z" fill="#28E05C"/>
<path d="M48.3618 37.3648H37.951C37.508 37.3648 37.1535 37.7192 37.1535 38.1622V48.5726C37.1535 49.0156 37.508 49.37 37.951 49.37H48.3618C48.8049 49.37 49.1593 49.0156 49.1593 48.5726V38.1622C49.1593 37.7192 48.8049 37.3648 48.3618 37.3648Z" fill="white"/>
<path d="M36.3472 25.3507H25.9363C25.4933 25.3507 25.1389 25.7051 25.1389 26.1481V36.5585C25.1389 37.0015 25.4933 37.3559 25.9363 37.3559H36.3472C36.7902 37.3559 37.1447 37.0015 37.1447 36.5585V26.1481C37.1447 25.7051 36.7902 25.3507 36.3472 25.3507Z" fill="white"/>
<path d="M60.3764 25.3507H49.9655C49.5225 25.3507 49.1681 25.7051 49.1681 26.1481V36.5585C49.1681 37.0015 49.5225 37.3559 49.9655 37.3559H60.3764C60.8194 37.3559 61.1738 37.0015 61.1738 36.5585V26.1481C61.1738 25.7051 60.8194 25.3507 60.3764 25.3507Z" fill="white"/>
<path d="M36.3472 49.3789H25.9363C25.4933 49.3789 25.1389 49.7333 25.1389 50.1763V60.5867C25.1389 61.0297 25.4933 61.3841 25.9363 61.3841H36.3472C36.7902 61.3841 37.1447 61.0297 37.1447 60.5867V50.1763C37.1447 49.7333 36.7902 49.3789 36.3472 49.3789Z" fill="white"/>
<path d="M60.3764 49.3789H49.9655C49.5225 49.3789 49.1681 49.7333 49.1681 50.1763V60.5867C49.1681 61.0297 49.5225 61.3841 49.9655 61.3841H60.3764C60.8194 61.3841 61.1738 61.0297 61.1738 60.5867V50.1763C61.1738 49.7333 60.8194 49.3789 60.3764 49.3789Z" fill="white"/>
</svg>
