<?xml version="1.0" encoding="UTF-8"?>
<svg id="katman_1" data-name="katman 1" xmlns="http://www.w3.org/2000/svg" width="256" height="256" viewBox="0 0 256 256">
  <defs>
    <style>
      .cls-1 {
        fill: #f1a565;
      }

      .cls-2 {
        fill: #ec7a86;
      }

      .cls-3 {
        fill: #ef986e;
      }

      .cls-4 {
        fill: #f2b25d;
      }

      .cls-5 {
        fill: #fefefe;
      }

      .cls-6 {
        fill: #ee8c77;
      }

      .cls-7 {
        fill: #6bb1f8;
      }

      .cls-8 {
        fill: #b56d79;
      }

      .cls-9 {
        fill: #65aaf7;
      }

      .cls-10 {
        fill: #a48156;
      }

      .cls-11 {
        fill: #b08368;
      }

      .cls-12 {
        fill: #c19182;
      }

      .cls-13 {
        fill: #4178f5;
      }

      .cls-14 {
        fill: #7196c1;
      }

      .cls-15 {
        fill: #457ef5;
      }

      .cls-16 {
        fill: #5290f7;
      }

      .cls-17 {
        fill: #62a5f8;
      }

      .cls-18 {
        fill: #5898f5;
      }

      .cls-19 {
        fill: #3165f5;
      }

      .cls-20 {
        fill: #4c6be2;
      }

      .cls-21 {
        fill: #4d89f5;
      }

      .cls-22 {
        fill: #508ef3;
      }
    </style>
  </defs>
  <path class="cls-5" d="M128,198.98c-40.25,0-80.49-.08-120.74,.12-4.07,.02-4.91-.82-4.89-4.89,.19-43.17,.19-86.34,0-129.51-.02-4.07,.82-4.89,4.89-4.88,80.49,.15,160.98,.15,241.47,0,4.07,0,4.91,.82,4.89,4.88-.19,43.17-.19,86.34,0,129.51,.02,4.07-.82,4.91-4.89,4.89-40.24-.19-80.49-.12-120.74-.12Z"/>
  <path class="cls-16" d="M164.78,151.3l-9.11-10.96c0,7.14-.15,12.85,.05,18.55,.12,3.44-.97,4.95-4.6,4.72-4.5-.29-9.03-.2-13.55-.27-1.48-7.07-.29-14.23-.68-21.33,3.48-6.68,9.59-10.85,15.1-15.57,1.08-.92,2.53-.65,3.81-.01,6.32-5.78,10.42-13.34,15.68-19.96,1.79-2.25,3.42-3.27,6.1-3.25,6.78,.04,13.55,.01,21.97,.01-8.08,9.66-15.26,18.43-22.68,26.99-2.02,2.33-3.3,4.23-.93,6.91-1.16,6.74-6.44,10.24-11.16,14.17Z"/>
  <path class="cls-9" d="M101.96,99.73c13.07,3.37,21.96,11.2,25.83,24.32-3.7,12.79-10.81,23.38-20.85,32.04-3.29,2.84-7,5.05-10.94,6.85-3.52,1.6-7.47,3.81-10.67,.26-3.47-3.84-.92-7.89,1.58-11.09,7.12-9.12,14.88-17.75,18.66-29.03,1.08-3.23,1.87-6.09-1.16-8.61-1.47-1.75-3.21-3.23-4.92-4.75-.73-.77-1.2-1.67-1.47-2.69-.51-3.41-.44-6.51,3.93-7.3Z"/>
  <path class="cls-6" d="M48.96,152.4c-2.89-1.28-5.96-2.24-8.33-4.49-.61-1.92-3.58-2.42-3.05-5.03,2.19-3.53,6.11-4.49,9.46-6.22,16.33-8.46,25.39-21.81,27.4-40.03,.29-2.63-.06-5.58,3.16-6.88,4.88,1.85,8.15,5.55,11.06,9.65,.4,.56,.73,1.17,1,1.81,.86,21.33-25.01,50.11-40.69,51.19Z"/>
  <path class="cls-18" d="M104.83,113.06c4.16,2.28,4.51,5.23,2.82,9.63-3.94,10.27-9.78,19.15-17.07,27.32-2.94,3.29-8.01,7.63-4.26,12.11,3.61,4.31,8.37-.3,12.05-2.32,11.91-6.55,19.84-16.79,25.31-29.01,1.1-2.45,1.46-5.25,4.1-6.73,2.08,11.4,1.1,22.05-6.58,31.55-11.02,13.63-33.13,16.32-46.47,5.36-1.49-6.38,4.01-8.76,7.49-11.59,8.56-6.96,14.2-15.75,18.72-25.55,1.61-3.5,1.21-7.68,3.89-10.75Z"/>
  <path class="cls-1" d="M51.44,86.82c4.53-1.34,8.99-3.58,13.79-.93,3.2,6.51,2.71,13.39,.37,19.71-5.91,15.96-17.12,26.14-34.41,28.78-4.42-2.21-2.91-7.12-4.79-10.49,.05-1.8-.26-3.62,.3-5.4,15.41-4.03,24.09-13.38,23.78-29.91-.01-.58,.63-1.18,.96-1.77Z"/>
  <path class="cls-3" d="M31.01,133.59c9.44-3.21,18.41-6.89,25.31-14.8,8.47-9.7,9.72-20.92,8.92-32.91,3.79,2.33,9.12-.22,12.36,3.86-2.46,3.66-.98,7.94-1.87,11.87-3.85,17.12-13.2,29.82-29.32,37.27-2.87,1.32-5.66,2.81-8.49,4.22-3.25,.6-3.71-2.66-5.55-4.02h.06c-.63-1.79-2.83-3.18-1.42-5.5Z"/>
  <path class="cls-13" d="M208.52,163.21c-1.81-1.04-1.11-2.81-1.11-4.27-.03-17,.14-33.99-.06-50.99-.05-4.17,1.14-5.35,5.34-5.38,13.72-.09,13.75-.27,13.74,13.33,0,4.98-.18,9.95-.27,14.93-1.48,1.68-2.72,3.57-4.47,4.99-7.55,6.14-13.58,12.98-11.64,23.79,.23,1.29-.48,2.62-1.52,3.6Z"/>
  <path class="cls-2" d="M48.96,152.4c21.54-10.76,36.4-26.63,39.47-51.52,3.56-.1,4.17,2.89,5.18,5.2,2.97,6.8,2.51,13.93,1.7,21.07-2.78,11.18-8.97,19.68-19.47,24.87-2.96,1.47-5.92,2.23-9.17,1.26-4.69-.3-9.43,.64-14.08-.57-1.21-.11-2.43-.21-3.64-.32Z"/>
  <path class="cls-17" d="M155.79,126.43c-4.89,.85-6.91,5.36-10.34,8.07-2.56,2.02-4.01,5.51-7.82,5.86-1.62-9.75-.31-19.57-.75-29.34,3.56-7.17,9.7-11.82,16.06-16.23,.75-.52,1.72-.01,2.46,.55,.13,10.36,.26,20.72,.39,31.08Z"/>
  <path class="cls-15" d="M164.78,151.3c2.69-5.53,8-9.01,11.16-14.17,7.62,8.44,15.24,16.89,23.72,26.28-14.18,.09-27.96,3.7-34.88-12.11Z"/>
  <path class="cls-4" d="M51.44,86.82c1.29,11.74-1.25,21.79-12.07,28.5-3.79,2.36-7.7,3.47-12.09,3.21-2.52-4.14,1.09-7.72,1.08-11.64,4.2-10.7,11.58-17.75,23.08-20.08Z"/>
  <path class="cls-19" d="M208.52,163.21c0-2.03,.29-4.11-.02-6.09-2.2-14.23,8.62-19.65,17.65-26.29,.1,9.42,.08,18.85,.36,28.26,.11,3.5-.98,4.87-4.57,4.59-4.46-.35-8.95-.33-13.43-.47Z"/>
  <path class="cls-21" d="M227.91,88.38c.05,6.5-4.48,11.13-10.86,11.11-6.35-.02-10.98-4.61-11.19-11.07-.18-5.58,5.36-10.71,11.61-10.78,5.95-.07,10.38,4.49,10.44,10.74Z"/>
  <path class="cls-22" d="M68.01,152.69c13.7-2.86,21.33-11.93,25.35-24.71,2.47-3.55,3.59-7.59,4.2-11.79,.39-2.69,.54-5.44,3.11-7.17,1.92,.8,3.22,2.23,4.17,4.03-1.16,14.61-8.76,25.78-19.1,35.44-4.07,3.81-9.23,6.62-10.99,12.46-3.28-1.43-5.69-3.78-7.39-6.9-.12-.62,.09-1.07,.65-1.37Z"/>
  <path class="cls-7" d="M155.4,95.35c-4.77,.69-6.55,5.2-9.87,7.74-2.62,2-4.06,5.56-7.9,5.93-1.67-7.3-.3-14.69-.72-22.03-.13-2.29,.99-3.32,3.24-3.16,5.1,.35,10.27-.86,15.3,.73-.01,3.6-.03,7.19-.04,10.79Z"/>
  <path class="cls-14" d="M155.44,84.56q-17.91-.41-17.89,17.71c0,2.25,.05,4.5,.08,6.75,0,10.45,0,20.9,0,31.35-.02,7.66-.04,15.32-.06,22.97-2.34-1.02-1.36-3.12-1.36-4.73-.05-23.3,.1-46.61-.08-69.91-.03-4.44,1.28-6.33,5.73-5.63,4.51,.71,9.35-1.67,13.59,1.49Z"/>
  <path class="cls-20" d="M100.67,109.03c-2.07,6.46-.01,14.51-7.3,18.96,1.65-9.63,1.4-18.92-4.93-27.1,.07-.49,.14-.99,.22-1.48,.83,.09,1.66,.17,2.49,.25,3.89,1.49,6.33,4.46,8.2,8.01l1.32,1.36Z"/>
  <path class="cls-22" d="M99.34,107.67c-3.27-2.12-5.79-5.01-8.2-8.01,3.61,.02,7.21,.05,10.82,.07-3.31,1.84-2.53,5.03-2.62,7.93Z"/>
  <path class="cls-11" d="M31.01,133.59c.47,1.83,.95,3.67,1.42,5.5-4.63-3.98-5.54-9.57-6.58-15.11,.44-.59,.85-.58,1.25,.04,1.84,2.97,.92,7.06,3.9,9.57Z"/>
  <path class="cls-10" d="M27.1,124.03c-.42,0-.84-.02-1.25-.04-.37-5.87-.98-11.78,2.52-17.09-.36,3.88-.72,7.76-1.08,11.63-.06,1.83-.12,3.66-.19,5.5Z"/>
  <path class="cls-12" d="M32.37,139.09c1.85,1.34,3.7,2.68,5.55,4.02,.9,1.6,1.81,3.2,2.71,4.8-3.47-2.27-6.99-4.49-8.26-8.82Z"/>
  <path class="cls-8" d="M68.01,152.69c-.22,.46-.43,.91-.65,1.37-4.89-.74-10.04,1.38-14.75-1.34,5.13,0,10.27-.02,15.4-.03Z"/>
</svg>