<?xml version="1.0" encoding="utf-8"?>
<!-- Generator: Adobe Illustrator 26.3.1, SVG Export Plug-In . SVG Version: 6.00 Build 0)  -->
<svg version="1.1" id="katman_1" xmlns="http://www.w3.org/2000/svg" xmlns:xlink="http://www.w3.org/1999/xlink" x="0px" y="0px"
	 viewBox="0 0 256 256" style="enable-background:new 0 0 256 256;" xml:space="preserve">
<style type="text/css">
	.st0{fill-rule:evenodd;clip-rule:evenodd;}
</style>
<path class="st0" d="M61.6,65.2L0,126.7l6.5,6.5l6.5,6.5l18-18l18-18l2.1,2c1.2,1.1,6.9,6.7,12.6,12.5l10.5,10.5l-18.1,18.1
	l-18.1,18.1l6.5,6.5l6.5,6.5L70,158.9l18.9-18.9l-1.6-6.4c-0.9-3.5-1.6-6.5-1.5-6.5s3,0.6,6.5,1.6l6.3,1.7l12.5-12.5l12.5-12.5
	l-0.2-50.8l-0.2-50.8L61.6,65.2z M132.5,54.3v51.2l36.2,36.2l36.2,36.2l6.3-6.2c4.8-4.8,6.1-6.5,5.5-7.5c-0.4-0.7-7.1-7.6-14.9-15.4
	l-14.2-14.1l18.8-18.9c10.4-10.4,18.9-19,19-19.1c0.1-0.1-20.8-21.1-46.4-46.7L132.5,3.2V54.3z M96.1,106.8l-8.9,8.9l-12.6-12.5
	L62,90.7l21.3-21.3l21.3-21.3l0.2,24.9l0.2,24.9L96.1,106.8z M187.4,108.7c-6.8,6.8-12.6,12.3-13,12.2c-0.3-0.1-5.7-5.3-12-11.5
	l-11.3-11.3V73V47.8l24.3,24.3l24.3,24.3L187.4,108.7z M93.1,148.7c-19.2,19.2-35,35.1-35.2,35.3c-0.5,0.5,69,70,70.1,70
	c0.4,0,16.5-15.7,35.6-34.8l34.8-34.8l-12.9-13l-13-13l-6.5,6.5l-6.5,6.5l6.5,6.5l6.5,6.5l-22.3,22.3L128,228.9l-22.3-22.3
	l-22.3-22.3l22.3-22.3l22.3-22.3l6.5,6.5l6.5,6.5l6.5-6.5l6.5-6.5l-13-13l-13-13L93.1,148.7z M236.6,120.3l-6.5,6.5l6,6.1
	c3.3,3.3,6.4,6.1,6.9,6.1s3.6-2.7,6.9-6.1l6-6.1l-6.5-6.5l-6.5-6.5L236.6,120.3z"/>
</svg>
