<?xml version="1.0" encoding="utf-8"?>
<!-- Generator: Adobe Illustrator 26.3.1, SVG Export Plug-In . SVG Version: 6.00 Build 0)  -->
<svg version="1.1" id="katman_1" xmlns="http://www.w3.org/2000/svg" xmlns:xlink="http://www.w3.org/1999/xlink" x="0px" y="0px"
	 viewBox="0 0 256 256" style="enable-background:new 0 0 256 256;" xml:space="preserve">
<style type="text/css">
	.st0{fill-rule:evenodd;clip-rule:evenodd;fill:#7F46F0;}
	.st1{fill-rule:evenodd;clip-rule:evenodd;fill:#D34FA0;}
	.st2{fill-rule:evenodd;clip-rule:evenodd;fill:#0AA5E8;}
	.st3{fill-rule:evenodd;clip-rule:evenodd;fill:#38E4DE;}
</style>
<path class="st0" d="M144.1,148.1v24.3c0,23.3-18.9,42.1-42.2,42.2H73.1v-32h28.2c5.9,0,10.7-4.8,10.8-10.8v-28.2h32V148.1z"/>
<path class="st1" d="M107.6,111.7H83.3c-23.3,0-42.1,18.9-42.2,42.2v28.8h32v-28.2c0-5.9,4.8-10.7,10.8-10.8h28.2v-32H107.6z"/>
<path class="st2" d="M148.5,143.7h24.3c23.3,0,42.1-18.9,42.2-42.2V72.7h-32v28.2c0,5.9-4.8,10.7-10.8,10.8h-28.2v32H148.5z"/>
<path class="st3" d="M112.1,107.2V82.9c0-23.3,18.9-42.1,42.2-42.2H183v32h-28.2c-5.9,0-10.7,4.8-10.8,10.8v28.2h-32V107.2z"/>
</svg>
