<?xml version="1.0" encoding="utf-8"?>
<!-- Generator: Adobe Illustrator 26.3.1, SVG Export Plug-In . SVG Version: 6.00 Build 0)  -->
<svg version="1.1" id="katman_1" xmlns="http://www.w3.org/2000/svg" xmlns:xlink="http://www.w3.org/1999/xlink" x="0px" y="0px"
	 viewBox="0 0 256 256" style="enable-background:new 0 0 256 256;" xml:space="preserve">
<style type="text/css">
	.st0{fill:#295EFD;}
	.st1{fill:#FFFFFF;}
</style>
<path class="st0" d="M256,45v166.6c0,24.9-20.1,45-45,45H44.4c-24.9,0-45-20.1-45-45V45c0-24.9,20.1-45,45-45H211
	C235.9,0,256,20.1,256,45z"/>
<path class="st1" d="M226.7,141.8c0,12.1-9.8,21.9-21.9,21.9c-12.1,0-21.9-9.8-21.9-21.9c0-12.1,9.8-21.9,21.9-21.9
	C216.9,119.9,226.7,129.7,226.7,141.8z"/>
<path class="st1" d="M147.4,145.2c24.8-6.5,39.2-30.8,39.2-51c0-20.8-15.8-60.6-75.5-53.3c0,0-75.9,8.1-82,85.6
	c-5.3,66.9,55.3,97.3,92,88.4v-32.2c0,0,0.8-12.4-2.4-24.6c11.9,20,34.3,49.4,62.5,49.4c37.8,0,40.2-40.4,40.2-40.4
	S186,198.9,147.4,145.2z M95.5,119.8v53c-31.7-5.9-34.8-49.3-21.8-71.6c22-38,78.1-36.2,78.1-3.7C151.7,130.1,95.5,119.8,95.5,119.8
	z"/>
</svg>
