<?xml version="1.0" encoding="utf-8"?>
<!-- Generator: Adobe Illustrator 26.3.1, SVG Export Plug-In . SVG Version: 6.00 Build 0)  -->
<svg version="1.1" id="katman_1" xmlns="http://www.w3.org/2000/svg" xmlns:xlink="http://www.w3.org/1999/xlink" x="0px" y="0px"
	 viewBox="0 0 256 256" style="enable-background:new 0 0 256 256;" xml:space="preserve">
<style type="text/css">
	.st0{fill:#5E59EC;}
</style>
<path class="st0" d="M127.5,0.1C57.1,0.1,0,57.4,0,128c0,70.7,57.1,128,127.5,128c70.4,0,127.5-57.3,127.5-128
	C254.9,57.4,197.9,0.1,127.5,0.1z M163.5,191.8l-0.3-79.7l-79.5,79.7l-38.9,0l99.6-99.9H108c-11.2,0-20.4,9.2-20.4,20.5
	c0,4.7,1.6,9,4.3,12.5l-19.5,19.6c-7.6-8.5-12.3-19.8-12.3-32.1c0-26.5,21.5-48.1,47.9-48.1h83v127.5L163.5,191.8z"/>
</svg>
