<?xml version="1.0" encoding="utf-8"?>
<!-- Generator: Adobe Illustrator 26.3.1, SVG Export Plug-In . SVG Version: 6.00 Build 0)  -->
<svg version="1.1" id="katman_1" xmlns="http://www.w3.org/2000/svg" xmlns:xlink="http://www.w3.org/1999/xlink" x="0px" y="0px"
	 viewBox="0 0 256 256" style="enable-background:new 0 0 256 256;" xml:space="preserve">
<path d="M110.9,22.6C31.4,71.5,6,118.9-0.1,231c-0.2,3.1,3.3,5,5.8,3.4c43.3-28.3,68.3-34.3,106.2-26.2c2.4,0.5,4.6-1.3,4.6-3.7
	V25.7C116.6,22.8,113.4,21,110.9,22.6z"/>
<path d="M133.3,53.2v159.7c0,1.6,1.1,3.1,2.6,3.6c50,16.1,77.1,14.1,118.2-8.7c2.2-1.2,2.5-4.3,0.6-6c-55-48.8-84.6-82.4-114-149.9
	C139.1,47.9,133.3,49,133.3,53.2z"/>
</svg>
