<?xml version="1.0" encoding="UTF-8"?><svg id="katman_1" xmlns="http://www.w3.org/2000/svg" xmlns:xlink="http://www.w3.org/1999/xlink" viewBox="0 0 256 256"><defs><style>.cls-1{fill:url(#Adsız_degrade_2);}.cls-2{fill:url(#Adsız_degrade_2-2);}</style><linearGradient id="Adsız_degrade_2" x1="127.61" y1="245.94" x2="127.61" y2="9.21" gradientTransform="translate(0 258) scale(1 -1)" gradientUnits="userSpaceOnUse"><stop offset="0" stop-color="#f77423"/><stop offset="1" stop-color="#fbce5b"/></linearGradient><linearGradient id="Adsız_degrade_2-2" x1="119.06" y1="9.23" x2="119.06" y2="106.44" xlink:href="#Adsız_degrade_2"/></defs><path class="cls-1" d="M222.56,209.93h0c0,.71-.06,1.41-.18,2.11-.23,1.52-.71,3-1.43,4.36l-.42,.72c-.5,.86-1.11,1.65-1.81,2.35l-.64,.64-.26,.2h0l-.62,.44v.06c-.68,.46-1.59,1.06-2.07,1.33-3.29,2.23-6.65,4.32-10.1,6.27-1.61,.94-3.25,1.81-4.88,2.67-1.21,.64-2.45,1.25-3.68,1.85-.5,.26-1,.5-1.49,.72-1.12,.54-2.21,1.06-3.35,1.55l-.34,.14c-1.37,.67-2.77,1.26-4.18,1.79-.16,.08-.33,.15-.5,.2-1.25,.52-2.51,1-3.76,1.47-.38,.14-.76,.3-1.16,.44-2.91,1.08-5.86,2.05-8.82,2.93l-.42,.14c-1.47,.44-3,.86-4.48,1.25-2.45,.64-4.94,1.24-7.45,1.77-1.59,.34-3.19,.66-4.78,.94l-2.65,.46c-1.65,.28-3.31,.52-5,.74s-3.39,.4-5.1,.56-3.37,.3-5.06,.42c-3.39,.22-6.79,.34-10.2,.34-6.69,0-13.37-.42-20-1.27-3.94-.52-7.87-1.16-11.73-2s-7.34-1.64-10.96-2.67h0c-2.81-.79-5.57-1.69-8.32-2.63-5.57-1.9-11.03-4.12-16.34-6.65-6.84-3.28-13.43-7.05-19.72-11.28l-.68-.44c-.4-.26-.8-.52-1.18-.8l-1.14-.81c-.28-.26-.54-.52-.8-.8s-.5-.54-.72-.8c-.45-.52-.84-1.09-1.18-1.69h0c-.68-1.11-1.19-2.31-1.5-3.57-.3-1.13-.45-2.3-.44-3.47,0-.57,.04-1.14,.1-1.7,.17-1.41,.56-2.79,1.17-4.07,.12-.26,.24-.52,.38-.76s.3-.52,.46-.78,.34-.52,.52-.78c6.48-10.82,14.27-20.78,23.2-29.68,.9-.9,1.81-1.79,2.73-2.67s1.85-1.73,2.79-2.59c.72-.66,1.43-1.29,2.17-1.93h0s.03-.06,.06-.08c3.09-2.69,6.29-5.3,9.62-7.77l.38-.3,.42-.32h0c.46-.4,.94-.77,1.45-1.1,.51-.37,1.04-.7,1.59-1,.77-.46,1.58-.87,2.41-1.22,.4-.18,.84-.34,1.25-.48,.87-.3,1.75-.54,2.65-.72,1.38-.28,2.78-.42,4.18-.42,1.57,0,3.13,.18,4.66,.54,.5,.12,1,.26,1.49,.4,2.32,.72,4.5,1.83,6.43,3.3,.3,.22,.6,.45,.89,.69,.33,.27,.65,.55,1,.85,.64,.59,1.24,1.21,1.8,1.87l.4,.5c.92,1.2,1.85,2.37,2.81,3.55,1.91,2.33,3.89,4.6,5.94,6.81,1,1.12,2.07,2.21,3.13,3.29,2.23,2.25,4.54,4.46,6.89,6.57,2.15,1.93,4.34,3.78,6.61,5.6h.06l1.19,1c.46,.38,1,.78,1.41,1.1l.18,.14c1.75,1.06,3.78,1.55,5.82,1.42,4.94-.34,8.95-4.14,9.53-9.06,.36-3.08-.72-6.16-2.92-8.35l-5.7-5.7c-.06,0-.1-.08-.16-.14l-13.6-13.62-13.46-13.46L37.04,60.93l.08-.06c-2.8-2.6-4.41-6.24-4.46-10.06h0c0-2.26,.55-4.48,1.61-6.47l.07-.12c.79-1.26,1.71-2.44,2.74-3.51h0l.3-.24h0c.16-.1,.36-.24,.6-.42h0c.7-.48,1.59-1.06,2.07-1.35,2.53-1.71,5.12-3.35,7.73-4.88C99.66,3.18,164.51,5.02,214.58,38.54l.66,.44c.8,.52,1.57,1.08,2.33,1.63,1.06,.95,1.97,2.05,2.71,3.27,1.32,2.19,1.98,4.71,1.91,7.27-.06,1.64-.39,3.26-1,4.79-.39,1.09-.94,2.12-1.62,3.05-4.67,7.78-10.03,15.12-16,21.95-7.37,8.43-15.6,16.05-24.58,22.74l-.84,.64c-.92,.83-1.92,1.55-3,2.15-3.19,1.84-6.81,2.78-10.49,2.72h-.1c-4.77-.11-9.3-2.07-12.65-5.47-7.93-7.82-29.25-28.34-29.25-28.34l-1.25-1.06c-.44-.39-.91-.76-1.39-1.1l-.18-.14c-1.42-.87-3.03-1.35-4.69-1.42-4.99-.2-9.4,3.2-10.49,8.07-.7,3.37,.35,6.87,2.79,9.3l110.67,110.86c2.79,2.6,4.4,6.23,4.44,10.04Z"/><path class="cls-2" d="M125.96,179.91c-2.36-2.11-4.68-4.33-6.89-6.58-4.23-4.31-8.2-8.87-11.89-13.65l-.39-.49c-1.29-1.55-2.81-2.9-4.5-4-6.64-4.52-15.28-4.84-22.23-.81-1.07,.61-2.08,1.33-3,2.15l-.42,.32-.39,.32c-16.32,12.1-30.11,27.28-40.59,44.69-.37,.48-.7,.99-1,1.52-1.07,2.01-1.64,4.26-1.65,6.54-.02,2.47,.65,4.89,1.93,7,.72,1.24,1.64,2.36,2.72,3.3,.74,.56,1.51,1.13,2.32,1.65l.67,.42c16.78,11.31,35.63,19.21,55.46,23.25,37.21,7.68,75.94,1.59,109-17.13-29.21-11.03-56.06-27.49-79.15-48.5Z"/></svg>