<?xml version="1.0" encoding="utf-8"?>
<!-- Generator: Adobe Illustrator 26.3.1, SVG Export Plug-In . SVG Version: 6.00 Build 0)  -->
<svg version="1.1" id="katman_1" xmlns="http://www.w3.org/2000/svg" xmlns:xlink="http://www.w3.org/1999/xlink" x="0px" y="0px"
	 viewBox="0 0 256 256" style="enable-background:new 0 0 256 256;" xml:space="preserve">
<style type="text/css">
	.st0{fill-rule:evenodd;clip-rule:evenodd;fill:#4360DF;}
	.st1{fill-rule:evenodd;clip-rule:evenodd;fill:#FFFFFF;}
</style>
<path class="st0" d="M128.2,64.7c-34.8,0-63.1,28.3-63.1,63.2c0,34.9,28.2,63.2,63.1,63.2s63.1-28.3,63.1-63.2
	C191.3,93,163.1,64.7,128.2,64.7z"/>
<path class="st1" d="M130.3,125.1c3.2,0.3,6.3,0.7,10.2,0.4c10.6-0.6,16.9-6,16.5-14.1c-0.5-8.2-9-13.3-17.5-12.8
	c-13.9,0.8-24.1,13-25.2,26.9c1.9-0.4,3.9-0.7,5.7-0.8C124,124.4,127.2,124.8,130.3,125.1z M103.2,143.1c0.4,7.6,8.5,12.2,16.6,11.8
	c13.1-0.7,22.8-11.9,23.9-24.6c-1.8,0.4-3.7,0.6-5.4,0.7c-3.7,0.2-6.7-0.1-9.7-0.4c-3-0.3-6-0.6-9.7-0.4
	C108.8,130.7,102.7,135.7,103.2,143.1z"/>
</svg>
