<svg width="48" height="27" viewBox="0 0 48 27" fill="none" xmlns="http://www.w3.org/2000/svg">
<path d="M34.0012 0C33.2851 0 32.7046 0.580529 32.7046 1.29665V25.7032C32.7046 26.4193 33.2851 26.9999 34.0012 26.9999C34.7173 26.9999 35.2979 26.4193 35.2979 25.7032V1.29665C35.2979 0.580531 34.7173 0 34.0012 0Z" fill="#01796F"/>
<path d="M14.9485 27C14.2324 27 13.6518 26.4195 13.6518 25.7033V1.81603C13.6518 1.09991 14.2324 0.519378 14.9485 0.519378C15.6646 0.519378 16.2451 1.09991 16.2451 1.81603V25.7033C16.2451 26.4195 15.6646 27 14.9485 27Z" fill="#01796F"/>
<path d="M8.59787 7.78841C7.88174 7.78841 7.30121 8.36894 7.30121 9.08506V18.9532C7.30121 19.6693 7.88174 20.2499 8.59787 20.2499C9.31399 20.2499 9.89452 19.6693 9.89452 18.9532V9.08506C9.89452 8.36894 9.31399 7.78841 8.59787 7.78841Z" fill="#01796F"/>
<path d="M2.24665 11.423C1.53053 11.423 0.949997 12.0035 0.949997 12.7196V15.0598C0.949997 15.7759 1.53053 16.3564 2.24665 16.3564C2.96277 16.3564 3.5433 15.7759 3.5433 15.0598V12.7196C3.5433 12.0035 2.96277 11.423 2.24665 11.423Z" fill="#01796F"/>
<path d="M21.2997 11.4231C20.5836 11.4231 20.003 12.0036 20.003 12.7197V15.3187C20.003 16.0348 20.5836 16.6154 21.2997 16.6154C22.0158 16.6154 22.5963 16.0348 22.5963 15.3187V12.7197C22.5963 12.0036 22.0158 11.4231 21.2997 11.4231Z" fill="#01796F"/>
<path d="M27.6503 20.2499C26.9342 20.2499 26.3537 19.6693 26.3537 18.9532V9.08506C26.3537 8.36894 26.9342 7.78841 27.6503 7.78841C28.3664 7.78841 28.947 8.36894 28.947 9.08506V18.9532C28.947 19.6693 28.3664 20.2499 27.6503 20.2499Z" fill="#01796F"/>
<path d="M40.3524 20.2499C39.6363 20.2499 39.0558 19.6693 39.0558 18.9532V9.08506C39.0558 8.36894 39.6363 7.78841 40.3524 7.78841C41.0686 7.78841 41.6491 8.36894 41.6491 9.08506V18.9532C41.6491 19.6693 41.0686 20.2499 40.3524 20.2499Z" fill="#01796F"/>
<path d="M46.7033 11.4231C45.9872 11.4231 45.4067 12.0036 45.4067 12.7197V15.3187C45.4067 16.0348 45.9872 16.6154 46.7033 16.6154C47.4195 16.6154 48 16.0348 48 15.3187V12.7197C48 12.0036 47.4195 11.4231 46.7033 11.4231Z" fill="#01796F"/>
</svg>
