<?xml version="1.0" encoding="utf-8"?>
<!-- Generator: Adobe Illustrator 25.0.1, SVG Export Plug-In . SVG Version: 6.00 Build 0)  -->
<svg version="1.0" id="katman_1" xmlns="http://www.w3.org/2000/svg" xmlns:xlink="http://www.w3.org/1999/xlink" x="0px" y="0px"
	 viewBox="0 0 600 400" style="enable-background:new 0 0 600 400;" xml:space="preserve">
<style type="text/css">
	.st0{clip-path:url(#SVGID_2_);}
	.st1{fill:#00D1FF;}
	.st2{fill:url(#SVGID_3_);}
</style>
<g>
	<defs>
		<rect id="SVGID_1_" x="88.2" y="281.7" width="423.8" height="30.8"/>
	</defs>
	<clipPath id="SVGID_2_">
		<use xlink:href="#SVGID_1_"  style="overflow:visible;"/>
	</clipPath>
	<g class="st0">
		<path class="st1" d="M129.1,296.3c-1.8-1.8-4-2.6-6.5-2.6H97.4c-0.5,0-0.9-0.2-1.2-0.5c-0.3-0.3-0.5-0.7-0.5-1.2v-2
			c0-0.4,0.2-0.8,0.5-1.2c0.3-0.3,0.7-0.5,1.2-0.5h32.4c0.1,0,0.1,0,0.2-0.1c0.1-0.1,0.1-0.1,0.1-0.2v-6.1c0-0.1,0-0.1-0.1-0.2
			c-0.1,0-0.1-0.1-0.2-0.1H97.4c-2.6,0-4.7,0.9-6.5,2.6c-1.8,1.8-2.7,3.9-2.7,6.4v0.4c0,2.5,0.9,4.7,2.7,6.4c1.8,1.8,4,2.6,6.5,2.6
			h25.2c0.4,0,0.8,0.2,1.2,0.5c0.3,0.3,0.5,0.7,0.5,1.2v2c0,0.5-0.2,0.9-0.5,1.2c-0.3,0.3-0.7,0.5-1.2,0.5H90.1
			c-0.1,0-0.1,0-0.2,0.1c-0.1,0.1-0.1,0.1-0.1,0.2v6.1c0,0.1,0,0.1,0.1,0.2c0.1,0.1,0.1,0.1,0.2,0.1h32.5c2.5,0,4.7-0.9,6.5-2.7
			c1.8-1.8,2.7-3.9,2.7-6.4v-0.4C131.8,300.2,130.9,298,129.1,296.3z"/>
		<path class="st1" d="M183.7,281.7h-7c-0.1,0-0.1,0-0.2,0.1c-0.1,0-0.1,0.1-0.1,0.2v7.7c0,0.7-0.3,1.2-1,1.5l-14,5.8l-14-5.8
			c-0.7-0.3-1-0.9-1-1.5v-7.7c0-0.1,0-0.1-0.1-0.2c0,0-0.1-0.1-0.2-0.1h-7c-0.1,0-0.1,0-0.2,0.1c-0.1,0-0.1,0.1-0.1,0.2v8.9
			c0,1.3,0.4,2.5,1.1,3.6c0.7,1.1,1.7,1.9,3,2.4l14.7,6.2v8.8c0,0.1,0,0.1,0.1,0.2c0.1,0.1,0.1,0.1,0.2,0.1h7c0.1,0,0.1,0,0.2-0.1
			c0.1-0.1,0.1-0.1,0.1-0.2V303l14.7-6.2c1.3-0.5,2.3-1.4,3-2.5c0.7-1.1,1.1-2.3,1.1-3.6v-8.9c0-0.1,0-0.1-0.1-0.2
			C183.8,281.7,183.8,281.7,183.7,281.7z"/>
		<path class="st1" d="M235.9,281.7h-7c-0.1,0-0.1,0-0.2,0.1c0,0.1-0.1,0.1-0.1,0.2v23.6h-3c-0.5,0-1-0.2-1.4-0.7l-13.6-19.9
			c-1.5-2-3.5-3.1-6.1-3.2h-11.8c-0.1,0-0.1,0-0.2,0.1c-0.1,0.1-0.1,0.1-0.1,0.2v30c0,0.1,0,0.1,0.1,0.2c0.1,0.1,0.1,0.1,0.2,0.1h7
			c0.1,0,0.1,0,0.2-0.1c0.1,0,0.1-0.1,0.1-0.2v-23.6h3c0.5,0,1,0.3,1.4,0.8l13.6,19.9c1.5,2.1,3.5,3.1,6.1,3.2h11.8
			c0.1,0,0.1,0,0.2-0.1c0,0,0.1-0.1,0.1-0.2v-30c0-0.1,0-0.1-0.1-0.2C236.1,281.7,236,281.7,235.9,281.7z"/>
		<path class="st1" d="M286.8,281.7h-43.1c-0.1,0-0.1,0-0.2,0.1c0,0.1-0.1,0.1-0.1,0.2v6.1c0,0.1,0,0.1,0.1,0.2
			c0,0.1,0.1,0.1,0.2,0.1h17.8v23.6c0,0.1,0,0.1,0.1,0.2c0,0.1,0.1,0.1,0.2,0.1h7c0.1,0,0.1,0,0.2-0.1c0,0,0.1-0.1,0.1-0.2v-23.6
			h17.8c0.1,0,0.1,0,0.2-0.1c0.1-0.1,0.1-0.1,0.1-0.2v-6.1c0-0.1,0-0.1-0.1-0.2C286.9,281.7,286.9,281.7,286.8,281.7z"/>
		<path class="st1" d="M339,281.7h-7c-0.1,0-0.1,0-0.2,0.1s-0.1,0.1-0.1,0.2v11.7h-28.5v-11.7c0-0.1,0-0.1-0.1-0.2
			c-0.1,0-0.1-0.1-0.2-0.1h-7c-0.1,0-0.1,0-0.2,0.1s-0.1,0.1-0.1,0.2v30c0,0.1,0,0.1,0.1,0.2c0.1,0.1,0.1,0.1,0.2,0.1h7
			c0.1,0,0.1,0,0.2-0.1c0.1-0.1,0.1-0.1,0.1-0.2v-11.7h28.5v11.7c0,0.1,0,0.1,0.1,0.2c0.1,0.1,0.1,0.1,0.2,0.1h7
			c0.1,0,0.1,0,0.2-0.1c0.1-0.1,0.1-0.1,0.1-0.2v-30c0-0.1,0-0.1-0.1-0.2C339.2,281.7,339.1,281.7,339,281.7z"/>
		<path class="st1" d="M391.1,281.7H357c-2.5,0-4.7,0.9-6.5,2.6c-1.8,1.8-2.7,3.9-2.7,6.4v12.3c0,2.5,0.9,4.7,2.7,6.4s4,2.6,6.5,2.6
			h34.1c0.1,0,0.1,0,0.2-0.1c0-0.1,0.1-0.1,0.1-0.2v-6.1c0-0.1,0-0.1-0.1-0.2c-0.1,0-0.1-0.1-0.2-0.1H357c-0.5,0-0.9-0.2-1.2-0.5
			s-0.5-0.7-0.5-1.2v-3.7h35.8c0.1,0,0.1,0,0.2-0.1c0-0.1,0.1-0.1,0.1-0.2v-6.1c0-0.1,0-0.1-0.1-0.2c0,0-0.1-0.1-0.2-0.1h-35.8v-3.7
			c0-0.4,0.2-0.8,0.5-1.2c0.3-0.3,0.7-0.5,1.2-0.5h34.1c0.1,0,0.1,0,0.2-0.1c0-0.1,0.1-0.1,0.1-0.2v-6.1c0-0.1,0-0.1-0.1-0.2
			C391.2,281.7,391.2,281.7,391.1,281.7z"/>
		<path class="st1" d="M443.1,281.7H400c-0.1,0-0.1,0-0.2,0.1c0,0.1-0.1,0.1-0.1,0.2v6.1c0,0.1,0,0.1,0.1,0.2c0,0.1,0.1,0.1,0.2,0.1
			h17.8v23.6c0,0.1,0,0.1,0.1,0.2c0,0.1,0.1,0.1,0.2,0.1h7c0.1,0,0.1,0,0.2-0.1c0,0,0.1-0.1,0.1-0.2v-23.6h17.8c0.1,0,0.1,0,0.2-0.1
			c0.1-0.1,0.1-0.1,0.1-0.2v-6.1c0-0.1,0-0.1-0.1-0.2C443.3,281.7,443.2,281.7,443.1,281.7z"/>
		<path class="st1" d="M459.5,281.7c0,0-0.1-0.1-0.2-0.1h-7c-0.1,0-0.1,0-0.2,0.1c0,0-0.1,0.1-0.1,0.2v30c0,0.1,0,0.1,0.1,0.2
			c0,0.1,0.1,0.1,0.2,0.1h7c0.1,0,0.1,0,0.2-0.1c0-0.1,0.1-0.1,0.1-0.2v-30C459.6,281.8,459.5,281.8,459.5,281.7z"/>
		<path class="st1" d="M478.9,289.1c-0.3-0.3-0.7-0.5-1.1-0.5h-9.1c-0.1,0-0.1,0-0.2-0.1c-0.1,0-0.1-0.1-0.1-0.2v-6.1
			c0-0.1,0-0.1,0.1-0.2c0.1,0,0.1-0.1,0.2-0.1h9.7c2.4,0,4.5,1,6.3,3l2.3,2.8l-4.6,5.5L478.9,289.1z M495.8,284.9
			c1.8-1.9,3.9-2.9,6.3-2.9h9.6c0.1,0,0.1,0,0.2,0.1c0,0,0.1,0.1,0.1,0.2v6.1c0,0.1,0,0.1-0.1,0.2c0,0.1-0.1,0.1-0.2,0.1h-9.1
			c-0.4,0-0.8,0.2-1.1,0.5l-6.7,8.1l6.8,8.2c0.3,0.3,0.7,0.5,1.1,0.5h9.1c0.1,0,0.1,0,0.2,0.1c0,0.1,0.1,0.1,0.1,0.2v6.1
			c0,0.1,0,0.1-0.1,0.2c0,0.1-0.1,0.1-0.2,0.1h-9.6c-2.5,0-4.6-1-6.3-3l-5.6-6.8l-5.6,6.8c-1.8,2-3.9,3-6.3,3h-9.6
			c-0.1,0-0.1,0-0.2-0.1c0-0.1-0.1-0.1-0.1-0.2v-6.1c0-0.1,0-0.1,0.1-0.2c0-0.1,0.1-0.1,0.2-0.1h9.1c0.4,0,0.8-0.2,1.1-0.5l6.6-8
			L495.8,284.9z"/>
	</g>
</g>
<g transform="translate(257.63 -97.669)">
	<g transform="matrix(.26458 0 0 .26458 -257.63 97.669)">
		
			<linearGradient id="SVGID_3_" gradientUnits="userSpaceOnUse" x1="10000.543" y1="1703.4869" x2="10000.543" y2="1965.9918" gradientTransform="matrix(0.1984 0 0 0.1984 -850.2416 -127.8556)">
			<stop  offset="0" style="stop-color:#090220"/>
			<stop  offset="1" style="stop-color:#170659"/>
		</linearGradient>
		<circle class="st2" cx="1134.2" cy="582.2" r="372"/>
		<g>
			<path class="st1" d="M1011.7,489.7c-3-3.7-7.5-5.7-12.3-5.7H900c-0.8,0-1.5-0.3-2.2-0.8c-0.5-0.5-0.8-1.1-0.8-1.8v-67
				c0-0.7,0.3-1.3,0.8-1.8c0.6-0.6,1.3-0.9,2.2-0.8h105c26.5,0,49.3,10.9,68.6,32.5l25.5,31.2l-49.7,60.6L1011.7,489.7z
				 M1195.2,443.9c19.2-21.4,42.1-32.2,68.9-32.2h104.7c0.7-0.1,1.4,0.2,1.9,0.6c0.5,0.5,0.7,1.2,0.6,2.1v67c0,0.7-0.2,1.3-0.6,1.8
				c-0.5,0.6-1.2,0.9-1.9,0.8h-99.4c-4.7-0.1-9.2,2.1-12.3,5.7l-73.2,89.1l73.5,89.7c3,3.4,7.4,5.4,11.9,5.3h99.4
				c0.7-0.1,1.5,0.3,1.9,0.8c0.4,0.6,0.7,1.4,0.6,2.2v67c0,0.7-0.2,1.3-0.6,1.8c-0.5,0.6-1.2,0.9-1.9,0.8h-104.6
				c-26.8,0-49.5-10.9-68.6-32.5l-60.9-74.3l-60.9,74.3c-19.2,21.6-42.1,32.5-68.9,32.5H900c-0.7,0.1-1.5-0.3-1.9-0.8
				c-0.5-0.6-0.7-1.4-0.6-2.2v-67c0-0.7,0.2-1.3,0.6-1.8c0.5-0.6,1.2-0.9,1.9-0.8h99.4c4.7,0,9.2-2.2,12.3-5.7l71.9-87.8
				L1195.2,443.9z"/>
		</g>
	</g>
</g>
</svg>
