<svg width="87" height="87" viewBox="0 0 87 87" fill="none" xmlns="http://www.w3.org/2000/svg">
<path d="M43.3019 86.6C67.2169 86.6 86.6038 67.2139 86.6038 43.3C86.6038 19.3861 67.2169 0 43.3019 0C19.3869 0 0 19.3861 0 43.3C0 67.2139 19.3869 86.6 43.3019 86.6Z" fill="#FCBF21"/>
<path d="M38.2701 39.3845L38.1195 40.1907H28.2065C28.2065 40.1907 28.1091 40.1198 28.1091 40.0755C28.047 38.2152 27.985 36.3461 28.2331 34.4947C28.6317 31.536 30.4035 29.4365 32.7511 27.7269C33.7344 27.0093 34.7354 26.6816 35.9757 26.6904C41.1404 26.7524 46.3139 26.7259 51.4786 26.7081C52.0456 26.7081 52.5151 26.8322 52.9846 27.1599C54.0742 27.9129 55.1462 28.6747 56.0409 29.6669C57.5646 31.3588 58.4239 33.3254 58.4505 35.6197C58.4682 37.1168 58.4505 38.6139 58.4505 40.173H49.0424C48.8032 39.9692 48.9893 39.6503 48.7855 39.3668H38.2524L38.2701 39.3845Z" fill="white"/>
<path d="M26.3284 59.8918C25.6906 56.9508 23.9542 55.1614 20.8891 54.7362C20.7385 53.9301 20.7651 53.1417 20.8802 52.2913H38.0132C38.3055 52.5128 38.1283 52.8671 38.2967 53.1949H48.8121C49.0335 52.9822 48.8298 52.6368 49.0424 52.309H65.7324C65.8741 53.1063 65.8299 53.877 65.7678 54.6299C61.6131 55.941 60.9841 56.5079 59.9653 59.8918H26.3284Z" fill="white"/>
<path d="M20.8448 49.1908V43.4417H38.1283V49.1908H20.8448Z" fill="white"/>
<path d="M65.7501 43.4329V49.2086H48.9892V43.4329H65.7501Z" fill="white"/>
<path d="M55.2524 26.7879C60.5411 26.1678 64.4567 29.6137 65.3692 33.0773C65.9804 35.416 65.7235 37.7812 65.8121 40.1907H60.9398C60.7006 39.8806 60.8246 39.5086 60.8158 39.1631C60.7715 37.4268 60.9575 35.664 60.5677 33.9543C59.9387 31.1905 58.3264 29.0822 56.094 27.3991C55.8637 27.2219 55.6156 27.0536 55.2436 26.7879H55.2524Z" fill="white"/>
<path d="M25.7968 40.2084H20.8093C20.8891 36.7624 20.2778 33.2279 22.6785 30.2604C24.8667 27.5585 27.7281 26.4424 31.3159 26.779C30.6869 27.2751 30.1377 27.6737 29.6327 28.1166C27.1079 30.3401 25.726 33.0951 25.788 36.5055C25.8057 37.7014 25.788 38.9062 25.788 40.2084H25.7968Z" fill="white"/>
<path d="M47.244 51.4054H39.8203V41.1651H47.244V51.4054ZM44.5067 48.1544V46.4093C45.5697 45.1514 45.6583 44.1858 44.8344 43.4329C44.1257 42.7773 43.0892 42.8039 42.4071 43.486C41.6187 44.2833 41.7161 45.1691 42.7969 46.3916V48.1987C43.3727 48.2341 43.8688 48.2784 44.4978 48.1544H44.5067Z" fill="white"/>
<path d="M65.759 56.375V59.8829H61.6042C61.551 57.9695 63.7834 56.0738 65.759 56.375Z" fill="white"/>
<path d="M20.8625 56.3573C22.7937 56.3307 24.3795 57.7392 24.8136 59.8564H20.8625V56.3573Z" fill="white"/>
</svg>
