<?xml version="1.0" encoding="utf-8"?>
<!-- Generator: Adobe Illustrator 26.3.1, SVG Export Plug-In . SVG Version: 6.00 Build 0)  -->
<svg version="1.1" id="katman_1" xmlns="http://www.w3.org/2000/svg" xmlns:xlink="http://www.w3.org/1999/xlink" x="0px" y="0px"
	 viewBox="0 0 140 26" style="enable-background:new 0 0 140 26;" xml:space="preserve">
<style type="text/css">
	.st0{fill:#876E6E;}
</style>
<path class="st0" d="M23.9,1.1H0v8.3h23.9V1.1z"/>
<path class="st0" d="M11.2,11H0v8.3h2.9V25h8.3L11.2,11L11.2,11z"/>
<path class="st0" d="M12.8,19.3V25H21v-5.7h2.9V11H12.8V19.3z"/>
<path class="st0" d="M47.7,10.4V6.9h-3.6V25h3.6v-8.4c0-5,2-5.9,3.9-6.2c0.5-0.1,1-0.2,1.5-0.2V6.8C50.5,6.8,48.7,7.8,47.7,10.4z"/>
<path class="st0" d="M59.1,6.9h-3.6V25h3.6V6.9z"/>
<path class="st0" d="M59.3,0h-3.8v3.8h3.8V0z"/>
<path class="st0" d="M38.4,19.4V9.8h3.5V6.9h-3.5V1.1l-3.5,1.6v4.2h-2.8v2.9h2.8v10c0,3.1,1.5,5.3,5.3,5.3H42v-2.9h-1.2
	C39.2,22.1,38.4,21.1,38.4,19.4z"/>
<path class="st0" d="M133.5,6.5c-2.8,0-4.5,1.7-5.4,3.8V0h-3.6v25h3.6v-8.7c0-4.6,2.1-6.8,4.7-6.8c2.5,0,3.6,1.5,3.6,4.6V25h3.6
	V13.5C140,9.6,138.2,6.5,133.5,6.5z"/>
<path class="st0" d="M66,0h-3.6v25H66V0z"/>
<path class="st0" d="M94.5,6.5c-5.2,0-9,4-9,9.4c0,5.7,3.6,9.6,9,9.6c4.2,0,7.3-2.1,8.3-5.8h-3.5c-0.6,2-2.5,2.9-4.8,2.9
	c-3.1,0-5.2-2.1-5.5-5.6h14.1v-0.7C103.1,11.4,100.8,6.5,94.5,6.5z M89.1,14.3c0.4-2.9,2.4-4.9,5.5-4.9c3.1,0,4.7,2.1,5,4.9H89.1z"
	/>
<path class="st0" d="M114.1,22.5c-3.5,0-5.7-2.9-5.7-6.6c0-3.7,2.2-6.6,5.7-6.6c2.7,0,4,1.4,4.6,3.2h3.5c-0.7-3.5-3.5-6.1-8.1-6.1
	c-5.5,0-9.4,3.9-9.4,9.5c0,5.6,3.9,9.5,9.4,9.5c4.4,0,7.3-2.2,8.2-6.2h-3.5C118.1,21.4,116.5,22.5,114.1,22.5z"/>
<path class="st0" d="M81.2,19.4V9.8h3.5V6.9h-3.5V1.1l-3.5,1.6v4.2h-2.8v2.9h2.8v10c0,3.1,1.5,5.3,5.3,5.3h1.8v-2.9h-1.2
	C82,22.1,81.2,21.1,81.2,19.4z"/>
<path class="st0" d="M72.6,6.9H69V25h3.6V6.9z"/>
<path class="st0" d="M72.8,0H69v3.8h3.8V0z"/>
</svg>
