<svg width="58" height="58" viewBox="0 0 58 58" fill="none" xmlns="http://www.w3.org/2000/svg">
<path d="M28.715 57.43C44.5738 57.43 57.43 44.5739 57.43 28.715C57.43 12.8561 44.5738 0 28.715 0C12.8561 0 0 12.8561 0 28.715C0 44.5739 12.8561 57.43 28.715 57.43Z" fill="#25B8EE"/>
<path d="M21.6243 31.7808H19.2622C19.2622 31.1051 19.274 30.4587 19.2564 29.8124C19.2564 29.6244 19.1976 29.4246 19.1095 29.2601C18.4925 28.1438 17.8579 27.0391 17.2292 25.9287C17.1822 25.8464 17.1293 25.77 17.0588 25.6584L14.7143 31.7808H12.2759L9.89614 25.582H12.3229L13.4804 28.9487L14.6497 25.5703H19.4444L20.4256 27.4974L21.4011 25.582H23.8101C23.6456 25.8875 23.5046 26.1637 23.3518 26.434C22.8347 27.3564 22.3001 28.273 21.7947 29.2072C21.6831 29.4129 21.6243 29.6655 21.6185 29.8947C21.595 30.5116 21.6126 31.1286 21.6126 31.7808H21.6243Z" fill="white"/>
<path d="M25.8549 26.4575L27.2651 30.0768L27.935 28.4963L27.1594 26.4751H27.8292L28.3992 27.9205L28.9691 26.4692H29.639L28.8869 28.4846L29.5038 30.0063H29.5861L30.9493 26.4692H31.7543L29.9034 31.0463L29.2629 31.0052L28.3933 29.0251L27.5589 31.0463L26.9126 31.0052L25.0676 26.4692H25.8667L25.8549 26.4575Z" fill="white"/>
<path d="M46.1854 26.4928C46.914 26.4928 47.625 26.4281 48.3183 26.5104C49.2232 26.6162 49.8813 27.3447 49.9988 28.2731C50.1046 29.1015 49.9812 29.8771 49.3289 30.4882C48.8589 30.9288 48.2772 31.0287 47.672 31.0463C47.1843 31.0581 46.6966 31.0463 46.1854 31.0463V26.4928ZM46.9551 30.306C47.1843 30.3295 47.3723 30.353 47.5544 30.3589C48.3594 30.4 48.8883 30.0945 49.1409 29.4541C49.4288 28.7255 49.2584 27.8794 48.7296 27.4211C48.2008 26.9628 47.5662 27.1332 46.9551 27.1156V30.306Z" fill="white"/>
<path d="M37.5714 26.4457C38.2941 26.4457 38.9934 26.4281 39.6867 26.4457C40.2097 26.4634 40.7561 26.9687 40.9147 27.5327C41.0793 28.1144 40.8618 28.7783 40.3918 29.1132C40.3154 29.172 40.2273 29.219 40.1097 29.2895L41.1909 31.0463L40.3272 30.9993L39.3341 29.4658H38.3352V30.9993H37.5714V26.4398V26.4457ZM38.3176 28.7725C38.7583 28.7725 39.1461 28.7842 39.5339 28.7725C39.91 28.7607 40.1803 28.4376 40.2038 28.0145C40.2273 27.5973 39.9511 27.1508 39.6044 27.1273C39.1872 27.0979 38.77 27.1214 38.3352 27.1214C38.3235 27.2154 38.3117 27.2801 38.3117 27.3506C38.3117 27.7971 38.3117 28.2495 38.3117 28.7783L38.3176 28.7725Z" fill="white"/>
<path d="M36.5313 28.8547C36.4608 30.0181 35.6499 30.8172 34.8156 31.0052C33.6286 31.2696 32.524 30.5469 32.2067 29.3013C31.8659 27.9734 32.7473 26.6102 34.0576 26.4281C35.221 26.2636 36.3903 27.2154 36.5019 28.4199C36.5137 28.5668 36.5196 28.7137 36.5313 28.8547ZM34.2985 27.0979C33.9165 27.0803 33.5934 27.233 33.329 27.5268C32.7649 28.1555 32.7532 29.2131 33.2937 29.8594C33.6052 30.2296 33.9812 30.4352 34.4806 30.3647C35.2269 30.259 35.7381 29.6244 35.7674 28.7724C35.8027 27.85 35.1564 27.1038 34.3044 27.0979H34.2985Z" fill="white"/>
<path d="M4.88404 32.5622C4.78415 32.4858 4.68424 32.4329 4.63136 32.3507C4.2083 31.7514 3.68535 31.2578 3.08601 30.8348C2.83335 30.6585 2.84511 30.494 3.1154 30.3118C3.72061 29.8947 4.24944 29.407 4.65487 28.7959C4.80764 28.5668 4.94867 28.5785 5.15432 28.7959C5.51275 29.1661 5.87118 29.548 6.24136 29.9005C6.41763 30.0709 6.63504 30.1884 6.82894 30.3412C7.0346 30.4999 7.03459 30.682 6.80543 30.8054C6.10033 31.1755 5.54212 31.6926 5.11319 32.3624C5.06618 32.4388 4.97217 32.4858 4.87816 32.5681L4.88404 32.5622Z" fill="white"/>
<path d="M54.0943 26.9451L53.8298 27.4446C53.4068 27.3153 53.0307 27.1743 52.6371 27.0979C52.4373 27.0568 52.1846 27.092 52.0142 27.186C51.8614 27.2742 51.7204 27.4857 51.7028 27.662C51.6852 27.803 51.8203 28.0321 51.9555 28.1026C52.2258 28.2495 52.5372 28.32 52.831 28.4258C53.0895 28.5139 53.3598 28.5844 53.6066 28.6961C54.059 28.8958 54.3234 29.2484 54.3117 29.7537C54.2999 30.2766 54.0708 30.6761 53.5772 30.8935C52.7252 31.2696 51.4501 31.0581 50.745 30.4059L51.0271 29.8359C51.3209 29.9828 51.5794 30.1826 51.8732 30.2472C52.2375 30.3354 52.6253 30.3471 53.0014 30.3354C53.2599 30.3295 53.4597 30.165 53.4891 29.8712C53.5184 29.5892 53.3422 29.4247 53.1189 29.3306C52.8486 29.2131 52.5607 29.1485 52.2845 29.0545C52.0201 28.9605 51.7498 28.8606 51.4913 28.749C50.604 28.3612 50.8038 27.045 51.5442 26.6514C52.2904 26.2518 53.3833 26.3576 54.0943 26.951V26.9451Z" fill="white"/>
<path d="M42.8479 30.3471H45.2746V31.0111H42.131V26.4634H42.8479V30.3471Z" fill="white"/>
<path d="M8.24501 26.0403L7.15798 27.0744L6.14145 26.0932L7.20498 25.0591L8.24501 26.0344V26.0403Z" fill="white"/>
</svg>
