<?xml version="1.0" encoding="utf-8"?>
<!-- Generator: Adobe Illustrator 26.3.1, SVG Export Plug-In . SVG Version: 6.00 Build 0)  -->
<svg version="1.1" id="katman_1" xmlns="http://www.w3.org/2000/svg" xmlns:xlink="http://www.w3.org/1999/xlink" x="0px" y="0px"
	 viewBox="0 0 300 100" style="enable-background:new 0 0 300 100;" xml:space="preserve">
<g>
	<path d="M114.2,37.4v24.4h-5V37.4H114.2z"/>
	<path d="M134.5,45.4v16.5c0,5.1-4,8.3-8.9,8.3c-4.7,0-8.2-2.9-8.5-7l5,0c0.2,1.8,1.7,2.5,3.8,2.5c1.9,0,3.7-1,3.7-3.7v-2.1
		c-1.3,0.8-2.9,1.3-4.7,1.3c-4.5,0-8.2-3.7-8.2-7.9c0-4.9,3.6-8.2,8.2-8.2c1.8,0,3.4,0.5,4.7,1.3v-0.9L134.5,45.4z M129.5,55.1v-4
		c-1-1.5-2.4-2-3.8-2c-2.4,0-4.1,1.6-4.1,4.1c0,1.8,1.7,3.8,4.1,3.8C127.1,57,128.5,56.5,129.5,55.1z"/>
	<path d="M154.3,53.4c0,5.1-3.8,8.7-8.8,8.7c-5.1,0-8.8-3.6-8.8-8.7c0-5,3.8-8.7,8.8-8.7C150.6,44.7,154.3,48.4,154.3,53.4z
		 M149.5,53.4c0-2.4-1.6-4.3-4-4.3c-2.5,0-4,1.9-4,4.3c0,2.5,1.6,4.3,4,4.3C147.9,57.7,149.5,55.8,149.5,53.4z"/>
	<path d="M185.2,45.4v16.4l-4.9,0v-0.9c-1.3,0.8-2.9,1.3-4.7,1.3c-4.5,0-8.2-3.8-8.2-8.6c0-4.8,3.6-8.6,8.2-8.6
		c1.8,0,3.4,0.5,4.7,1.3v-0.9L185.2,45.4z M180.3,56.1v-5c-1-1.5-2.5-1.9-3.9-1.9c-2.5,0-4.2,2-4.2,4.4c0,2.4,1.7,4.4,4.2,4.4
		C177.8,58,179.3,57.6,180.3,56.1z"/>
	<path d="M205.2,52.9v8.9h-4.8v-8.3c0-2.7-1.3-4.1-3.7-4.1c-1.2,0-2.6,0.7-3.8,2.1v10.3H188V45.4h4.9v1.2c1.3-1.1,2.9-1.6,4.7-1.6
		C202,45,205.2,48.1,205.2,52.9z"/>
	<g id="lINT7W_1_">
		<g>
			<polygon points="107,61.8 101.9,61.8 98.6,49.5 91.5,61.8 85.9,61.8 96.8,42.8 95,36.2 80.3,61.8 74.6,61.8 93.3,29.4 98.3,29.4 
				100.5,37.4 105.6,37.4 102.1,43.5 			"/>
		</g>
	</g>
	<path d="M225,37.4v24.4h-5v-0.9c-1.3,0.8-2.9,1.3-4.7,1.3c-4.5,0-8.2-3.8-8.2-8.6c0-4.7,3.6-8.6,8.2-8.6c1.8,0,3.4,0.5,4.7,1.3
		v-8.9L225,37.4L225,37.4z M220,56.1v-5.1c-1-1.5-2.5-1.9-3.9-1.9c-2.5,0-4.3,2-4.3,4.4c0,2.4,1.7,4.4,4.3,4.4
		C217.5,58,219,57.6,220,56.1z"/>
	<path d="M166.5,49.6c-1.1,0.1-3.6,0.3-5.1,2.3v10h-4.9V45.5h4.9v1.2c1.1-1,2.8-1.5,5.1-1.3"/>
</g>
</svg>
