<?xml version="1.0" encoding="UTF-8"?>
<svg id="katman_1" data-name="katman 1" xmlns="http://www.w3.org/2000/svg" width="300" height="100" viewBox="0 0 300 100">
  <defs>
    <style>
      .cls-1, .cls-2 {
        fill: #fefefe;
      }

      .cls-2 {
        fill-rule: evenodd;
      }
    </style>
  </defs>
  <path class="cls-1" d="M63.25,53.36c.33,.79,.58,1.48,.87,2.24,.06,.15,.05,.31-.01,.45-.89,1.85-3.34,4.69-6.32,4.69-4.09,0-6.91-2.94-6.87-8.28,.04-5.34,3.67-10.53,6.87-10.53s5.07,2.04,6.66,5.2l1.89-4.81c.09-.23,.32-.39,.56-.39h2.02c.41,0,.71,.41,.58,.8l-3.01,8.95c1.15,2.63,2.31,5.1,3.11,5.14,.74,.03,1.31-.5,1.65-.99,.04-.06,.19,0,.17,.07-1.43,6.25-4.02,4.15-6.64-2.37-2.58-6.4-4.08-9.27-6.42-9.27s-4.75,6.23-3.96,11.03c1.1,6.63,5.66,3.25,7.66-1.87,.21-.53,.98-.58,1.2-.06Z"/>
  <path class="cls-2" d="M42.43,37.7h7.28v3.52h-3.45v20.26h3.45v3.52h-7.28v-27.3Z"/>
  <path class="cls-2" d="M78.83,37.7h-6.67v3.52h3.16v20.26h-3.16v3.52h6.67v-27.3Z"/>
  <path class="cls-1" d="M109.29,59.29v-2.28h-.74c-.86,0-1.14-.37-1.14-1.17v-6.94c0-2.75-1.7-5.4-5.95-5.4s-6.11,2.59-6.45,4.75l2.59,.31c.25-1.11,.93-2.87,3.76-2.87,3.02,0,3.36,2.19,3.36,2.84,0,.43-.12,.96-.96,1.11l-4.5,.77c-2.78,.46-4.66,2.01-4.66,4.75,0,2.28,1.7,4.5,5.37,4.5,2.16,0,3.83-.93,4.87-2.56,.19,1.73,1.85,2.19,2.93,2.19h1.51Zm-11.97-4.32c0-1.2,.65-2.25,2.5-2.56l4.94-.86v.89c0,3.09-1.97,5.03-4.47,5.03-2.07,0-2.96-1.11-2.96-2.5Z"/>
  <path class="cls-1" d="M113.03,57.04v2.25h14.28v-2.25h-5.77v-19.34h-8.52v2.25h5.77v17.09h-5.77Z"/>
  <path class="cls-1" d="M138.67,43.5c-2.34,0-3.98,1.08-5.06,2.68v-2.31h-2.68v21.13h2.75v-7.84c1.08,1.51,2.71,2.5,5,2.5,4.29,0,6.88-3.42,6.88-8.21s-2.62-7.96-6.88-7.96Zm-.4,2.34c2.9,0,4.47,2.44,4.47,5.74s-1.57,5.71-4.47,5.71-4.66-2.44-4.66-5.71,1.73-5.74,4.66-5.74Z"/>
  <path class="cls-1" d="M162.86,59.29v-10c0-3.18-1.82-5.8-5.8-5.8-2.22,0-3.76,.89-4.72,2.25v-8.05h-2.75v21.6h2.75v-8.51c0-3.21,1.42-4.91,4.13-4.91,2.31,0,3.64,1.42,3.64,3.92v9.5h2.75Z"/>
  <path class="cls-1" d="M182.12,59.29v-2.28h-.74c-.86,0-1.14-.37-1.14-1.17v-6.94c0-2.75-1.7-5.4-5.95-5.4s-6.11,2.59-6.45,4.75l2.59,.31c.25-1.11,.93-2.87,3.76-2.87,3.02,0,3.36,2.19,3.36,2.84,0,.43-.12,.96-.96,1.11l-4.5,.77c-2.78,.46-4.66,2.01-4.66,4.75,0,2.28,1.7,4.5,5.37,4.5,2.16,0,3.83-.93,4.87-2.56,.19,1.73,1.85,2.19,2.93,2.19h1.51Zm-11.97-4.32c0-1.2,.65-2.25,2.5-2.56l4.94-.86v.89c0,3.09-1.97,5.03-4.47,5.03-2.07,0-2.96-1.11-2.96-2.5Z"/>
  <path class="cls-1" d="M184.99,59.29v2.31h15.06v-2.31h-15.06Z"/>
  <path class="cls-1" d="M204.06,57.04v2.25h14.28v-2.25h-5.77v-19.34h-8.52v2.25h5.77v17.09h-5.77Z"/>
  <path class="cls-1" d="M236.73,59.29v-2.28h-.74c-.86,0-1.14-.37-1.14-1.17v-6.94c0-2.75-1.7-5.4-5.95-5.4s-6.11,2.59-6.45,4.75l2.59,.31c.25-1.11,.93-2.87,3.76-2.87,3.02,0,3.36,2.19,3.36,2.84,0,.43-.12,.96-.96,1.11l-4.5,.77c-2.78,.46-4.66,2.01-4.66,4.75,0,2.28,1.7,4.5,5.37,4.5,2.16,0,3.83-.93,4.87-2.56,.19,1.73,1.85,2.19,2.93,2.19h1.51Zm-11.97-4.32c0-1.2,.65-2.25,2.5-2.56l4.94-.86v.89c0,3.09-1.97,5.03-4.47,5.03-2.07,0-2.96-1.11-2.96-2.5Z"/>
  <path class="cls-1" d="M247.91,43.5c-2.31,0-3.92,1.05-5,2.59v-8.39h-2.75v21.6h2.68v-2.22c1.08,1.57,2.75,2.59,5.06,2.59,4.29,0,6.88-3.42,6.88-8.21s-2.62-7.96-6.88-7.96Zm-.4,2.34c2.9,0,4.47,2.44,4.47,5.74s-1.57,5.71-4.47,5.71-4.66-2.44-4.66-5.71,1.73-5.74,4.66-5.74Z"/>
</svg>