<?xml version="1.0" encoding="utf-8"?>
<!-- Generator: Adobe Illustrator 26.3.1, SVG Export Plug-In . SVG Version: 6.00 Build 0)  -->
<svg version="1.1" id="katman_1" xmlns="http://www.w3.org/2000/svg" xmlns:xlink="http://www.w3.org/1999/xlink" x="0px" y="0px"
	 viewBox="0 0 300 100" style="enable-background:new 0 0 300 100;" xml:space="preserve">
<style type="text/css">
	.st0{fill:#050706;}
	.st1{fill:#4272B7;}
	.st2{fill:#000300;}
</style>
<path class="st0" d="M88.1,42.6c0-1.6,0.7-2.9,2.1-3.8c1.4-0.9,3.6-1.5,6.7-1.8c0-0.7-0.3-1.2-0.6-1.6c-0.4-0.4-1-0.6-1.8-0.6
	c-0.7,0-1.4,0.1-2,0.4c-0.7,0.3-1.5,0.6-2.1,1l-1.6-3c1-0.6,2.1-1.1,3.2-1.5c1.1-0.4,2.3-0.6,3.5-0.6c2,0,3.6,0.6,4.6,1.7
	c1.1,1.1,1.6,2.9,1.6,5.3v8.8h-3.8l-0.3-1.6h-0.1c-0.6,0.6-1.4,1-2.1,1.4c-0.8,0.4-1.6,0.6-2.4,0.5c-0.7,0-1.3-0.1-1.9-0.4
	c-0.5-0.2-1-0.6-1.4-1c-0.4-0.4-0.7-0.9-0.9-1.5C88.2,43.9,88.1,43.3,88.1,42.6L88.1,42.6z M92.5,42.3c0,0.5,0.2,0.9,0.5,1.1
	s0.8,0.4,1.3,0.4c0.5,0,1-0.1,1.4-0.3c0.4-0.3,0.8-0.6,1.2-1v-2.7c-1.7,0.2-2.8,0.6-3.4,1C92.8,41.2,92.5,41.7,92.5,42.3L92.5,42.3z
	"/>
<path class="st0" d="M105.5,31.5h3.8l0.3,2.7h0.1c0.6-1.1,1.3-1.8,2-2.3c0.8-0.5,1.6-0.7,2.4-0.7c0.4,0,0.7,0,1.1,0.1
	c0.3,0,0.5,0.1,0.8,0.2l-0.8,4c-0.3-0.1-0.5-0.1-0.8-0.2c-0.3,0-0.6-0.1-0.9-0.1c-0.6,0-1.2,0.2-1.8,0.6c-0.6,0.4-1.2,1.2-1.6,2.2v9
	h-4.6V31.5L105.5,31.5z"/>
<path class="st0" d="M118,31.5h3.8l0.3,2.7h0.1c0.6-1.1,1.3-1.8,2-2.3c0.8-0.5,1.6-0.7,2.4-0.7c0.4,0,0.7,0,1.1,0.1
	c0.3,0,0.5,0.1,0.8,0.2l-0.8,4c-0.3-0.1-0.5-0.1-0.8-0.2c-0.3,0-0.6-0.1-0.9-0.1c-0.6,0-1.2,0.2-1.8,0.6c-0.6,0.4-1.2,1.2-1.6,2.2v9
	H118L118,31.5L118,31.5z"/>
<path class="st0" d="M130.6,31.5h4.6v15.4h-4.6V31.5z"/>
<path class="st0" d="M139.3,31.5h3.8l0.3,2h0.1c0.7-0.6,1.4-1.2,2.2-1.6c0.8-0.5,1.7-0.7,2.8-0.7c1.7,0,2.9,0.5,3.7,1.6
	c0.8,1.1,1.2,2.6,1.2,4.6v9.6h-4.6v-9c0-1.1-0.2-1.9-0.5-2.3c-0.3-0.4-0.8-0.6-1.5-0.6c-0.5,0-1.1,0.1-1.5,0.4
	c-0.5,0.3-1,0.7-1.4,1.1v10.4h-4.6L139.3,31.5L139.3,31.5z"/>
<path class="st0" d="M156.3,49.6c0-1.2,0.7-2.3,2.2-3.1v-0.1c-0.4-0.3-0.8-0.6-1-1c-0.3-0.4-0.4-0.9-0.4-1.6c0-0.6,0.2-1.1,0.5-1.6
	c0.3-0.5,0.8-0.9,1.3-1.3v-0.1c-0.5-0.4-1-0.9-1.5-1.6c-0.4-0.7-0.6-1.5-0.6-2.4c0-0.9,0.2-1.7,0.5-2.4c0.3-0.7,0.8-1.3,1.4-1.7
	c0.6-0.5,1.3-0.8,2.1-1c0.8-0.2,1.6-0.3,2.4-0.3c0.9,0,1.7,0.1,2.4,0.4h5.7v3.3h-2.5c0.2,0.3,0.3,0.6,0.4,0.9
	c0.1,0.4,0.1,0.8,0.1,1.2c0,0.9-0.2,1.7-0.5,2.3c-0.3,0.6-0.8,1.2-1.3,1.6c-0.6,0.4-1.2,0.8-2,0.9c-0.8,0.2-1.6,0.3-2.4,0.3
	c-0.6,0-1.3-0.1-1.9-0.3c-0.2,0.1-0.3,0.3-0.4,0.5c-0.1,0.2-0.1,0.4-0.1,0.7c0,0.4,0.2,0.7,0.5,0.9c0.3,0.2,1,0.3,1.8,0.3h2.5
	c1.9,0,3.4,0.3,4.4,0.9c1,0.6,1.5,1.6,1.5,3c0,0.8-0.2,1.6-0.6,2.2c-0.4,0.7-1,1.3-1.7,1.7c-0.8,0.5-1.7,0.9-2.7,1.2
	c-1.2,0.3-2.4,0.4-3.6,0.4c-0.9,0-1.7-0.1-2.6-0.2c-0.7-0.1-1.4-0.4-2.1-0.7c-0.6-0.3-1-0.7-1.4-1.2
	C156.5,50.8,156.3,50.2,156.3,49.6L156.3,49.6z M160.1,48.8c0,0.6,0.3,1,0.9,1.3c0.6,0.3,1.5,0.4,2.5,0.4c1.1,0,1.9-0.2,2.6-0.5
	c0.7-0.4,1-0.8,1-1.4c0-0.5-0.2-0.8-0.6-1c-0.4-0.2-1-0.3-1.8-0.2h-1.6c-0.5,0-1,0-1.3,0c-0.3,0-0.6-0.1-0.9-0.1
	C160.4,47.8,160.1,48.3,160.1,48.8L160.1,48.8z M163.2,39.3c0.6,0,1.1-0.2,1.5-0.6c0.4-0.4,0.6-1.1,0.6-1.9c0-0.8-0.2-1.4-0.6-1.8
	c-0.4-0.4-1-0.6-1.5-0.6c-0.6,0-1.1,0.2-1.5,0.6c-0.4,0.4-0.6,1-0.6,1.9c0,0.9,0.2,1.5,0.6,1.9C162.1,39,162.6,39.3,163.2,39.3
	L163.2,39.3L163.2,39.3z"/>
<path class="st0" d="M174.8,35.1h-2.1v-3.4l2.4-0.2l0.5-4.1h3.8v4.1h3.7v3.6h-3.7v6.2c0,0.9,0.2,1.5,0.5,1.9
	c0.4,0.4,0.9,0.6,1.5,0.6c0.3,0,0.5,0,0.8-0.1c0.2-0.1,0.5-0.1,0.7-0.2l0.7,3.3c-0.4,0.1-0.9,0.2-1.5,0.4c-0.7,0.1-1.3,0.2-2,0.2
	c-1,0-1.8-0.1-2.5-0.4c-0.6-0.3-1.2-0.7-1.7-1.2c-0.4-0.6-0.8-1.2-0.9-1.9c-0.2-0.8-0.3-1.6-0.3-2.4L174.8,35.1L174.8,35.1z"/>
<path class="st0" d="M185,39.2c0-1.3,0.2-2.4,0.6-3.4c0.4-0.9,1-1.8,1.7-2.5c0.7-0.7,1.5-1.2,2.4-1.6c0.9-0.4,1.9-0.5,2.9-0.5
	c1,0,1.9,0.2,2.9,0.5c0.9,0.4,1.7,0.9,2.4,1.6c0.7,0.7,1.3,1.6,1.7,2.5c0.4,1,0.6,2.2,0.6,3.4c0,1.3-0.2,2.4-0.6,3.4
	c-0.4,0.9-1,1.8-1.7,2.5c-0.7,0.7-1.5,1.2-2.4,1.6c-0.9,0.4-1.9,0.5-2.9,0.5c-1,0-2-0.2-2.9-0.5c-0.9-0.4-1.7-0.9-2.4-1.6
	c-0.7-0.7-1.3-1.6-1.7-2.5C185.2,41.6,185,40.5,185,39.2z M189.7,39.2c0,1.3,0.2,2.4,0.7,3.2s1.2,1.2,2.2,1.2c0.9,0,1.7-0.4,2.1-1.2
	c0.5-0.8,0.7-1.9,0.7-3.2c0-1.3-0.2-2.4-0.7-3.2s-1.2-1.2-2.1-1.2c-1,0-1.7,0.4-2.2,1.2C190,36.8,189.7,37.9,189.7,39.2L189.7,39.2
	L189.7,39.2z"/>
<path class="st0" d="M203.4,31.5h3.8l0.3,2h0.1c0.7-0.6,1.4-1.2,2.2-1.6c0.8-0.5,1.7-0.7,2.8-0.7c1.7,0,2.9,0.5,3.7,1.6
	c0.8,1.1,1.2,2.6,1.2,4.6v9.6h-4.6v-9c0-1.1-0.2-1.9-0.5-2.3c-0.3-0.4-0.8-0.6-1.5-0.6c-0.5,0-1.1,0.1-1.5,0.4
	c-0.5,0.3-1,0.7-1.4,1.1v10.4h-4.6L203.4,31.5L203.4,31.5z"/>
<path class="st1" d="M132.9,29.2c-0.8,0-1.4-0.2-1.9-0.7s-0.8-1-0.8-1.7c0-0.7,0.3-1.3,0.8-1.7c0.5-0.4,1.1-0.7,1.9-0.7
	c0.8,0,1.4,0.2,1.9,0.7c0.5,0.4,0.7,1,0.7,1.7c0,0.7-0.2,1.3-0.7,1.7S133.7,29.2,132.9,29.2z"/>
<path class="st2" d="M95.2,71c-4.1,0-7.2-3.2-7.2-7.8s3.2-7.8,7.2-7.8c1.9,0,3.9,0.8,5,2.2L98.1,60c-0.6-0.9-1.7-1.4-2.7-1.4
	c-2.2,0-3.8,1.9-3.8,4.5c0,2.6,1.6,4.5,3.8,4.5c1.1,0,2.2-0.6,2.8-1.5l2.2,2.3C99.2,70.1,97.5,71,95.2,71L95.2,71z"/>
<path class="st2" d="M118.1,70.6l-1-2.9h-5.1l-1,2.9h-3.5l5.6-14.8h3.1l5.5,14.8H118.1L118.1,70.6z M114.5,59.8l-1.7,5.1h3.3
	L114.5,59.8L114.5,59.8z"/>
<path class="st2" d="M135.9,65h-1.6v5.6h-3.2V55.8h4.9c2.9,0,5.2,1.2,5.2,4.6C141.1,63.7,138.6,65,135.9,65L135.9,65z M135.7,58.7
	h-1.4v3.5h1.4c1.2,0,2.3-0.4,2.3-1.8C137.9,59,136.8,58.7,135.7,58.7L135.7,58.7z"/>
<path class="st2" d="M152.1,70.6V55.8h3.2v14.8H152.1z"/>
<path class="st2" d="M173.3,58.9v11.7h-3.2V58.9h-3.8v-3.1h10.7v3.1L173.3,58.9L173.3,58.9z"/>
<path class="st2" d="M196.2,70.6l-1-2.9H190l-1,2.9h-3.5l5.6-14.8h3.1l5.5,14.8H196.2L196.2,70.6z M192.6,59.8l-1.7,5.1h3.3
	L192.6,59.8z"/>
<path class="st2" d="M209,70.6V55.8h3.2v11.7h5.1v3.1H209L209,70.6z"/>
</svg>
