<?xml version="1.0" encoding="UTF-8"?><svg id="katman_1" xmlns="http://www.w3.org/2000/svg" viewBox="0 0 256 256"><defs><style>.cls-1{fill:#050706;}.cls-2{fill:#000300;}.cls-3{fill:#4272b7;}</style></defs><path class="cls-1" d="M14.27,119.46c0-2.94,1.21-5.24,3.62-6.89,2.41-1.65,6.29-2.76,11.66-3.33-.07-1.24-.44-2.23-1.1-2.96s-1.71-1.1-3.17-1.1c-1.2,0-2.39,.23-3.5,.67-1.29,.51-2.54,1.14-3.72,1.86l-2.85-5.47c1.74-1.09,3.58-1.98,5.5-2.66,1.96-.68,4.03-1.02,6.1-1,3.51,0,6.18,1.02,8.02,3.08,1.84,2.05,2.76,5.24,2.77,9.57v16.04h-6.57l-.6-2.88h-.16c-1.12,1.02-2.36,1.88-3.7,2.57-1.32,.66-2.77,1-4.24,.99-1.15,.02-2.28-.21-3.34-.65-.95-.41-1.81-1.03-2.52-1.81-.7-.78-1.25-1.69-1.62-2.69-.39-1.06-.59-2.18-.58-3.32Zm7.67-.62c0,.9,.28,1.57,.85,2s1.32,.65,2.28,.65,1.75-.21,2.41-.62c.76-.5,1.45-1.09,2.08-1.75v-4.91c-2.88,.42-4.87,1.02-5.97,1.81s-1.64,1.73-1.64,2.82h0Z"/><path class="cls-1" d="M44.49,99.24h6.57l.55,4.91h.22c.98-1.92,2.17-3.33,3.56-4.24s2.77-1.35,4.16-1.35c.63-.01,1.26,.04,1.89,.14,.46,.08,.91,.22,1.34,.42l-1.31,7.18c-.47-.14-.94-.25-1.43-.34-.51-.08-1.02-.12-1.53-.11-1.02,0-2.09,.37-3.2,1.13-1.11,.76-2.03,2.09-2.77,4.01v16.27h-8.05v-28.03Z"/><path class="cls-1" d="M66.28,99.24h6.57l.55,4.91h.22c.98-1.92,2.17-3.33,3.56-4.24s2.77-1.35,4.16-1.35c.63-.01,1.26,.04,1.89,.14,.46,.09,.91,.22,1.34,.42l-1.31,7.18c-.47-.14-.94-.25-1.43-.34-.51-.08-1.02-.12-1.53-.11-1.03,0-2.09,.37-3.2,1.13-1.11,.76-2.03,2.09-2.76,4.01v16.27h-8.05v-28.03h0Z"/><path class="cls-1" d="M88.07,99.24h8.05v28.02h-8.05v-28.02Z"/><path class="cls-1" d="M103.18,99.24h6.57l.55,3.56h.22c1.17-1.13,2.45-2.12,3.83-2.96,1.38-.84,3.01-1.27,4.87-1.27,2.95,0,5.1,1,6.43,2.99,1.33,1.99,2,4.76,2,8.3v17.4h-8.05v-16.32c0-2.03-.26-3.43-.79-4.18s-1.38-1.13-2.55-1.14c-.92-.02-1.84,.22-2.62,.71-.87,.58-1.68,1.25-2.41,2v18.93h-8.05v-28.01h0Z"/><path class="cls-1" d="M132.8,132.05c0-2.26,1.29-4.14,3.89-5.65v-.22c-.72-.48-1.34-1.12-1.81-1.87-.48-.76-.72-1.71-.72-2.88,0-1.04,.32-2.05,.88-2.91,.58-.92,1.32-1.72,2.19-2.35v-.22c-.95-.68-1.8-1.65-2.55-2.91-.75-1.26-1.12-2.72-1.12-4.38s.31-3.17,.93-4.43c.6-1.23,1.44-2.3,2.49-3.16,1.07-.86,2.28-1.5,3.58-1.89,1.37-.42,2.79-.62,4.22-.62,1.6,0,3.01,.22,4.22,.67h9.91v6.05h-4.33c.29,.49,.5,1.02,.63,1.58,.17,.68,.25,1.39,.24,2.09,0,1.62-.27,3.02-.81,4.2-.52,1.15-1.31,2.16-2.28,2.94-1.01,.79-2.17,1.38-3.39,1.72-1.36,.39-2.77,.57-4.18,.57-1.12-.01-2.23-.2-3.28-.56-.32,.24-.58,.55-.77,.9-.16,.37-.23,.78-.22,1.19-.03,.67,.32,1.29,.9,1.58,.6,.34,1.67,.51,3.2,.51h4.38c3.36,0,5.92,.56,7.69,1.67,1.77,1.11,2.65,2.93,2.65,5.45,.01,1.43-.35,2.83-1.07,4.05-.76,1.28-1.8,2.36-3.04,3.16-1.31,.89-2.91,1.58-4.76,2.09-2.06,.53-4.18,.79-6.29,.76-1.5,.01-2.99-.13-4.46-.42-1.26-.24-2.48-.67-3.62-1.27-.98-.51-1.82-1.27-2.44-2.2-.58-.9-.87-1.98-.87-3.22h0Zm6.62-1.3c0,1.05,.55,1.85,1.65,2.4s2.55,.82,4.38,.82,3.32-.33,4.49-.99,1.75-1.48,1.75-2.46c0-.86-.36-1.45-1.07-1.75-.71-.3-1.74-.46-3.09-.45h-2.79c-.95,0-1.72-.03-2.3-.08-.52-.04-1.03-.13-1.53-.26-.98,.9-1.48,1.83-1.48,2.76h0Zm5.37-17.4c1.01,.02,1.97-.4,2.65-1.16,.71-.77,1.07-1.95,1.07-3.53,0-1.47-.36-2.59-1.07-3.36-.69-.76-1.65-1.18-2.65-1.16-1-.02-1.97,.38-2.66,1.12-.7,.76-1.06,1.88-1.06,3.39,0,1.58,.36,2.76,1.07,3.53,.68,.76,1.65,1.19,2.65,1.16h0Z"/><path class="cls-1" d="M164.82,105.73h-3.72v-6.16l4.16-.34,.93-7.46h6.68v7.46h6.51v6.5h-6.51v11.24c0,1.58,.32,2.72,.95,3.42s1.49,1.04,2.55,1.04c.45,0,.9-.06,1.34-.17,.42-.1,.83-.23,1.23-.4l1.26,6.05c-.73,.22-1.59,.45-2.57,.67-1.13,.24-2.29,.36-3.45,.34-1.68,0-3.11-.26-4.3-.79-1.13-.48-2.12-1.24-2.9-2.2-.78-1-1.34-2.17-1.64-3.42-.36-1.45-.54-2.94-.52-4.43v-11.35h0Z"/><path class="cls-1" d="M182.56,113.24c0-2.33,.36-4.41,1.1-6.24,.66-1.72,1.66-3.29,2.93-4.61,1.21-1.24,2.65-2.21,4.24-2.85,1.59-.66,3.28-.99,4.98-.99,1.7,0,3.38,.33,4.96,.99,1.57,.65,3.01,1.62,4.22,2.85,1.27,1.32,2.27,2.88,2.93,4.61,.73,1.83,1.09,3.91,1.09,6.24s-.36,4.41-1.09,6.24c-.66,1.72-1.66,3.29-2.93,4.61-1.21,1.24-2.64,2.2-4.22,2.85-1.57,.66-3.26,.99-4.96,.99-1.71,0-3.39-.33-4.98-.99-1.59-.65-3.03-1.62-4.24-2.85-1.27-1.31-2.27-2.88-2.93-4.61-.73-1.82-1.1-3.91-1.1-6.24Zm8.27,0c0,2.45,.41,4.39,1.23,5.82s2.07,2.15,3.75,2.15,2.88-.72,3.72-2.15,1.26-3.37,1.26-5.82-.42-4.39-1.26-5.82c-.84-1.43-2.08-2.15-3.72-2.15s-2.92,.72-3.75,2.15c-.82,1.43-1.23,3.37-1.23,5.82h0Z"/><path class="cls-1" d="M214.53,99.24h6.57l.55,3.56h.22c1.17-1.13,2.45-2.12,3.83-2.96,1.38-.84,3.01-1.27,4.87-1.27,2.95,0,5.1,1,6.43,3s2,4.76,2,8.3v17.4h-8.05v-16.32c0-2.03-.26-3.43-.79-4.18s-1.38-1.13-2.54-1.14c-.92-.02-1.84,.22-2.63,.71-.87,.58-1.67,1.25-2.41,2v18.93h-8.05v-28.01h0Z"/><path class="cls-3" d="M92.09,95.12c-1.35,0-2.46-.41-3.34-1.22s-1.31-1.85-1.31-3.13,.44-2.32,1.31-3.11c.88-.79,1.99-1.19,3.34-1.19s2.51,.39,3.36,1.19c.86,.79,1.29,1.83,1.29,3.11s-.43,2.33-1.29,3.13-1.98,1.22-3.37,1.22h0Z"/><path class="cls-2" d="M26.7,170.99c-7.11,0-12.43-5.76-12.43-14.2s5.48-14.12,12.53-14.12c3.23,0,6.72,1.37,8.64,3.95l-3.78,4.41c-1.04-1.67-2.91-2.46-4.67-2.46-3.88,0-6.66,3.49-6.66,8.23s2.71,8.24,6.56,8.24c1.98,.03,3.84-1,4.89-2.73l3.88,4.25c-2.03,2.74-5.09,4.45-8.98,4.45h0Z"/><path class="cls-2" d="M66.43,170.27l-1.79-5.28h-8.94l-1.69,5.28h-6.07l9.69-26.87h5.42l9.59,26.87h-6.2Zm-6.2-19.7l-2.93,9.22h5.8l-2.86-9.22h0Z"/><path class="cls-2" d="M97.26,160.14h-2.77v10.13h-5.58v-26.87h8.48c5.06,0,9.04,2.12,9.04,8.27s-4.34,8.46-9.17,8.46h0Zm-.33-11.49h-2.44v6.34h2.35c2.09,0,4.01-.72,4.01-3.26s-1.93-3.08-3.92-3.08h0Z"/><path class="cls-2" d="M125.44,170.27v-26.87h5.61v26.87h-5.61Z"/><path class="cls-2" d="M162.34,148.94v21.33h-5.58v-21.33h-6.53v-5.54h18.63v5.54h-6.52Z"/><path class="cls-2" d="M202.07,170.27l-1.79-5.28h-8.94l-1.7,5.28h-6.07l9.69-26.87h5.42l9.59,26.87h-6.21Zm-6.2-19.7l-2.93,9.22h5.8l-2.88-9.22Z"/><path class="cls-2" d="M224.22,170.27v-26.87h5.61v21.22h8.94v5.65h-14.54Z"/></svg>