<?xml version="1.0" encoding="UTF-8"?><svg id="katman_1" xmlns="http://www.w3.org/2000/svg" viewBox="0 0 466.16 178.6"><defs><style>.cls-1{fill:#050706;}.cls-2{fill:#000300;}.cls-3{fill:#4272b7;}</style></defs><path class="cls-1" d="M0,69.7C0,63.49,2.5,58.64,7.5,55.15c5-3.49,13.06-5.84,24.19-7.04-.15-2.62-.91-4.71-2.27-6.26-1.36-1.55-3.56-2.33-6.59-2.34-2.48,0-4.95,.49-7.27,1.42-2.67,1.08-5.26,2.4-7.72,3.94L1.93,33.3c3.6-2.3,7.43-4.18,11.41-5.62,4.08-1.44,8.35-2.16,12.65-2.13,7.27,0,12.82,2.17,16.64,6.5,3.82,4.34,5.74,11.08,5.74,20.23v33.89h-13.63l-1.25-6.09h-.34c-2.32,2.15-4.9,3.98-7.67,5.43-2.74,1.4-5.75,2.12-8.8,2.09-2.37,.04-4.73-.43-6.92-1.38-1.98-.87-3.76-2.17-5.23-3.82-1.45-1.65-2.59-3.58-3.35-5.68C.38,74.48-.02,72.1,0,69.7Zm15.9-1.31c0,1.91,.59,3.33,1.76,4.24,1.17,.91,2.75,1.37,4.73,1.37,1.97,0,3.63-.44,5-1.31,1.57-1.05,3.01-2.3,4.3-3.7v-10.38c-5.98,.88-10.11,2.15-12.38,3.82-2.27,1.67-3.4,3.66-3.41,5.96Z"/><path class="cls-1" d="M62.69,26.97h13.62l1.13,10.38h.46c2.04-4.05,4.5-7.04,7.38-8.95,2.88-1.91,5.76-2.86,8.64-2.85,1.31-.02,2.62,.08,3.92,.3,.96,.18,1.89,.47,2.78,.89l-2.72,15.16c-.97-.29-1.96-.53-2.95-.71-1.05-.17-2.12-.25-3.18-.24-2.12,0-4.33,.79-6.64,2.38-2.31,1.59-4.22,4.42-5.74,8.48v34.37h-16.69V26.97Z"/><path class="cls-1" d="M107.88,26.97h13.63l1.14,10.38h.45c2.05-4.05,4.51-7.04,7.38-8.95,2.87-1.91,5.75-2.86,8.63-2.85,1.31-.02,2.62,.08,3.92,.3,.96,.18,1.89,.48,2.78,.89l-2.72,15.16c-.97-.29-1.96-.53-2.95-.71-1.05-.17-2.11-.25-3.18-.24-2.12,0-4.34,.79-6.64,2.38-2.3,1.59-4.21,4.41-5.72,8.47v34.37h-16.71V26.97Z"/><path class="cls-1" d="M153.08,26.97h16.7v59.2h-16.7V26.97Z"/><path class="cls-1" d="M184.42,26.97h13.63l1.13,7.52h.46c2.42-2.39,5.09-4.49,7.95-6.27,2.88-1.78,6.25-2.67,10.11-2.67,6.13,0,10.58,2.11,13.34,6.32,2.76,4.21,4.15,10.06,4.14,17.54v36.76h-16.69V51.68c0-4.3-.55-7.24-1.64-8.83s-2.86-2.39-5.28-2.4c-1.91-.06-3.81,.46-5.45,1.49-1.8,1.23-3.47,2.65-5,4.23v39.99h-16.69V26.97Z"/><path class="cls-1" d="M245.85,96.31c0-4.78,2.69-8.76,8.06-11.94v-.48c-1.5-1.02-2.78-2.36-3.75-3.94-.99-1.59-1.48-3.62-1.48-6.09,.02-2.19,.66-4.33,1.83-6.14,1.2-1.95,2.74-3.63,4.54-4.97v-.48c-1.97-1.43-3.73-3.48-5.28-6.15-1.55-2.66-2.33-5.75-2.33-9.25,0-3.58,.64-6.7,1.93-9.37,1.23-2.59,2.99-4.87,5.16-6.67,2.21-1.82,4.73-3.17,7.43-4,2.84-.88,5.79-1.32,8.75-1.31,3.33,0,6.25,.47,8.74,1.42h20.56v12.77h-8.98c.59,1.04,1.03,2.17,1.31,3.34,.35,1.44,.52,2.93,.51,4.42,0,3.42-.56,6.38-1.69,8.87-1.09,2.43-2.71,4.56-4.73,6.21-2.1,1.68-4.49,2.92-7.04,3.64-2.83,.82-5.75,1.22-8.68,1.2-2.32-.02-4.61-.42-6.81-1.19-.65,.51-1.2,1.16-1.59,1.91-.33,.79-.49,1.64-.46,2.51-.06,1.41,.67,2.72,1.87,3.34,1.25,.71,3.46,1.06,6.64,1.06h9.08c6.96,0,12.28,1.17,15.96,3.52,3.67,2.35,5.51,6.19,5.51,11.52,.03,3.01-.74,5.98-2.21,8.56-1.59,2.7-3.74,4.99-6.3,6.68-2.73,1.87-6.02,3.34-9.88,4.42-4.27,1.12-8.66,1.67-13.06,1.61-3.11,.02-6.21-.28-9.26-.89-2.61-.52-5.13-1.42-7.5-2.69-2.04-1.07-3.78-2.68-5.06-4.66-1.2-1.91-1.8-4.18-1.8-6.81Zm13.74-2.75c0,2.23,1.14,3.92,3.41,5.07,2.27,1.15,5.3,1.73,9.08,1.73,3.79,0,6.89-.7,9.31-2.09,2.42-1.39,3.63-3.12,3.63-5.19,0-1.83-.74-3.06-2.21-3.7-1.47-.64-3.61-.96-6.42-.95h-5.79c-1.97,0-3.56-.06-4.77-.18-1.07-.1-2.13-.28-3.18-.54-2.04,1.91-3.06,3.86-3.07,5.85Zm11.14-36.76c2.09,.05,4.09-.84,5.51-2.45,1.47-1.63,2.21-4.11,2.21-7.45,0-3.1-.74-5.47-2.21-7.1-1.42-1.61-3.43-2.5-5.51-2.45-2.08-.06-4.08,.8-5.52,2.38-1.47,1.59-2.2,3.98-2.2,7.16,0,3.34,.74,5.83,2.21,7.45,1.41,1.61,3.41,2.5,5.49,2.46h.01Z"/><path class="cls-1" d="M312.28,40.7h-7.72v-13.02l8.63-.71,1.93-15.75h13.84v15.75h13.51v13.73h-13.51v23.75c0,3.34,.66,5.75,1.99,7.22,1.32,1.48,3.09,2.21,5.28,2.21,.94,0,1.87-.12,2.78-.35,.87-.21,1.72-.49,2.56-.84l2.61,12.77c-1.51,.47-3.29,.95-5.34,1.42-2.35,.51-4.75,.75-7.15,.71-3.48,0-6.46-.56-8.92-1.67-2.34-1.02-4.4-2.61-6.02-4.66-1.62-2.12-2.78-4.58-3.41-7.22-.75-3.06-1.11-6.21-1.08-9.37v-23.97Z"/><path class="cls-1" d="M349.08,56.57c0-4.93,.76-9.33,2.27-13.19,1.38-3.64,3.45-6.95,6.08-9.73,2.52-2.61,5.51-4.67,8.8-6.03,3.29-1.38,6.79-2.09,10.33-2.09,3.52,0,7.01,.7,10.28,2.09,3.27,1.38,6.24,3.43,8.74,6.03,2.63,2.78,4.7,6.09,6.08,9.73,1.51,3.86,2.27,8.26,2.27,13.19s-.76,9.33-2.27,13.19c-1.38,3.64-3.45,6.95-6.08,9.73-2.5,2.61-5.48,4.66-8.74,6.03-3.27,1.39-6.76,2.09-10.28,2.09-3.54,0-7.05-.7-10.33-2.09-3.29-1.37-6.29-3.42-8.8-6.03-2.63-2.78-4.7-6.08-6.08-9.73-1.51-3.86-2.27-8.25-2.27-13.19Zm17.15,0c0,5.17,.85,9.27,2.56,12.3s4.29,4.53,7.77,4.53c3.41,0,5.98-1.51,7.72-4.53s2.61-7.12,2.61-12.3c0-5.17-.87-9.27-2.61-12.29-1.74-3.03-4.31-4.54-7.71-4.53-3.48,0-6.07,1.51-7.77,4.53-1.7,3.02-2.55,7.12-2.57,12.29h0Z"/><path class="cls-1" d="M415.4,26.97h13.63l1.14,7.52h.45c2.42-2.39,5.09-4.49,7.95-6.27,2.88-1.78,6.25-2.67,10.11-2.67,6.13,0,10.58,2.11,13.34,6.32,2.76,4.22,4.15,10.06,4.15,17.54v36.76h-16.7V51.69c0-4.3-.55-7.24-1.65-8.83s-2.86-2.39-5.28-2.4c-1.92-.06-3.81,.46-5.45,1.49-1.8,1.23-3.47,2.65-5,4.23v39.99h-16.69V26.97Z"/><path class="cls-3" d="M161.42,18.26c-2.8,0-5.11-.86-6.92-2.57s-2.72-3.92-2.72-6.62,.91-4.89,2.72-6.56C156.31,.83,158.62,0,161.42,0,164.3,0,166.63,.84,168.41,2.51c1.78,1.67,2.67,3.86,2.67,6.56,0,2.71-.89,4.91-2.67,6.62s-4.11,2.57-6.99,2.57Z"/><path class="cls-2" d="M25.78,178.6C11.03,178.6,0,166.42,0,148.6s11.37-29.84,26-29.84c6.7,0,13.94,2.89,17.94,8.34l-7.85,9.3c-2.17-3.53-6.02-5.21-9.68-5.21-8.05,0-13.81,7.38-13.81,17.39s5.61,17.41,13.6,17.41c4.11,.06,7.95-2.13,10.15-5.78l8.05,8.98c-4.21,5.79-10.57,9.4-18.62,9.4Z"/><path class="cls-2" d="M108.2,177.07l-3.71-11.15h-18.55l-3.52,11.15h-12.59l20.1-56.77h11.23l19.89,56.77h-12.86Zm-12.86-41.62l-6.08,19.49h12.02l-5.95-19.49Z"/><path class="cls-2" d="M172.15,155.66h-5.74v21.41h-11.58v-56.77h17.59c10.49,0,18.75,4.49,18.75,17.49s-9,17.88-19.02,17.88Zm-.68-24.31h-5.06v13.4h4.87c4.33,0,8.32-1.52,8.32-6.9-.01-5.45-4-6.5-8.13-6.5Z"/><path class="cls-2" d="M230.6,177.07v-56.77h11.64v56.77h-11.64Z"/><path class="cls-2" d="M307.14,132v45.06h-11.57v-45.06h-13.53v-11.71h38.64v11.71h-13.54Z"/><path class="cls-2" d="M389.56,177.07l-3.71-11.15h-18.54l-3.52,11.15h-12.59l20.1-56.77h11.25l19.89,56.77h-12.87Zm-12.86-41.62l-6.08,19.49h12.05l-5.97-19.49Z"/><path class="cls-2" d="M435.51,177.07v-56.77h11.64v44.83h18.54v11.94h-30.18Z"/></svg>