<?xml version="1.0" encoding="UTF-8"?><svg id="katman_1" xmlns="http://www.w3.org/2000/svg" viewBox="0 0 376.7 135.44"><defs><style>.cls-1{fill:#050706;}.cls-2{fill:#000300;}.cls-3{fill:#4272b7;}</style></defs><path class="cls-1" d="M0,52.86C0,48.15,2.02,44.47,6.06,41.82c4.04-2.65,10.55-4.43,19.55-5.34-.12-1.99-.74-3.57-1.84-4.75-1.1-1.18-2.87-1.77-5.32-1.77-2.01,0-4,.37-5.87,1.08-2.16,.82-4.25,1.82-6.24,2.98L1.56,25.25c2.91-1.74,6-3.17,9.22-4.26,3.29-1.09,6.75-1.64,10.23-1.61,5.88,0,10.36,1.64,13.45,4.93,3.09,3.29,4.63,8.4,4.64,15.34v25.7h-11.01l-1.01-4.62h-.27c-1.87,1.63-3.96,3.02-6.2,4.12-2.21,1.06-4.65,1.61-7.11,1.58-1.92,.03-3.82-.33-5.6-1.04-1.6-.66-3.04-1.65-4.22-2.9-1.17-1.25-2.09-2.71-2.71-4.31C.31,56.48-.02,54.68,0,52.86Zm12.85-1c0,1.45,.47,2.52,1.42,3.21,.95,.69,2.22,1.04,3.82,1.04,1.59,0,2.94-.33,4.04-1,1.27-.8,2.43-1.74,3.48-2.81v-7.87c-4.83,.67-8.17,1.63-10,2.9-1.83,1.27-2.75,2.77-2.75,4.52Z"/><path class="cls-1" d="M50.66,20.45h11.01l.92,7.87h.37c1.65-3.07,3.64-5.34,5.96-6.79,2.32-1.45,4.65-2.17,6.98-2.16,1.06-.02,2.12,.06,3.17,.23,.77,.13,1.53,.36,2.25,.67l-2.2,11.5c-.78-.22-1.58-.4-2.39-.54-.85-.13-1.71-.19-2.57-.18-1.71,0-3.5,.6-5.37,1.81-1.86,1.21-3.41,3.35-4.64,6.43v26.07h-13.49V20.45Z"/><path class="cls-1" d="M87.18,20.45h11.01l.92,7.87h.37c1.65-3.07,3.64-5.34,5.96-6.79,2.32-1.45,4.65-2.17,6.97-2.16,1.06-.02,2.12,.06,3.16,.23,.77,.14,1.53,.36,2.25,.68l-2.2,11.5c-.78-.22-1.58-.4-2.39-.54-.85-.13-1.71-.19-2.57-.18-1.72,0-3.51,.6-5.37,1.81-1.86,1.21-3.4,3.35-4.62,6.42v26.07h-13.5V20.45Z"/><path class="cls-1" d="M123.7,20.45h13.49v44.9h-13.49V20.45Z"/><path class="cls-1" d="M149.03,20.45h11.01l.92,5.7h.37c1.96-1.81,4.11-3.4,6.42-4.75,2.32-1.35,5.05-2.03,8.17-2.03,4.95,0,8.55,1.6,10.78,4.79,2.23,3.19,3.35,7.63,3.35,13.3v27.88h-13.49v-26.16c0-3.26-.44-5.49-1.33-6.7s-2.31-1.81-4.27-1.82c-1.55-.04-3.08,.35-4.4,1.13-1.45,.93-2.81,2.01-4.04,3.21v30.33h-13.49V20.45Z"/><path class="cls-1" d="M198.68,73.04c0-3.62,2.17-6.64,6.52-9.05v-.36c-1.21-.77-2.25-1.79-3.03-2.99-.8-1.21-1.2-2.74-1.2-4.62,.01-1.66,.53-3.28,1.48-4.66,.97-1.48,2.21-2.75,3.67-3.77v-.36c-1.59-1.09-3.01-2.64-4.27-4.66-1.26-2.02-1.88-4.36-1.88-7.02,0-2.72,.52-5.08,1.56-7.1,1-1.97,2.42-3.69,4.17-5.06,1.79-1.38,3.82-2.41,6-3.03,2.3-.67,4.68-1,7.07-.99,2.69,0,5.05,.36,7.07,1.08h16.61v9.69h-7.26c.48,.79,.84,1.64,1.06,2.53,.28,1.09,.42,2.22,.41,3.35,0,2.59-.45,4.84-1.36,6.73-.88,1.85-2.19,3.46-3.82,4.71-1.7,1.27-3.63,2.21-5.69,2.76-2.28,.62-4.64,.92-7.01,.91-1.87-.02-3.73-.32-5.5-.9-.53,.39-.97,.88-1.29,1.45-.27,.6-.39,1.25-.37,1.9-.05,1.07,.54,2.06,1.51,2.53,1.01,.54,2.8,.81,5.37,.81h7.34c5.63,0,9.93,.89,12.89,2.67,2.97,1.78,4.45,4.69,4.45,8.73,.02,2.29-.59,4.53-1.79,6.49-1.28,2.05-3.02,3.78-5.09,5.07-2.2,1.42-4.87,2.53-7.98,3.35-3.45,.85-7,1.26-10.55,1.22-2.51,.02-5.02-.21-7.48-.68-2.11-.39-4.15-1.08-6.06-2.04-1.65-.81-3.05-2.03-4.09-3.53-.97-1.45-1.46-3.17-1.46-5.16Zm11.1-2.08c0,1.69,.92,2.97,2.76,3.85s4.28,1.31,7.34,1.31c3.06,0,5.57-.53,7.52-1.58s2.94-2.37,2.94-3.94c0-1.38-.6-2.32-1.79-2.8-1.19-.48-2.92-.73-5.18-.72h-4.68c-1.59,0-2.88-.05-3.86-.13-.87-.07-1.72-.21-2.57-.41-1.65,1.45-2.48,2.93-2.48,4.43Zm9-27.88c1.69,.04,3.31-.64,4.45-1.86,1.19-1.23,1.79-3.12,1.79-5.65,0-2.35-.6-4.15-1.79-5.38-1.15-1.22-2.77-1.89-4.45-1.86-1.68-.04-3.3,.61-4.46,1.8-1.18,1.21-1.78,3.02-1.78,5.43,0,2.53,.6,4.42,1.79,5.65,1.14,1.22,2.76,1.9,4.44,1.86h.01Z"/><path class="cls-1" d="M252.36,30.86h-6.24v-9.87l6.98-.54,1.56-11.95h11.19v11.95h10.91v10.41h-10.91v18.01c0,2.53,.53,4.36,1.6,5.48,1.07,1.12,2.49,1.67,4.27,1.67,.76,0,1.51-.09,2.25-.27,.7-.16,1.39-.37,2.07-.64l2.11,9.69c-1.22,.36-2.66,.72-4.31,1.08-1.9,.39-3.84,.57-5.78,.54-2.82,0-5.22-.42-7.21-1.26-1.89-.77-3.56-1.98-4.86-3.53-1.31-1.61-2.24-3.48-2.75-5.48-.61-2.32-.9-4.71-.87-7.1V30.86Z"/><path class="cls-1" d="M282.09,42.9c0-3.74,.61-7.07,1.84-10,1.11-2.76,2.78-5.27,4.91-7.38,2.03-1.98,4.45-3.54,7.11-4.57,2.66-1.05,5.49-1.59,8.35-1.58,2.85,0,5.67,.53,8.31,1.58,2.64,1.04,5.04,2.6,7.07,4.57,2.13,2.11,3.8,4.62,4.91,7.38,1.22,2.93,1.83,6.26,1.83,10s-.61,7.07-1.83,10c-1.11,2.76-2.78,5.27-4.91,7.38-2.02,1.98-4.42,3.53-7.07,4.57-2.64,1.05-5.46,1.59-8.31,1.58-2.86,0-5.69-.53-8.35-1.58-2.66-1.04-5.08-2.59-7.11-4.57-2.13-2.1-3.8-4.61-4.91-7.38-1.22-2.92-1.84-6.26-1.84-10Zm13.86,0c0,3.92,.69,7.03,2.07,9.32s3.47,3.44,6.28,3.44c2.75,0,4.83-1.15,6.24-3.44s2.11-5.4,2.11-9.32c0-3.92-.7-7.03-2.11-9.32-1.41-2.29-3.49-3.44-6.23-3.44-2.81,0-4.9,1.15-6.28,3.44-1.37,2.29-2.06,5.4-2.07,9.32h0Z"/><path class="cls-1" d="M335.68,20.45h11.01l.92,5.7h.37c1.96-1.81,4.11-3.4,6.42-4.75,2.32-1.35,5.05-2.03,8.17-2.03,4.95,0,8.55,1.6,10.78,4.8,2.23,3.2,3.35,7.63,3.35,13.3v27.88h-13.49v-26.16c0-3.26-.44-5.49-1.33-6.7s-2.31-1.81-4.26-1.82c-1.55-.04-3.08,.35-4.41,1.13-1.45,.93-2.8,2.01-4.04,3.21v30.33h-13.49V20.45Z"/><path class="cls-3" d="M130.45,13.85c-2.26,0-4.13-.65-5.6-1.95s-2.2-2.97-2.2-5.02,.73-3.71,2.2-4.98C126.32,.63,128.18,0,130.45,0,132.77,0,134.65,.63,136.09,1.9c1.44,1.27,2.16,2.93,2.16,4.98,0,2.05-.72,3.73-2.16,5.02s-3.32,1.95-5.65,1.95Z"/><path class="cls-2" d="M20.83,135.44C8.91,135.44,0,126.21,0,112.69s9.19-22.63,21.01-22.63c5.42,0,11.27,2.19,14.49,6.33l-6.34,7.06c-1.75-2.67-4.87-3.95-7.82-3.95-6.51,0-11.16,5.6-11.16,13.19s4.54,13.2,10.99,13.2c3.32,.05,6.43-1.61,8.2-4.38l6.51,6.81c-3.4,4.39-8.54,7.13-15.05,7.13Z"/><path class="cls-2" d="M87.44,134.28l-3-8.46h-14.99l-2.84,8.46h-10.17l16.24-43.06h9.08l16.08,43.06h-10.39Zm-10.39-31.57l-4.91,14.78h9.72l-4.8-14.78Z"/><path class="cls-2" d="M139.11,118.05h-4.64v16.23h-9.36v-43.06h14.22c8.48,0,15.15,3.4,15.15,13.26s-7.27,13.56-15.37,13.56Zm-.55-18.43h-4.09v10.16h3.94c3.5,0,6.73-1.15,6.73-5.23,0-4.14-3.24-4.93-6.57-4.93Z"/><path class="cls-2" d="M186.35,134.28v-43.06h9.4v43.06h-9.4Z"/><path class="cls-2" d="M248.2,100.1v34.18h-9.35v-34.18h-10.94v-8.88h31.22v8.88h-10.94Z"/><path class="cls-2" d="M314.8,134.28l-3-8.46h-14.98l-2.85,8.46h-10.17l16.24-43.06h9.09l16.08,43.06h-10.4Zm-10.39-31.57l-4.91,14.78h9.73l-4.82-14.78Z"/><path class="cls-2" d="M351.93,134.28v-43.06h9.4v34h14.98v9.06h-24.39Z"/></svg>