<?xml version="1.0" encoding="UTF-8"?><svg id="a" xmlns="http://www.w3.org/2000/svg" xmlns:xlink="http://www.w3.org/1999/xlink" viewBox="0 0 323.41 26.762"><defs><style>.c{fill:url(#b);}.d{fill:#fff;fill-rule:evenodd;}</style><linearGradient id="b" x1="136.37" y1="13.295" x2="323.408" y2="13.295" gradientTransform="matrix(1, 0, 0, 1, 0, 0)" gradientUnits="userSpaceOnUse"><stop offset="0" stop-color="#68d7fa"/><stop offset="1" stop-color="#7ef1b3"/></linearGradient></defs><path class="c" d="M136.445,1.083c-.226-.49,.077-.979,.643-.979h1.506c.34,0,.566,.226,.64,.414l9.385,21.106h.151L158.154,.519c.077-.189,.34-.414,.643-.414h1.506c.566,0,.866,.489,.64,.979l-11.457,25.366c-.112,.226-.337,.414-.64,.414h-.377c-.263,0-.526-.189-.64-.414L136.445,1.083Zm28.61-.263c0-.377,.303-.716,.717-.716h14.85c.414,0,.715,.339,.715,.716V1.914c0,.376-.3,.716-.715,.716h-12.664V11.825h10.815c.377,0,.717,.34,.717,.716v1.093c0,.414-.34,.716-.717,.716h-10.815v9.611h12.664c.414,0,.715,.339,.715,.716v1.093c0,.377-.3,.716-.715,.716h-14.85c-.414,0-.717-.339-.717-.716V.82Zm22.314-.416c0-.376,.34-.677,.717-.677h.941l16.999,21.18h.074V.82c0-.377,.303-.716,.717-.716h1.318c.377,0,.717,.339,.717,.716V26.185c0,.377-.34,.679-.717,.679h-.677l-17.299-21.596h-.037V25.77c0,.377-.303,.716-.717,.716h-1.318c-.377,0-.717-.339-.717-.716V.405Zm32.908,2.225h-6.559c-.414,0-.715-.34-.715-.716V.82c0-.377,.3-.716,.715-.716h15.981c.414,0,.715,.339,.715,.716V1.914c0,.376-.3,.716-.715,.716h-6.559V25.77c0,.377-.34,.716-.717,.716h-1.432c-.377,0-.715-.339-.715-.716V2.629Zm13.947-1.809c0-.377,.34-.716,.717-.716h1.432c.414,0,.717,.339,.717,.716v15.716c0,4.297,2.675,7.651,7.085,7.651,4.447,0,7.162-3.279,7.162-7.575V.82c0-.377,.3-.716,.715-.716h1.432c.377,0,.717,.339,.717,.716v15.942c0,5.729-4.07,10.101-10.026,10.101-5.919,0-9.951-4.373-9.951-10.101V.82Zm27.327,0c0-.377,.303-.716,.717-.716h9.76c4.524,0,8.217,3.542,8.217,8.027,0,3.468-2.298,6.37-5.579,7.689l5.164,9.573c.263,.49,0,1.093-.64,1.093h-1.923c-.337,0-.526-.189-.603-.339l-5.013-9.988h-7.197v9.611c0,.377-.34,.716-.717,.716h-1.469c-.414,0-.717-.339-.717-.716V.82Zm10.289,12.851c2.903,0,5.427-2.412,5.427-5.502,0-2.865-2.524-5.314-5.427-5.314h-7.311V13.671h7.311Zm14.629-12.851c0-.377,.303-.716,.717-.716h14.85c.414,0,.715,.339,.715,.716V1.914c0,.376-.3,.716-.715,.716h-12.664V11.825h10.815c.377,0,.717,.34,.717,.716v1.093c0,.414-.34,.716-.717,.716h-10.815v9.611h12.664c.414,0,.715,.339,.715,.716v1.093c0,.377-.3,.716-.715,.716h-14.85c-.414,0-.717-.339-.717-.716V.82Zm20.62,21.709c.189-.227,.377-.49,.563-.716,.377-.49,.792-.792,1.32-.34,.263,.226,3.015,2.865,6.37,2.865,3.052,0,5.05-1.922,5.05-4.147,0-2.599-2.261-4.145-6.596-5.955-4.147-1.809-6.633-3.505-6.633-7.802,0-2.562,2.035-6.708,8.028-6.708,3.693,0,6.445,1.922,6.445,1.922,.226,.113,.677,.565,.226,1.282-.151,.226-.3,.489-.452,.716-.34,.527-.717,.679-1.32,.339-.263-.15-2.638-1.733-4.936-1.733-3.995,0-5.201,2.562-5.201,4.145,0,2.525,1.923,3.995,5.087,5.314,5.09,2.073,8.368,3.995,8.368,8.367,0,3.92-3.732,6.785-8.142,6.785-4.447,0-7.462-2.601-7.951-3.054-.303-.263-.68-.565-.226-1.28Z"/><g><path class="d" d="M13.58-.194c3.502,0,6.304,1.074,9.084,3.482,.228,.202,.356,.466,.365,.745,.008,.253-.083,.498-.257,.697l-.055,.058-1.597,1.63c-.222,.276-.465,.347-.632,.357-.183,.012-.464-.039-.767-.342-1.688-1.468-3.976-2.353-6.105-2.353-4.889,0-8.867,4.117-8.867,9.179s3.994,9.142,8.903,9.142c2.682,0,4.517-1.127,6.1-2.344,.395-.306,.872-.333,1.234-.075l.059,.046,1.705,1.663c.172,.15,.279,.381,.288,.639,.01,.298-.111,.601-.322,.812-2.461,2.384-5.62,3.643-9.138,3.643C6.105,26.785,.022,20.75,.022,13.332,.022,5.874,6.105-.194,13.58-.194h0Z"/><path class="d" d="M79.864-.194c3.502,0,6.303,1.074,9.084,3.482,.228,.202,.356,.465,.365,.745,.008,.253-.083,.498-.256,.697l-.054,.058-1.598,1.63c-.222,.276-.465,.347-.632,.357-.184,.012-.463-.039-.767-.342-1.688-1.468-3.976-2.353-6.105-2.353-4.889,0-8.867,4.117-8.867,9.179s3.994,9.142,8.904,9.142c2.682,0,4.517-1.127,6.1-2.344,.395-.306,.872-.333,1.234-.075l.059,.046,1.705,1.663c.172,.15,.279,.381,.288,.639,.01,.297-.111,.601-.322,.812-2.462,2.385-5.621,3.643-9.138,3.643-7.476,0-13.558-6.035-13.558-13.453,0-7.458,6.082-13.526,13.558-13.526h0Z"/><path class="d" d="M32.67,.172c.525,0,.988,.44,1.024,.957l.002,.065V25.397c0,.523-.442,.984-.961,1.02l-.065,.002h-2.419c-.525,0-.988-.441-1.024-.957l-.002-.065V1.194c0-.523,.442-.984,.961-1.02l.065-.002h2.419Z"/><path class="d" d="M98.953,.172c.525,0,.988,.44,1.024,.957l.002,.065V22.365h9.6c.543,0,.99,.423,1.024,.955l.002,.067v2.011c0,.541-.425,.985-.959,1.02l-.067,.002h-13.045c-.543,0-.989-.423-1.024-.955l-.002-.067V1.194c0-.541,.424-.985,.959-1.02l.067-.002h2.419Z"/><path class="d" d="M131.308,.172c.543,0,.989,.423,1.024,.955l.002,.067V3.241c0,.541-.424,.985-.959,1.02l-.067,.002h-11.249v6.804h9.453c.525,0,.988,.44,1.024,.957l.002,.065v2.047c0,.541-.424,.985-.959,1.02l-.067,.002h-9.453v7.206h11.249c.543,0,.989,.423,1.024,.955l.002,.067v2.011c0,.541-.424,.985-.959,1.02l-.067,.002h-14.657c-.543,0-.989-.423-1.024-.955l-.002-.067V1.194c0-.541,.424-.985,.959-1.02l.067-.002h14.657Z"/><path class="d" d="M55.996,15.906l.157-.071c3.181-1.468,5.134-4.304,5.134-7.512C61.287,3.828,57.556,.172,52.969,.172h-9.967l-.067,.002c-.534,.035-.959,.479-.959,1.02V25.397l.002,.067c.035,.532,.481,.955,1.024,.955h2.382l.065-.002c.519-.036,.961-.497,.961-1.02v-8.996h4.998l4.782,9.508,.026,.046c.14,.231,.454,.464,.856,.464h2.858l.078-.002c.358-.022,.657-.194,.83-.479,.189-.312,.191-.718,.006-1.061l-4.849-8.971Zm-3.319-3.304h-6.192V4.373h6.192c2.244,0,4.14,1.842,4.14,4.023,0,2.28-1.896,4.206-4.14,4.206Z"/></g></svg>