<?xml version="1.0" encoding="UTF-8"?>
<svg id="katman_1" data-name="katman 1" xmlns="http://www.w3.org/2000/svg" width="300" height="100" xmlns:xlink="http://www.w3.org/1999/xlink" viewBox="0 0 300 100">
  <defs>
    <style>
      .cls-1 {
        fill: url(#Adsız_degrade_2);
      }

      .cls-2 {
        fill: #fff;
        fill-rule: evenodd;
      }
    </style>
    <linearGradient id="Adsız_degrade_2" data-name="Adsız degrade 2" x1="135.9" y1="51.89" x2="239" y2="51.89" gradientTransform="translate(0 102) scale(1 -1)" gradientUnits="userSpaceOnUse">
      <stop offset="0" stop-color="#68d7fa"/>
      <stop offset="1" stop-color="#7ef1b3"/>
    </linearGradient>
  </defs>
  <path class="cls-1" d="M135.94,43.38c-.12-.27,.04-.54,.35-.54h.83c.19,0,.31,.12,.35,.23l5.17,11.63h.08l5.17-11.63c.04-.1,.19-.23,.35-.23h.83c.31,0,.48,.27,.35,.54l-6.32,13.98c-.06,.12-.19,.23-.35,.23h-.21c-.14,0-.29-.1-.35-.23l-6.28-13.98Zm15.77-.14c0-.21,.17-.39,.4-.39h8.19c.23,0,.39,.19,.39,.39v.6c0,.21-.17,.39-.39,.39h-6.98v5.07h5.96c.21,0,.4,.19,.4,.39v.6c0,.23-.19,.39-.4,.39h-5.96v5.3h6.98c.23,0,.39,.19,.39,.39v.6c0,.21-.17,.39-.39,.39h-8.19c-.23,0-.4-.19-.4-.39v-13.75Zm12.3-.23c0-.21,.19-.37,.4-.37h.52l9.37,11.68h.04v-11.07c0-.21,.17-.39,.4-.39h.73c.21,0,.4,.19,.4,.39v13.98c0,.21-.19,.37-.4,.37h-.37l-9.54-11.9h-.02v11.3c0,.21-.17,.39-.4,.39h-.73c-.21,0-.4-.19-.4-.39v-13.98h0Zm18.14,1.23h-3.62c-.23,0-.39-.19-.39-.39v-.6c0-.21,.17-.39,.39-.39h8.81c.23,0,.39,.19,.39,.39v.6c0,.21-.17,.39-.39,.39h-3.62v12.76c0,.21-.19,.39-.4,.39h-.79c-.21,0-.39-.19-.39-.39v-12.76h0Zm7.69-1c0-.21,.19-.39,.4-.39h.79c.23,0,.4,.19,.4,.39v8.66c0,2.37,1.47,4.22,3.91,4.22s3.95-1.81,3.95-4.18v-8.71c0-.21,.17-.39,.39-.39h.79c.21,0,.4,.19,.4,.39v8.79c0,3.16-2.24,5.57-5.53,5.57s-5.49-2.41-5.49-5.57v-8.79Zm15.06,0c0-.21,.17-.39,.4-.39h5.38c2.49,0,4.53,1.95,4.53,4.42,0,1.91-1.27,3.51-3.08,4.24l2.85,5.28c.14,.27,0,.6-.35,.6h-1.06c-.19,0-.29-.1-.33-.19l-2.76-5.51h-3.97v5.3c0,.21-.19,.39-.4,.39h-.81c-.23,0-.4-.19-.4-.39v-13.75Zm5.67,7.08c1.6,0,2.99-1.33,2.99-3.03,0-1.58-1.39-2.93-2.99-2.93h-4.03v5.96h4.03Zm8.06-7.08c0-.21,.17-.39,.4-.39h8.19c.23,0,.39,.19,.39,.39v.6c0,.21-.17,.39-.39,.39h-6.98v5.07h5.96c.21,0,.4,.19,.4,.39v.6c0,.23-.19,.39-.4,.39h-5.96v5.3h6.98c.23,0,.39,.19,.39,.39v.6c0,.21-.17,.39-.39,.39h-8.19c-.23,0-.4-.19-.4-.39v-13.75Zm11.37,11.97c.1-.13,.21-.27,.31-.39,.21-.27,.44-.44,.73-.19,.14,.12,1.66,1.58,3.51,1.58,1.68,0,2.78-1.06,2.78-2.29,0-1.43-1.25-2.28-3.64-3.28-2.29-1-3.66-1.93-3.66-4.3,0-1.41,1.12-3.7,4.43-3.7,2.04,0,3.55,1.06,3.55,1.06,.12,.06,.37,.31,.12,.71-.08,.12-.17,.27-.25,.39-.19,.29-.4,.37-.73,.19-.14-.08-1.45-.96-2.72-.96-2.2,0-2.87,1.41-2.87,2.28,0,1.39,1.06,2.2,2.8,2.93,2.81,1.14,4.61,2.2,4.61,4.61,0,2.16-2.06,3.74-4.49,3.74s-4.11-1.43-4.38-1.68c-.17-.14-.37-.31-.12-.71Z"/>
  <g>
    <path class="cls-2" d="M68.21,42.67c1.93,0,3.48,.59,5.01,1.92,.13,.11,.2,.26,.2,.41,0,.14-.05,.27-.14,.38l-.03,.03-.88,.9c-.12,.15-.26,.19-.35,.2-.1,0-.26-.02-.42-.19-.93-.81-2.19-1.3-3.37-1.3-2.7,0-4.89,2.27-4.89,5.06s2.2,5.04,4.91,5.04c1.48,0,2.49-.62,3.36-1.29,.22-.17,.48-.18,.68-.04l.03,.03,.94,.92c.09,.08,.15,.21,.16,.35,0,.16-.06,.33-.18,.45-1.36,1.31-3.1,2.01-5.04,2.01-4.12,0-7.47-3.33-7.47-7.42s3.35-7.46,7.47-7.46h0Z"/>
    <path class="cls-2" d="M104.75,42.67c1.93,0,3.47,.59,5.01,1.92,.13,.11,.2,.26,.2,.41,0,.14-.05,.27-.14,.38l-.03,.03-.88,.9c-.12,.15-.26,.19-.35,.2-.1,0-.26-.02-.42-.19-.93-.81-2.19-1.3-3.37-1.3-2.7,0-4.89,2.27-4.89,5.06s2.2,5.04,4.91,5.04c1.48,0,2.49-.62,3.36-1.29,.22-.17,.48-.18,.68-.04l.03,.03,.94,.92c.09,.08,.15,.21,.16,.35,0,.16-.06,.33-.18,.45-1.36,1.31-3.1,2.01-5.04,2.01-4.12,0-7.47-3.33-7.47-7.42s3.35-7.46,7.47-7.46h0Z"/>
    <path class="cls-2" d="M78.73,42.87c.29,0,.54,.24,.56,.53v13.38c0,.29-.24,.54-.53,.56h-1.37c-.29,0-.54-.24-.56-.53v-13.38c0-.29,.24-.54,.53-.56h1.37Z"/>
    <path class="cls-2" d="M115.27,42.87c.29,0,.54,.24,.56,.53v11.71h5.29c.3,0,.55,.23,.56,.53v1.15c0,.3-.23,.54-.53,.56h-7.23c-.3,0-.55-.23-.56-.53v-13.38c0-.3,.23-.54,.53-.56h1.37Z"/>
    <path class="cls-2" d="M133.11,42.87c.3,0,.55,.23,.56,.53v1.17c0,.3-.23,.54-.53,.56h-6.24v3.75h5.21c.29,0,.54,.24,.56,.53v1.16c0,.3-.23,.54-.53,.56h-5.25v3.97h6.2c.3,0,.55,.23,.56,.53v1.15c0,.3-.23,.54-.53,.56h-8.12c-.3,0-.55-.23-.56-.53v-13.38c0-.3,.23-.54,.53-.56h8.12Z"/>
    <path class="cls-2" d="M91.59,51.55l.09-.04c1.75-.81,2.83-2.37,2.83-4.14,0-2.48-2.06-4.49-4.59-4.49h-5.53c-.29,.02-.53,.27-.53,.56v13.38c.02,.29,.27,.53,.57,.53h1.35c.29-.02,.53-.28,.53-.56v-4.96h2.76l2.64,5.24v.03c.09,.13,.26,.26,.49,.26h1.62c.2-.01,.36-.11,.46-.27,.1-.17,.11-.4,0-.58l-2.67-4.95h0Zm-1.83-1.82h-3.41v-4.54h3.41c1.24,0,2.28,1.02,2.28,2.22s-1.05,2.32-2.28,2.32Z"/>
  </g>
</svg>