<?xml version="1.0" encoding="UTF-8"?>
<svg id="katman_1" data-name="katman 1" xmlns="http://www.w3.org/2000/svg" viewBox="0 0 300 100">
  <defs>
    <style>
      .cls-1 {
        fill: #0152ff;
      }

      .cls-2 {
        fill: #b1bed4;
      }

      .cls-3 {
        fill: #292f3a;
      }
    </style>
  </defs>
  <path class="cls-1" d="M84.28,53.55c.3,.6,.6,1.2,1.1,1.7-1,.5-1.9,.8-3,.8-3.2,0-5.6-2.2-5.6-5.6s2.5-5.6,5.6-5.6c1.1,0,2,.2,2.9,.7-.4,.5-.8,1.1-1,1.7-.6-.3-1.2-.4-1.7-.4-1.9,0-3.4,1.3-3.4,3.5s1.4,3.5,3.5,3.5c.6,.1,1.1,0,1.6-.3Zm6.5-8.8c3.2,0,5.5,2.3,5.5,5.6s-2.3,5.6-5.5,5.6-5.4-2.3-5.4-5.6,2.3-5.6,5.4-5.6Zm0,2.1c-1.8,0-3.1,1.4-3.1,3.6s1.3,3.6,3.1,3.6,3.1-1.4,3.1-3.6-1.2-3.6-3.1-3.6Zm7,8.9v-10.8h2.4v10.8h-2.4Zm-.3-14c0-.8,.7-1.5,1.5-1.5s1.5,.7,1.5,1.5c0,.9-.7,1.5-1.5,1.5s-1.5-.7-1.5-1.5Zm4.8,3.9c1.5-.6,3.3-.9,4.9-.9,2.7,0,4.4,1.1,4.4,4.1v6.9h-2.4v-6.7c0-1.5-1-2.1-2.3-2.1-.8,0-1.7,.1-2.3,.3v8.5h-2.4l.1-10.1h0Zm11.2-6.4h2.4v6.1c.5-.3,1.5-.6,2.4-.6,3.1,0,5.4,2,5.4,5.4s-2.3,5.8-6.2,5.8c-1.5,0-2.9-.3-4-.7v-16h0Zm2.4,14.5c.5,.1,1.1,.2,1.6,.2,2.2,0,3.7-1.2,3.7-3.7,0-2.1-1.5-3.3-3.3-3.3-.9,0-1.6,.2-2.1,.5l.1,6.3h0Zm14.6-5.2c0-1.2-.9-1.7-2-1.7-1.2,0-2.2,.4-3.1,.9v-2.1c.9-.6,2.2-.9,3.5-.9,2.3,0,4,1,4,3.7v7.1c-1,.3-2.4,.4-3.6,.4-2.7,0-4.8-.9-4.8-3.3,0-2.2,1.8-3.3,4.9-3.3h1.2v-.8h-.1Zm0,2.5h-1c-1.6,0-2.7,.5-2.7,1.6s1,1.5,2.5,1.5c.4,0,.9,0,1.3-.1l-.1-3Zm4.1,1.8c1,.8,2.2,1.2,3.2,1.2,1.1,0,1.7-.4,1.7-1.2,0-.9-.6-1.2-2-1.5-2.2-.5-3.1-1.4-3.1-3.3,0-2.2,1.6-3.3,3.8-3.3,1.2,0,2.2,.3,3,.8v2.2c-.9-.7-1.8-1.1-3-1.1-1,0-1.6,.5-1.6,1.2s.5,1.1,1.7,1.4c2.4,.5,3.5,1.4,3.5,3.4,0,2.3-1.7,3.3-4,3.3-1.3,0-2.5-.3-3.3-.9l.1-2.2h0Zm10.5-1.9h0c.1,2,1.8,3,3.4,3,1.5,0,2.5-.3,3.6-1.1v2.2c-1,.7-2.4,1-3.7,1-3.3,0-5.5-2.1-5.5-5.5s2.2-5.7,5.1-5.7c3.1,0,4.5,2,4.5,5v1.2h-7.4v-.1Zm5.2-1.6c0-1.7-.9-2.6-2.4-2.6-1.4,0-2.4,1-2.7,2.6h5.1Z"/>
  <path class="cls-2" d="M160.88,38.75h.2c.2,0,.4,.2,.4,.4v22.1c0,.2-.2,.4-.4,.4h-.2c-.2,0-.4-.2-.4-.4v-22.1c0-.2,.2-.4,.4-.4Z"/>
  <path class="cls-3" d="M174.58,55.75h-1.3l-4.1-10.8h1.2l3.6,9.7,3.6-9.7h1.2l-4.2,10.8Zm10.6-3.9h-5.9c0,2,1.4,3.1,2.9,3.1,1.1,0,1.9-.3,2.7-.9v1.1c-.7,.5-1.7,.8-2.7,.8-2.3,0-4-1.6-4-4.2,0-2.4,1.6-4.2,3.7-4.2s3.3,1.2,3.3,3.5v.8Zm-5.8-.9h4.8c-.1-1.7-1-2.3-2.3-2.3-1.2,0-2.2,.8-2.5,2.3Zm7,4.8v-7.6c1-.4,2.2-.6,3.3-.6,2,0,3.2,.8,3.2,2.8v5.4h-1.1v-5.2c0-1.6-1.1-2-2.2-2-.8,0-1.5,.1-2.1,.3v6.8l-1.1,.1h0Zm7.1-7v-.9h1.2v-2h1.1v1.9h2.2v.9h-2.2v4.9c0,1,.4,1.4,1.1,1.4,.5,0,.9-.2,1.4-.4v1c-.5,.2-1,.4-1.7,.4-1.1,0-2-.6-2-2.3v-5l-1.1,.1h0Zm11.9-.9v7.9c-1,.2-1.9,.3-2.7,.3-2.3,0-3.5-.8-3.5-2.8v-5.4h1.1v5.3c0,1.5,1.2,1.9,2.4,1.9,.5,0,1.2,0,1.7-.1v-7.1h1Zm2.9,1.3v6.7h-1.1v-7.2c.8-.5,1.8-.9,2.9-.9,.4,0,.9,0,1.3,.2v1.1c-.5-.2-1-.2-1.4-.2-.7-.1-1.3,0-1.7,.3Zm10,2.7h-5.9c0,2,1.4,3.1,2.9,3.1,1.1,0,1.9-.3,2.7-.9v1.1c-.7,.5-1.7,.8-2.7,.8-2.3,0-4-1.6-4-4.2,0-2.4,1.6-4.2,3.7-4.2s3.3,1.2,3.3,3.5v.8h0Zm-5.8-.9h4.8c-.1-1.7-1-2.3-2.3-2.3-1.2,0-2.2,.8-2.5,2.3Zm6.7,4.4v-1.3c.7,.6,1.3,1,2.2,1,1,0,1.6-.4,1.6-1.3,0-1-.7-1.2-1.9-1.6-1.4-.5-2-1.1-2-2.3,0-1.4,1-2.2,2.5-2.2,.8,0,1.5,.2,2.1,.6v1.2c-.6-.5-1.2-.9-2.1-.9s-1.4,.5-1.4,1.2,.4,1.1,1.6,1.5c1.4,.4,2.3,1,2.3,2.4,0,1.6-1.2,2.3-2.6,2.3-1,0-1.8-.2-2.3-.6h0Z"/>
</svg>