<?xml version="1.0" encoding="utf-8"?>
<!-- Generator: Adobe Illustrator 26.3.1, SVG Export Plug-In . SVG Version: 6.00 Build 0)  -->
<svg version="1.1" id="katman_1" xmlns="http://www.w3.org/2000/svg" xmlns:xlink="http://www.w3.org/1999/xlink" x="0px" y="0px"
	 viewBox="0 0 148 24" style="enable-background:new 0 0 148 24;" xml:space="preserve">
<style type="text/css">
	.st0{fill:#0152FF;}
	.st1{fill:#B1BED4;}
	.st2{fill:#292F3A;}
</style>
<path class="st0" d="M8,15.5c0.3,0.6,0.6,1.2,1.1,1.7c-1,0.5-1.9,0.8-3,0.8c-3.2,0-5.6-2.2-5.6-5.6c0-3.5,2.5-5.6,5.6-5.6
	c1.1,0,2,0.2,2.9,0.7c-0.4,0.5-0.8,1.1-1,1.7C7.4,8.9,6.8,8.8,6.3,8.8c-1.9,0-3.4,1.3-3.4,3.5c0,2.1,1.4,3.5,3.5,3.5
	C7,15.9,7.5,15.8,8,15.5z M14.5,6.7c3.2,0,5.5,2.3,5.5,5.6c0,3.3-2.3,5.6-5.5,5.6c-3.2,0-5.4-2.3-5.4-5.6C9.1,9,11.4,6.7,14.5,6.7z
	 M14.5,8.8c-1.8,0-3.1,1.4-3.1,3.6c0,2.2,1.3,3.6,3.1,3.6c1.8,0,3.1-1.4,3.1-3.6C17.6,10.2,16.4,8.8,14.5,8.8z M21.5,17.7V6.9h2.4
	v10.8H21.5z M21.2,3.7c0-0.8,0.7-1.5,1.5-1.5c0.8,0,1.5,0.7,1.5,1.5c0,0.9-0.7,1.5-1.5,1.5C21.9,5.2,21.2,4.5,21.2,3.7z M26,7.6
	c1.5-0.6,3.3-0.9,4.9-0.9c2.7,0,4.4,1.1,4.4,4.1v6.9h-2.4V11c0-1.5-1-2.1-2.3-2.1c-0.8,0-1.7,0.1-2.3,0.3v8.5h-2.4L26,7.6L26,7.6z
	 M37.2,1.2h2.4v6.1C40.1,7,41.1,6.7,42,6.7c3.1,0,5.4,2,5.4,5.4c0,3.5-2.3,5.8-6.2,5.8c-1.5,0-2.9-0.3-4-0.7L37.2,1.2L37.2,1.2z
	 M39.6,15.7c0.5,0.1,1.1,0.2,1.6,0.2c2.2,0,3.7-1.2,3.7-3.7c0-2.1-1.5-3.3-3.3-3.3c-0.9,0-1.6,0.2-2.1,0.5L39.6,15.7L39.6,15.7z
	 M54.2,10.5c0-1.2-0.9-1.7-2-1.7c-1.2,0-2.2,0.4-3.1,0.9V7.6C50,7,51.3,6.7,52.6,6.7c2.3,0,4,1,4,3.7v7.1c-1,0.3-2.4,0.4-3.6,0.4
	c-2.7,0-4.8-0.9-4.8-3.3c0-2.2,1.8-3.3,4.9-3.3h1.2V10.5L54.2,10.5z M54.2,13h-1c-1.6,0-2.7,0.5-2.7,1.6c0,1.1,1,1.5,2.5,1.5
	c0.4,0,0.9,0,1.3-0.1L54.2,13z M58.3,14.8c1,0.8,2.2,1.2,3.2,1.2c1.1,0,1.7-0.4,1.7-1.2c0-0.9-0.6-1.2-2-1.5
	c-2.2-0.5-3.1-1.4-3.1-3.3c0-2.2,1.6-3.3,3.8-3.3c1.2,0,2.2,0.3,3,0.8v2.2c-0.9-0.7-1.8-1.1-3-1.1c-1,0-1.6,0.5-1.6,1.2
	c0,0.7,0.5,1.1,1.7,1.4c2.4,0.5,3.5,1.4,3.5,3.4c0,2.3-1.7,3.3-4,3.3c-1.3,0-2.5-0.3-3.3-0.9L58.3,14.8L58.3,14.8z M68.8,12.9
	L68.8,12.9c0.1,2,1.8,3,3.4,3c1.5,0,2.5-0.3,3.6-1.1V17c-1,0.7-2.4,1-3.7,1c-3.3,0-5.5-2.1-5.5-5.5c0-3.4,2.2-5.7,5.1-5.7
	c3.1,0,4.5,2,4.5,5v1.2H68.8z M74,11.3c0-1.7-0.9-2.6-2.4-2.6c-1.4,0-2.4,1-2.7,2.6H74z"/>
<path class="st1" d="M84.6,0.7h0.2c0.2,0,0.4,0.2,0.4,0.4v22.1c0,0.2-0.2,0.4-0.4,0.4h-0.2c-0.2,0-0.4-0.2-0.4-0.4V1.1
	C84.2,0.9,84.4,0.7,84.6,0.7z"/>
<path class="st2" d="M98.3,17.7H97L92.9,6.9h1.2l3.6,9.7l3.6-9.7h1.2L98.3,17.7z M108.9,13.8H103v0c0,2,1.4,3.1,2.9,3.1
	c1.1,0,1.9-0.3,2.7-0.9v1.1c-0.7,0.5-1.7,0.8-2.7,0.8c-2.3,0-4-1.6-4-4.2c0-2.4,1.6-4.2,3.7-4.2c2,0,3.3,1.2,3.3,3.5V13.8z
	 M103.1,12.9h4.8c-0.1-1.7-1-2.3-2.3-2.3C104.4,10.6,103.4,11.4,103.1,12.9z M110.1,17.7v-7.6c1-0.4,2.2-0.6,3.3-0.6
	c2,0,3.2,0.8,3.2,2.8v5.4h-1.1v-5.2c0-1.6-1.1-2-2.2-2c-0.8,0-1.5,0.1-2.1,0.3v6.8L110.1,17.7L110.1,17.7z M117.2,10.7V9.8h1.2V7.8
	h1.1v1.9h2.2v0.9h-2.2v4.9c0,1,0.4,1.4,1.1,1.4c0.5,0,0.9-0.2,1.4-0.4v1c-0.5,0.2-1,0.4-1.7,0.4c-1.1,0-2-0.6-2-2.3v-5L117.2,10.7
	L117.2,10.7z M129.1,9.8v7.9c-1,0.2-1.9,0.3-2.7,0.3c-2.3,0-3.5-0.8-3.5-2.8V9.8h1.1v5.3c0,1.5,1.2,1.9,2.4,1.9c0.5,0,1.2,0,1.7-0.1
	V9.8L129.1,9.8L129.1,9.8z M132,11.1v6.7h-1.1v-7.2c0.8-0.5,1.8-0.9,2.9-0.9c0.4,0,0.9,0,1.3,0.2v1.1c-0.5-0.2-1-0.2-1.4-0.2
	C133,10.7,132.4,10.8,132,11.1z M142,13.8h-5.9v0c0,2,1.4,3.1,2.9,3.1c1.1,0,1.9-0.3,2.7-0.9v1.1c-0.7,0.5-1.7,0.8-2.7,0.8
	c-2.3,0-4-1.6-4-4.2c0-2.4,1.6-4.2,3.7-4.2c2,0,3.3,1.2,3.3,3.5V13.8L142,13.8z M136.2,12.9h4.8c-0.1-1.7-1-2.3-2.3-2.3
	C137.5,10.6,136.5,11.4,136.2,12.9z M142.9,17.3V16c0.7,0.6,1.3,1,2.2,1c1,0,1.6-0.4,1.6-1.3c0-1-0.7-1.2-1.9-1.6
	c-1.4-0.5-2-1.1-2-2.3c0-1.4,1-2.2,2.5-2.2c0.8,0,1.5,0.2,2.1,0.6v1.2c-0.6-0.5-1.2-0.9-2.1-0.9c-0.9,0-1.4,0.5-1.4,1.2
	c0,0.7,0.4,1.1,1.6,1.5c1.4,0.4,2.3,1,2.3,2.4c0,1.6-1.2,2.3-2.6,2.3C144.2,17.9,143.4,17.7,142.9,17.3z"/>
</svg>
