<?xml version="1.0" encoding="utf-8"?>
<!-- Generator: Adobe Illustrator 26.3.1, SVG Export Plug-In . SVG Version: 6.00 Build 0)  -->
<svg version="1.1" id="katman_1" xmlns="http://www.w3.org/2000/svg" xmlns:xlink="http://www.w3.org/1999/xlink" x="0px" y="0px"
	 viewBox="0 0 300 100" style="enable-background:new 0 0 300 100;" xml:space="preserve">
<style type="text/css">
	.st0{fill:#FF931E;}
	.st1{fill:#032F42;}
</style>
<path class="st0" d="M121.1,49.1c0-1.6,0.5-2.9,1.4-3.8c0.9-0.9,2.2-1.4,3.7-1.4c0.6,0,1.2,0.1,1.9,0.2c0.8,0.1,1.6,0.3,2.3,0.7
	v-7.1h3.1v20.8h-2.8l-0.3-1.4c-0.8,0.5-1.7,0.9-2.6,1.2c-0.6,0.2-1.2,0.3-1.8,0.3c-1.5,0-2.7-0.4-3.6-1.3c-0.9-0.8-1.3-2.2-1.3-3.9
	L121.1,49.1z M124.3,53.2c0,1,0.2,1.6,0.6,2c0.5,0.4,1,0.6,1.6,0.5c0.3,0,0.6,0,0.9-0.1c0.3-0.1,0.7-0.2,1-0.3
	c0.4-0.1,0.7-0.3,1.1-0.5c0.3-0.2,0.7-0.4,1-0.6v-6.6c-0.6-0.3-1.3-0.5-1.9-0.6c-0.6-0.1-1.2-0.2-1.7-0.2c-0.6,0-1.3,0.2-1.8,0.6
	c-0.5,0.4-0.7,1.1-0.7,2.1V53.2z"/>
<path class="st0" d="M147.5,56.6c-0.7,0.7-1.6,1.3-2.5,1.6c-0.9,0.2-1.8,0.4-2.7,0.4c-0.8,0-1.6-0.1-2.3-0.3c-0.7-0.2-1.3-0.6-1.9-1
	c-0.5-0.4-1-1-1.3-1.6c-0.3-0.7-0.5-1.4-0.5-2.2v-4.3c0-0.7,0.1-1.5,0.5-2.2c0.3-0.7,0.8-1.3,1.4-1.8c0.6-0.5,1.2-0.8,1.9-1
	c0.7-0.2,1.4-0.3,2.2-0.3c0.4,0,0.9,0,1.3,0.1c0.5,0,0.9,0.1,1.3,0.3c0.5,0.1,0.9,0.3,1.3,0.6c0.5,0.3,0.9,0.6,1.2,1l-1.8,2.3
	c-0.5-0.5-1.1-0.9-1.8-1.1c-0.4-0.1-0.9-0.2-1.4-0.2c-0.4,0-0.7,0.1-1,0.2c-0.4,0.1-0.7,0.3-1,0.5c-0.3,0.3-0.5,0.6-0.7,0.9
	c-0.2,0.4-0.3,0.9-0.3,1.4v3.1c0,0.5,0.1,0.9,0.3,1.4c0.1,0.4,0.4,0.7,0.7,0.9c0.3,0.2,0.6,0.4,0.9,0.5c0.4,0.1,0.7,0.2,1.1,0.2
	c0.5,0,1-0.1,1.5-0.3c0.6-0.2,1.2-0.5,1.6-0.9L147.5,56.6z"/>
<path class="st1" d="M164.3,52.8c0,0.9-0.2,1.7-0.6,2.5c-0.4,0.7-0.9,1.3-1.6,1.8c-0.7,0.5-1.5,0.9-2.4,1.1c-1,0.3-2,0.4-3,0.4
	c-1.4,0-2.8-0.2-4.1-0.6c-1.4-0.4-2.6-1.1-3.7-2l1.9-2.4c0.9,0.6,1.8,1.1,2.8,1.5c1,0.4,2,0.5,3,0.5c1.3,0,2.3-0.3,3-0.8
	c0.3-0.2,0.6-0.5,0.7-0.9c0.2-0.4,0.3-0.7,0.3-1.1c0-0.5-0.1-1-0.4-1.4c-0.3-0.4-0.7-0.7-1.1-0.9c-0.5-0.2-1-0.4-1.6-0.6
	c-0.6-0.1-1.2-0.3-1.8-0.4c-0.8-0.2-1.6-0.4-2.3-0.7c-0.7-0.2-1.4-0.6-2-1.1c-0.6-0.4-1-1-1.4-1.6c-0.4-0.7-0.5-1.5-0.5-2.3
	c0-0.8,0.2-1.6,0.5-2.4c0.3-0.7,0.8-1.3,1.4-1.9c0.6-0.5,1.4-1,2.1-1.2c0.9-0.3,1.8-0.5,2.8-0.5c1.2,0,2.4,0.1,3.6,0.4
	c1.2,0.2,2.4,0.7,3.4,1.4l-1.5,2.7c-0.8-0.5-1.8-0.9-2.7-1.1c-0.9-0.2-1.8-0.3-2.7-0.3c-0.5,0-0.9,0.1-1.4,0.2
	c-0.4,0.1-0.8,0.3-1.1,0.5c-0.3,0.2-0.6,0.5-0.8,0.9c-0.2,0.4-0.3,0.8-0.3,1.3c0,0.4,0.1,0.9,0.4,1.2c0.3,0.3,0.6,0.6,1,0.8
	c0.5,0.2,1,0.4,1.5,0.6c0.5,0.1,1.1,0.3,1.7,0.4c0.9,0.2,1.8,0.4,2.7,0.8c0.8,0.3,1.5,0.6,2.1,1.1c0.6,0.4,1,1,1.4,1.6
	C164.1,51.1,164.3,52,164.3,52.8z"/>
<path class="st1" d="M179.2,53.4c0,1.6-0.4,2.9-1.3,3.8c-0.9,0.9-2.2,1.4-3.8,1.4c-0.6,0-1.2-0.1-1.8-0.1c-0.8-0.1-1.6-0.4-2.3-0.7
	v6.5h-3.1V44.1h2.8l0.3,1.4c0.8-0.5,1.7-0.9,2.6-1.2c0.6-0.2,1.2-0.3,1.8-0.3c1.5,0,2.7,0.4,3.6,1.3c0.9,0.8,1.3,2.2,1.3,3.9
	L179.2,53.4z M176,49.4c0-1-0.2-1.6-0.6-2c-0.5-0.4-1-0.6-1.6-0.5c-0.3,0-0.6,0-0.9,0.1c-0.3,0.1-0.7,0.2-1,0.3
	c-0.4,0.1-0.7,0.3-1.1,0.5c-0.3,0.2-0.7,0.3-1,0.6v6.6c0.7,0.3,1.3,0.5,2,0.7c0.5,0.1,1.1,0.2,1.6,0.2c0.3,0,0.6,0,1-0.1
	c0.3-0.1,0.6-0.2,0.8-0.4c0.2-0.2,0.4-0.5,0.5-0.8c0.1-0.4,0.2-0.8,0.2-1.2V49.4z"/>
<path class="st1" d="M191,57.1c-0.8,0.5-1.7,0.9-2.7,1.1c-0.7,0.2-1.3,0.3-2,0.3c-1.5,0-2.6-0.4-3.4-1.2c-0.8-0.8-1.2-1.8-1.2-3.2
	c0-0.7,0.2-1.4,0.5-2c0.3-0.5,0.8-1,1.3-1.3c0.5-0.3,1.1-0.6,1.7-0.7c0.6-0.1,1.1-0.2,1.7-0.2h4.1V49c0-0.9-0.2-1.5-0.7-1.8
	s-1.3-0.6-2.3-0.6c-0.6,0-1.2,0.1-1.8,0.2c-0.8,0.2-1.6,0.6-2.2,1.1l-1.5-2.3c0.9-0.7,1.9-1.2,3-1.4c0.9-0.2,1.8-0.3,2.8-0.3
	c2,0,3.5,0.4,4.5,1.3c0.9,0.9,1.4,2.2,1.4,4v9.3h-2.8L191,57.1L191,57.1z M191,52.3h-3.5c-0.3,0-0.6,0-0.9,0.1
	c-0.3,0-0.6,0.1-0.8,0.2c-0.2,0.1-0.5,0.3-0.6,0.5c-0.2,0.3-0.3,0.6-0.3,1c0,0.2,0,0.5,0.1,0.7c0.1,0.2,0.3,0.4,0.5,0.6
	c0.5,0.3,1,0.5,1.6,0.4c0.4,0,0.7,0,1.1-0.1c0.4-0.1,0.7-0.2,1.1-0.3c0.3-0.1,0.7-0.3,1-0.4c0.3-0.2,0.6-0.3,0.8-0.4L191,52.3z"/>
<path class="st1" d="M205.9,47.1c-1.1,0.1-2.2,0.3-3.2,0.6c-0.7,0.3-1.5,0.6-2.1,1v9.7h-3.1V44h2.8l0.3,2.1h0c0.3-0.3,0.6-0.6,1-0.8
	c0.4-0.3,0.9-0.5,1.3-0.7c0.5-0.2,1-0.4,1.5-0.6c0.5-0.1,1-0.2,1.6-0.2L205.9,47.1z"/>
<path class="st1" d="M207.5,58.4V37.6h3.1v11h1.7c0.5,0,1.1-0.1,1.5-0.3c0.5-0.3,0.9-0.8,1.2-1.4l1.5-2.9h3.5l-1.8,3.6
	c-0.2,0.5-0.5,1-0.9,1.4c-0.4,0.4-0.8,0.7-1.3,0.9c0.4,0.1,0.7,0.3,1,0.5c0.3,0.2,0.5,0.5,0.7,0.7c0.2,0.3,0.3,0.6,0.4,0.9
	c0.1,0.3,0.2,0.6,0.3,0.9l1.8,5.4h-3.5l-1.5-4.6c-0.3-0.9-0.6-1.4-1-1.7c-0.5-0.3-1.2-0.5-1.8-0.5h-1.9v6.9L207.5,58.4z"/>
<path class="st1" d="M93.6,36.2v11.2l-10.3-4.7l-1.4,3l-1.4,3l8.5,3.9l-8.5,3.9l1.4,3l1.4,3l10.3-4.7l3.4-1.6l3.4-1.6V36.2H93.6z"/>
<path class="st0" d="M113.7,48.7l-2.9-6.1l-10.3,4.7v6.8v0.6l-3.4,1.6h0l3.4,1.6v0l10.3,4.7l1.4-3l1.4-3l-8.5-3.9L113.7,48.7z"/>
</svg>
