<?xml version="1.0" encoding="UTF-8"?>
<svg id="katman_1" data-name="katman 1" xmlns="http://www.w3.org/2000/svg" width="300" height="100" viewBox="0 0 300 100">
  <defs>
    <style>
      .cls-1 {
        fill: #fff;
      }

      .cls-2 {
        fill: #e92126;
        fill-rule: evenodd;
      }
    </style>
  </defs>
  <path class="cls-1" d="M34.16,46.63v2.62h4.56v2.19h-4.56v4.47h-2.78v-11.56h8.52v2.28h-5.74Zm23.79,7v2.28h-7.59v-11.56h2.78v9.28h4.81Zm11.3,.59c-.84-1.18-1.27-2.7-1.27-4.13,0-3.04,1.6-5.91,5.15-5.91,1.6,0,2.87,.51,3.8,1.77,.84,1.1,1.27,2.78,1.27,4.13s-.34,2.95-1.1,3.97c-.93,1.35-2.36,1.94-3.97,1.94-1.6,.08-2.95-.51-3.88-1.77m2.02-6.5c-.25,.67-.34,1.69-.34,2.36,0,1.43,.25,3.71,2.19,3.71,.93,0,1.43-.42,1.77-1.35,.25-.59,.34-1.6,.34-2.36,0-.84-.08-1.86-.42-2.62s-.84-1.1-1.69-1.1c-1.01,0-1.52,.51-1.86,1.35m31.22,8.18h-2.78l-1.94-7.59h0l-1.86,7.59h-2.7l-3.12-11.56h2.87l1.86,7.76h0l1.94-7.76h2.53l2.02,7.76h0l.08-.51,1.77-7.26h2.28l-2.95,11.56Zm48.51,0h-1.52v-10.29h-3.37v-1.27h8.27v1.27h-3.37v10.29Zm20.59,0l-2.19-4.98h-3.29v4.98h-1.52v-11.56h4.47c1.01,0,1.94,.08,2.7,.67,.76,.59,1.27,1.52,1.27,2.53,0,1.35-.84,2.62-2.19,2.95l2.36,5.31h-1.6v.08Zm-2.7-6.16c.76,0,1.43-.08,2.02-.67,.42-.42,.59-.93,.59-1.52,0-.67-.25-1.27-.84-1.6-.51-.34-1.01-.34-1.69-.34h-2.95v4.13h2.87Zm23.71,6.16h-1.52l-1.18-3.37h-4.39l-1.1,3.37h-1.27l3.88-11.56h1.69l3.88,11.56h0Zm-4.89-10.04l-1.86,5.57h3.63l-1.77-5.57Zm16.03-1.52h3.8c1.69,0,2.95,.34,4.13,1.6,1.01,1.18,1.43,2.62,1.43,4.13,0,1.43-.42,2.78-1.27,3.97-.93,1.27-2.19,1.86-3.8,1.86h-4.22v-11.56h-.08Zm3.71,10.29c1.35,0,2.45-.34,3.29-1.43,.59-.84,.84-2.02,.84-3.12,0-1.18-.34-2.45-1.1-3.37-.84-1.01-1.77-1.18-3.04-1.18h-2.19v9.11h2.19Zm24.72,1.27h-7.68v-11.56h7.51v1.27h-6.07v3.63h4.81v1.18h-4.81v4.22h6.24v1.27Zm17.8,0l-2.19-4.98h-3.29v4.98h-1.52v-11.56h4.47c1.01,0,1.94,.08,2.7,.67,.76,.59,1.27,1.52,1.27,2.53,0,1.35-.84,2.62-2.19,2.95l2.36,5.31h-1.6v.08Zm-2.7-6.16c.76,0,1.43-.08,2.02-.67,.42-.42,.59-.93,.59-1.52,0-.67-.25-1.27-.84-1.6-.51-.34-1.01-.34-1.69-.34h-2.95v4.13h2.87Zm14.09,2.7c.51,1.6,1.86,2.36,3.54,2.36,.67,0,1.6-.17,2.11-.59,.42-.34,.76-.93,.76-1.52,0-1.18-1.01-1.6-2.02-1.86l-1.94-.51c-.76-.17-1.52-.34-2.19-.93-.59-.51-.93-1.35-.93-2.11,0-2.19,1.94-3.21,4.05-3.21s3.63,.93,4.22,2.78l-1.35,.34c-.25-1.27-1.69-2.02-2.95-2.02-1.1,0-2.53,.59-2.53,1.86s1.01,1.6,2.19,1.86l1.77,.42c.76,.17,1.6,.42,2.19,.93,.76,.59,1.1,1.35,1.1,2.28,0,1.01-.51,2.02-1.35,2.62-.84,.67-2.02,.84-3.12,.84-2.45,0-4.05-1.01-4.81-3.29l1.27-.25h0Z"/>
  <path class="cls-2" d="M131.77,55.99h-11.81v-11.81h11.81v11.81Z"/>
</svg>