<svg xmlns="http://www.w3.org/2000/svg" width="297" height="21" viewBox="0 0 297 21">
    <g fill="none" fill-rule="evenodd">
        <g>
            <path fill="#FFF" fill-rule="nonzero" d="M3.3 6L3.3 9.1 8.7 9.1 8.7 11.7 3.3 11.7 3.3 17 0 17 0 3.3 10.1 3.3 10.1 6zM31.5 14.3L31.5 17 22.5 17 22.5 3.3 25.8 3.3 25.8 14.3zM44.9 15c-1-1.4-1.5-3.2-1.5-4.9 0-3.6 1.9-7 6.1-7 1.9 0 3.4.6 4.5 2.1 1 1.3 1.5 3.3 1.5 4.9 0 1.6-.4 3.5-1.3 4.7-1.1 1.6-2.8 2.3-4.7 2.3-1.9.1-3.5-.6-4.6-2.1m2.4-7.7c-.3.8-.4 2-.4 2.8 0 1.7.3 4.4 2.6 4.4 1.1 0 1.7-.5 2.1-1.6.3-.7.4-1.9.4-2.8 0-1-.1-2.2-.5-3.1-.4-.9-1-1.3-2-1.3-1.2 0-1.8.6-2.2 1.6M84.3 17L81 17 78.7 8 78.7 8 76.5 17 73.3 17 69.6 3.3 73 3.3 75.2 12.5 75.2 12.5 77.5 3.3 80.5 3.3 82.9 12.5 82.9 12.5 83 11.9 85.1 3.3 87.8 3.3zM141.8 17L140 17 140 4.8 136 4.8 136 3.3 145.8 3.3 145.8 4.8 141.8 4.8zM166.2 17l-2.6-5.9h-3.9V17h-1.8V3.3h5.3c1.2 0 2.3.1 3.2.8.9.7 1.5 1.8 1.5 3 0 1.6-1 3.1-2.6 3.5l2.8 6.3h-1.9v.1zM163 9.7c.9 0 1.7-.1 2.4-.8.5-.5.7-1.1.7-1.8 0-.8-.3-1.5-1-1.9-.6-.4-1.2-.4-2-.4h-3.5v4.9h3.4zM191.1 17h-1.8l-1.4-4h-5.2l-1.3 4h-1.5l4.6-13.7h2l4.6 13.7zm-5.8-11.9l-2.2 6.6h4.3l-2.1-6.6zM204.3 3.3h4.5c2 0 3.5.4 4.9 1.9 1.2 1.4 1.7 3.1 1.7 4.9 0 1.7-.5 3.3-1.5 4.7-1.1 1.5-2.6 2.2-4.5 2.2h-5V3.3h-.1zm4.4 12.2c1.6 0 2.9-.4 3.9-1.7.7-1 1-2.4 1-3.7 0-1.4-.4-2.9-1.3-4-1-1.2-2.1-1.4-3.6-1.4h-2.6v10.8h2.6zM238 17L228.9 17 228.9 3.3 237.8 3.3 237.8 4.8 230.6 4.8 230.6 9.1 236.3 9.1 236.3 10.5 230.6 10.5 230.6 15.5 238 15.5 238 17zM259.1 17l-2.6-5.9h-3.9V17h-1.8V3.3h5.3c1.2 0 2.3.1 3.2.8.9.7 1.5 1.8 1.5 3 0 1.6-1 3.1-2.6 3.5l2.8 6.3h-1.9v.1zm-3.2-7.3c.9 0 1.7-.1 2.4-.8.5-.5.7-1.1.7-1.8 0-.8-.3-1.5-1-1.9-.6-.4-1.2-.4-2-.4h-3.5v4.9h3.4zM272.6 12.9c.6 1.9 2.2 2.8 4.2 2.8.8 0 1.9-.2 2.5-.7.5-.4.9-1.1.9-1.8 0-1.4-1.2-1.9-2.4-2.2l-2.3-.6c-.9-.2-1.8-.4-2.6-1.1-.7-.6-1.1-1.6-1.1-2.5 0-2.6 2.3-3.8 4.8-3.8 2.4 0 4.3 1.1 5 3.3l-1.6.4c-.3-1.5-2-2.4-3.5-2.4-1.3 0-3 .7-3 2.2 0 1.5 1.2 1.9 2.6 2.2l2.1.5c.9.2 1.9.5 2.6 1.1.9.7 1.3 1.6 1.3 2.7 0 1.2-.6 2.4-1.6 3.1-1 .8-2.4 1-3.7 1-2.9 0-4.8-1.2-5.7-3.9l1.5-.3z"/>
            <path fill="#E92126" d="M119 17.1L105 17.1 105 3.1 119 3.1z"/>
        </g>
    </g>
</svg>
