<?xml version="1.0" encoding="UTF-8"?><svg id="katman_1" xmlns="http://www.w3.org/2000/svg" viewBox="0 0 256 256"><defs><style>.cls-1{fill:#fff;}</style></defs><path class="cls-1" d="M12.61,180c0-34.35,0-68.7,0-103.05,77.13,0,154.26,0,231.39,0,0,34.35,0,68.7,0,103.05-77.13,0-154.26,0-231.39,0ZM124.56,79.16c-6.04,.46-16.08,.91-26.05,2.07-14.03,1.63-27.87,4.47-40.72,10.82-4.66,2.31-9.22,5.32-13.02,8.93-6.26,5.95-6.12,13.21-.05,19.39,2.62,2.66,5.72,4.98,8.95,6.78,4.11,2.29,8.48,4.21,12.91,5.75,18.82,6.53,38.3,8.74,58.04,9,22.49,.3,44.71-1.71,66.22-9.11,7.29-2.5,14.32-5.65,20.14-11.04,7.63-7.07,7.88-15.4-.09-22.04-4.77-3.97-10.38-7.24-16.08-9.56-21.26-8.65-43.67-10.49-70.24-10.99Zm49.94,97.79c3.37,.59,3.45,.59,3.48-2.19,.06-4.55-.02-9.09,.03-13.64,.03-2.77-1.3-2.88-3.53-2.07,0,1.34-.12,2.59,.03,3.81,.33,2.7-.69,3.53-3.29,3.5-2.43-.03-3.44-.77-3.15-3.33,.11-1.01,.16-2.09-.1-3.05-.15-.56-.99-1.33-1.45-1.29-.66,.06-1.8,.77-1.81,1.22-.12,5.75-.08,11.51-.08,17.11,2.45,.8,3.64,.33,3.47-2.16-.06-.9,.08-1.83-.02-2.73-.26-2.38,.68-3.38,2.97-3.07,1.04,.14,2.09,.16,3.45,.25v7.61ZM25,159.05c0,1.86,.13,3.57-.06,5.24-.08,.69-.73,1.69-1.31,1.88-3.53,1.14-4.97-.03-5.01-3.87,0-.68,.18-1.47-.08-2.02-.31-.66-1.15-1.65-1.52-1.55-.71,.19-1.76,1.04-1.77,1.65-.14,5.54-.08,11.09-.08,16.84h3.28l.37-7.77h6.31v7.61c2.22,.72,3.52,.56,3.49-2.04-.06-4.66-.05-9.32,0-13.98,.03-2.58-1.25-2.78-3.59-1.98Zm55.5-.48v18.89c3.14,0,6.06,.08,8.97-.07,.56-.03,1.08-.98,1.62-1.5-.61-.43-1.19-1.17-1.84-1.24-1.67-.18-3.38-.06-5.09-.06v-5.46q6.2-.99,5.74-3.53h-5.68v-4.1c1.86,0,3.49,.13,5.09-.06,.63-.07,1.19-.85,1.78-1.3-.55-.52-1.08-1.47-1.65-1.5-2.9-.15-5.82-.07-8.93-.07Zm111.68,2.93c2,0,3.64,.14,5.24-.07,.6-.08,1.11-.94,1.67-1.45-.5-.47-.99-1.32-1.5-1.34-2.99-.13-5.99-.06-9.07-.06v18.86c3.19,0,6.21,.07,9.22-.07,.47-.02,.91-.94,1.36-1.45-.5-.44-.97-1.21-1.5-1.26-1.7-.16-3.42-.06-5.31-.06v-5.55q6.03-.75,5.69-3.43h-5.78v-4.12Zm42.55,0c1.97,0,3.8,.15,5.58-.09,.57-.08,1.02-1.19,1.52-1.83-2.68-.34-5.34-.84-8.03-.94-.89-.03-1.81,.96-2.71,1.5-.05,.03-.02,.22-.02,.33,0,5.52,0,11.04,0,17.01,3.27,0,6.17,.08,9.07-.07,.6-.03,1.16-.9,1.73-1.39-.57-.47-1.11-1.28-1.72-1.35-1.68-.19-3.39-.07-5.21-.07v-5.84c1.56,0,3,.25,4.3-.09,.87-.22,1.54-1.28,2.3-1.96l-.66-.98c-.97,0-1.93,.02-2.9,0-.95-.03-1.91-.1-3.05-.17-.06-1.28-.11-2.37-.19-4.06Zm-87.13,9.03c1.25-.21,2.22-.33,3.17-.53,3.67-.77,5.28-2.64,4.69-6.37-.26-1.63-1.51-4.03-2.74-4.36-2.63-.7-5.53-.3-8.32-.27-.16,0-.44,.76-.45,1.17-.03,5.64-.02,11.27-.02,17.24,1.38-.06,2.38-.11,3.67-.17v-6.71Zm-15.24-8.58c1.02-1.81,1.03-3.03-1.13-3.25-1.4-.15-3.01-.74-4.16-.23-1.62,.71-3.8,2.08-4.07,3.51-.33,1.68,.84,3.94,1.93,5.54,.72,1.06,2.58,1.21,3.63,2.13,.93,.83,1.45,2.16,2.15,3.27-1.2,.55-2.36,1.25-3.61,1.59-.66,.18-1.52-.52-2.2-.37-.93,.2-1.78,.82-2.67,1.26l.34,1.68c2.72,.07,5.56,.64,8.12,0,1.48-.36,3.36-2.55,3.55-4.11,.21-1.72-1.01-3.92-2.17-5.44-.86-1.12-2.72-1.34-3.96-2.24-.78-.57-1.21-1.64-1.79-2.49,.89-.44,1.74-1.12,2.66-1.25,1.03-.14,2.13,.23,3.39,.41Zm-68.19,8.49c1.18-.25,2.73-.39,4.13-.94,2.49-.96,3.32-3.13,3.15-5.74-.16-2.49-1.11-4.57-3.71-4.85-2.53-.27-5.1-.06-7.77-.06v18.54c5.66,.09,1.97-4.88,4.19-6.96Zm155.86-4.89c.68-4.81-.52-6.54-4.67-6.97-1.4-.15-2.83-.02-4.24-.12-1.74-.12-2.26,.76-2.24,2.45,.06,4.53,.11,9.07-.01,13.59-.07,2.73,.95,3.46,3.65,2.42v-15.05c3.66-1.16,4.24,.85,4.03,3.67h3.48Zm-182.94-6.62c1.46,3.02,3.17,5.69,4.07,8.63,.93,3.04,1.08,6.33,1.62,9.83l2.6-.14c.52-3.47,.61-6.68,1.55-9.59,.97-3,2.76-5.72,4.31-8.79-5.71-1.36-4.44,4.91-7.08,6.22-2.71-1.64-1.33-7.62-7.08-6.17Zm66.38,18.86l1-.96c0-4.28-.09-8.57,.08-12.85,.03-.85,1.11-1.65,1.71-2.47,.75,.75,1.59,1.43,2.21,2.29,.31,.43,.19,1.18,.26,1.75,3.46,.11,4.59-1.25,3.28-4.03-.5-1.08-1.73-2.29-2.79-2.49-2.59-.5-5.28-.45-8.25-.65,0,5.37,0,10.11,0,14.84,0,.79-.27,1.79,.09,2.33,.59,.9,1.59,1.5,2.41,2.23Zm10.38-.58c-2.09-7.55-2.94-8.26-6.35-6.27,2.47,1.8,.89,7.46,6.35,6.27Zm108.09,.02c-2.2-7.2-2.81-8.33-6.3-6.3,2.23,1.95,.79,7.26,6.3,6.3Z"/><path d="M124.56,79.16c26.57,.5,48.98,2.34,70.24,10.99,5.7,2.32,11.3,5.59,16.08,9.56,7.97,6.63,7.72,14.97,.09,22.04-5.82,5.39-12.86,8.54-20.14,11.04-21.51,7.39-43.72,9.41-66.22,9.11-19.73-.26-39.21-2.47-58.04-9-4.43-1.54-8.8-3.46-12.91-5.75-3.23-1.8-6.33-4.12-8.95-6.78-6.06-6.18-6.2-13.43,.05-19.39,3.8-3.61,8.36-6.62,13.02-8.93,12.85-6.35,26.7-9.19,40.72-10.82,9.97-1.16,20.01-1.61,26.05-2.07Zm-57.94,21.39c-6.19,9-5.06,14.59,4.31,19.95,2.01,1.15,4.13,2.1,6.2,3.15-9.7-2.66-19.44-5.27-25.54-15.17-.17,5.1,1.7,8.49,6.47,11.89,6.79,4.84,14.52,7.3,22.42,9.15,26.17,6.11,52.6,6.45,79.11,3.16,10.74-1.33,21.41-3.37,31.35-8,4.11-1.91,7.95-4.69,11.47-7.64,2.85-2.39,3.24-5.01,2.54-8.09-5.39,9.01-14.35,11.54-22.74,14.48,3.46-2.94,7.7-5.52,10.58-9.24,3.72-4.82,.68-9.22-2.95-12.99l.6-.61c3.04,2.01,6.08,4.02,9.97,6.59-.65-2.11-.72-3.91-1.62-4.93-1.5-1.73-3.32-3.53-5.36-4.31-7.03-2.7-14.07-5.73-21.37-7.25-23.29-4.87-46.85-5.13-70.42-2.66-12.72,1.33-25.37,3.33-37.02,9.3-2.3,1.18-4.48,2.84-6.3,4.71-.98,1-1.08,2.93-1.79,5.09l10.07-6.58Z"/><path d="M174.51,176.95v-7.61c-1.36-.09-2.41-.11-3.45-.25-2.3-.31-3.23,.69-2.97,3.07,.1,.9-.04,1.82,.02,2.73,.17,2.49-1.02,2.95-3.47,2.16,0-5.61-.04-11.36,.08-17.11,0-.45,1.15-1.16,1.81-1.22,.47-.04,1.31,.73,1.45,1.29,.26,.95,.21,2.04,.1,3.05-.29,2.55,.72,3.3,3.15,3.33,2.6,.03,3.61-.81,3.29-3.5-.15-1.21-.03-2.46-.03-3.81,2.22-.81,3.55-.7,3.53,2.07-.05,4.55,.04,9.09-.03,13.64-.04,2.77-.11,2.77-3.48,2.19Z"/><path d="M25,159.05c2.34-.8,3.62-.6,3.59,1.98-.05,4.66-.06,9.32,0,13.98,.03,2.6-1.26,2.75-3.49,2.04v-7.61h-6.31l-.37,7.77h-3.28c0-5.75-.06-11.3,.08-16.84,.01-.6,1.06-1.46,1.77-1.65,.37-.1,1.21,.89,1.52,1.55,.26,.55,.07,1.34,.08,2.02,.04,3.84,1.48,5.01,5.01,3.87,.59-.19,1.23-1.19,1.31-1.88,.19-1.67,.06-3.38,.06-5.24Z"/><path d="M80.5,158.56c3.12,0,6.03-.08,8.93,.07,.57,.03,1.1,.98,1.65,1.5-.59,.45-1.15,1.22-1.78,1.3-1.6,.19-3.23,.06-5.09,.06v4.1h5.68q.46,2.54-5.74,3.53v5.46c1.71,0,3.41-.12,5.09,.06,.65,.07,1.23,.8,1.84,1.24-.54,.52-1.06,1.47-1.62,1.5-2.91,.15-5.83,.07-8.97,.07v-18.89Z"/><path d="M192.18,161.49v4.12h5.78q.34,2.68-5.69,3.43v5.55c1.89,0,3.61-.1,5.31,.06,.53,.05,1,.82,1.5,1.26-.45,.51-.89,1.43-1.36,1.45-3.01,.13-6.03,.07-9.22,.07v-18.86c3.08,0,6.08-.07,9.07,.06,.52,.02,1,.87,1.5,1.34-.55,.51-1.06,1.37-1.67,1.45-1.6,.2-3.23,.07-5.24,.07Z"/><path d="M234.73,161.49c.08,1.69,.13,2.78,.19,4.06,1.15,.07,2.1,.14,3.05,.17,.96,.03,1.93,0,2.9,0l.66,.98c-.76,.68-1.43,1.74-2.3,1.96-1.3,.34-2.74,.09-4.3,.09v5.84c1.82,0,3.53-.12,5.21,.07,.61,.07,1.15,.88,1.72,1.35-.58,.49-1.14,1.36-1.73,1.39-2.9,.15-5.8,.07-9.07,.07,0-5.97,0-11.49,0-17.01,0-.11-.03-.3,.02-.33,.9-.54,1.82-1.53,2.71-1.5,2.68,.1,5.35,.6,8.03,.94-.5,.64-.94,1.75-1.52,1.83-1.78,.24-3.6,.09-5.58,.09Z"/><path d="M147.59,170.52v6.71c-1.29,.06-2.3,.1-3.67,.17,0-5.97,0-11.61,.02-17.24,0-.41,.29-1.17,.45-1.17,2.79-.03,5.7-.43,8.32,.27,1.23,.33,2.48,2.73,2.74,4.36,.59,3.73-1.02,5.6-4.69,6.37-.95,.2-1.92,.32-3.17,.53Zm.17-8.88v5.28c2.18,.4,4,.14,4.17-2.41,.17-2.55-1.54-3.13-4.17-2.87Z"/><path d="M132.35,161.94c-1.26-.18-2.36-.55-3.39-.41-.92,.12-1.78,.81-2.66,1.25,.59,.85,1.02,1.92,1.79,2.49,1.23,.9,3.1,1.12,3.96,2.24,1.16,1.52,2.39,3.72,2.17,5.44-.19,1.56-2.07,3.75-3.55,4.11-2.56,.63-5.4,.06-8.12,0l-.34-1.68c.88-.44,1.73-1.06,2.67-1.26,.68-.14,1.55,.55,2.2,.37,1.25-.34,2.41-1.04,3.61-1.59-.7-1.11-1.22-2.44-2.15-3.27-1.05-.93-2.91-1.07-3.63-2.13-1.08-1.6-2.25-3.86-1.93-5.54,.28-1.43,2.46-2.8,4.07-3.51,1.15-.51,2.76,.09,4.16,.23,2.16,.23,2.16,1.44,1.13,3.25Z"/><path d="M64.16,170.43c-2.22,2.08,1.47,7.05-4.19,6.96v-18.54c2.67,0,5.24-.21,7.77,.06,2.6,.27,3.55,2.36,3.71,4.85,.16,2.61-.66,4.78-3.15,5.74-1.4,.54-2.95,.68-4.13,.94Zm-.57-8.76v5.37c2.31,.17,4.16-.1,4.12-2.78-.04-2.69-1.89-2.89-4.12-2.59Z"/><path d="M220.02,165.54h-3.48c.21-2.83-.37-4.84-4.03-3.67v15.05c-2.7,1.04-3.72,.31-3.65-2.42,.12-4.53,.07-9.06,.01-13.59-.02-1.69,.5-2.57,2.24-2.45,1.41,.1,2.84-.03,4.24,.12,4.15,.44,5.36,2.16,4.67,6.97Z"/><path d="M37.08,158.92c5.75-1.46,4.37,4.52,7.08,6.17,2.64-1.32,1.37-7.58,7.08-6.22-1.55,3.07-3.34,5.79-4.31,8.79-.94,2.91-1.03,6.12-1.55,9.59l-2.6,.14c-.54-3.5-.69-6.8-1.62-9.83-.9-2.94-2.61-5.61-4.07-8.63Z"/><path d="M103.46,177.78c-.82-.73-1.82-1.33-2.41-2.23-.36-.54-.09-1.54-.09-2.33,0-4.74,0-9.48,0-14.84,2.97,.19,5.66,.14,8.25,.65,1.06,.21,2.29,1.41,2.79,2.49,1.3,2.79,.17,4.14-3.28,4.03-.07-.57,.04-1.32-.26-1.75-.61-.86-1.46-1.54-2.21-2.29-.6,.82-1.67,1.62-1.71,2.47-.18,4.28-.08,8.56-.08,12.85l-1,.96Z"/><path d="M113.85,177.2c-5.46,1.19-3.88-4.48-6.35-6.27,3.41-1.99,4.25-1.28,6.35,6.27Z"/><path d="M221.93,177.22c-5.51,.95-4.07-4.36-6.3-6.3,3.48-2.03,4.1-.9,6.3,6.3Z"/><path class="cls-1" d="M66.62,100.55l-10.07,6.58c.71-2.16,.81-4.09,1.79-5.09,1.82-1.87,4-3.53,6.3-4.71,11.65-5.97,24.3-7.97,37.02-9.3,23.57-2.47,47.13-2.22,70.42,2.66,7.3,1.53,14.33,4.56,21.37,7.25,2.04,.78,3.86,2.58,5.36,4.31,.89,1.03,.97,2.82,1.62,4.93-3.89-2.57-6.93-4.58-9.97-6.59l-.6,.61c3.63,3.77,6.67,8.18,2.95,12.99-2.88,3.72-7.12,6.3-10.58,9.24,8.38-2.94,17.35-5.47,22.74-14.48,.7,3.08,.31,5.69-2.54,8.09-3.52,2.96-7.36,5.73-11.47,7.64-9.94,4.63-20.61,6.67-31.35,8-26.51,3.28-52.94,2.95-79.11-3.16-7.89-1.84-15.63-4.31-22.42-9.15-4.77-3.4-6.64-6.79-6.47-11.89,6.1,9.89,15.83,12.51,25.54,15.17-2.07-1.04-4.19-2-6.2-3.15-9.37-5.36-10.5-10.95-4.31-19.95Zm16.94,7.54c-1.54-1.5-3.76-2.63-3.9-3.99-.32-3.23-1.65-2.98-3.66-2.03-1.59,.75-3.22,1.45-4.68,2.43-4.97,3.33-5.24,7.16-.11,10.12,4.81,2.78,10.04,5.1,15.36,6.5,20.55,5.43,41.46,5.89,62.46,3.85,10.13-.98,20.18-2.59,29.68-6.56,3.19-1.33,6.18-3.32,9-5.4,1.99-1.46,2.76-4.09,.66-5.87-2.65-2.24-5.81-3.86-8.85-5.53-.4-.22-2.11,.89-2.07,1.23,.43,3.52-2.35,3.52-4.26,4.72l-2.38-2.92-3.88,2.38-1.59-3.43c-.95,2.22-1.92,4.48-3.04,7.08l6.98-1.67,.23,3.46c.79-.19,1.37-.2,1.81-.47,1.76-1.06,3.48-2.19,5.21-3.3,2.75,4.05,1.24,7.5-3.56,8.12,.25-.28,.52-.49,.68-.78,.5-.88,.95-1.79,1.42-2.69-.96,.17-1.96,.21-2.87,.55-4.21,1.54-8.29,3.56-12.59,4.68-12.38,3.21-25.04,4-37.73,3.32-13.2-.71-26.41-1.8-38.36-8.69-.48-.28-1.26,.03-2.6,.11l3.15,3.89c-5.41-1.91-6.43-4.66-3.71-8.38l7.26,4.25v-4.08l6.9,1.64-2.95-7.38-1.52,3.82-4.14-2.46-2.37,3.48Zm44.19-8.48c-4.84,.82-10.34,1.52-15.73,2.76-2.63,.6-6.57,1.41-6.3,4.65,.14,1.74,3.98,3.72,6.48,4.57,8,2.73,16.31,2.72,24.58,1.72,3.32-.4,6.68-1.18,9.81-2.38,1.86-.71,3.32-2.55,4.95-3.89-1.59-1.37-3.06-2.94-4.8-4.05-1.26-.8-2.85-1.17-4.34-1.4-4.62-.72-9.26-1.27-14.66-1.99Zm-26.38,9.94c.78-6.72,5.1-8.63,9.58-9.96,11.02-3.29,22.19-3.31,33.3-.51,5.09,1.29,10.34,2.86,10.67,11.25,2.25-2.22,4.32-3.44,4.93-5.2,.33-.95-1.59-3.26-2.97-4.21-2.05-1.41-4.45-2.43-6.84-3.14-11.29-3.33-22.83-3.91-34.33-1.86-5.39,.96-10.64,3.07-15.78,5.13-1.36,.54-3.2,3.31-2.85,4.2,.7,1.75,2.78,2.89,4.3,4.29Z"/><path class="cls-1" d="M147.76,161.63c2.62-.26,4.33,.32,4.17,2.87-.17,2.55-1.98,2.81-4.17,2.41v-5.28Z"/><path class="cls-1" d="M63.59,161.67c2.23-.3,4.08-.09,4.12,2.59,.04,2.67-1.81,2.94-4.12,2.78v-5.37Z"/><path d="M83.56,108.09l2.37-3.48,4.14,2.46,1.52-3.82,2.95,7.38-6.9-1.64v4.08l-7.26-4.25c-2.71,3.73-1.7,6.47,3.71,8.38l-3.15-3.89c1.33-.07,2.12-.38,2.6-.11,11.96,6.89,25.16,7.98,38.36,8.69,12.69,.68,25.35-.1,37.73-3.32,4.3-1.12,8.39-3.14,12.59-4.68,.9-.33,1.91-.37,2.87-.55-.47,.9-.93,1.81-1.42,2.69-.16,.28-.43,.5-.68,.78,4.81-.61,6.31-4.06,3.56-8.12-1.73,1.11-3.45,2.24-5.21,3.3-.44,.26-1.02,.27-1.81,.47l-.23-3.46-6.98,1.67c1.12-2.6,2.09-4.86,3.04-7.08l1.59,3.43,3.88-2.38,2.38,2.92c1.91-1.2,4.68-1.2,4.26-4.72-.04-.34,1.67-1.45,2.07-1.23,3.04,1.67,6.2,3.29,8.85,5.53,2.1,1.77,1.32,4.4-.66,5.87-2.82,2.08-5.82,4.07-9,5.4-9.5,3.97-19.55,5.58-29.68,6.56-21,2.04-41.92,1.58-62.46-3.85-5.32-1.41-10.55-3.73-15.36-6.5-5.13-2.96-4.86-6.79,.11-10.12,1.46-.98,3.09-1.68,4.68-2.43,2.01-.95,3.34-1.2,3.66,2.03,.13,1.36,2.36,2.49,3.9,3.99Z"/><path d="M127.75,99.61c5.4,.72,10.04,1.28,14.66,1.99,1.49,.23,3.08,.6,4.34,1.4,1.74,1.11,3.21,2.68,4.8,4.05-1.64,1.33-3.1,3.18-4.95,3.89-3.14,1.19-6.49,1.97-9.81,2.38-8.27,1-16.58,1.01-24.58-1.72-2.49-.85-6.33-2.83-6.48-4.57-.27-3.24,3.67-4.05,6.3-4.65,5.39-1.24,10.89-1.94,15.73-2.76Z"/><path d="M101.37,109.55c-1.51-1.4-3.6-2.54-4.3-4.29-.36-.89,1.49-3.66,2.85-4.2,5.14-2.06,10.39-4.17,15.78-5.13,11.51-2.05,23.04-1.47,34.33,1.86,2.38,.7,4.78,1.73,6.84,3.14,1.38,.95,3.3,3.25,2.97,4.21-.61,1.76-2.68,2.98-4.93,5.2-.33-8.39-5.57-9.96-10.67-11.25-11.1-2.81-22.27-2.78-33.3,.51-4.48,1.33-8.8,3.24-9.58,9.96Z"/></svg>