<?xml version="1.0" encoding="utf-8"?>
<!-- Generator: Adobe Illustrator 26.0.3, SVG Export Plug-In . SVG Version: 6.00 Build 0)  -->
<svg version="1.0" id="katman_1" xmlns="http://www.w3.org/2000/svg" xmlns:xlink="http://www.w3.org/1999/xlink" x="0px" y="0px"
	 viewBox="0 0 600 450" style="enable-background:new 0 0 600 450;" xml:space="preserve">
<style type="text/css">
	.st0{fill:#C9227A;}
	.st1{fill:#010202;}
	.st2{fill:#363A52;}
	.st3{fill:#BF2378;}
	.st4{fill:#393C54;}
	.st5{fill:#CA227C;}
	.st6{fill:#C8217A;}
	.st7{fill:#872F61;}
	.st8{fill:#CB4290;}
	.st9{fill:#555454;}
	.st10{fill:#CB428F;}
	.st11{fill-rule:evenodd;clip-rule:evenodd;fill:#FFFFFF;}
</style>
<path class="st0" d="M188,173.5v46.6h29.1v-10h-17.8v-36.7H188z"/>
<path class="st0" d="M216.1,196.9c0,7,2.3,12.7,6.9,17.2c4.7,4.5,10.3,6.8,17,6.8c6.7,0,12.3-2.3,17-6.8c4.6-4.5,6.9-10.2,6.9-17.2
	s-2.3-12.7-6.9-17.2c-4.6-4.5-10.2-6.8-17-6.8c-6.8,0-12.4,2.3-17,6.8C218.4,184.2,216.1,190,216.1,196.9z M252.4,196.9
	c0,4.1-1.1,7.4-3.4,9.8c-2.3,2.5-5.2,3.7-8.9,3.7c-3.8,0-6.8-1.2-9-3.7c-2.3-2.5-3.3-5.7-3.3-9.8c0-4.1,1.1-7.4,3.3-9.9
	c2.3-2.4,5.3-3.7,9-3.7c3.7,0,6.7,1.3,8.9,3.7C251.3,189.5,252.4,192.7,252.4,196.9z"/>
<path class="st0" d="M298.3,173.5v26.8L279,173.5h-11v46.6h11.3v-27.1l20.2,27.1h10.2v-46.6H298.3z"/>
<path class="st0" d="M313.7,196.9c0,7,2.3,12.7,6.9,17.2c4.7,4.5,10.3,6.8,17,6.8c6.4,0,11.7-2.1,16-6.4c4.3-4.3,6.5-9.8,6.5-16.6
	c0-1.9-0.2-3.5-0.5-4.9h-26.5v8.8h15.1c-0.4,2.9-1.6,5.2-3.7,6.7c-2.1,1.6-4.5,2.3-7.1,2.3c-3.7,0-6.7-1.3-8.8-3.8
	c-2.3-2.5-3.3-5.9-3.3-10.1s1.1-7.5,3.3-10c2.1-2.5,5.1-3.8,8.7-3.8c4.7,0,7.9,2.1,9.6,6h12.7c-1.2-5.2-3.9-9.2-7.9-12
	c-4.1-2.7-8.7-4.1-14-4.1c-6.8,0-12.4,2.3-17,6.8C315.9,184.2,313.7,190,313.7,196.9z"/>
<path class="st1" d="M372.1,221.6h4v-24h25.2v24h4v-48.4h-4v21h-25.2v-21h-4V221.6z"/>
<path class="st1" d="M471.2,222.5c9.5,0,15.7-5.7,15.7-13.2c0-7.4-4.7-10.4-10.2-12.9l-7.3-3.2c-3.5-1.5-8.3-3.6-8.3-9.1
	c0-5,4.1-8.2,10.3-8.2c4.8,0,8.6,1.9,11.4,4.9l2.3-2.6c-3.1-3.3-7.9-5.8-13.7-5.8c-8.3,0-14.4,5-14.4,12.2c0,7.1,5.5,10.2,9.8,12.1
	l7.3,3.2c4.8,2.1,8.6,4,8.6,9.8c0,5.5-4.5,9.3-11.6,9.3c-5.5,0-10.5-2.5-14-6.4l-2.5,2.8C458.6,219.6,464.2,222.5,471.2,222.5z"/>
<path class="st1" d="M497,221.6h4v-24h25.2v24h4v-48.4h-4v21H501v-21h-4V221.6z"/>
<path class="st1" d="M426.4,193.4c1.9-5.6,3.6-10.8,5.3-16.6h0.3c1.7,5.8,3.3,11,5.3,16.6l4,12l5.4,16.3h4.3l-17-48.4h-4.1l-17,48.4
	h4L426.4,193.4z"/>
<path class="st1" d="M197.3,270.8h4.3l9.5-29.7h-3.8l-4.8,16.1c-1.1,3.5-1.8,6.3-2.9,9.8h-0.2c-1.1-3.5-1.8-6.3-2.9-9.8l-4.8-16.1
	h-3.9L197.3,270.8z"/>
<path class="st1" d="M235.7,270.8h17.6v-3.2h-13.8v-10.8h11.3v-3.2h-11.3v-9.3h13.4V241h-17.2V270.8z"/>
<path class="st1" d="M280,270.8h3.6v-15.6c0-3.1-0.3-6.3-0.4-9.3h0.2l3.2,6.1l10.8,18.8h3.9V241h-3.6v15.5c0,3.1,0.3,6.4,0.5,9.4
	h-0.2l-3.2-6.1L283.9,241H280V270.8z"/>
<path class="st1" d="M336,270.8h3.8v-26.5h9V241H327v3.2h9V270.8z"/>
<path class="st1" d="M385.1,271.3c6.1,0,10.7-3.2,10.7-12.8V241h-3.6v17.6c0,7.2-3.1,9.4-7.1,9.4c-3.9,0-6.9-2.2-6.9-9.4V241h-3.8
	v17.5C374.5,268,379.1,271.3,385.1,271.3z"/>
<path class="st1" d="M424.3,270.8h3.8v-12.6h5.4l7.2,12.6h4.3l-7.6-13c4.1-1,6.7-3.7,6.7-8.3c0-6.2-4.3-8.4-10.4-8.4h-9.3V270.8z
	 M428.1,255.1v-11h5c4.7,0,7.2,1.4,7.2,5.3c0,3.8-2.6,5.7-7.2,5.7H428.1z"/>
<path class="st1" d="M470.6,270.8h17.6v-3.2h-13.8v-10.8h11.3v-3.2h-11.3v-9.3h13.4V241h-17.2V270.8z"/>
<path class="st1" d="M523.2,271.3c6.2,0,10.1-3.7,10.1-8.4c0-4.4-2.7-6.4-6.1-7.9l-4.3-1.8c-2.3-1-4.9-2.1-4.9-4.9
	c0-2.7,2.2-4.4,5.6-4.4c2.8,0,4.9,1.1,6.8,2.8l2-2.4c-2.1-2.2-5.2-3.7-8.8-3.7c-5.4,0-9.4,3.3-9.4,7.9c0,4.3,3.3,6.4,6,7.6l4.3,1.9
	c2.8,1.3,5,2.2,5,5.3c0,2.9-2.4,4.9-6.2,4.9c-3.1,0-6.1-1.5-8.2-3.7l-2.3,2.6C515.4,269.6,519,271.3,523.2,271.3z"/>
<path class="st2" d="M163.7,210.7l-36.1,9.1c-7.8-4.3-10.2-7.6-12.2-14.3l12.4,7.2L157,205C158.8,207.5,160.2,208.7,163.7,210.7z"/>
<path class="st3" d="M127.6,227.1v-7.4l36.1-9.1v5.2c-0.3,1.4-0.7,1.9-2.1,2.6L127.6,227.1z"/>
<path class="st4" d="M127.6,227.1l-6.2-3.6v7.2l8.1,4.8V250l-8.1,2.1v15.5l36.1-9.8v-38.4L127.6,227.1z"/>
<path class="st5" d="M121.4,237.6l-12.7-7.4l7.9-2.1l12.9,7.4V250l-8.1,2.1V237.6z"/>
<path class="st6" d="M161.8,227.1l-4.3-2.4v-5.2l2.4-0.5v0.2l10,5.7v14.8l-8.1,1.9V227.1z"/>
<path class="st6" d="M127.6,271.5l-6.2-3.8l11.9-3.4l6.4,3.4v7.6l-12.2,3.1V271.5z"/>
<path class="st6" d="M151.5,272.2v-7.4l-6.2-3.6l11.9-3.3l6.4,3.8v7.4L151.5,272.2z"/>
<path class="st7" d="M67,192.1l12.4,7.4v13.8l12.4,7.2v3.8l-5.3,1.4l10.7,6.2v21.9l-10.7-6.2v-13.1l-7.2-4.3v-16.9L67,206.1V192.1z"
	/>
<path class="st8" d="M67,192.1l11.9-3.1l12.4,7.4v14.1l7.9,4.5v16.2l-2.1,0.7l-10.5-6.2l5.3-1.4v-3.8l-12.4-7.2v-13.8L67,192.1z"/>
<path class="st9" d="M99.2,254.8l-1.9-1v-21.9l1.9-0.7V254.8z"/>
<path class="st7" d="M127.6,278.4L99.2,262v-78c0.2-1,0.3-1.5,1-2.1l15,8.8v7.2l12.7,7.4v7.4l-12.4-6.9c2.2,6.8,4.8,9.9,12.2,14.1
	v7.4l-6.2-3.6v7.2l-4.8-2.6l-7.9,2.1l12.7,7.4v30.1l6.2,3.6V278.4z"/>
<path class="st1" d="M104.5,194.5c0.5-2.1,3.5-2.5,4.8,0c-2.3,1.1-2.9,1.9-1.2,4.5C105.6,198.8,104,196.6,104.5,194.5z"/>
<path class="st10" d="M100.2,181.8c0.3-0.5,0.6-0.7,1.2-1l31.3-7.9c1.9-0.1,2.8,0.1,4.3,0.5l14.1,8.1v7.2l12.7,7.4v5
	c-0.2,1.4-0.6,2-1.7,2.6l-34.2,8.8v-7.4l-12.7-7.4v-7.2L100.2,181.8z"/>
<path class="st7" d="M161.8,227.1l-4.3-2.4v14.8l4.3,2.1V227.1z"/>
<path class="st7" d="M151.5,264.8l-6.2-3.6l-8.4,2.1l14.6,8.6V264.8z"/>
<path class="st11" d="M131,234.8l3.1-0.7v-6l4.3-1v6l6.2-1.4v-6.4l4.1-0.7v6l2.9-0.7v4.3l-2.9,0.7v9.8l2.9-0.7v4.5l-2.9,0.7v6
	l-4.1,1v-5.5l-6.2,1.4v5.5l-4.3,1.2v-5.7l-3.1,0.7v-4.5l3.1-0.7v-9.3l-3.1,0.7V234.8z M144.6,236.2l-6.2,1.7v9.3l6.2-1.7V236.2z"/>
</svg>
