<?xml version="1.0" encoding="UTF-8"?><svg id="katman_1" xmlns="http://www.w3.org/2000/svg" viewBox="0 0 256 256"><defs><style>.cls-1{fill:#eeeef0;}.cls-2{fill:#fefcfd;}.cls-3{fill:#32364f;}.cls-4{fill:#c4438c;}.cls-5{fill:#c33d88;}.cls-6{fill:#8f3066;}.cls-7{fill:#33374f;}.cls-8{fill:#903d6b;}.cls-9{fill:#c02379;}.cls-10{fill:#c13f89;}.cls-11{fill:#bf2378;}.cls-12{fill:#c9247c;}.cls-13{fill:#c9247b;}.cls-14{fill:#c9267c;}.cls-15{fill:#cb4390;}.cls-16{fill:#cb4993;}.cls-17{fill:#cb3485;}.cls-18{fill:#cb4a92;}.cls-19{fill:#c8408d;}.cls-20{fill:#c5458d;}.cls-21{fill:#c8257d;}.cls-22{fill:#c6237b;}.cls-23{fill:#c8237b;}.cls-24{fill:#c92b80;}.cls-25{fill:#c9287e;}.cls-26{fill:#ca418f;}.cls-27{fill:#ca2a80;}.cls-28{fill:#413855;}.cls-29{fill:#453c58;}.cls-30{fill:#3f3b56;}.cls-31{fill:#3f3c56;}.cls-32{fill:#883060;}.cls-33{fill:#8a3263;}.cls-34{fill:#893162;}.cls-35{fill:#3c3e56;}.cls-36{fill:#4f5267;}.cls-37{fill:#515469;}</style></defs><path class="cls-32" d="M33.41,156.53c-5.08-1.88-9.29-5.52-13.99-8.17-2.08-1.17-.37-4.2-2.17-5.59-.03-.22-.05-.43-.09-.65-.29-3.48,.16-6.99-.29-10.47-.08-.43-.11-.87-.11-1.31,.17-1.72,.41-3.44,.32-5.19-.02-.68-.01-1.35,.04-2.03,.08-.94,.32-1.82,.99-2.49h-.02c1.06-4.45,.31-8.98,.45-13.47,.16-4.85,1.15-5.53,5.18-3.19,.99,.58,1.93,1.23,2.75,2.07,1.14,1.22,1.1,2.98,1.75,4.42,1.36,2.15,3.78,2.78,5.46,4.46,.66,1.41,1.42,2.76,2.47,3.9-2.34,4.02-4.67,.24-7.01,0,.97,2.44,3.31,2.96,5.09,4.26,.58,1.42,.86,3,1.94,4.15-.38,1.95-1.78,1.73-2.99,1.46-1.29-.29-2.19,.08-2.91,1.2-.97,.81-2.15,0-3.25,.53,.89,1.36,2.44,1.93,3.18,3.38,1.29,2.43,.93,5.09,.98,7.7,.02,2.71-.3,5.45,.73,8.05-.59,2.09,1.81,2.2,2.13,3.7,.35,1.23,.21,2.34-.65,3.29Z"/><path class="cls-13" d="M111.47,107.73c0,3.91-.06,7.82,.03,11.73,.05,2.15-.3,3.46-2.73,3.41-2.35-.05-2.34-1.53-2.34-3.33,.03-5.65-.04-11.31,.05-16.96,.02-1.35-.81-3.59,1.24-3.75,2.17-.17,4.79-1.45,6.45,1.63,2.4,4.46,4.94,8.84,7.85,14.02,1.01-4.66,.4-8.52,.54-12.32,.07-1.91-.12-3.57,2.52-3.59,2.53-.02,2.66,1.38,2.64,3.44-.06,5.5,.05,11-.07,16.5-.03,1.47,.97,3.91-1.33,4.13-2.17,.21-4.78,1.39-6.43-1.73-2.38-4.5-4.97-8.87-7.48-13.3l-.94,.13Z"/><path class="cls-12" d="M91.62,123.43c-7.15-.05-12.17-5.43-12.03-12.89,.14-7.17,5.24-12.51,12.03-12.6,7.03-.09,12.13,5.3,12.13,12.83,0,7.65-4.85,12.72-12.14,12.67Z"/><path class="cls-12" d="M151.59,115.17c0,6.83-.66,7.59-7.14,8.2-8.02,.75-13.49-3.44-14.11-10.81-.92-10.81,7.91-17.67,17.45-13.48,1.16,.51,3.62,.73,2.29,3.2-.83,1.55-1.73,3.05-4.33,1.78-6.06-2.95-11.16,1.35-10.25,8.18,.65,4.85,5.53,7.69,9.68,5.74,1.08-.51,1.52-1.24,1.54-2.42,.02-1.25-.44-2.12-1.7-2.06-2.04,.09-2.24-1.24-2.17-2.96,.08-2.1,1.45-1.84,2.71-1.93q6.03-.44,6.03,6.58Z"/><path class="cls-14" d="M64.86,110.29c0-3.05,.07-6.1-.02-9.14-.06-2.07,.86-2.55,2.57-2.56,1.73-.01,2.59,.51,2.55,2.56-.09,3.96,.27,7.95-.1,11.87-.4,4.24,1.15,5.49,4.73,4.88,.69-.12,1.41,.02,2.11,0,1.73-.06,2.1,1.05,2.08,2.64-.01,1.47-.53,2.27-1.97,2.27-3.24-.02-6.48-.04-9.72,.02-1.98,.04-2.28-1.21-2.25-2.94,.05-3.2,.01-6.4,.01-9.6Z"/><path class="cls-15" d="M26.58,106.96c-.27-.07-.58-.08-.81-.22-6.8-4.02-6.67-4.01-6.86,4.2-.08,3.23,1.06,6.64-.81,9.71,.02-4.89,.15-9.78,.03-14.67-.07-2.78,.87-4.16,3.43-4.75,4.14-.95,8.17-2.39,12.31-3.32,5.84-1.31,11.23,2.89,11.72,8.86-.36,.35-.76,.43-1.21,.25-1.26-2.07-2.95-2.51-5.13-1.84-2.58,.8-5.2,1.46-7.81,2.11-1.64,.41-3.32,1.01-4.86-.35Z"/><path class="cls-35" d="M31.83,150.27c-3.59-2.04-1.06-5.6-1.78-8.35,1.05-1.28,2.33-1.85,3.91-1.49,1.93,1.26,2.2,4.23,4.51,5.1,1.14,.45,2.11,.15,2.93-.77,.44-.54,.99-.94,1.47-1.42,.19-.27,.38-.53,.54-.82,.36-.77,.57-1.59,.64-2.45-.03-.74-.15-1.47-.13-2.22,.04-.38,.13-.75,.26-1.11,.41-.93,1.15-1.84,.19-2.88-.21-.32-.34-.67-.41-1.05-.08-.8,.05-1.59-.02-2.38-.2-1.29-.48-2.56-.38-3.88,.06-.75,.27-1.44,.66-2.06,1.51-1.43,3.09-1.43,4.73-.3,.67,.91,.89,1.97,.93,3.1-.04,2.72,.7,5.58-1.14,8.01l-.2,10.16c-1.22,2.3-3.62,1.95-5.47,2.86-1.73,1.06-3.65,.24-5.44,.68-.24,.12-.49,.2-.76,.24-1.49,1.45-3.09,2.26-5.05,1.05Z"/><path class="cls-34" d="M17.26,142.77c-3.62-1.35-6.24-3.43-5.39-8.24,.12-.68-.05-1.92-.43-2.12-5.4-2.79-2.81-8.21-3.63-12.49,.27-.35,.62-.51,1.04-.48,2.34,1.24,4.56,2.65,6.28,4.84,.23,.63,.24,1.27,.03,1.91-.47,.77-.99,1.44-2.27,1.14,2.07,.53,3.7,1.23,4.35,3.35l.16,.27c.56,3.84,.43,7.68,.06,11.52l-.19,.31Z"/><path class="cls-26" d="M44.46,106.88c.38-.03,.75-.07,1.13-.1,2.05,.98,4.11,1.94,5.64,3.81-5.54,3.44-11.4,5.44-17.88,4.65-2.33-.58-4.15-2.09-5.88-3.75,.34-1.12,1.15-1.8,2.11-1.97,4.96-.86,9.54-4.33,14.88-2.65Z"/><path class="cls-30" d="M34.31,123.46c-4.14-.17-6.11-2.85-7.23-6.98,3.32,.27,5.27,5.08,8.94,2.39,3.83-3.05,7.96-4.6,12.73-2.96l2.43,2.89c-5.14,3.62-10.8,5.02-16.87,4.67Z"/><path class="cls-21" d="M48.75,115.9c-4.4,.21-8.48,2-12.73,2.96-2.63,.29-2.7-1.62-2.66-3.62,5.96-1.55,11.92-3.1,17.88-4.65,1.87,3.24-.65,4.09-2.48,5.31Z"/><path class="cls-9" d="M34.31,123.46c5.62-1.56,11.25-3.11,16.87-4.67,1,1.24,.78,2.46-.04,3.68-.84,.62-1.33,1.76-2.45,1.97-1.48-.21-2.95-.42-4.22,.76-1.9,1.84-4.38,1.88-6.66,2.54-.69,.06-1.31-.09-1.81-.63-3.03,.11-2.91-1.48-1.69-3.66Z"/><path class="cls-24" d="M8.76,119.79c-.32,.04-.64,.09-.96,.13l.06,.02c-1.5-2.65-1.36-5.52-.99-8.42,2.12-1.68,4.43-1.76,6.83-.9,.25,.13,.34,.34,.29,.63,.57,1.46,.31,3,.3,4.49-.04,4.51-1.17,5.31-5.53,4.05Z"/><path class="cls-33" d="M7.12,111.5c1.42,2.69,.72,5.6,.74,8.44q-6.39-3.52-5.71-11.15c2.5-.89,3.83,.7,4.97,2.72Z"/><path class="cls-19" d="M8.76,119.79q4.84-.4,5.24-8.54c.71,1.06,.61,2.3,.48,3.45-.36,3.17,.77,5.15,3.65,5.94,0,.93,0,1.85,0,2.78-.98,.98-2.02,1.69-3.41,.94-2.08-1.38-4.47-2.29-5.96-4.57Z"/><path class="cls-16" d="M7.12,111.5c-1.66-.91-3.31-1.81-4.97-2.72,4.46-3.85,8.08-1.54,11.56,1.84-2.14,.77-4.34,1.04-6.58,.88Z"/><path class="cls-25" d="M54.62,127.13c-.18,3.35,2.65,7.94-3.14,8.97-.34,.06-.74-.31-1.11-.48-.35-2.63-.51-5.25,.33-7.83,1.08-1.79,2.48-1.45,3.93-.66Z"/><path class="cls-27" d="M33.41,156.53l-.03-3.6c.93-3.34,3.3-2.25,5.38-2.04,1.15,4.56,1.05,4.67-5.35,5.64Z"/><path class="cls-17" d="M51.06,147.42c.38,4.66-.18,5.19-5.71,5.47-.86-1.06-1-2.25-.54-3.55,1.55-2.66,3.91-2.27,6.25-1.91Z"/><path class="cls-8" d="M45.37,149.15c0,1.25-.01,2.49-.02,3.74-2.57-1.3-5.14-2.61-7.72-3.91,1.75-.52,3.5-1.05,5.25-1.57,.93,.4,2.17,.3,2.48,1.74Z"/><path class="cls-6" d="M51.26,128.08c-.33,2.51,.85,5.23-.91,7.55-.54-.11-1.07-.23-1.61-.34,.03-2.76,.07-5.53,.1-8.29,1.24-.77,1.91-.05,2.41,1.08Z"/><path class="cls-20" d="M45.37,149.15c-.83-.58-1.66-1.16-2.48-1.74,1.89-.66,3.77-1.31,5.66-1.97,.87,.61,2.02,.82,2.52,1.98-1.9,.58-3.79,1.15-5.69,1.73Z"/><path class="cls-18" d="M51.26,128.08c-.8-.36-1.61-.72-2.41-1.08-.05-.85-.11-1.7-.16-2.55,.48-1.14,1.21-1.93,2.45-1.97-.68,3.16,2.96,2.55,3.48,4.66-1.17,.11-2.49-.43-3.35,.94Z"/><path class="cls-4" d="M38.76,150.89c-1.75,.82-3.84,.56-5.38,2.04-.65-.8-2.84-.55-1.55-2.67,1.68-.35,3.37-.7,5.05-1.05,.63,.56,1.25,1.12,1.88,1.68Z"/><path class="cls-23" d="M44.46,106.88c-5.66,1.54-11.33,3.08-17,4.62-1.4-1.26-.58-3.03-.88-4.54,4.77-.39,9.25-2.2,13.86-3.4,2.82-.74,4.44-.28,4.02,3.33Z"/><path class="cls-11" d="M34.25,140.79c-1.4,.37-2.8,.75-4.2,1.12-.24-2.79,.51-5.69-.8-8.36,1.14-1.32,2.7-1.17,4.16-1.4,.45,.02,.85,.2,1.19,.52,.4,.59,.6,1.27,.69,1.99,.11,1.67,.2,3.35-.23,5-.16,.47-.43,.84-.8,1.13Z"/><path class="cls-29" d="M34.32,132.88l-.89-.24c-1.61-.24-3.25-.42-3.44-2.74-.02-2.32-.19-4.73,2.99-2.24,.94,.73,2.15,.56,3.01-.55,.56-.04,1.11-.07,1.67-.11,.33,.36,.52,.79,.57,1.3-.49,2.34-.48,5.18-3.91,4.58Z"/><path class="cls-10" d="M30,129.91c1.15,.91,2.29,1.83,3.44,2.74-1.18,1.48-2.77,.7-4.18,.91-1.62-1.11-3.24-2.21-5.14-3.51,2.18-1.87,4.03-1.11,5.89-.14Z"/><path class="cls-5" d="M17.24,130.68c-1.03-.67-2.03-1.41-3.1-2.01-2.94-1.64-.08-1.79,.53-2.51,1.04-.83,1.98-2.11,3.47-.87,.04,1.86,.36,3.79-.9,5.4Z"/><path class="cls-28" d="M17.45,142.47c-.02-3.84-.04-7.68-.06-11.52,1.31,3.83,1.24,7.68,.06,11.52Z"/><path class="cls-22" d="M18.14,125.28c-1.16,.29-2.31,.58-3.47,.87,.01-.6,.03-1.2,.04-1.79,1.06-.62,2.17-1.06,3.41-.94,0,.62,0,1.24,.01,1.86Z"/><path class="cls-2" d="M98.55,110.85c-.04,4.48-2.83,7.62-6.8,7.66-3.98,.03-7.12-3.59-6.97-8.03,.14-4.26,3.2-7.42,7.11-7.35,4.01,.07,6.7,3.2,6.65,7.72Z"/><path class="cls-1" d="M34.32,132.88c3.04,.06,1.91-3.43,3.42-4.68,1.56-.8,1.95,2.43,3.62,1.21,2.55-3.63,2.61,1.12,4.01,1.38l-1.03,1.87c.22,1.82-.27,3.67,.16,5.48,.15,.64,1.46,.81,.64,1.84-1.47,.8-.79,2.58-1.46,3.74h.01c-1.11,.67-1.26-1.07-2.14-.97-.7,.27-1.23,.77-1.75,1.3-.68,.9-1.76,2.59-2.46,1.59-.99-1.41-3.2-2.52-2.33-5.03,.1-.38,.22-.75,.34-1.12,.42-1.06,.54-2.13,.02-3.21-.38-.63-.69-1.29-1.02-1.94l-.04-1.47Z"/><path class="cls-31" d="M41.77,130.74c-2.92,2.09-2.62-1.81-4.03-2.53-.03-.4-.05-.79-.08-1.19,2.16-1.07,4.42-1.71,6.8-1.8-.01,.68-.02,1.36-.03,2.04-2.24-.05-1.81,2.3-2.67,3.48Z"/><path class="cls-7" d="M39.42,142.86c.7-.7,1.46-1.23,2.49-.95,.63,.79,.58,1.61,.12,2.46,.38,3.6-1.83,2.31-3.45,2.14,.54-1.15,.07-2.57,.85-3.65Z"/><path class="cls-36" d="M39.42,142.86c.03,1.3,.31,2.67-.85,3.65-3.1-.44-3.86-2.95-4.32-5.73-.02-.27,0-.54,.08-.8,.56-.57,1.11-.49,1.67,0-2.18,2.59,1.53,3.58,1.31,5.64,1.96,.21,.92-2.28,2.11-2.76Z"/><path class="cls-1" d="M41.77,130.74c.51-1.5-.57-4.42,2.67-3.48-.42,1.41,.46,2.41,.94,3.54-1.2,.02-2.37-2.95-3.61-.06Z"/><path class="cls-3" d="M44.62,133.56c4.96,1.03-.53,2.46,.12,3.66-1.04-1.18-.85-2.41-.12-3.66Z"/><path class="cls-1" d="M44.62,133.56c-.27,1.23-.39,2.46,.12,3.66l-.23,.93c-1.33-1.78-1.2-3.62-.16-5.48l.27,.89Z"/><path class="cls-1" d="M43.69,143.73c.14-1.4-.69-3.26,1.46-3.74-.49,1.25-.98,2.49-1.46,3.74Z"/><path class="cls-1" d="M42.03,144.38l-.12-2.46c1.62-.58,.67,1.81,1.79,1.81-.36,.8-1.03,.69-1.67,.65Z"/><path class="cls-35" d="M36,139.99c-.56,0-1.12,0-1.67,0,.01-1.88,.02-3.76,.03-5.64,.55,.34,1.09,.68,1.64,1.01,.63,1.54,.63,3.08,0,4.62h0Z"/><path class="cls-37" d="M41.72,139c-.91-.81-2.4,2.39-2.84-.33-.38-2.36-.66-5.16,2.92-5.08,.85,1.82,.99,3.63-.08,5.41Z"/><path class="cls-1" d="M41.72,139c.46-1.8,.45-3.6,.08-5.41,1.48,1.83,1.58,3.64-.08,5.41Z"/><path class="cls-36" d="M36,139.99c0-1.54,0-3.08,0-4.62,1.26,1.54,1.2,3.08,0,4.62Z"/></svg>