<?xml version="1.0" encoding="utf-8"?>
<!-- Generator: Adobe Illustrator 26.3.1, SVG Export Plug-In . SVG Version: 6.00 Build 0)  -->
<svg version="1.1" id="katman_1" xmlns="http://www.w3.org/2000/svg" xmlns:xlink="http://www.w3.org/1999/xlink" x="0px" y="0px"
	 viewBox="0 0 256 256" style="enable-background:new 0 0 256 256;" xml:space="preserve">
<style type="text/css">
	.st0{fill:#883060;}
	.st1{fill:#C9247B;}
	.st2{fill:#C9247C;}
	.st3{fill:#C9267C;}
	.st4{fill:#CB4390;}
	.st5{fill:#3C3E56;}
	.st6{fill:#893162;}
	.st7{fill:#CA418F;}
	.st8{fill:#3F3B56;}
	.st9{fill:#C8257D;}
	.st10{fill:#C02379;}
	.st11{fill:#C92B80;}
	.st12{fill:#8A3263;}
	.st13{fill:#C8408D;}
	.st14{fill:#CB4993;}
	.st15{fill:#C9287E;}
	.st16{fill:#CA2A80;}
	.st17{fill:#CB3485;}
	.st18{fill:#903D6B;}
	.st19{fill:#8F3066;}
	.st20{fill:#C5458D;}
	.st21{fill:#CB4A92;}
	.st22{fill:#C4438C;}
	.st23{fill:#C8237B;}
	.st24{fill:#BF2378;}
	.st25{fill:#453C58;}
	.st26{fill:#C13F89;}
	.st27{fill:#C33D88;}
	.st28{fill:#413855;}
	.st29{fill:#C6237B;}
	.st30{fill:#EEEEF0;}
	.st31{fill:#3F3C56;}
	.st32{fill:#33374F;}
	.st33{fill:#4F5267;}
	.st34{fill:#32364F;}
	.st35{fill:#515469;}
	.st36{fill:none;}
</style>
<path class="st0" d="M33.4,156.5c-5.1-1.9-9.3-5.5-14-8.2c-2.1-1.2-0.4-4.2-2.2-5.6c0-0.2,0-0.4-0.1-0.6c-0.3-3.5,0.2-7-0.3-10.5
	c-0.1-0.4-0.1-0.9-0.1-1.3c0.2-1.7,0.4-3.4,0.3-5.2c0-0.7,0-1.3,0-2c0.1-0.9,0.3-1.8,1-2.5h0c1.1-4.4,0.3-9,0.5-13.5
	c0.2-4.8,1.1-5.5,5.2-3.2c1,0.6,1.9,1.2,2.8,2.1c1.1,1.2,1.1,3,1.8,4.4c1.4,2.2,3.8,2.8,5.5,4.5c0.7,1.4,1.4,2.8,2.5,3.9
	c-2.3,4-4.7,0.2-7,0c1,2.4,3.3,3,5.1,4.3c0.6,1.4,0.9,3,1.9,4.2c-0.4,1.9-1.8,1.7-3,1.5c-1.3-0.3-2.2,0.1-2.9,1.2
	c-1,0.8-2.1,0-3.2,0.5c0.9,1.4,2.4,1.9,3.2,3.4c1.3,2.4,0.9,5.1,1,7.7c0,2.7-0.3,5.4,0.7,8.1c-0.6,2.1,1.8,2.2,2.1,3.7
	C34.4,154.5,34.2,155.6,33.4,156.5L33.4,156.5z"/>
<path class="st1" d="M111.5,107.7c0,3.9-0.1,7.8,0,11.7c0.1,2.2-0.3,3.5-2.7,3.4c-2.3-0.1-2.3-1.5-2.3-3.3c0-5.7,0-11.3,0.1-17
	c0-1.3-0.8-3.6,1.2-3.8c2.2-0.2,4.8-1.4,6.4,1.6c2.4,4.5,4.9,8.8,7.8,14c1-4.7,0.4-8.5,0.5-12.3c0.1-1.9-0.1-3.6,2.5-3.6
	c2.5,0,2.7,1.4,2.6,3.4c-0.1,5.5,0.1,11-0.1,16.5c0,1.5,1,3.9-1.3,4.1c-2.2,0.2-4.8,1.4-6.4-1.7c-2.4-4.5-5-8.9-7.5-13.3
	L111.5,107.7L111.5,107.7z"/>
<path class="st2" d="M151.6,115.2c0,6.8-0.7,7.6-7.1,8.2c-8,0.8-13.5-3.4-14.1-10.8c-0.9-10.8,7.9-17.7,17.4-13.5
	c1.2,0.5,3.6,0.7,2.3,3.2c-0.8,1.6-1.7,3.1-4.3,1.8c-6.1-2.9-11.2,1.3-10.2,8.2c0.6,4.8,5.5,7.7,9.7,5.7c1.1-0.5,1.5-1.2,1.5-2.4
	c0-1.2-0.4-2.1-1.7-2.1c-2,0.1-2.2-1.2-2.2-3c0.1-2.1,1.4-1.8,2.7-1.9C149.6,108.3,151.6,110.5,151.6,115.2L151.6,115.2z"/>
<path class="st3" d="M64.9,110.3c0-3.1,0.1-6.1,0-9.1c-0.1-2.1,0.9-2.6,2.6-2.6c1.7,0,2.6,0.5,2.6,2.6c-0.1,4,0.3,7.9-0.1,11.9
	c-0.4,4.2,1.2,5.5,4.7,4.9c0.7-0.1,1.4,0,2.1,0c1.7-0.1,2.1,1.1,2.1,2.6c0,1.5-0.5,2.3-2,2.3c-3.2,0-6.5,0-9.7,0
	c-2,0-2.3-1.2-2.2-2.9C64.9,116.7,64.9,113.5,64.9,110.3L64.9,110.3z"/>
<path class="st4" d="M26.6,107c-0.3-0.1-0.6-0.1-0.8-0.2c-6.8-4-6.7-4-6.9,4.2c-0.1,3.2,1.1,6.6-0.8,9.7c0-4.9,0.1-9.8,0-14.7
	c-0.1-2.8,0.9-4.2,3.4-4.8c4.1-0.9,8.2-2.4,12.3-3.3c5.8-1.3,11.2,2.9,11.7,8.9c-0.4,0.3-0.8,0.4-1.2,0.2c-1.3-2.1-3-2.5-5.1-1.8
	c-2.6,0.8-5.2,1.5-7.8,2.1C29.8,107.7,28.1,108.3,26.6,107L26.6,107z"/>
<path class="st5" d="M31.8,150.3c-3.6-2-1.1-5.6-1.8-8.4c1-1.3,2.3-1.9,3.9-1.5c1.9,1.3,2.2,4.2,4.5,5.1c1.1,0.4,2.1,0.1,2.9-0.8
	c0.4-0.5,1-0.9,1.5-1.4c0.2-0.3,0.4-0.5,0.5-0.8c0.4-0.8,0.6-1.6,0.6-2.4c0-0.7-0.2-1.5-0.1-2.2c0-0.4,0.1-0.8,0.3-1.1
	c0.4-0.9,1.2-1.8,0.2-2.9c-0.2-0.3-0.3-0.7-0.4-1.1c-0.1-0.8,0-1.6,0-2.4c-0.2-1.3-0.5-2.6-0.4-3.9c0.1-0.8,0.3-1.4,0.7-2.1
	c1.5-1.4,3.1-1.4,4.7-0.3c0.7,0.9,0.9,2,0.9,3.1c0,2.7,0.7,5.6-1.1,8l-0.2,10.2c-1.2,2.3-3.6,1.9-5.5,2.9c-1.7,1.1-3.7,0.2-5.4,0.7
	c-0.2,0.1-0.5,0.2-0.8,0.2C35.4,150.7,33.8,151.5,31.8,150.3L31.8,150.3z"/>
<path class="st6" d="M17.3,142.8c-3.6-1.4-6.2-3.4-5.4-8.2c0.1-0.7-0.1-1.9-0.4-2.1c-5.4-2.8-2.8-8.2-3.6-12.5
	c0.3-0.3,0.6-0.5,1-0.5c2.3,1.2,4.6,2.7,6.3,4.8c0.2,0.6,0.2,1.3,0,1.9c-0.5,0.8-1,1.4-2.3,1.1c2.1,0.5,3.7,1.2,4.4,3.4l0.2,0.3
	c0.6,3.8,0.4,7.7,0.1,11.5L17.3,142.8L17.3,142.8z"/>
<path class="st7" d="M44.5,106.9c0.4,0,0.8-0.1,1.1-0.1c2,1,4.1,1.9,5.6,3.8c-5.5,3.4-11.4,5.4-17.9,4.7c-2.3-0.6-4.1-2.1-5.9-3.8
	c0.3-1.1,1.1-1.8,2.1-2C34.5,108.7,39.1,105.2,44.5,106.9L44.5,106.9z"/>
<path class="st8" d="M34.3,123.5c-4.1-0.2-6.1-2.8-7.2-7c3.3,0.3,5.3,5.1,8.9,2.4c3.8-3.1,8-4.6,12.7-3l2.4,2.9
	C46,122.4,40.4,123.8,34.3,123.5L34.3,123.5z"/>
<path class="st9" d="M48.8,115.9c-4.4,0.2-8.5,2-12.7,3c-2.6,0.3-2.7-1.6-2.7-3.6c6-1.6,11.9-3.1,17.9-4.7
	C53.1,113.8,50.6,114.7,48.8,115.9L48.8,115.9z"/>
<path class="st10" d="M34.3,123.5c5.6-1.6,11.2-3.1,16.9-4.7c1,1.2,0.8,2.5,0,3.7c-0.8,0.6-1.3,1.8-2.5,2c-1.5-0.2-3-0.4-4.2,0.8
	c-1.9,1.8-4.4,1.9-6.7,2.5c-0.7,0.1-1.3-0.1-1.8-0.6C33,127.2,33.1,125.6,34.3,123.5L34.3,123.5z"/>
<path class="st11" d="M8.8,119.8c-0.3,0-0.6,0.1-1,0.1l0.1,0c-1.5-2.7-1.4-5.5-1-8.4c2.1-1.7,4.4-1.8,6.8-0.9
	c0.2,0.1,0.3,0.3,0.3,0.6c0.6,1.5,0.3,3,0.3,4.5C14.2,120.2,13.1,121,8.8,119.8z"/>
<path class="st12" d="M7.1,111.5c1.4,2.7,0.7,5.6,0.7,8.4c-4.3-2.3-6.2-6.1-5.7-11.2C4.6,107.9,6,109.5,7.1,111.5L7.1,111.5z"/>
<path class="st13" d="M8.8,119.8c3.2-0.3,5-3.1,5.2-8.5c0.7,1.1,0.6,2.3,0.5,3.4c-0.4,3.2,0.8,5.2,3.6,5.9c0,0.9,0,1.8,0,2.8
	c-1,1-2,1.7-3.4,0.9C12.6,123,10.2,122.1,8.8,119.8z"/>
<path class="st14" d="M7.1,111.5c-1.7-0.9-3.3-1.8-5-2.7c4.5-3.8,8.1-1.5,11.6,1.8C11.6,111.4,9.4,111.7,7.1,111.5L7.1,111.5z"/>
<path class="st15" d="M54.6,127.1c-0.2,3.3,2.7,7.9-3.1,9c-0.3,0.1-0.7-0.3-1.1-0.5c-0.3-2.6-0.5-5.2,0.3-7.8
	C51.8,126,53.2,126.3,54.6,127.1L54.6,127.1z"/>
<path class="st16" d="M33.4,156.5l0-3.6c0.9-3.3,3.3-2.2,5.4-2C39.9,155.4,39.8,155.6,33.4,156.5z"/>
<path class="st17" d="M51.1,147.4c0.4,4.7-0.2,5.2-5.7,5.5c-0.9-1.1-1-2.2-0.5-3.6C46.4,146.7,48.7,147.1,51.1,147.4L51.1,147.4z"/>
<path class="st18" d="M45.4,149.1c0,1.2,0,2.5,0,3.7c-2.6-1.3-5.1-2.6-7.7-3.9c1.8-0.5,3.5-1.1,5.2-1.6
	C43.8,147.8,45,147.7,45.4,149.1L45.4,149.1z"/>
<path class="st19" d="M51.3,128.1c-0.3,2.5,0.8,5.2-0.9,7.6c-0.5-0.1-1.1-0.2-1.6-0.3c0-2.8,0.1-5.5,0.1-8.3
	C50.1,126.2,50.7,127,51.3,128.1L51.3,128.1z"/>
<path class="st20" d="M45.4,149.1c-0.8-0.6-1.7-1.2-2.5-1.7c1.9-0.7,3.8-1.3,5.7-2c0.9,0.6,2,0.8,2.5,2
	C49.2,148,47.3,148.6,45.4,149.1L45.4,149.1z"/>
<path class="st21" d="M51.3,128.1c-0.8-0.4-1.6-0.7-2.4-1.1c0-0.8-0.1-1.7-0.2-2.6c0.5-1.1,1.2-1.9,2.5-2c-0.7,3.2,3,2.6,3.5,4.7
	C53.5,127.2,52.1,126.7,51.3,128.1L51.3,128.1z"/>
<path class="st22" d="M38.8,150.9c-1.8,0.8-3.8,0.6-5.4,2c-0.7-0.8-2.8-0.6-1.5-2.7c1.7-0.4,3.4-0.7,5-1.1
	C37.5,149.8,38.1,150.3,38.8,150.9L38.8,150.9z"/>
<path class="st23" d="M44.5,106.9c-5.7,1.5-11.3,3.1-17,4.6c-1.4-1.3-0.6-3-0.9-4.5c4.8-0.4,9.3-2.2,13.9-3.4
	C43.3,102.8,44.9,103.3,44.5,106.9L44.5,106.9z"/>
<path class="st24" d="M34.2,140.8c-1.4,0.4-2.8,0.8-4.2,1.1c-0.2-2.8,0.5-5.7-0.8-8.4c1.1-1.3,2.7-1.2,4.2-1.4
	c0.5,0,0.8,0.2,1.2,0.5c0.4,0.6,0.6,1.3,0.7,2c0.1,1.7,0.2,3.4-0.2,5C34.9,140.1,34.6,140.5,34.2,140.8L34.2,140.8z"/>
<path class="st25" d="M34.3,132.9l-0.9-0.2c-1.6-0.2-3.2-0.4-3.4-2.7c0-2.3-0.2-4.7,3-2.2c0.9,0.7,2.2,0.6,3-0.6
	c0.6,0,1.1-0.1,1.7-0.1c0.3,0.4,0.5,0.8,0.6,1.3C37.7,130.6,37.7,133.5,34.3,132.9L34.3,132.9z"/>
<path class="st26" d="M30,129.9c1.1,0.9,2.3,1.8,3.4,2.7c-1.2,1.5-2.8,0.7-4.2,0.9c-1.6-1.1-3.2-2.2-5.1-3.5
	C26.3,128.2,28.1,128.9,30,129.9L30,129.9z"/>
<path class="st27" d="M17.2,130.7c-1-0.7-2-1.4-3.1-2c-2.9-1.6-0.1-1.8,0.5-2.5c1-0.8,2-2.1,3.5-0.9
	C18.2,127.1,18.5,129.1,17.2,130.7L17.2,130.7z"/>
<path class="st28" d="M17.5,142.5c0-3.8,0-7.7-0.1-11.5C18.7,134.8,18.6,138.6,17.5,142.5z"/>
<path class="st29" d="M18.1,125.3c-1.2,0.3-2.3,0.6-3.5,0.9c0-0.6,0-1.2,0-1.8c1.1-0.6,2.2-1.1,3.4-0.9
	C18.1,124,18.1,124.7,18.1,125.3L18.1,125.3z"/>
<path class="st2" d="M91.6,97.9c-6.8,0.1-11.9,5.4-12,12.6c-0.1,7.5,4.9,12.8,12,12.9l0,0c7.3,0,12.1-5,12.1-12.7
	C103.8,103.2,98.7,97.8,91.6,97.9z M91.8,118.5c-4,0-7.1-3.6-7-8c0.1-4.3,3.2-7.4,7.1-7.3c4,0.1,6.7,3.2,6.6,7.7h0
	C98.5,115.3,95.7,118.5,91.8,118.5z"/>
<path class="st30" d="M34.3,132.9c3,0.1,1.9-3.4,3.4-4.7c1.6-0.8,2,2.4,3.6,1.2c2.5-3.6,2.6,1.1,4,1.4l-1,1.9
	c0.2,1.8-0.3,3.7,0.2,5.5c0.2,0.6,1.5,0.8,0.6,1.8c-1.5,0.8-0.8,2.6-1.5,3.7h0c-1.1,0.7-1.3-1.1-2.1-1c-0.7,0.3-1.2,0.8-1.8,1.3
	c-0.7,0.9-1.8,2.6-2.5,1.6c-1-1.4-3.2-2.5-2.3-5c0.1-0.4,0.2-0.8,0.3-1.1c0.4-1.1,0.5-2.1,0-3.2c-0.4-0.6-0.7-1.3-1-1.9L34.3,132.9
	L34.3,132.9z"/>
<path class="st31" d="M41.8,130.7c-2.9,2.1-2.6-1.8-4-2.5c0-0.4,0-0.8-0.1-1.2c2.2-1.1,4.4-1.7,6.8-1.8c0,0.7,0,1.4,0,2
	C42.2,127.2,42.6,129.6,41.8,130.7L41.8,130.7z"/>
<path class="st32" d="M39.4,142.9c0.7-0.7,1.5-1.2,2.5-0.9c0.6,0.8,0.6,1.6,0.1,2.5c0.4,3.6-1.8,2.3-3.5,2.1
	C39.1,145.4,38.6,143.9,39.4,142.9L39.4,142.9z"/>
<path class="st33" d="M39.4,142.9c0,1.3,0.3,2.7-0.8,3.6c-3.1-0.4-3.9-2.9-4.3-5.7c0-0.3,0-0.5,0.1-0.8c0.6-0.6,1.1-0.5,1.7,0
	c-2.2,2.6,1.5,3.6,1.3,5.6C39.3,145.8,38.2,143.3,39.4,142.9z"/>
<path class="st30" d="M41.8,130.7c0.5-1.5-0.6-4.4,2.7-3.5c-0.4,1.4,0.5,2.4,0.9,3.5C44.2,130.8,43,127.9,41.8,130.7z"/>
<path class="st34" d="M44.6,133.6c5,1-0.5,2.5,0.1,3.7C43.7,136,43.9,134.8,44.6,133.6z"/>
<path class="st30" d="M44.6,133.6c-0.3,1.2-0.4,2.5,0.1,3.7l-0.2,0.9c-1.3-1.8-1.2-3.6-0.2-5.5L44.6,133.6z"/>
<path class="st30" d="M43.7,143.7c0.1-1.4-0.7-3.3,1.5-3.7C44.7,141.2,44.2,142.5,43.7,143.7z"/>
<path class="st30" d="M42,144.4l-0.1-2.5c1.6-0.6,0.7,1.8,1.8,1.8C43.3,144.5,42.7,144.4,42,144.4L42,144.4z"/>
<path class="st5" d="M36,140c-0.6,0-1.1,0-1.7,0c0-1.9,0-3.8,0-5.6c0.5,0.3,1.1,0.7,1.6,1C36.6,136.9,36.6,138.4,36,140L36,140
	L36,140z"/>
<path class="st35" d="M41.7,139c-0.9-0.8-2.4,2.4-2.8-0.3c-0.4-2.4-0.7-5.2,2.9-5.1C42.7,135.4,42.8,137.2,41.7,139z"/>
<path class="st30" d="M41.7,139c0.5-1.8,0.5-3.6,0.1-5.4C43.3,135.4,43.4,137.2,41.7,139z"/>
<path class="st36" d="M36,140c0-1.5,0-3.1,0-4.6C37.3,136.9,37.2,138.5,36,140z"/>
</svg>
