<?xml version="1.0" encoding="utf-8"?>
<!-- Generator: Adobe Illustrator 26.0.3, SVG Export Plug-In . SVG Version: 6.00 Build 0)  -->
<svg version="1.0" id="katman_1" xmlns="http://www.w3.org/2000/svg" xmlns:xlink="http://www.w3.org/1999/xlink" x="0px" y="0px"
	 viewBox="0 0 600 450" style="enable-background:new 0 0 600 450;" xml:space="preserve">
<style type="text/css">
	.st0{fill:url(#SVGID_1_);}
	.st1{fill:#323335;}
</style>
<linearGradient id="SVGID_1_" gradientUnits="userSpaceOnUse" x1="369.2653" y1="121.5211" x2="424.897" y2="177.0414" gradientTransform="matrix(1 0 0 -1 -120.9449 379.3622)">
	<stop  offset="0" style="stop-color:#AEC6E2"/>
	<stop  offset="1" style="stop-color:#3C4B5D"/>
</linearGradient>
<path class="st0" d="M317,236.4c-0.6,2.2-1.5,4.2-2.5,6.1c-0.3,0.6-0.6,1.2-1,1.8c-1.7,2.5-4.8,4.2-8,4.2c-2.9,0-5.6-1.3-7.4-3.4
	c-0.1-0.1-0.2-0.2-0.3-0.3c-1.8-2.1-4.4-3.4-7.4-3.4c-0.8,0-1.4,0.1-2.1,0.2v20.3c-2.2,0.4-4.5,0.6-6.8,0.6
	c-20.5,0-37.1-16.7-37.1-37.2c0-20.5,16.4-37.3,37-37.3c3.9,0,7.7,0.7,11.2,1.7l-11,11.1l6.7,6.7l23.6,23.6l1,1L317,236.4z"/>
<path class="st1" d="M51.7,235.8l3.5-1.7c1.8,4.2,6.1,6.5,11.5,6.5c5.8,0,10.3-3,10.3-8.2c0-5.6-5.1-6.7-10.6-7.9
	c-6.4-1.4-13.6-3.3-13.6-11.7c0-6.6,6.2-11.7,13.5-11.7c6.1,0,11.6,2.9,13.8,8.5l-3.4,1.7c-1.9-4.1-5.6-6.4-10.6-6.4
	c-5,0-9.3,3.3-9.3,7.7c0,5.6,5.2,6.7,10.8,7.9c6.4,1.4,13.5,3.3,13.5,11.8c-0.2,7.5-6.5,12.2-14.5,12.2
	C59.9,244.5,54,241.5,51.7,235.8z"/>
<path class="st1" d="M88.1,244.1v-42.4h4v19.4h25.1v-19.4h4v42.4h-4v-19.3H92.1V244h-4V244.1z"/>
<path class="st1" d="M135.6,201.7v42.4h-4v-42.4H135.6z"/>
<path class="st1" d="M142.8,244.1l6.1-38.5c0.5-3,2.7-4.7,5.4-4.7c2.4,0,4.5,1.2,5.3,3.9l9.1,32.2c0.2,1,0.4,1.3,1,1.3
	c0.5,0,0.8-0.4,1-1.3l9.1-32.1c0.8-2.7,2.9-4,5.3-4c2.6,0,4.8,1.6,5.3,4.8l5.5,38.1h-4l-5.2-37.1c-0.2-1.4-0.5-2.3-1.7-2.3
	c-0.9,0-1.5,0.8-1.8,2.1l-9.4,32.3c-0.5,1.9-2.2,3-4,3c-1.7,0-3.5-1-4-2.9l-9.4-32.5c-0.4-1.3-0.9-2-1.7-2c-0.9,0-1.6,0.8-1.8,2.3
	l-5.7,37.2h-4.1V244.1z"/>
<path class="st1" d="M210.8,206.1c1.1-3.5,3.6-5.1,6.8-5.1c3.1,0,5.7,1.6,6.8,5.1l11.9,37.9h-4.1l-3.6-11.8l-21.8,0.1l-3.8,11.7
	h-4.1L210.8,206.1z M207.8,228.5h19.6l-6.5-21.1c-0.5-1.7-1.6-2.6-3.2-2.6c-1.7,0-2.7,0.9-3.2,2.6L207.8,228.5z"/>
<path class="st1" d="M325.2,222.8c0-12.1,9.5-21.8,21.1-21.8c7.1,0,13.4,3.6,16.8,9.4l-3.2,1.9c-2.8-4.7-7.9-7.6-13.5-7.6
	c-9.2,0-16.9,7.9-16.9,18c0,10.2,7.6,18.1,16.9,18.1c5.6,0,10.7-2.8,13.5-7.5l3.2,2c-3.4,5.9-9.6,9.4-16.8,9.4
	C334.7,244.7,325.2,235.1,325.2,222.8z"/>
<path class="st1" d="M375.2,206.1c1.1-3.5,3.6-5.1,6.8-5.1c3.2,0,5.7,1.6,6.8,5.1l11.9,37.9h-4.1l-3.6-11.8l-21.8,0.1l-3.8,11.7
	h-4.1L375.2,206.1z M372.1,228.5h19.6l-6.5-21.1c-0.5-1.7-1.6-2.6-3.2-2.6c-1.7,0-2.7,0.9-3.2,2.6L372.1,228.5z"/>
<path class="st1" d="M406.7,244.1v-42.4h12.2c10.8,0,18.2,4.8,18.2,14.6c0,10.2-7.7,14.7-18.1,14.7h-8.3v13.1h-4V244.1z
	 M410.7,205.5v21.7h8.2c7.8,0,13.9-3.1,13.9-10.9c0-7.5-5.7-10.8-13.9-10.8h-8.2V205.5z"/>
<path class="st1" d="M446.7,201.7v42.4h-4v-42.4H446.7z"/>
<path class="st1" d="M481.8,205.5h-13.5v38.6h-4v-38.6h-13.4v-3.8h30.9V205.5z"/>
<path class="st1" d="M491,206.1c1.1-3.5,3.6-5.1,6.8-5.1c3.2,0,5.7,1.6,6.8,5.1l11.9,37.9h-4.2l-3.6-11.8l-21.8,0.1l-3.7,11.8h-4.1
	L491,206.1z M487.9,228.5h19.6l-6.5-21.1c-0.5-1.7-1.6-2.6-3.2-2.6c-1.7,0-2.7,0.9-3.2,2.6L487.9,228.5z"/>
<path class="st1" d="M526.5,240.3h22.1v3.8h-22.1c-3,0-4-1.5-4-4v-38.4h4V240.3z"/>
</svg>
