<?xml version="1.0" encoding="utf-8"?>
<!-- Generator: Adobe Illustrator 26.3.1, SVG Export Plug-In . SVG Version: 6.00 Build 0)  -->
<svg version="1.1" id="katman_1" xmlns="http://www.w3.org/2000/svg" xmlns:xlink="http://www.w3.org/1999/xlink" x="0px" y="0px"
	 viewBox="0 0 300 100" style="enable-background:new 0 0 300 100;" xml:space="preserve">
<style type="text/css">
	.st0{fill:url(#SVGID_1_);}
	.st1{fill:#323335;}
</style>
<linearGradient id="SVGID_1_" gradientUnits="userSpaceOnUse" x1="250.6893" y1="-216.2092" x2="272.3845" y2="-237.8609" gradientTransform="matrix(1 0 0 1 -120.9449 279.3622)">
	<stop  offset="0" style="stop-color:#AEC6E2"/>
	<stop  offset="1" style="stop-color:#3C4B5D"/>
</linearGradient>
<path class="st0" d="M156.6,54.8c-0.2,0.9-0.6,1.6-1,2.4c-0.1,0.2-0.2,0.5-0.4,0.7c-0.7,1-1.9,1.6-3.1,1.6c-1.1,0-2.2-0.5-2.9-1.3
	c0,0-0.1-0.1-0.1-0.1c-0.7-0.8-1.7-1.3-2.9-1.3c-0.3,0-0.5,0-0.8,0.1v7.9c-0.9,0.2-1.8,0.2-2.7,0.2c-8,0-14.5-6.5-14.5-14.5
	s6.4-14.5,14.4-14.5c1.5,0,3,0.3,4.4,0.7l-4.3,4.3l2.6,2.6l9.2,9.2l0.4,0.4L156.6,54.8z"/>
<path class="st1" d="M53.1,54.6l1.4-0.7c0.7,1.6,2.4,2.5,4.5,2.5c2.3,0,4-1.2,4-3.2c0-2.2-2-2.6-4.1-3.1c-2.5-0.5-5.3-1.3-5.3-4.6
	c0-2.6,2.4-4.6,5.3-4.6c2.4,0,4.5,1.1,5.4,3.3L62.8,45c-0.7-1.6-2.2-2.5-4.1-2.5s-3.6,1.3-3.6,3c0,2.2,2,2.6,4.2,3.1
	c2.5,0.5,5.3,1.3,5.3,4.6C64.5,56.1,62,58,58.9,58C56.3,58,54,56.8,53.1,54.6z"/>
<path class="st1" d="M67.3,57.8V41.3h1.6v7.6h9.8v-7.6h1.6v16.5h-1.6v-7.5h-9.8v7.5L67.3,57.8L67.3,57.8z"/>
<path class="st1" d="M85.8,41.3v16.5h-1.6V41.3L85.8,41.3L85.8,41.3z"/>
<path class="st1" d="M88.6,57.8l2.4-15c0.2-1.2,1.1-1.8,2.1-1.8c0.9,0,1.8,0.5,2.1,1.5l3.5,12.6c0.1,0.4,0.2,0.5,0.4,0.5
	c0.2,0,0.3-0.2,0.4-0.5l3.5-12.5c0.3-1.1,1.1-1.6,2.1-1.6c1,0,1.9,0.6,2.1,1.9l2.1,14.9h-1.6l-2-14.5c-0.1-0.5-0.2-0.9-0.7-0.9
	c-0.4,0-0.6,0.3-0.7,0.8l-3.7,12.6c-0.2,0.7-0.9,1.2-1.6,1.2c-0.7,0-1.4-0.4-1.6-1.1l-3.7-12.7c-0.2-0.5-0.4-0.8-0.7-0.8
	c-0.4,0-0.6,0.3-0.7,0.9l-2.2,14.5h-1.6v0.1H88.6z"/>
<path class="st1" d="M115.1,43c0.4-1.4,1.4-2,2.7-2c1.2,0,2.2,0.6,2.7,2l4.6,14.8h-1.6l-1.4-4.6l-8.5,0l-1.5,4.6h-1.6L115.1,43z
	 M114,51.7h7.6l-2.5-8.2c-0.2-0.7-0.6-1-1.2-1c-0.7,0-1.1,0.4-1.2,1L114,51.7z"/>
<path class="st1" d="M159.8,49.5c0-4.7,3.7-8.5,8.2-8.5c2.8,0,5.2,1.4,6.6,3.7l-1.2,0.7c-1.1-1.8-3.1-3-5.3-3c-3.6,0-6.6,3.1-6.6,7
	c0,4,3,7.1,6.6,7.1c2.2,0,4.2-1.1,5.3-2.9l1.2,0.8c-1.3,2.3-3.7,3.7-6.6,3.7C163.5,58.1,159.8,54.3,159.8,49.5z"/>
<path class="st1" d="M179.3,43c0.4-1.4,1.4-2,2.7-2c1.2,0,2.2,0.6,2.7,2l4.6,14.8h-1.6l-1.4-4.6l-8.5,0l-1.5,4.6h-1.6L179.3,43z
	 M178,51.7h7.6l-2.5-8.2c-0.2-0.7-0.6-1-1.2-1c-0.7,0-1.1,0.4-1.2,1L178,51.7z"/>
<path class="st1" d="M191.5,57.8V41.3h4.8c4.2,0,7.1,1.9,7.1,5.7c0,4-3,5.7-7.1,5.7h-3.2v5.1L191.5,57.8L191.5,57.8L191.5,57.8z
	 M193.1,42.8v8.5h3.2c3,0,5.4-1.2,5.4-4.3c0-2.9-2.2-4.2-5.4-4.2H193.1L193.1,42.8z"/>
<path class="st1" d="M207.1,41.3v16.5h-1.6V41.3L207.1,41.3L207.1,41.3z"/>
<path class="st1" d="M220.8,42.8h-5.3v15.1H214V42.8h-5.2v-1.5h12.1V42.8z"/>
<path class="st1" d="M224.4,43c0.4-1.4,1.4-2,2.7-2c1.2,0,2.2,0.6,2.7,2l4.6,14.8h-1.6l-1.4-4.6l-8.5,0l-1.4,4.6h-1.6L224.4,43z
	 M223.2,51.7h7.6l-2.5-8.2c-0.2-0.7-0.6-1-1.2-1c-0.7,0-1.1,0.4-1.2,1L223.2,51.7z"/>
<path class="st1" d="M238.3,56.3h8.6v1.5h-8.6c-1.2,0-1.6-0.6-1.6-1.6v-15h1.6V56.3z"/>
</svg>
