<?xml version="1.0" encoding="utf-8"?>
<!-- Generator: Adobe Illustrator 26.3.1, SVG Export Plug-In . SVG Version: 6.00 Build 0)  -->
<svg version="1.1" id="katman_1" xmlns="http://www.w3.org/2000/svg" xmlns:xlink="http://www.w3.org/1999/xlink" x="0px" y="0px"
	 viewBox="0 0 256 256" style="enable-background:new 0 0 256 256;" xml:space="preserve">
<style type="text/css">
	.st0{display:none;fill:#FFFFFF;}
</style>
<path class="st0" d="M25.5,157.2v-132h205v205.7h-205c0-16.4,0-32.8,0-49.1c5.3,14.1,10.5,28.2,15.8,42.3c1.5-0.2,2.9-0.4,4.3-0.6
	c0.4-6.3,2.2-12.9,1.1-18.9c-6.6-34.6,6.6-62.2,33.5-82.1c23-17,49.6-29.2,73.9-44.5c20.6-12.9,40.4-27.2,60.6-40.9
	c-3.4-2.3-5.6-2.6-7.3-1.8c-37.9,16.2-76.4,31.3-113.4,49.2C62.4,99.6,36.3,121.9,25.5,157.2z M203.4,68
	c-37.2,8.1-103.4,44-126.2,67.5c-25,25.7-29.5,56.8-12.7,90.9C89.9,156.6,148.1,115.3,203.4,68z M154.1,137.6
	c-25.8,14.5-50.3,29.8-54.5,64.1C118.8,179.2,136.5,158.4,154.1,137.6z"/>
<path d="M25.5,157.2c10.8-35.3,36.9-57.5,68.6-72.8c37.1-17.9,75.5-33,113.4-49.2c1.7-0.7,3.9-0.5,7.3,1.8
	c-20.2,13.7-40,28-60.6,40.9c-24.4,15.3-50.9,27.6-73.9,44.5c-26.9,19.8-40.2,47.4-33.5,82.1c1.2,6-0.7,12.6-1.1,18.9
	c-1.5,0.2-2.9,0.4-4.3,0.6c-5.3-14.1-10.5-28.2-15.8-42.3C25.5,173.5,25.5,165.4,25.5,157.2z"/>
<path d="M203.4,68c-55.3,47.3-113.6,88.5-138.9,158.4c-16.8-34.2-12.2-65.2,12.7-90.9C100.1,112,166.3,76.1,203.4,68z"/>
<path d="M154.1,137.6c-17.7,20.8-35.3,41.6-54.5,64.1C103.8,167.4,128.4,152.1,154.1,137.6z"/>
</svg>
