<?xml version="1.0" encoding="UTF-8"?><svg id="katman_1" xmlns="http://www.w3.org/2000/svg" viewBox="0 0 256 256"><defs><style>.cls-1{fill:#fff;}</style></defs><path class="cls-1" d="M25.5,157.17V25.15H230.5V230.85H25.5c0-16.37,0-32.75,0-49.12,5.26,14.09,10.52,28.17,15.78,42.26,1.45-.21,2.9-.41,4.35-.62,.44-6.33,2.24-12.91,1.08-18.93-6.64-34.64,6.64-62.23,33.54-82.05,23.04-16.97,49.56-29.25,73.94-44.53,20.65-12.95,40.44-27.23,60.61-40.93-3.43-2.32-5.59-2.56-7.33-1.82-37.9,16.21-76.36,31.29-113.42,49.21-31.66,15.31-57.71,37.54-68.55,72.85ZM203.43,68.04c-37.16,8.08-103.36,43.98-126.22,67.52-24.96,25.7-29.49,56.75-12.73,90.93,25.39-69.9,83.61-111.15,138.95-158.45Zm-49.31,69.56c-25.75,14.51-50.31,29.79-54.47,64.12,19.16-22.55,36.81-43.33,54.47-64.12Z"/><path d="M25.5,157.17c10.84-35.3,36.89-57.54,68.55-72.85,37.06-17.92,75.52-33,113.42-49.21,1.73-.74,3.9-.5,7.33,1.82-20.17,13.69-39.96,27.98-60.61,40.93-24.38,15.29-50.9,27.56-73.94,44.53-26.9,19.82-40.18,47.41-33.54,82.05,1.16,6.03-.65,12.61-1.08,18.93-1.45,.21-2.9,.41-4.35,.62-5.26-14.09-10.52-28.17-15.78-42.26,0-8.19,0-16.37,0-24.56Z"/><path d="M203.43,68.04c-55.34,47.3-113.56,88.55-138.95,158.45-16.76-34.18-12.23-65.23,12.73-90.93,22.87-23.54,89.06-59.45,126.22-67.52Z"/><path d="M154.12,137.6c-17.66,20.78-35.31,41.57-54.47,64.12,4.16-34.32,28.72-49.61,54.47-64.12Z"/></svg>