<?xml version="1.0" encoding="UTF-8"?><svg id="katman_1" xmlns="http://www.w3.org/2000/svg" xmlns:xlink="http://www.w3.org/1999/xlink" viewBox="0 0 600 450"><defs><style>.cls-1{mask:url(#mask);}.cls-2,.cls-3{fill:#fff;}.cls-4{fill:#dad6e5;}.cls-3{fill-rule:evenodd;}.cls-5{mask:url(#mask-3);}.cls-6{mask:url(#mask-2);}.cls-7{mask:url(#mask-5);}.cls-8{mask:url(#mask-4);}.cls-9{mask:url(#mask-1);}</style><mask id="mask" x="306.1" y="170.47" width="47.04" height="108.99" maskUnits="userSpaceOnUse"><g id="wlzn63c1jb"><path id="tq40f5y1sa" class="cls-3" d="M306.1,170.47h47.04v108.99h-47.04v-108.99Z"/></g></mask><mask id="mask-1" x="361.29" y="171.41" width="51.2" height="107.18" maskUnits="userSpaceOnUse"><g id="z0w91rcf3d"><path id="t9q31cwyxc" class="cls-3" d="M361.29,171.41h51.2v107.18h-51.2v-107.18Z"/></g></mask><mask id="mask-2" x="252.55" y="180.36" width="41.06" height="99.17" maskUnits="userSpaceOnUse"><g id="w47wgyc0af"><path id="wpqtw7uyie" class="cls-3" d="M252.55,180.36h41.06v99.16h-41.06v-99.16Z"/></g></mask><mask id="mask-3" x="306.1" y="170.47" width="47.04" height="108.99" maskUnits="userSpaceOnUse"><g id="_26p6ribjh"><path id="_kl9d6hq4g" class="cls-3" d="M306.1,170.47h47.04v108.99h-47.04v-108.99Z"/></g></mask><mask id="mask-4" x="361.29" y="171.41" width="51.2" height="107.18" maskUnits="userSpaceOnUse"><g id="wbubdf2rkj"><path id="_ko0rgnbti" class="cls-3" d="M361.29,171.41h51.2v107.18h-51.2v-107.18Z"/></g></mask><mask id="mask-5" x="252.55" y="180.36" width="41.06" height="99.17" maskUnits="userSpaceOnUse"><g id="hu9o0rcphl"><path id="ea80l25vhk" class="cls-3" d="M252.55,180.36h41.06v99.16h-41.06v-99.16Z"/></g></mask></defs><g transform="translate(70.204 .959)"><g class="cls-1"><path class="cls-2" d="M353.13,202.23h-13.71v-3.46c0-3.51-.74-6.55-2.22-9.11-1.48-2.56-3.96-3.84-7.46-3.84-1.88,0-3.42,.4-4.63,1.21-1.16,.75-2.13,1.81-2.83,3.08-.67,1.26-1.14,2.71-1.41,4.37-.27,1.71-.41,3.45-.4,5.19,0,2.11,.07,3.89,.2,5.34,.14,1.45,.47,2.71,1.01,3.76,.54,1.05,1.32,1.98,2.35,2.78,1.03,.81,2.44,1.61,4.23,2.41l10.48,4.67c3.04,1.3,5.51,2.84,7.39,4.59,1.84,1.69,3.33,3.8,4.37,6.17,1.03,2.36,1.72,5.07,2.08,8.13,.36,3.06,.54,6.55,.54,10.46,0,4.51-.4,8.71-1.21,12.57-.8,3.86-2.13,7.18-3.96,9.94-1.84,2.76-4.28,4.94-7.32,6.55-3.05,1.61-6.77,2.41-11.16,2.41-3.31,0-6.41-.65-9.27-1.95-2.87-1.3-5.33-3.09-7.39-5.34-2.06-2.26-3.7-4.94-4.91-8.06-1.21-3.11-1.81-6.47-1.81-10.09v-5.72h13.71v4.82c0,2.81,.74,5.35,2.22,7.6,1.48,2.26,3.97,3.39,7.46,3.39,2.33,0,4.14-.38,5.44-1.13,1.3-.75,2.29-1.8,2.95-3.16,.67-1.36,1.1-3.04,1.28-5.04,.18-2.01,.27-4.22,.27-6.62,0-2.81-.09-5.12-.27-6.92-.18-1.81-.56-3.26-1.14-4.37-.59-1.11-1.42-2.04-2.42-2.71-1.03-.7-2.4-1.45-4.1-2.26l-9.81-4.51c-5.91-2.71-9.88-6.3-11.89-10.77-2.02-4.46-3.02-10.06-3.02-16.78,0-4.01,.49-7.83,1.48-11.44,.98-3.61,2.44-6.72,4.37-9.33,1.92-2.61,4.37-4.69,7.32-6.24,2.95-1.55,6.41-2.33,10.35-2.33,3.4,0,6.52,.7,9.34,2.11,2.82,1.41,5.24,3.26,7.25,5.57,1.97,2.24,3.55,4.87,4.64,7.75,1.08,2.86,1.61,5.79,1.61,8.8v7.53Z"/></g></g><g transform="translate(102.519 1.458)"><g class="cls-9"><path class="cls-2" d="M392.87,278.6h-12.09l-19.49-107.18h14.51l10.88,74.82h.27l11.02-74.82h14.51l-19.62,107.18Z"/></g></g><g transform="translate(38.852 6.197)"><g class="cls-6"><path class="cls-2" d="M291.59,185.25c-.69-1.73-1.56-3.36-2.57-4.88l-9.13,22.46v50.49c0,3.72-.92,6.45-2.76,8.21s-4.01,2.63-6.52,2.63-4.69-.88-6.52-2.63c-1.84-1.76-2.76-4.49-2.76-8.21v-4.82l-8.8,21.64c.74,1.03,1.54,1.97,2.41,2.83,2.16,2.14,4.67,3.8,7.39,4.9,2.73,1.1,5.49,1.66,8.27,1.66s5.53-.56,8.27-1.66c2.72-1.1,5.23-2.76,7.4-4.9,2.19-2.16,3.97-4.87,5.31-8.13,1.34-3.26,2.02-7.1,2.02-11.52v-56.63c0-4.32-.67-8.13-2.02-11.45"/></g></g><g transform="translate(70.204 .959)"><g class="cls-5"><path class="cls-2" d="M353.13,202.23h-13.71v-3.46c0-3.51-.74-6.55-2.22-9.11-1.48-2.56-3.96-3.84-7.46-3.84-1.88,0-3.42,.4-4.63,1.21-1.16,.75-2.13,1.81-2.83,3.08-.67,1.26-1.14,2.71-1.41,4.37-.27,1.71-.41,3.45-.4,5.19,0,2.11,.07,3.89,.2,5.34,.14,1.45,.47,2.71,1.01,3.76,.54,1.05,1.32,1.98,2.35,2.78,1.03,.81,2.44,1.61,4.23,2.41l10.48,4.67c3.04,1.3,5.51,2.84,7.39,4.59,1.84,1.69,3.33,3.8,4.37,6.17,1.03,2.36,1.72,5.07,2.08,8.13,.36,3.06,.54,6.55,.54,10.46,0,4.51-.4,8.71-1.21,12.57-.8,3.86-2.13,7.18-3.96,9.94-1.84,2.76-4.28,4.94-7.32,6.55-3.05,1.61-6.77,2.41-11.16,2.41-3.31,0-6.41-.65-9.27-1.95-2.87-1.3-5.33-3.09-7.39-5.34-2.06-2.26-3.7-4.94-4.91-8.06-1.21-3.11-1.81-6.47-1.81-10.09v-5.72h13.71v4.82c0,2.81,.74,5.35,2.22,7.6,1.48,2.26,3.97,3.39,7.46,3.39,2.33,0,4.14-.38,5.44-1.13,1.3-.75,2.29-1.8,2.95-3.16,.67-1.36,1.1-3.04,1.28-5.04,.18-2.01,.27-4.22,.27-6.62,0-2.81-.09-5.12-.27-6.92-.18-1.81-.56-3.26-1.14-4.37-.59-1.11-1.42-2.04-2.42-2.71-1.03-.7-2.4-1.45-4.1-2.26l-9.81-4.51c-5.91-2.71-9.88-6.3-11.89-10.77-2.02-4.46-3.02-10.06-3.02-16.78,0-4.01,.49-7.83,1.48-11.44,.98-3.61,2.44-6.72,4.37-9.33,1.92-2.61,4.37-4.69,7.32-6.24,2.95-1.55,6.41-2.33,10.35-2.33,3.4,0,6.52,.7,9.34,2.11,2.82,1.41,5.24,3.26,7.25,5.57,1.97,2.24,3.55,4.87,4.64,7.75,1.08,2.86,1.61,5.79,1.61,8.8v7.53Z"/></g></g><g transform="translate(102.519 1.458)"><g class="cls-8"><path class="cls-2" d="M392.87,278.6h-12.09l-19.49-107.18h14.51l10.88,74.82h.27l11.02-74.82h14.51l-19.62,107.18Z"/></g></g><g transform="translate(38.852 6.197)"><g class="cls-7"><path class="cls-2" d="M291.59,185.25c-.69-1.73-1.56-3.36-2.57-4.88l-9.13,22.46v50.49c0,3.72-.92,6.45-2.76,8.21s-4.01,2.63-6.52,2.63-4.69-.88-6.52-2.63c-1.84-1.76-2.76-4.49-2.76-8.21v-4.82l-8.8,21.64c.74,1.03,1.54,1.97,2.41,2.83,2.16,2.14,4.67,3.8,7.39,4.9,2.73,1.1,5.49,1.66,8.27,1.66s5.53-.56,8.27-1.66c2.72-1.1,5.23-2.76,7.4-4.9,2.19-2.16,3.97-4.87,5.31-8.13,1.34-3.26,2.02-7.1,2.02-11.52v-56.63c0-4.32-.67-8.13-2.02-11.45"/></g></g><path class="cls-4" d="M234.54,202.26h-13.71v-3.46c0-3.51-.74-6.55-2.22-9.11-1.48-2.56-3.96-3.84-7.46-3.84-1.88,0-3.43,.4-4.64,1.21-1.16,.75-2.13,1.81-2.82,3.09-.67,1.25-1.14,2.71-1.41,4.36-.28,1.72-.41,3.45-.4,5.2,0,2.11,.07,3.89,.2,5.34,.14,1.45,.47,2.71,1.01,3.76,.54,1.05,1.32,1.98,2.35,2.79,1.03,.81,2.44,1.61,4.24,2.41l10.48,4.67c3.05,1.31,5.51,2.84,7.39,4.59,1.83,1.69,3.32,3.8,4.37,6.17,1.03,2.36,1.72,5.07,2.08,8.13,.35,3.06,.53,6.55,.53,10.46,0,4.51-.4,8.71-1.21,12.57-.81,3.86-2.13,7.17-3.96,9.94-1.84,2.76-4.28,4.94-7.33,6.55-3.05,1.6-6.76,2.41-11.15,2.41-3.31,0-6.41-.66-9.27-1.96-2.87-1.3-5.33-3.09-7.39-5.34-2.06-2.26-3.7-4.94-4.91-8.05-1.21-3.11-1.81-6.47-1.81-10.09v-5.72h13.71v4.82c0,2.81,.74,5.34,2.22,7.6,1.48,2.26,3.96,3.39,7.46,3.39,2.33,0,4.14-.38,5.44-1.13,1.3-.76,2.29-1.81,2.96-3.16,.67-1.35,1.1-3.03,1.28-5.04,.18-2.01,.27-4.21,.27-6.62,0-2.81-.09-5.12-.27-6.92-.18-1.81-.56-3.26-1.14-4.37-.59-1.11-1.42-2.04-2.42-2.71-1.03-.7-2.4-1.45-4.1-2.26l-9.81-4.52c-5.91-2.71-9.88-6.3-11.89-10.76-2.02-4.46-3.02-10.06-3.02-16.79,0-4.01,.49-7.83,1.48-11.44,.98-3.61,2.44-6.72,4.37-9.33,1.93-2.61,4.37-4.69,7.33-6.25,2.95-1.55,6.4-2.33,10.35-2.33,3.4,0,6.52,.7,9.34,2.11,2.82,1.41,5.24,3.26,7.26,5.57,1.97,2.24,3.55,4.87,4.64,7.75,1.08,2.86,1.61,5.8,1.61,8.81v7.53h0Zm26.8-5.57c0-3.71,.92-6.45,2.76-8.21,1.84-1.76,4.01-2.63,6.52-2.63,.36,0,.73,.02,1.08,.06l5.8-14.27c-2.23-.76-4.55-1.15-6.88-1.15-2.78,0-5.54,.55-8.27,1.66-2.72,1.1-5.23,2.76-7.4,4.9-2.19,2.16-3.96,4.89-5.31,8.21-1.34,3.31-2.02,7.13-2.02,11.45v56.63c0,4.42,.67,8.26,2.02,11.52,.77,1.89,1.75,3.67,2.9,5.3l8.79-21.65v-51.81Z"/></svg>