<?xml version="1.0" encoding="UTF-8"?><svg id="katman_1" xmlns="http://www.w3.org/2000/svg" xmlns:xlink="http://www.w3.org/1999/xlink" viewBox="0 0 256 256"><defs><style>.cls-1{mask:url(#mask);}.cls-2,.cls-3{fill:#fff;}.cls-4{fill:#dad6e5;}.cls-3{fill-rule:evenodd;}.cls-5{mask:url(#mask-3);}.cls-6{mask:url(#mask-2);}.cls-7{mask:url(#mask-5);}.cls-8{mask:url(#mask-4);}.cls-9{mask:url(#mask-1);}</style><mask id="mask" x="131.18" y="99.33" width="27.54" height="57.7" maskUnits="userSpaceOnUse"><g id="wlzn63c1jb"><path id="tq40f5y1sa" class="cls-3" d="M131.18,99.33h27.54v57.7h-27.54v-57.7Z"/></g></mask><mask id="mask-1" x="163.49" y="99.83" width="29.98" height="56.75" maskUnits="userSpaceOnUse"><g id="z0w91rcf3d"><path id="t9q31cwyxc" class="cls-3" d="M163.49,99.83h29.98v56.75h-29.98v-56.75Z"/></g></mask><mask id="mask-2" x="99.83" y="104.57" width="24.04" height="52.5" maskUnits="userSpaceOnUse"><g id="w47wgyc0af"><path id="wpqtw7uyie" class="cls-3" d="M99.83,104.57h24.04v52.5h-24.04v-52.5Z"/></g></mask><mask id="mask-3" x="131.18" y="99.33" width="27.54" height="57.7" maskUnits="userSpaceOnUse"><g id="_26p6ribjh"><path id="_kl9d6hq4g" class="cls-3" d="M131.18,99.33h27.54v57.7h-27.54v-57.7Z"/></g></mask><mask id="mask-4" x="163.49" y="99.83" width="29.98" height="56.75" maskUnits="userSpaceOnUse"><g id="wbubdf2rkj"><path id="_ko0rgnbti" class="cls-3" d="M163.49,99.83h29.98v56.75h-29.98v-56.75Z"/></g></mask><mask id="mask-5" x="99.83" y="104.57" width="24.04" height="52.5" maskUnits="userSpaceOnUse"><g id="hu9o0rcphl"><path id="ea80l25vhk" class="cls-3" d="M99.83,104.57h24.04v52.5h-24.04v-52.5Z"/></g></mask></defs><g transform="translate(70.204 .959)"><g class="cls-1"><path class="cls-2" d="M158.72,116.15h-8.02v-1.83c0-1.86-.43-3.47-1.3-4.82-.87-1.36-2.32-2.03-4.37-2.03-1.1,0-2.01,.21-2.71,.64-.68,.4-1.25,.96-1.65,1.63-.39,.66-.67,1.43-.83,2.31-.16,.91-.24,1.83-.24,2.75,0,1.12,.04,2.06,.12,2.83,.08,.77,.28,1.43,.59,1.99,.31,.56,.77,1.05,1.38,1.47,.6,.43,1.43,.85,2.48,1.28l6.14,2.47c1.78,.69,3.23,1.5,4.33,2.43,1.08,.9,1.95,2.01,2.56,3.27,.6,1.25,1.01,2.68,1.22,4.3,.21,1.62,.31,3.47,.31,5.54,0,2.39-.24,4.61-.71,6.65-.47,2.05-1.25,3.8-2.32,5.26-1.08,1.46-2.51,2.62-4.29,3.47-1.78,.85-3.96,1.27-6.53,1.27-1.94,0-3.75-.35-5.43-1.03-1.68-.69-3.12-1.63-4.33-2.83-1.21-1.2-2.16-2.62-2.87-4.26-.71-1.65-1.06-3.43-1.06-5.34v-3.03h8.02v2.55c0,1.49,.43,2.83,1.3,4.03,.87,1.19,2.32,1.79,4.37,1.79,1.36,0,2.43-.2,3.19-.6,.76-.4,1.34-.96,1.73-1.67,.4-.72,.64-1.61,.75-2.67,.1-1.06,.16-2.23,.16-3.51,0-1.49-.05-2.71-.16-3.67-.1-.96-.33-1.72-.67-2.31-.35-.59-.83-1.08-1.42-1.44-.6-.37-1.4-.77-2.4-1.2l-5.74-2.39c-3.46-1.43-5.78-3.33-6.96-5.7-1.18-2.36-1.77-5.33-1.77-8.89,0-2.12,.29-4.14,.87-6.06,.58-1.91,1.43-3.56,2.56-4.94,1.13-1.38,2.56-2.48,4.29-3.31,1.73-.82,3.75-1.23,6.06-1.23,1.99,0,3.82,.37,5.47,1.12,1.65,.75,3.07,1.73,4.25,2.95,1.16,1.18,2.08,2.58,2.72,4.1,.63,1.51,.94,3.07,.94,4.66v3.99Z"/></g></g><g transform="translate(102.519 1.458)"><g class="cls-9"><path class="cls-2" d="M181.98,156.58h-7.08l-11.41-56.75h8.5l6.37,39.61h.16l6.45-39.61h8.5l-11.49,56.75Z"/></g></g><g transform="translate(38.852 6.197)"><g class="cls-6"><path class="cls-2" d="M122.69,107.15c-.41-.91-.91-1.78-1.5-2.58l-5.34,11.89v26.73c0,1.97-.54,3.42-1.61,4.35s-2.35,1.4-3.82,1.4-2.74-.46-3.82-1.4c-1.07-.93-1.61-2.38-1.61-4.35v-2.55l-5.15,11.46c.43,.54,.9,1.04,1.41,1.5,1.26,1.13,2.73,2.01,4.33,2.59,1.6,.58,3.21,.88,4.84,.88s3.24-.29,4.84-.88c1.59-.58,3.06-1.46,4.33-2.59,1.28-1.14,2.32-2.58,3.11-4.31,.79-1.73,1.18-3.76,1.18-6.1v-29.98c0-2.28-.39-4.31-1.18-6.06"/></g></g><g transform="translate(70.204 .959)"><g class="cls-5"><path class="cls-2" d="M158.72,116.15h-8.02v-1.83c0-1.86-.43-3.47-1.3-4.82-.87-1.36-2.32-2.03-4.37-2.03-1.1,0-2.01,.21-2.71,.64-.68,.4-1.25,.96-1.65,1.63-.39,.66-.67,1.43-.83,2.31-.16,.91-.24,1.83-.24,2.75,0,1.12,.04,2.06,.12,2.83,.08,.77,.28,1.43,.59,1.99,.31,.56,.77,1.05,1.38,1.47,.6,.43,1.43,.85,2.48,1.28l6.14,2.47c1.78,.69,3.23,1.5,4.33,2.43,1.08,.9,1.95,2.01,2.56,3.27,.6,1.25,1.01,2.68,1.22,4.3,.21,1.62,.31,3.47,.31,5.54,0,2.39-.24,4.61-.71,6.65-.47,2.05-1.25,3.8-2.32,5.26-1.08,1.46-2.51,2.62-4.29,3.47-1.78,.85-3.96,1.27-6.53,1.27-1.94,0-3.75-.35-5.43-1.03-1.68-.69-3.12-1.63-4.33-2.83-1.21-1.2-2.16-2.62-2.87-4.26-.71-1.65-1.06-3.43-1.06-5.34v-3.03h8.02v2.55c0,1.49,.43,2.83,1.3,4.03,.87,1.19,2.32,1.79,4.37,1.79,1.36,0,2.43-.2,3.19-.6,.76-.4,1.34-.96,1.73-1.67,.4-.72,.64-1.61,.75-2.67,.1-1.06,.16-2.23,.16-3.51,0-1.49-.05-2.71-.16-3.67-.1-.96-.33-1.72-.67-2.31-.35-.59-.83-1.08-1.42-1.44-.6-.37-1.4-.77-2.4-1.2l-5.74-2.39c-3.46-1.43-5.78-3.33-6.96-5.7-1.18-2.36-1.77-5.33-1.77-8.89,0-2.12,.29-4.14,.87-6.06,.58-1.91,1.43-3.56,2.56-4.94,1.13-1.38,2.56-2.48,4.29-3.31,1.73-.82,3.75-1.23,6.06-1.23,1.99,0,3.82,.37,5.47,1.12,1.65,.75,3.07,1.73,4.25,2.95,1.16,1.18,2.08,2.58,2.72,4.1,.63,1.51,.94,3.07,.94,4.66v3.99Z"/></g></g><g transform="translate(102.519 1.458)"><g class="cls-8"><path class="cls-2" d="M181.98,156.58h-7.08l-11.41-56.75h8.5l6.37,39.61h.16l6.45-39.61h8.5l-11.49,56.75Z"/></g></g><g transform="translate(38.852 6.197)"><g class="cls-7"><path class="cls-2" d="M122.69,107.15c-.41-.91-.91-1.78-1.5-2.58l-5.34,11.89v26.73c0,1.97-.54,3.42-1.61,4.35s-2.35,1.4-3.82,1.4-2.74-.46-3.82-1.4c-1.07-.93-1.61-2.38-1.61-4.35v-2.55l-5.15,11.46c.43,.54,.9,1.04,1.41,1.5,1.26,1.13,2.73,2.01,4.33,2.59,1.6,.58,3.21,.88,4.84,.88s3.24-.29,4.84-.88c1.59-.58,3.06-1.46,4.33-2.59,1.28-1.14,2.32-2.58,3.11-4.31,.79-1.73,1.18-3.76,1.18-6.1v-29.98c0-2.28-.39-4.31-1.18-6.06"/></g></g><path class="cls-4" d="M89.29,116.16h-8.02v-1.83c0-1.86-.43-3.47-1.3-4.82-.86-1.36-2.32-2.03-4.37-2.03-1.1,0-2.01,.21-2.72,.64-.68,.4-1.25,.96-1.65,1.63-.39,.66-.67,1.43-.83,2.31-.16,.91-.24,1.83-.24,2.75,0,1.11,.04,2.06,.12,2.83,.08,.77,.28,1.43,.59,1.99,.31,.56,.77,1.05,1.38,1.48,.6,.43,1.43,.85,2.48,1.27l6.14,2.47c1.78,.69,3.23,1.5,4.33,2.43,1.07,.9,1.95,2.01,2.56,3.27,.6,1.25,1.01,2.68,1.22,4.3,.21,1.62,.31,3.47,.31,5.54,0,2.39-.24,4.61-.71,6.66-.47,2.04-1.25,3.8-2.32,5.26-1.08,1.46-2.51,2.62-4.29,3.47-1.78,.85-3.96,1.28-6.53,1.28-1.94,0-3.75-.35-5.43-1.04-1.68-.69-3.12-1.63-4.33-2.83-1.21-1.2-2.16-2.62-2.87-4.26-.71-1.65-1.06-3.43-1.06-5.34v-3.03h8.02v2.55c0,1.49,.43,2.83,1.3,4.02,.86,1.2,2.32,1.79,4.37,1.79,1.36,0,2.43-.2,3.19-.6,.76-.4,1.34-.96,1.73-1.67,.39-.72,.64-1.61,.75-2.67,.1-1.06,.16-2.23,.16-3.51,0-1.49-.05-2.71-.16-3.67-.11-.96-.33-1.73-.67-2.31-.35-.59-.83-1.08-1.42-1.43-.6-.37-1.4-.77-2.4-1.19l-5.74-2.39c-3.46-1.43-5.78-3.33-6.96-5.7-1.18-2.36-1.77-5.33-1.77-8.89,0-2.12,.29-4.14,.87-6.06,.58-1.91,1.43-3.56,2.56-4.94,1.13-1.38,2.56-2.48,4.29-3.31,1.73-.82,3.75-1.24,6.06-1.24,1.99,0,3.82,.37,5.47,1.12,1.65,.74,3.07,1.73,4.25,2.95,1.16,1.18,2.08,2.58,2.71,4.1,.63,1.52,.94,3.07,.94,4.66v3.98h0Zm15.69-2.95c0-1.97,.54-3.41,1.61-4.35,1.08-.93,2.35-1.4,3.82-1.4,.21,0,.43,.01,.63,.03l3.4-7.55c-1.31-.4-2.66-.61-4.03-.61-1.63,0-3.24,.29-4.84,.88-1.59,.58-3.06,1.46-4.33,2.59-1.28,1.14-2.32,2.59-3.11,4.35-.79,1.75-1.18,3.78-1.18,6.06v29.98c0,2.34,.39,4.37,1.18,6.1,.45,1,1.02,1.94,1.7,2.81l5.15-11.46v-27.43Z"/></svg>