<?xml version="1.0" encoding="UTF-8"?><svg id="katman_1" xmlns="http://www.w3.org/2000/svg" xmlns:xlink="http://www.w3.org/1999/xlink" viewBox="0 0 173.56 78.37"><defs><style>.cls-1{mask:url(#mask);}.cls-2,.cls-3{fill:#fff;}.cls-4{fill:#dad6e5;}.cls-3{fill-rule:evenodd;}.cls-5{mask:url(#mask-3);}.cls-6{mask:url(#mask-2);}.cls-7{mask:url(#mask-5);}.cls-8{mask:url(#mask-4);}.cls-9{mask:url(#mask-1);}</style><mask id="mask" x="91.48" width="36.28" height="78.32" maskUnits="userSpaceOnUse"><g id="wlzn63c1jb"><path id="tq40f5y1sa" class="cls-3" d="M91.48,0h36.28V78.32h-36.28V0Z"/></g></mask><mask id="mask-1" x="134.06" y=".68" width="39.5" height="77.02" maskUnits="userSpaceOnUse"><g id="z0w91rcf3d"><path id="t9q31cwyxc" class="cls-3" d="M134.06,.68h39.5V77.7h-39.5V.68Z"/></g></mask><mask id="mask-2" x="50.17" y="7.11" width="31.68" height="71.26" maskUnits="userSpaceOnUse"><g id="w47wgyc0af"><path id="wpqtw7uyie" class="cls-3" d="M50.17,7.11h31.68V78.37h-31.68V7.11Z"/></g></mask><mask id="mask-3" x="91.48" width="36.28" height="78.32" maskUnits="userSpaceOnUse"><g id="_26p6ribjh"><path id="_kl9d6hq4g" class="cls-3" d="M91.48,0h36.28V78.32h-36.28V0Z"/></g></mask><mask id="mask-4" x="134.06" y=".68" width="39.5" height="77.02" maskUnits="userSpaceOnUse"><g id="wbubdf2rkj"><path id="_ko0rgnbti" class="cls-3" d="M134.06,.68h39.5V77.7h-39.5V.68Z"/></g></mask><mask id="mask-5" x="50.17" y="7.11" width="31.68" height="71.26" maskUnits="userSpaceOnUse"><g id="hu9o0rcphl"><path id="ea80l25vhk" class="cls-3" d="M50.17,7.11h31.68V78.37h-31.68V7.11Z"/></g></mask></defs><g transform="translate(70.204 .959)"><g class="cls-1"><path class="cls-2" d="M127.77,22.82h-10.57v-2.49c0-2.52-.57-4.7-1.71-6.54-1.14-1.84-3.06-2.76-5.76-2.76-1.45,0-2.64,.29-3.57,.87-.9,.54-1.65,1.3-2.18,2.22-.52,.9-.88,1.95-1.09,3.14-.21,1.23-.32,2.48-.31,3.73,0,1.52,.05,2.8,.16,3.84,.11,1.05,.36,1.95,.78,2.71,.42,.76,1.02,1.43,1.81,2,.79,.58,1.88,1.16,3.27,1.73l8.09,3.35c2.35,.94,4.25,2.04,5.7,3.3,1.42,1.22,2.57,2.73,3.37,4.44,.79,1.69,1.33,3.64,1.61,5.84,.27,2.2,.41,4.71,.41,7.52,0,3.24-.31,6.26-.93,9.03-.62,2.78-1.64,5.16-3.06,7.14-1.42,1.99-3.3,3.55-5.65,4.71-2.35,1.15-5.22,1.73-8.61,1.73-2.56,0-4.94-.47-7.15-1.4-2.21-.94-4.11-2.22-5.7-3.84-1.59-1.62-2.85-3.55-3.78-5.79-.93-2.23-1.4-4.65-1.4-7.25v-4.11h10.57v3.46c0,2.02,.57,3.84,1.71,5.46,1.14,1.62,3.06,2.43,5.75,2.43,1.8,0,3.2-.27,4.2-.81,1-.54,1.76-1.3,2.28-2.27,.52-.97,.85-2.18,.99-3.62,.14-1.44,.21-3.03,.21-4.76,0-2.02-.07-3.68-.21-4.98-.14-1.3-.43-2.34-.88-3.14-.46-.8-1.1-1.47-1.87-1.95-.8-.5-1.85-1.05-3.16-1.62l-7.57-3.24c-4.56-1.95-7.62-4.53-9.17-7.74-1.56-3.21-2.33-7.23-2.33-12.06,0-2.88,.38-5.62,1.14-8.22,.76-2.6,1.88-4.83,3.37-6.71,1.48-1.87,3.37-3.37,5.65-4.49,2.28-1.12,4.94-1.68,7.98-1.68,2.63,0,5.03,.5,7.21,1.51,2.18,1.01,4.04,2.34,5.6,4,1.52,1.61,2.74,3.5,3.58,5.57,.83,2.05,1.24,4.16,1.24,6.33v5.41Z"/></g></g><g transform="translate(102.519 1.458)"><g class="cls-9"><path class="cls-2" d="M158.43,77.7h-9.33L134.06,.68h11.2l8.4,53.76h.21L162.36,.68h11.2l-15.14,77.02Z"/></g></g><g transform="translate(38.852 6.197)"><g class="cls-6"><path class="cls-2" d="M80.3,10.62c-.53-1.24-1.2-2.42-1.98-3.51l-7.04,16.14V59.54c0,2.67-.71,4.64-2.13,5.9s-3.1,1.89-5.03,1.89-3.61-.63-5.03-1.89c-1.42-1.26-2.13-3.23-2.13-5.9v-3.46l-6.79,15.55c.57,.74,1.19,1.42,1.86,2.03,1.67,1.54,3.6,2.73,5.7,3.52,2.11,.79,4.23,1.19,6.38,1.19s4.27-.4,6.38-1.19c2.1-.79,4.04-1.98,5.71-3.52,1.69-1.55,3.06-3.5,4.1-5.84,1.04-2.34,1.55-5.1,1.55-8.28V18.84c0-3.1-.52-5.84-1.55-8.23"/></g></g><g transform="translate(70.204 .959)"><g class="cls-5"><path class="cls-2" d="M127.77,22.82h-10.57v-2.49c0-2.52-.57-4.7-1.71-6.54-1.14-1.84-3.06-2.76-5.76-2.76-1.45,0-2.64,.29-3.57,.87-.9,.54-1.65,1.3-2.18,2.22-.52,.9-.88,1.95-1.09,3.14-.21,1.23-.32,2.48-.31,3.73,0,1.52,.05,2.8,.16,3.84,.11,1.05,.36,1.95,.78,2.71,.42,.76,1.02,1.43,1.81,2,.79,.58,1.88,1.16,3.27,1.73l8.09,3.35c2.35,.94,4.25,2.04,5.7,3.3,1.42,1.22,2.57,2.73,3.37,4.44,.79,1.69,1.33,3.64,1.61,5.84,.27,2.2,.41,4.71,.41,7.52,0,3.24-.31,6.26-.93,9.03-.62,2.78-1.64,5.16-3.06,7.14-1.42,1.99-3.3,3.55-5.65,4.71-2.35,1.15-5.22,1.73-8.61,1.73-2.56,0-4.94-.47-7.15-1.4-2.21-.94-4.11-2.22-5.7-3.84-1.59-1.62-2.85-3.55-3.78-5.79-.93-2.23-1.4-4.65-1.4-7.25v-4.11h10.57v3.46c0,2.02,.57,3.84,1.71,5.46,1.14,1.62,3.06,2.43,5.75,2.43,1.8,0,3.2-.27,4.2-.81,1-.54,1.76-1.3,2.28-2.27,.52-.97,.85-2.18,.99-3.62,.14-1.44,.21-3.03,.21-4.76,0-2.02-.07-3.68-.21-4.98-.14-1.3-.43-2.34-.88-3.14-.46-.8-1.1-1.47-1.87-1.95-.8-.5-1.85-1.05-3.16-1.62l-7.57-3.24c-4.56-1.95-7.62-4.53-9.17-7.74-1.56-3.21-2.33-7.23-2.33-12.06,0-2.88,.38-5.62,1.14-8.22,.76-2.6,1.88-4.83,3.37-6.71,1.48-1.87,3.37-3.37,5.65-4.49,2.28-1.12,4.94-1.68,7.98-1.68,2.63,0,5.03,.5,7.21,1.51,2.18,1.01,4.04,2.34,5.6,4,1.52,1.61,2.74,3.5,3.58,5.57,.83,2.05,1.24,4.16,1.24,6.33v5.41Z"/></g></g><g transform="translate(102.519 1.458)"><g class="cls-8"><path class="cls-2" d="M158.43,77.7h-9.33L134.06,.68h11.2l8.4,53.76h.21L162.36,.68h11.2l-15.14,77.02Z"/></g></g><g transform="translate(38.852 6.197)"><g class="cls-7"><path class="cls-2" d="M80.3,10.62c-.53-1.24-1.2-2.42-1.98-3.51l-7.04,16.14V59.54c0,2.67-.71,4.64-2.13,5.9s-3.1,1.89-5.03,1.89-3.61-.63-5.03-1.89c-1.42-1.26-2.13-3.23-2.13-5.9v-3.46l-6.79,15.55c.57,.74,1.19,1.42,1.86,2.03,1.67,1.54,3.6,2.73,5.7,3.52,2.11,.79,4.23,1.19,6.38,1.19s4.27-.4,6.38-1.19c2.1-.79,4.04-1.98,5.71-3.52,1.69-1.55,3.06-3.5,4.1-5.84,1.04-2.34,1.55-5.1,1.55-8.28V18.84c0-3.1-.52-5.84-1.55-8.23"/></g></g><path class="cls-4" d="M36.28,22.84h-10.57v-2.49c0-2.52-.57-4.71-1.71-6.54-1.14-1.84-3.06-2.76-5.75-2.76-1.45,0-2.64,.29-3.58,.87-.89,.54-1.64,1.3-2.18,2.22-.52,.9-.88,1.95-1.09,3.14-.21,1.23-.32,2.48-.31,3.73,0,1.51,.05,2.79,.15,3.84,.11,1.05,.36,1.95,.78,2.7,.42,.76,1.02,1.43,1.82,2,.79,.58,1.88,1.15,3.27,1.73l8.08,3.35c2.35,.94,4.25,2.04,5.7,3.3,1.42,1.22,2.56,2.73,3.37,4.43,.79,1.7,1.33,3.64,1.61,5.84,.27,2.2,.41,4.71,.41,7.52,0,3.24-.31,6.26-.93,9.03-.62,2.78-1.64,5.16-3.06,7.14-1.42,1.98-3.3,3.55-5.65,4.7-2.35,1.15-5.22,1.73-8.6,1.73-2.56,0-4.94-.47-7.15-1.41-2.21-.94-4.11-2.22-5.7-3.84-1.59-1.62-2.85-3.55-3.79-5.79-.93-2.23-1.4-4.65-1.4-7.25v-4.11H10.57v3.46c0,2.02,.57,3.84,1.71,5.46,1.14,1.62,3.06,2.44,5.75,2.44,1.8,0,3.2-.27,4.2-.81,1-.54,1.76-1.3,2.28-2.27,.52-.97,.85-2.18,.99-3.62,.14-1.44,.21-3.03,.21-4.76,0-2.02-.07-3.68-.21-4.98-.14-1.3-.43-2.34-.88-3.14-.46-.8-1.1-1.47-1.87-1.95-.79-.5-1.85-1.05-3.16-1.62l-7.57-3.25c-4.56-1.95-7.62-4.52-9.17-7.73-1.55-3.21-2.33-7.23-2.33-12.06,0-2.88,.38-5.62,1.14-8.22,.76-2.6,1.88-4.83,3.37-6.71,1.49-1.88,3.37-3.37,5.65-4.49C12.96,.58,15.62,.02,18.66,.02c2.63,0,5.03,.51,7.21,1.51,2.18,1.01,4.04,2.35,5.6,4,1.52,1.61,2.74,3.5,3.58,5.57,.83,2.06,1.24,4.17,1.24,6.33v5.41h0Zm20.68-4c0-2.67,.71-4.64,2.13-5.9,1.42-1.26,3.09-1.89,5.03-1.89,.28,0,.57,.01,.83,.04L69.43,.84c-1.72-.54-3.51-.82-5.31-.83-2.15,0-4.27,.4-6.38,1.19-2.1,.79-4.04,1.98-5.71,3.52-1.69,1.55-3.06,3.52-4.1,5.9-1.04,2.38-1.56,5.13-1.56,8.23V59.54c0,3.18,.52,5.94,1.55,8.28,.59,1.36,1.35,2.64,2.24,3.81l6.78-15.55V18.84Z"/></svg>