<?xml version="1.0" encoding="utf-8"?>
<!-- Generator: Adobe Illustrator 26.3.1, SVG Export Plug-In . SVG Version: 6.00 Build 0)  -->
<svg version="1.1" id="katman_1" xmlns="http://www.w3.org/2000/svg" xmlns:xlink="http://www.w3.org/1999/xlink" x="0px" y="0px"
	 viewBox="0 0 300 100" style="enable-background:new 0 0 300 100;" xml:space="preserve">
<style type="text/css">
	.st0{filter:url(#Adobe_OpacityMaskFilter);}
	.st1{fill-rule:evenodd;clip-rule:evenodd;fill:#FFFFFF;}
	.st2{mask:url(#wlzn63c1jb_00000010996218473733269170000016750302402523608210_);fill:#FFFFFF;}
	.st3{filter:url(#Adobe_OpacityMaskFilter_00000010996826594296618260000007157824959416851889_);}
	.st4{mask:url(#z0w91rcf3d_00000081642789954469103750000002218228025918103998_);fill:#FFFFFF;}
	.st5{filter:url(#Adobe_OpacityMaskFilter_00000162332023734643991140000014553670605795594400_);}
	.st6{mask:url(#w47wgyc0af_00000128447619540894307310000007142799802475316615_);fill:#FFFFFF;}
	.st7{filter:url(#Adobe_OpacityMaskFilter_00000169528942976496070390000004334316702528039041_);}
	.st8{mask:url(#_x30_26p6ribjh_00000067214561242132855390000013180906467159995568_);fill:#FFFFFF;}
	.st9{filter:url(#Adobe_OpacityMaskFilter_00000152228100224089455530000015651302195708889735_);}
	.st10{mask:url(#wbubdf2rkj_00000134235329579216479380000001027326068715454096_);fill:#FFFFFF;}
	.st11{filter:url(#Adobe_OpacityMaskFilter_00000085933181029095715630000015357531713243346310_);}
	.st12{mask:url(#hu9o0rcphl_00000086662234431493964350000003830502885435068817_);fill:#FFFFFF;}
	.st13{fill:#DAD6E5;}
</style>
<g>
	<g transform="translate(70.204 .959)">
		<defs>
			<filter id="Adobe_OpacityMaskFilter" filterUnits="userSpaceOnUse" x="82.5" y="25.4" width="22.3" height="46.6">
				<feColorMatrix  type="matrix" values="1 0 0 0 0  0 1 0 0 0  0 0 1 0 0  0 0 0 1 0"/>
			</filter>
		</defs>
		
			<mask maskUnits="userSpaceOnUse" x="82.5" y="25.4" width="22.3" height="46.6" id="wlzn63c1jb_00000010996218473733269170000016750302402523608210_">
			<g class="st0">
				<path id="tq40f5y1sa_00000053535825104942838030000015862031991207575693_" class="st1" d="M82.5,25.4h22.3V72H82.5V25.4z"/>
			</g>
		</mask>
		<path class="st2" d="M104.7,39h-6.5v-1.5c0-1.5-0.4-2.8-1-3.9c-0.7-1.1-1.9-1.6-3.5-1.6c-0.9,0-1.6,0.2-2.2,0.5
			c-0.5,0.3-1,0.8-1.3,1.3c-0.3,0.5-0.5,1.2-0.7,1.9c-0.1,0.7-0.2,1.5-0.2,2.2c0,0.9,0,1.7,0.1,2.3c0.1,0.6,0.2,1.2,0.5,1.6
			c0.3,0.5,0.6,0.8,1.1,1.2c0.5,0.3,1.2,0.7,2,1l5,2c1.4,0.6,2.6,1.2,3.5,2c0.9,0.7,1.6,1.6,2.1,2.6c0.5,1,0.8,2.2,1,3.5
			c0.2,1.3,0.3,2.8,0.3,4.5c0,1.9-0.2,3.7-0.6,5.4c-0.4,1.7-1,3.1-1.9,4.3c-0.9,1.2-2,2.1-3.5,2.8c-1.4,0.7-3.2,1-5.3,1
			c-1.6,0-3-0.3-4.4-0.8c-1.4-0.6-2.5-1.3-3.5-2.3c-1-1-1.7-2.1-2.3-3.4c-0.6-1.3-0.9-2.8-0.9-4.3v-2.4H89v2.1c0,1.2,0.4,2.3,1,3.3
			c0.7,1,1.9,1.4,3.5,1.4c1.1,0,2-0.2,2.6-0.5c0.6-0.3,1.1-0.8,1.4-1.4c0.3-0.6,0.5-1.3,0.6-2.2c0.1-0.9,0.1-1.8,0.1-2.8
			c0-1.2,0-2.2-0.1-3c-0.1-0.8-0.3-1.4-0.5-1.9c-0.3-0.5-0.7-0.9-1.1-1.2c-0.5-0.3-1.1-0.6-1.9-1l-4.6-1.9c-2.8-1.2-4.7-2.7-5.6-4.6
			c-1-1.9-1.4-4.3-1.4-7.2c0-1.7,0.2-3.3,0.7-4.9c0.5-1.5,1.2-2.9,2.1-4c0.9-1.1,2.1-2,3.5-2.7c1.4-0.7,3-1,4.9-1
			c1.6,0,3.1,0.3,4.4,0.9c1.3,0.6,2.5,1.4,3.4,2.4c0.9,1,1.7,2.1,2.2,3.3c0.5,1.2,0.8,2.5,0.8,3.8V39z"/>
	</g>
	<g transform="translate(102.519 1.458)">
		<defs>
			
				<filter id="Adobe_OpacityMaskFilter_00000111170883414220283740000001222385207835987079_" filterUnits="userSpaceOnUse" x="76.3" y="25.3" width="24.2" height="45.9">
				<feColorMatrix  type="matrix" values="1 0 0 0 0  0 1 0 0 0  0 0 1 0 0  0 0 0 1 0"/>
			</filter>
		</defs>
		
			<mask maskUnits="userSpaceOnUse" x="76.3" y="25.3" width="24.2" height="45.9" id="z0w91rcf3d_00000081642789954469103750000002218228025918103998_">
			<g style="filter:url(#Adobe_OpacityMaskFilter_00000111170883414220283740000001222385207835987079_);">
				<path id="t9q31cwyxc_00000043429979677041046750000012510284390171867809_" class="st1" d="M76.3,25.3h24.2v45.9H76.3V25.3z"/>
			</g>
		</mask>
		<path class="st4" d="M91.2,71.1h-5.7l-9.2-45.9h6.9l5.2,32h0.1l5.2-32h6.9L91.2,71.1z"/>
	</g>
	<g transform="translate(38.852 6.197)">
		<defs>
			
				<filter id="Adobe_OpacityMaskFilter_00000170256361842267207830000009400180117092302226_" filterUnits="userSpaceOnUse" x="88.5" y="24.4" width="19.4" height="42.4">
				<feColorMatrix  type="matrix" values="1 0 0 0 0  0 1 0 0 0  0 0 1 0 0  0 0 0 1 0"/>
			</filter>
		</defs>
		
			<mask maskUnits="userSpaceOnUse" x="88.5" y="24.4" width="19.4" height="42.4" id="w47wgyc0af_00000128447619540894307310000007142799802475316615_">
			<g style="filter:url(#Adobe_OpacityMaskFilter_00000170256361842267207830000009400180117092302226_);">
				<path id="wpqtw7uyie_00000087392510215176834670000004814517615275157143_" class="st1" d="M88.5,24.4h19.4v42.4H88.5V24.4z"/>
			</g>
		</mask>
		<path class="st6" d="M107,26.5c-0.3-0.7-0.7-1.4-1.2-2.1l-4.3,9.6v21.6c0,1.6-0.4,2.8-1.3,3.5c-0.9,0.8-1.9,1.1-3.1,1.1
			c-1.2,0-2.2-0.4-3.1-1.1c-0.9-0.8-1.3-1.9-1.3-3.5v-2.1l-4.2,9.3c0.3,0.4,0.7,0.8,1.1,1.2c1,0.9,2.2,1.6,3.5,2.1
			c1.3,0.5,2.6,0.7,3.9,0.7c1.3,0,2.6-0.2,3.9-0.7c1.3-0.5,2.5-1.2,3.5-2.1c1-0.9,1.9-2.1,2.5-3.5c0.6-1.4,1-3,1-4.9V31.4
			C107.9,29.5,107.6,27.9,107,26.5"/>
	</g>
	<g transform="translate(70.204 .959)">
		<defs>
			
				<filter id="Adobe_OpacityMaskFilter_00000101821041284103175370000006998305454259929268_" filterUnits="userSpaceOnUse" x="82.5" y="25.4" width="22.3" height="46.6">
				<feColorMatrix  type="matrix" values="1 0 0 0 0  0 1 0 0 0  0 0 1 0 0  0 0 0 1 0"/>
			</filter>
		</defs>
		
			<mask maskUnits="userSpaceOnUse" x="82.5" y="25.4" width="22.3" height="46.6" id="_x30_26p6ribjh_00000067214561242132855390000013180906467159995568_">
			<g style="filter:url(#Adobe_OpacityMaskFilter_00000101821041284103175370000006998305454259929268_);">
				<path id="_x32_kl9d6hq4g_00000107549097654578582460000017342956032464257174_" class="st1" d="M82.5,25.4h22.3V72H82.5V25.4z"
					/>
			</g>
		</mask>
		<path class="st8" d="M104.7,39h-6.5v-1.5c0-1.5-0.4-2.8-1-3.9c-0.7-1.1-1.9-1.6-3.5-1.6c-0.9,0-1.6,0.2-2.2,0.5
			c-0.5,0.3-1,0.8-1.3,1.3c-0.3,0.5-0.5,1.2-0.7,1.9c-0.1,0.7-0.2,1.5-0.2,2.2c0,0.9,0,1.7,0.1,2.3c0.1,0.6,0.2,1.2,0.5,1.6
			c0.3,0.5,0.6,0.8,1.1,1.2c0.5,0.3,1.2,0.7,2,1l5,2c1.4,0.6,2.6,1.2,3.5,2c0.9,0.7,1.6,1.6,2.1,2.6c0.5,1,0.8,2.2,1,3.5
			c0.2,1.3,0.3,2.8,0.3,4.5c0,1.9-0.2,3.7-0.6,5.4c-0.4,1.7-1,3.1-1.9,4.3c-0.9,1.2-2,2.1-3.5,2.8c-1.4,0.7-3.2,1-5.3,1
			c-1.6,0-3-0.3-4.4-0.8c-1.4-0.6-2.5-1.3-3.5-2.3c-1-1-1.7-2.1-2.3-3.4c-0.6-1.3-0.9-2.8-0.9-4.3v-2.4H89v2.1c0,1.2,0.4,2.3,1,3.3
			c0.7,1,1.9,1.4,3.5,1.4c1.1,0,2-0.2,2.6-0.5c0.6-0.3,1.1-0.8,1.4-1.4c0.3-0.6,0.5-1.3,0.6-2.2c0.1-0.9,0.1-1.8,0.1-2.8
			c0-1.2,0-2.2-0.1-3c-0.1-0.8-0.3-1.4-0.5-1.9c-0.3-0.5-0.7-0.9-1.1-1.2c-0.5-0.3-1.1-0.6-1.9-1l-4.6-1.9c-2.8-1.2-4.7-2.7-5.6-4.6
			c-1-1.9-1.4-4.3-1.4-7.2c0-1.7,0.2-3.3,0.7-4.9c0.5-1.5,1.2-2.9,2.1-4c0.9-1.1,2.1-2,3.5-2.7c1.4-0.7,3-1,4.9-1
			c1.6,0,3.1,0.3,4.4,0.9c1.3,0.6,2.5,1.4,3.4,2.4c0.9,1,1.7,2.1,2.2,3.3c0.5,1.2,0.8,2.5,0.8,3.8V39z"/>
	</g>
	<g transform="translate(102.519 1.458)">
		<defs>
			
				<filter id="Adobe_OpacityMaskFilter_00000080176208605575134500000002328369399123737524_" filterUnits="userSpaceOnUse" x="76.3" y="25.3" width="24.2" height="45.9">
				<feColorMatrix  type="matrix" values="1 0 0 0 0  0 1 0 0 0  0 0 1 0 0  0 0 0 1 0"/>
			</filter>
		</defs>
		
			<mask maskUnits="userSpaceOnUse" x="76.3" y="25.3" width="24.2" height="45.9" id="wbubdf2rkj_00000134235329579216479380000001027326068715454096_">
			<g style="filter:url(#Adobe_OpacityMaskFilter_00000080176208605575134500000002328369399123737524_);">
				<path id="_x35_ko0rgnbti_00000049203915806899293640000006297833827731813522_" class="st1" d="M76.3,25.3h24.2v45.9H76.3V25.3z
					"/>
			</g>
		</mask>
		<path class="st10" d="M91.2,71.1h-5.7l-9.2-45.9h6.9l5.2,32h0.1l5.2-32h6.9L91.2,71.1z"/>
	</g>
	<g transform="translate(38.852 6.197)">
		<defs>
			
				<filter id="Adobe_OpacityMaskFilter_00000057827648353310111480000008831540321142543520_" filterUnits="userSpaceOnUse" x="88.5" y="24.4" width="19.4" height="42.4">
				<feColorMatrix  type="matrix" values="1 0 0 0 0  0 1 0 0 0  0 0 1 0 0  0 0 0 1 0"/>
			</filter>
		</defs>
		
			<mask maskUnits="userSpaceOnUse" x="88.5" y="24.4" width="19.4" height="42.4" id="hu9o0rcphl_00000086662234431493964350000003830502885435068817_">
			<g style="filter:url(#Adobe_OpacityMaskFilter_00000057827648353310111480000008831540321142543520_);">
				<path id="ea80l25vhk_00000100362068253470997950000017022691549559713428_" class="st1" d="M88.5,24.4h19.4v42.4H88.5V24.4z"/>
			</g>
		</mask>
		<path class="st12" d="M107,26.5c-0.3-0.7-0.7-1.4-1.2-2.1l-4.3,9.6v21.6c0,1.6-0.4,2.8-1.3,3.5c-0.9,0.8-1.9,1.1-3.1,1.1
			c-1.2,0-2.2-0.4-3.1-1.1c-0.9-0.8-1.3-1.9-1.3-3.5v-2.1l-4.2,9.3c0.3,0.4,0.7,0.8,1.1,1.2c1,0.9,2.2,1.6,3.5,2.1
			c1.3,0.5,2.6,0.7,3.9,0.7c1.3,0,2.6-0.2,3.9-0.7c1.3-0.5,2.5-1.2,3.5-2.1c1-0.9,1.9-2.1,2.5-3.5c0.6-1.4,1-3,1-4.9V31.4
			C107.9,29.5,107.6,27.9,107,26.5"/>
	</g>
	<path class="st13" d="M118.8,39.9h-6.5v-1.5c0-1.5-0.3-2.8-1-3.9c-0.7-1.1-1.9-1.6-3.5-1.6c-0.9,0-1.6,0.2-2.2,0.5
		c-0.5,0.3-1,0.8-1.3,1.3c-0.3,0.5-0.5,1.2-0.7,1.9c-0.1,0.7-0.2,1.5-0.2,2.2c0,0.9,0,1.7,0.1,2.3c0.1,0.6,0.2,1.2,0.5,1.6
		c0.3,0.5,0.6,0.8,1.1,1.2c0.5,0.3,1.2,0.7,2,1l5,2c1.4,0.6,2.6,1.2,3.5,2c0.9,0.7,1.6,1.6,2.1,2.6c0.5,1,0.8,2.2,1,3.5
		c0.2,1.3,0.3,2.8,0.3,4.5c0,1.9-0.2,3.7-0.6,5.4c-0.4,1.7-1,3.1-1.9,4.3c-0.9,1.2-2,2.1-3.5,2.8c-1.4,0.7-3.2,1-5.3,1
		c-1.6,0-3-0.3-4.4-0.8c-1.4-0.6-2.5-1.3-3.5-2.3c-1-1-1.7-2.1-2.3-3.4c-0.6-1.3-0.9-2.8-0.9-4.3v-2.4h6.5v2.1
		c0,1.2,0.4,2.3,1.1,3.3c0.7,1,1.9,1.5,3.5,1.5c1.1,0,2-0.2,2.6-0.5c0.6-0.3,1.1-0.8,1.4-1.4c0.3-0.6,0.5-1.3,0.6-2.2
		c0.1-0.9,0.1-1.8,0.1-2.8c0-1.2,0-2.2-0.1-3c-0.1-0.8-0.3-1.4-0.5-1.9c-0.3-0.5-0.7-0.9-1.1-1.2c-0.5-0.3-1.1-0.6-1.9-1l-4.6-1.9
		c-2.8-1.2-4.7-2.7-5.6-4.6c-1-1.9-1.4-4.3-1.4-7.2c0-1.7,0.2-3.3,0.7-4.9c0.5-1.5,1.2-2.9,2.1-4c0.9-1.1,2.1-2,3.5-2.7
		c1.4-0.7,3-1,4.9-1c1.6,0,3.1,0.3,4.4,0.9c1.3,0.6,2.5,1.4,3.4,2.4c0.9,1,1.7,2.1,2.2,3.3c0.5,1.2,0.8,2.5,0.8,3.8L118.8,39.9
		L118.8,39.9z M131.5,37.5c0-1.6,0.4-2.8,1.3-3.5c0.9-0.8,1.9-1.1,3.1-1.1c0.2,0,0.3,0,0.5,0l2.7-6.1c-1.1-0.3-2.2-0.5-3.3-0.5
		c-1.3,0-2.6,0.2-3.9,0.7c-1.3,0.5-2.5,1.2-3.5,2.1c-1,0.9-1.9,2.1-2.5,3.5c-0.6,1.4-1,3.1-1,4.9v24.2c0,1.9,0.3,3.5,1,4.9
		c0.4,0.8,0.8,1.6,1.4,2.3l4.2-9.3C131.5,59.7,131.5,37.5,131.5,37.5z"/>
</g>
</svg>
