<svg width="111" height="40" viewBox="0 0 111 40" fill="none" xmlns="http://www.w3.org/2000/svg">
<path d="M17.5157 19.1676C17.8975 19.059 18.119 18.6607 18.0106 18.2781C17.9021 17.8955 17.5047 17.6735 17.1229 17.7822C16.7411 17.8909 16.5196 18.2891 16.628 18.6717C16.7365 19.0543 17.1339 19.2763 17.5157 19.1676Z" fill="#3351FF"/>
<path d="M17.0199 20.7018C17.3964 20.5843 17.6065 20.1834 17.4894 19.8061C17.3722 19.4289 16.9721 19.2183 16.5956 19.3357C16.2192 19.4532 16.009 19.8541 16.1262 20.2314C16.2434 20.6086 16.6435 20.8192 17.0199 20.7018Z" fill="#3357FF"/>
<path d="M16.9277 22.2633C17.2998 22.1368 17.4991 21.732 17.3729 21.3591C17.2466 20.9863 16.8427 20.7865 16.4706 20.913C16.0985 21.0395 15.8992 21.4444 16.0254 21.8172C16.1517 22.1901 16.5556 22.3898 16.9277 22.2633Z" fill="#335DFF"/>
<path d="M17.202 23.7812C17.5695 23.6457 17.7578 23.2373 17.6226 22.869C17.4874 22.5007 17.0798 22.312 16.7123 22.4475C16.3448 22.583 16.1565 22.9914 16.2917 23.3597C16.4269 23.728 16.8345 23.9167 17.202 23.7812Z" fill="#3363FF"/>
<path d="M17.8054 25.2425C18.1669 25.0986 18.3435 24.6883 18.1999 24.3261C18.0562 23.9638 17.6468 23.7869 17.2853 23.9308C16.9239 24.0747 16.7473 24.485 16.8909 24.8473C17.0345 25.2095 17.444 25.3865 17.8054 25.2425Z" fill="#3369FF"/>
<path d="M18.7091 26.6068C19.0667 26.4536 19.2327 26.0388 19.0798 25.6804C18.9269 25.322 18.513 25.1557 18.1554 25.309C17.7977 25.4622 17.6318 25.877 17.7847 26.2353C17.9376 26.5937 18.3515 26.76 18.7091 26.6068Z" fill="#336EFF"/>
<path d="M19.8833 27.8262C20.2357 27.6642 20.3903 27.2467 20.2287 26.8937C20.0671 26.5406 19.6504 26.3856 19.2981 26.5476C18.9458 26.7095 18.7912 27.127 18.9528 27.4801C19.1144 27.8332 19.531 27.9881 19.8833 27.8262Z" fill="#3374FF"/>
<path d="M21.2794 28.8613C21.6262 28.6908 21.7693 28.2708 21.5991 27.9232C21.429 27.5757 21.0099 27.4323 20.6631 27.6028C20.3163 27.7734 20.1731 28.1933 20.3433 28.5409C20.5135 28.8884 20.9326 29.0319 21.2794 28.8613Z" fill="#337AFF"/>
<path d="M22.8799 29.6867C23.2222 29.5071 23.3543 29.0836 23.1751 28.7406C22.9959 28.3977 22.5732 28.2653 22.231 28.4448C21.8887 28.6244 21.7566 29.048 21.9358 29.391C22.115 29.7339 22.5377 29.8663 22.8799 29.6867Z" fill="#3380FF"/>
<path d="M24.6417 30.2606C24.9791 30.0721 25.1002 29.6451 24.9121 29.307C24.724 28.9689 24.2979 28.8476 23.9605 29.0361C23.6231 29.2246 23.5021 29.6515 23.6902 29.9897C23.8783 30.3278 24.3043 30.4491 24.6417 30.2606Z" fill="#3386FF"/>
<path d="M26.5356 30.523C26.8679 30.3257 26.9777 29.8957 26.7808 29.5627C26.5838 29.2296 26.1548 29.1196 25.8224 29.317C25.4901 29.5143 25.3803 29.9443 25.5773 30.2773C25.7742 30.6104 26.2033 30.7204 26.5356 30.523Z" fill="#338CFF"/>
<path d="M28.5183 30.4521C28.8453 30.2461 28.9438 29.8134 28.7383 29.4856C28.5327 29.1579 28.1009 29.0592 27.7738 29.2652C27.4468 29.4712 27.3483 29.9039 27.5538 30.2316C27.7594 30.5594 28.1912 30.6581 28.5183 30.4521Z" fill="#3392FF"/>
<path d="M30.5592 30.0129C30.8819 29.7977 30.9694 29.3611 30.7547 29.0377C30.54 28.7143 30.1043 28.6266 29.7816 28.8418C29.4589 29.057 29.3713 29.4936 29.5861 29.817C29.8008 30.1404 30.2365 30.2281 30.5592 30.0129Z" fill="#3398FF"/>
<path d="M32.6365 29.1726C32.9546 28.9483 33.031 28.5081 32.8072 28.1893C32.5834 27.8705 32.1441 27.7939 31.826 28.0182C31.5079 28.2425 31.4314 28.6827 31.6552 29.0015C31.8791 29.3203 32.3184 29.3969 32.6365 29.1726Z" fill="#339EFF"/>
<path d="M34.6964 27.8579C35.0086 27.6254 35.0736 27.1833 34.8416 26.8705C34.6096 26.5576 34.1684 26.4925 33.8563 26.725C33.5441 26.9575 33.4791 27.3996 33.7111 27.7124C33.9431 28.0253 34.3843 28.0904 34.6964 27.8579Z" fill="#33A3FF"/>
<path d="M36.7278 26.0654C37.036 25.8233 37.09 25.3767 36.8484 25.0678C36.6068 24.759 36.1612 24.7048 35.853 24.9469C35.5448 25.189 35.4908 25.6356 35.7323 25.9445C35.9739 26.2533 36.4196 26.3075 36.7278 26.0654Z" fill="#33A9FF"/>
<path d="M38.6733 23.7466C38.9763 23.4958 39.0191 23.0465 38.7689 22.7429C38.5187 22.4393 38.0703 22.3964 37.7673 22.6471C37.4644 22.8978 37.4216 23.3472 37.6718 23.6508C37.9219 23.9544 38.3704 23.9973 38.6733 23.7466Z" fill="#33AFFF"/>
<path d="M40.5144 20.8551C40.812 20.5959 40.8435 20.1441 40.5848 19.8459C40.3262 19.5477 39.8753 19.5161 39.5778 19.7753C39.2803 20.0345 39.2487 20.4863 39.5074 20.7845C39.766 21.0827 40.2169 21.1143 40.5144 20.8551Z" fill="#33B5FF"/>
<path d="M42.2052 17.3589C42.4981 17.0906 42.5185 16.6351 42.2507 16.3415C41.983 16.048 41.5284 16.0275 41.2355 16.2959C40.9426 16.5642 40.9221 17.0197 41.1899 17.3133C41.4577 17.6068 41.9122 17.6273 42.2052 17.3589Z" fill="#33BBFF"/>
<path d="M20.7923 15.9875C20.9878 15.6414 20.8662 15.202 20.5208 15.0061C20.1754 14.8102 19.737 14.9319 19.5415 15.2781C19.346 15.6242 19.4675 16.0636 19.8129 16.2595C20.1583 16.4554 20.5968 16.3336 20.7923 15.9875Z" fill="#3351FF"/>
<path d="M19.4179 16.0569C19.6035 15.7084 19.4719 15.275 19.1241 15.0891C18.7762 14.9031 18.3438 15.0349 18.1583 15.3835C17.9727 15.7321 18.1042 16.1654 18.4521 16.3514C18.7999 16.5373 19.2323 16.4055 19.4179 16.0569Z" fill="#3357FF"/>
<path d="M18.1768 16.5145C18.3529 16.1625 18.2109 15.7341 17.8597 15.5576C17.5084 15.3811 17.0809 15.5234 16.9048 15.8754C16.7287 16.2274 16.8707 16.6558 17.2219 16.8323C17.5731 17.0087 18.0006 16.8665 18.1768 16.5145Z" fill="#335DFF"/>
<path d="M17.0967 17.3129C17.2633 16.9577 17.111 16.5345 16.7565 16.3676C16.4021 16.2007 15.9798 16.3533 15.8133 16.7085C15.6467 17.0636 15.799 17.4869 16.1534 17.6538C16.5078 17.8207 16.9302 17.668 17.0967 17.3129Z" fill="#3363FF"/>
<path d="M16.188 18.3952C16.3443 18.0383 16.1824 17.622 15.8262 17.4654C15.4701 17.3087 15.0546 17.471 14.8983 17.8279C14.742 18.1848 14.9039 18.6011 15.2601 18.7578C15.6162 18.9145 16.0317 18.7521 16.188 18.3952Z" fill="#3369FF"/>
<path d="M15.4921 19.7156C15.6391 19.3548 15.4664 18.9428 15.1063 18.7955C14.7462 18.6481 14.3351 18.8212 14.1881 19.1821C14.0411 19.5429 14.2138 19.9549 14.5739 20.1022C14.934 20.2496 15.3451 20.0765 15.4921 19.7156Z" fill="#336EFF"/>
<path d="M15.0065 21.2134C15.1437 20.8501 14.961 20.4441 14.5984 20.3067C14.2359 20.1693 13.8308 20.3524 13.6936 20.7157C13.5565 21.079 13.7392 21.4849 14.1018 21.6224C14.4643 21.7598 14.8694 21.5767 15.0065 21.2134Z" fill="#3374FF"/>
<path d="M14.7817 22.8658C14.9089 22.5003 14.7164 22.1006 14.3516 21.9731C13.9869 21.8456 13.5881 22.0386 13.4608 22.4041C13.3336 22.7696 13.5262 23.1693 13.8909 23.2968C14.2556 23.4243 14.6545 23.2313 14.7817 22.8658Z" fill="#337AFF"/>
<path d="M14.817 24.5981C14.9346 24.2294 14.7317 23.8349 14.3637 23.717C13.9958 23.5992 13.6021 23.8025 13.4845 24.1712C13.3669 24.54 13.5698 24.9344 13.9377 25.0523C14.3057 25.1702 14.6993 24.9669 14.817 24.5981Z" fill="#3380FF"/>
<path d="M15.1519 26.3565C15.2599 25.9848 15.0468 25.5958 14.6759 25.4876C14.3049 25.3794 13.9167 25.593 13.8088 25.9647C13.7008 26.3364 13.914 26.7254 14.2849 26.8336C14.6558 26.9418 15.044 26.7282 15.1519 26.3565Z" fill="#3386FF"/>
<path d="M15.7944 28.1226C15.8926 27.7482 15.6693 27.3649 15.2956 27.2666C14.922 27.1682 14.5396 27.392 14.4414 27.7664C14.3432 28.1408 14.5666 28.5241 14.9402 28.6224C15.3138 28.7208 15.6962 28.497 15.7944 28.1226Z" fill="#338CFF"/>
<path d="M16.7777 29.8184C16.866 29.4416 16.6328 29.0643 16.2567 28.9758C15.8806 28.8872 15.5042 29.121 15.4158 29.4978C15.3275 29.8747 15.5607 30.2519 15.9368 30.3405C16.3128 30.429 16.6893 30.1953 16.7777 29.8184Z" fill="#3392FF"/>
<path d="M18.1225 31.4079C18.2014 31.0276 17.9576 30.6552 17.578 30.5762C17.1985 30.4973 16.827 30.7416 16.7482 31.1219C16.6694 31.5022 16.9131 31.8746 17.2927 31.9535C17.6722 32.0325 18.0437 31.7882 18.1225 31.4079Z" fill="#3398FF"/>
<path d="M19.8472 32.8352C19.9163 32.4517 19.6621 32.0846 19.2794 32.0153C18.8966 31.946 18.5303 32.2008 18.4611 32.5843C18.392 32.9679 18.6462 33.335 19.029 33.4043C19.4117 33.4736 19.7781 33.2188 19.8472 32.8352Z" fill="#339EFF"/>
<path d="M21.9903 33.9466C22.0486 33.5608 21.7838 33.2006 21.3987 33.1421C21.0137 33.0836 20.6542 33.349 20.5959 33.7349C20.5375 34.1208 20.8024 34.481 21.1874 34.5395C21.5725 34.5979 21.9319 34.3325 21.9903 33.9466Z" fill="#33A3FF"/>
<path d="M24.5414 35.0187C24.591 34.6295 24.3164 34.2736 23.9279 34.2239C23.5395 34.1742 23.1844 34.4494 23.1348 34.8386C23.0851 35.2279 23.3598 35.5838 23.7482 35.6335C24.1367 35.6832 24.4918 35.408 24.5414 35.0187Z" fill="#33A9FF"/>
<path d="M27.5482 35.6555C27.5881 35.2638 27.3035 34.9139 26.9126 34.874C26.5217 34.8341 26.1725 35.1192 26.1327 35.5109C26.0928 35.9027 26.3774 36.2526 26.7683 36.2925C27.1592 36.3324 27.5084 36.0473 27.5482 35.6555Z" fill="#33AFFF"/>
<path d="M31.0306 35.9456C31.0607 35.5516 30.7664 35.2079 30.3733 35.1778C29.9802 35.1477 29.6372 35.4426 29.6071 35.8365C29.5771 36.2305 29.8714 36.5742 30.2645 36.6043C30.6576 36.6344 31.0006 36.3395 31.0306 35.9456Z" fill="#33B5FF"/>
<path d="M35.0152 35.8273C35.0355 35.4301 34.7307 35.0916 34.3344 35.0712C33.938 35.0508 33.6002 35.3563 33.5798 35.7535C33.5595 36.1507 33.8643 36.4892 34.2606 36.5096C34.657 36.53 34.9948 36.2245 35.0152 35.8273Z" fill="#33BBFF"/>
<path d="M26.0247 22.0532C26.4018 21.9299 26.6077 21.5237 26.4846 21.1458C26.3616 20.768 25.9562 20.5617 25.5792 20.685C25.2021 20.8083 24.9962 21.2145 25.1193 21.5923C25.2423 21.9702 25.6477 22.1765 26.0247 22.0532Z" fill="#3351FF"/>
<path d="M27.1305 20.3994C27.4994 20.2638 27.6888 19.8542 27.5535 19.4845C27.4182 19.1149 27.0095 18.9251 26.6406 19.0607C26.2717 19.1962 26.0823 19.6058 26.2176 19.9755C26.3529 20.3452 26.7616 20.5349 27.1305 20.3994Z" fill="#3357FF"/>
<path d="M27.6801 18.76C28.0405 18.6134 28.2142 18.2019 28.068 17.8407C27.9218 17.4795 27.5111 17.3055 27.1506 17.452C26.7902 17.5985 26.6166 18.0101 26.7628 18.3713C26.909 18.7324 27.3197 18.9065 27.6801 18.76Z" fill="#335DFF"/>
<path d="M27.7831 17.0956C28.1358 16.9378 28.2942 16.5234 28.1367 16.1699C27.9793 15.8163 27.5657 15.6577 27.213 15.8154C26.8602 15.9732 26.7018 16.3877 26.8593 16.7412C27.0167 17.0947 27.4303 17.2534 27.7831 17.0956Z" fill="#3363FF"/>
<path d="M27.4668 15.4498C27.8115 15.2809 27.9542 14.864 27.7857 14.5186C27.6171 14.1732 27.2011 14.0302 26.8565 14.1991C26.5118 14.368 26.3691 14.7849 26.5376 15.1302C26.7061 15.4756 27.1222 15.6187 27.4668 15.4498Z" fill="#3369FF"/>
<path d="M26.772 13.866C27.1081 13.6862 27.2351 13.2674 27.0557 12.9305C26.8763 12.5937 26.4584 12.4664 26.1223 12.6462C25.7862 12.8259 25.6591 13.2447 25.8385 13.5816C26.0179 13.9184 26.4358 14.0457 26.772 13.866Z" fill="#336EFF"/>
<path d="M25.7478 12.4008C26.0762 12.2098 26.1878 11.7882 25.9972 11.4591C25.8065 11.1301 25.3858 11.0182 25.0574 11.2093C24.7291 11.4003 24.6174 11.8219 24.8081 12.151C24.9987 12.48 25.4195 12.5919 25.7478 12.4008Z" fill="#3374FF"/>
<path d="M24.4233 11.0819C24.7434 10.8798 24.8394 10.4559 24.6378 10.1351C24.4361 9.81432 24.0131 9.71809 23.6929 9.92019C23.3728 10.1223 23.2768 10.5462 23.4784 10.867C23.6801 11.1878 24.1031 11.284 24.4233 11.0819Z" fill="#337AFF"/>
<path d="M22.843 9.98868C23.1545 9.77581 23.2349 9.35019 23.0225 9.03802C22.81 8.72586 22.3853 8.64536 22.0738 8.85822C21.7623 9.07109 21.682 9.49671 21.8944 9.80888C22.1068 10.121 22.5315 10.2015 22.843 9.98868Z" fill="#3380FF"/>
<path d="M21.0431 9.11573C21.3466 8.89162 21.4114 8.46334 21.1878 8.15915C20.9642 7.85495 20.5368 7.79003 20.2332 8.01414C19.9297 8.23825 19.8649 8.66652 20.0885 8.97072C20.3122 9.27491 20.7395 9.33984 21.0431 9.11573Z" fill="#3386FF"/>
<path d="M19.0695 8.55484C19.3647 8.31979 19.4138 7.88943 19.1793 7.59361C18.9447 7.29779 18.5152 7.24852 18.22 7.48358C17.9249 7.71863 17.8757 8.14899 18.1103 8.44481C18.3448 8.74063 18.7743 8.78989 19.0695 8.55484Z" fill="#338CFF"/>
<path d="M16.9465 8.33136C17.234 8.08486 17.2676 7.65149 17.0216 7.36338C16.7757 7.07528 16.3432 7.04156 16.0557 7.28805C15.7682 7.53455 15.7346 7.96793 15.9805 8.25603C16.2265 8.54413 16.659 8.57786 16.9465 8.33136Z" fill="#3392FF"/>
<path d="M14.7397 8.48736C15.0191 8.22972 15.0371 7.79389 14.78 7.5139C14.5229 7.23392 14.088 7.2158 13.8086 7.47344C13.5292 7.73108 13.5112 8.16691 13.7683 8.4469C14.0253 8.72689 14.4603 8.745 14.7397 8.48736Z" fill="#3398FF"/>
<path d="M12.4626 9.07443C12.7335 8.80601 12.736 8.36829 12.4682 8.09676C12.2003 7.82522 11.7635 7.8227 11.4926 8.09112C11.2216 8.35955 11.2191 8.79727 11.487 9.0688C11.7548 9.34034 12.1916 9.34286 12.4626 9.07443Z" fill="#339EFF"/>
<path d="M10.1731 10.1533C10.4362 9.87349 10.4231 9.43292 10.1439 9.16924C9.86472 8.90557 9.42508 8.91865 9.16196 9.19845C8.89884 9.47825 8.91189 9.91883 9.19111 10.1825C9.47032 10.4462 9.90996 10.4331 10.1731 10.1533Z" fill="#33A3FF"/>
<path d="M7.89548 11.746C8.15039 11.4552 8.12173 11.0123 7.83147 10.7568C7.54122 10.5014 7.09927 10.5301 6.84436 10.821C6.58946 11.1119 6.61811 11.5547 6.90837 11.8102C7.19863 12.0656 7.64057 12.0369 7.89548 11.746Z" fill="#33A9FF"/>
<path d="M5.68628 13.9104C5.93274 13.6089 5.8886 13.1642 5.58771 12.9173C5.28681 12.6703 4.8431 12.7145 4.59664 13.016C4.35018 13.3176 4.39432 13.7622 4.69521 14.0092C4.99611 14.2562 5.43982 14.212 5.68628 13.9104Z" fill="#33AFFF"/>
<path d="M3.57238 16.69C3.81086 16.377 3.75105 15.9296 3.43879 15.6906C3.12653 15.4517 2.68006 15.5116 2.44158 15.8245C2.20309 16.1374 2.2629 16.5849 2.57517 16.8238C2.88743 17.0628 3.3339 17.0029 3.57238 16.69Z" fill="#33B5FF"/>
<path d="M1.58893 20.1318C1.81956 19.8081 1.7443 19.3589 1.42084 19.1284C1.09738 18.898 0.648209 18.9735 0.417584 19.2972C0.186959 19.6209 0.262216 20.0701 0.585676 20.3006C0.909135 20.5311 1.35831 20.4555 1.58893 20.1318Z" fill="#33BBFF"/>
<path d="M24.7167 17.5541C25.1136 17.5541 25.4353 17.2316 25.4353 16.8339C25.4353 16.4362 25.1136 16.1138 24.7167 16.1138C24.3198 16.1138 23.998 16.4362 23.998 16.8339C23.998 17.2316 24.3198 17.5541 24.7167 17.5541Z" fill="#3351FF"/>
<path d="M23.9289 16.2073C24.323 16.1974 24.6346 15.8693 24.6247 15.4743C24.6149 15.0794 24.2874 14.7672 23.8933 14.7771C23.4992 14.7869 23.1877 15.1151 23.1975 15.51C23.2073 15.905 23.5348 16.2172 23.9289 16.2073Z" fill="#3357FF"/>
<path d="M22.8445 15.2144C23.2369 15.1946 23.5391 14.8598 23.5193 14.4666C23.4996 14.0733 23.1655 13.7706 22.773 13.7904C22.3806 13.8101 22.0785 14.145 22.0982 14.5382C22.118 14.9315 22.4521 15.2342 22.8445 15.2144Z" fill="#335DFF"/>
<path d="M21.5253 14.5581C21.9157 14.5284 22.2082 14.1871 22.1786 13.7958C22.149 13.4045 21.8084 13.1114 21.4179 13.1411C21.0275 13.1708 20.735 13.512 20.7646 13.9033C20.7942 14.2946 21.1348 14.5877 21.5253 14.5581Z" fill="#3363FF"/>
<path d="M20.0366 14.2239C20.4235 14.1844 20.7053 13.8381 20.6659 13.4503C20.6265 13.0626 20.2809 12.7802 19.894 12.8197C19.507 12.8591 19.2253 13.2055 19.2647 13.5932C19.304 13.981 19.6496 14.2633 20.0366 14.2239Z" fill="#3369FF"/>
<path d="M18.43 14.2358C18.8158 14.1863 19.0886 13.8328 19.0392 13.4462C18.9899 13.0596 18.6371 12.7863 18.2513 12.8357C17.8655 12.8852 17.5927 13.2387 17.6421 13.6253C17.6915 14.0119 18.0442 14.2853 18.43 14.2358Z" fill="#336EFF"/>
<path d="M16.7692 14.5465C17.1523 14.4872 17.4149 14.1279 17.3557 13.7441C17.2966 13.3602 16.938 13.097 16.555 13.1563C16.1719 13.2156 15.9093 13.5749 15.9685 13.9588C16.0276 14.3427 16.3861 14.6058 16.7692 14.5465Z" fill="#3374FF"/>
<path d="M15.1137 15.1488C15.4938 15.0797 15.746 14.7149 15.6771 14.334C15.6081 13.9531 15.2441 13.7004 14.864 13.7694C14.4839 13.8385 14.2317 14.2033 14.3006 14.5842C14.3695 14.9651 14.7336 15.2179 15.1137 15.1488Z" fill="#337AFF"/>
<path d="M13.5191 16.0588C13.8973 15.9798 14.1399 15.6085 14.0611 15.2296C13.9822 14.8506 13.6117 14.6075 13.2336 14.6865C12.8554 14.7655 12.6128 15.1368 12.6916 15.5158C12.7705 15.8947 13.141 16.1379 13.5191 16.0588Z" fill="#3380FF"/>
<path d="M12.0607 17.2473C12.4367 17.1584 12.6695 16.7809 12.5808 16.4041C12.492 16.0273 12.1153 15.794 11.7393 15.8829C11.3634 15.9719 11.1305 16.3494 11.2193 16.7261C11.308 17.1029 11.6847 17.3362 12.0607 17.2473Z" fill="#3386FF"/>
<path d="M10.9094 18.7132C11.2841 18.6126 11.5064 18.2266 11.406 17.8511C11.3056 17.4756 10.9204 17.2528 10.5457 17.3534C10.171 17.4541 9.94861 17.8401 10.049 18.2156C10.1495 18.5911 10.5347 18.8139 10.9094 18.7132Z" fill="#338CFF"/>
<path d="M9.75713 20.438C10.1279 20.3295 10.3407 19.9402 10.2323 19.5686C10.124 19.1971 9.73553 18.9839 9.36474 19.0925C8.99395 19.201 8.7812 19.5903 8.88956 19.9619C8.99791 20.3334 9.38634 20.5466 9.75713 20.438Z" fill="#3392FF"/>
<path d="M9.03447 22.4069C9.40358 22.2883 9.60685 21.8923 9.48848 21.5224C9.37011 21.1525 8.97494 20.9488 8.60583 21.0675C8.23672 21.1861 8.03345 21.5821 8.15182 21.952C8.27019 22.3219 8.66536 22.5256 9.03447 22.4069Z" fill="#3398FF"/>
<path d="M8.67845 24.6376C9.04561 24.5089 9.23919 24.1064 9.11083 23.7385C8.98247 23.3705 8.58078 23.1765 8.21362 23.3052C7.84647 23.4338 7.65288 23.8364 7.78124 24.2043C7.9096 24.5722 8.3113 24.7662 8.67845 24.6376Z" fill="#339EFF"/>
<path d="M8.74743 27.0894C9.11115 26.9513 9.29429 26.5439 9.15649 26.1794C9.01869 25.8149 8.61213 25.6314 8.24841 25.7695C7.88469 25.9076 7.70155 26.315 7.83935 26.6795C7.97715 27.044 8.38371 27.2275 8.74743 27.0894Z" fill="#33A3FF"/>
<path d="M9.30612 29.7737C9.6686 29.6252 9.84236 29.2104 9.69421 28.8471C9.54606 28.4839 9.13211 28.3098 8.76962 28.4582C8.40713 28.6067 8.23338 29.0215 8.38153 29.3848C8.52968 29.748 8.94363 29.9221 9.30612 29.7737Z" fill="#33A9FF"/>
<path d="M10.4107 32.6775C10.7705 32.5193 10.9342 32.0987 10.7763 31.7382C10.6184 31.3776 10.1988 31.2136 9.83898 31.3718C9.47918 31.53 9.31548 31.9505 9.47335 32.3111C9.63121 32.6716 10.0509 32.8357 10.4107 32.6775Z" fill="#33AFFF"/>
<path d="M12.3326 36.1848C12.6896 36.0171 12.8432 35.5911 12.6758 35.2334C12.5083 34.8757 12.0833 34.7218 11.7263 34.8896C11.3694 35.0574 11.2158 35.4833 11.3832 35.841C11.5506 36.1987 11.9757 36.3526 12.3326 36.1848Z" fill="#33B5FF"/>
<path d="M14.6098 39.6775C14.9648 39.4996 15.1086 39.067 14.9311 38.7113C14.7536 38.3556 14.3219 38.2114 13.9669 38.3893C13.612 38.5672 13.4681 38.9998 13.6457 39.3555C13.8232 39.7112 14.2548 39.8554 14.6098 39.6775Z" fill="#33BBFF"/>
<path d="M20.7923 15.9875C20.9878 15.6414 20.8662 15.202 20.5208 15.0061C20.1754 14.8102 19.737 14.9319 19.5415 15.2781C19.346 15.6242 19.4675 16.0636 19.8129 16.2595C20.1583 16.4554 20.5968 16.3336 20.7923 15.9875Z" fill="#3351FF"/>
<path d="M19.246 15.9158C19.4316 15.5673 19.3 15.1339 18.9522 14.948C18.6044 14.762 18.172 14.8938 17.9864 15.2424C17.8008 15.591 17.9324 16.0243 18.2802 16.2102C18.628 16.3962 19.0604 16.2644 19.246 15.9158Z" fill="#3357FF"/>
<path d="M17.8154 16.2679C17.9915 15.9159 17.8496 15.4875 17.4983 15.3111C17.1471 15.1346 16.7196 15.2768 16.5435 15.6288C16.3674 15.9808 16.5093 16.4092 16.8606 16.5857C17.2118 16.7622 17.6393 16.6199 17.8154 16.2679Z" fill="#335DFF"/>
<path d="M16.5342 16.9784C16.7008 16.6233 16.5485 16.2 16.1941 16.0331C15.8396 15.8662 15.4173 16.0189 15.2508 16.374C15.0842 16.7292 15.2365 17.1524 15.5909 17.3193C15.9453 17.4862 16.3677 17.3336 16.5342 16.9784Z" fill="#3363FF"/>
<path d="M15.4126 18.0051C15.569 17.6482 15.407 17.2319 15.0508 17.0752C14.6947 16.9186 14.2793 17.0809 14.1229 17.4378C13.9666 17.7947 14.1286 18.211 14.4847 18.3677C14.8408 18.5243 15.2563 18.362 15.4126 18.0051Z" fill="#3369FF"/>
<path d="M14.4999 19.2947C14.6469 18.9339 14.4742 18.5219 14.1141 18.3746C13.754 18.2272 13.3429 18.4003 13.1959 18.7612C13.0489 19.122 13.2216 19.534 13.5817 19.6813C13.9418 19.8287 14.3529 19.6556 14.4999 19.2947Z" fill="#336EFF"/>
<path d="M13.8034 20.7964C13.9406 20.4331 13.7578 20.0271 13.3953 19.8897C13.0327 19.7523 12.6276 19.9354 12.4905 20.2987C12.3534 20.662 12.5361 21.068 12.8986 21.2054C13.2612 21.3428 13.6663 21.1597 13.8034 20.7964Z" fill="#3374FF"/>
<path d="M13.3579 22.4747C13.4851 22.1092 13.2926 21.7095 12.9278 21.582C12.5631 21.4545 12.1642 21.6475 12.037 22.013C11.9098 22.3785 12.1023 22.7782 12.4671 22.9057C12.8318 23.0332 13.2306 22.8402 13.3579 22.4747Z" fill="#337AFF"/>
<path d="M13.2017 24.2754C13.3194 23.9067 13.1164 23.5122 12.7485 23.3943C12.3805 23.2764 11.9869 23.4797 11.8693 23.8485C11.7516 24.2172 11.9545 24.6117 12.3225 24.7296C12.6904 24.8475 13.0841 24.6441 13.2017 24.2754Z" fill="#3380FF"/>
<path d="M13.3453 26.1461C13.4533 25.7744 13.2401 25.3853 12.8692 25.2771C12.4983 25.169 12.1101 25.3826 12.0021 25.7542C11.8942 26.1259 12.1073 26.515 12.4782 26.6232C12.8491 26.7313 13.2373 26.5177 13.3453 26.1461Z" fill="#3386FF"/>
<path d="M13.8198 28.0269C13.9179 27.6525 13.6946 27.2692 13.321 27.1709C12.9474 27.0725 12.5649 27.2963 12.4668 27.6707C12.3686 28.0451 12.5919 28.4284 12.9656 28.5267C13.3392 28.6251 13.7216 28.4013 13.8198 28.0269Z" fill="#338CFF"/>
<path d="M14.6566 29.8985C14.7449 29.5216 14.5117 29.1444 14.1356 29.0558C13.7595 28.9673 13.3831 29.201 13.2947 29.5779C13.2064 29.9548 13.4396 30.332 13.8157 30.4206C14.1917 30.5091 14.5682 30.2753 14.6566 29.8985Z" fill="#3392FF"/>
<path d="M15.8804 31.7018C15.9592 31.3215 15.7154 30.9492 15.3359 30.8702C14.9563 30.7912 14.5848 31.0355 14.506 31.4158C14.4272 31.7962 14.671 32.1685 15.0505 32.2475C15.43 32.3265 15.8016 32.0822 15.8804 31.7018Z" fill="#3398FF"/>
<path d="M17.5191 33.3762C17.5882 32.9927 17.334 32.6256 16.9512 32.5563C16.5685 32.487 16.2022 32.7418 16.133 33.1253C16.0639 33.5089 16.3181 33.876 16.7008 33.9453C17.0836 34.0146 17.4499 33.7598 17.5191 33.3762Z" fill="#339EFF"/>
<path d="M19.6133 34.7811C19.6717 34.3952 19.4068 34.035 19.0218 33.9766C18.6367 33.9181 18.2773 34.1835 18.2189 34.5694C18.1606 34.9553 18.4254 35.3155 18.8105 35.3739C19.1955 35.4324 19.555 35.167 19.6133 34.7811Z" fill="#33A3FF"/>
<path d="M22.1449 36.1735C22.1946 35.7843 21.9199 35.4284 21.5315 35.3787C21.143 35.3289 20.7879 35.6042 20.7383 35.9934C20.6887 36.3827 20.9633 36.7386 21.3518 36.7883C21.7402 36.838 22.0953 36.5628 22.1449 36.1735Z" fill="#33A9FF"/>
<path d="M25.1791 37.1907C25.2189 36.799 24.9343 36.4491 24.5435 36.4091C24.1526 36.3692 23.8034 36.6544 23.7635 37.0461C23.7237 37.4378 24.0083 37.7877 24.3992 37.8277C24.7901 37.8676 25.1392 37.5824 25.1791 37.1907Z" fill="#33AFFF"/>
<path d="M28.7435 37.8816C28.7736 37.4877 28.4793 37.1439 28.0862 37.1138C27.6931 37.0837 27.3501 37.3787 27.32 37.7726C27.29 38.1665 27.5843 38.5102 27.9774 38.5403C28.3705 38.5704 28.7135 38.2755 28.7435 37.8816Z" fill="#33B5FF"/>
<path d="M32.8589 38.2316C32.8793 37.8344 32.5745 37.4959 32.1781 37.4755C31.7817 37.4551 31.4439 37.7606 31.4236 38.1578C31.4032 38.555 31.708 38.8935 32.1044 38.9139C32.5008 38.9343 32.8386 38.6288 32.8589 38.2316Z" fill="#33BBFF"/>
<path d="M26.1955 21.9235C26.546 21.737 26.6793 21.301 26.4931 20.9498C26.307 20.5985 25.8719 20.465 25.5214 20.6515C25.1709 20.838 25.0376 21.274 25.2238 21.6253C25.4099 21.9765 25.845 22.1101 26.1955 21.9235Z" fill="#3351FF"/>
<path d="M27.0161 20.5652C27.3596 20.3712 27.4811 19.935 27.2876 19.5908C27.094 19.2466 26.6587 19.1248 26.3153 19.3188C25.9718 19.5127 25.8502 19.9489 26.0438 20.2931C26.2373 20.6373 26.6726 20.7591 27.0161 20.5652Z" fill="#3357FF"/>
<path d="M27.3852 19.1181C27.7225 18.9162 27.8327 18.4785 27.6313 18.1404C27.4299 17.8024 26.9931 17.6919 26.6558 17.8938C26.3184 18.0956 26.2082 18.5333 26.4096 18.8714C26.6111 19.2095 27.0478 19.3199 27.3852 19.1181Z" fill="#335DFF"/>
<path d="M27.3473 17.6228C27.6783 17.4131 27.777 16.9742 27.5678 16.6425C27.3585 16.3108 26.9206 16.2119 26.5896 16.4216C26.2586 16.6313 26.1599 17.0702 26.3691 17.4019C26.5784 17.7336 27.0163 17.8325 27.3473 17.6228Z" fill="#3363FF"/>
<path d="M26.929 16.1158C27.2523 15.899 27.3391 15.4607 27.1228 15.1368C26.9066 14.8128 26.4692 14.7259 26.1459 14.9426C25.8226 15.1593 25.7359 15.5976 25.9521 15.9216C26.1684 16.2455 26.6058 16.3325 26.929 16.1158Z" fill="#3369FF"/>
<path d="M26.187 14.668C26.5046 14.443 26.58 14.0025 26.3555 13.6843C26.1309 13.366 25.6915 13.2904 25.3739 13.5154C25.0563 13.7404 24.9808 14.1809 25.2054 14.4991C25.4299 14.8174 25.8694 14.893 26.187 14.668Z" fill="#336EFF"/>
<path d="M25.1327 13.324C25.4433 13.0915 25.5071 12.6508 25.2751 12.3396C25.0432 12.0283 24.6034 11.9644 24.2928 12.1969C23.9822 12.4293 23.9185 12.87 24.1504 13.1812C24.3823 13.4925 24.8221 13.5564 25.1327 13.324Z" fill="#3374FF"/>
<path d="M23.9375 12.1499C24.2426 11.9099 24.2959 11.4675 24.0564 11.1616C23.8169 10.8558 23.3753 10.8025 23.0701 11.0425C22.765 11.2825 22.7117 11.725 22.9512 12.0308C23.1907 12.3366 23.6323 12.39 23.9375 12.1499Z" fill="#337AFF"/>
<path d="M22.276 11.1037C22.573 10.8562 22.6136 10.4142 22.3666 10.1166C22.1195 9.81899 21.6785 9.77838 21.3815 10.0259C21.0845 10.2735 21.044 10.7154 21.291 11.013C21.538 11.3107 21.979 11.3513 22.276 11.1037Z" fill="#3380FF"/>
<path d="M20.544 10.3433C20.8344 10.088 20.8634 9.64519 20.6086 9.35414C20.3539 9.06309 19.912 9.03406 19.6216 9.28931C19.3311 9.54455 19.3022 9.98741 19.5569 10.2785C19.8116 10.5695 20.2535 10.5985 20.544 10.3433Z" fill="#3386FF"/>
<path d="M18.6624 9.87297C18.9461 9.61019 18.9635 9.16672 18.7013 8.88246C18.439 8.59819 17.9965 8.58077 17.7128 8.84354C17.4292 9.10632 17.4118 9.54978 17.674 9.83405C17.9362 10.1183 18.3788 10.1357 18.6624 9.87297Z" fill="#338CFF"/>
<path d="M16.6608 9.73918C16.9375 9.46905 16.9433 9.02528 16.6737 8.74799C16.4042 8.4707 15.9613 8.46489 15.6846 8.73501C15.4079 9.00514 15.4021 9.44891 15.6717 9.7262C15.9412 10.0035 16.3841 10.0093 16.6608 9.73918Z" fill="#3392FF"/>
<path d="M14.5812 10.0115C14.8516 9.73321 14.8458 9.28792 14.5682 9.01687C14.2905 8.74582 13.8462 8.75165 13.5757 9.02989C13.3052 9.30813 13.311 9.75342 13.5887 10.0245C13.8663 10.2955 14.3107 10.2897 14.5812 10.0115Z" fill="#3398FF"/>
<path d="M12.4556 10.7175C12.7197 10.4313 12.7023 9.9848 12.4167 9.72018C12.1311 9.45555 11.6856 9.47302 11.4215 9.75919C11.1574 10.0454 11.1749 10.4919 11.4604 10.7565C11.746 11.0211 12.1916 11.0036 12.4556 10.7175Z" fill="#339EFF"/>
<path d="M10.318 11.9023C10.5746 11.6094 10.5457 11.1635 10.2534 10.9064C9.96111 10.6492 9.51615 10.6782 9.25954 10.9711C9.00294 11.264 9.03187 11.7099 9.32416 11.9671C9.61645 12.2242 10.0614 12.1952 10.318 11.9023Z" fill="#33A3FF"/>
<path d="M8.21907 13.6277C8.46978 13.3262 8.42917 12.8782 8.12836 12.627C7.82755 12.3757 7.38045 12.4164 7.12974 12.7179C6.87903 13.0193 6.91964 13.4673 7.22045 13.7186C7.52126 13.9698 7.96835 13.9291 8.21907 13.6277Z" fill="#33A9FF"/>
<path d="M6.18619 15.934C6.42998 15.6252 6.37781 15.1768 6.06968 14.9325C5.76154 14.6882 5.31412 14.7405 5.07033 15.0493C4.82654 15.3581 4.8787 15.8064 5.18684 16.0508C5.49498 16.2951 5.9424 16.2428 6.18619 15.934Z" fill="#33AFFF"/>
<path d="M4.25192 18.8802C4.48863 18.5643 4.42494 18.1159 4.10968 17.8787C3.79441 17.6415 3.34695 17.7053 3.11024 18.0212C2.87353 18.3371 2.93721 18.7856 3.25248 19.0228C3.56774 19.26 4.01521 19.1962 4.25192 18.8802Z" fill="#33B5FF"/>
<path d="M2.4547 22.5046C2.68501 22.1807 2.60967 21.731 2.28644 21.5003C1.96321 21.2695 1.51449 21.345 1.28419 21.6689C1.05388 21.9928 1.12922 22.4425 1.45245 22.6733C1.77568 22.904 2.2244 22.8285 2.4547 22.5046Z" fill="#33BBFF"/>
<path d="M24.7167 17.5541C25.1136 17.5541 25.4353 17.2316 25.4353 16.8339C25.4353 16.4362 25.1136 16.1138 24.7167 16.1138C24.3198 16.1138 23.998 16.4362 23.998 16.8339C23.998 17.2316 24.3198 17.5541 24.7167 17.5541Z" fill="#3351FF"/>
<path d="M23.8801 15.8767C24.2742 15.8669 24.5857 15.5387 24.5759 15.1438C24.5661 14.7488 24.2386 14.4366 23.8445 14.4465C23.4504 14.4564 23.1388 14.7845 23.1487 15.1795C23.1585 15.5744 23.486 15.8866 23.8801 15.8767Z" fill="#3357FF"/>
<path d="M22.7293 14.5816C23.1217 14.5618 23.4238 14.227 23.4041 13.8338C23.3843 13.4405 23.0502 13.1378 22.6578 13.1575C22.2654 13.1773 21.9633 13.5121 21.983 13.9054C22.0028 14.2986 22.3369 14.6014 22.7293 14.5816Z" fill="#335DFF"/>
<path d="M21.3339 13.6728C21.7243 13.6431 22.0168 13.3018 21.9872 12.9105C21.9576 12.5192 21.617 12.2261 21.2265 12.2558C20.8361 12.2855 20.5436 12.6268 20.5732 13.0181C20.6028 13.4094 20.9434 13.7025 21.3339 13.6728Z" fill="#3363FF"/>
<path d="M19.7416 13.136C20.1286 13.0965 20.4104 12.7502 20.371 12.3625C20.3316 11.9747 19.986 11.6923 19.5991 11.7318C19.2121 11.7712 18.9304 12.1176 18.9697 12.5053C19.0091 12.8931 19.3547 13.1755 19.7416 13.136Z" fill="#3369FF"/>
<path d="M18.0199 12.9677C18.4057 12.9183 18.6784 12.5648 18.6291 12.1782C18.5797 11.7915 18.2269 11.5182 17.8411 11.5677C17.4553 11.6171 17.1826 11.9706 17.2319 12.3573C17.2813 12.7439 17.6341 13.0172 18.0199 12.9677Z" fill="#336EFF"/>
<path d="M16.236 13.1476C16.6191 13.0883 16.8817 12.729 16.8225 12.3451C16.7633 11.9612 16.4048 11.6981 16.0218 11.7574C15.6387 11.8167 15.3761 12.176 15.4353 12.5598C15.4944 12.9437 15.8529 13.2069 16.236 13.1476Z" fill="#3374FF"/>
<path d="M14.4398 13.6664C14.8199 13.5973 15.0722 13.2325 15.0032 12.8516C14.9343 12.4707 14.5703 12.2179 14.1902 12.287C13.8101 12.3561 13.5578 12.7209 13.6268 13.1018C13.6957 13.4827 14.0597 13.7355 14.4398 13.6664Z" fill="#337AFF"/>
<path d="M12.7027 14.5168C13.0809 14.4378 13.3235 14.0665 13.2447 13.6876C13.1658 13.3086 12.7953 13.0655 12.4171 13.1445C12.039 13.2235 11.7964 13.5948 11.8752 13.9738C11.9541 14.3527 12.3246 14.5959 12.7027 14.5168Z" fill="#3380FF"/>
<path d="M11.0763 15.6956C11.4523 15.6066 11.6851 15.2291 11.5964 14.8524C11.5077 14.4756 11.1309 14.2423 10.755 14.3312C10.379 14.4201 10.1462 14.7976 10.2349 15.1744C10.3236 15.5511 10.7003 15.7845 11.0763 15.6956Z" fill="#3386FF"/>
<path d="M9.62519 17.1623C9.99869 17.0635 10.2215 16.68 10.1229 16.3057C10.0243 15.9314 9.64158 15.7081 9.26808 15.8069C8.89458 15.9057 8.67174 16.2893 8.77035 16.6636C8.86897 17.0378 9.25169 17.2612 9.62519 17.1623Z" fill="#338CFF"/>
<path d="M8.40948 18.9317C8.78027 18.8231 8.99301 18.4339 8.88466 18.0623C8.7763 17.6907 8.38787 17.4775 8.01708 17.5861C7.64629 17.6947 7.43354 18.0839 7.5419 18.4555C7.65026 18.8271 8.03868 19.0403 8.40948 18.9317Z" fill="#3392FF"/>
<path d="M7.48955 20.9997C7.85865 20.8811 8.06192 20.4851 7.94356 20.1152C7.82519 19.7453 7.43002 19.5416 7.06091 19.6602C6.6918 19.7788 6.48853 20.1749 6.6069 20.5447C6.72526 20.9146 7.12044 21.1183 7.48955 20.9997Z" fill="#3398FF"/>
<path d="M6.9265 23.3534C7.29365 23.2248 7.48724 22.8222 7.35888 22.4543C7.23052 22.0864 6.82882 21.8924 6.46167 22.021C6.09451 22.1496 5.90093 22.5522 6.02929 22.9201C6.15765 23.288 6.55935 23.482 6.9265 23.3534Z" fill="#339EFF"/>
<path d="M6.78649 25.9576C7.15021 25.8195 7.33335 25.4121 7.19555 25.0476C7.05775 24.6831 6.65119 24.4996 6.28747 24.6377C5.92376 24.7758 5.74062 25.1832 5.87842 25.5477C6.01622 25.9121 6.42278 26.0957 6.78649 25.9576Z" fill="#33A3FF"/>
<path d="M7.12643 28.8176C7.48891 28.6692 7.66267 28.2543 7.51452 27.8911C7.36637 27.5278 6.95242 27.3537 6.58993 27.5022C6.22745 27.6506 6.05369 28.0655 6.20184 28.4287C6.34999 28.792 6.76394 28.9661 7.12643 28.8176Z" fill="#33A9FF"/>
<path d="M8.00247 31.9255C8.36228 31.7673 8.52598 31.3468 8.36811 30.9862C8.21024 30.6256 7.79059 30.4616 7.43078 30.6198C7.07098 30.778 6.90727 31.1985 7.06514 31.5591C7.22301 31.9197 7.64267 32.0837 8.00247 31.9255Z" fill="#33AFFF"/>
<path d="M9.69787 35.6746C10.0548 35.5068 10.2084 35.0808 10.041 34.7232C9.87356 34.3655 9.4485 34.2115 9.09158 34.3793C8.73465 34.5471 8.58103 34.9731 8.74846 35.3307C8.91588 35.6884 9.34095 35.8424 9.69787 35.6746Z" fill="#33B5FF"/>
<path d="M11.6352 39.4329C11.9902 39.255 12.134 38.8224 11.9565 38.4667C11.779 38.1109 11.3473 37.9668 10.9923 38.1447C10.6374 38.3226 10.4935 38.7552 10.671 39.1109C10.8486 39.4666 11.2802 39.6108 11.6352 39.4329Z" fill="#33BBFF"/>
<path d="M18.5537 23.5508C18.9489 23.5145 19.24 23.1641 19.2038 22.768C19.1676 22.3719 18.8179 22.0802 18.4227 22.1165C18.0274 22.1527 17.7364 22.5032 17.7725 22.8993C17.8087 23.2953 18.1584 23.587 18.5537 23.5508Z" fill="#3351FF"/>
<path d="M19.7867 24.548C20.1783 24.5022 20.4586 24.147 20.4129 23.7545C20.3672 23.3621 20.0127 23.0812 19.6211 23.127C19.2295 23.1728 18.9492 23.5281 18.9949 23.9205C19.0406 24.3129 19.3951 24.5938 19.7867 24.548Z" fill="#3357FF"/>
<path d="M21.1615 25.23C21.5505 25.1748 21.8213 24.8141 21.7663 24.4242C21.7113 24.0344 21.3513 23.763 20.9622 23.8181C20.5732 23.8733 20.3024 24.234 20.3574 24.6239C20.4124 25.0138 20.7724 25.2851 21.1615 25.23Z" fill="#335DFF"/>
<path d="M22.7142 25.5503C23.1004 25.485 23.3606 25.1184 23.2955 24.7315C23.2304 24.3445 22.8646 24.0837 22.4785 24.149C22.0923 24.2142 21.8321 24.5808 21.8972 24.9677C21.9623 25.3547 22.3281 25.6155 22.7142 25.5503Z" fill="#3363FF"/>
<path d="M24.3125 25.5935C24.6942 25.5188 24.9433 25.1482 24.8689 24.7657C24.7944 24.3831 24.4245 24.1335 24.0428 24.2081C23.661 24.2828 23.4119 24.6534 23.4864 25.0359C23.5609 25.4185 23.9308 25.6681 24.3125 25.5935Z" fill="#3369FF"/>
<path d="M25.9479 25.3411C26.3276 25.2566 26.5671 24.8797 26.4828 24.4992C26.3984 24.1187 26.0223 23.8787 25.6426 23.9632C25.2629 24.0477 25.0234 24.4247 25.1077 24.8052C25.1921 25.1857 25.5682 25.4256 25.9479 25.3411Z" fill="#336EFF"/>
<path d="M27.5716 24.8093C27.9477 24.7153 28.1765 24.3335 28.0826 23.9566C27.9888 23.5797 27.6078 23.3504 27.2318 23.4445C26.8557 23.5385 26.6269 23.9203 26.7207 24.2972C26.8145 24.6741 27.1955 24.9033 27.5716 24.8093Z" fill="#3374FF"/>
<path d="M29.134 24.0228C29.5062 23.9192 29.7243 23.5329 29.621 23.1599C29.5177 22.7869 29.1322 22.5684 28.7599 22.6719C28.3877 22.7755 28.1697 23.1618 28.273 23.5348C28.3763 23.9078 28.7618 24.1263 29.134 24.0228Z" fill="#337AFF"/>
<path d="M30.6015 22.9685C30.9709 22.8553 31.1788 22.4634 31.0658 22.0932C30.9528 21.723 30.5617 21.5147 30.1923 21.628C29.8229 21.7412 29.615 22.1331 29.7281 22.5033C29.8411 22.8735 30.2321 23.0817 30.6015 22.9685Z" fill="#3380FF"/>
<path d="M31.914 21.6898C32.2803 21.5669 32.4779 21.1697 32.3552 20.8026C32.2326 20.4355 31.8362 20.2376 31.4699 20.3605C31.1036 20.4834 30.9061 20.8806 31.0287 21.2477C31.1513 21.6148 31.5477 21.8127 31.914 21.6898Z" fill="#3386FF"/>
<path d="M33.0324 20.1809C33.3954 20.0484 33.5825 19.6462 33.4503 19.2824C33.3181 18.9187 32.9167 18.7312 32.5537 18.8637C32.1907 18.9961 32.0036 19.3984 32.1358 19.7621C32.268 20.1259 32.6694 20.3134 33.0324 20.1809Z" fill="#338CFF"/>
<path d="M33.9176 18.4588C34.277 18.3169 34.4535 17.9099 34.3119 17.5497C34.1702 17.1896 33.764 17.0127 33.4046 17.1546C33.0453 17.2966 32.8687 17.7036 33.0104 18.0637C33.152 18.4239 33.5582 18.6008 33.9176 18.4588Z" fill="#3392FF"/>
<path d="M34.5131 16.5486C34.8699 16.3968 35.0363 15.9839 34.8847 15.6263C34.7332 15.2688 34.3212 15.102 33.9644 15.2539C33.6076 15.4057 33.4412 15.8186 33.5927 16.1762C33.7442 16.5337 34.1563 16.7005 34.5131 16.5486Z" fill="#3398FF"/>
<path d="M34.7894 14.4414C35.1433 14.2798 35.2995 13.8612 35.1382 13.5066C34.9769 13.1519 34.5592 12.9954 34.2053 13.157C33.8514 13.3187 33.6952 13.7372 33.8565 14.0919C34.0178 14.4466 34.4355 14.6031 34.7894 14.4414Z" fill="#339EFF"/>
<path d="M34.6876 12.1555C35.0372 11.9847 35.1826 11.5623 35.0122 11.2119C34.8418 10.8615 34.4202 10.7159 34.0706 10.8866C33.7209 11.0574 33.5756 11.4798 33.746 11.8302C33.9164 12.1806 34.3379 12.3262 34.6876 12.1555Z" fill="#33A3FF"/>
<path d="M34.1677 9.72798C34.5152 9.54708 34.6505 9.11813 34.47 8.76989C34.2895 8.42166 33.8615 8.286 33.514 8.46689C33.1665 8.64779 33.0311 9.07674 33.2116 9.42497C33.3921 9.77321 33.8202 9.90887 34.1677 9.72798Z" fill="#33A9FF"/>
<path d="M33.1858 7.1406C33.5297 6.95019 33.6545 6.51644 33.4645 6.1718C33.2745 5.82716 32.8416 5.70213 32.4977 5.89254C32.1538 6.08295 32.029 6.51669 32.219 6.86134C32.4091 7.20598 32.8419 7.33101 33.1858 7.1406Z" fill="#33AFFF"/>
<path d="M31.691 4.43201C32.0312 4.23233 32.1455 3.79411 31.9462 3.45322C31.7469 3.11232 31.3096 2.99785 30.9695 3.19753C30.6293 3.39721 30.515 3.83543 30.7143 4.17632C30.9136 4.51722 31.3509 4.63169 31.691 4.43201Z" fill="#33B5FF"/>
<path d="M29.6473 1.60363C29.9846 1.39411 30.0886 0.950205 29.8795 0.612147C29.6704 0.274089 29.2275 0.169892 28.8901 0.379414C28.5528 0.588937 28.4488 1.03284 28.6579 1.3709C28.867 1.70895 29.3099 1.81315 29.6473 1.60363Z" fill="#33BBFF"/>
<path d="M17.5157 19.1676C17.8975 19.059 18.119 18.6607 18.0106 18.2781C17.9021 17.8955 17.5047 17.6735 17.1229 17.7822C16.7411 17.8909 16.5196 18.2891 16.628 18.6717C16.7365 19.0543 17.1339 19.2763 17.5157 19.1676Z" fill="#3351FF"/>
<path d="M16.7485 20.547C17.1249 20.4296 17.3351 20.0286 17.2179 19.6514C17.1007 19.2741 16.7006 19.0635 16.3242 19.1809C15.9477 19.2984 15.7376 19.6994 15.8547 20.0766C15.9719 20.4538 16.372 20.6644 16.7485 20.547Z" fill="#3357FF"/>
<path d="M16.416 22.0294C16.7881 21.9029 16.9874 21.4981 16.8612 21.1252C16.7349 20.7524 16.331 20.5527 15.9589 20.6792C15.5868 20.8057 15.3875 21.2105 15.5137 21.5833C15.64 21.9562 16.0439 22.1559 16.416 22.0294Z" fill="#335DFF"/>
<path d="M16.4715 23.5668C16.839 23.4313 17.0273 23.0229 16.8921 22.6547C16.7569 22.2864 16.3493 22.0977 15.9818 22.2332C15.6143 22.3687 15.426 22.7771 15.5612 23.1454C15.6965 23.5136 16.104 23.7023 16.4715 23.5668Z" fill="#3363FF"/>
<path d="M16.8894 25.0995C17.2509 24.9555 17.4275 24.5452 17.2839 24.183C17.1402 23.8208 16.7308 23.6438 16.3693 23.7877C16.0079 23.9317 15.8313 24.342 15.9749 24.7042C16.1185 25.0664 16.528 25.2434 16.8894 25.0995Z" fill="#3369FF"/>
<path d="M17.6329 26.5843C17.9905 26.4311 18.1565 26.0164 18.0036 25.658C17.8507 25.2996 17.4368 25.1333 17.0792 25.2865C16.7216 25.4397 16.5556 25.8545 16.7085 26.2129C16.8614 26.5713 17.2753 26.7376 17.6329 26.5843Z" fill="#336EFF"/>
<path d="M18.6822 27.9927C19.0345 27.8307 19.1891 27.4132 19.0275 27.0602C18.8659 26.7071 18.4493 26.5521 18.0969 26.7141C17.7446 26.876 17.59 27.2935 17.7516 27.6466C17.9132 27.9997 18.3298 28.1546 18.6822 27.9927Z" fill="#3374FF"/>
<path d="M19.9942 29.2461C20.341 29.0755 20.4842 28.6555 20.314 28.308C20.1438 27.9605 19.7247 27.817 19.3779 27.9876C19.0311 28.1581 18.888 28.5781 19.0582 28.9256C19.2283 29.2732 19.6474 29.4166 19.9942 29.2461Z" fill="#337AFF"/>
<path d="M21.5401 30.3059C21.8823 30.1263 22.0145 29.7027 21.8352 29.3598C21.656 29.0168 21.2333 28.8844 20.8911 29.064C20.5489 29.2436 20.4168 29.6672 20.596 30.0101C20.7752 30.353 21.1979 30.4855 21.5401 30.3059Z" fill="#3380FF"/>
<path d="M23.2921 31.1585C23.6295 30.97 23.7506 30.5431 23.5625 30.205C23.3743 29.8669 22.9483 29.7456 22.6109 29.9341C22.2735 30.1226 22.1525 30.5495 22.3406 30.8876C22.5287 31.2257 22.9547 31.347 23.2921 31.1585Z" fill="#3386FF"/>
<path d="M25.2153 31.7012C25.5476 31.5039 25.6574 31.0739 25.4605 30.7409C25.2635 30.4079 24.8345 30.2979 24.5021 30.4952C24.1698 30.6926 24.06 31.1225 24.257 31.4556C24.4539 31.7886 24.883 31.8986 25.2153 31.7012Z" fill="#338CFF"/>
<path d="M27.2761 31.9238C27.6031 31.7178 27.7016 31.2851 27.4961 30.9573C27.2905 30.6296 26.8587 30.5309 26.5317 30.7369C26.2046 30.9429 26.1061 31.3756 26.3117 31.7033C26.5172 32.0311 26.949 32.1298 27.2761 31.9238Z" fill="#3392FF"/>
<path d="M29.4459 31.78C29.7686 31.5648 29.8562 31.1282 29.6414 30.8048C29.4267 30.4814 28.991 30.3937 28.6683 30.6089C28.3456 30.8241 28.2581 31.2607 28.4728 31.5841C28.6875 31.9075 29.1232 31.9952 29.4459 31.78Z" fill="#3398FF"/>
<path d="M31.6912 31.1941C32.0093 30.9698 32.0857 30.5295 31.8619 30.2108C31.6381 29.892 31.1988 29.8154 30.8807 30.0397C30.5626 30.264 30.4861 30.7042 30.7099 31.023C30.9337 31.3418 31.3731 31.4183 31.6912 31.1941Z" fill="#339EFF"/>
<path d="M33.9757 30.1372C34.2879 29.9047 34.3529 29.4626 34.1209 29.1498C33.8889 28.8369 33.4477 28.7718 33.1355 29.0043C32.8234 29.2368 32.7584 29.6789 32.9904 29.9917C33.2224 30.3046 33.6636 30.3697 33.9757 30.1372Z" fill="#33A3FF"/>
<path d="M36.2727 28.5712C36.5809 28.3291 36.6349 27.8825 36.3933 27.5737C36.1518 27.2648 35.7061 27.2107 35.3979 27.4528C35.0897 27.6949 35.0357 28.1415 35.2772 28.4503C35.5188 28.7592 35.9645 28.8133 36.2727 28.5712Z" fill="#33A9FF"/>
<path d="M38.5561 26.4223C38.8591 26.1716 38.9019 25.7223 38.6517 25.4187C38.4015 25.115 37.9531 25.0722 37.6501 25.3229C37.3472 25.5736 37.3044 26.023 37.5546 26.3266C37.8048 26.6302 38.2532 26.6731 38.5561 26.4223Z" fill="#33AFFF"/>
<path d="M40.7 23.6666C40.9975 23.4074 41.029 22.9556 40.7704 22.6574C40.5117 22.3593 40.0609 22.3277 39.7633 22.5868C39.4658 22.846 39.4343 23.2979 39.6929 23.596C39.9516 23.8942 40.4024 23.9258 40.7 23.6666Z" fill="#33B5FF"/>
<path d="M42.9278 20.2378C43.2208 19.9695 43.2412 19.514 42.9734 19.2204C42.7056 18.9269 42.2511 18.9064 41.9581 19.1748C41.6652 19.4431 41.6448 19.8986 41.9126 20.1922C42.1804 20.4857 42.6349 20.5062 42.9278 20.2378Z" fill="#33BBFF"/>
<path d="M18.5537 23.5508C18.9489 23.5145 19.24 23.1641 19.2038 22.768C19.1676 22.3719 18.8179 22.0802 18.4227 22.1165C18.0274 22.1527 17.7364 22.5032 17.7725 22.8993C17.8087 23.2953 18.1584 23.587 18.5537 23.5508Z" fill="#3351FF"/>
<path d="M19.8297 24.9177C20.2212 24.8718 20.5016 24.5166 20.4559 24.1242C20.4102 23.7318 20.0557 23.4508 19.6641 23.4966C19.2725 23.5424 18.9921 23.8977 19.0379 24.2901C19.0836 24.6825 19.4381 24.9635 19.8297 24.9177Z" fill="#3357FF"/>
<path d="M21.2898 25.9063C21.6788 25.8507 21.9492 25.4897 21.8938 25.0999C21.8383 24.7101 21.4781 24.4391 21.0891 24.4946C20.7001 24.5502 20.4297 24.9112 20.4851 25.301C20.5406 25.6908 20.9008 25.9618 21.2898 25.9063Z" fill="#335DFF"/>
<path d="M23.0641 26.5366C23.4518 26.4699 23.7121 26.1008 23.6455 25.7123C23.579 25.3238 23.2107 25.063 22.823 25.1297C22.4354 25.1964 22.1751 25.5654 22.2416 25.9539C22.3082 26.3424 22.6764 26.6033 23.0641 26.5366Z" fill="#3363FF"/>
<path d="M24.5527 26.7898C24.9345 26.7151 25.1836 26.3445 25.1091 25.9619C25.0346 25.5794 24.6648 25.3298 24.283 25.4044C23.9013 25.479 23.6522 25.8497 23.7267 26.2322C23.8011 26.6148 24.171 26.8644 24.5527 26.7898Z" fill="#3369FF"/>
<path d="M26.2741 26.7186C26.6538 26.6341 26.8932 26.2571 26.8089 25.8766C26.7246 25.4961 26.3485 25.2562 25.9688 25.3407C25.5891 25.4252 25.3496 25.8021 25.4339 26.1826C25.5182 26.5631 25.8944 26.8031 26.2741 26.7186Z" fill="#336EFF"/>
<path d="M27.9935 26.3313C28.3696 26.2372 28.5984 25.8555 28.5045 25.4786C28.4107 25.1017 28.0297 24.8724 27.6536 24.9664C27.2775 25.0605 27.0487 25.4422 27.1426 25.8191C27.2364 26.196 27.6174 26.4253 27.9935 26.3313Z" fill="#3374FF"/>
<path d="M29.6789 25.618C30.0512 25.5145 30.2692 25.1281 30.1659 24.7551C30.0626 24.3821 29.6771 24.1636 29.3048 24.2672C28.9326 24.3707 28.7146 24.757 28.8179 25.13C28.9212 25.503 29.3067 25.7215 29.6789 25.618Z" fill="#337AFF"/>
<path d="M31.2656 24.6321C31.635 24.5188 31.8428 24.1269 31.7298 23.7568C31.6168 23.3866 31.2258 23.1783 30.8564 23.2915C30.487 23.4048 30.2791 23.7967 30.3921 24.1669C30.5051 24.537 30.8962 24.7453 31.2656 24.6321Z" fill="#3380FF"/>
<path d="M32.7207 23.369C33.087 23.2461 33.2845 22.8489 33.1619 22.4818C33.0392 22.1147 32.6429 21.9168 32.2766 22.0397C31.9102 22.1626 31.7127 22.5598 31.8353 22.9269C31.958 23.294 32.3544 23.4919 32.7207 23.369Z" fill="#3386FF"/>
<path d="M34.0012 21.8455C34.3641 21.713 34.5512 21.3107 34.419 20.947C34.2869 20.5832 33.8854 20.3958 33.5225 20.5282C33.1595 20.6607 32.9724 21.0629 33.1046 21.4267C33.2368 21.7904 33.6382 21.9779 34.0012 21.8455Z" fill="#338CFF"/>
<path d="M35.0543 20.0726C35.4137 19.9307 35.5902 19.5236 35.4486 19.1635C35.3069 18.8033 34.9008 18.6264 34.5414 18.7684C34.182 18.9103 34.0054 19.3174 34.1471 19.6775C34.2887 20.0377 34.6949 20.2146 35.0543 20.0726Z" fill="#3392FF"/>
<path d="M35.849 18.0721C36.2058 17.9202 36.3722 17.5073 36.2207 17.1498C36.0692 16.7922 35.6571 16.6255 35.3003 16.7773C34.9435 16.9292 34.7771 17.3421 34.9286 17.6996C35.0802 18.0572 35.4922 18.2239 35.849 18.0721Z" fill="#3398FF"/>
<path d="M36.3265 15.8579C36.6804 15.6963 36.8366 15.2777 36.6753 14.9231C36.514 14.5684 36.0963 14.4119 35.7424 14.5735C35.3885 14.7352 35.2323 15.1537 35.3936 15.5084C35.5549 15.8631 35.9726 16.0196 36.3265 15.8579Z" fill="#339EFF"/>
<path d="M36.4571 13.4382C36.8068 13.2675 36.9521 12.845 36.7817 12.4946C36.6113 12.1443 36.1898 11.9986 35.8401 12.1694C35.4905 12.3401 35.3452 12.7626 35.5155 13.1129C35.6859 13.4633 36.1075 13.6089 36.4571 13.4382Z" fill="#33A3FF"/>
<path d="M36.1853 10.8373C36.5328 10.6565 36.6681 10.2275 36.4876 9.87927C36.3071 9.53103 35.8791 9.39537 35.5316 9.57627C35.1841 9.75716 35.0487 10.1861 35.2292 10.5343C35.4097 10.8826 35.8378 11.0182 36.1853 10.8373Z" fill="#33A9FF"/>
<path d="M35.4631 8.06834C35.8071 7.87793 35.9318 7.44418 35.7418 7.09954C35.5518 6.75489 35.119 6.62986 34.7751 6.82027C34.4311 7.01068 34.3064 7.44443 34.4964 7.78907C34.6864 8.13372 35.1192 8.25875 35.4631 8.06834Z" fill="#33AFFF"/>
<path d="M34.2535 5.13807C34.5937 4.93838 34.7079 4.50016 34.5087 4.15927C34.3094 3.81838 33.8721 3.7039 33.532 3.90358C33.1918 4.10326 33.0775 4.54149 33.2768 4.88238C33.4761 5.22327 33.9134 5.33775 34.2535 5.13807Z" fill="#33B5FF"/>
<path d="M32.5223 2.0797C32.8596 1.87018 32.9636 1.42628 32.7545 1.08822C32.5454 0.750164 32.1025 0.645966 31.7651 0.855489C31.4278 1.06501 31.3238 1.50891 31.5329 1.84697C31.742 2.18503 32.1849 2.28923 32.5223 2.0797Z" fill="#33BBFF"/>
<path d="M72.1662 7.42969L67.0872 21.7532H64.5779L61.2455 12.2779L57.893 21.7532H55.3836L50.3047 7.42969H53.4966L56.7889 17.3274L60.2417 7.42969H62.4299L65.8024 17.4682L69.175 7.42969H72.1662Z" fill="#051B52"/>
<path d="M82.1165 18.5746H75.4316L74.0665 21.7532H70.9148L77.4792 7.42969H80.0087L86.5731 21.7532H83.4816L82.1165 18.5746ZM81.0927 16.1807L78.7841 10.8094L76.4755 16.1807H81.0927Z" fill="#051B52"/>
<path d="M100.013 7.42969L93.5888 21.7532H91.0795L84.6555 7.42969H87.9076L92.3642 17.8303L96.861 7.42969L100.013 7.42969Z" fill="#051B52"/>
<path d="M101.144 7.42969H111.001V9.86387H104.195V13.2436H110.579V15.6979H104.195V19.319H111.001V21.7532H101.144V7.42969Z" fill="#051B52"/>
<path d="M50.3047 24.9305H57.0657V26.2047H51.8304V29.5473H56.7665V30.8214H51.8304V35.6031H50.3047V24.9305Z" fill="#051B52"/>
<path d="M58.6569 28.0484H60.1527V35.6031H58.6569V28.0484ZM60.2724 24.7507V26.3396H58.5223V24.7507H60.2724Z" fill="#051B52"/>
<path d="M66.3759 27.8685C68.1808 27.8685 69.0833 28.8778 69.0833 30.8964V35.6031H67.5725V30.9863C67.5725 30.3268 67.4429 29.8471 67.1836 29.5473C66.9343 29.2475 66.5305 29.0976 65.972 29.0976C65.3338 29.0976 64.8203 29.2975 64.4314 29.6972C64.0524 30.0969 63.863 30.6316 63.863 31.3011V35.6031H62.3672V30.1769C62.3672 29.3874 62.3273 28.6779 62.2475 28.0484H63.6536L63.7882 29.3524C64.0275 28.8728 64.3715 28.508 64.8203 28.2582C65.279 27.9984 65.7975 27.8685 66.3759 27.8685Z" fill="#051B52"/>
<path d="M78.1294 28.0484V35.6031H76.6336V34.314C76.4142 34.7637 76.0852 35.1084 75.6464 35.3482C75.2176 35.5881 74.714 35.708 74.1356 35.708C73.4675 35.708 72.8792 35.5481 72.3706 35.2283C71.872 34.9086 71.4831 34.4589 71.2039 33.8793C70.9247 33.2897 70.7851 32.6052 70.7851 31.8257C70.7851 31.0463 70.9247 30.3567 71.2039 29.7572C71.4931 29.1576 71.892 28.6929 72.4005 28.3631C72.9091 28.0334 73.4875 27.8685 74.1356 27.8685C74.714 27.8685 75.2176 27.9934 75.6464 28.2432C76.0752 28.4831 76.4043 28.8278 76.6336 29.2775V28.0484H78.1294ZM74.4946 34.5088C75.1727 34.5088 75.6963 34.274 76.0652 33.8043C76.4441 33.3247 76.6336 32.6551 76.6336 31.7957C76.6336 30.9263 76.4441 30.2568 76.0652 29.7871C75.6963 29.3175 75.1677 29.0826 74.4797 29.0826C73.8016 29.0826 73.2681 29.3275 72.8792 29.8171C72.5002 30.2968 72.3108 30.9663 72.3108 31.8257C72.3108 32.6751 72.5002 33.3347 72.8792 33.8043C73.2681 34.274 73.8066 34.5088 74.4946 34.5088Z" fill="#051B52"/>
<path d="M84.3575 27.8685C86.1624 27.8685 87.0649 28.8778 87.0649 30.8964V35.6031H85.5541V30.9863C85.5541 30.3268 85.4245 29.8471 85.1652 29.5473C84.9159 29.2475 84.5121 29.0976 83.9536 29.0976C83.3154 29.0976 82.8019 29.2975 82.413 29.6972C82.034 30.0969 81.8446 30.6316 81.8446 31.3011V35.6031H80.3488V30.1769C80.3488 29.3874 80.3089 28.6779 80.2291 28.0484H81.6352L81.7698 29.3524C82.0091 28.8728 82.3531 28.508 82.8019 28.2582C83.2606 27.9984 83.7791 27.8685 84.3575 27.8685Z" fill="#051B52"/>
<path d="M92.4912 35.708C91.7333 35.708 91.0702 35.5481 90.5018 35.2283C89.9434 34.9086 89.5146 34.4589 89.2154 33.8793C88.9163 33.2897 88.7667 32.6052 88.7667 31.8257C88.7667 31.0463 88.9212 30.3567 89.2304 29.7572C89.5495 29.1576 89.9932 28.6929 90.5616 28.3631C91.13 28.0334 91.7932 27.8685 92.551 27.8685C93.0795 27.8685 93.5881 27.9584 94.0767 28.1383C94.5654 28.3082 94.9592 28.543 95.2584 28.8428L94.7947 29.937C94.0867 29.3774 93.3737 29.0976 92.6557 29.0976C91.9278 29.0976 91.3594 29.3375 90.9505 29.8171C90.5417 30.2868 90.3373 30.9513 90.3373 31.8107C90.3373 32.6701 90.5417 33.3347 90.9505 33.8043C91.3594 34.264 91.9278 34.4938 92.6557 34.4938C93.3937 34.4938 94.1067 34.214 94.7947 33.6544L95.2584 34.7487C94.9393 35.0485 94.5305 35.2833 94.0319 35.4532C93.5432 35.6231 93.0297 35.708 92.4912 35.708Z" fill="#051B52"/>
<path d="M96.6798 28.0484H98.1755V35.6031H96.6798V28.0484ZM98.2952 24.7507V26.3396H96.5451V24.7507H98.2952Z" fill="#051B52"/>
<path d="M107.286 28.0484V35.6031H105.79V34.314C105.57 34.7637 105.241 35.1084 104.803 35.3482C104.374 35.5881 103.87 35.708 103.292 35.708C102.624 35.708 102.035 35.5481 101.527 35.2283C101.028 34.9086 100.639 34.4589 100.36 33.8793C100.081 33.2897 99.9413 32.6052 99.9413 31.8257C99.9413 31.0463 100.081 30.3567 100.36 29.7572C100.649 29.1576 101.048 28.6929 101.557 28.3631C102.065 28.0334 102.644 27.8685 103.292 27.8685C103.87 27.8685 104.374 27.9934 104.803 28.2432C105.231 28.4831 105.56 28.8278 105.79 29.2775V28.0484H107.286ZM103.651 34.5088C104.329 34.5088 104.852 34.274 105.221 33.8043C105.6 33.3247 105.79 32.6551 105.79 31.7957C105.79 30.9263 105.6 30.2568 105.221 29.7871C104.852 29.3175 104.324 29.0826 103.636 29.0826C102.958 29.0826 102.424 29.3275 102.035 29.8171C101.656 30.2968 101.467 30.9663 101.467 31.8257C101.467 32.6751 101.656 33.3347 102.035 33.8043C102.424 34.274 102.963 34.5088 103.651 34.5088Z" fill="#051B52"/>
<path d="M109.505 24.5708H111.001V35.6031H109.505V24.5708Z" fill="#051B52"/>
</svg>
