<?xml version="1.0" encoding="UTF-8"?>
<svg id="katman_1" data-name="katman 1" xmlns="http://www.w3.org/2000/svg" width="300" height="100" viewBox="0 0 300 100">
  <defs>
    <style>
      .cls-1 {
        fill: #051b52;
      }

      .cls-2 {
        fill: #3363ff;
      }

      .cls-3 {
        fill: #335dff;
      }

      .cls-4 {
        fill: #3369ff;
      }

      .cls-5 {
        fill: #3392ff;
      }

      .cls-6 {
        fill: #3398ff;
      }

      .cls-7 {
        fill: #33b5ff;
      }

      .cls-8 {
        fill: #33afff;
      }

      .cls-9 {
        fill: #3351ff;
      }

      .cls-10 {
        fill: #3357ff;
      }

      .cls-11 {
        fill: #3374ff;
      }

      .cls-12 {
        fill: #338cff;
      }

      .cls-13 {
        fill: #33a9ff;
      }

      .cls-14 {
        fill: #3bf;
      }

      .cls-15 {
        fill: #336eff;
      }

      .cls-16 {
        fill: #3380ff;
      }

      .cls-17 {
        fill: #3386ff;
      }

      .cls-18 {
        fill: #33a3ff;
      }

      .cls-19 {
        fill: #337aff;
      }

      .cls-20 {
        fill: #339eff;
      }
    </style>
  </defs>
  <path class="cls-9" d="M112.35,49.35c.38-.11,.6-.51,.49-.89-.11-.38-.51-.6-.89-.5s-.6,.51-.49,.89c.11,.38,.51,.6,.89,.5Z"/>
  <path class="cls-10" d="M111.85,50.89c.38-.12,.59-.52,.47-.9-.12-.38-.52-.59-.89-.47-.38,.12-.59,.52-.47,.9,.12,.38,.52,.59,.89,.47Z"/>
  <path class="cls-3" d="M111.76,52.45c.37-.13,.57-.53,.45-.9-.13-.37-.53-.57-.9-.45-.37,.13-.57,.53-.45,.9,.13,.37,.53,.57,.9,.45Z"/>
  <path class="cls-2" d="M112.03,53.97c.37-.14,.56-.54,.42-.91-.14-.37-.54-.56-.91-.42-.37,.14-.56,.54-.42,.91,.14,.37,.54,.56,.91,.42Z"/>
  <path class="cls-4" d="M112.64,55.43c.36-.14,.54-.55,.39-.92-.14-.36-.55-.54-.91-.4-.36,.14-.54,.55-.39,.92,.14,.36,.55,.54,.91,.4Z"/>
  <path class="cls-15" d="M113.54,56.79c.36-.15,.52-.57,.37-.93-.15-.36-.57-.52-.92-.37-.36,.15-.52,.57-.37,.93,.15,.36,.57,.52,.92,.37Z"/>
  <path class="cls-11" d="M114.72,58.01c.35-.16,.51-.58,.35-.93-.16-.35-.58-.51-.93-.35-.35,.16-.51,.58-.35,.93s.58,.51,.93,.35Z"/>
  <path class="cls-19" d="M116.11,59.05c.35-.17,.49-.59,.32-.94-.17-.35-.59-.49-.94-.32-.35,.17-.49,.59-.32,.94,.17,.35,.59,.49,.94,.32Z"/>
  <path class="cls-16" d="M117.71,59.87c.34-.18,.47-.6,.3-.95-.18-.34-.6-.48-.94-.3-.34,.18-.47,.6-.3,.95,.18,.34,.6,.48,.94,.3Z"/>
  <path class="cls-17" d="M119.47,60.44c.34-.19,.46-.62,.27-.95-.19-.34-.61-.46-.95-.27-.34,.19-.46,.62-.27,.95,.19,.34,.61,.46,.95,.27Z"/>
  <path class="cls-12" d="M121.37,60.71c.33-.2,.44-.63,.25-.96-.2-.33-.63-.44-.96-.25-.33,.2-.44,.63-.25,.96,.2,.33,.63,.44,.96,.25Z"/>
  <path class="cls-5" d="M123.35,60.64c.33-.21,.43-.64,.22-.97-.21-.33-.64-.43-.96-.22-.33,.21-.43,.64-.22,.97,.21,.33,.64,.43,.96,.22Z"/>
  <path class="cls-6" d="M125.39,60.2c.32-.22,.41-.65,.2-.98-.21-.32-.65-.41-.97-.2-.32,.22-.41,.65-.2,.98,.21,.32,.65,.41,.97,.2Z"/>
  <path class="cls-20" d="M127.47,59.36c.32-.22,.39-.66,.17-.98-.22-.32-.66-.4-.98-.17s-.39,.66-.17,.98c.22,.32,.66,.4,.98,.17Z"/>
  <path class="cls-18" d="M129.53,58.04c.31-.23,.38-.67,.15-.99-.23-.31-.67-.38-.99-.15-.31,.23-.38,.67-.15,.99,.23,.31,.67,.38,.99,.15Z"/>
  <path class="cls-13" d="M131.56,56.25c.31-.24,.36-.69,.12-1-.24-.31-.69-.36-1-.12s-.36,.69-.12,1c.24,.31,.69,.36,1,.12Z"/>
  <path class="cls-8" d="M133.51,53.93c.3-.25,.35-.7,.1-1-.25-.3-.7-.35-1-.1-.3,.25-.35,.7-.1,1,.25,.3,.7,.35,1,.1Z"/>
  <path class="cls-7" d="M135.35,51.04c.3-.26,.33-.71,.07-1.01-.26-.3-.71-.33-1.01-.07-.3,.26-.33,.71-.07,1.01,.26,.3,.71,.33,1.01,.07Z"/>
  <path class="cls-14" d="M137.04,47.54c.29-.27,.31-.72,.05-1.02-.27-.29-.72-.31-1.02-.05-.29,.27-.31,.72-.05,1.02,.27,.29,.72,.31,1.02,.05Z"/>
  <path class="cls-9" d="M115.63,46.17c.2-.35,.07-.79-.27-.98s-.78-.07-.98,.27c-.2,.35-.07,.79,.27,.98s.78,.07,.98-.27Z"/>
  <path class="cls-10" d="M114.25,46.24c.19-.35,.05-.78-.29-.97-.35-.19-.78-.05-.97,.29-.19,.35-.05,.78,.29,.97,.35,.19,.78,.05,.97-.29Z"/>
  <path class="cls-3" d="M113.01,46.7c.18-.35,.03-.78-.32-.96-.35-.18-.78-.03-.95,.32-.18,.35-.03,.78,.32,.96,.35,.18,.78,.03,.95-.32Z"/>
  <path class="cls-2" d="M111.93,47.5c.17-.36,.01-.78-.34-.95-.35-.17-.78-.01-.94,.34-.17,.36-.01,.78,.34,.95,.35,.17,.78,.01,.94-.34Z"/>
  <path class="cls-4" d="M111.02,48.58c.16-.36,0-.77-.36-.93-.36-.16-.77,0-.93,.36-.16,.36,0,.77,.36,.93,.36,.16,.77,0,.93-.36Z"/>
  <path class="cls-15" d="M110.33,49.9c.15-.36-.03-.77-.39-.92-.36-.15-.77,.03-.92,.39-.15,.36,.03,.77,.39,.92,.36,.15,.77-.03,.92-.39Z"/>
  <path class="cls-11" d="M109.84,51.4c.14-.36-.05-.77-.41-.91-.36-.14-.77,.05-.9,.41-.14,.36,.05,.77,.41,.91,.36,.14,.77-.05,.9-.41Z"/>
  <path class="cls-19" d="M109.61,53.05c.13-.37-.07-.77-.43-.89-.36-.13-.76,.07-.89,.43-.13,.37,.07,.77,.43,.89,.36,.13,.76-.07,.89-.43Z"/>
  <path class="cls-16" d="M109.65,54.78c.12-.37-.09-.76-.45-.88-.37-.12-.76,.09-.88,.45-.12,.37,.09,.76,.45,.88,.37,.12,.76-.09,.88-.45Z"/>
  <path class="cls-17" d="M109.98,56.54c.11-.37-.11-.76-.48-.87-.37-.11-.76,.11-.87,.48-.11,.37,.11,.76,.48,.87,.37,.11,.76-.11,.87-.48Z"/>
  <path class="cls-12" d="M110.63,58.31c.1-.37-.13-.76-.5-.86-.37-.1-.76,.13-.85,.5-.1,.37,.13,.76,.5,.86,.37,.1,.76-.13,.85-.5Z"/>
  <path class="cls-5" d="M111.61,60c.09-.38-.14-.75-.52-.84-.38-.09-.75,.15-.84,.52-.09,.38,.14,.75,.52,.84,.38,.09,.75-.15,.84-.52Z"/>
  <path class="cls-6" d="M112.96,61.59c.08-.38-.16-.75-.54-.83-.38-.08-.75,.17-.83,.55-.08,.38,.16,.75,.54,.83,.38,.08,.75-.17,.83-.55Z"/>
  <path class="cls-20" d="M114.68,63.02c.07-.38-.19-.75-.57-.82-.38-.07-.75,.19-.82,.57-.07,.38,.19,.75,.57,.82,.38,.07,.75-.19,.82-.57Z"/>
  <path class="cls-18" d="M116.82,64.13c.06-.39-.21-.75-.59-.8-.39-.06-.74,.21-.8,.59-.06,.39,.21,.75,.59,.8,.39,.06,.74-.21,.8-.59Z"/>
  <path class="cls-13" d="M119.37,65.2c.05-.39-.23-.75-.61-.79-.39-.05-.74,.23-.79,.61-.05,.39,.23,.75,.61,.79,.39,.05,.74-.23,.79-.61Z"/>
  <path class="cls-8" d="M122.38,65.84c.04-.39-.24-.74-.64-.78-.39-.04-.74,.25-.78,.64-.04,.39,.24,.74,.64,.78,.39,.04,.74-.25,.78-.64Z"/>
  <path class="cls-7" d="M125.86,66.13c.03-.39-.26-.74-.66-.77-.39-.03-.74,.26-.77,.66-.03,.39,.26,.74,.66,.77,.39,.03,.74-.26,.77-.66Z"/>
  <path class="cls-14" d="M129.85,66.01c.02-.4-.28-.74-.68-.76-.4-.02-.73,.29-.75,.68-.02,.4,.28,.74,.68,.76,.4,.02,.73-.29,.75-.68Z"/>
  <path class="cls-9" d="M120.86,52.24c.38-.12,.58-.53,.46-.91-.12-.38-.53-.58-.91-.46-.38,.12-.58,.53-.46,.91,.12,.38,.53,.58,.91,.46Z"/>
  <path class="cls-10" d="M121.96,50.58c.37-.14,.56-.55,.42-.91-.14-.37-.54-.56-.91-.42-.37,.14-.56,.55-.42,.91s.54,.56,.91,.42Z"/>
  <path class="cls-3" d="M122.51,48.94c.36-.15,.53-.56,.39-.92-.15-.36-.56-.54-.92-.39-.36,.15-.53,.56-.39,.92,.15,.36,.56,.54,.92,.39Z"/>
  <path class="cls-2" d="M122.62,47.28c.35-.16,.51-.57,.35-.93-.16-.35-.57-.51-.92-.35-.35,.16-.51,.57-.35,.93,.16,.35,.57,.51,.92,.35Z"/>
  <path class="cls-4" d="M122.3,45.63c.34-.17,.49-.59,.32-.93-.17-.35-.58-.49-.93-.32-.34,.17-.49,.59-.32,.93,.17,.35,.58,.49,.93,.32Z"/>
  <path class="cls-15" d="M121.6,44.05c.34-.18,.46-.6,.28-.94-.18-.34-.6-.46-.93-.28-.34,.18-.46,.6-.28,.94,.18,.34,.6,.46,.93,.28Z"/>
  <path class="cls-11" d="M120.58,42.58c.33-.19,.44-.61,.25-.94-.19-.33-.61-.44-.94-.25-.33,.19-.44,.61-.25,.94,.19,.33,.61,.44,.94,.25Z"/>
  <path class="cls-19" d="M119.26,41.27c.32-.2,.42-.63,.21-.95-.2-.32-.62-.42-.94-.21-.32,.2-.42,.63-.21,.95,.2,.32,.62,.42,.94,.21Z"/>
  <path class="cls-16" d="M117.68,40.17c.31-.21,.39-.64,.18-.95-.21-.31-.64-.39-.95-.18-.31,.21-.39,.64-.18,.95,.21,.31,.64,.39,.95,.18Z"/>
  <path class="cls-17" d="M115.88,39.3c.3-.22,.37-.65,.14-.96-.22-.3-.65-.37-.95-.15-.3,.22-.37,.65-.14,.96,.22,.3,.65,.37,.95,.15Z"/>
  <path class="cls-12" d="M113.9,38.74c.3-.24,.34-.67,.11-.96-.23-.3-.66-.35-.96-.11-.3,.24-.34,.67-.11,.96,.23,.3,.66,.35,.96,.11Z"/>
  <path class="cls-5" d="M111.78,38.52c.29-.25,.32-.68,.08-.97-.25-.29-.68-.32-.97-.08-.29,.25-.32,.68-.08,.97,.25,.29,.68,.32,.97,.08Z"/>
  <path class="cls-6" d="M109.57,38.67c.28-.26,.3-.69,.04-.97-.26-.28-.69-.3-.97-.04-.28,.26-.3,.69-.04,.97,.26,.28,.69,.3,.97,.04Z"/>
  <path class="cls-20" d="M107.3,39.26c.27-.27,.27-.71,0-.98-.27-.27-.7-.27-.98,0-.27,.27-.27,.71,0,.98,.27,.27,.7,.27,.98,0Z"/>
  <path class="cls-18" d="M105.01,40.34c.26-.28,.25-.72-.03-.98-.28-.26-.72-.25-.98,.03-.26,.28-.25,.72,.03,.98,.28,.26,.72,.25,.98-.03Z"/>
  <path class="cls-13" d="M102.73,41.93c.25-.29,.23-.73-.06-.99-.29-.26-.73-.23-.99,.06-.25,.29-.23,.73,.06,.99,.29,.26,.73,.23,.99-.06Z"/>
  <path class="cls-8" d="M100.52,44.09c.25-.3,.2-.75-.1-.99-.3-.25-.74-.2-.99,.1-.25,.3-.2,.75,.1,.99,.3,.25,.74,.2,.99-.1Z"/>
  <path class="cls-7" d="M98.41,46.87c.24-.31,.18-.76-.13-1-.31-.24-.76-.18-1,.13-.24,.31-.18,.76,.13,1,.31,.24,.76,.18,1-.13Z"/>
  <path class="cls-14" d="M96.42,50.32c.23-.32,.16-.77-.17-1-.32-.23-.77-.15-1,.17-.23,.32-.16,.77,.17,1,.32,.23,.77,.15,1-.17Z"/>
  <path class="cls-9" d="M119.55,47.74c.4,0,.72-.32,.72-.72s-.32-.72-.72-.72-.72,.32-.72,.72,.32,.72,.72,.72Z"/>
  <path class="cls-10" d="M118.76,46.39c.39,0,.71-.34,.7-.73,0-.39-.34-.71-.73-.7-.39,0-.71,.34-.7,.73,0,.39,.34,.71,.73,.7Z"/>
  <path class="cls-3" d="M117.68,45.4c.39-.02,.69-.35,.67-.75-.02-.39-.35-.7-.75-.68-.39,.02-.69,.35-.67,.75,.02,.39,.35,.7,.75,.68Z"/>
  <path class="cls-2" d="M116.36,44.74c.39-.03,.68-.37,.65-.76s-.37-.68-.76-.65c-.39,.03-.68,.37-.65,.76,.03,.39,.37,.68,.76,.65Z"/>
  <path class="cls-4" d="M114.87,44.41c.39-.04,.67-.39,.63-.77-.04-.39-.39-.67-.77-.63-.39,.04-.67,.39-.63,.77,.04,.39,.38,.67,.77,.63Z"/>
  <path class="cls-15" d="M113.26,44.42c.39-.05,.66-.4,.61-.79-.05-.39-.4-.66-.79-.61-.39,.05-.66,.4-.61,.79,.05,.39,.4,.66,.79,.61Z"/>
  <path class="cls-11" d="M111.6,44.73c.38-.06,.65-.42,.59-.8-.06-.38-.42-.65-.8-.59-.38,.06-.65,.42-.59,.8,.06,.38,.42,.65,.8,.59Z"/>
  <path class="cls-19" d="M109.95,45.33c.38-.07,.63-.43,.56-.81-.07-.38-.43-.63-.81-.56-.38,.07-.63,.43-.56,.81,.07,.38,.43,.63,.81,.56Z"/>
  <path class="cls-16" d="M108.35,46.24c.38-.08,.62-.45,.54-.83-.08-.38-.45-.62-.83-.54-.38,.08-.62,.45-.54,.83,.08,.38,.45,.62,.83,.54Z"/>
  <path class="cls-17" d="M106.89,47.43c.38-.09,.61-.47,.52-.84-.09-.38-.47-.61-.84-.52-.38,.09-.61,.47-.52,.84,.09,.38,.47,.61,.84,.52Z"/>
  <path class="cls-12" d="M105.74,48.9c.37-.1,.6-.49,.5-.86-.1-.38-.49-.6-.86-.5-.37,.1-.6,.49-.5,.86,.1,.38,.49,.6,.86,.5Z"/>
  <path class="cls-5" d="M104.59,50.62c.37-.11,.58-.5,.48-.87-.11-.37-.5-.58-.87-.48-.37,.11-.58,.5-.48,.87,.11,.37,.5,.58,.87,.48Z"/>
  <path class="cls-6" d="M103.87,52.59c.37-.12,.57-.51,.45-.88s-.51-.57-.88-.45c-.37,.12-.57,.51-.45,.88s.51,.57,.88,.45Z"/>
  <path class="cls-20" d="M103.51,54.82c.37-.13,.56-.53,.43-.9-.13-.37-.53-.56-.9-.43-.37,.13-.56,.53-.43,.9s.53,.56,.9,.43Z"/>
  <path class="cls-18" d="M103.58,57.27c.36-.14,.55-.55,.41-.91-.14-.36-.54-.55-.91-.41-.36,.14-.55,.55-.41,.91,.14,.36,.54,.55,.91,.41Z"/>
  <path class="cls-13" d="M104.14,59.96c.36-.15,.54-.56,.39-.93-.15-.36-.56-.54-.92-.39-.36,.15-.54,.56-.39,.93,.15,.36,.56,.54,.92,.39Z"/>
  <path class="cls-8" d="M105.24,62.86c.36-.16,.52-.58,.37-.94-.16-.36-.58-.52-.94-.37-.36,.16-.52,.58-.37,.94,.16,.36,.58,.52,.94,.37Z"/>
  <path class="cls-7" d="M107.17,66.37c.36-.17,.51-.59,.34-.95-.17-.36-.59-.51-.95-.34-.36,.17-.51,.59-.34,.95,.17,.36,.59,.51,.95,.34Z"/>
  <path class="cls-14" d="M109.44,69.86c.35-.18,.5-.61,.32-.97s-.61-.5-.96-.32c-.35,.18-.5,.61-.32,.97,.18,.36,.61,.5,.96,.32Z"/>
  <path class="cls-9" d="M115.63,46.17c.2-.35,.07-.79-.27-.98s-.78-.07-.98,.27c-.2,.35-.07,.79,.27,.98s.78,.07,.98-.27Z"/>
  <path class="cls-10" d="M114.08,46.1c.19-.35,.05-.78-.29-.97-.35-.19-.78-.05-.97,.29-.19,.35-.05,.78,.29,.97,.35,.19,.78,.05,.97-.29Z"/>
  <path class="cls-3" d="M112.65,46.45c.18-.35,.03-.78-.32-.96-.35-.18-.78-.03-.95,.32-.18,.35-.03,.78,.32,.96,.35,.18,.78,.03,.95-.32Z"/>
  <path class="cls-2" d="M111.37,47.16c.17-.36,.01-.78-.34-.95-.35-.17-.78-.01-.94,.34-.17,.36-.01,.78,.34,.95,.35,.17,.78,.01,.94-.34Z"/>
  <path class="cls-4" d="M110.25,48.19c.16-.36,0-.77-.36-.93-.36-.16-.77,0-.93,.36-.16,.36,0,.77,.36,.93,.36,.16,.77,0,.93-.36Z"/>
  <path class="cls-15" d="M109.33,49.48c.15-.36-.03-.77-.39-.92-.36-.15-.77,.03-.92,.39-.15,.36,.03,.77,.39,.92,.36,.15,.77-.03,.92-.39Z"/>
  <path class="cls-11" d="M108.64,50.98c.14-.36-.05-.77-.41-.91-.36-.14-.77,.05-.9,.41-.14,.36,.05,.77,.41,.91,.36,.14,.77-.05,.9-.41Z"/>
  <path class="cls-19" d="M108.19,52.66c.13-.37-.07-.77-.43-.89-.36-.13-.76,.07-.89,.43-.13,.37,.07,.77,.43,.89,.36,.13,.76-.07,.89-.43Z"/>
  <path class="cls-16" d="M108.03,54.46c.12-.37-.09-.76-.45-.88-.37-.12-.76,.09-.88,.45-.12,.37,.09,.76,.45,.88,.37,.12,.76-.09,.88-.45Z"/>
  <path class="cls-17" d="M108.18,56.33c.11-.37-.11-.76-.48-.87-.37-.11-.76,.11-.87,.48-.11,.37,.11,.76,.48,.87,.37,.11,.76-.11,.87-.48Z"/>
  <path class="cls-12" d="M108.65,58.21c.1-.37-.13-.76-.5-.86-.37-.1-.76,.13-.85,.5-.1,.37,.13,.76,.5,.86,.37,.1,.76-.13,.85-.5Z"/>
  <path class="cls-5" d="M109.49,60.08c.09-.38-.14-.75-.52-.84-.38-.09-.75,.15-.84,.52-.09,.38,.14,.75,.52,.84,.38,.09,.75-.15,.84-.52Z"/>
  <path class="cls-6" d="M110.71,61.89c.08-.38-.16-.75-.54-.83-.38-.08-.75,.17-.83,.55-.08,.38,.16,.75,.54,.83,.38,.08,.75-.17,.83-.55Z"/>
  <path class="cls-20" d="M112.35,63.56c.07-.38-.19-.75-.57-.82-.38-.07-.75,.19-.82,.57-.07,.38,.19,.75,.57,.82,.38,.07,.75-.19,.82-.57Z"/>
  <path class="cls-18" d="M114.45,64.97c.06-.39-.21-.75-.59-.8-.39-.06-.74,.21-.8,.59-.06,.39,.21,.75,.59,.8,.39,.06,.74-.21,.8-.59Z"/>
  <path class="cls-13" d="M116.98,66.36c.05-.39-.22-.75-.61-.79-.39-.05-.74,.23-.79,.61-.05,.39,.23,.75,.61,.79,.39,.05,.74-.23,.79-.61Z"/>
  <path class="cls-8" d="M120.01,67.37c.04-.39-.24-.74-.64-.78-.39-.04-.74,.25-.78,.64-.04,.39,.24,.74,.64,.78,.39,.04,.74-.25,.78-.64Z"/>
  <path class="cls-7" d="M123.58,68.07c.03-.39-.26-.74-.66-.77-.39-.03-.74,.26-.77,.66-.03,.39,.26,.74,.66,.77,.39,.03,.74-.26,.77-.66Z"/>
  <path class="cls-14" d="M127.69,68.42c.02-.4-.28-.74-.68-.76-.4-.02-.73,.29-.75,.68-.02,.4,.28,.74,.68,.76,.4,.02,.73-.29,.75-.68Z"/>
  <path class="cls-9" d="M121.03,52.11c.35-.19,.48-.62,.3-.97-.19-.35-.62-.48-.97-.3-.35,.19-.48,.62-.3,.97,.19,.35,.62,.48,.97,.3Z"/>
  <path class="cls-10" d="M121.85,50.75c.34-.19,.47-.63,.27-.97-.19-.34-.63-.47-.97-.27-.34,.19-.47,.63-.27,.97,.19,.34,.63,.47,.97,.27Z"/>
  <path class="cls-3" d="M122.22,49.3c.34-.2,.45-.64,.25-.98-.2-.34-.64-.45-.98-.25-.34,.2-.45,.64-.25,.98,.2,.34,.64,.45,.98,.25Z"/>
  <path class="cls-2" d="M122.18,47.81c.33-.21,.43-.65,.22-.98-.21-.33-.65-.43-.98-.22-.33,.21-.43,.65-.22,.98,.21,.33,.65,.43,.98,.22Z"/>
  <path class="cls-4" d="M121.76,46.3c.32-.22,.41-.66,.19-.98-.22-.32-.65-.41-.98-.19-.32,.22-.41,.65-.19,.98,.22,.32,.65,.41,.98,.19Z"/>
  <path class="cls-15" d="M121.02,44.85c.32-.23,.39-.67,.17-.98-.22-.32-.66-.39-.98-.17s-.39,.67-.17,.98c.22,.32,.66,.39,.98,.17Z"/>
  <path class="cls-11" d="M119.97,43.51c.31-.23,.37-.67,.14-.98-.23-.31-.67-.38-.98-.14-.31,.23-.37,.67-.14,.98,.23,.31,.67,.38,.98,.14Z"/>
  <path class="cls-19" d="M118.77,42.33c.31-.24,.36-.68,.12-.99-.24-.31-.68-.36-.99-.12-.31,.24-.36,.68-.12,.99,.24,.31,.68,.36,.99,.12Z"/>
  <path class="cls-16" d="M117.11,41.29c.3-.25,.34-.69,.09-.99-.25-.3-.69-.34-.99-.09-.3,.25-.34,.69-.09,.99,.25,.3,.69,.34,.98,.09Z"/>
  <path class="cls-17" d="M115.38,40.53c.29-.26,.32-.7,.06-.99-.25-.29-.7-.32-.99-.06-.29,.26-.32,.7-.06,.99,.25,.29,.7,.32,.99,.06Z"/>
  <path class="cls-12" d="M113.5,40.06c.28-.26,.3-.71,.04-.99-.26-.28-.7-.3-.99-.04-.28,.26-.3,.71-.04,.99,.26,.28,.7,.3,.99,.04Z"/>
  <path class="cls-5" d="M111.49,39.92c.28-.27,.28-.71,.01-.99-.27-.28-.71-.28-.99-.01-.28,.27-.28,.71-.01,.99,.27,.28,.71,.28,.99,.01Z"/>
  <path class="cls-6" d="M109.41,40.2c.27-.28,.26-.72-.01-.99-.28-.27-.72-.27-.99,.01s-.26,.72,.01,.99c.28,.27,.72,.27,.99-.01Z"/>
  <path class="cls-20" d="M107.29,40.9c.26-.29,.25-.73-.04-1-.29-.26-.73-.25-1,.04-.26,.29-.25,.73,.04,1,.29,.26,.73,.25,1-.04Z"/>
  <path class="cls-18" d="M105.15,42.09c.26-.29,.23-.74-.06-1-.29-.26-.74-.23-.99,.06-.26,.29-.23,.74,.06,1,.29,.26,.74,.23,.99-.06Z"/>
  <path class="cls-13" d="M103.05,43.81c.25-.3,.21-.75-.09-1-.3-.25-.75-.21-1,.09-.25,.3-.21,.75,.09,1,.3,.25,.75,.21,1-.09Z"/>
  <path class="cls-8" d="M101.02,46.12c.24-.31,.19-.76-.12-1-.31-.24-.76-.19-1,.12-.24,.31-.19,.76,.12,1,.31,.24,.76,.19,1-.12Z"/>
  <path class="cls-7" d="M99.08,49.06c.24-.32,.17-.76-.14-1-.32-.24-.76-.17-1,.14-.24,.32-.17,.76,.14,1,.32,.24,.76,.17,1-.14Z"/>
  <path class="cls-14" d="M97.29,52.69c.23-.32,.15-.77-.17-1-.32-.23-.77-.16-1,.17-.23,.32-.15,.77,.17,1,.32,.23,.77,.16,1-.17Z"/>
  <path class="cls-9" d="M119.55,47.74c.4,0,.72-.32,.72-.72s-.32-.72-.72-.72-.72,.32-.72,.72,.32,.72,.72,.72Z"/>
  <path class="cls-10" d="M118.71,46.06c.39,0,.71-.34,.7-.73,0-.39-.34-.71-.73-.7s-.71,.34-.7,.73c0,.39,.34,.71,.73,.7Z"/>
  <path class="cls-3" d="M117.56,44.77c.39-.02,.69-.35,.67-.75-.02-.39-.35-.7-.75-.68-.39,.02-.69,.35-.67,.75,.02,.39,.35,.7,.75,.68Z"/>
  <path class="cls-2" d="M116.17,43.86c.39-.03,.68-.37,.65-.76-.03-.39-.37-.68-.76-.65-.39,.03-.68,.37-.65,.76s.37,.68,.76,.65Z"/>
  <path class="cls-4" d="M114.57,43.32c.39-.04,.67-.39,.63-.77-.04-.39-.39-.67-.77-.63-.39,.04-.67,.39-.63,.77,.04,.39,.39,.67,.77,.63Z"/>
  <path class="cls-15" d="M112.85,43.15c.39-.05,.66-.4,.61-.79-.05-.39-.4-.66-.79-.61-.39,.05-.66,.4-.61,.79,.05,.39,.4,.66,.79,.61Z"/>
  <path class="cls-11" d="M111.07,43.33c.38-.06,.65-.42,.59-.8-.06-.38-.42-.65-.8-.59-.38,.06-.65,.42-.59,.8,.06,.38,.42,.65,.8,.59Z"/>
  <path class="cls-19" d="M109.27,43.85c.38-.07,.63-.43,.56-.81-.07-.38-.43-.63-.81-.56-.38,.07-.63,.43-.56,.81,.07,.38,.43,.63,.81,.56Z"/>
  <path class="cls-16" d="M107.54,44.7c.38-.08,.62-.45,.54-.83-.08-.38-.45-.62-.83-.54-.38,.08-.62,.45-.54,.83,.08,.38,.45,.62,.83,.54Z"/>
  <path class="cls-17" d="M105.91,45.88c.38-.09,.61-.47,.52-.84-.09-.38-.47-.61-.84-.52-.38,.09-.61,.47-.52,.84,.09,.38,.47,.61,.84,.52Z"/>
  <path class="cls-12" d="M104.46,47.35c.37-.1,.6-.48,.5-.86s-.48-.6-.85-.5-.6,.48-.5,.86c.1,.37,.48,.6,.85,.5Z"/>
  <path class="cls-5" d="M103.24,49.12c.37-.11,.58-.5,.48-.87-.11-.37-.5-.58-.87-.48-.37,.11-.58,.5-.48,.87,.11,.37,.5,.58,.87,.48Z"/>
  <path class="cls-6" d="M102.32,51.18c.37-.12,.57-.51,.45-.88-.12-.37-.51-.57-.88-.45-.37,.12-.57,.51-.45,.88,.12,.37,.51,.57,.88,.45Z"/>
  <path class="cls-20" d="M101.76,53.54c.37-.13,.56-.53,.43-.9-.13-.37-.53-.56-.9-.43-.37,.13-.56,.53-.43,.9,.13,.37,.53,.56,.9,.43Z"/>
  <path class="cls-18" d="M101.62,56.14c.36-.14,.55-.55,.41-.91-.14-.36-.54-.55-.91-.41-.36,.14-.55,.55-.41,.91,.14,.36,.54,.55,.91,.41Z"/>
  <path class="cls-13" d="M101.96,59c.36-.15,.54-.56,.39-.93-.15-.36-.56-.54-.92-.39-.36,.15-.54,.56-.39,.93,.15,.36,.56,.54,.92,.39Z"/>
  <path class="cls-8" d="M102.84,62.11c.36-.16,.52-.58,.37-.94-.16-.36-.58-.52-.94-.37-.36,.16-.52,.58-.37,.94,.16,.36,.58,.52,.94,.37Z"/>
  <path class="cls-7" d="M104.53,65.86c.36-.17,.51-.59,.34-.95-.17-.36-.59-.51-.95-.34-.36,.17-.51,.59-.34,.95,.17,.36,.59,.51,.95,.34Z"/>
  <path class="cls-14" d="M106.47,69.62c.36-.18,.5-.61,.32-.97-.18-.36-.61-.5-.96-.32-.35,.18-.5,.61-.32,.97,.18,.36,.61,.5,.96,.32Z"/>
  <path class="cls-9" d="M113.39,53.73c.4-.04,.69-.39,.65-.78-.04-.4-.39-.69-.78-.65-.4,.04-.69,.39-.65,.78,.04,.4,.39,.69,.78,.65Z"/>
  <path class="cls-10" d="M114.62,54.73c.39-.05,.67-.4,.63-.79-.05-.39-.4-.67-.79-.63-.39,.05-.67,.4-.63,.79s.4,.67,.79,.63Z"/>
  <path class="cls-3" d="M115.99,55.41c.39-.06,.66-.42,.6-.81-.06-.39-.42-.66-.8-.61-.39,.06-.66,.42-.6,.81,.05,.39,.41,.66,.8,.61Z"/>
  <path class="cls-2" d="M117.55,55.73c.39-.07,.65-.43,.58-.82-.07-.39-.43-.65-.82-.58-.39,.07-.65,.43-.58,.82,.07,.39,.43,.65,.82,.58Z"/>
  <path class="cls-4" d="M119.15,55.78c.38-.07,.63-.45,.56-.83-.07-.38-.44-.63-.83-.56-.38,.07-.63,.45-.56,.83,.07,.38,.44,.63,.83,.56Z"/>
  <path class="cls-15" d="M120.78,55.53c.38-.08,.62-.46,.53-.84-.08-.38-.46-.62-.84-.54-.38,.08-.62,.46-.53,.84,.08,.38,.46,.62,.84,.54Z"/>
  <path class="cls-11" d="M122.4,54.99c.38-.09,.6-.48,.51-.85-.09-.38-.47-.61-.85-.51-.38,.09-.6,.48-.51,.85,.09,.38,.47,.61,.85,.51Z"/>
  <path class="cls-19" d="M123.97,54.21c.37-.1,.59-.49,.49-.86-.1-.37-.49-.59-.86-.49-.37,.1-.59,.49-.49,.86,.1,.37,.49,.59,.86,.49Z"/>
  <path class="cls-16" d="M125.43,53.15c.37-.11,.58-.51,.46-.88-.11-.37-.5-.58-.87-.47-.37,.11-.58,.51-.46,.88,.11,.37,.5,.58,.87,.47Z"/>
  <path class="cls-17" d="M126.75,51.87c.37-.12,.56-.52,.44-.89-.12-.37-.52-.57-.89-.44s-.56,.52-.44,.89,.52,.57,.89,.44Z"/>
  <path class="cls-12" d="M127.87,50.36c.36-.13,.55-.53,.42-.9-.13-.36-.53-.55-.9-.42-.36,.13-.55,.53-.42,.9,.13,.36,.53,.55,.9,.42Z"/>
  <path class="cls-5" d="M128.75,48.64c.36-.14,.54-.55,.39-.91-.14-.36-.55-.54-.91-.4-.36,.14-.54,.55-.39,.91,.14,.36,.55,.54,.91,.4Z"/>
  <path class="cls-6" d="M129.35,46.73c.36-.15,.52-.56,.37-.92-.15-.36-.56-.52-.92-.37-.36,.15-.52,.56-.37,.92,.15,.36,.56,.52,.92,.37Z"/>
  <path class="cls-20" d="M129.62,44.63c.35-.16,.51-.58,.35-.93-.16-.35-.58-.51-.93-.35-.35,.16-.51,.58-.35,.93,.16,.35,.58,.51,.93,.35Z"/>
  <path class="cls-18" d="M129.52,42.34c.35-.17,.49-.59,.32-.94s-.59-.5-.94-.33c-.35,.17-.49,.59-.32,.94,.17,.35,.59,.5,.94,.33Z"/>
  <path class="cls-13" d="M129,39.91c.35-.18,.48-.61,.3-.96-.18-.35-.61-.48-.96-.3-.35,.18-.48,.61-.3,.96,.18,.35,.61,.48,.96,.3Z"/>
  <path class="cls-8" d="M128.02,37.32c.34-.19,.47-.62,.28-.97-.19-.34-.62-.47-.97-.28s-.47,.62-.28,.97c.19,.34,.62,.47,.97,.28Z"/>
  <path class="cls-7" d="M126.52,34.62c.34-.2,.45-.64,.26-.98-.2-.34-.64-.46-.98-.26-.34,.2-.45,.64-.26,.98,.2,.34,.64,.46,.98,.26Z"/>
  <path class="cls-14" d="M124.48,31.79c.34-.21,.44-.65,.23-.99-.21-.34-.65-.44-.99-.23-.34,.21-.44,.65-.23,.99,.21,.34,.65,.44,.99,.23Z"/>
  <path class="cls-9" d="M112.35,49.35c.38-.11,.6-.51,.49-.89-.11-.38-.51-.6-.89-.5s-.6,.51-.49,.89c.11,.38,.51,.6,.89,.5Z"/>
  <path class="cls-10" d="M111.58,50.73c.38-.12,.59-.52,.47-.9-.12-.38-.52-.59-.89-.47-.38,.12-.59,.52-.47,.9,.12,.38,.52,.59,.89,.47Z"/>
  <path class="cls-3" d="M111.25,52.21c.37-.13,.57-.53,.45-.9-.13-.37-.53-.57-.9-.45-.37,.13-.57,.53-.45,.9,.13,.37,.53,.57,.9,.45Z"/>
  <path class="cls-2" d="M111.3,53.75c.37-.14,.56-.54,.42-.91-.14-.37-.54-.56-.91-.42s-.56,.54-.42,.91c.14,.37,.54,.56,.91,.42Z"/>
  <path class="cls-4" d="M111.72,55.28c.36-.14,.54-.55,.39-.92-.14-.36-.55-.54-.91-.4-.36,.14-.54,.55-.39,.92,.14,.36,.55,.54,.91,.4Z"/>
  <path class="cls-15" d="M112.47,56.77c.36-.15,.52-.57,.37-.93-.15-.36-.57-.52-.92-.37-.36,.15-.52,.57-.37,.93s.57,.52,.92,.37Z"/>
  <path class="cls-11" d="M113.52,58.18c.35-.16,.51-.58,.35-.93-.16-.35-.58-.51-.93-.35-.35,.16-.51,.58-.35,.93s.58,.51,.93,.35Z"/>
  <path class="cls-19" d="M114.83,59.43c.35-.17,.49-.59,.32-.94-.17-.35-.59-.49-.94-.32-.35,.17-.49,.59-.32,.94,.17,.35,.59,.49,.94,.32Z"/>
  <path class="cls-16" d="M116.37,60.49c.34-.18,.47-.6,.3-.95-.18-.34-.6-.48-.94-.3-.34,.18-.47,.6-.3,.95,.18,.34,.6,.48,.94,.3Z"/>
  <path class="cls-17" d="M118.13,61.34c.34-.19,.46-.62,.27-.95-.19-.34-.61-.46-.95-.27-.34,.19-.46,.62-.27,.95,.19,.34,.61,.46,.95,.27Z"/>
  <path class="cls-12" d="M120.05,61.89c.33-.2,.44-.63,.25-.96-.2-.33-.63-.44-.96-.25-.33,.2-.44,.63-.25,.96,.2,.33,.63,.44,.96,.25Z"/>
  <path class="cls-5" d="M122.11,62.11c.33-.21,.43-.64,.22-.97-.21-.33-.64-.43-.96-.22-.33,.21-.43,.64-.22,.97,.21,.33,.64,.43,.96,.22Z"/>
  <path class="cls-6" d="M124.28,61.96c.32-.22,.41-.65,.2-.98-.21-.32-.65-.41-.97-.2-.32,.22-.41,.65-.2,.98,.21,.32,.65,.41,.97,.2Z"/>
  <path class="cls-20" d="M126.52,61.38c.32-.22,.39-.66,.17-.98-.22-.32-.66-.4-.98-.17s-.39,.66-.17,.98,.66,.4,.98,.17Z"/>
  <path class="cls-18" d="M128.81,60.32c.31-.23,.38-.67,.15-.99-.23-.31-.67-.38-.99-.15-.31,.23-.38,.67-.15,.99,.23,.31,.67,.38,.99,.15Z"/>
  <path class="cls-13" d="M131.11,58.76c.31-.24,.36-.69,.12-1-.24-.31-.69-.36-1-.12-.31,.24-.36,.69-.12,1,.24,.31,.69,.36,1,.12Z"/>
  <path class="cls-8" d="M133.39,56.61c.3-.25,.35-.7,.1-1-.25-.3-.7-.35-1-.1-.3,.25-.35,.7-.1,1,.25,.3,.7,.35,1,.1Z"/>
  <path class="cls-7" d="M135.53,53.85c.3-.26,.33-.71,.07-1.01-.26-.3-.71-.33-1.01-.07-.3,.26-.33,.71-.07,1.01,.26,.3,.71,.33,1.01,.07Z"/>
  <path class="cls-14" d="M137.76,50.42c.29-.27,.31-.72,.05-1.02-.27-.29-.72-.31-1.02-.05-.29,.27-.31,.72-.05,1.02,.27,.29,.72,.31,1.02,.05Z"/>
  <path class="cls-9" d="M113.39,53.73c.4-.04,.69-.39,.65-.78-.04-.4-.39-.69-.78-.65-.4,.04-.69,.39-.65,.78,.04,.4,.39,.69,.78,.65Z"/>
  <path class="cls-10" d="M114.66,55.1c.39-.05,.67-.4,.63-.79-.05-.39-.4-.67-.79-.63-.39,.05-.67,.4-.63,.79,.05,.39,.4,.67,.79,.63Z"/>
  <path class="cls-3" d="M116.12,56.09c.39-.06,.66-.42,.6-.81-.06-.39-.42-.66-.8-.61-.39,.06-.66,.42-.6,.81,.06,.39,.42,.66,.8,.61Z"/>
  <path class="cls-2" d="M117.9,56.72c.39-.07,.65-.44,.58-.82-.07-.39-.43-.65-.82-.58-.39,.07-.65,.44-.58,.82,.07,.39,.43,.65,.82,.58Z"/>
  <path class="cls-4" d="M119.39,56.97c.38-.07,.63-.45,.56-.83-.07-.38-.44-.63-.83-.56-.38,.07-.63,.45-.56,.83,.07,.38,.44,.63,.83,.56Z"/>
  <path class="cls-15" d="M121.11,56.9c.38-.08,.62-.46,.53-.84-.08-.38-.46-.62-.84-.54s-.62,.46-.53,.84c.08,.38,.46,.62,.84,.54Z"/>
  <path class="cls-11" d="M122.83,56.52c.38-.09,.6-.48,.51-.85-.09-.38-.47-.61-.85-.51-.38,.09-.6,.48-.51,.85,.09,.38,.47,.61,.85,.51Z"/>
  <path class="cls-19" d="M124.51,55.8c.37-.1,.59-.49,.49-.86-.1-.37-.49-.59-.86-.49-.37,.1-.59,.49-.49,.86,.1,.37,.49,.59,.86,.49Z"/>
  <path class="cls-16" d="M126.1,54.82c.37-.11,.58-.51,.46-.88-.11-.37-.5-.58-.87-.47-.37,.11-.58,.51-.46,.88,.11,.37,.5,.58,.87,.47Z"/>
  <path class="cls-17" d="M127.55,53.55c.37-.12,.56-.52,.44-.89-.12-.37-.52-.57-.89-.44-.37,.12-.56,.52-.44,.89,.12,.37,.52,.56,.89,.44Z"/>
  <path class="cls-12" d="M128.83,52.03c.36-.13,.55-.53,.42-.9-.13-.36-.53-.55-.9-.42-.36,.13-.55,.53-.42,.9,.13,.36,.53,.55,.9,.42Z"/>
  <path class="cls-5" d="M129.89,50.26c.36-.14,.54-.55,.39-.91-.14-.36-.55-.54-.91-.4-.36,.14-.54,.55-.39,.91,.14,.36,.55,.54,.91,.4Z"/>
  <path class="cls-6" d="M130.68,48.26c.36-.15,.52-.56,.37-.92-.15-.36-.56-.52-.92-.37-.36,.15-.52,.56-.37,.92,.15,.36,.56,.52,.92,.37Z"/>
  <path class="cls-20" d="M131.16,46.04c.35-.16,.51-.58,.35-.93-.16-.35-.58-.51-.93-.35-.35,.16-.51,.58-.35,.93s.58,.51,.93,.35Z"/>
  <path class="cls-18" d="M131.29,43.62c.35-.17,.49-.59,.32-.94-.17-.35-.59-.5-.94-.33-.35,.17-.49,.59-.32,.94,.17,.35,.59,.5,.94,.33Z"/>
  <path class="cls-13" d="M131.02,41.02c.35-.18,.48-.61,.3-.96-.18-.35-.61-.48-.96-.3-.35,.18-.48,.61-.3,.96,.18,.35,.61,.48,.96,.3Z"/>
  <path class="cls-8" d="M130.3,38.25c.34-.19,.47-.62,.28-.97-.19-.34-.62-.47-.97-.28-.34,.19-.47,.62-.28,.97,.19,.34,.62,.47,.97,.28Z"/>
  <path class="cls-7" d="M129.09,35.32c.34-.2,.45-.64,.26-.98-.2-.34-.64-.46-.98-.26-.34,.2-.45,.64-.26,.98,.2,.34,.64,.46,.98,.26Z"/>
  <path class="cls-14" d="M127.36,32.26c.34-.21,.44-.65,.23-.99-.21-.34-.65-.44-.99-.23-.34,.21-.44,.65-.23,.99s.65,.44,.99,.23Z"/>
  <path class="cls-1" d="M167,37.61l-5.08,14.32h-2.51l-3.33-9.48-3.35,9.48h-2.51l-5.08-14.32h3.19l3.29,9.9,3.45-9.9h2.19l3.37,10.04,3.37-10.04h2.99Z"/>
  <path class="cls-1" d="M176.95,48.76h-6.68l-1.37,3.18h-3.15l6.56-14.32h2.53l6.56,14.32h-3.09l-1.37-3.18Zm-1.02-2.39l-2.31-5.37-2.31,5.37h4.62Z"/>
  <path class="cls-1" d="M194.85,37.61l-6.42,14.32h-2.51l-6.42-14.32h3.25l4.46,10.4,4.5-10.4h3.15Z"/>
  <path class="cls-1" d="M195.98,37.61h9.86v2.43h-6.81v3.38h6.38v2.45h-6.38v3.62h6.81v2.43h-9.86v-14.32Z"/>
  <path class="cls-1" d="M145.14,55.11h6.76v1.27h-5.24v3.34h4.94v1.27h-4.94v4.78h-1.53v-10.67Z"/>
  <path class="cls-1" d="M153.49,58.23h1.5v7.55h-1.5v-7.55Zm1.62-3.3v1.59h-1.75v-1.59h1.75Z"/>
  <path class="cls-1" d="M161.21,58.05c1.8,0,2.71,1.01,2.71,3.03v4.71h-1.51v-4.62c0-.66-.13-1.14-.39-1.44-.25-.3-.65-.45-1.21-.45-.64,0-1.15,.2-1.54,.6-.38,.4-.57,.93-.57,1.6v4.3h-1.5v-5.43c0-.79-.04-1.5-.12-2.13h1.41l.13,1.3c.24-.48,.58-.84,1.03-1.09,.46-.26,.98-.39,1.56-.39Z"/>
  <path class="cls-1" d="M172.96,58.23v7.55h-1.5v-1.29c-.22,.45-.55,.79-.99,1.03-.43,.24-.93,.36-1.51,.36-.67,0-1.26-.16-1.76-.48-.5-.32-.89-.77-1.17-1.35-.28-.59-.42-1.27-.42-2.05s.14-1.47,.42-2.07c.29-.6,.69-1.06,1.2-1.39,.51-.33,1.09-.49,1.74-.49,.58,0,1.08,.12,1.51,.37,.43,.24,.76,.58,.99,1.03v-1.23h1.5Zm-3.63,6.46c.68,0,1.2-.23,1.57-.7,.38-.48,.57-1.15,.57-2.01s-.19-1.54-.57-2.01c-.37-.47-.9-.7-1.59-.7s-1.21,.24-1.6,.73c-.38,.48-.57,1.15-.57,2.01s.19,1.51,.57,1.98c.39,.47,.93,.7,1.62,.7Z"/>
  <path class="cls-1" d="M179.19,58.05c1.8,0,2.71,1.01,2.71,3.03v4.71h-1.51v-4.62c0-.66-.13-1.14-.39-1.44-.25-.3-.65-.45-1.21-.45-.64,0-1.15,.2-1.54,.6-.38,.4-.57,.93-.57,1.6v4.3h-1.5v-5.43c0-.79-.04-1.5-.12-2.13h1.41l.13,1.3c.24-.48,.58-.84,1.03-1.09,.46-.26,.98-.39,1.56-.39Z"/>
  <path class="cls-1" d="M187.32,65.89c-.76,0-1.42-.16-1.99-.48-.56-.32-.99-.77-1.29-1.35-.3-.59-.45-1.27-.45-2.05s.15-1.47,.46-2.07c.32-.6,.76-1.06,1.33-1.39,.57-.33,1.23-.49,1.99-.49,.53,0,1.04,.09,1.53,.27,.49,.17,.88,.4,1.18,.7l-.46,1.09c-.71-.56-1.42-.84-2.14-.84s-1.3,.24-1.71,.72c-.41,.47-.61,1.13-.61,1.99s.2,1.52,.61,1.99c.41,.46,.98,.69,1.71,.69s1.45-.28,2.14-.84l.46,1.09c-.32,.3-.73,.53-1.23,.7-.49,.17-1,.25-1.54,.25Z"/>
  <path class="cls-1" d="M191.51,58.23h1.5v7.55h-1.5v-7.55Zm1.62-3.3v1.59h-1.75v-1.59h1.75Z"/>
  <path class="cls-1" d="M202.12,58.23v7.55h-1.5v-1.29c-.22,.45-.55,.79-.99,1.03-.43,.24-.93,.36-1.51,.36-.67,0-1.26-.16-1.76-.48-.5-.32-.89-.77-1.17-1.35-.28-.59-.42-1.27-.42-2.05s.14-1.47,.42-2.07c.29-.6,.69-1.06,1.2-1.39,.51-.33,1.09-.49,1.74-.49,.58,0,1.08,.12,1.51,.37,.43,.24,.76,.58,.99,1.03v-1.23h1.5Zm-3.64,6.46c.68,0,1.2-.23,1.57-.7,.38-.48,.57-1.15,.57-2.01s-.19-1.54-.57-2.01c-.37-.47-.9-.7-1.58-.7s-1.21,.24-1.6,.73c-.38,.48-.57,1.15-.57,2.01s.19,1.51,.57,1.98c.39,.47,.93,.7,1.62,.7Z"/>
  <path class="cls-1" d="M204.34,54.75h1.5v11.03h-1.5v-11.03Z"/>
</svg>