<?xml version="1.0" encoding="utf-8"?>
<!-- Generator: Adobe Illustrator 26.3.1, SVG Export Plug-In . SVG Version: 6.00 Build 0)  -->
<svg version="1.1" id="katman_1" xmlns="http://www.w3.org/2000/svg" xmlns:xlink="http://www.w3.org/1999/xlink" x="0px" y="0px"
	 viewBox="0 0 300 100" style="enable-background:new 0 0 300 100;" xml:space="preserve">
<style type="text/css">
	.st0{fill:#7B3FE4;}
	.st1{fill:#0A0B0D;}
</style>
<path class="st0" d="M107.6,51v10.9c0,0.7-0.2,1.3-0.5,1.9c-0.3,0.6-0.8,1.1-1.4,1.4l-9.4,5.4c-0.6,0.3-1.2,0.5-1.9,0.5
	c-0.7,0-1.3-0.2-1.9-0.5L83,65.2c-0.6-0.3-1.1-0.8-1.4-1.4c-0.3-0.6-0.5-1.3-0.5-1.9v-3l4.8-2.8v5.3l8.4,4.9l8.4-4.9v-9.8l-8.4-4.9
	L74.6,58.1c-0.6,0.3-1.3,0.5-1.9,0.5c-0.7,0-1.3-0.2-1.9-0.5l-9.4-5.4c-0.6-0.3-1-0.8-1.4-1.4c-0.3-0.6-0.5-1.2-0.5-1.9V38.5
	c0-0.7,0.2-1.3,0.5-1.9c0.3-0.6,0.8-1.1,1.4-1.4l9.4-5.4c0.6-0.3,1.2-0.5,1.9-0.5c0.7,0,1.3,0.2,1.9,0.5l9.4,5.4
	c0.6,0.3,1.1,0.8,1.4,1.4c0.3,0.6,0.5,1.3,0.5,1.9v3l-4.8,2.8v-5.3l-8.4-4.9l-8.4,4.9v9.7l8.4,4.9l19.7-11.4
	c0.6-0.3,1.3-0.5,1.9-0.5c0.7,0,1.3,0.2,1.9,0.5l9.4,5.4c0.6,0.3,1.1,0.8,1.4,1.4C107.4,49.7,107.6,50.4,107.6,51L107.6,51z"/>
<path class="st1" d="M124.4,65.8v-8.5c0.9,1.2,2.6,1.8,4.5,1.8c4.9,0,8.3-3.5,8.3-8.8c0-5.3-3.1-8.8-7.8-8.8c-2.2,0-3.9,0.8-4.9,2.1
	v-1.9h-4.7v24L124.4,65.8z M128.3,55.1c-2.5,0-4.2-1.9-4.2-4.8c0-2.9,1.7-4.8,4.2-4.8c2.5,0,4.2,1.9,4.2,4.8
	C132.5,53.3,130.8,55.1,128.3,55.1z"/>
<path class="st1" d="M147.9,59.2c5.3,0,9-3.7,9-8.8c0-5.1-3.8-8.8-9-8.8c-5.3,0-9,3.7-9,8.8C138.8,55.4,142.6,59.2,147.9,59.2z
	 M147.9,55.1c-2.5,0-4.3-1.9-4.3-4.8c0-2.8,1.7-4.8,4.3-4.8c2.5,0,4.3,1.9,4.3,4.8C152.1,53.2,150.4,55.1,147.9,55.1z"/>
<path class="st1" d="M164.5,58.9V34.4h-4.7v24.6H164.5z"/>
<path class="st1" d="M178.7,41.8l-3.6,11l-3.6-11h-4.8l6.2,17l-2.5,7.1h4.5l2.4-7l6.2-17L178.7,41.8z"/>
<path class="st1" d="M196.8,43.5c-1-1.2-2.6-2-4.7-2c-5,0-8,3.5-8,8.8c0,5.3,3,8.8,8.1,8.8c2,0,3.8-0.8,4.7-2v2.3
	c0,1.6-1.1,2.7-2.5,2.7h-7.9v3.7h8.6c3.9,0,6.4-2.3,6.4-5.9V41.8h-4.8V43.5z M192.9,55.1c-2.5,0-4.2-1.9-4.2-4.8
	c0-2.9,1.7-4.8,4.2-4.8c2.5,0,4.2,1.9,4.2,4.8C197.1,53.3,195.4,55.1,192.9,55.1z"/>
<path class="st1" d="M213.4,59.2c5.3,0,9-3.7,9-8.8c0-5.1-3.8-8.8-9-8.8c-5.3,0-9,3.7-9,8.8C204.4,55.4,208.2,59.2,213.4,59.2z
	 M213.4,55.1c-2.5,0-4.3-1.9-4.3-4.8c0-2.8,1.7-4.8,4.3-4.8c2.6,0,4.3,1.9,4.3,4.8C217.7,53.2,216,55.1,213.4,55.1z"/>
<path class="st1" d="M229.8,58.9v-9.4c0-2.2,1.5-3.8,3.5-3.8c2,0,3.3,1.5,3.3,3.6v9.6h4.8V48.2c0-3.9-2.5-6.7-6.4-6.7
	c-2.3,0-4.2,1-5.2,2.6v-2.4H225v17.1H229.8z"/>
</svg>
