<?xml version="1.0" encoding="UTF-8"?><svg id="katman_1" xmlns="http://www.w3.org/2000/svg" viewBox="0 0 121.25 48.06"><defs><style>.cls-1{fill:#12284c;}</style></defs><g id="svg_2"><polygon id="svg_3" class="cls-1" points="23.59 0 8.48 0 0 48.06 15.11 48.06 23.59 0"/><polygon id="svg_4" class="cls-1" points="41.86 15.11 44.52 0 8.48 0 5.81 15.11 41.86 15.11"/><polygon id="svg_5" class="cls-1" points="70.1 0 54.99 0 46.51 48.06 61.62 48.06 70.1 0"/><polygon id="svg_6" class="cls-1" points="121.25 0 106.15 0 97.67 48.06 112.77 48.06 121.25 0"/><polygon id="svg_7" class="cls-1" points="95.68 0 80.57 0 72.09 48.06 87.2 48.06 95.68 0"/><polygon id="svg_8" class="cls-1" points="77.9 15.11 80.57 0 44.52 0 41.86 15.11 77.9 15.11"/><polygon id="svg_9" class="cls-1" points="112.97 31.58 115.63 16.47 79.59 16.47 76.92 31.58 112.97 31.58"/><polygon id="svg_10" class="cls-1" points="36.04 48.06 38.71 32.95 2.67 32.95 0 48.06 36.04 48.06"/></g></svg>