<?xml version="1.0" encoding="utf-8"?>
<!-- Generator: Adobe Illustrator 26.3.1, SVG Export Plug-In . SVG Version: 6.00 Build 0)  -->
<svg version="1.1" id="katman_1" xmlns="http://www.w3.org/2000/svg" xmlns:xlink="http://www.w3.org/1999/xlink" x="0px" y="0px"
	 viewBox="0 0 300 100" style="enable-background:new 0 0 300 100;" xml:space="preserve">
<style type="text/css">
	.st0{fill:#12284C;}
</style>
<g id="svg_2">
	<polygon id="svg_3" class="st0" points="115.8,27.2 101.7,27.2 93.8,72 107.9,72 	"/>
	<polygon id="svg_4" class="st0" points="132.9,41.3 135.3,27.2 101.7,27.2 99.2,41.3 	"/>
	<polygon id="svg_5" class="st0" points="159.2,27.2 145.1,27.2 137.2,72 151.3,72 	"/>
	<polygon id="svg_6" class="st0" points="206.9,27.2 192.8,27.2 184.9,72 199,72 	"/>
	<polygon id="svg_7" class="st0" points="183.1,27.2 169,27.2 161.1,72 175.1,72 	"/>
	<polygon id="svg_8" class="st0" points="166.5,41.3 169,27.2 135.3,27.2 132.9,41.3 	"/>
	<polygon id="svg_9" class="st0" points="199.2,56.6 201.7,42.5 168,42.5 165.6,56.6 	"/>
	<polygon id="svg_10" class="st0" points="127.4,72 129.9,57.9 96.3,57.9 93.8,72 	"/>
</g>
</svg>
