<?xml version="1.0" encoding="utf-8"?>
<!-- Generator: Adobe Illustrator 26.3.1, SVG Export Plug-In . SVG Version: 6.00 Build 0)  -->
<svg version="1.1" id="katman_1" xmlns="http://www.w3.org/2000/svg" xmlns:xlink="http://www.w3.org/1999/xlink" x="0px" y="0px"
	 viewBox="0 0 300 100" style="enable-background:new 0 0 300 100;" xml:space="preserve">
<style type="text/css">
	.st0{fill:#F2B730;}
	.st1{fill:#1D1D1B;}
</style>
<path d="M139.8,57.6V43h2.1v6.6L148,43h2.6l-6.3,6.8l7.6,7.7H149l-7-7.2v7.2L139.8,57.6L139.8,57.6z"/>
<path class="st0" d="M153.1,50.3c0-1,0.2-1.9,0.6-2.8c0.4-0.9,1-1.8,1.7-2.4c0.7-0.7,1.6-1.3,2.5-1.7c0.9-0.4,1.9-0.6,3-0.6
	c1,0,2,0.2,3,0.6c1.9,0.8,3.4,2.2,4.2,4.1c0.4,0.9,0.6,1.9,0.6,2.9c0,1-0.2,2-0.6,2.9c-0.4,0.9-1,1.7-1.7,2.4
	c-0.7,0.7-1.6,1.3-2.5,1.6c-1,0.4-2,0.6-3,0.6c-1,0-2-0.2-3-0.6c-0.9-0.4-1.8-0.9-2.5-1.6C153.9,54.2,153.1,52.3,153.1,50.3z
	 M155.3,50.3c0,0.7,0.1,1.4,0.4,2.1c0.3,0.7,0.7,1.3,1.2,1.8c0.5,0.5,1.1,0.9,1.8,1.2c0.7,0.3,1.4,0.4,2.1,0.4
	c0.7,0,1.5-0.1,2.2-0.4c0.7-0.3,1.3-0.7,1.8-1.2c0.5-0.5,0.9-1.1,1.2-1.8c0.3-0.7,0.4-1.4,0.4-2.1c0-0.7-0.1-1.4-0.4-2.1
	c-0.3-0.7-0.7-1.3-1.2-1.8c-0.5-0.5-1.1-0.9-1.8-1.2c-0.7-0.3-1.4-0.4-2.1-0.4c-0.7,0-1.4,0.1-2.1,0.4c-0.7,0.3-1.3,0.7-1.8,1.2
	c-0.5,0.5-0.9,1.1-1.2,1.8C155.4,48.9,155.3,49.6,155.3,50.3L155.3,50.3L155.3,50.3z"/>
<path d="M171.3,56.5v-2.8c0.5,0.6,1.2,1.2,1.9,1.6c0.6,0.3,1.2,0.5,1.9,0.5c0.6,0,1.2-0.1,1.7-0.5c0.4-0.3,0.7-0.9,0.6-1.4
	c0-0.4-0.1-0.9-0.4-1.2c-0.6-0.6-1.3-1.1-2-1.5c-1.7-1.1-2.7-1.9-3.1-2.5c-0.4-0.6-0.6-1.3-0.6-2.1c0-1.1,0.4-2.1,1.2-2.8
	c0.9-0.7,2-1.1,3.1-1.1c0.6,0,1.1,0.1,1.7,0.2c0.6,0.2,1.1,0.4,1.7,0.8v2.3c-0.5-0.4-1.1-0.8-1.8-1.1c-0.5-0.2-1.1-0.3-1.6-0.3
	c-0.6,0-1.1,0.1-1.6,0.5c-0.4,0.3-0.6,0.8-0.6,1.2c0,0.7,0.9,1.6,2.6,2.7l0.3,0.2c1.4,0.9,2.3,1.6,2.7,2.3c0.4,0.7,0.7,1.6,0.6,2.5
	c0,1.1-0.4,2.1-1.2,2.8c-0.9,0.7-2,1.1-3.1,1.1c-0.7,0-1.4-0.1-2.1-0.3C172.5,57.3,171.9,56.9,171.3,56.5L171.3,56.5z"/>
<path d="M182.9,57.6V43h1.8l5.3,6.1l5.2-6.1h1.8v14.6h-2V46.2l-5,5.9l-5-5.9v11.4H182.9L182.9,57.6z"/>
<path class="st0" d="M200.5,50.3c0-1,0.2-1.9,0.6-2.8c0.4-0.9,1-1.7,1.7-2.4c0.7-0.7,1.6-1.3,2.5-1.7c0.9-0.4,1.9-0.6,3-0.6
	c1,0,2.1,0.2,3,0.6c0.9,0.4,1.8,0.9,2.5,1.6c0.7,0.7,1.3,1.5,1.7,2.5c0.4,0.9,0.6,1.9,0.6,2.9c0,1-0.2,2-0.6,2.9
	c-0.4,0.9-1,1.7-1.7,2.4c-0.7,0.7-1.6,1.3-2.5,1.6c-1,0.4-2,0.6-3,0.6c-1,0-2-0.2-3-0.6c-0.9-0.4-1.8-0.9-2.5-1.6
	c-0.7-0.7-1.3-1.5-1.7-2.5C200.7,52.3,200.5,51.3,200.5,50.3L200.5,50.3z M202.7,50.3c0,1.5,0.6,2.9,1.6,3.9
	c0.5,0.5,1.1,0.9,1.8,1.2c0.7,0.3,1.4,0.4,2.1,0.4s1.5-0.1,2.2-0.4c0.7-0.3,1.3-0.7,1.8-1.2c1-1,1.6-2.5,1.6-3.9
	c0-0.7-0.1-1.4-0.4-2.1c-0.3-0.7-0.7-1.3-1.2-1.8c-0.5-0.5-1.1-0.9-1.8-1.2c-0.7-0.3-1.4-0.4-2.1-0.4c-0.7,0-1.4,0.1-2.1,0.4
	c-0.7,0.3-1.3,0.7-1.8,1.2c-0.5,0.5-0.9,1.1-1.2,1.8C202.8,48.9,202.7,49.6,202.7,50.3L202.7,50.3L202.7,50.3z"/>
<path d="M218.6,56.5v-2.8c0.5,0.7,1.2,1.2,1.9,1.7c0.6,0.3,1.2,0.5,1.9,0.5c0.6,0,1.2-0.1,1.7-0.5c0.4-0.3,0.6-0.9,0.6-1.4
	c0-0.4-0.1-0.9-0.4-1.2c-0.6-0.6-1.3-1.1-2-1.5c-1.6-1.1-2.7-1.9-3.1-2.5c-0.4-0.6-0.6-1.4-0.6-2.1c0-1.1,0.4-2.1,1.2-2.8
	c0.9-0.7,2-1.1,3.1-1.1c0.6,0,1.1,0.1,1.7,0.2c0.6,0.2,1.1,0.4,1.7,0.8v2.4c-0.5-0.5-1.1-0.8-1.8-1.1c-0.5-0.2-1.1-0.3-1.6-0.3
	c-0.6,0-1.1,0.1-1.6,0.5c-0.4,0.3-0.6,0.8-0.6,1.2c0,0.7,0.9,1.6,2.6,2.7l0.3,0.2c1.4,0.9,2.3,1.6,2.7,2.3c0.5,0.7,0.7,1.6,0.6,2.5
	c0,1.1-0.4,2.1-1.2,2.8c-0.9,0.7-2,1.1-3.1,1.1c-0.7,0-1.4-0.1-2.1-0.3C219.8,57.3,219.2,56.9,218.6,56.5L218.6,56.5z"/>
<path d="M72.5,57.5V42.9h2.1v6.6l6.1-6.6h2.6l-6.3,6.8l7.6,7.7h-2.9l-7-7.2v7.2H72.5z"/>
<path class="st0" d="M85.1,50.1c0-1,0.2-1.9,0.6-2.8c0.4-0.9,1-1.7,1.7-2.4c0.7-0.7,1.6-1.3,2.5-1.6c0.9-0.4,1.9-0.6,3-0.6
	c1,0,2,0.2,3,0.6c2.9,1.1,4.8,3.9,4.8,7c0,1-0.2,2-0.6,2.9c-0.4,0.9-1,1.7-1.7,2.4c-0.7,0.7-1.6,1.3-2.5,1.7c-1,0.4-2,0.6-3,0.6
	c-1,0-2-0.2-3-0.6c-0.9-0.4-1.8-0.9-2.5-1.6C85.9,54.1,85.1,52.2,85.1,50.1L85.1,50.1L85.1,50.1z M87.3,50.2c0,1.5,0.6,2.9,1.6,3.9
	c0.5,0.5,1.1,0.9,1.8,1.2c1.4,0.6,2.9,0.6,4.3,0c0.7-0.3,1.3-0.7,1.8-1.2c0.5-0.5,0.9-1.1,1.2-1.8c0.6-1.4,0.6-2.9,0-4.2
	c-0.3-0.7-0.7-1.3-1.2-1.8c-0.5-0.5-1.1-0.9-1.8-1.2c-1.4-0.6-2.9-0.6-4.2,0c-0.7,0.3-1.3,0.7-1.8,1.2c-0.5,0.5-0.9,1.1-1.2,1.8
	C87.5,48.7,87.3,49.5,87.3,50.2L87.3,50.2z"/>
<path d="M103.9,56.3v-2.8c0.5,0.6,1.2,1.2,1.9,1.6c0.6,0.3,1.2,0.5,1.9,0.5c0.6,0,1.2-0.1,1.7-0.5c0.4-0.3,0.6-0.9,0.6-1.4
	c0-0.4-0.1-0.9-0.4-1.2c-0.6-0.6-1.3-1.1-2-1.5c-1.6-1.1-2.7-1.9-3.1-2.5c-0.4-0.6-0.6-1.3-0.6-2.1c0-1.1,0.4-2.1,1.2-2.8
	c0.9-0.7,2-1.1,3.1-1.1c0.6,0,1.1,0.1,1.7,0.2c0.6,0.2,1.1,0.4,1.7,0.8V46c-0.5-0.4-1.1-0.8-1.8-1.1c-0.5-0.2-1.1-0.4-1.6-0.4
	c-0.6,0-1.1,0.1-1.6,0.5c-0.4,0.3-0.6,0.8-0.6,1.2c0,0.7,0.9,1.6,2.6,2.7l0.3,0.2c1.4,0.9,2.3,1.6,2.7,2.3c0.5,0.7,0.7,1.6,0.6,2.5
	c0,1.1-0.4,2.1-1.2,2.8c-0.9,0.7-2,1.1-3.1,1.1c-0.7,0-1.4-0.1-2.1-0.3C105.1,57.2,104.4,56.8,103.9,56.3L103.9,56.3z"/>
<path d="M85.8,39V24.5h1.8l5.2,6.1l5.3-6.1h1.8V39h-2V27.7l-5,5.9l-5-5.9V39C87.9,39,85.8,39,85.8,39z"/>
<path d="M88.8,75.3v-2.8c0.5,0.6,1.2,1.2,1.9,1.6c0.6,0.3,1.3,0.5,1.9,0.5c0.6,0,1.2-0.1,1.7-0.5c0.4-0.3,0.7-0.9,0.6-1.4
	c0-0.4-0.1-0.9-0.4-1.2c-0.6-0.6-1.3-1.1-2-1.5c-1.7-1.1-2.7-1.9-3.1-2.5c-0.4-0.6-0.6-1.3-0.6-2.1c0-1.1,0.4-2.1,1.2-2.8
	c0.9-0.7,2-1.1,3.1-1.1c0.6,0,1.1,0.1,1.7,0.2c0.6,0.2,1.1,0.4,1.7,0.8v2.4c-0.5-0.4-1.1-0.8-1.8-1.1c-0.5-0.2-1.1-0.3-1.6-0.3
	c-0.6,0-1.1,0.1-1.6,0.5c-0.4,0.3-0.6,0.8-0.6,1.3c0,0.7,0.9,1.6,2.6,2.7l0.3,0.2c1.4,0.9,2.3,1.6,2.7,2.3c0.4,0.7,0.7,1.6,0.6,2.5
	c0,1.1-0.4,2.1-1.2,2.8c-0.9,0.7-2,1.1-3.1,1.1c-0.7,0-1.4-0.1-2.1-0.3C90,76.1,89.3,75.8,88.8,75.3L88.8,75.3z"/>
<circle class="st0" cx="92.9" cy="50.2" r="1.7"/>
<rect x="125.2" y="24" class="st1" width="1" height="53"/>
</svg>
