<?xml version="1.0" encoding="UTF-8"?><svg id="katman_1" xmlns="http://www.w3.org/2000/svg" viewBox="0 0 175.88 60.3"><defs><style>.cls-1{fill:#f2b730;}.cls-2{fill:#1d1d1b;}</style></defs><path d="M76.73,38.2V21.6h2.37v7.47l6.92-7.47h2.99l-7.2,7.79,8.6,8.82h-3.31l-8-8.21v8.21h-2.37Z"/><path class="cls-1" d="M91.81,29.85c0-1.11,.23-2.21,.68-3.23,.45-1.05,1.12-2,1.95-2.78,.82-.81,1.79-1.44,2.85-1.88,1.07-.43,2.22-.65,3.37-.64,1.17,0,2.33,.21,3.42,.64,2.15,.86,3.87,2.54,4.8,4.66,.44,1.06,.66,2.2,.65,3.34,0,1.12-.22,2.23-.67,3.25-.44,1.04-1.09,1.97-1.9,2.75-.83,.8-1.82,1.44-2.89,1.87-1.09,.43-2.24,.65-3.41,.64-1.16,0-2.31-.22-3.39-.65-1.05-.42-2.02-1.04-2.83-1.83-1.69-1.6-2.64-3.82-2.63-6.14Zm2.53,.08c0,.83,.16,1.65,.47,2.42,.31,.76,.78,1.46,1.36,2.04,.58,.59,1.27,1.06,2.03,1.37,.77,.32,1.6,.48,2.44,.48,.84,0,1.67-.15,2.45-.47,.77-.32,1.47-.79,2.05-1.38,.58-.58,1.05-1.28,1.37-2.04,.32-.77,.49-1.59,.48-2.42,0-.82-.16-1.64-.48-2.4-.33-.77-.8-1.47-1.4-2.07-.58-.6-1.27-1.07-2.03-1.39-.77-.32-1.6-.48-2.43-.48-.82,0-1.63,.17-2.39,.49-.78,.32-1.5,.79-2.1,1.39-.59,.57-1.05,1.27-1.36,2.03-.31,.77-.46,1.59-.46,2.42v.02Z"/><path d="M112.54,36.91v-3.15c.61,.74,1.34,1.37,2.16,1.86,.67,.38,1.42,.57,2.19,.57,.7,.04,1.38-.17,1.95-.58,.48-.38,.75-.97,.71-1.58,0-.51-.16-1.01-.48-1.41-.68-.68-1.45-1.25-2.29-1.71-1.88-1.22-3.05-2.15-3.53-2.81-.49-.7-.74-1.53-.71-2.38-.03-1.2,.47-2.35,1.37-3.15,.97-.85,2.24-1.3,3.53-1.24,.64,0,1.28,.09,1.89,.28,.66,.2,1.29,.49,1.88,.86v2.67c-.61-.51-1.29-.94-2.01-1.28-.58-.25-1.21-.39-1.85-.39-.65-.03-1.29,.15-1.82,.53-.45,.33-.71,.86-.7,1.42,0,.82,.98,1.84,2.93,3.06l.36,.22c1.59,.99,2.63,1.86,3.12,2.63,.51,.84,.77,1.82,.74,2.8,.03,1.2-.47,2.36-1.38,3.15-.97,.84-2.23,1.29-3.52,1.24-.82,.01-1.64-.12-2.42-.38-.76-.28-1.47-.68-2.09-1.21Z"/><path d="M125.8,38.2V21.6h2.07l5.99,6.98,5.95-6.98h2.07v16.6h-2.3v-12.96l-5.71,6.71-5.73-6.69v12.94h-2.33Z"/><path class="cls-1" d="M145.76,29.85c0-1.11,.23-2.21,.67-3.23,.45-1.04,1.1-1.98,1.92-2.77,.82-.81,1.79-1.45,2.86-1.89,1.07-.43,2.22-.65,3.37-.64,1.17,0,2.34,.21,3.43,.64,1.06,.42,2.04,1.05,2.85,1.86,.83,.79,1.49,1.75,1.95,2.8,.44,1.06,.66,2.2,.65,3.34,0,1.13-.23,2.24-.69,3.28-.44,1.04-1.09,1.97-1.9,2.75-.83,.8-1.81,1.44-2.89,1.87-1.09,.43-2.24,.64-3.41,.64-1.15,0-2.3-.22-3.36-.65-1.06-.42-2.03-1.05-2.85-1.85-.83-.79-1.49-1.75-1.94-2.81-.44-1.05-.67-2.19-.66-3.33Zm2.52,.08c0,1.67,.66,3.28,1.84,4.46,.58,.59,1.27,1.06,2.03,1.37,.77,.32,1.6,.48,2.44,.48,.84,0,1.67-.15,2.45-.47,.77-.32,1.47-.8,2.06-1.4,1.19-1.18,1.86-2.79,1.85-4.46,0-.82-.16-1.64-.47-2.4-.33-.77-.8-1.47-1.4-2.07-.58-.59-1.28-1.06-2.05-1.38-.77-.32-1.6-.48-2.43-.48-.82,0-1.64,.17-2.39,.49-.78,.32-1.5,.79-2.1,1.39-.59,.57-1.06,1.26-1.36,2.03-.31,.77-.47,1.59-.46,2.42v.02Z"/><path d="M166.46,36.91v-3.15c.61,.75,1.34,1.38,2.17,1.88,.67,.38,1.42,.57,2.19,.57,.7,.04,1.39-.16,1.95-.57,.48-.38,.74-.97,.71-1.58,0-.51-.16-1.01-.48-1.41-.68-.69-1.46-1.27-2.3-1.74-1.87-1.22-3.05-2.15-3.53-2.81-.49-.7-.74-1.54-.71-2.39-.03-1.2,.47-2.36,1.37-3.15,.97-.85,2.24-1.29,3.53-1.24,.64,0,1.28,.09,1.89,.28,.66,.2,1.29,.49,1.88,.86v2.68c-.61-.52-1.29-.94-2.02-1.28-.58-.26-1.21-.39-1.85-.39-.65-.03-1.29,.15-1.82,.53-.45,.33-.72,.86-.7,1.42,0,.83,.97,1.85,2.93,3.06l.36,.22c1.59,.99,2.63,1.86,3.12,2.63,.52,.84,.77,1.82,.74,2.8,.04,1.2-.47,2.36-1.38,3.15-.97,.85-2.23,1.29-3.52,1.24-.82,.01-1.64-.12-2.42-.38-.77-.27-1.48-.68-2.1-1.21Z"/><path d="M0,38.07V21.47H2.38v7.47l6.93-7.47h2.99l-7.23,7.78,8.62,8.82h-3.31L2.38,29.85v8.22H0Z"/><path class="cls-1" d="M14.41,29.7c0-1.11,.23-2.21,.68-3.23,.45-1.04,1.1-1.98,1.92-2.76,.83-.8,1.8-1.44,2.87-1.87,1.07-.43,2.22-.65,3.37-.64,1.17,0,2.33,.21,3.42,.65,3.31,1.26,5.48,4.45,5.45,8,0,1.12-.22,2.23-.67,3.25-.44,1.03-1.09,1.97-1.9,2.74-.83,.81-1.81,1.45-2.89,1.89-1.09,.43-2.24,.64-3.41,.64-1.16,0-2.31-.21-3.39-.64-1.06-.43-2.03-1.06-2.85-1.86-1.68-1.6-2.62-3.83-2.6-6.16v-.02Zm2.53,.08c0,1.67,.66,3.28,1.83,4.46,.58,.6,1.29,1.07,2.06,1.38,1.57,.64,3.32,.64,4.89,0,.77-.32,1.47-.79,2.05-1.38,.58-.59,1.05-1.28,1.37-2.05,.64-1.54,.64-3.28,0-4.82-.33-.77-.8-1.48-1.4-2.07-.58-.6-1.27-1.07-2.04-1.39-1.55-.64-3.28-.64-4.83,0-.78,.33-1.49,.8-2.1,1.39-.59,.58-1.05,1.27-1.36,2.03-.32,.78-.48,1.61-.47,2.44Z"/><path d="M35.81,36.77v-3.15c.61,.74,1.33,1.37,2.15,1.87,.67,.37,1.42,.57,2.19,.57,.7,.04,1.38-.16,1.95-.57,.48-.38,.74-.97,.71-1.58,0-.51-.16-1.02-.48-1.42-.68-.69-1.45-1.28-2.3-1.76-1.87-1.21-3.05-2.15-3.53-2.81-.49-.69-.74-1.52-.72-2.37-.03-1.2,.47-2.36,1.37-3.15,.97-.85,2.24-1.29,3.53-1.24,.64,0,1.28,.09,1.89,.28,.66,.21,1.29,.5,1.88,.86v2.69c-.61-.51-1.29-.94-2.02-1.27-.58-.26-1.21-.4-1.85-.4-.65-.03-1.29,.17-1.82,.55-.45,.33-.72,.86-.7,1.42,0,.82,.97,1.84,2.93,3.06l.36,.22c1.59,.99,2.63,1.86,3.12,2.63,.52,.84,.77,1.82,.74,2.81,.04,1.2-.47,2.36-1.38,3.15-.98,.85-2.25,1.28-3.54,1.22-.82,.01-1.64-.12-2.42-.38-.75-.27-1.45-.68-2.06-1.21Z"/><path d="M15.23,17.07V.47h2.06l5.97,6.98L29.25,.47h2.07V17.07h-2.31V4.12l-5.75,6.69-5.73-6.69v12.95h-2.3Z"/><path d="M18.58,58.35v-3.15c.61,.74,1.34,1.37,2.16,1.86,.67,.39,1.43,.59,2.2,.59,.7,.04,1.38-.17,1.95-.58,.48-.38,.75-.97,.71-1.58,0-.51-.16-1.01-.48-1.41-.68-.69-1.45-1.29-2.29-1.76-1.88-1.22-3.06-2.15-3.53-2.81-.49-.7-.74-1.53-.71-2.38-.03-1.2,.47-2.35,1.37-3.15,.97-.85,2.23-1.29,3.52-1.24,.64,0,1.28,.09,1.89,.28,.66,.2,1.29,.49,1.88,.86v2.69c-.61-.51-1.29-.94-2.01-1.28-.58-.25-1.21-.39-1.85-.39-.65-.04-1.29,.15-1.82,.53-.46,.33-.73,.87-.71,1.44,0,.83,.98,1.85,2.93,3.06l.36,.21c1.59,.99,2.63,1.86,3.12,2.63,.51,.84,.77,1.82,.73,2.8,.04,1.2-.47,2.36-1.37,3.15-.97,.85-2.24,1.29-3.53,1.24-.82,.01-1.64-.12-2.42-.38-.76-.28-1.46-.7-2.08-1.24Z"/><circle class="cls-1" cx="23.27" cy="29.79" r="1.96"/><rect class="cls-2" x="60.08" width="1.13" height="60.3"/></svg>