<?xml version="1.0" encoding="UTF-8"?><svg id="katman_1" xmlns="http://www.w3.org/2000/svg" viewBox="0 0 131.48 50.8"><defs><style>.cls-1{fill:#00e599;}.cls-2{fill:#00af92;}.cls-3{fill:#003;}</style></defs><g><path class="cls-3" d="M71.76,15.88c1.9,1.81,2.91,4.36,2.75,6.99v15.66h-4.02v-14.39c.19-1.95-.33-3.91-1.48-5.5-1.19-1.14-2.8-1.75-4.45-1.69-1.25-.05-2.5,.25-3.6,.85-1.22,.62-2.25,1.58-2.96,2.75-.72,1.52-1.08,3.19-1.06,4.87v13.12h-3.81V14.82l3.6,1.48v1.48c.73-1.41,1.93-2.53,3.39-3.18,1.53-.69,3.19-1.05,4.87-1.06,2.47-.07,4.87,.76,6.77,2.33Z"/><path class="cls-3" d="M102.24,27.73h-18.42c.04,2.17,.96,4.23,2.54,5.72,1.45,1.46,3.45,2.23,5.5,2.12,1.52-.03,3.02-.32,4.45-.85,1.1-.59,1.93-1.57,2.33-2.75l3.39,1.69c-1.01,1.64-2.38,3.01-4.02,4.02-1.91,.93-4.02,1.37-6.14,1.27-3.25,.18-6.41-1.05-8.68-3.39-2.27-2.55-3.41-5.91-3.18-9.31-.17-3.36,.89-6.67,2.96-9.31,2.23-2.38,5.42-3.63,8.68-3.39,2.01-.1,4,.42,5.72,1.48,1.68,.98,3.01,2.46,3.81,4.23,.86,1.78,1.3,3.74,1.27,5.72,.03,.92-.04,1.85-.21,2.75Zm-15.88-8.89c-1.38,1.54-2.26,3.46-2.54,5.5h14.82c-.04-2.03-.79-3.97-2.12-5.5-1.3-1.26-3.06-1.95-4.87-1.91-1.95-.13-3.87,.56-5.29,1.91Z"/><path class="cls-3" d="M128.49,16.93c2.08,2.65,3.13,5.95,2.96,9.31,.21,3.37-.85,6.69-2.96,9.31-2.27,2.33-5.43,3.57-8.68,3.39-3.26,.27-6.47-.98-8.68-3.39-2.27-2.55-3.41-5.91-3.18-9.31-.19-3.4,.95-6.74,3.18-9.31,2.21-2.41,5.42-3.66,8.68-3.39,3.25-.18,6.41,1.05,8.68,3.39Zm-14.61,2.54c-1.53,1.91-2.29,4.33-2.12,6.77-.22,2.45,.54,4.88,2.12,6.77,1.48,1.71,3.67,2.64,5.93,2.54,2.19,.07,4.3-.87,5.72-2.54,1.57-1.89,2.33-4.32,2.12-6.77,.17-2.44-.58-4.86-2.12-6.77-1.42-1.67-3.52-2.61-5.72-2.54-2.26-.1-4.44,.83-5.93,2.54Z"/></g><path class="cls-1" d="M0,8.89V42.76l22.01,8.04V16.51L45.93,7.62,24.13,0,0,8.89Z"/><path class="cls-2" d="M23.71,17.78v18.2l22.23,8.04V9.53l-22.23,8.26Z"/></svg>