<?xml version="1.0" encoding="utf-8"?>
<!-- Generator: Adobe Illustrator 26.3.1, SVG Export Plug-In . SVG Version: 6.00 Build 0)  -->
<svg version="1.1" id="katman_1" xmlns="http://www.w3.org/2000/svg" xmlns:xlink="http://www.w3.org/1999/xlink" x="0px" y="0px"
	 viewBox="0 0 300 100" style="enable-background:new 0 0 300 100;" xml:space="preserve">
<style type="text/css">
	.st0{fill:#000033;}
	.st1{fill:#00E599;}
	.st2{fill:#00AF92;}
</style>
<g>
	<path class="st0" d="M156.4,40.7c1.9,1.8,2.9,4.4,2.8,7v15.7h-4V48.9c0.2-2-0.3-3.9-1.5-5.5c-1.2-1.1-2.8-1.8-4.4-1.7
		c-1.2,0-2.5,0.2-3.6,0.9c-1.2,0.6-2.2,1.6-3,2.8c-0.7,1.5-1.1,3.2-1.1,4.9v13.1h-3.8V39.6l3.6,1.5v1.5c0.7-1.4,1.9-2.5,3.4-3.2
		c1.5-0.7,3.2-1.1,4.9-1.1C152.1,38.3,154.5,39.1,156.4,40.7L156.4,40.7z"/>
	<path class="st0" d="M186.8,52.5h-18.4c0,2.2,1,4.2,2.5,5.7c1.4,1.5,3.4,2.2,5.5,2.1c1.5,0,3-0.3,4.4-0.8c1.1-0.6,1.9-1.6,2.3-2.8
		l3.4,1.7c-1,1.6-2.4,3-4,4c-1.9,0.9-4,1.4-6.1,1.3c-3.2,0.2-6.4-1-8.7-3.4c-2.3-2.5-3.4-5.9-3.2-9.3c-0.2-3.4,0.9-6.7,3-9.3
		c2.2-2.4,5.4-3.6,8.7-3.4c2-0.1,4,0.4,5.7,1.5c1.7,1,3,2.5,3.8,4.2c0.9,1.8,1.3,3.7,1.3,5.7C187.1,50.7,187,51.6,186.8,52.5z
		 M171,43.6c-1.4,1.5-2.3,3.5-2.5,5.5h14.8c0-2-0.8-4-2.1-5.5c-1.3-1.3-3.1-2-4.9-1.9C174.3,41.6,172.4,42.3,171,43.6z"/>
	<path class="st0" d="M213.1,41.7c2.1,2.6,3.1,6,3,9.3c0.2,3.4-0.9,6.7-3,9.3c-2.3,2.3-5.4,3.6-8.7,3.4c-3.3,0.3-6.5-1-8.7-3.4
		c-2.3-2.5-3.4-5.9-3.2-9.3c-0.2-3.4,0.9-6.7,3.2-9.3c2.2-2.4,5.4-3.7,8.7-3.4C207.7,38.2,210.8,39.4,213.1,41.7z M198.5,44.3
		c-1.5,1.9-2.3,4.3-2.1,6.8c-0.2,2.5,0.5,4.9,2.1,6.8c1.5,1.7,3.7,2.6,5.9,2.5c2.2,0.1,4.3-0.9,5.7-2.5c1.6-1.9,2.3-4.3,2.1-6.8
		c0.2-2.4-0.6-4.9-2.1-6.8c-1.4-1.7-3.5-2.6-5.7-2.5C202.1,41.6,200,42.6,198.5,44.3z"/>
</g>
<path class="st1" d="M84.6,33.7v33.9l22,8V41.3l23.9-8.9l-21.8-7.6L84.6,33.7z"/>
<path class="st2" d="M108.3,42.6v18.2l22.2,8V34.3L108.3,42.6L108.3,42.6z"/>
</svg>
