<?xml version="1.0" encoding="UTF-8"?>
<svg xmlns="http://www.w3.org/2000/svg" xmlns:xlink="http://www.w3.org/1999/xlink" width="300" height="50" viewBox="0 0 300 50" version="1.1">
<g id="surface1">
<path style=" stroke:none;fill-rule:nonzero;fill:rgb(14.901961%,40%,69.019608%);fill-opacity:1;" d="M 195.03125 49.988281 C 194.492188 49.933594 193.777344 49.933594 193.242188 49.878906 C 191.449219 49.714844 190.195312 49.222656 190.019531 48.675781 C 190.914062 48.621094 190.914062 48.621094 191.09375 48.839844 C 191.628906 49.441406 193.597656 49.769531 195.566406 49.714844 C 196.285156 49.714844 197 49.660156 197.539062 49.605469 C 199.148438 49.441406 200.042969 48.949219 199.6875 48.511719 C 199.507812 48.183594 198.613281 47.964844 197.71875 47.910156 C 196.644531 47.855469 195.566406 47.800781 194.492188 47.746094 C 193.957031 47.691406 193.417969 47.691406 193.0625 47.632812 C 191.808594 47.523438 191.09375 47.195312 190.914062 46.867188 C 190.554688 46.429688 191.09375 45.992188 192.167969 45.773438 C 194.136719 45.390625 196.820312 45.335938 198.792969 45.664062 C 199.867188 45.882812 200.402344 46.265625 200.402344 46.648438 C 199.507812 46.703125 199.507812 46.703125 199.328125 46.484375 C 199.148438 46.101562 198.074219 45.773438 196.820312 45.71875 C 195.746094 45.664062 194.492188 45.664062 193.417969 45.828125 C 192.34375 45.992188 191.628906 46.320312 191.808594 46.703125 C 191.808594 47.085938 192.703125 47.359375 193.777344 47.414062 C 195.03125 47.523438 196.285156 47.578125 197.359375 47.632812 C 197.539062 47.632812 197.71875 47.632812 197.894531 47.691406 C 199.328125 47.746094 200.582031 48.074219 200.761719 48.566406 C 201.117188 49.058594 200.402344 49.550781 198.96875 49.824219 C 198.253906 49.933594 197.359375 50.042969 196.644531 50.097656 C 196.464844 50.097656 196.285156 50.152344 196.105469 50.152344 Z M 195.03125 49.988281 "/>
<path style=" stroke:none;fill-rule:nonzero;fill:rgb(14.901961%,40%,69.019608%);fill-opacity:1;" d="M 299.777344 45.5 C 299.777344 45.609375 299.777344 45.71875 299.777344 45.882812 L 299.777344 49.878906 L 298.703125 49.878906 L 298.703125 47.746094 L 290.105469 47.746094 L 290.105469 49.878906 L 289.03125 49.878906 L 289.03125 45.445312 L 289.929688 45.445312 L 289.929688 47.46875 L 298.523438 47.46875 L 298.523438 45.390625 L 299.597656 45.390625 Z M 299.777344 45.5 "/>
<path style=" stroke:none;fill-rule:nonzero;fill:rgb(14.901961%,40%,69.019608%);fill-opacity:1;" d="M 273.277344 49.988281 C 273.097656 49.988281 273.097656 49.988281 272.917969 49.933594 C 270.769531 49.878906 268.800781 49.386719 268.082031 48.730469 C 267.1875 48.019531 267.1875 47.25 268.082031 46.59375 C 269.15625 45.609375 272.738281 45.0625 276.140625 45.390625 C 276.5 45.445312 276.679688 45.445312 276.855469 45.5 C 278.289062 45.71875 279.363281 46.15625 279.363281 46.648438 C 279.183594 46.648438 279.183594 46.648438 279.003906 46.648438 L 278.46875 46.648438 C 278.46875 46.59375 278.46875 46.59375 278.289062 46.539062 C 277.929688 46.046875 276.679688 45.664062 275.066406 45.609375 C 272.382812 45.390625 269.695312 45.882812 268.980469 46.703125 C 268.261719 47.304688 268.261719 47.964844 268.980469 48.566406 C 269.695312 49.386719 272.558594 49.878906 275.246094 49.660156 C 275.425781 49.660156 275.425781 49.660156 275.605469 49.605469 C 276.855469 49.496094 277.929688 49.222656 278.109375 48.839844 C 278.289062 48.621094 278.289062 48.621094 279.183594 48.675781 C 279.183594 49.058594 278.46875 49.386719 277.574219 49.660156 C 276.855469 49.824219 275.78125 49.933594 274.886719 49.988281 C 274.707031 49.988281 274.53125 49.988281 274.171875 50.042969 Z M 273.277344 49.988281 "/>
<path style=" stroke:none;fill-rule:nonzero;fill:rgb(14.901961%,40%,69.019608%);fill-opacity:1;" d="M 72.738281 45.445312 L 72.738281 49.878906 L 71.84375 49.878906 L 71.84375 46.046875 C 71.664062 46.101562 71.664062 46.15625 71.664062 46.15625 C 69.875 47.359375 68.085938 48.566406 66.292969 49.769531 C 66.113281 49.824219 65.9375 49.878906 65.757812 49.878906 C 65.578125 49.878906 65.398438 49.824219 65.21875 49.769531 C 63.429688 48.566406 61.636719 47.359375 59.847656 46.15625 C 59.847656 46.101562 59.667969 46.101562 59.667969 46.101562 L 59.667969 49.933594 L 58.773438 49.933594 L 58.773438 45.445312 C 59.847656 45.390625 59.847656 45.390625 60.386719 45.664062 C 62.175781 46.921875 63.964844 48.128906 65.757812 49.386719 C 65.757812 49.441406 65.9375 49.441406 65.9375 49.496094 L 69.875 46.8125 C 70.410156 46.429688 70.949219 46.046875 71.488281 45.664062 C 71.664062 45.390625 71.664062 45.390625 72.738281 45.445312 Z M 72.738281 45.445312 "/>
<path style=" stroke:none;fill-rule:nonzero;fill:rgb(14.901961%,40%,69.019608%);fill-opacity:1;" d="M 101.925781 49.878906 L 101.925781 45.445312 C 101.925781 45.445312 101.925781 45.445312 102.105469 45.445312 C 104.074219 45.445312 106.042969 45.390625 107.832031 45.5 C 110.699219 45.554688 113.027344 46.210938 113.207031 47.085938 C 113.5625 47.632812 113.382812 48.183594 112.847656 48.730469 C 111.953125 49.441406 109.804688 49.933594 107.296875 49.933594 C 105.507812 49.933594 103.714844 49.878906 101.925781 49.878906 Z M 103 45.71875 L 103 49.605469 C 104.609375 49.605469 106.222656 49.605469 107.832031 49.605469 C 109.980469 49.550781 111.773438 49.058594 112.128906 48.402344 C 112.488281 47.964844 112.488281 47.46875 112.128906 47.03125 C 111.773438 46.429688 110.339844 45.9375 108.550781 45.828125 C 106.582031 45.71875 104.789062 45.664062 103 45.71875 Z M 103 45.71875 "/>
<path style=" stroke:none;fill-rule:nonzero;fill:rgb(14.901961%,40%,69.019608%);fill-opacity:1;" d="M 159.578125 47.964844 L 162.980469 49.878906 C 161.90625 49.933594 161.726562 49.933594 161.371094 49.714844 C 160.472656 49.167969 159.578125 48.675781 158.683594 48.128906 C 158.503906 48.074219 158.324219 48.019531 158.324219 48.019531 C 156.894531 48.019531 155.460938 48.019531 154.027344 48.019531 L 154.027344 49.933594 L 152.953125 49.933594 L 152.953125 45.445312 C 153.132812 45.445312 153.132812 45.445312 153.3125 45.445312 C 155.101562 45.445312 156.894531 45.445312 158.503906 45.445312 C 158.863281 45.445312 159.222656 45.445312 159.398438 45.5 C 161.191406 45.554688 162.625 45.992188 162.800781 46.59375 C 162.980469 47.195312 161.90625 47.746094 159.9375 47.964844 C 159.9375 47.910156 159.757812 47.910156 159.578125 47.964844 Z M 153.847656 47.691406 C 155.460938 47.691406 157.074219 47.691406 158.683594 47.691406 C 160.472656 47.691406 161.726562 47.25 161.726562 46.757812 C 161.726562 46.757812 161.726562 46.703125 161.726562 46.703125 C 161.90625 46.210938 160.652344 45.773438 159.042969 45.71875 C 159.042969 45.71875 158.863281 45.71875 158.863281 45.71875 C 158.683594 45.71875 158.324219 45.71875 158.148438 45.71875 C 156.894531 45.71875 155.640625 45.71875 154.386719 45.71875 C 154.207031 45.71875 154.027344 45.71875 153.847656 45.71875 Z M 153.847656 47.691406 "/>
<path style=" stroke:none;fill-rule:nonzero;fill:rgb(14.901961%,40%,69.019608%);fill-opacity:1;" d="M 248.925781 45.390625 C 251.074219 45.390625 253.222656 45.390625 255.371094 45.445312 C 257.160156 45.445312 258.773438 45.9375 258.773438 46.484375 C 259.132812 47.085938 257.878906 47.691406 255.910156 47.855469 C 255.730469 47.855469 255.730469 47.910156 255.550781 47.910156 L 258.953125 49.824219 C 257.878906 49.878906 257.878906 49.878906 257.339844 49.605469 C 256.445312 49.113281 255.550781 48.566406 254.65625 48.074219 C 254.476562 47.964844 254.296875 47.910156 253.9375 47.964844 C 252.683594 47.964844 251.253906 47.964844 249.820312 47.964844 L 249.820312 49.878906 L 248.746094 49.878906 Z M 250 47.691406 C 251.789062 47.691406 253.402344 47.746094 255.011719 47.691406 C 256.625 47.632812 257.878906 47.195312 257.878906 46.703125 C 258.058594 46.210938 256.804688 45.773438 255.191406 45.773438 L 255.011719 45.773438 C 254.117188 45.773438 253.222656 45.71875 252.148438 45.773438 C 251.433594 45.773438 250.714844 45.773438 250 45.773438 Z M 250 47.691406 "/>
<path style=" stroke:none;fill-rule:nonzero;fill:rgb(14.901961%,40%,69.019608%);fill-opacity:1;" d="M 210.25 45.445312 L 219.5625 45.445312 L 219.5625 45.71875 L 211.324219 45.71875 L 211.324219 47.46875 L 218.84375 47.46875 L 218.84375 47.746094 L 211.324219 47.746094 L 211.324219 49.605469 L 219.5625 49.605469 L 219.5625 49.878906 L 210.25 49.878906 Z M 210.25 45.445312 "/>
<path style=" stroke:none;fill-rule:nonzero;fill:rgb(14.901961%,40%,69.019608%);fill-opacity:1;" d="M 172.292969 45.445312 L 181.601562 45.445312 L 181.601562 45.71875 L 173.367188 45.71875 L 173.367188 47.46875 L 180.886719 47.46875 L 180.886719 47.746094 L 173.367188 47.746094 L 173.367188 49.605469 C 173.546875 49.605469 173.902344 49.605469 174.082031 49.605469 L 180.886719 49.605469 C 181.78125 49.605469 181.78125 49.605469 181.601562 49.878906 L 172.292969 49.878906 Z M 172.292969 45.445312 "/>
<path style=" stroke:none;fill-rule:nonzero;fill:rgb(14.901961%,40%,69.019608%);fill-opacity:1;" d="M 84.199219 47.46875 L 91.539062 47.46875 L 91.539062 47.746094 L 84.199219 47.746094 L 84.199219 49.605469 L 92.433594 49.605469 L 92.433594 49.878906 L 83.125 49.878906 L 83.125 45.445312 L 92.433594 45.445312 L 92.433594 45.71875 L 84.199219 45.71875 Z M 84.199219 47.46875 "/>
<path style=" stroke:none;fill-rule:nonzero;fill:rgb(14.901961%,40%,69.019608%);fill-opacity:1;" d="M 227.796875 49.878906 C 228.511719 49.386719 229.050781 48.894531 229.589844 48.402344 C 230.839844 47.46875 231.914062 46.539062 232.988281 45.609375 C 232.988281 45.5 233.347656 45.445312 233.886719 45.445312 C 234.242188 45.445312 234.601562 45.5 234.78125 45.609375 C 236.390625 46.976562 238.183594 48.347656 239.972656 49.769531 C 239.972656 49.824219 240.152344 49.878906 240.152344 49.933594 C 239.257812 49.988281 239.078125 49.988281 238.898438 49.769531 C 238.363281 49.386719 238.003906 49.003906 237.464844 48.621094 C 237.464844 48.511719 237.109375 48.402344 236.570312 48.457031 C 234.78125 48.457031 233.167969 48.457031 231.378906 48.457031 C 231.019531 48.457031 230.664062 48.511719 230.664062 48.621094 C 230.125 49.003906 229.765625 49.386719 229.230469 49.824219 C 228.871094 49.933594 228.871094 49.933594 227.796875 49.878906 Z M 231.199219 48.074219 L 236.929688 48.074219 L 234.0625 45.773438 C 232.988281 46.539062 232.09375 47.304688 231.199219 48.074219 Z M 231.199219 48.074219 "/>
<path style=" stroke:none;fill-rule:nonzero;fill:rgb(14.901961%,40%,69.019608%);fill-opacity:1;" d="M 49.820312 49.878906 C 48.746094 49.878906 48.746094 49.878906 48.390625 49.660156 C 47.851562 49.277344 47.492188 48.894531 46.957031 48.511719 C 46.957031 48.402344 46.597656 48.347656 46.242188 48.347656 C 44.449219 48.347656 42.660156 48.347656 40.867188 48.347656 C 40.511719 48.347656 40.332031 48.402344 40.152344 48.511719 C 39.617188 48.894531 39.257812 49.277344 38.71875 49.714844 C 38.363281 49.988281 38.363281 49.988281 37.46875 49.933594 C 37.644531 49.714844 37.824219 49.605469 38.003906 49.441406 C 39.617188 48.128906 41.226562 46.867188 42.839844 45.554688 C 43.015625 45.445312 43.195312 45.390625 43.554688 45.390625 C 43.914062 45.390625 44.269531 45.335938 44.449219 45.5 C 46.242188 46.921875 48.03125 48.347656 49.640625 49.769531 C 49.820312 49.824219 49.820312 49.878906 49.820312 49.878906 Z M 43.734375 45.773438 L 40.867188 48.074219 L 46.597656 48.074219 Z M 43.734375 45.773438 "/>
<path style=" stroke:none;fill-rule:nonzero;fill:rgb(14.901961%,40%,69.019608%);fill-opacity:1;" d="M 12.398438 49.878906 C 11.503906 49.933594 11.503906 49.933594 11.144531 49.660156 C 10.609375 49.277344 10.070312 48.894531 9.714844 48.457031 C 9.714844 48.347656 9.355469 48.292969 8.996094 48.347656 C 7.207031 48.347656 5.417969 48.347656 3.625 48.347656 C 3.269531 48.347656 3.089844 48.402344 2.910156 48.511719 C 2.550781 48.894531 2.015625 49.277344 1.476562 49.714844 C 1.121094 49.933594 1.121094 49.933594 0.222656 49.878906 C 0.222656 49.824219 0.222656 49.769531 0.402344 49.714844 C 2.195312 48.347656 3.804688 46.976562 5.597656 45.554688 C 5.597656 45.445312 5.953125 45.390625 6.3125 45.390625 C 6.671875 45.390625 7.027344 45.390625 7.207031 45.5 C 8.996094 46.921875 10.609375 48.292969 12.398438 49.714844 C 12.398438 49.824219 12.398438 49.824219 12.398438 49.878906 Z M 6.3125 45.773438 L 3.445312 48.074219 L 9.175781 48.074219 Z M 6.3125 45.773438 "/>
<path style=" stroke:none;fill-rule:nonzero;fill:rgb(14.901961%,40%,69.019608%);fill-opacity:1;" d="M 133.257812 49.878906 C 132.183594 49.933594 132.183594 49.933594 132.003906 49.660156 C 131.46875 49.277344 131.109375 48.894531 130.574219 48.457031 C 130.574219 48.347656 130.214844 48.292969 129.855469 48.292969 C 128.066406 48.292969 126.277344 48.292969 124.484375 48.292969 C 124.128906 48.292969 123.949219 48.347656 123.769531 48.457031 C 123.230469 48.839844 122.875 49.222656 122.335938 49.660156 C 121.980469 49.933594 121.980469 49.933594 121.082031 49.878906 C 121.082031 49.824219 121.261719 49.769531 121.261719 49.714844 C 123.054688 48.347656 124.664062 46.921875 126.453125 45.554688 C 126.632812 45.390625 126.8125 45.390625 127.351562 45.390625 C 127.707031 45.390625 128.066406 45.445312 128.066406 45.554688 C 129.679688 46.976562 131.46875 48.347656 133.078125 49.714844 C 133.257812 49.769531 133.257812 49.824219 133.257812 49.878906 Z M 130.035156 48.074219 L 127.171875 45.773438 L 124.304688 48.074219 Z M 130.035156 48.074219 "/>
<path style=" stroke:none;fill-rule:nonzero;fill:rgb(14.901961%,40%,69.019608%);fill-opacity:1;" d="M 22.246094 49.605469 L 29.945312 49.605469 L 29.945312 49.878906 L 21.171875 49.878906 L 21.171875 45.445312 L 22.246094 45.445312 Z M 22.246094 49.605469 "/>
<path style=" stroke:none;fill-rule:nonzero;fill:rgb(14.901961%,40%,69.019608%);fill-opacity:1;" d="M 150.097656 0 C 186.265625 0 215.632812 8.980469 215.632812 20.097656 C 215.453125 31.214844 185.730469 40.140625 149.382812 40.085938 C 113.214844 39.976562 84.027344 30.941406 84.207031 19.824219 L 84.207031 19.714844 C 84.566406 8.925781 114.109375 0 150.097656 0 Z M 149.917969 39.320312 C 184.65625 39.484375 213.304688 30.996094 213.839844 20.371094 C 214.378906 9.75 186.625 0.984375 151.710938 0.820312 C 151.171875 0.820312 150.636719 0.820312 150.097656 0.820312 C 115.363281 0.820312 86.894531 9.363281 86.894531 19.878906 C 86.535156 30.503906 114.648438 39.210938 149.382812 39.320312 Z M 149.917969 39.320312 "/>
<path style=" stroke:none;fill-rule:nonzero;fill:rgb(14.901961%,40%,69.019608%);fill-opacity:1;" d="M 121.09375 24.589844 C 121.449219 24.371094 121.628906 24.207031 121.988281 24.042969 C 130.222656 19.550781 138.640625 15.003906 146.875 10.515625 C 147.414062 10.132812 148.667969 9.914062 150.097656 9.96875 C 151.53125 9.914062 152.785156 10.132812 153.320312 10.515625 C 161.558594 15.058594 169.792969 19.550781 178.210938 24.042969 C 178.566406 24.207031 178.746094 24.371094 179.105469 24.589844 L 138.816406 24.589844 C 139.355469 23.988281 140.070312 23.660156 142.398438 23.660156 C 151.890625 23.714844 161.199219 23.660156 170.6875 23.660156 L 173.375 23.660156 L 150.097656 11.0625 C 149.5625 11.335938 149.203125 11.5 148.84375 11.71875 C 141.144531 15.828125 133.445312 19.933594 125.925781 24.042969 C 124.496094 24.644531 123.242188 24.699219 121.09375 24.589844 Z M 121.09375 24.589844 "/>
<path style=" stroke:none;fill-rule:nonzero;fill:rgb(14.901961%,40%,69.019608%);fill-opacity:1;" d="M 120.914062 30.121094 L 120.914062 29.246094 L 178.925781 29.246094 L 178.925781 30.121094 Z M 120.914062 30.121094 "/>
</g>
</svg>
