<?xml version="1.0" encoding="UTF-8"?>
<svg id="katman_1" data-name="katman 1" xmlns="http://www.w3.org/2000/svg" viewBox="0 0 300 100">
  <defs>
    <style>
      .cls-1 {
        fill: #010202;
        fill-rule: evenodd;
      }
    </style>
  </defs>
  <path class="cls-1" d="M147.02,53.63c6.36,.17,12.07-5.13,12.24-11.42,.17-6.66-5.02-11.8-11.16-12.22-7.22-.55-12.85,4.88-13.11,11.2-.3,6.83,4.97,12.22,12.03,12.43m13.58-11.84c0,7.38-6.01,13.2-13.58,13.16-7.4,0-13.37-5.9-13.41-13.16,0-7.34,6.01-13.24,13.54-13.24s13.41,5.86,13.45,13.11v.13m-63.97,21.69c-.87,1.87-1.73,3.78-2.64,5.64-.13,.3-.56,.68-.82,.68-.35-.04-.78-.38-.95-.68-.69-1.4-1.3-2.89-1.99-4.33-.22-.47-.43-.93-.87-1.36,0,1.78,.04,3.61,0,5.39,0,.34-.17,.85-.43,.98-.65,.34-1.08-.04-1.08-.85v-8.74c0-.3,.26-.81,.48-.89,.52-.13,1.08-.17,1.38,.55,1.04,2.46,2.21,4.88,3.37,7.51,.35-.76,.69-1.4,.95-2.04,.82-1.82,1.64-3.61,2.42-5.43,.26-.59,.74-.85,1.25-.64,.26,.13,.56,.64,.56,.93,.04,2.8,.04,5.6,0,8.44,0,1.15-.17,1.23-1.51,.98v-6.2l-.13,.04m121.76,.81c1.12-.04,2.12-.04,3.11-.21,.99-.17,1.34-.85,1.3-1.91-.04-.93-.69-1.36-1.47-1.44-.95-.08-1.9-.04-2.94-.04v3.61h0Zm4.02,1.15c.61,1.15,1.25,2.21,1.77,3.27,.13,.3,.04,.72,.04,1.06-.48-.13-1.17-.08-1.38-.38-.56-.72-.99-1.57-1.34-2.42-.43-1.02-1.04-1.53-2.21-1.32-.26,.04-.52,0-.95,0v3.27c0,.47,.04,.89-.69,.89s-.87-.38-.87-.93v-8.83c0-.64,.3-.85,.95-.85,.99,.04,2.03,0,3.03,0,1.82,.04,3.11,.76,3.46,1.99,.52,1.91,0,3.06-1.82,4.24h0Zm-69.12-1.19c.99,0,1.9,.04,2.85,0,.95-.08,1.6-.89,1.6-1.82s-.56-1.57-1.56-1.66c-.95-.08-1.9,0-2.9,0v3.48h0Zm4.07,1.15c.61,1.15,1.21,2.16,1.69,3.27,.13,.34,.13,1.06,.04,1.1-.52,.17-1.12,.25-1.43-.42-.39-.85-.95-1.61-1.34-2.46-.39-.93-.91-1.36-1.99-1.19-.3,.04-.65,0-1.08,0v3.35c0,.47,0,.85-.69,.85-.65,0-.82-.25-.82-.81,0-2.97,0-5.94,.04-8.91,0-.25,.3-.76,.48-.76,1.47-.04,2.98-.08,4.46,.04,1.38,.13,2.34,.98,2.6,2.29,.3,1.49-.26,2.72-1.6,3.56-.13,0-.22,0-.35,.08h0Zm-38.5-4.67v7.64c1.77,0,3.72,.42,4.8-1.32,.95-1.49,.95-3.27,.09-4.84-1.08-1.87-3.03-1.49-4.89-1.49m-1.6,3.73v-4.24c0-.64,.17-.98,.91-.93,1.43,.08,2.85,0,4.2,.21,1.77,.3,2.9,1.44,3.29,3.18,.43,2.04,.39,3.99-1.12,5.64-.91,1.02-2.12,1.36-3.42,1.44-.99,.04-2.03,0-3.03,.04-.65,.04-.82-.25-.82-.85,0-1.44,0-2.97,0-4.5m66.09-1.87c-.52-1.87-1.82-2.55-3.46-1.87-.69,.3-1.17,.89-.95,1.53,.13,.47,.65,.98,1.12,1.15,.74,.3,1.56,.3,2.38,.42,1.51,.25,2.42,1.06,2.64,2.33,.22,1.36-.35,2.55-1.6,3.27-1.73,1.02-4.41,.68-5.67-.76-.35-.42-.61-.93-.78-1.44-.09-.3,.09-.85,.3-.93,.48-.17,.95-.13,1.21,.51,.69,1.66,1.99,2.21,3.72,1.61,.87-.3,1.21-.89,1.21-1.74s-.56-1.15-1.25-1.27c-.99-.21-1.99-.38-2.94-.64-1.04-.3-1.77-.93-1.9-2.04-.17-1.27,.13-2.33,1.34-3.06,2.16-1.23,5.15-.51,5.88,1.49,.39,1.23,.04,1.61-1.25,1.44m8.82-1.87v2.97h4.11c.48,0,.95-.08,.95,.68s-.39,.76-.95,.76h-4.07v3.31h4.11c.3,0,.65-.08,.91,.04,.26,.13,.56,.47,.56,.76,0,.21-.39,.59-.61,.59-1.99,.04-3.98,.04-5.97,0-.26,0-.65-.47-.65-.76-.04-3.06-.04-6.07,0-9.12,0-.21,.39-.59,.65-.59,1.95-.04,3.94-.04,5.88,0,.22,0,.65,.47,.61,.64-.04,.3-.39,.72-.65,.72-1.6,0-3.2,0-4.89,0m-85.99,0v2.97h3.98c.61,0,1.08,.08,1.04,.85,0,.76-.61,.59-1.04,.59-1.3,.04-2.64,0-3.98,0v3.31h4.5c.3,0,.74,.08,.91,.25,.39,.42,0,1.15-.61,1.15h-5.8c-.52,0-.69-.21-.69-.72v-9.12c0-.59,.26-.72,.78-.72h5.58c.56,0,.82,.17,.82,.72,0,.59-.3,.72-.82,.72-1.56-.04-3.07,0-4.67,0m139.2,4.46v3.65c0,.55-.04,1.06-.87,1.02-.87-.04-.65-.59-.69-1.06v-8.53c0-.51-.09-1.02,.74-1.02s.82,.51,.82,1.06v3.31h5.02v-3.44c0-.51,0-.93,.69-.93,.65,0,.91,.25,.91,.89v8.74c0,.55-.13,.98-.87,.93-.74-.04-.78-.51-.78-1.02v-3.65s-4.97,.04-4.97,.04Zm-78.85-4.46v2.97h4.11c.56,0,.91,.13,.95,.72,0,.64-.39,.72-.95,.72h-4.11v3.31h4.63c.3,0,.82,.17,.87,.38,.17,.51,.17,1.06-.69,1.06-1.9-.04-3.81,0-5.67,0-.52,0-.74-.17-.74-.68v-9.12c0-.55,.26-.76,.78-.76h5.58c.52,0,.82,.17,.82,.72,0,.59-.3,.72-.82,.72-1.56-.08-3.11-.04-4.76-.04m-31.75,.93l-1.25,3.27h2.55l-1.3-3.27m-3.5,8.15c-1.21,.04-1.12-.51-.95-1.02,.74-1.99,1.56-3.99,2.34-5.98,.39-.93,.78-1.87,1.12-2.84,.17-.55,.52-.81,1.04-.64,.35,.08,.82,.34,.91,.64,1.17,2.89,2.29,5.81,3.42,8.74,.13,.38,.48,.93-.26,1.1-.52,.13-1.12,.17-1.21-.59-.04-.17-.13-.3-.22-.47-.3-.76-.48-1.95-.99-2.16-.95-.38-2.12-.17-3.2-.13-.22,0-.48,.3-.56,.51-.3,.72-.52,1.49-.87,2.21-.13,.34-.43,.55-.56,.64m-53.03-8.19l-1.25,3.35h2.51l-1.25-3.35m1.82,4.88c-.22,0-.35-.04-.52-.04-.99,0-2.21-.3-2.98,.13-.65,.38-.82,1.61-1.21,2.46-.13,.25-.22,.59-.39,.64-.3,.13-.74,.13-1.08,.04-.13-.04-.17-.59-.09-.85,1.12-2.97,2.29-5.94,3.46-8.91,.13-.3,.65-.64,.95-.64,.35,.04,.91,.34,1.04,.68,1.21,2.97,2.34,5.94,3.46,8.91,.09,.25-.13,.59-.22,.89-.43-.17-1.08-.21-1.25-.51-.48-.85-.78-1.87-1.17-2.8m127.04-4.88l-1.25,3.31h2.55l-1.3-3.31m-1.86,4.84c-.35,.85-.74,1.66-.99,2.5-.3,.98-.91,1.02-1.86,.68,.35-.93,.65-1.82,.99-2.67,.91-2.29,1.77-4.63,2.73-6.87,.13-.34,.56-.64,.95-.76,.56-.17,.87,.13,1.08,.72,1.08,2.89,2.21,5.77,3.29,8.7,.13,.3,.04,.98-.13,1.06-.56,.21-1.12,.13-1.34-.59-.22-.68-.56-1.36-.78-2.04-.13-.47-.35-.68-.91-.68-.95,0-1.99-.04-3.03-.04m-151-1.49c-.43-1.06-.82-2.08-1.3-3.35l-1.3,3.35h2.6Zm-3.2,1.49c-.35,.93-.65,1.78-.99,2.63-.22,.59-.61,.89-1.25,.72-.74-.25-.39-.85-.22-1.23,1.04-2.76,2.12-5.52,3.2-8.28,.22-.51,.35-1.02,1.17-1.02,.78,0,.91,.51,1.08,1.06,1.04,2.76,2.12,5.47,3.16,8.23,.13,.38,.13,1.15-.09,1.23-.61,.3-1.12,.04-1.34-.68-.26-.89-.48-2.04-1.12-2.46s-1.82-.13-2.77-.13c-.22-.08-.43-.08-.82-.08Zm178.34-1.87c.04-1.78,.48-3.35,1.99-4.58,1.95-1.57,5.93-1.02,6.62,1.32,.13,.42,.13,1.19-.09,1.36-.65,.38-1.04,0-1.3-.72-.69-1.78-3.24-1.95-4.67-.38-1.38,1.49-1.21,4.92,.3,6.28,1.47,1.36,3.68,.93,4.46-.89,.26-.59,.65-.81,1.17-.55,.22,.13,.35,.72,.26,1.02-.35,1.32-1.3,2.08-2.6,2.38-3.72,.89-6.19-1.27-6.14-5.22m-165.24,3.82h4.37c.52,0,.91,.04,.91,.72s-.39,.72-.91,.72c-1.69,0-3.37-.04-5.06,0-.61,0-.87-.25-.87-.81v-9c0-.59,.35-.76,.91-.76,.65,0,.65,.42,.65,.89v8.23Z"/>
  <path class="cls-1" d="M151,43.61l-3.89-6.75c-.82,1.36-1.56,2.63-2.29,3.86-.65,1.15-1.3,2.29-1.99,3.44-.13,.21-.22,.51-.39,.55-.39,.13-.78,.17-1.21,.21-.04-.34-.17-.72-.04-.98,1.64-2.93,3.29-5.81,5.02-8.7,.3-.51,.95-.68,1.47-.38,.17,.08,.3,.25,.39,.38,1.69,2.84,3.33,5.73,4.97,8.57,.48,.85,.26,1.15-.74,1.15-2.21,0-4.46,0-6.7-.04-.39,0-1.08-.3-1.08-.47,0-.68,.43-1.02,1.21-.98,1.73,.17,3.42,.13,5.28,.13m-3.98,5.01h-5.15c-.56,0-.99-.08-1.04-.76-.04-.85,.56-.68,1.04-.68h10.42c.52,0,1.04,0,1.04,.72s-.48,.72-1.04,.72c-1.77-.04-3.55,0-5.28,0"/>
</svg>