<?xml version="1.0" encoding="UTF-8"?>
<svg xmlns="http://www.w3.org/2000/svg" xmlns:xlink="http://www.w3.org/1999/xlink" width="300" height="60" viewBox="0 0 300 60" version="1.1">
<g id="surface1">
<path style=" stroke:none;fill-rule:nonzero;fill:rgb(14.901961%,40%,69.019608%);fill-opacity:1;" d="M 195.03125 59.988281 C 194.492188 59.921875 193.777344 59.921875 193.242188 59.855469 C 191.449219 59.660156 190.195312 59.066406 190.019531 58.410156 C 190.914062 58.34375 190.914062 58.34375 191.09375 58.609375 C 191.628906 59.332031 193.597656 59.726562 195.566406 59.660156 C 196.285156 59.660156 197 59.59375 197.539062 59.527344 C 199.148438 59.332031 200.042969 58.738281 199.6875 58.214844 C 199.507812 57.820312 198.613281 57.554688 197.71875 57.492188 C 196.644531 57.425781 195.566406 57.359375 194.492188 57.292969 C 193.957031 57.226562 193.417969 57.226562 193.0625 57.160156 C 191.808594 57.03125 191.09375 56.636719 190.914062 56.242188 C 190.554688 55.714844 191.09375 55.191406 192.167969 54.925781 C 194.136719 54.46875 196.820312 54.402344 198.792969 54.796875 C 199.867188 55.058594 200.402344 55.519531 200.402344 55.980469 C 199.507812 56.042969 199.507812 56.042969 199.328125 55.78125 C 199.148438 55.320312 198.074219 54.925781 196.820312 54.863281 C 195.746094 54.796875 194.492188 54.796875 193.417969 54.992188 C 192.34375 55.191406 191.628906 55.585938 191.808594 56.042969 C 191.808594 56.503906 192.703125 56.832031 193.777344 56.898438 C 195.03125 57.03125 196.285156 57.097656 197.359375 57.160156 C 197.539062 57.160156 197.71875 57.160156 197.894531 57.226562 C 199.328125 57.292969 200.582031 57.6875 200.761719 58.277344 C 201.117188 58.871094 200.402344 59.460938 198.96875 59.789062 C 198.253906 59.921875 197.359375 60.054688 196.644531 60.117188 C 196.464844 60.117188 196.285156 60.183594 196.105469 60.183594 Z M 195.03125 59.988281 "/>
<path style=" stroke:none;fill-rule:nonzero;fill:rgb(14.901961%,40%,69.019608%);fill-opacity:1;" d="M 299.777344 54.597656 C 299.777344 54.730469 299.777344 54.863281 299.777344 55.058594 L 299.777344 59.855469 L 298.703125 59.855469 L 298.703125 57.292969 L 290.105469 57.292969 L 290.105469 59.855469 L 289.03125 59.855469 L 289.03125 54.53125 L 289.929688 54.53125 L 289.929688 56.964844 L 298.523438 56.964844 L 298.523438 54.46875 L 299.597656 54.46875 Z M 299.777344 54.597656 "/>
<path style=" stroke:none;fill-rule:nonzero;fill:rgb(14.901961%,40%,69.019608%);fill-opacity:1;" d="M 273.277344 59.988281 C 273.097656 59.988281 273.097656 59.988281 272.917969 59.921875 C 270.769531 59.855469 268.800781 59.265625 268.082031 58.476562 C 267.1875 57.621094 267.1875 56.703125 268.082031 55.914062 C 269.15625 54.730469 272.738281 54.074219 276.140625 54.46875 C 276.5 54.53125 276.679688 54.53125 276.855469 54.597656 C 278.289062 54.863281 279.363281 55.386719 279.363281 55.980469 C 279.183594 55.980469 279.183594 55.980469 279.003906 55.980469 L 278.46875 55.980469 C 278.46875 55.914062 278.46875 55.914062 278.289062 55.847656 C 277.929688 55.257812 276.679688 54.796875 275.066406 54.730469 C 272.382812 54.46875 269.695312 55.058594 268.980469 56.042969 C 268.261719 56.765625 268.261719 57.554688 268.980469 58.277344 C 269.695312 59.265625 272.558594 59.855469 275.246094 59.59375 C 275.425781 59.59375 275.425781 59.59375 275.605469 59.527344 C 276.855469 59.394531 277.929688 59.066406 278.109375 58.609375 C 278.289062 58.34375 278.289062 58.34375 279.183594 58.410156 C 279.183594 58.871094 278.46875 59.265625 277.574219 59.59375 C 276.855469 59.789062 275.78125 59.921875 274.886719 59.988281 C 274.707031 59.988281 274.53125 59.988281 274.171875 60.054688 Z M 273.277344 59.988281 "/>
<path style=" stroke:none;fill-rule:nonzero;fill:rgb(14.901961%,40%,69.019608%);fill-opacity:1;" d="M 72.738281 54.53125 L 72.738281 59.855469 L 71.84375 59.855469 L 71.84375 55.257812 C 71.664062 55.320312 71.664062 55.386719 71.664062 55.386719 C 69.875 56.832031 68.085938 58.277344 66.292969 59.726562 C 66.113281 59.789062 65.9375 59.855469 65.757812 59.855469 C 65.578125 59.855469 65.398438 59.789062 65.21875 59.726562 C 63.429688 58.277344 61.636719 56.832031 59.847656 55.386719 C 59.847656 55.320312 59.667969 55.320312 59.667969 55.320312 L 59.667969 59.921875 L 58.773438 59.921875 L 58.773438 54.53125 C 59.847656 54.46875 59.847656 54.46875 60.386719 54.796875 C 62.175781 56.308594 63.964844 57.753906 65.757812 59.265625 C 65.757812 59.332031 65.9375 59.332031 65.9375 59.394531 L 69.875 56.175781 C 70.410156 55.714844 70.949219 55.257812 71.488281 54.796875 C 71.664062 54.46875 71.664062 54.46875 72.738281 54.53125 Z M 72.738281 54.53125 "/>
<path style=" stroke:none;fill-rule:nonzero;fill:rgb(14.901961%,40%,69.019608%);fill-opacity:1;" d="M 101.925781 59.855469 L 101.925781 54.53125 C 101.925781 54.53125 101.925781 54.53125 102.105469 54.53125 C 104.074219 54.53125 106.042969 54.46875 107.832031 54.597656 C 110.699219 54.664062 113.027344 55.453125 113.207031 56.503906 C 113.5625 57.160156 113.382812 57.820312 112.847656 58.476562 C 111.953125 59.332031 109.804688 59.921875 107.296875 59.921875 C 105.507812 59.921875 103.714844 59.855469 101.925781 59.855469 Z M 103 54.863281 L 103 59.527344 C 104.609375 59.527344 106.222656 59.527344 107.832031 59.527344 C 109.980469 59.460938 111.773438 58.871094 112.128906 58.082031 C 112.488281 57.554688 112.488281 56.964844 112.128906 56.4375 C 111.773438 55.714844 110.339844 55.125 108.550781 54.992188 C 106.582031 54.863281 104.789062 54.796875 103 54.863281 Z M 103 54.863281 "/>
<path style=" stroke:none;fill-rule:nonzero;fill:rgb(14.901961%,40%,69.019608%);fill-opacity:1;" d="M 159.578125 57.554688 L 162.980469 59.855469 C 161.90625 59.921875 161.726562 59.921875 161.371094 59.660156 C 160.472656 59 159.578125 58.410156 158.683594 57.753906 C 158.503906 57.6875 158.324219 57.621094 158.324219 57.621094 C 156.894531 57.621094 155.460938 57.621094 154.027344 57.621094 L 154.027344 59.921875 L 152.953125 59.921875 L 152.953125 54.53125 C 153.132812 54.53125 153.132812 54.53125 153.3125 54.53125 C 155.101562 54.53125 156.894531 54.53125 158.503906 54.53125 C 158.863281 54.53125 159.222656 54.53125 159.398438 54.597656 C 161.191406 54.664062 162.625 55.191406 162.800781 55.914062 C 162.980469 56.636719 161.90625 57.292969 159.9375 57.554688 C 159.9375 57.492188 159.757812 57.492188 159.578125 57.554688 Z M 153.847656 57.226562 C 155.460938 57.226562 157.074219 57.226562 158.683594 57.226562 C 160.472656 57.226562 161.726562 56.703125 161.726562 56.109375 C 161.726562 56.109375 161.726562 56.042969 161.726562 56.042969 C 161.90625 55.453125 160.652344 54.925781 159.042969 54.863281 C 159.042969 54.863281 158.863281 54.863281 158.863281 54.863281 C 158.683594 54.863281 158.324219 54.863281 158.148438 54.863281 C 156.894531 54.863281 155.640625 54.863281 154.386719 54.863281 C 154.207031 54.863281 154.027344 54.863281 153.847656 54.863281 Z M 153.847656 57.226562 "/>
<path style=" stroke:none;fill-rule:nonzero;fill:rgb(14.901961%,40%,69.019608%);fill-opacity:1;" d="M 248.925781 54.46875 C 251.074219 54.46875 253.222656 54.46875 255.371094 54.53125 C 257.160156 54.53125 258.773438 55.125 258.773438 55.78125 C 259.132812 56.503906 257.878906 57.226562 255.910156 57.425781 C 255.730469 57.425781 255.730469 57.492188 255.550781 57.492188 L 258.953125 59.789062 C 257.878906 59.855469 257.878906 59.855469 257.339844 59.527344 C 256.445312 58.9375 255.550781 58.277344 254.65625 57.6875 C 254.476562 57.554688 254.296875 57.492188 253.9375 57.554688 C 252.683594 57.554688 251.253906 57.554688 249.820312 57.554688 L 249.820312 59.855469 L 248.746094 59.855469 Z M 250 57.226562 C 251.789062 57.226562 253.402344 57.292969 255.011719 57.226562 C 256.625 57.160156 257.878906 56.636719 257.878906 56.042969 C 258.058594 55.453125 256.804688 54.925781 255.191406 54.925781 L 255.011719 54.925781 C 254.117188 54.925781 253.222656 54.863281 252.148438 54.925781 C 251.433594 54.925781 250.714844 54.925781 250 54.925781 Z M 250 57.226562 "/>
<path style=" stroke:none;fill-rule:nonzero;fill:rgb(14.901961%,40%,69.019608%);fill-opacity:1;" d="M 210.25 54.53125 L 219.5625 54.53125 L 219.5625 54.863281 L 211.324219 54.863281 L 211.324219 56.964844 L 218.84375 56.964844 L 218.84375 57.292969 L 211.324219 57.292969 L 211.324219 59.527344 L 219.5625 59.527344 L 219.5625 59.855469 L 210.25 59.855469 Z M 210.25 54.53125 "/>
<path style=" stroke:none;fill-rule:nonzero;fill:rgb(14.901961%,40%,69.019608%);fill-opacity:1;" d="M 172.292969 54.53125 L 181.601562 54.53125 L 181.601562 54.863281 L 173.367188 54.863281 L 173.367188 56.964844 L 180.886719 56.964844 L 180.886719 57.292969 L 173.367188 57.292969 L 173.367188 59.527344 C 173.546875 59.527344 173.902344 59.527344 174.082031 59.527344 L 180.886719 59.527344 C 181.78125 59.527344 181.78125 59.527344 181.601562 59.855469 L 172.292969 59.855469 Z M 172.292969 54.53125 "/>
<path style=" stroke:none;fill-rule:nonzero;fill:rgb(14.901961%,40%,69.019608%);fill-opacity:1;" d="M 84.199219 56.964844 L 91.539062 56.964844 L 91.539062 57.292969 L 84.199219 57.292969 L 84.199219 59.527344 L 92.433594 59.527344 L 92.433594 59.855469 L 83.125 59.855469 L 83.125 54.53125 L 92.433594 54.53125 L 92.433594 54.863281 L 84.199219 54.863281 Z M 84.199219 56.964844 "/>
<path style=" stroke:none;fill-rule:nonzero;fill:rgb(14.901961%,40%,69.019608%);fill-opacity:1;" d="M 227.796875 59.855469 C 228.511719 59.265625 229.050781 58.671875 229.589844 58.082031 C 230.839844 56.964844 231.914062 55.847656 232.988281 54.730469 C 232.988281 54.597656 233.347656 54.53125 233.886719 54.53125 C 234.242188 54.53125 234.601562 54.597656 234.78125 54.730469 C 236.390625 56.375 238.183594 58.015625 239.972656 59.726562 C 239.972656 59.789062 240.152344 59.855469 240.152344 59.921875 C 239.257812 59.988281 239.078125 59.988281 238.898438 59.726562 C 238.363281 59.265625 238.003906 58.804688 237.464844 58.34375 C 237.464844 58.214844 237.109375 58.082031 236.570312 58.148438 C 234.78125 58.148438 233.167969 58.148438 231.378906 58.148438 C 231.019531 58.148438 230.664062 58.214844 230.664062 58.34375 C 230.125 58.804688 229.765625 59.265625 229.230469 59.789062 C 228.871094 59.921875 228.871094 59.921875 227.796875 59.855469 Z M 231.199219 57.6875 L 236.929688 57.6875 L 234.0625 54.925781 C 232.988281 55.847656 232.09375 56.765625 231.199219 57.6875 Z M 231.199219 57.6875 "/>
<path style=" stroke:none;fill-rule:nonzero;fill:rgb(14.901961%,40%,69.019608%);fill-opacity:1;" d="M 49.820312 59.855469 C 48.746094 59.855469 48.746094 59.855469 48.390625 59.59375 C 47.851562 59.132812 47.492188 58.671875 46.957031 58.214844 C 46.957031 58.082031 46.597656 58.015625 46.242188 58.015625 C 44.449219 58.015625 42.660156 58.015625 40.867188 58.015625 C 40.511719 58.015625 40.332031 58.082031 40.152344 58.214844 C 39.617188 58.671875 39.257812 59.132812 38.71875 59.660156 C 38.363281 59.988281 38.363281 59.988281 37.46875 59.921875 C 37.644531 59.660156 37.824219 59.527344 38.003906 59.332031 C 39.617188 57.753906 41.226562 56.242188 42.839844 54.664062 C 43.015625 54.53125 43.195312 54.46875 43.554688 54.46875 C 43.914062 54.46875 44.269531 54.402344 44.449219 54.597656 C 46.242188 56.308594 48.03125 58.015625 49.640625 59.726562 C 49.820312 59.789062 49.820312 59.855469 49.820312 59.855469 Z M 43.734375 54.925781 L 40.867188 57.6875 L 46.597656 57.6875 Z M 43.734375 54.925781 "/>
<path style=" stroke:none;fill-rule:nonzero;fill:rgb(14.901961%,40%,69.019608%);fill-opacity:1;" d="M 12.398438 59.855469 C 11.503906 59.921875 11.503906 59.921875 11.144531 59.59375 C 10.609375 59.132812 10.070312 58.671875 9.714844 58.148438 C 9.714844 58.015625 9.355469 57.949219 8.996094 58.015625 C 7.207031 58.015625 5.417969 58.015625 3.625 58.015625 C 3.269531 58.015625 3.089844 58.082031 2.910156 58.214844 C 2.550781 58.671875 2.015625 59.132812 1.476562 59.660156 C 1.121094 59.921875 1.121094 59.921875 0.222656 59.855469 C 0.222656 59.789062 0.222656 59.726562 0.402344 59.660156 C 2.195312 58.015625 3.804688 56.375 5.597656 54.664062 C 5.597656 54.53125 5.953125 54.46875 6.3125 54.46875 C 6.671875 54.46875 7.027344 54.46875 7.207031 54.597656 C 8.996094 56.308594 10.609375 57.949219 12.398438 59.660156 C 12.398438 59.789062 12.398438 59.789062 12.398438 59.855469 Z M 6.3125 54.925781 L 3.445312 57.6875 L 9.175781 57.6875 Z M 6.3125 54.925781 "/>
<path style=" stroke:none;fill-rule:nonzero;fill:rgb(14.901961%,40%,69.019608%);fill-opacity:1;" d="M 133.257812 59.855469 C 132.183594 59.921875 132.183594 59.921875 132.003906 59.59375 C 131.46875 59.132812 131.109375 58.671875 130.574219 58.148438 C 130.574219 58.015625 130.214844 57.949219 129.855469 57.949219 C 128.066406 57.949219 126.277344 57.949219 124.484375 57.949219 C 124.128906 57.949219 123.949219 58.015625 123.769531 58.148438 C 123.230469 58.609375 122.875 59.066406 122.335938 59.59375 C 121.980469 59.921875 121.980469 59.921875 121.082031 59.855469 C 121.082031 59.789062 121.261719 59.726562 121.261719 59.660156 C 123.054688 58.015625 124.664062 56.308594 126.453125 54.664062 C 126.632812 54.46875 126.8125 54.46875 127.351562 54.46875 C 127.707031 54.46875 128.066406 54.53125 128.066406 54.664062 C 129.679688 56.375 131.46875 58.015625 133.078125 59.660156 C 133.257812 59.726562 133.257812 59.789062 133.257812 59.855469 Z M 130.035156 57.6875 L 127.171875 54.925781 L 124.304688 57.6875 Z M 130.035156 57.6875 "/>
<path style=" stroke:none;fill-rule:nonzero;fill:rgb(14.901961%,40%,69.019608%);fill-opacity:1;" d="M 22.246094 59.527344 L 29.945312 59.527344 L 29.945312 59.855469 L 21.171875 59.855469 L 21.171875 54.53125 L 22.246094 54.53125 Z M 22.246094 59.527344 "/>
<path style=" stroke:none;fill-rule:nonzero;fill:rgb(14.901961%,40%,69.019608%);fill-opacity:1;" d="M 150.097656 0 C 186.265625 0 215.632812 10.777344 215.632812 24.117188 C 215.453125 37.457031 185.730469 48.171875 149.382812 48.105469 C 113.214844 47.972656 84.027344 37.128906 84.207031 23.789062 L 84.207031 23.660156 C 84.566406 10.710938 114.109375 0 150.097656 0 Z M 149.917969 47.183594 C 184.65625 47.382812 213.304688 37.195312 213.839844 24.445312 C 214.378906 11.699219 186.625 1.183594 151.710938 0.984375 C 151.171875 0.984375 150.636719 0.984375 150.097656 0.984375 C 115.363281 0.984375 86.894531 11.238281 86.894531 23.855469 C 86.535156 36.605469 114.648438 47.054688 149.382812 47.183594 Z M 149.917969 47.183594 "/>
<path style=" stroke:none;fill-rule:nonzero;fill:rgb(14.901961%,40%,69.019608%);fill-opacity:1;" d="M 121.09375 29.507812 C 121.449219 29.246094 121.628906 29.046875 121.988281 28.851562 C 130.222656 23.460938 138.640625 18.007812 146.875 12.617188 C 147.414062 12.15625 148.667969 11.894531 150.097656 11.960938 C 151.53125 11.894531 152.785156 12.15625 153.320312 12.617188 C 161.558594 18.074219 169.792969 23.460938 178.210938 28.851562 C 178.566406 29.046875 178.746094 29.246094 179.105469 29.507812 L 138.816406 29.507812 C 139.355469 28.785156 140.070312 28.390625 142.398438 28.390625 C 151.890625 28.457031 161.199219 28.390625 170.6875 28.390625 L 173.375 28.390625 L 150.097656 13.273438 C 149.5625 13.601562 149.203125 13.800781 148.84375 14.0625 C 141.144531 18.992188 133.445312 23.921875 125.925781 28.851562 C 124.496094 29.574219 123.242188 29.636719 121.09375 29.507812 Z M 121.09375 29.507812 "/>
<path style=" stroke:none;fill-rule:nonzero;fill:rgb(14.901961%,40%,69.019608%);fill-opacity:1;" d="M 120.914062 36.144531 L 120.914062 35.09375 L 178.925781 35.09375 L 178.925781 36.144531 Z M 120.914062 36.144531 "/>
</g>
</svg>
