<svg id="Group_84" data-name="Group 84" xmlns="http://www.w3.org/2000/svg" width="167.255" height="91.33" viewBox="0 0 167.255 91.33">
  <g id="Group_275" data-name="Group 275" transform="translate(0 82.781)">
    <path id="Path_1807" data-name="Path 1807" d="M-532.986,354.858c-.324-.068-.662-.11-.98-.208a2.455,2.455,0,0,1-1.8-2.2c.452-.131.487-.112.618.324a2.264,2.264,0,0,0,2.467,1.574,4.012,4.012,0,0,0,1.112-.2,1.765,1.765,0,0,0,1.173-2.041,1.321,1.321,0,0,0-1.143-1.11c-.609-.138-1.229-.224-1.84-.348a5.764,5.764,0,0,1-.837-.226,1.754,1.754,0,0,1-1.241-1.441,2.018,2.018,0,0,1,.732-2.029,3.656,3.656,0,0,1,3.741-.154,2.046,2.046,0,0,1,.893,1.8c-.46.126-.5.1-.6-.336a1.656,1.656,0,0,0-1.423-1.36,3.041,3.041,0,0,0-1.868.189,1.524,1.524,0,0,0-.919,1.563,1.3,1.3,0,0,0,1.131,1.332c.669.163,1.357.261,2.036.387.1.019.2.037.294.061a1.87,1.87,0,0,1,1.619,1.563,2.151,2.151,0,0,1-.982,2.311,6.552,6.552,0,0,1-1.3.487,2.326,2.326,0,0,1-.287.068Z" transform="translate(641.815 -346.312)"/>
    <path id="Path_1808" data-name="Path 1808" d="M-506.09,346.582c-.012.222-.033.443-.033.662v7.335h-.583v-3.9h-4.823v3.911h-.569v-8.149h.548v3.685h4.837V346.4l.623.047Z" transform="translate(673.345 -346.252)"/>
    <path id="Path_1809" data-name="Path 1809" d="M-514.018,354.884a1.81,1.81,0,0,0-.221-.058,3.1,3.1,0,0,1-2.668-2.178,5.809,5.809,0,0,1,0-3.932,3.512,3.512,0,0,1,4.459-2.188,3.506,3.506,0,0,1,.443.186,2.285,2.285,0,0,1,1.371,2.052c-.061.007-.126.021-.191.023h-.3a1.6,1.6,0,0,1-.065-.177,2.051,2.051,0,0,0-1.786-1.7,2.773,2.773,0,0,0-3.356,1.95,5.487,5.487,0,0,0-.028,3.449,2.847,2.847,0,0,0,3.494,2c.063-.016.124-.037.187-.058a1.96,1.96,0,0,0,1.448-1.437c.124-.42.119-.422.63-.343a2.325,2.325,0,0,1-.947,1.751,3.132,3.132,0,0,1-1.509.592c-.119.016-.243.042-.359.065Z" transform="translate(666.482 -346.338)"/>
    <path id="Path_1810" data-name="Path 1810" d="M-559.351,346.461V354.6h-.541v-7.013a2.56,2.56,0,0,0-.145.229c-.986,2.2-1.968,4.41-2.964,6.61a.4.4,0,0,1-.324.175.425.425,0,0,1-.306-.215q-1.49-3.3-2.96-6.612a.269.269,0,0,0-.121-.138v6.957h-.546v-8.123c.581-.138.641-.11.877.427q1.5,3.39,3,6.777c.026.058.061.112.1.184l2.174-4.9q.465-1.057.933-2.106C-559.962,346.356-559.943,346.347-559.351,346.461Z" transform="translate(599.861 -346.26)"/>
    <path id="Path_1811" data-name="Path 1811" d="M-556.881,354.574v-8.109c.028-.021.047-.047.063-.047,1.08.012,2.167-.054,3.237.054a3.293,3.293,0,0,1,3.032,2.911,5.459,5.459,0,0,1-.228,2.957,3.306,3.306,0,0,1-3.058,2.22C-554.836,354.632-555.839,354.574-556.881,354.574Zm.6-7.659v7.109a24,24,0,0,0,2.687-.019,2.573,2.573,0,0,0,2.377-2.19,5.6,5.6,0,0,0,.028-2.519,2.738,2.738,0,0,0-2.05-2.237,13.4,13.4,0,0,0-3.041-.145Z" transform="translate(613.685 -346.242)"/>
    <path id="Path_1812" data-name="Path 1812" d="M-540.923,351.025l1.868,3.519c-.574.131-.62.112-.863-.345-.506-.954-1.01-1.908-1.521-2.857-.051-.1-.163-.224-.245-.224-.8-.019-1.6-.012-2.435-.012v3.468h-.576v-8.126a.787.787,0,0,1,.177-.042q1.473,0,2.943.014a2.929,2.929,0,0,1,.532.058,2.1,2.1,0,0,1,1.905,1.961,2.29,2.29,0,0,1-1.556,2.481C-540.762,350.95-540.829,350.983-540.923,351.025Zm-3.181-.434c.9,0,1.777.04,2.652-.009a1.732,1.732,0,0,0,1.737-1.726c0-.035,0-.07,0-.1a1.66,1.66,0,0,0-1.513-1.793c-.035,0-.072,0-.11,0a3.009,3.009,0,0,0-.434-.033c-.69,0-1.383,0-2.073,0a2.247,2.247,0,0,0-.252.028Z" transform="translate(629.921 -346.245)"/>
    <path id="Path_1813" data-name="Path 1813" d="M-521.681,346.392c1.229.033,2.437-.007,3.629.121a2.01,2.01,0,0,1,1.917,1.9,2.278,2.278,0,0,1-1.565,2.535c-.063.023-.121.051-.219.091l1.884,3.547c-.634.079-.637.079-.9-.41-.494-.935-.993-1.868-1.479-2.806a.4.4,0,0,0-.413-.247c-.746.012-1.493,0-2.274,0v3.463h-.578Zm.583,4.2c.956,0,1.885.061,2.8-.014a1.7,1.7,0,0,0,1.593-1.8l0-.056a1.619,1.619,0,0,0-1.5-1.731l-.079,0a14.634,14.634,0,0,0-1.567-.049c-.406-.007-.819,0-1.246,0Z" transform="translate(660.579 -346.265)"/>
    <path id="Path_1814" data-name="Path 1814" d="M-530.947,346.415h5.185v.478h-4.583v3.23h4.156v.5h-4.154v3.438h4.608v.511h-5.213Z" transform="translate(648.234 -346.235)"/>
    <path id="Path_1815" data-name="Path 1815" d="M-540.013,346.415h5.189v.483h-4.59v3.228h4.163v.5h-4.159v3.426c.126.007.254.019.383.019h3.816c.459,0,.459,0,.422.487h-5.217Z" transform="translate(636.156 -346.235)"/>
    <path id="Path_1816" data-name="Path 1816" d="M-560.78,350.125h4.144v.509h-4.14v3.431h4.615v.494h-5.212v-8.142h5.185v.48h-4.592Z" transform="translate(607.702 -346.232)"/>
    <path id="Path_1817" data-name="Path 1817" d="M-526.729,354.575c.354-.933.7-1.838,1.043-2.74.651-1.7,1.3-3.41,1.945-5.115a.406.406,0,0,1,.46-.315.413.413,0,0,1,.464.308q1.413,3.782,2.852,7.556c.035.093.065.187.1.282-.515.142-.56.119-.737-.348-.266-.709-.541-1.413-.791-2.127a.4.4,0,0,0-.45-.324c-.975.014-1.94.012-2.911,0a.386.386,0,0,0-.441.292c-.254.725-.536,1.439-.811,2.155C-526.172,354.64-526.172,354.64-526.729,354.575Zm1.854-3.342h3.151l-1.56-4.2C-523.828,348.464-524.348,349.84-524.875,351.232Z" transform="translate(653.854 -346.255)"/>
    <path id="Path_1818" data-name="Path 1818" d="M-565.446,354.581c-.574.049-.576.049-.756-.427-.266-.709-.536-1.416-.791-2.127a.347.347,0,0,0-.38-.28q-1.508.018-3.013,0a.346.346,0,0,0-.38.28c-.264.721-.541,1.437-.812,2.153-.177.471-.177.471-.725.387q.154-.409.308-.812,1.347-3.544,2.691-7.085c.075-.2.175-.289.389-.264.187.023.383-.058.487.219.972,2.608,1.961,5.208,2.946,7.811A1.463,1.463,0,0,1-565.446,354.581Zm-3.417-7.556-1.6,4.214h3.158Z" transform="translate(593.139 -346.252)"/>
    <path id="Path_1819" data-name="Path 1819" d="M-574.392,354.578c-.574.058-.574.058-.756-.42-.268-.718-.546-1.434-.8-2.157a.325.325,0,0,0-.366-.25q-1.5.014-3.009,0a.344.344,0,0,0-.385.271c-.263.732-.548,1.458-.823,2.188-.17.443-.17.443-.7.361.028-.086.047-.17.077-.252q1.455-3.82,2.906-7.643a.358.358,0,0,1,.42-.268c.2.009.373-.012.469.247.961,2.575,1.938,5.143,2.911,7.715C-574.432,354.429-574.417,354.492-574.392,354.578Zm-3.417-7.549-1.6,4.2h3.153Z" transform="translate(581.237 -346.254)"/>
    <path id="Path_1820" data-name="Path 1820" d="M-545.456,354.57c-.567.091-.567.091-.746-.392-.271-.718-.548-1.434-.8-2.157a.34.34,0,0,0-.385-.268c-1,.009-2.008.009-3.011,0a.324.324,0,0,0-.364.252c-.263.723-.541,1.437-.812,2.155-.177.471-.177.471-.725.425.035-.1.061-.205.1-.3.963-2.526,1.931-5.052,2.883-7.582.1-.254.235-.3.473-.3a.391.391,0,0,1,.438.294q1.42,3.8,2.864,7.589C-545.515,354.378-545.487,354.474-545.456,354.57Zm-1.854-3.328-1.56-4.217-1.6,4.217Z" transform="translate(619.782 -346.254)"/>
    <path id="Path_1821" data-name="Path 1821" d="M-575.639,354.065h4.34v.5h-4.9v-8.146h.564Z" transform="translate(587.942 -346.231)"/>
  </g>
  <g id="Group_276" data-name="Group 276" transform="translate(46.905)">
    <path id="Path_1822" data-name="Path 1822" d="M-524.345,310.843a36.717,36.717,0,0,1,36.665,36.691,36.724,36.724,0,0,1-36.961,36.483,36.724,36.724,0,0,1-36.483-36.961l0-.187C-560.91,327.176-544.391,310.834-524.345,310.843Zm-.082,71.8a35.159,35.159,0,0,0,35.678-34.626,35.156,35.156,0,0,0-34.627-35.678c-.292,0-.583,0-.875,0-19.462-.014-35.343,15.63-35.356,34.832a35.166,35.166,0,0,0,34.857,35.473l.324,0Z" transform="translate(561.125 -310.843)"/>
    <path id="Path_1823" data-name="Path 1823" d="M-552.307,345.347c.18-.359.315-.662.476-.952q6.972-12.363,13.928-24.733a1.733,1.733,0,0,1,1.773-1.033,1.772,1.772,0,0,1,1.786,1.014q6.916,12.395,13.909,24.745c.163.294.317.595.55,1.031h-22.443c.308-1.115.742-1.721,2.027-1.7,5.268.082,10.539.033,15.81.033h1.462l-13.091-23.105c-.305.5-.527.837-.73,1.189-4.282,7.491-8.592,14.968-12.809,22.5C-550.324,345.529-551.111,345.632-552.307,345.347Z" transform="translate(572.873 -300.482)"/>
    <path id="Path_1824" data-name="Path 1824" d="M-552.323,335.338v-1.6h32.395v1.6Z" transform="translate(572.852 -280.344)"/>
  </g>
</svg>
