<?xml version="1.0" encoding="utf-8"?>
<!-- Generator: Adobe Illustrator 26.3.1, SVG Export Plug-In . SVG Version: 6.00 Build 0)  -->
<svg version="1.1" id="Group_84" xmlns="http://www.w3.org/2000/svg" xmlns:xlink="http://www.w3.org/1999/xlink" x="0px" y="0px"
	 viewBox="0 0 167.3 91.3" style="enable-background:new 0 0 167.3 91.3;" xml:space="preserve">
<style type="text/css">
	.st0{fill:#2666B0;}
</style>
<g id="Group_275" transform="translate(0 82.781)">
	<path id="Path_1807" class="st0" d="M108.8,8.5c-0.3-0.1-0.7-0.1-1-0.2c-1-0.3-1.7-1.2-1.8-2.2c0.5-0.1,0.5-0.1,0.6,0.3
		c0.3,1.1,1.4,1.7,2.5,1.6c0.4,0,0.8-0.1,1.1-0.2c0.9-0.3,1.4-1.2,1.2-2c-0.1-0.6-0.6-1-1.1-1.1c-0.6-0.1-1.2-0.2-1.8-0.3
		c-0.3-0.1-0.6-0.1-0.8-0.2c-0.7-0.2-1.1-0.8-1.2-1.4c-0.2-0.8,0.1-1.6,0.7-2c1.1-0.7,2.6-0.8,3.7-0.2c0.6,0.4,0.9,1.1,0.9,1.8
		c-0.5,0.1-0.5,0.1-0.6-0.3c-0.1-0.7-0.7-1.3-1.4-1.4c-0.6-0.1-1.3-0.1-1.9,0.2c-0.6,0.3-1,0.9-0.9,1.6c0,0.7,0.5,1.2,1.1,1.3
		c0.7,0.2,1.4,0.3,2,0.4c0.1,0,0.2,0,0.3,0.1c0.8,0.1,1.5,0.7,1.6,1.6c0.2,0.9-0.2,1.8-1,2.3c-0.4,0.2-0.9,0.4-1.3,0.5
		c-0.1,0-0.2,0.1-0.3,0.1L108.8,8.5z"/>
	<path id="Path_1808" class="st0" d="M167.3,0.3c0,0.2,0,0.4,0,0.7v7.3h-0.6V4.4h-4.8v3.9h-0.6V0.2h0.5v3.7h4.8V0.1l0.6,0L167.3,0.3
		z"/>
	<path id="Path_1809" class="st0" d="M152.5,8.5c-0.1,0-0.1,0-0.2-0.1c-1.2-0.1-2.3-1-2.7-2.2c-0.5-1.3-0.5-2.7,0-3.9
		c0.6-1.8,2.6-2.8,4.5-2.2c0,0,0,0,0,0c0.2,0.1,0.3,0.1,0.4,0.2c0.8,0.4,1.4,1.2,1.4,2.1c-0.1,0-0.1,0-0.2,0h-0.3
		c0-0.1,0-0.1-0.1-0.2c-0.2-0.9-0.9-1.6-1.8-1.7c-1.5-0.4-3,0.5-3.4,2c-0.4,1.1-0.4,2.3,0,3.4c0.4,1.5,2,2.4,3.5,2
		c0.1,0,0.1,0,0.2-0.1c0.7-0.2,1.3-0.7,1.4-1.4c0.1-0.4,0.1-0.4,0.6-0.3c0,0.7-0.4,1.3-0.9,1.8c-0.4,0.3-1,0.5-1.5,0.6
		c-0.1,0-0.2,0-0.4,0.1L152.5,8.5z"/>
	<path id="Path_1810" class="st0" d="M40.5,0.2v8.1H40v-7c-0.1,0.1-0.1,0.2-0.1,0.2c-1,2.2-2,4.4-3,6.6c-0.1,0.1-0.2,0.2-0.3,0.2
		c-0.1,0-0.2-0.1-0.3-0.2c-1-2.2-2-4.4-3-6.6c0-0.1-0.1-0.1-0.1-0.1v7h-0.5V0.2c0.6-0.1,0.6-0.1,0.9,0.4c1,2.3,2,4.5,3,6.8
		c0,0.1,0.1,0.1,0.1,0.2l2.2-4.9c0.3-0.7,0.6-1.4,0.9-2.1C39.9,0.1,39.9,0.1,40.5,0.2z"/>
	<path id="Path_1811" class="st0" d="M56.8,8.3V0.2c0,0,0,0,0.1,0c1.1,0,2.2-0.1,3.2,0.1c1.6,0.1,2.9,1.3,3,2.9c0.2,1,0.1,2-0.2,3
		c-0.5,1.3-1.7,2.2-3.1,2.2C58.8,8.4,57.8,8.3,56.8,8.3z M57.4,0.7v7.1c0.9,0,1.8,0,2.7,0c1.2-0.1,2.2-1,2.4-2.2
		c0.2-0.8,0.2-1.7,0-2.5c-0.2-1.1-1-2-2-2.2C59.4,0.7,58.4,0.6,57.4,0.7L57.4,0.7z"/>
	<path id="Path_1812" class="st0" d="M89,4.8l1.9,3.5C90.3,8.4,90.2,8.4,90,8c-0.5-1-1-1.9-1.5-2.9c-0.1-0.1-0.2-0.2-0.2-0.2
		c-0.8,0-1.6,0-2.4,0v3.5h-0.6V0.2c0.1,0,0.1,0,0.2,0c1,0,2,0,2.9,0c0.2,0,0.4,0,0.5,0.1c1,0.1,1.8,0.9,1.9,2
		c0.1,1.1-0.5,2.1-1.6,2.5C89.2,4.7,89.1,4.7,89,4.8z M85.8,4.3c0.9,0,1.8,0,2.7,0c1,0,1.7-0.8,1.7-1.7c0,0,0-0.1,0-0.1
		c0.1-0.9-0.6-1.7-1.5-1.8c0,0-0.1,0-0.1,0c-0.1,0-0.3,0-0.4,0c-0.7,0-1.4,0-2.1,0c-0.1,0-0.2,0-0.3,0L85.8,4.3z"/>
	<path id="Path_1813" class="st0" d="M138.9,0.1c1.2,0,2.4,0,3.6,0.1c1,0,1.9,0.9,1.9,1.9c0.2,1.1-0.5,2.2-1.6,2.5
		c-0.1,0-0.1,0.1-0.2,0.1l1.9,3.5c-0.6,0.1-0.6,0.1-0.9-0.4c-0.5-0.9-1-1.9-1.5-2.8c-0.1-0.2-0.2-0.3-0.4-0.2c-0.7,0-1.5,0-2.3,0
		v3.5h-0.6L138.9,0.1z M139.5,4.3c1,0,1.9,0.1,2.8,0c0.9-0.1,1.6-0.9,1.6-1.8V2.5c0.1-0.9-0.6-1.7-1.5-1.7c0,0,0,0,0,0h-0.1
		c-0.5,0-1-0.1-1.6,0c-0.4,0-0.8,0-1.2,0L139.5,4.3z"/>
	<path id="Path_1814" class="st0" d="M117.3,0.2h5.2v0.5h-4.6v3.2h4.2v0.5h-4.2v3.4h4.6v0.5h-5.2L117.3,0.2z"/>
	<path id="Path_1815" class="st0" d="M96.1,0.2h5.2v0.5h-4.6v3.2h4.2v0.5h-4.2v3.4c0.1,0,0.3,0,0.4,0h3.8c0.5,0,0.5,0,0.4,0.5h-5.2
		L96.1,0.2z"/>
	<path id="Path_1816" class="st0" d="M46.9,3.9h4.1v0.5h-4.1v3.4h4.6v0.5h-5.2V0.2h5.2v0.5h-4.6V3.9z"/>
	<path id="Path_1817" class="st0" d="M127.1,8.3c0.4-0.9,0.7-1.8,1-2.7c0.7-1.7,1.3-3.4,1.9-5.1c0-0.2,0.2-0.3,0.5-0.3
		c0.2,0,0.4,0.1,0.5,0.3c0.9,2.5,1.9,5,2.9,7.6c0,0.1,0.1,0.2,0.1,0.3c-0.5,0.1-0.6,0.1-0.7-0.3c-0.3-0.7-0.5-1.4-0.8-2.1
		c0-0.2-0.2-0.4-0.5-0.3c-1,0-1.9,0-2.9,0c-0.2,0-0.4,0.1-0.4,0.3c-0.3,0.7-0.5,1.4-0.8,2.2C127.7,8.4,127.7,8.4,127.1,8.3z M129,5
		h3.2l-1.6-4.2C130,2.2,129.5,3.6,129,5L129,5z"/>
	<path id="Path_1818" class="st0" d="M27.7,8.3c-0.6,0-0.6,0-0.8-0.4c-0.3-0.7-0.5-1.4-0.8-2.1c0-0.2-0.2-0.3-0.4-0.3c-1,0-2,0-3,0
		c-0.2,0-0.3,0.1-0.4,0.3c-0.3,0.7-0.5,1.4-0.8,2.2c-0.2,0.5-0.2,0.5-0.7,0.4C20.9,8,21,7.8,21.1,7.5c0.9-2.4,1.8-4.7,2.7-7.1
		c0.1-0.2,0.2-0.3,0.4-0.3c0.2,0,0.4-0.1,0.5,0.2c1,2.6,2,5.2,2.9,7.8C27.7,8.2,27.7,8.3,27.7,8.3z M24.3,0.8L22.7,5h3.2L24.3,0.8z"
		/>
	<path id="Path_1819" class="st0" d="M6.8,8.3C6.3,8.4,6.3,8.4,6.1,7.9C5.8,7.2,5.5,6.5,5.3,5.7c0-0.2-0.2-0.3-0.4-0.2c-1,0-2,0-3,0
		c-0.2,0-0.3,0.1-0.4,0.3C1.3,6.5,1,7.2,0.7,8C0.5,8.4,0.5,8.4,0,8.3c0-0.1,0-0.2,0.1-0.3C1.1,5.5,2,3,3,0.4c0-0.2,0.2-0.3,0.4-0.3
		c0.2,0,0.4,0,0.5,0.2c1,2.6,1.9,5.1,2.9,7.7C6.8,8.2,6.8,8.2,6.8,8.3z M3.4,0.8L1.8,5H5L3.4,0.8z"/>
	<path id="Path_1820" class="st0" d="M74.3,8.3c-0.6,0.1-0.6,0.1-0.7-0.4c-0.3-0.7-0.5-1.4-0.8-2.2c0-0.2-0.2-0.3-0.4-0.3
		c-1,0-2,0-3,0c-0.2,0-0.3,0.1-0.4,0.3c-0.3,0.7-0.5,1.4-0.8,2.2C68,8.4,68,8.4,67.5,8.3c0-0.1,0.1-0.2,0.1-0.3
		c1-2.5,1.9-5.1,2.9-7.6c0.1-0.3,0.2-0.3,0.5-0.3c0.2,0,0.4,0.1,0.4,0.3C72.3,3,73.3,5.5,74.2,8C74.3,8.1,74.3,8.2,74.3,8.3z
		 M72.5,5l-1.6-4.2L69.3,5H72.5z"/>
	<path id="Path_1821" class="st0" d="M12.3,7.8h4.3v0.5h-4.9V0.2h0.6L12.3,7.8z"/>
</g>
<g id="Group_276" transform="translate(46.905)">
	<path id="Path_1822" class="st0" d="M36.8,0C57,0,73.4,16.4,73.4,36.7c-0.1,20.3-16.7,36.6-37,36.5C16.2,73-0.1,56.5,0,36.2V36
		C0.2,16.3,16.7,0,36.8,0z M36.7,71.8c19.4,0.3,35.4-15.2,35.7-34.6C72.7,17.8,57.2,1.8,37.7,1.5c0,0,0,0,0,0c-0.3,0-0.6,0-0.9,0
		C17.4,1.5,1.5,17.1,1.5,36.3C1.3,55.7,17,71.6,36.4,71.8c0,0,0,0,0,0L36.7,71.8L36.7,71.8z"/>
	<path id="Path_1823" class="st0" d="M20.6,44.9c0.2-0.4,0.3-0.7,0.5-1c4.6-8.2,9.3-16.5,13.9-24.7c0.3-0.7,1-1.1,1.8-1
		c0.8-0.1,1.5,0.3,1.8,1c4.6,8.3,9.2,16.5,13.9,24.7c0.2,0.3,0.3,0.6,0.5,1H30.5c0.3-1.1,0.7-1.7,2-1.7c5.3,0.1,10.5,0,15.8,0h1.5
		L36.8,20.2c-0.3,0.5-0.5,0.8-0.7,1.2c-4.3,7.5-8.6,15-12.8,22.5C22.5,45,21.8,45.1,20.6,44.9z"/>
	<path id="Path_1824" class="st0" d="M20.5,55v-1.6h32.4V55H20.5z"/>
</g>
</svg>
