<?xml version="1.0" encoding="UTF-8"?>
<svg xmlns="http://www.w3.org/2000/svg" xmlns:xlink="http://www.w3.org/1999/xlink" width="300" height="60" viewBox="0 0 300 60" version="1.1">
<defs>
<linearGradient id="linear0" gradientUnits="userSpaceOnUse" x1="-51.4274" y1="9.0373" x2="-51.4404" y2="9.0673" gradientTransform="matrix(27.615063,0,0,-22.22864,2133.841004,1464.858353)">
<stop offset="0" style="stop-color:rgb(53.333333%,77.254902%,3.137255%);stop-opacity:1;"/>
<stop offset="1" style="stop-color:rgb(52.54902%,74.509804%,7.45098%);stop-opacity:1;"/>
</linearGradient>
<linearGradient id="linear1" gradientUnits="userSpaceOnUse" x1="-72.1082" y1="-18.3304" x2="-72.1082" y2="-18.2433" gradientTransform="matrix(14.795577,0,0,-16.290735,1115.016617,1053.205677)">
<stop offset="0" style="stop-color:rgb(97.254902%,83.137255%,10.196078%);stop-opacity:1;"/>
<stop offset="1" style="stop-color:rgb(97.254902%,74.117647%,9.803922%);stop-opacity:1;"/>
</linearGradient>
<linearGradient id="linear2" gradientUnits="userSpaceOnUse" x1="-60.2811" y1="15.4173" x2="-60.2811" y2="15.4413" gradientTransform="matrix(27.627615,0,0,-29.994118,1679.381172,2014.632506)">
<stop offset="0" style="stop-color:rgb(7.45098%,54.901961%,90.588235%);stop-opacity:1;"/>
<stop offset="1" style="stop-color:rgb(5.882353%,52.54902%,87.843137%);stop-opacity:1;"/>
</linearGradient>
<linearGradient id="linear3" gradientUnits="userSpaceOnUse" x1="-56.6203" y1="-13.5876" x2="-56.6203" y2="-13.6746" gradientTransform="matrix(14.79199,0,0,-16.294158,844.924985,1053.469204)">
<stop offset="0" style="stop-color:rgb(97.254902%,83.137255%,10.196078%);stop-opacity:1;"/>
<stop offset="1" style="stop-color:rgb(97.254902%,74.117647%,9.803922%);stop-opacity:1;"/>
</linearGradient>
<linearGradient id="linear4" gradientUnits="userSpaceOnUse" x1="-85.7552" y1="2.4614" x2="-85.7422" y2="2.4934" gradientTransform="matrix(27.677824,0,0,-21.758057,1682.642977,1432.903871)">
<stop offset="0" style="stop-color:rgb(53.333333%,77.254902%,3.137255%);stop-opacity:1;"/>
<stop offset="1" style="stop-color:rgb(52.54902%,74.509804%,7.45098%);stop-opacity:1;"/>
</linearGradient>
<linearGradient id="linear5" gradientUnits="userSpaceOnUse" x1="-83.0418" y1="30.8341" x2="-83.0258" y2="30.8611" gradientTransform="matrix(55.249851,0,0,-30.107058,3474.830962,2007.424198)">
<stop offset="0" style="stop-color:rgb(11.372549%,69.803922%,94.901961%);stop-opacity:1;"/>
<stop offset="1" style="stop-color:rgb(11.372549%,59.215686%,94.901961%);stop-opacity:1;"/>
</linearGradient>
</defs>
<g id="surface1">
<path style=" stroke:none;fill-rule:nonzero;fill:url(#linear0);" d="M 40.859375 8.101562 L 55.382812 16.144531 L 55.382812 30.34375 L 27.769531 14.945312 Z M 40.859375 8.101562 "/>
<path style=" stroke:none;fill-rule:nonzero;fill:url(#linear1);" d="M 55.5625 0.226562 L 55.382812 16.484375 L 40.679688 8.269531 Z M 55.5625 0.226562 "/>
<path style=" stroke:none;fill-rule:nonzero;fill:url(#linear2);" d="M 0.179688 29.828125 L 27.792969 44.546875 L 27.792969 59.945312 L 0.179688 44.886719 Z M 0.179688 29.828125 "/>
<path style=" stroke:none;fill-rule:nonzero;fill:rgb(11.372549%,70.196078%,95.294118%);fill-opacity:1;" d="M 55.410156 29.828125 L 27.792969 44.375 L 27.792969 59.773438 L 55.410156 44.886719 Z M 55.410156 29.828125 "/>
<path style=" stroke:none;fill-rule:nonzero;fill:url(#linear3);" d="M 0 0.226562 L 0.179688 16.480469 L 14.882812 8.269531 Z M 0 0.226562 "/>
<path style=" stroke:none;fill-rule:nonzero;fill:url(#linear4);" d="M 14.523438 8.097656 L 0.179688 16.140625 L 0.179688 29.828125 L 27.792969 14.941406 Z M 14.523438 8.097656 "/>
<path style=" stroke:none;fill-rule:nonzero;fill:url(#linear5);" d="M 27.792969 14.941406 L 55.410156 29.828125 L 27.792969 44.886719 L 0.179688 29.828125 Z M 27.792969 14.941406 "/>
<path style=" stroke:none;fill-rule:nonzero;fill:rgb(14.901961%,40%,69.019608%);fill-opacity:1;" d="M 70.8125 8.285156 C 74.578125 8.113281 78.34375 8.285156 82.109375 8.457031 C 86.410156 8.796875 89.820312 12.390625 89.820312 16.5 C 90 18.039062 90 19.578125 89.820312 21.117188 C 89.820312 23.171875 88.5625 25.226562 86.769531 26.253906 C 86.589844 26.421875 86.410156 26.59375 86.054688 26.765625 C 89.101562 28.304688 90 30.871094 90 33.78125 C 90 35.492188 90 37.203125 89.820312 38.914062 C 89.101562 44.390625 85.695312 47.128906 79.777344 47.300781 C 76.730469 47.300781 73.859375 47.300781 70.8125 47.300781 Z M 76.730469 41.824219 C 77.984375 41.824219 79.058594 41.824219 80.136719 41.824219 C 82.289062 41.996094 84.082031 40.285156 84.261719 38.230469 L 84.261719 38.058594 C 84.4375 36.347656 84.4375 34.636719 84.261719 32.925781 C 84.261719 31.558594 83.542969 30.359375 82.289062 29.675781 C 80.496094 29.160156 78.699219 28.992188 76.90625 29.160156 Z M 76.730469 13.589844 L 76.730469 24.199219 C 76.90625 24.199219 77.265625 24.199219 77.445312 24.199219 C 78.523438 24.199219 79.597656 24.199219 80.496094 24.199219 C 82.289062 24.199219 83.722656 23 83.902344 21.289062 C 84.261719 19.921875 84.261719 18.382812 84.082031 16.839844 C 84.082031 14.957031 82.46875 13.589844 80.496094 13.417969 C 79.417969 13.589844 78.164062 13.589844 76.730469 13.589844 Z M 76.730469 13.589844 "/>
<path style=" stroke:none;fill-rule:nonzero;fill:rgb(14.901961%,40%,69.019608%);fill-opacity:1;" d="M 122.992188 47.984375 C 122.632812 47.8125 122.277344 47.8125 121.917969 47.644531 C 117.433594 46.957031 114.207031 43.195312 114.207031 38.746094 C 114.027344 31.386719 114.027344 24.199219 114.207031 16.839844 C 114.207031 12.390625 117.613281 8.628906 122.097656 7.941406 C 122.277344 7.941406 122.453125 7.769531 122.632812 7.769531 L 125.503906 7.769531 C 125.683594 7.769531 125.863281 7.941406 126.21875 7.941406 C 130.703125 8.796875 133.929688 12.390625 133.929688 16.839844 C 133.929688 24.199219 133.929688 31.386719 133.929688 38.746094 C 133.929688 42.167969 131.78125 45.417969 128.550781 46.785156 C 127.476562 47.128906 126.21875 47.644531 125.144531 47.8125 L 122.992188 47.8125 Z M 128.015625 27.792969 L 128.015625 17.523438 C 128.191406 16.328125 127.65625 15.128906 126.757812 14.445312 C 125.503906 13.417969 123.710938 13.246094 122.277344 13.933594 C 120.839844 14.445312 119.945312 15.8125 120.125 17.355469 L 120.125 34.125 C 120.125 35.664062 120.125 37.203125 120.125 38.914062 C 120.125 40.285156 120.839844 41.480469 122.097656 41.996094 C 124.070312 43.023438 126.398438 42.335938 127.476562 40.457031 C 127.835938 39.769531 128.015625 39.085938 128.015625 38.402344 C 128.191406 34.808594 128.015625 31.386719 128.015625 27.792969 Z M 128.015625 27.792969 "/>
<path style=" stroke:none;fill-rule:nonzero;fill:rgb(14.901961%,40%,69.019608%);fill-opacity:1;" d="M 264.65625 47.984375 C 263.9375 47.8125 263.398438 47.644531 262.683594 47.472656 C 258.558594 46.445312 255.6875 42.851562 255.6875 38.746094 C 255.6875 31.558594 255.6875 24.371094 255.6875 17.011719 C 255.6875 12.734375 258.738281 8.96875 263.039062 8.113281 C 263.398438 8.113281 263.578125 7.941406 263.9375 7.769531 L 266.984375 7.769531 C 267.164062 7.769531 267.34375 7.941406 267.523438 7.941406 C 272.1875 8.628906 275.59375 12.5625 275.414062 17.183594 C 275.414062 24.199219 275.414062 31.214844 275.414062 38.402344 C 275.59375 41.824219 273.621094 45.074219 270.394531 46.617188 C 269.136719 47.128906 267.703125 47.644531 266.269531 47.984375 Z M 269.675781 27.964844 C 269.675781 24.371094 269.675781 20.949219 269.675781 17.355469 C 269.675781 15.300781 268.0625 13.761719 266.089844 13.589844 C 266.089844 13.589844 265.910156 13.589844 265.910156 13.589844 C 263.757812 13.417969 261.964844 14.789062 261.785156 16.839844 C 261.785156 16.839844 261.785156 17.011719 261.785156 17.011719 C 261.785156 17.523438 261.785156 17.867188 261.785156 18.382812 L 261.785156 37.546875 C 261.785156 38.230469 261.785156 38.914062 261.964844 39.429688 C 262.144531 40.457031 262.859375 41.480469 263.9375 41.824219 C 265.910156 42.851562 268.242188 42.167969 269.316406 40.285156 C 269.675781 39.601562 269.855469 39.085938 269.855469 38.402344 C 269.675781 34.808594 269.675781 31.386719 269.675781 27.964844 Z M 269.675781 27.964844 "/>
<path style=" stroke:none;fill-rule:nonzero;fill:rgb(14.901961%,40%,69.019608%);fill-opacity:1;" d="M 148.992188 7.941406 C 150.789062 8.285156 152.222656 8.96875 153.65625 10.167969 C 155.628906 11.878906 156.703125 14.445312 156.882812 17.011719 C 156.882812 17.867188 156.882812 18.722656 156.882812 19.578125 L 150.964844 19.578125 C 150.964844 18.722656 150.964844 18.039062 150.964844 17.183594 C 150.964844 15.300781 149.351562 13.589844 147.378906 13.589844 C 147.199219 13.589844 146.84375 13.589844 146.664062 13.589844 C 145.40625 13.589844 144.511719 14.445312 144.152344 15.472656 C 143.972656 16.328125 143.792969 17.183594 143.792969 18.039062 C 143.792969 24.710938 143.792969 31.386719 143.792969 38.058594 C 143.792969 38.574219 143.792969 38.914062 143.972656 39.429688 C 143.972656 41.140625 145.585938 42.335938 147.199219 42.335938 C 147.378906 42.335938 147.378906 42.335938 147.558594 42.335938 C 149.351562 42.335938 150.964844 40.96875 150.964844 39.257812 C 150.964844 38.402344 150.964844 37.546875 150.964844 36.519531 L 156.703125 36.519531 C 157.78125 40.625 155.808594 44.90625 151.863281 46.957031 C 150.789062 47.472656 149.53125 47.8125 148.457031 48.15625 L 146.484375 48.15625 C 145.585938 47.984375 144.511719 47.8125 143.613281 47.472656 C 139.847656 46.101562 137.519531 42.679688 137.875 38.914062 C 137.875 31.558594 137.875 24.371094 137.875 17.011719 C 137.695312 12.5625 140.925781 8.796875 145.585938 8.113281 C 145.765625 8.113281 145.765625 7.941406 145.945312 7.941406 Z M 148.992188 7.941406 "/>
<path style=" stroke:none;fill-rule:nonzero;fill:rgb(14.901961%,40%,69.019608%);fill-opacity:1;" d="M 189.519531 24.371094 L 189.519531 47.644531 L 183.601562 47.644531 L 183.601562 8.285156 C 185.394531 8.285156 187.1875 8.285156 188.804688 8.285156 C 188.980469 8.285156 189.339844 8.796875 189.519531 9.140625 C 191.132812 13.589844 192.746094 17.867188 194.539062 22.316406 C 195.796875 25.398438 196.871094 28.476562 198.304688 31.558594 L 198.304688 8.285156 L 204.222656 8.285156 L 204.222656 47.472656 C 202.429688 47.472656 200.816406 47.472656 199.023438 47.472656 C 198.84375 47.472656 198.664062 47.128906 198.484375 46.785156 C 195.617188 39.429688 192.925781 32.242188 190.058594 24.882812 C 190.058594 24.710938 189.878906 24.542969 189.878906 24.199219 Z M 189.519531 24.371094 "/>
<path style=" stroke:none;fill-rule:nonzero;fill:rgb(14.901961%,40%,69.019608%);fill-opacity:1;" d="M 160.46875 8.285156 L 166.207031 8.285156 L 166.207031 25.910156 L 166.386719 25.910156 C 167.105469 24.371094 167.824219 23 168.539062 21.460938 C 170.511719 17.355469 172.484375 13.246094 174.457031 8.96875 C 174.636719 8.457031 175.175781 8.113281 175.890625 8.113281 C 177.503906 8.113281 179.121094 8.113281 180.734375 8.113281 C 180.195312 9.652344 179.476562 11.023438 178.761719 12.390625 C 176.96875 15.984375 175.175781 19.578125 173.203125 23 C 173.023438 23.6875 173.023438 24.371094 173.203125 25.054688 C 176.070312 32.242188 178.941406 39.257812 181.808594 46.445312 C 181.988281 46.785156 182.167969 47.128906 182.347656 47.644531 C 180.375 47.644531 178.402344 47.644531 176.429688 47.644531 C 176.25 47.644531 175.890625 47.128906 175.710938 46.957031 C 173.738281 41.824219 171.765625 36.691406 169.796875 31.386719 C 169.617188 31.042969 169.617188 30.871094 169.257812 30.359375 C 168.539062 31.726562 168 32.753906 167.285156 33.953125 C 166.386719 35.320312 166.027344 36.863281 166.207031 38.402344 C 166.386719 41.140625 166.207031 43.878906 166.207031 46.617188 L 166.207031 47.644531 L 160.46875 47.644531 Z M 160.46875 8.285156 "/>
<path style=" stroke:none;fill-rule:nonzero;fill:rgb(14.901961%,40%,69.019608%);fill-opacity:1;" d="M 214.804688 8.285156 C 216.417969 8.285156 217.851562 8.285156 219.285156 8.285156 C 219.464844 8.285156 219.824219 8.796875 219.824219 8.96875 C 221.617188 16.667969 223.410156 24.199219 225.203125 31.898438 C 226.28125 36.691406 227.535156 41.652344 228.613281 46.445312 C 228.613281 46.785156 228.789062 46.957031 228.789062 47.300781 L 222.875 47.300781 L 221.082031 38.914062 C 218.570312 38.914062 216.058594 38.914062 213.546875 38.914062 C 213.371094 38.914062 213.011719 39.429688 213.011719 39.601562 C 212.472656 41.996094 212.113281 44.21875 211.578125 46.617188 C 211.578125 46.785156 211.21875 47.300781 210.859375 47.300781 C 209.066406 47.300781 207.273438 47.300781 205.480469 47.300781 Z M 220.183594 33.78125 L 217.492188 19.921875 L 217.3125 19.921875 L 214.265625 33.78125 Z M 220.183594 33.78125 "/>
<path style=" stroke:none;fill-rule:nonzero;fill:rgb(14.901961%,40%,69.019608%);fill-opacity:1;" d="M 231.480469 13.589844 L 224.667969 13.589844 L 224.667969 8.457031 L 244.210938 8.457031 L 244.210938 13.589844 L 237.398438 13.589844 L 237.398438 47.644531 L 231.480469 47.644531 Z M 231.480469 13.589844 "/>
<path style=" stroke:none;fill-rule:nonzero;fill:rgb(14.901961%,40%,69.019608%);fill-opacity:1;" d="M 245.824219 47.472656 L 245.824219 8.285156 L 251.5625 8.285156 L 251.5625 47.472656 Z M 245.824219 47.472656 "/>
<path style=" stroke:none;fill-rule:nonzero;fill:rgb(14.901961%,40%,69.019608%);fill-opacity:1;" d="M 100.21875 41.996094 L 111.875 41.996094 L 111.875 47.472656 L 94.480469 47.472656 L 94.480469 8.285156 L 100.398438 8.285156 L 100.398438 41.996094 Z M 100.21875 41.996094 "/>
<path style=" stroke:none;fill-rule:nonzero;fill:rgb(14.901961%,40%,69.019608%);fill-opacity:1;" d="M 294.0625 8.285156 L 299.980469 8.285156 L 299.980469 47.472656 L 294.421875 47.472656 L 285.457031 24.199219 L 285.277344 24.199219 L 285.277344 47.472656 L 279.359375 47.472656 L 279.359375 8.285156 C 281.152344 8.285156 282.765625 8.285156 284.558594 8.285156 C 284.917969 8.285156 285.277344 8.796875 285.277344 9.140625 C 287.25 14.101562 289.042969 19.066406 290.835938 24.027344 C 291.730469 26.253906 292.449219 28.476562 293.34375 30.871094 C 293.523438 31.214844 293.703125 31.386719 293.882812 31.726562 Z M 294.0625 8.285156 "/>
</g>
</svg>
