<svg id="Group_87" data-name="Group 87" xmlns="http://www.w3.org/2000/svg" width="166.029" height="28.388" viewBox="0 0 166.029 28.388">
  <g id="PIN">
    <g id="logo">
      <g id="Layer_2" data-name="Layer 2">
        <g id="Group_85" data-name="Group 85">
          <g id="Layer_1-2" data-name="Layer 1-2">
            <path id="Shape" d="M-462.989,335.447l-5.891,5.884,7.4,7.4a3.052,3.052,0,0,0,4.312,0l7.4-7.4-5.9-5.884-3.648-3.673Z" transform="translate(473.524 -321.238)" fill="#00aee6"/>
            <path id="Shape-2" data-name="Shape" d="M-466.227,332.9l-3.75,3.746a3.045,3.045,0,0,0,0,4.31l3.75,3.743,5.891-5.884,3.673-3.673-5.915-5.891Z" transform="translate(470.871 -324.603)" fill="#123962"/>
            <path id="Shape-3" data-name="Shape" d="M-462.256,337.672l3.662,3.659,3.743-3.743a3.049,3.049,0,0,0,0-4.31l-1.5-1.5Z" transform="translate(482.349 -321.238)" fill="#b1d4e5"/>
            <path id="Shape-4" data-name="Shape" d="M-461.127,338.8h0l-3.658-3.659,5.9-5.9h0l-5.9,5.9Z" transform="translate(478.98 -324.608)" fill="#b1d4e5"/>
            <path id="Shape-5" data-name="Shape" d="M-464.785,335.143l3.658,3.659,2.241,2.241,5.9-5.9-2.237-2.241-3.662-3.658Z" transform="translate(478.98 -324.608)" fill="#2754ba"/>
            <path id="Shape-6" data-name="Shape" d="M-455.516,331.9l-3.743-3.752a3.051,3.051,0,0,0-4.312,0l-3.743,3.752,5.915,5.891Z" transform="translate(475.609 -327.256)" fill="#799eb2"/>
          </g>
        </g>
      </g>
    </g>
  </g>
  <g id="Group_86" data-name="Group 86" transform="translate(37.944 6.786)">
    <path id="Path_108" data-name="Path 108" d="M-454.6,343.831V330.262h7.689c2.684,0,3.967,1.751,3.967,3.459a3.032,3.032,0,0,1-2.321,3.114,3.246,3.246,0,0,1,2.584,3.314c0,1.975-1.322,3.683-3.986,3.683Zm8.1-9.5a1.113,1.113,0,0,0-1.2-1.119h-3.4v2.258h3.4A1.115,1.115,0,0,0-446.507,334.332Zm.266,5.329a1.222,1.222,0,0,0-1.343-1.22H-451.1v2.439h3.519A1.2,1.2,0,0,0-446.241,339.661Z" transform="translate(454.602 -330.038)"/>
    <path id="Path_109" data-name="Path 109" d="M-448.669,343.831V330.262h3.5V340.78h5.45v3.051Z" transform="translate(462.506 -330.038)"/>
    <path id="Path_110" data-name="Path 110" d="M-444.56,337.184a6.907,6.907,0,0,1,7.262-7.018,6.889,6.889,0,0,1,7.242,7.018,6.89,6.89,0,0,1-7.242,7.02A6.907,6.907,0,0,1-444.56,337.184Zm10.945,0a3.658,3.658,0,0,0-3.683-3.925,3.661,3.661,0,0,0-3.7,3.925,3.673,3.673,0,0,0,3.7,3.927A3.67,3.67,0,0,0-433.615,337.184Z" transform="translate(467.98 -330.166)"/>
    <path id="Path_111" data-name="Path 111" d="M-437.877,337.184c0-4.189,3.174-7.018,7.344-7.018a6.262,6.262,0,0,1,5.919,3.643l-3.011,1.423a3.259,3.259,0,0,0-2.908-1.973,3.748,3.748,0,0,0-3.783,3.925,3.748,3.748,0,0,0,3.783,3.927,3.259,3.259,0,0,0,2.908-1.973l3.011,1.423a6.3,6.3,0,0,1-5.919,3.643C-434.7,344.2-437.877,341.356-437.877,337.184Z" transform="translate(476.883 -330.166)"/>
    <path id="Path_112" data-name="Path 112" d="M-423.569,343.831l-3.559-5.105-.914,1.138v3.967h-3.5V330.262h3.5v5.574l4.17-5.574h4.312l-5.269,6.348,5.553,7.22Z" transform="translate(485.322 -330.038)"/>
    <path id="Path_113" data-name="Path 113" d="M-426.517,337.184c0-4.189,3.172-7.018,7.342-7.018a6.263,6.263,0,0,1,5.922,3.643l-3.011,1.423a3.26,3.26,0,0,0-2.911-1.973,3.749,3.749,0,0,0-3.783,3.925,3.75,3.75,0,0,0,3.783,3.927,3.26,3.26,0,0,0,2.911-1.973l3.011,1.423a6.3,6.3,0,0,1-5.922,3.643C-423.345,344.2-426.517,341.356-426.517,337.184Z" transform="translate(492.017 -330.166)"/>
    <path id="Path_114" data-name="Path 114" d="M-411.05,343.831v-5.45h-5.635v5.45h-3.5V330.262h3.5v5.066h5.635v-5.066h3.5v13.569Z" transform="translate(500.456 -330.038)"/>
    <path id="Path_115" data-name="Path 115" d="M-403.677,343.831l-.672-1.952h-5.35l-.672,1.952h-3.967l5.108-13.569h4.394l5.126,13.569Zm-3.356-10.11-1.73,5.108h3.459Z" transform="translate(508.243 -330.038)"/>
    <path id="Path_116" data-name="Path 116" d="M-407.637,343.831V330.262h3.5v13.569Z" transform="translate(517.17 -330.038)"/>
    <path id="Path_117" data-name="Path 117" d="M-395.854,343.831l-5.735-7.852v7.852h-3.5V330.262h3.6l5.492,7.465v-7.465h3.519v13.569Z" transform="translate(520.563 -330.038)"/>
  </g>
</svg>
