<?xml version="1.0" encoding="utf-8"?>
<!-- Generator: Adobe Illustrator 26.3.1, SVG Export Plug-In . SVG Version: 6.00 Build 0)  -->
<svg version="1.1" id="katman_1" xmlns="http://www.w3.org/2000/svg" xmlns:xlink="http://www.w3.org/1999/xlink" x="0px" y="0px"
	 viewBox="0 0 300 100" style="enable-background:new 0 0 300 100;" xml:space="preserve">
<style type="text/css">
	.st0{fill:url(#Path_1773_00000104666572947496858680000005081840624475174280_);}
	.st1{fill:url(#Path_1774_00000060012093879725454140000014220259972219479995_);}
	.st2{fill:url(#Path_1771_00000001666065557222838880000000263739849699421858_);}
	.st3{fill:url(#Path_1772_00000137814075234946456580000011739814221863841467_);}
	.st4{fill:url(#Path_1774-2_00000139267940759289368610000002770260983609899425_);}
	.st5{fill:url(#Path_1773-2_00000044155572173983585730000008318342707865962632_);}
	.st6{fill:url(#Path_1770_00000064345245246374133240000014972527483992853170_);}
</style>
<g id="Group_272" transform="translate(0)">
	<g id="Group_270">
		<g id="Group_268" transform="translate(15.486 0.002)">
			
				<linearGradient id="Path_1773_00000002374380661026031920000000241303565549026735_" gradientUnits="userSpaceOnUse" x1="14.6246" y1="42.0534" x2="14.6116" y2="42.0834" gradientTransform="matrix(15.4 0 0 -12.99 224.0863 1317.572)">
				<stop  offset="0" style="stop-color:#88C508"/>
				<stop  offset="1" style="stop-color:#86BE13"/>
			</linearGradient>
			<path id="Path_1773" style="fill:url(#Path_1773_00000002374380661026031920000000241303565549026735_);" d="M74.1,37.4l8.1,4.7
				v8.3l-15.4-9L74.1,37.4z"/>
			
				<linearGradient id="Path_1774_00000042711245224990275020000008620999092380967579_" gradientUnits="userSpaceOnUse" x1="-6.0112" y1="14.6916" x2="-6.0112" y2="14.7786" gradientTransform="matrix(8.251 0 0 -9.52 127.7551 962.4999)">
				<stop  offset="0" style="stop-color:#F8D41A"/>
				<stop  offset="1" style="stop-color:#F8BD19"/>
			</linearGradient>
			<path id="Path_1774" style="fill:url(#Path_1774_00000042711245224990275020000008620999092380967579_);" d="M82.3,32.8l-0.1,9.5
				L74,37.5L82.3,32.8z"/>
		</g>
		
			<linearGradient id="Path_1771_00000021840103825607309470000014591480228292912569_" gradientUnits="userSpaceOnUse" x1="5.7708" y1="48.4293" x2="5.7708" y2="48.4533" gradientTransform="matrix(15.407 0 0 -17.528 -14.328 1788.6055)">
			<stop  offset="0" style="stop-color:#138CE7"/>
			<stop  offset="1" style="stop-color:#0F86E0"/>
		</linearGradient>
		<path id="Path_1771" style="fill:url(#Path_1771_00000021840103825607309470000014591480228292912569_);" d="M66.9,50.1l15.4,8.6
			v9l-15.4-8.7L66.9,50.1z"/>
		
			<linearGradient id="Path_1772_00000025436357871232185510000003203201068901921202_" gradientUnits="userSpaceOnUse" x1="5.7708" y1="48.353" x2="5.7708" y2="48.377" gradientTransform="matrix(15.407 0 0 -17.506 1.081 1786.4122)">
			<stop  offset="0" style="stop-color:#1DB3F3"/>
			<stop  offset="1" style="stop-color:#1DB3F3"/>
		</linearGradient>
		<path id="Path_1772" style="fill:url(#Path_1772_00000025436357871232185510000003203201068901921202_);" d="M97.7,50.1l-15.4,8.5
			v9l15.4-8.7L97.7,50.1z"/>
		<g id="Group_269">
			
				<linearGradient id="Path_1774-2_00000036953010681191173250000000802690523702193851_" gradientUnits="userSpaceOnUse" x1="9.4768" y1="19.4343" x2="9.4768" y2="19.3473" gradientTransform="matrix(8.249 0 0 -9.522 -7.249 962.7223)">
				<stop  offset="0" style="stop-color:#F8D41A"/>
				<stop  offset="1" style="stop-color:#F8BD19"/>
			</linearGradient>
			<path id="Path_1774-2" style="fill:url(#Path_1774-2_00000036953010681191173250000000802690523702193851_);" d="M66.8,32.8
				l0.1,9.5l8.2-4.8L66.8,32.8z"/>
			
				<linearGradient id="Path_1773-2_00000088131977803509437050000002153657583026592651_" gradientUnits="userSpaceOnUse" x1="-19.7034" y1="35.4778" x2="-19.6904" y2="35.5098" gradientTransform="matrix(15.435 0 0 -12.715 -14.356 1289.8257)">
				<stop  offset="0" style="stop-color:#88C508"/>
				<stop  offset="1" style="stop-color:#86BE13"/>
			</linearGradient>
			<path id="Path_1773-2" style="fill:url(#Path_1773-2_00000088131977803509437050000002153657583026592651_);" d="M74.9,37.4
				l-8.1,4.7v8l15.4-8.7L74.9,37.4z"/>
		</g>
		
			<linearGradient id="Path_1770_00000091001957734716120680000011088655878783803276_" gradientUnits="userSpaceOnUse" x1="-17.0158" y1="63.846" x2="-16.9998" y2="63.873" gradientTransform="matrix(30.811 0 0 -17.594 -29.729 1786.5714)">
			<stop  offset="0" style="stop-color:#1DB2F2"/>
			<stop  offset="1" style="stop-color:#1D97F2"/>
		</linearGradient>
		<path id="Path_1770" style="fill:url(#Path_1770_00000091001957734716120680000011088655878783803276_);" d="M82.3,41.4l15.4,8.7
			L82.3,59l-15.4-8.8L82.3,41.4z"/>
	</g>
	<g id="Group_271" transform="translate(39.489 4.51)">
		<path id="Path_1775" d="M66.8,33c2.1-0.1,4.2,0,6.3,0.1c2.4,0.2,4.3,2.3,4.3,4.7c0.1,0.9,0.1,1.8,0,2.7c0,1.2-0.7,2.4-1.7,3
			c-0.1,0.1-0.2,0.2-0.4,0.3c1.7,0.9,2.2,2.4,2.2,4.1c0,1,0,2-0.1,3c-0.4,3.2-2.3,4.8-5.6,4.9c-1.7,0-3.3,0-5,0L66.8,33z M70.1,52.6
			c0.7,0,1.3,0,1.9,0c1.2,0.1,2.2-0.9,2.3-2.1c0,0,0,0,0,0v-0.1c0.1-1,0.1-2,0-3c0-0.8-0.4-1.5-1.1-1.9c-1-0.3-2-0.4-3-0.3
			L70.1,52.6z M70.1,36.1v6.2c0.1,0,0.3,0,0.4,0c0.6,0,1.2,0,1.7,0c1,0,1.8-0.7,1.9-1.7c0.2-0.8,0.2-1.7,0.1-2.6c0-1.1-0.9-1.9-2-2
			C71.6,36.1,70.9,36.1,70.1,36.1L70.1,36.1z"/>
		<path id="Path_1776" d="M95.9,56.2c-0.2-0.1-0.4-0.1-0.6-0.2c-2.5-0.4-4.3-2.6-4.3-5.2c-0.1-4.3-0.1-8.5,0-12.8
			c0-2.6,1.9-4.8,4.4-5.2c0.1,0,0.2-0.1,0.3-0.1h1.6c0.1,0,0.2,0.1,0.4,0.1c2.5,0.5,4.3,2.6,4.3,5.2c0,4.3,0,8.5,0,12.8
			c0,2-1.2,3.9-3,4.7c-0.6,0.2-1.3,0.5-1.9,0.6H95.9z M98.7,44.4v-6c0.1-0.7-0.2-1.4-0.7-1.8c-0.7-0.6-1.7-0.7-2.5-0.3
			c-0.8,0.3-1.3,1.1-1.2,2v9.8c0,0.9,0,1.8,0,2.8c0,0.8,0.4,1.5,1.1,1.8c1.1,0.6,2.4,0.2,3-0.9c0,0,0,0,0,0c0.2-0.4,0.3-0.8,0.3-1.2
			C98.8,48.5,98.7,46.5,98.7,44.4L98.7,44.4z"/>
		<path id="Path_1777" d="M174.9,56.2c-0.4-0.1-0.7-0.2-1.1-0.3c-2.3-0.6-3.9-2.7-3.9-5.1c0-4.2,0-8.4,0-12.7c0-2.5,1.7-4.7,4.1-5.2
			c0.2,0,0.3-0.1,0.5-0.2h1.7c0.1,0,0.2,0.1,0.3,0.1c2.6,0.4,4.5,2.7,4.4,5.4c0,4.1,0,8.2,0,12.4c0.1,2-1,3.9-2.8,4.8
			c-0.7,0.3-1.5,0.6-2.3,0.8L174.9,56.2z M177.7,44.5L177.7,44.5c0-2.1,0-4.1,0-6.2c0-1.2-0.9-2.1-2-2.2c0,0-0.1,0-0.1,0
			c-1.2-0.1-2.2,0.7-2.3,1.9c0,0,0,0,0,0c0,0,0,0.1,0,0.1c0,0.3,0,0.5,0,0.8v11.2c0,0.4,0,0.8,0.1,1.1c0.1,0.6,0.5,1.2,1.1,1.4
			c1.1,0.6,2.4,0.2,3-0.9c0.2-0.4,0.3-0.7,0.3-1.1C177.7,48.5,177.7,46.5,177.7,44.5L177.7,44.5z"/>
		<path id="Path_1778" d="M110.4,32.8c1,0.2,1.8,0.6,2.6,1.3c1.1,1,1.7,2.5,1.8,4c0,0.5,0,1,0,1.5h-3.3c0-0.5,0-0.9,0-1.4
			c0-1.1-0.9-2.1-2-2.1c-0.1,0-0.3,0-0.4,0c-0.7,0-1.2,0.5-1.4,1.1c-0.1,0.5-0.2,1-0.2,1.5c0,3.9,0,7.8,0,11.7c0,0.3,0,0.5,0.1,0.8
			c0,1,0.9,1.7,1.8,1.7c0,0,0,0,0,0c0.1,0,0.1,0,0.2,0c1,0,1.9-0.8,1.9-1.8c0-0.5,0-1,0-1.6h3.2c0.6,2.4-0.5,4.9-2.7,6.1
			c-0.6,0.3-1.3,0.5-1.9,0.7h-1.1c-0.5-0.1-1.1-0.2-1.6-0.4c-2.1-0.8-3.4-2.8-3.2-5c0-4.3,0-8.5,0-12.8c-0.1-2.6,1.7-4.8,4.3-5.2
			c0.1,0,0.1-0.1,0.2-0.1L110.4,32.8z"/>
		<path id="Path_1779" d="M133,42.4v13.6h-3.3V33c1,0,2,0,2.9,0c0.1,0,0.3,0.3,0.4,0.5c0.9,2.6,1.8,5.1,2.8,7.7
			c0.7,1.8,1.3,3.6,2.1,5.4V33h3.3v22.9c-1,0-1.9,0-2.9,0c-0.1,0-0.2-0.2-0.3-0.4c-1.6-4.3-3.1-8.5-4.7-12.8c0-0.1-0.1-0.2-0.1-0.4
			L133,42.4z"/>
		<path id="Path_1780" d="M116.8,33h3.2v10.3l0.1,0c0.4-0.9,0.8-1.7,1.2-2.6c1.1-2.4,2.2-4.8,3.3-7.3c0.1-0.3,0.4-0.5,0.8-0.5
			c0.9,0,1.8,0,2.7,0c-0.4,0.9-0.8,1.6-1.2,2.4c-1,2.1-2,4.2-3.1,6.2c-0.2,0.3-0.2,0.7,0,1.1c1.6,4.2,3.2,8.3,4.8,12.5
			c0.1,0.2,0.2,0.4,0.3,0.7c-1.1,0-2.2,0-3.3,0c-0.1,0-0.3-0.3-0.4-0.4c-1.1-3-2.2-6-3.3-9.1c-0.1-0.2-0.1-0.3-0.3-0.6
			c-0.4,0.8-0.7,1.4-1.1,2.1c-0.5,0.8-0.7,1.7-0.6,2.6c0.1,1.6,0,3.2,0,4.8v0.6h-3.3L116.8,33z"/>
		<path id="Path_1781" d="M147.1,33c0.9,0,1.7,0,2.5,0c0.1,0,0.3,0.3,0.3,0.4c1,4.5,2,8.9,3,13.4c0.6,2.8,1.3,5.7,1.9,8.5
			c0,0.2,0.1,0.3,0.1,0.5h-3.3l-1-4.9c-1.4,0-2.8,0-4.2,0c-0.1,0-0.3,0.3-0.3,0.4c-0.3,1.4-0.5,2.7-0.8,4.1c0,0.1-0.2,0.4-0.4,0.4
			c-1,0-2,0-3,0L147.1,33z M150.1,47.9l-1.6-8.1l-0.1,0l-1.6,8.1L150.1,47.9z"/>
		<path id="Path_1782" d="M156.4,36.1h-3.8v-3h10.9v3h-3.8v19.9h-3.3L156.4,36.1z"/>
		<path id="Path_1783" d="M164.4,55.9V33h3.2v22.9L164.4,55.9z"/>
		<path id="Path_1784" d="M83.2,52.7h6.5v3.2h-9.7V33h3.3V52.7z"/>
		<path id="Path_1785" d="M191.3,33h3.3v22.9h-3.1l-5-13.6l-0.1,0v13.6h-3.3V33c1,0,1.9,0,2.9,0c0.2,0,0.4,0.3,0.4,0.5
			c1.1,2.9,2.1,5.8,3.1,8.7c0.5,1.3,0.9,2.6,1.4,4c0.1,0.2,0.2,0.3,0.3,0.5L191.3,33z"/>
	</g>
</g>
</svg>
