<svg xmlns="http://www.w3.org/2000/svg" xmlns:xlink="http://www.w3.org/1999/xlink" width="167.255" height="34.811" viewBox="0 0 167.255 34.811">
  <defs>
    <linearGradient id="linear-gradient" x1="-5.728" y1="69.743" x2="-5.741" y2="69.713" gradientUnits="objectBoundingBox">
      <stop offset="0" stop-color="#88c508"/>
      <stop offset="1" stop-color="#86be13"/>
    </linearGradient>
    <linearGradient id="linear-gradient-2" x1="-19.356" y1="82.967" x2="-19.356" y2="82.88" gradientUnits="objectBoundingBox">
      <stop offset="0" stop-color="#f8d41a"/>
      <stop offset="1" stop-color="#f8bd19"/>
    </linearGradient>
    <linearGradient id="linear-gradient-3" x1="-4.643" y1="50.757" x2="-4.643" y2="50.733" gradientUnits="objectBoundingBox">
      <stop offset="0" stop-color="#138ce7"/>
      <stop offset="1" stop-color="#0f86e0"/>
    </linearGradient>
    <linearGradient id="linear-gradient-4" x1="-5.74" y1="50.831" x2="-5.74" y2="50.807" gradientUnits="objectBoundingBox">
      <stop offset="0" stop-color="#1db3f3"/>
      <stop offset="1" stop-color="#1db3f3"/>
    </linearGradient>
    <linearGradient id="linear-gradient-5" x1="27.235" y1="78.227" x2="27.235" y2="78.314" xlink:href="#linear-gradient-2"/>
    <linearGradient id="linear-gradient-6" x1="-4.633" y1="71.283" x2="-4.62" y2="71.251" xlink:href="#linear-gradient"/>
    <linearGradient id="linear-gradient-7" x1="-0.502" y1="46.991" x2="-0.486" y2="46.964" gradientUnits="objectBoundingBox">
      <stop offset="0" stop-color="#1db2f2"/>
      <stop offset="1" stop-color="#1d97f2"/>
    </linearGradient>
  </defs>
  <g id="Group_272" data-name="Group 272" transform="translate(0)">
    <g id="Group_270" data-name="Group 270">
      <g id="Group_268" data-name="Group 268" transform="translate(15.486 0.002)">
        <path id="Path_1773" data-name="Path 1773" d="M-353.3,326.94l8.053,4.676v8.314l-15.4-8.951Z" transform="translate(360.649 -322.331)" fill="url(#linear-gradient)"/>
        <path id="Path_1774" data-name="Path 1774" d="M-349.3,324.964l-.077,9.52-8.174-4.835Z" transform="translate(364.782 -324.964)" fill="url(#linear-gradient-2)"/>
      </g>
      <path id="Path_1771" data-name="Path 1771" d="M-367.255,332.372l15.407,8.569V349.9l-15.4-8.7Z" transform="translate(367.334 -315.093)" fill="url(#linear-gradient-3)"/>
      <path id="Path_1772" data-name="Path 1772" d="M-345.247,332.383l-15.4,8.543v8.963l15.407-8.7Z" transform="translate(376.135 -315.078)" fill="url(#linear-gradient-4)"/>
      <g id="Group_269" data-name="Group 269">
        <path id="Path_1774-2" data-name="Path 1774-2" d="M-367.289,324.963l.079,9.522,8.17-4.835Z" transform="translate(367.289 -324.963)" fill="url(#linear-gradient-5)"/>
        <path id="Path_1773-2" data-name="Path 1773-2" d="M-359.2,326.94l-8.055,4.676v8.039l15.435-8.748Z" transform="translate(367.334 -322.329)" fill="url(#linear-gradient-6)"/>
      </g>
      <path id="Path_1770" data-name="Path 1770" d="M-351.821,328.641l15.381,8.748-15.411,8.846-15.4-8.849Z" transform="translate(367.333 -320.063)" fill="url(#linear-gradient-7)"/>
    </g>
    <g id="Group_271" data-name="Group 271" transform="translate(39.489 4.51)">
      <path id="Path_1775" data-name="Path 1775" d="M-350.348,327.011a62.593,62.593,0,0,1,6.274.131,4.828,4.828,0,0,1,4.336,4.718,18.016,18.016,0,0,1,0,2.7,3.736,3.736,0,0,1-1.747,3.025c-.126.082-.243.177-.415.3,1.712.872,2.171,2.379,2.2,4.091a20.75,20.75,0,0,1-.075,3.046c-.434,3.219-2.283,4.828-5.56,4.9-1.672.04-3.347.012-5.019.014Zm3.328,19.614c.667,0,1.264.03,1.856,0a2.21,2.21,0,0,0,2.3-2.12l0-.058a22.35,22.35,0,0,0,0-2.985,1.96,1.96,0,0,0-1.119-1.87,7.49,7.49,0,0,0-3.041-.266Zm.009-16.5v6.22c.149.012.261.03.373.03.576-.007,1.157.012,1.73-.035a1.875,1.875,0,0,0,1.929-1.658,9.2,9.2,0,0,0,.093-2.568,2.063,2.063,0,0,0-1.982-1.982c-.686-.063-1.383-.007-2.146-.007Z" transform="translate(350.357 -326.78)"/>
      <path id="Path_1776" data-name="Path 1776" d="M-335.029,350.289c-.2-.051-.4-.11-.6-.154a5.263,5.263,0,0,1-4.333-5.173q-.084-6.384,0-12.774A5.233,5.233,0,0,1-335.524,327a2.113,2.113,0,0,0,.264-.1h1.616a3.847,3.847,0,0,0,.376.117,5.288,5.288,0,0,1,4.345,5.171c.03,4.261.044,8.524-.007,12.785a4.976,4.976,0,0,1-3.044,4.7,15.171,15.171,0,0,1-1.9.616Zm2.806-11.754v-5.991a2.134,2.134,0,0,0-.749-1.845,2.335,2.335,0,0,0-2.5-.287,1.97,1.97,0,0,0-1.194,2V342.2c0,.924-.012,1.845.016,2.766a1.853,1.853,0,0,0,1.15,1.775,2.2,2.2,0,0,0,3-.863,2.185,2.185,0,0,0,.273-1.173c.028-2.064.009-4.116.009-6.171Z" transform="translate(364.15 -326.897)"/>
      <path id="Path_1777" data-name="Path 1777" d="M-301.145,350.288c-.368-.091-.739-.166-1.1-.275a5.253,5.253,0,0,1-3.862-5.077q-.042-6.332,0-12.664a5.268,5.268,0,0,1,4.14-5.215c.168-.042.319-.1.48-.159h1.73a1.484,1.484,0,0,0,.261.1,5.253,5.253,0,0,1,4.431,5.383c.035,4.123.026,8.249,0,12.375a5.04,5.04,0,0,1-2.771,4.762,14.676,14.676,0,0,1-2.269.767Zm2.778-11.724h0c0-2.073.019-4.149,0-6.222a2.1,2.1,0,0,0-2.041-2.155.914.914,0,0,0-.112,0,2.093,2.093,0,0,0-2.274,1.9.917.917,0,0,0-.007.112c-.026.268-.033.536-.033.8V344.18a7,7,0,0,0,.082,1.147,1.8,1.8,0,0,0,1.126,1.423,2.226,2.226,0,0,0,3-.928,2.261,2.261,0,0,0,.254-1.148C-298.351,342.636-298.367,340.6-298.367,338.564Z" transform="translate(409.276 -326.896)"/>
      <path id="Path_1778" data-name="Path 1778" d="M-328.065,326.9a6.019,6.019,0,0,1,2.6,1.266,5.744,5.744,0,0,1,1.766,4c.028.476,0,.954,0,1.469h-3.328c0-.478.028-.935,0-1.39a2.051,2.051,0,0,0-2.034-2.066,1.973,1.973,0,0,0-.422.04,1.458,1.458,0,0,0-1.36,1.138,6.266,6.266,0,0,0-.217,1.469c-.019,3.9-.012,7.794-.007,11.691a4.365,4.365,0,0,0,.058.8,1.745,1.745,0,0,0,1.828,1.66,1.7,1.7,0,0,0,.217-.023,1.933,1.933,0,0,0,1.926-1.843c.047-.511.009-1.029.009-1.577h3.228a5.521,5.521,0,0,1-2.684,6.059,12.942,12.942,0,0,1-1.929.695h-1.147c-.536-.131-1.082-.219-1.6-.4a4.9,4.9,0,0,1-3.2-4.961q-.045-6.385,0-12.774a5.034,5.034,0,0,1,4.263-5.164,1.042,1.042,0,0,0,.2-.1Z" transform="translate(371.624 -326.897)"/>
      <path id="Path_1779" data-name="Path 1779" d="M-320.12,336.362v13.553h-3.265v-22.93c.991,0,1.95-.019,2.906.021.142,0,.333.273.4.455.933,2.556,1.849,5.122,2.771,7.682.655,1.819,1.313,3.636,2.064,5.448V327.029h3.309v22.914c-.968,0-1.94.012-2.913-.021-.107,0-.25-.25-.3-.415q-2.354-6.395-4.693-12.8c-.044-.121-.1-.24-.145-.362Z" transform="translate(386.29 -326.786)"/>
      <path id="Path_1780" data-name="Path 1780" d="M-328.934,327.018h3.246V337.27l.142.04c.4-.854.8-1.7,1.187-2.561,1.112-2.421,2.232-4.842,3.328-7.27a.713.713,0,0,1,.779-.5c.882.033,1.768.009,2.747.009-.417.856-.791,1.644-1.173,2.428-1.017,2.087-2.027,4.177-3.069,6.25a1.2,1.2,0,0,0-.026,1.082q2.431,6.241,4.844,12.489c.084.212.161.425.268.714-1.141,0-2.211.016-3.279-.019-.126,0-.3-.256-.359-.424q-1.686-4.527-3.347-9.063c-.065-.173-.138-.345-.254-.639-.417.753-.749,1.432-1.145,2.069a4.327,4.327,0,0,0-.637,2.563c.056,1.612.014,3.225.014,4.839v.648h-3.26Z" transform="translate(378.897 -326.794)"/>
      <path id="Path_1781" data-name="Path 1781" d="M-312.977,326.985c.851,0,1.677-.019,2.5.019.126.007.308.254.343.418q1.522,6.7,3.013,13.408.952,4.264,1.912,8.529c.037.166.063.336.1.55h-3.27l-.979-4.9c-1.432,0-2.834-.012-4.235.019-.114,0-.292.259-.327.422-.289,1.369-.543,2.745-.833,4.114-.03.147-.229.368-.357.373-.977.03-1.957.016-3,.016Zm3,14.887-1.574-8.093-.131-.007-1.581,8.1Z" transform="translate(393.313 -326.786)"/>
      <path id="Path_1782" data-name="Path 1782" d="M-309.775,330.021h-3.815V327H-302.7v3.023h-3.757v19.866h-3.314Z" transform="translate(399.339 -326.758)"/>
      <path id="Path_1783" data-name="Path 1783" d="M-308.527,349.878V327h3.232v22.882Z" transform="translate(406.084 -326.765)"/>
      <path id="Path_1784" data-name="Path 1784" d="M-341.47,346.644h6.491v3.23h-9.749V327h3.258Z" transform="translate(357.856 -326.757)"/>
      <path id="Path_1785" data-name="Path 1785" d="M-292.3,327.011h3.258v22.9h-3.079l-4.982-13.623-.112.026v13.6h-3.267V326.985c.982,0,1.94-.023,2.894.023.152.007.35.3.424.5q1.585,4.348,3.142,8.709.707,1.973,1.413,3.951a1.164,1.164,0,0,0,.3.476Z" transform="translate(416.806 -326.787)"/>
    </g>
  </g>
</svg>
