<?xml version="1.0" encoding="utf-8"?>
<!-- Generator: Adobe Illustrator 26.3.1, SVG Export Plug-In . SVG Version: 6.00 Build 0)  -->
<svg version="1.1" id="Group_87" xmlns="http://www.w3.org/2000/svg" xmlns:xlink="http://www.w3.org/1999/xlink" x="0px" y="0px"
	 viewBox="0 0 166 28.4" style="enable-background:new 0 0 166 28.4;" xml:space="preserve">
<style type="text/css">
	.st0{fill:#00AEE6;}
	.st1{fill:#123962;}
	.st2{fill:#B1D4E5;}
	.st3{fill:#2754BA;}
	.st4{fill:#799EB2;}
	.st5{fill:#2666B0;}
</style>
<g id="PIN">
	<g id="logo">
		<g id="Layer_2">
			<g id="Group_85">
				<g id="Layer_1-2">
					<path id="Shape" class="st0" d="M10.5,14.2l-5.9,5.9l7.4,7.4c1.2,1.2,3.1,1.2,4.3,0l7.4-7.4l-5.9-5.9l-3.6-3.7L10.5,14.2z"/>
					<path id="Shape-2" class="st1" d="M4.6,8.3L0.9,12c-1.2,1.2-1.2,3.1,0,4.3c0,0,0,0,0,0l3.8,3.7l5.9-5.9l3.7-3.7L8.3,4.6
						L4.6,8.3z"/>
					<path id="Shape-3" class="st2" d="M20.1,16.4l3.7,3.7l3.7-3.7c1.2-1.2,1.2-3.1,0-4.3L26,10.5L20.1,16.4z"/>
					<path id="Shape-4" class="st2" d="M17.9,14.2L17.9,14.2l-3.7-3.7l5.9-5.9l0,0l-5.9,5.9L17.9,14.2z"/>
					<path id="Shape-5" class="st3" d="M14.2,10.5l3.7,3.7l2.2,2.2l5.9-5.9l-2.2-2.2l-3.7-3.7L14.2,10.5z"/>
					<path id="Shape-6" class="st4" d="M20.1,4.6l-3.7-3.8c-1.2-1.2-3.1-1.2-4.3,0L8.3,4.6l5.9,5.9L20.1,4.6z"/>
				</g>
			</g>
		</g>
	</g>
</g>
<g id="Group_86" transform="translate(37.944 6.786)">
	<path id="Path_108" class="st5" d="M0,13.8V0.2h7.7c2.7,0,4,1.8,4,3.5c0.1,1.5-0.9,2.8-2.3,3.1c1.6,0.3,2.7,1.7,2.6,3.3
		c0,2-1.3,3.7-4,3.7L0,13.8z M8.1,4.3c0-0.6-0.5-1.1-1.1-1.1c0,0-0.1,0-0.1,0H3.5v2.3h3.4c0.6,0,1.1-0.4,1.2-1
		C8.1,4.4,8.1,4.3,8.1,4.3L8.1,4.3z M8.4,9.6c0-0.7-0.5-1.2-1.2-1.2c0,0-0.1,0-0.1,0H3.5v2.4H7c0.7,0.1,1.3-0.4,1.3-1.1
		C8.4,9.7,8.4,9.7,8.4,9.6L8.4,9.6z"/>
	<path id="Path_109" class="st5" d="M13.8,13.8V0.2h3.5v10.5h5.5v3.1H13.8z"/>
	<path id="Path_110" class="st5" d="M23.4,7c-0.1-3.8,3-7,6.8-7c0.2,0,0.3,0,0.5,0c3.8-0.2,7,2.7,7.2,6.5c0,0.2,0,0.3,0,0.5
		c0.1,3.8-2.9,7-6.7,7c-0.2,0-0.3,0-0.5,0c-3.8,0.2-7.1-2.7-7.3-6.5C23.4,7.3,23.4,7.2,23.4,7z M34.4,7C34.5,5,33,3.3,31,3.1
		c-0.1,0-0.2,0-0.3,0c-2,0-3.7,1.6-3.7,3.6c0,0.1,0,0.2,0,0.3c-0.1,2,1.4,3.8,3.4,3.9c0.1,0,0.2,0,0.3,0c2,0,3.7-1.6,3.7-3.6
		C34.4,7.2,34.4,7.1,34.4,7z"/>
	<path id="Path_111" class="st5" d="M39,7c0-4.2,3.2-7,7.3-7c2.5-0.1,4.9,1.3,5.9,3.6l-3,1.4c-0.5-1.2-1.6-1.9-2.9-2
		c-2.1,0-3.8,1.6-3.8,3.7c0,0.1,0,0.1,0,0.2c-0.1,2.1,1.5,3.8,3.6,3.9c0.1,0,0.1,0,0.2,0c1.3,0,2.4-0.8,2.9-2l3,1.4
		c-1.1,2.3-3.4,3.7-5.9,3.6C42.2,14,39,11.2,39,7z"/>
	<path id="Path_112" class="st5" d="M61.8,13.8l-3.6-5.1l-0.9,1.1v4h-3.5V0.2h3.5v5.6l4.2-5.6h4.3l-5.3,6.3l5.6,7.2L61.8,13.8z"/>
	<path id="Path_113" class="st5" d="M65.5,7c0-4.2,3.2-7,7.3-7c2.5-0.1,4.9,1.3,5.9,3.6l-3,1.4c-0.5-1.2-1.6-1.9-2.9-2
		c-2.1,0-3.8,1.6-3.8,3.7c0,0.1,0,0.1,0,0.2c-0.1,2.1,1.5,3.8,3.6,3.9c0.1,0,0.1,0,0.2,0c1.3,0,2.4-0.8,2.9-2l3,1.4
		c-1.1,2.3-3.4,3.7-5.9,3.6C68.7,14,65.5,11.2,65.5,7z"/>
	<path id="Path_114" class="st5" d="M89.4,13.8V8.3h-5.6v5.5h-3.5V0.2h3.5v5.1h5.6V0.2h3.5v13.6H89.4z"/>
	<path id="Path_115" class="st5" d="M104.6,13.8l-0.7-2h-5.4l-0.7,2h-4L99,0.2h4.4l5.1,13.6H104.6z M101.2,3.7l-1.7,5.1h3.5
		L101.2,3.7z"/>
	<path id="Path_116" class="st5" d="M109.5,13.8V0.2h3.5v13.6H109.5z"/>
	<path id="Path_117" class="st5" d="M124.7,13.8L119,5.9v7.9h-3.5V0.2h3.6l5.5,7.5V0.2h3.5v13.6H124.7z"/>
</g>
</svg>
