<?xml version="1.0" encoding="utf-8"?>
<!-- Generator: Adobe Illustrator 26.3.1, SVG Export Plug-In . SVG Version: 6.00 Build 0)  -->
<svg version="1.1" id="katman_1" xmlns="http://www.w3.org/2000/svg" xmlns:xlink="http://www.w3.org/1999/xlink" x="0px" y="0px"
	 viewBox="0 0 167.3 34.8" style="enable-background:new 0 0 167.3 34.8;" xml:space="preserve">
<style type="text/css">
	.st0{fill:url(#Path_1773_00000013899878093774582970000006047220620535679375_);}
	.st1{fill:url(#Path_1774_00000062899475670608977270000007606915070222818979_);}
	.st2{fill:url(#Path_1771_00000134970857255933126600000006511947221352850872_);}
	.st3{fill:url(#Path_1772_00000003071107287387441160000008772386169220450951_);}
	.st4{fill:url(#Path_1774-2_00000103985238959751724950000010643311399150281628_);}
	.st5{fill:url(#Path_1773-2_00000124849321715516827170000014617895475661786533_);}
	.st6{fill:url(#Path_1770_00000000219765474410586380000015217695007487778987_);}
	.st7{fill:#2666B0;}
</style>
<g id="Group_272" transform="translate(0)">
	<g id="Group_270">
		<g id="Group_268" transform="translate(15.486 0.002)">
			
				<linearGradient id="Path_1773_00000027562819104558101910000015873955896571194022_" gradientUnits="userSpaceOnUse" x1="-51.4274" y1="9.0373" x2="-51.4404" y2="9.0673" gradientTransform="matrix(15.4 0 0 -12.99 1174.486 855.9023)">
				<stop  offset="0" style="stop-color:#88C508"/>
				<stop  offset="1" style="stop-color:#86BE13"/>
			</linearGradient>
			<path id="Path_1773" style="fill:url(#Path_1773_00000027562819104558101910000015873955896571194022_);" d="M7.3,4.6l8.1,4.7
				v8.3L0,8.6L7.3,4.6z"/>
			
				<linearGradient id="Path_1774_00000021839467851939154710000002424650622929564060_" gradientUnits="userSpaceOnUse" x1="-72.1082" y1="-18.3304" x2="-72.1082" y2="-18.2433" gradientTransform="matrix(8.251 0 0 -9.52 606.3216 615.3402)">
				<stop  offset="0" style="stop-color:#F8D41A"/>
				<stop  offset="1" style="stop-color:#F8BD19"/>
			</linearGradient>
			<path id="Path_1774" style="fill:url(#Path_1774_00000021839467851939154710000002424650622929564060_);" d="M15.5,0l-0.1,9.5
				L7.2,4.7L15.5,0z"/>
		</g>
		
			<linearGradient id="Path_1771_00000116928387348685036890000004772372378606594742_" gradientUnits="userSpaceOnUse" x1="-60.2811" y1="15.4173" x2="-60.2811" y2="15.4413" gradientTransform="matrix(15.407 0 0 -17.528 936.5349 1177.182)">
			<stop  offset="0" style="stop-color:#138CE7"/>
			<stop  offset="1" style="stop-color:#0F86E0"/>
		</linearGradient>
		<path id="Path_1771" style="fill:url(#Path_1771_00000116928387348685036890000004772372378606594742_);" d="M0.1,17.3l15.4,8.6v9
			L0.1,26.1L0.1,17.3z"/>
		
			<linearGradient id="Path_1772_00000018959178427540460260000010844204562372707480_" gradientUnits="userSpaceOnUse" x1="-60.2811" y1="15.3411" x2="-60.2811" y2="15.3651" gradientTransform="matrix(15.407 0 0 -17.506 951.9438 1175.7139)">
			<stop  offset="0" style="stop-color:#1DB3F3"/>
			<stop  offset="1" style="stop-color:#1DB3F3"/>
		</linearGradient>
		<path id="Path_1772" style="fill:url(#Path_1772_00000018959178427540460260000010844204562372707480_);" d="M30.9,17.3l-15.4,8.5
			v9l15.4-8.7L30.9,17.3z"/>
		<g id="Group_269">
			
				<linearGradient id="Path_1774-2_00000173849215651977700600000013945200091192269960_" gradientUnits="userSpaceOnUse" x1="-56.6203" y1="-13.5876" x2="-56.6203" y2="-13.6746" gradientTransform="matrix(8.249 0 0 -9.522 471.1865 615.4962)">
				<stop  offset="0" style="stop-color:#F8D41A"/>
				<stop  offset="1" style="stop-color:#F8BD19"/>
			</linearGradient>
			<path id="Path_1774-2" style="fill:url(#Path_1774-2_00000173849215651977700600000013945200091192269960_);" d="M0,0l0.1,9.5
				l8.2-4.8L0,0z"/>
			
				<linearGradient id="Path_1773-2_00000006699961381704919980000007639487078969466496_" gradientUnits="userSpaceOnUse" x1="-85.7552" y1="2.4614" x2="-85.7422" y2="2.4934" gradientTransform="matrix(15.435 0 0 -12.715 938.3539 837.2307)">
				<stop  offset="0" style="stop-color:#88C508"/>
				<stop  offset="1" style="stop-color:#86BE13"/>
			</linearGradient>
			<path id="Path_1773-2" style="fill:url(#Path_1773-2_00000006699961381704919980000007639487078969466496_);" d="M8.1,4.6
				L0.1,9.3v8l15.4-8.7L8.1,4.6z"/>
		</g>
		
			<linearGradient id="Path_1770_00000069397372584876544580000017321681980502753962_" gradientUnits="userSpaceOnUse" x1="-83.0418" y1="30.8341" x2="-83.0258" y2="30.8611" gradientTransform="matrix(30.811 0 0 -17.594 1937.7974 1172.9696)">
			<stop  offset="0" style="stop-color:#1DB2F2"/>
			<stop  offset="1" style="stop-color:#1D97F2"/>
		</linearGradient>
		<path id="Path_1770" style="fill:url(#Path_1770_00000069397372584876544580000017321681980502753962_);" d="M15.5,8.6l15.4,8.7
			l-15.4,8.8L0.1,17.3L15.5,8.6z"/>
	</g>
	<g id="Group_271" transform="translate(39.489 4.51)">
		<path id="Path_1775" class="st7" d="M0,0.2c2.1-0.1,4.2,0,6.3,0.1c2.4,0.2,4.3,2.3,4.3,4.7c0.1,0.9,0.1,1.8,0,2.7
			c0,1.2-0.7,2.4-1.7,3c-0.1,0.1-0.2,0.2-0.4,0.3c1.7,0.9,2.2,2.4,2.2,4.1c0,1,0,2-0.1,3c-0.4,3.2-2.3,4.8-5.6,4.9c-1.7,0-3.3,0-5,0
			L0,0.2z M3.3,19.8c0.7,0,1.3,0,1.9,0c1.2,0.1,2.2-0.9,2.3-2.1c0,0,0,0,0,0v-0.1c0.1-1,0.1-2,0-3c0-0.8-0.4-1.5-1.1-1.9
			c-1-0.3-2-0.4-3-0.3L3.3,19.8z M3.3,3.3v6.2c0.1,0,0.3,0,0.4,0c0.6,0,1.2,0,1.7,0c1,0,1.8-0.7,1.9-1.7c0.2-0.8,0.2-1.7,0.1-2.6
			c0-1.1-0.9-1.9-2-2C4.8,3.3,4.1,3.3,3.3,3.3L3.3,3.3z"/>
		<path id="Path_1776" class="st7" d="M29.1,23.4c-0.2-0.1-0.4-0.1-0.6-0.2c-2.5-0.4-4.3-2.6-4.3-5.2c-0.1-4.3-0.1-8.5,0-12.8
			c0-2.6,1.9-4.8,4.4-5.2c0.1,0,0.2-0.1,0.3-0.1h1.6c0.1,0,0.2,0.1,0.4,0.1c2.5,0.5,4.3,2.6,4.3,5.2c0,4.3,0,8.5,0,12.8
			c0,2-1.2,3.9-3,4.7c-0.6,0.2-1.3,0.5-1.9,0.6H29.1z M31.9,11.6v-6c0.1-0.7-0.2-1.4-0.7-1.8c-0.7-0.6-1.7-0.7-2.5-0.3
			c-0.8,0.3-1.3,1.1-1.2,2v9.8c0,0.9,0,1.8,0,2.8c0,0.8,0.4,1.5,1.1,1.8c1.1,0.6,2.4,0.2,3-0.9c0,0,0,0,0,0c0.2-0.4,0.3-0.8,0.3-1.2
			C32,15.7,31.9,13.7,31.9,11.6L31.9,11.6z"/>
		<path id="Path_1777" class="st7" d="M108.1,23.4c-0.4-0.1-0.7-0.2-1.1-0.3c-2.3-0.6-3.9-2.7-3.9-5.1c0-4.2,0-8.4,0-12.7
			c0-2.5,1.7-4.7,4.1-5.2c0.2,0,0.3-0.1,0.5-0.2h1.7c0.1,0,0.2,0.1,0.3,0.1c2.6,0.4,4.5,2.7,4.4,5.4c0,4.1,0,8.2,0,12.4
			c0.1,2-1,3.9-2.8,4.8c-0.7,0.3-1.5,0.6-2.3,0.8L108.1,23.4z M110.9,11.7L110.9,11.7c0-2.1,0-4.1,0-6.2c0-1.2-0.9-2.1-2-2.2
			c0,0-0.1,0-0.1,0c-1.2-0.1-2.2,0.7-2.3,1.9c0,0,0,0,0,0c0,0,0,0.1,0,0.1c0,0.3,0,0.5,0,0.8v11.2c0,0.4,0,0.8,0.1,1.1
			c0.1,0.6,0.5,1.2,1.1,1.4c1.1,0.6,2.4,0.2,3-0.9c0.2-0.4,0.3-0.7,0.3-1.1C110.9,15.7,110.9,13.7,110.9,11.7L110.9,11.7z"/>
		<path id="Path_1778" class="st7" d="M43.6,0c1,0.2,1.8,0.6,2.6,1.3c1.1,1,1.7,2.5,1.8,4c0,0.5,0,1,0,1.5h-3.3c0-0.5,0-0.9,0-1.4
			c0-1.1-0.9-2.1-2-2.1c-0.1,0-0.3,0-0.4,0c-0.7,0-1.2,0.5-1.4,1.1c-0.1,0.5-0.2,1-0.2,1.5c0,3.9,0,7.8,0,11.7c0,0.3,0,0.5,0.1,0.8
			c0,1,0.9,1.7,1.8,1.7c0,0,0,0,0,0c0.1,0,0.1,0,0.2,0c1,0,1.9-0.8,1.9-1.8c0-0.5,0-1,0-1.6h3.2c0.6,2.4-0.5,4.9-2.7,6.1
			c-0.6,0.3-1.3,0.5-1.9,0.7h-1.1c-0.5-0.1-1.1-0.2-1.6-0.4c-2.1-0.8-3.4-2.8-3.2-5c0-4.3,0-8.5,0-12.8c-0.1-2.6,1.7-4.8,4.3-5.2
			c0.1,0,0.1-0.1,0.2-0.1L43.6,0z"/>
		<path id="Path_1779" class="st7" d="M66.2,9.6v13.6h-3.3V0.2c1,0,2,0,2.9,0c0.1,0,0.3,0.3,0.4,0.5c0.9,2.6,1.8,5.1,2.8,7.7
			c0.7,1.8,1.3,3.6,2.1,5.4V0.2h3.3v22.9c-1,0-1.9,0-2.9,0c-0.1,0-0.2-0.2-0.3-0.4c-1.6-4.3-3.1-8.5-4.7-12.8c0-0.1-0.1-0.2-0.1-0.4
			L66.2,9.6z"/>
		<path id="Path_1780" class="st7" d="M50,0.2h3.2v10.3l0.1,0c0.4-0.9,0.8-1.7,1.2-2.6c1.1-2.4,2.2-4.8,3.3-7.3
			c0.1-0.3,0.4-0.5,0.8-0.5c0.9,0,1.8,0,2.7,0C61,1,60.6,1.8,60.2,2.6c-1,2.1-2,4.2-3.1,6.2C57,9.2,57,9.6,57.1,10
			c1.6,4.2,3.2,8.3,4.8,12.5c0.1,0.2,0.2,0.4,0.3,0.7c-1.1,0-2.2,0-3.3,0c-0.1,0-0.3-0.3-0.4-0.4c-1.1-3-2.2-6-3.3-9.1
			c-0.1-0.2-0.1-0.3-0.3-0.6c-0.4,0.8-0.7,1.4-1.1,2.1c-0.5,0.8-0.7,1.7-0.6,2.6c0.1,1.6,0,3.2,0,4.8v0.6H50L50,0.2z"/>
		<path id="Path_1781" class="st7" d="M80.3,0.2c0.9,0,1.7,0,2.5,0c0.1,0,0.3,0.3,0.3,0.4c1,4.5,2,8.9,3,13.4
			c0.6,2.8,1.3,5.7,1.9,8.5c0,0.2,0.1,0.3,0.1,0.5h-3.3l-1-4.9c-1.4,0-2.8,0-4.2,0c-0.1,0-0.3,0.3-0.3,0.4c-0.3,1.4-0.5,2.7-0.8,4.1
			c0,0.1-0.2,0.4-0.4,0.4c-1,0-2,0-3,0L80.3,0.2z M83.3,15.1L81.8,7l-0.1,0L80,15.1L83.3,15.1z"/>
		<path id="Path_1782" class="st7" d="M89.6,3.3h-3.8v-3h10.9v3h-3.8v19.9h-3.3L89.6,3.3z"/>
		<path id="Path_1783" class="st7" d="M97.6,23.1V0.2h3.2v22.9L97.6,23.1z"/>
		<path id="Path_1784" class="st7" d="M16.4,19.9h6.5v3.2h-9.7V0.2h3.3V19.9z"/>
		<path id="Path_1785" class="st7" d="M124.5,0.2h3.3v22.9h-3.1l-5-13.6l-0.1,0v13.6h-3.3V0.2c1,0,1.9,0,2.9,0
			c0.2,0,0.4,0.3,0.4,0.5c1.1,2.9,2.1,5.8,3.1,8.7c0.5,1.3,0.9,2.6,1.4,4c0.1,0.2,0.2,0.3,0.3,0.5L124.5,0.2z"/>
	</g>
</g>
</svg>
