<?xml version="1.0" encoding="UTF-8"?>
<svg xmlns="http://www.w3.org/2000/svg" xmlns:xlink="http://www.w3.org/1999/xlink" width="300" height="60" viewBox="0 0 300 60" version="1.1">
<g id="surface1">
<path style=" stroke:none;fill-rule:nonzero;fill:rgb(0%,68.235294%,90.196078%);fill-opacity:1;" d="M 20.820312 30 L 10.308594 42.464844 L 23.492188 58.097656 C 25.632812 60.632812 29.015625 60.632812 31.15625 58.097656 L 44.339844 42.464844 L 33.828125 30 L 27.414062 22.183594 Z M 20.820312 30 "/>
<path style=" stroke:none;fill-rule:nonzero;fill:rgb(7.058824%,22.352941%,38.431373%);fill-opacity:1;" d="M 10.308594 17.535156 L 3.714844 25.351562 C 1.578125 27.886719 1.578125 31.902344 3.714844 34.4375 L 10.488281 42.253906 L 21 29.789062 L 27.59375 21.972656 L 16.902344 9.71875 Z M 10.308594 17.535156 "/>
<path style=" stroke:none;fill-rule:nonzero;fill:rgb(69.411765%,83.137255%,89.803922%);fill-opacity:1;" d="M 37.925781 34.648438 L 44.519531 42.464844 L 51.113281 34.648438 C 53.25 32.113281 53.25 28.097656 51.113281 25.5625 L 48.4375 22.183594 Z M 37.925781 34.648438 "/>
<path style=" stroke:none;fill-rule:nonzero;fill:rgb(69.411765%,83.137255%,89.803922%);fill-opacity:1;" d="M 34.007812 30 L 27.414062 22.183594 L 37.925781 9.71875 L 27.414062 22.183594 Z M 34.007812 30 "/>
<path style=" stroke:none;fill-rule:nonzero;fill:rgb(15.294118%,32.941176%,72.941176%);fill-opacity:1;" d="M 27.414062 22.183594 L 34.007812 30 L 37.925781 34.648438 L 48.4375 22.183594 L 44.519531 17.535156 L 37.925781 9.71875 Z M 27.414062 22.183594 "/>
<path style=" stroke:none;fill-rule:nonzero;fill:rgb(47.45098%,61.960784%,69.803922%);fill-opacity:1;" d="M 37.925781 9.71875 L 31.332031 1.691406 C 29.195312 -0.84375 25.808594 -0.84375 23.671875 1.691406 L 16.902344 9.71875 L 27.414062 22.183594 Z M 37.925781 9.71875 "/>
<path style=" stroke:none;fill-rule:nonzero;fill:rgb(14.901961%,40%,69.019608%);fill-opacity:1;" d="M 69.71875 43.492188 L 69.71875 14.757812 L 83.441406 14.757812 C 88.25 14.757812 90.566406 18.5625 90.566406 22.152344 C 90.746094 25.324219 88.964844 28.070312 86.46875 28.703125 C 89.320312 29.335938 91.28125 32.292969 91.101562 35.675781 C 91.101562 39.898438 88.785156 43.492188 83.972656 43.492188 Z M 84.152344 23.421875 C 84.152344 22.152344 83.261719 21.097656 82.191406 21.097656 C 82.191406 21.097656 82.015625 21.097656 82.015625 21.097656 L 75.957031 21.097656 L 75.957031 25.957031 L 82.015625 25.957031 C 83.082031 25.957031 83.972656 25.109375 84.152344 23.84375 C 84.152344 23.632812 84.152344 23.421875 84.152344 23.421875 Z M 84.6875 34.617188 C 84.6875 33.140625 83.796875 32.082031 82.550781 32.082031 C 82.550781 32.082031 82.371094 32.082031 82.371094 32.082031 L 75.957031 32.082031 L 75.957031 37.152344 L 82.191406 37.152344 C 83.441406 37.363281 84.507812 36.308594 84.507812 34.828125 C 84.6875 34.828125 84.6875 34.828125 84.6875 34.617188 Z M 84.6875 34.617188 "/>
<path style=" stroke:none;fill-rule:nonzero;fill:rgb(14.901961%,40%,69.019608%);fill-opacity:1;" d="M 94.308594 43.492188 L 94.308594 14.757812 L 100.546875 14.757812 L 100.546875 36.941406 L 110.34375 36.941406 L 110.34375 43.492188 Z M 94.308594 43.492188 "/>
<path style=" stroke:none;fill-rule:nonzero;fill:rgb(14.901961%,40%,69.019608%);fill-opacity:1;" d="M 111.414062 29.125 C 111.234375 21.097656 116.757812 14.335938 123.53125 14.335938 C 123.886719 14.335938 124.066406 14.335938 124.421875 14.335938 C 131.191406 13.914062 136.894531 20.039062 137.25 28.070312 C 137.25 28.492188 137.25 28.703125 137.25 29.125 C 137.429688 37.152344 132.082031 43.914062 125.3125 43.914062 C 124.957031 43.914062 124.777344 43.914062 124.421875 43.914062 C 117.648438 44.335938 111.769531 38.210938 111.414062 30.183594 C 111.414062 29.757812 111.414062 29.546875 111.414062 29.125 Z M 131.011719 29.125 C 131.191406 24.898438 128.519531 21.308594 124.957031 20.886719 C 124.777344 20.886719 124.597656 20.886719 124.421875 20.886719 C 120.855469 20.886719 117.828125 24.265625 117.828125 28.492188 C 117.828125 28.703125 117.828125 28.914062 117.828125 29.125 C 117.648438 33.351562 120.324219 37.152344 123.886719 37.363281 C 124.066406 37.363281 124.242188 37.363281 124.421875 37.363281 C 127.984375 37.363281 131.011719 33.984375 131.011719 29.757812 C 131.011719 29.546875 131.011719 29.335938 131.011719 29.125 Z M 131.011719 29.125 "/>
<path style=" stroke:none;fill-rule:nonzero;fill:rgb(14.901961%,40%,69.019608%);fill-opacity:1;" d="M 139.210938 29.125 C 139.210938 20.253906 144.910156 14.335938 152.214844 14.335938 C 156.671875 14.125 160.945312 17.082031 162.730469 21.941406 L 157.382812 24.898438 C 156.492188 22.363281 154.53125 20.886719 152.214844 20.675781 C 148.476562 20.675781 145.445312 24.054688 145.445312 28.492188 C 145.445312 28.703125 145.445312 28.703125 145.445312 28.914062 C 145.269531 33.351562 148.117188 36.941406 151.859375 37.152344 C 152.039062 37.152344 152.039062 37.152344 152.214844 37.152344 C 154.53125 37.152344 156.492188 35.464844 157.382812 32.929688 L 162.730469 35.886719 C 160.769531 40.746094 156.671875 43.703125 152.214844 43.492188 C 144.910156 43.914062 139.210938 38 139.210938 29.125 Z M 139.210938 29.125 "/>
<path style=" stroke:none;fill-rule:nonzero;fill:rgb(14.901961%,40%,69.019608%);fill-opacity:1;" d="M 179.835938 43.492188 L 173.417969 32.71875 L 171.816406 35.039062 L 171.816406 43.492188 L 165.578125 43.492188 L 165.578125 14.757812 L 171.816406 14.757812 L 171.816406 26.589844 L 179.300781 14.757812 L 186.960938 14.757812 L 177.519531 28.070312 L 187.496094 43.28125 Z M 179.835938 43.492188 "/>
<path style=" stroke:none;fill-rule:nonzero;fill:rgb(14.901961%,40%,69.019608%);fill-opacity:1;" d="M 186.425781 29.125 C 186.425781 20.253906 192.128906 14.335938 199.433594 14.335938 C 203.886719 14.125 208.164062 17.082031 209.945312 21.941406 L 204.601562 24.898438 C 203.710938 22.363281 201.75 20.886719 199.433594 20.675781 C 195.691406 20.675781 192.664062 24.054688 192.664062 28.492188 C 192.664062 28.703125 192.664062 28.703125 192.664062 28.914062 C 192.484375 33.351562 195.335938 36.941406 199.078125 37.152344 C 199.253906 37.152344 199.253906 37.152344 199.433594 37.152344 C 201.75 37.152344 203.710938 35.464844 204.601562 32.929688 L 209.945312 35.886719 C 207.984375 40.746094 203.886719 43.703125 199.433594 43.492188 C 192.128906 43.914062 186.425781 38 186.425781 29.125 Z M 186.425781 29.125 "/>
<path style=" stroke:none;fill-rule:nonzero;fill:rgb(14.901961%,40%,69.019608%);fill-opacity:1;" d="M 229.011719 43.492188 L 229.011719 31.871094 L 219.03125 31.871094 L 219.03125 43.492188 L 212.796875 43.492188 L 212.796875 14.757812 L 219.03125 14.757812 L 219.03125 25.535156 L 229.011719 25.535156 L 229.011719 14.757812 L 235.246094 14.757812 L 235.246094 43.492188 Z M 229.011719 43.492188 "/>
<path style=" stroke:none;fill-rule:nonzero;fill:rgb(14.901961%,40%,69.019608%);fill-opacity:1;" d="M 256.09375 43.492188 L 254.847656 39.265625 L 245.226562 39.265625 L 243.976562 43.492188 L 236.851562 43.492188 L 246.117188 14.757812 L 253.957031 14.757812 L 263.042969 43.492188 Z M 250.035156 22.152344 L 247.007812 32.929688 L 253.242188 32.929688 Z M 250.035156 22.152344 "/>
<path style=" stroke:none;fill-rule:nonzero;fill:rgb(14.901961%,40%,69.019608%);fill-opacity:1;" d="M 264.824219 43.492188 L 264.824219 14.757812 L 271.0625 14.757812 L 271.0625 43.492188 Z M 264.824219 43.492188 "/>
<path style=" stroke:none;fill-rule:nonzero;fill:rgb(14.901961%,40%,69.019608%);fill-opacity:1;" d="M 291.90625 43.492188 L 281.75 26.800781 L 281.75 43.492188 L 275.515625 43.492188 L 275.515625 14.757812 L 281.929688 14.757812 L 291.730469 30.605469 L 291.730469 14.757812 L 297.964844 14.757812 L 297.964844 43.492188 Z M 291.90625 43.492188 "/>
</g>
</svg>
