<?xml version="1.0" encoding="UTF-8"?>
<svg id="katman_1" data-name="katman 1" xmlns="http://www.w3.org/2000/svg" xmlns:xlink="http://www.w3.org/1999/xlink" viewBox="0 0 300 100">
  <defs>
    <style>
      .cls-1 {
        fill: url(#Adsız_degrade_7);
      }

      .cls-2 {
        fill: url(#Adsız_degrade_5);
      }

      .cls-3 {
        fill: url(#Adsız_degrade_6);
      }

      .cls-4 {
        fill: url(#Adsız_degrade_3);
      }

      .cls-5 {
        fill: url(#Adsız_degrade_4);
      }

      .cls-6 {
        fill: url(#Adsız_degrade_5-2);
      }

      .cls-7 {
        fill: url(#Adsız_degrade_6-2);
      }
    </style>
    <linearGradient id="Adsız_degrade_6" data-name="Adsız degrade 6" x1="30.09" y1="42.09" x2="30.07" y2="42.12" gradientTransform="translate(1.09 1317.6) scale(15.4 -12.99)" gradientUnits="userSpaceOnUse">
      <stop offset="0" stop-color="#88c508"/>
      <stop offset="1" stop-color="#86be13"/>
    </linearGradient>
    <linearGradient id="Adsız_degrade_5" data-name="Adsız degrade 5" x1="9.43" y1="14.74" x2="9.43" y2="14.83" gradientTransform="translate(15.47 962.52) scale(8.25 -9.52)" gradientUnits="userSpaceOnUse">
      <stop offset="0" stop-color="#f8d41a"/>
      <stop offset="1" stop-color="#f8bd19"/>
    </linearGradient>
    <linearGradient id="Adsız_degrade_3" data-name="Adsız degrade 3" x1="5.75" y1="48.45" x2="5.75" y2="48.48" gradientTransform="translate(-14.33 1788.61) scale(15.41 -17.53)" gradientUnits="userSpaceOnUse">
      <stop offset="0" stop-color="#138ce7"/>
      <stop offset="1" stop-color="#0f86e0"/>
    </linearGradient>
    <linearGradient id="Adsız_degrade_4" data-name="Adsız degrade 4" x1="5.75" y1="48.38" x2="5.75" y2="48.4" gradientTransform="translate(1.08 1786.41) scale(15.41 -17.51)" gradientUnits="userSpaceOnUse">
      <stop offset="0" stop-color="#1db3f3"/>
      <stop offset="1" stop-color="#1db3f3"/>
    </linearGradient>
    <linearGradient id="Adsız_degrade_5-2" data-name="Adsız degrade 5" x1="9.43" y1="19.48" x2="9.43" y2="19.39" gradientTransform="translate(-7.25 962.72) scale(8.25 -9.52)" xlink:href="#Adsız_degrade_5"/>
    <linearGradient id="Adsız_degrade_6-2" data-name="Adsız degrade 6" x1="-19.73" y1="35.51" x2="-19.72" y2="35.54" gradientTransform="translate(-14.36 1289.83) scale(15.43 -12.71)" xlink:href="#Adsız_degrade_6"/>
    <linearGradient id="Adsız_degrade_7" data-name="Adsız degrade 7" x1="-17.03" y1="63.87" x2="-17.01" y2="63.9" gradientTransform="translate(-29.73 1786.57) scale(30.81 -17.59)" gradientUnits="userSpaceOnUse">
      <stop offset="0" stop-color="#1db2f2"/>
      <stop offset="1" stop-color="#1d97f2"/>
    </linearGradient>
  </defs>
  <g id="Group_272" data-name="Group 272" transform="translate(0)">
    <g id="Group_270" data-name="Group 270">
      <g id="Group_268" data-name="Group 268" transform="translate(15.486 0.002)">
        <path id="Path_1773" data-name="Path 1773" class="cls-3" d="M89.25,36.97l8.05,4.68v8.31l-15.4-8.95,7.35-4.04Z"/>
        <path id="Path_1774" data-name="Path 1774" class="cls-2" d="M97.38,32.36l-.08,9.52-8.17-4.83,8.25-4.68Z"/>
      </g>
      <path id="Path_1771" data-name="Path 1771" class="cls-4" d="M66.49,49.63l15.41,8.57v8.96l-15.4-8.7v-8.83Z"/>
      <path id="Path_1772" data-name="Path 1772" class="cls-5" d="M97.3,49.66l-15.4,8.54v8.96l15.41-8.7v-8.81Z"/>
      <g id="Group_269" data-name="Group 269">
        <path id="Path_1774-2" data-name="Path 1774-2" class="cls-6" d="M66.42,32.35l.08,9.52,8.17-4.83-8.25-4.69Z"/>
        <path id="Path_1773-2" data-name="Path 1773-2" class="cls-7" d="M74.55,36.97l-8.05,4.68v8.04l15.43-8.75-7.38-3.97Z"/>
      </g>
      <path id="Path_1770" data-name="Path 1770" class="cls-1" d="M81.93,40.93l15.38,8.75-15.41,8.85-15.4-8.85,15.43-8.74Z"/>
    </g>
    <g id="Group_271" data-name="Group 271" transform="translate(39.489 4.51)">
      <path id="Path_1775" data-name="Path 1775" d="M105.91,37.1c2.09-.06,4.19-.02,6.27,.13,2.43,.25,4.29,2.27,4.34,4.72,.07,.9,.07,1.8,0,2.7-.05,1.24-.7,2.37-1.75,3.02-.13,.08-.24,.18-.42,.3,1.71,.87,2.17,2.38,2.2,4.09,.05,1.02,.02,2.03-.08,3.05-.43,3.22-2.28,4.83-5.56,4.9-1.67,.04-3.35,.01-5.02,.01v-22.92Zm3.33,19.61c.67,0,1.26,.03,1.86,0,1.22,.05,2.25-.9,2.3-2.12h0v-.06c.07-.99,.07-1.99,0-2.98,.04-.79-.4-1.53-1.12-1.87-.98-.3-2.02-.39-3.04-.27v7.3Zm.01-16.5v6.22c.15,.01,.26,.03,.37,.03,.58,0,1.16,.01,1.73-.04,.98,.03,1.82-.69,1.93-1.66,.15-.85,.18-1.71,.09-2.57-.04-1.08-.91-1.94-1.98-1.98-.69-.06-1.38,0-2.15,0h0Z"/>
      <path id="Path_1776" data-name="Path 1776" d="M135.03,60.26c-.2-.05-.4-.11-.6-.15-2.51-.45-4.33-2.63-4.33-5.17-.06-4.26-.06-8.51,0-12.77,0-2.59,1.88-4.79,4.44-5.19,.09-.03,.18-.06,.26-.1h1.62c.12,.05,.25,.08,.38,.12,2.5,.45,4.33,2.63,4.35,5.17,.03,4.26,.04,8.52,0,12.79,.05,2.04-1.16,3.91-3.04,4.7-.62,.25-1.25,.45-1.9,.62h-1.16Zm2.81-11.75v-5.99c.07-.7-.21-1.39-.75-1.85-.71-.57-1.68-.69-2.5-.29-.79,.33-1.27,1.14-1.19,2v9.79c0,.92-.01,1.85,.02,2.77-.03,.77,.43,1.48,1.15,1.77,1.06,.59,2.4,.21,2.99-.85h0c.2-.37,.29-.78,.27-1.19,.03-2.06,0-4.12,0-6.17h0Z"/>
      <path id="Path_1777" data-name="Path 1777" d="M214.04,60.26c-.37-.09-.74-.17-1.1-.27-2.29-.63-3.87-2.71-3.86-5.08-.03-4.22-.03-8.44,0-12.66-.03-2.5,1.7-4.68,4.14-5.21,.17-.04,.32-.1,.48-.16h1.73c.08,.04,.17,.07,.26,.1,2.63,.41,4.53,2.73,4.43,5.38,.04,4.12,.03,8.25,0,12.38,.1,2-.98,3.86-2.77,4.76-.73,.32-1.49,.57-2.27,.77h-1.04Zm2.78-11.72h0c0-2.07,.02-4.15,0-6.22,.03-1.16-.88-2.12-2.04-2.15-.04,0-.07,0-.11,0-1.15-.1-2.17,.74-2.27,1.9h0s0,.08,0,.12c-.03,.27-.03,.54-.03,.8v11.18c0,.38,.02,.77,.08,1.15,.09,.64,.52,1.19,1.13,1.42,1.08,.57,2.43,.15,3-.93,.18-.35,.27-.75,.25-1.15,.02-2.04,0-4.07,0-6.11h0Z"/>
      <path id="Path_1778" data-name="Path 1778" d="M149.46,36.87c.96,.2,1.85,.64,2.6,1.27,1.09,1.05,1.73,2.49,1.77,4,.03,.48,0,.95,0,1.47h-3.33c0-.48,.03-.93,0-1.39,0-1.13-.9-2.06-2.03-2.07-.14,0-.28,.01-.42,.04-.66,.03-1.22,.49-1.36,1.14-.13,.48-.2,.97-.22,1.47-.02,3.9-.01,7.79,0,11.69,0,.27,.01,.54,.06,.8,.05,.96,.86,1.71,1.83,1.66h0c.07,0,.15-.01,.22-.02,1.03,0,1.88-.81,1.93-1.84,.05-.51,0-1.03,0-1.58h3.23c.55,2.39-.54,4.86-2.68,6.06-.62,.28-1.27,.51-1.93,.7h-1.15c-.54-.13-1.08-.22-1.6-.4-2.05-.75-3.36-2.78-3.2-4.96-.03-4.26-.03-8.51,0-12.77-.1-2.55,1.74-4.77,4.26-5.16,.07-.03,.14-.06,.2-.1h1.83Z"/>
      <path id="Path_1779" data-name="Path 1779" d="M172.07,46.44v13.55h-3.27v-22.93c.99,0,1.95-.02,2.91,.02,.14,0,.33,.27,.4,.45,.93,2.56,1.85,5.12,2.77,7.68,.65,1.82,1.31,3.64,2.06,5.45v-13.56h3.31v22.91c-.97,0-1.94,.01-2.91-.02-.11,0-.25-.25-.3-.42-1.57-4.26-3.13-8.53-4.69-12.8-.04-.12-.1-.24-.14-.36l-.13,.02Z"/>
      <path id="Path_1780" data-name="Path 1780" d="M155.87,37.09h3.25v10.25l.14,.04c.4-.85,.8-1.7,1.19-2.56,1.11-2.42,2.23-4.84,3.33-7.27,.1-.34,.43-.55,.78-.5,.88,.03,1.77,0,2.75,0-.42,.86-.79,1.64-1.17,2.43-1.02,2.09-2.03,4.18-3.07,6.25-.18,.34-.19,.74-.03,1.08,1.62,4.16,3.24,8.32,4.84,12.49,.08,.21,.16,.42,.27,.71-1.14,0-2.21,.02-3.28-.02-.13,0-.3-.26-.36-.42-1.12-3.02-2.24-6.04-3.35-9.06-.07-.17-.14-.35-.25-.64-.42,.75-.75,1.43-1.14,2.07-.47,.77-.7,1.66-.64,2.56,.06,1.61,.01,3.23,.01,4.84v.65h-3.26v-22.91Z"/>
      <path id="Path_1781" data-name="Path 1781" d="M186.24,37.06c.85,0,1.68-.02,2.5,.02,.13,0,.31,.25,.34,.42,1.01,4.47,2.02,8.94,3.01,13.41,.63,2.84,1.27,5.69,1.91,8.53,.04,.17,.06,.34,.1,.55h-3.27l-.98-4.9c-1.43,0-2.83-.01-4.23,.02-.11,0-.29,.26-.33,.42-.29,1.37-.54,2.74-.83,4.11-.03,.15-.23,.37-.36,.37-.98,.03-1.96,.02-3,.02l5.13-22.97Zm3,14.89l-1.57-8.09h-.13l-1.58,8.09h3.29Z"/>
      <path id="Path_1782" data-name="Path 1782" d="M195.47,40.13h-3.82v-3.02h10.89v3.02h-3.76v19.87h-3.31v-19.87Z"/>
      <path id="Path_1783" data-name="Path 1783" d="M203.46,59.98v-22.88h3.23v22.88h-3.23Z"/>
      <path id="Path_1784" data-name="Path 1784" d="M122.29,56.75h6.49v3.23h-9.75v-22.87h3.26v19.64Z"/>
      <path id="Path_1785" data-name="Path 1785" d="M230.41,37.09h3.26v22.9h-3.08l-4.98-13.62-.11,.03v13.6h-3.27v-22.93c.98,0,1.94-.02,2.89,.02,.15,0,.35,.3,.42,.5,1.06,2.9,2.1,5.8,3.14,8.71,.47,1.32,.94,2.63,1.41,3.95,.06,.18,.16,.34,.3,.48v-13.63Z"/>
    </g>
  </g>
</svg>