<?xml version="1.0" encoding="UTF-8"?>
<svg id="katman_1" data-name="katman 1" xmlns="http://www.w3.org/2000/svg" viewBox="0 0 300 100">
  <defs>
    <style>
      .cls-1 {
        fill: #00aee6;
      }

      .cls-2 {
        fill: #b1d4e5;
      }

      .cls-3 {
        fill: #123962;
      }

      .cls-4 {
        fill: #2754ba;
      }

      .cls-5 {
        fill: #799eb2;
      }
    </style>
  </defs>
  <g id="PIN">
    <g id="logo">
      <g id="Layer_2" data-name="Layer 2">
        <g id="Group_85" data-name="Group 85">
          <g id="Layer_1-2" data-name="Layer 1-2">
            <path id="Shape" class="cls-1" d="M77.71,49.78l-5.89,5.88,7.4,7.4c1.19,1.19,3.12,1.19,4.31,0l7.4-7.4-5.9-5.88-3.65-3.67-3.67,3.67Z"/>
            <path id="Shape-2" class="cls-3" d="M71.82,43.86l-3.75,3.75c-1.19,1.19-1.19,3.12,0,4.31h0l3.75,3.75,5.89-5.88,3.67-3.67-5.92-5.89-3.65,3.65Z"/>
            <path id="Shape-3" class="cls-2" d="M87.27,52l3.66,3.66,3.74-3.74c1.19-1.19,1.19-3.12,0-4.31l-1.5-1.5-5.9,5.89Z"/>
            <path id="Shape-4" class="cls-2" d="M85.03,49.76h0l-3.66-3.66,5.9-5.9h0l-5.9,5.9,3.66,3.66Z"/>
            <path id="Shape-5" class="cls-4" d="M81.37,46.1l3.66,3.66,2.24,2.24,5.9-5.9-2.24-2.24-3.66-3.66-5.9,5.9Z"/>
            <path id="Shape-6" class="cls-5" d="M87.27,40.21l-3.74-3.75c-1.19-1.19-3.12-1.19-4.31,0l-3.74,3.75,5.92,5.89,5.88-5.89Z"/>
          </g>
        </g>
      </g>
    </g>
  </g>
  <g id="Group_86" data-name="Group 86" transform="translate(37.944 6.786)">
    <path id="Path_108" data-name="Path 108" d="M105.12,56.15v-13.57h7.69c2.68,0,3.97,1.75,3.97,3.46,.08,1.46-.9,2.77-2.32,3.11,1.56,.32,2.65,1.73,2.58,3.31,0,1.98-1.32,3.68-3.99,3.68h-7.93Zm8.1-9.5c0-.61-.49-1.12-1.1-1.12-.03,0-.06,0-.1,0h-3.4v2.26h3.4c.61,.04,1.15-.42,1.19-1.03,0-.03,0-.07,0-.1h0Zm.27,5.33c0-.67-.54-1.22-1.22-1.23-.04,0-.08,0-.12,0h-3.52v2.44h3.52c.66,.08,1.25-.39,1.33-1.05,0-.06,0-.11,0-.17h0Z"/>
    <path id="Path_109" data-name="Path 109" d="M118.96,56.15v-13.57h3.5v10.52h5.45v3.05h-8.95Z"/>
    <path id="Path_110" data-name="Path 110" d="M128.54,49.37c-.07-3.81,2.97-6.96,6.79-7.03,.16,0,.32,0,.48,0,3.8-.2,7.04,2.73,7.23,6.53,0,.16,.01,.33,0,.49,.08,3.8-2.95,6.95-6.75,7.03-.16,0-.33,0-.49,0-3.81,.2-7.06-2.73-7.25-6.54,0-.16-.01-.32,0-.48Zm10.95,0c.15-2.01-1.37-3.77-3.38-3.92-.1,0-.2-.01-.3,0-2.02-.03-3.68,1.59-3.71,3.61,0,.1,0,.21,0,.31-.14,2.02,1.39,3.78,3.41,3.92,.1,0,.19,0,.29,0,2.03,.01,3.68-1.62,3.69-3.65,0-.09,0-.19,0-.28Z"/>
    <path id="Path_111" data-name="Path 111" d="M144.13,49.37c0-4.19,3.17-7.02,7.34-7.02,2.53-.09,4.86,1.34,5.92,3.64l-3.01,1.42c-.5-1.17-1.64-1.94-2.91-1.97-2.07-.02-3.77,1.64-3.79,3.71,0,.07,0,.14,0,.22-.1,2.07,1.5,3.82,3.56,3.92,.07,0,.15,0,.22,0,1.27-.03,2.41-.8,2.91-1.97l3.01,1.42c-1.06,2.29-3.39,3.73-5.92,3.64-4.17,0-7.34-2.85-7.34-7.02Z"/>
    <path id="Path_112" data-name="Path 112" d="M166.87,56.15l-3.56-5.11-.91,1.14v3.97h-3.5v-13.57h3.5v5.57l4.17-5.57h4.31l-5.27,6.35,5.55,7.22h-4.29Z"/>
    <path id="Path_113" data-name="Path 113" d="M170.62,49.37c0-4.19,3.17-7.02,7.34-7.02,2.53-.09,4.87,1.34,5.92,3.64l-3.01,1.42c-.5-1.17-1.64-1.94-2.91-1.97-2.07-.02-3.77,1.64-3.79,3.71,0,.07,0,.14,0,.21-.1,2.07,1.5,3.83,3.57,3.92,.07,0,.14,0,.21,0,1.27-.03,2.41-.8,2.91-1.97l3.01,1.42c-1.06,2.29-3.4,3.73-5.92,3.64-4.17,0-7.34-2.85-7.34-7.02Z"/>
    <path id="Path_114" data-name="Path 114" d="M194.53,56.15v-5.45h-5.64v5.45h-3.5v-13.57h3.5v5.07h5.64v-5.07h3.5v13.57h-3.5Z"/>
    <path id="Path_115" data-name="Path 115" d="M209.69,56.15l-.67-1.95h-5.35l-.67,1.95h-3.97l5.11-13.57h4.39l5.13,13.57h-3.97Zm-3.36-10.11l-1.73,5.11h3.46l-1.73-5.11Z"/>
    <path id="Path_116" data-name="Path 116" d="M214.65,56.15v-13.57h3.5v13.57h-3.5Z"/>
    <path id="Path_117" data-name="Path 117" d="M229.83,56.15l-5.73-7.85v7.85h-3.5v-13.57h3.6l5.49,7.46v-7.46h3.52v13.57h-3.38Z"/>
  </g>
</svg>