<?xml version="1.0" encoding="utf-8"?>
<!-- Generator: Adobe Illustrator 26.3.1, SVG Export Plug-In . SVG Version: 6.00 Build 0)  -->
<svg version="1.1" id="katman_1" xmlns="http://www.w3.org/2000/svg" xmlns:xlink="http://www.w3.org/1999/xlink" x="0px" y="0px"
	 viewBox="0 0 300 100" style="enable-background:new 0 0 300 100;" xml:space="preserve">
<style type="text/css">
	.st0{fill:#FFA229;}
	.st1{fill:#FF9000;}
	.st2{fill:#36EDAB;}
	.st3{fill:#DC7D00;}
	.st4{fill:#603813;}
	.st5{fill:#FE0022;}
	.st6{fill:#CCCCCC;}
	.st7{fill:#CB001B;}
	.st8{fill:#021323;}
</style>
<g id="Group_1" transform="translate(-295.987 -172)">
	<path id="Path_1" class="st0" d="M450.5,200c0,0-7.6-11.8-15.2-9s-8.6,14.5-8,17.6"/>
	<path id="Path_2" d="M450.9,199.8c-1.2-1.7-2.5-3.3-4-4.8c-1.2-1.3-2.6-2.4-4.2-3.3c-0.8-0.5-1.6-0.8-2.4-1.1
		c-0.8-0.3-1.7-0.4-2.6-0.4c-0.9,0-1.7,0.1-2.5,0.4c-1.6,0.6-3,1.6-4.2,2.9c-0.8,1-1.5,2-2.1,3.2c-0.8,1.7-1.4,3.5-1.7,5.3
		c-0.3,1.5-0.5,3.1-0.5,4.7c0,0.4,0,0.8,0,1.1c0,0.3,0.1,0.6,0.1,0.9l0.9-0.2c0-0.3-0.1-0.5-0.1-0.8c0-0.3,0-0.6,0-1
		c0-1.3,0.1-2.6,0.4-3.9c0.4-2.4,1.2-4.6,2.3-6.7c0.6-1,1.3-2,2.2-2.8c0.9-0.8,1.9-1.4,3-1.8c0.7-0.3,1.5-0.4,2.2-0.4
		c0.8,0,1.6,0.1,2.3,0.4c1.4,0.5,2.7,1.2,3.9,2.1c1.7,1.3,3.2,2.8,4.5,4.4c0.6,0.7,1,1.3,1.3,1.7c0.1,0.2,0.3,0.4,0.3,0.5
		c0,0.1,0.1,0.1,0.1,0.1l0,0l0,0l0,0L450.9,199.8L450.9,199.8z"/>
	<path id="Path_3" class="st0" d="M402.2,240c-2.6,0-7,0-8.3-2.5c-0.8-1.5-0.2-3.2,0.3-4.4c1.6-3.5,4.1-6.7,7.1-9.1
		c3-2.5,6.1-4.7,9.4-6.7c5.2-3.2,10.6-6.2,16.2-8.7c4.9-2.2,9.8-4.2,14.9-5.9c6.6-2.3,12.7-4.3,19.2-5.9c7.2-1.8,14.5-2.7,21.9-2.7
		c0.3,0,0.7,0,1,0c5.8,0.1,10,0.7,12.7,1.9c1.3,0.4,2.4,1.4,3,2.7c0.3,0.9,0.2,1.8,0,2.7c-0.3,1.3-1,2.8-3.5,5
		c-2.8,2.4-7.4,5.1-14,8.2c-5.4,2.5-10.4,4.5-15.2,6.4c-1.3,0.5-2.9,1.1-4.9,1.8c-4.4,1.6-7.8,2.6-9.7,3.1l-0.5,0.1
		c-2.8,0.8-3.9,1.3-6,2c-2,0.7-4.7,1.7-10.3,3.6c-0.1,0-7,2.3-15.8,5c-0.1,0-3.5,1.1-10.9,2.6C406.5,239.7,404.4,239.9,402.2,240
		L402.2,240"/>
	<path id="Path_4" class="st1" d="M473.1,194.5c1.8,2.2,3.1,4.9,3.5,7.8c0.2,1.4,0.2,2.9,0,4.3c2.3-0.1,4.6,0.6,6.6,1.9
		c1.4,1,2.6,2.2,3.5,3.7c2.2-1,4.2-2.1,6.2-3.5c3.6-2.5,6.9-4.9,6.9-8.1c-0.1-1.3-0.6-2.6-1.4-3.6c-1.5-1.9-4-2.9-11-3.2
		C482.5,193.6,477.8,193.9,473.1,194.5z"/>
	<path id="Path_5" class="st1" d="M411.7,216.5c2.8-0.1,5.5,0.3,8.2,1.2c1.3,0.5,2.6,1.1,3.8,1.8c-2.3,1.4-9.1,5.9-11,14.1
		c-0.4,1.6-0.5,3.2-0.5,4.9c-2.1,0.6-4.2,1-6.4,1.3c-4.2,0.5-9.3,1.1-11.4-1.8c-0.3-0.4-0.5-0.8-0.6-1.2c-1.2-3.6,3.1-8,6.7-11.6
		C403.8,221.8,407.6,218.9,411.7,216.5z"/>
	<path id="Path_6" class="st2" d="M395,236.1c-0.5,0-0.9,0-1.4-0.1l-0.1,0l0-0.1c0-0.2,0-0.4,0-0.6c0.1-2.3,1-4.5,2.5-6.2
		c3.3-4.1,8.5-7.9,11.3-9.8c3.4-2.3,6.2-3.9,8-5c1.8-1,5.4-3.1,9.5-5.1c13.7-6.5,28.1-11.3,43-14.1c4.9-1,9.8-1.5,14.7-1.6
		c0.8,0,1.5,0,2.3,0c2.8,0.1,5.7,0.3,8.4,0.9c3.6,0.8,5.7,2.1,6.4,4c0.2,0.6,0.3,1.2,0.2,1.8l0,0.3l-0.2-0.1
		c-0.2-0.1-0.5-0.1-0.8-0.1h-0.2c-0.4,0-1.1,0-1.8,0.1c-1.2,0.1-2.2,0.2-3,0.4c-0.6,0.1-1.2,0.2-1.7,0.2c-0.5,0-0.9-0.1-1.2-0.4
		c-0.3-0.4-0.4-0.8-0.4-1.3c0-0.6-0.2-1.1-0.5-1.5c-0.6-0.6-1.4-1-2.2-1c-1.2,0.1-2.4,0.6-3.4,1.3c-1,0.7-2.2,1.1-3.4,1.3
		c-0.3,0-0.6,0-0.9-0.1c-0.4-0.1-0.7-0.3-1-0.5c-0.5-0.4-0.8-0.9-1-1.5c-0.1-0.5-0.4-0.9-0.8-1.1c-0.3-0.2-0.7-0.2-1.1-0.2h-0.1
		c-0.6,0-1.1,0.1-1.7,0.4c-0.8,0.4-1.6,0.9-2.3,1.6c-0.1,0.1-0.3,0.3-0.5,0.4c-1.7,1.4-2.7,2.3-4.1,2.5c-0.2,0-0.4,0-0.6,0
		c-1.1,0-2.1-0.3-3.1-0.8c-0.3-0.1-0.6-0.3-0.8-0.4c-0.5-0.3-1.1-0.5-1.7-0.6c-0.1,0-0.2,0-0.3,0c-0.4,0.1-0.8,0.2-1.1,0.4
		c-1.2,0.8-2.3,1.7-3.3,2.8c-0.3,0.3-0.6,0.6-0.9,0.9c-0.9,0.8-2.9,2.6-4.8,2.6c-0.3,0-0.5,0-0.7-0.1c-0.6-0.2-1.2-0.6-1.8-1
		c-0.7-0.6-1.5-1-2.4-1.3c-0.2,0-0.4,0-0.5,0c-0.1,0-0.1,0-0.2,0c-0.7,0.1-1.4,0.4-2,0.8c-1.1,1-1.9,2.1-2.6,3.4
		c-0.1,0.2-0.3,0.4-0.4,0.6c-0.8,1.3-2.7,4.3-5.2,4.6c-0.1,0-0.3,0-0.4,0c-1.1-0.1-2.2-0.5-3.2-1.1c-0.8-0.5-1.6-0.9-2.6-1
		c-0.3,0-0.5,0-0.8,0.1c-0.4,0.2-0.7,0.4-1,0.6c-0.6,0.6-1,1.4-1.2,2.2c0,0.1-0.1,0.2-0.1,0.3c-0.8,2.4-1.3,4-2.7,5
		c-0.4,0.3-0.8,0.5-1.2,0.6c-0.6,0.2-1.2,0.3-1.9,0.3c-0.8,0-1.7-0.2-2.5-0.4c-0.7-0.2-1.3-0.3-2-0.3c-0.5,0-1,0.1-1.5,0.3
		c-0.3,0.2-0.6,0.4-0.9,0.7c-0.7,0.7-1.1,1.6-1.4,2.6l0,0.1c-1,2.9-1.2,3.3-1.7,3.9c-0.4,0.5-1,0.9-1.6,1.2
		c-0.3,0.1-0.6,0.2-0.9,0.2c-0.2,0-0.4,0-0.7,0c-0.4,0-0.9-0.1-1.3-0.1h-0.3c-1.3,0-2.1,0-2.7,0.6c-0.6,0.6-0.9,1.4-1.1,2.3
		c-0.1,0.3-0.1,0.6-0.2,0.8c0,0.4-0.1,0.7-0.3,1.1c-0.2,0.6-0.6,1.2-1,1.7C399.3,235.5,397.3,236.2,395,236.1L395,236.1z"/>
	<path id="Path_7" d="M482.6,193.7c0.8,0,1.6,0,2.3,0c4.3,0.2,13.2,0.5,14.7,4.7c0.2,0.6,0.3,1.2,0.2,1.8c-0.3-0.1-0.6-0.1-0.9-0.1
		h-0.2c-0.3,0-1.1,0-1.8,0.1c-2.3,0.2-3.8,0.6-4.7,0.6c-0.4,0-0.8-0.1-1.1-0.4c-0.7-0.7,0-1.7-0.9-2.8c-0.6-0.7-1.4-1-2.3-1
		c-2.3,0-4.6,2.5-6.8,2.5c-0.3,0-0.6,0-0.8-0.1c-0.3-0.1-0.6-0.3-0.9-0.5c-1.1-0.9-0.8-2.1-1.8-2.7c-0.4-0.2-0.8-0.2-1.1-0.2h-0.1
		c-0.6,0-1.2,0.2-1.7,0.4c-1,0.5-1.9,1.2-2.8,2c-1.7,1.5-2.7,2.3-4.1,2.4c-0.2,0-0.4,0-0.6,0c-1,0-2.1-0.3-3-0.8
		c-0.8-0.5-1.7-0.9-2.6-1c-0.1,0-0.2,0-0.3,0c-0.4,0.1-0.8,0.2-1.1,0.5c-1.5,1.1-2.9,2.3-4.2,3.7c-0.9,0.8-2.8,2.6-4.7,2.6
		c-0.2,0-0.5,0-0.7-0.1c-1.4-0.4-2.4-2-4.2-2.3c-0.2,0-0.4,0-0.6,0c-0.1,0-0.2,0-0.2,0c-0.8,0.1-1.5,0.4-2.1,0.9
		c-1.2,1.2-2.2,2.5-3,4.1c-0.8,1.3-2.7,4.2-5.1,4.5c-0.1,0-0.3,0-0.4,0c-2.2,0-3.9-2.1-5.8-2.1c-0.3,0-0.6,0.1-0.9,0.2
		c-0.4,0.2-0.7,0.4-1.1,0.7c-0.7,0.7-1.2,1.6-1.4,2.6c-0.8,2.5-1.3,4-2.6,4.9c-0.4,0.3-0.8,0.4-1.2,0.6c-0.6,0.2-1.2,0.3-1.8,0.3
		c-1.7,0-3.1-0.7-4.5-0.7c-0.5,0-1.1,0.1-1.6,0.4c-0.3,0.2-0.7,0.4-1,0.7c-0.7,0.8-1.2,1.7-1.4,2.7c-1,2.9-1.2,3.3-1.7,3.9
		c-0.4,0.5-0.9,0.9-1.5,1.1c-0.3,0.1-0.6,0.2-0.9,0.2c-0.5,0-1-0.1-2-0.1h-0.3c-1.3,0-2.2,0-2.9,0.6c-0.6,0.7-1,1.5-1.1,2.4
		c-0.1,0.6-0.2,1.3-0.4,1.9c-0.2,0.6-0.6,1.2-1,1.7c-0.8,1-2.7,1.7-5,1.7c-0.4,0-0.9,0-1.3-0.1c0-0.1,0-0.3,0-0.6
		c0.1-2.3,1-4.4,2.5-6.1c3.7-4.6,9.7-8.7,11.3-9.8c3.4-2.3,6.1-3.8,8-5c1.3-0.7,5.1-2.9,9.5-5.1c13.6-6.5,28.1-11.2,43-14
		C472.7,194.3,477.6,193.8,482.6,193.7 M482.6,193.3c-5,0.1-9.9,0.6-14.8,1.6c-14.9,2.8-29.4,7.5-43.1,14.1c-4,2-7.7,4.1-9.5,5.1
		c-1.8,1.1-4.6,2.7-8,5c-2.8,1.9-8.1,5.7-11.4,9.8c-1.6,1.7-2.5,4-2.6,6.3c0,0.2,0,0.4,0,0.6l0,0.3l0.3,0c0.5,0.1,0.9,0.1,1.4,0.1
		c2.3,0,4.3-0.7,5.3-1.8c0.4-0.5,0.8-1.1,1-1.8c0.1-0.4,0.2-0.7,0.3-1.1c0-0.3,0.1-0.5,0.2-0.8c0.1-0.8,0.5-1.6,1-2.2
		c0.5-0.5,1.2-0.5,2.6-0.5h0.3c0.4,0,0.9,0,1.3,0.1c0.3,0,0.5,0,0.7,0c0.3,0,0.7-0.1,1-0.2c0.7-0.3,1.2-0.7,1.7-1.2
		c0.6-0.6,0.7-1.1,1.7-4l0-0.1c0.2-0.9,0.7-1.8,1.3-2.5c0.3-0.2,0.6-0.5,0.9-0.6c0.4-0.2,0.9-0.3,1.4-0.3c0.7,0,1.3,0.1,2,0.3
		c0.8,0.2,1.7,0.4,2.6,0.4c0.7,0,1.3-0.1,1.9-0.3c0.5-0.1,0.9-0.4,1.3-0.6c1.4-1,2-2.7,2.8-5.1c0-0.1,0.1-0.2,0.1-0.3
		c0.2-0.8,0.6-1.6,1.2-2.2c0.3-0.2,0.6-0.4,1-0.6c0.2-0.1,0.5-0.1,0.7-0.1c0.9,0.1,1.7,0.4,2.5,0.9c1,0.7,2.1,1.1,3.3,1.2
		c0.1,0,0.3,0,0.4,0c2.6-0.3,4.5-3.4,5.4-4.7c0.1-0.2,0.2-0.4,0.4-0.6c0.7-1.2,1.5-2.4,2.6-3.3c0.5-0.4,1.2-0.7,1.9-0.8
		c0.1,0,0.1,0,0.2,0c0.2,0,0.3,0,0.5,0c0.9,0.2,1.7,0.6,2.3,1.2c0.5,0.5,1.2,0.8,1.8,1.1c0.3,0.1,0.5,0.1,0.8,0.1c2,0,4-1.9,4.9-2.7
		c0.3-0.3,0.6-0.6,0.9-0.9c1-1,2.1-2,3.2-2.8c0.3-0.2,0.6-0.3,1-0.4c0.1,0,0.2,0,0.3,0c0.6,0,1.1,0.2,1.6,0.6
		c0.3,0.1,0.5,0.3,0.8,0.4c1,0.5,2.1,0.7,3.2,0.8c0.2,0,0.4,0,0.6,0c1.5-0.2,2.5-1.1,4.2-2.5c0.2-0.1,0.3-0.3,0.5-0.4
		c0.7-0.6,1.4-1.1,2.2-1.5c0.5-0.2,1-0.4,1.6-0.4c0,0,0.1,0,0.1,0c0.3,0,0.7,0,1,0.2c0.4,0.2,0.6,0.6,0.7,1c0.2,0.6,0.6,1.2,1.1,1.6
		c0.3,0.2,0.7,0.4,1,0.5c0.3,0.1,0.6,0.2,1,0.2c1.2-0.1,2.4-0.6,3.5-1.3c1-0.7,2.1-1.1,3.3-1.3c0.8,0,1.5,0.3,2.1,0.9
		c0.3,0.4,0.5,0.9,0.5,1.4c0,0.5,0.1,1,0.4,1.4c0.4,0.4,0.9,0.5,1.4,0.5c0.6,0,1.2-0.1,1.8-0.2c0.8-0.1,1.8-0.3,3-0.4
		c0.7-0.1,1.4-0.1,1.8-0.1h0.2c0.2,0,0.5,0,0.7,0.1l0.5,0.2l0.1-0.5c0.1-0.7,0-1.3-0.2-1.9c-0.5-1.2-1.4-2.1-2.5-2.7
		c-1.3-0.7-2.6-1.2-4.1-1.4c-2.8-0.5-5.6-0.8-8.5-0.9C484.1,193.4,483.3,193.3,482.6,193.3L482.6,193.3z"/>
	<path id="Path_8" class="st3" d="M486.5,212c-0.7-1.2-1.7-2.2-2.8-3c-1.9-1.4-4.1-2.1-8.4-2.5c-3.3-0.3-6.5-0.3-9.8,0
		c-15.8,1.4-26,5.3-28.8,6.5c-0.4,0.2-0.7,0.3-0.8,0.3c-5.2,2.2-10.6,4.4-15.3,8.4c-2.3,2-6,5.2-7.7,10.6c-0.6,2-0.9,4-0.9,6.1
		c9.5-2.4,19.6-5.2,30-8.7C457.2,224.7,472,218.8,486.5,212"/>
	<path id="Path_9" class="st4" d="M486.5,212l0.2-0.1c-0.7-1.2-1.7-2.2-2.8-3.1c-1-0.8-2.1-1.3-3.3-1.7c-1.7-0.5-3.4-0.8-5.2-0.9
		c-1.8-0.2-3.5-0.2-5-0.2c-2.4,0-4.1,0.1-4.9,0.2c-6.5,0.6-13,1.7-19.3,3.3c-3.2,0.8-6.4,1.9-9.5,3.1c-0.4,0.2-0.7,0.3-0.8,0.3
		c-5.2,2.2-10.6,4.4-15.3,8.5c-2.3,2-6,5.2-7.8,10.7c-0.6,2-1,4.1-1,6.2v0.2l0.2-0.1c9.5-2.4,19.6-5.2,30.1-8.7
		c15.2-5,30-11,44.4-17.7l0.2-0.1l-0.1-0.2L486.5,212l-0.1-0.2c-14.4,6.8-29.3,12.7-44.4,17.7c-10.5,3.5-20.5,6.3-30,8.7l0,0.2h0.2
		c0-2.1,0.3-4.1,0.9-6.1c1.7-5.4,5.3-8.5,7.7-10.5c4.7-4,10-6.2,15.2-8.4c0.1,0,0.4-0.2,0.8-0.3c3.1-1.2,6.3-2.3,9.5-3.1
		c6.3-1.7,12.7-2.8,19.2-3.3c0.7-0.1,2.5-0.2,4.8-0.2c1.4,0,3.1,0.1,4.9,0.2c1.7,0.1,3.4,0.4,5.1,0.9c1.2,0.3,2.3,0.9,3.2,1.6
		c1.1,0.8,2,1.8,2.7,3L486.5,212l-0.1-0.2L486.5,212"/>
	<path id="Path_10" d="M482.9,194.3c0.3,0,0.7,0,1,0c13.4,0.2,15,3.4,15.3,4.3c0.2,0.8,0.2,1.6-0.1,2.4c-0.6,2.4-2.6,6-17.3,12.9
		c-5.4,2.5-10.3,4.4-15.2,6.4c-1.5,0.6-3,1.2-4.9,1.8c-4.8,1.7-8.3,2.7-10.1,3.3c-5.5,1.6-4.7,1.7-16.4,5.6c0,0-6.9,2.3-15.8,5
		c0,0-3.4,1-10.8,2.6c-2.1,0.5-4.2,0.8-6.3,0.8h0c-2.4,0-6.7,0-7.9-2.3c-0.7-1.3-0.2-2.8,0.3-4c2.8-6.7,10.4-11.9,16.4-15.6
		c5.2-3.2,10.6-6.1,16.1-8.7c4.9-2.2,9.8-4.2,14.9-5.9C454.1,198.7,467.2,194.3,482.9,194.3 M482.9,193.5c-7.4,0-14.8,1-22,2.8
		c-6.5,1.6-12.6,3.6-19.2,5.9c-5.1,1.7-10.1,3.7-14.9,5.9c-5.6,2.6-11,5.5-16.2,8.8c-3.3,2-6.5,4.3-9.5,6.8
		c-1.5,1.3-2.9,2.7-4.2,4.3c-1.2,1.5-2.3,3.2-3,5c-0.5,1.3-1.1,3.1-0.2,4.8c1.5,2.8,6,2.8,8.7,2.8h0c2.2,0,4.4-0.3,6.5-0.8
		c7.4-1.6,10.8-2.6,10.9-2.7c8.9-2.7,15.8-5,15.9-5c5.7-1.9,8.4-2.9,10.3-3.6c2.1-0.7,3.2-1.2,6-2l0.5-0.1c1.8-0.5,5.3-1.6,9.7-3.2
		c2-0.7,3.6-1.3,4.9-1.8c4.8-1.9,9.8-3.8,15.3-6.4c6.6-3.1,11.3-5.8,14.1-8.3c2.6-2.3,3.3-4,3.7-5.2c0.3-0.9,0.3-2,0-2.9
		c-0.6-1.4-1.8-2.5-3.2-3c-2.7-1.2-7.1-1.9-12.9-1.9C483.6,193.5,483.2,193.5,482.9,193.5"/>
	<path id="Path_11" d="M454,219.6c3.3-1.4,4.8-2.3,4.7-3c-0.1-0.8-2.6-1.1-3.8-1.2c-2.6-0.2-5.2-0.1-7.8,0.5
		c-3.2,0.7-6.4,1.6-9.5,2.8c-2.7,1-5.3,2.4-7.6,4.2c-0.5,0.4-1.4,1.1-1.2,1.6c0.2,0.6,2.2,0.4,3.2,0.3
		C440.1,223.9,445.4,223.3,454,219.6"/>
	<path id="Path_12" class="st5" d="M454,216.6c-0.3-0.9-7,0-12.1,1.6c-3.2,1-6.3,2.4-9.2,4.1l0.4,0.1c-0.7,2.2-1.1,4.5-1.1,6.8
		c0.1,2.6,0.6,5.2,1.4,7.6c0.9,3,2.4,5.9,4.3,8.3c2.4,3,5.5,5.4,8.9,7c2.5,1.1,5.1,1.9,7.8,2.3c0.9,0.1,1.7,0.2,2.6,0.2
		c0.1,0,0.3,0,0.4,0c3.8,0,7.5-0.9,10.8-2.5c2.5-1.2,4.8-2.8,6.8-4.7c1-1,2.2-1.8,2.6-2.2c2.4-2.9,4.1-6.4,4.9-10
		c-1.6,1.5-3.4,2.7-5.4,3.5c-2.4,1.3-5,2-7.7,2.1v-0.2c-6.4,0.3-12.3-3.3-15-9c-0.1-0.2-0.2-0.4-0.2-0.5c-1-2.4-1.5-4.9-1.4-7.5
		c0-1.5,0.3-5.1,1.1-6.8C454,216.8,454,216.7,454,216.6 M454.6,216.4L454.6,216.4"/>
	<path id="Path_13" d="M450.7,216.2c-1.5,3-2.2,6.3-2.3,9.7c-0.1,4.6,1.6,9,4.6,12.3c2.1,2.2,4.7,3.8,7.7,4.6c1.5,0.4,3,0.7,4.6,0.7
		h0.2c3.2,0,6.2-0.9,8.9-2.5c0.9-0.6,1.8-1.2,2.6-1.9c0.4-0.4,0.9-0.8,1.3-1.2l-0.3-0.3c-0.4,0.4-0.8,0.8-1.2,1.2
		c-1.3,1.1-2.8,2.1-4.3,2.8c-2.2,1-4.5,1.5-7,1.5h-0.2c-1.5-0.1-3-0.3-4.5-0.7c-2.8-0.8-5.4-2.3-7.5-4.5c-3-3.3-4.6-7.6-4.5-12
		c0-3.3,0.8-6.5,2.2-9.5L450.7,216.2L450.7,216.2"/>
	<path id="Path_14" d="M454.2,216.2c0,0.1-0.1,0.1-0.1,0.2c0,0.1-0.1,0.1-0.1,0.1c-0.9,2.3-1.4,4.7-1.5,7.1
		c-0.2,2.9,0.4,5.8,1.6,8.5c1.2,2.4,3,4.5,5.2,6c3,1.9,6.4,2.9,10,2.7c2.7-0.1,5.4-0.7,7.8-1.8c0.9-0.5,1.8-1,2.7-1.6
		c0.9-0.7,1.8-1.4,2.6-2.3c-0.4,1.7-1.1,3.4-1.9,5c-2.8,5.3-7.2,9.4-12.7,11.8c-3.7,1.6-7.8,2.3-11.9,2c-6.6-0.6-12.8-3.7-17.3-8.7
		c-4-4.4-6.4-10.1-6.6-16.1c-0.1-2.5,0.3-5,1-7.4l-0.6,0.5l-0.4-0.1c-0.6,2.3-0.9,4.7-0.9,7.1c0,2.7,0.4,5.3,1.1,7.9
		c1.7,5.8,5.5,10.9,10.6,14.1c2.8,1.7,5.8,2.9,8.9,3.7c1.1,0.3,2.2,0.6,3.3,0.7c3.4,0.4,6.9,0,10.2-1.1c5.1-1.5,9.6-4.4,13-8.4
		c3.1-3.5,5.1-7.9,5.6-12.6c0.1-0.9,0.1-1.8,0.1-2.6c-1.9,3.2-4.7,5.8-8.1,7.3c-2.2,1-4.5,1.5-6.9,1.5c-3.3,0.1-6.5-0.9-9.2-2.7
		c-2.1-1.5-3.8-3.5-4.9-5.8c-1.1-2.3-1.7-4.9-1.7-7.5c0-2.5,0.5-4.9,1.5-7.1C454.4,216.2,454.2,216.2,454.2,216.2"/>
	<path id="Path_15" class="st6" d="M477.2,239.1c-0.1,0-0.2,0.1-0.3,0.1l0,0C477,239.2,477.1,239.2,477.2,239.1 M477.2,239.1
		L477.2,239.1L477.2,239.1 M479.9,237.5c-0.8,0.6-1.7,1.1-2.7,1.6C478.2,238.7,479.1,238.1,479.9,237.5 M480,237.5L480,237.5
		L480,237.5 M480,237.4L480,237.4L480,237.4 M480.1,237.4L480.1,237.4L480.1,237.4 M480.1,237.4L480.1,237.4L480.1,237.4
		 M480.1,237.4L480.1,237.4L480.1,237.4 M480.1,237.4L480.1,237.4L480.1,237.4 M480.2,237.4L480.2,237.4L480.2,237.4 M480.2,237.4
		L480.2,237.4L480.2,237.4 M480.2,237.3L480.2,237.3L480.2,237.3 M480.2,237.3L480.2,237.3L480.2,237.3 M480.2,237.3L480.2,237.3
		L480.2,237.3 M480.3,237.3L480.3,237.3L480.3,237.3 M480.3,237.3L480.3,237.3L480.3,237.3 M480.3,237.3L480.3,237.3L480.3,237.3
		 M480.3,237.2L480.3,237.2L480.3,237.2 M480.3,237.2L480.3,237.2L480.3,237.2 M480.4,237.2L480.4,237.2L480.4,237.2 M480.4,237.2
		L480.4,237.2L480.4,237.2 M480.4,237.2L480.4,237.2L480.4,237.2 M480.4,237.2L480.4,237.2L480.4,237.2 M480.4,237.2L480.4,237.2
		L480.4,237.2 M480.6,237.1L480.6,237.1L480.6,237.1 M480.6,237L480.6,237L480.6,237 M480.6,237L480.6,237L480.6,237 M480.6,237
		L480.6,237L480.6,237 M480.6,237L480.6,237L480.6,237 M480.7,237L480.7,237L480.7,237 M480.7,237L480.7,237L480.7,237 M480.7,237
		L480.7,237L480.7,237 M480.7,236.9L480.7,236.9L480.7,236.9 M480.8,236.9L480.8,236.9L480.8,236.9 M480.8,236.9L480.8,236.9"/>
	<path id="Path_16" d="M450.9,216c-5.2,0.3-10.3,1.7-14.9,4.2c0,0.1,0,0.2-0.1,0.4c1.9-0.9,3.9-1.7,6-2.4c2.8-0.9,5.7-1.5,8.7-1.8
		c0-0.1,0.1-0.1,0.1-0.2l0,0l0.1,0.1C450.8,216.1,450.9,216.1,450.9,216"/>
	<path id="Path_17" class="st7" d="M450.6,216.4c-2.9,0.4-5.8,1-8.7,1.8c-2.1,0.6-4.1,1.4-6,2.4c-0.5,2.4-2.4,15.4,6.8,24.1
		c4,3.7,9.2,6,14.8,6.4c0.5,0,1.1,0.1,1.9,0.1c5.9,0.1,11.6-2,15.9-6c2.4-2.3,4.3-5.2,5.5-8.3l0,0l0,0l0,0l0,0l0,0l0,0l0,0l0,0l0,0
		l0,0l0,0l0,0l0,0l0,0l0,0l0,0l0,0l0,0h0l0,0l0,0l-0.1,0.1l0,0l0,0l0,0l0,0l0,0l0,0l0,0l0,0l0,0l0,0h0l0,0l0,0l0,0l0,0l0,0l0,0l0,0
		l0,0l0,0l0,0l0,0h0l0,0h0l0,0h0l0,0h0l0,0h0l0,0h0l0,0h0l0,0l0,0l0,0l0,0l0,0l0,0l-0.1,0.1l0,0c-0.8,0.6-1.7,1.1-2.7,1.6l0,0l0,0
		l0,0h0l0,0c-0.1,0-0.2,0.1-0.3,0.1c-0.8,0.7-1.6,1.3-2.5,1.8c-2.7,1.6-5.8,2.5-8.9,2.5h-0.2c-1.6-0.1-3.1-0.3-4.6-0.7
		c-2.9-0.8-5.6-2.4-7.7-4.6c-3.1-3.4-4.7-7.7-4.6-12.3C448.4,222.6,449.2,219.4,450.6,216.4"/>
	<path id="Path_18" d="M450.7,216.2L450.7,216.2c0,0.1-0.1,0.1-0.1,0.2c-1.4,3-2.1,6.2-2.1,9.5c-0.1,4.6,1.6,9,4.6,12.3
		c2.1,2.2,4.7,3.8,7.7,4.6c1.5,0.4,3,0.7,4.6,0.7h0.2c3.2,0,6.2-0.9,8.9-2.5c0.9-0.5,1.7-1.1,2.5-1.8l0,0c-0.3,0.2-0.7,0.3-1,0.4
		c-1.7,1.4-3.7,2.4-5.8,3c-1.5,0.4-3.1,0.6-4.7,0.6c-3,0-5.9-0.7-8.4-2.2c-3.6-2.2-6.3-5.6-7.5-9.6c-1.6-5-1.1-10.5,1.3-15.2
		L450.7,216.2"/>
	<path id="Path_19" d="M481.1,236l-4.6,3.2c-0.2,0.1-0.4,0.3-0.6,0.5c0.3-0.1,0.7-0.3,1-0.4c0.1,0,0.2-0.1,0.3-0.1l0,0h0l0,0l0,0
		l0,0c0.9-0.5,1.8-1,2.7-1.6l0,0l0.1-0.1l0,0l0,0l0,0l0,0l0,0l0,0h0l0,0h0l0,0h0l0,0h0l0,0h0l0,0h0l0,0h0l0,0l0,0l0,0l0,0l0,0l0,0
		l0,0l0,0l0,0l0,0l0,0h0l0,0l0,0l0,0l0,0l0,0l0,0l0,0l0,0l0,0l0,0l0.1-0.1l0,0l0,0h0l0,0l0,0l0,0l0,0l0,0l0,0l0,0l0,0l0,0l0,0l0,0
		l0,0l0,0l0,0l0,0l0,0l0,0l0,0C480.9,236.6,481,236.3,481.1,236"/>
	<path id="Path_20" class="st8" d="M439.7,234.1c-3.2,0-6.3-0.5-9.3-1.5c1.6-0.1,3.2-0.5,4.7-1c2.2-0.8,4.2-1.8,6.1-3.2
		c1.7-1.2,3.3-2.5,4.8-4c1.5-1.4,2.6-2.4,3.6-2.4c0.1,0,0.3,0,0.4,0c0.5,0.2,1,0.5,1.3,0.9l0.5,0.6l0.3-0.7c0.2-0.5,0.5-0.9,0.9-1.1
		c0.1,0,0.2-0.1,0.4-0.1c1,0.2,1.9,0.7,2.6,1.4c0.4,0.4,0.9,0.7,1.4,1c1,0.6,2.1,0.9,3.3,0.8c2.4-0.1,4.8-0.8,6.9-1.9
		c-1.4,1.3-3,2.5-4.6,3.7c-3,2.1-5.5,3.2-7.5,3.2c-0.9,0-1.7-0.2-2.4-0.8l-0.3-0.2l-0.3,0.3c-1,1.1-2.1,2-3.3,2.7
		c-2.4,1.3-5,1.9-7.7,2C440.9,234.1,440.3,234.1,439.7,234.1z"/>
	<path id="Path_21" d="M453.4,222.2c0.9,0.2,1.7,0.7,2.3,1.3c0.4,0.4,0.9,0.7,1.4,1c1.1,0.6,2.3,0.9,3.5,0.9c1.5,0,3.1-0.3,4.5-0.9
		c-0.7,0.6-1.6,1.2-2.4,1.8c-2.9,2.1-5.3,3.1-7.2,3.1c-0.8,0-1.5-0.2-2.2-0.7l-0.6-0.5l-0.5,0.6c-0.9,1-2,1.9-3.2,2.6
		c-2.3,1.2-4.9,1.9-7.5,2c-0.5,0-1.1,0.1-1.7,0.1c-2.4,0-4.8-0.3-7.2-0.9c0.9-0.2,1.9-0.4,2.8-0.7c2.2-0.8,4.3-1.9,6.2-3.2
		c1.7-1.2,3.3-2.6,4.8-4c1.4-1.3,2.4-2.3,3.3-2.3c0.1,0,0.2,0,0.3,0c0.4,0.1,0.8,0.4,1,0.8l0.9,1.2l0.6-1.4c0.1-0.3,0.4-0.6,0.7-0.8
		C453.2,222.2,453.3,222.2,453.4,222.2L453.4,222.2 M453.4,221.3c-0.2,0-0.4,0-0.5,0.1c-0.6,0.3-1,0.7-1.2,1.3
		c-0.4-0.5-0.9-0.9-1.5-1.1c-0.2,0-0.3-0.1-0.5-0.1c-2.1,0-3.9,3.2-8.6,6.5c-1.8,1.3-3.8,2.4-6,3.1c-2.1,0.7-4.3,1-6.5,1
		c-0.1,0-0.3,0-0.4,0c3.7,1.5,7.6,2.3,11.6,2.3c0.6,0,1.1,0,1.7-0.1c2.8-0.1,5.5-0.8,7.9-2.1c1.3-0.8,2.4-1.7,3.4-2.8
		c0.8,0.6,1.7,0.9,2.7,0.9c2.4,0,5.2-1.5,7.7-3.3c2.3-1.6,4.5-3.4,6.3-5.6c-4,2.2-6.9,3-8.9,3c-1.1,0-2.1-0.2-3-0.8
		C456.2,223.1,454.7,221.3,453.4,221.3L453.4,221.3z"/>
</g>
</svg>
