<?xml version="1.0" encoding="UTF-8"?>
<svg id="katman_1" data-name="katman 1" xmlns="http://www.w3.org/2000/svg" viewBox="0 0 300 100">
  <defs>
    <style>
      .cls-1 {
        fill: #021323;
      }

      .cls-2 {
        fill: #fe0022;
      }

      .cls-3 {
        fill: #ffa229;
      }

      .cls-4 {
        fill: #ff9000;
      }

      .cls-5 {
        fill: #ccc;
      }

      .cls-6 {
        fill: #dc7d00;
      }

      .cls-7 {
        fill: #cb001b;
      }

      .cls-8 {
        fill: #36edab;
      }

      .cls-9 {
        fill: #603813;
      }
    </style>
  </defs>
  <g id="Group_1" data-name="Group 1" transform="translate(-295.987 -172)">
    <path id="Path_1" data-name="Path 1" class="cls-3" d="M154.13,27.6s-7.63-11.77-15.15-9.01-8.55,14.46-7.98,17.56"/>
    <path id="Path_2" data-name="Path 2" d="M154.5,27.36c-1.16-1.72-2.49-3.32-3.95-4.79-1.25-1.27-2.65-2.39-4.17-3.31-.77-.46-1.59-.83-2.44-1.11-.84-.28-1.72-.42-2.6-.43-.86,0-1.71,.15-2.51,.45-1.62,.61-3.05,1.62-4.16,2.94-.82,.97-1.51,2.05-2.05,3.2-.79,1.69-1.37,3.48-1.71,5.32-.31,1.54-.46,3.1-.48,4.66,0,.39,.01,.75,.04,1.08,.02,.29,.05,.57,.1,.86l.86-.16c-.04-.25-.08-.51-.09-.76-.02-.3-.03-.64-.03-1.01,0-1.32,.13-2.64,.36-3.94,.38-2.36,1.16-4.63,2.31-6.73,.58-1.03,1.32-1.97,2.17-2.78,.86-.81,1.88-1.44,2.98-1.85,.71-.26,1.45-.39,2.21-.39,.79,0,1.58,.14,2.33,.38,1.4,.48,2.7,1.19,3.86,2.1,1.66,1.29,3.16,2.77,4.48,4.4,.55,.67,.99,1.26,1.29,1.68,.15,.21,.27,.38,.34,.49,.04,.06,.07,.1,.09,.13l.02,.03h0l.74-.47h0Z"/>
    <path id="Path_3" data-name="Path 3" class="cls-3" d="M105.86,67.52c-2.6,0-6.96,0-8.31-2.53-.78-1.46-.22-3.21,.27-4.39,1.63-3.55,4.06-6.66,7.1-9.1,2.96-2.48,6.11-4.73,9.43-6.71,5.21-3.24,10.61-6.16,16.17-8.75,4.87-2.22,9.84-4.2,14.9-5.93,6.64-2.3,12.67-4.33,19.18-5.9,7.17-1.78,14.52-2.7,21.91-2.74,.34,0,.68,0,1.01,0,5.76,.07,10.03,.71,12.7,1.9,1.33,.45,2.4,1.43,2.98,2.71,.26,.87,.24,1.8-.05,2.66-.33,1.25-1.01,2.82-3.53,4.98-2.84,2.44-7.43,5.12-14.04,8.22-5.43,2.54-10.41,4.49-15.24,6.38-1.29,.51-2.88,1.12-4.89,1.84-4.43,1.59-7.84,2.6-9.67,3.14l-.46,.14c-2.81,.84-3.95,1.25-6.02,2-1.97,.72-4.67,1.7-10.33,3.6-.07,.02-6.99,2.35-15.85,5.01-.14,.04-3.54,1.05-10.88,2.65-2.09,.52-4.23,.79-6.39,.81h-.02"/>
    <path id="Path_4" data-name="Path 4" class="cls-4" d="M176.72,22.05c1.85,2.22,3.05,4.91,3.48,7.77,.2,1.43,.2,2.89,0,4.32,2.34-.05,4.63,.61,6.58,1.89,1.43,.96,2.62,2.24,3.48,3.73,2.16-.97,4.22-2.14,6.16-3.5,3.63-2.55,6.93-4.86,6.93-8.05-.06-1.32-.55-2.59-1.42-3.6-1.48-1.9-3.97-2.93-11.02-3.21-4.74-.19-9.49,.03-14.19,.65Z"/>
    <path id="Path_5" data-name="Path 5" class="cls-4" d="M115.32,44.04c2.77-.11,5.54,.31,8.16,1.24,1.32,.47,2.59,1.06,3.79,1.78-2.28,1.37-9.15,5.9-11.02,14.12-.36,1.6-.52,3.24-.46,4.88-2.09,.59-4.22,1.02-6.37,1.26-4.21,.48-9.3,1.05-11.42-1.78-.27-.36-.49-.77-.63-1.2-1.19-3.64,3.09-8,6.71-11.61,3.37-3.35,7.15-6.27,11.24-8.69Z"/>
    <path id="Path_6" data-name="Path 6" class="cls-8" d="M98.66,63.71c-.45,0-.9-.03-1.35-.08l-.15-.02-.02-.15c-.02-.21-.04-.42-.04-.63,.09-2.3,.98-4.5,2.53-6.2,3.29-4.09,8.5-7.89,11.32-9.79,3.44-2.32,6.19-3.92,8.02-4.98,1.8-1.05,5.43-3.1,9.48-5.1,13.66-6.54,28.12-11.27,43.01-14.06,4.86-.98,9.79-1.52,14.75-1.6,.77,0,1.54,.02,2.34,.05,2.83,.05,5.65,.34,8.44,.86,3.58,.78,5.74,2.12,6.41,4,.2,.59,.27,1.22,.2,1.85l-.03,.25-.23-.1c-.25-.08-.51-.12-.77-.1h-.18c-.36,0-1.06,0-1.77,.06-1.22,.09-2.21,.24-3.01,.37-.57,.11-1.15,.18-1.73,.2-.45,.04-.9-.12-1.22-.44-.28-.36-.42-.81-.39-1.26,.02-.56-.15-1.1-.5-1.54-.57-.62-1.36-.97-2.2-.97-1.22,.14-2.39,.58-3.4,1.28-1,.7-2.16,1.13-3.37,1.27-.31,0-.61-.05-.9-.14-.35-.1-.68-.27-.97-.49-.47-.4-.82-.93-.99-1.53-.11-.47-.4-.88-.8-1.14-.33-.16-.7-.23-1.07-.21h-.12c-.58,0-1.15,.15-1.67,.41-.83,.41-1.59,.93-2.26,1.57-.15,.13-.3,.26-.46,.4-1.71,1.44-2.75,2.31-4.15,2.49-.19,.02-.39,.04-.58,.04-1.07-.05-2.12-.31-3.08-.78-.3-.14-.57-.28-.83-.42-.51-.34-1.1-.54-1.7-.59-.1,0-.21,0-.31,.02-.39,.06-.75,.21-1.08,.43-1.2,.8-2.29,1.74-3.27,2.8-.32,.33-.63,.63-.91,.9-.86,.79-2.88,2.63-4.78,2.63-.25,0-.51-.03-.75-.1-.65-.23-1.25-.58-1.77-1.03-.69-.61-1.52-1.04-2.42-1.26-.18-.03-.36-.04-.54-.04-.08,0-.15,0-.22,0-.72,.08-1.41,.37-1.97,.84-1.05,.97-1.93,2.11-2.6,3.38-.14,.23-.27,.45-.38,.63-.81,1.29-2.71,4.3-5.22,4.6-.14,.02-.27,.02-.41,.02-1.15-.1-2.25-.49-3.2-1.13-.76-.53-1.64-.86-2.56-.96-.27,0-.54,.05-.79,.15-.37,.15-.71,.36-1.02,.62-.62,.61-1.05,1.39-1.23,2.24-.03,.09-.06,.19-.09,.28-.8,2.42-1.33,4.02-2.71,4.99-.38,.26-.79,.46-1.23,.6-.6,.21-1.23,.31-1.87,.31-.85-.03-1.69-.16-2.51-.38-.65-.18-1.33-.29-2.01-.32-.51,0-1.01,.11-1.47,.35-.33,.18-.64,.4-.91,.66-.67,.74-1.15,1.63-1.37,2.6l-.02,.06c-1.01,2.88-1.17,3.32-1.7,3.91-.43,.51-.98,.91-1.6,1.16-.3,.12-.62,.17-.94,.17-.21,0-.43-.02-.69-.05-.43-.05-.87-.07-1.31-.08h-.32c-1.3,0-2.12,.04-2.73,.57-.57,.64-.93,1.43-1.05,2.28-.07,.28-.13,.56-.17,.84-.04,.36-.13,.72-.26,1.06-.25,.61-.59,1.19-1.01,1.7-.92,1.1-2.89,1.78-5.14,1.78h-.01Z"/>
    <path id="Path_7" data-name="Path 7" d="M186.21,21.29c.79,0,1.57,.02,2.33,.05,4.34,.18,13.18,.54,14.68,4.74,.2,.57,.27,1.17,.2,1.77-.27-.09-.56-.13-.85-.12h-.18c-.33,0-1.05,0-1.78,.06-2.3,.16-3.77,.57-4.73,.57-.4,.04-.8-.1-1.08-.38-.65-.7,.02-1.72-.88-2.79-.6-.66-1.45-1.03-2.34-1.04-2.34,0-4.56,2.55-6.77,2.55-.29,0-.57-.04-.84-.13-.33-.1-.64-.25-.92-.46-1.12-.87-.81-2.12-1.84-2.68-.36-.17-.75-.25-1.15-.23h-.13c-.61,0-1.2,.15-1.75,.42-1.01,.52-1.94,1.19-2.76,1.99-1.73,1.45-2.7,2.27-4.06,2.45-.18,.02-.37,.04-.56,.04-1.04-.04-2.06-.3-3-.76-.79-.52-1.68-.87-2.61-1.02-.11,0-.22,0-.34,.02-.41,.07-.8,.22-1.15,.46-1.53,1.09-2.94,2.33-4.22,3.71-.86,.79-2.82,2.58-4.66,2.58-.24,0-.47-.03-.7-.1-1.36-.39-2.43-2-4.21-2.3-.19-.03-.38-.05-.57-.05-.11,0-.19,0-.23,0-.76,.08-1.48,.39-2.07,.88-1.22,1.18-2.24,2.55-3.02,4.06-.81,1.28-2.66,4.23-5.09,4.51-.13,.02-.26,.02-.39,.02-2.17,0-3.91-2.1-5.76-2.1-.29,0-.58,.05-.85,.16-.39,.16-.75,.38-1.07,.65-.7,.71-1.18,1.62-1.38,2.6-.81,2.46-1.34,3.98-2.64,4.9-.36,.25-.76,.44-1.19,.57-.58,.2-1.19,.3-1.81,.3-1.68,0-3.12-.71-4.52-.71-.54,0-1.07,.12-1.55,.37-.35,.19-.67,.42-.96,.69-.69,.76-1.18,1.68-1.42,2.68-1.02,2.9-1.17,3.34-1.68,3.9-.41,.49-.94,.87-1.53,1.11-.28,.11-.58,.16-.88,.16-.49,0-1.02-.12-1.99-.12h-.32c-1.34,0-2.2,.04-2.85,.61-.6,.66-.99,1.49-1.11,2.37-.1,.63-.24,1.26-.42,1.88-.24,.6-.57,1.15-.98,1.65-.84,1.01-2.7,1.71-5,1.71-.44,0-.89-.03-1.33-.08-.01-.13-.03-.35-.04-.61,.09-2.26,.97-4.41,2.49-6.08,3.67-4.56,9.69-8.68,11.28-9.76,3.36-2.27,6.06-3.85,8.01-4.97,1.28-.74,5.09-2.93,9.47-5.1,13.65-6.53,28.09-11.25,42.96-14.04,4.84-.99,9.77-1.52,14.71-1.6m0-.37c-4.96,.08-9.91,.62-14.78,1.6-14.9,2.79-29.38,7.52-43.06,14.07-4.05,2-7.68,4.06-9.49,5.11-1.83,1.06-4.58,2.66-8.03,4.99-2.82,1.91-8.05,5.72-11.36,9.83-1.57,1.74-2.48,3.98-2.57,6.32,0,.21,.02,.43,.04,.64l.03,.29,.29,.03c.46,.05,.91,.08,1.37,.08,2.31,0,4.33-.71,5.28-1.85,.43-.53,.78-1.12,1.04-1.76,.13-.35,.23-.72,.27-1.09,.04-.28,.09-.55,.16-.82,.11-.81,.46-1.57,1-2.19,.54-.47,1.24-.52,2.61-.52h.32c.43,0,.86,.03,1.29,.07,.26,.03,.48,.05,.7,.05,.34,0,.68-.06,1-.18,.65-.26,1.23-.67,1.67-1.21,.56-.62,.72-1.07,1.74-3.97l.02-.06c.22-.94,.67-1.82,1.32-2.53,.26-.25,.55-.46,.87-.63,.43-.22,.9-.33,1.38-.33,.66,.03,1.32,.14,1.96,.32,.83,.23,1.69,.36,2.56,.39,.66,0,1.31-.11,1.93-.32,.45-.14,.89-.35,1.28-.62,1.43-1,1.99-2.71,2.78-5.08,.03-.1,.06-.19,.09-.28,.17-.82,.58-1.57,1.18-2.16,.29-.24,.61-.44,.96-.59,.23-.09,.47-.14,.72-.14,.89,.11,1.73,.43,2.47,.94,.98,.67,2.11,1.06,3.29,1.16,.14,0,.29,0,.43-.02,2.6-.31,4.53-3.37,5.36-4.68,.12-.19,.25-.4,.38-.63,.66-1.25,1.52-2.37,2.56-3.33,.53-.45,1.18-.72,1.87-.8,.07,0,.14,0,.21,0,.17,0,.34,.01,.51,.04,.87,.21,1.67,.63,2.34,1.22,.54,.46,1.16,.82,1.83,1.06,.26,.07,.53,.11,.8,.11,1.98,0,4.03-1.88,4.91-2.68,.29-.26,.59-.57,.92-.9,.97-1.05,2.06-1.98,3.24-2.77,.3-.21,.64-.35,1-.41,.09-.01,.19-.02,.28-.02,.58,.05,1.14,.24,1.62,.57,.26,.14,.53,.28,.84,.42,.99,.48,2.06,.75,3.15,.79,.2,0,.4-.01,.6-.04,1.46-.19,2.51-1.07,4.24-2.53,.16-.13,.31-.27,.46-.4,.65-.62,1.4-1.14,2.21-1.54,.49-.25,1.04-.38,1.59-.39h.12c.34-.02,.68,.04,.98,.18,.36,.25,.62,.62,.72,1.05,.19,.63,.56,1.18,1.07,1.6,.31,.23,.66,.41,1.03,.52,.31,.1,.63,.15,.96,.15,1.24-.14,2.43-.58,3.46-1.29,.98-.68,2.12-1.12,3.31-1.26,.78,0,1.53,.33,2.06,.91,.32,.4,.48,.91,.45,1.43-.03,.5,.12,.99,.44,1.38,.36,.35,.85,.53,1.35,.5,.59-.02,1.18-.09,1.76-.2,.79-.13,1.78-.28,2.99-.37,.7-.05,1.4-.06,1.76-.06h.18c.24-.02,.47,.01,.7,.08l.46,.21,.05-.51c.07-.65,0-1.31-.21-1.93-.47-1.17-1.35-2.12-2.48-2.68-1.28-.67-2.65-1.16-4.06-1.43-2.79-.52-5.62-.82-8.47-.87-.81-.03-1.58-.04-2.35-.04h.01Z"/>
    <path id="Path_8" data-name="Path 8" class="cls-6" d="M190.09,39.59c-.73-1.16-1.66-2.18-2.76-3.01-1.87-1.42-4.06-2.12-8.41-2.5-3.27-.29-6.55-.29-9.82,0-15.76,1.4-26.01,5.34-28.78,6.46-.38,.15-.68,.28-.77,.32-5.24,2.17-10.58,4.37-15.27,8.44-2.33,2.02-5.98,5.18-7.72,10.62-.63,1.98-.95,4.04-.95,6.11,9.52-2.36,19.57-5.22,30.05-8.69,15.15-5.03,29.98-10.95,44.42-17.73"/>
    <path id="Path_9" data-name="Path 9" class="cls-9" d="M190.09,39.59l.15-.1c-.74-1.18-1.69-2.22-2.8-3.06-1-.76-2.13-1.32-3.33-1.67-1.69-.46-3.42-.75-5.17-.87-1.84-.16-3.52-.21-4.97-.21-2.39,0-4.14,.15-4.88,.21-6.51,.56-12.97,1.68-19.29,3.34-3.24,.85-6.43,1.89-9.55,3.13-.38,.15-.68,.28-.78,.32-5.24,2.17-10.6,4.38-15.32,8.47-2.33,2.02-6.02,5.21-7.77,10.7-.64,1.99-.96,4.07-.96,6.17v.23l.23-.06c9.52-2.36,19.58-5.22,30.06-8.7,15.15-5.03,29.99-10.96,44.44-17.74l.19-.09-.11-.18-.15,.1-.08-.17c-14.44,6.78-29.26,12.7-44.4,17.73-10.47,3.48-20.52,6.33-30.03,8.69l.04,.18h.18c0-2.06,.31-4.1,.94-6.06,1.73-5.38,5.33-8.51,7.67-10.54,4.66-4.04,9.97-6.24,15.22-8.41,.1-.04,.39-.16,.77-.32,3.1-1.23,6.27-2.27,9.5-3.12,6.3-1.66,12.74-2.77,19.23-3.33,.73-.07,2.47-.21,4.85-.21,1.44,0,3.11,.05,4.94,.21,1.72,.11,3.43,.4,5.09,.85,1.16,.33,2.25,.88,3.22,1.61,1.07,.82,1.99,1.82,2.71,2.96l.15-.1-.08-.17,.08,.17"/>
    <path id="Path_10" data-name="Path 10" d="M186.53,21.91c.33,0,.67,0,1.01,0,13.37,.16,14.95,3.37,15.27,4.3,.23,.79,.21,1.63-.06,2.41-.62,2.35-2.64,6.04-17.33,12.91-5.41,2.53-10.3,4.45-15.21,6.37-1.46,.57-3,1.16-4.88,1.84-4.8,1.72-8.32,2.74-10.1,3.27-5.47,1.63-4.67,1.67-16.36,5.61,0,0-6.88,2.32-15.84,5.01,0,0-3.41,1.02-10.85,2.64-2.06,.51-4.17,.78-6.29,.8h-.02c-2.43,0-6.69,0-7.92-2.3-.67-1.26-.21-2.8,.29-4.02,2.77-6.71,10.4-11.93,16.36-15.61,5.2-3.23,10.58-6.14,16.13-8.72,4.85-2.22,9.81-4.19,14.86-5.91,12.17-4.21,25.23-8.62,40.95-8.62m0-.88c-7.42,.04-14.81,.96-22.01,2.75-6.53,1.57-12.57,3.61-19.23,5.91-5.08,1.73-10.07,3.71-14.95,5.94-5.58,2.6-11,5.53-16.22,8.77-3.34,2-6.51,4.25-9.49,6.76-1.53,1.31-2.93,2.75-4.2,4.3-1.24,1.5-2.25,3.18-3.02,4.97-.52,1.27-1.12,3.14-.25,4.77,1.48,2.75,6,2.76,8.69,2.76h.02c2.18-.02,4.36-.3,6.48-.82,7.39-1.6,10.77-2.62,10.91-2.66,8.87-2.67,15.79-4.99,15.86-5.01,5.67-1.91,8.37-2.89,10.34-3.61,2.06-.75,3.19-1.16,5.99-1.99l.46-.13c1.84-.54,5.25-1.56,9.69-3.15,2.01-.72,3.61-1.34,4.9-1.85,4.83-1.89,9.82-3.85,15.26-6.39,6.65-3.11,11.27-5.82,14.14-8.28,2.63-2.26,3.34-3.97,3.67-5.21,.31-.95,.32-1.96,.04-2.92-.61-1.4-1.77-2.47-3.21-2.97-2.73-1.22-7.06-1.87-12.88-1.94-.34,0-.68,0-1.02,0"/>
    <path id="Path_11" data-name="Path 11" d="M157.67,47.19c3.34-1.41,4.84-2.28,4.72-2.96-.14-.82-2.56-1.07-3.84-1.2-2.61-.24-5.25-.06-7.81,.54-3.24,.69-6.43,1.64-9.53,2.83-2.73,1.01-5.3,2.41-7.61,4.17-.55,.43-1.38,1.12-1.22,1.56,.22,.61,2.22,.39,3.17,.28,8.13-.94,13.47-1.56,22.12-5.2"/>
    <path id="Path_12" data-name="Path 12" class="cls-2" d="M157.61,44.19c-.29-.93-6.99,.04-12.09,1.61-3.23,1-6.34,2.39-9.24,4.13l.42,.12c-.73,2.19-1.11,4.48-1.12,6.79,.1,2.6,.56,5.17,1.36,7.64,.89,3.04,2.36,5.87,4.34,8.34,2.39,3,5.46,5.39,8.95,6.99,2.48,1.14,5.12,1.91,7.83,2.28,.86,.12,1.73,.19,2.6,.21h.4c3.75,0,7.46-.86,10.83-2.52,2.49-1.22,4.78-2.8,6.81-4.69,1.04-.96,2.24-1.78,2.6-2.21,2.37-2.93,4.05-6.37,4.9-10.05-1.57,1.49-3.4,2.67-5.4,3.48-2.39,1.28-5.03,2.02-7.74,2.15v-.25c-6.37,.31-12.29-3.26-15-9.02-.11-.23-.2-.41-.22-.47-1.01-2.36-1.49-4.92-1.4-7.48-.01-1.5,.27-5.14,1.15-6.81,.04-.07,.06-.15,.04-.23m.62-.2h0"/>
    <path id="Path_13" data-name="Path 13" d="M154.3,43.73c-1.47,3.03-2.24,6.34-2.26,9.71-.09,4.56,1.57,8.97,4.63,12.35,2.1,2.19,4.75,3.78,7.67,4.6,1.49,.45,3.03,.7,4.58,.75h.24c3.15-.01,6.24-.89,8.93-2.53,.93-.56,1.81-1.2,2.63-1.91,.45-.38,.87-.79,1.27-1.22l-.32-.3c-.39,.42-.8,.81-1.23,1.19-1.3,1.13-2.75,2.07-4.32,2.79-2.18,1.01-4.55,1.54-6.95,1.54h-.23c-1.51-.05-3.01-.3-4.46-.73-2.85-.8-5.43-2.35-7.47-4.48-2.98-3.29-4.6-7.6-4.51-12.05,.02-3.3,.77-6.55,2.21-9.52l-.4-.19h0"/>
    <path id="Path_14" data-name="Path 14" d="M157.83,43.8c-.04,.06-.06,.12-.08,.19-.03,.08-.06,.13-.06,.14-.88,2.29-1.37,4.7-1.46,7.15-.19,2.91,.37,5.83,1.63,8.46,1.21,2.4,3.01,4.45,5.22,5.97,2.95,1.94,6.44,2.9,9.97,2.75,2.7-.06,5.36-.66,7.82-1.79,.94-.46,1.84-.99,2.69-1.58,.94-.67,1.82-1.43,2.62-2.27-.44,1.71-1.06,3.37-1.86,4.95-2.76,5.27-7.24,9.44-12.68,11.82-3.74,1.6-7.82,2.29-11.88,2.01-6.65-.61-12.82-3.7-17.28-8.66-4.02-4.42-6.36-10.11-6.61-16.08-.06-2.5,.29-5,1.01-7.4l-.6,.46-.42-.12c-.59,2.3-.88,4.68-.87,7.06,0,2.66,.36,5.31,1.1,7.86,1.72,5.84,5.48,10.86,10.6,14.14,2.76,1.71,5.78,2.95,8.93,3.67,1.09,.32,2.2,.56,3.33,.74,3.44,.42,6.94,.05,10.22-1.09,5.07-1.48,9.6-4.41,13.03-8.44,3.13-3.53,5.09-7.94,5.62-12.63,.08-.88,.1-1.76,.06-2.64-1.89,3.21-4.71,5.77-8.09,7.35-2.16,.99-4.51,1.52-6.89,1.55-3.26,.07-6.47-.88-9.16-2.74-2.1-1.5-3.79-3.51-4.9-5.84-1.14-2.34-1.74-4.91-1.73-7.52,0-2.45,.52-4.88,1.52-7.11-.62-.41-.76-.4-.8-.36"/>
    <path id="Path_15" data-name="Path 15" class="cls-5" d="M180.85,66.69c-.1,.05-.19,.09-.29,.13h0c.1-.04,.19-.09,.29-.13m0,0h0m2.7-1.59c-.85,.59-1.74,1.12-2.66,1.57,.93-.45,1.82-.97,2.66-1.57m.1-.07h0m.02-.02h0m.02-.02h0m.02-.02h0m.02-.02h0m.02-.02h0m.02-.02h0m.02-.02h0m.02-.02h0m.02-.02h0m.02-.02h0m.02-.02h0m.02-.02h0m.02-.02h0m.02-.02h0m.02-.02h0m.02-.02h0m.02-.02h0m.02-.02h0m.02-.02h0m.02-.02h0m.12-.09h0m.02-.02h0m.02-.02h0m.02-.02h0m.02-.02h0m.02-.02h0m.02-.02h0m.02-.02h0m.02-.02h0m.02-.02h0m.01-.01h0"/>
    <path id="Path_16" data-name="Path 16" d="M154.53,43.56c-5.23,.27-10.33,1.72-14.92,4.25-.01,.06-.04,.18-.07,.36,1.93-.94,3.93-1.74,5.99-2.37,2.83-.86,5.73-1.48,8.67-1.85,.03-.07,.07-.15,.1-.22h0l.12,.06c.05-.09,.08-.16,.12-.23"/>
    <path id="Path_17" data-name="Path 17" class="cls-7" d="M154.19,43.95c-2.94,.37-5.84,.98-8.67,1.85-2.05,.63-4.06,1.43-5.99,2.37-.46,2.43-2.39,15.35,6.79,24.09,4.05,3.75,9.25,6.01,14.75,6.43,.45,.04,1.1,.07,1.9,.07,5.88,.11,11.58-2.03,15.95-5.98,2.43-2.32,4.3-5.15,5.47-8.3h-.01v.02h-.02v.02h-.02v.02h-.02v.02h-.02v.02h-.02v.02h-.02v.02h-.02v.02h-.03l-.02,.02h0l-.12,.09h-.02l-.02,.02h-.02l-.02,.02h0v.02h-.04v.02h-.02v.02h-.02v.02h-.02v.02h-.02v.02h-.03v.02h-.04l-.02,.02h-.03v.02h-.04l-.02,.02h-.02l-.02,.02h0l-.08,.06h-.01c-.84,.61-1.73,1.13-2.66,1.58h-.01l-.03,.02h0c-.1,.05-.19,.09-.29,.14-.78,.66-1.61,1.25-2.48,1.78-2.69,1.64-5.78,2.52-8.93,2.53h-.24c-1.55-.05-3.09-.3-4.58-.75-2.92-.82-5.57-2.41-7.67-4.6-3.05-3.36-4.71-7.75-4.65-12.28,.02-3.28,.75-6.52,2.15-9.49"/>
    <path id="Path_18" data-name="Path 18" d="M154.29,43.73h0c-.04,.07-.07,.15-.1,.22-1.4,2.97-2.13,6.21-2.15,9.49-.09,4.56,1.57,8.97,4.63,12.35,2.1,2.19,4.75,3.78,7.67,4.6,1.49,.45,3.03,.7,4.58,.75h.24c3.15-.01,6.24-.89,8.93-2.53,.87-.53,1.7-1.12,2.48-1.78h0c-.35,.16-.7,.3-1.05,.43-1.73,1.36-3.7,2.36-5.81,2.96-1.52,.43-3.09,.64-4.67,.64-2.95,.02-5.85-.74-8.41-2.21-3.6-2.19-6.27-5.62-7.52-9.64-1.58-5.05-1.1-10.51,1.32-15.21l-.12-.06"/>
    <path id="Path_19" data-name="Path 19" d="M184.72,63.53l-4.62,3.24c-.18,.15-.37,.31-.59,.48,.35-.13,.7-.27,1.05-.43,.1-.04,.19-.09,.29-.13h.03v-.02c.94-.45,1.83-.98,2.68-1.57h.01l.08-.07h.02l.02-.02h.02l.02-.02h.03l.02-.02h.03l.02-.02h.03v-.02h.02v-.02h.02v-.02h.02v-.02h.02v-.02h.02v-.02h.03v-.02h.02l.02-.02h.02l.02-.02h0l.12-.09h.02v-.02h.02v-.02h.02v-.02h.02v-.02h.02v-.02h.02v-.02h.02v-.02h.02v-.02h.02v-.02h.01c.13-.34,.24-.66,.33-.94"/>
    <path id="Path_20" data-name="Path 20" class="cls-1" d="M143.37,61.65c-3.15-.01-6.28-.52-9.27-1.51,1.61-.14,3.2-.47,4.73-.98,2.18-.76,4.22-1.83,6.08-3.19,1.7-1.21,3.3-2.55,4.8-4,1.49-1.4,2.57-2.41,3.56-2.41,.13,0,.26,.02,.39,.05,.53,.16,.98,.49,1.29,.95l.45,.6,.3-.69c.15-.47,.49-.85,.93-1.06,.12-.04,.24-.06,.36-.06,.97,.22,1.86,.72,2.56,1.43,.43,.36,.89,.7,1.36,1,.99,.57,2.13,.86,3.27,.83,2.41-.14,4.75-.79,6.89-1.91-1.45,1.32-2.97,2.54-4.57,3.66-2.98,2.14-5.48,3.22-7.45,3.22-.87,.02-1.72-.25-2.42-.77l-.32-.24-.27,.3c-.96,1.06-2.08,1.97-3.31,2.7-2.37,1.25-5,1.94-7.68,2.02-.56,.03-1.12,.05-1.68,.05Z"/>
    <path id="Path_21" data-name="Path 21" d="M157,49.78c.87,.24,1.65,.7,2.29,1.34,.45,.37,.92,.72,1.41,1.04,1.06,.62,2.27,.93,3.5,.9,1.54-.04,3.06-.34,4.5-.89-.74,.59-1.56,1.21-2.45,1.85-2.86,2.05-5.35,3.14-7.19,3.14-.78,.02-1.54-.21-2.16-.68l-.64-.49-.54,.59c-.93,1.03-2.02,1.91-3.21,2.61-2.31,1.22-4.87,1.89-7.48,1.96-.55,.03-1.1,.05-1.65,.05-2.41,0-4.82-.31-7.15-.92,.93-.17,1.85-.41,2.75-.71,2.22-.77,4.3-1.86,6.19-3.25,1.72-1.22,3.34-2.57,4.85-4.04,1.42-1.33,2.44-2.29,3.26-2.29,.1,0,.19,.01,.28,.04,.43,.14,.79,.41,1.04,.79l.91,1.2,.6-1.38c.12-.35,.36-.64,.68-.83,.07-.02,.14-.04,.21-.04h0m0-.88c-.18,0-.35,.03-.52,.09-.55,.26-.98,.72-1.19,1.3-.37-.53-.9-.92-1.52-1.11-.16-.04-.33-.06-.5-.06-2.07,0-3.93,3.24-8.61,6.49-1.82,1.34-3.83,2.4-5.97,3.14-2.09,.69-4.27,1.04-6.47,1.04h-.42c3.68,1.49,7.6,2.28,11.57,2.31,.56,0,1.13-.02,1.71-.05,2.75-.05,5.45-.77,7.87-2.08,1.27-.75,2.42-1.69,3.42-2.78,.78,.58,1.72,.88,2.69,.86,2.4,0,5.22-1.52,7.71-3.31,2.35-1.56,4.47-3.42,6.32-5.55-4.02,2.23-6.86,2.99-8.89,2.99-1.07,.03-2.12-.24-3.05-.77-1.3-.78-2.79-2.5-4.15-2.5h0Z"/>
  </g>
</svg>