<svg xmlns="http://www.w3.org/2000/svg" width="107.112" height="65.732" viewBox="0 0 107.112 65.732">
  <g id="Group_1" data-name="Group 1" transform="translate(-295.987 -172)">
    <path id="Path_1" data-name="Path 1" d="M424.119,182.779s-7.633-11.766-15.152-9.011-8.552,14.463-7.978,17.563" transform="translate(-70.72 -0.911)" fill="#ffa229"/>
    <path id="Path_2" data-name="Path 2" d="M423.579,181.629a32.772,32.772,0,0,0-3.952-4.787,21.279,21.279,0,0,0-4.173-3.309,12.266,12.266,0,0,0-2.437-1.107,8.532,8.532,0,0,0-2.6-.426,7.247,7.247,0,0,0-2.51.445,10.014,10.014,0,0,0-4.158,2.943,14.509,14.509,0,0,0-2.051,3.2,22.329,22.329,0,0,0-1.712,5.315,24.91,24.91,0,0,0-.477,4.662c0,.392.013.754.036,1.078a8.014,8.014,0,0,0,.1.859l.865-.161a7.156,7.156,0,0,1-.092-.763c-.022-.3-.033-.64-.033-1.013a23.674,23.674,0,0,1,.358-3.936,20.719,20.719,0,0,1,2.306-6.727,11.9,11.9,0,0,1,2.174-2.782,8.824,8.824,0,0,1,2.984-1.849,6.365,6.365,0,0,1,2.207-.391,7.652,7.652,0,0,1,2.333.384,13.264,13.264,0,0,1,3.863,2.1,27.385,27.385,0,0,1,4.478,4.4c.554.673.993,1.261,1.293,1.679.15.209.265.375.343.488.039.057.068.1.087.13l.022.033.005.008v0l.739-.479Z" transform="translate(-69.811)"/>
    <path id="Path_3" data-name="Path 3" d="M306.055,229.542c-2.6,0-6.957-.006-8.308-2.528-.784-1.462-.222-3.208.268-4.393a25.112,25.112,0,0,1,7.1-9.105,72.777,72.777,0,0,1,9.43-6.713,153.01,153.01,0,0,1,16.175-8.749,160.283,160.283,0,0,1,14.905-5.927c6.643-2.3,12.673-4.329,19.185-5.9a92.553,92.553,0,0,1,21.908-2.741c.336,0,.676,0,1.011.006,5.758.069,10.032.708,12.7,1.9a5.014,5.014,0,0,1,2.976,2.705,4.392,4.392,0,0,1-.049,2.663c-.33,1.251-1.007,2.821-3.528,4.982-2.841,2.436-7.435,5.124-14.044,8.216-5.427,2.54-10.413,4.494-15.236,6.382-1.292.506-2.883,1.12-4.89,1.841-4.427,1.589-7.836,2.6-9.667,3.143l-.456.136c-2.811.837-3.949,1.251-6.016,2-1.972.716-4.672,1.7-10.332,3.6-.069.023-6.987,2.348-15.849,5.012-.141.042-3.537,1.053-10.881,2.649a27.791,27.791,0,0,1-6.385.814h-.022" transform="translate(-0.924 -7.747)" fill="#ffa229"/>
    <path id="Path_4" data-name="Path 4" d="M541.682,183.789a15.872,15.872,0,0,1,3.482,7.767,15.293,15.293,0,0,1,0,4.324,11.467,11.467,0,0,1,6.581,1.894,11.288,11.288,0,0,1,3.482,3.73,37.355,37.355,0,0,0,6.16-3.5c3.631-2.549,6.927-4.864,6.926-8.054a5.92,5.92,0,0,0-1.416-3.6c-1.484-1.905-3.969-2.927-11.02-3.214A82.982,82.982,0,0,0,541.682,183.789Z" transform="translate(-165.688 -7.467)" fill="#ff9000"/>
    <path id="Path_5" data-name="Path 5" d="M315.511,252.755a21.965,21.965,0,0,1,8.161,1.237,21.584,21.584,0,0,1,3.788,1.779c-2.279,1.368-9.15,5.9-11.02,14.119a19.108,19.108,0,0,0-.459,4.879,39.607,39.607,0,0,1-6.371,1.263c-4.209.477-9.3,1.054-11.421-1.779a4.23,4.23,0,0,1-.631-1.2c-1.194-3.639,3.088-8,6.708-11.608A57.33,57.33,0,0,1,315.511,252.755Z" transform="translate(-0.922 -54.448)" fill="#ff9000"/>
    <path id="Path_6" data-name="Path 6" d="M298.73,224.981a11.918,11.918,0,0,1-1.35-.078l-.146-.017-.016-.146c-.022-.207-.035-.418-.039-.628a9.782,9.782,0,0,1,2.528-6.2c3.292-4.094,8.5-7.893,11.318-9.794,3.438-2.322,6.194-3.922,8.017-4.982,1.8-1.048,5.435-3.1,9.481-5.1A173.478,173.478,0,0,1,371.53,183.98a81.065,81.065,0,0,1,14.746-1.6c.773,0,1.539.016,2.341.049a50.845,50.845,0,0,1,8.436.864c3.585.777,5.741,2.121,6.409,4a4.2,4.2,0,0,1,.2,1.847l-.026.252-.232-.1a2.032,2.032,0,0,0-.775-.1h-.179c-.356,0-1.06.007-1.77.058-1.219.087-2.212.244-3.009.371a12.091,12.091,0,0,1-1.735.2,1.53,1.53,0,0,1-1.22-.44,1.832,1.832,0,0,1-.391-1.263,2.3,2.3,0,0,0-.5-1.537,3.012,3.012,0,0,0-2.2-.972,7.437,7.437,0,0,0-3.4,1.28,7.362,7.362,0,0,1-3.37,1.27,2.835,2.835,0,0,1-.9-.144,3.02,3.02,0,0,1-.973-.488A3.185,3.185,0,0,1,381.988,186a1.914,1.914,0,0,0-.8-1.142,2.237,2.237,0,0,0-1.066-.207l-.122,0a3.883,3.883,0,0,0-1.669.406,9.055,9.055,0,0,0-2.255,1.569c-.148.13-.3.262-.459.395-1.712,1.44-2.746,2.309-4.15,2.49a4.549,4.549,0,0,1-.58.036,7.778,7.778,0,0,1-3.077-.778c-.3-.136-.57-.279-.829-.417a3.643,3.643,0,0,0-1.705-.586,2.142,2.142,0,0,0-.31.023,2.668,2.668,0,0,0-1.075.432,18.641,18.641,0,0,0-3.272,2.8c-.323.326-.627.635-.912.9-.861.787-2.875,2.63-4.782,2.63a2.748,2.748,0,0,1-.749-.1,5.705,5.705,0,0,1-1.768-1.033,5.628,5.628,0,0,0-2.421-1.259,3.275,3.275,0,0,0-.539-.045c-.077,0-.149,0-.221.008a3.676,3.676,0,0,0-1.967.841,12.511,12.511,0,0,0-2.6,3.38c-.136.228-.265.445-.382.63-.811,1.288-2.71,4.3-5.223,4.6a3.539,3.539,0,0,1-.411.024,6.672,6.672,0,0,1-3.2-1.135,5.619,5.619,0,0,0-2.556-.962,2.138,2.138,0,0,0-.788.148,3.992,3.992,0,0,0-1.017.619,4.456,4.456,0,0,0-1.232,2.24q-.044.138-.092.281c-.8,2.422-1.331,4.021-2.709,4.99a4.565,4.565,0,0,1-1.232.6,5.665,5.665,0,0,1-1.871.311,10.69,10.69,0,0,1-2.513-.382,8.883,8.883,0,0,0-2.006-.323,3.116,3.116,0,0,0-1.468.345,4.22,4.22,0,0,0-.914.659,5.756,5.756,0,0,0-1.368,2.605l-.02.056c-1.009,2.877-1.165,3.319-1.7,3.908a4.011,4.011,0,0,1-1.6,1.158,2.584,2.584,0,0,1-.94.173c-.215,0-.434-.022-.686-.047a12.533,12.533,0,0,0-1.308-.076h-.323c-1.295,0-2.124.038-2.732.568a4.324,4.324,0,0,0-1.052,2.279,7.3,7.3,0,0,0-.165.837,4.474,4.474,0,0,1-.261,1.057,6.644,6.644,0,0,1-1.009,1.7c-.917,1.1-2.887,1.781-5.141,1.781Z" transform="translate(-0.802 -6.999)" fill="#36edab"/>
    <path id="Path_7" data-name="Path 7" d="M385.9,182.187c.792,0,1.566.017,2.333.049,4.336.177,13.183.538,14.68,4.738a4.039,4.039,0,0,1,.2,1.767,2.248,2.248,0,0,0-.85-.115h-.18c-.327,0-1.054.007-1.782.058-2.295.163-3.771.572-4.731.572a1.367,1.367,0,0,1-1.085-.381c-.651-.7.02-1.722-.879-2.793a3.194,3.194,0,0,0-2.339-1.037c-2.342,0-4.564,2.549-6.767,2.549a2.631,2.631,0,0,1-.84-.135,2.845,2.845,0,0,1-.918-.459c-1.117-.866-.814-2.119-1.837-2.678a2.4,2.4,0,0,0-1.148-.23l-.13,0a4.073,4.073,0,0,0-1.746.423,11.489,11.489,0,0,0-2.755,1.99c-1.726,1.451-2.705,2.274-4.056,2.449a4.29,4.29,0,0,1-.556.035,7.564,7.564,0,0,1-3-.762,6.77,6.77,0,0,0-2.61-1.02,2.377,2.377,0,0,0-.336.025,2.834,2.834,0,0,0-1.148.459A27.452,27.452,0,0,0,359.2,191.4c-.859.786-2.822,2.582-4.657,2.582a2.525,2.525,0,0,1-.7-.1c-1.363-.388-2.431-2-4.209-2.3a3.533,3.533,0,0,0-.569-.047c-.108,0-.189.005-.235.009a3.835,3.835,0,0,0-2.066.879,15.62,15.62,0,0,0-3.023,4.056c-.809,1.284-2.663,4.229-5.089,4.515a3.329,3.329,0,0,1-.391.023c-2.171,0-3.91-2.1-5.758-2.1a2.339,2.339,0,0,0-.854.161,4.155,4.155,0,0,0-1.071.651,5.152,5.152,0,0,0-1.377,2.6c-.814,2.459-1.338,3.983-2.64,4.9a4.369,4.369,0,0,1-1.186.574,5.493,5.493,0,0,1-1.811.3c-1.683,0-3.123-.705-4.519-.705a3.293,3.293,0,0,0-1.552.366,4.392,4.392,0,0,0-.957.689,5.99,5.99,0,0,0-1.416,2.678c-1.019,2.9-1.17,3.336-1.684,3.9a3.841,3.841,0,0,1-1.53,1.11,2.392,2.392,0,0,1-.876.163c-.492,0-1.023-.121-1.994-.123h-.323c-1.34,0-2.2.04-2.853.612a4.459,4.459,0,0,0-1.11,2.372,15,15,0,0,1-.421,1.875,6.516,6.516,0,0,1-.977,1.652c-.841,1.007-2.7,1.715-5,1.715a11.7,11.7,0,0,1-1.33-.077c-.014-.133-.033-.348-.038-.612a9.576,9.576,0,0,1,2.487-6.084c3.668-4.561,9.69-8.684,11.278-9.757,3.364-2.272,6.062-3.845,8.007-4.974,1.28-.743,5.09-2.933,9.47-5.1a173.6,173.6,0,0,1,42.957-14.036,79.791,79.791,0,0,1,14.713-1.6m0-.367a81.219,81.219,0,0,0-14.779,1.6,173.658,173.658,0,0,0-43.056,14.065c-4.05,2-7.685,4.061-9.492,5.11-1.826,1.06-4.585,2.662-8.027,4.987-2.823,1.907-8.052,5.719-11.359,9.831a9.951,9.951,0,0,0-2.568,6.321c0,.215.018.432.04.644l.033.293.293.033a12.062,12.062,0,0,0,1.371.079c2.307,0,4.331-.708,5.282-1.847a6.842,6.842,0,0,0,1.039-1.758,4.693,4.693,0,0,0,.272-1.094,7.062,7.062,0,0,1,.163-.818,4.207,4.207,0,0,1,1-2.188c.541-.471,1.244-.521,2.612-.521h.322a12.2,12.2,0,0,1,1.29.075c.258.026.48.048.7.048a2.758,2.758,0,0,0,1-.184,4.178,4.178,0,0,0,1.674-1.207c.56-.619.716-1.065,1.738-3.973l.02-.056a5.649,5.649,0,0,1,1.323-2.534,4.011,4.011,0,0,1,.872-.629,2.939,2.939,0,0,1,1.383-.326,8.776,8.776,0,0,1,1.964.318,10.806,10.806,0,0,0,2.556.387,5.833,5.833,0,0,0,1.931-.321,4.735,4.735,0,0,0,1.278-.621c1.428-1,1.994-2.714,2.777-5.082.033-.1.062-.19.092-.282a4.262,4.262,0,0,1,1.178-2.159,3.811,3.811,0,0,1,.963-.586,1.962,1.962,0,0,1,.722-.136,5.5,5.5,0,0,1,2.466.938,6.808,6.808,0,0,0,3.292,1.158,3.7,3.7,0,0,0,.433-.025c2.6-.307,4.531-3.374,5.356-4.684.118-.187.247-.4.384-.633a12.378,12.378,0,0,1,2.556-3.33,3.49,3.49,0,0,1,1.867-.8c.067-.005.135-.008.207-.008a3.1,3.1,0,0,1,.509.042,5.5,5.5,0,0,1,2.341,1.224,5.828,5.828,0,0,0,1.827,1.062,2.907,2.907,0,0,0,.8.109c1.978,0,4.03-1.877,4.906-2.678.288-.263.594-.573.919-.9a18.5,18.5,0,0,1,3.239-2.771,2.458,2.458,0,0,1,1-.406,1.966,1.966,0,0,1,.284-.021,3.463,3.463,0,0,1,1.619.565c.261.139.532.283.84.423a7.95,7.95,0,0,0,3.153.794,4.733,4.733,0,0,0,.6-.038c1.457-.188,2.507-1.07,4.245-2.532.159-.133.312-.267.461-.4a8.908,8.908,0,0,1,2.212-1.541,3.712,3.712,0,0,1,1.591-.391c.038,0,.077,0,.116,0a2.075,2.075,0,0,1,.985.185,1.754,1.754,0,0,1,.722,1.048,3.339,3.339,0,0,0,1.066,1.6,3.181,3.181,0,0,0,1.027.517,3.028,3.028,0,0,0,.956.153,7.485,7.485,0,0,0,3.461-1.293,7.288,7.288,0,0,1,3.306-1.256,2.83,2.83,0,0,1,2.06.906,2.114,2.114,0,0,1,.453,1.428,1.979,1.979,0,0,0,.439,1.378,1.761,1.761,0,0,0,1.354.5,12.155,12.155,0,0,0,1.764-.2c.794-.126,1.782-.283,2.993-.369.7-.05,1.4-.057,1.756-.057h.18a1.874,1.874,0,0,1,.7.083l.463.207.051-.505a4.38,4.38,0,0,0-.215-1.927,5.16,5.16,0,0,0-2.48-2.683,14.626,14.626,0,0,0-4.063-1.43,51,51,0,0,0-8.466-.868c-.811-.028-1.579-.044-2.354-.044Z" transform="translate(-0.424 -6.622)"/>
    <path id="Path_8" data-name="Path 8" d="M428.5,227.291a11.456,11.456,0,0,0-2.755-3.013c-1.873-1.416-4.064-2.12-8.408-2.5a56.263,56.263,0,0,0-9.815,0c-15.756,1.4-26.005,5.34-28.783,6.457-.379.152-.678.276-.775.316-5.243,2.167-10.578,4.373-15.267,8.437-2.332,2.022-5.978,5.182-7.719,10.618a20.119,20.119,0,0,0-.947,6.112c9.517-2.359,19.571-5.218,30.046-8.694A403.525,403.525,0,0,0,428.5,227.292" transform="translate(-39.141 -33.426)" fill="#dc7d00"/>
    <path id="Path_9" data-name="Path 9" d="M428.115,226.916l.155-.1a11.639,11.639,0,0,0-2.8-3.061,10.218,10.218,0,0,0-3.335-1.667,25.781,25.781,0,0,0-5.168-.866c-1.839-.16-3.522-.214-4.969-.214-2.391,0-4.138.148-4.878.214a114.375,114.375,0,0,0-19.29,3.339,81.75,81.75,0,0,0-9.546,3.13c-.38.153-.68.276-.777.316-5.243,2.167-10.6,4.38-15.317,8.466-2.333,2.023-6.016,5.212-7.774,10.7a20.28,20.28,0,0,0-.956,6.168v.234l.228-.056c9.522-2.359,19.579-5.22,30.06-8.7a403.821,403.821,0,0,0,44.443-17.743l.189-.089-.112-.176-.155.1-.078-.166a403.4,403.4,0,0,1-44.4,17.727c-10.471,3.476-20.52,6.334-30.033,8.691l.044.178h.183a19.921,19.921,0,0,1,.938-6.057c1.726-5.384,5.334-8.515,7.665-10.536,4.66-4.04,9.973-6.239,15.217-8.406.1-.04.395-.163.773-.315a81.3,81.3,0,0,1,9.5-3.116,113.979,113.979,0,0,1,19.228-3.329c.735-.065,2.469-.212,4.846-.212,1.438,0,3.11.054,4.937.212a25.4,25.4,0,0,1,5.094.852,9.846,9.846,0,0,1,3.22,1.609,11.28,11.28,0,0,1,2.711,2.965l.155-.1-.078-.166.078.166" transform="translate(-38.758 -33.051)" fill="#603813"/>
    <path id="Path_10" data-name="Path 10" d="M385.8,183.016q.5,0,1.007.006c13.371.16,14.95,3.366,15.267,4.3a4,4,0,0,1-.058,2.41c-.62,2.355-2.64,6.039-17.333,12.914-5.414,2.533-10.3,4.446-15.21,6.371-1.46.572-3,1.163-4.879,1.837-4.8,1.722-8.318,2.741-10.1,3.272-5.467,1.628-4.665,1.673-16.363,5.61,0,0-6.878,2.315-15.836,5.008,0,0-3.408,1.024-10.847,2.64a27.5,27.5,0,0,1-6.293.8h-.021c-2.434,0-6.693-.006-7.92-2.3-.675-1.26-.215-2.8.287-4.018,2.774-6.706,10.4-11.933,16.358-15.611a152.118,152.118,0,0,1,16.128-8.724,158.1,158.1,0,0,1,14.865-5.912c12.171-4.211,25.229-8.615,40.949-8.615m0-.879a92.973,92.973,0,0,0-22.013,2.753c-6.531,1.574-12.569,3.608-19.225,5.911a160.659,160.659,0,0,0-14.947,5.944,153.449,153.449,0,0,0-16.222,8.775,73.01,73.01,0,0,0-9.488,6.755,34.075,34.075,0,0,0-4.205,4.3,20.567,20.567,0,0,0-3.016,4.966c-.525,1.27-1.121,3.143-.249,4.77,1.476,2.754,6,2.758,8.694,2.76h.022a28.178,28.178,0,0,0,6.48-.824c7.389-1.6,10.774-2.615,10.914-2.657,8.869-2.666,15.793-4.993,15.863-5.015,5.666-1.907,8.369-2.89,10.342-3.607,2.058-.749,3.191-1.16,5.992-1.994l.456-.135c1.836-.544,5.252-1.558,9.691-3.151,2.013-.723,3.608-1.338,4.9-1.846,4.829-1.892,9.822-3.848,15.261-6.393,6.646-3.11,11.273-5.818,14.144-8.281,2.629-2.255,3.341-3.966,3.667-5.206a4.956,4.956,0,0,0,.04-2.916,5.422,5.422,0,0,0-3.213-2.967c-2.726-1.216-7.058-1.867-12.877-1.937-.338,0-.68-.006-1.017-.006" transform="translate(0 -6.835)"/>
    <path id="Path_11" data-name="Path 11" d="M430.752,253.6c3.343-1.409,4.836-2.282,4.722-2.963-.138-.823-2.561-1.075-3.842-1.2a24.727,24.727,0,0,0-7.806.536A63.652,63.652,0,0,0,414.3,252.8a29.529,29.529,0,0,0-7.614,4.171c-.548.427-1.382,1.119-1.22,1.557.223.606,2.222.391,3.172.279,8.127-.942,13.471-1.561,22.116-5.2" transform="translate(-73.814 -52.142)"/>
    <path id="Path_12" data-name="Path 12" d="M437.363,252.487c-.285-.934-6.992.038-12.091,1.607a42.2,42.2,0,0,0-9.241,4.132l.423.118a21.624,21.624,0,0,0-1.123,6.794,28.413,28.413,0,0,0,1.355,7.637,24.188,24.188,0,0,0,4.337,8.336,24.527,24.527,0,0,0,8.945,6.988,27.7,27.7,0,0,0,7.831,2.279,22.093,22.093,0,0,0,2.6.211q.2,0,.4,0a24.528,24.528,0,0,0,10.825-2.521,28.353,28.353,0,0,0,6.806-4.693c1.037-.964,2.236-1.778,2.6-2.206a24.87,24.87,0,0,0,4.9-10.049,17.372,17.372,0,0,1-5.4,3.484,18.247,18.247,0,0,1-7.736,2.149v-.25a15.74,15.74,0,0,1-15-9.022c-.112-.228-.2-.409-.224-.473a17.357,17.357,0,0,1-1.4-7.485c-.014-1.5.27-5.136,1.148-6.811a.31.31,0,0,0,.038-.23m.622-.2h0" transform="translate(-80.481 -54.031)" fill="#fe0022"/>
    <path id="Path_13" data-name="Path 13" d="M468.134,251.837a22.554,22.554,0,0,0-2.255,9.706,17.873,17.873,0,0,0,4.627,12.349,17.005,17.005,0,0,0,7.669,4.6,18.01,18.01,0,0,0,4.579.749h.237a17.215,17.215,0,0,0,8.926-2.531,18.983,18.983,0,0,0,2.627-1.906,15.777,15.777,0,0,0,1.27-1.221l-.323-.3a15.34,15.34,0,0,1-1.234,1.187,18.447,18.447,0,0,1-4.315,2.789,16.5,16.5,0,0,1-6.95,1.541h-.231a17.555,17.555,0,0,1-4.461-.731,16.567,16.567,0,0,1-7.472-4.48,17.427,17.427,0,0,1-4.507-12.048,22.112,22.112,0,0,1,2.212-9.516l-.4-.19h0" transform="translate(-114.569 -53.839)"/>
    <path id="Path_14" data-name="Path 14" d="M436.356,252.034a.849.849,0,0,0-.083.188c-.033.079-.056.13-.06.139a22.134,22.134,0,0,0-1.458,7.147,16.994,16.994,0,0,0,1.63,8.461,15.893,15.893,0,0,0,5.223,5.969,16.832,16.832,0,0,0,9.97,2.747A19.889,19.889,0,0,0,459.4,274.9a19.576,19.576,0,0,0,2.69-1.584,18.189,18.189,0,0,0,2.617-2.266A24.405,24.405,0,0,1,462.844,276a26.211,26.211,0,0,1-12.684,11.823,25.624,25.624,0,0,1-11.881,2.009A26.472,26.472,0,0,1,421,281.169a25.507,25.507,0,0,1-6.61-16.077,23.665,23.665,0,0,1,1.014-7.4l-.6.459-.423-.118a27.559,27.559,0,0,0-.867,7.056,27.909,27.909,0,0,0,1.1,7.859,25.269,25.269,0,0,0,10.6,14.14,29.551,29.551,0,0,0,8.935,3.672,26.243,26.243,0,0,0,3.329.736,22.674,22.674,0,0,0,10.216-1.091,27.075,27.075,0,0,0,13.029-8.437,22.96,22.96,0,0,0,5.625-12.627,19.8,19.8,0,0,0,.057-2.64,18.416,18.416,0,0,1-8.093,7.347,17.183,17.183,0,0,1-6.887,1.55,15.507,15.507,0,0,1-9.156-2.739,15.2,15.2,0,0,1-4.9-5.839,17.062,17.062,0,0,1-1.733-7.516,17.39,17.39,0,0,1,1.525-7.114c-.619-.412-.763-.4-.8-.358" transform="translate(-79.255 -53.959)"/>
    <path id="Path_15" data-name="Path 15" d="M553.752,317.747q-.144.068-.287.133h0q.145-.065.289-.134m.005,0-.005,0,.005,0m2.7-1.587a19.66,19.66,0,0,1-2.663,1.568,18.153,18.153,0,0,0,2.663-1.568m.1-.07,0,0,0,0m.021-.015,0,0,0,0m.021-.015,0,0,0,0m.021-.015-.005,0,.005,0m.021-.016-.007,0,.007,0m.021-.015-.006,0,.006,0m.021-.015-.006,0,.006,0m.021-.015-.006,0,.006,0m.021-.016-.007,0,.007,0m.021-.015-.007,0,.007,0m.021-.016-.007.005.007-.005m.021-.016-.007.005.007-.005m.021-.016-.008.006.008-.006m.021-.015-.007.006.007-.006m.021-.016-.007.006.007-.006m.021-.015-.007.005.007-.005m.021-.016-.007.005.007-.005m.019-.015,0,0,0,0m.021-.016,0,0,0,0m.02-.015,0,0,0,0m.02-.015,0,0,0,0m.12-.093,0,0,0,0m.021-.016-.005,0,.005,0m.021-.016-.007.005.007-.005m.021-.016-.008.006.008-.006m.021-.016-.008.006.008-.006m.021-.016-.008.006.008-.006m.021-.016-.008.006.008-.006m.021-.016-.008.006.008-.006m.021-.017-.008.007.008-.007m.021-.017-.008.007.008-.007m.014-.011h0" transform="translate(-173.634 -96.79)" fill="#ccc"/>
    <path id="Path_16" data-name="Path 16" d="M442.468,251.31a34.665,34.665,0,0,0-14.922,4.247c-.013.059-.04.181-.074.361a41.372,41.372,0,0,1,5.986-2.37,51.582,51.582,0,0,1,8.67-1.845q.051-.11.1-.221h0l.118.056c.045-.089.085-.165.119-.228" transform="translate(-88.668 -53.484)"/>
    <path id="Path_17" data-name="Path 17" d="M441.124,252.513a51.58,51.58,0,0,0-8.67,1.845,41.37,41.37,0,0,0-5.986,2.37c-.464,2.429-2.39,15.354,6.789,24.089a24.425,24.425,0,0,0,14.751,6.428c.453.035,1.1.072,1.9.072a23.134,23.134,0,0,0,15.945-5.983,22.072,22.072,0,0,0,5.466-8.3h0l-.012.01-.008.007-.013.01-.008.007-.013.01-.007.006-.013.01-.008.006-.013.01-.008.006-.013.01-.008.006-.013.01-.007.006-.014.01-.007.005-.014.011-.005,0-.016.012,0,0-.117.09,0,0-.017.013,0,0-.016.012,0,0-.016.012,0,0-.015.011-.007.005-.014.01-.007,0-.014.01-.007.006-.014.01-.007.006-.013.01-.008.006-.014.01-.007.005-.014.01-.007.005-.014.01-.007,0-.014.01-.007,0-.015.011-.006,0-.015.011-.006,0-.015.011-.006,0-.014.011-.007,0-.015.011-.005,0-.016.012,0,0-.017.012,0,0-.018.013,0,0-.081.058-.014.01a18.183,18.183,0,0,1-2.663,1.568l-.014.006h0l-.027.012-.005,0h0c-.1.046-.192.091-.289.135a19.06,19.06,0,0,1-2.481,1.781,17.219,17.219,0,0,1-8.926,2.531l-.237,0a18,18,0,0,1-4.579-.749,17.009,17.009,0,0,1-7.669-4.6A17.873,17.873,0,0,1,438.973,262a22.524,22.524,0,0,1,2.149-9.486" transform="translate(-87.664 -54.295)" fill="#cb001b"/>
    <path id="Path_18" data-name="Path 18" d="M468.136,251.837h0c-.035.073-.07.147-.1.221a22.518,22.518,0,0,0-2.149,9.486,17.873,17.873,0,0,0,4.627,12.349,17.007,17.007,0,0,0,7.669,4.6,18.01,18.01,0,0,0,4.579.749H483a17.215,17.215,0,0,0,8.926-2.531,18.993,18.993,0,0,0,2.481-1.781h0c-.349.158-.7.3-1.047.428a16.954,16.954,0,0,1-5.813,2.965,17.238,17.238,0,0,1-4.672.637,16.68,16.68,0,0,1-8.414-2.214,17.319,17.319,0,0,1-7.519-9.642,20.11,20.11,0,0,1,1.316-15.21l-.118-.056" transform="translate(-114.572 -53.839)"/>
    <path id="Path_19" data-name="Path 19" d="M555.461,312.643l-4.619,3.242c-.176.15-.372.311-.586.479.347-.129.7-.271,1.047-.429q.144-.065.287-.133h0l.005,0,.026-.012h0l.014-.007a19.663,19.663,0,0,0,2.663-1.568l.014-.01.081-.058,0,0,.018-.013,0,0,.017-.012,0,0,.016-.012.005,0,.015-.011.007,0,.014-.011.006,0,.015-.011.006,0,.015-.011.006,0,.015-.011.007,0,.014-.01.006,0,.014-.01.007-.005.014-.01.007-.005.014-.01.008-.006.013-.01.007-.006.014-.01.007-.006.014-.01.007,0,.014-.01.007-.005.015-.011,0,0,.016-.012,0,0,.016-.012,0,0,.017-.013,0,0,.117-.09,0,0,.016-.012.005,0,.014-.011.007-.005.013-.01.008-.006.013-.01.008-.006.013-.01.008-.006.013-.01.008-.006.013-.01.007-.006.013-.01.008-.007.013-.01.008-.007.012-.01h0c.128-.341.237-.656.331-.941" transform="translate(-171.47 -94.845)"/>
    <path id="Path_20" data-name="Path 20" d="M420.061,281.379a30.056,30.056,0,0,1-9.271-1.508,20.626,20.626,0,0,0,4.729-.977A23.062,23.062,0,0,0,421.6,275.7a40.556,40.556,0,0,0,4.795-4c1.489-1.4,2.565-2.41,3.562-2.41a1.565,1.565,0,0,1,.391.049,2.389,2.389,0,0,1,1.287.948l.454.6.3-.69a1.806,1.806,0,0,1,.934-1.063,1.047,1.047,0,0,1,.363-.063,5.2,5.2,0,0,1,2.563,1.435,13.353,13.353,0,0,0,1.363,1,6.247,6.247,0,0,0,3.273.835,16.864,16.864,0,0,0,6.888-1.906A46.8,46.8,0,0,1,443.2,274.1c-2.978,2.139-5.484,3.224-7.45,3.224a3.909,3.909,0,0,1-2.425-.768l-.32-.244-.271.3a14.313,14.313,0,0,1-3.313,2.7,17.5,17.5,0,0,1-7.677,2.021C421.187,281.361,420.621,281.379,420.061,281.379Z" transform="translate(-77.419 -65.461)" fill="#021323"/>
    <path id="Path_21" data-name="Path 21" d="M428.929,268.6a5.171,5.171,0,0,1,2.288,1.339,13.871,13.871,0,0,0,1.411,1.035,6.673,6.673,0,0,0,3.5.9,13.873,13.873,0,0,0,4.5-.885c-.737.588-1.557,1.208-2.448,1.848-2.86,2.055-5.348,3.142-7.193,3.142a3.431,3.431,0,0,1-2.159-.679l-.641-.488-.542.594a13.876,13.876,0,0,1-3.211,2.614,17.065,17.065,0,0,1-7.481,1.961c-.546.033-1.1.051-1.654.051a29.019,29.019,0,0,1-7.155-.915,20.844,20.844,0,0,0,2.753-.713,23.466,23.466,0,0,0,6.193-3.25,40.991,40.991,0,0,0,4.845-4.043c1.416-1.33,2.438-2.29,3.261-2.29a1.154,1.154,0,0,1,.283.036,1.971,1.971,0,0,1,1.042.787l.908,1.2.6-1.381a1.49,1.49,0,0,1,.681-.825.6.6,0,0,1,.213-.036h0m0-.879a1.482,1.482,0,0,0-.515.09,2.268,2.268,0,0,0-1.186,1.3A2.855,2.855,0,0,0,425.7,268a2.044,2.044,0,0,0-.5-.063c-2.068,0-3.93,3.238-8.608,6.491a22.492,22.492,0,0,1-5.969,3.137,20.431,20.431,0,0,1-6.47,1.037c-.144,0-.284,0-.417,0a31.482,31.482,0,0,0,11.569,2.31q.84,0,1.709-.052a17.23,17.23,0,0,0,7.873-2.081,14.757,14.757,0,0,0,3.415-2.779,4.326,4.326,0,0,0,2.692.858c2.4,0,5.224-1.524,7.706-3.307A31.168,31.168,0,0,0,445.019,268c-4.02,2.226-6.857,2.991-8.892,2.991a5.749,5.749,0,0,1-3.046-.771c-1.3-.782-2.792-2.5-4.152-2.5Z" transform="translate(-72.66 -64.548)"/>
  </g>
</svg>
