<?xml version="1.0" encoding="utf-8"?>
<!-- Generator: Adobe Illustrator 26.3.1, SVG Export Plug-In . SVG Version: 6.00 Build 0)  -->
<svg version="1.1" id="Group_278" xmlns="http://www.w3.org/2000/svg" xmlns:xlink="http://www.w3.org/1999/xlink" x="0px" y="0px"
	 viewBox="0 0 167.3 26" style="enable-background:new 0 0 167.3 26;" xml:space="preserve">
<style type="text/css">
	.st0{fill:#0A529A;}
	.st1{fill:#99A6B3;}
	.st2{fill:#2666B0;}
</style>
<path id="Shape" class="st0" d="M8.6,16.9c0.3,0.7,0.7,1.3,1.2,1.9c-1.1,0.6-2.2,0.9-3.5,0.9C3,19.8,0.2,17.3,0,13.9
	c0-0.2,0-0.5,0-0.7C-0.2,9.9,2.4,7,5.8,6.8c0.2,0,0.4,0,0.6,0c1.1,0,2.3,0.3,3.3,0.8c-0.5,0.6-0.9,1.3-1.1,2
	C7.9,9.4,7.2,9.3,6.6,9.3c-2-0.1-3.8,1.5-3.9,3.5c0,0,0,0,0,0c0,0.2,0,0.3,0,0.5c-0.1,2.1,1.5,3.9,3.5,4c0,0,0,0,0,0
	c0.1,0,0.3,0,0.4,0C7.3,17.3,8,17.1,8.6,16.9z M16,6.9c3.3-0.1,6.1,2.5,6.2,5.8c0,0.2,0,0.4,0,0.6c0.2,3.3-2.4,6.2-5.7,6.4
	c-0.2,0-0.3,0-0.5,0c-3.3,0.1-6.1-2.5-6.2-5.9c0-0.2,0-0.4,0-0.5c-0.2-3.3,2.3-6.2,5.7-6.4C15.6,6.9,15.8,6.9,16,6.9z M16,9.2
	c-2,0-3.5,1.6-3.5,4.1c0,2.5,1.5,4,3.5,4c2.1,0,3.5-1.6,3.5-4C19.5,10.8,18,9.2,16,9.2L16,9.2z M23.9,19.3V7.1h2.7v12.2L23.9,19.3z
	 M23.6,3.4c0-0.9,0.7-1.7,1.7-1.7c0.9,0.1,1.6,0.9,1.6,1.8c0,0,0,0,0,0c-0.1,0.9-0.7,1.5-1.6,1.6C24.3,5.1,23.6,4.3,23.6,3.4
	L23.6,3.4z M28.9,7.9c1.8-0.7,3.6-1,5.5-1.1c3.1,0,5,1.2,5,4.6v7.9h-2.7v-7.6c0-1.8-1.1-2.4-2.6-2.4c-0.9,0-1.8,0.1-2.6,0.4v9.7
	h-2.7L28.9,7.9L28.9,7.9z M41.8,0.6h2.7v6.9c0.9-0.4,1.8-0.6,2.8-0.6c3.2-0.2,5.9,2.2,6.1,5.4c0,0.3,0,0.5,0,0.8
	c0,3.9-2.6,6.6-7.1,6.6c-1.5,0-3.1-0.3-4.5-0.8L41.8,0.6L41.8,0.6z M44.5,17c0.6,0.2,1.2,0.3,1.9,0.2c2.1,0.2,4-1.3,4.2-3.5
	c0-0.2,0-0.5,0-0.7c0.1-2-1.4-3.7-3.4-3.8c0,0,0,0,0,0c-0.1,0-0.2,0-0.3,0c-0.8,0-1.7,0.2-2.4,0.6L44.5,17L44.5,17z M61.1,11.1
	c0-1.3-1-1.9-2.3-1.9c-1.2,0-2.4,0.4-3.5,1V7.8c1.2-0.7,2.5-1,3.9-1c2.6,0,4.5,1.1,4.5,4.2v8.1c-1.4,0.3-2.7,0.5-4.1,0.5
	c-3.1,0-5.4-1-5.4-3.7c0-2.5,2.1-3.7,5.6-3.7h1.3L61.1,11.1L61.1,11.1z M61.1,14h-1.1c-1.9,0-3.1,0.6-3.1,1.8c0,1.3,1.1,1.8,2.8,1.8
	c0.5,0,1-0.1,1.5-0.1L61.1,14L61.1,14z M65.7,16c1,0.8,2.3,1.3,3.7,1.4c1.2,0,2-0.4,2-1.4c0-1-0.7-1.4-2.3-1.8
	c-2.5-0.6-3.6-1.6-3.6-3.7c0-2.5,1.8-3.7,4.3-3.7c1.2,0,2.4,0.3,3.5,0.9v2.5c-1-0.8-2.1-1.2-3.4-1.3c-1.2,0-1.8,0.6-1.8,1.4
	s0.5,1.2,1.9,1.6c2.8,0.6,3.9,1.6,3.9,3.9c0,2.6-1.9,3.7-4.5,3.7c-1.3,0-2.6-0.3-3.7-1L65.7,16L65.7,16z M77.6,13.8L77.6,13.8
	c0.2,2,1.9,3.5,3.9,3.4c1.4,0,2.9-0.4,4-1.2v2.4c-1.3,0.8-2.7,1.2-4.2,1.1c-3.3,0.2-6.1-2.2-6.3-5.5c0-0.3,0-0.5,0-0.8
	c0-3.9,2.5-6.5,5.8-6.5c3.5,0,5.2,2.3,5.2,5.6v1.4L77.6,13.8z M83.5,12.1c-0.1-1.9-1-3-2.7-3c-1.6,0-2.7,1.1-3,3H83.5z"/>
<path id="Rectangle-path" class="st1" d="M95.6,0h0.2c0.2,0,0.4,0.2,0.4,0.4v25.1c0,0.2-0.2,0.4-0.4,0.4c0,0,0,0,0,0h-0.3
	c-0.2,0-0.4-0.2-0.4-0.4c0,0,0,0,0,0V0.5C95.2,0.2,95.4,0,95.6,0z"/>
<path id="a" class="st2" d="M111.1,19.4h-1.5L105,7h1.4l4.1,11.1L114.5,7h1.3L111.1,19.4z M123.2,14.9h-6.7v0
	c-0.1,1.8,1.2,3.4,3.1,3.5c0.1,0,0.1,0,0.2,0c1.1,0,2.2-0.3,3-1v1.3c-0.9,0.6-1.9,0.9-3,0.9c-2.4,0.1-4.5-1.8-4.5-4.3
	c0-0.2,0-0.3,0-0.5c0-2.7,1.8-4.7,4.2-4.7c2.2,0,3.7,1.4,3.7,4L123.2,14.9L123.2,14.9z M116.5,13.9h5.4c-0.1-1.9-1.1-2.6-2.6-2.6
	C117.9,11.3,116.7,12.4,116.5,13.9z M124.5,19.4v-8.6c1.2-0.4,2.4-0.7,3.7-0.7c2.2,0,3.6,0.9,3.6,3.2v6.1h-1.2v-5.8
	c0-1.8-1.3-2.3-2.5-2.3c-0.8,0-1.6,0.1-2.4,0.3v7.8L124.5,19.4L124.5,19.4z M132.6,11.4v-1.1h1.4V8.1h1.2v2.2h2.5v1.1h-2.5v5.5
	c0,1.2,0.4,1.6,1.3,1.6c0.6,0,1.1-0.2,1.6-0.5v1.1c-0.6,0.3-1.2,0.5-1.9,0.4c-1.3,0-2.2-0.7-2.2-2.6v-5.7L132.6,11.4L132.6,11.4z
	 M146.1,10.3v8.9c-1,0.2-2.1,0.3-3.1,0.3c-2.6,0-4-0.9-4-3.2v-6.1h1.2v6c0,1.7,1.3,2.1,2.7,2.1c0.7,0,1.3,0,1.9-0.1v-8.1L146.1,10.3
	L146.1,10.3z M149.4,11.8v7.6h-1.2v-8.2c1-0.6,2.1-1,3.3-1c0.5,0,1,0.1,1.5,0.2v1.2c-0.5-0.2-1-0.2-1.6-0.2
	C150.7,11.3,150,11.5,149.4,11.8L149.4,11.8z M160.8,14.9h-6.7v0c-0.1,1.8,1.2,3.4,3.1,3.5c0,0,0,0,0,0c0.1,0,0.1,0,0.2,0
	c1.1,0,2.2-0.3,3-1v1.3c-0.9,0.6-1.9,0.9-3,0.9c-2.4,0.1-4.5-1.8-4.5-4.3c0-0.2,0-0.3,0-0.5c0-2.7,1.8-4.7,4.2-4.7
	c2.2,0,3.7,1.4,3.7,4L160.8,14.9L160.8,14.9z M154.2,13.9h5.4c-0.1-1.9-1.1-2.6-2.6-2.6C155.6,11.2,154.4,12.4,154.2,13.9
	L154.2,13.9z M161.8,18.8v-1.4c0.7,0.7,1.5,1.1,2.5,1.1c1.1,0,1.8-0.4,1.8-1.5c0-1.1-0.8-1.4-2.2-1.8c-1.6-0.5-2.2-1.2-2.2-2.6
	c0-1.6,1.2-2.5,2.8-2.5c0.9,0,1.7,0.2,2.4,0.7v1.3c-0.7-0.6-1.5-1-2.4-1c-1,0-1.6,0.5-1.6,1.4c0,0.8,0.5,1.3,1.8,1.7
	c1.5,0.5,2.6,1.1,2.6,2.7c0,1.8-1.4,2.6-3,2.6C163.4,19.6,162.5,19.3,161.8,18.8L161.8,18.8z"/>
</svg>
