<svg id="Group_278" data-name="Group 278" xmlns="http://www.w3.org/2000/svg" width="167.253" height="25.983" viewBox="0 0 167.253 25.983">
  <path id="Shape" d="M-251.283,341.98a7.108,7.108,0,0,0,1.227,1.9,7.073,7.073,0,0,1-3.456.865,6.019,6.019,0,0,1-6.327-6.388,6.1,6.1,0,0,1,5.763-6.411c.187-.009.375-.009.564,0a6.654,6.654,0,0,1,3.265.812,7.375,7.375,0,0,0-1.147,1.975,4.791,4.791,0,0,0-1.866-.362,3.7,3.7,0,0,0-3.883,3.512,4.091,4.091,0,0,0,.007.478,3.77,3.77,0,0,0,3.54,3.988,3.538,3.538,0,0,0,.417,0A4.642,4.642,0,0,0-251.283,341.98Zm7.388-10.017a6.039,6.039,0,0,1,6.215,6.414,6.047,6.047,0,0,1-6.215,6.386,6.027,6.027,0,0,1-6.19-6.386A6.056,6.056,0,0,1-243.895,331.963Zm0,2.344c-2.008,0-3.484,1.56-3.484,4.07,0,2.451,1.476,4.042,3.484,4.042,2.062,0,3.512-1.56,3.512-4.042,0-2.5-1.418-4.067-3.512-4.067Zm7.946,10.147V332.219h2.705v12.237Zm-.334-15.976a1.675,1.675,0,0,1,1.672-1.672,1.7,1.7,0,0,1,1.584,1.817,1.7,1.7,0,0,1-1.584,1.584,1.726,1.726,0,0,1-1.67-1.726ZM-230.9,333a15.792,15.792,0,0,1,5.52-1.061c3.067,0,5.047,1.2,5.047,4.629v7.862h-2.68v-7.584c0-1.756-1.087-2.4-2.591-2.4a9.216,9.216,0,0,0-2.619.364v9.672h-2.705V333Zm12.827-7.307h2.705v6.892a6.41,6.41,0,0,1,2.759-.611,5.778,5.778,0,0,1,6.11,6.18c0,3.93-2.591,6.607-7.053,6.607a13.149,13.149,0,0,1-4.487-.812V325.7Zm2.684,16.449a6.57,6.57,0,0,0,1.868.25,3.876,3.876,0,0,0,4.238-4.21,3.593,3.593,0,0,0-3.386-3.79c-.107,0-.215-.007-.322,0a4.974,4.974,0,0,0-2.435.585v7.167Zm16.617-5.884c0-1.339-.975-1.922-2.316-1.922a6.648,6.648,0,0,0-3.484,1v-2.4a7.884,7.884,0,0,1,3.9-1c2.64,0,4.511,1.117,4.511,4.182V344.2a17.476,17.476,0,0,1-4.128.494c-3.123,0-5.408-.973-5.408-3.734,0-2.477,2.1-3.7,5.576-3.7h1.339v-1.005Zm0,2.841h-1.143c-1.868,0-3.095.56-3.095,1.786,0,1.283,1.143,1.756,2.787,1.756a9.783,9.783,0,0,0,1.476-.14l-.026-3.4Zm4.592,2.036a6.241,6.241,0,0,0,3.68,1.395c1.224,0,1.978-.42,1.978-1.395,0-1-.7-1.367-2.258-1.756-2.509-.585-3.566-1.591-3.566-3.734,0-2.481,1.84-3.708,4.3-3.708a6.1,6.1,0,0,1,3.456.949v2.509a5.469,5.469,0,0,0-3.375-1.257c-1.171,0-1.786.585-1.786,1.392s.529,1.229,1.9,1.591c2.761.613,3.932,1.647,3.932,3.874,0,2.565-1.924,3.736-4.548,3.736a7,7,0,0,1-3.734-1.005v-2.584Zm11.96-2.178v.056a3.714,3.714,0,0,0,3.9,3.375,6.688,6.688,0,0,0,4.044-1.2v2.4a7.548,7.548,0,0,1-4.238,1.143,5.913,5.913,0,0,1-6.3-6.3c0-3.9,2.509-6.493,5.828-6.493,3.512,0,5.157,2.286,5.157,5.623v1.395Zm5.854-1.756c-.056-1.9-.975-2.955-2.731-2.955-1.56,0-2.705,1.115-3.039,2.955Z" transform="translate(259.849 -325.108)" fill="#0a529a"/>
  <path id="Rectangle-path" d="M-218.6,325.44h.25a.441.441,0,0,1,.445.436v25.1a.438.438,0,0,1-.431.445h-.264a.438.438,0,0,1-.445-.431v-25.1A.457.457,0,0,1-218.6,325.44Z" transform="translate(314.212 -325.44)" fill="#99a6b3"/>
  <path id="a" d="M-208.693,340.8h-1.5l-4.629-12.349h1.367l4.072,11.066,4.067-11.066h1.311Zm12.016-4.459h-6.689v.026A3.309,3.309,0,0,0-200.3,339.9c.072,0,.147.009.219.009a4.5,4.5,0,0,0,3.013-1.033v1.257a4.985,4.985,0,0,1-3.013.863,4.394,4.394,0,0,1-4.515-4.741c0-2.731,1.814-4.739,4.21-4.739,2.232,0,3.708,1.367,3.708,3.96v.865Zm-6.607-1.059h5.408c-.082-1.9-1.087-2.649-2.565-2.649a2.958,2.958,0,0,0-2.843,2.649Zm7.974,5.52v-8.59a10.833,10.833,0,0,1,3.708-.7c2.23,0,3.6.893,3.6,3.153v6.1h-1.227V334.92c0-1.84-1.283-2.258-2.482-2.258a9.366,9.366,0,0,0-2.4.333v7.778h-1.2Zm8.058-8v-1.059h1.364v-2.2h1.224v2.2h2.484V332.8h-2.484v5.523c0,1.168.448,1.616,1.283,1.616a3.613,3.613,0,0,0,1.647-.5v1.115a3.945,3.945,0,0,1-1.9.448c-1.283,0-2.23-.7-2.23-2.565v-5.658h-1.395Zm13.548-1.059v8.949A18.1,18.1,0,0,1-176.8,341c-2.565,0-4.014-.893-4.014-3.151v-6.106h1.229v6.05c0,1.7,1.308,2.141,2.722,2.141a15.984,15.984,0,0,0,1.947-.112v-8.053h1.2Zm3.291,1.507V340.8h-1.227v-8.221a5.922,5.922,0,0,1,3.288-.975,5.564,5.564,0,0,1,1.479.2v1.227a4.672,4.672,0,0,0-1.563-.224,3.541,3.541,0,0,0-1.98.445Zm11.428,3.095h-6.689v.026a3.309,3.309,0,0,0,3.069,3.533c.072.007.147.009.219.009a4.5,4.5,0,0,0,3.013-1.033v1.255a5,5,0,0,1-3.013.863,4.394,4.394,0,0,1-4.515-4.741c0-2.731,1.814-4.739,4.21-4.739,2.23,0,3.708,1.367,3.708,3.96v.865Zm-6.607-1.059h5.408c-.082-1.9-1.089-2.649-2.565-2.649a2.92,2.92,0,0,0-2.841,2.649Zm7.528,4.989v-1.42a3.54,3.54,0,0,0,2.481,1.087c1.112,0,1.812-.445,1.812-1.451,0-1.087-.781-1.367-2.176-1.838-1.56-.529-2.23-1.2-2.23-2.649,0-1.591,1.171-2.456,2.787-2.456a4.118,4.118,0,0,1,2.426.7v1.336a3.536,3.536,0,0,0-2.426-.975c-.975,0-1.591.529-1.591,1.395,0,.837.476,1.255,1.842,1.7,1.532.473,2.563,1.089,2.563,2.733,0,1.784-1.367,2.591-3.009,2.591a4.36,4.36,0,0,1-2.481-.753Z" transform="translate(319.828 -321.426)" fill="#222a33"/>
</svg>
