<?xml version="1.0" encoding="UTF-8"?>
<svg xmlns="http://www.w3.org/2000/svg" xmlns:xlink="http://www.w3.org/1999/xlink" width="300" height="60" viewBox="0 0 300 60" version="1.1">
<g id="surface1">
<path style=" stroke:none;fill-rule:nonzero;fill:rgb(3.921569%,32.156863%,60.392157%);fill-opacity:1;" d="M 15.421875 38.984375 C 15.960938 40.597656 16.675781 41.976562 17.574219 43.359375 C 15.601562 44.742188 13.628906 45.433594 11.296875 45.433594 C 5.378906 45.664062 0.359375 39.90625 0 32.074219 C 0 31.613281 0 30.921875 0 30.460938 C -0.359375 22.859375 4.304688 16.179688 10.402344 15.71875 C 10.757812 15.71875 11.117188 15.71875 11.476562 15.71875 C 13.449219 15.71875 15.601562 16.410156 17.394531 17.5625 C 16.496094 18.941406 15.78125 20.554688 15.421875 22.167969 C 14.167969 21.707031 12.910156 21.476562 11.835938 21.476562 C 8.25 21.246094 5.019531 24.933594 4.839844 29.539062 C 4.839844 30 4.839844 30.230469 4.839844 30.691406 C 4.664062 35.527344 7.53125 39.675781 11.117188 39.90625 C 11.296875 39.90625 11.65625 39.90625 11.835938 39.90625 C 13.089844 39.90625 14.34375 39.445312 15.421875 38.984375 Z M 28.691406 15.949219 C 34.609375 15.71875 39.628906 21.707031 39.808594 29.308594 C 39.808594 29.769531 39.808594 30.230469 39.808594 30.691406 C 40.167969 38.292969 35.503906 44.972656 29.585938 45.433594 C 29.230469 45.433594 29.050781 45.433594 28.691406 45.433594 C 22.773438 45.664062 17.753906 39.675781 17.574219 31.84375 C 17.574219 31.382812 17.574219 30.921875 17.574219 30.691406 C 17.214844 23.089844 21.699219 16.410156 27.792969 15.949219 C 27.972656 15.949219 28.332031 15.949219 28.691406 15.949219 Z M 28.691406 21.246094 C 25.105469 21.246094 22.414062 24.933594 22.414062 30.691406 C 22.414062 36.449219 25.105469 39.90625 28.691406 39.90625 C 32.457031 39.90625 34.96875 36.21875 34.96875 30.691406 C 34.96875 24.933594 32.277344 21.246094 28.691406 21.246094 Z M 42.855469 44.511719 L 42.855469 16.410156 L 47.699219 16.410156 L 47.699219 44.511719 Z M 42.320312 7.886719 C 42.320312 5.8125 43.574219 3.96875 45.367188 3.96875 C 46.980469 4.199219 48.238281 6.042969 48.238281 8.117188 C 48.058594 10.1875 46.980469 11.570312 45.367188 11.800781 C 43.574219 11.800781 42.320312 9.960938 42.320312 7.886719 Z M 51.824219 18.25 C 55.050781 16.640625 58.277344 15.949219 61.6875 15.71875 C 67.246094 15.71875 70.652344 18.480469 70.652344 26.3125 L 70.652344 44.511719 L 65.808594 44.511719 L 65.808594 27.003906 C 65.808594 22.859375 63.835938 21.476562 61.148438 21.476562 C 59.535156 21.476562 57.917969 21.707031 56.484375 22.398438 L 56.484375 44.742188 L 51.644531 44.742188 Z M 74.957031 1.4375 L 79.796875 1.4375 L 79.796875 17.332031 C 81.410156 16.410156 83.023438 15.949219 84.816406 15.949219 C 90.554688 15.488281 95.398438 21.015625 95.757812 28.386719 C 95.757812 29.078125 95.757812 29.539062 95.757812 30.230469 C 95.757812 39.214844 91.09375 45.433594 83.023438 45.433594 C 80.335938 45.433594 77.464844 44.742188 74.957031 43.589844 Z M 79.796875 39.214844 C 80.871094 39.675781 81.949219 39.90625 83.203125 39.675781 C 86.96875 40.136719 90.375 36.679688 90.734375 31.613281 C 90.734375 31.152344 90.734375 30.460938 90.734375 30 C 90.914062 25.394531 88.226562 21.476562 84.636719 21.246094 C 84.460938 21.246094 84.28125 21.246094 84.101562 21.246094 C 82.664062 21.246094 81.050781 21.707031 79.796875 22.628906 Z M 109.5625 25.625 C 109.5625 22.628906 107.769531 21.246094 105.4375 21.246094 C 103.289062 21.246094 101.136719 22.167969 99.164062 23.550781 L 99.164062 18.023438 C 101.316406 16.410156 103.644531 15.71875 106.15625 15.71875 C 110.820312 15.71875 114.226562 18.25 114.226562 25.394531 L 114.226562 44.050781 C 111.714844 44.742188 109.382812 45.203125 106.875 45.203125 C 101.316406 45.203125 97.191406 42.898438 97.191406 36.679688 C 97.191406 30.921875 100.957031 28.15625 107.234375 28.15625 L 109.5625 28.15625 Z M 109.5625 32.304688 L 107.589844 32.304688 C 104.183594 32.304688 102.03125 33.6875 102.03125 36.449219 C 102.03125 39.445312 104.003906 40.597656 107.054688 40.597656 C 107.949219 40.597656 108.847656 40.367188 109.742188 40.367188 Z M 117.8125 36.910156 C 119.605469 38.753906 121.9375 39.90625 124.445312 40.136719 C 126.597656 40.136719 128.035156 39.214844 128.035156 36.910156 C 128.035156 34.605469 126.777344 33.6875 123.910156 32.765625 C 119.425781 31.382812 117.453125 29.078125 117.453125 24.242188 C 117.453125 18.480469 120.679688 15.71875 125.164062 15.71875 C 127.316406 15.71875 129.46875 16.410156 131.441406 17.792969 L 131.441406 23.550781 C 129.648438 21.707031 127.675781 20.785156 125.34375 20.554688 C 123.191406 20.554688 122.117188 21.9375 122.117188 23.78125 C 122.117188 25.625 123.011719 26.542969 125.523438 27.464844 C 130.542969 28.847656 132.515625 31.152344 132.515625 36.449219 C 132.515625 42.4375 129.109375 44.972656 124.445312 44.972656 C 122.117188 44.972656 119.785156 44.28125 117.8125 42.667969 Z M 139.152344 31.84375 C 139.511719 36.449219 142.558594 39.90625 146.144531 39.675781 C 148.65625 39.675781 151.34375 38.753906 153.316406 36.910156 L 153.316406 42.4375 C 150.984375 44.28125 148.476562 45.203125 145.785156 44.972656 C 139.867188 45.433594 134.847656 39.90625 134.488281 32.304688 C 134.488281 31.613281 134.488281 31.152344 134.488281 30.460938 C 134.488281 21.476562 138.972656 15.488281 144.890625 15.488281 C 151.164062 15.488281 154.214844 20.785156 154.214844 28.386719 L 154.214844 31.613281 Z M 149.730469 27.925781 C 149.550781 23.550781 147.9375 21.015625 144.890625 21.015625 C 142.019531 21.015625 140.046875 23.550781 139.511719 27.925781 Z M 149.730469 27.925781 "/>
<path style=" stroke:none;fill-rule:nonzero;fill:rgb(60%,65.098039%,70.196078%);fill-opacity:1;" d="M 171.429688 0.0546875 L 171.789062 0.0546875 C 172.144531 0.0546875 172.503906 0.515625 172.503906 0.976562 L 172.503906 58.792969 C 172.503906 59.253906 172.144531 59.714844 171.789062 59.714844 L 171.25 59.714844 C 170.890625 59.714844 170.53125 59.253906 170.53125 58.792969 L 170.53125 1.207031 C 170.710938 0.515625 171.070312 0.0546875 171.429688 0.0546875 Z M 171.429688 0.0546875 "/>
<path style=" stroke:none;fill-rule:nonzero;fill:rgb(14.901961%,40%,69.019608%);fill-opacity:1;" d="M 199.222656 44.742188 L 196.53125 44.742188 L 188.285156 16.179688 L 190.796875 16.179688 L 198.148438 41.75 L 205.320312 16.179688 L 207.652344 16.179688 Z M 220.921875 34.375 L 208.90625 34.375 C 208.726562 38.523438 211.058594 42.207031 214.464844 42.4375 C 214.644531 42.4375 214.644531 42.4375 214.824219 42.4375 C 216.796875 42.4375 218.769531 41.75 220.203125 40.136719 L 220.203125 43.128906 C 218.589844 44.511719 216.796875 45.203125 214.824219 45.203125 C 210.519531 45.433594 206.753906 41.058594 206.753906 35.296875 C 206.753906 34.835938 206.753906 34.605469 206.753906 34.144531 C 206.753906 27.925781 209.980469 23.320312 214.285156 23.320312 C 218.230469 23.320312 220.921875 26.542969 220.921875 32.535156 Z M 208.90625 32.074219 L 218.589844 32.074219 C 218.410156 27.695312 216.617188 26.082031 213.925781 26.082031 C 211.417969 26.082031 209.265625 28.617188 208.90625 32.074219 Z M 223.25 44.742188 L 223.25 24.933594 C 225.402344 24.011719 227.554688 23.320312 229.886719 23.320312 C 233.832031 23.320312 236.34375 25.394531 236.34375 30.691406 L 236.34375 44.742188 L 234.191406 44.742188 L 234.191406 31.382812 C 234.191406 27.234375 231.859375 26.082031 229.707031 26.082031 C 228.273438 26.082031 226.839844 26.3125 225.402344 26.773438 L 225.402344 44.742188 Z M 237.777344 26.3125 L 237.777344 23.78125 L 240.285156 23.78125 L 240.285156 18.710938 L 242.4375 18.710938 L 242.4375 23.78125 L 246.921875 23.78125 L 246.921875 26.3125 L 242.4375 26.3125 L 242.4375 38.984375 C 242.4375 41.75 243.15625 42.667969 244.769531 42.667969 C 245.847656 42.667969 246.742188 42.207031 247.640625 41.519531 L 247.640625 44.050781 C 246.5625 44.742188 245.488281 45.203125 244.230469 44.972656 C 241.902344 44.972656 240.285156 43.359375 240.285156 38.984375 L 240.285156 25.855469 Z M 261.984375 23.78125 L 261.984375 44.28125 C 260.191406 44.742188 258.21875 44.972656 256.425781 44.972656 C 251.761719 44.972656 249.253906 42.898438 249.253906 37.601562 L 249.253906 23.550781 L 251.40625 23.550781 L 251.40625 37.371094 C 251.40625 41.289062 253.734375 42.207031 256.246094 42.207031 C 257.5 42.207031 258.578125 42.207031 259.652344 41.976562 L 259.652344 23.320312 Z M 267.902344 27.234375 L 267.902344 44.742188 L 265.75 44.742188 L 265.75 25.855469 C 267.542969 24.472656 269.515625 23.550781 271.667969 23.550781 C 272.5625 23.550781 273.460938 23.78125 274.359375 24.011719 L 274.359375 26.773438 C 273.460938 26.3125 272.5625 26.3125 271.488281 26.3125 C 270.234375 26.082031 268.976562 26.542969 267.902344 27.234375 Z M 288.34375 34.375 L 276.328125 34.375 C 276.152344 38.523438 278.480469 42.207031 281.890625 42.4375 C 282.066406 42.4375 282.066406 42.4375 282.246094 42.4375 C 284.21875 42.4375 286.191406 41.75 287.628906 40.136719 L 287.628906 43.128906 C 286.011719 44.511719 284.21875 45.203125 282.246094 45.203125 C 277.945312 45.433594 274.179688 41.058594 274.179688 35.296875 C 274.179688 34.835938 274.179688 34.605469 274.179688 34.144531 C 274.179688 27.925781 277.40625 23.320312 281.710938 23.320312 C 285.65625 23.320312 288.34375 26.542969 288.34375 32.535156 Z M 276.507812 32.074219 L 286.191406 32.074219 C 286.011719 27.695312 284.21875 26.082031 281.53125 26.082031 C 279.019531 25.855469 276.867188 28.617188 276.507812 32.074219 Z M 290.136719 43.359375 L 290.136719 40.136719 C 291.394531 41.75 292.828125 42.667969 294.621094 42.667969 C 296.59375 42.667969 297.847656 41.75 297.847656 39.214844 C 297.847656 36.679688 296.414062 35.988281 293.902344 35.066406 C 291.035156 33.917969 289.957031 32.304688 289.957031 29.078125 C 289.957031 25.394531 292.109375 23.320312 294.980469 23.320312 C 296.59375 23.320312 298.027344 23.78125 299.28125 24.933594 L 299.28125 27.925781 C 298.027344 26.542969 296.59375 25.625 294.980469 25.625 C 293.1875 25.625 292.109375 26.773438 292.109375 28.847656 C 292.109375 30.691406 293.007812 31.84375 295.335938 32.765625 C 298.027344 33.917969 300 35.296875 300 38.984375 C 300 43.128906 297.488281 44.972656 294.621094 44.972656 C 293.007812 45.203125 291.394531 44.511719 290.136719 43.359375 Z M 290.136719 43.359375 "/>
</g>
</svg>
