<svg xmlns="http://www.w3.org/2000/svg" width="167.246" height="31.199" viewBox="0 0 167.246 31.199">
  <g id="Group_164" data-name="Group 164" transform="translate(-19.707 -321.249)">
    <g id="Group_163" data-name="Group 163" transform="translate(19.707 321.249)">
      <path id="Path_644" data-name="Path 644" d="M19.707,345.765c2.259-4.423,8.333-6.092,13.175-3.622,2.4,1.224,3.416,3.086,2.976,5.549-.247.021-.517.061-.787.063-1.3.007-2.608,0-3.905,0a1.689,1.689,0,0,1-.174-.415c-.141-2.321-1.815-3.325-4.359-2.64a2.109,2.109,0,0,0-1.834,2.184c.012,2.6-.014,5.192.009,7.788.014,1.638,1.08,2.464,3.087,2.463s3-.8,3.081-2.46c.01-.2.031-.4.054-.693h4.857a4.37,4.37,0,0,1-1.368,4.384c-3.126,2.978-10.166,2.988-13.241-.038a12.648,12.648,0,0,1-1.572-2.429Z" transform="translate(-19.707 -335.394)" fill="#061b52"/>
      <path id="Path_645" data-name="Path 645" d="M164.821,360.526h-4.969V341.671h4.862l.164.6a50.887,50.887,0,0,1,5.381-.906,5.687,5.687,0,0,1,4.794,2.015,9.159,9.159,0,0,1,7.717-1.852c2.281.487,3.708,1.779,3.965,3.828a37.857,37.857,0,0,1,.165,4.562c.013,3.419-.011,6.838-.025,10.257,0,.074-.061.148-.129.3h-4.961v-1.371c0-4.038.007-8.075,0-12.113,0-1.59-.851-2.23-2.888-2.241-2.079-.011-3.025.681-3.03,2.271-.012,3.955,0,7.91,0,11.865v1.571h-5.1v-1.331c0-3.955-.081-7.912.035-11.865.055-1.876-.8-2.462-3.026-2.5-2.2-.037-2.946.659-2.947,2.573q0,5.871,0,11.742Z" transform="translate(-120.014 -335.62)" fill="#061b52"/>
      <path id="Path_646" data-name="Path 646" d="M409.258,342.337H414.2c.026.46.071.893.072,1.326q.01,4.384,0,8.768c0,5.213.258,5.687,3.091,5.668,2.789-.018,3.024-.465,3.024-5.734V342.4h4.98V361.2h-4.837l-.32-.978a9.852,9.852,0,0,1-7.079,1.058c-2.19-.548-3.76-1.828-3.825-3.813C409.148,352.461,409.258,347.448,409.258,342.337Z" transform="translate(-298.512 -336.354)" fill="#061b52"/>
      <path id="Path_647" data-name="Path 647" d="M485.745,360.493h-5V341.639h4.869l.291,1.016a9.928,9.928,0,0,1,6.669-1.173c2.483.5,4.167,1.84,4.239,4.032.162,4.967.051,9.941.051,14.977h-4.929c-.024-.452-.065-.887-.066-1.323-.005-3.995,0-7.99-.005-11.984,0-1.782-.88-2.458-3.127-2.434-2.183.024-2.982.668-2.985,2.435q-.009,5.931,0,11.861Z" transform="translate(-349.668 -335.617)" fill="#061b52"/>
      <path id="Path_648" data-name="Path 648" d="M104.448,351.312c0,1.235.007,2.47,0,3.705-.019,2.72-1.417,4.555-4.305,5.46a11.965,11.965,0,0,1-8.079-.186c-2.543-.99-3.925-2.705-3.9-5.222.024-2.264,0-4.529,0-6.793,0-3.9,1.883-5.99,6.327-6.524a15.777,15.777,0,0,1,5.378.356c3.094.735,4.554,2.688,4.573,5.5C104.455,348.842,104.448,350.077,104.448,351.312Zm-11.215,0q0,1.911,0,3.822c0,.082,0,.165,0,.247.1,1.465,1.26,2.277,3.2,2.234,1.9-.042,2.95-.832,2.964-2.3q.037-4.007,0-8.014c-.014-1.464-1.069-2.254-2.965-2.3-1.937-.043-3.135.769-3.187,2.236C93.2,348.594,93.235,349.951,93.233,351.308Z" transform="translate(-68.74 -335.867)" fill="#061b52"/>
      <path id="Path_649" data-name="Path 649" d="M355.12,351.43c0,1.194.007,2.388,0,3.582-.019,2.819-1.5,4.669-4.547,5.553a11.969,11.969,0,0,1-7.813-.247c-2.544-.985-3.942-2.69-3.922-5.208.019-2.264,0-4.529,0-6.793,0-3.923,1.866-6.01,6.3-6.54a15.979,15.979,0,0,1,5.512.378c3.016.734,4.444,2.693,4.464,5.447C355.128,348.878,355.12,350.154,355.12,351.43Zm-5.043.018c0-1.4.026-2.8-.007-4.192-.034-1.43-1.134-2.22-3.034-2.236-1.883-.016-3.084.769-3.111,2.175q-.078,4.129,0,8.261c.026,1.405,1.226,2.189,3.111,2.174,1.9-.015,3-.8,3.034-2.235C350.1,354.079,350.077,352.763,350.077,351.448Z" transform="translate(-248.132 -335.885)" fill="#061b52"/>
      <path id="Path_650" data-name="Path 650" d="M284.624,346.384c-.1-2.937-2.467-4.958-5.821-4.854a24,24,0,0,0-4.671,1.066c-.169.041-.341.076-.517.115l-.264-.922h-4.956v25.134l5.06-1.888v-5.493c1.009.4,1.7.745,2.445.97,4.494,1.364,8.546-.685,8.719-4.517C284.764,352.8,284.738,349.586,284.624,346.384Zm-5.057,9.131c-.035,1.261-1.515,2.045-3.356,1.959-1.873-.087-2.7-.736-2.717-2.175-.018-1.4,0-2.792,0-4.188,0-1.355-.016-2.71,0-4.065.022-1.415.879-2.07,2.752-2.144,1.849-.074,3.291.713,3.324,1.992Q279.682,351.2,279.567,355.515Z" transform="translate(-197.712 -335.725)" fill="#061b52"/>
      <path id="Path_651" data-name="Path 651" d="M561.948,323.048v5.4c-.8-.376-1.311-.651-1.857-.872-4.463-1.809-9.1.231-9.3,4.211-.168,3.237-.127,6.489-.008,9.729.1,2.854,2.471,4.891,5.734,4.8a24.892,24.892,0,0,0,4.811-1.066c.165-.039.332-.071.5-.108l.245.916h4.934V321.249h-.237Zm-.01,17.739c-.016,1.361-.926,2.064-2.759,2.161-1.8.1-3.31-.716-3.344-1.975q-.117-4.306,0-8.616c.034-1.262,1.538-2.071,3.342-1.977,1.832.1,2.746.8,2.762,2.158.016,1.4,0,2.791,0,4.186C561.942,338.079,561.955,339.433,561.939,340.788Z" transform="translate(-399.762 -321.249)" fill="#061b52"/>
    </g>
  </g>
</svg>
