<?xml version="1.0" encoding="UTF-8"?>
<svg xmlns="http://www.w3.org/2000/svg" xmlns:xlink="http://www.w3.org/1999/xlink" width="300" height="60" viewBox="0 0 300 60" version="1.1">
<g id="surface1">
<path style=" stroke:none;fill-rule:nonzero;fill:rgb(14.901961%,40%,69.019608%);fill-opacity:1;" d="M 0.78125 20 C 4.886719 11.539062 15.597656 8.269531 24.34375 13.078125 C 28.628906 15.382812 30.414062 19.039062 29.699219 23.652344 C 29.339844 23.652344 28.804688 23.847656 28.269531 23.847656 C 25.949219 23.847656 23.628906 23.847656 21.308594 23.847656 C 21.128906 23.652344 21.128906 23.269531 20.953125 23.078125 C 20.773438 18.652344 17.738281 16.730469 13.097656 18.078125 C 11.136719 18.078125 9.707031 20 9.886719 22.117188 C 9.886719 27.117188 9.886719 32.117188 9.886719 37.117188 C 9.886719 40.191406 11.847656 41.921875 15.417969 41.921875 C 18.988281 41.921875 20.773438 40.382812 20.953125 37.117188 C 20.953125 36.730469 20.953125 36.347656 21.128906 35.769531 L 29.875 35.769531 C 30.589844 38.847656 29.699219 42.117188 27.378906 44.230469 C 21.84375 50 9.171875 50 3.816406 44.230469 C 2.566406 42.691406 1.496094 41.152344 0.78125 39.421875 Z M 0.78125 20 "/>
<path style=" stroke:none;fill-rule:nonzero;fill:rgb(14.901961%,40%,69.019608%);fill-opacity:1;" d="M 80.746094 47.882812 L 71.820312 47.882812 L 71.820312 11.730469 L 80.566406 11.730469 L 80.925781 12.882812 C 84.136719 12.117188 87.351562 11.539062 90.5625 11.152344 C 93.777344 10.960938 96.988281 12.308594 99.128906 15 C 103.058594 11.539062 108.054688 10.382812 112.875 11.347656 C 116.980469 12.308594 119.476562 14.808594 120.015625 18.652344 C 120.191406 21.539062 120.371094 24.421875 120.371094 27.5 C 120.371094 34.039062 120.371094 40.578125 120.371094 47.308594 C 120.371094 47.5 120.191406 47.5 120.191406 47.882812 L 111.269531 47.882812 L 111.269531 45.191406 C 111.269531 37.5 111.269531 29.617188 111.269531 21.921875 C 111.269531 18.847656 109.660156 17.691406 106.089844 17.691406 C 102.34375 17.691406 100.738281 19.039062 100.738281 22.117188 C 100.738281 29.808594 100.738281 37.308594 100.738281 45 L 100.738281 48.078125 L 91.632812 48.078125 L 91.632812 45.578125 C 91.632812 37.882812 91.457031 30.382812 91.632812 22.691406 C 91.8125 19.039062 90.207031 17.882812 86.28125 17.882812 C 82.351562 17.882812 81.101562 19.230469 81.101562 22.882812 C 81.101562 30.382812 81.101562 37.882812 81.101562 45.382812 Z M 80.746094 47.882812 "/>
<path style=" stroke:none;fill-rule:nonzero;fill:rgb(14.901961%,40%,69.019608%);fill-opacity:1;" d="M 198.371094 11.539062 L 207.117188 11.539062 C 207.117188 12.5 207.296875 13.269531 207.296875 14.039062 C 207.296875 19.617188 207.296875 25.191406 207.296875 30.960938 C 207.296875 40.960938 207.832031 41.921875 212.828125 41.921875 C 217.824219 41.921875 218.183594 40.960938 218.183594 30.960938 L 218.183594 11.539062 L 227.105469 11.539062 L 227.105469 47.691406 L 218.539062 47.691406 L 218.003906 45.769531 C 214.257812 48.078125 209.617188 48.847656 205.332031 47.882812 C 201.40625 46.921875 198.550781 44.421875 198.550781 40.578125 C 198.191406 30.960938 198.371094 21.347656 198.371094 11.539062 Z M 198.371094 11.539062 "/>
<path style=" stroke:none;fill-rule:nonzero;fill:rgb(14.901961%,40%,69.019608%);fill-opacity:1;" d="M 243.707031 47.882812 L 234.78125 47.882812 L 234.78125 11.539062 L 243.527344 11.539062 L 244.0625 13.460938 C 247.632812 11.152344 251.917969 10.382812 256.023438 11.152344 C 260.484375 12.117188 263.519531 14.617188 263.519531 18.847656 C 263.875 28.460938 263.699219 37.882812 263.699219 47.691406 L 254.953125 47.691406 C 254.953125 46.730469 254.773438 45.960938 254.773438 45.191406 C 254.773438 37.5 254.773438 29.808594 254.773438 22.117188 C 254.773438 18.652344 253.167969 17.308594 249.238281 17.5 C 245.3125 17.5 243.886719 18.847656 243.886719 22.117188 C 243.886719 29.808594 243.886719 37.308594 243.886719 45 Z M 243.707031 47.882812 "/>
<path style=" stroke:none;fill-rule:nonzero;fill:rgb(14.901961%,40%,69.019608%);fill-opacity:1;" d="M 64.503906 29.617188 C 64.503906 31.921875 64.503906 34.421875 64.503906 36.730469 C 64.503906 41.921875 62.003906 45.578125 56.828125 47.308594 C 52.1875 49.039062 47.011719 48.847656 42.371094 46.921875 C 37.910156 45 35.410156 41.730469 35.410156 36.921875 C 35.410156 32.5 35.410156 28.269531 35.410156 23.847656 C 35.410156 16.347656 38.800781 12.308594 46.65625 11.347656 C 49.867188 10.960938 53.082031 11.152344 56.292969 12.117188 C 61.828125 13.460938 64.503906 17.308594 64.503906 22.691406 C 64.503906 25 64.503906 27.308594 64.503906 29.617188 Z M 44.511719 29.617188 C 44.511719 32.117188 44.511719 34.421875 44.511719 36.921875 C 44.511719 37.117188 44.511719 37.308594 44.511719 37.308594 C 44.691406 40.191406 46.832031 41.730469 50.222656 41.539062 C 53.617188 41.539062 55.402344 40 55.578125 37.117188 C 55.578125 31.921875 55.578125 26.921875 55.578125 21.730469 C 55.578125 18.847656 53.617188 17.308594 50.222656 17.308594 C 46.832031 17.308594 44.691406 18.847656 44.511719 21.539062 C 44.511719 24.421875 44.511719 27.117188 44.511719 29.617188 Z M 44.511719 29.617188 "/>
<path style=" stroke:none;fill-rule:nonzero;fill:rgb(14.901961%,40%,69.019608%);fill-opacity:1;" d="M 191.765625 29.808594 C 191.765625 32.117188 191.765625 34.421875 191.765625 36.730469 C 191.765625 42.117188 189.089844 45.769531 183.734375 47.5 C 179.09375 49.039062 174.273438 48.847656 169.8125 47.117188 C 165.351562 45.191406 162.851562 41.921875 162.851562 37.117188 C 162.851562 32.691406 162.851562 28.460938 162.851562 24.039062 C 162.851562 16.539062 166.242188 12.5 174.097656 11.539062 C 177.308594 11.152344 180.699219 11.347656 183.914062 12.308594 C 189.269531 13.652344 191.765625 17.5 191.945312 22.691406 C 191.765625 25 191.765625 27.5 191.765625 29.808594 Z M 182.664062 30 C 182.664062 27.308594 182.664062 24.617188 182.664062 21.921875 C 182.664062 19.230469 180.699219 17.691406 177.308594 17.691406 C 173.917969 17.691406 171.777344 19.230469 171.777344 21.921875 C 171.597656 27.308594 171.597656 32.5 171.777344 37.882812 C 171.777344 40.578125 173.917969 42.117188 177.308594 42.117188 C 180.699219 42.117188 182.664062 40.578125 182.664062 37.882812 C 182.84375 35 182.664062 32.5 182.664062 30 Z M 182.664062 30 "/>
<path style=" stroke:none;fill-rule:nonzero;fill:rgb(14.901961%,40%,69.019608%);fill-opacity:1;" d="M 155.890625 20.578125 C 155.710938 15 151.429688 10.960938 145.539062 11.152344 C 142.683594 11.539062 139.824219 12.308594 137.148438 13.269531 C 136.792969 13.269531 136.613281 13.460938 136.257812 13.460938 L 135.722656 11.730469 L 126.796875 11.730469 L 126.796875 60 L 135.898438 56.347656 L 135.898438 45.769531 C 137.683594 46.539062 138.933594 47.117188 140.183594 47.691406 C 148.214844 50.382812 155.355469 46.347656 155.710938 39.039062 C 156.246094 32.882812 156.070312 26.730469 155.890625 20.578125 Z M 146.964844 38.078125 C 146.964844 40.578125 144.289062 41.921875 140.898438 41.921875 C 137.503906 41.730469 136.078125 40.578125 136.078125 37.691406 C 136.078125 35 136.078125 32.308594 136.078125 29.617188 C 136.078125 26.921875 136.078125 24.421875 136.078125 21.730469 C 136.078125 19.039062 137.683594 17.691406 141.074219 17.691406 C 144.289062 17.5 146.964844 19.039062 146.964844 21.539062 C 146.964844 26.921875 146.964844 32.5 146.964844 38.078125 Z M 146.964844 38.078125 "/>
<path style=" stroke:none;fill-rule:nonzero;fill:rgb(14.901961%,40%,69.019608%);fill-opacity:1;" d="M 290.292969 3.460938 L 290.292969 13.847656 C 288.863281 13.078125 287.972656 12.5 286.902344 12.117188 C 278.871094 8.652344 270.660156 12.5 270.300781 20.191406 C 269.945312 26.347656 270.125 32.691406 270.300781 38.847656 C 270.480469 44.421875 274.765625 48.269531 280.476562 48.078125 C 283.332031 47.691406 286.1875 46.921875 289.042969 45.960938 C 289.398438 45.960938 289.578125 45.769531 289.933594 45.769531 L 290.292969 47.5 L 299.039062 47.5 L 299.039062 0 L 298.859375 0 Z M 290.292969 37.5 C 290.292969 40.191406 288.6875 41.539062 285.292969 41.730469 C 282.082031 41.921875 279.40625 40.382812 279.40625 37.882812 C 279.226562 32.308594 279.226562 26.921875 279.40625 21.347656 C 279.40625 18.847656 282.082031 17.308594 285.292969 17.5 C 288.507812 17.691406 290.113281 19.039062 290.292969 21.730469 C 290.292969 24.421875 290.292969 27.117188 290.292969 29.808594 C 290.292969 32.308594 290.292969 35 290.292969 37.5 Z M 290.292969 37.5 "/>
</g>
</svg>
