<?xml version="1.0" encoding="UTF-8"?>
<svg id="katman_1" data-name="katman 1" xmlns="http://www.w3.org/2000/svg" viewBox="0 0 300 100">
  <defs>
    <style>
      .cls-1 {
        fill: #061b52;
      }
    </style>
  </defs>
  <g id="Group_164" data-name="Group 164" transform="translate(-19.707 -321.249)">
    <g id="Group_163" data-name="Group 163" transform="translate(19.707 321.249)">
      <path id="Path_644" data-name="Path 644" class="cls-1" d="M66.42,44.53c2.26-4.42,8.33-6.09,13.17-3.62,2.4,1.22,3.42,3.09,2.98,5.55-.25,.02-.52,.06-.79,.06-1.3,0-2.61,0-3.91,0-.08-.13-.13-.27-.17-.42-.14-2.32-1.82-3.33-4.36-2.64-1.09,.14-1.88,1.09-1.83,2.18,.01,2.6-.01,5.19,0,7.79,.01,1.64,1.08,2.46,3.09,2.46s3-.8,3.08-2.46c.01-.2,.03-.4,.05-.69h4.86c.41,1.6-.12,3.3-1.37,4.38-3.13,2.98-10.17,2.99-13.24-.04-.62-.75-1.14-1.56-1.57-2.43v-10.13Z"/>
      <path id="Path_645" data-name="Path 645" class="cls-1" d="M111.23,59.07h-4.97v-18.86h4.86l.16,.6c1.78-.4,3.57-.7,5.38-.91,1.83-.14,3.61,.61,4.79,2.02,2.16-1.76,5-2.44,7.72-1.85,2.28,.49,3.71,1.78,3.96,3.83,.15,1.52,.2,3.04,.16,4.56,.01,3.42-.01,6.84-.02,10.26,0,.07-.06,.15-.13,.3h-4.96v-1.37c0-4.04,0-8.08,0-12.11,0-1.59-.85-2.23-2.89-2.24-2.08-.01-3.02,.68-3.03,2.27-.01,3.95,0,7.91,0,11.86v1.57h-5.1v-1.33c0-3.95-.08-7.91,.04-11.86,.05-1.88-.8-2.46-3.03-2.5-2.2-.04-2.95,.66-2.95,2.57v13.19Z"/>
      <path id="Path_646" data-name="Path 646" class="cls-1" d="M177.17,40.14h4.94c.03,.46,.07,.89,.07,1.33,0,2.92,0,5.85,0,8.77,0,5.21,.26,5.69,3.09,5.67,2.79-.02,3.02-.46,3.02-5.73v-9.96h4.98v18.8h-4.84l-.32-.98c-2.14,1.23-4.67,1.61-7.08,1.06-2.19-.55-3.76-1.83-3.83-3.81-.16-5.01-.05-10.02-.05-15.13Z"/>
      <path id="Path_647" data-name="Path 647" class="cls-1" d="M202.5,59.04h-5v-18.85h4.87l.29,1.02c2.02-1.16,4.38-1.58,6.67-1.17,2.48,.5,4.17,1.84,4.24,4.03,.16,4.97,.05,9.94,.05,14.98h-4.93c-.02-.45-.07-.89-.07-1.32,0-3.99,0-7.99,0-11.98,0-1.78-.88-2.46-3.13-2.43-2.18,.02-2.98,.67-2.98,2.43,0,3.95,0,7.91,0,11.86v1.45Z"/>
      <path id="Path_648" data-name="Path 648" class="cls-1" d="M102.13,49.61c0,1.23,0,2.47,0,3.7-.02,2.72-1.42,4.55-4.31,5.46-2.63,.88-5.49,.81-8.08-.19-2.54-.99-3.93-2.7-3.9-5.22,.02-2.26,0-4.53,0-6.79,0-3.9,1.88-5.99,6.33-6.52,1.8-.19,3.62-.07,5.38,.36,3.09,.73,4.55,2.69,4.57,5.5,.01,1.23,0,2.47,0,3.7Zm-11.21,0v4.07c.1,1.46,1.26,2.28,3.2,2.23,1.9-.04,2.95-.83,2.96-2.3,.02-2.67,.02-5.34,0-8.01-.01-1.46-1.07-2.25-2.96-2.3-1.94-.04-3.14,.77-3.19,2.24-.05,1.36-.01,2.71-.01,4.07h0Z"/>
      <path id="Path_649" data-name="Path 649" class="cls-1" d="M173.41,49.71c0,1.19,0,2.39,0,3.58-.02,2.82-1.5,4.67-4.55,5.55-2.56,.79-5.31,.71-7.81-.25-2.54-.98-3.94-2.69-3.92-5.21,.02-2.26,0-4.53,0-6.79,0-3.92,1.87-6.01,6.3-6.54,1.85-.2,3.71-.07,5.51,.38,3.02,.73,4.44,2.69,4.46,5.45,.01,1.28,0,2.55,0,3.83Zm-5.04,.02c0-1.4,.03-2.8,0-4.19-.03-1.43-1.13-2.22-3.03-2.24-1.88-.02-3.08,.77-3.11,2.17-.05,2.75-.05,5.51,0,8.26,.03,1.4,1.23,2.19,3.11,2.17,1.9-.02,3-.8,3.03-2.23,.03-1.32,0-2.63,0-3.95Z"/>
      <path id="Path_650" data-name="Path 650" class="cls-1" d="M153.33,44.82c-.1-2.94-2.47-4.96-5.82-4.85-1.59,.2-3.15,.56-4.67,1.07-.17,.04-.34,.08-.52,.11l-.26-.92h-4.96v25.13l5.06-1.89v-5.49c1.01,.4,1.7,.74,2.45,.97,4.49,1.36,8.55-.68,8.72-4.52,.15-3.2,.12-6.41,0-9.61Zm-5.06,9.13c-.04,1.26-1.52,2.05-3.36,1.96-1.87-.09-2.7-.74-2.72-2.17-.02-1.4,0-2.79,0-4.19s-.02-2.71,0-4.07c.02-1.42,.88-2.07,2.75-2.14,1.85-.07,3.29,.71,3.32,1.99,.07,2.87,.07,5.74,0,8.62Z"/>
      <path id="Path_651" data-name="Path 651" class="cls-1" d="M228.61,35.96v5.4c-.8-.38-1.31-.65-1.86-.87-4.46-1.81-9.1,.23-9.3,4.21-.17,3.24-.13,6.49,0,9.73,.1,2.85,2.47,4.89,5.73,4.8,1.63-.2,3.25-.55,4.81-1.07,.16-.04,.33-.07,.5-.11l.24,.92h4.93v-24.81h-.24l-4.82,1.8Zm-.01,17.74c-.02,1.36-.93,2.06-2.76,2.16-1.8,.1-3.31-.72-3.34-1.98-.08-2.87-.08-5.74,0-8.62,.03-1.26,1.54-2.07,3.34-1.98,1.83,.1,2.75,.8,2.76,2.16,.02,1.4,0,2.79,0,4.19,0,1.35,.02,2.71,0,4.06h0Z"/>
    </g>
  </g>
</svg>