<?xml version="1.0" encoding="utf-8"?>
<!-- Generator: Adobe Illustrator 26.3.1, SVG Export Plug-In . SVG Version: 6.00 Build 0)  -->
<svg version="1.1" id="katman_1" xmlns="http://www.w3.org/2000/svg" xmlns:xlink="http://www.w3.org/1999/xlink" x="0px" y="0px"
	 viewBox="0 0 167.2 31.2" style="enable-background:new 0 0 167.2 31.2;" xml:space="preserve">
<style type="text/css">
	.st0{fill:#2666B0;}
</style>
<g id="Group_164" transform="translate(-19.707 -321.249)">
	<g id="Group_163" transform="translate(19.707 321.249)">
		<path id="Path_644" class="st0" d="M0,10.4c2.3-4.4,8.3-6.1,13.2-3.6c2.4,1.2,3.4,3.1,3,5.5c-0.2,0-0.5,0.1-0.8,0.1
			c-1.3,0-2.6,0-3.9,0c-0.1-0.1-0.1-0.3-0.2-0.4c-0.1-2.3-1.8-3.3-4.4-2.6C5.8,9.4,5,10.4,5.1,11.5c0,2.6,0,5.2,0,7.8
			c0,1.6,1.1,2.5,3.1,2.5s3-0.8,3.1-2.5c0-0.2,0-0.4,0.1-0.7h4.9c0.4,1.6-0.1,3.3-1.4,4.4c-3.1,3-10.2,3-13.2,0
			C1,22.2,0.4,21.4,0,20.5L0,10.4z"/>
		<path id="Path_645" class="st0" d="M44.8,24.9h-5V6.1h4.9l0.2,0.6c1.8-0.4,3.6-0.7,5.4-0.9c1.8-0.1,3.6,0.6,4.8,2
			c2.2-1.8,5-2.4,7.7-1.9c2.3,0.5,3.7,1.8,4,3.8c0.1,1.5,0.2,3,0.2,4.6c0,3.4,0,6.8,0,10.3c0,0.1-0.1,0.1-0.1,0.3h-5v-1.4
			c0-4,0-8.1,0-12.1c0-1.6-0.9-2.2-2.9-2.2c-2.1,0-3,0.7-3,2.3c0,4,0,7.9,0,11.9v1.6h-5.1v-1.3c0-4-0.1-7.9,0-11.9
			c0.1-1.9-0.8-2.5-3-2.5c-2.2,0-2.9,0.7-2.9,2.6c0,3.9,0,7.8,0,11.7L44.8,24.9z"/>
		<path id="Path_646" class="st0" d="M110.7,6h4.9c0,0.5,0.1,0.9,0.1,1.3c0,2.9,0,5.8,0,8.8c0,5.2,0.3,5.7,3.1,5.7
			c2.8,0,3-0.5,3-5.7V6h5v18.8H122l-0.3-1c-2.1,1.2-4.7,1.6-7.1,1.1c-2.2-0.5-3.8-1.8-3.8-3.8C110.6,16.1,110.7,11.1,110.7,6z"/>
		<path id="Path_647" class="st0" d="M136.1,24.9h-5V6h4.9l0.3,1c2-1.2,4.4-1.6,6.7-1.2c2.5,0.5,4.2,1.8,4.2,4c0.2,5,0.1,9.9,0.1,15
			h-4.9c0-0.5-0.1-0.9-0.1-1.3c0-4,0-8,0-12c0-1.8-0.9-2.5-3.1-2.4c-2.2,0-3,0.7-3,2.4c0,4,0,7.9,0,11.9L136.1,24.9z"/>
		<path id="Path_648" class="st0" d="M35.7,15.4c0,1.2,0,2.5,0,3.7c0,2.7-1.4,4.6-4.3,5.5c-2.6,0.9-5.5,0.8-8.1-0.2
			c-2.5-1-3.9-2.7-3.9-5.2c0-2.3,0-4.5,0-6.8c0-3.9,1.9-6,6.3-6.5c1.8-0.2,3.6-0.1,5.4,0.4c3.1,0.7,4.6,2.7,4.6,5.5
			C35.7,13,35.7,14.2,35.7,15.4z M24.5,15.4c0,1.3,0,2.5,0,3.8c0,0.1,0,0.2,0,0.2c0.1,1.5,1.3,2.3,3.2,2.2c1.9,0,2.9-0.8,3-2.3
			c0-2.7,0-5.3,0-8c0-1.5-1.1-2.3-3-2.3c-1.9,0-3.1,0.8-3.2,2.2C24.5,12.7,24.5,14.1,24.5,15.4L24.5,15.4z"/>
		<path id="Path_649" class="st0" d="M107,15.5c0,1.2,0,2.4,0,3.6c0,2.8-1.5,4.7-4.5,5.6c-2.6,0.8-5.3,0.7-7.8-0.2
			c-2.5-1-3.9-2.7-3.9-5.2c0-2.3,0-4.5,0-6.8c0-3.9,1.9-6,6.3-6.5c1.8-0.2,3.7-0.1,5.5,0.4c3,0.7,4.4,2.7,4.5,5.4
			C107,13,107,14.3,107,15.5z M101.9,15.6c0-1.4,0-2.8,0-4.2c0-1.4-1.1-2.2-3-2.2c-1.9,0-3.1,0.8-3.1,2.2c-0.1,2.8-0.1,5.5,0,8.3
			c0,1.4,1.2,2.2,3.1,2.2c1.9,0,3-0.8,3-2.2C102,18.2,101.9,16.9,101.9,15.6z"/>
		<path id="Path_650" class="st0" d="M86.9,10.7c-0.1-2.9-2.5-5-5.8-4.9c-1.6,0.2-3.2,0.6-4.7,1.1c-0.2,0-0.3,0.1-0.5,0.1l-0.3-0.9
			h-5v25.1l5.1-1.9v-5.5c1,0.4,1.7,0.7,2.4,1c4.5,1.4,8.5-0.7,8.7-4.5C87.1,17.1,87,13.9,86.9,10.7z M81.9,19.8c0,1.3-1.5,2-3.4,2
			c-1.9-0.1-2.7-0.7-2.7-2.2c0-1.4,0-2.8,0-4.2c0-1.4,0-2.7,0-4.1c0-1.4,0.9-2.1,2.8-2.1c1.8-0.1,3.3,0.7,3.3,2
			C81.9,14,81.9,16.9,81.9,19.8z"/>
		<path id="Path_651" class="st0" d="M162.2,1.8v5.4c-0.8-0.4-1.3-0.7-1.9-0.9c-4.5-1.8-9.1,0.2-9.3,4.2c-0.2,3.2-0.1,6.5,0,9.7
			c0.1,2.9,2.5,4.9,5.7,4.8c1.6-0.2,3.2-0.6,4.8-1.1c0.2,0,0.3-0.1,0.5-0.1l0.2,0.9h4.9V0H167L162.2,1.8z M162.2,19.5
			c0,1.4-0.9,2.1-2.8,2.2c-1.8,0.1-3.3-0.7-3.3-2c-0.1-2.9-0.1-5.7,0-8.6c0-1.3,1.5-2.1,3.3-2c1.8,0.1,2.7,0.8,2.8,2.2
			c0,1.4,0,2.8,0,4.2C162.2,16.8,162.2,18.2,162.2,19.5L162.2,19.5z"/>
	</g>
</g>
</svg>
