<?xml version="1.0" encoding="utf-8"?>
<!-- Generator: Adobe Illustrator 26.3.1, SVG Export Plug-In . SVG Version: 6.00 Build 0)  -->
<svg version="1.1" id="katman_1" xmlns="http://www.w3.org/2000/svg" xmlns:xlink="http://www.w3.org/1999/xlink" x="0px" y="0px"
	 viewBox="0 0 108.4 56.5" style="enable-background:new 0 0 108.4 56.5;" xml:space="preserve">
<style type="text/css">
	.st0{fill:#2666B0;}
</style>
<g id="Group_90" transform="translate(0)">
	<g id="Group_89" transform="translate(20.862)">
		<path id="Path_138" class="st0" d="M0,35.3c9.7-7.8,11.2-22.1,3.4-31.8C2.4,2.2,1.3,1.1,0,0.1C0.3,0.1,0.5,0,0.7,0
			C6.8,0,12.9,0,19,0C28.5,0.2,36.3,8,36.3,17.6c0.1,8.6-6.1,16-14.5,17.5c-1.1,0.2-2.2,0.3-3.3,0.3c-5.9,0-11.9,0-17.8,0
			C0.5,35.3,0.3,35.3,0,35.3z"/>
		<path id="Path_139" class="st0" d="M34.6,35.1c10.1-9.7,17.2-21.2,20.5-34.9c1.7,6.6,4.3,12.9,7.7,18.8c3.5,5.8,7.8,11.2,12.6,16
			C62.2,30.2,47.8,30.2,34.6,35.1z"/>
	</g>
	<path id="Path_140" class="st0" d="M79.4,46.6c0.4,0,0.8,0,1.2,0c0.2,0.1,0.5,0.2,0.6,0.4c1.6,1.9,3.2,3.8,4.7,5.8
		c0.1,0.1,0.3,0.3,0.5,0.5v-6.7h1.7v9.7c-0.8,0.2-1.7-0.1-2.2-0.7c-1.5-2-3.1-3.9-4.8-6v6.7h-1.7L79.4,46.6z"/>
	<path id="Path_141" class="st0" d="M0,46.7c1.7-0.1,3.4-0.1,5.2,0c2.5,0.3,3.9,2.4,3.8,5c0,2.4-1.8,4.3-4.2,4.5
		c-1.6,0.1-3.2,0-4.8,0V46.7z M1.7,48.2v6.5c0.9,0,1.8,0,2.7,0c1.5-0.1,2.7-1.2,2.8-2.7c0.2-1.7-0.5-3.2-2-3.5
		C4,48.3,2.9,48.2,1.7,48.2L1.7,48.2z"/>
	<path id="Path_142" class="st0" d="M12.6,48.2v2.4h5.6v1.6h-5.6v2.4h5.6v1.6h-7.4v-9.7h7.4v1.5H12.6z"/>
	<path id="Path_143" class="st0" d="M102.8,54.7h5.6v1.6H101v-9.7h7.4v1.5h-5.6v2.4h5.6v1.7h-5.6L102.8,54.7z"/>
	<path id="Path_144" class="st0" d="M68,56.4l1.8-4.2c0.7-1.7,1.5-3.4,2.2-5.1c0.1-0.3,0.3-0.4,0.6-0.4c1.5,0,1.5,0,2.1,1.3
		c1.2,2.7,2.3,5.4,3.5,8.1c0,0.1,0.1,0.2,0.1,0.4c-0.6,0-1.1,0-1.6,0c-0.2-0.1-0.3-0.2-0.4-0.4c-0.3-0.5-0.5-1.1-0.7-1.7
		c-0.1-0.3-0.3-0.5-0.6-0.4c-1.2,0-2.5,0-3.7,0c-0.2,0-0.4,0.2-0.6,0.4c-0.3,0.5-0.5,1-0.7,1.6c-0.1,0.3-0.4,0.5-0.7,0.5
		c0,0,0,0,0,0C69,56.4,68.6,56.4,68,56.4z M74.8,52.3l-1.6-3.8l-1.6,3.8H74.8z"/>
	<path id="Path_145" class="st0" d="M36.9,56.4c0.4-0.9,0.7-1.7,1.1-2.5c1-2.2,1.9-4.5,2.9-6.7c0.1-0.4,0.4-0.6,0.8-0.5
		c1.4,0,1.4,0,2,1.3c1.1,2.6,2.2,5.2,3.3,7.8c0.1,0.2,0.1,0.4,0.2,0.7c-0.6,0-1.1,0-1.6,0c-0.1,0-0.3-0.2-0.4-0.4
		c-0.3-0.6-0.5-1.2-0.7-1.7c-0.1-0.2-0.3-0.3-0.5-0.3c-1.3,0-2.5,0-3.8,0c-0.2,0-0.4,0.2-0.5,0.4c-0.3,0.5-0.5,1.1-0.7,1.6
		c-0.1,0.3-0.4,0.6-0.7,0.5c0,0,0,0,0,0C37.8,56.4,37.4,56.4,36.9,56.4z M42,48.5l-1.6,3.8h3.2L42,48.5z"/>
	<path id="Path_146" class="st0" d="M99.3,48.8l-1.4,0.9c-0.6-1-1.8-1.5-2.9-1.5c-0.9,0-1.8,0.4-2.4,1.1c-1.1,1.5-1,3.5,0.4,4.8
		c1.4,1.2,3.5,1,5-0.7l1.3,0.9c-1.2,1.8-3.5,2.7-5.6,2c-2.3-0.6-3.8-2.7-3.6-5.1c0-2.2,1.5-4.1,3.7-4.6C96.1,46.1,98.4,47,99.3,48.8
		z"/>
	<path id="Path_147" class="st0" d="M20.6,56.3v-9.7h7.3v1.5h-5.5v2.5h5.5v1.6h-5.5v4L20.6,56.3z"/>
	<path id="Path_148" class="st0" d="M56.8,46.6h1.7v8h5.6v1.6h-7.3V46.6z"/>
	<path id="Path_149" class="st0" d="M48.3,56.3v-9.7H50v8h5.5v1.6H48.3z"/>
	<path id="Path_150" class="st0" d="M29.8,46.6h1.7v9.7h-1.7V46.6z"/>
	<path id="Path_151" class="st0" d="M67,56.3h-1.6v-9.7H67V56.3z"/>
	<path id="Path_152" class="st0" d="M43.6,52.3h-3.2"/>
	<path id="Path_153" class="st0" d="M42,48.5"/>
</g>
</svg>
