<svg xmlns="http://www.w3.org/2000/svg" width="167.255" height="56.519" viewBox="0 0 167.255 56.519">
  <g id="Group_88" data-name="Group 88" transform="translate(0)">
    <path id="Path_118" data-name="Path 118" d="M-367.289,387.966c2.668-2.722,5.324-5.45,8.014-8.151a2.629,2.629,0,0,1,1.313-.784,2.078,2.078,0,0,1,2.444,1.064,18.254,18.254,0,0,0,6.668,6.672c.639-1.889,1.21-3.846,1.966-5.73.814-2.027,2.649-3.137,4.294-4.424,2.027-1.586,3.263-4.427,1.381-6.985a6.273,6.273,0,0,1-.506-1c-.305,1.4-.273,2.605-.828,3.4a6.5,6.5,0,0,1-2.649,1.877c-1.257.574-2.577.9-3.018,2.5-.068.247-.993.392-1.507.357a2.1,2.1,0,0,1-1.717-2.8c.945-2.577,1.933-5.147,2.682-7.785a21.567,21.567,0,0,0,.357-4.2,1.337,1.337,0,0,1,.571.145c2.365,1.439,4.8.854,7.158.128,2.279-.7,4.41-.07,6.623.518l-2.474.191c.091.229.121.368.152.368a9.045,9.045,0,0,1,5.565,2.388c1.544,1.238,3.3,2.211,4.851,3.531l-2.5-1.213c2.216,4.7,5.994,7.878,8.981,11.663.625.793,1.334,1.521,2,2.281l-.21.259-4.018-2.985-.462.285,2.33,5.938-.947.186,7.262,6.5-.2.3c-.436-.266-.889-.511-1.308-.8a32.327,32.327,0,0,0-12.666-5.621c-7.533-1.313-13.629,2.267-14.579,10.246-.058.48-.17.952-.294,1.633l-11.279-4.175c.8,3.559,2.23,6.078,5.063,7.629a1.588,1.588,0,0,0,.749.1,9.767,9.767,0,0,1,2.267-.061c2.827.634,3.312,1.3,3.246,4.207a1.088,1.088,0,0,1-.564.842,3.844,3.844,0,0,1-2.927-.075c-2.213-1.185-4.361-2.568-6.955-2.887a1.239,1.239,0,0,1-.77-.858,16.589,16.589,0,0,0-3.431-7.519,4.945,4.945,0,0,1-.861-2.7c-.016-1.161,1.411-2.2,2.794-2.344.292-.033.583-.033.947-.049l-3.662-6.871c-2.4,1.607-3.666,4.557-6.558,5.217l1.665,3.827-2.964,1.124-1.488-4.046Z" transform="translate(367.289 -361.012)" fill="#09335f"/>
    <path id="Path_119" data-name="Path 119" d="M-321.827,395.282c.366-.429.648-1.04,1.112-1.243a1.425,1.425,0,0,0,1-1.516c-.079-3.365-.07-6.735-.261-10.094-.042-.7-.8-1.369-1.294-2.169l3.8-1.607.231,1.714c2.419-.947,4.837-1.644,6.77.791a5.362,5.362,0,0,1,.219,5.889c-1.444,2.246-3.118,2.717-6.9,1.875,0,1.432-.056,2.843.042,4.242a1.36,1.36,0,0,0,.877.9c.744.177.933.548.8,1.217Zm4.529-11.015c0,.576.019,1.155,0,1.731-.044,1.131.268,2.022,1.495,2.327a2.707,2.707,0,0,0,3.2-1.276,4.641,4.641,0,0,0-.7-4.977,3.045,3.045,0,0,0-3.333-.641c-1.175.373-.459,1.35-.639,2.038A3.246,3.246,0,0,0-317.3,384.267Z" transform="translate(427.855 -338.763)" fill="#09335f"/>
    <path id="Path_120" data-name="Path 120" d="M-336.015,362.579a26.135,26.135,0,0,1,10.145,8.3c6.183,8.249,8.921,17.424,6.484,27.637-1.912,8.009-6.705,13.625-14.978,15.614a21.151,21.151,0,0,1-15.418-2.384c-2.349-1.283-4.485-2.955-6.717-4.45l.226-.357a55.585,55.585,0,0,0,5.353,2.649c7.186,2.677,14.42,3.163,21.34-.679a19.316,19.316,0,0,0,10.406-17.676c.07-11.619-5.413-20.468-14.614-27.212C-334.5,363.5-335.271,363.057-336.015,362.579Z" transform="translate(381.664 -360.177)" fill="#09335f"/>
    <path id="Path_121" data-name="Path 121" d="M-336.5,379.421c.319-.24.609-.625.963-.7a1.725,1.725,0,0,0,1.581-2.029c-.065-3.358-.023-6.717-.023-10.192h-2.295l-.229-.352c.294-.28.548-.739.886-.814a25.857,25.857,0,0,1,9.9-.324,6.936,6.936,0,0,1,5.726,5.138,7.37,7.37,0,0,1-1.528,7.456,5.859,5.859,0,0,1-4.161,2.127c-3.536.1-7.078.03-10.616.03Zm5.719-7.941h.007q0,2.123,0,4.247c0,1.9.793,2.761,2.68,2.915a4,4,0,0,0,4.45-2.974,15.372,15.372,0,0,0,.3-5.1,5.24,5.24,0,0,0-6.537-4.578,1.379,1.379,0,0,0-.861.975C-330.835,368.467-330.781,369.976-330.781,371.48Z" transform="translate(408.304 -357.377)" fill="#09335f"/>
    <path id="Path_122" data-name="Path 122" d="M-312.525,374.56c-.215-.17-.581-.312-.616-.515-.268-1.481-1.4-1.518-2.523-1.57-.788-.035-1.579-.007-2.523-.007,0,1.8-.077,3.47.063,5.122.03.343.858.637,1.339.919.4.233.823.415,1.238.62l-.166.48c-1.311,0-2.624-.016-3.934.007-1.063.016-2.125.112-3.186.1-.28,0-.56-.257-.837-.4.224-.207.441-.583.674-.595,1.542-.07,1.665-1.01,1.626-2.258-.093-2.88-.091-5.763-.1-8.646,0-1.084-.051-2.062-1.528-2.1-.233-.007-.457-.429-.919-.9h13.051l.233,3.13-.282.3c-.378-.247-.959-.415-1.091-.758a2.142,2.142,0,0,0-2.337-1.5c-3.955.037-3.958,0-3.937,3.941,0,.4,0,.793,0,1.439a33.093,33.093,0,0,0,3.974-.233c.422-.07.732-.807,1.094-1.239l.707-.842.352.21v5.112Z" transform="translate(425.066 -357.185)" fill="#09335f"/>
    <path id="Path_123" data-name="Path 123" d="M-321.887,380.926a7.928,7.928,0,0,1-1.332-.681c-.483-.38-.84-.921-1.327-1.294-2.687-2.059-5.854-1.266-6.78,1.957a16.589,16.589,0,0,0-.4,6.017,4.115,4.115,0,0,0,3.221,3.818,4.836,4.836,0,0,0,4.877-1.719,8.192,8.192,0,0,1,1.819-1.4c-.051,3.652-.117,3.788-2.988,4.27a11.316,11.316,0,0,1-6.661-.6,7.329,7.329,0,0,1-4.051-8.3,7.551,7.551,0,0,1,7.064-6.318,21.492,21.492,0,0,1,3.713.154C-322.3,377.119-321.661,378.013-321.887,380.926Z" transform="translate(409.425 -341.432)" fill="#09335f"/>
    <path id="Path_124" data-name="Path 124" d="M-304.641,376.957h-5.4c.084-.25.11-.462.166-.469,1.647-.24,1.455-1.467,1.425-2.612-.012-.443,0-.889,0-1.332-.028-1.411.348-2.985-1.717-3.582l4.1-2.2.177,1.656a19.35,19.35,0,0,1,3.125-1.045,2.866,2.866,0,0,1,3.547,2.927c.075,1.367.014,2.743.014,4.116,0,.861-.25,1.859,1.131,1.938.1,0,.18.334.329.634h-5.46c.089-.24.135-.513.2-.518,1.488-.1,1.409-1.131,1.362-2.188-.056-1.285,0-2.575-.11-3.855-.084-.991-.476-1.831-1.723-1.747a2.514,2.514,0,0,0-2.444,2.087c-.014.93-.007,1.863.012,2.794.023,1.192-.413,2.584,1.614,2.943Z" transform="translate(443.383 -354.6)" fill="#09335f"/>
    <path id="Path_125" data-name="Path 125" d="M-306.218,375.364l1.175-.823a1.467,1.467,0,0,1-.686,2.066c-.9.6-1.933.161-2.927-1.192a3.987,3.987,0,0,1-3.878,1.4c-.681-.119-1.66-.6-1.819-1.124a2.492,2.492,0,0,1,.613-2.183,14.384,14.384,0,0,1,3.354-1.8c1.453-.646,1.966-1.828,1.189-3.209-.17-.3-.772-.639-1.031-.55-.611.212-1.556.609-1.621,1.043-.25,1.64-1.411,1.821-2.668,2.132a2.139,2.139,0,0,1-.107-.571c.245-1.8,1.6-2.631,3.072-3.121,1.5-.5,3.184-.837,4.506.422a3.162,3.162,0,0,1,.637,1.945c.1,1.364.021,2.743.037,4.114C-306.365,374.329-306.288,374.739-306.218,375.364Zm-2.787-3.55a12.358,12.358,0,0,0-2.358,1.861c-.285.373-.016,1.168,0,1.772.56-.044,1.241.1,1.656-.168C-308.58,374.56-308.93,373.377-309,371.815Z" transform="translate(437.447 -354.307)" fill="#09335f"/>
    <path id="Path_126" data-name="Path 126" d="M-318.877,387.242l1.2-.758a1.482,1.482,0,0,1-.7,2.057c-.919.583-1.94.149-2.649-.809a39.35,39.35,0,0,1-3.937,1.061,1.756,1.756,0,0,1-2.139-1.166,2,2,0,0,1,1-2.5c1.217-.7,2.558-1.192,3.836-1.791.76-.357,1.012-1.964.425-2.939-.567-.942-1.369-.613-2.083-.229a1.258,1.258,0,0,0-.625.8c-.149,1.577-1.348,1.761-2.985,2.213a9.023,9.023,0,0,1,.924-2.192,5.823,5.823,0,0,1,5.777-1.873,2.129,2.129,0,0,1,1.773,2.321c.054,1.46.023,2.925.049,4.387C-319.007,386.242-318.937,386.652-318.877,387.242Zm-2.747-3-.336-.3a12.438,12.438,0,0,0-2.129,1.793,1.734,1.734,0,0,0,.161,1.609c.173.233,1.089.177,1.49-.058C-321.207,386.564-321.589,385.337-321.624,384.241Z" transform="translate(420.251 -338.303)" fill="#09335f"/>
    <path id="Path_127" data-name="Path 127" d="M-297.217,387.227l1.2-.711c.525.958,0,1.556-.637,2-.893.623-1.926.21-2.689-.779-1.4.39-2.642.84-3.925,1.066a1.784,1.784,0,0,1-2.157-1.155,2.026,2.026,0,0,1,1-2.507,16.649,16.649,0,0,1,3.47-1.618c1.493-.457,1.117-1.539.947-2.453a1.737,1.737,0,0,0-1.091-1.18c-1.038-.135-1.539.555-1.985,1.537-.35.772-1.322,1.264-2.02,1.88l-.564-.39a5.976,5.976,0,0,1,.644-1.786,5.532,5.532,0,0,1,5.954-1.931,2.551,2.551,0,0,1,1.532,1.7,30.917,30.917,0,0,1,.219,4.494C-297.294,385.942-297.256,386.495-297.217,387.227Zm-2.454-2.983-.476-.3a8.494,8.494,0,0,0-2.048,1.483c-.327.429-.135,1.255-.175,1.9.627-.072,1.619.07,1.81-.257A12.189,12.189,0,0,0-299.67,384.244Z" transform="translate(449.387 -338.304)" fill="#09335f"/>
    <path id="Path_128" data-name="Path 128" d="M-325.666,371.064c-.184,3.449,2.3,5.08,5.32,3.652a5.654,5.654,0,0,1,1.434-.177,5.626,5.626,0,0,1-7.106,1.968,5.139,5.139,0,0,1-2.178-6.225,4.882,4.882,0,0,1,5.691-3.214,3.874,3.874,0,0,1,3.379,4Zm0-1.042h3.955c-.152-1.378-.77-2.276-1.987-2.239C-324.9,367.819-325.47,368.766-325.668,370.021Z" transform="translate(418.969 -354.299)" fill="#09335f"/>
    <path id="Path_129" data-name="Path 129" d="M-296.869,371.06c-.208,3.377,2.316,5.094,5.213,3.72a7.314,7.314,0,0,1,1.579-.278,5.7,5.7,0,0,1-7.144,2.015,5.141,5.141,0,0,1-2.185-6.225,4.874,4.874,0,0,1,5.681-3.223,3.864,3.864,0,0,1,3.389,3.99Zm3.895-.958c-.205-1.574-.994-2.432-2-2.346-1.031.089-1.724,1.021-1.726,2.346Z" transform="translate(457.333 -354.298)" fill="#09335f"/>
    <path id="Path_130" data-name="Path 130" d="M-293.9,391.866h-6.04c.217-.315.343-.66.476-.662,1.364-.023,1.385-.94,1.371-1.933-.04-2.75-.03-5.5-.093-8.251-.044-1.842-.086-1.842-1.672-2.794l4.294-1.626v3.694c0,2.929.007,5.858,0,8.788,0,1.026-.194,2.153,1.418,2.08.079,0,.184.166.242.273C-293.876,391.5-293.9,391.6-293.9,391.866Z" transform="translate(457.008 -341.499)" fill="#09335f"/>
    <path id="Path_131" data-name="Path 131" d="M-299.275,377.074a4.824,4.824,0,0,1-4.954-3.613,5.155,5.155,0,0,1,2.642-5.721,6.888,6.888,0,0,1,5.163-.506,1.523,1.523,0,0,1,.9.522,4,4,0,0,1,.506,1.654c.012.236-.543.735-.77.7a3.859,3.859,0,0,1-1.572-.7c-.287-.212-.329-.725-.578-1.022-.646-.765-1.432-.567-2.164-.152a3.668,3.668,0,0,0-1.434,4.107c.364,1.649,1.551,3.029,2.943,2.983a8.785,8.785,0,0,0,2.6-.966c.322-.124.646-.24.97-.361-.03.382.072.854-.114,1.131A4.582,4.582,0,0,1-299.275,377.074Z" transform="translate(451.112 -354.344)" fill="#09335f"/>
    <path id="Path_132" data-name="Path 132" d="M-308.881,382.07l-1.565-.205,4.1-3.795.259,2.507c.49.826,2.3-.784,2.087,1.334l-2.3.145c0,1.915-.049,3.8.021,5.686.033.91.66,1.014,1.434.728a3.2,3.2,0,0,1,.9-.061c-.133.32-.177.753-.415.94a3.071,3.071,0,0,1-3.253.469,2.356,2.356,0,0,1-1.269-2.439C-308.89,385.657-308.881,383.933-308.881,382.07Z" transform="translate(443.017 -339.539)" fill="#09335f"/>
    <path id="Path_133" data-name="Path 133" d="M-314.445,380.612l4.384-1.905c0,2.246,0,4.308,0,6.367,0,.576.016,1.157-.042,1.726-.089.882.114,1.465,1.14,1.514.2.009.382.3.84.686h-6.246l-.5-.588a5.069,5.069,0,0,1,.9-.145c1.283.019,1.35-.793,1.311-1.772-.047-1.236-.063-2.479,0-3.715.056-1.019-.077-1.773-1.332-1.773C-314.1,381.007-314.219,380.813-314.445,380.612Z" transform="translate(437.123 -338.691)" fill="#09335f"/>
    <path id="Path_134" data-name="Path 134" d="M-317.825,368.8c1.521-.8,2.552-1.339,3.585-1.873.861-.445,1.033.133,1.035.772.007,1.772-.037,3.543-.061,5.315,0,.487.028.977-.007,1.462-.068.961-.019,1.8,1.273,1.807a1.8,1.8,0,0,1,.595.233l-.224.385h-6.325c.492-.371.711-.669.94-.679,1.108-.047,1.262-.7,1.227-1.621-.049-1.283-.068-2.575,0-3.855.061-1.035-.135-1.751-1.341-1.784A4.246,4.246,0,0,1-317.825,368.8Z" transform="translate(433.016 -354.591)" fill="#09335f"/>
    <path id="Path_135" data-name="Path 135" d="M-349.657,365.6l-1.01,2.5-16.074-6.306.07-.245Z" transform="translate(368.019 -361.549)" fill="#09335f"/>
    <path id="Path_136" data-name="Path 136" d="M-315.439,364.723a1.349,1.349,0,0,1,1.353,1.528c-.077.952-.716,1.7-1.646,1.43a2.372,2.372,0,0,1-1.346-1.621C-317.212,365.184-316.5,364.653-315.439,364.723Z" transform="translate(434.159 -357.329)" fill="#09335f"/>
    <path id="Path_137" data-name="Path 137" d="M-313.977,378.324c0-1.143.562-1.661,1.467-1.642a1.383,1.383,0,0,1,1.532,1.448,1.421,1.421,0,0,1-1.411,1.583A1.444,1.444,0,0,1-313.977,378.324Z" transform="translate(438.312 -341.389)" fill="#09335f"/>
  </g>
</svg>
