<?xml version="1.0" encoding="UTF-8"?>
<svg xmlns="http://www.w3.org/2000/svg" xmlns:xlink="http://www.w3.org/1999/xlink" width="300" height="50" viewBox="0 0 300 50" version="1.1">
<g id="surface1">
<path style=" stroke:none;fill-rule:nonzero;fill:rgb(14.901961%,40%,69.019608%);fill-opacity:1;" d="M 57.734375 31.160156 C 84.582031 24.34375 88.734375 11.847656 67.144531 3.371094 C 64.378906 2.234375 61.332031 1.273438 57.734375 0.398438 C 58.566406 0.398438 59.121094 0.3125 59.671875 0.3125 C 76.554688 0.3125 93.4375 0.3125 110.320312 0.3125 C 136.609375 0.484375 158.199219 7.300781 158.199219 15.691406 C 158.472656 23.207031 141.316406 29.675781 118.066406 30.988281 C 115.023438 31.160156 111.980469 31.25 108.933594 31.25 C 92.605469 31.25 76 31.25 59.671875 31.25 C 59.121094 31.160156 58.566406 31.160156 57.734375 31.160156 Z M 57.734375 31.160156 "/>
<path style=" stroke:none;fill-rule:nonzero;fill:rgb(14.901961%,40%,69.019608%);fill-opacity:1;" d="M 153.492188 30.988281 C 181.445312 22.507812 201.09375 12.457031 210.226562 0.484375 C 214.933594 6.253906 222.128906 11.757812 231.535156 16.914062 C 241.222656 21.984375 253.125 26.703125 266.40625 30.898438 C 229.875 26.703125 190.023438 26.703125 153.492188 30.988281 Z M 153.492188 30.988281 "/>
<path style=" stroke:none;fill-rule:nonzero;fill:rgb(14.901961%,40%,69.019608%);fill-opacity:1;" d="M 219.742188 41.035156 C 220.847656 41.035156 221.957031 41.035156 223.0625 41.035156 C 223.617188 41.125 224.445312 41.210938 224.722656 41.386719 C 229.152344 43.046875 233.578125 44.707031 237.730469 46.457031 C 238.007812 46.542969 238.5625 46.71875 239.113281 46.894531 L 239.113281 41.035156 L 243.820312 41.035156 L 243.820312 49.515625 C 241.605469 49.6875 239.113281 49.425781 237.730469 48.902344 C 233.578125 47.15625 229.152344 45.496094 224.445312 43.660156 L 224.445312 49.515625 L 219.742188 49.515625 Z M 219.742188 41.035156 "/>
<path style=" stroke:none;fill-rule:nonzero;fill:rgb(14.901961%,40%,69.019608%);fill-opacity:1;" d="M 0 41.125 C 4.703125 41.035156 9.410156 41.035156 14.390625 41.125 C 21.308594 41.386719 25.183594 43.222656 24.90625 45.496094 C 24.90625 47.589844 19.925781 49.253906 13.285156 49.425781 C 8.855469 49.515625 4.429688 49.425781 0 49.425781 Z M 4.703125 42.433594 L 4.703125 48.117188 C 7.195312 48.117188 9.6875 48.117188 12.175781 48.117188 C 16.328125 48.027344 19.648438 47.066406 19.925781 45.757812 C 20.480469 44.269531 18.542969 42.960938 14.390625 42.699219 C 11.070312 42.523438 8.027344 42.433594 4.703125 42.433594 Z M 4.703125 42.433594 "/>
<path style=" stroke:none;fill-rule:nonzero;fill:rgb(14.901961%,40%,69.019608%);fill-opacity:1;" d="M 34.871094 42.433594 L 34.871094 44.53125 L 50.367188 44.53125 L 50.367188 45.929688 L 34.871094 45.929688 L 34.871094 48.027344 L 50.367188 48.027344 L 50.367188 49.425781 L 29.890625 49.425781 L 29.890625 40.949219 L 50.367188 40.949219 L 50.367188 42.261719 L 34.871094 42.261719 Z M 34.871094 42.433594 "/>
<path style=" stroke:none;fill-rule:nonzero;fill:rgb(14.901961%,40%,69.019608%);fill-opacity:1;" d="M 284.5 48.117188 L 300 48.117188 L 300 49.515625 L 279.519531 49.515625 L 279.519531 41.035156 L 300 41.035156 L 300 42.347656 L 284.5 42.347656 L 284.5 44.445312 L 300 44.445312 L 300 45.929688 L 284.5 45.929688 Z M 284.5 48.117188 "/>
<path style=" stroke:none;fill-rule:nonzero;fill:rgb(14.901961%,40%,69.019608%);fill-opacity:1;" d="M 188.191406 49.601562 L 193.171875 45.929688 C 195.109375 44.445312 197.324219 42.960938 199.261719 41.472656 C 199.539062 41.210938 200.09375 41.125 200.921875 41.125 C 205.074219 41.125 205.074219 41.125 206.734375 42.261719 C 210.054688 44.621094 213.101562 46.980469 216.421875 49.339844 C 216.421875 49.425781 216.699219 49.515625 216.699219 49.6875 C 215.035156 49.6875 213.652344 49.6875 212.269531 49.6875 C 211.714844 49.601562 211.4375 49.515625 211.164062 49.339844 C 210.332031 48.902344 209.777344 48.378906 209.226562 47.855469 C 208.949219 47.589844 208.394531 47.417969 207.566406 47.503906 C 204.242188 47.503906 200.644531 47.503906 197.324219 47.503906 C 196.769531 47.503906 196.21875 47.679688 195.664062 47.855469 C 194.832031 48.289062 194.28125 48.726562 193.726562 49.253906 C 193.449219 49.515625 192.621094 49.6875 191.789062 49.6875 C 190.960938 49.601562 189.851562 49.601562 188.191406 49.601562 Z M 207.011719 46.019531 L 202.582031 42.699219 L 198.15625 46.019531 Z M 207.011719 46.019531 "/>
<path style=" stroke:none;fill-rule:nonzero;fill:rgb(14.901961%,40%,69.019608%);fill-opacity:1;" d="M 102.121094 49.601562 C 103.230469 48.816406 104.058594 48.117188 105.167969 47.417969 C 107.933594 45.496094 110.425781 43.484375 113.191406 41.5625 C 113.46875 41.210938 114.300781 41.035156 115.40625 41.125 C 119.28125 41.125 119.28125 41.125 120.941406 42.261719 C 123.984375 44.53125 127.03125 46.804688 130.074219 49.078125 C 130.351562 49.253906 130.351562 49.425781 130.628906 49.6875 C 128.964844 49.6875 127.582031 49.6875 126.199219 49.6875 C 125.921875 49.6875 125.367188 49.515625 125.09375 49.339844 C 124.261719 48.816406 123.707031 48.289062 123.15625 47.855469 C 122.878906 47.679688 122.324219 47.589844 121.769531 47.589844 C 118.171875 47.589844 114.851562 47.589844 111.253906 47.589844 C 110.699219 47.589844 110.148438 47.765625 109.871094 47.941406 C 109.039062 48.378906 108.488281 48.902344 107.933594 49.339844 C 107.65625 49.601562 106.828125 49.863281 105.996094 49.777344 C 104.613281 49.601562 103.503906 49.601562 102.121094 49.601562 Z M 116.234375 42.699219 L 111.808594 46.019531 L 120.664062 46.019531 Z M 116.234375 42.699219 "/>
<path style=" stroke:none;fill-rule:nonzero;fill:rgb(14.901961%,40%,69.019608%);fill-opacity:1;" d="M 274.816406 42.960938 L 270.941406 43.746094 C 269.28125 42.871094 265.960938 42.433594 262.914062 42.433594 C 260.425781 42.433594 257.933594 42.785156 256.273438 43.398438 C 253.230469 44.707031 253.503906 46.457031 257.378906 47.589844 C 261.253906 48.640625 267.066406 48.464844 271.21875 46.980469 L 274.816406 47.765625 C 271.496094 49.339844 265.128906 50.125 259.316406 49.515625 C 252.953125 48.988281 248.800781 47.15625 249.355469 45.058594 C 249.355469 43.132812 253.503906 41.472656 259.59375 41.035156 C 265.960938 40.601562 272.324219 41.386719 274.816406 42.960938 Z M 274.816406 42.960938 "/>
<path style=" stroke:none;fill-rule:nonzero;fill:rgb(14.901961%,40%,69.019608%);fill-opacity:1;" d="M 57.011719 49.515625 L 57.011719 41.035156 L 77.214844 41.035156 L 77.214844 42.347656 L 61.992188 42.347656 L 61.992188 44.53125 L 77.214844 44.53125 L 77.214844 45.929688 L 61.992188 45.929688 L 61.992188 49.425781 Z M 57.011719 49.515625 "/>
<path style=" stroke:none;fill-rule:nonzero;fill:rgb(14.901961%,40%,69.019608%);fill-opacity:1;" d="M 157.195312 41.035156 L 161.898438 41.035156 L 161.898438 48.027344 L 177.398438 48.027344 L 177.398438 49.425781 L 157.195312 49.425781 Z M 157.195312 41.035156 "/>
<path style=" stroke:none;fill-rule:nonzero;fill:rgb(14.901961%,40%,69.019608%);fill-opacity:1;" d="M 133.671875 49.515625 L 133.671875 41.035156 L 138.375 41.035156 L 138.375 48.027344 L 153.597656 48.027344 L 153.597656 49.425781 L 133.671875 49.425781 Z M 133.671875 49.515625 "/>
<path style=" stroke:none;fill-rule:nonzero;fill:rgb(14.901961%,40%,69.019608%);fill-opacity:1;" d="M 82.472656 41.035156 L 87.175781 41.035156 L 87.175781 49.515625 L 82.472656 49.515625 Z M 82.472656 41.035156 "/>
<path style=" stroke:none;fill-rule:nonzero;fill:rgb(14.901961%,40%,69.019608%);fill-opacity:1;" d="M 185.425781 49.515625 L 180.996094 49.515625 L 180.996094 41.035156 L 185.425781 41.035156 Z M 185.425781 49.515625 "/>
</g>
</svg>
