<svg xmlns="http://www.w3.org/2000/svg" width="108.418" height="56.52" viewBox="0 0 108.418 56.52">
  <g id="Group_90" data-name="Group 90" transform="translate(0)">
    <g id="Group_89" data-name="Group 89" transform="translate(20.862)">
      <path id="Path_138" data-name="Path 138" d="M-449.575,396.039a22.6,22.6,0,0,0,.014-35.184c.287-.03.49-.072.7-.072,6.08,0,12.158-.035,18.238,0A17.583,17.583,0,0,1-413.3,378.321a17.513,17.513,0,0,1-14.525,17.464,19.046,19.046,0,0,1-3.279.275c-5.933.026-11.869.014-17.8.012C-449.08,396.071-449.251,396.055-449.575,396.039Z" transform="translate(449.575 -360.768)"/>
      <path id="Path_139" data-name="Path 139" d="M-434.722,395.751c10.082-9.737,17.174-21.177,20.484-34.876a73.866,73.866,0,0,0,7.7,18.8A86.9,86.9,0,0,0-393.98,395.7,58.076,58.076,0,0,0-434.722,395.751Z" transform="translate(469.363 -360.625)"/>
    </g>
    <path id="Path_140" data-name="Path 140" d="M-424.466,380.763a8.069,8.069,0,0,1,1.241.016,1.133,1.133,0,0,1,.609.4c1.586,1.917,3.156,3.848,4.73,5.775.121.147.256.285.478.529v-6.656h1.7v9.653a1.985,1.985,0,0,1-2.195-.744c-1.509-2-3.149-3.9-4.846-5.973v6.731h-1.712Z" transform="translate(503.887 -334.151)"/>
    <path id="Path_141" data-name="Path 141" d="M-458.52,380.839a44.634,44.634,0,0,1,5.159.04c2.465.289,3.939,2.351,3.848,5.007a4.483,4.483,0,0,1-4.179,4.492c-1.591.112-3.2.021-4.828.021Zm1.721,1.434v6.533c.928,0,1.815.042,2.694-.009a2.934,2.934,0,0,0,2.78-2.691c.2-1.726-.525-3.153-2.022-3.517A22.6,22.6,0,0,0-456.8,382.274Z" transform="translate(458.52 -334.108)"/>
    <path id="Path_142" data-name="Path 142" d="M-452.113,382.31v2.412h5.644v1.637h-5.618v2.446h5.6v1.637h-7.361v-9.667h7.37v1.535Z" transform="translate(464.74 -334.112)"/>
    <path id="Path_143" data-name="Path 143" d="M-413.466,388.832h5.646v1.607h-7.386v-9.66h7.4V382.3h-5.642v2.411h5.63v1.651h-5.649Z" transform="translate(516.224 -334.108)"/>
    <path id="Path_144" data-name="Path 144" d="M-429.346,390.524l1.8-4.217c.732-1.712,1.476-3.421,2.19-5.14a.57.57,0,0,1,.618-.415c1.511-.014,1.511-.026,2.1,1.348q1.732,4.033,3.461,8.067c.037.089.061.182.119.354-.569,0-1.082.028-1.591-.016a.642.642,0,0,1-.4-.355c-.254-.543-.478-1.1-.695-1.661a.561.561,0,0,0-.611-.436c-1.243.023-2.488-.007-3.732.026a.8.8,0,0,0-.555.382,11.359,11.359,0,0,0-.686,1.6.591.591,0,0,1-.7.473C-428.42,390.5-428.824,390.524-429.346,390.524Zm6.733-4.086-1.6-3.8-1.6,3.8Z" transform="translate(497.386 -334.148)"/>
    <path id="Path_145" data-name="Path 145" d="M-442.693,390.524c.38-.9.716-1.7,1.059-2.507.961-2.246,1.933-4.487,2.876-6.74a.717.717,0,0,1,.793-.527c1.4.023,1.4,0,1.959,1.3q1.672,3.89,3.342,7.787c.084.2.145.406.243.686-.576,0-1.094.028-1.6-.019-.142-.012-.312-.217-.385-.373-.266-.562-.469-1.152-.749-1.7a.719.719,0,0,0-.518-.345q-1.9-.045-3.792,0a.721.721,0,0,0-.513.35,12.877,12.877,0,0,0-.679,1.6.637.637,0,0,1-.756.5C-441.79,390.5-442.173,390.524-442.693,390.524Zm5.126-7.9-1.593,3.811h3.186Z" transform="translate(479.605 -334.148)"/>
    <path id="Path_146" data-name="Path 146" d="M-410.644,382.979l-1.406.851a3.24,3.24,0,0,0-2.918-1.474,3.185,3.185,0,0,0-2.374,1.131,3.58,3.58,0,0,0,.35,4.8c1.413,1.25,3.484.98,4.965-.683l1.346.949a4.971,4.971,0,0,1-5.616,2,4.792,4.792,0,0,1-3.6-5.052,4.8,4.8,0,0,1,3.662-4.646C-413.865,380.318-411.552,381.179-410.644,382.979Z" transform="translate(509.976 -334.221)"/>
    <path id="Path_147" data-name="Path 147" d="M-449.7,390.435v-9.658h7.256v1.539h-5.516v2.493h5.509v1.579h-5.52v4.046Z" transform="translate(470.269 -334.111)"/>
    <path id="Path_148" data-name="Path 148" d="M-434.176,380.769h1.679v8.044h5.609v1.644h-7.288Z" transform="translate(490.952 -334.121)"/>
    <path id="Path_149" data-name="Path 149" d="M-437.814,390.444v-9.667h1.675v8.034h5.548v1.633Z" transform="translate(486.105 -334.111)"/>
    <path id="Path_150" data-name="Path 150" d="M-445.762,380.77h1.651v9.69h-1.651Z" transform="translate(475.516 -334.12)"/>
    <path id="Path_151" data-name="Path 151" d="M-428.867,390.452h-1.646v-9.674h1.646Z" transform="translate(495.83 -334.109)"/>
    <path id="Path_152" data-name="Path 152" d="M-437.992,383.186h-3.186" transform="translate(481.623 -330.901)" fill="#fff"/>
    <path id="Path_153" data-name="Path 153" d="M-440.495,381.552" transform="translate(482.533 -333.078)" fill="#fff"/>
  </g>
</svg>
