<?xml version="1.0" encoding="UTF-8"?>
<svg id="katman_1" data-name="katman 1" xmlns="http://www.w3.org/2000/svg" viewBox="0 0 300 100">
  <defs>
    <style>
      .cls-1 {
        fill: #2666b0;
      }
    </style>
  </defs>
  <g id="Group_88" data-name="Group 88" transform="translate(0)">
    <path id="Path_118" data-name="Path 118" class="cls-1" d="M66.54,48.51c2.7-2.7,5.3-5.5,8-8.2,.4-.4,.8-.7,1.3-.8,1-.3,2,.2,2.4,1.1,1.6,2.8,3.9,5.1,6.7,6.7,.6-1.9,1.2-3.8,2-5.7,.8-2,2.6-3.1,4.3-4.4,2-1.6,3.3-4.4,1.4-7-.2-.3-.4-.7-.5-1-.3,1.4-.3,2.6-.8,3.4-.7,.8-1.6,1.5-2.6,1.9-1.3,.6-2.6,.9-3,2.5-.1,.2-1,.4-1.5,.4-1.2-.1-2-1.2-1.8-2.3,0-.2,.1-.3,.1-.5,.9-2.6,1.9-5.1,2.7-7.8,.3-1.4,.4-2.8,.4-4.2,.2,0,.4,.1,.6,.1,2.4,1.4,4.8,.9,7.2,.1,2.3-.7,4.4-.1,6.6,.5l-2.5,.2c.1,.2,.1,.4,.2,.4,2.1,.1,4,1,5.6,2.4,1.5,1.2,3.3,2.2,4.9,3.5l-2.9-1.3c2.2,4.7,6,7.9,9,11.7,.6,.8,1.3,1.5,2,2.3l-.2,.3-4-3-.5,.3,2.3,5.9-.9,.2,7.3,6.5-.2,.3c-.4-.3-.9-.5-1.3-.8-3.8-2.8-8.1-4.7-12.7-5.6-7.5-1.4-13.6,2.2-14.6,10.2-.1,.5-.2,1-.3,1.6l-11.3-4.2c.8,3.6,2.2,6.1,5.1,7.6,.2,.1,.5,.1,.7,.1,.8-.1,1.5-.1,2.3-.1,2.8,.6,3.3,1.3,3.2,4.2,0,.4-.2,.7-.6,.8-.9,.4-2,.3-2.9-.1-2.2-1.2-4.4-2.6-7-2.9-.4-.1-.7-.5-.8-.9-.5-2.8-1.7-5.3-3.4-7.5-.5-.8-.8-1.7-.9-2.7,0-1.2,1.4-2.2,2.8-2.3h.9l-3.7-6.9c-2.4,1.6-3.7,4.6-6.6,5.2l1.7,3.8-3,1.1-1.5-4,.3-1.1Z"/>
    <path id="Path_119" data-name="Path 119" class="cls-1" d="M172.54,78.01c.4-.4,.6-1,1.1-1.2,.7-.2,1.1-.8,1-1.5-.1-3.4-.1-6.7-.3-10.1,0-.7-.8-1.4-1.3-2.2l3.8-1.6,.2,1.7c2.4-.9,4.8-1.6,6.8,.8,1.2,1.7,1.3,4.1,.2,5.9-1.4,2.2-3.1,2.7-6.9,1.9,0,1.4-.1,2.8,0,4.2,.1,.4,.5,.8,.9,.9,.7,.2,.9,.5,.8,1.2h-6.3Zm4.6-11v1.7c0,1.1,.3,2,1.5,2.3,1.2,.4,2.6-.1,3.2-1.3,.8-1.7,.5-3.6-.7-5-.9-.9-2.2-1.1-3.3-.6-1.2,.4-.5,1.4-.6,2-.2,.4-.2,.6-.1,.9h0Z"/>
    <path id="Path_120" data-name="Path 120" class="cls-1" d="M112.14,23.91c4,1.9,7.5,4.7,10.1,8.3,6.2,8.2,8.9,17.4,6.5,27.6-1.9,8-6.7,13.6-15,15.6-5.3,1.2-10.8,.3-15.4-2.4-2.3-1.3-4.5-3-6.7-4.5l.2-.4c1.7,1,3.5,1.9,5.4,2.6,7.2,2.7,14.4,3.2,21.3-.7,6.6-3.4,10.6-10.3,10.4-17.7,.1-11.6-5.4-20.5-14.6-27.2-.6-.3-1.4-.7-2.2-1.2Z"/>
    <path id="Path_121" data-name="Path 121" class="cls-1" d="M138.34,43.51c.3-.2,.6-.6,1-.7,1-.1,1.7-.9,1.6-1.8v-.2c-.1-3.4,0-6.7,0-10.2h-2.4l-.2-.4c.3-.2,.5-.7,.9-.7,3.2-.7,6.6-.9,9.9-.3,2.8,.4,5,2.4,5.7,5.1,.9,2.6,.3,5.4-1.5,7.5-1,1.3-2.5,2-4.2,2.1-3.5,.1-7.1,0-10.6,0l-.2-.4Zm5.7-7.9h0v4.2c0,1.9,.8,2.8,2.7,2.9,2,.3,3.9-1,4.5-3,.4-1.7,.5-3.4,.3-5.1-.3-2.9-2.8-5-5.7-4.7-.3,0-.6,.1-.8,.1-.4,.2-.8,.5-.9,1-.1,1.6-.1,3.1-.1,4.6h0Z"/>
    <path id="Path_122" data-name="Path 122" class="cls-1" d="M179.04,38.91c-.2-.2-.6-.3-.6-.5-.3-1.5-1.4-1.5-2.5-1.6h-2.5c0,1.8-.1,3.5,.1,5.1,0,.3,.9,.6,1.3,.9l1.2,.6-.2,.5h-3.9c-1.1,0-2.1,.1-3.2,.1-.3,0-.6-.3-.8-.4,.2-.2,.4-.6,.7-.6,1.5-.1,1.7-1,1.6-2.3-.1-2.9-.1-5.8-.1-8.6,0-1.1-.1-2.1-1.5-2.1-.2,0-.5-.4-.9-.9h13.1l.2,3.1-.3,.3c-.4-.2-1-.4-1.1-.8-.3-1-1.3-1.6-2.3-1.5q-4,0-3.9,3.9v1.4c1.3,0,2.7-.1,4-.2,.4-.1,.7-.8,1.1-1.2l.7-.8,.4,.2v5.1l-.6,.3Z"/>
    <path id="Path_123" data-name="Path 123" class="cls-1" d="M154.04,61.01c-.5-.2-.9-.4-1.3-.7-.5-.4-.8-.9-1.3-1.3-2.7-2.1-5.9-1.3-6.8,2-.5,2-.6,4-.4,6,.1,1.9,1.4,3.4,3.2,3.8,1.8,.4,3.7-.3,4.9-1.7,.5-.5,1.1-1,1.8-1.4-.1,3.7-.1,3.8-3,4.3-2.2,.5-4.6,.3-6.7-.6-3.1-1.5-4.8-4.9-4.1-8.3,.6-3.5,3.5-6.1,7.1-6.3,1.2-.1,2.5,0,3.7,.2,2.5,.2,3.2,1.1,2.9,4Z"/>
    <path id="Path_124" data-name="Path 124" class="cls-1" d="M205.24,43.91h-5.4c.1-.2,.1-.5,.2-.5,1.6-.2,1.5-1.5,1.4-2.6v-1.3c0-1.4,.3-3-1.7-3.6l4.1-2.2,.2,1.7c1-.4,2.1-.8,3.1-1,1.5-.4,3.1,.6,3.5,2.1,.1,.3,.1,.5,.1,.8,.1,1.4,0,2.7,0,4.1,0,.9-.2,1.9,1.1,1.9,.1,0,.2,.3,.3,.6h-5.5c.1-.2,.1-.5,.2-.5,1.5-.1,1.4-1.1,1.4-2.2-.1-1.3,0-2.6-.1-3.9-.1-1-.5-1.8-1.7-1.7-1.2,0-2.2,.9-2.4,2.1v2.8c0,1.2-.4,2.6,1.6,2.9l-.4,.5Z"/>
    <path id="Path_125" data-name="Path 125" class="cls-1" d="M197.74,42.61l1.2-.8c.4,.7,.2,1.6-.6,2,0,0-.1,0-.1,.1-.9,.6-1.9,.2-2.9-1.2-.9,1.2-2.4,1.7-3.9,1.4-.7-.1-1.7-.6-1.8-1.1-.2-.8,.1-1.6,.6-2.2,1-.7,2.2-1.4,3.4-1.8,1.5-.6,2-1.8,1.2-3.2-.2-.3-.8-.6-1-.5-.6,.2-1.6,.6-1.6,1-.2,1.6-1.4,1.8-2.7,2.1-.1-.2-.1-.4-.1-.6,.2-1.8,1.6-2.6,3.1-3.1s3.2-.8,4.5,.4c.4,.6,.6,1.2,.6,1.9,.1,1.4,0,2.7,0,4.1,0,.4,.1,.8,.1,1.5Zm-2.8-3.6c-.9,.5-1.7,1.1-2.4,1.9-.3,.4,0,1.2,0,1.8,.6,0,1.2,.1,1.7-.2,1.2-.7,.8-1.9,.7-3.5h0Z"/>
    <path id="Path_126" data-name="Path 126" class="cls-1" d="M167.94,70.41l1.2-.8c.4,.7,.1,1.6-.6,2h-.1c-.9,.6-1.9,.1-2.6-.8-1.3,.4-2.6,.8-3.9,1.1-.9,.2-1.9-.3-2.1-1.2-.4-1,.1-2,1-2.5,1.2-.7,2.6-1.2,3.8-1.8,.8-.4,1-2,.4-2.9s-1.4-.6-2.1-.2c-.3,.2-.5,.5-.6,.8-.1,1.6-1.3,1.8-3,2.2,.2-.8,.5-1.5,.9-2.2,1.4-1.7,3.7-2.4,5.8-1.9,1.1,.2,1.9,1.2,1.8,2.3,.1,1.5,0,2.9,0,4.4-.1,.5,0,.9,.1,1.5Zm-2.8-3l-.3-.3c-.8,.5-1.5,1.1-2.1,1.8-.3,.6-.2,1.2,.1,1.6,.2,.2,1.1,.2,1.5-.1,1.2-.6,.9-1.9,.8-3h0Z"/>
    <path id="Path_127" data-name="Path 127" class="cls-1" d="M218.74,70.41l1.2-.7c.5,1,0,1.6-.6,2-.9,.6-1.9,.2-2.7-.8-1.4,.4-2.6,.8-3.9,1.1-.9,.2-1.9-.3-2.2-1.2-.4-1,.1-2,1-2.5,1.1-.7,2.3-1.2,3.5-1.6,1.5-.5,1.1-1.5,.9-2.5-.1-.5-.6-1-1.1-1.2-1-.1-1.5,.6-2,1.5-.4,.8-1.3,1.3-2,1.9l-.6-.4c.1-.6,.3-1.2,.6-1.8,1.4-1.8,3.8-2.6,6-1.9,.8,.3,1.3,.9,1.5,1.7,.2,1.5,.3,3,.2,4.5,.1,.6,.1,1.2,.2,1.9Zm-2.5-3l-.5-.3c-.8,.4-1.4,.9-2,1.5-.3,.4-.1,1.3-.2,1.9,.6-.1,1.6,.1,1.8-.3,.4-.8,.7-1.8,.9-2.8h0Z"/>
    <path id="Path_128" data-name="Path 128" class="cls-1" d="M159.84,38.31c-.2,3.4,2.3,5.1,5.3,3.7,.5-.1,1-.2,1.4-.2-1.5,2.3-4.6,3.2-7.1,2-2.1-1.3-3.1-3.9-2.2-6.2,.8-2.4,3.3-3.8,5.7-3.2,2,.3,3.5,2,3.4,4l-6.5-.1Zm0-1.1h4c-.2-1.4-.8-2.3-2-2.2-1.2,0-1.8,1-2,2.2h0Z"/>
    <path id="Path_129" data-name="Path 129" class="cls-1" d="M227.04,38.31c-.2,3.4,2.3,5.1,5.2,3.7,.5-.2,1-.2,1.6-.3-1.6,2.3-4.6,3.2-7.1,2-2.1-1.3-3.1-3.9-2.2-6.2,.8-2.4,3.2-3.8,5.7-3.2,2,.2,3.5,2,3.4,4h-6.6Zm3.9-1c-.2-1.6-1-2.4-2-2.3s-1.7,1-1.7,2.3h3.7Z"/>
    <path id="Path_130" data-name="Path 130" class="cls-1" d="M229.64,71.91h-6c.2-.3,.3-.7,.5-.7,1.4,0,1.4-.9,1.4-1.9,0-2.8,0-5.5-.1-8.3,0-1.8-.1-1.8-1.7-2.8l4.3-1.6v12.5c0,1-.2,2.2,1.4,2.1,.1,0,.2,.2,.2,.3v.4Z"/>
    <path id="Path_131" data-name="Path 131" class="cls-1" d="M218.34,44.21c-2.3,.1-4.4-1.4-5-3.6-.5-2.3,.6-4.6,2.6-5.7,1.6-.8,3.4-1,5.2-.5,.4,.1,.7,.2,.9,.5,.3,.5,.5,1.1,.5,1.7,0,.2-.5,.7-.8,.7-.6-.1-1.1-.4-1.6-.7-.3-.2-.3-.7-.6-1-.6-.8-1.4-.6-2.2-.2-1.3,.9-1.9,2.6-1.4,4.1,.4,1.6,1.6,3,2.9,3,.9-.2,1.8-.5,2.6-1,.3-.1,.6-.2,1-.4,0,.4,.1,.9-.1,1.1-.8,1.4-2.3,2.2-4,2Z"/>
    <path id="Path_132" data-name="Path 132" class="cls-1" d="M200.64,64.01l-1.6-.2,4.1-3.8,.3,2.5c.5,.8,2.3-.8,2.1,1.3l-2.3,.1v5.7c0,.9,.7,1,1.4,.7,.3-.1,.6-.1,.9-.1-.1,.3-.2,.8-.4,.9-.9,.8-2.2,1-3.3,.5-.9-.5-1.4-1.4-1.3-2.4,.1-1.6,.1-3.3,.1-5.2Z"/>
    <path id="Path_133" data-name="Path 133" class="cls-1" d="M189.24,63.41l4.4-1.9v8.1c-.1,.9,.1,1.5,1.1,1.5,.2,0,.4,.3,.8,.7h-6.2l-.5-.6c.3-.1,.6-.1,.9-.1,1.3,0,1.4-.8,1.3-1.8,0-1.2-.1-2.5,0-3.7,.1-1-.1-1.8-1.3-1.8-.2,0-.3-.2-.5-.4Z"/>
    <path id="Path_134" data-name="Path 134" class="cls-1" d="M181.74,35.71c1.5-.8,2.6-1.3,3.6-1.9,.9-.4,1,.1,1,.8,0,1.8,0,3.5-.1,5.3v1.5c-.1,1,0,1.8,1.3,1.8,.2,0,.4,.1,.6,.2l-.2,.4h-6.3c.5-.4,.7-.7,.9-.7,1.1,0,1.3-.7,1.2-1.6,0-1.3-.1-2.6,0-3.9,.1-1-.1-1.8-1.3-1.8-.2,0-.5,0-.7-.1Z"/>
    <path id="Path_135" data-name="Path 135" class="cls-1" d="M84.94,25.61l-1,2.5-16.1-6.4v-.2l17.1,4.1Z"/>
    <path id="Path_136" data-name="Path 136" class="cls-1" d="M185.24,28.91c.7,0,1.4,.6,1.4,1.3v.2c-.1,1-.7,1.7-1.6,1.4-.7-.3-1.2-.9-1.3-1.6-.3-.8,.5-1.4,1.5-1.3Z"/>
    <path id="Path_137" data-name="Path 137" class="cls-1" d="M190.84,58.41c0-1.1,.6-1.7,1.5-1.6,.8-.1,1.4,.5,1.5,1.2v.2c.1,.8-.5,1.5-1.2,1.6h-.2c-.8,.1-1.5-.5-1.6-1.4q0,.1,0,0Z"/>
  </g>
</svg>