<?xml version="1.0" encoding="utf-8"?>
<!-- Generator: Adobe Illustrator 26.3.1, SVG Export Plug-In . SVG Version: 6.00 Build 0)  -->
<svg version="1.1" id="katman_1" xmlns="http://www.w3.org/2000/svg" xmlns:xlink="http://www.w3.org/1999/xlink" x="0px" y="0px"
	 viewBox="0 0 300 100" style="enable-background:new 0 0 300 100;" xml:space="preserve">
<style type="text/css">
	.st0{fill:#FFFFFF;}
</style>
<g id="Group_90" transform="translate(0)">
	<g id="Group_89" transform="translate(20.862)">
		<path id="Path_138" d="M96.2,57c9.7-7.8,11.2-22.1,3.4-31.8c-1-1.3-2.2-2.4-3.4-3.4c0.3,0,0.5-0.1,0.7-0.1c6.1,0,12.2,0,18.2,0
			c9.6,0.1,17.3,7.9,17.3,17.5c0.1,8.6-6.1,16-14.5,17.5c-1.1,0.2-2.2,0.3-3.3,0.3c-5.9,0-11.9,0-17.8,0C96.7,57,96.5,57,96.2,57z"
			/>
		<path id="Path_139" d="M130.9,56.8c10.1-9.7,17.2-21.2,20.5-34.9c1.7,6.6,4.3,12.9,7.7,18.8c3.5,5.8,7.8,11.2,12.6,16
			C158.5,51.9,144,51.9,130.9,56.8z"/>
	</g>
	<path id="Path_140" d="M175.6,68.3c0.4,0,0.8,0,1.2,0c0.2,0.1,0.5,0.2,0.6,0.4c1.6,1.9,3.2,3.8,4.7,5.8c0.1,0.1,0.3,0.3,0.5,0.5
		v-6.7h1.7V78c-0.8,0.2-1.7-0.1-2.2-0.7c-1.5-2-3.1-3.9-4.8-6v6.7h-1.7L175.6,68.3z"/>
	<path id="Path_141" d="M96.2,68.4c1.7-0.1,3.4-0.1,5.2,0c2.5,0.3,3.9,2.4,3.8,5c0,2.4-1.8,4.3-4.2,4.5c-1.6,0.1-3.2,0-4.8,0V68.4z
		 M97.9,69.9v6.5c0.9,0,1.8,0,2.7,0c1.5-0.1,2.7-1.2,2.8-2.7c0.2-1.7-0.5-3.2-2-3.5C100.2,70,99.1,69.9,97.9,69.9L97.9,69.9z"/>
	<path id="Path_142" d="M108.8,69.9v2.4h5.6V74h-5.6v2.4h5.6V78h-7.4v-9.7h7.4v1.5H108.8z"/>
	<path id="Path_143" d="M199,76.4h5.6V78h-7.4v-9.7h7.4v1.5H199v2.4h5.6V74H199L199,76.4z"/>
	<path id="Path_144" d="M164.3,78.1l1.8-4.2c0.7-1.7,1.5-3.4,2.2-5.1c0.1-0.3,0.3-0.4,0.6-0.4c1.5,0,1.5,0,2.1,1.3
		c1.2,2.7,2.3,5.4,3.5,8.1c0,0.1,0.1,0.2,0.1,0.4c-0.6,0-1.1,0-1.6,0c-0.2-0.1-0.3-0.2-0.4-0.4c-0.3-0.5-0.5-1.1-0.7-1.7
		c-0.1-0.3-0.3-0.5-0.6-0.4c-1.2,0-2.5,0-3.7,0c-0.2,0-0.4,0.2-0.6,0.4c-0.3,0.5-0.5,1-0.7,1.6c-0.1,0.3-0.4,0.5-0.7,0.5
		c0,0,0,0,0,0C165.2,78.1,164.8,78.1,164.3,78.1z M171,74l-1.6-3.8l-1.6,3.8H171z"/>
	<path id="Path_145" d="M133.1,78.1c0.4-0.9,0.7-1.7,1.1-2.5c1-2.2,1.9-4.5,2.9-6.7c0.1-0.4,0.4-0.6,0.8-0.5c1.4,0,1.4,0,2,1.3
		c1.1,2.6,2.2,5.2,3.3,7.8c0.1,0.2,0.1,0.4,0.2,0.7c-0.6,0-1.1,0-1.6,0c-0.1,0-0.3-0.2-0.4-0.4c-0.3-0.6-0.5-1.2-0.7-1.7
		c-0.1-0.2-0.3-0.3-0.5-0.3c-1.3,0-2.5,0-3.8,0c-0.2,0-0.4,0.2-0.5,0.4c-0.3,0.5-0.5,1.1-0.7,1.6c-0.1,0.3-0.4,0.6-0.7,0.5
		c0,0,0,0,0,0C134,78.1,133.6,78.1,133.1,78.1z M138.3,70.2l-1.6,3.8h3.2L138.3,70.2z"/>
	<path id="Path_146" d="M195.5,70.5l-1.4,0.9c-0.6-1-1.8-1.5-2.9-1.5c-0.9,0-1.8,0.4-2.4,1.1c-1.1,1.5-1,3.5,0.4,4.8
		c1.4,1.2,3.5,1,5-0.7l1.3,0.9c-1.2,1.8-3.5,2.7-5.6,2c-2.3-0.6-3.8-2.7-3.6-5.1c0-2.2,1.5-4.1,3.7-4.6
		C192.3,67.8,194.6,68.7,195.5,70.5z"/>
	<path id="Path_147" d="M116.8,78v-9.7h7.3v1.5h-5.5v2.5h5.5V74h-5.5v4L116.8,78z"/>
	<path id="Path_148" d="M153,68.4h1.7v8h5.6V78H153V68.4z"/>
	<path id="Path_149" d="M144.5,78v-9.7h1.7v8h5.5V78H144.5z"/>
	<path id="Path_150" d="M126,68.4h1.7v9.7H126V68.4z"/>
	<path id="Path_151" d="M163.2,78.1h-1.6v-9.7h1.6V78.1z"/>
	<path id="Path_152" class="st0" d="M139.8,74h-3.2"/>
	<path id="Path_153" class="st0" d="M138.3,70.2"/>
</g>
</svg>
