<?xml version="1.0" encoding="UTF-8"?>
<svg xmlns="http://www.w3.org/2000/svg" xmlns:xlink="http://www.w3.org/1999/xlink" width="300" height="100" viewBox="0 0 300 100" version="1.1">
<g id="surface1">
<path style=" stroke:none;fill-rule:nonzero;fill:rgb(14.901961%,40%,69.019608%);fill-opacity:1;" d="M 57.734375 62.324219 C 84.582031 48.6875 88.734375 23.695312 67.144531 6.738281 C 64.378906 4.46875 61.332031 2.542969 57.734375 0.796875 C 58.566406 0.796875 59.121094 0.621094 59.671875 0.621094 C 76.554688 0.621094 93.4375 0.621094 110.320312 0.621094 C 136.609375 0.972656 158.199219 14.605469 158.199219 31.382812 C 158.472656 46.417969 141.316406 59.351562 118.066406 61.972656 C 115.023438 62.324219 111.980469 62.496094 108.933594 62.496094 C 92.605469 62.496094 76 62.496094 59.671875 62.496094 C 59.121094 62.324219 58.566406 62.324219 57.734375 62.324219 Z M 57.734375 62.324219 "/>
<path style=" stroke:none;fill-rule:nonzero;fill:rgb(14.901961%,40%,69.019608%);fill-opacity:1;" d="M 153.492188 61.972656 C 181.445312 45.019531 201.09375 24.917969 210.226562 0.972656 C 214.933594 12.507812 222.128906 23.519531 231.535156 33.832031 C 241.222656 43.96875 253.125 53.410156 266.40625 61.796875 C 229.875 53.410156 190.023438 53.410156 153.492188 61.972656 Z M 153.492188 61.972656 "/>
<path style=" stroke:none;fill-rule:nonzero;fill:rgb(14.901961%,40%,69.019608%);fill-opacity:1;" d="M 219.742188 82.074219 C 220.847656 82.074219 221.957031 82.074219 223.0625 82.074219 C 223.617188 82.25 224.445312 82.421875 224.722656 82.773438 C 229.152344 86.09375 233.578125 89.414062 237.730469 92.910156 C 238.007812 93.085938 238.5625 93.4375 239.113281 93.785156 L 239.113281 82.074219 L 243.820312 82.074219 L 243.820312 99.027344 C 241.605469 99.378906 239.113281 98.855469 237.730469 97.804688 C 233.578125 94.308594 229.152344 90.988281 224.445312 87.316406 L 224.445312 99.027344 L 219.742188 99.027344 Z M 219.742188 82.074219 "/>
<path style=" stroke:none;fill-rule:nonzero;fill:rgb(14.901961%,40%,69.019608%);fill-opacity:1;" d="M 0 82.25 C 4.703125 82.074219 9.410156 82.074219 14.390625 82.25 C 21.308594 82.773438 25.183594 86.445312 24.90625 90.988281 C 24.90625 95.183594 19.925781 98.503906 13.285156 98.855469 C 8.855469 99.027344 4.429688 98.855469 0 98.855469 Z M 4.703125 84.871094 L 4.703125 96.230469 C 7.195312 96.230469 9.6875 96.230469 12.175781 96.230469 C 16.328125 96.058594 19.648438 94.136719 19.925781 91.511719 C 20.480469 88.542969 18.542969 85.917969 14.390625 85.394531 C 11.070312 85.046875 8.027344 84.871094 4.703125 84.871094 Z M 4.703125 84.871094 "/>
<path style=" stroke:none;fill-rule:nonzero;fill:rgb(14.901961%,40%,69.019608%);fill-opacity:1;" d="M 34.871094 84.871094 L 34.871094 89.066406 L 50.367188 89.066406 L 50.367188 91.863281 L 34.871094 91.863281 L 34.871094 96.058594 L 50.367188 96.058594 L 50.367188 98.855469 L 29.890625 98.855469 L 29.890625 81.898438 L 50.367188 81.898438 L 50.367188 84.519531 L 34.871094 84.519531 Z M 34.871094 84.871094 "/>
<path style=" stroke:none;fill-rule:nonzero;fill:rgb(14.901961%,40%,69.019608%);fill-opacity:1;" d="M 284.5 96.230469 L 300 96.230469 L 300 99.027344 L 279.519531 99.027344 L 279.519531 82.074219 L 300 82.074219 L 300 84.695312 L 284.5 84.695312 L 284.5 88.890625 L 300 88.890625 L 300 91.863281 L 284.5 91.863281 Z M 284.5 96.230469 "/>
<path style=" stroke:none;fill-rule:nonzero;fill:rgb(14.901961%,40%,69.019608%);fill-opacity:1;" d="M 188.191406 99.203125 L 193.171875 91.863281 C 195.109375 88.890625 197.324219 85.917969 199.261719 82.949219 C 199.539062 82.421875 200.09375 82.25 200.921875 82.25 C 205.074219 82.25 205.074219 82.25 206.734375 84.519531 C 210.054688 89.242188 213.101562 93.960938 216.421875 98.679688 C 216.421875 98.855469 216.699219 99.027344 216.699219 99.378906 C 215.035156 99.378906 213.652344 99.378906 212.269531 99.378906 C 211.714844 99.203125 211.4375 99.027344 211.164062 98.679688 C 210.332031 97.804688 209.777344 96.757812 209.226562 95.707031 C 208.949219 95.183594 208.394531 94.832031 207.566406 95.007812 C 204.242188 95.007812 200.644531 95.007812 197.324219 95.007812 C 196.769531 95.007812 196.21875 95.359375 195.664062 95.707031 C 194.832031 96.582031 194.28125 97.457031 193.726562 98.503906 C 193.449219 99.027344 192.621094 99.378906 191.789062 99.378906 C 190.960938 99.203125 189.851562 99.203125 188.191406 99.203125 Z M 207.011719 92.039062 L 202.582031 85.394531 L 198.15625 92.039062 Z M 207.011719 92.039062 "/>
<path style=" stroke:none;fill-rule:nonzero;fill:rgb(14.901961%,40%,69.019608%);fill-opacity:1;" d="M 102.121094 99.203125 C 103.230469 97.628906 104.058594 96.230469 105.167969 94.832031 C 107.933594 90.988281 110.425781 86.96875 113.191406 83.121094 C 113.46875 82.421875 114.300781 82.074219 115.40625 82.25 C 119.28125 82.25 119.28125 82.25 120.941406 84.519531 C 123.984375 89.066406 127.03125 93.609375 130.074219 98.15625 C 130.351562 98.503906 130.351562 98.855469 130.628906 99.378906 C 128.964844 99.378906 127.582031 99.378906 126.199219 99.378906 C 125.921875 99.378906 125.367188 99.027344 125.09375 98.679688 C 124.261719 97.628906 123.707031 96.582031 123.15625 95.707031 C 122.878906 95.359375 122.324219 95.183594 121.769531 95.183594 C 118.171875 95.183594 114.851562 95.183594 111.253906 95.183594 C 110.699219 95.183594 110.148438 95.53125 109.871094 95.882812 C 109.039062 96.757812 108.488281 97.804688 107.933594 98.679688 C 107.65625 99.203125 106.828125 99.726562 105.996094 99.554688 C 104.613281 99.203125 103.503906 99.203125 102.121094 99.203125 Z M 116.234375 85.394531 L 111.808594 92.039062 L 120.664062 92.039062 Z M 116.234375 85.394531 "/>
<path style=" stroke:none;fill-rule:nonzero;fill:rgb(14.901961%,40%,69.019608%);fill-opacity:1;" d="M 274.816406 85.917969 L 270.941406 87.492188 C 269.28125 85.746094 265.960938 84.871094 262.914062 84.871094 C 260.425781 84.871094 257.933594 85.570312 256.273438 86.792969 C 253.230469 89.414062 253.503906 92.910156 257.378906 95.183594 C 261.253906 97.28125 267.066406 96.929688 271.21875 93.960938 L 274.816406 95.53125 C 271.496094 98.679688 265.128906 100.253906 259.316406 99.027344 C 252.953125 97.980469 248.800781 94.308594 249.355469 90.113281 C 249.355469 86.269531 253.503906 82.949219 259.59375 82.074219 C 265.960938 81.199219 272.324219 82.773438 274.816406 85.917969 Z M 274.816406 85.917969 "/>
<path style=" stroke:none;fill-rule:nonzero;fill:rgb(14.901961%,40%,69.019608%);fill-opacity:1;" d="M 57.011719 99.027344 L 57.011719 82.074219 L 77.214844 82.074219 L 77.214844 84.695312 L 61.992188 84.695312 L 61.992188 89.066406 L 77.214844 89.066406 L 77.214844 91.863281 L 61.992188 91.863281 L 61.992188 98.855469 Z M 57.011719 99.027344 "/>
<path style=" stroke:none;fill-rule:nonzero;fill:rgb(14.901961%,40%,69.019608%);fill-opacity:1;" d="M 157.195312 82.074219 L 161.898438 82.074219 L 161.898438 96.058594 L 177.398438 96.058594 L 177.398438 98.855469 L 157.195312 98.855469 Z M 157.195312 82.074219 "/>
<path style=" stroke:none;fill-rule:nonzero;fill:rgb(14.901961%,40%,69.019608%);fill-opacity:1;" d="M 133.671875 99.027344 L 133.671875 82.074219 L 138.375 82.074219 L 138.375 96.058594 L 153.597656 96.058594 L 153.597656 98.855469 L 133.671875 98.855469 Z M 133.671875 99.027344 "/>
<path style=" stroke:none;fill-rule:nonzero;fill:rgb(14.901961%,40%,69.019608%);fill-opacity:1;" d="M 82.472656 82.074219 L 87.175781 82.074219 L 87.175781 99.027344 L 82.472656 99.027344 Z M 82.472656 82.074219 "/>
<path style=" stroke:none;fill-rule:nonzero;fill:rgb(14.901961%,40%,69.019608%);fill-opacity:1;" d="M 185.425781 99.027344 L 180.996094 99.027344 L 180.996094 82.074219 L 185.425781 82.074219 Z M 185.425781 99.027344 "/>
</g>
</svg>
