<?xml version="1.0" encoding="UTF-8"?>
<svg xmlns="http://www.w3.org/2000/svg" xmlns:xlink="http://www.w3.org/1999/xlink" width="300" height="60" viewBox="0 0 300 60" version="1.1">
<g id="surface1">
<path style=" stroke:none;fill-rule:nonzero;fill:rgb(14.901961%,40%,69.019608%);fill-opacity:1;" d="M 0 28.6875 C 4.839844 25.847656 9.503906 22.90625 14.34375 20.070312 C 15.0625 19.648438 15.78125 19.335938 16.675781 19.230469 C 18.46875 18.914062 20.261719 19.441406 20.980469 20.386719 C 23.847656 23.328125 27.972656 25.746094 32.996094 27.425781 C 34.070312 25.429688 35.144531 23.433594 36.582031 21.4375 C 38.015625 19.335938 41.242188 18.179688 44.292969 16.8125 C 47.878906 15.132812 50.210938 12.191406 46.800781 9.457031 C 46.445312 9.144531 46.085938 8.722656 45.90625 8.40625 C 45.367188 9.878906 45.367188 11.140625 44.472656 11.980469 C 43.214844 12.820312 41.601562 13.554688 39.808594 13.976562 C 37.476562 14.605469 35.144531 14.921875 34.429688 16.601562 C 34.25 16.8125 32.636719 17.023438 31.738281 17.023438 C 29.585938 16.917969 28.152344 15.761719 28.511719 14.605469 C 28.511719 14.394531 28.691406 14.292969 28.691406 14.082031 C 30.304688 11.347656 32.097656 8.722656 33.53125 5.886719 C 34.070312 4.414062 34.25 2.941406 34.25 1.472656 C 34.609375 1.472656 34.96875 1.578125 35.324219 1.578125 C 39.628906 3.046875 43.933594 2.523438 48.238281 1.683594 C 52.359375 0.945312 56.125 1.578125 60.070312 2.207031 L 55.589844 2.417969 C 55.769531 2.628906 55.769531 2.839844 55.949219 2.839844 C 59.714844 2.941406 63.121094 3.890625 65.988281 5.359375 C 68.679688 6.621094 71.90625 7.671875 74.777344 9.039062 L 69.574219 7.671875 C 73.519531 12.609375 80.335938 15.972656 85.714844 19.964844 C 86.789062 20.804688 88.046875 21.542969 89.300781 22.382812 L 88.941406 22.699219 L 81.769531 19.546875 L 80.871094 19.859375 L 84.996094 26.058594 L 83.382812 26.269531 L 96.472656 33.101562 L 96.113281 33.414062 C 95.398438 33.101562 94.5 32.890625 93.785156 32.574219 C 86.96875 29.632812 79.257812 27.636719 71.011719 26.691406 C 57.5625 25.21875 46.621094 29 44.828125 37.40625 C 44.648438 37.933594 44.472656 38.457031 44.292969 39.089844 L 24.027344 34.675781 C 25.464844 38.457031 27.972656 41.085938 33.175781 42.660156 C 33.53125 42.765625 34.070312 42.765625 34.429688 42.765625 C 35.863281 42.660156 37.117188 42.660156 38.554688 42.660156 C 43.574219 43.292969 44.472656 44.027344 44.292969 47.074219 C 44.292969 47.496094 43.933594 47.808594 43.214844 47.914062 C 41.601562 48.335938 39.628906 48.230469 38.015625 47.808594 C 34.070312 46.550781 30.125 45.078125 25.464844 44.761719 C 24.746094 44.65625 24.207031 44.238281 24.027344 43.816406 C 23.132812 40.875 20.980469 38.25 17.933594 35.9375 C 17.035156 35.097656 16.496094 34.152344 16.316406 33.101562 C 16.316406 31.839844 18.828125 30.789062 21.339844 30.683594 C 21.875 30.683594 22.414062 30.683594 22.953125 30.683594 L 16.316406 23.433594 C 12.015625 25.113281 9.683594 28.265625 4.484375 28.898438 L 7.53125 32.890625 L 2.152344 34.046875 L -0.539062 29.84375 Z M 0 28.6875 "/>
<path style=" stroke:none;fill-rule:nonzero;fill:rgb(14.901961%,40%,69.019608%);fill-opacity:1;" d="M 190.078125 59.683594 C 190.796875 59.261719 191.152344 58.632812 192.050781 58.421875 C 193.304688 58.210938 194.023438 57.582031 193.84375 56.847656 C 193.664062 53.273438 193.664062 49.804688 193.304688 46.234375 C 193.304688 45.5 191.871094 44.761719 190.972656 43.921875 L 197.789062 42.242188 L 198.148438 44.027344 C 202.449219 43.082031 206.753906 42.347656 210.339844 44.867188 C 212.492188 46.652344 212.671875 49.175781 210.699219 51.066406 C 208.1875 53.378906 205.140625 53.90625 198.328125 53.0625 C 198.328125 54.535156 198.148438 56.007812 198.328125 57.476562 C 198.503906 57.898438 199.222656 58.316406 199.941406 58.421875 C 201.195312 58.632812 201.554688 58.949219 201.375 59.683594 Z M 198.328125 48.125 C 198.328125 48.753906 198.328125 49.386719 198.328125 49.910156 C 198.328125 51.066406 198.863281 52.011719 201.015625 52.328125 C 203.167969 52.75 205.679688 52.222656 206.753906 50.960938 C 208.1875 49.175781 207.652344 47.179688 205.5 45.707031 C 203.886719 44.761719 201.554688 44.554688 199.582031 45.078125 C 197.429688 45.5 198.683594 46.550781 198.503906 47.179688 C 198.148438 47.601562 198.148438 47.808594 198.328125 48.125 Z M 198.328125 48.125 "/>
<path style=" stroke:none;fill-rule:nonzero;fill:rgb(14.901961%,40%,69.019608%);fill-opacity:1;" d="M 81.769531 2.839844 C 88.941406 4.835938 95.21875 7.777344 99.878906 11.558594 C 111 20.175781 115.839844 29.84375 111.535156 40.558594 C 108.128906 48.964844 99.523438 54.851562 84.636719 56.953125 C 75.132812 58.210938 65.273438 57.265625 57.023438 54.429688 C 52.898438 53.0625 48.953125 51.277344 45.007812 49.703125 L 45.367188 49.28125 C 48.417969 50.332031 51.644531 51.277344 55.050781 52.011719 C 67.960938 54.851562 80.871094 55.375 93.246094 51.277344 C 105.082031 47.703125 112.253906 40.453125 111.894531 32.679688 C 112.074219 20.492188 102.210938 11.140625 85.714844 4.097656 C 84.636719 3.785156 83.203125 3.363281 81.769531 2.839844 Z M 81.769531 2.839844 "/>
<path style=" stroke:none;fill-rule:nonzero;fill:rgb(14.901961%,40%,69.019608%);fill-opacity:1;" d="M 128.75 23.433594 C 129.289062 23.222656 129.828125 22.800781 130.542969 22.699219 C 132.335938 22.59375 133.59375 21.75 133.414062 20.804688 C 133.414062 20.699219 133.414062 20.699219 133.414062 20.597656 C 133.234375 17.023438 133.414062 13.554688 133.414062 9.878906 L 129.109375 9.878906 L 128.75 9.457031 C 129.289062 9.246094 129.648438 8.722656 130.363281 8.722656 C 136.101562 7.988281 142.199219 7.777344 148.117188 8.40625 C 153.136719 8.828125 157.082031 10.929688 158.339844 13.765625 C 159.953125 16.496094 158.875 19.441406 155.648438 21.648438 C 153.855469 23.011719 151.164062 23.75 148.117188 23.851562 C 141.839844 23.957031 135.386719 23.851562 129.109375 23.851562 Z M 138.972656 15.132812 C 138.972656 16.601562 138.972656 18.074219 138.972656 19.546875 C 138.972656 21.542969 140.40625 22.488281 143.8125 22.59375 C 147.398438 22.90625 150.808594 21.542969 151.882812 19.441406 C 152.601562 17.652344 152.78125 15.867188 152.421875 14.082031 C 151.882812 11.035156 147.398438 8.828125 142.199219 9.144531 C 141.660156 9.144531 141.125 9.246094 140.765625 9.246094 C 140.046875 9.457031 139.332031 9.773438 139.152344 10.296875 C 138.972656 11.980469 138.972656 13.554688 138.972656 15.132812 Z M 138.972656 15.132812 "/>
<path style=" stroke:none;fill-rule:nonzero;fill:rgb(14.901961%,40%,69.019608%);fill-opacity:1;" d="M 201.734375 18.597656 C 201.375 18.390625 200.65625 18.285156 200.65625 18.074219 C 200.121094 16.496094 198.148438 16.496094 196.175781 16.394531 C 194.738281 16.394531 193.304688 16.394531 191.691406 16.394531 C 191.691406 18.285156 191.511719 20.070312 191.871094 21.75 C 191.871094 22.066406 193.484375 22.382812 194.203125 22.699219 C 194.917969 22.90625 195.636719 23.117188 196.355469 23.328125 L 195.996094 23.851562 C 193.664062 23.851562 191.332031 23.851562 189 23.851562 C 187.027344 23.851562 185.234375 23.957031 183.261719 23.957031 C 182.726562 23.957031 182.1875 23.644531 181.828125 23.539062 C 182.1875 23.328125 182.546875 22.90625 183.085938 22.90625 C 185.773438 22.800781 186.132812 21.855469 185.953125 20.492188 C 185.773438 17.445312 185.773438 14.394531 185.773438 11.453125 C 185.773438 10.296875 185.59375 9.246094 183.085938 9.246094 C 182.726562 9.246094 182.1875 8.828125 181.46875 8.300781 L 204.960938 8.300781 L 205.320312 11.558594 L 204.78125 11.875 C 204.066406 11.664062 202.988281 11.453125 202.808594 11.035156 C 202.269531 9.984375 200.476562 9.351562 198.683594 9.457031 C 191.511719 9.457031 191.511719 9.457031 191.691406 13.554688 C 191.691406 13.976562 191.691406 14.394531 191.691406 15.027344 C 194.023438 15.027344 196.53125 14.921875 198.863281 14.816406 C 199.582031 14.710938 200.121094 13.976562 200.835938 13.554688 L 202.09375 12.714844 L 202.808594 12.925781 L 202.808594 18.285156 Z M 201.734375 18.597656 "/>
<path style=" stroke:none;fill-rule:nonzero;fill:rgb(14.901961%,40%,69.019608%);fill-opacity:1;" d="M 156.902344 41.820312 C 156.007812 41.609375 155.289062 41.402344 154.574219 41.085938 C 153.675781 40.664062 153.136719 40.140625 152.242188 39.71875 C 147.398438 37.511719 141.660156 38.351562 140.046875 41.820312 C 139.152344 43.921875 138.972656 46.023438 139.332031 48.125 C 139.511719 50.121094 141.839844 51.699219 145.070312 52.117188 C 148.296875 52.539062 151.703125 51.804688 153.855469 50.332031 C 154.75 49.804688 155.828125 49.28125 157.082031 48.859375 C 156.902344 52.75 156.902344 52.855469 151.703125 53.378906 C 147.757812 53.90625 143.453125 53.695312 139.6875 52.75 C 134.128906 51.171875 131.082031 47.601562 132.335938 44.027344 C 133.414062 40.351562 138.613281 37.617188 145.070312 37.40625 C 147.21875 37.300781 149.550781 37.40625 151.703125 37.617188 C 156.1875 37.828125 157.441406 38.773438 156.902344 41.820312 Z M 156.902344 41.820312 "/>
<path style=" stroke:none;fill-rule:nonzero;fill:rgb(14.901961%,40%,69.019608%);fill-opacity:1;" d="M 248.714844 23.851562 L 239.03125 23.851562 C 239.210938 23.644531 239.210938 23.328125 239.390625 23.328125 C 242.257812 23.117188 242.082031 21.75 241.902344 20.597656 C 241.902344 20.175781 241.902344 19.648438 241.902344 19.230469 C 241.902344 17.757812 242.4375 16.078125 238.851562 15.445312 L 246.203125 13.136719 L 246.5625 14.921875 C 248.355469 14.5 250.328125 14.082031 252.121094 13.871094 C 254.8125 13.449219 257.679688 14.5 258.398438 16.078125 C 258.578125 16.394531 258.578125 16.601562 258.578125 16.917969 C 258.757812 18.390625 258.578125 19.753906 258.578125 21.226562 C 258.578125 22.171875 258.21875 23.222656 260.550781 23.222656 C 260.730469 23.222656 260.910156 23.539062 261.085938 23.851562 L 251.226562 23.851562 C 251.40625 23.644531 251.40625 23.328125 251.582031 23.328125 C 254.273438 23.222656 254.09375 22.171875 254.09375 21.015625 C 253.914062 19.648438 254.09375 18.285156 253.914062 16.917969 C 253.734375 15.867188 253.019531 15.027344 250.867188 15.132812 C 248.714844 15.132812 246.921875 16.078125 246.5625 17.339844 C 246.5625 18.285156 246.5625 19.335938 246.5625 20.28125 C 246.5625 21.542969 245.847656 23.011719 249.433594 23.328125 Z M 248.714844 23.851562 "/>
<path style=" stroke:none;fill-rule:nonzero;fill:rgb(14.901961%,40%,69.019608%);fill-opacity:1;" d="M 235.265625 22.488281 L 237.417969 21.648438 C 238.136719 22.382812 237.777344 23.328125 236.34375 23.75 C 236.34375 23.75 236.164062 23.75 236.164062 23.851562 C 234.546875 24.484375 232.753906 24.0625 230.960938 22.59375 C 229.347656 23.851562 226.660156 24.378906 223.96875 24.0625 C 222.714844 23.957031 220.921875 23.433594 220.742188 22.90625 C 220.382812 22.066406 220.921875 21.226562 221.816406 20.597656 C 223.609375 19.859375 225.761719 19.125 227.914062 18.703125 C 230.605469 18.074219 231.5 16.8125 230.066406 15.34375 C 229.707031 15.027344 228.632812 14.710938 228.273438 14.816406 C 227.195312 15.027344 225.402344 15.445312 225.402344 15.867188 C 225.042969 17.546875 222.894531 17.757812 220.5625 18.074219 C 220.382812 17.863281 220.382812 17.652344 220.382812 17.445312 C 220.742188 15.550781 223.25 14.710938 225.941406 14.1875 C 228.632812 13.660156 231.679688 13.347656 234.011719 14.605469 C 234.726562 15.238281 235.085938 15.867188 235.085938 16.601562 C 235.265625 18.074219 235.085938 19.441406 235.085938 20.910156 C 235.085938 21.332031 235.265625 21.75 235.265625 22.488281 Z M 230.246094 18.703125 C 228.632812 19.230469 227.195312 19.859375 225.941406 20.699219 C 225.402344 21.121094 225.941406 21.960938 225.941406 22.59375 C 227.015625 22.59375 228.09375 22.699219 228.988281 22.382812 C 231.140625 21.648438 230.425781 20.386719 230.246094 18.703125 Z M 230.246094 18.703125 "/>
<path style=" stroke:none;fill-rule:nonzero;fill:rgb(14.901961%,40%,69.019608%);fill-opacity:1;" d="M 181.828125 51.699219 L 183.980469 50.855469 C 184.699219 51.59375 184.160156 52.539062 182.90625 52.957031 C 182.90625 52.957031 182.726562 52.957031 182.726562 52.957031 C 181.113281 53.589844 179.320312 53.0625 178.0625 52.117188 C 175.730469 52.539062 173.402344 52.957031 171.070312 53.273438 C 169.457031 53.484375 167.664062 52.957031 167.304688 52.011719 C 166.585938 50.960938 167.484375 49.910156 169.097656 49.386719 C 171.25 48.652344 173.757812 48.125 175.910156 47.496094 C 177.347656 47.074219 177.703125 45.394531 176.628906 44.449219 C 175.554688 43.503906 174.117188 43.816406 172.863281 44.238281 C 172.324219 44.449219 171.964844 44.761719 171.789062 45.078125 C 171.609375 46.757812 169.457031 46.96875 166.40625 47.390625 C 166.765625 46.550781 167.304688 45.8125 168.023438 45.078125 C 170.53125 43.292969 174.65625 42.554688 178.421875 43.082031 C 180.394531 43.292969 181.828125 44.34375 181.648438 45.5 C 181.828125 47.074219 181.648438 48.546875 181.648438 50.121094 C 181.46875 50.648438 181.648438 51.066406 181.828125 51.699219 Z M 176.808594 48.546875 L 176.269531 48.230469 C 174.835938 48.753906 173.582031 49.386719 172.503906 50.121094 C 171.964844 50.753906 172.144531 51.382812 172.683594 51.804688 C 173.042969 52.011719 174.65625 52.011719 175.375 51.699219 C 177.527344 51.066406 176.988281 49.703125 176.808594 48.546875 Z M 176.808594 48.546875 "/>
<path style=" stroke:none;fill-rule:nonzero;fill:rgb(14.901961%,40%,69.019608%);fill-opacity:1;" d="M 272.921875 51.699219 L 275.074219 50.960938 C 275.972656 52.011719 275.074219 52.644531 274 53.0625 C 272.386719 53.695312 270.589844 53.273438 269.15625 52.222656 C 266.648438 52.644531 264.496094 53.0625 262.164062 53.378906 C 260.550781 53.589844 258.757812 53.0625 258.21875 52.117188 C 257.5 51.066406 258.398438 50.015625 260.011719 49.492188 C 261.984375 48.753906 264.136719 48.230469 266.289062 47.808594 C 268.976562 47.285156 268.261719 46.234375 267.902344 45.183594 C 267.722656 44.65625 266.824219 44.132812 265.929688 43.921875 C 264.136719 43.816406 263.238281 44.554688 262.34375 45.5 C 261.625 46.339844 260.011719 46.863281 258.757812 47.496094 L 257.679688 47.074219 C 257.859375 46.445312 258.21875 45.8125 258.757812 45.183594 C 261.265625 43.292969 265.570312 42.453125 269.515625 43.1875 C 270.949219 43.503906 271.847656 44.132812 272.207031 44.972656 C 272.5625 46.550781 272.742188 48.125 272.5625 49.703125 C 272.742188 50.332031 272.742188 50.960938 272.921875 51.699219 Z M 268.441406 48.546875 L 267.542969 48.230469 C 266.109375 48.652344 265.03125 49.175781 263.957031 49.804688 C 263.417969 50.226562 263.777344 51.171875 263.597656 51.804688 C 264.675781 51.699219 266.46875 51.90625 266.824219 51.488281 C 267.542969 50.648438 268.082031 49.597656 268.441406 48.546875 Z M 268.441406 48.546875 "/>
<path style=" stroke:none;fill-rule:nonzero;fill:rgb(14.901961%,40%,69.019608%);fill-opacity:1;" d="M 167.304688 17.96875 C 166.945312 21.542969 171.429688 23.328125 176.808594 21.855469 C 177.703125 21.75 178.601562 21.648438 179.320312 21.648438 C 176.628906 24.0625 171.070312 25.007812 166.585938 23.75 C 162.820312 22.382812 161.027344 19.648438 162.640625 17.234375 C 164.078125 14.710938 168.558594 13.242188 172.863281 13.871094 C 176.449219 14.1875 179.140625 15.972656 178.960938 18.074219 Z M 167.304688 16.8125 L 174.476562 16.8125 C 174.117188 15.34375 173.042969 14.394531 170.890625 14.5 C 168.738281 14.5 167.664062 15.550781 167.304688 16.8125 Z M 167.304688 16.8125 "/>
<path style=" stroke:none;fill-rule:nonzero;fill:rgb(14.901961%,40%,69.019608%);fill-opacity:1;" d="M 287.804688 17.96875 C 287.449219 21.542969 291.929688 23.328125 297.132812 21.855469 C 298.027344 21.648438 298.925781 21.648438 300 21.542969 C 297.132812 23.957031 291.75 24.902344 287.269531 23.644531 C 283.503906 22.277344 281.710938 19.546875 283.324219 17.128906 C 284.757812 14.605469 289.0625 13.136719 293.542969 13.765625 C 297.132812 13.976562 299.820312 15.867188 299.640625 17.96875 Z M 294.800781 16.917969 C 294.441406 15.238281 293.007812 14.394531 291.214844 14.5 C 289.421875 14.605469 288.164062 15.550781 288.164062 16.917969 Z M 294.800781 16.917969 "/>
<path style=" stroke:none;fill-rule:nonzero;fill:rgb(14.901961%,40%,69.019608%);fill-opacity:1;" d="M 292.46875 53.273438 L 281.710938 53.273438 C 282.066406 52.957031 282.246094 52.539062 282.605469 52.539062 C 285.117188 52.539062 285.117188 51.59375 285.117188 50.542969 C 285.117188 47.601562 285.117188 44.761719 284.9375 41.820312 C 284.9375 39.929688 284.757812 39.929688 281.890625 38.878906 L 289.597656 37.199219 L 289.597656 41.085938 C 289.597656 44.132812 289.597656 47.285156 289.597656 50.332031 C 289.597656 51.382812 289.242188 52.644531 292.109375 52.539062 C 292.289062 52.539062 292.46875 52.75 292.46875 52.855469 C 292.46875 52.855469 292.46875 52.957031 292.46875 53.273438 Z M 292.46875 53.273438 "/>
<path style=" stroke:none;fill-rule:nonzero;fill:rgb(14.901961%,40%,69.019608%);fill-opacity:1;" d="M 272.207031 24.167969 C 268.082031 24.273438 264.316406 22.699219 263.238281 20.386719 C 262.34375 17.96875 264.316406 15.550781 267.902344 14.394531 C 270.769531 13.554688 274 13.347656 277.226562 13.871094 C 277.945312 13.976562 278.480469 14.082031 278.839844 14.394531 C 279.378906 14.921875 279.738281 15.550781 279.738281 16.183594 C 279.738281 16.394531 278.839844 16.917969 278.300781 16.917969 C 277.226562 16.8125 276.328125 16.496094 275.433594 16.183594 C 274.894531 15.972656 274.894531 15.445312 274.359375 15.132812 C 273.28125 14.292969 271.847656 14.5 270.414062 14.921875 C 268.082031 15.867188 267.003906 17.652344 267.902344 19.230469 C 268.621094 20.910156 270.769531 22.382812 273.101562 22.382812 C 274.714844 22.171875 276.328125 21.855469 277.765625 21.332031 C 278.300781 21.226562 278.839844 21.121094 279.558594 20.910156 C 279.558594 21.332031 279.738281 21.855469 279.378906 22.066406 C 277.945312 23.539062 275.253906 24.378906 272.207031 24.167969 Z M 272.207031 24.167969 "/>
<path style=" stroke:none;fill-rule:nonzero;fill:rgb(14.901961%,40%,69.019608%);fill-opacity:1;" d="M 240.464844 44.972656 L 237.597656 44.761719 L 244.949219 40.769531 L 245.488281 43.398438 C 246.382812 44.238281 249.613281 42.554688 249.253906 44.761719 L 245.128906 44.867188 C 245.128906 46.863281 245.128906 48.859375 245.128906 50.855469 C 245.128906 51.804688 246.382812 51.90625 247.640625 51.59375 C 248.175781 51.488281 248.714844 51.488281 249.253906 51.488281 C 249.074219 51.804688 248.894531 52.328125 248.535156 52.433594 C 246.921875 53.273438 244.589844 53.484375 242.617188 52.957031 C 241.003906 52.433594 240.109375 51.488281 240.285156 50.4375 C 240.464844 48.753906 240.464844 46.96875 240.464844 44.972656 Z M 240.464844 44.972656 "/>
<path style=" stroke:none;fill-rule:nonzero;fill:rgb(14.901961%,40%,69.019608%);fill-opacity:1;" d="M 220.023438 44.34375 L 227.914062 42.347656 C 227.914062 44.65625 227.914062 46.863281 227.914062 49.070312 C 227.914062 49.703125 227.914062 50.332031 227.914062 50.855469 C 227.734375 51.804688 228.09375 52.433594 229.886719 52.433594 C 230.246094 52.433594 230.605469 52.75 231.320312 53.167969 L 220.203125 53.167969 L 219.304688 52.539062 C 219.84375 52.433594 220.382812 52.433594 220.921875 52.433594 C 223.25 52.433594 223.429688 51.59375 223.25 50.542969 C 223.25 49.28125 223.074219 47.914062 223.25 46.652344 C 223.429688 45.605469 223.074219 44.761719 220.921875 44.761719 C 220.5625 44.761719 220.382812 44.554688 220.023438 44.34375 Z M 220.023438 44.34375 "/>
<path style=" stroke:none;fill-rule:nonzero;fill:rgb(14.901961%,40%,69.019608%);fill-opacity:1;" d="M 206.574219 15.238281 C 209.265625 14.394531 211.238281 13.871094 213.03125 13.242188 C 214.644531 12.820312 214.824219 13.347656 214.824219 14.082031 C 214.824219 15.972656 214.824219 17.757812 214.644531 19.648438 C 214.644531 20.175781 214.644531 20.699219 214.644531 21.226562 C 214.464844 22.277344 214.644531 23.117188 216.976562 23.117188 C 217.335938 23.117188 217.691406 23.222656 218.050781 23.328125 L 217.691406 23.75 L 206.394531 23.75 C 207.292969 23.328125 207.652344 23.011719 208.007812 23.011719 C 209.980469 23.011719 210.339844 22.277344 210.160156 21.332031 C 210.160156 19.964844 209.980469 18.597656 210.160156 17.234375 C 210.339844 16.183594 209.980469 15.34375 207.832031 15.34375 C 207.472656 15.34375 206.933594 15.34375 206.574219 15.238281 Z M 206.574219 15.238281 "/>
<path style=" stroke:none;fill-rule:nonzero;fill:rgb(14.901961%,40%,69.019608%);fill-opacity:1;" d="M 32.996094 4.625 L 31.203125 7.25 L 2.332031 0.527344 L 2.332031 0.316406 Z M 32.996094 4.625 "/>
<path style=" stroke:none;fill-rule:nonzero;fill:rgb(14.901961%,40%,69.019608%);fill-opacity:1;" d="M 212.851562 8.09375 C 214.105469 8.09375 215.363281 8.722656 215.363281 9.457031 C 215.363281 9.5625 215.363281 9.5625 215.363281 9.667969 C 215.183594 10.71875 214.105469 11.453125 212.492188 11.140625 C 211.238281 10.824219 210.339844 10.195312 210.160156 9.457031 C 209.625 8.617188 211.058594 7.988281 212.851562 8.09375 Z M 212.851562 8.09375 "/>
<path style=" stroke:none;fill-rule:nonzero;fill:rgb(14.901961%,40%,69.019608%);fill-opacity:1;" d="M 222.894531 39.089844 C 222.894531 37.933594 223.96875 37.300781 225.582031 37.40625 C 227.015625 37.300781 228.09375 37.933594 228.273438 38.667969 C 228.273438 38.773438 228.273438 38.773438 228.273438 38.878906 C 228.453125 39.71875 227.375 40.453125 226.121094 40.558594 C 225.941406 40.558594 225.941406 40.558594 225.761719 40.558594 C 224.328125 40.664062 223.074219 40.035156 222.894531 39.089844 C 222.894531 39.195312 222.894531 39.195312 222.894531 39.089844 Z M 222.894531 39.089844 "/>
</g>
</svg>
