<?xml version="1.0" encoding="utf-8"?>
<!-- Generator: Adobe Illustrator 26.3.1, SVG Export Plug-In . SVG Version: 6.00 Build 0)  -->
<svg version="1.1" id="katman_1" xmlns="http://www.w3.org/2000/svg" xmlns:xlink="http://www.w3.org/1999/xlink" x="0px" y="0px"
	 viewBox="0 0 167.3 56.5" style="enable-background:new 0 0 167.3 56.5;" xml:space="preserve">
<style type="text/css">
	.st0{fill:#2666B0;}
</style>
<g id="Group_88" transform="translate(0)">
	<path id="Path_118" class="st0" d="M0,27c2.7-2.7,5.3-5.5,8-8.2c0.4-0.4,0.8-0.7,1.3-0.8c1-0.3,2,0.2,2.4,1.1
		c1.6,2.8,3.9,5.1,6.7,6.7c0.6-1.9,1.2-3.8,2-5.7c0.8-2,2.6-3.1,4.3-4.4c2-1.6,3.3-4.4,1.4-7c-0.2-0.3-0.4-0.7-0.5-1
		c-0.3,1.4-0.3,2.6-0.8,3.4c-0.7,0.8-1.6,1.5-2.6,1.9c-1.3,0.6-2.6,0.9-3,2.5c-0.1,0.2-1,0.4-1.5,0.4c-1.2-0.1-2-1.2-1.8-2.3
		c0-0.2,0.1-0.3,0.1-0.5c0.9-2.6,1.9-5.1,2.7-7.8c0.3-1.4,0.4-2.8,0.4-4.2c0.2,0,0.4,0.1,0.6,0.1c2.4,1.4,4.8,0.9,7.2,0.1
		c2.3-0.7,4.4-0.1,6.6,0.5l-2.5,0.2c0.1,0.2,0.1,0.4,0.2,0.4c2.1,0.1,4,1,5.6,2.4c1.5,1.2,3.3,2.2,4.9,3.5L38.8,7
		c2.2,4.7,6,7.9,9,11.7c0.6,0.8,1.3,1.5,2,2.3l-0.2,0.3l-4-3l-0.5,0.3l2.3,5.9l-0.9,0.2l7.3,6.5l-0.2,0.3c-0.4-0.3-0.9-0.5-1.3-0.8
		c-3.8-2.8-8.1-4.7-12.7-5.6C32.1,23.7,26,27.3,25,35.3c-0.1,0.5-0.2,1-0.3,1.6l-11.3-4.2c0.8,3.6,2.2,6.1,5.1,7.6
		c0.2,0.1,0.5,0.1,0.7,0.1c0.8-0.1,1.5-0.1,2.3-0.1c2.8,0.6,3.3,1.3,3.2,4.2c0,0.4-0.2,0.7-0.6,0.8c-0.9,0.4-2,0.3-2.9-0.1
		c-2.2-1.2-4.4-2.6-7-2.9c-0.4-0.1-0.7-0.5-0.8-0.9c-0.5-2.8-1.7-5.3-3.4-7.5c-0.5-0.8-0.8-1.7-0.9-2.7c0-1.2,1.4-2.2,2.8-2.3
		c0.3,0,0.6,0,0.9,0l-3.7-6.9c-2.4,1.6-3.7,4.6-6.6,5.2l1.7,3.8l-3,1.1l-1.5-4L0,27z"/>
	<path id="Path_119" class="st0" d="M106,56.5c0.4-0.4,0.6-1,1.1-1.2c0.7-0.2,1.1-0.8,1-1.5c-0.1-3.4-0.1-6.7-0.3-10.1
		c0-0.7-0.8-1.4-1.3-2.2l3.8-1.6l0.2,1.7c2.4-0.9,4.8-1.6,6.8,0.8c1.2,1.7,1.3,4.1,0.2,5.9c-1.4,2.2-3.1,2.7-6.9,1.9
		c0,1.4-0.1,2.8,0,4.2c0.1,0.4,0.5,0.8,0.9,0.9c0.7,0.2,0.9,0.5,0.8,1.2L106,56.5z M110.6,45.5c0,0.6,0,1.2,0,1.7
		c0,1.1,0.3,2,1.5,2.3c1.2,0.4,2.6-0.1,3.2-1.3c0.8-1.7,0.5-3.6-0.7-5c-0.9-0.9-2.2-1.1-3.3-0.6c-1.2,0.4-0.5,1.4-0.6,2
		C110.5,45,110.5,45.2,110.6,45.5L110.6,45.5z"/>
	<path id="Path_120" class="st0" d="M45.6,2.4c4,1.9,7.5,4.7,10.1,8.3c6.2,8.2,8.9,17.4,6.5,27.6c-1.9,8-6.7,13.6-15,15.6
		c-5.3,1.2-10.8,0.3-15.4-2.4c-2.3-1.3-4.5-3-6.7-4.5l0.2-0.4c1.7,1,3.5,1.9,5.4,2.6c7.2,2.7,14.4,3.2,21.3-0.7
		c6.6-3.4,10.6-10.3,10.4-17.7c0.1-11.6-5.4-20.5-14.6-27.2C47.2,3.3,46.4,2.9,45.6,2.4z"/>
	<path id="Path_121" class="st0" d="M71.8,22c0.3-0.2,0.6-0.6,1-0.7c1-0.1,1.7-0.9,1.6-1.8c0-0.1,0-0.1,0-0.2c-0.1-3.4,0-6.7,0-10.2
		H72l-0.2-0.4C72.1,8.5,72.3,8,72.7,8c3.2-0.7,6.6-0.9,9.9-0.3c2.8,0.4,5,2.4,5.7,5.1c0.9,2.6,0.3,5.4-1.5,7.5c-1,1.3-2.5,2-4.2,2.1
		c-3.5,0.1-7.1,0-10.6,0L71.8,22z M77.5,14.1L77.5,14.1c0,1.4,0,2.8,0,4.2c0,1.9,0.8,2.8,2.7,2.9c2,0.3,3.9-1,4.5-3
		c0.4-1.7,0.5-3.4,0.3-5.1c-0.3-2.9-2.8-5-5.7-4.7c-0.3,0-0.6,0.1-0.8,0.1c-0.4,0.2-0.8,0.5-0.9,1C77.5,11.1,77.5,12.6,77.5,14.1
		L77.5,14.1z"/>
	<path id="Path_122" class="st0" d="M112.5,17.4c-0.2-0.2-0.6-0.3-0.6-0.5c-0.3-1.5-1.4-1.5-2.5-1.6c-0.8,0-1.6,0-2.5,0
		c0,1.8-0.1,3.5,0.1,5.1c0,0.3,0.9,0.6,1.3,0.9c0.4,0.2,0.8,0.4,1.2,0.6l-0.2,0.5c-1.3,0-2.6,0-3.9,0c-1.1,0-2.1,0.1-3.2,0.1
		c-0.3,0-0.6-0.3-0.8-0.4c0.2-0.2,0.4-0.6,0.7-0.6c1.5-0.1,1.7-1,1.6-2.3c-0.1-2.9-0.1-5.8-0.1-8.6c0-1.1-0.1-2.1-1.5-2.1
		c-0.2,0-0.5-0.4-0.9-0.9h13.1l0.2,3.1l-0.3,0.3c-0.4-0.2-1-0.4-1.1-0.8c-0.3-1-1.3-1.6-2.3-1.5c-4,0-4,0-3.9,3.9c0,0.4,0,0.8,0,1.4
		c1.3,0,2.7-0.1,4-0.2c0.4-0.1,0.7-0.8,1.1-1.2l0.7-0.8l0.4,0.2v5.1L112.5,17.4z"/>
	<path id="Path_123" class="st0" d="M87.5,39.5c-0.5-0.2-0.9-0.4-1.3-0.7c-0.5-0.4-0.8-0.9-1.3-1.3c-2.7-2.1-5.9-1.3-6.8,2
		c-0.5,2-0.6,4-0.4,6c0.1,1.9,1.4,3.4,3.2,3.8c1.8,0.4,3.7-0.3,4.9-1.7c0.5-0.5,1.1-1,1.8-1.4c-0.1,3.7-0.1,3.8-3,4.3
		c-2.2,0.5-4.6,0.3-6.7-0.6c-3.1-1.5-4.8-4.9-4.1-8.3c0.6-3.5,3.5-6.1,7.1-6.3c1.2-0.1,2.5,0,3.7,0.2C87.1,35.7,87.8,36.6,87.5,39.5
		z"/>
	<path id="Path_124" class="st0" d="M138.7,22.4h-5.4c0.1-0.2,0.1-0.5,0.2-0.5c1.6-0.2,1.5-1.5,1.4-2.6c0-0.4,0-0.9,0-1.3
		c0-1.4,0.3-3-1.7-3.6l4.1-2.2l0.2,1.7c1-0.4,2.1-0.8,3.1-1c1.5-0.4,3.1,0.6,3.5,2.1c0.1,0.3,0.1,0.5,0.1,0.8c0.1,1.4,0,2.7,0,4.1
		c0,0.9-0.2,1.9,1.1,1.9c0.1,0,0.2,0.3,0.3,0.6h-5.5c0.1-0.2,0.1-0.5,0.2-0.5c1.5-0.1,1.4-1.1,1.4-2.2c-0.1-1.3,0-2.6-0.1-3.9
		c-0.1-1-0.5-1.8-1.7-1.7c-1.2,0-2.2,0.9-2.4,2.1c0,0.9,0,1.9,0,2.8c0,1.2-0.4,2.6,1.6,2.9L138.7,22.4z"/>
	<path id="Path_125" class="st0" d="M131.2,21.1l1.2-0.8c0.4,0.7,0.2,1.6-0.6,2c0,0-0.1,0-0.1,0.1c-0.9,0.6-1.9,0.2-2.9-1.2
		c-0.9,1.2-2.4,1.7-3.9,1.4c-0.7-0.1-1.7-0.6-1.8-1.1c-0.2-0.8,0.1-1.6,0.6-2.2c1-0.7,2.2-1.4,3.4-1.8c1.5-0.6,2-1.8,1.2-3.2
		c-0.2-0.3-0.8-0.6-1-0.5c-0.6,0.2-1.6,0.6-1.6,1c-0.2,1.6-1.4,1.8-2.7,2.1c-0.1-0.2-0.1-0.4-0.1-0.6c0.2-1.8,1.6-2.6,3.1-3.1
		c1.5-0.5,3.2-0.8,4.5,0.4c0.4,0.6,0.6,1.2,0.6,1.9c0.1,1.4,0,2.7,0,4.1C131.1,20,131.2,20.4,131.2,21.1z M128.4,17.5
		c-0.9,0.5-1.7,1.1-2.4,1.9c-0.3,0.4,0,1.2,0,1.8c0.6,0,1.2,0.1,1.7-0.2C128.9,20.3,128.5,19.1,128.4,17.5L128.4,17.5z"/>
	<path id="Path_126" class="st0" d="M101.4,48.9l1.2-0.8c0.4,0.7,0.1,1.6-0.6,2c0,0-0.1,0-0.1,0c-0.9,0.6-1.9,0.1-2.6-0.8
		c-1.3,0.4-2.6,0.8-3.9,1.1c-0.9,0.2-1.9-0.3-2.1-1.2c-0.4-1,0.1-2,1-2.5c1.2-0.7,2.6-1.2,3.8-1.8c0.8-0.4,1-2,0.4-2.9
		c-0.6-0.9-1.4-0.6-2.1-0.2c-0.3,0.2-0.5,0.5-0.6,0.8c-0.1,1.6-1.3,1.8-3,2.2c0.2-0.8,0.5-1.5,0.9-2.2c1.4-1.7,3.7-2.4,5.8-1.9
		c1.1,0.2,1.9,1.2,1.8,2.3c0.1,1.5,0,2.9,0,4.4C101.2,47.9,101.3,48.3,101.4,48.9z M98.6,45.9l-0.3-0.3c-0.8,0.5-1.5,1.1-2.1,1.8
		C95.9,48,96,48.6,96.3,49c0.2,0.2,1.1,0.2,1.5-0.1C99,48.3,98.7,47,98.6,45.9L98.6,45.9z"/>
	<path id="Path_127" class="st0" d="M152.2,48.9l1.2-0.7c0.5,1,0,1.6-0.6,2c-0.9,0.6-1.9,0.2-2.7-0.8c-1.4,0.4-2.6,0.8-3.9,1.1
		c-0.9,0.2-1.9-0.3-2.2-1.2c-0.4-1,0.1-2,1-2.5c1.1-0.7,2.3-1.2,3.5-1.6c1.5-0.5,1.1-1.5,0.9-2.5c-0.1-0.5-0.6-1-1.1-1.2
		c-1-0.1-1.5,0.6-2,1.5c-0.4,0.8-1.3,1.3-2,1.9l-0.6-0.4c0.1-0.6,0.3-1.2,0.6-1.8c1.4-1.8,3.8-2.6,6-1.9c0.8,0.3,1.3,0.9,1.5,1.7
		c0.2,1.5,0.3,3,0.2,4.5C152.1,47.6,152.1,48.2,152.2,48.9z M149.7,45.9l-0.5-0.3c-0.8,0.4-1.4,0.9-2,1.5c-0.3,0.4-0.1,1.3-0.2,1.9
		c0.6-0.1,1.6,0.1,1.8-0.3C149.2,47.9,149.5,46.9,149.7,45.9L149.7,45.9z"/>
	<path id="Path_128" class="st0" d="M93.3,16.8c-0.2,3.4,2.3,5.1,5.3,3.7c0.5-0.1,1-0.2,1.4-0.2c-1.5,2.3-4.6,3.2-7.1,2
		c-2.1-1.3-3.1-3.9-2.2-6.2c0.8-2.4,3.3-3.8,5.7-3.2c2,0.3,3.5,2,3.4,4L93.3,16.8z M93.3,15.7h4c-0.2-1.4-0.8-2.3-2-2.2
		C94.1,13.5,93.5,14.5,93.3,15.7L93.3,15.7z"/>
	<path id="Path_129" class="st0" d="M160.5,16.8c-0.2,3.4,2.3,5.1,5.2,3.7c0.5-0.2,1-0.2,1.6-0.3c-1.6,2.3-4.6,3.2-7.1,2
		c-2.1-1.3-3.1-3.9-2.2-6.2c0.8-2.4,3.2-3.8,5.7-3.2c2,0.2,3.5,2,3.4,4L160.5,16.8z M164.4,15.8c-0.2-1.6-1-2.4-2-2.3
		c-1,0.1-1.7,1-1.7,2.3H164.4z"/>
	<path id="Path_130" class="st0" d="M163.1,50.4h-6c0.2-0.3,0.3-0.7,0.5-0.7c1.4,0,1.4-0.9,1.4-1.9c0-2.8,0-5.5-0.1-8.3
		c0-1.8-0.1-1.8-1.7-2.8l4.3-1.6v3.7c0,2.9,0,5.9,0,8.8c0,1-0.2,2.2,1.4,2.1c0.1,0,0.2,0.2,0.2,0.3C163.1,50,163.1,50.1,163.1,50.4z
		"/>
	<path id="Path_131" class="st0" d="M151.8,22.7c-2.3,0.1-4.4-1.4-5-3.6c-0.5-2.3,0.6-4.6,2.6-5.7c1.6-0.8,3.4-1,5.2-0.5
		c0.4,0.1,0.7,0.2,0.9,0.5c0.3,0.5,0.5,1.1,0.5,1.7c0,0.2-0.5,0.7-0.8,0.7c-0.6-0.1-1.1-0.4-1.6-0.7c-0.3-0.2-0.3-0.7-0.6-1
		c-0.6-0.8-1.4-0.6-2.2-0.2c-1.3,0.9-1.9,2.6-1.4,4.1c0.4,1.6,1.6,3,2.9,3c0.9-0.2,1.8-0.5,2.6-1c0.3-0.1,0.6-0.2,1-0.4
		c0,0.4,0.1,0.9-0.1,1.1C155,22.1,153.5,22.9,151.8,22.7z"/>
	<path id="Path_132" class="st0" d="M134.1,42.5l-1.6-0.2l4.1-3.8l0.3,2.5c0.5,0.8,2.3-0.8,2.1,1.3l-2.3,0.1c0,1.9,0,3.8,0,5.7
		c0,0.9,0.7,1,1.4,0.7c0.3-0.1,0.6-0.1,0.9-0.1c-0.1,0.3-0.2,0.8-0.4,0.9c-0.9,0.8-2.2,1-3.3,0.5c-0.9-0.5-1.4-1.4-1.3-2.4
		C134.1,46.1,134.1,44.4,134.1,42.5z"/>
	<path id="Path_133" class="st0" d="M122.7,41.9l4.4-1.9c0,2.2,0,4.3,0,6.4c0,0.6,0,1.2,0,1.7c-0.1,0.9,0.1,1.5,1.1,1.5
		c0.2,0,0.4,0.3,0.8,0.7h-6.2l-0.5-0.6c0.3-0.1,0.6-0.1,0.9-0.1c1.3,0,1.4-0.8,1.3-1.8c0-1.2-0.1-2.5,0-3.7c0.1-1-0.1-1.8-1.3-1.8
		C123,42.3,122.9,42.1,122.7,41.9z"/>
	<path id="Path_134" class="st0" d="M115.2,14.2c1.5-0.8,2.6-1.3,3.6-1.9c0.9-0.4,1,0.1,1,0.8c0,1.8,0,3.5-0.1,5.3c0,0.5,0,1,0,1.5
		c-0.1,1,0,1.8,1.3,1.8c0.2,0,0.4,0.1,0.6,0.2l-0.2,0.4h-6.3c0.5-0.4,0.7-0.7,0.9-0.7c1.1,0,1.3-0.7,1.2-1.6c0-1.3-0.1-2.6,0-3.9
		c0.1-1-0.1-1.8-1.3-1.8C115.7,14.3,115.4,14.3,115.2,14.2z"/>
	<path id="Path_135" class="st0" d="M18.4,4.1l-1,2.5L1.3,0.2L1.3,0L18.4,4.1z"/>
	<path id="Path_136" class="st0" d="M118.7,7.4c0.7,0,1.4,0.6,1.4,1.3c0,0.1,0,0.1,0,0.2c-0.1,1-0.7,1.7-1.6,1.4
		c-0.7-0.3-1.2-0.9-1.3-1.6C116.9,7.9,117.7,7.3,118.7,7.4z"/>
	<path id="Path_137" class="st0" d="M124.3,36.9c0-1.1,0.6-1.7,1.5-1.6c0.8-0.1,1.4,0.5,1.5,1.2c0,0.1,0,0.1,0,0.2
		c0.1,0.8-0.5,1.5-1.2,1.6c-0.1,0-0.1,0-0.2,0C125.1,38.4,124.4,37.8,124.3,36.9C124.3,37,124.3,37,124.3,36.9z"/>
</g>
</svg>
