<?xml version="1.0" encoding="UTF-8"?>
<svg id="katman_1" data-name="katman 1" xmlns="http://www.w3.org/2000/svg" viewBox="0 0 300 100">
  <g id="Group_90" data-name="Group 90" transform="translate(0)">
    <g id="Group_89" data-name="Group 89" transform="translate(20.862)">
      <path id="Path_138" data-name="Path 138" d="M116.7,56.55c9.72-7.83,11.25-22.06,3.42-31.78-1.01-1.25-2.15-2.4-3.4-3.41,.29-.03,.49-.07,.7-.07,6.08,0,12.16-.04,18.24,0,9.59,.14,17.3,7.95,17.32,17.54,.1,8.6-6.05,16-14.52,17.46-1.08,.19-2.18,.28-3.28,.27-5.93,.03-11.87,.01-17.8,.01-.18,0-.35-.02-.67-.03Z"/>
      <path id="Path_139" data-name="Path 139" d="M151.34,56.4c10.08-9.74,17.17-21.18,20.48-34.88,1.69,6.59,4.28,12.92,7.7,18.8,3.54,5.82,7.76,11.19,12.56,16.03-13.14-4.9-27.61-4.89-40.74,.05Z"/>
    </g>
    <path id="Path_140" data-name="Path 140" d="M175.25,67.89c.41-.03,.83-.02,1.24,.02,.24,.06,.46,.2,.61,.4,1.59,1.92,3.16,3.85,4.73,5.77,.12,.15,.26,.29,.48,.53v-6.66h1.7v9.65c-.82,.25-1.7-.05-2.2-.74-1.51-2-3.15-3.9-4.85-5.97v6.73h-1.71v-9.73Z"/>
    <path id="Path_141" data-name="Path 141" d="M95.83,68.01c1.72-.09,3.44-.07,5.16,.04,2.46,.29,3.94,2.35,3.85,5.01,.01,2.37-1.82,4.33-4.18,4.49-1.59,.11-3.2,.02-4.83,.02v-9.56Zm1.72,1.43v6.53c.93,0,1.82,.04,2.69,0,1.47-.07,2.66-1.22,2.78-2.69,.2-1.73-.52-3.15-2.02-3.52-1.14-.19-2.3-.3-3.45-.31h0Z"/>
    <path id="Path_142" data-name="Path 142" d="M108.46,69.47v2.41h5.64v1.64h-5.62v2.45h5.6v1.64h-7.36v-9.67h7.37v1.54h-5.64Z"/>
    <path id="Path_143" data-name="Path 143" d="M198.59,76h5.65v1.61h-7.39v-9.66h7.4v1.52h-5.64v2.41h5.63v1.65h-5.65v2.47Z"/>
    <path id="Path_144" data-name="Path 144" d="M163.87,77.65l1.8-4.22c.73-1.71,1.48-3.42,2.19-5.14,.07-.27,.34-.45,.62-.42,1.51-.01,1.51-.03,2.1,1.35,1.15,2.69,2.31,5.38,3.46,8.07,.04,.09,.06,.18,.12,.35-.57,0-1.08,.03-1.59-.02-.18-.05-.32-.18-.4-.36-.25-.54-.48-1.1-.7-1.66-.06-.28-.33-.47-.61-.44-1.24,.02-2.49,0-3.73,.03-.23,.04-.44,.18-.55,.38-.27,.52-.5,1.05-.69,1.6-.06,.32-.37,.53-.69,.48h-.01c-.39-.04-.8-.01-1.32-.01Zm6.73-4.09l-1.6-3.8-1.6,3.8h3.2Z"/>
    <path id="Path_145" data-name="Path 145" d="M132.75,77.65c.38-.9,.72-1.7,1.06-2.51,.96-2.25,1.93-4.49,2.88-6.74,.09-.35,.43-.58,.79-.53,1.4,.02,1.4,0,1.96,1.3,1.11,2.59,2.23,5.19,3.34,7.79,.08,.2,.14,.41,.24,.69-.58,0-1.09,.03-1.6-.02-.14-.01-.31-.22-.39-.37-.27-.56-.47-1.15-.75-1.7-.11-.19-.3-.31-.52-.35-1.27-.03-2.53-.03-3.79,0-.22,.03-.4,.16-.51,.35-.26,.52-.49,1.05-.68,1.6-.07,.35-.4,.57-.75,.5h0c-.38-.04-.76-.01-1.28-.01Zm5.13-7.9l-1.59,3.81h3.19l-1.59-3.81Z"/>
    <path id="Path_146" data-name="Path 146" d="M195.17,70.03l-1.41,.85c-.64-.98-1.75-1.55-2.92-1.47-.92,.02-1.78,.43-2.37,1.13-1.14,1.45-.99,3.53,.35,4.8,1.41,1.25,3.48,.98,4.96-.68l1.35,.95c-1.22,1.84-3.51,2.65-5.62,2-2.28-.58-3.8-2.71-3.6-5.05,0-2.21,1.52-4.12,3.66-4.65,2.37-.54,4.68,.32,5.59,2.12Z"/>
    <path id="Path_147" data-name="Path 147" d="M116.4,77.6v-9.66h7.26v1.54h-5.52v2.49h5.51v1.58h-5.52v4.05h-1.73Z"/>
    <path id="Path_148" data-name="Path 148" d="M152.61,67.92h1.68v8.04h5.61v1.64h-7.29v-9.69Z"/>
    <path id="Path_149" data-name="Path 149" d="M144.12,77.61v-9.67h1.67v8.03h5.55v1.63h-7.22Z"/>
    <path id="Path_150" data-name="Path 150" d="M125.59,67.93h1.65v9.69h-1.65v-9.69Z"/>
    <path id="Path_151" data-name="Path 151" d="M162.8,77.62h-1.65v-9.67h1.65v9.67Z"/>
  </g>
</svg>