<?xml version="1.0" encoding="UTF-8"?>
<svg xmlns="http://www.w3.org/2000/svg" xmlns:xlink="http://www.w3.org/1999/xlink" width="300" height="50" viewBox="0 0 300 50" version="1.1">
<g id="surface1">
<path style=" stroke:none;fill-rule:nonzero;fill:rgb(14.901961%,40%,69.019608%);fill-opacity:1;" d="M 21.972656 10.671875 C 21.273438 10.671875 20.570312 9.757812 20.570312 8.535156 C 20.570312 8.535156 20.570312 8.230469 20.570312 8.230469 L 20.570312 5.488281 L 18.992188 5.488281 C 18.292969 5.488281 17.589844 4.574219 17.589844 3.355469 C 17.589844 3.355469 17.589844 3.046875 17.589844 3.046875 L 17.589844 0.609375 L 3.394531 0.609375 L 3.394531 50 L 17.589844 50 L 17.589844 47.5625 C 17.589844 46.339844 18.117188 45.121094 18.820312 45.121094 C 18.820312 45.121094 18.820312 45.121094 18.992188 45.121094 L 20.394531 45.121094 L 20.394531 42.683594 C 20.394531 41.464844 20.921875 40.242188 21.621094 40.242188 C 21.621094 40.242188 21.621094 40.242188 21.796875 40.242188 L 23.199219 40.242188 L 23.199219 10.671875 Z M 20.570312 13.109375 L 20.570312 37.804688 C 20.570312 39.023438 20.046875 40.242188 19.34375 40.242188 C 19.34375 40.242188 19.34375 40.242188 19.167969 40.242188 L 17.589844 40.242188 L 17.589844 42.683594 C 17.589844 43.902344 17.066406 45.121094 16.363281 45.121094 C 16.363281 45.121094 16.363281 45.121094 16.191406 45.121094 L 7.601562 45.121094 C 6.902344 45.121094 6.199219 44.207031 6.199219 42.988281 C 6.199219 42.988281 6.199219 42.683594 6.199219 42.683594 L 6.199219 7.925781 C 6.199219 6.707031 6.726562 5.488281 7.425781 5.488281 C 7.425781 5.488281 7.425781 5.488281 7.601562 5.488281 L 16.191406 5.488281 C 16.890625 5.488281 17.589844 6.402344 17.589844 7.621094 C 17.589844 7.621094 17.589844 7.925781 17.589844 7.925781 L 17.589844 10.367188 L 18.992188 10.367188 C 19.871094 10.367188 20.394531 11.585938 20.570312 13.109375 C 20.570312 12.804688 20.570312 12.804688 20.570312 13.109375 Z M 27.757812 0.609375 L 27.757812 50.304688 L 30.5625 50.304688 L 30.5625 0.609375 Z M 51.941406 0.609375 L 51.941406 7.925781 C 51.941406 9.144531 51.417969 10.367188 50.714844 10.367188 C 50.714844 10.367188 50.714844 10.367188 50.539062 10.367188 L 49.136719 10.367188 L 49.136719 22.867188 C 49.136719 24.085938 48.613281 25.304688 47.910156 25.304688 C 47.910156 25.304688 47.910156 25.304688 47.734375 25.304688 L 46.335938 25.304688 L 46.335938 37.804688 C 46.335938 39.023438 45.808594 40.242188 45.105469 40.242188 C 45.105469 40.242188 45.105469 40.242188 44.933594 40.242188 C 44.230469 40.242188 43.53125 39.328125 43.53125 38.109375 C 43.53125 38.109375 43.53125 37.804688 43.53125 37.804688 L 43.53125 25.304688 L 42.128906 25.304688 C 41.425781 25.304688 40.726562 24.390625 40.726562 23.171875 C 40.726562 23.171875 40.726562 22.867188 40.726562 22.867188 L 40.726562 10.367188 L 39.324219 10.367188 C 38.621094 10.367188 37.921875 9.453125 37.921875 8.230469 C 37.921875 8.230469 37.921875 7.925781 37.921875 7.925781 L 37.921875 0.609375 L 34.941406 0.609375 L 34.941406 10.671875 L 36.34375 10.671875 C 37.046875 10.671875 37.746094 11.585938 37.746094 12.804688 C 37.746094 12.804688 37.746094 13.109375 37.746094 13.109375 L 37.746094 25.609375 L 39.148438 25.609375 C 39.847656 25.609375 40.550781 26.523438 40.550781 27.742188 C 40.550781 27.742188 40.550781 28.046875 40.550781 28.046875 L 40.550781 40.546875 L 41.953125 40.546875 C 42.652344 40.546875 43.355469 41.464844 43.355469 42.683594 C 43.355469 42.683594 43.355469 42.988281 43.355469 42.988281 L 43.355469 50.304688 L 46.160156 50.304688 L 46.160156 42.683594 C 46.160156 41.464844 46.683594 40.242188 47.386719 40.242188 C 47.386719 40.242188 47.386719 40.242188 47.5625 40.242188 L 48.964844 40.242188 L 48.964844 27.742188 C 48.964844 26.523438 49.488281 25.304688 50.191406 25.304688 C 50.191406 25.304688 50.191406 25.304688 50.363281 25.304688 L 51.765625 25.304688 L 51.765625 13.109375 C 51.765625 11.890625 52.292969 10.671875 52.992188 10.671875 C 52.992188 10.671875 52.992188 10.671875 53.167969 10.671875 L 54.570312 10.671875 L 54.570312 0.609375 Z M 62.109375 17.988281 L 62.109375 7.925781 C 62.109375 6.707031 62.632812 5.488281 63.335938 5.488281 C 63.335938 5.488281 63.335938 5.488281 63.507812 5.488281 L 76.304688 5.488281 L 76.304688 0.609375 L 59.128906 0.609375 L 59.128906 50.304688 L 76.304688 50.304688 L 76.304688 45.425781 L 63.507812 45.425781 C 62.808594 45.425781 62.109375 44.511719 62.109375 43.292969 C 62.109375 43.292969 62.109375 42.988281 62.109375 42.988281 L 62.109375 27.742188 C 62.109375 26.523438 62.632812 25.304688 63.335938 25.304688 C 63.335938 25.304688 63.335938 25.304688 63.507812 25.304688 L 73.5 25.304688 L 73.5 20.425781 L 63.507812 20.425781 C 62.808594 20.425781 62.109375 19.511719 62.109375 18.292969 C 62.109375 18.292969 62.109375 17.988281 62.109375 17.988281 Z M 96.457031 5.488281 C 95.757812 5.488281 95.054688 4.574219 95.054688 3.355469 C 95.054688 3.355469 95.054688 3.046875 95.054688 3.046875 L 95.054688 0.609375 L 80.859375 0.609375 L 80.859375 50.304688 L 83.664062 50.304688 L 83.664062 32.925781 C 83.664062 31.707031 84.191406 30.488281 84.890625 30.488281 C 84.890625 30.488281 84.890625 30.488281 85.066406 30.488281 L 87.871094 30.488281 C 88.570312 30.488281 89.273438 31.402344 89.273438 32.621094 C 89.273438 32.621094 89.273438 32.925781 89.273438 32.925781 L 89.273438 35.367188 L 90.675781 35.367188 C 91.375 35.367188 92.078125 36.28125 92.078125 37.5 C 92.078125 37.5 92.078125 37.804688 92.078125 37.804688 L 92.078125 45.121094 L 93.480469 45.121094 C 94.179688 45.121094 94.882812 46.035156 94.882812 47.257812 C 94.882812 47.257812 94.882812 47.5625 94.882812 47.5625 L 94.882812 50 L 97.683594 50 L 97.683594 45.121094 L 96.28125 45.121094 C 95.582031 45.121094 94.882812 44.207031 94.882812 42.988281 C 94.882812 42.988281 94.882812 42.683594 94.882812 42.683594 L 94.882812 35.367188 L 93.480469 35.367188 C 92.777344 35.367188 92.078125 34.453125 92.078125 33.230469 C 92.078125 33.230469 92.078125 32.925781 92.078125 32.925781 C 92.078125 31.707031 92.601562 30.488281 93.304688 30.488281 C 93.304688 30.488281 93.304688 30.488281 93.480469 30.488281 L 94.882812 30.488281 L 94.882812 27.742188 C 94.882812 26.523438 95.40625 25.304688 96.109375 25.304688 C 96.109375 25.304688 96.109375 25.304688 96.28125 25.304688 L 97.683594 25.304688 L 97.683594 5.488281 Z M 95.054688 7.925781 L 95.054688 22.867188 C 95.054688 24.085938 94.53125 25.304688 93.828125 25.304688 C 93.828125 25.304688 93.828125 25.304688 93.652344 25.304688 L 85.066406 25.304688 C 84.367188 25.304688 83.664062 24.390625 83.664062 23.171875 C 83.664062 23.171875 83.664062 22.867188 83.664062 22.867188 L 83.664062 7.925781 C 83.664062 6.707031 84.191406 5.488281 84.890625 5.488281 C 84.890625 5.488281 84.890625 5.488281 85.066406 5.488281 L 93.652344 5.488281 C 94.355469 5.488281 95.054688 6.402344 95.054688 7.621094 C 95.054688 7.925781 95.054688 7.925781 95.054688 7.925781 Z M 125.027344 15.546875 L 125.027344 10.671875 L 123.625 10.671875 C 122.921875 10.671875 122.222656 9.757812 122.222656 8.535156 C 122.222656 8.535156 122.222656 8.230469 122.222656 8.230469 L 122.222656 5.488281 L 120.820312 5.488281 C 120.117188 5.488281 119.417969 4.574219 119.417969 3.355469 C 119.417969 3.355469 119.417969 3.046875 119.417969 3.046875 L 119.417969 0.609375 L 108.027344 0.609375 L 108.027344 3.046875 C 108.027344 4.269531 107.5 5.488281 106.796875 5.488281 C 106.796875 5.488281 106.796875 5.488281 106.625 5.488281 L 105.046875 5.488281 L 105.046875 7.925781 C 105.046875 9.144531 104.519531 10.367188 103.820312 10.367188 C 103.820312 10.367188 103.820312 10.367188 103.644531 10.367188 L 102.242188 10.367188 L 102.242188 40.242188 L 103.644531 40.242188 C 104.34375 40.242188 105.046875 41.160156 105.046875 42.378906 C 105.046875 42.378906 105.046875 42.683594 105.046875 42.683594 L 105.046875 45.121094 L 106.449219 45.121094 C 107.148438 45.121094 107.851562 46.035156 107.851562 47.257812 C 107.851562 47.257812 107.851562 47.5625 107.851562 47.5625 L 107.851562 50 L 119.242188 50 L 119.242188 47.5625 C 119.242188 46.339844 119.769531 45.121094 120.46875 45.121094 C 120.46875 45.121094 120.46875 45.121094 120.644531 45.121094 C 121.34375 45.121094 122.046875 46.035156 122.046875 47.257812 C 122.046875 47.257812 122.046875 47.5625 122.046875 47.5625 L 122.046875 50 L 124.851562 50 L 124.851562 25.304688 L 113.457031 25.304688 L 113.457031 30.488281 L 120.820312 30.488281 C 121.519531 30.488281 122.222656 31.402344 122.222656 32.621094 C 122.222656 32.621094 122.222656 32.925781 122.222656 32.925781 L 122.222656 37.804688 C 122.222656 39.023438 121.695312 40.242188 120.996094 40.242188 C 120.996094 40.242188 120.996094 40.242188 120.820312 40.242188 L 119.417969 40.242188 L 119.417969 42.683594 C 119.417969 43.902344 118.890625 45.121094 118.191406 45.121094 C 118.191406 45.121094 118.191406 45.121094 118.015625 45.121094 L 109.425781 45.121094 C 108.726562 45.121094 108.027344 44.207031 108.027344 42.988281 C 108.027344 42.988281 108.027344 42.683594 108.027344 42.683594 L 108.027344 40.242188 L 106.625 40.242188 C 105.921875 40.242188 105.222656 39.328125 105.222656 38.109375 C 105.222656 38.109375 105.222656 37.804688 105.222656 37.804688 L 105.222656 13.109375 C 105.222656 11.890625 105.746094 10.671875 106.449219 10.671875 C 106.449219 10.671875 106.449219 10.671875 106.625 10.671875 L 108.027344 10.671875 L 108.027344 8.230469 C 108.027344 7.011719 108.550781 5.792969 109.253906 5.792969 C 109.253906 5.792969 109.253906 5.792969 109.425781 5.792969 L 118.015625 5.792969 C 118.714844 5.792969 119.417969 6.707031 119.417969 7.925781 C 119.417969 7.925781 119.417969 8.230469 119.417969 8.230469 L 119.417969 10.671875 L 120.820312 10.671875 C 121.519531 10.671875 122.222656 11.585938 122.222656 12.804688 C 122.222656 12.804688 122.222656 13.109375 122.222656 13.109375 L 122.222656 15.546875 Z M 132.210938 17.988281 L 132.210938 7.925781 C 132.210938 6.707031 132.738281 5.488281 133.4375 5.488281 C 133.4375 5.488281 133.4375 5.488281 133.613281 5.488281 L 146.40625 5.488281 L 146.40625 0.609375 L 129.230469 0.609375 L 129.230469 50.304688 L 146.40625 50.304688 L 146.40625 45.425781 L 133.613281 45.425781 C 132.914062 45.425781 132.210938 44.511719 132.210938 43.292969 C 132.210938 43.292969 132.210938 42.988281 132.210938 42.988281 L 132.210938 27.742188 C 132.210938 26.523438 132.738281 25.304688 133.4375 25.304688 C 133.4375 25.304688 133.4375 25.304688 133.613281 25.304688 L 143.601562 25.304688 L 143.601562 20.425781 L 133.613281 20.425781 C 132.914062 20.425781 132.210938 19.511719 132.210938 18.292969 C 132.210938 18.292969 132.210938 17.988281 132.210938 17.988281 Z M 167.964844 0.609375 L 167.964844 32.925781 C 167.964844 34.144531 167.4375 35.367188 166.738281 35.367188 C 166.738281 35.367188 166.738281 35.367188 166.5625 35.367188 C 165.859375 35.367188 165.160156 34.453125 165.160156 33.230469 C 165.160156 33.230469 165.160156 32.925781 165.160156 32.925781 L 165.160156 30.488281 L 163.757812 30.488281 C 163.058594 30.488281 162.355469 29.574219 162.355469 28.355469 C 162.355469 28.355469 162.355469 28.046875 162.355469 28.046875 L 162.355469 20.425781 L 160.953125 20.425781 C 160.253906 20.425781 159.550781 19.511719 159.550781 18.292969 C 159.550781 18.292969 159.550781 17.988281 159.550781 17.988281 L 159.550781 15.546875 L 158.148438 15.546875 C 157.449219 15.546875 156.746094 14.632812 156.746094 13.414062 C 156.746094 13.414062 156.746094 13.109375 156.746094 13.109375 L 156.746094 5.488281 L 155.34375 5.488281 C 154.644531 5.488281 153.941406 4.574219 153.941406 3.355469 C 153.941406 3.355469 153.941406 3.046875 153.941406 3.046875 L 153.941406 0.609375 L 151.140625 0.609375 L 151.140625 50 L 153.941406 50 L 153.941406 17.988281 C 153.941406 16.769531 154.46875 15.546875 155.171875 15.546875 C 155.171875 15.546875 155.171875 15.546875 155.34375 15.546875 C 156.046875 15.546875 156.746094 16.464844 156.746094 17.683594 C 156.746094 17.683594 156.746094 17.683594 156.746094 17.988281 L 156.746094 20.425781 L 158.148438 20.425781 C 158.851562 20.425781 159.550781 21.339844 159.550781 22.5625 C 159.550781 22.5625 159.550781 22.867188 159.550781 22.867188 L 159.550781 30.183594 L 160.953125 30.183594 C 161.65625 30.183594 162.355469 31.097656 162.355469 32.316406 C 162.355469 32.316406 162.355469 32.621094 162.355469 32.621094 L 162.355469 35.0625 L 163.757812 35.0625 C 164.457031 35.0625 165.160156 35.976562 165.160156 37.195312 C 165.160156 37.195312 165.160156 37.5 165.160156 37.5 L 165.160156 44.816406 L 166.5625 44.816406 C 167.261719 44.816406 167.964844 45.730469 167.964844 46.953125 C 167.964844 46.953125 167.964844 47.257812 167.964844 47.257812 L 167.964844 49.695312 L 170.769531 49.695312 L 170.769531 0.304688 Z M 198.109375 15.546875 L 198.109375 10.671875 L 196.707031 10.671875 C 196.003906 10.671875 195.304688 9.757812 195.304688 8.535156 C 195.304688 8.535156 195.304688 8.230469 195.304688 8.230469 L 195.304688 5.488281 L 193.902344 5.488281 C 193.203125 5.488281 192.5 4.574219 192.5 3.355469 C 192.5 3.355469 192.5 3.046875 192.5 3.046875 L 192.5 0.609375 L 181.109375 0.609375 L 181.109375 3.046875 C 181.109375 4.269531 180.582031 5.488281 179.882812 5.488281 C 179.882812 5.488281 179.882812 5.488281 179.707031 5.488281 L 178.304688 5.488281 L 178.304688 7.925781 C 178.304688 9.144531 177.777344 10.367188 177.078125 10.367188 C 177.078125 10.367188 177.078125 10.367188 176.902344 10.367188 L 175.5 10.367188 L 175.5 40.242188 L 176.902344 40.242188 C 177.601562 40.242188 178.304688 41.160156 178.304688 42.378906 C 178.304688 42.378906 178.304688 42.683594 178.304688 42.683594 L 178.304688 45.121094 L 179.707031 45.121094 C 180.40625 45.121094 181.109375 46.035156 181.109375 47.257812 C 181.109375 47.257812 181.109375 47.5625 181.109375 47.5625 L 181.109375 50 L 192.5 50 L 192.5 47.5625 C 192.5 46.339844 193.027344 45.121094 193.726562 45.121094 C 193.726562 45.121094 193.726562 45.121094 193.902344 45.121094 L 195.304688 45.121094 L 195.304688 42.683594 C 195.304688 41.464844 195.832031 40.242188 196.53125 40.242188 C 196.53125 40.242188 196.53125 40.242188 196.707031 40.242188 L 198.109375 40.242188 L 198.109375 35.367188 L 195.304688 35.367188 L 195.304688 37.804688 C 195.304688 39.023438 194.777344 40.242188 194.078125 40.242188 C 194.078125 40.242188 194.078125 40.242188 193.902344 40.242188 L 192.5 40.242188 L 192.5 42.683594 C 192.5 43.902344 191.972656 45.121094 191.273438 45.121094 C 191.273438 45.121094 191.273438 45.121094 191.097656 45.121094 L 182.511719 45.121094 C 181.808594 45.121094 181.109375 44.207031 181.109375 42.988281 C 181.109375 42.988281 181.109375 42.683594 181.109375 42.683594 L 181.109375 40.242188 L 179.707031 40.242188 C 179.003906 40.242188 178.304688 39.328125 178.304688 38.109375 C 178.304688 38.109375 178.304688 37.804688 178.304688 37.804688 L 178.304688 13.109375 C 178.304688 11.890625 178.832031 10.671875 179.53125 10.671875 C 179.53125 10.671875 179.53125 10.671875 179.707031 10.671875 L 181.109375 10.671875 L 181.109375 8.230469 C 181.109375 7.011719 181.632812 5.792969 182.335938 5.792969 C 182.335938 5.792969 182.335938 5.792969 182.511719 5.792969 L 191.097656 5.792969 C 191.800781 5.792969 192.5 6.707031 192.5 7.925781 C 192.5 7.925781 192.5 8.230469 192.5 8.230469 L 192.5 10.671875 L 193.902344 10.671875 C 194.601562 10.671875 195.304688 11.585938 195.304688 12.804688 C 195.304688 12.804688 195.304688 13.109375 195.304688 13.109375 L 195.304688 15.546875 Z M 205.292969 17.988281 L 205.292969 7.925781 C 205.292969 6.707031 205.820312 5.488281 206.519531 5.488281 C 206.519531 5.488281 206.519531 5.488281 206.695312 5.488281 L 219.492188 5.488281 L 219.492188 0.609375 L 202.316406 0.609375 L 202.316406 50.304688 L 219.492188 50.304688 L 219.492188 45.425781 L 206.695312 45.425781 C 205.996094 45.425781 205.292969 44.511719 205.292969 43.292969 C 205.292969 43.292969 205.292969 42.988281 205.292969 42.988281 L 205.292969 27.742188 C 205.292969 26.523438 205.820312 25.304688 206.519531 25.304688 C 206.519531 25.304688 206.519531 25.304688 206.695312 25.304688 L 216.6875 25.304688 L 216.6875 20.425781 L 206.695312 20.425781 C 205.996094 20.425781 205.292969 19.511719 205.292969 18.292969 C 205.292969 18.292969 205.292969 17.988281 205.292969 17.988281 Z M 205.292969 17.988281 "/>
<path style=" stroke:none;fill-rule:nonzero;fill:rgb(14.901961%,40%,69.019608%);fill-opacity:1;" d="M 236.492188 0 L 231.582031 25 L 230.003906 25 L 224.75 0 L 226.324219 0 L 230.707031 20.730469 L 234.738281 0 Z M 240.171875 22.5625 C 240.871094 22.5625 241.574219 22.257812 242.097656 21.339844 C 242.625 20.730469 242.800781 19.816406 242.976562 18.597656 L 244.550781 18.597656 C 244.550781 19.816406 244.203125 20.730469 243.851562 21.644531 C 243.5 22.5625 242.976562 23.476562 242.273438 24.085938 C 241.574219 24.695312 240.871094 25 240.171875 25 C 239.292969 25 238.417969 24.695312 237.71875 23.78125 C 237.015625 22.867188 236.316406 21.953125 235.964844 20.425781 C 235.613281 18.902344 235.261719 17.074219 235.261719 15.546875 C 235.261719 14.023438 235.4375 12.5 235.964844 10.976562 C 236.316406 9.757812 237.015625 8.535156 237.71875 7.621094 C 238.417969 6.707031 239.292969 6.402344 240.171875 6.402344 C 241.398438 6.402344 242.625 7.011719 243.5 8.839844 C 244.378906 10.976562 244.902344 13.414062 244.726562 16.160156 L 237.015625 16.160156 C 237.015625 17.683594 237.367188 19.511719 237.890625 20.730469 C 238.417969 21.953125 239.292969 22.5625 240.171875 22.5625 Z M 240.171875 9.757812 C 239.46875 9.757812 238.769531 10.0625 238.242188 10.976562 C 237.71875 11.890625 237.367188 12.804688 237.191406 14.023438 L 242.976562 14.023438 C 242.800781 12.804688 242.625 11.585938 242.097656 10.976562 C 241.574219 10.0625 240.871094 9.757812 240.171875 9.757812 Z M 254.71875 25 L 253.140625 25 L 253.140625 15.855469 C 253.140625 14.328125 252.964844 12.804688 252.613281 11.28125 C 252.265625 10.367188 251.5625 9.757812 251.035156 9.757812 C 250.160156 9.757812 249.285156 10.367188 248.757812 11.585938 C 248.058594 13.109375 247.882812 14.632812 247.882812 16.464844 L 247.882812 25 L 246.128906 25 L 246.128906 7.011719 L 247.707031 7.011719 L 247.707031 10.0625 C 248.058594 9.144531 248.582031 8.230469 249.109375 7.621094 C 249.636719 7.011719 250.335938 6.707031 251.035156 6.707031 C 252.089844 6.402344 253.140625 7.316406 253.839844 8.839844 C 254.542969 10.671875 254.71875 13.109375 254.71875 15.242188 Z M 258.222656 9.757812 L 258.222656 21.339844 C 258.222656 21.644531 258.222656 21.953125 258.398438 22.257812 C 258.574219 22.257812 258.75 22.5625 258.921875 22.5625 L 260.5 22.5625 L 260.5 25.304688 L 258.921875 25.304688 C 258.398438 25.304688 257.871094 25.304688 257.347656 25 C 256.996094 24.695312 256.820312 24.390625 256.820312 23.78125 C 256.644531 22.867188 256.644531 21.953125 256.644531 21.339844 L 256.644531 9.757812 L 255.242188 9.757812 L 255.242188 7.011719 L 256.644531 7.011719 L 256.644531 3.355469 L 258.222656 3.355469 L 258.222656 7.316406 L 260.5 7.316406 L 260.5 9.757812 Z M 270.664062 7.011719 L 270.664062 24.695312 L 269.089844 24.695312 L 269.089844 22.257812 C 268.5625 24.085938 267.335938 25.304688 266.109375 25 C 264.882812 25.304688 263.832031 24.390625 263.128906 22.5625 C 262.429688 20.730469 262.078125 18.292969 262.078125 16.160156 L 262.078125 7.011719 L 263.65625 7.011719 L 263.65625 16.160156 C 263.65625 17.683594 263.832031 19.207031 264.355469 20.730469 C 264.882812 21.644531 265.582031 22.257812 266.285156 22.257812 C 268.210938 22.257812 269.089844 20.121094 269.089844 15.546875 L 269.089844 7.011719 Z M 273.996094 10.367188 C 274.871094 8.230469 276.273438 7.011719 277.675781 7.316406 L 277.675781 10.0625 C 276.625 10.0625 275.75 10.671875 274.871094 11.585938 C 274.171875 12.804688 273.820312 14.632812 273.820312 16.464844 L 273.820312 25 L 272.242188 25 L 272.242188 7.011719 L 273.820312 7.011719 Z M 283.109375 22.5625 C 283.808594 22.5625 284.511719 22.257812 285.039062 21.339844 C 285.5625 20.730469 285.738281 19.816406 285.914062 18.597656 L 287.492188 18.597656 C 287.492188 19.816406 287.140625 20.730469 286.789062 21.644531 C 286.4375 22.5625 285.914062 23.476562 285.210938 24.085938 C 284.511719 24.695312 283.808594 25 283.109375 25 C 282.234375 25 281.355469 24.695312 280.65625 23.78125 C 279.953125 22.867188 279.253906 21.953125 278.902344 20.425781 C 278.550781 18.902344 278.203125 17.074219 278.203125 15.546875 C 278.203125 14.023438 278.378906 12.5 278.902344 10.976562 C 279.253906 9.757812 279.953125 8.535156 280.65625 7.621094 C 281.355469 6.707031 282.234375 6.402344 283.109375 6.402344 C 284.335938 6.402344 285.5625 7.011719 286.4375 8.839844 C 287.316406 10.976562 287.839844 13.414062 287.667969 16.160156 L 279.953125 16.160156 C 279.953125 17.683594 280.304688 19.511719 280.832031 20.730469 C 281.355469 21.953125 282.234375 22.5625 283.109375 22.5625 Z M 283.109375 9.757812 C 282.410156 9.757812 281.707031 10.0625 281.179688 10.976562 C 280.65625 11.890625 280.304688 12.804688 280.128906 14.023438 L 285.914062 14.023438 C 285.738281 12.804688 285.5625 11.585938 285.039062 10.976562 C 284.511719 10.0625 283.808594 9.757812 283.109375 9.757812 Z M 288.542969 19.207031 C 288.542969 21.035156 289.066406 22.5625 289.769531 23.78125 C 290.644531 24.695312 291.523438 25.304688 292.574219 25.304688 C 293.625 25.304688 294.5 25 295.378906 24.085938 C 296.078125 23.171875 296.605469 21.644531 296.429688 20.121094 C 296.429688 18.902344 296.078125 17.378906 295.554688 16.464844 C 294.851562 15.242188 293.800781 14.632812 292.925781 14.632812 C 290.996094 14.328125 290.121094 13.414062 290.121094 11.890625 C 290.121094 10.976562 290.296875 10.0625 290.820312 9.757812 C 291.347656 9.453125 291.871094 9.144531 292.398438 9.144531 C 292.925781 9.144531 293.625 9.453125 293.976562 10.0625 C 294.324219 10.671875 294.675781 11.585938 294.675781 12.5 L 296.253906 12.5 C 296.253906 10.976562 295.726562 9.144531 295.027344 8.230469 C 294.324219 7.011719 293.273438 6.707031 292.398438 6.707031 C 291.523438 6.707031 290.46875 7.011719 289.769531 7.925781 C 288.894531 8.839844 288.542969 10.367188 288.542969 11.890625 C 288.542969 13.109375 288.71875 14.328125 289.242188 15.242188 C 289.945312 16.160156 290.820312 16.769531 291.695312 16.769531 C 292.574219 16.769531 293.273438 17.378906 293.976562 17.988281 C 294.324219 18.292969 294.675781 19.207031 294.675781 19.816406 C 294.675781 20.730469 294.5 21.339844 294.152344 21.953125 C 293.625 22.257812 292.925781 22.5625 292.398438 22.5625 C 291.171875 22.867188 290.121094 21.339844 289.945312 19.511719 C 289.945312 19.511719 289.945312 19.207031 289.945312 19.207031 Z M 288.542969 19.207031 "/>
</g>
</svg>
