<?xml version="1.0" encoding="UTF-8"?>
<svg xmlns="http://www.w3.org/2000/svg" xmlns:xlink="http://www.w3.org/1999/xlink" width="300" height="60" viewBox="0 0 300 60" version="1.1">
<g id="surface1">
<path style=" stroke:none;fill-rule:nonzero;fill:rgb(14.901961%,40%,69.019608%);fill-opacity:1;" d="M 21.972656 12.804688 C 21.273438 12.804688 20.570312 11.707031 20.570312 10.242188 C 20.570312 10.242188 20.570312 9.878906 20.570312 9.878906 L 20.570312 6.585938 L 18.992188 6.585938 C 18.292969 6.585938 17.589844 5.488281 17.589844 4.023438 C 17.589844 4.023438 17.589844 3.660156 17.589844 3.660156 L 17.589844 0.730469 L 3.394531 0.730469 L 3.394531 60 L 17.589844 60 L 17.589844 57.074219 C 17.589844 55.609375 18.117188 54.144531 18.820312 54.144531 C 18.820312 54.144531 18.820312 54.144531 18.992188 54.144531 L 20.394531 54.144531 L 20.394531 51.21875 C 20.394531 49.757812 20.921875 48.292969 21.621094 48.292969 C 21.621094 48.292969 21.621094 48.292969 21.796875 48.292969 L 23.199219 48.292969 L 23.199219 12.804688 Z M 20.570312 15.730469 L 20.570312 45.367188 C 20.570312 46.828125 20.046875 48.292969 19.34375 48.292969 C 19.34375 48.292969 19.34375 48.292969 19.167969 48.292969 L 17.589844 48.292969 L 17.589844 51.21875 C 17.589844 52.683594 17.066406 54.144531 16.363281 54.144531 C 16.363281 54.144531 16.363281 54.144531 16.191406 54.144531 L 7.601562 54.144531 C 6.902344 54.144531 6.199219 53.046875 6.199219 51.585938 C 6.199219 51.585938 6.199219 51.21875 6.199219 51.21875 L 6.199219 9.511719 C 6.199219 8.046875 6.726562 6.585938 7.425781 6.585938 C 7.425781 6.585938 7.425781 6.585938 7.601562 6.585938 L 16.191406 6.585938 C 16.890625 6.585938 17.589844 7.683594 17.589844 9.144531 C 17.589844 9.144531 17.589844 9.511719 17.589844 9.511719 L 17.589844 12.4375 L 18.992188 12.4375 C 19.871094 12.4375 20.394531 13.902344 20.570312 15.730469 C 20.570312 15.367188 20.570312 15.367188 20.570312 15.730469 Z M 27.757812 0.730469 L 27.757812 60.367188 L 30.5625 60.367188 L 30.5625 0.730469 Z M 51.941406 0.730469 L 51.941406 9.511719 C 51.941406 10.976562 51.417969 12.4375 50.714844 12.4375 C 50.714844 12.4375 50.714844 12.4375 50.539062 12.4375 L 49.136719 12.4375 L 49.136719 27.4375 C 49.136719 28.902344 48.613281 30.367188 47.910156 30.367188 C 47.910156 30.367188 47.910156 30.367188 47.734375 30.367188 L 46.335938 30.367188 L 46.335938 45.367188 C 46.335938 46.828125 45.808594 48.292969 45.105469 48.292969 C 45.105469 48.292969 45.105469 48.292969 44.933594 48.292969 C 44.230469 48.292969 43.53125 47.195312 43.53125 45.730469 C 43.53125 45.730469 43.53125 45.367188 43.53125 45.367188 L 43.53125 30.367188 L 42.128906 30.367188 C 41.425781 30.367188 40.726562 29.269531 40.726562 27.804688 C 40.726562 27.804688 40.726562 27.4375 40.726562 27.4375 L 40.726562 12.4375 L 39.324219 12.4375 C 38.621094 12.4375 37.921875 11.339844 37.921875 9.878906 C 37.921875 9.878906 37.921875 9.511719 37.921875 9.511719 L 37.921875 0.730469 L 34.941406 0.730469 L 34.941406 12.804688 L 36.34375 12.804688 C 37.046875 12.804688 37.746094 13.902344 37.746094 15.367188 C 37.746094 15.367188 37.746094 15.730469 37.746094 15.730469 L 37.746094 30.730469 L 39.148438 30.730469 C 39.847656 30.730469 40.550781 31.828125 40.550781 33.292969 C 40.550781 33.292969 40.550781 33.660156 40.550781 33.660156 L 40.550781 48.660156 L 41.953125 48.660156 C 42.652344 48.660156 43.355469 49.757812 43.355469 51.21875 C 43.355469 51.21875 43.355469 51.585938 43.355469 51.585938 L 43.355469 60.367188 L 46.160156 60.367188 L 46.160156 51.21875 C 46.160156 49.757812 46.683594 48.292969 47.386719 48.292969 C 47.386719 48.292969 47.386719 48.292969 47.5625 48.292969 L 48.964844 48.292969 L 48.964844 33.292969 C 48.964844 31.828125 49.488281 30.367188 50.191406 30.367188 C 50.191406 30.367188 50.191406 30.367188 50.363281 30.367188 L 51.765625 30.367188 L 51.765625 15.730469 C 51.765625 14.269531 52.292969 12.804688 52.992188 12.804688 C 52.992188 12.804688 52.992188 12.804688 53.167969 12.804688 L 54.570312 12.804688 L 54.570312 0.730469 Z M 62.109375 21.585938 L 62.109375 9.511719 C 62.109375 8.046875 62.632812 6.585938 63.335938 6.585938 C 63.335938 6.585938 63.335938 6.585938 63.507812 6.585938 L 76.304688 6.585938 L 76.304688 0.730469 L 59.128906 0.730469 L 59.128906 60.367188 L 76.304688 60.367188 L 76.304688 54.511719 L 63.507812 54.511719 C 62.808594 54.511719 62.109375 53.414062 62.109375 51.953125 C 62.109375 51.953125 62.109375 51.585938 62.109375 51.585938 L 62.109375 33.292969 C 62.109375 31.828125 62.632812 30.367188 63.335938 30.367188 C 63.335938 30.367188 63.335938 30.367188 63.507812 30.367188 L 73.5 30.367188 L 73.5 24.511719 L 63.507812 24.511719 C 62.808594 24.511719 62.109375 23.414062 62.109375 21.953125 C 62.109375 21.953125 62.109375 21.585938 62.109375 21.585938 Z M 96.457031 6.585938 C 95.757812 6.585938 95.054688 5.488281 95.054688 4.023438 C 95.054688 4.023438 95.054688 3.660156 95.054688 3.660156 L 95.054688 0.730469 L 80.859375 0.730469 L 80.859375 60.367188 L 83.664062 60.367188 L 83.664062 39.511719 C 83.664062 38.046875 84.191406 36.585938 84.890625 36.585938 C 84.890625 36.585938 84.890625 36.585938 85.066406 36.585938 L 87.871094 36.585938 C 88.570312 36.585938 89.273438 37.683594 89.273438 39.144531 C 89.273438 39.144531 89.273438 39.511719 89.273438 39.511719 L 89.273438 42.4375 L 90.675781 42.4375 C 91.375 42.4375 92.078125 43.535156 92.078125 45 C 92.078125 45 92.078125 45.367188 92.078125 45.367188 L 92.078125 54.144531 L 93.480469 54.144531 C 94.179688 54.144531 94.882812 55.242188 94.882812 56.707031 C 94.882812 56.707031 94.882812 57.074219 94.882812 57.074219 L 94.882812 60 L 97.683594 60 L 97.683594 54.144531 L 96.28125 54.144531 C 95.582031 54.144531 94.882812 53.046875 94.882812 51.585938 C 94.882812 51.585938 94.882812 51.21875 94.882812 51.21875 L 94.882812 42.4375 L 93.480469 42.4375 C 92.777344 42.4375 92.078125 41.339844 92.078125 39.878906 C 92.078125 39.878906 92.078125 39.511719 92.078125 39.511719 C 92.078125 38.046875 92.601562 36.585938 93.304688 36.585938 C 93.304688 36.585938 93.304688 36.585938 93.480469 36.585938 L 94.882812 36.585938 L 94.882812 33.292969 C 94.882812 31.828125 95.40625 30.367188 96.109375 30.367188 C 96.109375 30.367188 96.109375 30.367188 96.28125 30.367188 L 97.683594 30.367188 L 97.683594 6.585938 Z M 95.054688 9.511719 L 95.054688 27.4375 C 95.054688 28.902344 94.53125 30.367188 93.828125 30.367188 C 93.828125 30.367188 93.828125 30.367188 93.652344 30.367188 L 85.066406 30.367188 C 84.367188 30.367188 83.664062 29.269531 83.664062 27.804688 C 83.664062 27.804688 83.664062 27.4375 83.664062 27.4375 L 83.664062 9.511719 C 83.664062 8.046875 84.191406 6.585938 84.890625 6.585938 C 84.890625 6.585938 84.890625 6.585938 85.066406 6.585938 L 93.652344 6.585938 C 94.355469 6.585938 95.054688 7.683594 95.054688 9.144531 C 95.054688 9.511719 95.054688 9.511719 95.054688 9.511719 Z M 125.027344 18.660156 L 125.027344 12.804688 L 123.625 12.804688 C 122.921875 12.804688 122.222656 11.707031 122.222656 10.242188 C 122.222656 10.242188 122.222656 9.878906 122.222656 9.878906 L 122.222656 6.585938 L 120.820312 6.585938 C 120.117188 6.585938 119.417969 5.488281 119.417969 4.023438 C 119.417969 4.023438 119.417969 3.660156 119.417969 3.660156 L 119.417969 0.730469 L 108.027344 0.730469 L 108.027344 3.660156 C 108.027344 5.121094 107.5 6.585938 106.796875 6.585938 C 106.796875 6.585938 106.796875 6.585938 106.625 6.585938 L 105.046875 6.585938 L 105.046875 9.511719 C 105.046875 10.976562 104.519531 12.4375 103.820312 12.4375 C 103.820312 12.4375 103.820312 12.4375 103.644531 12.4375 L 102.242188 12.4375 L 102.242188 48.292969 L 103.644531 48.292969 C 104.34375 48.292969 105.046875 49.390625 105.046875 50.855469 C 105.046875 50.855469 105.046875 51.21875 105.046875 51.21875 L 105.046875 54.144531 L 106.449219 54.144531 C 107.148438 54.144531 107.851562 55.242188 107.851562 56.707031 C 107.851562 56.707031 107.851562 57.074219 107.851562 57.074219 L 107.851562 60 L 119.242188 60 L 119.242188 57.074219 C 119.242188 55.609375 119.769531 54.144531 120.46875 54.144531 C 120.46875 54.144531 120.46875 54.144531 120.644531 54.144531 C 121.34375 54.144531 122.046875 55.242188 122.046875 56.707031 C 122.046875 56.707031 122.046875 57.074219 122.046875 57.074219 L 122.046875 60 L 124.851562 60 L 124.851562 30.367188 L 113.457031 30.367188 L 113.457031 36.585938 L 120.820312 36.585938 C 121.519531 36.585938 122.222656 37.683594 122.222656 39.144531 C 122.222656 39.144531 122.222656 39.511719 122.222656 39.511719 L 122.222656 45.367188 C 122.222656 46.828125 121.695312 48.292969 120.996094 48.292969 C 120.996094 48.292969 120.996094 48.292969 120.820312 48.292969 L 119.417969 48.292969 L 119.417969 51.21875 C 119.417969 52.683594 118.890625 54.144531 118.191406 54.144531 C 118.191406 54.144531 118.191406 54.144531 118.015625 54.144531 L 109.425781 54.144531 C 108.726562 54.144531 108.027344 53.046875 108.027344 51.585938 C 108.027344 51.585938 108.027344 51.21875 108.027344 51.21875 L 108.027344 48.292969 L 106.625 48.292969 C 105.921875 48.292969 105.222656 47.195312 105.222656 45.730469 C 105.222656 45.730469 105.222656 45.367188 105.222656 45.367188 L 105.222656 15.730469 C 105.222656 14.269531 105.746094 12.804688 106.449219 12.804688 C 106.449219 12.804688 106.449219 12.804688 106.625 12.804688 L 108.027344 12.804688 L 108.027344 9.878906 C 108.027344 8.414062 108.550781 6.953125 109.253906 6.953125 C 109.253906 6.953125 109.253906 6.953125 109.425781 6.953125 L 118.015625 6.953125 C 118.714844 6.953125 119.417969 8.046875 119.417969 9.511719 C 119.417969 9.511719 119.417969 9.878906 119.417969 9.878906 L 119.417969 12.804688 L 120.820312 12.804688 C 121.519531 12.804688 122.222656 13.902344 122.222656 15.367188 C 122.222656 15.367188 122.222656 15.730469 122.222656 15.730469 L 122.222656 18.660156 Z M 132.210938 21.585938 L 132.210938 9.511719 C 132.210938 8.046875 132.738281 6.585938 133.4375 6.585938 C 133.4375 6.585938 133.4375 6.585938 133.613281 6.585938 L 146.40625 6.585938 L 146.40625 0.730469 L 129.230469 0.730469 L 129.230469 60.367188 L 146.40625 60.367188 L 146.40625 54.511719 L 133.613281 54.511719 C 132.914062 54.511719 132.210938 53.414062 132.210938 51.953125 C 132.210938 51.953125 132.210938 51.585938 132.210938 51.585938 L 132.210938 33.292969 C 132.210938 31.828125 132.738281 30.367188 133.4375 30.367188 C 133.4375 30.367188 133.4375 30.367188 133.613281 30.367188 L 143.601562 30.367188 L 143.601562 24.511719 L 133.613281 24.511719 C 132.914062 24.511719 132.210938 23.414062 132.210938 21.953125 C 132.210938 21.953125 132.210938 21.585938 132.210938 21.585938 Z M 167.964844 0.730469 L 167.964844 39.511719 C 167.964844 40.976562 167.4375 42.4375 166.738281 42.4375 C 166.738281 42.4375 166.738281 42.4375 166.5625 42.4375 C 165.859375 42.4375 165.160156 41.339844 165.160156 39.878906 C 165.160156 39.878906 165.160156 39.511719 165.160156 39.511719 L 165.160156 36.585938 L 163.757812 36.585938 C 163.058594 36.585938 162.355469 35.488281 162.355469 34.023438 C 162.355469 34.023438 162.355469 33.660156 162.355469 33.660156 L 162.355469 24.511719 L 160.953125 24.511719 C 160.253906 24.511719 159.550781 23.414062 159.550781 21.953125 C 159.550781 21.953125 159.550781 21.585938 159.550781 21.585938 L 159.550781 18.660156 L 158.148438 18.660156 C 157.449219 18.660156 156.746094 17.5625 156.746094 16.097656 C 156.746094 16.097656 156.746094 15.730469 156.746094 15.730469 L 156.746094 6.585938 L 155.34375 6.585938 C 154.644531 6.585938 153.941406 5.488281 153.941406 4.023438 C 153.941406 4.023438 153.941406 3.660156 153.941406 3.660156 L 153.941406 0.730469 L 151.140625 0.730469 L 151.140625 60 L 153.941406 60 L 153.941406 21.585938 C 153.941406 20.121094 154.46875 18.660156 155.171875 18.660156 C 155.171875 18.660156 155.171875 18.660156 155.34375 18.660156 C 156.046875 18.660156 156.746094 19.757812 156.746094 21.21875 C 156.746094 21.21875 156.746094 21.21875 156.746094 21.585938 L 156.746094 24.511719 L 158.148438 24.511719 C 158.851562 24.511719 159.550781 25.609375 159.550781 27.074219 C 159.550781 27.074219 159.550781 27.4375 159.550781 27.4375 L 159.550781 36.21875 L 160.953125 36.21875 C 161.65625 36.21875 162.355469 37.316406 162.355469 38.78125 C 162.355469 38.78125 162.355469 39.144531 162.355469 39.144531 L 162.355469 42.074219 L 163.757812 42.074219 C 164.457031 42.074219 165.160156 43.171875 165.160156 44.632812 C 165.160156 44.632812 165.160156 45 165.160156 45 L 165.160156 53.78125 L 166.5625 53.78125 C 167.261719 53.78125 167.964844 54.878906 167.964844 56.339844 C 167.964844 56.339844 167.964844 56.707031 167.964844 56.707031 L 167.964844 59.632812 L 170.769531 59.632812 L 170.769531 0.367188 Z M 198.109375 18.660156 L 198.109375 12.804688 L 196.707031 12.804688 C 196.003906 12.804688 195.304688 11.707031 195.304688 10.242188 C 195.304688 10.242188 195.304688 9.878906 195.304688 9.878906 L 195.304688 6.585938 L 193.902344 6.585938 C 193.203125 6.585938 192.5 5.488281 192.5 4.023438 C 192.5 4.023438 192.5 3.660156 192.5 3.660156 L 192.5 0.730469 L 181.109375 0.730469 L 181.109375 3.660156 C 181.109375 5.121094 180.582031 6.585938 179.882812 6.585938 C 179.882812 6.585938 179.882812 6.585938 179.707031 6.585938 L 178.304688 6.585938 L 178.304688 9.511719 C 178.304688 10.976562 177.777344 12.4375 177.078125 12.4375 C 177.078125 12.4375 177.078125 12.4375 176.902344 12.4375 L 175.5 12.4375 L 175.5 48.292969 L 176.902344 48.292969 C 177.601562 48.292969 178.304688 49.390625 178.304688 50.855469 C 178.304688 50.855469 178.304688 51.21875 178.304688 51.21875 L 178.304688 54.144531 L 179.707031 54.144531 C 180.40625 54.144531 181.109375 55.242188 181.109375 56.707031 C 181.109375 56.707031 181.109375 57.074219 181.109375 57.074219 L 181.109375 60 L 192.5 60 L 192.5 57.074219 C 192.5 55.609375 193.027344 54.144531 193.726562 54.144531 C 193.726562 54.144531 193.726562 54.144531 193.902344 54.144531 L 195.304688 54.144531 L 195.304688 51.21875 C 195.304688 49.757812 195.832031 48.292969 196.53125 48.292969 C 196.53125 48.292969 196.53125 48.292969 196.707031 48.292969 L 198.109375 48.292969 L 198.109375 42.4375 L 195.304688 42.4375 L 195.304688 45.367188 C 195.304688 46.828125 194.777344 48.292969 194.078125 48.292969 C 194.078125 48.292969 194.078125 48.292969 193.902344 48.292969 L 192.5 48.292969 L 192.5 51.21875 C 192.5 52.683594 191.972656 54.144531 191.273438 54.144531 C 191.273438 54.144531 191.273438 54.144531 191.097656 54.144531 L 182.511719 54.144531 C 181.808594 54.144531 181.109375 53.046875 181.109375 51.585938 C 181.109375 51.585938 181.109375 51.21875 181.109375 51.21875 L 181.109375 48.292969 L 179.707031 48.292969 C 179.003906 48.292969 178.304688 47.195312 178.304688 45.730469 C 178.304688 45.730469 178.304688 45.367188 178.304688 45.367188 L 178.304688 15.730469 C 178.304688 14.269531 178.832031 12.804688 179.53125 12.804688 C 179.53125 12.804688 179.53125 12.804688 179.707031 12.804688 L 181.109375 12.804688 L 181.109375 9.878906 C 181.109375 8.414062 181.632812 6.953125 182.335938 6.953125 C 182.335938 6.953125 182.335938 6.953125 182.511719 6.953125 L 191.097656 6.953125 C 191.800781 6.953125 192.5 8.046875 192.5 9.511719 C 192.5 9.511719 192.5 9.878906 192.5 9.878906 L 192.5 12.804688 L 193.902344 12.804688 C 194.601562 12.804688 195.304688 13.902344 195.304688 15.367188 C 195.304688 15.367188 195.304688 15.730469 195.304688 15.730469 L 195.304688 18.660156 Z M 205.292969 21.585938 L 205.292969 9.511719 C 205.292969 8.046875 205.820312 6.585938 206.519531 6.585938 C 206.519531 6.585938 206.519531 6.585938 206.695312 6.585938 L 219.492188 6.585938 L 219.492188 0.730469 L 202.316406 0.730469 L 202.316406 60.367188 L 219.492188 60.367188 L 219.492188 54.511719 L 206.695312 54.511719 C 205.996094 54.511719 205.292969 53.414062 205.292969 51.953125 C 205.292969 51.953125 205.292969 51.585938 205.292969 51.585938 L 205.292969 33.292969 C 205.292969 31.828125 205.820312 30.367188 206.519531 30.367188 C 206.519531 30.367188 206.519531 30.367188 206.695312 30.367188 L 216.6875 30.367188 L 216.6875 24.511719 L 206.695312 24.511719 C 205.996094 24.511719 205.292969 23.414062 205.292969 21.953125 C 205.292969 21.953125 205.292969 21.585938 205.292969 21.585938 Z M 205.292969 21.585938 "/>
<path style=" stroke:none;fill-rule:nonzero;fill:rgb(14.901961%,40%,69.019608%);fill-opacity:1;" d="M 236.492188 0 L 231.582031 30 L 230.003906 30 L 224.75 0 L 226.324219 0 L 230.707031 24.878906 L 234.738281 0 Z M 240.171875 27.074219 C 240.871094 27.074219 241.574219 26.707031 242.097656 25.609375 C 242.625 24.878906 242.800781 23.78125 242.976562 22.316406 L 244.550781 22.316406 C 244.550781 23.78125 244.203125 24.878906 243.851562 25.976562 C 243.5 27.074219 242.976562 28.171875 242.273438 28.902344 C 241.574219 29.632812 240.871094 30 240.171875 30 C 239.292969 30 238.417969 29.632812 237.71875 28.535156 C 237.015625 27.4375 236.316406 26.339844 235.964844 24.511719 C 235.613281 22.683594 235.261719 20.488281 235.261719 18.660156 C 235.261719 16.828125 235.4375 15 235.964844 13.171875 C 236.316406 11.707031 237.015625 10.242188 237.71875 9.144531 C 238.417969 8.046875 239.292969 7.683594 240.171875 7.683594 C 241.398438 7.683594 242.625 8.414062 243.5 10.609375 C 244.378906 13.171875 244.902344 16.097656 244.726562 19.390625 L 237.015625 19.390625 C 237.015625 21.21875 237.367188 23.414062 237.890625 24.878906 C 238.417969 26.339844 239.292969 27.074219 240.171875 27.074219 Z M 240.171875 11.707031 C 239.46875 11.707031 238.769531 12.074219 238.242188 13.171875 C 237.71875 14.269531 237.367188 15.367188 237.191406 16.828125 L 242.976562 16.828125 C 242.800781 15.367188 242.625 13.902344 242.097656 13.171875 C 241.574219 12.074219 240.871094 11.707031 240.171875 11.707031 Z M 254.71875 30 L 253.140625 30 L 253.140625 19.023438 C 253.140625 17.195312 252.964844 15.367188 252.613281 13.535156 C 252.265625 12.4375 251.5625 11.707031 251.035156 11.707031 C 250.160156 11.707031 249.285156 12.4375 248.757812 13.902344 C 248.058594 15.730469 247.882812 17.5625 247.882812 19.757812 L 247.882812 30 L 246.128906 30 L 246.128906 8.414062 L 247.707031 8.414062 L 247.707031 12.074219 C 248.058594 10.976562 248.582031 9.878906 249.109375 9.144531 C 249.636719 8.414062 250.335938 8.046875 251.035156 8.046875 C 252.089844 7.683594 253.140625 8.78125 253.839844 10.609375 C 254.542969 12.804688 254.71875 15.730469 254.71875 18.292969 Z M 258.222656 11.707031 L 258.222656 25.609375 C 258.222656 25.976562 258.222656 26.339844 258.398438 26.707031 C 258.574219 26.707031 258.75 27.074219 258.921875 27.074219 L 260.5 27.074219 L 260.5 30.367188 L 258.921875 30.367188 C 258.398438 30.367188 257.871094 30.367188 257.347656 30 C 256.996094 29.632812 256.820312 29.269531 256.820312 28.535156 C 256.644531 27.4375 256.644531 26.339844 256.644531 25.609375 L 256.644531 11.707031 L 255.242188 11.707031 L 255.242188 8.414062 L 256.644531 8.414062 L 256.644531 4.023438 L 258.222656 4.023438 L 258.222656 8.78125 L 260.5 8.78125 L 260.5 11.707031 Z M 270.664062 8.414062 L 270.664062 29.632812 L 269.089844 29.632812 L 269.089844 26.707031 C 268.5625 28.902344 267.335938 30.367188 266.109375 30 C 264.882812 30.367188 263.832031 29.269531 263.128906 27.074219 C 262.429688 24.878906 262.078125 21.953125 262.078125 19.390625 L 262.078125 8.414062 L 263.65625 8.414062 L 263.65625 19.390625 C 263.65625 21.21875 263.832031 23.046875 264.355469 24.878906 C 264.882812 25.976562 265.582031 26.707031 266.285156 26.707031 C 268.210938 26.707031 269.089844 24.144531 269.089844 18.660156 L 269.089844 8.414062 Z M 273.996094 12.4375 C 274.871094 9.878906 276.273438 8.414062 277.675781 8.78125 L 277.675781 12.074219 C 276.625 12.074219 275.75 12.804688 274.871094 13.902344 C 274.171875 15.367188 273.820312 17.5625 273.820312 19.757812 L 273.820312 30 L 272.242188 30 L 272.242188 8.414062 L 273.820312 8.414062 Z M 283.109375 27.074219 C 283.808594 27.074219 284.511719 26.707031 285.039062 25.609375 C 285.5625 24.878906 285.738281 23.78125 285.914062 22.316406 L 287.492188 22.316406 C 287.492188 23.78125 287.140625 24.878906 286.789062 25.976562 C 286.4375 27.074219 285.914062 28.171875 285.210938 28.902344 C 284.511719 29.632812 283.808594 30 283.109375 30 C 282.234375 30 281.355469 29.632812 280.65625 28.535156 C 279.953125 27.4375 279.253906 26.339844 278.902344 24.511719 C 278.550781 22.683594 278.203125 20.488281 278.203125 18.660156 C 278.203125 16.828125 278.378906 15 278.902344 13.171875 C 279.253906 11.707031 279.953125 10.242188 280.65625 9.144531 C 281.355469 8.046875 282.234375 7.683594 283.109375 7.683594 C 284.335938 7.683594 285.5625 8.414062 286.4375 10.609375 C 287.316406 13.171875 287.839844 16.097656 287.667969 19.390625 L 279.953125 19.390625 C 279.953125 21.21875 280.304688 23.414062 280.832031 24.878906 C 281.355469 26.339844 282.234375 27.074219 283.109375 27.074219 Z M 283.109375 11.707031 C 282.410156 11.707031 281.707031 12.074219 281.179688 13.171875 C 280.65625 14.269531 280.304688 15.367188 280.128906 16.828125 L 285.914062 16.828125 C 285.738281 15.367188 285.5625 13.902344 285.039062 13.171875 C 284.511719 12.074219 283.808594 11.707031 283.109375 11.707031 Z M 288.542969 23.046875 C 288.542969 25.242188 289.066406 27.074219 289.769531 28.535156 C 290.644531 29.632812 291.523438 30.367188 292.574219 30.367188 C 293.625 30.367188 294.5 30 295.378906 28.902344 C 296.078125 27.804688 296.605469 25.976562 296.429688 24.144531 C 296.429688 22.683594 296.078125 20.855469 295.554688 19.757812 C 294.851562 18.292969 293.800781 17.5625 292.925781 17.5625 C 290.996094 17.195312 290.121094 16.097656 290.121094 14.269531 C 290.121094 13.171875 290.296875 12.074219 290.820312 11.707031 C 291.347656 11.339844 291.871094 10.976562 292.398438 10.976562 C 292.925781 10.976562 293.625 11.339844 293.976562 12.074219 C 294.324219 12.804688 294.675781 13.902344 294.675781 15 L 296.253906 15 C 296.253906 13.171875 295.726562 10.976562 295.027344 9.878906 C 294.324219 8.414062 293.273438 8.046875 292.398438 8.046875 C 291.523438 8.046875 290.46875 8.414062 289.769531 9.511719 C 288.894531 10.609375 288.542969 12.4375 288.542969 14.269531 C 288.542969 15.730469 288.71875 17.195312 289.242188 18.292969 C 289.945312 19.390625 290.820312 20.121094 291.695312 20.121094 C 292.574219 20.121094 293.273438 20.855469 293.976562 21.585938 C 294.324219 21.953125 294.675781 23.046875 294.675781 23.78125 C 294.675781 24.878906 294.5 25.609375 294.152344 26.339844 C 293.625 26.707031 292.925781 27.074219 292.398438 27.074219 C 291.171875 27.4375 290.121094 25.609375 289.945312 23.414062 C 289.945312 23.414062 289.945312 23.046875 289.945312 23.046875 Z M 288.542969 23.046875 "/>
</g>
</svg>
