<?xml version="1.0" encoding="UTF-8"?>
<svg xmlns="http://www.w3.org/2000/svg" xmlns:xlink="http://www.w3.org/1999/xlink" width="300" height="150" viewBox="0 0 300 150" version="1.1">
<g id="surface1">
<path style=" stroke:none;fill-rule:nonzero;fill:rgb(14.901961%,40%,69.019608%);fill-opacity:1;" d="M 21.972656 32.011719 C 21.273438 32.011719 20.570312 29.269531 20.570312 25.609375 C 20.570312 25.609375 20.570312 24.695312 20.570312 24.695312 L 20.570312 16.464844 L 18.992188 16.464844 C 18.292969 16.464844 17.589844 13.71875 17.589844 10.0625 C 17.589844 10.0625 17.589844 9.144531 17.589844 9.144531 L 17.589844 1.828125 L 3.394531 1.828125 L 3.394531 150 L 17.589844 150 L 17.589844 142.683594 C 17.589844 139.023438 18.117188 135.367188 18.820312 135.367188 C 18.820312 135.367188 18.820312 135.367188 18.992188 135.367188 L 20.394531 135.367188 L 20.394531 128.046875 C 20.394531 124.390625 20.921875 120.730469 21.621094 120.730469 C 21.621094 120.730469 21.621094 120.730469 21.796875 120.730469 L 23.199219 120.730469 L 23.199219 32.011719 Z M 20.570312 39.328125 L 20.570312 113.414062 C 20.570312 117.074219 20.046875 120.730469 19.34375 120.730469 C 19.34375 120.730469 19.34375 120.730469 19.167969 120.730469 L 17.589844 120.730469 L 17.589844 128.046875 C 17.589844 131.707031 17.066406 135.367188 16.363281 135.367188 C 16.363281 135.367188 16.363281 135.367188 16.191406 135.367188 L 7.601562 135.367188 C 6.902344 135.367188 6.199219 132.621094 6.199219 128.964844 C 6.199219 128.964844 6.199219 128.046875 6.199219 128.046875 L 6.199219 23.78125 C 6.199219 20.121094 6.726562 16.464844 7.425781 16.464844 C 7.425781 16.464844 7.425781 16.464844 7.601562 16.464844 L 16.191406 16.464844 C 16.890625 16.464844 17.589844 19.207031 17.589844 22.867188 C 17.589844 22.867188 17.589844 23.78125 17.589844 23.78125 L 17.589844 31.097656 L 18.992188 31.097656 C 19.871094 31.097656 20.394531 34.757812 20.570312 39.328125 C 20.570312 38.414062 20.570312 38.414062 20.570312 39.328125 Z M 27.757812 1.828125 L 27.757812 150.914062 L 30.5625 150.914062 L 30.5625 1.828125 Z M 51.941406 1.828125 L 51.941406 23.78125 C 51.941406 27.4375 51.417969 31.097656 50.714844 31.097656 C 50.714844 31.097656 50.714844 31.097656 50.539062 31.097656 L 49.136719 31.097656 L 49.136719 68.597656 C 49.136719 72.257812 48.613281 75.914062 47.910156 75.914062 C 47.910156 75.914062 47.910156 75.914062 47.734375 75.914062 L 46.335938 75.914062 L 46.335938 113.414062 C 46.335938 117.074219 45.808594 120.730469 45.105469 120.730469 C 45.105469 120.730469 45.105469 120.730469 44.933594 120.730469 C 44.230469 120.730469 43.53125 117.988281 43.53125 114.328125 C 43.53125 114.328125 43.53125 113.414062 43.53125 113.414062 L 43.53125 75.914062 L 42.128906 75.914062 C 41.425781 75.914062 40.726562 73.171875 40.726562 69.511719 C 40.726562 69.511719 40.726562 68.597656 40.726562 68.597656 L 40.726562 31.097656 L 39.324219 31.097656 C 38.621094 31.097656 37.921875 28.355469 37.921875 24.695312 C 37.921875 24.695312 37.921875 23.78125 37.921875 23.78125 L 37.921875 1.828125 L 34.941406 1.828125 L 34.941406 32.011719 L 36.34375 32.011719 C 37.046875 32.011719 37.746094 34.757812 37.746094 38.414062 C 37.746094 38.414062 37.746094 39.328125 37.746094 39.328125 L 37.746094 76.828125 L 39.148438 76.828125 C 39.847656 76.828125 40.550781 79.574219 40.550781 83.230469 C 40.550781 83.230469 40.550781 84.144531 40.550781 84.144531 L 40.550781 121.644531 L 41.953125 121.644531 C 42.652344 121.644531 43.355469 124.390625 43.355469 128.046875 C 43.355469 128.046875 43.355469 128.964844 43.355469 128.964844 L 43.355469 150.914062 L 46.160156 150.914062 L 46.160156 128.046875 C 46.160156 124.390625 46.683594 120.730469 47.386719 120.730469 C 47.386719 120.730469 47.386719 120.730469 47.5625 120.730469 L 48.964844 120.730469 L 48.964844 83.230469 C 48.964844 79.574219 49.488281 75.914062 50.191406 75.914062 C 50.191406 75.914062 50.191406 75.914062 50.363281 75.914062 L 51.765625 75.914062 L 51.765625 39.328125 C 51.765625 35.671875 52.292969 32.011719 52.992188 32.011719 C 52.992188 32.011719 52.992188 32.011719 53.167969 32.011719 L 54.570312 32.011719 L 54.570312 1.828125 Z M 62.109375 53.964844 L 62.109375 23.78125 C 62.109375 20.121094 62.632812 16.464844 63.335938 16.464844 C 63.335938 16.464844 63.335938 16.464844 63.507812 16.464844 L 76.304688 16.464844 L 76.304688 1.828125 L 59.128906 1.828125 L 59.128906 150.914062 L 76.304688 150.914062 L 76.304688 136.28125 L 63.507812 136.28125 C 62.808594 136.28125 62.109375 133.535156 62.109375 129.878906 C 62.109375 129.878906 62.109375 128.964844 62.109375 128.964844 L 62.109375 83.230469 C 62.109375 79.574219 62.632812 75.914062 63.335938 75.914062 C 63.335938 75.914062 63.335938 75.914062 63.507812 75.914062 L 73.5 75.914062 L 73.5 61.28125 L 63.507812 61.28125 C 62.808594 61.28125 62.109375 58.535156 62.109375 54.878906 C 62.109375 54.878906 62.109375 53.964844 62.109375 53.964844 Z M 96.457031 16.464844 C 95.757812 16.464844 95.054688 13.71875 95.054688 10.0625 C 95.054688 10.0625 95.054688 9.144531 95.054688 9.144531 L 95.054688 1.828125 L 80.859375 1.828125 L 80.859375 150.914062 L 83.664062 150.914062 L 83.664062 98.78125 C 83.664062 95.121094 84.191406 91.464844 84.890625 91.464844 C 84.890625 91.464844 84.890625 91.464844 85.066406 91.464844 L 87.871094 91.464844 C 88.570312 91.464844 89.273438 94.207031 89.273438 97.867188 C 89.273438 97.867188 89.273438 98.78125 89.273438 98.78125 L 89.273438 106.097656 L 90.675781 106.097656 C 91.375 106.097656 92.078125 108.839844 92.078125 112.5 C 92.078125 112.5 92.078125 113.414062 92.078125 113.414062 L 92.078125 135.367188 L 93.480469 135.367188 C 94.179688 135.367188 94.882812 138.109375 94.882812 141.769531 C 94.882812 141.769531 94.882812 142.683594 94.882812 142.683594 L 94.882812 150 L 97.683594 150 L 97.683594 135.367188 L 96.28125 135.367188 C 95.582031 135.367188 94.882812 132.621094 94.882812 128.964844 C 94.882812 128.964844 94.882812 128.046875 94.882812 128.046875 L 94.882812 106.097656 L 93.480469 106.097656 C 92.777344 106.097656 92.078125 103.355469 92.078125 99.695312 C 92.078125 99.695312 92.078125 98.78125 92.078125 98.78125 C 92.078125 95.121094 92.601562 91.464844 93.304688 91.464844 C 93.304688 91.464844 93.304688 91.464844 93.480469 91.464844 L 94.882812 91.464844 L 94.882812 83.230469 C 94.882812 79.574219 95.40625 75.914062 96.109375 75.914062 C 96.109375 75.914062 96.109375 75.914062 96.28125 75.914062 L 97.683594 75.914062 L 97.683594 16.464844 Z M 95.054688 23.78125 L 95.054688 68.597656 C 95.054688 72.257812 94.53125 75.914062 93.828125 75.914062 C 93.828125 75.914062 93.828125 75.914062 93.652344 75.914062 L 85.066406 75.914062 C 84.367188 75.914062 83.664062 73.171875 83.664062 69.511719 C 83.664062 69.511719 83.664062 68.597656 83.664062 68.597656 L 83.664062 23.78125 C 83.664062 20.121094 84.191406 16.464844 84.890625 16.464844 C 84.890625 16.464844 84.890625 16.464844 85.066406 16.464844 L 93.652344 16.464844 C 94.355469 16.464844 95.054688 19.207031 95.054688 22.867188 C 95.054688 23.78125 95.054688 23.78125 95.054688 23.78125 Z M 125.027344 46.644531 L 125.027344 32.011719 L 123.625 32.011719 C 122.921875 32.011719 122.222656 29.269531 122.222656 25.609375 C 122.222656 25.609375 122.222656 24.695312 122.222656 24.695312 L 122.222656 16.464844 L 120.820312 16.464844 C 120.117188 16.464844 119.417969 13.71875 119.417969 10.0625 C 119.417969 10.0625 119.417969 9.144531 119.417969 9.144531 L 119.417969 1.828125 L 108.027344 1.828125 L 108.027344 9.144531 C 108.027344 12.804688 107.5 16.464844 106.796875 16.464844 C 106.796875 16.464844 106.796875 16.464844 106.625 16.464844 L 105.046875 16.464844 L 105.046875 23.78125 C 105.046875 27.4375 104.519531 31.097656 103.820312 31.097656 C 103.820312 31.097656 103.820312 31.097656 103.644531 31.097656 L 102.242188 31.097656 L 102.242188 120.730469 L 103.644531 120.730469 C 104.34375 120.730469 105.046875 123.476562 105.046875 127.132812 C 105.046875 127.132812 105.046875 128.046875 105.046875 128.046875 L 105.046875 135.367188 L 106.449219 135.367188 C 107.148438 135.367188 107.851562 138.109375 107.851562 141.769531 C 107.851562 141.769531 107.851562 142.683594 107.851562 142.683594 L 107.851562 150 L 119.242188 150 L 119.242188 142.683594 C 119.242188 139.023438 119.769531 135.367188 120.46875 135.367188 C 120.46875 135.367188 120.46875 135.367188 120.644531 135.367188 C 121.34375 135.367188 122.046875 138.109375 122.046875 141.769531 C 122.046875 141.769531 122.046875 142.683594 122.046875 142.683594 L 122.046875 150 L 124.851562 150 L 124.851562 75.914062 L 113.457031 75.914062 L 113.457031 91.464844 L 120.820312 91.464844 C 121.519531 91.464844 122.222656 94.207031 122.222656 97.867188 C 122.222656 97.867188 122.222656 98.78125 122.222656 98.78125 L 122.222656 113.414062 C 122.222656 117.074219 121.695312 120.730469 120.996094 120.730469 C 120.996094 120.730469 120.996094 120.730469 120.820312 120.730469 L 119.417969 120.730469 L 119.417969 128.046875 C 119.417969 131.707031 118.890625 135.367188 118.191406 135.367188 C 118.191406 135.367188 118.191406 135.367188 118.015625 135.367188 L 109.425781 135.367188 C 108.726562 135.367188 108.027344 132.621094 108.027344 128.964844 C 108.027344 128.964844 108.027344 128.046875 108.027344 128.046875 L 108.027344 120.730469 L 106.625 120.730469 C 105.921875 120.730469 105.222656 117.988281 105.222656 114.328125 C 105.222656 114.328125 105.222656 113.414062 105.222656 113.414062 L 105.222656 39.328125 C 105.222656 35.671875 105.746094 32.011719 106.449219 32.011719 C 106.449219 32.011719 106.449219 32.011719 106.625 32.011719 L 108.027344 32.011719 L 108.027344 24.695312 C 108.027344 21.035156 108.550781 17.378906 109.253906 17.378906 C 109.253906 17.378906 109.253906 17.378906 109.425781 17.378906 L 118.015625 17.378906 C 118.714844 17.378906 119.417969 20.121094 119.417969 23.78125 C 119.417969 23.78125 119.417969 24.695312 119.417969 24.695312 L 119.417969 32.011719 L 120.820312 32.011719 C 121.519531 32.011719 122.222656 34.757812 122.222656 38.414062 C 122.222656 38.414062 122.222656 39.328125 122.222656 39.328125 L 122.222656 46.644531 Z M 132.210938 53.964844 L 132.210938 23.78125 C 132.210938 20.121094 132.738281 16.464844 133.4375 16.464844 C 133.4375 16.464844 133.4375 16.464844 133.613281 16.464844 L 146.40625 16.464844 L 146.40625 1.828125 L 129.230469 1.828125 L 129.230469 150.914062 L 146.40625 150.914062 L 146.40625 136.28125 L 133.613281 136.28125 C 132.914062 136.28125 132.210938 133.535156 132.210938 129.878906 C 132.210938 129.878906 132.210938 128.964844 132.210938 128.964844 L 132.210938 83.230469 C 132.210938 79.574219 132.738281 75.914062 133.4375 75.914062 C 133.4375 75.914062 133.4375 75.914062 133.613281 75.914062 L 143.601562 75.914062 L 143.601562 61.28125 L 133.613281 61.28125 C 132.914062 61.28125 132.210938 58.535156 132.210938 54.878906 C 132.210938 54.878906 132.210938 53.964844 132.210938 53.964844 Z M 167.964844 1.828125 L 167.964844 98.78125 C 167.964844 102.4375 167.4375 106.097656 166.738281 106.097656 C 166.738281 106.097656 166.738281 106.097656 166.5625 106.097656 C 165.859375 106.097656 165.160156 103.355469 165.160156 99.695312 C 165.160156 99.695312 165.160156 98.78125 165.160156 98.78125 L 165.160156 91.464844 L 163.757812 91.464844 C 163.058594 91.464844 162.355469 88.71875 162.355469 85.0625 C 162.355469 85.0625 162.355469 84.144531 162.355469 84.144531 L 162.355469 61.28125 L 160.953125 61.28125 C 160.253906 61.28125 159.550781 58.535156 159.550781 54.878906 C 159.550781 54.878906 159.550781 53.964844 159.550781 53.964844 L 159.550781 46.644531 L 158.148438 46.644531 C 157.449219 46.644531 156.746094 43.902344 156.746094 40.242188 C 156.746094 40.242188 156.746094 39.328125 156.746094 39.328125 L 156.746094 16.464844 L 155.34375 16.464844 C 154.644531 16.464844 153.941406 13.71875 153.941406 10.0625 C 153.941406 10.0625 153.941406 9.144531 153.941406 9.144531 L 153.941406 1.828125 L 151.140625 1.828125 L 151.140625 150 L 153.941406 150 L 153.941406 53.964844 C 153.941406 50.304688 154.46875 46.644531 155.171875 46.644531 C 155.171875 46.644531 155.171875 46.644531 155.34375 46.644531 C 156.046875 46.644531 156.746094 49.390625 156.746094 53.046875 C 156.746094 53.046875 156.746094 53.046875 156.746094 53.964844 L 156.746094 61.28125 L 158.148438 61.28125 C 158.851562 61.28125 159.550781 64.023438 159.550781 67.683594 C 159.550781 67.683594 159.550781 68.597656 159.550781 68.597656 L 159.550781 90.546875 L 160.953125 90.546875 C 161.65625 90.546875 162.355469 93.292969 162.355469 96.953125 C 162.355469 96.953125 162.355469 97.867188 162.355469 97.867188 L 162.355469 105.183594 L 163.757812 105.183594 C 164.457031 105.183594 165.160156 107.925781 165.160156 111.585938 C 165.160156 111.585938 165.160156 112.5 165.160156 112.5 L 165.160156 134.453125 L 166.5625 134.453125 C 167.261719 134.453125 167.964844 137.195312 167.964844 140.855469 C 167.964844 140.855469 167.964844 141.769531 167.964844 141.769531 L 167.964844 149.085938 L 170.769531 149.085938 L 170.769531 0.914062 Z M 198.109375 46.644531 L 198.109375 32.011719 L 196.707031 32.011719 C 196.003906 32.011719 195.304688 29.269531 195.304688 25.609375 C 195.304688 25.609375 195.304688 24.695312 195.304688 24.695312 L 195.304688 16.464844 L 193.902344 16.464844 C 193.203125 16.464844 192.5 13.71875 192.5 10.0625 C 192.5 10.0625 192.5 9.144531 192.5 9.144531 L 192.5 1.828125 L 181.109375 1.828125 L 181.109375 9.144531 C 181.109375 12.804688 180.582031 16.464844 179.882812 16.464844 C 179.882812 16.464844 179.882812 16.464844 179.707031 16.464844 L 178.304688 16.464844 L 178.304688 23.78125 C 178.304688 27.4375 177.777344 31.097656 177.078125 31.097656 C 177.078125 31.097656 177.078125 31.097656 176.902344 31.097656 L 175.5 31.097656 L 175.5 120.730469 L 176.902344 120.730469 C 177.601562 120.730469 178.304688 123.476562 178.304688 127.132812 C 178.304688 127.132812 178.304688 128.046875 178.304688 128.046875 L 178.304688 135.367188 L 179.707031 135.367188 C 180.40625 135.367188 181.109375 138.109375 181.109375 141.769531 C 181.109375 141.769531 181.109375 142.683594 181.109375 142.683594 L 181.109375 150 L 192.5 150 L 192.5 142.683594 C 192.5 139.023438 193.027344 135.367188 193.726562 135.367188 C 193.726562 135.367188 193.726562 135.367188 193.902344 135.367188 L 195.304688 135.367188 L 195.304688 128.046875 C 195.304688 124.390625 195.832031 120.730469 196.53125 120.730469 C 196.53125 120.730469 196.53125 120.730469 196.707031 120.730469 L 198.109375 120.730469 L 198.109375 106.097656 L 195.304688 106.097656 L 195.304688 113.414062 C 195.304688 117.074219 194.777344 120.730469 194.078125 120.730469 C 194.078125 120.730469 194.078125 120.730469 193.902344 120.730469 L 192.5 120.730469 L 192.5 128.046875 C 192.5 131.707031 191.972656 135.367188 191.273438 135.367188 C 191.273438 135.367188 191.273438 135.367188 191.097656 135.367188 L 182.511719 135.367188 C 181.808594 135.367188 181.109375 132.621094 181.109375 128.964844 C 181.109375 128.964844 181.109375 128.046875 181.109375 128.046875 L 181.109375 120.730469 L 179.707031 120.730469 C 179.003906 120.730469 178.304688 117.988281 178.304688 114.328125 C 178.304688 114.328125 178.304688 113.414062 178.304688 113.414062 L 178.304688 39.328125 C 178.304688 35.671875 178.832031 32.011719 179.53125 32.011719 C 179.53125 32.011719 179.53125 32.011719 179.707031 32.011719 L 181.109375 32.011719 L 181.109375 24.695312 C 181.109375 21.035156 181.632812 17.378906 182.335938 17.378906 C 182.335938 17.378906 182.335938 17.378906 182.511719 17.378906 L 191.097656 17.378906 C 191.800781 17.378906 192.5 20.121094 192.5 23.78125 C 192.5 23.78125 192.5 24.695312 192.5 24.695312 L 192.5 32.011719 L 193.902344 32.011719 C 194.601562 32.011719 195.304688 34.757812 195.304688 38.414062 C 195.304688 38.414062 195.304688 39.328125 195.304688 39.328125 L 195.304688 46.644531 Z M 205.292969 53.964844 L 205.292969 23.78125 C 205.292969 20.121094 205.820312 16.464844 206.519531 16.464844 C 206.519531 16.464844 206.519531 16.464844 206.695312 16.464844 L 219.492188 16.464844 L 219.492188 1.828125 L 202.316406 1.828125 L 202.316406 150.914062 L 219.492188 150.914062 L 219.492188 136.28125 L 206.695312 136.28125 C 205.996094 136.28125 205.292969 133.535156 205.292969 129.878906 C 205.292969 129.878906 205.292969 128.964844 205.292969 128.964844 L 205.292969 83.230469 C 205.292969 79.574219 205.820312 75.914062 206.519531 75.914062 C 206.519531 75.914062 206.519531 75.914062 206.695312 75.914062 L 216.6875 75.914062 L 216.6875 61.28125 L 206.695312 61.28125 C 205.996094 61.28125 205.292969 58.535156 205.292969 54.878906 C 205.292969 54.878906 205.292969 53.964844 205.292969 53.964844 Z M 205.292969 53.964844 "/>
<path style=" stroke:none;fill-rule:nonzero;fill:rgb(14.901961%,40%,69.019608%);fill-opacity:1;" d="M 236.492188 0 L 231.582031 75 L 230.003906 75 L 224.75 0 L 226.324219 0 L 230.707031 62.195312 L 234.738281 0 Z M 240.171875 67.683594 C 240.871094 67.683594 241.574219 66.769531 242.097656 64.023438 C 242.625 62.195312 242.800781 59.453125 242.976562 55.792969 L 244.550781 55.792969 C 244.550781 59.453125 244.203125 62.195312 243.851562 64.9375 C 243.5 67.683594 242.976562 70.425781 242.273438 72.257812 C 241.574219 74.085938 240.871094 75 240.171875 75 C 239.292969 75 238.417969 74.085938 237.71875 71.339844 C 237.015625 68.597656 236.316406 65.855469 235.964844 61.28125 C 235.613281 56.707031 235.261719 51.21875 235.261719 46.644531 C 235.261719 42.074219 235.4375 37.5 235.964844 32.925781 C 236.316406 29.269531 237.015625 25.609375 237.71875 22.867188 C 238.417969 20.121094 239.292969 19.207031 240.171875 19.207031 C 241.398438 19.207031 242.625 21.035156 243.5 26.523438 C 244.378906 32.925781 244.902344 40.242188 244.726562 48.476562 L 237.015625 48.476562 C 237.015625 53.046875 237.367188 58.535156 237.890625 62.195312 C 238.417969 65.855469 239.292969 67.683594 240.171875 67.683594 Z M 240.171875 29.269531 C 239.46875 29.269531 238.769531 30.183594 238.242188 32.925781 C 237.71875 35.671875 237.367188 38.414062 237.191406 42.074219 L 242.976562 42.074219 C 242.800781 38.414062 242.625 34.757812 242.097656 32.925781 C 241.574219 30.183594 240.871094 29.269531 240.171875 29.269531 Z M 254.71875 75 L 253.140625 75 L 253.140625 47.5625 C 253.140625 42.988281 252.964844 38.414062 252.613281 33.839844 C 252.265625 31.097656 251.5625 29.269531 251.035156 29.269531 C 250.160156 29.269531 249.285156 31.097656 248.757812 34.757812 C 248.058594 39.328125 247.882812 43.902344 247.882812 49.390625 L 247.882812 75 L 246.128906 75 L 246.128906 21.035156 L 247.707031 21.035156 L 247.707031 30.183594 C 248.058594 27.4375 248.582031 24.695312 249.109375 22.867188 C 249.636719 21.035156 250.335938 20.121094 251.035156 20.121094 C 252.089844 19.207031 253.140625 21.953125 253.839844 26.523438 C 254.542969 32.011719 254.71875 39.328125 254.71875 45.730469 Z M 258.222656 29.269531 L 258.222656 64.023438 C 258.222656 64.9375 258.222656 65.855469 258.398438 66.769531 C 258.574219 66.769531 258.75 67.683594 258.921875 67.683594 L 260.5 67.683594 L 260.5 75.914062 L 258.921875 75.914062 C 258.398438 75.914062 257.871094 75.914062 257.347656 75 C 256.996094 74.085938 256.820312 73.171875 256.820312 71.339844 C 256.644531 68.597656 256.644531 65.855469 256.644531 64.023438 L 256.644531 29.269531 L 255.242188 29.269531 L 255.242188 21.035156 L 256.644531 21.035156 L 256.644531 10.0625 L 258.222656 10.0625 L 258.222656 21.953125 L 260.5 21.953125 L 260.5 29.269531 Z M 270.664062 21.035156 L 270.664062 74.085938 L 269.089844 74.085938 L 269.089844 66.769531 C 268.5625 72.257812 267.335938 75.914062 266.109375 75 C 264.882812 75.914062 263.832031 73.171875 263.128906 67.683594 C 262.429688 62.195312 262.078125 54.878906 262.078125 48.476562 L 262.078125 21.035156 L 263.65625 21.035156 L 263.65625 48.476562 C 263.65625 53.046875 263.832031 57.621094 264.355469 62.195312 C 264.882812 64.9375 265.582031 66.769531 266.285156 66.769531 C 268.210938 66.769531 269.089844 60.367188 269.089844 46.644531 L 269.089844 21.035156 Z M 273.996094 31.097656 C 274.871094 24.695312 276.273438 21.035156 277.675781 21.953125 L 277.675781 30.183594 C 276.625 30.183594 275.75 32.011719 274.871094 34.757812 C 274.171875 38.414062 273.820312 43.902344 273.820312 49.390625 L 273.820312 75 L 272.242188 75 L 272.242188 21.035156 L 273.820312 21.035156 Z M 283.109375 67.683594 C 283.808594 67.683594 284.511719 66.769531 285.039062 64.023438 C 285.5625 62.195312 285.738281 59.453125 285.914062 55.792969 L 287.492188 55.792969 C 287.492188 59.453125 287.140625 62.195312 286.789062 64.9375 C 286.4375 67.683594 285.914062 70.425781 285.210938 72.257812 C 284.511719 74.085938 283.808594 75 283.109375 75 C 282.234375 75 281.355469 74.085938 280.65625 71.339844 C 279.953125 68.597656 279.253906 65.855469 278.902344 61.28125 C 278.550781 56.707031 278.203125 51.21875 278.203125 46.644531 C 278.203125 42.074219 278.378906 37.5 278.902344 32.925781 C 279.253906 29.269531 279.953125 25.609375 280.65625 22.867188 C 281.355469 20.121094 282.234375 19.207031 283.109375 19.207031 C 284.335938 19.207031 285.5625 21.035156 286.4375 26.523438 C 287.316406 32.925781 287.839844 40.242188 287.667969 48.476562 L 279.953125 48.476562 C 279.953125 53.046875 280.304688 58.535156 280.832031 62.195312 C 281.355469 65.855469 282.234375 67.683594 283.109375 67.683594 Z M 283.109375 29.269531 C 282.410156 29.269531 281.707031 30.183594 281.179688 32.925781 C 280.65625 35.671875 280.304688 38.414062 280.128906 42.074219 L 285.914062 42.074219 C 285.738281 38.414062 285.5625 34.757812 285.039062 32.925781 C 284.511719 30.183594 283.808594 29.269531 283.109375 29.269531 Z M 288.542969 57.621094 C 288.542969 63.109375 289.066406 67.683594 289.769531 71.339844 C 290.644531 74.085938 291.523438 75.914062 292.574219 75.914062 C 293.625 75.914062 294.5 75 295.378906 72.257812 C 296.078125 69.511719 296.605469 64.9375 296.429688 60.367188 C 296.429688 56.707031 296.078125 52.132812 295.554688 49.390625 C 294.851562 45.730469 293.800781 43.902344 292.925781 43.902344 C 290.996094 42.988281 290.121094 40.242188 290.121094 35.671875 C 290.121094 32.925781 290.296875 30.183594 290.820312 29.269531 C 291.347656 28.355469 291.871094 27.4375 292.398438 27.4375 C 292.925781 27.4375 293.625 28.355469 293.976562 30.183594 C 294.324219 32.011719 294.675781 34.757812 294.675781 37.5 L 296.253906 37.5 C 296.253906 32.925781 295.726562 27.4375 295.027344 24.695312 C 294.324219 21.035156 293.273438 20.121094 292.398438 20.121094 C 291.523438 20.121094 290.46875 21.035156 289.769531 23.78125 C 288.894531 26.523438 288.542969 31.097656 288.542969 35.671875 C 288.542969 39.328125 288.71875 42.988281 289.242188 45.730469 C 289.945312 48.476562 290.820312 50.304688 291.695312 50.304688 C 292.574219 50.304688 293.273438 52.132812 293.976562 53.964844 C 294.324219 54.878906 294.675781 57.621094 294.675781 59.453125 C 294.675781 62.195312 294.5 64.023438 294.152344 65.855469 C 293.625 66.769531 292.925781 67.683594 292.398438 67.683594 C 291.171875 68.597656 290.121094 64.023438 289.945312 58.535156 C 289.945312 58.535156 289.945312 57.621094 289.945312 57.621094 Z M 288.542969 57.621094 "/>
</g>
</svg>
