<?xml version="1.0" encoding="UTF-8"?>
<svg id="katman_1" data-name="katman 1" xmlns="http://www.w3.org/2000/svg" viewBox="0 0 300 100">
  <path id="Path_154" data-name="Path 154" d="M76.96,44.99c-.42,.03-.78-.29-.81-.71,0-.03,0-.07,0-.1v-.81h-.81c-.42,.03-.78-.29-.81-.71,0-.03,0-.06,0-.1v-.81h-8.14v16.23h8.14v-.81c-.02-.43,.31-.79,.74-.81,.02,0,.04,0,.07,0h.81v-.81c-.02-.43,.31-.79,.74-.81,.02,0,.05,0,.07,0h.81v-9.76h-.81Zm-.81,.81v8.11c.02,.43-.32,.79-.75,.81-.02,0-.04,0-.06,0h-.81v.81c.02,.43-.31,.79-.74,.81-.02,0-.05,0-.07,0h-4.91c-.42,.03-.78-.29-.81-.71,0-.03,0-.07,0-.1v-11.38c-.02-.43,.32-.79,.75-.81,.02,0,.04,0,.06,0h4.88c.42-.03,.78,.29,.81,.71,0,.03,0,.06,0,.09v.81h.81c.44-.02,.82,.33,.84,.77,0,.02,0,.04,0,.06Zm4.1-4.07v16.25h1.62v-16.25h-1.62Zm13.88,0v2.43c.02,.43-.31,.79-.74,.81-.02,0-.04,0-.07,0h-.81v4.07c.02,.43-.31,.79-.74,.81-.02,0-.04,0-.07,0h-.81v4.07c.02,.43-.32,.79-.75,.81-.02,0-.04,0-.06,0-.42,.03-.78-.29-.81-.71,0-.03,0-.06,0-.09v-4.07h-.81c-.42,.03-.78-.29-.81-.71,0-.03,0-.06,0-.09v-4.07h-.81c-.42,.03-.78-.29-.81-.71,0-.03,0-.06,0-.1v-2.43h-1.62v3.26h.81c.42-.03,.78,.29,.81,.71,0,.03,0,.06,0,.1v4.07h.81c.42-.03,.78,.29,.81,.71,0,.03,0,.07,0,.1v4.07h.81c.42-.03,.78,.29,.81,.71,0,.03,0,.07,0,.1v2.42h1.62v-2.42c-.02-.43,.31-.79,.74-.81,.02,0,.04,0,.07,0h.81v-4.08c-.02-.43,.32-.79,.74-.81,.02,0,.04,0,.07,0h.81v-4.07c-.02-.43,.32-.79,.74-.81,.02,0,.04,0,.07,0h.81v-3.26h-1.62Zm5.74,5.69v-3.26c-.02-.43,.31-.79,.74-.81,.02,0,.04,0,.07,0h7.33v-1.62h-9.79v16.25h9.79v-1.62h-7.33c-.42,.03-.78-.29-.81-.71,0-.03,0-.07,0-.1v-4.88c-.02-.43,.31-.79,.74-.81,.02,0,.05,0,.07,0h5.71v-1.64h-5.71c-.42,.03-.78-.29-.81-.71,0-.03,0-.07,0-.1h0Zm19.6-4.07c-.42,.03-.78-.29-.81-.71,0-.03,0-.06,0-.1v-.81h-8.14v16.25h1.62v-5.69c-.02-.43,.31-.79,.74-.81,.02,0,.05,0,.07,0h1.62c.42-.03,.78,.29,.81,.71,0,.03,0,.07,0,.1v.81h.81c.42-.03,.78,.29,.81,.71,0,.03,0,.07,0,.1v2.42h.81c.42-.03,.78,.29,.81,.71,0,.03,0,.07,0,.1v.81h1.62v-1.62h-.81c-.42,.03-.78-.29-.81-.71,0-.03,0-.07,0-.1v-2.43h-.81c-.42,.03-.78-.29-.81-.71,0-.03,0-.06,0-.1-.02-.43,.31-.79,.74-.81,.02,0,.05,0,.07,0h.81v-.81c-.02-.43,.32-.79,.74-.81,.02,0,.04,0,.07,0h.81v-6.5h-.75v-.02Zm-.81,.84v4.88c.02,.43-.31,.79-.74,.81-.02,0-.04,0-.07,0h-4.88c-.42,.03-.78-.29-.81-.71,0-.03,0-.07,0-.1v-4.88c-.02-.43,.31-.79,.74-.81,.02,0,.04,0,.07,0h4.88c.41-.03,.77,.27,.8,.68,0,.04,0,.08,0,.12h0Zm17.15,2.43v-1.62h-.81c-.42,.03-.78-.29-.81-.71,0-.03,0-.07,0-.1v-.81h-.81c-.42,.03-.78-.29-.81-.71,0-.03,0-.07,0-.1v-.81h-6.53v.81c.02,.43-.31,.79-.74,.81-.02,0-.04,0-.07,0h-.81v.81c.02,.43-.32,.79-.75,.81-.02,0-.04,0-.06,0h-.81v9.76h.81c.42-.03,.78,.29,.81,.71,0,.03,0,.06,0,.1v.81h.81c.42-.03,.78,.29,.81,.71,0,.03,0,.07,0,.1v.81h6.53v-.81c-.02-.43,.31-.79,.74-.81,.02,0,.04,0,.07,0,.42-.03,.78,.29,.81,.71,0,.03,0,.07,0,.1v.81h1.62v-8.11h-6.52v1.62h4.07c.42-.03,.78,.29,.81,.71,0,.03,0,.07,0,.1v1.62c.02,.43-.32,.79-.75,.81-.02,0-.04,0-.06,0h-.81v.81c.02,.43-.31,.79-.74,.81-.02,0-.04,0-.07,0h-4.88c-.42,.03-.78-.29-.81-.71,0-.03,0-.07,0-.1v-.81h-.81c-.42,.03-.78-.29-.81-.71,0-.03,0-.07,0-.1v-8.11c-.02-.43,.31-.79,.74-.81,.02,0,.05,0,.07,0h.81v-.81c-.02-.43,.32-.79,.75-.81,.02,0,.04,0,.06,0h4.88c.42-.03,.78,.29,.81,.71,0,.03,0,.06,0,.09v.81h.81c.42-.03,.78,.29,.81,.71,0,.03,0,.06,0,.1v.81h1.64Zm4.1,.81v-3.26c-.02-.43,.31-.79,.74-.81,.02,0,.04,0,.07,0h7.33v-1.62h-9.79v16.25h9.79v-1.62h-7.33c-.42,.03-.78-.29-.81-.71,0-.03,0-.07,0-.1v-4.88c-.02-.43,.31-.79,.74-.81,.02,0,.04,0,.07,0h5.72v-1.64h-5.72c-.42,.03-.78-.29-.81-.7,0-.03,0-.07,0-.1h0Zm20.41-5.69v10.57c.02,.43-.31,.79-.74,.81-.02,0-.05,0-.07,0-.42,.03-.78-.29-.81-.71,0-.03,0-.07,0-.1v-.81h-.81c-.42,.03-.78-.29-.81-.71,0-.03,0-.07,0-.1v-2.45h-.81c-.42,.03-.78-.29-.81-.71,0-.03,0-.06,0-.1v-.81h-.81c-.42,.03-.78-.29-.81-.71,0-.03,0-.07,0-.1v-2.43h-.81c-.42,.03-.78-.29-.81-.71,0-.03,0-.06,0-.1v-.81h-1.62v16.23h1.62v-10.57c-.02-.43,.31-.79,.74-.81,.02,0,.04,0,.07,0,.43-.02,.79,.31,.81,.74,0,.02,0,.04,0,.07v.81h.81c.42-.03,.78,.29,.81,.71,0,.03,0,.07,0,.1v2.43h.81c.42-.03,.78,.29,.81,.71,0,.03,0,.07,0,.1v.81h.81c.42-.03,.78,.29,.81,.71,0,.03,0,.06,0,.09v2.43h.81c.42-.03,.78,.29,.81,.71,0,.03,0,.07,0,.1v.81h1.62v-16.25h-1.62v.05Zm17.15,4.88v-1.62h-.81c-.42,.03-.78-.29-.81-.71,0-.03,0-.06,0-.1v-.81h-.81c-.42,.03-.78-.29-.81-.71,0-.03,0-.06,0-.1v-.81h-6.52v.81c.02,.43-.31,.79-.74,.81-.02,0-.05,0-.07,0h-.81v.81c.02,.43-.32,.79-.75,.81-.02,0-.04,0-.06,0h-.81v9.76h.81c.42-.03,.78,.29,.81,.71,0,.03,0,.06,0,.1v.81h.81c.42-.03,.78,.29,.81,.71,0,.03,0,.07,0,.1v.81h6.5v-.81c-.02-.43,.31-.79,.74-.81,.02,0,.04,0,.07,0h.81v-.81c-.02-.43,.31-.79,.74-.81,.02,0,.04,0,.07,0h.81v-1.62h-1.62v.81c.02,.43-.32,.79-.75,.81-.02,0-.04,0-.06,0h-.81v.81c.02,.43-.31,.79-.74,.81-.02,0-.05,0-.07,0h-4.88c-.42,.03-.78-.29-.81-.71,0-.03,0-.07,0-.1v-.81h-.81c-.42,.03-.78-.29-.81-.71,0-.03,0-.06,0-.1v-8.11c-.02-.43,.31-.79,.74-.81,.02,0,.04,0,.07,0h.81v-.81c-.02-.43,.31-.79,.74-.81,.02,0,.04,0,.07,0h4.88c.42-.03,.78,.29,.81,.71,0,.03,0,.06,0,.1v.81h.81c.42-.03,.78,.29,.81,.71,0,.03,0,.06,0,.1v.81h1.64v-.03Zm4.1,.81v-3.26c-.02-.43,.32-.79,.75-.81,.02,0,.04,0,.06,0h7.33v-1.62h-9.79v16.25h9.79v-1.62h-7.33c-.42,.03-.78-.29-.81-.71,0-.03,0-.07,0-.1v-4.88c-.02-.43,.32-.79,.74-.81,.02,0,.04,0,.07,0h5.72v-1.64h-5.72c-.41,.04-.78-.26-.81-.67,0-.04,0-.09,0-.13h0Z"/>
  <path id="Path_155" data-name="Path 155" d="M199.38,41.53l-2.76,8.17h-.92l-2.96-8.17h.92l2.48,6.83,2.32-6.83h.92Zm2.12,7.39c.4,.03,.81-.1,1.12-.36,.26-.22,.44-.53,.5-.86h.92c-.04,.38-.18,.74-.42,1.03-.23,.34-.55,.61-.92,.78-.38,.19-.8,.29-1.23,.28-.49,0-.97-.12-1.4-.36-.42-.25-.76-.62-.98-1.06-.24-.5-.37-1.06-.36-1.62-.01-.53,.11-1.05,.36-1.51,.23-.43,.56-.8,.98-1.06,.41-.26,.88-.39,1.37-.39,.7-.03,1.38,.24,1.87,.75,.54,.68,.8,1.54,.73,2.4h-4.35c-.01,.54,.16,1.06,.5,1.48,.35,.33,.83,.51,1.32,.5h0Zm0-4.18c-.39-.01-.78,.12-1.09,.36-.31,.27-.53,.63-.61,1.03h3.34c-.05-.39-.23-.75-.5-1.03-.32-.26-.73-.39-1.14-.36Zm8.31,4.96h-.92v-3.04c.04-.5-.06-1-.28-1.45-.21-.32-.57-.5-.95-.47-.5-.02-.98,.19-1.31,.56-.37,.46-.55,1.03-.5,1.62v2.79h-.98v-5.83h.92v1.01c.2-.34,.49-.61,.84-.78,.34-.17,.71-.25,1.09-.25,.62-.06,1.22,.22,1.59,.73,.35,.65,.51,1.38,.47,2.12l.03,3.01Zm1.95-5.02v3.79c-.02,.11,.02,.22,.08,.31,.09,.04,.18,.06,.28,.06h.92v.86h-.92c-.29,.01-.58-.02-.86-.08-.16-.07-.28-.2-.34-.36-.07-.27-.1-.56-.08-.84v-3.74h-.81v-.81h.81v-1.28h.92v1.28h1.28v.81h-1.28Zm7.14-.84v5.83h-.92v-.84c-.34,.61-1,.96-1.7,.92-.67,.05-1.32-.24-1.73-.78-.4-.64-.59-1.39-.56-2.15v-3.04h.92v3.04c-.03,.52,.11,1.04,.39,1.48,.26,.34,.66,.52,1.09,.5,1.06,0,1.59-.72,1.59-2.2v-2.82h.92v.05Zm1.87,1.06c.47-.71,1.3-1.11,2.15-1.03v.92c-.58-.04-1.15,.15-1.59,.53-.42,.41-.63,.98-.59,1.56v2.79h-.92v-5.83h.92v1.06h.03Zm5.21,4.01c.4,.03,.81-.1,1.12-.36,.26-.22,.44-.53,.5-.86h.92c-.04,.38-.18,.74-.42,1.03-.23,.34-.55,.61-.92,.78-.38,.19-.8,.29-1.23,.28-.49,0-.97-.12-1.4-.36-.42-.25-.76-.62-.98-1.06-.24-.5-.37-1.06-.36-1.62-.01-.53,.11-1.05,.36-1.51,.23-.43,.56-.8,.98-1.06,.41-.26,.88-.39,1.37-.39,.7-.03,1.38,.24,1.87,.75,.54,.68,.8,1.54,.73,2.4h-4.35c-.01,.54,.16,1.06,.5,1.48,.36,.33,.83,.5,1.32,.5h0Zm0-4.18c-.39-.01-.78,.12-1.09,.36-.31,.27-.53,.63-.61,1.03h3.35c-.05-.39-.23-.75-.5-1.03-.32-.27-.73-.4-1.14-.36h0Zm3.12,3.1c0,.58,.27,1.13,.72,1.5,.47,.32,1.02,.49,1.59,.48,.56,.02,1.13-.11,1.62-.39,.43-.28,.66-.78,.61-1.28,.02-.44-.15-.87-.47-1.17-.42-.35-.95-.56-1.51-.58-1.06-.11-1.59-.39-1.59-.86-.03-.3,.13-.58,.39-.73,.29-.15,.62-.23,.95-.22,.33-.01,.66,.09,.92,.31,.22,.21,.37,.48,.42,.78h.86c0-.55-.25-1.07-.67-1.42-.43-.35-.98-.53-1.53-.5-.54,0-1.07,.13-1.54,.39-.46,.29-.72,.8-.67,1.34-.04,.42,.13,.84,.45,1.11,.42,.29,.91,.47,1.42,.5,.46,.04,.91,.17,1.31,.39,.24,.13,.39,.37,.39,.64,.03,.28-.1,.55-.34,.7-.31,.14-.66,.21-1,.2-.67,.1-1.29-.37-1.38-1.04,0-.04-.01-.09-.01-.13h-.95Z"/>
</svg>