<svg id="Group_91" data-name="Group 91" xmlns="http://www.w3.org/2000/svg" width="167.253" height="16.449" viewBox="0 0 167.253 16.449">
  <path id="Path_154" data-name="Path 154" d="M-249.282,373.518a.761.761,0,0,1-.809-.809V371.9h-.809a.761.761,0,0,1-.809-.807v-.809h-8.139v16.225h8.139V385.7a.776.776,0,0,1,.809-.809h.809v-.809a.775.775,0,0,1,.809-.807h.807v-9.758Zm-.809.807v8.114a.778.778,0,0,1-.809.809h-.809v.807a.774.774,0,0,1-.807.809h-4.907a.761.761,0,0,1-.809-.809V372.68a.778.778,0,0,1,.809-.809h4.879a.763.763,0,0,1,.809.809v.809h.807A.805.805,0,0,1-250.091,374.325Zm4.1-4.07v16.253h1.616V370.255Zm13.884,0v2.426a.776.776,0,0,1-.807.809h-.809v4.07a.776.776,0,0,1-.809.809h-.807v4.07a.778.778,0,0,1-.809.809.763.763,0,0,1-.809-.809v-4.07h-.807a.763.763,0,0,1-.809-.809v-4.07h-.809a.761.761,0,0,1-.807-.809v-2.426h-1.619v3.263H-241a.761.761,0,0,1,.809.807V378.4h.807a.76.76,0,0,1,.809.807v4.072h.809a.759.759,0,0,1,.807.807v2.425h1.619v-2.425a.774.774,0,0,1,.807-.807h.809V379.2a.776.776,0,0,1,.809-.807h.807v-4.072a.776.776,0,0,1,.809-.807h.809v-3.263Zm5.744,5.688V372.68a.776.776,0,0,1,.809-.809h7.333v-1.616h-9.786v16.253h9.786v-1.616h-7.333a.761.761,0,0,1-.809-.809V379.2a.775.775,0,0,1,.809-.807h5.714V376.75h-5.714A.76.76,0,0,1-226.365,375.943Zm19.6-4.072a.761.761,0,0,1-.809-.807v-.809h-8.139v16.253h1.616v-5.686a.775.775,0,0,1,.809-.809h1.616a.761.761,0,0,1,.809.809v.807h.807a.761.761,0,0,1,.809.809v2.425h.809a.76.76,0,0,1,.807.809v.807h1.619v-1.616h-.809a.761.761,0,0,1-.809-.809v-2.426h-.807a.761.761,0,0,1-.809-.807.775.775,0,0,1,.809-.809h.807V379.2a.776.776,0,0,1,.809-.807h.809v-6.5h-.753Zm-.809.837v4.879a.776.776,0,0,1-.807.809h-4.879a.761.761,0,0,1-.809-.809v-4.879a.776.776,0,0,1,.809-.809h4.879A.747.747,0,0,1-207.575,372.708Zm17.147,2.426v-1.616h-.807a.761.761,0,0,1-.809-.809V371.9h-.809a.759.759,0,0,1-.807-.807v-.809h-6.526v.809a.774.774,0,0,1-.807.807h-.809v.809a.778.778,0,0,1-.809.809h-.809v9.758h.809a.761.761,0,0,1,.809.807v.809h.809a.76.76,0,0,1,.807.809v.807h6.526V385.7a.775.775,0,0,1,.807-.809.761.761,0,0,1,.809.809v.807h1.616V378.4h-6.523v1.616h4.07a.761.761,0,0,1,.809.809v1.616a.778.778,0,0,1-.809.809h-.807v.807a.776.776,0,0,1-.809.809h-4.879a.761.761,0,0,1-.809-.809v-.807h-.807a.761.761,0,0,1-.809-.809v-8.114a.775.775,0,0,1,.809-.807h.807v-.809a.778.778,0,0,1,.809-.809h4.879a.763.763,0,0,1,.809.809v.809h.807a.761.761,0,0,1,.809.807v.809Zm4.1.809V372.68a.776.776,0,0,1,.807-.809h7.333v-1.616h-9.786v16.253h9.786v-1.616h-7.333a.76.76,0,0,1-.807-.809V379.2a.774.774,0,0,1,.807-.807h5.716V376.75h-5.716A.759.759,0,0,1-186.328,375.943Zm20.407-5.688v10.567a.774.774,0,0,1-.809.807.759.759,0,0,1-.807-.807v-.809h-.809a.761.761,0,0,1-.809-.809V376.75h-.807a.761.761,0,0,1-.809-.807v-.809h-.809a.76.76,0,0,1-.807-.809V371.9h-.809a.761.761,0,0,1-.809-.807v-.809h-1.616v16.225h1.616V375.943a.776.776,0,0,1,.809-.809.776.776,0,0,1,.809.809v.807h.807a.761.761,0,0,1,.809.809v2.426h.809a.76.76,0,0,1,.807.809v.807h.809a.763.763,0,0,1,.809.809v2.426h.807a.761.761,0,0,1,.809.809v.807h1.616V370.2h-1.616Zm17.147,4.879v-1.616h-.809a.761.761,0,0,1-.807-.809V371.9h-.809a.761.761,0,0,1-.809-.807v-.809h-6.523v.809a.774.774,0,0,1-.809.807h-.807v.809a.778.778,0,0,1-.809.809h-.809v9.758h.809a.761.761,0,0,1,.809.807v.809h.807a.76.76,0,0,1,.809.809v.807h6.5V385.7a.776.776,0,0,1,.809-.809h.809v-.809a.774.774,0,0,1,.807-.807h.809v-1.619h-1.616v.809a.778.778,0,0,1-.809.809h-.809v.807a.774.774,0,0,1-.807.809h-4.879a.761.761,0,0,1-.809-.809v-.807h-.809a.761.761,0,0,1-.807-.809v-8.114a.774.774,0,0,1,.807-.807h.809v-.809a.776.776,0,0,1,.809-.809h4.879a.761.761,0,0,1,.807.809v.809h.809a.761.761,0,0,1,.809.807v.809h1.644Zm4.1.809V372.68a.778.778,0,0,1,.809-.809h7.332v-1.616h-9.786v16.253h9.786v-1.616h-7.332a.761.761,0,0,1-.809-.809V379.2a.776.776,0,0,1,.809-.807h5.716V376.75h-5.716A.747.747,0,0,1-144.677,375.943Z" transform="translate(259.849 -370.059)"/>
  <path id="Path_155" data-name="Path 155" d="M-199.037,370.139l-2.759,8.17h-.921l-2.955-8.17h.921l2.479,6.831,2.316-6.831Zm2.12,7.389a1.545,1.545,0,0,0,1.115-.362,1.469,1.469,0,0,0,.5-.865h.921a1.925,1.925,0,0,1-.42,1.031,2.273,2.273,0,0,1-.919.781,2.562,2.562,0,0,1-1.227.28,2.663,2.663,0,0,1-1.395-.364,2.559,2.559,0,0,1-.975-1.059,3.622,3.622,0,0,1-.364-1.616,3,3,0,0,1,.364-1.507,2.759,2.759,0,0,1,.975-1.059,2.587,2.587,0,0,1,1.367-.39,2.435,2.435,0,0,1,1.868.751,3.382,3.382,0,0,1,.725,2.4h-4.35a2.282,2.282,0,0,0,.5,1.479A1.836,1.836,0,0,0-196.917,377.527Zm0-4.182a1.653,1.653,0,0,0-1.087.362,1.827,1.827,0,0,0-.613,1.033h3.344a1.816,1.816,0,0,0-.5-1.033A1.618,1.618,0,0,0-196.917,373.346Zm8.307,4.963h-.919V375.27a2.768,2.768,0,0,0-.28-1.451,1.04,1.04,0,0,0-.947-.474,1.686,1.686,0,0,0-1.311.557,2.29,2.29,0,0,0-.5,1.616v2.789h-.977V372.48h.921v1.005a2.024,2.024,0,0,1,.835-.781,2.4,2.4,0,0,1,1.089-.252,1.757,1.757,0,0,1,1.588.725,3.992,3.992,0,0,1,.473,2.12Zm1.952-5.019v3.792a.4.4,0,0,0,.084.306.6.6,0,0,0,.278.056h.921v.865h-.921a3.145,3.145,0,0,1-.863-.084.615.615,0,0,1-.336-.361,2.939,2.939,0,0,1-.084-.837V373.29h-.807v-.809h.807V371.2h.921v1.28h1.283v.809Zm7.137-.837v5.828h-.919v-.837a1.828,1.828,0,0,1-1.7.921,1.985,1.985,0,0,1-1.731-.781,3.709,3.709,0,0,1-.557-2.146V372.4h.921v3.039a2.519,2.519,0,0,0,.389,1.476,1.274,1.274,0,0,0,1.087.5c1.061,0,1.591-.723,1.591-2.2V372.4h.919Zm1.868,1.061a2.33,2.33,0,0,1,2.148-1.033v.921a2.247,2.247,0,0,0-1.591.529,1.966,1.966,0,0,0-.585,1.563v2.787h-.919v-5.828h.919v1.061Zm5.215,4.014a1.545,1.545,0,0,0,1.115-.362,1.469,1.469,0,0,0,.5-.865h.921a1.925,1.925,0,0,1-.42,1.031,2.272,2.272,0,0,1-.919.781,2.562,2.562,0,0,1-1.227.28,2.663,2.663,0,0,1-1.395-.364,2.559,2.559,0,0,1-.975-1.059,3.621,3.621,0,0,1-.364-1.616,3,3,0,0,1,.364-1.507,2.758,2.758,0,0,1,.975-1.059,2.587,2.587,0,0,1,1.367-.39,2.435,2.435,0,0,1,1.868.751,3.382,3.382,0,0,1,.725,2.4h-4.35a2.282,2.282,0,0,0,.5,1.479A1.934,1.934,0,0,0-172.438,377.527Zm0-4.182a1.664,1.664,0,0,0-1.089.362,1.852,1.852,0,0,0-.613,1.033h3.347a1.816,1.816,0,0,0-.5-1.033A1.573,1.573,0,0,0-172.438,373.346Zm3.123,3.095a1.946,1.946,0,0,0,.723,1.5,2.745,2.745,0,0,0,1.591.476,3,3,0,0,0,1.616-.392,1.385,1.385,0,0,0,.613-1.283,1.516,1.516,0,0,0-.473-1.171,2.53,2.53,0,0,0-1.507-.585c-1.059-.11-1.588-.389-1.588-.863a.752.752,0,0,1,.389-.725,2.065,2.065,0,0,1,.949-.224,1.347,1.347,0,0,1,.919.308,1.425,1.425,0,0,1,.42.781h.863a1.918,1.918,0,0,0-.669-1.423,2.246,2.246,0,0,0-1.532-.5,3.054,3.054,0,0,0-1.535.389,1.434,1.434,0,0,0-.669,1.339,1.335,1.335,0,0,0,.448,1.115,2.8,2.8,0,0,0,1.42.5,3.307,3.307,0,0,1,1.311.392.736.736,0,0,1,.392.639.744.744,0,0,1-.336.7,2.266,2.266,0,0,1-1,.2,1.223,1.223,0,0,1-1.395-1.171Z" transform="translate(332.025 -370.139)"/>
</svg>
