<?xml version="1.0" encoding="utf-8"?>
<!-- Generator: Adobe Illustrator 26.3.1, SVG Export Plug-In . SVG Version: 6.00 Build 0)  -->
<svg version="1.1" id="Group_91" xmlns="http://www.w3.org/2000/svg" xmlns:xlink="http://www.w3.org/1999/xlink" x="0px" y="0px"
	 viewBox="0 0 167.3 16.4" style="enable-background:new 0 0 167.3 16.4;" xml:space="preserve">
<style type="text/css">
	.st0{fill:#2666B0;}
</style>
<path id="Path_154" class="st0" d="M10.6,3.5c-0.4,0-0.8-0.3-0.8-0.7c0,0,0-0.1,0-0.1V1.8H8.9c-0.4,0-0.8-0.3-0.8-0.7
	c0,0,0-0.1,0-0.1V0.2H0v16.2h8.1v-0.8c0-0.4,0.3-0.8,0.7-0.8c0,0,0,0,0.1,0h0.8V14c0-0.4,0.3-0.8,0.7-0.8c0,0,0,0,0.1,0h0.8V3.5
	L10.6,3.5z M9.8,4.3v8.1c0,0.4-0.3,0.8-0.7,0.8c0,0,0,0-0.1,0H8.1V14c0,0.4-0.3,0.8-0.7,0.8c0,0,0,0-0.1,0H2.4
	c-0.4,0-0.8-0.3-0.8-0.7c0,0,0-0.1,0-0.1V2.6c0-0.4,0.3-0.8,0.7-0.8c0,0,0,0,0.1,0h4.9c0.4,0,0.8,0.3,0.8,0.7c0,0,0,0.1,0,0.1v0.8
	h0.8C9.4,3.4,9.7,3.8,9.8,4.3C9.8,4.2,9.8,4.2,9.8,4.3z M13.9,0.2v16.3h1.6V0.2H13.9z M27.7,0.2v2.4c0,0.4-0.3,0.8-0.7,0.8
	c0,0,0,0-0.1,0h-0.8v4.1c0,0.4-0.3,0.8-0.7,0.8c0,0,0,0-0.1,0h-0.8v4.1c0,0.4-0.3,0.8-0.7,0.8c0,0,0,0-0.1,0c-0.4,0-0.8-0.3-0.8-0.7
	c0,0,0-0.1,0-0.1V8.3h-0.8c-0.4,0-0.8-0.3-0.8-0.7c0,0,0-0.1,0-0.1V3.4h-0.8c-0.4,0-0.8-0.3-0.8-0.7c0,0,0-0.1,0-0.1V0.2H18v3.3h0.8
	c0.4,0,0.8,0.3,0.8,0.7c0,0,0,0.1,0,0.1v4.1h0.8c0.4,0,0.8,0.3,0.8,0.7c0,0,0,0.1,0,0.1v4.1h0.8c0.4,0,0.8,0.3,0.8,0.7
	c0,0,0,0.1,0,0.1v2.4h1.6V14c0-0.4,0.3-0.8,0.7-0.8c0,0,0,0,0.1,0h0.8V9.1c0-0.4,0.3-0.8,0.7-0.8c0,0,0,0,0.1,0h0.8V4.3
	c0-0.4,0.3-0.8,0.7-0.8c0,0,0,0,0.1,0h0.8V0.2L27.7,0.2z M33.5,5.9V2.6c0-0.4,0.3-0.8,0.7-0.8c0,0,0,0,0.1,0h7.3V0.2h-9.8v16.3h9.8
	v-1.6h-7.3c-0.4,0-0.8-0.3-0.8-0.7c0,0,0-0.1,0-0.1V9.1c0-0.4,0.3-0.8,0.7-0.8c0,0,0,0,0.1,0H40V6.7h-5.7c-0.4,0-0.8-0.3-0.8-0.7
	C33.5,6,33.5,5.9,33.5,5.9L33.5,5.9z M53.1,1.8c-0.4,0-0.8-0.3-0.8-0.7c0,0,0-0.1,0-0.1V0.2h-8.1v16.3h1.6v-5.7
	c0-0.4,0.3-0.8,0.7-0.8c0,0,0,0,0.1,0h1.6c0.4,0,0.8,0.3,0.8,0.7c0,0,0,0.1,0,0.1v0.8h0.8c0.4,0,0.8,0.3,0.8,0.7c0,0,0,0.1,0,0.1
	v2.4h0.8c0.4,0,0.8,0.3,0.8,0.7c0,0,0,0.1,0,0.1v0.8h1.6v-1.6H53c-0.4,0-0.8-0.3-0.8-0.7c0,0,0-0.1,0-0.1v-2.4h-0.8
	c-0.4,0-0.8-0.3-0.8-0.7c0,0,0-0.1,0-0.1c0-0.4,0.3-0.8,0.7-0.8c0,0,0,0,0.1,0h0.8V9.1c0-0.4,0.3-0.8,0.7-0.8c0,0,0,0,0.1,0h0.8V1.8
	L53.1,1.8L53.1,1.8z M52.3,2.6v4.9c0,0.4-0.3,0.8-0.7,0.8c0,0,0,0-0.1,0h-4.9c-0.4,0-0.8-0.3-0.8-0.7c0,0,0-0.1,0-0.1V2.6
	c0-0.4,0.3-0.8,0.7-0.8c0,0,0,0,0.1,0h4.9c0.4,0,0.8,0.3,0.8,0.7C52.3,2.6,52.3,2.6,52.3,2.6L52.3,2.6z M69.4,5.1V3.5h-0.8
	c-0.4,0-0.8-0.3-0.8-0.7c0,0,0-0.1,0-0.1V1.8H67c-0.4,0-0.8-0.3-0.8-0.7c0,0,0-0.1,0-0.1V0.2h-6.5V1c0,0.4-0.3,0.8-0.7,0.8
	c0,0,0,0-0.1,0H58v0.8c0,0.4-0.3,0.8-0.7,0.8c0,0,0,0-0.1,0h-0.8v9.8h0.8c0.4,0,0.8,0.3,0.8,0.7c0,0,0,0.1,0,0.1v0.8h0.8
	c0.4,0,0.8,0.3,0.8,0.7c0,0,0,0.1,0,0.1v0.8h6.5v-0.8c0-0.4,0.3-0.8,0.7-0.8c0,0,0,0,0.1,0c0.4,0,0.8,0.3,0.8,0.7c0,0,0,0.1,0,0.1
	v0.8h1.6V8.3h-6.5V10H67c0.4,0,0.8,0.3,0.8,0.7c0,0,0,0.1,0,0.1v1.6c0,0.4-0.3,0.8-0.7,0.8c0,0,0,0-0.1,0h-0.8V14
	c0,0.4-0.3,0.8-0.7,0.8c0,0,0,0-0.1,0h-4.9c-0.4,0-0.8-0.3-0.8-0.7c0,0,0-0.1,0-0.1v-0.8h-0.8c-0.4,0-0.8-0.3-0.8-0.7
	c0,0,0-0.1,0-0.1V4.3c0-0.4,0.3-0.8,0.7-0.8c0,0,0,0,0.1,0h0.8V2.7c0-0.4,0.3-0.8,0.7-0.8c0,0,0,0,0.1,0h4.9c0.4,0,0.8,0.3,0.8,0.7
	c0,0,0,0.1,0,0.1v0.8H67c0.4,0,0.8,0.3,0.8,0.7c0,0,0,0.1,0,0.1v0.8L69.4,5.1z M73.5,5.9V2.6c0-0.4,0.3-0.8,0.7-0.8c0,0,0,0,0.1,0
	h7.3V0.2h-9.8v16.3h9.8v-1.6h-7.3c-0.4,0-0.8-0.3-0.8-0.7c0,0,0-0.1,0-0.1V9.1c0-0.4,0.3-0.8,0.7-0.8c0,0,0,0,0.1,0H80V6.7h-5.7
	c-0.4,0-0.8-0.3-0.8-0.7C73.5,6,73.5,5.9,73.5,5.9L73.5,5.9z M93.9,0.2v10.6c0,0.4-0.3,0.8-0.7,0.8c0,0,0,0-0.1,0
	c-0.4,0-0.8-0.3-0.8-0.7c0,0,0-0.1,0-0.1V10h-0.8c-0.4,0-0.8-0.3-0.8-0.7c0,0,0-0.1,0-0.1V6.7h-0.8c-0.4,0-0.8-0.3-0.8-0.7
	c0,0,0-0.1,0-0.1V5.1h-0.8c-0.4,0-0.8-0.3-0.8-0.7c0,0,0-0.1,0-0.1V1.8h-0.8c-0.4,0-0.8-0.3-0.8-0.7c0,0,0-0.1,0-0.1V0.2h-1.6v16.2
	h1.6V5.9c0-0.4,0.3-0.8,0.7-0.8c0,0,0,0,0.1,0c0.4,0,0.8,0.3,0.8,0.7c0,0,0,0,0,0.1v0.8h0.8c0.4,0,0.8,0.3,0.8,0.7c0,0,0,0.1,0,0.1
	v2.4h0.8c0.4,0,0.8,0.3,0.8,0.7c0,0,0,0.1,0,0.1v0.8h0.8c0.4,0,0.8,0.3,0.8,0.7c0,0,0,0.1,0,0.1v2.4h0.8c0.4,0,0.8,0.3,0.8,0.7
	c0,0,0,0.1,0,0.1v0.8h1.6V0.1L93.9,0.2L93.9,0.2z M111.1,5.1V3.5h-0.8c-0.4,0-0.8-0.3-0.8-0.7c0,0,0-0.1,0-0.1V1.8h-0.8
	c-0.4,0-0.8-0.3-0.8-0.7c0,0,0-0.1,0-0.1V0.2h-6.5V1c0,0.4-0.3,0.8-0.7,0.8c0,0,0,0-0.1,0h-0.8v0.8c0,0.4-0.3,0.8-0.7,0.8
	c0,0,0,0-0.1,0h-0.8v9.8h0.8c0.4,0,0.8,0.3,0.8,0.7c0,0,0,0.1,0,0.1v0.8h0.8c0.4,0,0.8,0.3,0.8,0.7c0,0,0,0.1,0,0.1v0.8h6.5v-0.8
	c0-0.4,0.3-0.8,0.7-0.8c0,0,0,0,0.1,0h0.8V14c0-0.4,0.3-0.8,0.7-0.8c0,0,0,0,0.1,0h0.8v-1.6h-1.6v0.8c0,0.4-0.3,0.8-0.7,0.8
	c0,0,0,0-0.1,0h-0.8V14c0,0.4-0.3,0.8-0.7,0.8c0,0,0,0-0.1,0h-4.9c-0.4,0-0.8-0.3-0.8-0.7c0,0,0-0.1,0-0.1v-0.8h-0.8
	c-0.4,0-0.8-0.3-0.8-0.7c0,0,0-0.1,0-0.1V4.3c0-0.4,0.3-0.8,0.7-0.8c0,0,0,0,0.1,0h0.8V2.7c0-0.4,0.3-0.8,0.7-0.8c0,0,0,0,0.1,0h4.9
	c0.4,0,0.8,0.3,0.8,0.7c0,0,0,0.1,0,0.1v0.8h0.8c0.4,0,0.8,0.3,0.8,0.7c0,0,0,0.1,0,0.1v0.8L111.1,5.1L111.1,5.1z M115.2,5.9V2.6
	c0-0.4,0.3-0.8,0.7-0.8c0,0,0,0,0.1,0h7.3V0.2h-9.8v16.3h9.8v-1.6H116c-0.4,0-0.8-0.3-0.8-0.7c0,0,0-0.1,0-0.1V9.1
	c0-0.4,0.3-0.8,0.7-0.8c0,0,0,0,0.1,0h5.7V6.7H116c-0.4,0-0.8-0.3-0.8-0.7C115.2,6,115.2,5.9,115.2,5.9L115.2,5.9z"/>
<path id="Path_155" class="st0" d="M133,0l-2.8,8.2h-0.9l-3-8.2h0.9l2.5,6.8l2.3-6.8H133z M135.1,7.4c0.4,0,0.8-0.1,1.1-0.4
	c0.3-0.2,0.4-0.5,0.5-0.9h0.9c0,0.4-0.2,0.7-0.4,1c-0.2,0.3-0.5,0.6-0.9,0.8c-0.4,0.2-0.8,0.3-1.2,0.3c-0.5,0-1-0.1-1.4-0.4
	c-0.4-0.3-0.8-0.6-1-1.1c-0.2-0.5-0.4-1.1-0.4-1.6c0-0.5,0.1-1,0.4-1.5c0.2-0.4,0.6-0.8,1-1.1c0.4-0.3,0.9-0.4,1.4-0.4
	c0.7,0,1.4,0.2,1.9,0.8c0.5,0.7,0.8,1.5,0.7,2.4h-4.4c0,0.5,0.2,1.1,0.5,1.5C134.1,7.2,134.6,7.4,135.1,7.4L135.1,7.4z M135.1,3.2
	c-0.4,0-0.8,0.1-1.1,0.4c-0.3,0.3-0.5,0.6-0.6,1h3.3c-0.1-0.4-0.2-0.8-0.5-1C135.9,3.3,135.5,3.2,135.1,3.2z M143.4,8.2h-0.9v-3
	c0-0.5-0.1-1-0.3-1.5c-0.2-0.3-0.6-0.5-0.9-0.5c-0.5,0-1,0.2-1.3,0.6c-0.4,0.5-0.5,1-0.5,1.6v2.8h-1V2.3h0.9v1
	c0.2-0.3,0.5-0.6,0.8-0.8c0.3-0.2,0.7-0.3,1.1-0.3c0.6-0.1,1.2,0.2,1.6,0.7c0.4,0.6,0.5,1.4,0.5,2.1L143.4,8.2z M145.4,3.2v3.8
	c0,0.1,0,0.2,0.1,0.3c0.1,0,0.2,0.1,0.3,0.1h0.9v0.9h-0.9c-0.3,0-0.6,0-0.9-0.1c-0.2-0.1-0.3-0.2-0.3-0.4c-0.1-0.3-0.1-0.6-0.1-0.8
	V3.2h-0.8V2.3h0.8V1.1h0.9v1.3h1.3v0.8L145.4,3.2z M152.5,2.3v5.8h-0.9V7.3c-0.3,0.6-1,1-1.7,0.9c-0.7,0.1-1.3-0.2-1.7-0.8
	c-0.4-0.6-0.6-1.4-0.6-2.1v-3h0.9v3c0,0.5,0.1,1,0.4,1.5c0.3,0.3,0.7,0.5,1.1,0.5c1.1,0,1.6-0.7,1.6-2.2V2.3L152.5,2.3L152.5,2.3z
	 M154.4,3.4c0.5-0.7,1.3-1.1,2.1-1v0.9c-0.6,0-1.1,0.2-1.6,0.5c-0.4,0.4-0.6,1-0.6,1.6v2.8h-0.9V2.3h0.9L154.4,3.4L154.4,3.4z
	 M159.6,7.4c0.4,0,0.8-0.1,1.1-0.4c0.3-0.2,0.4-0.5,0.5-0.9h0.9c0,0.4-0.2,0.7-0.4,1c-0.2,0.3-0.5,0.6-0.9,0.8
	c-0.4,0.2-0.8,0.3-1.2,0.3c-0.5,0-1-0.1-1.4-0.4c-0.4-0.3-0.8-0.6-1-1.1c-0.2-0.5-0.4-1.1-0.4-1.6c0-0.5,0.1-1,0.4-1.5
	c0.2-0.4,0.6-0.8,1-1.1c0.4-0.3,0.9-0.4,1.4-0.4c0.7,0,1.4,0.2,1.9,0.8c0.5,0.7,0.8,1.5,0.7,2.4h-4.4c0,0.5,0.2,1.1,0.5,1.5
	C158.6,7.2,159.1,7.4,159.6,7.4L159.6,7.4z M159.6,3.2c-0.4,0-0.8,0.1-1.1,0.4c-0.3,0.3-0.5,0.6-0.6,1h3.3c-0.1-0.4-0.2-0.8-0.5-1
	C160.4,3.3,160,3.2,159.6,3.2L159.6,3.2z M162.7,6.3c0,0.6,0.3,1.1,0.7,1.5c0.5,0.3,1,0.5,1.6,0.5c0.6,0,1.1-0.1,1.6-0.4
	c0.4-0.3,0.7-0.8,0.6-1.3c0-0.4-0.2-0.9-0.5-1.2c-0.4-0.4-1-0.6-1.5-0.6c-1.1-0.1-1.6-0.4-1.6-0.9c0-0.3,0.1-0.6,0.4-0.7
	c0.3-0.1,0.6-0.2,0.9-0.2c0.3,0,0.7,0.1,0.9,0.3c0.2,0.2,0.4,0.5,0.4,0.8h0.9c0-0.5-0.3-1.1-0.7-1.4c-0.4-0.4-1-0.5-1.5-0.5
	c-0.5,0-1.1,0.1-1.5,0.4c-0.5,0.3-0.7,0.8-0.7,1.3c0,0.4,0.1,0.8,0.4,1.1c0.4,0.3,0.9,0.5,1.4,0.5c0.5,0,0.9,0.2,1.3,0.4
	c0.2,0.1,0.4,0.4,0.4,0.6c0,0.3-0.1,0.5-0.3,0.7c-0.3,0.1-0.7,0.2-1,0.2c-0.7,0.1-1.3-0.4-1.4-1c0,0,0-0.1,0-0.1L162.7,6.3z"/>
</svg>
