<svg id="Group_93" data-name="Group 93" xmlns="http://www.w3.org/2000/svg" width="122.471" height="56.52" viewBox="0 0 122.471 56.52">
  <rect id="Rectangle_53" data-name="Rectangle 53" width="122.471" height="56.52" fill="#010000"/>
  <g id="Group_92" data-name="Group 92" transform="translate(9.169 5.169)">
    <path id="Path_156" data-name="Path 156" d="M-143.085,378.608c1.81.091,2.393-1.455,3.232-2.556.282-.371.355-.788.91-.688.59.107.539.548.392.945-.177.48.14.609.429.847a2.533,2.533,0,0,1,.161,3.876c-.441.375-.812.66-.8,1.283a.587.587,0,0,1-.483.583c-.445.11-.438-.31-.634-.527-.938-1.043-1.308-2.785-3.209-2.668Zm3.615-.868a2.927,2.927,0,0,0-1.6,1.311c-.1.2,1.518,1.824,1.651,1.7.578-.525,1.532-.959,1.474-1.726A1.7,1.7,0,0,0-139.47,377.74Z" transform="translate(143.085 -348.333)" fill="#24051e"/>
    <path id="Path_157" data-name="Path 157" d="M-134.968,368.009c.462.254.7-.427,1.136-.273,1.131.138,1.455,1.553,2.612,1.647a19.138,19.138,0,0,1-1.343,4.1,3.276,3.276,0,0,0,.784,3.491,3.208,3.208,0,0,1,.938.128,4.421,4.421,0,0,0,5.8-2.129c1.3-.243,1.654-1.577,2.579-2.262.184-.138-.168-.592-.543-.527a4.1,4.1,0,0,0-1.136.378,10.741,10.741,0,0,1-4.825,1.444c.264-.641.459-1.252-.907-1.178,1.453-1.306,3.023-1.721,4.382-2.488,1.486-.84,3.286-.821,4.8-1.572.744-.368,1.381-.714,2.185-.306a36.755,36.755,0,0,0-2.1,4.629,16.751,16.751,0,0,1-3.722,5.828l-.012.021-.208.238-.072.037c-.233-.035-.455-.042-.56.233l0-.007c-.336.231-.851.124-1.08.564v0a.342.342,0,0,0-.215.114,6.8,6.8,0,0,0-1.339.173c-2.045.69-3.986.833-5.642-.891a3.365,3.365,0,0,1-1.849-1.717c-.749-1.486-.448-3.1-.546-4.674a21.665,21.665,0,0,0,2.342-1.938,1.957,1.957,0,0,0,.049-2.376.414.414,0,0,0-.55-.24c-.243.082-.406.18-.331.469a1.325,1.325,0,0,1-.553,1.418Z" transform="translate(152.73 -358.505)" fill="#f6e7f6"/>
    <path id="Path_158" data-name="Path 158" d="M-128.089,368.063c.026.779.054,1.558.079,2.337-.007.266-.177.35-.4.455a42.963,42.963,0,0,0-5.019,2.705c-.222.145-.518.354-.359.639.17.305.443.107.695-.021a3.763,3.763,0,0,1,2.551-.562l.007.886c-.739-.03-.4.875-1.012,1.1-1.026.369-1.933,1.059-2.953,1.455-1.154.45-.639,1.649-1.206,2.337-.016.021.142.182.219.278.371-.653,1.462-.014,1.682-.94l.532-.056c.739.224,1.574-.252,2.267.312l-.028.263c-.585.546-.464,1.714-1.336,1.9-2.111.455-3.774,1.779-5.667,2.647-.6.273-1.133.474-1.339,1.141l-.441.009c-.322-.816-1.649-1.294-1.026-2.37a7.358,7.358,0,0,0,.487-1.392c.763-2.111,1.661-4.175,2.447-6.278.354-.954.546-1.968.84-2.948.564-1.877,2.36-2.3,3.809-3.055,1.087-.564,2.44-.422,3.582-1.049A1.289,1.289,0,0,1-128.089,368.063Z" transform="translate(145.852 -358.559)" fill="#f9ecf9"/>
    <path id="Path_159" data-name="Path 159" d="M-125.853,379.771l-.245-.459a5.206,5.206,0,0,0,1.04-2.65c.471-1.863,1.5-3.489,1.964-5.331.177.035.271,0,.184-.205l.04-1.115a4.284,4.284,0,0,0,.977-2.729c.525-1.728,2-1.812,3.44-2.183a29.918,29.918,0,0,1,3.2-.52c.893-.131,1.346.9,2.192.557-.4,1.105,1.04.891,1.164,1.619l.07.723a3.621,3.621,0,0,1-1.593,3.032c-.686.546-1.187,1.32-1.866,1.88a1.189,1.189,0,0,0-.315,1.728c.767,1.047.851,2.353,1.5,3.435.634,1.061.2,1.628-.966,1.738l-.378-.016a5.965,5.965,0,0,1-1.656-2.67,1.972,1.972,0,0,0-1.077-1.654c-.126-.327.352-1.1-.6-.807-1.919.019-2.328.471-3.1,2.048-.725,1.486-1.294,3.258-3.258,3.722Zm10.7-13.067c-.772-.83-3.048-.406-3.606.59-.683,1.215-.828,2.61-1.453,3.851-.38.753.28.886.914.737.588.3.595-.609,1.208-.515,1.686.252,2.785-.879,3.7-2.029.389-.49,1.152-1.12.763-1.889A1.44,1.44,0,0,0-115.151,366.7Z" transform="translate(165.715 -362.696)" fill="#f6e7f6"/>
    <path id="Path_160" data-name="Path 160" d="M-120.825,370.933c-.8-.408-1.441-.063-2.185.306-1.514.751-3.314.732-4.8,1.572-1.36.767-2.929,1.182-4.382,2.488,1.367-.075,1.171.536.907,1.178.756,1.64,1.152,1.8,2.775,1.2a7.48,7.48,0,0,1,1.15-.231,4.421,4.421,0,0,1-5.8,2.129,3.206,3.206,0,0,0-.938-.128,17.6,17.6,0,0,1,2.794-8.692,24.608,24.608,0,0,0,3.034-2.983c.4-.117.9-.028,1.08-.557l.016-.014.513-.1.6.03,1.273.966c.247.455-.315,1.383.539,1.406,2.444.065,2.885-.5,2.691-3.048-.012-.177-.016-.357-.023-.536,1.08-.2,1.518.138.98,1.215-.317.641-.18.917.55.9.345-.007.884,0,.6.553-.651,1.285.25,1.07.961,1.075.194.581-.672.667-.539,1.346.205,1.038-.576,1.924-.788,2.906-.327,1.511-1.222,2.852-1.262,4.438-.658.954-1.621,1.765-1.777,2.969-.086.665-.336.91-.91.893a1.106,1.106,0,0,0-1.308,1.036c-.084.427-.38,1.378-1.094.331a.234.234,0,0,0-.429.028c-.149.52-.938.926-.313,1.6-.837.31-.753-.539-1.087-.861l-.275-.252.273-.511a.241.241,0,0,0,.266-.249l.009-.012.408-.229.065.049.07-.04c.525-.259,1.241-.2,1.5-.9a.087.087,0,0,0,.128-.075c.156.051.231-.014.24-.17l.023-.037a3.214,3.214,0,0,0,.541-.4,16.907,16.907,0,0,0,3.634-7.223C-120.846,373.3-120.23,372.1-120.825,370.933Z" transform="translate(155.052 -360.972)" fill="#12060d"/>
    <path id="Path_161" data-name="Path 161" d="M-132.37,374.155c-1.157-.093-1.481-1.509-2.612-1.647.089-1.245,1.024-2.048,1.7-2.922a23.934,23.934,0,0,1,3.146-3.193,7.711,7.711,0,0,1,6.661-2.15c1.784.31,2.892,1.828,2.955,4-.359.441-.469,1.35-1.388.732-.868,1.015-1.369.8-1.556-.466,0-.033-.061-.058-.093-.089l-.8.012a1.731,1.731,0,0,0-1.875-.07,10.453,10.453,0,0,0-5.506,4.977,1.249,1.249,0,0,0-.135.023.278.278,0,0,0-.138.149Z" transform="translate(153.88 -363.277)" fill="#f9ecf9"/>
    <path id="Path_162" data-name="Path 162" d="M-117.089,369.739c.651-.485.609-1.189.6-1.887,1.1-.226.217-1.154.583-1.642a11.439,11.439,0,0,0,1.4-1.355c1.015-.93,1.77-.993,2.673.254a.9.9,0,0,0-.546.543c-1.005,2.8-2.069,5.569-3.048,8.375-.529,1.521-.471,1.539,1.091,1.467a31.042,31.042,0,0,1,5.513-.84c.18,0,.362.014.541.023.18.968-1.982.448-1.161,1.826-.042.016-.084.03-.126.049-1.768.732-3.739.5-5.544,1.294-1.122.5-2.556.289-3.848.4a.769.769,0,0,1-.627-.371c1.25-.97-.6-.55-.362-.977C-117.928,374.956-117.49,372.355-117.089,369.739Z" transform="translate(173.871 -363.234)" fill="#f6e7f6"/>
    <path id="Path_163" data-name="Path 163" d="M-128.518,378.867c.04-1.586.935-2.927,1.262-4.438.212-.982.994-1.868.788-2.906-.133-.679.732-.765.539-1.346l.119-1.061c.746.014.4-.506.417-.851l.051-.56c.459-.1.625-.359.466-.809.084-.338.389-.287.627-.357.427.072.541-.1.38-.487.793-.917,1.791-.73,2.64.494-.341.075-.62.194-.466.63-.686,1.745-1.311,3.51-2,5.25-.429,1.085-.954,2.141-1.285,3.3a5.408,5.408,0,0,1-2.971,3.732A.8.8,0,0,0-128.518,378.867Z" transform="translate(162.492 -361.485)" fill="#f6e7f6"/>
    <path id="Path_164" data-name="Path 164" d="M-125.882,381.026h-.807l-.823-.019a13.554,13.554,0,0,0-3.557-.007c-.112-.3-.219-.788.033-.854,1.1-.273.856-1.157.98-1.885,1.022.061,2.09-.261,3.037.382.732.133,1.535.7,2.064-.366.194-.389.518-.152.651,0,.728.835,1.635.571,2.521.483a2.549,2.549,0,0,1,2.992.063c-.434.989,1.036,1.28.8,2.195l-3.258.007C-122.792,380.681-124.335,381.521-125.882,381.026Z" transform="translate(158.932 -344.711)" fill="#d57f0d"/>
    <path id="Path_165" data-name="Path 165" d="M-134.906,371.42l-.007-.886c.627.1,1.036-.411,1.577-.548.1,1.57-.2,3.188.546,4.674a3.365,3.365,0,0,0,1.849,1.717c-.781.434.14.8.047,1.2a2.664,2.664,0,0,1-1.791,1.35c-.159.273.021.8-.49.8-.889.012-.6.646-.648,1.115-.945-.229-1.194.275-1.15,1.091-1.269.014-1-.931-1.047-1.677l0-.52.557-.539a.487.487,0,0,0,.525-.56l.075-.259c.42-.082.49-.354.4-.718l.075-.914a.489.489,0,0,0-.546-.553l0,0a.457.457,0,0,0-.452-.294c-.693-.564-1.528-.089-2.267-.312l-.084-.292.03.014a.483.483,0,0,0,.583-.187.161.161,0,0,1,.173-.077c.326.058.576-.016.665-.376.3-.194.581-.4.884-.581A1.654,1.654,0,0,0-134.906,371.42Z" transform="translate(150.222 -355.477)" fill="#12060d"/>
    <path id="Path_166" data-name="Path 166" d="M-116.037,368.9c-.4,2.617-.84,5.217-2.866,7.16-.236.427,1.612.007.362.975-.051.114-.1.231-.156.348-.982.306-.648-1.113-1.42-1.082l0,0a1.951,1.951,0,0,0-.585-1.637l.009.026a11.944,11.944,0,0,1,.033-2.533l0,0a.485.485,0,0,0,.55-.55l0,0a.482.482,0,0,0,.553-.553l-.007.007c.378,0,.567-.182.546-.564a1.976,1.976,0,0,1,.777-.819c.623-.056.786-.3.322-.8l.021-.543c.487-1.129.138-1.77-1.1-1.9-.124-.728-1.56-.513-1.164-1.618.856-.224,1.182.455,1.747.856.434.308.714-1.318,1.693-.723.056.429-.382.578-.511.9a3.558,3.558,0,0,1-.271.462C-116.114,366.672-117,368.318-116.037,368.9Z" transform="translate(172.819 -362.396)" fill="#0b0806"/>
    <path id="Path_167" data-name="Path 167" d="M-97.79,378.9c-.231.968.627,1.029,1.145,1.371l.016.826-.07.016-.061-.037a7.284,7.284,0,0,1-2.255-.247c-.84-.114-1.294.17-1.171,1.087a.33.33,0,0,1-.142.205c0-.851-.352-1.255-1.238-1l-.821,0-.539-.016-1.1-.007-2.509.009-.478-.012-3.148.014-.079-1.075-.023.012c.84.058,1.22-.326,1.124-1.168.994-.25,2.162.555,3.025-.5.5,1.017,1.388.4,2.106.5l1.07,0c.735-.149,1.863.681,2.059-.821l.086-.065.082.07c-.107.595.154.837.744.823C-99.245,378.875-98.517,378.893-97.79,378.9Z" transform="translate(186.806 -344.803)" fill="#d57f0d"/>
    <path id="Path_168" data-name="Path 168" d="M-102.57,376.93a4.548,4.548,0,0,0-3.888.033l-.292.266a11.361,11.361,0,0,1-3.722-.261,4.575,4.575,0,0,0-4.245-.049.773.773,0,0,1-.194-.019,1.262,1.262,0,0,1-.448-1.567c.212-.7.868-.543,1.385-.546,3.494-.014,6.987-.021,10.481,0,.492,0,1.194-.292,1.406.439A1.418,1.418,0,0,1-102.57,376.93Z" transform="translate(179.897 -349.153)" fill="#ebaf0d"/>
    <path id="Path_169" data-name="Path 169" d="M-97.31,382.86c1.259.028,2.519.051,3.778.082.422.009.826,0,.9-.553,1.077.473,1.036,1.693-.089,2.638q-5.024.021-10.047.04c-.287,0-.679.126-.784-.315-.091-.385-.028-.728.459-.807.247.077.464.061.592-.205.644.068-.471-2.041,1.068-.863.4.089.8.212,1.07-.252l.28-.044,2.449.012Z" transform="translate(195.704 -338.953)" fill="#e8c516"/>
    <path id="Path_170" data-name="Path 170" d="M-133.474,378.879q.007,3.04.016,6.078c0,1.945.707,2.654,2.633,2.654a3.791,3.791,0,0,1,.814.007,3.032,3.032,0,0,0,3.286-1.451c.469-.648,1.015-.483,1.558-.4a.733.733,0,0,1,.62.774c-.016.515.054.959-.716,1.21-.487.159-.889.861-1.441,1.192l-.03-.023c.121-.718-.313-.816-.879-.812-1.644.012-3.291.007-4.935.007a.852.852,0,0,0-.718.289,2.508,2.508,0,0,1-2.374-.772l-.068-1.019.275-.413c.609-1.6.11-3.267.3-4.893l1.32.007v4.534l.282-.014v-6.9Z" transform="translate(152.913 -343.629)" fill="#ebaf0d"/>
    <path id="Path_171" data-name="Path 171" d="M-119.074,372.3c1.292-.11,2.726.1,3.848-.4,1.805-.8,3.776-.562,5.544-1.294.042-.019.084-.033.126-.049-.821-1.378,1.341-.858,1.161-1.826l-.019-.1c1.523,1.08,1.546,1.313.294,2.635a8.219,8.219,0,0,0-.562.725l-.539.336c-.452-.138-.637.182-.83.483-.935.18-1.975-.413-2.824.392l-.462.182-1.9.021-.791-.028a.875.875,0,0,0-.819.364.335.335,0,0,0-.04.2l-.863-.145a.5.5,0,0,0-.737,0l-.861.126a.288.288,0,0,0,0-.177.634.634,0,0,0-.233-.119l-.028-.035-.189-.224-.079-.072-.023-.473.014-.012Z" transform="translate(173.979 -357.285)" fill="#d9169f"/>
    <path id="Path_172" data-name="Path 172" d="M-128.212,378.484a5.408,5.408,0,0,0,2.971-3.732c.331-1.157.856-2.213,1.285-3.3.693-1.74,1.318-3.505,2-5.25,1.061.016.616.837.725,1.36l-.287.55c-.364.289-.238.7-.261,1.073-.317.5-.2,1.089-.306,1.632l.009-.007a12.009,12.009,0,0,0-1.849,4.408l-.068.532a2.834,2.834,0,0,0-.975,1.668l-.112.48a9.276,9.276,0,0,0-2.2,2.206.739.739,0,0,0-.236.033,4.535,4.535,0,0,1-.814-1.371Z" transform="translate(162.75 -360.514)" fill="#d9169f"/>
    <path id="Path_173" data-name="Path 173" d="M-138.708,367.6c1.3-.959,2.794-1.6,2.962-3.435.044-.5.434-.539.716-.091.212.343.341.742.56,1.08.518.8.553,2.276,2.178,1.607a.489.489,0,0,1,.427.2.8.8,0,0,1-.431.914c-.8.277-1.612.448-1.152,1.614.058.147-.166.364-.354.261-1.2-.653-1.12.242-1.2.961-.023.226-.026.48-.3.546-.375.091-.406-.233-.539-.462-.389-.672-.609-1.556-1.7-1.4-.252.037-.483-.275-.341-.45C-136.975,367.84-138.237,367.933-138.708,367.6Zm4.781.075c-.767-.264-.683-1.884-1.931-1.245a1.135,1.135,0,0,0-.355,1.957C-134.948,369.836-134.8,367.62-133.927,367.679Z" transform="translate(148.916 -363.765)" fill="#24051e"/>
    <path id="Path_174" data-name="Path 174" d="M-116.765,374.954c-1.563.072-1.621.054-1.091-1.467.98-2.806,2.043-5.579,3.048-8.375a.9.9,0,0,1,.546-.543c.926.508,1.145,1.05.585,2.122a28.726,28.726,0,0,0-2.022,5.1C-116.018,372.865-116.94,373.73-116.765,374.954Z" transform="translate(176.295 -362.693)" fill="#c61d96"/>
    <path id="Path_175" data-name="Path 175" d="M-132.02,375.668l-.557.539c-.581.082-1.283-.205-1.64.548l-.529.084c-.774-.117-1.157.369-1.467.961l-.45.11c-.368-.077-.55.114-.641.441l-.455.093a5.744,5.744,0,0,0-1.1.4c-.735.452-1.15.17-1.446-.52.205-.667.742-.868,1.339-1.141,1.894-.868,3.557-2.192,5.667-2.647.872-.187.751-1.355,1.336-1.9l.48.03,0,0c.014.35.24.49.546.553-.023.305-.049.609-.075.914a.562.562,0,0,0-.4.718l-.075.259A.532.532,0,0,0-132.02,375.668Z" transform="translate(146.783 -351.946)" fill="#d9169f"/>
    <path id="Path_176" data-name="Path 176" d="M-110.948,386.488l-.926-.014-.219-.212a7.148,7.148,0,0,0,.1-2.251c.007-.287-.1-.55-.448-.527-.152.012-.42.152-.422.24a13.16,13.16,0,0,0,.03,2.661c.065.387.5-.023.756-.14l.212.215c.044.41-.079.737-.515.819a.627.627,0,0,1-.772-.583c-.31-2.076-1.047-4.168.175-6.2h.1c0,.4-.331,1.054.324,1.068.55.012.749-.55.527-1.119a7.1,7.1,0,0,0-.04-2.521c.4-.55-.532-1.947,1.091-1.724l.126.737.014.532-.033.7V380.3a1.63,1.63,0,0,0,.03,1.038,22.546,22.546,0,0,0-.012,4.046l-.016.641Z" transform="translate(182.29 -347.234)" fill="#1e0f02"/>
    <path id="Path_177" data-name="Path 177" d="M-114.755,372.271a8.217,8.217,0,0,1,.562-.725c1.252-1.322,1.229-1.556-.294-2.635.515-.856,1.164-.427,1.509.028.427.562.987,1.29.184,2.034-.952.879-.66,1.362.5,1.574l-.007-.007.264.686c-.271.462-.026,1.187-.5,1.472-1.42.849-1.054,1.661.007,2.407.373.264.061.828.648.961-.014-1.159,1.777-1.609,1.094-3.027a2.724,2.724,0,0,0,1.945.6c-.879,1.528-2.467,2.4-2.782,4.158-.061.331-.583.469-.606-.051-.033-.716-.492-1.029-.942-1.385-.434-.345-.826-.662-.77-1.32.07-.809-.739-.784-1.385-1.245,1.329-.093,1.061-1.831,2.393-1.887.142-.007.1-.5-.086-.723A2.008,2.008,0,0,0-114.755,372.271Z" transform="translate(180.053 -357.566)" fill="#24051e"/>
    <path id="Path_178" data-name="Path 178" d="M-108.831,378.724c-.392-1.411.76-2.16,1.346-3.151,1.208.55,2.519.319,3.778.49.252.035.3-.282.343-.5.851-.058.672.478.56.975l.2.427c1.486-.009.8,1.054.868,1.747a4.164,4.164,0,0,1-1.9,0c-.086-.823-1.332-.721-1.3-1.635-.219,0-.578-.086-.634.007-.394.667-1.374.907-1.36,1.859Z" transform="translate(188.614 -348.055)" fill="#e8c516"/>
    <path id="Path_179" data-name="Path 179" d="M-129.471,377.18c.567-.077.5-.508.49-.893-.009-.609.3-.77.84-.625a3.719,3.719,0,0,0,3.039.522c.282-.208.054-.487,0-.732l.112,0,.112-.007c.55.194,1.325.152,1.131,1.119-.03.147.079.462.152.469,1.35.149.767,1.131.812,1.838l-2.013-.049c.049-.931-1.168-.816-1.334-1.6-.028-.126-.581-.079-.571.044.075.952-1.05.77-1.271,1.409a.988.988,0,0,0-.229.1.861.861,0,0,1-.205-.014C-129.66,378.839-129.966,378.279-129.471,377.18Z" transform="translate(160.921 -348.198)" fill="#e8c516"/>
    <path id="Path_180" data-name="Path 180" d="M-114.106,377.668c-.236.5-.667.506-1.136.49-.5-.014-1.068-.208-1.1.7-.016.466-.59.208-.912.247-1.224.152-2.484-.252-3.692.219l-1.038.007c-.138-.38.25-.949-.324-1.157-.742-.271-.669.441-.891.809-.079.128-.275.184-.417.273l-.3.068-.054-.054-.068.033.019-2.148,3.037-.072a3.548,3.548,0,0,0,.063.674c.191.672.777.387,1.136.343,1.154-.145,2.736.686,3.358-.389.478-.828.784-.271,1.145-.38l1.059.287Z" transform="translate(168.468 -346.026)" fill="#f4f1cb"/>
    <path id="Path_181" data-name="Path 181" d="M-121.428,369.019a1.972,1.972,0,0,1,1.077,1.653,5.965,5.965,0,0,0,1.656,2.67l-.014.588c-.45-.063-.9-.371-1.35,0l0,0c-.245-.951-1.661-1.1-1.574-2.362-.34,1.1-1.241,2.031-.415,3.228.168.24.2.709-.117.861-.4.191-.59-.2-.592-.518-.007-.683-.634-.975-.861-1.509-.266-1.077.837-1.9.546-2.988v0c.723-.084.513-.648.555-1.084h0A.982.982,0,0,0-121.428,369.019Z" transform="translate(168.961 -356.765)" fill="#0b0806"/>
    <path id="Path_182" data-name="Path 182" d="M-102.476,378.909c-.021-.993-.021-1.989-.068-2.983-.03-.653.327-1.518-.828-1.642-.25-.028-.238-.347-.21-.574a.431.431,0,0,1,.448-.417c1.766-.016,3.531-.028,5.3-.016.613,0,.534.5.532.893-.012,1.584-.037,3.167-.056,4.751-.082-.009-.161-.014-.24-.016,0-1.367,0-2.731-.012-4.1,0-.457-.054-1.112-.644-.949-.7.193-2.5-.786-1.784,1.353.033.1-.191.282-.3.425-.084-.8-.061-1.721-1.329-1.15-.016,1.157-.044,2.316-.04,3.475C-101.707,378.508-101.765,378.96-102.476,378.909Z" transform="translate(195.693 -351.099)" fill="#cca22d"/>
    <path id="Path_183" data-name="Path 183" d="M-102,388.646c-1.539-1.178-.424.931-1.068.861l-.089-3.3,0-3.559a19.455,19.455,0,0,0-.016-4.086l.1-.5.984.476Z" transform="translate(196.267 -344.723)" fill="#cca22d"/>
    <path id="Path_184" data-name="Path 184" d="M-128.914,379.384c1.546.494,3.09-.345,4.634,0,.051.639.492.921,1.026,1.115q.035.787.072,1.57c1.136.66,2.356.2,3.536.261l.075.082c-.159.618-.5.665-1.119.581-.7-.093-1.675-.59-2,.658a.25.25,0,0,1-.424.128,1.255,1.255,0,0,1-.3-.574c-.159-.7.217-1.528-.45-2.141-.541.194.1,1.105-.788,1.021-.772-.07-.669-.571-.707-1.059a1.264,1.264,0,0,0-.623-1.138c-.611-.315-.585.308-.835.567C-127.44,381.105-128.261,380.674-128.914,379.384Z" transform="translate(161.964 -343.069)" fill="#1e0f02"/>
    <path id="Path_185" data-name="Path 185" d="M-123.574,378.664c.145-.089.34-.145.42-.273.222-.368.149-1.08.891-.809.574.208.187.777.324,1.157l.037,1.866c.287.716-1.036,2.162.954,2.111-.763,1.194-1.521,2.393-2.3,3.578a.562.562,0,0,1-.45.215.425.425,0,0,1-.364-.492c.044-.448.1-.9.142-1.341a.782.782,0,0,1,0-.266c1.031.4,1.059-.926,1.8-1.063.154-.028,0-.4-.131-.427-1.036-.222-.721-1.082-.851-1.73l-.007-1.656C-123.01,379.107-122.842,378.641-123.574,378.664Z" transform="translate(168.425 -345.437)" fill="#1e0f02"/>
    <path id="Path_186" data-name="Path 186" d="M-126.326,374.826l.068-.532c1.315-1.175,1.572-2.8,1.849-4.408l-.009.007c1.022-.193.366-1.068.637-1.567.83-.121.124-1.353,1.026-1.425h.513l-.04,1.115-.184.205c-.464,1.842-1.493,3.468-1.964,5.331a5.206,5.206,0,0,1-1.04,2.649c-.5-.487-.459,1.35-1.1.254C-126.452,375.917-125.867,375.451-126.326,374.826Z" transform="translate(165.088 -359.587)" fill="#0b0806"/>
    <path id="Path_187" data-name="Path 187" d="M-105.933,380.311c-.124-.917.331-1.2,1.171-1.087a7.284,7.284,0,0,0,2.255.247l.114.56c-.03.219-.079.455.285.394l.226.156c.012,1.567-.159,1.742-1.7,1.614a13.794,13.794,0,0,1-1.465-.275l-.117-1.068c.033-.194-.03-.306-.245-.287Z" transform="translate(192.554 -343.201)" fill="#ebaf0d"/>
    <path id="Path_188" data-name="Path 188" d="M-99.251,378.388l0,3.009-.252.275-2.428,0c-.142-.718.217-1.5-.259-2.178l0-1.106Z" transform="translate(197.566 -344.284)" fill="#d57f0d"/>
    <path id="Path_189" data-name="Path 189" d="M-130.654,379.39a13.551,13.551,0,0,1,3.557.007l-.11,1.029-.443.028-.557.054a3.991,3.991,0,0,0-.252.6,1.989,1.989,0,0,1-2.589.935c-.928-.371-.14-1.038-.161-1.567C-130.738,380.262-130.708,379.821-130.654,379.39Z" transform="translate(158.517 -343.1)" fill="#ebaf0d"/>
    <path id="Path_190" data-name="Path 190" d="M-115.214,374.611l1.1,0,.534.079,0-.009.278.294-.243.52a1.145,1.145,0,0,0-.814,1.313c.061,1.262-.012,2.533-.028,3.8-.959-.632-2-.047-2.995-.212l-.11-.273a.231.231,0,0,0,0-.247l.009-.578.086-3.477c.473.459.17,1.052.271,1.577,0,.268.007.539-.014.807-.061.847.009,1.462,1.166,1.446,1.119-.019,1.087-.658,1.066-1.416-.009-.359.012-.718.019-1.078.308-.676.226-1.5,1.159-2.216h-3.592c-.513,0-.637.25-.445.7-.4.093-.7.089-.723-.457-.016-.438.2-.527.571-.522.357,0,.714-.033,1.07-.051h1.63Z" transform="translate(175.855 -349.315)" fill="#e1be4f"/>
    <path id="Path_191" data-name="Path 191" d="M-135.566,374.591a2.673,2.673,0,0,0,1.794-1.35c1.647,2.5,5.691,2.034,7.451,1.021l.275.252c-.364.791-.77,1.528-1.831,1.425a.6.6,0,0,0-.674-.509c-.541.016-1.084-.007-1.628-.021-1.129-.03-2.286-.14-2.99,1.045C-133.728,375.527-134.33,374.65-135.566,374.591Z" transform="translate(153.102 -351.141)" fill="#d57f0d"/>
    <path id="Path_192" data-name="Path 192" d="M-134.91,373.82c1.236.058,1.838.935,2.4,1.863l-.459.077c-.728.714-.166,1.63-.378,2.426l-1.367.016-.236.016a10.489,10.489,0,0,1-.042-1.479c.089-.842-.238-1.173-1.063-1.028l.009.023c.044-.469-.24-1.1.648-1.115C-134.889,374.615-135.069,374.093-134.91,373.82Z" transform="translate(152.446 -350.369)" fill="#ebaf0d"/>
    <path id="Path_193" data-name="Path 193" d="M-109.34,378.873l.079,1.075c-.14.3.089.833-.336.924-1,.215-.728.893-.655,1.525-.119.564.273.56.637.553.891-.014,1.779-.042,2.67-.065.543-.56.1-1.248.238-1.861l.03-.047.809-.007a4.433,4.433,0,0,0-.194.506c-.506,1.917-.5,1.922-2.288,1.994-.837.035-1.9.749-2.428.051-.4-.52.056-1.621-.077-2.43C-111.069,379.794-109.875,379.584-109.34,378.873Z" transform="translate(185.903 -343.637)" fill="#1e0f02"/>
    <path id="Path_194" data-name="Path 194" d="M-111.857,372.291c.683,1.418-1.108,1.868-1.094,3.027-.588-.133-.275-.7-.648-.961-1.061-.746-1.427-1.558-.007-2.407.478-.284.233-1.01.5-1.472l.257.41c-.04.611-.044,1.2.814,1.21Z" transform="translate(181.115 -354.82)" fill="#c593ce"/>
    <path id="Path_195" data-name="Path 195" d="M-127.066,376.87a.861.861,0,0,0,.205.014l.21.236c.042.387.212,1.056-.056,1.105-1.334.252-.823,1.266-.961,2.015-.947-.644-2.015-.322-3.037-.382a1.745,1.745,0,0,0,.975-1.931c-.131-.609.383-.571.8-.522C-128.267,377.367-127.56,377.483-127.066,376.87Z" transform="translate(159.579 -346.306)" fill="#f4f1cb"/>
    <path id="Path_196" data-name="Path 196" d="M-116.112,375.478a.267.267,0,0,0,.205.138c-.058.62.152.984.849.879l.068.431-.121.1a.343.343,0,0,0-.168-.075l-1.661,0c-.931-.077-.889-1.469-1.961-1.409-1.257.07-2.516.047-3.776.065l-.047.03.077-.868c1.88.107,3.781-.278,5.639.264C-116.886,375.548-116.52,375.555-116.112,375.478Z" transform="translate(170.21 -349.14)" fill="#cca22d"/>
    <path id="Path_197" data-name="Path 197" d="M-99.226,377.218l-.012,2.43c-.984.012-1.994-.268-2.936.243L-102.2,377A12.821,12.821,0,0,0-99.226,377.218Z" transform="translate(197.557 -346.129)" fill="#f4f1cb"/>
    <path id="Path_198" data-name="Path 198" d="M-125.026,381.067c.233-.914-1.236-1.206-.8-2.195l.126-.84c.166.047.476.1.476.142-.037,1.646,1.308,2.477,2.2,3.508.371.429.149,1.684,1.336,1.276l.061,1.031-1.945.112-.075-.082-.023-.529c-.107-.476.527-1.234-.511-1.36l-.438-.035-.347-.282Z" transform="translate(165.968 -344.756)" fill="#1e0f02"/>
    <path id="Path_199" data-name="Path 199" d="M-116.178,375.181c-.357.019-.714.056-1.07.051-.373,0-.588.084-.571.522.021.546.327.55.723.457l.371.18-.086,3.477a4.908,4.908,0,0,0-1.4-1.954c-.791-.679-1.2-1.39-.147-2.19.18-.138.135-.3.133-.483-.014-.779.611-.966,1.161-1.047C-116.4,374.1-116.3,374.693-116.178,375.181Z" transform="translate(175.188 -349.885)" fill="#0b0806"/>
    <path id="Path_200" data-name="Path 200" d="M-119.81,369.713c.292,1.084-.812,1.91-.546,2.988-.257.173-.763.291-.688.576.5,1.88-1.3,1.535-1.959,1.7a2.841,2.841,0,0,1-3.109-1.828c-.012-.054.18-.154.278-.231l.711.142a1.519,1.519,0,0,0,1.586,1.346,1.737,1.737,0,0,0,1.775-1.131C-121.109,372.087-120.806,370.706-119.81,369.713Z" transform="translate(165.697 -355.841)" fill="#24051e"/>
    <path id="Path_201" data-name="Path 201" d="M-120.625,374.765l-.079.868c-.361.39-.147.877-.219,1.315l-2.47,0v-1.052l-.17,0-.161,1.833c-.368-.714.333-1.672-.518-2.276.026-.609.417-.707.924-.7C-122.421,374.77-121.523,374.763-120.625,374.765Z" transform="translate(168.188 -349.129)" fill="#ebaf0d"/>
    <path id="Path_202" data-name="Path 202" d="M-128.4,366.638c.919.618,1.028-.291,1.388-.732l.11-.021c.007.18.012.359.023.536.194,2.549-.247,3.114-2.691,3.048-.854-.023-.292-.952-.539-1.406.033-.035.068-.072.1-.107C-129.378,367.629-128.272,367.888-128.4,366.638Z" transform="translate(160.371 -360.94)" fill="#c61d96"/>
    <path id="Path_203" data-name="Path 203" d="M-134.552,385.19c.023.341.047.681.068,1.019-.007.047-.016.091-.026.135-1.049-.9-2.4-1.574-1.992-3.4a14.686,14.686,0,0,0,.089-2.836.8.8,0,0,1,.994.019c.016,1.343.056,2.687.04,4.03C-135.39,384.773-135.3,385.223-134.552,385.19Z" transform="translate(151.757 -342.21)" fill="#cca22d"/>
    <path id="Path_204" data-name="Path 204" d="M-99.467,375.687c.079,0,.159.007.24.016a4.746,4.746,0,0,0-.217,2.136c-.464.833-1.25.662-1.933.515-.716-.154-.527-.842-.562-1.364-.023-.355.079-.739-.257-1.012l0-.278Z" transform="translate(197.558 -347.882)" fill="#e8c516"/>
    <path id="Path_205" data-name="Path 205" d="M-104.178,376.662c-.044.219-.091.536-.343.5-1.259-.17-2.57.061-3.778-.49.226-.161.569-.168.669-.5.128-.107.385-.247.366-.317-.247-1.026.376-1.008,1.117-1.108,1.157-.152,1.271.7,1.586,1.4Z" transform="translate(189.428 -349.155)" fill="#ebaf0d"/>
    <path id="Path_206" data-name="Path 206" d="M-106.611,376.909a4.2,4.2,0,0,0,1.9,0c1.185.392,1.245,1.318,1.117,2.335-.569.548-1.273.145-1.9.275l-.082-.07-.086.065c.028-.362.077-.926-.215-.987C-106.956,378.306-106.646,377.569-106.611,376.909Z" transform="translate(191.586 -346.254)" fill="#f4f1cb"/>
    <path id="Path_207" data-name="Path 207" d="M-114.884,379.629a2.2,2.2,0,0,1-.369,1.22l.014-.016c-.877-.466-1.817-.145-2.726-.226a5.83,5.83,0,0,1,.03-1.961,3.231,3.231,0,0,1,1.95-.245C-115.215,378.411-114.676,378.707-114.884,379.629Z" transform="translate(176.457 -344.311)" fill="#d57f0d"/>
    <path id="Path_208" data-name="Path 208" d="M-125.991,376.421c.054.245.282.525,0,.732a3.719,3.719,0,0,1-3.039-.522l.245-.252c.38-.833.483-1.9,1.908-1.609C-125.779,374.989-126.084,375.768-125.991,376.421Z" transform="translate(161.809 -349.167)" fill="#ebaf0d"/>
    <path id="Path_209" data-name="Path 209" d="M-133.643,379.626l-.061.051c-.562.737-.089,1.6-.282,2.381l-1.322-.007-.273-.026,0-3.533c.63-.373,1.252-.042,1.88.012Z" transform="translate(153.082 -344.377)" fill="#d57f0d"/>
    <path id="Path_210" data-name="Path 210" d="M-117.959,377.143c.991.165,2.036-.42,2.995.212v1.756c-1,.31-1.994-.145-2.99-.035l-.1-.541Z" transform="translate(176.431 -346.061)" fill="#f4f1cb"/>
    <path id="Path_211" data-name="Path 211" d="M-132.269,375.212c1.061.1,1.467-.634,1.831-1.425.333.322.249,1.171,1.087.861a1.859,1.859,0,0,1-.009,2.022,1.341,1.341,0,0,1-1.493.1C-131.189,376.084-132.043,375.935-132.269,375.212Z" transform="translate(157.494 -350.413)" fill="#cca22d"/>
    <path id="Path_212" data-name="Path 212" d="M-127.557,376.9q1,.021,2.013.047c1.1.359,1.245,1.168,1.022,2.153l-1.985-.035c-.061-.205-.119-.588-.177-.588C-127.953,378.473-127.58,377.592-127.557,376.9Z" transform="translate(163.68 -346.267)" fill="#f4f1cb"/>
    <path id="Path_213" data-name="Path 213" d="M-114.6,379.425l-.016.014c.289.7,0,1.763,1.227,1.915.145.019.324.83-.142.823-1.656-.026-3.349.436-4.972-.254l.035-.55.567-.261.515,0c.828,1.539,2.106.392,3.118.648Z" transform="translate(175.826 -342.902)" fill="#e1be4f"/>
    <path id="Path_214" data-name="Path 214" d="M-110.428,378.037c1.036.019,1.273.257.718,1.329-.581,1.124-.252,2.481-.187,3.727.054.98-.609,1.187-1.222,1.532-.681.38-.975-.1-1.278-.567l.021-.289c.844.252,1.577.254,1.849-.8q-.014-2.047-.028-4.093Z" transform="translate(183.97 -344.751)" fill="#1e0f02"/>
    <path id="Path_215" data-name="Path 215" d="M-108.208,376.915l1.894.215c0,.522.4,1.2-.632,1.276-.469.035-.254.6-.394.912l-1.989-.075C-109.455,378.226-109.413,377.29-108.208,376.915Z" transform="translate(187.991 -346.246)" fill="#f4f1cb"/>
    <path id="Path_216" data-name="Path 216" d="M-102.411,377.074a1.418,1.418,0,0,0,.485-1.7c-.212-.73-.914-.436-1.406-.438-3.494-.023-6.987-.016-10.481,0-.518,0-1.173-.159-1.385.546a1.262,1.262,0,0,0,.448,1.567q.025.07.056.14c-.555.021-.935-.117-.87-.8.051-.567.03-1.143.04-1.717,4.324-.007,8.65.007,12.974-.037.807-.007,1.152.306.917,1.005C-101.8,376.129-100.9,377.3-102.411,377.074Z" transform="translate(179.738 -349.297)" fill="#e1be4f"/>
    <path id="Path_217" data-name="Path 217" d="M-121.538,372.988l.014-.588.378.016a1.169,1.169,0,0,0,.8,1.383c.658.215.933-.4,1.327-.725a1.1,1.1,0,0,0,.334-1.556,3.155,3.155,0,0,1-.4-1.791c.772-.03.438,1.388,1.42,1.082l-.023.527-.014.012c-.324.175-.32.333.023.473l.079.072.189.224.028.035c.019.152.093.2.233.119a.288.288,0,0,1,0,.177,21.635,21.635,0,0,1-2.391,1.791C-120.458,374.755-121.242,374.2-121.538,372.988Z" transform="translate(171.79 -355.822)" fill="#24051e"/>
    <path id="Path_218" data-name="Path 218" d="M-121.158,376.462c.072-.438-.142-.926.219-1.315l.049-.03q-.021,2.291-.042,4.58l-3.037.072a8.008,8.008,0,0,1,.009-2.53l.161-1.833.17,0v1.052c0,.408-.021.819.007,1.224.042.588-.224,1.488.751,1.42.779-.054,1.975.061,1.735-1.418A8.562,8.562,0,0,1-121.158,376.462Z" transform="translate(168.423 -348.643)" fill="#e1be4f"/>
    <path id="Path_219" data-name="Path 219" d="M-103.066,378.216c.711.051.77-.4.77-.949,0-1.159.023-2.318.04-3.475.452,1.824.114,3.68.191,5.52.028.627.322,1.346-.236,1.922l-.567.009C-103.379,380.264-103.043,379.228-103.066,378.216Z" transform="translate(196.283 -350.406)" fill="#e1be4f"/>
    <path id="Path_220" data-name="Path 220" d="M-112.462,379.252v-2.127a2.852,2.852,0,0,0,2.024-.168l0,2.325Z" transform="translate(183.882 -346.19)" fill="#f4f1cb"/>
    <path id="Path_221" data-name="Path 221" d="M-135.512,382.193a.8.8,0,0,0-.994-.019q.01-1.879.019-3.755c.32-.009.639-.019.961-.026Z" transform="translate(151.85 -344.275)" fill="#d57f0d"/>
    <path id="Path_222" data-name="Path 222" d="M-124.272,368.663l-.513,0c.028-.742.28-1.509-.261-2.183.231-1.306.994-.917,1.751-.548A4.284,4.284,0,0,1-124.272,368.663Z" transform="translate(167.117 -361.348)" fill="#12060d"/>
    <path id="Path_223" data-name="Path 223" d="M-118.666,375.813c.812.093.5.639.5,1.12,0,.522.191.963.807.417.159-.14.3-.443.52-.2a.588.588,0,0,1-.1.856c-.8.686-1.493,1.635-2.773,1.35l-.11-.051c-.093-.749,1.105-.217.984-.991Z" transform="translate(174.072 -347.714)" fill="#0b0806"/>
    <path id="Path_224" data-name="Path 224" d="M-118.012,377.931c1-.11,1.989.345,2.99.035.219.758-.2,1.542.1,2.281.215-.935-.324-1.231-1.094-1.243a3.23,3.23,0,0,0-1.95.245Z" transform="translate(176.488 -344.916)" fill="#e1be4f"/>
    <path id="Path_225" data-name="Path 225" d="M-135.69,382.766c.009-.044.019-.089.026-.135a2.508,2.508,0,0,0,2.374.772c.273.331.182,1.056.725,1.031,1.94-.1,3.958.586,5.807-.515l.03.023c.1.532-.007.837-.665.823a38.7,38.7,0,0,1-5.261-.091c-.952-.152-1.738-1.157-2.841-1.3C-135.585,383.363-135.627,382.978-135.69,382.766Z" transform="translate(152.937 -338.631)" fill="#e1be4f"/>
    <path id="Path_226" data-name="Path 226" d="M-115.137,375.954a4.568,4.568,0,0,1,4.245.051,11.514,11.514,0,0,0-.007,2.761l-.1.009a1.327,1.327,0,0,1-.18-.359c-.345-2.4-.343-2.4-2.74-2.416C-114.325,376-114.731,375.97-115.137,375.954Z" transform="translate(180.318 -348.189)" fill="#1e0f02"/>
    <path id="Path_227" data-name="Path 227" d="M-133.975,377.077c.212-.8-.35-1.712.378-2.425q-.038,2.844-.075,5.686l-1.917-.014.012-3.214.238-.016c.007.632.014,1.267.026,1.9.007.373.026.753.536.777a.683.683,0,0,0,.723-.667C-133.977,378.432-134,377.751-133.975,377.077Z" transform="translate(153.071 -349.261)" fill="#e1be4f"/>
    <path id="Path_228" data-name="Path 228" d="M-135.58,377.084l1.917.014,0,1.978-1.936-.21Z" transform="translate(153.062 -346.021)" fill="#f4f1cb"/>
    <path id="Path_229" data-name="Path 229" d="M-120.306,374.949c-.9,0-1.8,0-2.694-.014-.506-.009-.9.089-.924.7l-.441.1c-.49-1.432.679-.954,1.287-1.119l.56,0h1.089l.56,0h1.614l3.027,0,1.087,0,.48.075-.007.52C-116.526,374.671-118.426,375.056-120.306,374.949Z" transform="translate(167.869 -349.313)" fill="#e1be4f"/>
    <path id="Path_230" data-name="Path 230" d="M-124.033,384.01l-.061-1.031q.014-1.508.028-3.02a2.1,2.1,0,0,0-.04-1.353l.17-.557.068-.03.051.054c-.1.613.187.844.767.8l.007,1.656c-1.213.835-.665,2.118-.821,3.221a.782.782,0,0,0,0,.266l-.084-.019Z" transform="translate(168.371 -344.776)" fill="#d57f0d"/>
    <path id="Path_231" data-name="Path 231" d="M-108.787,377.913l1.989.075.037.508c-.863,1.054-2.031.25-3.025.5l.023-1.031Z" transform="translate(187.448 -344.916)" fill="#e1be4f"/>
    <path id="Path_232" data-name="Path 232" d="M-117.531,378.23l.047,1.318a5.83,5.83,0,0,0-.03,1.961l-.058,1.919-.515,0a10.336,10.336,0,0,0-.217-2.547c-.322-1.145.595-2.09.674-3.188Z" transform="translate(176.007 -345.215)" fill="#0b0806"/>
    <path id="Path_233" data-name="Path 233" d="M-122.088,375c-.609.166-1.777-.313-1.287,1.119a5.126,5.126,0,0,1-.536.023c-.471-.023-1.119.175-1.287-.415s.557-.665.851-.991C-123.4,373.677-122.839,374.99-122.088,375Z" transform="translate(166.88 -349.699)" fill="#12060d"/>
    <path id="Path_234" data-name="Path 234" d="M-114.464,374.646c-.009.574.012,1.15-.04,1.717-.065.688.315.826.87.8-.037.306-.016.683-.455.683a.605.605,0,0,1-.637-.7c.17-1.3-.662-1.549-1.644-1.684l.243-.52.007-.306Z" transform="translate(178.677 -349.281)" fill="#1e0f02"/>
    <path id="Path_235" data-name="Path 235" d="M-102.874,376.992l.567-.009c.511.963.177,1.987.21,2.983l-.984-.476C-103.056,378.655-103.35,377.792-102.874,376.992Z" transform="translate(196.289 -346.155)" fill="#f4f1cb"/>
    <path id="Path_236" data-name="Path 236" d="M-106.158,378.185c.63-.131,1.334.273,1.9-.275.728.012,1.329.138,1.022,1.105-.728,0-1.455-.023-2.181-.007C-106,379.022-106.265,378.78-106.158,378.185Z" transform="translate(192.249 -344.92)" fill="#e1be4f"/>
    <path id="Path_237" data-name="Path 237" d="M-112.458,376.986a7.1,7.1,0,0,1,.04,2.521l-.851.051h-.1l0-2.675.1-.007Z" transform="translate(182.679 -346.298)" fill="#f4f1cb"/>
    <path id="Path_238" data-name="Path 238" d="M-122.087,381.152c-1.989.051-.667-1.395-.954-2.111.313-.27.625-.616.94,0A6.569,6.569,0,0,1-122.087,381.152Z" transform="translate(169.564 -343.873)" fill="#d57f0d"/>
    <path id="Path_239" data-name="Path 239" d="M-127.131,377.827l1.985.035c.368.149.739.3,1.108.445l-.126.84a2.549,2.549,0,0,0-2.992-.063Z" transform="translate(164.305 -345.031)" fill="#e1be4f"/>
    <path id="Path_240" data-name="Path 240" d="M-102.195,375.812c.336.273.233.658.257,1.012.035.522-.154,1.21.562,1.364.683.147,1.469.317,1.933-.515.45.306.247.735.217,1.131a12.823,12.823,0,0,1-2.971-.215Z" transform="translate(197.557 -347.715)" fill="#e1be4f"/>
    <path id="Path_241" data-name="Path 241" d="M-140.059,375.075c.3.69.711.973,1.446.52a5.746,5.746,0,0,1,1.1-.4c-.086.473-.378.919-.14,1.507-.856-.809-2.605.163-2.848-1.616Z" transform="translate(146.533 -348.697)" fill="#24051e"/>
    <path id="Path_242" data-name="Path 242" d="M-112.421,377.941l2.029.03a.551.551,0,0,1,.093.194l-.126.833a.492.492,0,0,0-.233.021l-1.73-.037A1.622,1.622,0,0,1-112.421,377.941Z" transform="translate(183.841 -344.879)" fill="#e1be4f"/>
    <path id="Path_243" data-name="Path 243" d="M-131.025,379.792c.021.529-.767,1.2.161,1.567a1.989,1.989,0,0,0,2.589-.935,3.992,3.992,0,0,1,.252-.6q.049.8.1,1.607l-.345.362-3.284-.1C-131.287,381.084-132.192,380.149-131.025,379.792Z" transform="translate(158.333 -342.413)" fill="#e1be4f"/>
    <path id="Path_244" data-name="Path 244" d="M-135.6,377.849c.646.068,1.29.138,1.936.208l-.019,1.073c-.627-.054-1.25-.385-1.88-.012Z" transform="translate(153.062 -345.002)" fill="#e1be4f"/>
    <path id="Path_245" data-name="Path 245" d="M-104.863,376.328c-.315-.7-.429-1.551-1.586-1.4-.742.1-1.364.082-1.117,1.108.019.07-.238.21-.366.317-.049-.555-.385-1.392.2-1.57a4.9,4.9,0,0,1,2.64-.012C-104.476,374.949-104.814,375.773-104.863,376.328Z" transform="translate(189.73 -349.334)" fill="#cca22d"/>
    <path id="Path_246" data-name="Path 246" d="M-109.033,377.935l-.023,1.031c.1.842-.285,1.227-1.124,1.168C-110.649,378.956-109.968,378.378-109.033,377.935Z" transform="translate(186.719 -344.887)" fill="#12060d"/>
    <path id="Path_247" data-name="Path 247" d="M-124.56,365.966c.541.674.289,1.441.261,2.183-.9.07-.2,1.3-1.026,1.423l-.086-.077.016-1.061.287-.55c.571-.567.17-1.257.245-1.889Z" transform="translate(166.631 -360.832)" fill="#24051e"/>
    <path id="Path_248" data-name="Path 248" d="M-108.648,379.338l2.509-.009.1,1.031c-.847-.742-1.754-.208-2.64-.128Z" transform="translate(188.916 -343.03)" fill="#12060d"/>
    <path id="Path_249" data-name="Path 249" d="M-110.438,378.646a2.852,2.852,0,0,1-2.024.168l.033-.7c1.493.525,1.751.348,1.747-1.215,0-.312-.033-.627-.051-.942l.292-.266Z" transform="translate(183.882 -347.879)" fill="#e1be4f"/>
    <path id="Path_250" data-name="Path 250" d="M-102.84,378.273a19.455,19.455,0,0,1,.016,4.086A3.909,3.909,0,0,1-102.84,378.273Z" transform="translate(195.943 -344.437)" fill="#1e0f02"/>
    <path id="Path_251" data-name="Path 251" d="M-126.131,376.612c-.093-.653.212-1.432-.886-1.651-1.425-.287-1.528.777-1.908,1.609l.035-.483-.009-.816c.651-1.252,1.758-.4,2.633-.506.658-.079.306.669.378,1.049a3.376,3.376,0,0,1-.019.8l-.112.007Z" transform="translate(161.949 -349.357)" fill="#e1be4f"/>
    <path id="Path_252" data-name="Path 252" d="M-101.036,379.953l.252-.275q.035,3.4.075,6.794l-.324-.268Q-101.037,383.079-101.036,379.953Z" transform="translate(199.104 -342.565)" fill="#cca22d"/>
    <path id="Path_253" data-name="Path 253" d="M-122.176,379.909c-.315-.611-.627-.266-.94,0l-.037-1.866,1.038-.007Z" transform="translate(169.639 -344.746)" fill="#cca22d"/>
    <path id="Path_254" data-name="Path 254" d="M-136.386,378.905a1.1,1.1,0,0,1-.03-.152q.021-1.532.04-3.065l.742.009c-.576,1.005.184,2.223-.508,3.209A.429.429,0,0,1-136.386,378.905Z" transform="translate(151.97 -347.879)" fill="#e8c516"/>
    <path id="Path_255" data-name="Path 255" d="M-127.874,373.426a9.276,9.276,0,0,1,2.2-2.206A2.475,2.475,0,0,1-127.874,373.426Z" transform="translate(163.349 -353.833)" fill="#24051e"/>
    <path id="Path_256" data-name="Path 256" d="M-136.2,377.117q-.018,1.532-.04,3.065l-.313-.319,0-.83.009-3.267c-.044-.816.205-1.32,1.15-1.091l-.009-.023-.054.329C-136.917,375.27-135.919,376.415-136.2,377.117Z" transform="translate(151.79 -349.307)" fill="#cca22d"/>
    <path id="Path_257" data-name="Path 257" d="M-105.531,381.134a13.8,13.8,0,0,0,1.465.275c1.542.128,1.712-.047,1.7-1.614a.48.48,0,0,1,.5.32,1.95,1.95,0,0,0,.014,1.332l-.208.3-3.531-.077Z" transform="translate(193.038 -342.414)" fill="#e1be4f"/>
    <path id="Path_258" data-name="Path 258" d="M-136.223,377.068a.429.429,0,0,0,.243,0c.821.41.511,1.152.527,1.8l-1.019.019C-136.417,378.276-136.78,377.609-136.223,377.068Z" transform="translate(151.807 -346.042)" fill="#f4f1cb"/>
    <path id="Path_259" data-name="Path 259" d="M-98.929,385.287c1.124-.945,1.166-2.164.089-2.638-.061-.518.31-.452.623-.455.4,0,.406.287.408.564a14.689,14.689,0,0,0,.012,1.635C-97.672,385.378-98.208,385.427-98.929,385.287Z" transform="translate(201.911 -339.214)" fill="#e1be4f"/>
    <path id="Path_260" data-name="Path 260" d="M-112.991,372.185c-.858-.009-.854-.6-.814-1.21.576.324,1.164.7,1.544-.56C-112.077,371.439-112.056,372.057-112.991,372.185Z" transform="translate(182.074 -354.905)" fill="#24051e"/>
    <path id="Path_261" data-name="Path 261" d="M-102.183,378.417c.942-.511,1.952-.231,2.936-.243l0,.583q-1.469,0-2.939,0Z" transform="translate(197.566 -344.656)" fill="#e8c516"/>
    <path id="Path_262" data-name="Path 262" d="M-136.51,377.859l1.019-.019-.03,1.292c-.322.007-.641.016-.961.026Z" transform="translate(151.844 -345.014)" fill="#e1be4f"/>
    <path id="Path_263" data-name="Path 263" d="M-128.081,377.79c-.494.613-1.2.5-1.861.534.371-.467.168-1.017.208-1.528.03-.4.068-.718.59-.588C-129.639,377.307-129.333,377.867-128.081,377.79Z" transform="translate(160.594 -347.226)" fill="#e1be4f"/>
    <path id="Path_264" data-name="Path 264" d="M-107.926,379.878c.261.8.362,1.341-.012,1.845a.289.289,0,0,1-.457-.079C-108.689,381.049-108.479,380.552-107.926,379.878Z" transform="translate(189.123 -342.299)" fill="#12060d"/>
    <path id="Path_265" data-name="Path 265" d="M-123.5,378.27a2.1,2.1,0,0,1,.04,1.353c-.592.014-1.145-.082-1.089-.837C-124.506,378.1-123.911,378.328-123.5,378.27Z" transform="translate(167.769 -344.441)" fill="#1e0f02"/>
    <path id="Path_266" data-name="Path 266" d="M-131.6,380.606l3.284.1A3.689,3.689,0,0,1-131.6,380.606Z" transform="translate(158.382 -341.329)" fill="#1e0f02"/>
    <path id="Path_267" data-name="Path 267" d="M-107.5,380.36l-.1-1.031,1.1.007-.117,1.033Z" transform="translate(190.37 -343.03)" fill="#cca22d"/>
    <path id="Path_268" data-name="Path 268" d="M-125.908,370.3c.459.625-.126,1.091-.243,1.63l-.732.037A2.833,2.833,0,0,1-125.908,370.3Z" transform="translate(164.67 -355.06)" fill="#24051e"/>
    <path id="Path_269" data-name="Path 269" d="M-122.55,375.18h-1.089c.047-.408-.145-.991.543-.991S-122.6,374.772-122.55,375.18Z" transform="translate(168.991 -349.878)" fill="#12060d"/>
    <path id="Path_270" data-name="Path 270" d="M-102.872,381.551l.089,3.3c-.128.268-.345.284-.592.207C-102.928,383.932-103.341,382.677-102.872,381.551Z" transform="translate(195.986 -340.07)" fill="#1e0f02"/>
    <path id="Path_271" data-name="Path 271" d="M-135.866,376.609l0,.83c-.515-.061-1.29-.082-1.194-.7C-136.948,376.028-136.264,376.816-135.866,376.609Z" transform="translate(151.104 -346.884)" fill="#12060d"/>
    <path id="Path_272" data-name="Path 272" d="M-117.794,365.113c-.366.487.518,1.416-.583,1.642-.058-.4-.133-.8-.175-1.2C-118.624,364.868-118.246,364.92-117.794,365.113Z" transform="translate(175.757 -362.137)" fill="#0b0806"/>
    <path id="Path_273" data-name="Path 273" d="M-128.086,371.592a4.534,4.534,0,0,0,.814,1.371c-.506.408-.87.058-1-.333C-128.359,372.343-128.839,371.8-128.086,371.592Z" transform="translate(162.512 -353.337)" fill="#24051e"/>
    <path id="Path_274" data-name="Path 274" d="M-137.7,374.715c.357-.753,1.059-.467,1.64-.548l0,.52C-136.615,374.323-137.137,375.548-137.7,374.715Z" transform="translate(150.263 -349.907)" fill="#24051e"/>
    <path id="Path_275" data-name="Path 275" d="M-108.072,379.34l-.035.893a.305.305,0,0,0-.2.131l-.809.007c-.016-.457.392-.686.564-1.042Z" transform="translate(188.34 -343.031)" fill="#cca22d"/>
    <path id="Path_276" data-name="Path 276" d="M-124.6,366.035c-.075.632.327,1.322-.245,1.889-.11-.522.336-1.343-.725-1.36-.154-.436.126-.555.466-.63Z" transform="translate(166.365 -360.874)" fill="#c61d96"/>
    <path id="Path_277" data-name="Path 277" d="M-117.744,370.664l.791.028c-.6.956-.942,1.066-1.649.532a.334.334,0,0,1,.04-.2C-118.185,371.144-117.853,371.154-117.744,370.664Z" transform="translate(175.699 -354.574)" fill="#24051e"/>
    <path id="Path_278" data-name="Path 278" d="M-105.589,380.595l3.531.077A4.642,4.642,0,0,1-105.589,380.595Z" transform="translate(193.038 -341.343)" fill="#1e0f02"/>
    <path id="Path_279" data-name="Path 279" d="M-116.47,375.16h-1.075c.331-.249-.229-.912.364-.958S-116.775,374.88-116.47,375.16Z" transform="translate(177.11 -349.864)" fill="#0b0806"/>
    <path id="Path_280" data-name="Path 280" d="M-129.66,380.357l.11-1.029.823.019C-128.7,379.993-128.788,380.536-129.66,380.357Z" transform="translate(160.97 -343.031)" fill="#1e0f02"/>
    <path id="Path_281" data-name="Path 281" d="M-138.553,375.409c.31-.592.693-1.077,1.467-.961C-137.291,375.2-137.874,375.381-138.553,375.409Z" transform="translate(149.123 -349.556)" fill="#24051e"/>
    <path id="Path_282" data-name="Path 282" d="M-129.991,381.442q-.049-.8-.1-1.607c.187-.016.373-.035.557-.054C-129.576,380.364-129.354,381.022-129.991,381.442Z" transform="translate(160.399 -342.428)" fill="#1e0f02"/>
    <path id="Path_283" data-name="Path 283" d="M-106.536,379.381c.886-.257,1.243.147,1.238,1C-106.093,380.523-106.014,379.579-106.536,379.381Z" transform="translate(191.776 -343.063)" fill="#12060d"/>
    <path id="Path_284" data-name="Path 284" d="M-119.152,375.992l-.17,2.5-.138-2.712.121-.1Z" transform="translate(174.559 -347.892)" fill="#cca22d"/>
    <path id="Path_285" data-name="Path 285" d="M-120.273,375.167l.007-.52c.478.152.933.324.889.959C-119.786,375.683-120.152,375.675-120.273,375.167Z" transform="translate(173.476 -349.267)" fill="#0b0806"/>
    <path id="Path_286" data-name="Path 286" d="M-126.79,366.672c-.014.345.329.865-.417.851C-127.833,366.866-127.193,366.826-126.79,366.672Z" transform="translate(163.889 -359.892)" fill="#12060d"/>
    <path id="Path_287" data-name="Path 287" d="M-118.947,376c-.7.105-.907-.259-.849-.879A.739.739,0,0,1-118.947,376Z" transform="translate(174.099 -348.641)" fill="#0b0806"/>
    <path id="Path_288" data-name="Path 288" d="M-103.915,381.262a1.95,1.95,0,0,1-.014-1.332C-103.835,380.373-103.236,380.812-103.915,381.262Z" transform="translate(195.102 -342.229)" fill="#1e0f02"/>
    <path id="Path_289" data-name="Path 289" d="M-107.169,380.365l.117-1.033.539.016C-106.549,379.805-106.388,380.388-107.169,380.365Z" transform="translate(190.933 -343.026)" fill="#12060d"/>
    <path id="Path_290" data-name="Path 290" d="M-118.278,377.631c0,.191-.054.4-.268.357a1.975,1.975,0,0,1-.546-.308,2.528,2.528,0,0,1,.431-.28C-118.465,377.321-118.325,377.414-118.278,377.631Z" transform="translate(175.049 -345.637)" fill="#0b0806"/>
    <path id="Path_291" data-name="Path 291" d="M-115.674,370.716c.194-.3.378-.62.83-.483C-114.965,370.664-115.065,371.128-115.674,370.716Z" transform="translate(179.603 -355.192)" fill="#24051e"/>
    <path id="Path_292" data-name="Path 292" d="M-126.689,366.085c.159.45-.007.714-.466.809C-127.158,366.533-127.177,366.162-126.689,366.085Z" transform="translate(164.306 -360.674)" fill="#12060d"/>
    <path id="Path_293" data-name="Path 293" d="M-121.318,374.755h-1.614A1.435,1.435,0,0,1-121.318,374.755Z" transform="translate(169.933 -349.454)" fill="#12060d"/>
    <path id="Path_294" data-name="Path 294" d="M-114.029,370.466c.042-.263.1-.532.448-.48.082.012.222.189.2.238-.121.308-.417.2-.655.236Z" transform="translate(181.785 -355.486)" fill="#24051e"/>
    <path id="Path_295" data-name="Path 295" d="M-119.855,374.812l-1.087,0C-120.578,374.665-120.217,374.115-119.855,374.812Z" transform="translate(172.584 -349.507)" fill="#12060d"/>
    <path id="Path_296" data-name="Path 296" d="M-139.021,375.347c.091-.327.273-.518.641-.441C-138.431,375.289-138.664,375.41-139.021,375.347Z" transform="translate(148.499 -348.944)" fill="#24051e"/>
    <path id="Path_297" data-name="Path 297" d="M-116.078,374.894l-.534-.079c.035-.177.072-.387.306-.35C-116.09,374.5-116.09,374.714-116.078,374.894Z" transform="translate(178.353 -349.516)" fill="#0b0806"/>
    <path id="Path_298" data-name="Path 298" d="M-126.307,365.723c.161.385.047.56-.38.487A.519.519,0,0,1-126.307,365.723Z" transform="translate(164.931 -361.156)" fill="#12060d"/>
    <path id="Path_299" data-name="Path 299" d="M-117.083,370.771l.462-.182c.033.21.128.478-.173.539C-116.994,371.167-117.055,370.95-117.083,370.771Z" transform="translate(177.725 -354.674)" fill="#24051e"/>
    <path id="Path_300" data-name="Path 300" d="M-118.266,380.26l-.035.55c-.175-.035-.38-.068-.364-.291S-118.441,380.286-118.266,380.26Z" transform="translate(175.617 -341.79)" fill="#0b0806"/>
    <path id="Path_301" data-name="Path 301" d="M-128.861,374.876l.009.816A.907.907,0,0,1-128.861,374.876Z" transform="translate(161.91 -348.962)" fill="#ebaf0d"/>
    <path id="Path_302" data-name="Path 302" d="M-104.41,379.8l-.016-.826A.477.477,0,0,1-104.41,379.8Z" transform="translate(194.587 -343.505)" fill="#1e0f02"/>
    <path id="Path_303" data-name="Path 303" d="M-119.289,370.932a.5.5,0,0,1,.737,0A.785.785,0,0,1-119.289,370.932Z" transform="translate(174.787 -354.431)" fill="#c61d96"/>
    <path id="Path_304" data-name="Path 304" d="M-104.13,379.951c-.364.061-.315-.175-.285-.394Z" transform="translate(194.576 -342.726)" fill="#1e0f02"/>
    <path id="Path_305" data-name="Path 305" d="M-112.243,380.628l-.021.289c-.077-.021-.154-.037-.231-.054l.079-.469Z" transform="translate(183.838 -341.61)" fill="#d57f0d"/>
    <path id="Path_306" data-name="Path 306" d="M-122.084,371.125l-.058.1.056-.107Z" transform="translate(170.986 -353.962)" fill="#0b0806"/>
    <path id="Path_307" data-name="Path 307" d="M-116.1,374.637l-.007.306-.278-.294Z" transform="translate(178.657 -349.281)" fill="#0b0806"/>
    <path id="Path_308" data-name="Path 308" d="M-106.091,376.4l-.2-.427Z" transform="translate(192.101 -347.495)" fill="#ebaf0d"/>
    <path id="Path_309" data-name="Path 309" d="M-118.019,376.869a.231.231,0,0,1,0,.247,1,1,0,0,1-.065-.175C-118.093,376.92-118.042,376.892-118.019,376.869Z" transform="translate(176.385 -346.307)" fill="#0b0806"/>
    <path id="Path_310" data-name="Path 310" d="M-105.719,379.787c.215-.019.278.093.245.287Z" transform="translate(192.865 -342.422)" fill="#12060d"/>
    <path id="Path_311" data-name="Path 311" d="M-140.617,376.374a1.7,1.7,0,0,1,1.523,1.287c.058.767-.9,1.2-1.474,1.726-.133.121-1.756-1.5-1.651-1.7A2.927,2.927,0,0,1-140.617,376.374Z" transform="translate(144.232 -346.967)" fill="#c593ce"/>
    <path id="Path_312" data-name="Path 312" d="M-127.137,375.223c-1.761,1.012-5.8,1.474-7.451-1.021.091-.4-.83-.767-.049-1.2,1.656,1.723,3.6,1.581,5.642.891a6.808,6.808,0,0,1,1.339-.173c.142.1.189.012.215-.114v0c.441-.03,1.033.222,1.08-.564l0,.007a.493.493,0,0,0,.56-.233l.07-.037.21-.238.012-.021c.466.14,1.164-.308,1.362.527l-.023.037-.24.17a.087.087,0,0,1-.128.075c-.555.21-1.341.035-1.5.9l-.07.04-.065-.049-.408.229-.009.012-.266.25Z" transform="translate(153.918 -352.101)" fill="#d9169f"/>
    <path id="Path_313" data-name="Path 313" d="M-129.544,379.021c-.2-.835-.9-.387-1.362-.527a16.751,16.751,0,0,0,3.722-5.828,36.756,36.756,0,0,1,2.1-4.629c.595,1.166-.021,2.37-.287,3.363A16.907,16.907,0,0,1-129,378.622,3.209,3.209,0,0,1-129.544,379.021Z" transform="translate(159.31 -358.075)" fill="#c61d96"/>
    <path id="Path_314" data-name="Path 314" d="M-133.064,372.606c-.541.138-.949.653-1.577.548a3.763,3.763,0,0,0-2.551.562c-.252.128-.525.327-.695.021-.159-.285.138-.494.359-.639a42.95,42.95,0,0,1,5.019-2.705c.224-.1.394-.189.4-.455a1.325,1.325,0,0,0,.553-1.418c-.075-.289.089-.387.331-.469a.414.414,0,0,1,.55.24,1.957,1.957,0,0,1-.049,2.376A21.668,21.668,0,0,1-133.064,372.606Z" transform="translate(149.95 -358.097)" fill="#d9169f"/>
    <path id="Path_315" data-name="Path 315" d="M-128.969,372.425a7.487,7.487,0,0,0-1.15.231c-1.623.6-2.02.441-2.775-1.2a10.74,10.74,0,0,0,4.825-1.444,4.1,4.1,0,0,1,1.136-.378c.375-.065.728.389.543.527C-127.315,370.848-127.672,372.182-128.969,372.425Z" transform="translate(156.662 -355.952)" fill="#d9169f"/>
    <path id="Path_316" data-name="Path 316" d="M-132.974,369.055l.354-.641.14-.152a1.243,1.243,0,0,1,.135-.023,2.754,2.754,0,0,0,1.6-.28,17.6,17.6,0,0,0-2.794,8.692,3.276,3.276,0,0,1-.784-3.491A19.138,19.138,0,0,0-132.974,369.055Z" transform="translate(154.484 -358.177)" fill="#c61d96"/>
    <path id="Path_317" data-name="Path 317" d="M-130.653,372.744c-.047.786-.639.534-1.08.564C-131.5,372.868-130.989,372.975-130.653,372.744Z" transform="translate(158.208 -351.803)" fill="#c61d96"/>
    <path id="Path_318" data-name="Path 318" d="M-130.711,372.657a.493.493,0,0,1-.56.233C-131.166,372.615-130.944,372.622-130.711,372.657Z" transform="translate(158.824 -351.942)" fill="#c61d96"/>
    <path id="Path_319" data-name="Path 319" d="M-130.791,372.529l-.21.238Z" transform="translate(159.184 -352.089)" fill="#c61d96"/>
    <path id="Path_320" data-name="Path 320" d="M-131.61,372.985c-.026.126-.072.212-.215.114A.342.342,0,0,1-131.61,372.985Z" transform="translate(158.086 -351.481)" fill="#c61d96"/>
    <path id="Path_321" data-name="Path 321" d="M-133.564,370.6a1.654,1.654,0,0,1-.487,2.673c-.3.18-.588.387-.884.581-.362-.124-.569.028-.665.376a.161.161,0,0,0-.173.077c-.219-.016-.441-.035-.583.187l-.03-.014c-.24,0-.41.086-.448.348-.219.926-1.311.287-1.682.94-.077-.1-.236-.257-.219-.278.567-.688.051-1.887,1.206-2.337,1.019-.4,1.926-1.087,2.953-1.455C-133.96,371.476-134.3,370.571-133.564,370.6Z" transform="translate(148.88 -354.658)" fill="#c61d96"/>
    <path id="Path_322" data-name="Path 322" d="M-136.252,372.817l-.48-.03.028-.263A.457.457,0,0,1-136.252,372.817Z" transform="translate(151.549 -352.097)" fill="#24051e"/>
    <path id="Path_323" data-name="Path 323" d="M-137.92,372.612c.037-.261.208-.35.448-.347l.084.292Z" transform="translate(149.966 -352.442)" fill="#24051e"/>
    <path id="Path_324" data-name="Path 324" d="M-118.868,374.937a3.155,3.155,0,0,0,.4,1.791,1.1,1.1,0,0,1-.334,1.556c-.394.324-.669.94-1.327.725a1.169,1.169,0,0,1-.8-1.383c1.168-.11,1.6-.676.966-1.738-.646-1.082-.73-2.388-1.5-3.435a1.189,1.189,0,0,1,.315-1.728c.679-.56,1.18-1.334,1.866-1.88a3.62,3.62,0,0,0,1.593-3.03c.669.1.861.63,1.031,1.173l-.021.543-.322.8a1.976,1.976,0,0,0-.777.819.588.588,0,0,0-.546.564l.007-.007a.559.559,0,0,0-.553.553l0,0a.523.523,0,0,0-.55.55l0,0c-1.25.987-1.255,1.273-.033,2.533l-.009-.026c.205.541-.306,1.341.585,1.637Z" transform="translate(171.569 -361.032)" fill="#c61d96"/>
    <path id="Path_325" data-name="Path 325" d="M-120.375,371.1c-1,.993-1.3,2.374-1.952,3.559a1.737,1.737,0,0,1-1.775,1.131,1.519,1.519,0,0,1-1.586-1.346c1.964-.464,2.533-2.237,3.258-3.722.77-1.577,1.178-2.029,3.1-2.048.3.616-.457.847-.487,1.343h0c-.567.166-.5.655-.555,1.084Z" transform="translate(166.262 -357.226)" fill="#d9169f"/>
    <path id="Path_326" data-name="Path 326" d="M-119.037,365.494a1.44,1.44,0,0,1,1.525.744c.389.77-.373,1.4-.763,1.889-.914,1.15-2.013,2.281-3.7,2.029-.613-.093-.62.814-1.208.515a30.519,30.519,0,0,1,1.234-3.288,1.935,1.935,0,0,1,1.488-1.234C-119.851,366.122-119.5,365.721-119.037,365.494Z" transform="translate(169.602 -361.487)" fill="#12060d"/>
    <path id="Path_327" data-name="Path 327" d="M-118.451,365.735c-.466.226-.814.627-1.423.655a1.936,1.936,0,0,0-1.488,1.234,30.522,30.522,0,0,0-1.234,3.288c-.634.149-1.294.016-.914-.737.625-1.241.77-2.635,1.453-3.851C-121.5,365.329-119.222,364.9-118.451,365.735Z" transform="translate(169.015 -361.728)" fill="#c61d96"/>
    <path id="Path_328" data-name="Path 328" d="M-118.909,367.4c-.17-.543-.361-1.068-1.031-1.173l-.07-.725C-118.772,365.633-118.422,366.275-118.909,367.4Z" transform="translate(173.826 -361.446)" fill="#24051e"/>
    <path id="Path_329" data-name="Path 329" d="M-123.172,370.054c.03-.5.791-.728.487-1.343.956-.3.478.48.6.807A.982.982,0,0,1-123.172,370.054Z" transform="translate(169.614 -357.264)" fill="#24051e"/>
    <path id="Path_330" data-name="Path 330" d="M-124.81,367.584l.184-.205C-124.539,367.58-124.633,367.619-124.81,367.584Z" transform="translate(167.431 -358.95)" fill="#12060d"/>
    <path id="Path_331" data-name="Path 331" d="M-131.987,370.78a2.754,2.754,0,0,1-1.6.28,10.453,10.453,0,0,1,5.506-4.977,1.731,1.731,0,0,1,1.875.07c.746.828-.182.76-.534,1l-.6-.03c-.217-.2-.387-.166-.513.1l-.016.014a1.328,1.328,0,0,0-1.08.557A24.6,24.6,0,0,1-131.987,370.78Z" transform="translate(155.732 -360.998)" fill="#d9169f"/>
    <path id="Path_332" data-name="Path 332" d="M-130.656,366.984c.352-.243,1.28-.175.534-1l.8-.012.042,1.873c-.035.035-.07.072-.1.107Z" transform="translate(159.643 -360.827)" fill="#c61d96"/>
    <path id="Path_333" data-name="Path 333" d="M-131.134,373.77c.161-.868.947-.693,1.5-.9C-129.893,373.567-130.609,373.511-131.134,373.77Z" transform="translate(159.006 -351.639)" fill="#c61d96"/>
    <path id="Path_334" data-name="Path 334" d="M-131.6,367a1.328,1.328,0,0,1,1.08-.557C-130.705,366.97-131.207,366.882-131.6,367Z" transform="translate(158.382 -360.2)" fill="#c61d96"/>
    <path id="Path_335" data-name="Path 335" d="M-131.133,366.565c.126-.266.3-.3.513-.1Z" transform="translate(159.008 -360.338)" fill="#c61d96"/>
    <path id="Path_336" data-name="Path 336" d="M-131.367,373.479l.408-.229Z" transform="translate(158.696 -351.128)" fill="#c61d96"/>
    <path id="Path_337" data-name="Path 337" d="M-131.485,373.6l.266-.25A.241.241,0,0,1-131.485,373.6Z" transform="translate(158.539 -350.991)" fill="#c61d96"/>
    <path id="Path_338" data-name="Path 338" d="M-130.435,372.932l.24-.17C-130.2,372.918-130.279,372.984-130.435,372.932Z" transform="translate(159.938 -351.779)" fill="#c61d96"/>
    <path id="Path_339" data-name="Path 339" d="M-130.042,367.843l-.042-1.873c.033.03.089.056.093.089.187,1.266.688,1.481,1.556.466C-128.307,367.775-129.412,367.516-130.042,367.843Z" transform="translate(160.405 -360.827)" fill="#f6e7f6"/>
    <path id="Path_340" data-name="Path 340" d="M-133.57,368.089l-.14.152A.287.287,0,0,1-133.57,368.089Z" transform="translate(155.575 -358.004)" fill="#f6e7f6"/>
    <path id="Path_341" data-name="Path 341" d="M-119.889,370.917l.023-.527c.051-.117.1-.233.156-.348a.766.766,0,0,0,.627.373Z" transform="translate(173.987 -355.402)" fill="#c61d96"/>
    <path id="Path_342" data-name="Path 342" d="M-124.141,380.022l-.026,1.257c-.886.089-1.794.352-2.521-.483-.133-.154-.457-.392-.651,0-.529,1.061-1.332.5-2.064.366.138-.749-.373-1.763.961-2.015.268-.049.1-.718.056-1.106l.019-.333c.222-.639,1.346-.457,1.271-1.409-.009-.124.543-.17.571-.044.166.786,1.383.672,1.334,1.6-.023.7-.4,1.577.872,1.579C-124.259,379.435-124.2,379.817-124.141,380.022Z" transform="translate(161.314 -347.226)" fill="#0b0806"/>
    <path id="Path_343" data-name="Path 343" d="M-123.265,380.362l.438.035a3.62,3.62,0,0,1-.252,1.588l-2.2,0c-.261-.485-.054-1.164-.618-1.525-.534-.194-.975-.476-1.026-1.115l3.258-.007.056.746Z" transform="translate(164.611 -343.023)" fill="#ebaf0d"/>
    <path id="Path_344" data-name="Path 344" d="M-137.391,372.4c.1-.348.3-.5.665-.376C-136.815,372.379-137.064,372.454-137.391,372.4Z" transform="translate(150.671 -352.823)" fill="#24051e"/>
    <path id="Path_345" data-name="Path 345" d="M-136.755,374.256a.532.532,0,0,1,.525-.56A.487.487,0,0,1-136.755,374.256Z" transform="translate(151.518 -350.534)" fill="#24051e"/>
    <path id="Path_346" data-name="Path 346" d="M-135.981,373.2c-.306-.063-.532-.2-.546-.553A.489.489,0,0,1-135.981,373.2Z" transform="translate(151.822 -351.93)" fill="#24051e"/>
    <path id="Path_347" data-name="Path 347" d="M-136.489,374a.562.562,0,0,1,.4-.718C-136,373.641-136.069,373.914-136.489,374Z" transform="translate(151.852 -351.092)" fill="#24051e"/>
    <path id="Path_348" data-name="Path 348" d="M-137.715,372.382c.142-.222.364-.2.583-.187A.483.483,0,0,1-137.715,372.382Z" transform="translate(150.239 -352.546)" fill="#24051e"/>
    <path id="Path_349" data-name="Path 349" d="M-120.213,370.485c-1.222-1.259-1.217-1.546.033-2.533A11.943,11.943,0,0,0-120.213,370.485Z" transform="translate(172.343 -358.187)" fill="#24051e"/>
    <path id="Path_350" data-name="Path 350" d="M-120.152,370.664c-.891-.3-.38-1.1-.585-1.637A1.951,1.951,0,0,1-120.152,370.664Z" transform="translate(172.858 -356.754)" fill="#24051e"/>
    <path id="Path_351" data-name="Path 351" d="M-119.685,367.347l.322-.8C-118.9,367.049-119.062,367.291-119.685,367.347Z" transform="translate(174.259 -360.052)" fill="#24051e"/>
    <path id="Path_352" data-name="Path 352" d="M-120.72,368.268a.523.523,0,0,1,.55-.55A.485.485,0,0,1-120.72,368.268Z" transform="translate(172.88 -358.498)" fill="#24051e"/>
    <path id="Path_353" data-name="Path 353" d="M-120.486,368.036a.558.558,0,0,1,.553-.553A.482.482,0,0,1-120.486,368.036Z" transform="translate(173.192 -358.811)" fill="#24051e"/>
    <path id="Path_354" data-name="Path 354" d="M-120.252,367.808a.588.588,0,0,1,.546-.564C-119.685,367.627-119.874,367.808-120.252,367.808Z" transform="translate(173.504 -359.13)" fill="#24051e"/>
    <path id="Path_355" data-name="Path 355" d="M-108.467,380.79l-.037-.508c.14-.308-.075-.877.394-.912,1.033-.075.627-.753.632-1.276-.014-.952.966-1.192,1.36-1.859.056-.093.415-.009.634-.007-.028.914,1.217.812,1.3,1.635-.035.662-.345,1.4.735,1.621.292.061.243.625.215.987-.2,1.5-1.325.672-2.059.821-.07-.375.275-.956-.466-1-.826-.054-.578.564-.6,1.005C-107.079,381.191-107.968,381.807-108.467,380.79Z" transform="translate(189.155 -347.21)" fill="#0b0806"/>
    <path id="Path_356" data-name="Path 356" d="M-106.457,379.328c-.173.357-.581.585-.564,1.042l-.03.047a1.263,1.263,0,0,0-.261,1.343c-1.091.506-2.19.079-3.284.03-.072-.632-.348-1.311.655-1.525.424-.091.2-.621.336-.924Z" transform="translate(186.247 -343.031)" fill="#ebaf0d"/>
    <path id="Path_357" data-name="Path 357" d="M-107.576,378.955c.026-.441-.222-1.059.6-1.005.742.047.4.627.466,1Z" transform="translate(190.37 -344.872)" fill="#e1be4f"/>
    <path id="Path_358" data-name="Path 358" d="M-109.545,375.951c.019.315.049.63.051.942,0,1.563-.254,1.74-1.747,1.215l-.014-.532c.166-.282.189-.539-.126-.737-1.623-.224-.688,1.173-1.091,1.724l-.8-.11a11.514,11.514,0,0,1,.007-2.761A11.423,11.423,0,0,0-109.545,375.951Z" transform="translate(182.693 -347.875)" fill="#e8c516"/>
    <path id="Path_359" data-name="Path 359" d="M-101.386,384.269l-.007.345,0,1.105-.04,8.461c-.268.462-.674.338-1.07.25l-.079-10.113c-.033-1,.3-2.02-.21-2.983.557-.576.264-1.294.236-1.922-.077-1.84.261-3.7-.191-5.52,1.269-.571,1.245.352,1.329,1.15l.012,3.284,0,.277,0,2.778Z" transform="translate(196.77 -350.508)" fill="#1e0f02"/>
    <path id="Path_360" data-name="Path 360" d="M-99.639,379.8q0,3.127,0,6.25l-2.449-.012q.01-3.117.019-6.236Z" transform="translate(197.706 -342.408)" fill="#ebaf0d"/>
    <path id="Path_361" data-name="Path 361" d="M-101.906,381.041q-.01,3.117-.019,6.236l-.28.044.04-8.459C-101.69,379.544-102.049,380.323-101.906,381.041Z" transform="translate(197.546 -343.651)" fill="#cca22d"/>
    <path id="Path_362" data-name="Path 362" d="M-135.8,383.426l.03-1.292c-.016-.646.294-1.388-.527-1.8.693-.986-.068-2.2.508-3.209v-2.148l.054-.329c.826-.145,1.152.187,1.063,1.029a10.486,10.486,0,0,0,.042,1.479l-.012,3.214-.016,1.782.037,1.271q0,1.767,0,3.533l-.021,4.919-.275.413c-.749.033-.837-.417-.828-1.033.016-1.343-.023-2.687-.04-4.03Z" transform="translate(152.125 -349.307)" fill="#1e0f02"/>
    <path id="Path_363" data-name="Path 363" d="M-128.128,383.647c-1.849,1.1-3.867.417-5.807.515-.543.026-.452-.7-.725-1.031a.852.852,0,0,1,.718-.289c1.644,0,3.291,0,4.935-.007C-128.441,382.83-128.007,382.928-128.128,383.647Z" transform="translate(154.308 -338.359)" fill="#e8c516"/>
    <path id="Path_364" data-name="Path 364" d="M-134.895,381.282c.194-.784-.28-1.644.282-2.381v6.9l-.282.014Z" transform="translate(153.991 -343.6)" fill="#cca22d"/>
    <path id="Path_365" data-name="Path 365" d="M-135.59,384.827l.021-4.919.273.026C-135.48,381.559-134.981,383.227-135.59,384.827Z" transform="translate(153.07 -342.259)" fill="#cca22d"/>
    <path id="Path_366" data-name="Path 366" d="M-117.767,370.667c-.11.49-.441.48-.819.364A.875.875,0,0,1-117.767,370.667Z" transform="translate(175.723 -354.577)" fill="#c61d96"/>
    <path id="Path_367" data-name="Path 367" d="M-119.735,370.9c-.343-.14-.347-.3-.023-.473Z" transform="translate(173.843 -354.896)" fill="#c61d96"/>
    <path id="Path_368" data-name="Path 368" d="M-119.662,370.88l-.189-.224Z" transform="translate(174.038 -354.584)" fill="#c61d96"/>
    <path id="Path_369" data-name="Path 369" d="M-119.525,370.886c-.14.079-.215.033-.233-.119A.635.635,0,0,1-119.525,370.886Z" transform="translate(174.162 -354.436)" fill="#c61d96"/>
    <path id="Path_370" data-name="Path 370" d="M-124.587,368.181c-.278,1.612-.534,3.232-1.849,4.408A12.009,12.009,0,0,1-124.587,368.181Z" transform="translate(165.265 -357.881)" fill="#24051e"/>
    <path id="Path_371" data-name="Path 371" d="M-125.01,367.556c-.271.5.385,1.374-.637,1.567.11-.543-.012-1.129.306-1.632l.124.009.121-.021Z" transform="translate(166.316 -358.817)" fill="#24051e"/>
    <path id="Path_372" data-name="Path 372" d="M-125.269,368.085l-.121.021-.124-.009c.023-.373-.1-.784.261-1.073Z" transform="translate(166.489 -359.423)" fill="#c61d96"/>
    <path id="Path_373" data-name="Path 373" d="M-135.116,366.239c-.877-.058-1.021,2.157-2.286.711a1.135,1.135,0,0,1,.355-1.957C-135.8,364.355-135.883,365.975-135.116,366.239Z" transform="translate(150.105 -362.325)" fill="#f6e7f6"/>
    <path id="Path_374" data-name="Path 374" d="M-112.288,382.1l-.173-.233.016-.639c.208-.958,0-2.3,1.726-1.838.14.627-.187,1.325.28,1.905C-110.712,382.351-111.444,382.349-112.288,382.1Z" transform="translate(183.883 -343.079)" fill="#ebaf0d"/>
    <path id="Path_375" data-name="Path 375" d="M-110.677,380.595c-1.721-.464-1.518.879-1.726,1.838a22.547,22.547,0,0,1,.012-4.046l1.733.04C-110.665,379.149-110.67,379.872-110.677,380.595Z" transform="translate(183.841 -344.286)" fill="#d57f0d"/>
    <path id="Path_376" data-name="Path 376" d="M-112.5,382.07c-.254.117-.69.527-.756.14a13.161,13.161,0,0,1-.03-2.661c0-.089.271-.229.422-.24.345-.023.455.24.448.527a7.147,7.147,0,0,1-.1,2.251Z" transform="translate(182.713 -343.059)" fill="#cca22d"/>
    <path id="Path_377" data-name="Path 377" d="M-113.277,378.055l.851-.051c.222.569.023,1.131-.527,1.119C-113.608,379.109-113.274,378.459-113.277,378.055Z" transform="translate(182.686 -344.795)" fill="#e1be4f"/>
    <path id="Path_378" data-name="Path 378" d="M-112.508,376.184c.315.2.292.455.126.737Z" transform="translate(183.82 -347.22)" fill="#e1be4f"/>
    <path id="Path_379" data-name="Path 379" d="M-112.986,380.508l.219.212.009-.014-.212-.215Z" transform="translate(183.184 -341.48)" fill="#cca22d"/>
    <path id="Path_380" data-name="Path 380" d="M-128.827,376.834l-.019.333-.21-.236A.989.989,0,0,1-128.827,376.834Z" transform="translate(161.775 -346.354)" fill="#e1be4f"/>
    <path id="Path_381" data-name="Path 381" d="M-122.722,379.735q.021-2.291.042-4.58c1.259-.019,2.519,0,3.776-.065,1.073-.061,1.031,1.332,1.961,1.409l.019,2.232-.1,1.253c-.361.11-.667-.448-1.145.38-.623,1.075-2.2.245-3.358.389-.359.044-.945.329-1.136-.343A3.55,3.55,0,0,1-122.722,379.735Z" transform="translate(170.213 -348.681)" fill="#0b0806"/>
    <path id="Path_382" data-name="Path 382" d="M-120.277,379.179l.1-1.252c1.621.364,1.621.364,1.64-1.3,0-.313,0-.623,0-.935a.343.343,0,0,1,.168.075q.07,1.357.138,2.712c.121.774-1.077.243-.984.991C-119.57,379.37-119.925,379.275-120.277,379.179Z" transform="translate(173.47 -347.878)" fill="#e1be4f"/>
    <path id="Path_383" data-name="Path 383" d="M-123.2,378.88c-.581.044-.872-.187-.767-.8l.3-.068C-122.94,377.989-123.108,378.456-123.2,378.88Z" transform="translate(168.524 -344.785)" fill="#e1be4f"/>
    <path id="Path_384" data-name="Path 384" d="M-123.41,370.333c.054-.429-.012-.919.555-1.084C-122.9,369.685-122.687,370.249-123.41,370.333Z" transform="translate(169.296 -356.459)" fill="#24051e"/>
    <path id="Path_385" data-name="Path 385" d="M-102.187,378.618l-.012-3.284c.1-.142.329-.327.3-.425-.714-2.139,1.08-1.159,1.784-1.353.59-.163.641.492.644.949.014,1.367.009,2.731.012,4.1Z" transform="translate(197.554 -350.799)" fill="#ebaf0d"/>
    <path id="Path_386" data-name="Path 386" d="M-125.91,380.6l2.2.007.763-.231.023.529c-1.18-.061-2.4.4-3.536-.261Z" transform="translate(165.239 -341.639)" fill="#e1be4f"/>
    <path id="Path_387" data-name="Path 387" d="M-125.869,381.34l-.546.044q-.038-.784-.072-1.57C-125.923,380.176-126.13,380.855-125.869,381.34Z" transform="translate(165.197 -342.382)" fill="#cca22d"/>
    <path id="Path_388" data-name="Path 388" d="M-124,382.315c.156-1.1-.392-2.386.821-3.221.131.648-.184,1.509.851,1.73.135.03.285.4.131.427C-122.942,381.389-122.97,382.718-124,382.315Z" transform="translate(168.509 -343.343)" fill="#cca22d"/>
    <path id="Path_389" data-name="Path 389" d="M-117.758,375.632l-.371-.18c-.191-.45-.068-.7.445-.7h3.592c-.933.718-.851,1.539-1.159,2.216a5.383,5.383,0,0,0-2.237.24C-117.587,376.684-117.284,376.092-117.758,375.632Z" transform="translate(176.219 -349.126)" fill="#ebaf0d"/>
    <path id="Path_390" data-name="Path 390" d="M-117.885,375.965a5.382,5.382,0,0,1,2.237-.24c-.007.359-.028.718-.019,1.077.021.758.054,1.4-1.066,1.416-1.157.016-1.227-.6-1.166-1.446C-117.878,376.5-117.89,376.233-117.885,375.965Z" transform="translate(176.618 -347.882)" fill="#e8c516"/>
    <path id="Path_391" data-name="Path 391" d="M-134.118,375.692c-.021.674,0,1.355-.079,2.024a.683.683,0,0,1-.723.667c-.511-.023-.529-.4-.536-.777-.012-.632-.019-1.266-.026-1.9Q-134.8,375.7-134.118,375.692Z" transform="translate(153.214 -347.875)" fill="#e8c516"/>
    <path id="Path_392" data-name="Path 392" d="M-110.636,380.4c1.094.049,2.192.476,3.284-.03l.023.518c-.891.023-1.779.051-2.67.065C-110.363,380.961-110.755,380.966-110.636,380.4Z" transform="translate(186.286 -341.642)" fill="#e1be4f"/>
    <path id="Path_393" data-name="Path 393" d="M-109.166,381.656l-.023-.518a1.263,1.263,0,0,1,.261-1.343C-109.061,380.408-108.623,381.1-109.166,381.656Z" transform="translate(188.123 -342.409)" fill="#cca22d"/>
    <path id="Path_394" data-name="Path 394" d="M-118.583,375.69c0,.313,0,.623,0,.935-.019,1.665-.019,1.665-1.64,1.3l-.019-2.232Z" transform="translate(173.514 -347.878)" fill="#e8c516"/>
    <path id="Path_395" data-name="Path 395" d="M-124.514,381.15l-.763.231a3.635,3.635,0,0,0,.252-1.591C-123.987,379.916-124.622,380.674-124.514,381.15Z" transform="translate(166.809 -342.416)" fill="#cca22d"/>
    <path id="Path_396" data-name="Path 396" d="M-125.159,379.936l-.347-.282Z" transform="translate(166.504 -342.597)" fill="#cca22d"/>
    <path id="Path_397" data-name="Path 397" d="M-121.4,375.694a8.562,8.562,0,0,0,.023,1.224c.24,1.479-.956,1.364-1.735,1.418-.975.068-.709-.833-.751-1.42-.028-.406,0-.816-.007-1.224Z" transform="translate(168.669 -347.875)" fill="#e8c516"/>
    <path id="Path_398" data-name="Path 398" d="M-118.03,381.265l.058-1.919c.91.082,1.849-.24,2.726.226.107.746.212,1.49.334,2.342C-115.924,381.657-117.2,382.8-118.03,381.265Z" transform="translate(176.464 -343.051)" fill="#ebaf0d"/>
    <path id="Path_399" data-name="Path 399" d="M-111.714,380.587c.007-.723.012-1.446.019-2.169a.493.493,0,0,1,.233-.021l.028,4.1C-111.9,381.912-111.574,381.214-111.714,380.587Z" transform="translate(184.878 -344.279)" fill="#cca22d"/>
    <path id="Path_400" data-name="Path 400" d="M-135.613,374.772v2.148l-.742-.009C-136.077,376.209-137.075,375.064-135.613,374.772Z" transform="translate(151.948 -349.101)" fill="#ebaf0d"/>
  </g>
</svg>
