<?xml version="1.0" encoding="UTF-8"?>
<svg xmlns="http://www.w3.org/2000/svg" xmlns:xlink="http://www.w3.org/1999/xlink" width="300" height="60" viewBox="0 0 300 60" version="1.1">
<g id="surface1">
<path style=" stroke:none;fill-rule:nonzero;fill:rgb(13.333333%,38.823529%,68.627451%);fill-opacity:1;" d="M 0 14.324219 C 0.539062 14.324219 1.074219 13.792969 1.433594 13.617188 C 8.070312 9.390625 14.703125 5.164062 21.160156 0.757812 C 21.519531 0.582031 21.875 0.0546875 22.234375 0.230469 C 22.59375 0.40625 22.414062 0.933594 22.414062 1.285156 C 22.414062 7.453125 22.414062 13.617188 22.414062 19.78125 C 22.414062 20.664062 22.054688 21.367188 21.339844 21.722656 C 18.289062 23.660156 15.242188 25.597656 12.195312 27.535156 C 11.476562 27.886719 10.9375 28.765625 11.117188 29.648438 C 11.117188 35.8125 11.117188 41.976562 11.117188 48.144531 C 11.117188 49.023438 10.757812 49.730469 10.042969 50.257812 C 6.636719 52.371094 3.226562 54.660156 -0.179688 56.777344 Z M 0 14.324219 "/>
<path style=" stroke:none;fill-rule:nonzero;fill:rgb(36.470588%,48.627451%,62.745098%);fill-opacity:1;" d="M 86.609375 59.945312 C 86.074219 59.417969 85.175781 59.417969 84.460938 58.890625 C 79.078125 56.070312 78.003906 47.4375 82.488281 42.859375 C 86.074219 39.335938 91.8125 39.335938 95.398438 42.859375 C 95.398438 42.859375 95.398438 42.859375 95.578125 43.035156 C 95.578125 43.035156 95.757812 43.210938 95.757812 43.210938 C 96.472656 44.09375 97.730469 45.148438 97.191406 46.207031 C 96.652344 47.261719 95.039062 47.261719 93.964844 47.617188 C 93.425781 47.792969 93.246094 47.261719 93.066406 46.910156 C 92.347656 44.796875 90.019531 43.5625 87.6875 44.09375 C 85.535156 44.621094 84.101562 46.558594 84.101562 48.671875 C 83.921875 49.90625 83.921875 51.136719 84.101562 52.195312 C 84.460938 54.132812 86.074219 55.71875 88.046875 56.070312 C 90.195312 56.421875 92.167969 55.191406 92.886719 53.253906 C 93.246094 52.546875 93.425781 52.371094 94.140625 52.722656 C 94.5 52.898438 94.859375 53.078125 95.21875 53.078125 C 97.550781 53.957031 97.550781 53.957031 96.292969 56.070312 C 95.039062 58.007812 93.066406 59.242188 90.914062 59.945312 Z M 86.609375 59.945312 "/>
<path style=" stroke:none;fill-rule:nonzero;fill:rgb(12.941176%,38.823529%,68.627451%);fill-opacity:1;" d="M 139.152344 13.441406 L 139.152344 19.78125 C 139.152344 23.128906 139.152344 26.476562 139.152344 29.824219 C 139.152344 30.703125 138.972656 31.058594 138.074219 30.878906 C 136.820312 30.878906 135.746094 30.878906 134.488281 30.878906 C 133.59375 30.878906 133.414062 30.527344 133.414062 29.824219 C 133.414062 21.542969 133.414062 13.265625 133.414062 4.984375 C 133.414062 4.28125 133.59375 3.929688 134.488281 3.929688 C 134.488281 3.929688 134.667969 3.929688 134.667969 3.929688 C 139.6875 3.753906 139.867188 3.753906 142.558594 7.980469 C 145.425781 12.03125 148.117188 16.261719 150.984375 20.3125 C 151.164062 20.839844 151.703125 21.191406 152.0625 21.542969 L 152.0625 13.792969 C 152.0625 10.976562 152.0625 7.980469 152.0625 5.164062 C 152.0625 4.28125 152.421875 3.929688 153.316406 3.929688 C 154.75 4.105469 156.546875 3.402344 157.441406 4.105469 C 158.339844 4.808594 157.800781 6.746094 157.800781 8.15625 C 157.800781 15.203125 157.800781 22.425781 157.800781 29.472656 C 157.800781 30.527344 157.441406 30.703125 156.367188 30.878906 C 152.421875 31.585938 150.269531 30 148.476562 26.652344 C 145.964844 22.25 142.917969 18.199219 140.046875 13.792969 C 139.6875 13.792969 139.6875 13.441406 139.152344 13.441406 Z M 139.152344 13.441406 "/>
<path style=" stroke:none;fill-rule:nonzero;fill:rgb(13.333333%,38.823529%,68.627451%);fill-opacity:1;" d="M 185.953125 16.261719 C 189.71875 18.375 190.257812 21.367188 189.539062 25.066406 C 188.644531 28.414062 185.414062 30.703125 182.007812 30.703125 C 177.703125 30.878906 173.582031 30.703125 169.277344 30.703125 C 168.378906 30.703125 168.199219 30.527344 168.199219 29.648438 C 168.199219 21.367188 168.199219 13.089844 168.199219 4.808594 C 168.199219 4.28125 168.199219 3.753906 169.097656 3.753906 C 173.402344 3.929688 177.703125 3.578125 182.1875 3.929688 C 185.953125 4.457031 188.824219 7.453125 188.824219 11.152344 C 188.644531 13.441406 187.566406 15.203125 185.953125 16.261719 Z M 177.527344 25.773438 C 178.421875 25.773438 179.496094 25.773438 180.394531 25.773438 C 182.1875 25.773438 183.621094 24.1875 183.621094 22.425781 C 183.621094 20.664062 182.1875 19.253906 180.394531 19.253906 C 179.140625 19.253906 178.0625 19.253906 176.808594 19.253906 C 173.757812 19.253906 173.757812 19.253906 173.757812 22.25 C 173.757812 25.773438 173.757812 25.773438 177.527344 25.773438 Z M 177.527344 9.390625 C 173.757812 9.390625 173.757812 9.390625 173.757812 12.914062 C 173.757812 13.265625 173.757812 13.792969 173.757812 14.144531 C 173.757812 14.675781 173.9375 15.027344 174.65625 15.027344 C 176.628906 15.027344 178.421875 15.027344 180.394531 15.027344 C 181.828125 14.851562 182.90625 13.617188 182.90625 12.207031 C 182.90625 10.800781 181.648438 9.742188 180.394531 9.566406 C 179.320312 9.214844 178.421875 9.390625 177.527344 9.390625 Z M 177.527344 9.390625 "/>
<path style=" stroke:none;fill-rule:nonzero;fill:rgb(33.72549%,48.235294%,65.098039%);fill-opacity:1;" d="M 27.613281 0.230469 C 32.457031 0.933594 37.117188 1.992188 41.960938 2.871094 C 49.132812 4.105469 56.304688 5.515625 63.480469 6.921875 C 66.167969 7.453125 65.628906 6.921875 65.628906 9.566406 C 65.628906 15.378906 65.628906 21.367188 65.628906 27.179688 C 65.628906 27.535156 66.167969 28.765625 64.734375 28.238281 C 64.554688 27.886719 64.375 27.535156 64.015625 27.359375 C 53.796875 19.960938 43.574219 12.382812 33.351562 4.632812 C 31.203125 3.402344 29.410156 1.992188 27.613281 0.230469 Z M 27.613281 0.230469 "/>
<path style=" stroke:none;fill-rule:nonzero;fill:rgb(48.627451%,57.254902%,67.45098%);fill-opacity:1;" d="M 16.496094 28.765625 C 19.90625 29.121094 23.3125 30 26.71875 30.527344 C 35.503906 32.113281 44.113281 33.875 52.898438 35.460938 C 53.976562 35.636719 54.332031 35.988281 54.332031 37.046875 C 54.332031 43.210938 54.332031 49.378906 54.332031 55.542969 C 54.332031 56.421875 54.332031 57.128906 53.078125 56.597656 C 53.078125 56.070312 52.71875 55.71875 52.183594 55.367188 C 49.3125 53.253906 46.445312 51.136719 43.753906 49.023438 C 36.402344 43.738281 29.050781 38.277344 21.875 32.996094 C 19.90625 31.9375 18.109375 30.527344 16.496094 28.765625 Z M 16.496094 28.765625 "/>
<path style=" stroke:none;fill-rule:nonzero;fill:rgb(35.294118%,47.843137%,62.352941%);fill-opacity:1;" d="M 16.496094 28.765625 C 18.109375 30.351562 19.90625 31.9375 21.875 33.171875 C 29.050781 38.632812 36.402344 43.917969 43.753906 49.199219 C 46.621094 51.316406 49.492188 53.429688 52.183594 55.542969 C 52.539062 55.894531 53.078125 56.070312 53.078125 56.777344 C 47.699219 55.71875 42.320312 54.835938 36.941406 53.78125 C 30.304688 52.546875 23.492188 51.136719 16.855469 49.90625 C 16.140625 49.730469 15.78125 49.554688 15.78125 48.671875 C 15.78125 41.976562 15.78125 35.460938 15.78125 28.765625 Z M 16.496094 28.765625 "/>
<path style=" stroke:none;fill-rule:nonzero;fill:rgb(12.941176%,38.431373%,68.627451%);fill-opacity:1;" d="M 27.613281 0.230469 C 29.410156 1.992188 31.203125 3.402344 33.351562 4.632812 C 43.574219 12.382812 53.796875 19.960938 64.015625 27.535156 C 64.375 27.710938 64.554688 28.0625 64.734375 28.414062 C 57.917969 27.179688 51.105469 25.773438 44.113281 24.539062 C 38.734375 23.480469 33.351562 22.425781 27.972656 21.542969 C 27.4375 21.191406 26.898438 21.015625 26.898438 20.136719 C 26.898438 13.441406 26.898438 6.921875 26.898438 0.230469 L 27.613281 0.230469 C 27.4375 0.230469 27.613281 0.230469 27.613281 0.230469 Z M 27.613281 0.230469 "/>
<path style=" stroke:none;fill-rule:nonzero;fill:rgb(13.72549%,39.215686%,68.627451%);fill-opacity:1;" d="M 240.285156 31.585938 C 235.984375 31.761719 232.039062 30.175781 228.988281 27.179688 C 228.273438 26.476562 228.273438 26.125 229.167969 25.597656 C 230.425781 24.890625 231.320312 23.480469 232.578125 23.128906 C 234.011719 22.777344 234.726562 24.363281 235.984375 25.066406 C 238.136719 26.125 240.464844 26.476562 242.796875 26.125 C 244.230469 25.949219 245.488281 24.890625 245.667969 23.480469 C 245.667969 21.898438 244.589844 20.664062 242.976562 20.488281 C 241.003906 20.136719 239.210938 19.605469 237.238281 19.253906 C 234.011719 18.726562 231.320312 16.082031 230.960938 12.914062 C 230.425781 9.390625 232.398438 6.21875 235.445312 4.632812 C 241.003906 2.34375 247.28125 3.402344 251.761719 7.101562 C 252.300781 7.628906 252.300781 7.980469 251.761719 8.332031 C 251.582031 8.507812 251.582031 8.507812 251.40625 8.683594 C 249.613281 10.621094 247.996094 12.03125 245.308594 9.742188 C 243.695312 8.683594 241.722656 8.507812 239.75 9.039062 C 238.492188 9.214844 237.417969 10.09375 237.238281 11.503906 C 237.238281 12.738281 238.136719 13.792969 239.390625 13.96875 C 241.363281 14.324219 243.335938 14.851562 245.308594 15.378906 C 249.074219 16.082031 251.761719 19.429688 251.761719 23.304688 C 251.582031 27.179688 248.894531 30.351562 244.949219 31.058594 C 243.695312 31.410156 241.902344 31.585938 240.285156 31.585938 Z M 240.285156 31.585938 "/>
<path style=" stroke:none;fill-rule:nonzero;fill:rgb(13.333333%,38.823529%,68.627451%);fill-opacity:1;" d="M 283.859375 17.667969 C 283.859375 21.722656 283.859375 25.773438 283.859375 29.824219 C 283.859375 30.703125 283.683594 31.058594 282.605469 31.058594 C 281.53125 31.058594 280.273438 31.058594 279.199219 31.058594 C 278.300781 31.058594 277.945312 30.878906 277.945312 29.824219 C 277.945312 26.828125 277.945312 24.011719 277.945312 21.015625 C 277.945312 19.78125 277.585938 19.605469 276.507812 19.605469 C 273.820312 19.605469 270.949219 19.605469 268.261719 19.605469 C 267.183594 19.605469 267.003906 19.960938 267.003906 20.839844 C 267.003906 23.660156 267.003906 26.652344 267.003906 29.472656 C 267.003906 30.527344 266.824219 31.058594 265.570312 30.878906 C 264.136719 30.703125 262.34375 31.410156 261.625 30.703125 C 260.910156 30 261.445312 28.0625 261.445312 26.828125 C 261.445312 19.78125 261.445312 12.5625 261.445312 5.515625 C 261.445312 4.457031 261.625 3.929688 262.882812 4.105469 C 263.957031 4.105469 265.03125 4.28125 266.109375 4.105469 C 267.003906 4.105469 267.183594 4.28125 267.183594 5.164062 C 267.183594 7.804688 267.183594 10.445312 267.183594 12.914062 C 267.183594 13.96875 267.542969 14.324219 268.621094 14.324219 C 271.488281 14.324219 274.179688 14.324219 277.046875 14.324219 C 277.945312 14.324219 278.125 13.96875 278.125 13.265625 C 278.125 10.621094 278.125 7.980469 278.125 5.339844 C 278.125 4.457031 278.480469 4.105469 279.378906 4.105469 C 280.453125 4.105469 281.710938 4.105469 282.785156 4.105469 C 283.683594 4.105469 284.039062 4.457031 284.039062 5.339844 C 283.859375 9.390625 283.859375 13.617188 283.859375 17.667969 Z M 283.859375 17.667969 "/>
<path style=" stroke:none;fill-rule:nonzero;fill:rgb(14.901961%,40%,69.019608%);fill-opacity:1;" d="M 105.082031 17.492188 C 105.082031 13.441406 105.082031 9.390625 105.082031 5.339844 C 105.082031 4.28125 105.4375 3.929688 106.515625 3.929688 C 111.535156 3.929688 116.738281 3.929688 121.757812 3.929688 C 123.011719 3.929688 123.191406 4.28125 123.191406 5.339844 C 123.011719 6.570312 123.550781 8.15625 123.011719 9.039062 C 122.296875 9.917969 120.503906 9.214844 119.246094 9.390625 C 116.914062 9.390625 114.40625 9.390625 112.074219 9.390625 C 111.175781 9.390625 110.820312 9.742188 111 10.445312 C 111.175781 11.855469 110.460938 13.617188 111.355469 14.5 C 112.074219 15.378906 114.046875 14.675781 115.300781 14.675781 C 117.273438 14.675781 119.246094 14.675781 121.039062 14.675781 C 121.578125 14.851562 121.9375 15.027344 121.9375 15.90625 C 122.117188 19.78125 122.117188 19.78125 117.992188 19.78125 C 115.839844 19.78125 113.867188 19.78125 111.714844 19.78125 C 110.820312 19.78125 110.640625 20.136719 110.640625 20.839844 C 110.640625 22.074219 110.640625 23.304688 110.640625 24.363281 C 110.640625 25.242188 111 25.597656 111.894531 25.597656 C 115.480469 25.597656 119.066406 25.597656 122.832031 25.597656 C 123.910156 25.597656 124.269531 25.949219 124.269531 27.003906 C 124.269531 31.058594 124.269531 31.058594 120.144531 31.058594 C 115.839844 31.058594 111.535156 31.058594 107.234375 31.058594 C 104.542969 31.058594 105.082031 31.410156 105.082031 28.765625 C 105.082031 24.890625 105.082031 21.191406 105.082031 17.492188 Z M 105.082031 17.492188 "/>
<path style=" stroke:none;fill-rule:nonzero;fill:rgb(13.333333%,38.823529%,68.627451%);fill-opacity:1;" d="M 220.742188 13.441406 C 220.742188 15.730469 220.5625 18.023438 220.742188 20.3125 C 220.921875 26.300781 216.078125 31.234375 209.980469 31.585938 C 203.886719 32.113281 198.503906 27.535156 197.96875 21.367188 C 197.96875 21.367188 197.96875 21.191406 197.96875 21.191406 C 197.789062 15.730469 197.96875 10.445312 197.96875 4.984375 C 197.96875 4.28125 198.328125 4.105469 198.863281 4.105469 C 200.121094 4.105469 201.375 4.105469 202.449219 4.105469 C 203.347656 4.105469 203.707031 4.457031 203.707031 5.339844 C 203.707031 10.269531 203.707031 15.378906 203.707031 20.3125 C 203.707031 22.601562 204.960938 24.714844 207.292969 25.421875 C 209.445312 26.300781 211.773438 25.949219 213.390625 24.1875 C 214.644531 22.953125 215.363281 21.191406 215.183594 19.429688 C 215.183594 14.675781 215.183594 10.09375 215.183594 5.339844 C 215.183594 4.28125 215.539062 3.929688 216.617188 4.105469 C 218.050781 4.28125 219.84375 3.578125 220.5625 4.457031 C 221.277344 5.339844 220.742188 7.101562 220.742188 8.332031 C 220.742188 10.09375 220.742188 11.679688 220.742188 13.441406 Z M 220.742188 13.441406 "/>
<path style=" stroke:none;fill-rule:nonzero;fill:rgb(14.901961%,40%,69.019608%);fill-opacity:1;" d="M 79.4375 17.492188 C 79.4375 13.441406 79.4375 9.390625 79.4375 5.339844 C 79.4375 4.28125 79.796875 4.105469 80.695312 4.105469 C 85.894531 4.105469 91.09375 4.105469 96.292969 4.105469 C 97.371094 4.105469 97.550781 4.457031 97.550781 5.339844 C 97.371094 6.570312 98.085938 8.332031 97.371094 9.039062 C 96.652344 9.742188 94.859375 9.214844 93.605469 9.390625 C 91.273438 9.390625 88.761719 9.390625 86.429688 9.390625 C 85.535156 9.390625 85.175781 9.566406 85.355469 10.445312 C 85.535156 11.855469 84.816406 13.617188 85.714844 14.5 C 86.429688 15.378906 88.402344 14.675781 89.660156 14.675781 C 91.632812 14.675781 93.425781 14.675781 95.398438 14.675781 C 96.472656 14.675781 96.652344 15.027344 96.652344 15.90625 C 96.652344 19.78125 96.652344 19.78125 92.707031 19.78125 C 90.734375 19.78125 88.582031 19.78125 86.609375 19.78125 C 85.714844 19.78125 85.355469 20.136719 85.355469 21.015625 C 85.355469 23.835938 85.355469 26.828125 85.355469 29.648438 C 85.355469 30.703125 85.175781 31.058594 84.101562 30.878906 C 82.664062 30.703125 80.871094 31.234375 79.976562 30.527344 C 79.078125 29.824219 79.617188 27.886719 79.617188 26.476562 C 79.4375 23.660156 79.4375 20.488281 79.4375 17.492188 Z M 79.4375 17.492188 "/>
<path style=" stroke:none;fill-rule:nonzero;fill:rgb(36.862745%,49.019608%,63.137255%);fill-opacity:1;" d="M 125.523438 40.746094 C 125.882812 40.746094 126.242188 40.746094 126.597656 40.746094 C 127.675781 40.570312 128.210938 40.921875 128.570312 41.976562 C 130.363281 47.4375 132.15625 52.722656 134.128906 58.183594 C 134.667969 59.59375 134.128906 59.769531 133.054688 59.59375 C 132.875 59.59375 132.515625 59.59375 132.335938 59.59375 C 131.261719 59.945312 130.183594 59.417969 129.828125 58.535156 C 129.648438 58.183594 129.648438 58.007812 129.648438 57.65625 C 129.46875 56.421875 128.929688 56.070312 127.675781 56.246094 C 126.242188 56.421875 124.625 56.421875 123.191406 56.246094 C 122.296875 56.246094 121.757812 56.597656 121.578125 57.480469 C 121.398438 58.183594 121.398438 59.417969 120.679688 59.59375 C 119.605469 59.769531 118.351562 59.769531 117.09375 59.59375 C 116.199219 59.417969 116.738281 58.890625 116.914062 58.359375 C 117.992188 55.015625 119.066406 51.84375 120.144531 48.496094 C 120.679688 46.734375 121.398438 44.972656 121.9375 43.035156 C 122.832031 40.746094 122.832031 40.746094 125.523438 40.746094 Z M 125.703125 45.324219 L 125.34375 45.324219 C 124.984375 46.558594 124.445312 47.96875 124.089844 49.199219 C 122.832031 53.078125 122.832031 53.078125 127.136719 52.722656 C 127.855469 52.722656 128.035156 52.371094 127.675781 51.84375 C 126.957031 49.730469 126.417969 47.617188 125.703125 45.324219 Z M 125.703125 45.324219 "/>
<path style=" stroke:none;fill-rule:nonzero;fill:rgb(36.862745%,49.019608%,63.137255%);fill-opacity:1;" d="M 248.535156 59.59375 C 248.894531 58.183594 249.433594 56.953125 249.789062 55.542969 C 251.40625 50.960938 252.839844 46.382812 254.453125 41.976562 C 254.632812 41.097656 255.351562 40.570312 256.246094 40.746094 C 260.191406 40.746094 260.191406 40.746094 261.445312 44.269531 C 263.058594 48.847656 264.496094 53.605469 266.109375 58.183594 C 266.46875 59.242188 266.46875 59.769531 265.03125 59.59375 C 264.855469 59.59375 264.675781 59.59375 264.496094 59.59375 C 263.417969 59.945312 262.164062 59.417969 261.625 58.359375 C 261.445312 58.007812 261.445312 57.832031 261.445312 57.480469 C 261.265625 56.421875 260.730469 56.246094 259.832031 56.246094 C 258.21875 56.246094 256.605469 56.246094 254.992188 56.246094 C 254.453125 56.070312 253.914062 56.421875 253.734375 57.128906 C 252.660156 59.769531 252.660156 59.769531 249.789062 59.769531 C 249.433594 59.59375 249.074219 59.59375 248.535156 59.59375 Z M 257.5 44.796875 C 256.605469 47.4375 255.886719 49.90625 255.171875 52.195312 C 254.992188 52.898438 255.527344 52.722656 255.886719 52.722656 C 256.964844 52.722656 258.039062 52.722656 259.117188 52.722656 C 260.011719 52.722656 260.011719 52.371094 259.832031 51.667969 C 259.117188 49.730469 258.398438 47.4375 257.5 44.796875 Z M 257.5 44.796875 "/>
<path style=" stroke:none;fill-rule:nonzero;fill:rgb(14.901961%,40%,69.019608%);fill-opacity:1;" d="M 299.820312 17.667969 C 299.820312 21.722656 299.820312 25.773438 299.820312 29.824219 C 299.820312 30.878906 299.460938 31.058594 298.566406 31.058594 C 297.132812 30.878906 295.335938 31.585938 294.441406 30.878906 C 293.542969 30.175781 294.082031 28.238281 294.082031 26.828125 C 294.082031 19.78125 294.082031 12.914062 294.082031 5.867188 C 294.082031 4.632812 294.261719 4.105469 295.695312 4.28125 C 297.132812 4.457031 298.925781 3.753906 299.640625 4.632812 C 300.359375 5.339844 299.820312 7.101562 299.820312 8.332031 C 299.820312 11.328125 299.820312 14.5 299.820312 17.667969 Z M 299.820312 17.667969 "/>
<path style=" stroke:none;fill-rule:nonzero;fill:rgb(36.078431%,48.235294%,62.745098%);fill-opacity:1;" d="M 155.289062 50.082031 C 155.289062 47.4375 155.289062 44.621094 155.289062 41.976562 C 155.289062 40.921875 155.648438 40.746094 156.546875 40.746094 C 158.695312 40.746094 161.027344 40.746094 163.359375 40.746094 C 166.765625 40.570312 169.636719 43.210938 169.636719 46.558594 C 169.636719 46.734375 169.636719 46.910156 169.636719 47.085938 C 169.457031 50.609375 166.40625 53.253906 162.820312 53.078125 C 162.820312 53.078125 162.640625 53.078125 162.640625 53.078125 C 159.234375 52.898438 159.234375 52.898438 159.234375 56.246094 L 159.234375 56.777344 C 159.234375 59.59375 159.234375 59.59375 156.1875 59.417969 C 155.289062 59.417969 155.109375 59.066406 155.109375 58.359375 C 155.289062 55.542969 155.289062 52.898438 155.289062 50.082031 Z M 161.566406 49.378906 C 162.285156 49.378906 163 49.378906 163.898438 49.199219 C 164.972656 49.023438 165.691406 47.96875 165.691406 46.910156 C 165.871094 45.855469 165.152344 44.796875 164.253906 44.445312 C 162.820312 43.917969 161.207031 43.738281 159.59375 44.269531 C 158.695312 44.621094 159.414062 46.207031 159.234375 47.261719 C 159.234375 47.617188 159.234375 48.144531 159.234375 48.496094 C 159.234375 49.199219 159.414062 49.378906 160.132812 49.378906 C 160.667969 49.378906 161.027344 49.378906 161.566406 49.378906 Z M 161.566406 49.378906 "/>
<path style=" stroke:none;fill-rule:nonzero;fill:rgb(36.078431%,48.235294%,62.745098%);fill-opacity:1;" d="M 224.6875 51.84375 C 224.6875 53.957031 224.6875 56.070312 224.6875 58.359375 C 224.6875 59.242188 224.507812 59.59375 223.429688 59.59375 C 220.742188 59.59375 220.742188 59.59375 220.742188 56.953125 C 220.742188 53.253906 220.742188 49.554688 220.742188 45.675781 C 220.742188 44.621094 220.5625 44.09375 219.484375 44.269531 C 218.949219 44.269531 218.410156 44.269531 217.871094 44.269531 C 215.363281 44.269531 215.003906 43.738281 215.363281 41.273438 C 215.539062 40.746094 215.71875 40.570312 216.257812 40.570312 C 220.5625 40.570312 225.042969 40.570312 229.347656 40.570312 C 230.066406 40.570312 230.246094 40.921875 230.246094 41.449219 C 230.425781 44.269531 230.425781 44.269531 227.554688 44.269531 C 224.6875 44.269531 224.6875 44.269531 224.6875 46.910156 Z M 224.6875 51.84375 "/>
<path style=" stroke:none;fill-rule:nonzero;fill:rgb(36.862745%,49.019608%,63.137255%);fill-opacity:1;" d="M 287.269531 50.082031 C 287.269531 47.4375 287.269531 44.621094 287.269531 41.976562 C 287.269531 41.097656 287.449219 40.570312 288.523438 40.570312 C 291.394531 40.570312 291.394531 40.570312 291.394531 43.386719 C 291.394531 47.085938 291.394531 50.785156 291.394531 54.484375 C 291.394531 55.542969 291.75 55.71875 292.648438 55.71875 C 294.621094 55.71875 296.59375 55.71875 298.566406 55.71875 C 299.460938 55.71875 299.820312 56.070312 299.820312 56.953125 C 299.820312 59.59375 299.820312 59.59375 297.132812 59.59375 C 294.441406 59.59375 291.570312 59.59375 288.882812 59.59375 C 287.628906 59.59375 287.269531 59.417969 287.269531 58.007812 C 287.269531 55.367188 287.269531 52.722656 287.269531 50.082031 Z M 287.269531 50.082031 "/>
<path style=" stroke:none;fill-rule:nonzero;fill:rgb(36.862745%,49.019608%,63.137255%);fill-opacity:1;" d="M 194.5625 50.082031 C 194.5625 52.898438 194.5625 55.542969 194.5625 58.359375 C 194.5625 59.417969 194.203125 59.769531 193.125 59.769531 C 190.4375 59.769531 190.4375 59.769531 190.4375 57.128906 C 190.4375 52.195312 190.4375 47.085938 190.4375 42.15625 C 190.4375 41.097656 190.796875 40.746094 191.871094 40.746094 C 194.5625 40.746094 194.5625 40.746094 194.5625 43.386719 Z M 194.5625 50.082031 "/>
<path style=" stroke:none;fill-rule:nonzero;fill:rgb(33.72549%,48.235294%,65.098039%);fill-opacity:1;" d="M 27.4375 0.230469 L 27.078125 0.40625 C 27.078125 -0.121094 27.257812 0.0546875 27.4375 0.230469 Z M 27.4375 0.230469 "/>
<path style=" stroke:none;fill-rule:nonzero;fill:rgb(48.627451%,57.254902%,67.45098%);fill-opacity:1;" d="M 16.140625 28.765625 L 15.78125 28.941406 C 15.78125 28.414062 15.960938 28.589844 16.140625 28.765625 Z M 16.140625 28.765625 "/>
</g>
</svg>
