<svg id="Group_94" data-name="Group 94" xmlns="http://www.w3.org/2000/svg" width="167.255" height="34.029" viewBox="0 0 167.255 34.029">
  <path id="Path_401" data-name="Path 401" d="M-581.237,418.282c.35.009.56-.259.812-.422q5.524-3.628,11.038-7.263c.2-.128.383-.434.648-.259.2.131.086.424.086.641.007,3.487-.007,6.973.016,10.46a1.145,1.145,0,0,1-.607,1.1c-1.7,1.091-3.363,2.23-5.066,3.314a1.194,1.194,0,0,0-.637,1.161c.028,3.515,0,7.029.028,10.544a1.189,1.189,0,0,1-.616,1.166c-1.917,1.224-3.806,2.489-5.7,3.739Z" transform="translate(581.237 -410.135)" fill="#2263af"/>
  <path id="Path_402" data-name="Path 402" d="M-558.323,431.215c-.334-.338-.816-.348-1.21-.562-3.006-1.647-3.62-6.472-1.147-9.131a5.1,5.1,0,0,1,7.265.007,1.5,1.5,0,0,1,.112.128c.382.52,1.061,1.124.823,1.663s-1.168.569-1.784.844c-.336.149-.357-.163-.45-.35a2.493,2.493,0,0,0-3.008-1.6,2.745,2.745,0,0,0-2.01,2.65,6.963,6.963,0,0,0,.049,2.029,2.629,2.629,0,0,0,2.234,2.157,2.457,2.457,0,0,0,2.726-1.558c.17-.38.35-.471.7-.313.182.082.369.156.553.229,1.278.5,1.257.49.565,1.654a5.344,5.344,0,0,1-3.025,2.157Z" transform="translate(606.579 -397.186)" fill="#5d7ca0"/>
  <path id="Path_403" data-name="Path 403" d="M-546.184,416.578v3.608c0,1.9-.014,3.8.009,5.7.007.478-.135.658-.627.63a17.8,17.8,0,0,0-1.964,0c-.471.026-.567-.173-.567-.595q.017-7.06,0-14.122c0-.441.133-.639.583-.576a.36.36,0,0,0,.086,0c2.85-.077,2.857-.082,4.441,2.29,1.56,2.332,3.1,4.674,4.655,7.013a1.339,1.339,0,0,0,.632.651v-4.354c0-1.644.016-3.291-.012-4.935-.007-.52.161-.714.686-.669.788.063,1.81-.317,2.311.142s.156,1.5.159,2.281c.019,4.028-.007,8.056.023,12.081,0,.634-.184.716-.793.819-2.155.357-3.4-.55-4.443-2.388-1.425-2.507-3.146-4.849-4.744-7.256C-545.834,416.769-545.864,416.564-546.184,416.578Z" transform="translate(623.742 -409.01)" fill="#2163af"/>
  <path id="Path_404" data-name="Path 404" d="M-531.094,418.191c2.108,1.185,2.435,2.918,1.961,5.028a4.412,4.412,0,0,1-4.233,3.235c-2.362.058-4.727.021-7.092.049-.45,0-.576-.14-.576-.581q.021-7.06.007-14.119c0-.331-.019-.613.464-.6,2.419.056,4.846-.133,7.258.1a4.262,4.262,0,0,1,3.727,4.116A3.457,3.457,0,0,1-531.094,418.191Zm-4.739,5.334c.541,0,1.082.028,1.621-.007a1.847,1.847,0,0,0,1.775-1.908,1.82,1.82,0,0,0-1.84-1.826c-.653-.021-1.308,0-1.961,0-1.674,0-1.674,0-1.674,1.7C-537.913,423.532-537.913,423.532-535.833,423.525Zm-.012-9.324c-2.069-.019-2.069-.019-2.069,2.048,0,.226.012.455,0,.681-.019.324.126.459.45.457,1.054-.009,2.111.03,3.163-.021a1.628,1.628,0,0,0,1.439-1.635,1.589,1.589,0,0,0-1.446-1.521C-534.816,414.168-535.332,414.2-535.845,414.2Z" transform="translate(634.796 -408.946)" fill="#2263af"/>
  <path id="Path_405" data-name="Path 405" d="M-574.633,410.268c2.68.352,5.313.973,7.965,1.467q6,1.12,11.979,2.316c1.469.292,1.213.021,1.22,1.476q.025,5.02-.009,10.04c0,.238.3.861-.455.616a.809.809,0,0,0-.352-.464c-5.728-4.305-11.468-8.6-17.177-12.925A19.359,19.359,0,0,1-574.633,410.268Z" transform="translate(590.035 -410.159)" fill="#567ba6"/>
  <path id="Path_406" data-name="Path 406" d="M-577.275,417.22c1.926.182,3.8.669,5.7,1.024,4.86.912,9.709,1.88,14.567,2.8.571.11.793.28.788.91-.037,3.515-.023,7.032-.014,10.549,0,.492,0,.9-.672.557,0-.331-.236-.49-.466-.662-1.579-1.187-3.151-2.386-4.734-3.571-4.068-3.046-8.158-6.066-12.2-9.145A14.322,14.322,0,0,1-577.275,417.22Z" transform="translate(586.515 -400.897)" fill="#7c92ac"/>
  <path id="Path_407" data-name="Path 407" d="M-576.983,417.256a14.319,14.319,0,0,0,2.962,2.458c4.044,3.079,8.135,6.1,12.2,9.145,1.584,1.185,3.156,2.384,4.734,3.571.231.173.466.331.466.662-3.011-.569-6.024-1.131-9.033-1.707-3.736-.716-7.468-1.451-11.2-2.16-.422-.079-.641-.172-.639-.672.033-3.764.033-7.528.042-11.293l.2-.068Z" transform="translate(586.223 -400.933)" fill="#5a7a9f"/>
  <path id="Path_408" data-name="Path 408" d="M-574.426,410.287a19.357,19.357,0,0,0,3.17,2.526c5.709,4.329,11.449,8.62,17.177,12.925a.81.81,0,0,1,.352.464q-5.737-1.088-11.474-2.176c-2.985-.571-5.968-1.166-8.958-1.728-.418-.077-.632-.177-.628-.672.033-3.769.033-7.538.042-11.307l.231-.058A.065.065,0,0,1-574.426,410.287Z" transform="translate(589.828 -410.178)" fill="#2162af"/>
  <path id="Path_409" data-name="Path 409" d="M-520,427.033a8.544,8.544,0,0,1-6.3-2.519c-.424-.4-.4-.623.07-.945.653-.448,1.2-1.176,1.912-1.385.753-.222,1.208.742,1.873,1.078a6.412,6.412,0,0,0,3.809.648,1.852,1.852,0,0,0,1.614-1.518,1.64,1.64,0,0,0-1.493-1.677c-1.054-.236-2.108-.46-3.163-.7a4.192,4.192,0,0,1-3.5-3.594,4.524,4.524,0,0,1,2.549-4.688,8.713,8.713,0,0,1,9.1,1.425c.3.292.35.478-.016.709a.939.939,0,0,0-.184.177c-.98,1.108-1.912,1.9-3.438.6a3.779,3.779,0,0,0-3.055-.422,1.515,1.515,0,0,0-1.4,1.371,1.345,1.345,0,0,0,1.241,1.376c1.11.24,2.218.5,3.309.819a4.437,4.437,0,0,1,3.585,4.466,4.623,4.623,0,0,1-3.8,4.415A10.585,10.585,0,0,1-520,427.033Z" transform="translate(654.022 -409.143)" fill="#2364af"/>
  <path id="Path_410" data-name="Path 410" d="M-506.188,418.885c0,2.3-.014,4.6.012,6.894,0,.506-.119.721-.662.686a14.431,14.431,0,0,0-1.88,0c-.522.033-.69-.145-.681-.672.03-1.672-.021-3.347.028-5.021.019-.655-.191-.814-.821-.8-1.537.044-3.079.04-4.618,0-.576-.014-.728.186-.718.732.028,1.644-.016,3.291.023,4.937.014.6-.107.9-.786.821-.758-.086-1.752.306-2.225-.149s-.145-1.453-.147-2.209c-.014-4.03.007-8.058-.021-12.088,0-.628.14-.865.8-.8a11.816,11.816,0,0,0,1.793.007c.452-.023.59.145.583.585-.021,1.474.026,2.95-.021,4.424-.021.648.187.821.823.8,1.567-.044,3.137-.033,4.7,0,.492.009.637-.154.627-.632-.026-1.5.012-3.009-.021-4.51-.011-.529.166-.7.683-.667a14.426,14.426,0,0,0,1.88,0c.548-.037.665.177.66.683C-506.2,414.232-506.188,416.557-506.188,418.885Z" transform="translate(664.452 -408.906)" fill="#2263af"/>
  <path id="Path_411" data-name="Path 411" d="M-556.12,418.833c0-2.3.021-4.594-.014-6.889-.007-.6.177-.765.772-.758,2.848.028,5.7.035,8.545,0,.674-.009.833.217.781.826-.063.7.217,1.632-.14,2.055-.42.495-1.385.149-2.113.166q-2.008.042-4.016,0c-.492-.009-.662.154-.62.632.065.784-.322,1.786.154,2.3.446.478,1.455.128,2.213.145q1.623.038,3.249,0c.473-.012.634.128.653.618.086,2.244.1,2.241-2.155,2.241-1.168,0-2.337.023-3.5-.009-.495-.014-.639.154-.616.627a17.509,17.509,0,0,1,0,2.041c-.035.548.2.658.695.653,2.025-.023,4.046.012,6.069-.023.595-.009.772.161.77.76,0,2.288.021,2.288-2.3,2.288-2.393,0-4.786.009-7.179,0-1.453-.007-1.234.2-1.243-1.278C-556.129,423.085-556.12,420.96-556.12,418.833Z" transform="translate(614.68 -408.943)" fill="#2666b0"/>
  <path id="Path_412" data-name="Path 412" d="M-521.211,416.524c0,1.306-.061,2.614.012,3.914a6.263,6.263,0,0,1-5.95,6.353,6.255,6.255,0,0,1-6.705-5.858c-.149-3.055-.023-6.124-.033-9.187,0-.385.152-.483.506-.471.683.019,1.369.04,2.05-.007.548-.035.665.177.662.683-.014,2.836.009,5.672.012,8.508a3.015,3.015,0,0,0,1.955,2.922,3.007,3.007,0,0,0,3.391-.66,3.386,3.386,0,0,0,.989-2.71c.014-2.666.023-5.334-.012-8-.007-.6.159-.807.758-.744.758.082,1.754-.31,2.22.154s.121,1.451.14,2.209C-521.192,414.595-521.211,415.561-521.211,416.524Z" transform="translate(644.264 -408.928)" fill="#2263af"/>
  <path id="Path_413" data-name="Path 413" d="M-562.162,418.8c0-2.3.019-4.595-.014-6.892-.007-.56.154-.73.716-.725q4.359.038,8.723,0c.6-.007.732.219.69.744-.061.73.294,1.668-.138,2.139s-1.4.145-2.125.159q-2.012.038-4.021,0c-.478-.009-.677.131-.635.623.068.786-.32,1.784.154,2.3.445.485,1.453.131,2.213.149,1.054.028,2.111.037,3.163,0,.581-.023.709.186.714.73.012,2.16.03,2.16-2.157,2.16-1.14,0-2.281.026-3.419-.009-.534-.019-.681.163-.672.676.028,1.644-.009,3.291.023,4.935.009.555-.149.76-.721.716-.791-.058-1.821.243-2.321-.152-.532-.42-.154-1.488-.165-2.269C-562.183,422.32-562.162,420.561-562.162,418.8Z" transform="translate(606.502 -408.94)" fill="#2666b0"/>
  <path id="Path_414" data-name="Path 414" d="M-548.38,420.137a4.654,4.654,0,0,0,.6,0c.6-.082.9.131,1.091.744q1.48,4.611,3.076,9.182c.263.751.039.893-.635.814a1.377,1.377,0,0,0-.427,0,1.091,1.091,0,0,1-1.481-1.105c-.063-.665-.448-.863-1.1-.816a19.142,19.142,0,0,1-2.479,0c-.536-.028-.751.187-.886.672-.119.42-.079,1.063-.52,1.178a5.414,5.414,0,0,1-1.95.035c-.492-.061-.175-.445-.1-.667.606-1.859,1.232-3.711,1.847-5.565.341-1.022.676-2.043,1.017-3.065C-549.864,420.137-549.864,420.137-548.38,420.137Zm.086,2.649-.189-.021c-.238.744-.473,1.49-.716,2.234-.716,2.185-.66,2.244,1.726,2.027.42-.04.453-.161.336-.522C-547.541,425.27-547.912,424.027-548.294,422.787Z" transform="translate(618.37 -397.039)" fill="#5e7da1"/>
  <path id="Path_415" data-name="Path 415" d="M-521.8,430.829c.247-.793.471-1.544.716-2.288.851-2.579,1.726-5.152,2.556-7.738a.851.851,0,0,1,.973-.683c2.195.007,2.195-.014,2.88,2.043.875,2.631,1.731,5.268,2.633,7.888.219.632.168.917-.567.819a1.112,1.112,0,0,0-.341,0,1.217,1.217,0,0,1-1.651-1.208c-.068-.564-.385-.732-.935-.707-.91.04-1.824.019-2.733.007a.607.607,0,0,0-.693.452c-.551,1.476-.572,1.472-2.155,1.453C-521.313,430.863-521.509,430.845-521.8,430.829Zm5-8.363c-.483,1.523-.9,2.862-1.327,4.2-.121.385.163.343.38.345.6.009,1.192-.009,1.789.009.45.012.532-.168.4-.567C-515.958,425.194-516.345,423.93-516.8,422.465Z" transform="translate(660.423 -397.035)" fill="#5e7da1"/>
  <path id="Path_416" data-name="Path 416" d="M-507.672,418.919c0,2.295-.019,4.59.014,6.882.009.571-.173.744-.721.695-.788-.07-1.814.319-2.314-.147s-.152-1.507-.156-2.29c-.016-3.967.007-7.932-.023-11.9,0-.676.124-1.005.872-.907s1.761-.322,2.195.18c.373.429.128,1.4.131,2.132C-507.665,415.351-507.672,417.135-507.672,418.919Z" transform="translate(674.853 -408.94)" fill="#2666b0"/>
  <path id="Path_417" data-name="Path 417" d="M-544.1,425.418c0-1.53.021-3.06-.012-4.59-.012-.56.166-.737.728-.718,1.25.037,2.5,0,3.757.014a3.43,3.43,0,0,1,3.54,3.622,3.583,3.583,0,0,1-3.872,3.361c-1.917-.133-1.917-.133-1.917,1.8v.341c0,1.646,0,1.628-1.668,1.546-.466-.023-.569-.2-.564-.616C-544.09,428.592-544.1,427.006-544.1,425.418Zm3.477-.361,0,.035a7.854,7.854,0,0,0,1.266-.131,1.338,1.338,0,0,0,1.04-1.3,1.313,1.313,0,0,0-.8-1.383,3.589,3.589,0,0,0-2.584-.07c-.462.182-.117,1.089-.175,1.665-.023.224.009.455-.007.679-.026.359.119.527.49.506C-541.135,425.047-540.876,425.056-540.622,425.056Z" transform="translate(630.697 -397.049)" fill="#5c7ba0"/>
  <path id="Path_418" data-name="Path 418" d="M-524.456,426.493c0,1.217-.026,2.437.012,3.655.014.539-.123.739-.7.737-1.537,0-1.537.026-1.537-1.511,0-2.125-.019-4.249.014-6.374.007-.567-.107-.851-.737-.767a7,7,0,0,1-.94.007c-1.441,0-1.64-.261-1.388-1.733.058-.341.236-.41.518-.41q3.673,0,7.344,0c.371,0,.459.177.485.525.119,1.621.131,1.619-1.495,1.619-1.572,0-1.572,0-1.572,1.535Z" transform="translate(649.724 -397.066)" fill="#5c7ba0"/>
  <path id="Path_419" data-name="Path 419" d="M-512.534,425.468c0-1.532.016-3.064-.009-4.6-.007-.518.093-.753.7-.753,1.584,0,1.584-.03,1.584,1.563,0,2.1.019,4.2-.012,6.3-.009.569.182.73.732.714,1.11-.035,2.225.019,3.335-.023.543-.021.662.17.665.679,0,1.5.026,1.5-1.469,1.5-1.539,0-3.081-.033-4.62.014-.686.021-.949-.14-.921-.879C-512.492,428.477-512.534,426.972-512.534,425.468Z" transform="translate(672.737 -397.036)" fill="#5e7da1"/>
  <path id="Path_420" data-name="Path 420" d="M-533.427,425.433c0,1.556-.026,3.116.012,4.671.016.595-.165.774-.765.765-1.474-.019-1.476.012-1.476-1.49,0-2.831.019-5.665-.012-8.5-.007-.6.177-.763.767-.756,1.474.019,1.474-.009,1.474,1.481Z" transform="translate(641.944 -397.024)" fill="#5e7da1"/>
  <path id="Path_421" data-name="Path 421" d="M-574.539,410.3l-.231.058C-574.742,410.151-574.644,410.216-574.539,410.3Z" transform="translate(589.852 -410.221)" fill="#567ba6"/>
  <path id="Path_422" data-name="Path 422" d="M-577.273,417.233l-.2.068C-577.469,417.1-577.376,417.156-577.273,417.233Z" transform="translate(586.247 -400.973)" fill="#7c92ac"/>
  <path id="Path_423" data-name="Path 423" d="M-541.861,423.976c-.254,0-.513-.009-.767,0-.371.021-.515-.147-.49-.506.016-.224-.016-.455.007-.679.058-.576-.287-1.483.175-1.665a3.589,3.589,0,0,1,2.584.07,1.313,1.313,0,0,1,.8,1.383,1.337,1.337,0,0,1-1.04,1.3,7.848,7.848,0,0,1-1.266.131Z" transform="translate(631.936 -395.968)" fill="#f8fafc"/>
</svg>
