<?xml version="1.0" encoding="utf-8"?>
<!-- Generator: Adobe Illustrator 26.3.1, SVG Export Plug-In . SVG Version: 6.00 Build 0)  -->
<svg version="1.1" id="Group_94" xmlns="http://www.w3.org/2000/svg" xmlns:xlink="http://www.w3.org/1999/xlink" x="0px" y="0px"
	 viewBox="0 0 167.3 34" style="enable-background:new 0 0 167.3 34;" xml:space="preserve">
<style type="text/css">
	.st0{fill:#2263AF;}
	.st1{fill:#5D7CA0;}
	.st2{fill:#2163AF;}
	.st3{fill:#567BA6;}
	.st4{fill:#7C92AC;}
	.st5{fill:#5A7A9F;}
	.st6{fill:#2162AF;}
	.st7{fill:#2364AF;}
	.st8{fill:#2666B0;}
	.st9{fill:#5E7DA1;}
	.st10{fill:#5C7BA0;}
	.st11{display:none;fill:#F8FAFC;}
</style>
<path id="Path_401" class="st0" d="M0,8.1c0.3,0,0.6-0.3,0.8-0.4c3.7-2.4,7.4-4.8,11-7.3c0.2-0.1,0.4-0.4,0.6-0.3
	c0.2,0.1,0.1,0.4,0.1,0.6c0,3.5,0,7,0,10.5c0,0.5-0.2,0.9-0.6,1.1c-1.7,1.1-3.4,2.2-5.1,3.3c-0.4,0.2-0.7,0.7-0.6,1.2
	c0,3.5,0,7,0,10.5c0,0.5-0.2,0.9-0.6,1.2c-1.9,1.2-3.8,2.5-5.7,3.7L0,8.1z"/>
<path id="Path_402" class="st1" d="M48.3,34c-0.3-0.3-0.8-0.3-1.2-0.6c-3-1.6-3.6-6.5-1.1-9.1c2-2,5.2-2,7.2,0c0,0,0,0,0.1,0.1
	c0,0,0.1,0.1,0.1,0.1c0.4,0.5,1.1,1.1,0.8,1.7s-1.2,0.6-1.8,0.8c-0.3,0.1-0.4-0.2-0.5-0.4c-0.4-1.2-1.7-1.9-3-1.6
	c-1.2,0.3-2,1.4-2,2.6c-0.1,0.7-0.1,1.4,0,2c0.2,1.1,1.1,2,2.2,2.2c1.2,0.2,2.3-0.5,2.7-1.6c0.2-0.4,0.3-0.5,0.7-0.3
	c0.2,0.1,0.4,0.2,0.6,0.2c1.3,0.5,1.3,0.5,0.6,1.7c-0.7,1.1-1.8,1.8-3,2.2L48.3,34z"/>
<path id="Path_403" class="st2" d="M77.6,7.6v3.6c0,1.9,0,3.8,0,5.7c0,0.5-0.1,0.7-0.6,0.6c-0.7,0-1.3,0-2,0c-0.5,0-0.6-0.2-0.6-0.6
	c0-4.7,0-9.4,0-14.1c0-0.4,0.1-0.6,0.6-0.6c0,0,0.1,0,0.1,0c2.8-0.1,2.9-0.1,4.4,2.3c1.6,2.3,3.1,4.7,4.7,7c0.1,0.3,0.4,0.5,0.6,0.7
	V7.8c0-1.6,0-3.3,0-4.9c0-0.5,0.2-0.7,0.7-0.7c0.8,0.1,1.8-0.3,2.3,0.1s0.2,1.5,0.2,2.3c0,4,0,8.1,0,12.1c0,0.6-0.2,0.7-0.8,0.8
	c-2.2,0.4-3.4-0.5-4.4-2.4c-1.4-2.5-3.1-4.8-4.7-7.3C77.9,7.8,77.9,7.6,77.6,7.6z"/>
<path id="Path_404" class="st0" d="M103.7,9.2c2.1,1.2,2.4,2.9,2,5c-0.5,1.9-2.3,3.2-4.2,3.2c-2.4,0.1-4.7,0-7.1,0
	c-0.5,0-0.6-0.1-0.6-0.6c0-4.7,0-9.4,0-14.1c0-0.3,0-0.6,0.5-0.6c2.4,0.1,4.8-0.1,7.3,0.1c2.1,0.3,3.7,2,3.7,4.1
	C105.2,7.6,104.6,8.6,103.7,9.2z M99,14.6c0.5,0,1.1,0,1.6,0c1,0,1.8-0.9,1.8-1.9c0-1-0.8-1.8-1.8-1.8c0,0,0,0,0,0c-0.7,0-1.3,0-2,0
	c-1.7,0-1.7,0-1.7,1.7C96.9,14.6,96.9,14.6,99,14.6L99,14.6z M99,5.3c-2.1,0-2.1,0-2.1,2c0,0.2,0,0.5,0,0.7c0,0.3,0.1,0.5,0.5,0.5
	c1.1,0,2.1,0,3.2,0c0.8-0.1,1.4-0.8,1.4-1.6c0-0.8-0.7-1.4-1.4-1.5C100,5.2,99.5,5.3,99,5.3L99,5.3z"/>
<path id="Path_405" class="st3" d="M15.4,0.1c2.7,0.4,5.3,1,8,1.5c4,0.7,8,1.5,12,2.3c1.5,0.3,1.2,0,1.2,1.5c0,3.3,0,6.7,0,10
	c0,0.2,0.3,0.9-0.5,0.6c-0.1-0.2-0.2-0.4-0.4-0.5C30,11.3,24.3,7,18.6,2.6C17.4,1.9,16.4,1.1,15.4,0.1z"/>
<path id="Path_406" class="st4" d="M9.2,16.3c1.9,0.2,3.8,0.7,5.7,1c4.9,0.9,9.7,1.9,14.6,2.8c0.6,0.1,0.8,0.3,0.8,0.9
	c0,3.5,0,7,0,10.5c0,0.5,0,0.9-0.7,0.6c0-0.3-0.2-0.5-0.5-0.7c-1.6-1.2-3.2-2.4-4.7-3.6c-4.1-3-8.2-6.1-12.2-9.1
	C11.1,18.1,10.1,17.3,9.2,16.3z"/>
<path id="Path_407" class="st5" d="M9.2,16.3c0.9,0.9,1.9,1.8,3,2.5c4,3.1,8.1,6.1,12.2,9.1c1.6,1.2,3.2,2.4,4.7,3.6
	c0.2,0.2,0.5,0.3,0.5,0.7c-3-0.6-6-1.1-9-1.7c-3.7-0.7-7.5-1.5-11.2-2.2c-0.4-0.1-0.6-0.2-0.6-0.7c0-3.8,0-7.5,0-11.3L9,16.3
	L9.2,16.3z"/>
<path id="Path_408" class="st6" d="M15.4,0.1c1,1,2,1.8,3.2,2.5C24.3,7,30,11.3,35.7,15.6c0.2,0.1,0.3,0.3,0.4,0.5
	c-3.8-0.7-7.6-1.5-11.5-2.2c-3-0.6-6-1.2-9-1.7C15.3,12,15,11.9,15,11.4c0-3.8,0-7.5,0-11.3L15.4,0.1C15.3,0.1,15.4,0.1,15.4,0.1z"
	/>
<path id="Path_409" class="st7" d="M134,17.9c-2.4,0.1-4.6-0.8-6.3-2.5c-0.4-0.4-0.4-0.6,0.1-0.9c0.7-0.4,1.2-1.2,1.9-1.4
	c0.8-0.2,1.2,0.7,1.9,1.1c1.2,0.6,2.5,0.8,3.8,0.6c0.8-0.1,1.5-0.7,1.6-1.5c0-0.9-0.6-1.6-1.5-1.7c-1.1-0.2-2.1-0.5-3.2-0.7
	c-1.8-0.3-3.3-1.8-3.5-3.6c-0.3-2,0.8-3.8,2.5-4.7c3.1-1.3,6.6-0.7,9.1,1.4c0.3,0.3,0.3,0.5,0,0.7c-0.1,0.1-0.1,0.1-0.2,0.2
	c-1,1.1-1.9,1.9-3.4,0.6c-0.9-0.6-2-0.7-3.1-0.4c-0.7,0.1-1.3,0.6-1.4,1.4c0,0.7,0.5,1.3,1.2,1.4c1.1,0.2,2.2,0.5,3.3,0.8
	c2.1,0.4,3.6,2.3,3.6,4.5c-0.1,2.2-1.6,4-3.8,4.4C135.9,17.8,134.9,17.9,134,17.9z"/>
<path id="Path_410" class="st0" d="M158.3,10c0,2.3,0,4.6,0,6.9c0,0.5-0.1,0.7-0.7,0.7c-0.6,0-1.3,0-1.9,0c-0.5,0-0.7-0.1-0.7-0.7
	c0-1.7,0-3.3,0-5c0-0.7-0.2-0.8-0.8-0.8c-1.5,0-3.1,0-4.6,0c-0.6,0-0.7,0.2-0.7,0.7c0,1.6,0,3.3,0,4.9c0,0.6-0.1,0.9-0.8,0.8
	c-0.8-0.1-1.8,0.3-2.2-0.1s-0.1-1.5-0.1-2.2c0-4,0-8.1,0-12.1c0-0.6,0.1-0.9,0.8-0.8c0.6,0,1.2,0.1,1.8,0c0.5,0,0.6,0.1,0.6,0.6
	c0,1.5,0,3,0,4.4c0,0.6,0.2,0.8,0.8,0.8c1.6,0,3.1,0,4.7,0c0.5,0,0.6-0.2,0.6-0.6c0-1.5,0-3,0-4.5c0-0.5,0.2-0.7,0.7-0.7
	c0.6,0,1.3,0,1.9,0c0.5,0,0.7,0.2,0.7,0.7C158.3,5.3,158.3,7.7,158.3,10z"/>
<path id="Path_411" class="st8" d="M58.6,9.9c0-2.3,0-4.6,0-6.9c0-0.6,0.2-0.8,0.8-0.8c2.8,0,5.7,0,8.5,0c0.7,0,0.8,0.2,0.8,0.8
	c-0.1,0.7,0.2,1.6-0.1,2.1c-0.4,0.5-1.4,0.1-2.1,0.2c-1.3,0-2.7,0-4,0c-0.5,0-0.7,0.2-0.6,0.6c0.1,0.8-0.3,1.8,0.2,2.3
	c0.4,0.5,1.5,0.1,2.2,0.1c1.1,0,2.2,0,3.2,0C67.8,8.4,68,8.5,68,9c0.1,2.2,0.1,2.2-2.2,2.2c-1.2,0-2.3,0-3.5,0
	c-0.5,0-0.6,0.2-0.6,0.6c0,0.7,0,1.4,0,2c0,0.5,0.2,0.7,0.7,0.7c2,0,4,0,6.1,0c0.6,0,0.8,0.2,0.8,0.8c0,2.3,0,2.3-2.3,2.3
	c-2.4,0-4.8,0-7.2,0c-1.5,0-1.2,0.2-1.2-1.3C58.6,14.1,58.6,12,58.6,9.9z"/>
<path id="Path_412" class="st0" d="M123.1,7.6c0,1.3-0.1,2.6,0,3.9c0.1,3.4-2.6,6.2-6,6.4c-3.4,0.3-6.4-2.3-6.7-5.8c0,0,0-0.1,0-0.1
	c-0.1-3.1,0-6.1,0-9.2c0-0.4,0.2-0.5,0.5-0.5c0.7,0,1.4,0,2,0c0.5,0,0.7,0.2,0.7,0.7c0,2.8,0,5.7,0,8.5c0,1.3,0.7,2.5,2,2.9
	c1.2,0.5,2.5,0.3,3.4-0.7c0.7-0.7,1.1-1.7,1-2.7c0-2.7,0-5.3,0-8c0-0.6,0.2-0.8,0.8-0.7c0.8,0.1,1.8-0.3,2.2,0.2s0.1,1.5,0.1,2.2
	C123.1,5.7,123.1,6.6,123.1,7.6z"/>
<path id="Path_413" class="st8" d="M44.3,9.9c0-2.3,0-4.6,0-6.9c0-0.6,0.2-0.7,0.7-0.7c2.9,0,5.8,0,8.7,0c0.6,0,0.7,0.2,0.7,0.7
	c-0.1,0.7,0.3,1.7-0.1,2.1s-1.4,0.1-2.1,0.2c-1.3,0-2.7,0-4,0c-0.5,0-0.7,0.1-0.6,0.6c0.1,0.8-0.3,1.8,0.2,2.3
	c0.4,0.5,1.5,0.1,2.2,0.1c1.1,0,2.1,0,3.2,0c0.6,0,0.7,0.2,0.7,0.7c0,2.2,0,2.2-2.2,2.2c-1.1,0-2.3,0-3.4,0c-0.5,0-0.7,0.2-0.7,0.7
	c0,1.6,0,3.3,0,4.9c0,0.6-0.1,0.8-0.7,0.7c-0.8-0.1-1.8,0.2-2.3-0.2c-0.5-0.4-0.2-1.5-0.2-2.3C44.3,13.4,44.3,11.6,44.3,9.9z"/>
<path id="Path_414" class="st9" d="M70,23.1c0.2,0,0.4,0,0.6,0c0.6-0.1,0.9,0.1,1.1,0.7c1,3.1,2,6.1,3.1,9.2c0.3,0.8,0,0.9-0.6,0.8
	c-0.1,0-0.3,0-0.4,0c-0.6,0.2-1.2-0.1-1.4-0.6c-0.1-0.2-0.1-0.3-0.1-0.5c-0.1-0.7-0.4-0.9-1.1-0.8c-0.8,0.1-1.7,0.1-2.5,0
	c-0.5,0-0.8,0.2-0.9,0.7c-0.1,0.4-0.1,1.1-0.5,1.2c-0.6,0.1-1.3,0.1-2,0c-0.5-0.1-0.2-0.4-0.1-0.7c0.6-1.9,1.2-3.7,1.8-5.6
	c0.3-1,0.7-2,1-3.1C68.5,23.1,68.5,23.1,70,23.1z M70.1,25.7l-0.2,0c-0.2,0.7-0.5,1.5-0.7,2.2c-0.7,2.2-0.7,2.2,1.7,2
	c0.4,0,0.5-0.2,0.3-0.5C70.8,28.2,70.5,27,70.1,25.7L70.1,25.7z"/>
<path id="Path_415" class="st9" d="M138.6,33.8c0.2-0.8,0.5-1.5,0.7-2.3c0.9-2.6,1.7-5.2,2.6-7.7c0.1-0.5,0.5-0.8,1-0.7
	c2.2,0,2.2,0,2.9,2c0.9,2.6,1.7,5.3,2.6,7.9c0.2,0.6,0.2,0.9-0.6,0.8c-0.1,0-0.2,0-0.3,0c-0.6,0.2-1.3-0.1-1.6-0.7
	c-0.1-0.2-0.1-0.3-0.1-0.5c-0.1-0.6-0.4-0.7-0.9-0.7c-0.9,0-1.8,0-2.7,0c-0.3-0.1-0.6,0.1-0.7,0.5c-0.6,1.5-0.6,1.5-2.2,1.5
	C139.1,33.8,138.9,33.8,138.6,33.8z M143.6,25.4c-0.5,1.5-0.9,2.9-1.3,4.2c-0.1,0.4,0.2,0.3,0.4,0.3c0.6,0,1.2,0,1.8,0
	c0.5,0,0.5-0.2,0.4-0.6C144.5,28.2,144.1,26.9,143.6,25.4L143.6,25.4z"/>
<path id="Path_416" class="st8" d="M167.2,10c0,2.3,0,4.6,0,6.9c0,0.6-0.2,0.7-0.7,0.7c-0.8-0.1-1.8,0.3-2.3-0.1s-0.2-1.5-0.2-2.3
	c0-4,0-7.9,0-11.9c0-0.7,0.1-1,0.9-0.9s1.8-0.3,2.2,0.2c0.4,0.4,0.1,1.4,0.1,2.1C167.2,6.4,167.2,8.2,167.2,10z"/>
<path id="Path_417" class="st10" d="M86.6,28.4c0-1.5,0-3.1,0-4.6c0-0.6,0.2-0.7,0.7-0.7c1.2,0,2.5,0,3.8,0c1.9-0.1,3.5,1.4,3.5,3.3
	c0,0.1,0,0.2,0,0.3c-0.1,2-1.8,3.5-3.8,3.4c0,0-0.1,0-0.1,0c-1.9-0.1-1.9-0.1-1.9,1.8v0.3c0,1.6,0,1.6-1.7,1.5
	c-0.5,0-0.6-0.2-0.6-0.6C86.6,31.5,86.6,30,86.6,28.4z M90.1,28L90.1,28c0.4,0,0.8,0,1.3-0.1c0.6-0.1,1-0.7,1-1.3
	c0.1-0.6-0.3-1.2-0.8-1.4c-0.8-0.3-1.7-0.4-2.6-0.1c-0.5,0.2-0.1,1.1-0.2,1.7c0,0.2,0,0.5,0,0.7c0,0.4,0.1,0.5,0.5,0.5
	C89.6,28,89.8,28,90.1,28L90.1,28z"/>
<path id="Path_418" class="st10" d="M125.3,29.4c0,1.2,0,2.4,0,3.7c0,0.5-0.1,0.7-0.7,0.7c-1.5,0-1.5,0-1.5-1.5c0-2.1,0-4.2,0-6.4
	c0-0.6-0.1-0.9-0.7-0.8c-0.3,0-0.6,0-0.9,0c-1.4,0-1.6-0.3-1.4-1.7c0.1-0.3,0.2-0.4,0.5-0.4c2.4,0,4.9,0,7.3,0
	c0.4,0,0.5,0.2,0.5,0.5c0.1,1.6,0.1,1.6-1.5,1.6c-1.6,0-1.6,0-1.6,1.5L125.3,29.4z"/>
<path id="Path_419" class="st9" d="M160.2,28.4c0-1.5,0-3.1,0-4.6c0-0.5,0.1-0.8,0.7-0.8c1.6,0,1.6,0,1.6,1.6c0,2.1,0,4.2,0,6.3
	c0,0.6,0.2,0.7,0.7,0.7c1.1,0,2.2,0,3.3,0c0.5,0,0.7,0.2,0.7,0.7c0,1.5,0,1.5-1.5,1.5c-1.5,0-3.1,0-4.6,0c-0.7,0-0.9-0.1-0.9-0.9
	C160.2,31.4,160.2,29.9,160.2,28.4z"/>
<path id="Path_420" class="st9" d="M108.5,28.4c0,1.6,0,3.1,0,4.7c0,0.6-0.2,0.8-0.8,0.8c-1.5,0-1.5,0-1.5-1.5c0-2.8,0-5.7,0-8.5
	c0-0.6,0.2-0.8,0.8-0.8c1.5,0,1.5,0,1.5,1.5V28.4z"/>
<path id="Path_421" class="st3" d="M15.3,0.1l-0.2,0.1C15.1-0.1,15.2,0,15.3,0.1z"/>
<path id="Path_422" class="st4" d="M9,16.3l-0.2,0.1C8.8,16.1,8.9,16.2,9,16.3z"/>
<path id="Path_423" class="st11" d="M90.1,28c-0.3,0-0.5,0-0.8,0c-0.4,0-0.5-0.1-0.5-0.5c0-0.2,0-0.5,0-0.7c0.1-0.6-0.3-1.5,0.2-1.7
	c0.8-0.3,1.8-0.3,2.6,0.1c0.5,0.2,0.9,0.8,0.8,1.4c0,0.6-0.4,1.2-1,1.3C90.9,28,90.5,28,90.1,28L90.1,28z"/>
</svg>
