<?xml version="1.0" encoding="utf-8"?>
<!-- Generator: Adobe Illustrator 26.3.1, SVG Export Plug-In . SVG Version: 6.00 Build 0)  -->
<svg version="1.1" id="katman_1" xmlns="http://www.w3.org/2000/svg" xmlns:xlink="http://www.w3.org/1999/xlink" x="0px" y="0px"
	 viewBox="0 0 300 100" style="enable-background:new 0 0 300 100;" xml:space="preserve">
<style type="text/css">
	.st0{fill:#FF604B;}
	.st1{fill:#202020;}
</style>
<rect id="Rectangle_54" x="77.5" y="26.2" class="st0" width="8.7" height="35.1"/>
<g id="Group_96" transform="translate(60.636 12.117)">
	<g id="Group_95" transform="translate(0 0)">
		<rect id="Rectangle_55" x="77.5" y="15.1" class="st0" width="8.7" height="16.5"/>
		<rect id="Rectangle_56" x="96.7" y="31.6" class="st0" width="8.7" height="17.5"/>
		<rect id="Rectangle_57" x="77.5" y="40.4" class="st0" width="27.9" height="8.7"/>
		<rect id="Rectangle_58" x="77.5" y="14.1" class="st0" width="27.9" height="8.7"/>
	</g>
	<rect id="Rectangle_59" x="77.5" y="27.3" class="st0" width="27.9" height="8.7"/>
</g>
<g id="Group_98" transform="translate(100.496 12.117)">
	<g id="Group_97" transform="translate(0 0)">
		<rect id="Rectangle_60" x="77.5" y="15.6" class="st0" width="8.7" height="31.2"/>
		<rect id="Rectangle_61" x="96.7" y="27.3" class="st0" width="8.7" height="21.9"/>
		<rect id="Rectangle_62" x="77.5" y="40.4" class="st0" width="27.1" height="8.7"/>
		<rect id="Rectangle_63" x="77.5" y="14.1" class="st0" width="27.9" height="8.7"/>
	</g>
	<rect id="Rectangle_64" x="90" y="27.3" class="st0" width="14.7" height="8.7"/>
</g>
<g id="Group_100" transform="translate(21.685 12.117)">
	<g id="Group_99" transform="translate(0 0)">
		<rect id="Rectangle_65" x="77.5" y="15.6" class="st0" width="8.7" height="32.3"/>
		<rect id="Rectangle_66" x="96.7" y="15.1" class="st0" width="8.7" height="34.1"/>
		<rect id="Rectangle_67" x="77.5" y="40.4" class="st0" width="27.9" height="8.7"/>
		<rect id="Rectangle_68" x="77.5" y="14.1" class="st0" width="27.9" height="8.7"/>
	</g>
</g>
<rect id="Rectangle_69" x="81.9" y="26.2" width="4.4" height="4.4"/>
<rect id="Rectangle_70" x="88.8" y="14.6" class="st0" width="4.4" height="4.4"/>
<rect id="Rectangle_71" x="133.2" y="18.4" class="st0" width="4.4" height="4.4"/>
<rect id="Rectangle_72" x="138.2" y="26.2" width="4.4" height="4.4"/>
<rect id="Rectangle_73" x="144.3" y="26.2" width="4.4" height="4.4"/>
<rect id="Rectangle_74" x="148.6" y="30.5" width="4.4" height="4.4"/>
<rect id="Rectangle_75" x="157.4" y="39.4" width="4.4" height="4.4"/>
<rect id="Rectangle_76" x="161.7" y="43.9" width="4.4" height="4.4"/>
<rect id="Rectangle_77" x="148.6" y="39.4" width="4.4" height="4.4"/>
<rect id="Rectangle_78" x="153" y="43.9" width="4.4" height="4.4"/>
<rect id="Rectangle_79" x="157.4" y="30.5" width="4.4" height="4.4"/>
<rect id="Rectangle_80" x="161.7" y="26.2" width="4.4" height="4.4"/>
<rect id="Rectangle_81" x="143.6" y="14.1" class="st0" width="4.4" height="4.4"/>
<rect id="Rectangle_82" x="159.5" y="16.9" class="st0" width="4.4" height="4.4"/>
<rect id="Rectangle_83" x="201.6" y="39.4" width="4.4" height="4.4"/>
<rect id="Rectangle_84" x="201.6" y="26.2" width="4.4" height="4.4"/>
<rect id="Rectangle_85" x="197.2" y="30.5" width="4.4" height="4.4"/>
<rect id="Rectangle_86" x="192.9" y="26.2" width="4.4" height="4.4"/>
<rect id="Rectangle_87" x="178.1" y="30.5" width="4.4" height="4.4"/>
<rect id="Rectangle_88" x="182.5" y="26.2" width="4.4" height="4.4"/>
<rect id="Rectangle_89" x="197.2" y="43.8" width="4.4" height="4.4"/>
<rect id="Rectangle_90" x="209.4" y="55.6" class="st0" width="4.4" height="4.4"/>
<rect id="Rectangle_91" x="219" y="49.6" class="st0" width="4.4" height="4.4"/>
<rect id="Rectangle_92" x="210.9" y="37.2" class="st0" width="4.4" height="4.4"/>
<rect id="Rectangle_93" x="99.2" y="26.2" width="4.4" height="4.4"/>
<rect id="Rectangle_94" x="103.6" y="30.5" width="4.4" height="4.4"/>
<rect id="Rectangle_95" x="122.8" y="26.2" width="4.4" height="4.4"/>
<rect id="Rectangle_96" x="113.9" y="26.2" width="4.4" height="4.4"/>
<rect id="Rectangle_97" x="81.9" y="35" width="4.4" height="4.4"/>
<rect id="Rectangle_98" x="77.5" y="39.4" width="4.4" height="4.4"/>
<rect id="Rectangle_99" x="81.9" y="43.8" width="4.4" height="4.4"/>
<g id="Group_136" transform="translate(0.985 57.123)">
	<g id="Group_101" transform="translate(0 0.438)">
		<path id="Path_424" class="st1" d="M84.9,28.7h-1.5l-5.9-14.1l1.3-0.5l5.3,12.7l4.7-12.7l1.3,0.5L84.9,28.7z"/>
	</g>
	<g id="Group_106" transform="translate(18.412)">
		<g id="Group_102" transform="translate(0.711)">
			<rect id="Rectangle_100" x="77.5" y="14.1" class="st1" width="9.8" height="1.4"/>
		</g>
		<g id="Group_103" transform="translate(0 0.177)">
			<rect id="Rectangle_101" x="77.5" y="14.1" class="st1" width="1.4" height="14.2"/>
		</g>
		<g id="Group_104" transform="translate(0.711 13.667)">
			<rect id="Rectangle_102" x="77.5" y="14.1" class="st1" width="9.8" height="1.4"/>
		</g>
		<g id="Group_105" transform="translate(1.074 6.567)">
			<rect id="Rectangle_103" x="77.5" y="14.1" class="st1" width="9.1" height="1.4"/>
		</g>
	</g>
	<g id="Group_111" transform="translate(102.017)">
		<g id="Group_107" transform="translate(0.711)">
			<rect id="Rectangle_104" x="77.5" y="14.1" class="st1" width="9.8" height="1.4"/>
		</g>
		<g id="Group_108" transform="translate(0 0.177)">
			<rect id="Rectangle_105" x="77.5" y="14.1" class="st1" width="1.4" height="14.2"/>
		</g>
		<g id="Group_109" transform="translate(0.711 13.667)">
			<rect id="Rectangle_106" x="77.5" y="14.1" class="st1" width="9.8" height="1.4"/>
		</g>
		<g id="Group_110" transform="translate(1.074 6.567)">
			<rect id="Rectangle_107" x="77.5" y="14.1" class="st1" width="9.1" height="1.4"/>
		</g>
	</g>
	<g id="Group_112" transform="translate(35.637 0.177)">
		<rect id="Rectangle_108" x="77.5" y="14.1" class="st1" width="1.4" height="14.9"/>
	</g>
	<g id="Group_113" transform="translate(43.962 0.177)">
		<rect id="Rectangle_109" x="77.5" y="14.1" class="st1" width="1.4" height="14.9"/>
	</g>
	<g id="Group_114" transform="translate(50.81 0.177)">
		<rect id="Rectangle_110" x="77.5" y="14.1" class="st1" width="12.2" height="1.4"/>
	</g>
	<g id="Group_115" transform="translate(56.192 1.452)">
		<rect id="Rectangle_111" x="77.5" y="14.1" class="st1" width="1.4" height="13.7"/>
	</g>
	<g id="Group_116" transform="translate(84.331 1.452)">
		<rect id="Rectangle_112" x="77.5" y="14.1" class="st1" width="1.4" height="13.7"/>
	</g>
	<g id="Group_117" transform="translate(68.363 0.177)">
		<rect id="Rectangle_113" x="77.5" y="14.1" class="st1" width="1.4" height="13.3"/>
	</g>
	<g id="Group_118" transform="translate(76.89 0.177)">
		<rect id="Rectangle_114" x="77.5" y="14.1" class="st1" width="1.4" height="13.3"/>
	</g>
	<g id="Group_119" transform="translate(69.802 13.667)">
		<rect id="Rectangle_115" x="77.5" y="14.1" class="st1" width="7.1" height="1.4"/>
	</g>
	<g id="Group_120" transform="translate(120.147 6.567)">
		<rect id="Rectangle_116" x="77.5" y="14.1" class="st1" width="7.1" height="1.4"/>
	</g>
	<g id="Group_121" transform="translate(85.042 0.177)">
		<rect id="Rectangle_117" x="77.5" y="14.1" class="st1" width="8.2" height="1.4"/>
	</g>
	<g id="Group_122" transform="translate(120.147 0.177)">
		<rect id="Rectangle_118" x="77.5" y="14.1" class="st1" width="8.2" height="1.4"/>
	</g>
	<g id="Group_123" transform="translate(118.967 13.348)">
		<rect id="Rectangle_119" x="77.5" y="14.1" class="st1" width="8.2" height="1.4"/>
	</g>
	<g id="Group_124" transform="translate(93.202 1.702)">
		<rect id="Rectangle_120" x="77.5" y="14.1" class="st1" width="1.4" height="4.6"/>
	</g>
	<g id="Group_125" transform="translate(118.616 1.702)">
		<rect id="Rectangle_121" x="77.5" y="14.1" class="st1" width="1.4" height="4.6"/>
	</g>
	<g id="Group_126" transform="translate(127.143 8.207)">
		<rect id="Rectangle_122" x="77.5" y="14.1" class="st1" width="1.4" height="4.6"/>
	</g>
	<g id="Group_127" transform="translate(85.042 6.471)">
		<rect id="Rectangle_123" x="77.5" y="14.1" class="st1" width="8.2" height="1.4"/>
	</g>
	<g id="Group_128" transform="translate(38.782 5.458)">
		<rect id="Rectangle_124" x="77.5" y="14.1" class="st1" width="1.7" height="1.7"/>
	</g>
	<g id="Group_129" transform="translate(40.505 7.277)">
		<rect id="Rectangle_125" x="77.5" y="14.1" class="st1" width="1.7" height="1.7"/>
	</g>
	<g id="Group_130" transform="translate(42.229 9.001)">
		<rect id="Rectangle_126" x="77.5" y="14.1" class="st1" width="1.7" height="1.7"/>
	</g>
	<g id="Group_131" transform="translate(37.058 3.734)">
		<rect id="Rectangle_127" x="77.5" y="14.1" class="st1" width="1.7" height="1.7"/>
	</g>
	<g id="Group_132" transform="translate(89.453 9.654)">
		<rect id="Rectangle_128" x="77.5" y="14.1" class="st1" width="1.7" height="1.7"/>
	</g>
	<g id="Group_133" transform="translate(91.177 11.473)">
		<rect id="Rectangle_129" x="77.5" y="14.1" class="st1" width="1.7" height="1.7"/>
	</g>
	<g id="Group_134" transform="translate(92.9 13.197)">
		<rect id="Rectangle_130" x="77.5" y="14.1" class="st1" width="1.7" height="1.7"/>
	</g>
	<g id="Group_135" transform="translate(87.73 7.93)">
		<rect id="Rectangle_131" x="77.5" y="14.1" class="st1" width="1.7" height="1.7"/>
	</g>
</g>
</svg>
