<?xml version="1.0" encoding="UTF-8"?>
<svg xmlns="http://www.w3.org/2000/svg" xmlns:xlink="http://www.w3.org/1999/xlink" width="300" height="100" viewBox="0 0 300 100" version="1.1">
<g id="surface1">
<path style=" stroke:none;fill-rule:nonzero;fill:rgb(14.901961%,40%,69.019608%);fill-opacity:1;" d="M 0.621094 16.757812 L 18.449219 16.757812 L 18.449219 65.375 L 0.621094 65.375 Z M 0.621094 16.757812 "/>
<path style=" stroke:none;fill-rule:nonzero;fill:rgb(14.901961%,40%,69.019608%);fill-opacity:1;" d="M 124.871094 18.167969 L 142.695312 18.167969 L 142.695312 41.019531 L 124.871094 41.019531 Z M 124.871094 18.167969 "/>
<path style=" stroke:none;fill-rule:nonzero;fill:rgb(14.901961%,40%,69.019608%);fill-opacity:1;" d="M 164.210938 41.019531 L 182.039062 41.019531 L 182.039062 65.257812 L 164.210938 65.257812 Z M 164.210938 41.019531 "/>
<path style=" stroke:none;fill-rule:nonzero;fill:rgb(14.901961%,40%,69.019608%);fill-opacity:1;" d="M 124.871094 53.347656 L 182.039062 53.347656 L 182.039062 65.398438 L 124.871094 65.398438 Z M 124.871094 53.347656 "/>
<path style=" stroke:none;fill-rule:nonzero;fill:rgb(14.901961%,40%,69.019608%);fill-opacity:1;" d="M 124.871094 16.78125 L 182.039062 16.78125 L 182.039062 28.832031 L 124.871094 28.832031 Z M 124.871094 16.78125 "/>
<path style=" stroke:none;fill-rule:nonzero;fill:rgb(14.901961%,40%,69.019608%);fill-opacity:1;" d="M 124.871094 35.066406 L 182.039062 35.066406 L 182.039062 47.113281 L 124.871094 47.113281 Z M 124.871094 35.066406 "/>
<path style=" stroke:none;fill-rule:nonzero;fill:rgb(14.901961%,40%,69.019608%);fill-opacity:1;" d="M 206.546875 18.859375 L 224.375 18.859375 L 224.375 62.074219 L 206.546875 62.074219 Z M 206.546875 18.859375 "/>
<path style=" stroke:none;fill-rule:nonzero;fill:rgb(14.901961%,40%,69.019608%);fill-opacity:1;" d="M 245.890625 35.066406 L 263.71875 35.066406 L 263.71875 65.398438 L 245.890625 65.398438 Z M 245.890625 35.066406 "/>
<path style=" stroke:none;fill-rule:nonzero;fill:rgb(14.901961%,40%,69.019608%);fill-opacity:1;" d="M 206.546875 53.347656 L 262.078125 53.347656 L 262.078125 65.398438 L 206.546875 65.398438 Z M 206.546875 53.347656 "/>
<path style=" stroke:none;fill-rule:nonzero;fill:rgb(14.901961%,40%,69.019608%);fill-opacity:1;" d="M 206.546875 16.78125 L 263.71875 16.78125 L 263.71875 28.832031 L 206.546875 28.832031 Z M 206.546875 16.78125 "/>
<path style=" stroke:none;fill-rule:nonzero;fill:rgb(14.901961%,40%,69.019608%);fill-opacity:1;" d="M 232.160156 35.066406 L 262.28125 35.066406 L 262.28125 47.113281 L 232.160156 47.113281 Z M 232.160156 35.066406 "/>
<path style=" stroke:none;fill-rule:nonzero;fill:rgb(14.901961%,40%,69.019608%);fill-opacity:1;" d="M 45.054688 18.859375 L 62.882812 18.859375 L 62.882812 63.597656 L 45.054688 63.597656 Z M 45.054688 18.859375 "/>
<path style=" stroke:none;fill-rule:nonzero;fill:rgb(14.901961%,40%,69.019608%);fill-opacity:1;" d="M 84.398438 18.167969 L 102.226562 18.167969 L 102.226562 65.398438 L 84.398438 65.398438 Z M 84.398438 18.167969 "/>
<path style=" stroke:none;fill-rule:nonzero;fill:rgb(14.901961%,40%,69.019608%);fill-opacity:1;" d="M 45.054688 53.347656 L 102.226562 53.347656 L 102.226562 65.398438 L 45.054688 65.398438 Z M 45.054688 53.347656 "/>
<path style=" stroke:none;fill-rule:nonzero;fill:rgb(14.901961%,40%,69.019608%);fill-opacity:1;" d="M 45.054688 16.78125 L 102.226562 16.78125 L 102.226562 28.832031 L 45.054688 28.832031 Z M 45.054688 16.78125 "/>
<path style=" stroke:none;fill-rule:nonzero;fill:rgb(0%,0%,0%);fill-opacity:1;" d="M 9.636719 16.757812 L 18.652344 16.757812 L 18.652344 22.851562 L 9.636719 22.851562 Z M 9.636719 16.757812 "/>
<path style=" stroke:none;fill-rule:nonzero;fill:rgb(14.901961%,40%,69.019608%);fill-opacity:1;" d="M 23.570312 0.832031 L 32.585938 0.832031 L 32.585938 6.925781 L 23.570312 6.925781 Z M 23.570312 0.832031 "/>
<path style=" stroke:none;fill-rule:nonzero;fill:rgb(14.901961%,40%,69.019608%);fill-opacity:1;" d="M 114.550781 5.957031 L 123.566406 5.957031 L 123.566406 12.050781 L 114.550781 12.050781 Z M 114.550781 5.957031 "/>
<path style=" stroke:none;fill-rule:nonzero;fill:rgb(0%,0%,0%);fill-opacity:1;" d="M 124.796875 16.757812 L 133.8125 16.757812 L 133.8125 22.851562 L 124.796875 22.851562 Z M 124.796875 16.757812 "/>
<path style=" stroke:none;fill-rule:nonzero;fill:rgb(0%,0%,0%);fill-opacity:1;" d="M 137.5 16.757812 L 146.515625 16.757812 L 146.515625 22.851562 L 137.5 22.851562 Z M 137.5 16.757812 "/>
<path style=" stroke:none;fill-rule:nonzero;fill:rgb(0%,0%,0%);fill-opacity:1;" d="M 146.3125 22.851562 L 155.328125 22.851562 L 155.328125 28.949219 L 146.3125 28.949219 Z M 146.3125 22.851562 "/>
<path style=" stroke:none;fill-rule:nonzero;fill:rgb(0%,0%,0%);fill-opacity:1;" d="M 164.140625 35.179688 L 173.15625 35.179688 L 173.15625 41.273438 L 164.140625 41.273438 Z M 164.140625 35.179688 "/>
<path style=" stroke:none;fill-rule:nonzero;fill:rgb(0%,0%,0%);fill-opacity:1;" d="M 173.15625 41.273438 L 182.171875 41.273438 L 182.171875 47.367188 L 173.15625 47.367188 Z M 173.15625 41.273438 "/>
<path style=" stroke:none;fill-rule:nonzero;fill:rgb(0%,0%,0%);fill-opacity:1;" d="M 146.3125 35.179688 L 155.328125 35.179688 L 155.328125 41.273438 L 146.3125 41.273438 Z M 146.3125 35.179688 "/>
<path style=" stroke:none;fill-rule:nonzero;fill:rgb(0%,0%,0%);fill-opacity:1;" d="M 155.328125 41.273438 L 164.34375 41.273438 L 164.34375 47.367188 L 155.328125 47.367188 Z M 155.328125 41.273438 "/>
<path style=" stroke:none;fill-rule:nonzero;fill:rgb(0%,0%,0%);fill-opacity:1;" d="M 164.140625 22.851562 L 173.15625 22.851562 L 173.15625 28.949219 L 164.140625 28.949219 Z M 164.140625 22.851562 "/>
<path style=" stroke:none;fill-rule:nonzero;fill:rgb(0%,0%,0%);fill-opacity:1;" d="M 173.15625 16.757812 L 182.171875 16.757812 L 182.171875 22.851562 L 173.15625 22.851562 Z M 173.15625 16.757812 "/>
<path style=" stroke:none;fill-rule:nonzero;fill:rgb(14.901961%,40%,69.019608%);fill-opacity:1;" d="M 136.066406 0 L 145.082031 0 L 145.082031 6.09375 L 136.066406 6.09375 Z M 136.066406 0 "/>
<path style=" stroke:none;fill-rule:nonzero;fill:rgb(14.901961%,40%,69.019608%);fill-opacity:1;" d="M 168.648438 3.878906 L 177.664062 3.878906 L 177.664062 9.972656 L 168.648438 9.972656 Z M 168.648438 3.878906 "/>
<path style=" stroke:none;fill-rule:nonzero;fill:rgb(0%,0%,0%);fill-opacity:1;" d="M 254.710938 35.042969 L 263.726562 35.042969 L 263.726562 41.136719 L 254.710938 41.136719 Z M 254.710938 35.042969 "/>
<path style=" stroke:none;fill-rule:nonzero;fill:rgb(0%,0%,0%);fill-opacity:1;" d="M 254.710938 16.757812 L 263.726562 16.757812 L 263.726562 22.851562 L 254.710938 22.851562 Z M 254.710938 16.757812 "/>
<path style=" stroke:none;fill-rule:nonzero;fill:rgb(0%,0%,0%);fill-opacity:1;" d="M 245.898438 22.851562 L 254.914062 22.851562 L 254.914062 28.949219 L 245.898438 28.949219 Z M 245.898438 22.851562 "/>
<path style=" stroke:none;fill-rule:nonzero;fill:rgb(0%,0%,0%);fill-opacity:1;" d="M 236.882812 16.757812 L 245.898438 16.757812 L 245.898438 22.851562 L 236.882812 22.851562 Z M 236.882812 16.757812 "/>
<path style=" stroke:none;fill-rule:nonzero;fill:rgb(0%,0%,0%);fill-opacity:1;" d="M 206.761719 22.851562 L 215.777344 22.851562 L 215.777344 28.949219 L 206.761719 28.949219 Z M 206.761719 22.851562 "/>
<path style=" stroke:none;fill-rule:nonzero;fill:rgb(0%,0%,0%);fill-opacity:1;" d="M 215.570312 16.757812 L 224.585938 16.757812 L 224.585938 22.851562 L 215.570312 22.851562 Z M 215.570312 16.757812 "/>
<path style=" stroke:none;fill-rule:nonzero;fill:rgb(0%,0%,0%);fill-opacity:1;" d="M 245.898438 41.273438 L 254.914062 41.273438 L 254.914062 47.367188 L 245.898438 47.367188 Z M 245.898438 41.273438 "/>
<path style=" stroke:none;fill-rule:nonzero;fill:rgb(14.901961%,40%,69.019608%);fill-opacity:1;" d="M 270.691406 57.480469 L 279.707031 57.480469 L 279.707031 63.574219 L 270.691406 63.574219 Z M 270.691406 57.480469 "/>
<path style=" stroke:none;fill-rule:nonzero;fill:rgb(14.901961%,40%,69.019608%);fill-opacity:1;" d="M 290.363281 49.167969 L 299.378906 49.167969 L 299.378906 55.261719 L 290.363281 55.261719 Z M 290.363281 49.167969 "/>
<path style=" stroke:none;fill-rule:nonzero;fill:rgb(14.901961%,40%,69.019608%);fill-opacity:1;" d="M 273.765625 31.996094 L 282.78125 31.996094 L 282.78125 38.089844 L 273.765625 38.089844 Z M 273.765625 31.996094 "/>
<path style=" stroke:none;fill-rule:nonzero;fill:rgb(0%,0%,0%);fill-opacity:1;" d="M 45.085938 16.757812 L 54.101562 16.757812 L 54.101562 22.851562 L 45.085938 22.851562 Z M 45.085938 16.757812 "/>
<path style=" stroke:none;fill-rule:nonzero;fill:rgb(0%,0%,0%);fill-opacity:1;" d="M 53.898438 22.851562 L 62.914062 22.851562 L 62.914062 28.949219 L 53.898438 28.949219 Z M 53.898438 22.851562 "/>
<path style=" stroke:none;fill-rule:nonzero;fill:rgb(0%,0%,0%);fill-opacity:1;" d="M 93.445312 16.757812 L 102.460938 16.757812 L 102.460938 22.851562 L 93.445312 22.851562 Z M 93.445312 16.757812 "/>
<path style=" stroke:none;fill-rule:nonzero;fill:rgb(0%,0%,0%);fill-opacity:1;" d="M 75.207031 16.757812 L 84.222656 16.757812 L 84.222656 22.851562 L 75.207031 22.851562 Z M 75.207031 16.757812 "/>
<path style=" stroke:none;fill-rule:nonzero;fill:rgb(0%,0%,0%);fill-opacity:1;" d="M 9.636719 28.949219 L 18.652344 28.949219 L 18.652344 35.042969 L 9.636719 35.042969 Z M 9.636719 28.949219 "/>
<path style=" stroke:none;fill-rule:nonzero;fill:rgb(0%,0%,0%);fill-opacity:1;" d="M 0.621094 35.042969 L 9.636719 35.042969 L 9.636719 41.136719 L 0.621094 41.136719 Z M 0.621094 35.042969 "/>
<path style=" stroke:none;fill-rule:nonzero;fill:rgb(0%,0%,0%);fill-opacity:1;" d="M 9.636719 41.273438 L 18.652344 41.273438 L 18.652344 47.367188 L 9.636719 47.367188 Z M 9.636719 41.273438 "/>
<path style=" stroke:none;fill-rule:nonzero;fill:rgb(14.901961%,40%,69.019608%);fill-opacity:1;" d="M 17.800781 100.085938 L 14.726562 100.085938 L 2.640625 80.417969 L 5.300781 79.722656 L 16.164062 97.3125 L 25.792969 79.722656 L 28.457031 80.417969 Z M 17.800781 100.085938 "/>
<path style=" stroke:none;fill-rule:nonzero;fill:rgb(14.901961%,40%,69.019608%);fill-opacity:1;" d="M 41.824219 79.117188 L 61.90625 79.117188 L 61.90625 81.058594 L 41.824219 81.058594 Z M 41.824219 79.117188 "/>
<path style=" stroke:none;fill-rule:nonzero;fill:rgb(14.901961%,40%,69.019608%);fill-opacity:1;" d="M 40.367188 79.363281 L 43.234375 79.363281 L 43.234375 99.03125 L 40.367188 99.03125 Z M 40.367188 79.363281 "/>
<path style=" stroke:none;fill-rule:nonzero;fill:rgb(14.901961%,40%,69.019608%);fill-opacity:1;" d="M 41.824219 98.046875 L 61.90625 98.046875 L 61.90625 99.984375 L 41.824219 99.984375 Z M 41.824219 98.046875 "/>
<path style=" stroke:none;fill-rule:nonzero;fill:rgb(14.901961%,40%,69.019608%);fill-opacity:1;" d="M 42.566406 88.214844 L 61.214844 88.214844 L 61.214844 90.152344 L 42.566406 90.152344 Z M 42.566406 88.214844 "/>
<path style=" stroke:none;fill-rule:nonzero;fill:rgb(14.901961%,40%,69.019608%);fill-opacity:1;" d="M 213.140625 79.117188 L 233.21875 79.117188 L 233.21875 81.058594 L 213.140625 81.058594 Z M 213.140625 79.117188 "/>
<path style=" stroke:none;fill-rule:nonzero;fill:rgb(14.901961%,40%,69.019608%);fill-opacity:1;" d="M 211.683594 79.363281 L 214.550781 79.363281 L 214.550781 99.03125 L 211.683594 99.03125 Z M 211.683594 79.363281 "/>
<path style=" stroke:none;fill-rule:nonzero;fill:rgb(14.901961%,40%,69.019608%);fill-opacity:1;" d="M 213.140625 98.046875 L 233.21875 98.046875 L 233.21875 99.984375 L 213.140625 99.984375 Z M 213.140625 98.046875 "/>
<path style=" stroke:none;fill-rule:nonzero;fill:rgb(14.901961%,40%,69.019608%);fill-opacity:1;" d="M 213.882812 88.214844 L 232.53125 88.214844 L 232.53125 90.152344 L 213.882812 90.152344 Z M 213.882812 88.214844 "/>
<path style=" stroke:none;fill-rule:nonzero;fill:rgb(14.901961%,40%,69.019608%);fill-opacity:1;" d="M 75.664062 79.363281 L 78.53125 79.363281 L 78.53125 100 L 75.664062 100 Z M 75.664062 79.363281 "/>
<path style=" stroke:none;fill-rule:nonzero;fill:rgb(14.901961%,40%,69.019608%);fill-opacity:1;" d="M 92.722656 79.363281 L 95.589844 79.363281 L 95.589844 100 L 92.722656 100 Z M 92.722656 79.363281 "/>
<path style=" stroke:none;fill-rule:nonzero;fill:rgb(14.901961%,40%,69.019608%);fill-opacity:1;" d="M 106.753906 79.363281 L 131.753906 79.363281 L 131.753906 81.300781 L 106.753906 81.300781 Z M 106.753906 79.363281 "/>
<path style=" stroke:none;fill-rule:nonzero;fill:rgb(14.901961%,40%,69.019608%);fill-opacity:1;" d="M 117.78125 81.128906 L 120.652344 81.128906 L 120.652344 100.105469 L 117.78125 100.105469 Z M 117.78125 81.128906 "/>
<path style=" stroke:none;fill-rule:nonzero;fill:rgb(14.901961%,40%,69.019608%);fill-opacity:1;" d="M 175.441406 81.128906 L 178.308594 81.128906 L 178.308594 100.105469 L 175.441406 100.105469 Z M 175.441406 81.128906 "/>
<path style=" stroke:none;fill-rule:nonzero;fill:rgb(14.901961%,40%,69.019608%);fill-opacity:1;" d="M 142.722656 79.363281 L 145.589844 79.363281 L 145.589844 97.785156 L 142.722656 97.785156 Z M 142.722656 79.363281 "/>
<path style=" stroke:none;fill-rule:nonzero;fill:rgb(14.901961%,40%,69.019608%);fill-opacity:1;" d="M 160.195312 79.363281 L 163.0625 79.363281 L 163.0625 97.785156 L 160.195312 97.785156 Z M 160.195312 79.363281 "/>
<path style=" stroke:none;fill-rule:nonzero;fill:rgb(14.901961%,40%,69.019608%);fill-opacity:1;" d="M 145.671875 98.046875 L 160.21875 98.046875 L 160.21875 99.984375 L 145.671875 99.984375 Z M 145.671875 98.046875 "/>
<path style=" stroke:none;fill-rule:nonzero;fill:rgb(14.901961%,40%,69.019608%);fill-opacity:1;" d="M 248.832031 88.214844 L 263.382812 88.214844 L 263.382812 90.152344 L 248.832031 90.152344 Z M 248.832031 88.214844 "/>
<path style=" stroke:none;fill-rule:nonzero;fill:rgb(14.901961%,40%,69.019608%);fill-opacity:1;" d="M 176.898438 79.363281 L 193.703125 79.363281 L 193.703125 81.300781 L 176.898438 81.300781 Z M 176.898438 79.363281 "/>
<path style=" stroke:none;fill-rule:nonzero;fill:rgb(14.901961%,40%,69.019608%);fill-opacity:1;" d="M 248.832031 79.363281 L 265.636719 79.363281 L 265.636719 81.300781 L 248.832031 81.300781 Z M 248.832031 79.363281 "/>
<path style=" stroke:none;fill-rule:nonzero;fill:rgb(14.901961%,40%,69.019608%);fill-opacity:1;" d="M 246.414062 97.605469 L 263.21875 97.605469 L 263.21875 99.542969 L 246.414062 99.542969 Z M 246.414062 97.605469 "/>
<path style=" stroke:none;fill-rule:nonzero;fill:rgb(14.901961%,40%,69.019608%);fill-opacity:1;" d="M 193.621094 81.476562 L 196.488281 81.476562 L 196.488281 87.847656 L 193.621094 87.847656 Z M 193.621094 81.476562 "/>
<path style=" stroke:none;fill-rule:nonzero;fill:rgb(14.901961%,40%,69.019608%);fill-opacity:1;" d="M 245.695312 81.476562 L 248.5625 81.476562 L 248.5625 87.847656 L 245.695312 87.847656 Z M 245.695312 81.476562 "/>
<path style=" stroke:none;fill-rule:nonzero;fill:rgb(14.901961%,40%,69.019608%);fill-opacity:1;" d="M 263.167969 90.484375 L 266.035156 90.484375 L 266.035156 96.855469 L 263.167969 96.855469 Z M 263.167969 90.484375 "/>
<path style=" stroke:none;fill-rule:nonzero;fill:rgb(14.901961%,40%,69.019608%);fill-opacity:1;" d="M 176.898438 88.082031 L 193.703125 88.082031 L 193.703125 90.019531 L 176.898438 90.019531 Z M 176.898438 88.082031 "/>
<path style=" stroke:none;fill-rule:nonzero;fill:rgb(14.901961%,40%,69.019608%);fill-opacity:1;" d="M 82.105469 86.675781 L 85.589844 86.675781 L 85.589844 89.03125 L 82.105469 89.03125 Z M 82.105469 86.675781 "/>
<path style=" stroke:none;fill-rule:nonzero;fill:rgb(14.901961%,40%,69.019608%);fill-opacity:1;" d="M 85.636719 89.195312 L 89.121094 89.195312 L 89.121094 91.550781 L 85.636719 91.550781 Z M 85.636719 89.195312 "/>
<path style=" stroke:none;fill-rule:nonzero;fill:rgb(14.901961%,40%,69.019608%);fill-opacity:1;" d="M 89.171875 91.585938 L 92.652344 91.585938 L 92.652344 93.9375 L 89.171875 93.9375 Z M 89.171875 91.585938 "/>
<path style=" stroke:none;fill-rule:nonzero;fill:rgb(14.901961%,40%,69.019608%);fill-opacity:1;" d="M 78.574219 84.289062 L 82.058594 84.289062 L 82.058594 86.644531 L 78.574219 86.644531 Z M 78.574219 84.289062 "/>
<path style=" stroke:none;fill-rule:nonzero;fill:rgb(14.901961%,40%,69.019608%);fill-opacity:1;" d="M 185.9375 92.488281 L 189.421875 92.488281 L 189.421875 94.84375 L 185.9375 94.84375 Z M 185.9375 92.488281 "/>
<path style=" stroke:none;fill-rule:nonzero;fill:rgb(14.901961%,40%,69.019608%);fill-opacity:1;" d="M 189.46875 95.007812 L 192.953125 95.007812 L 192.953125 97.363281 L 189.46875 97.363281 Z M 189.46875 95.007812 "/>
<path style=" stroke:none;fill-rule:nonzero;fill:rgb(14.901961%,40%,69.019608%);fill-opacity:1;" d="M 193 97.394531 L 196.484375 97.394531 L 196.484375 99.75 L 193 99.75 Z M 193 97.394531 "/>
<path style=" stroke:none;fill-rule:nonzero;fill:rgb(14.901961%,40%,69.019608%);fill-opacity:1;" d="M 182.40625 90.101562 L 185.890625 90.101562 L 185.890625 92.457031 L 182.40625 92.457031 Z M 182.40625 90.101562 "/>
</g>
</svg>
