<svg id="Group_137" data-name="Group 137" xmlns="http://www.w3.org/2000/svg" width="145.787" height="72.237" viewBox="0 0 145.787 72.237">
  <rect id="Rectangle_54" data-name="Rectangle 54" width="8.708" height="35.075" transform="translate(0 12.117)" fill="#ff604b"/>
  <g id="Group_96" data-name="Group 96" transform="translate(60.636 12.117)">
    <g id="Group_95" data-name="Group 95" transform="translate(0 0)">
      <rect id="Rectangle_55" data-name="Rectangle 55" width="8.708" height="16.54" transform="translate(0 0.998)" fill="#ff604b"/>
      <rect id="Rectangle_56" data-name="Rectangle 56" width="8.708" height="17.537" transform="translate(19.185 17.537)" fill="#ff604b"/>
      <rect id="Rectangle_57" data-name="Rectangle 57" width="8.708" height="27.924" transform="translate(27.924 26.367) rotate(90)" fill="#ff604b"/>
      <rect id="Rectangle_58" data-name="Rectangle 58" width="8.708" height="27.924" transform="translate(27.924 0) rotate(90)" fill="#ff604b"/>
    </g>
    <rect id="Rectangle_59" data-name="Rectangle 59" width="8.708" height="27.924" transform="translate(27.924 13.183) rotate(90)" fill="#ff604b"/>
  </g>
  <g id="Group_98" data-name="Group 98" transform="translate(100.496 12.117)">
    <g id="Group_97" data-name="Group 97" transform="translate(0 0)">
      <rect id="Rectangle_60" data-name="Rectangle 60" width="8.708" height="31.205" transform="translate(0 1.482)" fill="#ff604b"/>
      <rect id="Rectangle_61" data-name="Rectangle 61" width="8.708" height="21.892" transform="translate(19.185 13.183)" fill="#ff604b"/>
      <rect id="Rectangle_62" data-name="Rectangle 62" width="8.708" height="27.149" transform="translate(27.149 26.367) rotate(90)" fill="#ff604b"/>
      <rect id="Rectangle_63" data-name="Rectangle 63" width="8.708" height="27.924" transform="translate(27.924 0) rotate(90)" fill="#ff604b"/>
    </g>
    <rect id="Rectangle_64" data-name="Rectangle 64" width="8.708" height="14.652" transform="translate(27.149 13.183) rotate(90)" fill="#ff604b"/>
  </g>
  <g id="Group_100" data-name="Group 100" transform="translate(21.685 12.117)">
    <g id="Group_99" data-name="Group 99" transform="translate(0 0)">
      <rect id="Rectangle_65" data-name="Rectangle 65" width="8.708" height="32.293" transform="translate(0 1.482)" fill="#ff604b"/>
      <rect id="Rectangle_66" data-name="Rectangle 66" width="8.708" height="34.077" transform="translate(19.216 0.998)" fill="#ff604b"/>
      <rect id="Rectangle_67" data-name="Rectangle 67" width="8.708" height="27.924" transform="translate(27.924 26.367) rotate(90)" fill="#ff604b"/>
      <rect id="Rectangle_68" data-name="Rectangle 68" width="8.708" height="27.924" transform="translate(27.924 0) rotate(90)" fill="#ff604b"/>
    </g>
  </g>
  <rect id="Rectangle_69" data-name="Rectangle 69" width="4.354" height="4.354" transform="translate(4.354 12.117)"/>
  <rect id="Rectangle_70" data-name="Rectangle 70" width="4.354" height="4.354" transform="translate(11.233 0.566)" fill="#ff604b"/>
  <rect id="Rectangle_71" data-name="Rectangle 71" width="4.354" height="4.354" transform="translate(55.62 4.3)" fill="#ff604b"/>
  <rect id="Rectangle_72" data-name="Rectangle 72" width="4.354" height="4.354" transform="translate(60.636 12.117)"/>
  <rect id="Rectangle_73" data-name="Rectangle 73" width="4.354" height="4.354" transform="translate(66.759 12.117)"/>
  <rect id="Rectangle_74" data-name="Rectangle 74" width="4.354" height="4.354" transform="translate(71.113 16.471)"/>
  <rect id="Rectangle_75" data-name="Rectangle 75" width="4.354" height="4.354" transform="translate(79.821 25.35)"/>
  <rect id="Rectangle_76" data-name="Rectangle 76" width="4.354" height="4.354" transform="translate(84.175 29.818)"/>
  <rect id="Rectangle_77" data-name="Rectangle 77" width="4.354" height="4.354" transform="translate(71.113 25.35)"/>
  <rect id="Rectangle_78" data-name="Rectangle 78" width="4.354" height="4.354" transform="translate(75.467 29.818)"/>
  <rect id="Rectangle_79" data-name="Rectangle 79" width="4.354" height="4.354" transform="translate(79.821 16.471)"/>
  <rect id="Rectangle_80" data-name="Rectangle 80" width="4.354" height="4.354" transform="translate(84.175 12.117)"/>
  <rect id="Rectangle_81" data-name="Rectangle 81" width="4.354" height="4.354" transform="translate(66.113)" fill="#ff604b"/>
  <rect id="Rectangle_82" data-name="Rectangle 82" width="4.354" height="4.354" transform="translate(81.998 2.788)" fill="#ff604b"/>
  <rect id="Rectangle_83" data-name="Rectangle 83" width="4.354" height="4.354" transform="translate(124.035 25.293)"/>
  <rect id="Rectangle_84" data-name="Rectangle 84" width="4.354" height="4.354" transform="translate(124.035 12.117)"/>
  <rect id="Rectangle_85" data-name="Rectangle 85" width="4.354" height="4.354" transform="translate(119.681 16.471)"/>
  <rect id="Rectangle_86" data-name="Rectangle 86" width="4.354" height="4.354" transform="translate(115.327 12.117)"/>
  <rect id="Rectangle_87" data-name="Rectangle 87" width="4.354" height="4.354" transform="translate(100.586 16.471)"/>
  <rect id="Rectangle_88" data-name="Rectangle 88" width="4.354" height="4.354" transform="translate(104.94 12.117)"/>
  <rect id="Rectangle_89" data-name="Rectangle 89" width="4.354" height="4.354" transform="translate(119.681 29.761)"/>
  <rect id="Rectangle_90" data-name="Rectangle 90" width="4.354" height="4.354" transform="translate(131.817 41.537)" fill="#ff604b"/>
  <rect id="Rectangle_91" data-name="Rectangle 91" width="4.354" height="4.354" transform="translate(141.433 35.528)" fill="#ff604b"/>
  <rect id="Rectangle_92" data-name="Rectangle 92" width="4.354" height="4.354" transform="translate(133.329 23.116)" fill="#ff604b"/>
  <rect id="Rectangle_93" data-name="Rectangle 93" width="4.354" height="4.354" transform="translate(21.685 12.117)"/>
  <rect id="Rectangle_94" data-name="Rectangle 94" width="4.354" height="4.354" transform="translate(26.039 16.471)"/>
  <rect id="Rectangle_95" data-name="Rectangle 95" width="4.354" height="4.354" transform="translate(45.255 12.117)"/>
  <rect id="Rectangle_96" data-name="Rectangle 96" width="4.354" height="4.354" transform="translate(36.379 12.117)"/>
  <rect id="Rectangle_97" data-name="Rectangle 97" width="4.354" height="4.354" transform="translate(4.354 20.939)"/>
  <rect id="Rectangle_98" data-name="Rectangle 98" width="4.354" height="4.354" transform="translate(0 25.293)"/>
  <rect id="Rectangle_99" data-name="Rectangle 99" width="4.354" height="4.354" transform="translate(4.354 29.761)"/>
  <g id="Group_136" data-name="Group 136" transform="translate(0.985 57.123)">
    <g id="Group_101" data-name="Group 101" transform="translate(0 0.438)">
      <path id="Path_424" data-name="Path 424" d="M-458.724,439.135h-1.519l-5.866-14.105,1.311-.545,5.283,12.7,4.71-12.675,1.332.5Z" transform="translate(466.109 -424.485)" fill="#202020"/>
    </g>
    <g id="Group_106" data-name="Group 106" transform="translate(18.412)">
      <g id="Group_102" data-name="Group 102" transform="translate(0.711)">
        <rect id="Rectangle_100" data-name="Rectangle 100" width="9.797" height="1.421" fill="#202020"/>
      </g>
      <g id="Group_103" data-name="Group 103" transform="translate(0 0.177)">
        <rect id="Rectangle_101" data-name="Rectangle 101" width="1.421" height="14.201" fill="#202020"/>
      </g>
      <g id="Group_104" data-name="Group 104" transform="translate(0.711 13.667)">
        <rect id="Rectangle_102" data-name="Rectangle 102" width="9.797" height="1.421" fill="#202020"/>
      </g>
      <g id="Group_105" data-name="Group 105" transform="translate(1.074 6.567)">
        <rect id="Rectangle_103" data-name="Rectangle 103" width="9.071" height="1.421" fill="#202020"/>
      </g>
    </g>
    <g id="Group_111" data-name="Group 111" transform="translate(102.017)">
      <g id="Group_107" data-name="Group 107" transform="translate(0.711)">
        <rect id="Rectangle_104" data-name="Rectangle 104" width="9.797" height="1.421" fill="#202020"/>
      </g>
      <g id="Group_108" data-name="Group 108" transform="translate(0 0.177)">
        <rect id="Rectangle_105" data-name="Rectangle 105" width="1.421" height="14.201" fill="#202020"/>
      </g>
      <g id="Group_109" data-name="Group 109" transform="translate(0.711 13.667)">
        <rect id="Rectangle_106" data-name="Rectangle 106" width="9.797" height="1.421" fill="#202020"/>
      </g>
      <g id="Group_110" data-name="Group 110" transform="translate(1.074 6.567)">
        <rect id="Rectangle_107" data-name="Rectangle 107" width="9.071" height="1.421" fill="#202020"/>
      </g>
    </g>
    <g id="Group_112" data-name="Group 112" transform="translate(35.637 0.177)">
      <rect id="Rectangle_108" data-name="Rectangle 108" width="1.421" height="14.937" fill="#202020"/>
    </g>
    <g id="Group_113" data-name="Group 113" transform="translate(43.962 0.177)">
      <rect id="Rectangle_109" data-name="Rectangle 109" width="1.421" height="14.937" fill="#202020"/>
    </g>
    <g id="Group_114" data-name="Group 114" transform="translate(50.81 0.177)">
      <rect id="Rectangle_110" data-name="Rectangle 110" width="12.185" height="1.421" fill="#202020"/>
    </g>
    <g id="Group_115" data-name="Group 115" transform="translate(56.192 1.452)">
      <rect id="Rectangle_111" data-name="Rectangle 111" width="1.421" height="13.662" fill="#202020"/>
    </g>
    <g id="Group_116" data-name="Group 116" transform="translate(84.331 1.452)">
      <rect id="Rectangle_112" data-name="Rectangle 112" width="1.421" height="13.662" fill="#202020"/>
    </g>
    <g id="Group_117" data-name="Group 117" transform="translate(68.363 0.177)">
      <rect id="Rectangle_113" data-name="Rectangle 113" width="1.421" height="13.304" fill="#202020"/>
    </g>
    <g id="Group_118" data-name="Group 118" transform="translate(76.89 0.177)">
      <rect id="Rectangle_114" data-name="Rectangle 114" width="1.421" height="13.304" fill="#202020"/>
    </g>
    <g id="Group_119" data-name="Group 119" transform="translate(69.802 13.667)">
      <rect id="Rectangle_115" data-name="Rectangle 115" width="7.106" height="1.421" fill="#202020"/>
    </g>
    <g id="Group_120" data-name="Group 120" transform="translate(120.147 6.567)">
      <rect id="Rectangle_116" data-name="Rectangle 116" width="7.106" height="1.421" fill="#202020"/>
    </g>
    <g id="Group_121" data-name="Group 121" transform="translate(85.042 0.177)">
      <rect id="Rectangle_117" data-name="Rectangle 117" width="8.16" height="1.421" fill="#202020"/>
    </g>
    <g id="Group_122" data-name="Group 122" transform="translate(120.147 0.177)">
      <rect id="Rectangle_118" data-name="Rectangle 118" width="8.16" height="1.421" fill="#202020"/>
    </g>
    <g id="Group_123" data-name="Group 123" transform="translate(118.967 13.348)">
      <rect id="Rectangle_119" data-name="Rectangle 119" width="8.161" height="1.421" fill="#202020"/>
    </g>
    <g id="Group_124" data-name="Group 124" transform="translate(93.202 1.702)">
      <rect id="Rectangle_120" data-name="Rectangle 120" width="1.421" height="4.617" fill="#202020"/>
    </g>
    <g id="Group_125" data-name="Group 125" transform="translate(118.616 1.702)">
      <rect id="Rectangle_121" data-name="Rectangle 121" width="1.421" height="4.617" fill="#202020"/>
    </g>
    <g id="Group_126" data-name="Group 126" transform="translate(127.143 8.207)">
      <rect id="Rectangle_122" data-name="Rectangle 122" width="1.421" height="4.617" fill="#202020"/>
    </g>
    <g id="Group_127" data-name="Group 127" transform="translate(85.042 6.471)">
      <rect id="Rectangle_123" data-name="Rectangle 123" width="8.16" height="1.421" fill="#202020"/>
    </g>
    <g id="Group_128" data-name="Group 128" transform="translate(38.782 5.458)">
      <rect id="Rectangle_124" data-name="Rectangle 124" width="1.724" height="1.724" fill="#202020"/>
    </g>
    <g id="Group_129" data-name="Group 129" transform="translate(40.505 7.277)">
      <rect id="Rectangle_125" data-name="Rectangle 125" width="1.724" height="1.724" fill="#202020"/>
    </g>
    <g id="Group_130" data-name="Group 130" transform="translate(42.229 9.001)">
      <rect id="Rectangle_126" data-name="Rectangle 126" width="1.724" height="1.724" fill="#202020"/>
    </g>
    <g id="Group_131" data-name="Group 131" transform="translate(37.058 3.734)">
      <rect id="Rectangle_127" data-name="Rectangle 127" width="1.724" height="1.724" fill="#202020"/>
    </g>
    <g id="Group_132" data-name="Group 132" transform="translate(89.453 9.654)">
      <rect id="Rectangle_128" data-name="Rectangle 128" width="1.724" height="1.724" fill="#202020"/>
    </g>
    <g id="Group_133" data-name="Group 133" transform="translate(91.177 11.473)">
      <rect id="Rectangle_129" data-name="Rectangle 129" width="1.724" height="1.724" fill="#202020"/>
    </g>
    <g id="Group_134" data-name="Group 134" transform="translate(92.9 13.197)">
      <rect id="Rectangle_130" data-name="Rectangle 130" width="1.724" height="1.724" fill="#202020"/>
    </g>
    <g id="Group_135" data-name="Group 135" transform="translate(87.73 7.93)">
      <rect id="Rectangle_131" data-name="Rectangle 131" width="1.724" height="1.724" fill="#202020"/>
    </g>
  </g>
</svg>
