<svg id="Group_273" data-name="Group 273" xmlns="http://www.w3.org/2000/svg" width="251.225" height="50.931" viewBox="0 0 251.225 50.931">
  <path id="Path_1788" data-name="Path 1788" d="M-500.909,285.462a3.415,3.415,0,0,1-3.424-3.4,3.415,3.415,0,0,1,3.405-3.424h.019a3.376,3.376,0,0,1,3.512,3.237v.154a3.441,3.441,0,0,1-3.449,3.433h-.063Z" transform="translate(578.264 -264.979)" fill="#020101"/>
  <path id="Path_1789" data-name="Path 1789" d="M-430.416,306.539c-4.161,0-7.356-3.89-7.356-8.865a10.121,10.121,0,0,1,9.851-10.376h.331a9.055,9.055,0,0,1,3.617.807l.138.063v-4.06c0-1.889-.226-2.015-1.194-2.244l-.292-.072-1.257-.366,8.583-2.787v22.926c0,2.055.273,2.57,1.525,2.927l.76.194-.231.539-7.888,1.3v-3.876l-.175.222A8.7,8.7,0,0,1-430.416,306.539Zm3.1-18.149c-2.822,0-4.186,2.479-4.186,7.582,0,4.471,1.675,7.248,4.312,7.248a3.391,3.391,0,0,0,3.351-3.237v-8.1a3.478,3.478,0,0,0-3.47-3.487h-.007Z" transform="translate(666.934 -264.967)" fill="#020101"/>
  <path id="Path_1790" data-name="Path 1790" d="M-505.021,300.978l.091-.522,1.341-.21a.99.99,0,0,0,.921-1V288.011c0-2.12-.975-2.656-1.817-2.887l-.5-.124,8.135-2.649v16.871a1,1,0,0,0,.837,1.022l1.4.219.093.522Z" transform="translate(577.348 -260.022)" fill="#020101"/>
  <path id="Path_1791" data-name="Path 1791" d="M-466.054,310.955l.093-.525,1.341-.21a.993.993,0,0,0,.921-1V288.188a2.966,2.966,0,0,0-1.525-2.927l-.835-.215,8.191-2.7v3.883l.177-.222c1.805-2.29,4.032-3.659,6.239-3.659,4.156,0,7.011,4.291,7.011,9.261a9.666,9.666,0,0,1-9.331,9.991c-.238.007-.476.007-.716,0a7.7,7.7,0,0,1-3.281-.627l-.138-.063v8.305a.991.991,0,0,0,.924,1l1.332.208.093.525Zm11.493-25.382a3.5,3.5,0,0,0-3.349,3.293v8.4a3.239,3.239,0,0,0,3.144,3.223c1.915,0,4.361-1.537,4.361-8.049,0-4.471-1.5-6.875-4.156-6.875Z" transform="translate(629.254 -260.029)" fill="#020101"/>
  <path id="Path_1792" data-name="Path 1792" d="M-476.17,304.209V294.043a3.2,3.2,0,0,0-3.233-3.17h-.056a3.132,3.132,0,0,0-3.055,3.048v10.266a1,1,0,0,0,.837.991l1.4.217.091.525h-10.14l.093-.525,1.033-.217a1,1,0,0,0,.837-.977V283.869a2.332,2.332,0,0,0-1.474-2.174l-.912-.366,8.293-2.7v12.426l.18-.271a8.443,8.443,0,0,1,6.509-3.484,5.656,5.656,0,0,1,3.823,1.609,6.944,6.944,0,0,1,1.537,4.7l.042,10.593a1,1,0,0,0,.837.991l1.4.219.091.522H-478.16l.091-.522,1.033-.219a1,1,0,0,0,.84-.975" transform="translate(596.361 -264.981)" fill="#020101"/>
  <path id="Path_1793" data-name="Path 1793" d="M-513.192,280.367a.994.994,0,0,0-.921-1l-1.343-.21-.091-.522h11.521l-.1.522-1.341.21a.99.99,0,0,0-.921,1v23.551c0,1.108,1.453.942,1.453.942,4.154,0,6.728-1.558,9.511-7.624l.457-1h1.3l-1.162,9.681h-20.71l.093-.525,1.341-.208a1,1,0,0,0,.921-1Z" transform="translate(563.324 -264.974)" fill="#020101"/>
  <path id="Path_1794" data-name="Path 1794" d="M-471.541,303.928a5.321,5.321,0,0,1-5.262-5.338V287.843h-4.116l2.561-2.512h.865a.684.684,0,0,0,.688-.679V282.4l5.441-1.805v4.739h5.229l-2.388,2.514h-2.817v10.1a3.2,3.2,0,0,0,2.871,3.505q.109.011.217.014a3.44,3.44,0,0,0,1.528-.371l.072-.03.515.6A7.58,7.58,0,0,1-471.541,303.928Z" transform="translate(609.457 -262.356)" fill="#020101"/>
  <path id="Path_1795" data-name="Path 1795" d="M-449.172,290.052l11.2.173c.042-.348.051-1.465.033-1.847-.121-2.829-2.092-6.024-7.239-6.024a9.869,9.869,0,0,0-10.2,9.527c0,.173-.007.348,0,.52a8.838,8.838,0,0,0,8.457,9.2c.14.007.28.009.422.009a8.524,8.524,0,0,0,8.494-5.478l-.42-.366a5.481,5.481,0,0,1-4.739,2.514c-3.624,0-5.994-2.927-6.038-7.491a6.525,6.525,0,0,1,.035-.739Zm0-1.4c.285-3.529,1.5-5.131,3.414-5.131a1.888,1.888,0,0,1,1.406.576c.8.809,1.18,2.094,1.143,4.522v.1l-5.975.04Z" transform="translate(643.467 -260.027)" fill="#020101"/>
  <path id="Path_1796" data-name="Path 1796" d="M-440.458,290.052l11.2.173c.042-.348.049-1.465.033-1.847-.121-2.829-2.092-6.024-7.239-6.024a9.868,9.868,0,0,0-10.2,9.527c0,.175-.007.348,0,.52a8.837,8.837,0,0,0,8.454,9.2c.142.007.282.009.422.009a8.526,8.526,0,0,0,8.5-5.478l-.42-.366a5.489,5.489,0,0,1-4.765,2.563c-3.627,0-6-2.927-6.038-7.491a5.882,5.882,0,0,1,.061-.784Zm0-1.4c.285-3.529,1.5-5.131,3.419-5.131a1.885,1.885,0,0,1,1.406.576c.8.809,1.182,2.094,1.145,4.522v.1l-5.978.04Z" transform="translate(655.076 -260.027)" fill="#020101"/>
  <path id="Path_1797" data-name="Path 1797" d="M-464.189,289.48c-2.474-.949-4.338-1.675-4.338-3.505a2.573,2.573,0,0,1,2.479-2.663,2.459,2.459,0,0,1,.371.014,4.485,4.485,0,0,1,2.349.662l3.116,4.546,1.07-.042-.21-6.141-2.015.655a14.859,14.859,0,0,0-4.289-.655c-4.45,0-7.419,2.349-7.419,6.017,0,3.377,2.554,4.66,5.691,5.861,2.307.907,4.455,1.556,4.455,3.885,0,1.325-1.257,2.624-3.3,2.624-2.143,0-3.256-1.07-4.655-3.13l-1.147-2.388-1.1.268-.389,4.837a21.9,21.9,0,0,0,7.181,1.255c5.52,0,8.039-2.927,8.039-6.143C-458.3,291.849-461.348,290.634-464.189,289.48Z" transform="translate(619.314 -260.024)" fill="#020101"/>
  <path id="Path_1798" data-name="Path 1798" d="M-486.407,297.7h-6.554a1.575,1.575,0,0,1-1.462-1.537,1.558,1.558,0,0,1,1.5-1.619h.044a1.7,1.7,0,0,1,.268,0,10.047,10.047,0,0,0,1.889.163c4.972,0,8.342-2.591,8.342-6.246a3.549,3.549,0,0,0-.8-2.572l2.283-2.092-.555-1.611-3.9,1.607a10.9,10.9,0,0,0-5.087-1.22c-4.849,0-8.139,3.116-8.139,6.4a5.2,5.2,0,0,0,3.948,5.22v.044c-2.425.7-4.643,2.344-4.643,4.562,0,1.973,1.973,3.741,4.4,4.025-2.468.945-4.891,2.055-4.891,4.231,0,2.757,2.628,4.114,7.955,4.114,6.782,0,11.591-3.769,11.591-8.184C-480.2,299.695-482.748,297.7-486.407,297.7Zm-5.978-12.811a2.149,2.149,0,0,1,1.905-1.157c1.546,0,2.512,1.32,2.512,5.073s-.723,5.024-2.512,5.024c-1.511,0-2.381-1.495-2.381-5.07a9.88,9.88,0,0,1,.478-3.874Zm1.124,24.868c-2.589,0-4.109-1.523-4.109-3.743a3.553,3.553,0,0,1,3.484-3.134h3.5c2.927.205,4.317.837,4.317,2.927,0,2.332-3.86,3.948-7.174,3.948Z" transform="translate(584.358 -260.241)" fill="#020101"/>
  <path id="Path_1799" data-name="Path 1799" d="M-508.725,300.085h-13.648V286.437l-13.66-13.66v40.956h40.956Z" transform="translate(536.033 -272.777)" fill="#e45449"/>
</svg>
