<?xml version="1.0" encoding="UTF-8"?>
<svg xmlns="http://www.w3.org/2000/svg" xmlns:xlink="http://www.w3.org/1999/xlink" width="300" height="60" viewBox="0 0 300 60" version="1.1">
<g id="surface1">
<path style=" stroke:none;fill-rule:nonzero;fill:rgb(14.901961%,40%,69.019608%);fill-opacity:1;" d="M 92.4375 24.179688 C 90.167969 24.179688 88.375 22.417969 88.375 20.183594 C 88.375 17.949219 90.167969 16.1875 92.4375 16.1875 C 94.707031 16.070312 96.496094 17.832031 96.617188 19.949219 L 96.617188 20.066406 C 96.617188 22.417969 94.707031 24.179688 92.4375 24.179688 Z M 92.4375 24.179688 "/>
<path style=" stroke:none;fill-rule:nonzero;fill:rgb(14.901961%,40%,69.019608%);fill-opacity:1;" d="M 282.445312 48.984375 C 277.429688 48.984375 273.605469 44.398438 273.605469 38.523438 C 273.488281 31.941406 278.742188 26.53125 285.429688 26.296875 L 285.789062 26.296875 C 287.222656 26.296875 288.773438 26.648438 290.085938 27.238281 L 290.207031 27.355469 L 290.207031 22.535156 C 290.207031 20.300781 289.96875 20.183594 288.773438 19.949219 L 288.414062 19.832031 L 286.863281 19.363281 L 297.132812 16.070312 L 297.132812 42.988281 C 297.132812 45.457031 297.492188 46.046875 298.925781 46.398438 L 299.878906 46.632812 L 299.640625 47.222656 L 290.207031 48.75 L 290.207031 44.164062 L 289.96875 44.398438 C 288.296875 47.105469 285.550781 48.75 282.445312 48.984375 Z M 286.148438 27.589844 C 282.800781 27.589844 281.128906 30.527344 281.128906 36.523438 C 281.128906 41.8125 283.160156 44.988281 286.265625 44.988281 C 288.414062 44.988281 290.207031 43.34375 290.328125 41.226562 L 290.328125 31.703125 C 290.328125 29.472656 288.414062 27.589844 286.148438 27.589844 Z M 286.148438 27.589844 "/>
<path style=" stroke:none;fill-rule:nonzero;fill:rgb(14.901961%,40%,69.019608%);fill-opacity:1;" d="M 86.34375 48.28125 L 86.464844 47.691406 L 88.015625 47.457031 C 88.613281 47.457031 89.09375 46.867188 89.09375 46.28125 L 89.09375 32.996094 C 89.09375 30.527344 87.898438 29.824219 86.941406 29.589844 L 86.464844 29.472656 L 96.136719 26.414062 L 96.136719 46.28125 C 96.136719 46.867188 96.496094 47.339844 97.09375 47.457031 L 98.765625 47.691406 L 98.886719 48.28125 Z M 86.34375 48.28125 "/>
<path style=" stroke:none;fill-rule:nonzero;fill:rgb(14.901961%,40%,69.019608%);fill-opacity:1;" d="M 194.90625 59.917969 L 195.023438 59.328125 L 196.578125 59.09375 C 197.171875 59.09375 197.652344 58.507812 197.652344 57.917969 L 197.652344 33.234375 C 197.769531 31.820312 197.054688 30.410156 195.859375 29.824219 L 194.90625 29.589844 L 204.699219 26.414062 L 204.699219 31 L 204.9375 30.765625 C 207.085938 28.058594 209.714844 26.414062 212.339844 26.414062 C 217.355469 26.414062 220.699219 31.46875 220.699219 37.347656 C 220.941406 43.578125 215.921875 48.867188 209.59375 49.101562 C 209.355469 49.101562 208.996094 49.101562 208.757812 49.101562 C 207.445312 49.101562 206.128906 48.867188 204.816406 48.398438 L 204.699219 48.28125 L 204.699219 58.035156 C 204.699219 58.625 205.175781 59.210938 205.773438 59.210938 L 207.324219 59.445312 L 207.445312 60.035156 Z M 208.636719 30.058594 C 206.488281 30.175781 204.816406 31.820312 204.699219 33.9375 L 204.699219 43.8125 C 204.699219 45.8125 206.371094 47.574219 208.398438 47.574219 C 210.667969 47.574219 213.65625 45.8125 213.65625 38.171875 C 213.535156 32.878906 211.742188 30.058594 208.636719 30.058594 Z M 208.636719 30.058594 "/>
<path style=" stroke:none;fill-rule:nonzero;fill:rgb(14.901961%,40%,69.019608%);fill-opacity:1;" d="M 143.550781 46.164062 L 143.550781 34.289062 C 143.550781 32.175781 141.757812 30.527344 139.730469 30.527344 L 139.609375 30.527344 C 137.578125 30.527344 136.027344 32.175781 135.90625 34.054688 L 135.90625 46.164062 C 135.90625 46.75 136.386719 47.222656 136.863281 47.339844 L 138.535156 47.574219 L 138.65625 48.160156 L 126.59375 48.160156 L 126.710938 47.574219 L 127.90625 47.339844 C 128.503906 47.222656 128.863281 46.75 128.863281 46.164062 L 128.863281 22.300781 C 128.863281 21.125 128.144531 20.183594 127.070312 19.714844 L 125.996094 19.242188 L 135.90625 16.070312 L 135.90625 30.648438 L 136.148438 30.292969 C 137.9375 27.824219 140.804688 26.296875 143.910156 26.179688 C 145.582031 26.179688 147.253906 26.886719 148.449219 28.058594 C 149.761719 29.589844 150.359375 31.585938 150.238281 33.585938 L 150.238281 46.046875 C 150.238281 46.632812 150.714844 47.105469 151.195312 47.222656 L 152.867188 47.457031 L 152.984375 48.042969 L 140.921875 48.042969 L 141.042969 47.457031 L 142.238281 47.222656 C 143.074219 47.222656 143.550781 46.75 143.550781 46.164062 "/>
<path style=" stroke:none;fill-rule:nonzero;fill:rgb(14.901961%,40%,69.019608%);fill-opacity:1;" d="M 59.832031 18.1875 C 59.832031 17.597656 59.355469 17.011719 58.757812 17.011719 L 57.207031 16.773438 L 57.085938 16.1875 L 70.820312 16.1875 L 70.699219 16.773438 L 69.148438 17.011719 C 68.550781 17.011719 68.074219 17.597656 68.074219 18.1875 L 68.074219 45.929688 C 68.074219 47.222656 69.863281 46.988281 69.863281 46.988281 C 74.878906 46.988281 77.867188 45.105469 81.210938 38.050781 L 81.808594 36.875 L 83.359375 36.875 L 81.925781 48.28125 L 57.085938 48.28125 L 57.207031 47.691406 L 58.757812 47.457031 C 59.355469 47.457031 59.832031 46.867188 59.832031 46.28125 Z M 59.832031 18.1875 "/>
<path style=" stroke:none;fill-rule:nonzero;fill:rgb(14.901961%,40%,69.019608%);fill-opacity:1;" d="M 164.691406 48.984375 C 161.226562 48.984375 158.359375 46.164062 158.359375 42.753906 L 158.359375 30.058594 L 153.464844 30.058594 L 156.570312 27.121094 L 157.644531 27.121094 C 158.121094 27.121094 158.480469 26.765625 158.480469 26.296875 L 158.480469 23.59375 L 164.929688 21.476562 L 164.929688 27.121094 L 171.136719 27.121094 L 168.273438 30.058594 L 164.929688 30.058594 L 164.929688 41.933594 C 164.691406 44.046875 166.242188 45.8125 168.390625 46.046875 C 168.511719 46.046875 168.511719 46.046875 168.628906 46.046875 C 169.226562 46.046875 169.945312 45.929688 170.421875 45.574219 L 170.542969 45.574219 L 171.136719 46.28125 C 169.464844 48.042969 167.078125 48.984375 164.691406 48.984375 Z M 164.691406 48.984375 "/>
<path style=" stroke:none;fill-rule:nonzero;fill:rgb(14.901961%,40%,69.019608%);fill-opacity:1;" d="M 232.046875 35.347656 L 245.421875 35.582031 C 245.421875 35.230469 245.542969 33.820312 245.421875 33.46875 C 245.300781 30.175781 242.914062 26.414062 236.824219 26.414062 C 230.375 26.179688 224.878906 31.234375 224.640625 37.582031 C 224.640625 37.816406 224.640625 37.933594 224.640625 38.171875 C 224.402344 43.929688 228.941406 48.75 234.792969 48.984375 C 234.914062 48.984375 235.152344 48.984375 235.269531 48.984375 C 239.691406 49.21875 243.871094 46.632812 245.421875 42.519531 L 244.945312 42.050781 C 243.75 43.929688 241.601562 45.105469 239.332031 44.988281 C 235.03125 44.988281 232.164062 41.578125 232.164062 36.171875 C 232.046875 35.9375 232.046875 35.703125 232.046875 35.347656 Z M 232.046875 33.703125 C 232.40625 29.589844 233.835938 27.707031 236.105469 27.707031 C 236.703125 27.707031 237.300781 27.941406 237.777344 28.414062 C 238.734375 29.351562 239.210938 30.882812 239.09375 33.703125 L 239.09375 33.820312 L 231.925781 33.820312 Z M 232.046875 33.703125 "/>
<path style=" stroke:none;fill-rule:nonzero;fill:rgb(14.901961%,40%,69.019608%);fill-opacity:1;" d="M 256.289062 35.347656 L 269.664062 35.582031 C 269.664062 35.230469 269.664062 33.820312 269.664062 33.46875 C 269.546875 30.175781 267.15625 26.414062 261.066406 26.414062 C 254.617188 26.179688 249.125 31.234375 248.886719 37.582031 C 248.886719 37.816406 248.886719 37.933594 248.886719 38.171875 C 248.648438 43.929688 253.183594 48.75 259.035156 48.984375 C 259.15625 48.984375 259.394531 48.984375 259.515625 48.984375 C 263.933594 49.21875 268.113281 46.632812 269.664062 42.519531 L 269.1875 42.050781 C 267.992188 43.929688 265.84375 45.105469 263.457031 45.105469 C 259.15625 45.105469 256.289062 41.695312 256.289062 36.289062 C 256.289062 35.9375 256.289062 35.703125 256.289062 35.347656 Z M 256.289062 33.703125 C 256.648438 29.589844 258.082031 27.707031 260.351562 27.707031 C 260.949219 27.707031 261.542969 27.941406 262.023438 28.414062 C 262.976562 29.351562 263.457031 30.882812 263.335938 33.703125 L 263.335938 33.820312 L 256.171875 33.820312 Z M 256.289062 33.703125 "/>
<path style=" stroke:none;fill-rule:nonzero;fill:rgb(14.901961%,40%,69.019608%);fill-opacity:1;" d="M 185.230469 34.761719 C 182.246094 33.703125 180.09375 32.761719 180.09375 30.648438 C 179.976562 29 181.410156 27.589844 183.082031 27.472656 C 183.199219 27.472656 183.320312 27.472656 183.558594 27.472656 C 184.515625 27.472656 185.46875 27.707031 186.304688 28.296875 L 190.007812 33.585938 L 191.320312 33.585938 L 191.082031 26.414062 L 188.695312 27.238281 C 187.023438 26.765625 185.351562 26.53125 183.558594 26.414062 C 178.183594 26.414062 174.722656 29.117188 174.722656 33.46875 C 174.722656 37.464844 177.828125 38.992188 181.527344 40.402344 C 184.277344 41.460938 186.902344 42.285156 186.902344 44.988281 C 186.902344 46.515625 185.351562 48.042969 182.960938 48.042969 C 180.453125 48.042969 179.019531 46.75 177.347656 44.398438 L 176.035156 41.578125 L 174.722656 41.933594 L 174.242188 47.574219 C 176.992188 48.515625 179.855469 48.984375 182.84375 49.101562 C 189.410156 49.101562 192.398438 45.695312 192.398438 41.933594 C 192.277344 37.464844 188.695312 36.054688 185.230469 34.761719 Z M 185.230469 34.761719 "/>
<path style=" stroke:none;fill-rule:nonzero;fill:rgb(14.901961%,40%,69.019608%);fill-opacity:1;" d="M 117.039062 44.164062 L 109.15625 44.164062 C 108.199219 44.046875 107.484375 43.34375 107.363281 42.402344 C 107.363281 41.34375 108.082031 40.519531 109.15625 40.519531 C 109.277344 40.519531 109.394531 40.519531 109.515625 40.519531 C 110.230469 40.636719 111.066406 40.757812 111.785156 40.757812 C 117.753906 40.757812 121.695312 37.699219 121.695312 33.46875 C 121.816406 32.410156 121.457031 31.234375 120.742188 30.410156 L 123.488281 27.941406 L 122.769531 26.0625 L 118.234375 27.824219 C 116.320312 26.886719 114.292969 26.414062 112.140625 26.414062 C 106.410156 26.414062 102.46875 30.058594 102.46875 33.9375 C 102.347656 36.875 104.378906 39.34375 107.125 40.050781 C 104.257812 40.875 101.632812 42.753906 101.632812 45.457031 C 101.632812 47.808594 104.019531 49.808594 106.886719 50.160156 C 103.902344 51.21875 101.035156 52.628906 101.035156 55.097656 C 101.035156 58.390625 104.140625 59.917969 110.589844 59.917969 C 118.710938 59.917969 124.441406 55.449219 124.441406 50.277344 C 124.441406 46.515625 121.335938 44.164062 117.039062 44.164062 Z M 109.871094 29 C 110.351562 28.179688 111.1875 27.589844 112.140625 27.589844 C 113.933594 27.589844 115.128906 29.117188 115.128906 33.585938 C 115.128906 38.050781 114.292969 39.464844 112.140625 39.464844 C 110.351562 39.464844 109.277344 37.699219 109.277344 33.46875 C 109.15625 32.058594 109.394531 30.527344 109.871094 29 Z M 111.1875 58.273438 C 108.082031 58.273438 106.289062 56.507812 106.289062 53.921875 C 106.527344 51.804688 108.320312 50.277344 110.46875 50.277344 L 114.648438 50.277344 C 118.113281 50.511719 119.785156 51.21875 119.785156 53.6875 C 119.785156 56.390625 115.128906 58.273438 111.1875 58.273438 Z M 111.1875 58.273438 "/>
<path style=" stroke:none;fill-rule:nonzero;fill:rgb(89.411765%,32.941176%,28.627451%);fill-opacity:1;" d="M 32.601562 32.175781 L 16.363281 32.175781 L 16.363281 16.1875 L 0 0.0820312 L 0 48.28125 L 48.964844 48.28125 Z M 32.601562 32.175781 "/>
</g>
</svg>
