<?xml version="1.0" encoding="utf-8"?>
<!-- Generator: Adobe Illustrator 26.3.1, SVG Export Plug-In . SVG Version: 6.00 Build 0)  -->
<svg version="1.1" id="Group_273" xmlns="http://www.w3.org/2000/svg" xmlns:xlink="http://www.w3.org/1999/xlink" x="0px" y="0px"
	 viewBox="0 0 251.2 50.9" style="enable-background:new 0 0 251.2 50.9;" xml:space="preserve">
<style type="text/css">
	.st0{fill:#2666B0;}
	.st1{fill:#E45449;}
</style>
<path id="Path_1788" class="st0" d="M77.4,20.5c-1.9,0-3.4-1.5-3.4-3.4c0-1.9,1.5-3.4,3.4-3.4h0c1.9-0.1,3.4,1.4,3.5,3.2
	c0,0,0,0,0,0V17C80.9,19,79.3,20.5,77.4,20.5L77.4,20.5L77.4,20.5z"/>
<path id="Path_1789" class="st0" d="M236.5,41.6c-4.2,0-7.4-3.9-7.4-8.9c-0.1-5.6,4.3-10.2,9.9-10.4h0.3c1.2,0,2.5,0.3,3.6,0.8
	l0.1,0.1v-4.1c0-1.9-0.2-2-1.2-2.2l-0.3-0.1l-1.3-0.4l8.6-2.8v22.9c0,2.1,0.3,2.6,1.5,2.9l0.8,0.2l-0.2,0.5l-7.9,1.3v-3.9l-0.2,0.2
	C241.4,40,239.1,41.4,236.5,41.6z M239.6,23.4c-2.8,0-4.2,2.5-4.2,7.6c0,4.5,1.7,7.2,4.3,7.2c1.8,0,3.3-1.4,3.4-3.2v-8.1
	C243.1,25,241.5,23.4,239.6,23.4C239.6,23.4,239.6,23.4,239.6,23.4L239.6,23.4L239.6,23.4z"/>
<path id="Path_1790" class="st0" d="M72.3,41l0.1-0.5l1.3-0.2c0.5,0,0.9-0.5,0.9-1V28c0-2.1-1-2.7-1.8-2.9L72.4,25l8.1-2.6v16.9
	c0,0.5,0.3,0.9,0.8,1l1.4,0.2l0.1,0.5L72.3,41z"/>
<path id="Path_1791" class="st0" d="M163.2,50.9l0.1-0.5l1.3-0.2c0.5,0,0.9-0.5,0.9-1v-21c0.1-1.2-0.5-2.4-1.5-2.9l-0.8-0.2l8.2-2.7
	v3.9l0.2-0.2c1.8-2.3,4-3.7,6.2-3.7c4.2,0,7,4.3,7,9.3c0.2,5.3-4,9.8-9.3,10c0,0,0,0,0,0c-0.2,0-0.5,0-0.7,0c-1.1,0-2.2-0.2-3.3-0.6
	l-0.1-0.1v8.3c0,0.5,0.4,1,0.9,1l1.3,0.2l0.1,0.5L163.2,50.9z M174.7,25.5c-1.8,0.1-3.2,1.5-3.3,3.3v8.4c0,1.7,1.4,3.2,3.1,3.2
	c1.9,0,4.4-1.5,4.4-8C178.8,27.9,177.3,25.5,174.7,25.5L174.7,25.5z"/>
<path id="Path_1792" class="st0" d="M120.2,39.2V29.1c0-1.8-1.5-3.2-3.2-3.2c0,0,0,0,0,0h-0.1c-1.7,0-3,1.4-3.1,3v10.3
	c0,0.5,0.4,0.9,0.8,1l1.4,0.2l0.1,0.5H106l0.1-0.5l1-0.2c0.5-0.1,0.8-0.5,0.8-1V18.9c0-1-0.6-1.8-1.5-2.2l-0.9-0.4l8.3-2.7v12.4
	l0.2-0.3c1.5-2.1,3.9-3.4,6.5-3.5c1.4,0,2.8,0.6,3.8,1.6c1.1,1.3,1.6,3,1.5,4.7l0,10.6c0,0.5,0.4,0.9,0.8,1l1.4,0.2l0.1,0.5h-10.1
	l0.1-0.5l1-0.2C119.8,40.1,120.2,39.7,120.2,39.2"/>
<path id="Path_1793" class="st0" d="M50.1,15.4c0-0.5-0.4-1-0.9-1l-1.3-0.2l-0.1-0.5h11.5l-0.1,0.5l-1.3,0.2c-0.5,0-0.9,0.5-0.9,1
	v23.6c0,1.1,1.5,0.9,1.5,0.9c4.2,0,6.7-1.6,9.5-7.6l0.5-1h1.3l-1.2,9.7H47.8l0.1-0.5l1.3-0.2c0.5,0,0.9-0.5,0.9-1L50.1,15.4z"/>
<path id="Path_1794" class="st0" d="M137.9,41.6c-2.9,0-5.3-2.4-5.3-5.3V25.5h-4.1l2.6-2.5h0.9c0.4,0,0.7-0.3,0.7-0.7V20l5.4-1.8V23
	h5.2l-2.4,2.5h-2.8v10.1c-0.2,1.8,1.1,3.3,2.9,3.5c0,0,0,0,0,0c0.1,0,0.1,0,0.2,0c0.5,0,1.1-0.1,1.5-0.4l0.1,0l0.5,0.6
	C141.9,40.8,139.9,41.6,137.9,41.6z"/>
<path id="Path_1795" class="st0" d="M194.3,30l11.2,0.2c0-0.3,0.1-1.5,0-1.8c-0.1-2.8-2.1-6-7.2-6c-5.4-0.2-10,4.1-10.2,9.5
	c0,0,0,0,0,0c0,0.2,0,0.3,0,0.5c-0.2,4.9,3.6,9,8.5,9.2c0.1,0,0.3,0,0.4,0c3.7,0.2,7.2-2,8.5-5.5l-0.4-0.4c-1,1.6-2.8,2.6-4.7,2.5
	c-3.6,0-6-2.9-6-7.5C194.3,30.5,194.3,30.3,194.3,30L194.3,30z M194.3,28.6c0.3-3.5,1.5-5.1,3.4-5.1c0.5,0,1,0.2,1.4,0.6
	c0.8,0.8,1.2,2.1,1.1,4.5v0.1l-6,0L194.3,28.6z"/>
<path id="Path_1796" class="st0" d="M214.6,30l11.2,0.2c0-0.3,0-1.5,0-1.8c-0.1-2.8-2.1-6-7.2-6c-5.4-0.2-10,4.1-10.2,9.5
	c0,0,0,0,0,0c0,0.2,0,0.3,0,0.5c-0.2,4.9,3.6,9,8.5,9.2c0.1,0,0.3,0,0.4,0c3.7,0.2,7.2-2,8.5-5.5l-0.4-0.4c-1,1.6-2.8,2.6-4.8,2.6
	c-3.6,0-6-2.9-6-7.5C214.6,30.5,214.6,30.3,214.6,30L214.6,30z M214.6,28.6c0.3-3.5,1.5-5.1,3.4-5.1c0.5,0,1,0.2,1.4,0.6
	c0.8,0.8,1.2,2.1,1.1,4.5v0.1l-6,0L214.6,28.6z"/>
<path id="Path_1797" class="st0" d="M155.1,29.5c-2.5-0.9-4.3-1.7-4.3-3.5c-0.1-1.4,1.1-2.6,2.5-2.7c0.1,0,0.2,0,0.4,0
	c0.8,0,1.6,0.2,2.3,0.7l3.1,4.5l1.1,0l-0.2-6.1l-2,0.7c-1.4-0.4-2.8-0.6-4.3-0.7c-4.5,0-7.4,2.3-7.4,6c0,3.4,2.6,4.7,5.7,5.9
	c2.3,0.9,4.5,1.6,4.5,3.9c0,1.3-1.3,2.6-3.3,2.6c-2.1,0-3.3-1.1-4.7-3.1l-1.1-2.4l-1.1,0.3l-0.4,4.8c2.3,0.8,4.7,1.2,7.2,1.3
	c5.5,0,8-2.9,8-6.1C161,31.8,158,30.6,155.1,29.5z"/>
<path id="Path_1798" class="st0" d="M98,37.5h-6.6c-0.8-0.1-1.4-0.7-1.5-1.5c0-0.9,0.6-1.6,1.5-1.6c0,0,0,0,0,0h0c0.1,0,0.2,0,0.3,0
	c0.6,0.1,1.3,0.2,1.9,0.2c5,0,8.3-2.6,8.3-6.2c0.1-0.9-0.2-1.9-0.8-2.6l2.3-2.1l-0.6-1.6L99,23.6c-1.6-0.8-3.3-1.2-5.1-1.2
	c-4.8,0-8.1,3.1-8.1,6.4c-0.1,2.5,1.6,4.6,3.9,5.2v0c-2.4,0.7-4.6,2.3-4.6,4.6c0,2,2,3.7,4.4,4c-2.5,0.9-4.9,2.1-4.9,4.2
	c0,2.8,2.6,4.1,8,4.1c6.8,0,11.6-3.8,11.6-8.2C104.2,39.5,101.6,37.5,98,37.5z M92,24.6c0.4-0.7,1.1-1.2,1.9-1.2
	c1.5,0,2.5,1.3,2.5,5.1s-0.7,5-2.5,5c-1.5,0-2.4-1.5-2.4-5.1C91.4,27.2,91.6,25.9,92,24.6L92,24.6z M93.1,49.5
	c-2.6,0-4.1-1.5-4.1-3.7c0.2-1.8,1.7-3.1,3.5-3.1H96c2.9,0.2,4.3,0.8,4.3,2.9C100.3,47.9,96.4,49.5,93.1,49.5L93.1,49.5z"/>
<path id="Path_1799" class="st1" d="M27.3,27.3H13.7V13.7L0,0v41h41L27.3,27.3z"/>
</svg>
