<?xml version="1.0" encoding="UTF-8"?>
<svg id="katman_1" data-name="katman 1" xmlns="http://www.w3.org/2000/svg" viewBox="0 0 300 100">
  <defs>
    <style>
      .cls-1 {
        fill: #214197;
      }
    </style>
  </defs>
  <g id="Group_138" data-name="Group 138">
    <path id="Path_425" data-name="Path 425" class="cls-1" d="M130.59,65.98V33.62h-.13l-5.8,32.35h-4.31l-5.94-32.35h-.13v32.35h-5.86V21.14h8.97l5.01,27.92h.12l5.26-27.92h8.68v44.84h-5.87Z"/>
    <path id="Path_426" data-name="Path 426" class="cls-1" d="M162.93,50.18c-.25,9.68-2.75,16.3-10.62,16.3-9.24,0-11.18-8.43-11.18-23.04,0-12.3,1.44-22.79,11.05-22.79,8.06,0,10.26,6.24,10.49,15.11h-6.37c-.25-5.62-1.37-8.75-3.87-8.75-3.18,0-4.18,4.25-4.18,16.42,0,13.25,1,16.86,4.18,16.86,2.81,0,3.87-3.75,4.12-10.12h6.37Z"/>
    <path id="Path_427" data-name="Path 427" class="cls-1" d="M188.16,50.18c-.25,9.68-2.75,16.3-10.62,16.3-9.24,0-11.17-8.43-11.17-23.04,0-12.3,1.45-22.79,11.05-22.79,8.06,0,10.26,6.24,10.49,15.11h-6.37c-.25-5.62-1.37-8.75-3.87-8.75-3.18,0-4.18,4.25-4.18,16.42,0,13.25,1,16.86,4.18,16.86,2.81,0,3.87-3.75,4.12-10.12h6.37Z"/>
  </g>
  <g id="Group_139" data-name="Group 139" transform="translate(0.243 62.599)">
    <path id="Path_428" data-name="Path 428" class="cls-1" d="M112.44,80v-5.55h-.03l-1,5.55h-.73l-1.02-5.55h-.02v5.55h-1.01v-7.72h1.55l.85,4.81h0l.91-4.81h1.5v7.72h-.99Z"/>
    <path id="Path_429" data-name="Path 429" class="cls-1" d="M117.06,80l-.27-1.93h-1.28l-.25,1.93h-1.2l1.28-7.72h1.57l1.34,7.72h-1.19Zm-1.41-2.99h1l-.49-3.54h-.06l-.46,3.54Z"/>
    <path id="Path_430" data-name="Path 430" class="cls-1" d="M121.36,80l-.83-3.28h-.52v3.28h-1.17v-7.72h1.54c1.37,0,2.08,.55,2.08,2.06,.09,.74-.26,1.46-.89,1.85l1.05,3.82h-1.25Zm-.98-4.27c.58,0,.85-.31,.85-1.26,0-1.06-.43-1.17-.97-1.17h-.26v2.43h.37Z"/>
    <path id="Path_431" data-name="Path 431" class="cls-1" d="M125.94,80l-1-3.66-.52,1.14v2.54h-1.14v-7.74h1.14v3.24h0l1.35-3.24h1.18l-1.25,2.77,1.39,4.95h-1.16Z"/>
    <path id="Path_432" data-name="Path 432" class="cls-1" d="M132.71,77.28c-.04,1.67-.47,2.81-1.83,2.81-1.59,0-1.93-1.45-1.93-3.97,0-2.14,.25-3.92,1.91-3.92,1.38,0,1.77,1.07,1.81,2.6h-1.1c-.04-.97-.24-1.51-.67-1.51-.55,0-.72,.73-.72,2.83,0,2.28,.17,2.91,.72,2.91,.48,0,.67-.65,.71-1.74h1.1Z"/>
    <path id="Path_433" data-name="Path 433" class="cls-1" d="M135.88,72.28h1.17v5.81c0,1.36-.58,1.98-1.8,1.98s-1.78-.62-1.78-1.98v-5.81h1.17v5.92c0,.65,.23,.85,.62,.85s.62-.23,.62-.85v-5.92Z"/>
    <path id="Path_434" data-name="Path 434" class="cls-1" d="M138,80v-7.72h1.52c1.43,0,2.14,.53,2.14,2.02,.06,.68-.3,1.32-.91,1.64v.02c.7,.31,1.12,1.05,1,1.82,0,1.74-.85,2.23-2.26,2.23h-1.49Zm1.52-4.51c.68,0,.96-.36,.96-1.12s-.35-1.02-.85-1.02h-.47v2.14h.37Zm.12,3.42c.62,0,.91-.29,.91-1.21s-.27-1.23-.99-1.23h-.43v2.43h.5Z"/>
    <path id="Path_435" data-name="Path 435" class="cls-1" d="M145.06,80l-.27-1.93h-1.28l-.26,1.93h-1.2l1.28-7.72h1.57l1.33,7.72h-1.18Zm-1.41-2.99h1l-.49-3.54h-.04l-.47,3.54Z"/>
    <path id="Path_436" data-name="Path 436" class="cls-1" d="M149.5,80l-1.62-5.16h0v5.16h-1.03v-7.72h1.28l1.32,4.35h0v-4.35h1.02v7.72h-.97Z"/>
    <path id="Path_437" data-name="Path 437" class="cls-1" d="M156.68,77.28c-.04,1.67-.47,2.81-1.83,2.81-1.59,0-1.92-1.45-1.92-3.97,0-2.14,.25-3.92,1.9-3.92,1.39,0,1.76,1.07,1.81,2.6h-1.1c-.04-.97-.24-1.51-.67-1.51-.55,0-.72,.73-.72,2.83,0,2.28,.17,2.91,.72,2.91s.67-.65,.71-1.74h1.1Z"/>
    <path id="Path_438" data-name="Path 438" class="cls-1" d="M157.16,76.13c0-2.84,.52-3.94,1.96-3.94s1.96,1.09,1.96,3.94c0,2.65-.48,3.96-1.96,3.96s-1.96-1.32-1.96-3.96Zm2.69,0c0-2.17-.19-2.87-.73-2.87s-.73,.7-.73,2.87,.23,2.92,.73,2.92,.73-.67,.73-2.92h0Z"/>
    <path id="Path_439" data-name="Path 439" class="cls-1" d="M165.68,80v-5.55h0l-1,5.55h-.74l-1.02-5.55h0v5.55h-1.01v-7.72h1.55l.86,4.81h.02l.91-4.81h1.5v7.72h-1.05Z"/>
    <path id="Path_440" data-name="Path 440" class="cls-1" d="M167.69,80v-7.72h1.48c1.46,0,2.22,.68,2.22,2.25s-.78,2.31-2.18,2.31h-.35v3.16h-1.17Zm1.57-4.21c.61,0,.91-.46,.91-1.28,0-.91-.33-1.17-.95-1.17h-.35v2.43l.4,.02Z"/>
    <path id="Path_441" data-name="Path 441" class="cls-1" d="M174.16,80l-.27-1.93h-1.28l-.26,1.93h-1.19l1.28-7.72h1.57l1.32,7.72h-1.17Zm-1.41-2.99h1l-.48-3.54h-.04l-.47,3.54Z"/>
    <path id="Path_442" data-name="Path 442" class="cls-1" d="M178.6,80l-1.62-5.16h-.02v5.16h-1.02v-7.72h1.28l1.34,4.35h.02v-4.35h1.02v7.72h-1Z"/>
    <path id="Path_443" data-name="Path 443" class="cls-1" d="M180.59,80v-7.72h1.18v7.72h-1.18Z"/>
    <path id="Path_444" data-name="Path 444" class="cls-1" d="M182.78,80v-7.72h3.14v1.09h-1.99v2.14h1.55v1.06h-1.55v2.38h2.09v1.08l-3.24-.02Z"/>
    <path id="Path_445" data-name="Path 445" class="cls-1" d="M188.84,74.35c-.03-.68-.22-1.14-.68-1.14s-.56,.26-.56,.67c0,1.65,2.39,1.98,2.39,4.27,.11,.95-.57,1.81-1.51,1.92-.1,.01-.21,.02-.32,0-1.23,0-1.71-.72-1.76-2.1l1.08-.08c.06,.81,.23,1.16,.7,1.16s.65-.31,.65-.83c0-1.69-2.36-2.03-2.36-4.27-.12-.87,.49-1.68,1.36-1.8,.1-.01,.2-.02,.3-.01,1.28,0,1.68,.85,1.75,2.1l-1.04,.1Z"/>
  </g>
</svg>