<?xml version="1.0" encoding="utf-8"?>
<!-- Generator: Adobe Illustrator 26.3.1, SVG Export Plug-In . SVG Version: 6.00 Build 0)  -->
<svg version="1.1" id="Layer_1-2" xmlns="http://www.w3.org/2000/svg" xmlns:xlink="http://www.w3.org/1999/xlink" x="0px" y="0px"
	 viewBox="0 0 99.1 72.2" style="enable-background:new 0 0 99.1 72.2;" xml:space="preserve">
<style type="text/css">
	.st0{fill:#2666B0;}
</style>
<g id="Group_138">
	<path id="Path_425" class="st0" d="M26.9,55.1V15.8h-0.2l-7.1,39.3h-5.2L7.3,15.8H7.1v39.3H0V0.6h10.9L17,34.5h0.1l6.4-33.9h10.5
		v54.5H26.9z"/>
	<path id="Path_426" class="st0" d="M66.2,35.9c-0.3,11.8-3.3,19.8-12.9,19.8c-11.2,0-13.6-10.2-13.6-28C39.8,12.7,41.5,0,53.2,0
		C63,0,65.6,7.6,65.9,18.4h-7.7c-0.3-6.8-1.7-10.6-4.7-10.6c-3.9,0-5.1,5.2-5.1,20c0,16.1,1.2,20.5,5.1,20.5c3.4,0,4.7-4.6,5-12.3
		H66.2z"/>
	<path id="Path_427" class="st0" d="M96.9,35.9C96.6,47.7,93.6,55.7,84,55.7c-11.2,0-13.6-10.2-13.6-28C70.4,12.7,72.2,0,83.8,0
		c9.8,0,12.5,7.6,12.8,18.4h-7.7c-0.3-6.8-1.7-10.6-4.7-10.6c-3.9,0-5.1,5.2-5.1,20c0,16.1,1.2,20.5,5.1,20.5c3.4,0,4.7-4.6,5-12.3
		H96.9z"/>
</g>
<g id="Group_139" transform="translate(0.243 62.599)">
	<path id="Path_428" class="st0" d="M4.6,9.5V2.8h0L3.4,9.5H2.5L1.3,2.8h0v6.7H0V0.1h1.9l1,5.8l0,0L4,0.1h1.8v9.4H4.6z"/>
	<path id="Path_429" class="st0" d="M10.3,9.5L9.9,7.2H8.4L8.1,9.5H6.6l1.6-9.4h1.9l1.6,9.4H10.3z M8.5,5.9h1.2L9.2,1.6H9.1L8.5,5.9
		z"/>
	<path id="Path_430" class="st0" d="M15.5,9.5l-1-4h-0.6v4h-1.4V0.1h1.9c1.7,0,2.5,0.7,2.5,2.5c0.1,0.9-0.3,1.8-1.1,2.2L17,9.5
		L15.5,9.5z M14.3,4.3c0.7,0,1-0.4,1-1.5c0-1.3-0.5-1.4-1.2-1.4h-0.3v3L14.3,4.3z"/>
	<path id="Path_431" class="st0" d="M21,9.5l-1.2-4.4l-0.6,1.4v3.1h-1.4V0.1h1.4v3.9l0,0l1.6-3.9h1.4l-1.5,3.4l1.7,6L21,9.5z"/>
	<path id="Path_432" class="st0" d="M29.3,6.2c-0.1,2-0.6,3.4-2.2,3.4c-1.9,0-2.3-1.8-2.3-4.8C24.7,2.2,25,0,27,0
		c1.7,0,2.1,1.3,2.2,3.2h-1.3c-0.1-1.2-0.3-1.8-0.8-1.8c-0.7,0-0.9,0.9-0.9,3.4c0,2.8,0.2,3.5,0.9,3.5c0.6,0,0.8-0.8,0.9-2.1
		L29.3,6.2z"/>
	<path id="Path_433" class="st0" d="M33.1,0.1h1.4v7.1c0,1.7-0.7,2.4-2.2,2.4s-2.2-0.7-2.2-2.4V0.1h1.4v7.2c0,0.8,0.3,1,0.8,1
		s0.8-0.3,0.8-1L33.1,0.1z"/>
	<path id="Path_434" class="st0" d="M35.7,9.5V0.1h1.8c1.7,0,2.6,0.6,2.6,2.5c0.1,0.8-0.4,1.6-1.1,2v0c0.9,0.4,1.4,1.3,1.2,2.2
		c0,2.1-1,2.7-2.7,2.7H35.7z M37.5,4c0.8,0,1.2-0.4,1.2-1.4s-0.4-1.2-1-1.2h-0.6v2.6L37.5,4z M37.7,8.2c0.8,0,1.1-0.4,1.1-1.5
		s-0.3-1.5-1.2-1.5h-0.5v3H37.7z"/>
	<path id="Path_435" class="st0" d="M44.3,9.5l-0.3-2.4h-1.6l-0.3,2.4h-1.5l1.6-9.4h1.9l1.6,9.4H44.3z M42.6,5.9h1.2l-0.6-4.3h-0.1
		L42.6,5.9z"/>
	<path id="Path_436" class="st0" d="M49.7,9.5l-2-6.3l0,0v6.3h-1.3V0.1H48l1.6,5.3l0,0V0.1h1.2v9.4H49.7z"/>
	<path id="Path_437" class="st0" d="M58.4,6.2c-0.1,2-0.6,3.4-2.2,3.4c-1.9,0-2.3-1.8-2.3-4.8c0-2.6,0.3-4.8,2.3-4.8
		c1.7,0,2.1,1.3,2.2,3.2H57C57,2,56.7,1.4,56.2,1.4c-0.7,0-0.9,0.9-0.9,3.4c0,2.8,0.2,3.5,0.9,3.5s0.8-0.8,0.9-2.1L58.4,6.2z"/>
	<path id="Path_438" class="st0" d="M59,4.8C59,1.4,59.6,0,61.4,0s2.4,1.3,2.4,4.8c0,3.2-0.6,4.8-2.4,4.8S59,8,59,4.8z M62.3,4.8
		c0-2.6-0.2-3.5-0.9-3.5s-0.9,0.9-0.9,3.5c0,2.7,0.3,3.6,0.9,3.6S62.3,7.6,62.3,4.8L62.3,4.8z"/>
	<path id="Path_439" class="st0" d="M69.3,9.5V2.8l0,0l-1.2,6.7h-0.9L66,2.8l0,0v6.7h-1.2V0.1h1.9l1,5.8h0l1.1-5.8h1.8v9.4H69.3z"/>
	<path id="Path_440" class="st0" d="M71.8,9.5V0.1h1.8c1.8,0,2.7,0.8,2.7,2.7c0,1.8-0.9,2.8-2.6,2.8h-0.4v3.8H71.8z M73.7,4.4
		c0.7,0,1.1-0.6,1.1-1.6c0-1.1-0.4-1.4-1.2-1.4h-0.4v3L73.7,4.4z"/>
	<path id="Path_441" class="st0" d="M79.6,9.5l-0.3-2.4h-1.6l-0.3,2.4H76l1.6-9.4h1.9l1.6,9.4H79.6z M77.9,5.9h1.2l-0.6-4.3h-0.1
		L77.9,5.9z"/>
	<path id="Path_442" class="st0" d="M85,9.5l-2-6.3h0v6.3h-1.2V0.1h1.6L85,5.4h0V0.1h1.2v9.4H85z"/>
	<path id="Path_443" class="st0" d="M87.5,9.5V0.1h1.4v9.4H87.5z"/>
	<path id="Path_444" class="st0" d="M90.1,9.5V0.1h3.8v1.3h-2.4v2.6h1.9v1.3h-1.9v2.9H94v1.3L90.1,9.5z"/>
	<path id="Path_445" class="st0" d="M97.5,2.7c0-0.8-0.3-1.4-0.8-1.4S96,1.6,96,2.1c0,2,2.9,2.4,2.9,5.2C99,8.4,98.2,9.5,97,9.6
		c-0.1,0-0.3,0-0.4,0c-1.5,0-2.1-0.9-2.1-2.5L95.8,7c0.1,1,0.3,1.4,0.8,1.4s0.8-0.4,0.8-1c0-2-2.9-2.5-2.9-5.2
		c-0.1-1.1,0.6-2,1.7-2.2c0.1,0,0.2,0,0.4,0c1.6,0,2,1,2.1,2.5L97.5,2.7z"/>
</g>
</svg>
