<?xml version="1.0" encoding="utf-8"?>
<!-- Generator: Adobe Illustrator 26.3.1, SVG Export Plug-In . SVG Version: 6.00 Build 0)  -->
<svg version="1.1" id="katman_1" xmlns="http://www.w3.org/2000/svg" xmlns:xlink="http://www.w3.org/1999/xlink" x="0px" y="0px"
	 viewBox="0 0 300 100" style="enable-background:new 0 0 300 100;" xml:space="preserve">
<style type="text/css">
	.st0{fill:#214197;}
</style>
<g id="Group_138">
	<path id="Path_425" class="st0" d="M127.7,69.2V29.9h-0.2l-7.1,39.3h-5.2l-7.2-39.3h-0.2v39.3h-7.1V14.7h10.9l6.1,33.9h0.1
		l6.4-33.9h10.5v54.5H127.7z"/>
	<path id="Path_426" class="st0" d="M167,50c-0.3,11.8-3.3,19.8-12.9,19.8c-11.2,0-13.6-10.2-13.6-28c0-14.9,1.7-27.7,13.4-27.7
		c9.8,0,12.5,7.6,12.7,18.4H159c-0.3-6.8-1.7-10.6-4.7-10.6c-3.9,0-5.1,5.2-5.1,20c0,16.1,1.2,20.5,5.1,20.5c3.4,0,4.7-4.6,5-12.3
		H167z"/>
	<path id="Path_427" class="st0" d="M197.7,50c-0.3,11.8-3.3,19.8-12.9,19.8c-11.2,0-13.6-10.2-13.6-28c0-14.9,1.8-27.7,13.4-27.7
		c9.8,0,12.5,7.6,12.8,18.4h-7.7c-0.3-6.8-1.7-10.6-4.7-10.6c-3.9,0-5.1,5.2-5.1,20c0,16.1,1.2,20.5,5.1,20.5c3.4,0,4.7-4.6,5-12.3
		H197.7z"/>
</g>
<g id="Group_139" transform="translate(0.243 62.599)">
	<path id="Path_428" class="st0" d="M105.4,23.6v-6.7h0l-1.2,6.7h-0.9l-1.2-6.7h0v6.7h-1.2v-9.4h1.9l1,5.8l0,0l1.1-5.8h1.8v9.4
		H105.4z"/>
	<path id="Path_429" class="st0" d="M111.1,23.6l-0.3-2.4h-1.6l-0.3,2.4h-1.5l1.6-9.4h1.9l1.6,9.4H111.1z M109.3,20h1.2l-0.6-4.3
		h-0.1L109.3,20z"/>
	<path id="Path_430" class="st0" d="M116.3,23.6l-1-4h-0.6v4h-1.4v-9.4h1.9c1.7,0,2.5,0.7,2.5,2.5c0.1,0.9-0.3,1.8-1.1,2.2l1.3,4.6
		L116.3,23.6z M115.1,18.4c0.7,0,1-0.4,1-1.5c0-1.3-0.5-1.4-1.2-1.4h-0.3v3L115.1,18.4z"/>
	<path id="Path_431" class="st0" d="M121.9,23.6l-1.2-4.4l-0.6,1.4v3.1h-1.4v-9.4h1.4v3.9l0,0l1.6-3.9h1.4l-1.5,3.4l1.7,6
		L121.9,23.6z"/>
	<path id="Path_432" class="st0" d="M130.1,20.3c-0.1,2-0.6,3.4-2.2,3.4c-1.9,0-2.3-1.8-2.3-4.8c0-2.6,0.3-4.8,2.3-4.8
		c1.7,0,2.1,1.3,2.2,3.2h-1.3c-0.1-1.2-0.3-1.8-0.8-1.8c-0.7,0-0.9,0.9-0.9,3.4c0,2.8,0.2,3.5,0.9,3.5c0.6,0,0.8-0.8,0.9-2.1
		L130.1,20.3z"/>
	<path id="Path_433" class="st0" d="M133.9,14.2h1.4v7.1c0,1.7-0.7,2.4-2.2,2.4s-2.2-0.7-2.2-2.4v-7.1h1.4v7.2c0,0.8,0.3,1,0.8,1
		s0.8-0.3,0.8-1L133.9,14.2z"/>
	<path id="Path_434" class="st0" d="M136.5,23.6v-9.4h1.8c1.7,0,2.6,0.6,2.6,2.5c0.1,0.8-0.4,1.6-1.1,2v0c0.9,0.4,1.4,1.3,1.2,2.2
		c0,2.1-1,2.7-2.7,2.7H136.5z M138.4,18.1c0.8,0,1.2-0.4,1.2-1.4c0-0.9-0.4-1.2-1-1.2h-0.6v2.6L138.4,18.1z M138.5,22.3
		c0.8,0,1.1-0.4,1.1-1.5s-0.3-1.5-1.2-1.5h-0.5v3H138.5z"/>
	<path id="Path_435" class="st0" d="M145.1,23.6l-0.3-2.4h-1.6l-0.3,2.4h-1.5l1.6-9.4h1.9l1.6,9.4H145.1z M143.4,20h1.2l-0.6-4.3
		h-0.1L143.4,20z"/>
	<path id="Path_436" class="st0" d="M150.5,23.6l-2-6.3l0,0v6.3h-1.3v-9.4h1.6l1.6,5.3l0,0v-5.3h1.2v9.4H150.5z"/>
	<path id="Path_437" class="st0" d="M159.2,20.3c-0.1,2-0.6,3.4-2.2,3.4c-1.9,0-2.3-1.8-2.3-4.8c0-2.6,0.3-4.8,2.3-4.8
		c1.7,0,2.1,1.3,2.2,3.2h-1.3c-0.1-1.2-0.3-1.8-0.8-1.8c-0.7,0-0.9,0.9-0.9,3.4c0,2.8,0.2,3.5,0.9,3.5s0.8-0.8,0.9-2.1L159.2,20.3z"
		/>
	<path id="Path_438" class="st0" d="M159.8,18.9c0-3.5,0.6-4.8,2.4-4.8s2.4,1.3,2.4,4.8c0,3.2-0.6,4.8-2.4,4.8
		S159.8,22.1,159.8,18.9z M163.1,18.9c0-2.6-0.2-3.5-0.9-3.5s-0.9,0.9-0.9,3.5c0,2.7,0.3,3.6,0.9,3.6S163.1,21.6,163.1,18.9
		L163.1,18.9z"/>
	<path id="Path_439" class="st0" d="M170.1,23.6v-6.7l0,0l-1.2,6.7H168l-1.2-6.7l0,0v6.7h-1.2v-9.4h1.9l1,5.8h0l1.1-5.8h1.8v9.4
		H170.1z"/>
	<path id="Path_440" class="st0" d="M172.6,23.6v-9.4h1.8c1.8,0,2.7,0.8,2.7,2.7c0,1.8-0.9,2.8-2.6,2.8H174v3.8H172.6z M174.5,18.5
		c0.7,0,1.1-0.6,1.1-1.6c0-1.1-0.4-1.4-1.2-1.4H174v3L174.5,18.5z"/>
	<path id="Path_441" class="st0" d="M180.4,23.6l-0.3-2.4h-1.6l-0.3,2.4h-1.4l1.6-9.4h1.9l1.6,9.4H180.4z M178.7,20h1.2l-0.6-4.3
		h-0.1L178.7,20z"/>
	<path id="Path_442" class="st0" d="M185.8,23.6l-2-6.3h0v6.3h-1.2v-9.4h1.6l1.6,5.3h0v-5.3h1.2v9.4H185.8z"/>
	<path id="Path_443" class="st0" d="M188.3,23.6v-9.4h1.4v9.4H188.3z"/>
	<path id="Path_444" class="st0" d="M190.9,23.6v-9.4h3.8v1.3h-2.4v2.6h1.9v1.3h-1.9v2.9h2.5v1.3L190.9,23.6z"/>
	<path id="Path_445" class="st0" d="M198.3,16.7c0-0.8-0.3-1.4-0.8-1.4s-0.7,0.3-0.7,0.8c0,2,2.9,2.4,2.9,5.2
		c0.1,1.2-0.7,2.2-1.8,2.3c-0.1,0-0.3,0-0.4,0c-1.5,0-2.1-0.9-2.1-2.5l1.3-0.1c0.1,1,0.3,1.4,0.8,1.4s0.8-0.4,0.8-1
		c0-2-2.9-2.5-2.9-5.2c-0.1-1.1,0.6-2,1.7-2.2c0.1,0,0.2,0,0.4,0c1.6,0,2,1,2.1,2.5L198.3,16.7z"/>
</g>
</svg>
