<?xml version="1.0" encoding="UTF-8"?>
<svg xmlns="http://www.w3.org/2000/svg" xmlns:xlink="http://www.w3.org/1999/xlink" width="300" height="100" viewBox="0 0 300 100" version="1.1">
<g id="surface1">
<path style=" stroke:none;fill-rule:nonzero;fill:rgb(14.901961%,40%,69.019608%);fill-opacity:1;" d="M 81.554688 76.316406 L 81.554688 21.882812 L 80.949219 21.882812 L 59.492188 76.316406 L 43.78125 76.316406 L 22.324219 21.882812 L 21.71875 21.882812 L 21.71875 76.316406 L 0.265625 76.316406 L 0.265625 0.832031 L 33.203125 0.832031 L 51.636719 47.785156 L 51.9375 47.785156 L 71.277344 0.832031 L 103.007812 0.832031 L 103.007812 76.316406 Z M 81.554688 76.316406 "/>
<path style=" stroke:none;fill-rule:nonzero;fill:rgb(14.901961%,40%,69.019608%);fill-opacity:1;" d="M 200.316406 49.722656 C 199.410156 66.066406 190.34375 77.148438 161.332031 77.148438 C 127.488281 77.148438 120.234375 63.019531 120.234375 38.367188 C 120.535156 17.589844 125.671875 0 161.03125 0 C 190.644531 0 198.5 10.527344 199.410156 25.484375 L 176.140625 25.484375 C 175.234375 16.066406 171.003906 10.804688 161.9375 10.804688 C 150.152344 10.804688 146.523438 18.003906 146.523438 38.503906 C 146.523438 60.804688 150.152344 66.898438 161.9375 66.898438 C 172.210938 66.898438 176.140625 60.527344 177.046875 49.863281 L 200.316406 49.863281 Z M 200.316406 49.722656 "/>
<path style=" stroke:none;fill-rule:nonzero;fill:rgb(14.901961%,40%,69.019608%);fill-opacity:1;" d="M 293.085938 49.722656 C 292.179688 66.066406 283.113281 77.148438 254.105469 77.148438 C 220.257812 77.148438 213.007812 63.019531 213.007812 38.367188 C 213.007812 17.589844 218.445312 0 253.5 0 C 283.113281 0 291.273438 10.527344 292.179688 25.484375 L 268.914062 25.484375 C 268.003906 16.066406 263.773438 10.804688 254.710938 10.804688 C 242.921875 10.804688 239.296875 18.003906 239.296875 38.503906 C 239.296875 60.804688 242.921875 66.898438 254.710938 66.898438 C 264.984375 66.898438 268.914062 60.527344 269.820312 49.863281 L 293.085938 49.863281 Z M 293.085938 49.722656 "/>
<path style=" stroke:none;fill-rule:nonzero;fill:rgb(14.901961%,40%,69.019608%);fill-opacity:1;" d="M 14.898438 99.859375 L 14.898438 90.582031 L 11.273438 99.859375 L 8.554688 99.859375 L 4.925781 90.582031 L 4.925781 99.859375 L 1 99.859375 L 1 86.839844 L 6.742188 86.839844 L 9.761719 94.875 L 13.085938 86.839844 L 18.527344 86.839844 L 18.527344 99.859375 Z M 14.898438 99.859375 "/>
<path style=" stroke:none;fill-rule:nonzero;fill:rgb(14.901961%,40%,69.019608%);fill-opacity:1;" d="M 32.125 99.859375 L 30.914062 96.675781 L 26.382812 96.675781 L 25.476562 99.859375 L 20.941406 99.859375 L 25.777344 86.839844 L 31.519531 86.839844 L 36.355469 99.859375 Z M 26.683594 94.875 L 30.3125 94.875 L 28.800781 88.917969 L 28.5 88.917969 Z M 26.683594 94.875 "/>
<path style=" stroke:none;fill-rule:nonzero;fill:rgb(14.901961%,40%,69.019608%);fill-opacity:1;" d="M 47.839844 99.859375 L 44.816406 94.320312 L 43.003906 94.320312 L 43.003906 99.859375 L 38.773438 99.859375 L 38.773438 86.839844 L 44.515625 86.839844 C 49.652344 86.839844 52.070312 87.808594 52.070312 90.304688 C 52.371094 91.550781 51.164062 92.796875 48.746094 93.351562 L 52.371094 99.859375 Z M 44.210938 92.65625 C 46.328125 92.65625 47.234375 92.105469 47.234375 90.582031 C 47.234375 88.78125 45.722656 88.640625 43.609375 88.640625 L 42.699219 88.640625 L 42.699219 92.796875 Z M 44.210938 92.65625 "/>
<path style=" stroke:none;fill-rule:nonzero;fill:rgb(14.901961%,40%,69.019608%);fill-opacity:1;" d="M 64.457031 99.859375 L 60.832031 93.765625 L 59.019531 95.703125 L 59.019531 100 L 54.789062 100 L 54.789062 86.839844 L 59.019531 86.839844 L 59.019531 92.242188 L 63.855469 86.839844 L 68.085938 86.839844 L 63.550781 91.550781 L 68.691406 99.859375 Z M 64.457031 99.859375 "/>
<path style=" stroke:none;fill-rule:nonzero;fill:rgb(14.901961%,40%,69.019608%);fill-opacity:1;" d="M 89.539062 95.289062 C 89.238281 98.058594 87.726562 100 82.890625 100 C 77.152344 100 75.941406 97.503906 75.941406 93.351562 C 75.640625 89.75 76.546875 86.703125 82.589844 86.703125 C 87.726562 86.703125 88.9375 88.503906 89.238281 91.132812 L 85.308594 91.132812 C 85.007812 89.472656 84.402344 88.640625 82.890625 88.640625 C 80.777344 88.640625 80.171875 89.886719 80.171875 93.351562 C 80.171875 97.230469 80.777344 98.199219 82.890625 98.199219 C 84.707031 98.199219 85.308594 97.089844 85.613281 95.289062 Z M 89.539062 95.289062 "/>
<path style=" stroke:none;fill-rule:nonzero;fill:rgb(14.901961%,40%,69.019608%);fill-opacity:1;" d="M 101.023438 86.839844 L 105.253906 86.839844 L 105.253906 96.675781 C 105.253906 99.027344 103.140625 100 98.605469 100 C 94.074219 100 91.957031 99.027344 91.957031 96.675781 L 91.957031 86.839844 L 96.1875 86.839844 L 96.1875 96.8125 C 96.1875 97.921875 97.09375 98.199219 98.605469 98.199219 C 100.117188 98.199219 101.023438 97.78125 101.023438 96.8125 Z M 101.023438 86.839844 "/>
<path style=" stroke:none;fill-rule:nonzero;fill:rgb(14.901961%,40%,69.019608%);fill-opacity:1;" d="M 108.882812 99.859375 L 108.882812 86.839844 L 114.320312 86.839844 C 119.457031 86.839844 122.175781 87.671875 122.175781 90.304688 C 122.480469 91.410156 120.96875 92.519531 118.851562 93.074219 C 121.574219 93.628906 123.082031 94.875 122.480469 96.121094 C 122.480469 99.027344 119.457031 99.859375 114.320312 99.859375 Z M 114.320312 92.242188 C 116.738281 92.242188 117.945312 91.6875 117.945312 90.304688 C 117.945312 88.917969 116.738281 88.640625 114.925781 88.640625 L 113.113281 88.640625 L 113.113281 92.242188 Z M 114.925781 98.058594 C 117.34375 98.058594 118.25 97.503906 118.25 95.980469 C 118.25 94.457031 117.34375 93.90625 114.621094 93.90625 L 113.113281 93.90625 L 113.113281 98.058594 Z M 114.925781 98.058594 "/>
<path style=" stroke:none;fill-rule:nonzero;fill:rgb(14.901961%,40%,69.019608%);fill-opacity:1;" d="M 134.871094 99.859375 L 133.960938 96.535156 L 129.128906 96.535156 L 128.222656 99.859375 L 123.6875 99.859375 L 128.523438 86.839844 L 134.265625 86.839844 L 139.101562 99.859375 Z M 129.730469 94.875 L 133.359375 94.875 L 131.546875 88.917969 L 131.242188 88.917969 Z M 129.730469 94.875 "/>
<path style=" stroke:none;fill-rule:nonzero;fill:rgb(14.901961%,40%,69.019608%);fill-opacity:1;" d="M 151.1875 99.859375 L 145.144531 91.132812 L 145.144531 99.859375 L 141.214844 99.859375 L 141.214844 86.839844 L 146.050781 86.839844 L 150.886719 94.179688 L 150.886719 86.839844 L 154.511719 86.839844 L 154.511719 99.859375 Z M 151.1875 99.859375 "/>
<path style=" stroke:none;fill-rule:nonzero;fill:rgb(14.901961%,40%,69.019608%);fill-opacity:1;" d="M 177.476562 95.289062 C 177.175781 98.058594 175.664062 100 170.828125 100 C 165.089844 100 163.878906 97.503906 163.878906 93.351562 C 163.878906 89.75 164.785156 86.703125 170.828125 86.703125 C 175.96875 86.703125 177.175781 88.503906 177.476562 91.132812 L 173.246094 91.132812 C 173.246094 89.472656 172.339844 88.640625 170.828125 88.640625 C 168.714844 88.640625 168.109375 89.886719 168.109375 93.351562 C 168.109375 97.230469 168.714844 98.199219 170.828125 98.199219 C 172.945312 98.199219 173.246094 97.089844 173.550781 95.289062 Z M 177.476562 95.289062 "/>
<path style=" stroke:none;fill-rule:nonzero;fill:rgb(14.901961%,40%,69.019608%);fill-opacity:1;" d="M 179.292969 93.351562 C 179.292969 88.640625 181.105469 86.703125 186.542969 86.703125 C 191.984375 86.703125 193.796875 88.503906 193.796875 93.351562 C 193.796875 97.78125 191.984375 100 186.542969 100 C 181.105469 100 179.292969 97.78125 179.292969 93.351562 Z M 189.261719 93.351562 C 189.261719 89.75 188.660156 88.503906 186.542969 88.503906 C 184.429688 88.503906 183.824219 89.75 183.824219 93.351562 C 183.824219 97.089844 184.730469 98.335938 186.542969 98.335938 C 188.355469 98.335938 189.261719 97.230469 189.261719 93.351562 Z M 189.261719 93.351562 "/>
<path style=" stroke:none;fill-rule:nonzero;fill:rgb(14.901961%,40%,69.019608%);fill-opacity:1;" d="M 210.417969 99.859375 L 210.417969 90.582031 L 206.789062 99.859375 L 204.070312 99.859375 L 200.445312 90.582031 L 200.445312 99.859375 L 196.820312 99.859375 L 196.820312 86.839844 L 202.558594 86.839844 L 205.582031 94.875 L 208.90625 86.839844 L 214.34375 86.839844 L 214.34375 99.859375 Z M 210.417969 99.859375 "/>
<path style=" stroke:none;fill-rule:nonzero;fill:rgb(14.901961%,40%,69.019608%);fill-opacity:1;" d="M 217.972656 99.859375 L 217.972656 86.839844 L 223.410156 86.839844 C 228.851562 86.839844 231.570312 87.949219 231.570312 90.582031 C 231.570312 93.074219 228.851562 94.457031 223.714844 94.457031 L 222.503906 94.457031 L 222.503906 99.722656 L 217.972656 99.722656 Z M 223.714844 92.796875 C 225.828125 92.796875 227.039062 91.964844 227.039062 90.582031 C 227.039062 89.058594 225.828125 88.640625 223.410156 88.640625 L 222.203125 88.640625 L 222.203125 92.796875 Z M 223.714844 92.796875 "/>
<path style=" stroke:none;fill-rule:nonzero;fill:rgb(14.901961%,40%,69.019608%);fill-opacity:1;" d="M 241.542969 99.859375 L 240.636719 96.535156 L 235.800781 96.535156 L 234.894531 99.859375 L 230.664062 99.859375 L 235.5 86.839844 L 241.242188 86.839844 L 246.074219 99.859375 Z M 236.40625 94.875 L 240.03125 94.875 L 238.21875 88.917969 L 237.917969 88.917969 Z M 236.40625 94.875 "/>
<path style=" stroke:none;fill-rule:nonzero;fill:rgb(14.901961%,40%,69.019608%);fill-opacity:1;" d="M 257.859375 99.859375 L 251.816406 91.132812 L 251.816406 99.859375 L 248.191406 99.859375 L 248.191406 86.839844 L 253.027344 86.839844 L 257.859375 94.179688 L 257.859375 86.839844 L 261.488281 86.839844 L 261.488281 99.859375 Z M 257.859375 99.859375 "/>
<path style=" stroke:none;fill-rule:nonzero;fill:rgb(14.901961%,40%,69.019608%);fill-opacity:1;" d="M 265.414062 99.859375 L 265.414062 86.839844 L 269.644531 86.839844 L 269.644531 99.859375 Z M 265.414062 99.859375 "/>
<path style=" stroke:none;fill-rule:nonzero;fill:rgb(14.901961%,40%,69.019608%);fill-opacity:1;" d="M 273.273438 99.859375 L 273.273438 86.839844 L 284.757812 86.839844 L 284.757812 88.640625 L 277.503906 88.640625 L 277.503906 92.242188 L 283.246094 92.242188 L 283.246094 94.042969 L 277.503906 94.042969 L 277.503906 98.058594 L 285.058594 98.058594 L 285.058594 99.859375 Z M 273.273438 99.859375 "/>
<path style=" stroke:none;fill-rule:nonzero;fill:rgb(14.901961%,40%,69.019608%);fill-opacity:1;" d="M 295.636719 90.441406 C 295.636719 89.332031 294.726562 88.503906 293.21875 88.503906 C 291.707031 88.503906 291.101562 88.917969 291.101562 89.609375 C 291.101562 92.382812 299.867188 92.933594 299.867188 96.8125 C 300.167969 98.335938 297.75 99.859375 294.125 100 C 293.820312 100 293.21875 100 292.914062 100 C 288.382812 100 286.570312 98.753906 286.570312 96.535156 L 290.496094 96.398438 C 290.800781 97.78125 291.402344 98.335938 292.914062 98.335938 C 294.425781 98.335938 295.332031 97.78125 295.332031 96.953125 C 295.332031 94.179688 286.570312 93.488281 286.570312 89.75 C 286.265625 88.226562 288.382812 86.980469 291.707031 86.703125 C 292.007812 86.703125 292.3125 86.703125 292.914062 86.703125 C 297.75 86.703125 298.957031 88.085938 299.261719 90.164062 Z M 295.636719 90.441406 "/>
</g>
</svg>
