<svg id="Layer_1-2" data-name="Layer 1-2" xmlns="http://www.w3.org/2000/svg" width="99.115" height="72.236" viewBox="0 0 99.115 72.236">
  <g id="Group_138" data-name="Group 138">
    <path id="Path_425" data-name="Path 425" d="M-325.745,455.228v-39.31h-.152l-7.053,39.31h-5.238l-7.223-39.31h-.152v39.31h-7.118V400.745h10.9l6.092,33.92h.14l6.388-33.92h10.546v54.483Z" transform="translate(352.68 -400.139)" fill="#214197"/>
    <path id="Path_426" data-name="Path 426" d="M-309.154,436.378c-.3,11.761-3.337,19.8-12.9,19.8-11.227,0-13.581-10.239-13.581-28,0-14.945,1.744-27.693,13.429-27.693,9.788,0,12.463,7.587,12.748,18.362H-317.2c-.3-6.829-1.667-10.626-4.706-10.626-3.869,0-5.084,5.161-5.084,19.957,0,16.1,1.215,20.491,5.084,20.491,3.417,0,4.706-4.555,5.012-12.291Z" transform="translate(375.392 -400.485)" fill="#214197"/>
    <path id="Path_427" data-name="Path 427" d="M-296.01,436.378c-.3,11.761-3.34,19.8-12.9,19.8-11.227,0-13.578-10.239-13.578-28,0-14.945,1.766-27.693,13.427-27.693,9.788,0,12.463,7.587,12.75,18.362h-7.743c-.3-6.829-1.667-10.626-4.7-10.626-3.869,0-5.084,5.161-5.084,19.957,0,16.1,1.215,20.491,5.084,20.491,3.417,0,4.7-4.555,5.01-12.291Z" transform="translate(392.902 -400.485)" fill="#214197"/>
  </g>
  <g id="Group_139" data-name="Group 139" transform="translate(0.243 62.599)">
    <path id="Path_428" data-name="Path 428" d="M-347.933,436.771v-6.749h-.033l-1.22,6.749h-.893l-1.241-6.749h-.026v6.749h-1.231v-9.382h1.887l1.038,5.842h0l1.1-5.842h1.817v9.382Z" transform="translate(352.576 -427.243)" fill="#214197"/>
    <path id="Path_429" data-name="Path 429" d="M-346.1,436.771l-.329-2.351h-1.558l-.306,2.351h-1.453l1.558-9.382h1.905l1.626,9.382Zm-1.709-3.634h1.215l-.592-4.3h-.068Z" transform="translate(356.353 -427.243)" fill="#214197"/>
    <path id="Path_430" data-name="Path 430" d="M-344.188,436.771l-1.008-3.988h-.63v3.988h-1.423v-9.382h1.87c1.661,0,2.523.665,2.523,2.5a2.314,2.314,0,0,1-1.084,2.243l1.276,4.641Zm-1.194-5.192c.707,0,1.038-.38,1.038-1.528,0-1.292-.52-1.427-1.178-1.427h-.313v2.955Z" transform="translate(359.674 -427.243)" fill="#214197"/>
    <path id="Path_431" data-name="Path 431" d="M-341.7,436.771l-1.215-4.445-.637,1.383v3.083h-1.388v-9.4h1.388v3.932h0l1.644-3.932h1.439l-1.516,3.37,1.689,6.012Z" transform="translate(362.747 -427.243)" fill="#214197"/>
    <path id="Path_432" data-name="Path 432" d="M-337.42,433.522c-.051,2.024-.576,3.412-2.223,3.412-1.931,0-2.342-1.766-2.342-4.825,0-2.6.3-4.765,2.316-4.765,1.681,0,2.146,1.3,2.2,3.16h-1.334c-.054-1.178-.287-1.833-.812-1.833-.665,0-.877.893-.877,3.438,0,2.773.212,3.533.877,3.533.588,0,.812-.786.863-2.12Z" transform="translate(366.687 -427.302)" fill="#214197"/>
    <path id="Path_433" data-name="Path 433" d="M-336.706,427.388h1.427v7.057c0,1.656-.7,2.4-2.185,2.4s-2.164-.749-2.164-2.4v-7.057h1.423v7.188c0,.784.275,1.038.758,1.038s.758-.275.758-1.038Z" transform="translate(369.826 -427.243)" fill="#214197"/>
    <path id="Path_434" data-name="Path 434" d="M-337.266,436.771v-9.382h1.842c1.735,0,2.6.639,2.6,2.456a2.044,2.044,0,0,1-1.1,1.989v.026a2.082,2.082,0,0,1,1.22,2.206c0,2.12-1.038,2.705-2.747,2.705Zm1.842-5.478c.821,0,1.164-.441,1.164-1.355s-.42-1.241-1.038-1.241h-.571v2.6Zm.142,4.156c.758,0,1.11-.354,1.11-1.465s-.327-1.49-1.2-1.49h-.52v2.955Z" transform="translate(372.972 -427.243)" fill="#214197"/>
    <path id="Path_435" data-name="Path 435" d="M-331.507,436.771l-.327-2.351h-1.558l-.313,2.351h-1.453l1.556-9.382h1.912l1.621,9.382Zm-1.71-3.634H-332l-.592-4.3h-.051Z" transform="translate(375.782 -427.243)" fill="#214197"/>
    <path id="Path_436" data-name="Path 436" d="M-329.436,436.771l-1.973-6.271h0v6.271h-1.252v-9.382h1.558l1.6,5.28h0v-5.28h1.243v9.382Z" transform="translate(379.106 -427.243)" fill="#214197"/>
    <path id="Path_437" data-name="Path 437" d="M-324.932,433.522c-.051,2.024-.576,3.412-2.223,3.412-1.931,0-2.337-1.766-2.337-4.825,0-2.6.3-4.765,2.311-4.765,1.689,0,2.143,1.3,2.2,3.16h-1.334c-.054-1.178-.287-1.833-.812-1.833-.665,0-.872.893-.872,3.438,0,2.773.207,3.533.872,3.533s.812-.786.863-2.12Z" transform="translate(383.33 -427.302)" fill="#214197"/>
    <path id="Path_438" data-name="Path 438" d="M-327.284,432.126c0-3.454.627-4.783,2.376-4.783s2.379,1.329,2.379,4.783c0,3.214-.585,4.809-2.379,4.809S-327.284,435.326-327.284,432.126Zm3.265,0c0-2.638-.233-3.489-.889-3.489s-.886.851-.886,3.489c0,2.743.285,3.552.886,3.552S-324.019,434.869-324.019,432.126Z" transform="translate(386.271 -427.303)" fill="#214197"/>
    <path id="Path_439" data-name="Path 439" d="M-320.226,436.771v-6.749h0l-1.215,6.749h-.9l-1.241-6.749h0v6.749h-1.231v-9.382h1.88l1.04,5.842h.026l1.1-5.842h1.817v9.382Z" transform="translate(389.565 -427.243)" fill="#214197"/>
    <path id="Path_440" data-name="Path 440" d="M-321.8,436.771v-9.382h1.8c1.777,0,2.7.821,2.7,2.731,0,1.817-.945,2.81-2.645,2.81h-.429v3.841Zm1.905-5.11c.746,0,1.1-.56,1.1-1.556,0-1.1-.406-1.425-1.155-1.425h-.429v2.955Z" transform="translate(393.576 -427.243)" fill="#214197"/>
    <path id="Path_441" data-name="Path 441" d="M-316.345,436.771l-.327-2.351h-1.558l-.312,2.351h-1.448l1.558-9.382h1.905l1.6,9.382Zm-1.714-3.634h1.215l-.588-4.3h-.051Z" transform="translate(395.988 -427.243)" fill="#214197"/>
    <path id="Path_442" data-name="Path 442" d="M-314.266,436.771l-1.973-6.271h-.026v6.271H-317.5v-9.382h1.558l1.626,5.28h.026v-5.28h1.241v9.382Z" transform="translate(399.304 -427.243)" fill="#214197"/>
    <path id="Path_443" data-name="Path 443" d="M-315.078,436.771v-9.382h1.437v9.382Z" transform="translate(402.532 -427.243)" fill="#214197"/>
    <path id="Path_444" data-name="Path 444" d="M-313.938,436.771v-9.382h3.816v1.32h-2.414v2.6h1.885v1.283h-1.885v2.887H-310v1.318Z" transform="translate(404.05 -427.243)" fill="#214197"/>
    <path id="Path_445" data-name="Path 445" d="M-309.086,429.994c-.042-.826-.266-1.385-.826-1.385s-.681.31-.681.819c0,2,2.9,2.4,2.9,5.194a2.1,2.1,0,0,1-2.223,2.342c-1.5,0-2.078-.877-2.141-2.549l1.315-.1c.077.982.275,1.413.847,1.413s.784-.38.784-1.008c0-2.05-2.862-2.468-2.862-5.192a1.938,1.938,0,0,1,2.024-2.2c1.558,0,2.041,1.038,2.129,2.549Z" transform="translate(406.562 -427.326)" fill="#214197"/>
  </g>
</svg>
