<?xml version="1.0" encoding="UTF-8"?>
<svg xmlns="http://www.w3.org/2000/svg" xmlns:xlink="http://www.w3.org/1999/xlink" width="300" height="50" viewBox="0 0 300 50" version="1.1">
<g id="surface1">
<path style=" stroke:none;fill-rule:nonzero;fill:rgb(14.901961%,40%,69.019608%);fill-opacity:1;" d="M 81.554688 38.15625 L 81.554688 10.941406 L 80.949219 10.941406 L 59.492188 38.15625 L 43.78125 38.15625 L 22.324219 10.941406 L 21.71875 10.941406 L 21.71875 38.15625 L 0.265625 38.15625 L 0.265625 0.414062 L 33.203125 0.414062 L 51.636719 23.890625 L 51.9375 23.890625 L 71.277344 0.414062 L 103.007812 0.414062 L 103.007812 38.15625 Z M 81.554688 38.15625 "/>
<path style=" stroke:none;fill-rule:nonzero;fill:rgb(14.901961%,40%,69.019608%);fill-opacity:1;" d="M 200.316406 24.863281 C 199.410156 33.035156 190.34375 38.574219 161.332031 38.574219 C 127.488281 38.574219 120.234375 31.507812 120.234375 19.183594 C 120.535156 8.796875 125.671875 0 161.03125 0 C 190.644531 0 198.5 5.261719 199.410156 12.742188 L 176.140625 12.742188 C 175.234375 8.035156 171.003906 5.402344 161.9375 5.402344 C 150.152344 5.402344 146.523438 9.003906 146.523438 19.253906 C 146.523438 30.402344 150.152344 33.449219 161.9375 33.449219 C 172.210938 33.449219 176.140625 30.261719 177.046875 24.929688 L 200.316406 24.929688 Z M 200.316406 24.863281 "/>
<path style=" stroke:none;fill-rule:nonzero;fill:rgb(14.901961%,40%,69.019608%);fill-opacity:1;" d="M 293.085938 24.863281 C 292.179688 33.035156 283.113281 38.574219 254.105469 38.574219 C 220.257812 38.574219 213.007812 31.507812 213.007812 19.183594 C 213.007812 8.796875 218.445312 0 253.5 0 C 283.113281 0 291.273438 5.261719 292.179688 12.742188 L 268.914062 12.742188 C 268.003906 8.035156 263.773438 5.402344 254.710938 5.402344 C 242.921875 5.402344 239.296875 9.003906 239.296875 19.253906 C 239.296875 30.402344 242.921875 33.449219 254.710938 33.449219 C 264.984375 33.449219 268.914062 30.261719 269.820312 24.929688 L 293.085938 24.929688 Z M 293.085938 24.863281 "/>
<path style=" stroke:none;fill-rule:nonzero;fill:rgb(14.901961%,40%,69.019608%);fill-opacity:1;" d="M 14.898438 49.929688 L 14.898438 45.289062 L 11.273438 49.929688 L 8.554688 49.929688 L 4.925781 45.289062 L 4.925781 49.929688 L 1 49.929688 L 1 43.421875 L 6.742188 43.421875 L 9.761719 47.4375 L 13.085938 43.421875 L 18.527344 43.421875 L 18.527344 49.929688 Z M 14.898438 49.929688 "/>
<path style=" stroke:none;fill-rule:nonzero;fill:rgb(14.901961%,40%,69.019608%);fill-opacity:1;" d="M 32.125 49.929688 L 30.914062 48.335938 L 26.382812 48.335938 L 25.476562 49.929688 L 20.941406 49.929688 L 25.777344 43.421875 L 31.519531 43.421875 L 36.355469 49.929688 Z M 26.683594 47.4375 L 30.3125 47.4375 L 28.800781 44.460938 L 28.5 44.460938 Z M 26.683594 47.4375 "/>
<path style=" stroke:none;fill-rule:nonzero;fill:rgb(14.901961%,40%,69.019608%);fill-opacity:1;" d="M 47.839844 49.929688 L 44.816406 47.160156 L 43.003906 47.160156 L 43.003906 49.929688 L 38.773438 49.929688 L 38.773438 43.421875 L 44.515625 43.421875 C 49.652344 43.421875 52.070312 43.90625 52.070312 45.152344 C 52.371094 45.773438 51.164062 46.398438 48.746094 46.675781 L 52.371094 49.929688 Z M 44.210938 46.328125 C 46.328125 46.328125 47.234375 46.050781 47.234375 45.289062 C 47.234375 44.390625 45.722656 44.320312 43.609375 44.320312 L 42.699219 44.320312 L 42.699219 46.398438 Z M 44.210938 46.328125 "/>
<path style=" stroke:none;fill-rule:nonzero;fill:rgb(14.901961%,40%,69.019608%);fill-opacity:1;" d="M 64.457031 49.929688 L 60.832031 46.882812 L 59.019531 47.851562 L 59.019531 50 L 54.789062 50 L 54.789062 43.421875 L 59.019531 43.421875 L 59.019531 46.121094 L 63.855469 43.421875 L 68.085938 43.421875 L 63.550781 45.773438 L 68.691406 49.929688 Z M 64.457031 49.929688 "/>
<path style=" stroke:none;fill-rule:nonzero;fill:rgb(14.901961%,40%,69.019608%);fill-opacity:1;" d="M 89.539062 47.644531 C 89.238281 49.03125 87.726562 50 82.890625 50 C 77.152344 50 75.941406 48.753906 75.941406 46.675781 C 75.640625 44.875 76.546875 43.351562 82.589844 43.351562 C 87.726562 43.351562 88.9375 44.25 89.238281 45.566406 L 85.308594 45.566406 C 85.007812 44.734375 84.402344 44.320312 82.890625 44.320312 C 80.777344 44.320312 80.171875 44.945312 80.171875 46.675781 C 80.171875 48.613281 80.777344 49.097656 82.890625 49.097656 C 84.707031 49.097656 85.308594 48.546875 85.613281 47.644531 Z M 89.539062 47.644531 "/>
<path style=" stroke:none;fill-rule:nonzero;fill:rgb(14.901961%,40%,69.019608%);fill-opacity:1;" d="M 101.023438 43.421875 L 105.253906 43.421875 L 105.253906 48.335938 C 105.253906 49.515625 103.140625 50 98.605469 50 C 94.074219 50 91.957031 49.515625 91.957031 48.335938 L 91.957031 43.421875 L 96.1875 43.421875 L 96.1875 48.40625 C 96.1875 48.960938 97.09375 49.097656 98.605469 49.097656 C 100.117188 49.097656 101.023438 48.890625 101.023438 48.40625 Z M 101.023438 43.421875 "/>
<path style=" stroke:none;fill-rule:nonzero;fill:rgb(14.901961%,40%,69.019608%);fill-opacity:1;" d="M 108.882812 49.929688 L 108.882812 43.421875 L 114.320312 43.421875 C 119.457031 43.421875 122.175781 43.835938 122.175781 45.152344 C 122.480469 45.707031 120.96875 46.257812 118.851562 46.535156 C 121.574219 46.8125 123.082031 47.4375 122.480469 48.058594 C 122.480469 49.515625 119.457031 49.929688 114.320312 49.929688 Z M 114.320312 46.121094 C 116.738281 46.121094 117.945312 45.84375 117.945312 45.152344 C 117.945312 44.460938 116.738281 44.320312 114.925781 44.320312 L 113.113281 44.320312 L 113.113281 46.121094 Z M 114.925781 49.03125 C 117.34375 49.03125 118.25 48.753906 118.25 47.992188 C 118.25 47.230469 117.34375 46.953125 114.621094 46.953125 L 113.113281 46.953125 L 113.113281 49.03125 Z M 114.925781 49.03125 "/>
<path style=" stroke:none;fill-rule:nonzero;fill:rgb(14.901961%,40%,69.019608%);fill-opacity:1;" d="M 134.871094 49.929688 L 133.960938 48.269531 L 129.128906 48.269531 L 128.222656 49.929688 L 123.6875 49.929688 L 128.523438 43.421875 L 134.265625 43.421875 L 139.101562 49.929688 Z M 129.730469 47.4375 L 133.359375 47.4375 L 131.546875 44.460938 L 131.242188 44.460938 Z M 129.730469 47.4375 "/>
<path style=" stroke:none;fill-rule:nonzero;fill:rgb(14.901961%,40%,69.019608%);fill-opacity:1;" d="M 151.1875 49.929688 L 145.144531 45.566406 L 145.144531 49.929688 L 141.214844 49.929688 L 141.214844 43.421875 L 146.050781 43.421875 L 150.886719 47.089844 L 150.886719 43.421875 L 154.511719 43.421875 L 154.511719 49.929688 Z M 151.1875 49.929688 "/>
<path style=" stroke:none;fill-rule:nonzero;fill:rgb(14.901961%,40%,69.019608%);fill-opacity:1;" d="M 177.476562 47.644531 C 177.175781 49.03125 175.664062 50 170.828125 50 C 165.089844 50 163.878906 48.753906 163.878906 46.675781 C 163.878906 44.875 164.785156 43.351562 170.828125 43.351562 C 175.96875 43.351562 177.175781 44.25 177.476562 45.566406 L 173.246094 45.566406 C 173.246094 44.734375 172.339844 44.320312 170.828125 44.320312 C 168.714844 44.320312 168.109375 44.945312 168.109375 46.675781 C 168.109375 48.613281 168.714844 49.097656 170.828125 49.097656 C 172.945312 49.097656 173.246094 48.546875 173.550781 47.644531 Z M 177.476562 47.644531 "/>
<path style=" stroke:none;fill-rule:nonzero;fill:rgb(14.901961%,40%,69.019608%);fill-opacity:1;" d="M 179.292969 46.675781 C 179.292969 44.320312 181.105469 43.351562 186.542969 43.351562 C 191.984375 43.351562 193.796875 44.25 193.796875 46.675781 C 193.796875 48.890625 191.984375 50 186.542969 50 C 181.105469 50 179.292969 48.890625 179.292969 46.675781 Z M 189.261719 46.675781 C 189.261719 44.875 188.660156 44.25 186.542969 44.25 C 184.429688 44.25 183.824219 44.875 183.824219 46.675781 C 183.824219 48.546875 184.730469 49.167969 186.542969 49.167969 C 188.355469 49.167969 189.261719 48.613281 189.261719 46.675781 Z M 189.261719 46.675781 "/>
<path style=" stroke:none;fill-rule:nonzero;fill:rgb(14.901961%,40%,69.019608%);fill-opacity:1;" d="M 210.417969 49.929688 L 210.417969 45.289062 L 206.789062 49.929688 L 204.070312 49.929688 L 200.445312 45.289062 L 200.445312 49.929688 L 196.820312 49.929688 L 196.820312 43.421875 L 202.558594 43.421875 L 205.582031 47.4375 L 208.90625 43.421875 L 214.34375 43.421875 L 214.34375 49.929688 Z M 210.417969 49.929688 "/>
<path style=" stroke:none;fill-rule:nonzero;fill:rgb(14.901961%,40%,69.019608%);fill-opacity:1;" d="M 217.972656 49.929688 L 217.972656 43.421875 L 223.410156 43.421875 C 228.851562 43.421875 231.570312 43.972656 231.570312 45.289062 C 231.570312 46.535156 228.851562 47.230469 223.714844 47.230469 L 222.503906 47.230469 L 222.503906 49.859375 L 217.972656 49.859375 Z M 223.714844 46.398438 C 225.828125 46.398438 227.039062 45.984375 227.039062 45.289062 C 227.039062 44.527344 225.828125 44.320312 223.410156 44.320312 L 222.203125 44.320312 L 222.203125 46.398438 Z M 223.714844 46.398438 "/>
<path style=" stroke:none;fill-rule:nonzero;fill:rgb(14.901961%,40%,69.019608%);fill-opacity:1;" d="M 241.542969 49.929688 L 240.636719 48.269531 L 235.800781 48.269531 L 234.894531 49.929688 L 230.664062 49.929688 L 235.5 43.421875 L 241.242188 43.421875 L 246.074219 49.929688 Z M 236.40625 47.4375 L 240.03125 47.4375 L 238.21875 44.460938 L 237.917969 44.460938 Z M 236.40625 47.4375 "/>
<path style=" stroke:none;fill-rule:nonzero;fill:rgb(14.901961%,40%,69.019608%);fill-opacity:1;" d="M 257.859375 49.929688 L 251.816406 45.566406 L 251.816406 49.929688 L 248.191406 49.929688 L 248.191406 43.421875 L 253.027344 43.421875 L 257.859375 47.089844 L 257.859375 43.421875 L 261.488281 43.421875 L 261.488281 49.929688 Z M 257.859375 49.929688 "/>
<path style=" stroke:none;fill-rule:nonzero;fill:rgb(14.901961%,40%,69.019608%);fill-opacity:1;" d="M 265.414062 49.929688 L 265.414062 43.421875 L 269.644531 43.421875 L 269.644531 49.929688 Z M 265.414062 49.929688 "/>
<path style=" stroke:none;fill-rule:nonzero;fill:rgb(14.901961%,40%,69.019608%);fill-opacity:1;" d="M 273.273438 49.929688 L 273.273438 43.421875 L 284.757812 43.421875 L 284.757812 44.320312 L 277.503906 44.320312 L 277.503906 46.121094 L 283.246094 46.121094 L 283.246094 47.019531 L 277.503906 47.019531 L 277.503906 49.03125 L 285.058594 49.03125 L 285.058594 49.929688 Z M 273.273438 49.929688 "/>
<path style=" stroke:none;fill-rule:nonzero;fill:rgb(14.901961%,40%,69.019608%);fill-opacity:1;" d="M 295.636719 45.222656 C 295.636719 44.667969 294.726562 44.25 293.21875 44.25 C 291.707031 44.25 291.101562 44.460938 291.101562 44.804688 C 291.101562 46.191406 299.867188 46.46875 299.867188 48.40625 C 300.167969 49.167969 297.75 49.929688 294.125 50 C 293.820312 50 293.21875 50 292.914062 50 C 288.382812 50 286.570312 49.375 286.570312 48.269531 L 290.496094 48.199219 C 290.800781 48.890625 291.402344 49.167969 292.914062 49.167969 C 294.425781 49.167969 295.332031 48.890625 295.332031 48.476562 C 295.332031 47.089844 286.570312 46.746094 286.570312 44.875 C 286.265625 44.113281 288.382812 43.488281 291.707031 43.351562 C 292.007812 43.351562 292.3125 43.351562 292.914062 43.351562 C 297.75 43.351562 298.957031 44.042969 299.261719 45.082031 Z M 295.636719 45.222656 "/>
</g>
</svg>
