<?xml version="1.0" encoding="UTF-8"?>
<svg id="katman_1" data-name="katman 1" xmlns="http://www.w3.org/2000/svg" viewBox="0 0 300 100">
  <path id="Path_446" data-name="Path 446" d="M154.66,30.07h-61.43c-1.25,0-1.9-.36-1.8-1.05,.16-1.05,1.01-.96,1.79-.96h122.86c1.25,0,1.9,.36,1.8,1.05-.16,1.05-1.01,.96-1.79,.96-20.48,0-40.95,0-61.43,0Z"/>
  <path id="Path_447" data-name="Path 447" d="M133.11,73.99h39.68c1.24,0,1.9,.36,1.79,1.05-.17,1.05-1.02,.96-1.8,.96-26.52,0-53.04,0-79.56,0-1.24,0-1.9-.36-1.79-1.05,.17-1.05,1.02-.96,1.79-.96,13.3,0,26.59,0,39.88,0Z"/>
  <path id="Path_448" data-name="Path 448" d="M108.85,46.15c.49,.31,1.42-.17,1.13,.92h-5.6c-.28-.65,.02-.8,.57-.76,.45,.02,.89,.04,.89-.63,0-3.06,0-6.12-.19-9.23-.53,1.16-1.06,2.31-1.58,3.47-1.01,2.24-2.01,4.49-3.04,6.72-.16,.25-.36,.48-.58,.68-.25-.23-.59-.4-.73-.68-1.72-3.56-3.42-7.13-5.24-10.95v10.45c.38,.47,1.49-.37,1.32,.92h-3.47q-.08-.7,1.02-.82v-11.49l-.93-.12-.13-.28c.23-.13,.46-.37,.7-.38,1.1-.07,2.2-.06,3.3,.02,.41,.12,.75,.4,.94,.79,1.35,2.71,2.65,5.44,3.97,8.17,.07,.14,.15,.28,.3,.56,1.14-2.23,2.16-4.52,3.05-6.85,.74-2.26,1.98-3.17,4.27-2.7,.19,.04,.42-.04,.59,.02,.18,.1,.33,.23,.47,.38-.17,.11-.32,.22-.47,.35-.2,.2-.54,.43-.55,.65-.04,3.6-.03,7.2-.03,10.8Z"/>
  <path id="Path_449" data-name="Path 449" d="M217.19,34.74c-1.15-.25-1.25,.33-1.25,1.12,.02,3.11,.01,6.22,0,9.33,0,.63-.05,1.24,.9,1.16,.14-.01,.32,.35,.63,.72h-5.91c-.23-.58-.05-.83,.55-.76,.65,.08,.9-.19,.9-.84-.01-2.97,0-5.94-.19-9-.3,.62-.62,1.23-.9,1.85-1.25,2.79-2.49,5.59-3.76,8.37-.13,.28-.38,.48-.67,.57-.15,.03-.45-.31-.57-.55-1.5-3.08-2.97-6.18-4.45-9.27-.24-.56-.57-1.08-.99-1.53v3.34c0,1.97,.02,3.94,0,5.91-.01,.74,.08,1.25,1.02,1.16,.2-.02,.43,.33,.65,.51l-.19,.27c-1.03,0-2.06,.02-3.09-.02-.18,0-.35-.26-.52-.4,.18-.13,.37-.36,.55-.37,.47-.02,.76-.12,.76-.68-.01-3.6,0-7.21,0-10.88l-1.1-.13-.16-.24c.21-.15,.42-.42,.64-.43,1.17-.06,2.34-.05,3.5,0,.35,.1,.64,.35,.8,.68,1.44,2.89,2.83,5.8,4.32,8.88,.84-1.84,1.63-3.54,2.4-5.25,.55-1.21,1.09-2.42,1.62-3.65,.11-.46,.56-.77,1.03-.71,.9,.05,1.8,0,2.71,.03,.27,.06,.53,.16,.77,.3l.02,.47Z"/>
  <path id="Path_450" data-name="Path 450" d="M141.81,46.25l1.33,.11,.17,.25c-.22,.17-.44,.48-.66,.48-1.74,.06-3.48,0-5.21-.2,.2-.19,.39-.54,.59-.55,.64-.01,.68-.37,.68-.85,0-3.31-.03-6.62,.02-9.93,.01-.93-.57-.88-1.16-.9-.19-.91,.44-.69,.84-.7q4.66-.08,4.76,.69c-.26-.03-.52,0-.77,.06-.26,.14-.63,.41-.64,.64-.06,1.53-.03,3.06-.03,4.65h5.18c0-1.61,.02-3.2-.03-4.79,0-.18-.35-.41-.59-.49-.29-.06-.59-.08-.89-.06-.08-.95,.6-.7,1-.68,1.58,.05,3.21-.21,4.76,.14l.04,.54c-1.15-.14-1.29,.44-1.28,1.35,.05,3.04,.02,6.08,.02,9.12v.94c.44,.44,1.47-.14,1.12,1h-5.57c-.08-.71-.08-.77,.53-.74,.73,.04,.92-.27,.9-.94-.04-1.5-.01-3-.01-4.58h-5.11v5.44Z"/>
  <path id="Path_451" data-name="Path 451" d="M118.84,56.37c.25-.12,.51-.33,.76-.33,2.2,0,4.41-.02,6.6,.11,1.79-.07,3.29,1.32,3.36,3.11,0,.11,0,.23,0,.34,.05,2.19-1.13,3.69-3.23,3.98-1.02,.14-2.05,.16-3.21,.24,0,1.32-.04,2.65,.04,3.97,.01,.21,.51,.52,.81,.56,.5,.06,.88,.07,.65,.78h-5.55q-.13-.7,.99-.81c.02-.34,.05-.69,.05-1.05,0-3.11-.02-6.21,.02-9.32,0-.82-.08-1.42-1.21-1.18l-.08-.39Zm4.29,6.78c.91-.27,1.77-.3,2.33-.73,1.23-.95,1.33-3.67,.34-4.88-.47-.63-1.27-.93-2.04-.76-.24,.04-.6,.37-.6,.58-.05,1.83-.03,3.66-.03,5.8h0Z"/>
  <path id="Path_452" data-name="Path 452" d="M115.99,39.8c2.21,.33,2.97,.1,3.29-1.75,.02-.13,.23-.24,.34-.36,.12,.12,.34,.25,.35,.37,.02,1.5,.02,3,0,4.51,0,.11-.21,.31-.29,.29-.17-.03-.31-.13-.4-.28-.84-1.94-1.01-2.05-3.21-1.81v5.51c1.15,0,2.25,.08,3.33-.02,1.21-.12,2.17-1.08,2.29-2.29,.1-.32,.24-.63,.42-.92l.32,.12v3.89h-10.88c.35-.38,.54-.73,.71-.73,.71,.01,.73-.44,.73-.93,0-3.24-.02-6.48,.02-9.72,.01-.86-.42-1.1-1.22-1.04l-.06-.3c.23-.13,.47-.38,.7-.38,3.1-.03,6.2-.02,9.38-.02v3.51c-.32-.26-.68-.4-.71-.59-.17-1.42-1.09-1.96-2.37-2.16-2.59-.4-2.75-.28-2.75,2.32v2.75Z"/>
  <path id="Path_453" data-name="Path 453" d="M169.95,47.05h-3.63l-.1-.22c.17-.11,.35-.32,.51-.3,.79,.07,.85-.38,.85-1-.02-3.18-.04-6.35,.01-9.53,.01-.95-.03-1.69-1.38-1.47l.03-.26c.2-.1,.4-.29,.6-.3,1.17-.03,2.34-.05,3.5,.01,.34,.07,.64,.27,.84,.55,2.05,2.75,4.08,5.51,6.24,8.45,.05-.42,.1-.66,.1-.89,0-2.04,0-4.08,0-6.12q0-1.45-1.63-1.44c.19-.26,.27-.52,.41-.56,.95-.27,3.03,.02,3.35,.53-1.49-.28-1.27,.7-1.27,1.56,0,3.67,0,7.35,0,11.03-.7,.35-1.55,.07-1.91-.62-2.4-3.32-4.85-6.61-7.28-9.91-.19-.26-.39-.51-.73-.94-.04,.46-.08,.71-.08,.95,0,2.94,.01,5.88-.01,8.82,0,.77,.13,1.24,1.04,1.12,.18-.02,.39,.19,.59,.3l-.08,.22Z"/>
  <path id="Path_454" data-name="Path 454" d="M197.36,34.64v3.12c-.34-.39-.62-.56-.68-.79-.36-1.72-2.04-2.82-3.76-2.46h0c-.9,.09-1.63,.75-1.82,1.63-.17,.82,.29,1.65,1.08,1.94,1.07,.53,2.19,.95,3.27,1.48,2.1,1.03,2.94,2.5,2.54,4.34-.4,2.09-2.29,3.54-4.41,3.4-.83-.03-1.65-.13-2.47-.28-.78-.11-1.56-.28-2.42-.43v-3.78l.22-.15c.15,.2,.28,.42,.38,.65,.31,1.12,.71,2.25,1.84,2.71,.85,.34,1.77,.48,2.69,.4,.86-.13,1.53-.84,1.6-1.71,.2-.85-.18-1.73-.94-2.16-1.03-.54-2.08-1.03-3.16-1.46-1.13-.36-2.03-1.21-2.47-2.32-.66-1.94,.38-4.05,2.32-4.71l.06-.02c1.37-.45,2.86-.42,4.21,.07,.6,.18,1.21,.33,1.92,.52Z"/>
  <path id="Path_455" data-name="Path 455" d="M150.01,68.19c.57,.53,1.71-.39,1.52,.98-1.16,0-2.32,.01-3.48-.02-.14,0-.33-.24-.39-.41-.03-.07,.23-.36,.33-.35,1.04,.13,1.29-.66,1.59-1.36,1.46-3.45,2.9-6.92,4.38-10.37,.15-.36,.56-.83,.86-.84s.73,.45,.88,.81c1.47,3.42,2.88,6.86,4.32,10.29,.34,.81,.67,1.67,1.87,1.43l.17,.23c-.19,.2-.38,.56-.58,.56-2,.04-3.99,.03-5.96,.03-.29-.74,.07-.8,.58-.81,1.08-.03,1.2-.23,.82-1.26q-.75-2.08-2.91-2.08c-.37-.02-.74-.02-1.1,0-.6,.07-1.5-.02-1.73,.32-.49,.9-.88,1.85-1.17,2.84Zm5.73-3.89l-2.13-5.09-2.1,5.09h4.23Z"/>
  <path id="Path_456" data-name="Path 456" d="M159.37,47.06c-.07-1.33,1.1-.39,1.58-1.04,.18-1.01-.6-1.92-1-2.93l-4.83,.03c-.36,.92-.73,1.84-1.03,2.78,.22,.21,.51,.34,.81,.39,.58,.01,.81,.17,.55,.82-1.11,0-2.25,.02-3.37-.02-.21,0-.41-.3-.57-.62,1.29,.08,1.7-.72,2.07-1.63,1.4-3.4,2.81-6.81,4.27-10.18,.16-.38,.62-.64,.94-.95,.29,.3,.7,.55,.85,.9,1.47,3.42,2.9,6.85,4.33,10.28,.32,.76,.6,1.5,1.65,1.45,.13,0,.28,.37,.52,.71h-6.75Zm-1.85-9.91l-2.09,5.09h4.22l-2.13-5.09Z"/>
  <path id="Path_457" data-name="Path 457" d="M118.58,68.7c-.21,.16-.42,.45-.63,.45-2,.04-3.99,.02-5.97,.02-.33-.81,.13-.8,.65-.81,.95-.01,1.1-.24,.82-1.13l-.03-.1q-.74-2.11-2.98-2.11c-.27,0-.54-.02-.8,0-.67,.06-1.67-.1-1.94,.27-.53,.91-.94,1.88-1.22,2.89q1.51,.37,1.52,.98c-1.13,0-2.26,.02-3.38-.02-.2,0-.38-.34-.5-.64,1.43,.11,1.74-.9,2.11-1.78,1.42-3.36,2.8-6.74,4.23-10.1,.17-.38,.5-.67,.89-.8,.22-.04,.66,.43,.8,.76,1.47,3.42,2.88,6.86,4.33,10.28,.35,.82,.6,1.81,1.95,1.45l.14,.38Zm-8.5-9.5l-2.09,5.09h4.22l-2.13-5.09Z"/>
  <path id="Path_458" data-name="Path 458" d="M148.91,56.01v3.26l-.24,.15c-.16-.22-.44-.43-.46-.67-.12-1.5-1.39-2.06-2.72-2.02-.52,.02-.72,.2-.72,.71,0,3.38,0,6.75,0,10.13,0,.68,.34,.87,.95,.8,.55-.06,.86,.1,.57,.76h-5.98l-.21-.21c.2-.19,.43-.55,.6-.53,.97,.11,1.08-.39,1.07-1.18-.03-3.44-.01-6.88-.01-10.3-1.83-.48-2.91,.14-3.38,1.83-.09,.21-.21,.41-.36,.59-.11-.23-.31-.45-.32-.69-.04-.86-.01-1.72-.01-2.65h11.22Z"/>
  <path id="Path_459" data-name="Path 459" d="M103.61,56.86v2.62l-.24,.17c-.22-.23-.41-.48-.58-.74-.53-1.21-1.61-2.09-2.91-2.35-1.61-.38-3.24,.52-3.77,2.09-.97,2.37-1.02,5.01-.16,7.42,.37,1.48,1.7,2.53,3.22,2.53,1.65,.1,3.17-.91,3.73-2.47,.18-.27,.39-.51,.64-.71l.24,.17v2.69c-1.25,.32-2.48,.66-3.73,.95-3.43,.89-6.93-1.17-7.82-4.6-.2-.79-.26-1.6-.15-2.41,.33-3.58,1.76-5.46,4.76-6.2,1.56-.39,3.2-.31,4.72,.23,.65,.23,1.32,.4,2.05,.61Z"/>
  <path id="Path_460" data-name="Path 460" d="M135.67,34.8v2.65l-.25,.16c-.21-.25-.4-.51-.57-.78-.54-1.25-1.69-2.13-3.03-2.33-1.86-.23-3.16,.61-3.8,2.51-.74,2.16-.78,4.5-.11,6.69,.51,1.73,1.67,2.74,3.11,2.84,1.72,.2,3.36-.79,3.98-2.4,.19-.27,.41-.51,.67-.72l.21,.19v2.73c-1.67,.46-3.38,.78-5.1,.96-4.15,.13-6.78-2.84-6.62-7.02,.22-5.84,5.15-7.23,8.83-6.24,.89,.24,1.77,.51,2.69,.78Z"/>
  <path id="Path_461" data-name="Path 461" d="M166.71,68.35c.98,0,1.88,.06,2.76-.02,1.11-.09,2-.94,2.14-2.05,.11-.33,.25-.65,.41-.96l.32,.12v3.73c-3.16,0-6.29,0-9.41-.02-.19,0-.38-.31-.77-.65l1.4-.19c.03-.37,.09-.76,.09-1.14,0-3.04,0-6.07,0-9.11,0-.78,.1-1.6-1.13-1.3,.1-.75,.1-.75,1.05-.75,5.39,.02,4.51-.17,4.55,.63q-1.49,.26-1.49,1.85c0,2.9,0,5.81,0,8.71,0,.36,.05,.72,.07,1.14Z"/>
  <path id="Path_462" data-name="Path 462" d="M136.51,68.72c-.21,.15-.42,.43-.64,.44-1.44,.04-2.87,.04-4.31,0-.23,0-.45-.27-.67-.42l.14-.29,1.06-.14c.03-.37,.08-.76,.08-1.14,0-3.04,0-6.08,0-9.12,0-.79,.09-1.59-1.32-1.23l.06-.39c.23-.14,.44-.37,.68-.39,2.76-.27,4.57-.05,4.83,.67-1.45-.23-1.27,.76-1.27,1.64,0,2.94,.02,5.88,0,8.82,0,.82,.1,1.42,1.19,1.21l.17,.34Z"/>
  <path id="Path_463" data-name="Path 463" d="M186.81,47.01c-3.3,.4-5.37,.17-5.46-.61l1.03-.14v-11.49l-1.02-.14c-.14-.87,.48-.66,.88-.67q4.26-.07,4.4,.69c-1.17-.16-1.17,.59-1.16,1.44,.03,3.07,.01,6.14,0,9.22,0,.57,0,1.08,.82,1.04,.14,0,.29,.38,.5,.67Z"/>
</svg>