<?xml version="1.0" encoding="utf-8"?>
<!-- Generator: Adobe Illustrator 26.3.1, SVG Export Plug-In . SVG Version: 6.00 Build 0)  -->
<svg version="1.1" id="Group_140" xmlns="http://www.w3.org/2000/svg" xmlns:xlink="http://www.w3.org/1999/xlink" x="0px" y="0px"
	 viewBox="0 0 167.3 63.4" style="enable-background:new 0 0 167.3 63.4;" xml:space="preserve">
<style type="text/css">
	.st0{fill:#2666B0;}
</style>
<path id="Path_446" class="st0" d="M83.6,2.7H2.4C0.7,2.7-0.1,2.2,0,1.3C0.2-0.1,1.4,0,2.4,0c54.2,0,108.3,0,162.5,0
	c1.6,0,2.5,0.5,2.4,1.4c-0.2,1.4-1.3,1.3-2.4,1.3C137.8,2.7,110.7,2.7,83.6,2.7z"/>
<path id="Path_447" class="st0" d="M55.1,60.7h52.5c1.6,0,2.5,0.5,2.4,1.4c-0.2,1.4-1.3,1.3-2.4,1.3c-35.1,0-70.1,0-105.2,0
	c-1.6,0-2.5-0.5-2.4-1.4c0.2-1.4,1.3-1.3,2.4-1.3C20,60.7,37.6,60.7,55.1,60.7z"/>
<path id="Path_448" class="st0" d="M23.1,23.9c0.7,0.4,1.9-0.2,1.5,1.2h-7.4c-0.4-0.9,0-1.1,0.8-1c0.6,0,1.2,0.1,1.2-0.8
	c0-4,0-8.1-0.3-12.2c-0.7,1.5-1.4,3.1-2.1,4.6c-1.3,3-2.7,5.9-4,8.9c-0.2,0.3-0.5,0.6-0.8,0.9c-0.3-0.3-0.8-0.5-1-0.9
	c-2.3-4.7-4.5-9.4-6.9-14.5v13.8c0.5,0.6,2-0.5,1.7,1.2H1.2c-0.1-0.9-0.1-0.9,1.3-1.1V8.9L1.3,8.7L1.2,8.3c0.3-0.2,0.6-0.5,0.9-0.5
	c1.5-0.1,2.9-0.1,4.4,0c0.5,0.2,1,0.5,1.2,1c1.8,3.6,3.5,7.2,5.3,10.8c0.1,0.2,0.2,0.4,0.4,0.7c1.5-2.9,2.9-6,4-9.1
	c1-3,2.6-4.2,5.6-3.6c0.3,0.1,0.6-0.1,0.8,0c0.2,0.1,0.4,0.3,0.6,0.5c-0.2,0.1-0.4,0.3-0.6,0.5c-0.3,0.3-0.7,0.6-0.7,0.9
	C23,14.4,23.1,19.2,23.1,23.9z"/>
<path id="Path_449" class="st0" d="M166.3,8.8c-1.5-0.3-1.7,0.4-1.6,1.5c0,4.1,0,8.2,0,12.3c0,0.8-0.1,1.6,1.2,1.5
	c0.2,0,0.4,0.5,0.8,1h-7.8c-0.3-0.8-0.1-1.1,0.7-1c0.9,0.1,1.2-0.2,1.2-1.1c0-3.9,0-7.9-0.3-11.9c-0.4,0.8-0.8,1.6-1.2,2.4
	c-1.7,3.7-3.3,7.4-5,11.1c-0.2,0.4-0.5,0.6-0.9,0.8c-0.2,0-0.6-0.4-0.8-0.7c-2-4.1-3.9-8.2-5.9-12.3c-0.3-0.7-0.8-1.4-1.3-2v4.4
	c0,2.6,0,5.2,0,7.8c0,1,0.1,1.7,1.3,1.5c0.3,0,0.6,0.4,0.9,0.7l-0.2,0.4c-1.4,0-2.7,0-4.1,0c-0.2,0-0.5-0.3-0.7-0.5
	c0.2-0.2,0.5-0.5,0.7-0.5c0.6,0,1-0.2,1-0.9c0-4.8,0-9.5,0-14.4L143,8.7l-0.2-0.3c0.3-0.2,0.6-0.6,0.8-0.6c1.5-0.1,3.1-0.1,4.6,0
	c0.5,0.1,0.8,0.5,1.1,0.9c1.9,3.8,3.7,7.7,5.7,11.8c1.1-2.4,2.2-4.7,3.2-6.9c0.7-1.6,1.4-3.2,2.1-4.8c0.1-0.6,0.7-1,1.4-0.9
	c1.2,0.1,2.4,0,3.6,0c0.4,0.1,0.7,0.2,1,0.4L166.3,8.8z"/>
<path id="Path_450" class="st0" d="M66.6,24.1l1.8,0.1l0.2,0.3c-0.3,0.2-0.6,0.6-0.9,0.6c-2.3,0.1-4.6,0-6.9-0.3
	c0.3-0.3,0.5-0.7,0.8-0.7c0.8,0,0.9-0.5,0.9-1.1c0-4.4,0-8.8,0-13.1c0-1.2-0.8-1.2-1.5-1.2c-0.3-1.2,0.6-0.9,1.1-0.9
	c6.2-0.1,6.2-0.1,6.3,0.9c-0.3,0-0.7,0-1,0.1c-0.3,0.2-0.8,0.5-0.8,0.8c-0.1,2,0,4,0,6.1h6.9c0-2.1,0-4.2,0-6.3
	c0-0.2-0.5-0.5-0.8-0.7c-0.4-0.1-0.8-0.1-1.2-0.1c-0.1-1.3,0.8-0.9,1.3-0.9C74.8,7.9,77,7.6,79,8l0.1,0.7c-1.5-0.2-1.7,0.6-1.7,1.8
	c0.1,4,0,8,0,12.1v1.2c0.6,0.6,1.9-0.2,1.5,1.3h-7.4c-0.1-0.9-0.1-1,0.7-1c1,0,1.2-0.4,1.2-1.2c0-2,0-4,0-6.1h-6.8L66.6,24.1z"/>
<path id="Path_451" class="st0" d="M36.3,37.4c0.3-0.2,0.7-0.4,1-0.4c2.9,0,5.8,0,8.7,0.1c2.4-0.1,4.4,1.7,4.4,4.1
	c0,0.1,0,0.3,0,0.4c0.1,2.9-1.5,4.9-4.3,5.3c-1.3,0.2-2.7,0.2-4.2,0.3c0,1.7,0,3.5,0,5.2c0,0.3,0.7,0.7,1.1,0.7
	c0.7,0.1,1.2,0.1,0.9,1c-2.4,0-4.9,0-7.3,0c-0.2-0.9-0.2-0.9,1.3-1.1c0-0.4,0.1-0.9,0.1-1.4c0-4.1,0-8.2,0-12.3
	c0-1.1-0.1-1.9-1.6-1.6L36.3,37.4z M41.9,46.4c1.2-0.4,2.3-0.4,3.1-1c1.6-1.3,1.8-4.8,0.5-6.5c-0.6-0.8-1.7-1.2-2.7-1
	C42.4,38,42,38.5,42,38.7C41.9,41.2,41.9,43.6,41.9,46.4L41.9,46.4z"/>
<path id="Path_452" class="st0" d="M32.5,15.5c2.9,0.4,3.9,0.1,4.4-2.3c0-0.2,0.3-0.3,0.5-0.5c0.2,0.2,0.5,0.3,0.5,0.5c0,2,0,4,0,6
	c0,0.1-0.3,0.4-0.4,0.4c-0.2,0-0.4-0.2-0.5-0.4c-1.1-2.6-1.3-2.7-4.2-2.4v7.3c1.5,0,3,0.1,4.4,0c1.6-0.2,2.9-1.4,3-3
	c0.1-0.4,0.3-0.8,0.6-1.2L41,20v5.1H26.6c0.5-0.5,0.7-1,0.9-1c0.9,0,1-0.6,1-1.2c0-4.3,0-8.6,0-12.8c0-1.1-0.6-1.5-1.6-1.4l-0.1-0.4
	c0.3-0.2,0.6-0.5,0.9-0.5c4.1,0,8.2,0,12.4,0v4.6c-0.4-0.3-0.9-0.5-0.9-0.8c-0.2-1.9-1.4-2.6-3.1-2.9c-3.4-0.5-3.6-0.4-3.6,3.1
	L32.5,15.5z"/>
<path id="Path_453" class="st0" d="M103.9,25.1h-4.8l-0.1-0.3c0.2-0.1,0.5-0.4,0.7-0.4c1,0.1,1.1-0.5,1.1-1.3c0-4.2,0-8.4,0-12.6
	c0-1.3,0-2.2-1.8-1.9l0-0.3c0.3-0.1,0.5-0.4,0.8-0.4c1.5,0,3.1-0.1,4.6,0c0.4,0.1,0.8,0.4,1.1,0.7c2.7,3.6,5.4,7.3,8.3,11.2
	c0.1-0.6,0.1-0.9,0.1-1.2c0-2.7,0-5.4,0-8.1c0-1.9,0-1.9-2.2-1.9c0.2-0.3,0.4-0.7,0.5-0.7c1.3-0.4,4,0,4.4,0.7
	c-2-0.4-1.7,0.9-1.7,2.1c0,4.9,0,9.7,0,14.6c-0.9,0.5-2,0.1-2.5-0.8c-3.2-4.4-6.4-8.7-9.6-13.1c-0.3-0.3-0.5-0.7-1-1.2
	c0,0.6-0.1,0.9-0.1,1.3c0,3.9,0,7.8,0,11.7c0,1,0.2,1.6,1.4,1.5c0.2,0,0.5,0.3,0.8,0.4L103.9,25.1z"/>
<path id="Path_454" class="st0" d="M140.1,8.7v4.1c-0.5-0.5-0.8-0.7-0.9-1c-0.5-2.3-2.7-3.7-5-3.3c0,0,0,0,0,0
	c-1.2,0.1-2.2,1-2.4,2.2c-0.2,1.1,0.4,2.2,1.4,2.6c1.4,0.7,2.9,1.3,4.3,2c2.8,1.4,3.9,3.3,3.4,5.7c-0.5,2.8-3,4.7-5.8,4.5
	c-1.1,0-2.2-0.2-3.3-0.4c-1-0.2-2.1-0.4-3.2-0.6v-5l0.3-0.2c0.2,0.3,0.4,0.6,0.5,0.9c0.4,1.5,0.9,3,2.4,3.6c1.1,0.4,2.3,0.6,3.6,0.5
	c1.1-0.2,2-1.1,2.1-2.3c0.3-1.1-0.2-2.3-1.2-2.9c-1.4-0.7-2.8-1.4-4.2-1.9c-1.5-0.5-2.7-1.6-3.3-3.1c-0.9-2.6,0.5-5.4,3.1-6.2
	c0,0,0.1,0,0.1,0c1.8-0.6,3.8-0.6,5.6,0.1C138.4,8.3,139.2,8.4,140.1,8.7z"/>
<path id="Path_455" class="st0" d="M77.5,53.1c0.8,0.7,2.3-0.5,2,1.3c-1.5,0-3.1,0-4.6,0c-0.2,0-0.4-0.3-0.5-0.5
	c0-0.1,0.3-0.5,0.4-0.5c1.4,0.2,1.7-0.9,2.1-1.8c1.9-4.6,3.8-9.2,5.8-13.7c0.2-0.5,0.7-1.1,1.1-1.1s1,0.6,1.2,1.1
	c1.9,4.5,3.8,9.1,5.7,13.6c0.4,1.1,0.9,2.2,2.5,1.9l0.2,0.3c-0.3,0.3-0.5,0.7-0.8,0.7c-2.6,0.1-5.3,0-7.9,0c-0.4-1,0.1-1.1,0.8-1.1
	c1.4,0,1.6-0.3,1.1-1.7c-1-2.7-1-2.7-3.9-2.7c-0.5,0-1,0-1.5,0c-0.8,0.1-2,0-2.3,0.4C78.4,50.5,77.9,51.8,77.5,53.1z M85.1,47.9
	l-2.8-6.7l-2.8,6.7H85.1z"/>
<path id="Path_456" class="st0" d="M89.9,25.1c-0.1-1.8,1.5-0.5,2.1-1.4c0.2-1.3-0.8-2.5-1.3-3.9l-6.4,0c-0.5,1.2-1,2.4-1.4,3.7
	c0.3,0.3,0.7,0.5,1.1,0.5c0.8,0,1.1,0.2,0.7,1.1c-1.5,0-3,0-4.5,0c-0.3,0-0.5-0.4-0.8-0.8c1.7,0.1,2.2-1,2.7-2.2
	c1.9-4.5,3.7-9,5.6-13.5c0.2-0.5,0.8-0.8,1.2-1.3c0.4,0.4,0.9,0.7,1.1,1.2c1.9,4.5,3.8,9.1,5.7,13.6c0.4,1,0.8,2,2.2,1.9
	c0.2,0,0.4,0.5,0.7,0.9L89.9,25.1z M87.4,12l-2.8,6.7h5.6L87.4,12z"/>
<path id="Path_457" class="st0" d="M35.9,53.8c-0.3,0.2-0.6,0.6-0.8,0.6c-2.6,0-5.3,0-7.9,0c-0.4-1.1,0.2-1.1,0.9-1.1
	c1.3,0,1.5-0.3,1.1-1.5l0-0.1c-1-2.8-1-2.8-3.9-2.8c-0.4,0-0.7,0-1.1,0c-0.9,0.1-2.2-0.1-2.6,0.4c-0.7,1.2-1.2,2.5-1.6,3.8
	c2,0.5,2,0.5,2,1.3c-1.5,0-3,0-4.5,0c-0.3,0-0.5-0.4-0.7-0.8c1.9,0.1,2.3-1.2,2.8-2.4c1.9-4.4,3.7-8.9,5.6-13.4
	c0.2-0.5,0.7-0.9,1.2-1.1c0.3-0.1,0.9,0.6,1.1,1c1.9,4.5,3.8,9.1,5.7,13.6c0.5,1.1,0.8,2.4,2.6,1.9L35.9,53.8z M24.7,41.2l-2.8,6.7
	h5.6L24.7,41.2z"/>
<path id="Path_458" class="st0" d="M76,37v4.3l-0.3,0.2c-0.2-0.3-0.6-0.6-0.6-0.9c-0.2-2-1.8-2.7-3.6-2.7c-0.7,0-1,0.3-1,0.9
	c0,4.5,0,8.9,0,13.4c0,0.9,0.4,1.1,1.2,1.1c0.7-0.1,1.1,0.1,0.8,1h-7.9L64.4,54c0.3-0.2,0.6-0.7,0.8-0.7c1.3,0.1,1.4-0.5,1.4-1.6
	c0-4.5,0-9.1,0-13.6c-2.4-0.6-3.9,0.2-4.5,2.4c-0.1,0.3-0.3,0.5-0.5,0.8c-0.1-0.3-0.4-0.6-0.4-0.9c-0.1-1.1,0-2.3,0-3.5L76,37z"/>
<path id="Path_459" class="st0" d="M16.1,38.1v3.5l-0.3,0.2c-0.3-0.3-0.5-0.6-0.8-1c-0.7-1.6-2.1-2.8-3.9-3.1
	c-2.1-0.5-4.3,0.7-5,2.8c-1.3,3.1-1.4,6.6-0.2,9.8c0.5,2,2.2,3.3,4.3,3.4c2.2,0.1,4.2-1.2,4.9-3.3c0.2-0.4,0.5-0.7,0.8-0.9l0.3,0.2
	v3.6c-1.6,0.4-3.3,0.9-4.9,1.2c-4.5,1.2-9.2-1.6-10.3-6.1c-0.3-1-0.3-2.1-0.2-3.2C1.3,40.4,3.2,38,7.2,37c2.1-0.5,4.2-0.4,6.2,0.3
	C14.3,37.6,15.2,37.8,16.1,38.1z"/>
<path id="Path_460" class="st0" d="M58.5,8.9v3.5l-0.3,0.2c-0.3-0.3-0.5-0.7-0.7-1c-0.7-1.7-2.2-2.8-4-3.1c-2.5-0.3-4.2,0.8-5,3.3
	c-1,2.9-1,6-0.1,8.8c0.7,2.3,2.2,3.6,4.1,3.8c2.3,0.3,4.4-1,5.3-3.2c0.2-0.4,0.5-0.7,0.9-1l0.3,0.2v3.6c-2.2,0.6-4.5,1-6.7,1.3
	c-5.5,0.2-9-3.8-8.8-9.3c0.3-7.7,6.8-9.6,11.7-8.2C56.1,8.2,57.3,8.6,58.5,8.9z"/>
<path id="Path_461" class="st0" d="M99.6,53.3c1.3,0,2.5,0.1,3.7,0c1.5-0.1,2.6-1.2,2.8-2.7c0.1-0.4,0.3-0.9,0.5-1.3l0.4,0.2v4.9
	c-4.2,0-8.3,0-12.4,0c-0.3,0-0.5-0.4-1-0.9l1.8-0.2c0-0.5,0.1-1,0.1-1.5c0-4,0-8,0-12c0-1,0.1-2.1-1.5-1.7c0.1-1,0.1-1,1.4-1
	c7.1,0,6-0.2,6,0.8c-2,0.3-2,0.3-2,2.4c0,3.8,0,7.7,0,11.5C99.5,52.2,99.5,52.7,99.6,53.3z"/>
<path id="Path_462" class="st0" d="M59.6,53.8c-0.3,0.2-0.6,0.6-0.8,0.6c-1.9,0.1-3.8,0.1-5.7,0c-0.3,0-0.6-0.4-0.9-0.5l0.2-0.4
	l1.4-0.2c0-0.5,0.1-1,0.1-1.5c0-4,0-8,0-12.1c0-1,0.1-2.1-1.7-1.6l0.1-0.5c0.3-0.2,0.6-0.5,0.9-0.5c3.7-0.4,6-0.1,6.4,0.9
	c-1.9-0.3-1.7,1-1.7,2.2c0,3.9,0,7.8,0,11.7c0,1.1,0.1,1.9,1.6,1.6L59.6,53.8z"/>
<path id="Path_463" class="st0" d="M126.1,25.1c-4.4,0.5-7.1,0.2-7.2-0.8l1.4-0.2V8.9l-1.4-0.2c-0.2-1.2,0.6-0.9,1.2-0.9
	c5.6-0.1,5.6-0.1,5.8,0.9c-1.5-0.2-1.5,0.8-1.5,1.9c0,4.1,0,8.1,0,12.2c0,0.8,0,1.4,1.1,1.4C125.7,24.2,125.9,24.7,126.1,25.1z"/>
</svg>
