<svg id="Group_140" data-name="Group 140" xmlns="http://www.w3.org/2000/svg" width="167.254" height="63.402" viewBox="0 0 167.254 63.402">
  <path id="Path_446" data-name="Path 446" d="M-176.219,405.935h-81.241c-1.647,0-2.517-.473-2.374-1.388.217-1.392,1.334-1.271,2.365-1.271q81.242,0,162.481,0c1.647,0,2.519.473,2.376,1.388-.217,1.395-1.336,1.271-2.367,1.271Q-135.6,405.931-176.219,405.935Z" transform="translate(259.85 -403.274)"/>
  <path id="Path_447" data-name="Path 447" d="M-204.718,429.321h52.48c1.644,0,2.514.478,2.367,1.395-.224,1.388-1.343,1.264-2.374,1.264q-52.608-.007-105.221,0c-1.642,0-2.517-.48-2.367-1.395.224-1.39,1.343-1.264,2.372-1.264Q-231.087,429.326-204.718,429.321Z" transform="translate(259.849 -368.58)"/>
  <path id="Path_448" data-name="Path 448" d="M-237.449,422.84c.653.408,1.882-.222,1.5,1.217h-7.4c-.366-.856.026-1.052.751-1.01.6.033,1.173.051,1.171-.828-.012-4.044,0-8.091-.257-12.207-.7,1.528-1.4,3.053-2.094,4.585-1.339,2.962-2.663,5.933-4.021,8.886a4.42,4.42,0,0,1-.763.9c-.327-.3-.784-.532-.963-.9-2.281-4.706-4.522-9.431-6.927-14.476v13.818c.506.623,1.971-.49,1.747,1.213h-4.594c-.1-.928-.1-.928,1.346-1.078V407.767l-1.224-.154-.17-.369c.31-.177.613-.494.928-.506a33.651,33.651,0,0,1,4.366.023,1.98,1.98,0,0,1,1.245,1.043c1.789,3.58,3.51,7.195,5.252,10.8.091.191.2.375.4.746a90.883,90.883,0,0,0,4.035-9.065c.977-2.992,2.617-4.186,5.649-3.575.254.051.553-.056.786.03a2.572,2.572,0,0,1,.623.5,5.694,5.694,0,0,0-.627.464c-.268.268-.718.569-.721.858C-237.461,413.32-237.449,418.084-237.449,422.84Z" transform="translate(260.506 -398.909)"/>
  <path id="Path_449" data-name="Path 449" d="M-175.049,407.664c-1.516-.336-1.658.436-1.649,1.479.033,4.112.016,8.221.009,12.333,0,.833-.061,1.642,1.194,1.539.191-.016.422.469.83.956h-7.815q-.458-1.147.732-1c.854.107,1.194-.247,1.189-1.105-.019-3.932-.009-7.862-.254-11.9-.4.814-.816,1.621-1.189,2.446-1.656,3.69-3.288,7.389-4.97,11.067a1.467,1.467,0,0,1-.886.76c-.2.042-.6-.415-.753-.725-1.98-4.079-3.927-8.17-5.887-12.258a6.632,6.632,0,0,0-1.315-2.017v4.415c0,2.607.026,5.215-.012,7.822-.016.98.1,1.656,1.348,1.53.259-.028.567.434.854.669l-.247.352c-1.362,0-2.726.026-4.088-.023-.236-.009-.459-.343-.69-.527.243-.17.483-.474.732-.483.627-.026,1-.165,1-.9-.014-4.767-.007-9.534-.007-14.387l-1.46-.168-.212-.317c.282-.2.555-.557.844-.567a45.18,45.18,0,0,1,4.634.012,1.682,1.682,0,0,1,1.056.9c1.9,3.82,3.741,7.668,5.719,11.75,1.115-2.437,2.153-4.688,3.176-6.945.725-1.6,1.448-3.2,2.136-4.821a1.244,1.244,0,0,1,1.364-.94c1.189.07,2.386-.012,3.578.037a3.4,3.4,0,0,1,1.017.392Z" transform="translate(341.381 -398.829)"/>
  <path id="Path_450" data-name="Path 450" d="M-227.978,422.9l1.754.145.229.334c-.289.222-.576.63-.87.637a46.424,46.424,0,0,1-6.887-.27c.261-.254.52-.718.786-.723.849-.014.9-.49.9-1.129-.009-4.375-.044-8.75.021-13.126.019-1.229-.756-1.169-1.532-1.187-.257-1.2.583-.919,1.108-.928,6.157-.1,6.157-.1,6.292.917a2.659,2.659,0,0,0-1.017.082c-.348.184-.837.543-.849.844-.075,2.02-.04,4.044-.04,6.146h6.854c0-2.134.023-4.238-.035-6.339-.007-.233-.469-.543-.779-.653a4.352,4.352,0,0,0-1.178-.082c-.11-1.262.788-.921,1.322-.9,2.092.07,4.245-.273,6.29.191l.054.716c-1.525-.187-1.712.585-1.689,1.791.072,4.021.026,8.044.026,12.065l0,1.239c.576.581,1.938-.184,1.486,1.32H-223.1c-.1-.938-.1-1.022.7-.982.966.049,1.215-.352,1.194-1.245-.047-1.98-.014-3.965-.014-6.052h-6.763Z" transform="translate(294.615 -398.838)"/>
  <path id="Path_451" data-name="Path 451" d="M-244.3,419.581c.336-.154.674-.443,1.008-.443,2.913.012,5.831-.021,8.734.147a4.282,4.282,0,0,1,4.443,4.557c.07,2.9-1.493,4.877-4.27,5.268-1.346.189-2.712.21-4.242.32,0,1.749-.049,3.5.049,5.25.016.278.672.688,1.068.737.658.079,1.168.091.856,1.028-2.43,0-4.886,0-7.346,0-.166-.928-.166-.928,1.311-1.068.023-.445.072-.914.072-1.383.007-4.109-.021-8.216.021-12.326.009-1.082-.11-1.875-1.6-1.567Zm5.67,8.965c1.2-.352,2.344-.394,3.081-.963,1.63-1.252,1.763-4.849.452-6.456a2.676,2.676,0,0,0-2.7-1.01c-.315.058-.791.492-.8.765C-238.66,423.3-238.634,425.717-238.634,428.546Z" transform="translate(280.559 -382.139)"/>
  <path id="Path_452" data-name="Path 452" d="M-242.561,414.35c2.92.434,3.93.128,4.352-2.309.03-.177.3-.317.455-.473.159.163.455.327.457.495.033,1.985.028,3.972,0,5.959,0,.14-.273.406-.382.387a.788.788,0,0,1-.532-.371c-1.11-2.568-1.334-2.705-4.245-2.388v7.284c1.521,0,2.974.1,4.406-.023a3.4,3.4,0,0,0,3.032-3.027,5.652,5.652,0,0,1,.553-1.222l.417.161v5.143h-14.39c.469-.5.711-.968.945-.966.938.014.97-.578.97-1.224,0-4.282-.023-8.566.021-12.848.014-1.133-.55-1.451-1.607-1.376l-.079-.4c.308-.175.616-.5.924-.5,4.1-.035,8.2-.023,12.4-.023v4.641c-.422-.338-.9-.529-.933-.777-.229-1.882-1.448-2.591-3.13-2.85-3.431-.527-3.631-.364-3.631,3.074Z" transform="translate(275.054 -398.817)"/>
  <path id="Path_453" data-name="Path 453" d="M-212.495,423.993h-4.8l-.128-.292c.226-.14.462-.42.674-.4,1.045.093,1.129-.509,1.126-1.318-.021-4.2-.047-8.4.014-12.6.016-1.255-.04-2.232-1.826-1.945l.044-.347c.268-.138.529-.389.8-.4,1.544-.037,3.095-.068,4.634.016a1.792,1.792,0,0,1,1.11.73c2.715,3.634,5.392,7.293,8.251,11.174.068-.56.135-.87.138-1.18q.011-4.044,0-8.088c0-1.912,0-1.912-2.16-1.9.245-.343.357-.683.548-.737,1.262-.352,4.007.023,4.434.7-1.966-.369-1.684.931-1.682,2.064q.014,7.284,0,14.581a1.9,1.9,0,0,1-2.523-.819c-3.179-4.392-6.414-8.741-9.63-13.1-.252-.343-.522-.674-.959-1.238-.049.606-.1.933-.1,1.257,0,3.89.019,7.778-.019,11.668-.009,1.012.17,1.64,1.378,1.481.238-.03.518.256.781.4Z" transform="translate(316.351 -398.874)"/>
  <path id="Path_454" data-name="Path 454" d="M-193.2,407.691v4.126c-.455-.515-.814-.742-.9-1.045a4.2,4.2,0,0,0-4.972-3.254,2.734,2.734,0,0,0-2.407,2.157,2.258,2.258,0,0,0,1.43,2.565c1.413.7,2.9,1.262,4.322,1.957,2.782,1.362,3.892,3.31,3.354,5.742a5.563,5.563,0,0,1-5.835,4.5,23.432,23.432,0,0,1-3.265-.366c-1.035-.152-2.064-.364-3.2-.567v-5l.287-.2a3.956,3.956,0,0,1,.5.863c.408,1.481.945,2.976,2.435,3.582a7.848,7.848,0,0,0,3.557.527,2.5,2.5,0,0,0,2.115-2.26,2.6,2.6,0,0,0-1.245-2.852,44.916,44.916,0,0,0-4.175-1.936,5.223,5.223,0,0,1-3.26-3.064,4.906,4.906,0,0,1,3.146-6.253,8.6,8.6,0,0,1,5.574.093C-194.948,407.25-194.145,407.436-193.2,407.691Z" transform="translate(333.302 -398.991)"/>
  <path id="Path_455" data-name="Path 455" d="M-224.848,435.369c.751.7,2.262-.518,2.01,1.294-1.53,0-3.067.019-4.6-.026-.191,0-.436-.317-.522-.539-.035-.091.3-.478.431-.462,1.376.168,1.707-.872,2.1-1.793,1.936-4.569,3.832-9.156,5.793-13.714.2-.473.742-1.094,1.14-1.105s.966.6,1.166,1.068c1.938,4.525,3.806,9.077,5.714,13.613.448,1.066.882,2.213,2.467,1.889l.229.3c-.257.259-.506.735-.765.739-2.64.056-5.282.035-7.883.035-.39-.975.086-1.054.772-1.073,1.434-.035,1.586-.3,1.089-1.668-.991-2.745-.991-2.745-3.851-2.745a12.653,12.653,0,0,0-1.458.012c-.793.089-1.987-.028-2.288.424A18.734,18.734,0,0,0-224.848,435.369Zm7.573-5.145-2.817-6.735-2.78,6.735Z" transform="translate(302.33 -382.29)"/>
  <path id="Path_456" data-name="Path 456" d="M-215.369,424.13c-.089-1.758,1.455-.515,2.083-1.374.238-1.339-.788-2.54-1.318-3.879l-6.388.037c-.471,1.22-.959,2.437-1.36,3.68a2.056,2.056,0,0,0,1.068.52c.77.019,1.066.229.721,1.089-1.474,0-2.969.033-4.462-.028-.28-.012-.546-.4-.76-.819,1.712.1,2.248-.954,2.74-2.155,1.852-4.5,3.722-9,5.644-13.469.217-.5.816-.842,1.238-1.255.385.394.926.721,1.129,1.194,1.943,4.52,3.832,9.063,5.728,13.6.418,1,.791,1.987,2.181,1.915.173-.009.371.494.683.94Zm-2.446-13.107-2.764,6.733h5.586Z" transform="translate(305.23 -399.002)"/>
  <path id="Path_457" data-name="Path 457" d="M-233.523,436.048c-.277.207-.55.592-.833.6-2.64.047-5.28.028-7.892.028-.443-1.075.175-1.059.854-1.068,1.262-.019,1.46-.317,1.082-1.5l-.042-.126c-.98-2.792-.98-2.792-3.939-2.792-.352,0-.709-.026-1.059.007-.886.082-2.209-.131-2.568.357a16.4,16.4,0,0,0-1.612,3.82c2,.487,2,.487,2.013,1.3-1.49,0-2.983.033-4.471-.033-.259-.012-.5-.445-.66-.849,1.889.147,2.3-1.194,2.787-2.356,1.875-4.447,3.7-8.918,5.6-13.359a1.946,1.946,0,0,1,1.18-1.054c.294-.051.877.564,1.063,1,1.938,4.522,3.809,9.072,5.728,13.6.459,1.08.8,2.4,2.582,1.919Zm-11.237-12.561-2.764,6.735h5.586Z" transform="translate(269.44 -382.297)"/>
  <path id="Path_458" data-name="Path 458" d="M-218.764,419.123v4.317l-.324.2c-.21-.294-.583-.574-.609-.882-.154-1.982-1.833-2.729-3.6-2.675-.686.021-.952.268-.952.935q.014,6.7,0,13.394c0,.9.45,1.147,1.25,1.063.725-.077,1.131.135.756,1.005h-7.906l-.273-.273c.268-.245.564-.723.8-.7,1.283.149,1.425-.518,1.416-1.567-.04-4.548-.019-9.093-.019-13.616-2.423-.632-3.855.182-4.464,2.423a3.283,3.283,0,0,1-.476.777c-.147-.3-.411-.6-.424-.91-.051-1.138-.019-2.281-.019-3.5Z" transform="translate(294.794 -382.159)"/>
  <path id="Path_459" data-name="Path 459" d="M-244.207,420.432V423.9l-.315.222a6.6,6.6,0,0,1-.763-.98,5.35,5.35,0,0,0-3.85-3.114,4.245,4.245,0,0,0-4.991,2.761,13.707,13.707,0,0,0-.205,9.814,4.419,4.419,0,0,0,4.263,3.351,4.935,4.935,0,0,0,4.933-3.263,4.328,4.328,0,0,1,.847-.942l.315.224v3.559c-1.647.42-3.279.879-4.93,1.25a8.484,8.484,0,0,1-10.544-9.273c.436-4.732,2.323-7.22,6.29-8.193a10.735,10.735,0,0,1,6.241.306C-246.056,419.924-245.168,420.148-244.207,420.432Z" transform="translate(260.327 -382.335)"/>
  <path id="Path_460" data-name="Path 460" d="M-226.043,407.907v3.5l-.336.208a8.916,8.916,0,0,1-.749-1.038,5.18,5.18,0,0,0-4.011-3.081c-2.461-.3-4.177.812-5.024,3.319a14.368,14.368,0,0,0-.149,8.841c.676,2.29,2.211,3.627,4.109,3.753a5.006,5.006,0,0,0,5.259-3.179,4.509,4.509,0,0,1,.884-.952l.282.247v3.61a42.549,42.549,0,0,1-6.749,1.271c-5.492.177-8.963-3.762-8.757-9.278.289-7.724,6.817-9.567,11.68-8.249C-228.429,407.2-227.263,407.553-226.043,407.907Z" transform="translate(284.57 -398.991)"/>
  <path id="Path_461" data-name="Path 461" d="M-213.716,435.444c1.294,0,2.484.084,3.655-.021a3.1,3.1,0,0,0,2.829-2.708,8.171,8.171,0,0,1,.543-1.271l.424.156v4.93c-4.182,0-8.314.009-12.447-.03-.254,0-.5-.408-1.024-.863l1.847-.247c.04-.483.119-1,.119-1.509.012-4.016,0-8.03.009-12.046,0-1.026.128-2.118-1.493-1.714.131-.987.131-.994,1.395-.989,7.13.03,5.968-.219,6.019.837-1.968.34-1.968.34-1.968,2.444q0,5.758,0,11.517C-213.8,434.4-213.748,434.877-213.716,435.444Z" transform="translate(313.29 -382.154)"/>
  <path id="Path_462" data-name="Path 462" d="M-230.014,435.992c-.282.2-.562.571-.849.581q-2.848.077-5.7,0c-.3-.007-.59-.357-.884-.55l.187-.378,1.4-.189c.037-.483.11-1,.11-1.511.009-4.023,0-8.044.012-12.067,0-1.04.117-2.1-1.742-1.621l.077-.513c.3-.182.588-.492.9-.522,3.655-.355,6.04-.063,6.383.886-1.922-.3-1.677,1-1.675,2.167.012,3.89.028,7.78-.009,11.668-.012,1.091.128,1.884,1.57,1.6Z" transform="translate(289.651 -382.223)"/>
  <path id="Path_463" data-name="Path 463" d="M-201.625,423.9c-4.359.525-7.1.224-7.225-.812l1.362-.189V407.709l-1.35-.18c-.182-1.152.639-.877,1.166-.886,5.632-.089,5.632-.084,5.824.912-1.544-.205-1.544.779-1.535,1.9.035,4.063.019,8.126.009,12.191,0,.758,0,1.432,1.084,1.374C-202.107,423.008-201.9,423.522-201.625,423.9Z" transform="translate(327.772 -398.832)"/>
</svg>
