<?xml version="1.0" encoding="UTF-8"?>
<svg xmlns="http://www.w3.org/2000/svg" xmlns:xlink="http://www.w3.org/1999/xlink" width="300" height="60" viewBox="0 0 300 60" version="1.1">
<g id="surface1">
<path style=" stroke:none;fill-rule:nonzero;fill:rgb(14.901961%,40%,69.019608%);fill-opacity:1;" d="M 149.910156 2.554688 L 4.960938 2.554688 C 1.929688 2.554688 0.5 2.082031 0.679688 1.230469 C 1.035156 -0.09375 3.175781 0 4.960938 0 C 101.714844 0 198.285156 0 295.039062 0 C 297.894531 0 299.5 0.472656 299.320312 1.324219 C 298.964844 2.648438 297 2.554688 295.039062 2.554688 C 246.660156 2.554688 198.285156 2.554688 149.910156 2.554688 Z M 149.910156 2.554688 "/>
<path style=" stroke:none;fill-rule:nonzero;fill:rgb(14.901961%,40%,69.019608%);fill-opacity:1;" d="M 99.035156 57.445312 L 192.753906 57.445312 C 195.609375 57.445312 197.214844 57.917969 197.035156 58.769531 C 196.679688 60.09375 194.714844 60 192.753906 60 C 130.097656 60 67.617188 60 4.960938 60 C 2.105469 60 0.5 59.527344 0.679688 58.675781 C 1.035156 57.351562 3 57.445312 4.960938 57.445312 C 36.378906 57.445312 67.796875 57.445312 99.035156 57.445312 Z M 99.035156 57.445312 "/>
<path style=" stroke:none;fill-rule:nonzero;fill:rgb(14.901961%,40%,69.019608%);fill-opacity:1;" d="M 41.914062 22.617188 C 43.164062 22.996094 45.304688 22.429688 44.589844 23.753906 L 31.382812 23.753906 C 30.667969 22.902344 31.382812 22.714844 32.808594 22.808594 C 33.882812 22.808594 34.953125 22.902344 34.953125 22.050781 C 34.953125 18.265625 34.953125 14.386719 34.417969 10.503906 C 33.167969 11.925781 31.917969 13.4375 30.667969 14.859375 C 28.347656 17.695312 25.847656 20.441406 23.527344 23.28125 C 23.171875 23.566406 22.636719 23.847656 22.097656 24.132812 C 21.5625 23.847656 20.671875 23.660156 20.3125 23.28125 C 16.207031 18.832031 12.28125 14.386719 7.996094 9.558594 L 7.996094 22.617188 C 8.890625 23.1875 11.566406 22.144531 11.03125 23.753906 L 2.820312 23.753906 C 2.640625 22.902344 2.640625 22.902344 5.140625 22.714844 L 5.140625 8.421875 L 3 8.234375 L 2.820312 7.855469 C 3.355469 7.664062 3.890625 7.382812 4.425781 7.382812 C 7.105469 7.285156 9.605469 7.285156 12.28125 7.382812 C 13.175781 7.570312 14.066406 7.855469 14.421875 8.328125 C 17.636719 11.734375 20.671875 15.140625 23.882812 18.550781 C 24.0625 18.738281 24.242188 18.925781 24.597656 19.210938 C 27.277344 16.46875 29.773438 13.53125 31.738281 10.597656 C 33.523438 7.761719 36.378906 6.625 41.734375 7.191406 C 42.269531 7.285156 42.804688 7.097656 43.164062 7.191406 C 43.519531 7.285156 43.878906 7.476562 44.234375 7.664062 C 43.878906 7.761719 43.519531 7.949219 43.164062 8.140625 C 42.628906 8.421875 41.914062 8.707031 41.914062 8.992188 C 41.734375 13.628906 41.914062 18.171875 41.914062 22.617188 Z M 41.914062 22.617188 "/>
<path style=" stroke:none;fill-rule:nonzero;fill:rgb(14.901961%,40%,69.019608%);fill-opacity:1;" d="M 297.535156 8.328125 C 294.859375 8.042969 294.5 8.707031 294.679688 9.746094 C 294.679688 13.628906 294.679688 17.507812 294.679688 21.386719 C 294.679688 22.144531 294.5 22.902344 296.824219 22.808594 C 297.179688 22.808594 297.535156 23.28125 298.25 23.753906 L 284.328125 23.753906 C 283.792969 22.996094 284.148438 22.714844 285.578125 22.808594 C 287.183594 22.902344 287.71875 22.617188 287.71875 21.765625 C 287.71875 18.074219 287.71875 14.289062 287.183594 10.503906 C 286.46875 11.261719 285.753906 12.019531 285.039062 12.777344 C 282.007812 16.277344 279.148438 19.777344 276.117188 23.28125 C 275.757812 23.660156 275.222656 23.847656 274.507812 24.039062 C 274.152344 24.039062 273.4375 23.660156 273.082031 23.375 C 269.511719 19.496094 266.117188 15.613281 262.550781 11.734375 C 262.011719 11.074219 261.121094 10.410156 260.226562 9.84375 L 260.226562 14.007812 C 260.226562 16.46875 260.226562 18.925781 260.226562 21.386719 C 260.226562 22.335938 260.40625 22.996094 262.550781 22.808594 C 263.085938 22.808594 263.621094 23.1875 264.15625 23.46875 L 263.796875 23.847656 C 261.300781 23.847656 258.980469 23.847656 256.480469 23.847656 C 256.121094 23.847656 255.585938 23.566406 255.230469 23.375 C 255.585938 23.1875 256.121094 22.902344 256.480469 22.902344 C 257.550781 22.902344 258.265625 22.714844 258.265625 22.050781 C 258.265625 17.507812 258.265625 13.058594 258.265625 8.421875 L 255.945312 8.234375 L 255.585938 7.949219 C 256.121094 7.761719 256.65625 7.382812 257.015625 7.382812 C 259.691406 7.285156 262.550781 7.285156 265.226562 7.382812 C 266.117188 7.476562 266.65625 7.855469 267.191406 8.234375 C 270.582031 11.828125 273.792969 15.519531 277.363281 19.402344 C 279.328125 17.128906 281.292969 14.953125 283.078125 12.871094 C 284.328125 11.355469 285.578125 9.84375 286.824219 8.328125 C 287.003906 7.761719 288.074219 7.382812 289.324219 7.476562 C 291.46875 7.570312 293.609375 7.476562 295.75 7.476562 C 296.464844 7.570312 297 7.664062 297.535156 7.855469 Z M 297.535156 8.328125 "/>
<path style=" stroke:none;fill-rule:nonzero;fill:rgb(14.901961%,40%,69.019608%);fill-opacity:1;" d="M 119.566406 22.808594 L 122.777344 22.902344 L 123.132812 23.1875 C 122.597656 23.375 122.0625 23.753906 121.527344 23.753906 C 117.421875 23.847656 113.316406 23.753906 109.210938 23.46875 C 109.746094 23.1875 110.105469 22.808594 110.640625 22.808594 C 112.066406 22.808594 112.246094 22.335938 112.246094 21.765625 C 112.246094 17.601562 112.246094 13.4375 112.246094 9.367188 C 112.246094 8.234375 110.816406 8.234375 109.566406 8.234375 C 109.03125 7.097656 110.640625 7.382812 111.53125 7.382812 C 122.597656 7.285156 122.597656 7.285156 122.777344 8.234375 C 122.242188 8.234375 121.527344 8.234375 120.992188 8.328125 C 120.457031 8.515625 119.566406 8.800781 119.566406 9.085938 C 119.386719 10.976562 119.566406 12.871094 119.566406 14.859375 L 131.882812 14.859375 C 131.882812 12.871094 131.882812 10.882812 131.882812 8.894531 C 131.882812 8.707031 130.988281 8.421875 130.453125 8.234375 C 129.738281 8.140625 129.023438 8.140625 128.3125 8.140625 C 128.132812 6.910156 129.738281 7.285156 130.632812 7.285156 C 134.203125 7.476562 138.128906 7.191406 141.699219 7.570312 L 141.878906 8.234375 C 139.199219 8.042969 138.84375 8.800781 138.84375 9.9375 C 139.023438 13.722656 138.84375 17.507812 138.84375 21.386719 L 138.84375 22.523438 C 139.914062 23.089844 142.234375 22.335938 141.519531 23.753906 L 128.3125 23.753906 C 128.132812 22.902344 128.132812 22.808594 129.5625 22.808594 C 131.347656 22.808594 131.703125 22.429688 131.703125 21.671875 C 131.703125 19.777344 131.703125 17.886719 131.703125 15.898438 L 119.566406 15.898438 Z M 119.566406 22.808594 "/>
<path style=" stroke:none;fill-rule:nonzero;fill:rgb(14.901961%,40%,69.019608%);fill-opacity:1;" d="M 65.476562 35.394531 C 66.011719 35.203125 66.726562 35.015625 67.261719 35.015625 C 72.4375 35.015625 77.617188 35.015625 82.792969 35.109375 C 87.074219 35.015625 90.644531 36.71875 90.644531 38.992188 C 90.644531 39.085938 90.644531 39.273438 90.644531 39.367188 C 90.824219 42.113281 87.96875 44.007812 82.96875 44.386719 C 80.648438 44.574219 78.152344 44.574219 75.472656 44.667969 C 75.472656 46.277344 75.472656 47.980469 75.472656 49.589844 C 75.472656 49.875 76.722656 50.253906 77.4375 50.253906 C 78.6875 50.347656 79.578125 50.347656 79.042969 51.199219 C 74.757812 51.199219 70.296875 51.199219 66.011719 51.199219 C 65.65625 50.347656 65.65625 50.347656 68.332031 50.15625 C 68.332031 49.777344 68.511719 49.304688 68.511719 48.832031 C 68.511719 44.953125 68.511719 41.074219 68.511719 37.191406 C 68.511719 36.152344 68.332031 35.394531 65.65625 35.679688 Z M 75.472656 43.910156 C 77.617188 43.53125 79.578125 43.53125 81.007812 42.964844 C 83.863281 41.734375 84.21875 38.421875 81.898438 36.8125 C 80.828125 36.058594 78.863281 35.679688 77.078125 35.867188 C 76.367188 35.960938 75.652344 36.433594 75.652344 36.625 C 75.472656 38.992188 75.472656 41.261719 75.472656 43.910156 Z M 75.472656 43.910156 "/>
<path style=" stroke:none;fill-rule:nonzero;fill:rgb(14.901961%,40%,69.019608%);fill-opacity:1;" d="M 58.695312 14.667969 C 63.871094 15.046875 65.65625 14.761719 66.546875 12.492188 C 66.546875 12.304688 67.082031 12.207031 67.441406 12.019531 C 67.796875 12.207031 68.332031 12.304688 68.332031 12.492188 C 68.332031 14.386719 68.332031 16.277344 68.332031 18.171875 C 68.332031 18.265625 67.796875 18.550781 67.617188 18.550781 C 67.261719 18.550781 66.90625 18.359375 66.726562 18.171875 C 64.761719 15.710938 64.40625 15.613281 59.230469 15.898438 L 59.230469 22.808594 C 61.90625 22.808594 64.585938 22.902344 67.082031 22.808594 C 69.941406 22.617188 72.261719 21.484375 72.4375 19.96875 C 72.617188 19.589844 72.972656 19.210938 73.507812 18.832031 L 73.867188 18.925781 L 73.867188 23.753906 L 48.160156 23.753906 C 49.054688 23.28125 49.410156 22.808594 49.769531 22.808594 C 51.375 22.808594 51.554688 22.238281 51.554688 21.671875 C 51.554688 17.601562 51.554688 13.53125 51.554688 9.558594 C 51.554688 8.515625 50.480469 8.140625 48.695312 8.234375 L 48.519531 7.855469 C 49.054688 7.664062 49.589844 7.382812 50.125 7.382812 C 57.445312 7.382812 64.761719 7.382812 72.261719 7.382812 L 72.261719 11.734375 C 71.546875 11.449219 70.652344 11.261719 70.652344 10.976562 C 70.296875 9.179688 68.15625 8.515625 65.121094 8.234375 C 59.050781 7.761719 58.695312 7.855469 58.695312 11.167969 Z M 58.695312 14.667969 "/>
<path style=" stroke:none;fill-rule:nonzero;fill:rgb(14.901961%,40%,69.019608%);fill-opacity:1;" d="M 186.148438 23.753906 L 177.578125 23.753906 L 177.402344 23.46875 C 177.757812 23.375 178.292969 23.089844 178.652344 23.089844 C 180.433594 23.1875 180.613281 22.617188 180.613281 21.859375 C 180.613281 17.886719 180.613281 13.910156 180.613281 9.9375 C 180.613281 8.707031 180.613281 7.855469 177.402344 8.140625 L 177.402344 7.855469 C 177.9375 7.761719 178.292969 7.476562 178.828125 7.476562 C 181.507812 7.476562 184.363281 7.382812 187.039062 7.476562 C 187.753906 7.570312 188.46875 7.855469 189.003906 8.140625 C 193.824219 11.546875 198.644531 15.046875 203.820312 18.738281 C 204 18.171875 204 17.886719 204 17.601562 C 204 15.046875 204 12.492188 204 9.9375 C 204 8.140625 204 8.140625 200.070312 8.140625 C 200.429688 7.855469 200.785156 7.476562 200.964844 7.476562 C 203.285156 7.097656 208.105469 7.476562 208.816406 8.140625 C 205.246094 7.761719 205.785156 8.992188 205.785156 10.125 C 205.785156 14.761719 205.785156 19.304688 205.785156 23.941406 C 204.175781 24.417969 202.214844 24.039062 201.320312 23.1875 C 195.609375 19.023438 189.894531 14.953125 184.183594 10.789062 C 183.648438 10.503906 183.292969 10.125 182.398438 9.652344 C 182.398438 10.222656 182.21875 10.503906 182.21875 10.882812 C 182.21875 14.574219 182.21875 18.265625 182.21875 21.957031 C 182.21875 22.902344 182.578125 23.46875 184.71875 23.375 C 185.078125 23.375 185.613281 23.660156 186.148438 23.753906 Z M 186.148438 23.753906 "/>
<path style=" stroke:none;fill-rule:nonzero;fill:rgb(14.901961%,40%,69.019608%);fill-opacity:1;" d="M 250.765625 8.234375 L 250.765625 12.113281 C 249.875 11.640625 249.339844 11.449219 249.160156 11.167969 C 248.269531 8.992188 244.339844 7.664062 240.234375 8.042969 C 238.09375 8.140625 236.308594 8.992188 235.953125 10.125 C 235.59375 11.167969 236.664062 12.207031 238.449219 12.585938 C 240.949219 13.25 243.628906 13.816406 246.125 14.480469 C 251.125 15.804688 253.089844 17.601562 252.195312 19.875 C 251.304688 22.523438 246.839844 24.320312 241.84375 24.132812 C 239.878906 24.132812 237.914062 23.941406 235.953125 23.753906 C 234.167969 23.566406 232.203125 23.375 230.238281 23.1875 L 230.238281 18.453125 L 230.773438 18.265625 C 231.132812 18.550781 231.488281 18.832031 231.667969 19.117188 C 232.382812 20.535156 233.273438 21.957031 235.953125 22.523438 C 237.914062 22.902344 240.058594 23.089844 242.378906 22.996094 C 244.339844 22.808594 245.949219 21.957031 246.125 20.820312 C 246.660156 19.777344 245.769531 18.644531 243.984375 18.074219 C 241.484375 17.414062 238.984375 16.75 236.488281 16.277344 C 233.808594 15.804688 231.667969 14.761719 230.597656 13.34375 C 228.988281 10.882812 231.488281 8.234375 236.128906 7.476562 C 236.128906 7.476562 236.308594 7.476562 236.308594 7.476562 C 239.519531 6.910156 243.089844 6.910156 246.304688 7.570312 C 247.734375 7.855469 249.160156 7.949219 250.765625 8.234375 Z M 250.765625 8.234375 "/>
<path style=" stroke:none;fill-rule:nonzero;fill:rgb(14.901961%,40%,69.019608%);fill-opacity:1;" d="M 139.023438 50.253906 C 140.449219 50.914062 143.128906 49.777344 142.59375 51.484375 C 139.914062 51.484375 137.058594 51.484375 134.378906 51.484375 C 134.023438 51.484375 133.667969 51.199219 133.488281 51.007812 C 133.488281 50.914062 134.023438 50.535156 134.203125 50.535156 C 136.703125 50.726562 137.238281 49.683594 137.949219 48.832031 C 141.34375 44.480469 144.734375 40.125 148.304688 35.867188 C 148.660156 35.394531 149.554688 34.828125 150.269531 34.828125 C 150.980469 34.828125 152.054688 35.394531 152.410156 35.867188 C 155.800781 40.125 159.191406 44.480469 162.585938 48.738281 C 163.296875 49.777344 164.191406 50.820312 167.046875 50.535156 L 167.40625 50.820312 C 166.867188 51.105469 166.511719 51.484375 165.976562 51.484375 C 161.335938 51.578125 156.515625 51.484375 151.875 51.484375 C 151.160156 50.535156 152.054688 50.441406 153.300781 50.441406 C 155.800781 50.441406 156.160156 50.15625 155.265625 48.832031 C 153.480469 46.277344 153.480469 46.277344 148.304688 46.277344 C 147.410156 46.277344 146.519531 46.277344 145.625 46.277344 C 144.199219 46.371094 142.054688 46.277344 141.519531 46.65625 C 140.628906 47.792969 139.734375 49.023438 139.023438 50.253906 Z M 152.589844 45.332031 L 147.589844 38.992188 L 142.59375 45.332031 Z M 152.589844 45.332031 "/>
<path style=" stroke:none;fill-rule:nonzero;fill:rgb(14.901961%,40%,69.019608%);fill-opacity:1;" d="M 161.15625 23.753906 C 160.976562 22.050781 163.835938 23.28125 164.90625 22.429688 C 165.261719 21.199219 163.476562 20.0625 162.585938 18.738281 L 151.160156 18.738281 C 150.269531 19.875 149.375 21.007812 148.660156 22.238281 C 149.195312 22.523438 149.910156 22.714844 150.625 22.714844 C 152.054688 22.714844 152.589844 22.902344 151.875 23.753906 C 149.195312 23.753906 146.519531 23.753906 143.839844 23.753906 C 143.304688 23.753906 142.949219 23.375 142.414062 22.996094 C 145.449219 23.089844 146.339844 22.050781 147.234375 20.914062 C 150.625 16.65625 153.839844 12.398438 157.230469 8.140625 C 157.585938 7.664062 158.65625 7.382812 159.371094 6.910156 C 160.085938 7.285156 160.976562 7.570312 161.335938 8.042969 C 164.726562 12.304688 168.117188 16.65625 171.511719 20.914062 C 172.222656 21.859375 172.9375 22.808594 175.4375 22.714844 C 175.792969 22.714844 176.152344 23.1875 176.6875 23.566406 Z M 156.695312 11.355469 L 151.695312 17.695312 L 161.691406 17.695312 Z M 156.695312 11.355469 "/>
<path style=" stroke:none;fill-rule:nonzero;fill:rgb(14.901961%,40%,69.019608%);fill-opacity:1;" d="M 64.761719 50.914062 C 64.226562 51.105469 63.691406 51.484375 63.335938 51.484375 C 58.695312 51.484375 53.875 51.484375 49.234375 51.484375 C 48.519531 50.441406 49.589844 50.441406 50.839844 50.441406 C 53.160156 50.441406 53.515625 50.15625 52.804688 49.023438 L 52.804688 48.925781 C 51.019531 46.277344 51.019531 46.277344 45.839844 46.277344 C 45.125 46.277344 44.589844 46.277344 43.878906 46.277344 C 42.269531 46.371094 39.949219 46.183594 39.234375 46.65625 C 37.988281 47.792969 37.09375 49.023438 36.378906 50.253906 C 39.949219 50.726562 39.949219 50.726562 39.949219 51.484375 C 37.273438 51.484375 34.59375 51.484375 31.917969 51.484375 C 31.382812 51.484375 31.023438 51.105469 30.667969 50.726562 C 34.058594 50.820312 34.773438 49.589844 35.667969 48.453125 C 39.058594 44.289062 42.269531 40.03125 45.664062 35.773438 C 46.019531 35.300781 46.910156 34.921875 47.804688 34.730469 C 48.339844 34.636719 49.410156 35.300781 49.769531 35.679688 C 53.160156 39.9375 56.550781 44.289062 59.941406 48.550781 C 60.835938 49.589844 61.371094 50.820312 64.585938 50.347656 Z M 44.769531 38.992188 L 39.773438 45.332031 L 49.769531 45.332031 Z M 44.769531 38.992188 "/>
<path style=" stroke:none;fill-rule:nonzero;fill:rgb(14.901961%,40%,69.019608%);fill-opacity:1;" d="M 136.34375 35.015625 L 136.34375 39.085938 L 135.808594 39.273438 C 135.453125 38.992188 134.738281 38.707031 134.738281 38.421875 C 134.378906 36.53125 131.523438 35.867188 128.3125 35.867188 C 127.0625 35.867188 126.527344 36.152344 126.527344 36.71875 C 126.527344 40.976562 126.527344 45.140625 126.527344 49.402344 C 126.527344 50.253906 127.242188 50.441406 128.667969 50.441406 C 129.917969 50.347656 130.632812 50.535156 130.097656 51.386719 L 115.996094 51.386719 L 115.636719 51.105469 C 116.171875 50.914062 116.707031 50.441406 117.066406 50.441406 C 119.386719 50.535156 119.566406 49.96875 119.566406 48.925781 C 119.566406 44.667969 119.566406 40.316406 119.566406 36.058594 C 115.28125 35.488281 112.601562 36.246094 111.53125 38.328125 C 111.351562 38.613281 110.996094 38.800781 110.640625 39.085938 C 110.460938 38.800781 109.925781 38.515625 109.925781 38.234375 C 109.746094 37.191406 109.925781 36.058594 109.925781 34.921875 Z M 136.34375 35.015625 "/>
<path style=" stroke:none;fill-rule:nonzero;fill:rgb(14.901961%,40%,69.019608%);fill-opacity:1;" d="M 29.417969 36.058594 L 29.417969 39.367188 L 28.882812 39.558594 C 28.347656 39.273438 27.988281 38.992188 27.453125 38.613281 C 26.207031 37.097656 23.707031 35.960938 20.492188 35.679688 C 16.746094 35.203125 12.816406 36.339844 11.566406 38.328125 C 9.246094 41.261719 9.070312 44.574219 11.210938 47.601562 C 12.101562 49.496094 15.136719 50.726562 18.886719 50.820312 C 22.8125 50.914062 26.382812 49.683594 27.632812 47.695312 C 27.988281 47.320312 28.527344 47.035156 29.0625 46.84375 L 29.597656 47.035156 L 29.597656 50.441406 C 26.742188 50.820312 23.707031 51.292969 20.851562 51.578125 C 12.816406 52.714844 4.425781 50.0625 2.464844 45.804688 C 1.929688 44.859375 1.929688 43.816406 2.105469 42.777344 C 3 38.234375 6.390625 35.960938 13.53125 35.015625 C 17.28125 34.542969 21.027344 34.636719 24.597656 35.300781 C 26.207031 35.582031 27.8125 35.773438 29.417969 36.058594 Z M 29.417969 36.058594 "/>
<path style=" stroke:none;fill-rule:nonzero;fill:rgb(14.901961%,40%,69.019608%);fill-opacity:1;" d="M 105.105469 8.421875 L 105.105469 11.734375 L 104.570312 11.925781 C 104.035156 11.640625 103.675781 11.261719 103.320312 10.976562 C 102.070312 9.367188 99.394531 8.328125 96.179688 8.042969 C 91.71875 7.761719 88.683594 8.800781 87.253906 11.167969 C 85.46875 13.910156 85.46875 16.84375 87.074219 19.496094 C 88.324219 21.671875 91.003906 22.902344 94.394531 23.089844 C 98.5 23.375 102.25 22.144531 103.855469 20.0625 C 104.210938 19.683594 104.75 19.402344 105.460938 19.117188 L 105.996094 19.304688 L 105.996094 22.714844 C 102.070312 23.28125 97.964844 23.660156 94.039062 23.941406 C 84.21875 24.132812 77.972656 20.347656 78.328125 15.140625 C 78.863281 7.855469 90.46875 6.058594 99.214844 7.382812 C 100.820312 7.761719 102.964844 8.140625 105.105469 8.421875 Z M 105.105469 8.421875 "/>
<path style=" stroke:none;fill-rule:nonzero;fill:rgb(14.901961%,40%,69.019608%);fill-opacity:1;" d="M 178.472656 50.441406 C 180.792969 50.441406 182.933594 50.535156 185.078125 50.441406 C 187.753906 50.347656 189.71875 49.304688 190.074219 47.886719 C 190.253906 47.507812 190.609375 47.035156 190.96875 46.65625 L 191.679688 46.84375 L 191.679688 51.484375 C 184.183594 51.484375 176.867188 51.484375 169.546875 51.484375 C 169.011719 51.484375 168.652344 51.105469 167.761719 50.632812 L 170.976562 50.441406 C 170.976562 49.96875 171.152344 49.496094 171.152344 49.023438 C 171.152344 45.238281 171.152344 41.449219 171.152344 37.664062 C 171.152344 36.71875 171.332031 35.679688 168.476562 36.058594 C 168.652344 35.109375 168.652344 35.109375 170.976562 35.109375 C 183.648438 35.109375 181.683594 34.921875 181.683594 35.867188 C 178.113281 36.152344 178.113281 36.152344 178.113281 38.140625 C 178.113281 41.734375 178.113281 45.425781 178.113281 49.023438 C 178.292969 49.402344 178.292969 49.875 178.472656 50.441406 Z M 178.472656 50.441406 "/>
<path style=" stroke:none;fill-rule:nonzero;fill:rgb(14.901961%,40%,69.019608%);fill-opacity:1;" d="M 107.070312 50.914062 C 106.535156 51.105469 105.996094 51.484375 105.640625 51.484375 C 102.25 51.578125 98.859375 51.578125 95.464844 51.484375 C 94.929688 51.484375 94.394531 51.105469 93.859375 51.007812 L 94.214844 50.632812 L 96.714844 50.441406 C 96.714844 49.96875 96.894531 49.496094 96.894531 49.023438 C 96.894531 45.238281 96.894531 41.449219 96.894531 37.570312 C 96.894531 36.625 97.074219 35.582031 93.859375 36.058594 L 94.039062 35.582031 C 94.574219 35.394531 95.109375 35.109375 95.644531 35.109375 C 102.25 34.730469 106.355469 35.015625 107.070312 35.960938 C 103.675781 35.679688 104.035156 36.910156 104.035156 38.042969 C 104.035156 41.734375 104.035156 45.425781 104.035156 49.117188 C 104.035156 50.15625 104.210938 50.914062 106.890625 50.632812 Z M 107.070312 50.914062 "/>
<path style=" stroke:none;fill-rule:nonzero;fill:rgb(14.901961%,40%,69.019608%);fill-opacity:1;" d="M 225.777344 23.753906 C 217.921875 24.226562 213.101562 23.941406 212.925781 22.996094 L 215.421875 22.808594 L 215.421875 8.421875 L 212.925781 8.234375 C 212.566406 7.097656 213.996094 7.382812 215.066406 7.382812 C 225.0625 7.285156 225.0625 7.285156 225.417969 8.234375 C 222.742188 8.042969 222.742188 8.992188 222.742188 10.03125 C 222.742188 13.910156 222.742188 17.695312 222.742188 21.578125 C 222.742188 22.335938 222.742188 22.902344 224.707031 22.902344 C 225.0625 22.902344 225.417969 23.375 225.777344 23.753906 Z M 225.777344 23.753906 "/>
</g>
</svg>
