<?xml version="1.0" encoding="UTF-8"?>
<svg xmlns="http://www.w3.org/2000/svg" xmlns:xlink="http://www.w3.org/1999/xlink" width="300" height="60" viewBox="0 0 300 60" version="1.1">
<g id="surface1">
<path style=" stroke:none;fill-rule:nonzero;fill:rgb(14.901961%,40%,69.019608%);fill-opacity:1;" d="M 168.558594 30 C 168.558594 31.882812 167.972656 33.875 166.800781 35.644531 C 165.824219 37.417969 164.066406 38.964844 161.917969 40.296875 C 159.769531 41.625 157.03125 42.730469 154.101562 43.503906 C 150.78125 44.28125 147.070312 44.722656 143.359375 44.613281 C 139.644531 44.613281 136.128906 44.28125 132.613281 43.503906 C 129.683594 42.730469 126.949219 41.734375 124.800781 40.296875 C 122.648438 38.964844 120.890625 37.417969 119.914062 35.644531 C 118.742188 33.875 118.15625 31.882812 118.351562 30 C 118.351562 28.117188 118.9375 26.125 119.914062 24.355469 C 120.890625 22.582031 122.648438 21.035156 124.800781 19.703125 C 126.949219 18.375 129.683594 17.269531 132.613281 16.496094 C 135.933594 15.71875 139.644531 15.277344 143.359375 15.386719 C 147.070312 15.386719 150.585938 15.71875 154.101562 16.496094 C 157.03125 17.269531 159.769531 18.265625 161.917969 19.703125 C 164.066406 21.035156 165.824219 22.695312 166.800781 24.355469 C 167.972656 26.125 168.558594 28.007812 168.558594 30 Z M 143.359375 39.964844 C 145.507812 39.964844 147.851562 39.742188 149.804688 39.1875 C 151.5625 38.746094 153.125 37.96875 154.492188 37.085938 C 155.859375 36.089844 156.640625 35.09375 157.226562 33.875 C 157.8125 32.546875 158.203125 31.21875 158.203125 29.890625 C 158.203125 28.5625 158.007812 27.234375 157.226562 25.902344 C 156.640625 24.796875 155.664062 23.691406 154.492188 22.695312 C 153.320312 21.808594 151.757812 21.035156 149.804688 20.589844 C 147.851562 20.035156 145.703125 19.816406 143.359375 19.816406 C 141.210938 19.816406 139.058594 20.035156 136.910156 20.589844 C 135.152344 21.035156 133.589844 21.808594 132.222656 22.695312 C 130.855469 23.691406 130.074219 24.6875 129.488281 25.902344 C 128.902344 27.234375 128.511719 28.5625 128.511719 29.890625 C 128.511719 31.21875 128.707031 32.546875 129.488281 33.875 C 130.074219 34.980469 131.050781 36.089844 132.222656 37.085938 C 133.394531 37.96875 134.957031 38.746094 136.910156 39.1875 C 139.058594 39.742188 141.210938 39.964844 143.359375 39.964844 Z M 175.199219 44.058594 L 175.199219 15.832031 L 185.75 15.832031 L 185.75 29.445312 L 203.136719 15.832031 L 215.25 15.832031 L 196.886719 29.777344 L 216.617188 44.058594 L 203.722656 44.058594 L 185.945312 30.109375 L 185.945312 44.058594 Z M 220.523438 15.832031 L 250.609375 15.832031 L 250.609375 20.589844 L 231.074219 20.589844 L 231.074219 27.453125 L 249.632812 27.453125 L 249.632812 32.101562 L 231.074219 32.101562 L 231.074219 39.410156 L 250.804688 39.410156 L 250.804688 44.167969 L 220.523438 44.167969 Z M 288.117188 15.832031 L 299.445312 15.832031 L 283.035156 29.890625 L 299.835938 44.167969 L 288.3125 44.167969 L 277.566406 34.539062 L 266.820312 44.167969 L 255.296875 44.167969 L 271.902344 29.890625 L 255.492188 15.832031 L 266.820312 15.832031 L 277.371094 25.351562 Z M 288.117188 15.832031 "/>
<path style=" stroke:none;fill-rule:nonzero;fill:rgb(53.333333%,74.117647%,95.294118%);fill-opacity:1;" d="M 77.328125 13.617188 C 77.328125 21.136719 66.570312 27.234375 53.300781 27.234375 C 40.027344 27.234375 29.269531 21.136719 29.269531 13.617188 C 29.269531 6.097656 40.027344 0 53.300781 0 C 66.570312 0 77.328125 6.097656 77.328125 13.617188 Z M 77.328125 13.617188 "/>
<path style=" stroke:none;fill-rule:nonzero;fill:rgb(18.823529%,45.882353%,93.333333%);fill-opacity:1;" d="M 77.328125 46.382812 C 77.328125 53.902344 66.570312 60 53.300781 60 C 40.027344 60 29.269531 53.902344 29.269531 46.382812 C 29.269531 38.863281 40.027344 32.765625 53.300781 32.765625 C 66.570312 32.765625 77.328125 38.863281 77.328125 46.382812 Z M 77.328125 46.382812 "/>
<path style=" stroke:none;fill-rule:nonzero;fill:rgb(34.117647%,58.431373%,94.509804%);fill-opacity:1;" d="M 106.242188 30 C 106.242188 37.519531 95.484375 43.617188 82.210938 43.617188 C 68.941406 43.617188 58.183594 37.519531 58.183594 30 C 58.183594 22.480469 68.941406 16.382812 82.210938 16.382812 C 95.484375 16.382812 106.242188 22.480469 106.242188 30 Z M 106.242188 30 "/>
<path style=" stroke:none;fill-rule:nonzero;fill:rgb(12.54902%,37.254902%,92.54902%);fill-opacity:1;" d="M 48.414062 30 C 48.414062 37.519531 37.65625 43.617188 24.386719 43.617188 C 11.117188 43.617188 0.359375 37.519531 0.359375 30 C 0.359375 22.480469 11.117188 16.382812 24.386719 16.382812 C 37.65625 16.382812 48.414062 22.480469 48.414062 30 Z M 48.414062 30 "/>
<path style=" stroke:none;fill-rule:evenodd;fill:rgb(7.45098%,29.411765%,93.72549%);fill-opacity:1;" d="M 47.632812 26.789062 C 38.84375 25.570312 32.199219 21.699219 30.050781 16.828125 C 38.648438 18.042969 45.484375 21.808594 47.632812 26.789062 Z M 47.632812 26.789062 "/>
<path style=" stroke:none;fill-rule:evenodd;fill:rgb(3.529412%,19.607843%,90.980392%);fill-opacity:1;" d="M 30.050781 43.171875 C 32.199219 38.191406 39.039062 34.429688 47.632812 33.210938 C 45.484375 38.191406 38.648438 42.066406 30.050781 43.171875 Z M 30.050781 43.171875 "/>
<path style=" stroke:none;fill-rule:evenodd;fill:rgb(8.627451%,29.411765%,91.764706%);fill-opacity:1;" d="M 58.964844 33.210938 C 67.753906 34.429688 74.398438 38.300781 76.546875 43.171875 C 67.949219 41.957031 61.113281 38.191406 58.964844 33.210938 Z M 58.964844 33.210938 "/>
<path style=" stroke:none;fill-rule:evenodd;fill:rgb(19.215686%,43.921569%,94.509804%);fill-opacity:1;" d="M 76.546875 16.828125 C 74.398438 21.808594 67.558594 25.570312 58.964844 26.789062 C 61.113281 21.808594 67.949219 18.042969 76.546875 16.828125 Z M 76.546875 16.828125 "/>
</g>
</svg>
