<svg id="Group_141" data-name="Group 141" xmlns="http://www.w3.org/2000/svg" width="153.238" height="54.217" viewBox="0 0 153.238 54.217">
  <g id="OKEx-logo">
    <path id="Text" d="M-101.982,424.767a14.626,14.626,0,0,1-.87,5.115,12.407,12.407,0,0,1-2.5,4.2,11.96,11.96,0,0,1-4.042,2.864,13.313,13.313,0,0,1-5.474,1.047,13.74,13.74,0,0,1-5.471-1.047,11.96,11.96,0,0,1-4.042-2.864,12.243,12.243,0,0,1-2.5-4.2,15.282,15.282,0,0,1-.844-5.115,15.391,15.391,0,0,1,.844-5.115,12.087,12.087,0,0,1,2.5-4.219,12.184,12.184,0,0,1,4.042-2.864,13.27,13.27,0,0,1,5.471-1.049,13.7,13.7,0,0,1,5.474,1.049,11.928,11.928,0,0,1,4.042,2.864,12.489,12.489,0,0,1,2.5,4.219A14.833,14.833,0,0,1-101.982,424.767Zm-12.865,9.028a7.28,7.28,0,0,0,3.274-.69,6.828,6.828,0,0,0,2.353-1.894,8.122,8.122,0,0,0,1.406-2.864,13.374,13.374,0,0,0,.459-3.58,13.373,13.373,0,0,0-.459-3.58,8.122,8.122,0,0,0-1.406-2.864,6.546,6.546,0,0,0-2.353-1.894,7.357,7.357,0,0,0-3.274-.69,7.277,7.277,0,0,0-3.272.69,6.827,6.827,0,0,0-2.353,1.894,8.083,8.083,0,0,0-1.406,2.864,13.279,13.279,0,0,0-.462,3.58,13.28,13.28,0,0,0,.462,3.58,8.083,8.083,0,0,0,1.406,2.864,6.545,6.545,0,0,0,2.353,1.894A7.277,7.277,0,0,0-114.846,433.8Zm16.239,3.76V411.979h5.371v12.277l8.874-12.277h6.215l-9.411,12.634,10.05,12.942h-6.649L-93.261,425v12.557Zm23.248-25.575H-59.99v4.273h-9.973v6.187h9.513v4.245h-9.513v6.6h10.1v4.27H-75.334V411.979Zm34.524,0H-35l-8.415,12.711,8.566,12.865h-5.882l-5.523-8.72-5.525,8.72h-5.882l8.569-12.865-8.415-12.711h5.831l5.422,8.646Z" transform="translate(188.089 -397.71)" fill="#1a1a1a"/>
    <g id="Path-raw">
      <circle id="Oval" cx="12.276" cy="12.276" r="12.276" transform="translate(14.833)" fill="#88bdf3"/>
      <circle id="Oval-Copy" cx="12.276" cy="12.276" r="12.276" transform="translate(14.833 29.666)" fill="#3075ee"/>
      <circle id="Oval-Copy-2" cx="12.276" cy="12.276" r="12.276" transform="translate(29.666 14.833)" fill="#5795f1"/>
      <circle id="Oval-Copy-3" cx="12.276" cy="12.276" r="12.276" transform="translate(0 14.833)" fill="#205fec"/>
      <path id="Combined-Shape" d="M-138.077,421.133a12.3,12.3,0,0,1-9.028-9.026A12.292,12.292,0,0,1-138.077,421.133Z" transform="translate(162.283 -396.928)" fill="#134bef" fill-rule="evenodd"/>
      <path id="Combined-Shape-2" data-name="Combined-Shape" d="M-147.1,427.493a12.3,12.3,0,0,1,9.028-9.026A12.292,12.292,0,0,1-147.1,427.493Z" transform="translate(162.283 -388.455)" fill="#0932e8" fill-rule="evenodd"/>
      <path id="Combined-Shape-3" data-name="Combined-Shape" d="M-140.745,418.467a12.291,12.291,0,0,1,9.028,9.026A12.3,12.3,0,0,1-140.745,418.467Z" transform="translate(170.756 -388.455)" fill="#164bea" fill-rule="evenodd"/>
      <path id="Combined-Shape-4" data-name="Combined-Shape" d="M-131.717,412.107a12.292,12.292,0,0,1-9.028,9.026A12.3,12.3,0,0,1-131.717,412.107Z" transform="translate(170.756 -396.928)" fill="#3170f1" fill-rule="evenodd"/>
    </g>
  </g>
</svg>
