<?xml version="1.0" encoding="utf-8"?>
<!-- Generator: Adobe Illustrator 26.3.1, SVG Export Plug-In . SVG Version: 6.00 Build 0)  -->
<svg version="1.1" id="Group_141" xmlns="http://www.w3.org/2000/svg" xmlns:xlink="http://www.w3.org/1999/xlink" x="0px" y="0px"
	 viewBox="0 0 153.2 54.2" style="enable-background:new 0 0 153.2 54.2;" xml:space="preserve">
<style type="text/css">
	.st0{fill:#2666B0;}
	.st1{fill:#88BDF3;}
	.st2{fill:#3075EE;}
	.st3{fill:#5795F1;}
	.st4{fill:#205FEC;}
	.st5{fill-rule:evenodd;clip-rule:evenodd;fill:#134BEF;}
	.st6{fill-rule:evenodd;clip-rule:evenodd;fill:#0932E8;}
	.st7{fill-rule:evenodd;clip-rule:evenodd;fill:#164BEA;}
	.st8{fill-rule:evenodd;clip-rule:evenodd;fill:#3170F1;}
</style>
<g id="OKEx-logo">
	<path id="Text" class="st0" d="M86.1,27.1c0,1.7-0.3,3.5-0.9,5.1c-0.5,1.6-1.4,3-2.5,4.2c-1.1,1.2-2.5,2.2-4,2.9
		c-1.7,0.7-3.6,1.1-5.5,1c-1.9,0-3.7-0.3-5.5-1c-1.5-0.7-2.9-1.6-4-2.9c-1.1-1.2-2-2.6-2.5-4.2c-0.6-1.6-0.9-3.4-0.8-5.1
		c0-1.7,0.3-3.5,0.8-5.1c0.5-1.6,1.4-3,2.5-4.2c1.1-1.2,2.5-2.2,4-2.9c1.7-0.7,3.6-1.1,5.5-1c1.9,0,3.7,0.3,5.5,1
		c1.5,0.7,2.9,1.6,4,2.9c1.1,1.2,2,2.7,2.5,4.2C85.8,23.6,86.1,25.3,86.1,27.1z M73.2,36.1c1.1,0,2.3-0.2,3.3-0.7
		c0.9-0.4,1.7-1.1,2.4-1.9c0.7-0.9,1.1-1.8,1.4-2.9c0.3-1.2,0.5-2.4,0.5-3.6c0-1.2-0.1-2.4-0.5-3.6c-0.3-1-0.8-2-1.4-2.9
		c-0.6-0.8-1.4-1.5-2.4-1.9c-1-0.5-2.1-0.7-3.3-0.7c-1.1,0-2.2,0.2-3.3,0.7c-0.9,0.4-1.7,1.1-2.4,1.9c-0.7,0.9-1.1,1.8-1.4,2.9
		c-0.3,1.2-0.5,2.4-0.5,3.6c0,1.2,0.1,2.4,0.5,3.6c0.3,1,0.8,2,1.4,2.9c0.6,0.8,1.4,1.5,2.4,1.9C71,35.9,72.1,36.1,73.2,36.1
		L73.2,36.1z M89.5,39.8V14.3h5.4v12.3l8.9-12.3h6.2l-9.4,12.6l10.1,12.9h-6.6l-9.1-12.6v12.6L89.5,39.8z M112.7,14.3h15.4v4.3h-10
		v6.2h9.5V29h-9.5v6.6h10.1v4.3h-15.5L112.7,14.3L112.7,14.3z M147.3,14.3h5.8L144.7,27l8.6,12.9h-5.9l-5.5-8.7l-5.5,8.7h-5.9
		L139,27l-8.4-12.7h5.8l5.4,8.6L147.3,14.3z"/>
	<g id="Path-raw">
		<circle id="Oval" class="st1" cx="27.1" cy="12.3" r="12.3"/>
		<circle id="Oval-Copy" class="st2" cx="27.1" cy="41.9" r="12.3"/>
		<circle id="Oval-Copy-2" class="st3" cx="41.9" cy="27.1" r="12.3"/>
		<circle id="Oval-Copy-3" class="st4" cx="12.3" cy="27.1" r="12.3"/>
		<path id="Combined-Shape" class="st5" d="M24.2,24.2c-4.5-1.1-7.9-4.6-9-9C19.6,16.3,23.1,19.7,24.2,24.2z"/>
		<path id="Combined-Shape-2" class="st6" d="M15.2,39c1.1-4.5,4.6-7.9,9-9C23.1,34.5,19.6,38,15.2,39z"/>
		<path id="Combined-Shape-3" class="st7" d="M30,30c4.5,1.1,7.9,4.6,9,9C34.6,37.9,31.1,34.5,30,30z"/>
		<path id="Combined-Shape-4" class="st8" d="M39,15.2c-1.1,4.5-4.6,7.9-9,9C31.1,19.7,34.6,16.3,39,15.2z"/>
	</g>
</g>
</svg>
