<?xml version="1.0" encoding="UTF-8"?>
<svg id="katman_1" data-name="katman 1" xmlns="http://www.w3.org/2000/svg" viewBox="0 0 300 100">
  <defs>
    <style>
      .cls-1 {
        fill: #3075ee;
      }

      .cls-2 {
        fill: #205fec;
      }

      .cls-3 {
        fill: #1a1a1a;
      }

      .cls-4 {
        fill: #88bdf3;
      }

      .cls-5 {
        fill: #5795f1;
      }

      .cls-6 {
        fill: #134bef;
      }

      .cls-6, .cls-7, .cls-8, .cls-9 {
        fill-rule: evenodd;
      }

      .cls-7 {
        fill: #0932e8;
      }

      .cls-8 {
        fill: #164bea;
      }

      .cls-9 {
        fill: #3170f1;
      }
    </style>
  </defs>
  <g id="OKEx-logo">
    <path id="Text" class="cls-3" d="M159.53,49.71c.02,1.74-.28,3.48-.87,5.11-.55,1.55-1.4,2.98-2.5,4.2-1.13,1.23-2.51,2.2-4.04,2.86-1.73,.73-3.6,1.09-5.47,1.05-1.88,.03-3.74-.33-5.47-1.05-1.53-.66-2.91-1.64-4.04-2.86-1.11-1.22-1.96-2.65-2.5-4.2-.57-1.64-.86-3.37-.84-5.11,0-1.74,.28-3.47,.84-5.11,.54-1.56,1.39-3,2.5-4.22,1.14-1.22,2.51-2.2,4.04-2.86,1.73-.73,3.59-1.09,5.47-1.05,1.88-.03,3.74,.33,5.47,1.05,1.53,.66,2.91,1.64,4.04,2.86,1.1,1.23,1.95,2.66,2.5,4.22,.59,1.64,.88,3.37,.87,5.11Zm-12.86,9.03c1.13,.03,2.25-.21,3.27-.69,.92-.45,1.72-1.09,2.35-1.89,.65-.85,1.13-1.83,1.41-2.86,.31-1.17,.47-2.37,.46-3.58,0-1.21-.14-2.41-.46-3.58-.27-1.04-.75-2.01-1.41-2.86-.63-.81-1.43-1.45-2.35-1.89-1.02-.48-2.14-.71-3.27-.69-1.13-.03-2.25,.21-3.27,.69-.92,.45-1.72,1.09-2.35,1.89-.65,.85-1.13,1.83-1.41,2.86-.32,1.17-.47,2.37-.46,3.58,0,1.21,.15,2.41,.46,3.58,.27,1.04,.75,2.01,1.41,2.86,.63,.81,1.43,1.45,2.35,1.89,1.02,.48,2.14,.72,3.27,.7h0Zm16.24,3.76v-25.58h5.37v12.28l8.87-12.28h6.22l-9.41,12.63,10.05,12.94h-6.65l-9.1-12.55v12.56h-5.35Zm23.25-25.58h15.37v4.27h-9.97v6.19h9.51v4.24h-9.51v6.6h10.1v4.27h-15.47v-25.58h-.03Zm34.52,0h5.84l-8.42,12.71,8.57,12.86h-5.88l-5.52-8.72-5.53,8.72h-5.88l8.57-12.86-8.42-12.71h5.83l5.42,8.65,5.42-8.65Z"/>
    <g id="Path-raw">
      <circle id="Oval" class="cls-4" cx="100.53" cy="34.93" r="12.28"/>
      <circle id="Oval-Copy" class="cls-1" cx="100.53" cy="64.59" r="12.28"/>
      <circle id="Oval-Copy-2" class="cls-5" cx="115.36" cy="49.76" r="12.28"/>
      <circle id="Oval-Copy-3" class="cls-2" cx="85.7" cy="49.76" r="12.28"/>
      <path id="Combined-Shape" class="cls-6" d="M97.63,46.86c-4.46-1.09-7.94-4.57-9.03-9.03,4.46,1.09,7.94,4.57,9.03,9.03Z"/>
      <path id="Combined-Shape-2" class="cls-7" d="M88.61,61.69c1.09-4.46,4.57-7.94,9.03-9.03-1.09,4.46-4.57,7.94-9.03,9.03Z"/>
      <path id="Combined-Shape-3" class="cls-8" d="M103.43,52.66c4.46,1.09,7.94,4.57,9.03,9.03-4.46-1.09-7.94-4.57-9.03-9.03Z"/>
      <path id="Combined-Shape-4" class="cls-9" d="M112.46,37.83c-1.09,4.46-4.57,7.94-9.03,9.03,1.09-4.46,4.57-7.94,9.03-9.03Z"/>
    </g>
  </g>
</svg>