<?xml version="1.0" encoding="UTF-8"?>
<svg id="katman_1" data-name="katman 1" xmlns="http://www.w3.org/2000/svg" viewBox="0 0 300 100">
  <defs>
    <style>
      .cls-1 {
        fill: #2163af;
      }
    </style>
  </defs>
  <path id="Path_480" data-name="Path 480" class="cls-1" d="M176.14,26.81v15.9c0,.2,.1,.3,.3,.3h41.5c.3,0,.5-.2,.5-.5h0v-15.7c0-.3-.2-.5-.5-.5h-41.3c-.1,0-.3,0-.3,.1-.2,.1-.2,.3-.2,.4Zm38,12.2h-33.7c-.2,0-.3-.1-.3-.3h0v-8.1c0-.1,0-.2,.1-.2q.1-.1,.2-.1h33.7c.1,0,.2,0,.2,.1q.1,.1,.1,.2v8.1c0,.2-.1,.3-.3,.3h0Zm-37.7,13.3h3.4c.2,0,.3,.1,.3,.3h0v3.4c0,.2-.1,.3-.3,.3h-3.4c-.2,0-.3-.1-.3-.3h0v-3.4c0-.1,.1-.2,.3-.3h0Zm-47.8-25.5v3.2c0,.2,.1,.3,.3,.3h38c.2,0,.3,.1,.3,.3h0v8.1c0,.2-.1,.3-.3,.3h-38c-.2,0-.3,.1-.3,.3h0v3.4c0,.2,.1,.3,.3,.3h41.8c.3,0,.5-.2,.5-.5h0v-15.7c0-.3-.2-.5-.5-.5h-41.6c-.3,0-.5,.2-.5,.5h0Zm-47,.3v15.6c0,.2,.1,.3,.3,.3h41.2c.2,0,.4-.1,.6-.2,.2-.2,.2-.4,.2-.6v-15.1c0-.4-.4-.8-.8-.8h-40.7c-.4,0-.8,.4-.8,.8h0Zm38.1,11.9h-33.7c-.2,0-.3-.1-.3-.3h0v-8.1c0-.1,0-.2,.1-.2q.1-.1,.2-.1h33.7c.1,0,.2,0,.2,.1q.1,.1,.1,.2v8.1c0,.2-.1,.3-.3,.3h0Zm-37.7,13.3h3.4c.2,0,.3,.1,.3,.3h0v3.4c0,.2-.1,.3-.3,.3h-3.4c-.2,0-.3-.1-.3-.3h0v-3.4c-.1-.1,.1-.2,.3-.3h0Zm89.2,.5v3c0,.3-.2,.5-.5,.5h-41.8c-.2,0-.3-.1-.3-.3h0v-3.4c0-.2,.1-.3,.3-.3h41.8c.3,.1,.5,.3,.5,.5h0Zm-87,18.8l1.3-4.6h1.1l-1.9,6.1h-1l-1.9-6.1h1.1l1.3,4.6Zm17.4,.1h-1.9l-.4,1.4h-1l2-6.1h.9l2,6.1h-1.1l-.5-1.4Zm-1.6-.9h1.4l-.7-2.4-.7,2.4Zm16.2,1.5h2.9v.8h-3.9v-6.1h1v5.3h0Zm15.5-5.3h3.6v.8h-1.3v4.5h1.3v.8h-3.6v-.8h1.3v-4.4h-1.3v-.9Zm16.2,6.1v-6.1h1.5c.4,0,.8,.1,1.1,.2,.3,.1,.6,.3,.9,.6,.2,.3,.4,.6,.5,.9,.1,.4,.2,.8,.2,1.1v.5c0,.4-.1,.8-.2,1.1s-.3,.6-.5,.9c-.2,.3-.5,.5-.8,.6-.4,.1-.8,.2-1.2,.2h-1.5Zm1-5.3v4.5h.5c.3,0,.5-.1,.7-.2,.2-.1,.4-.2,.5-.4s.3-.4,.3-.6c.1-.3,.1-.5,.1-.8v-.5c0-.3,0-.6-.1-.8s-.2-.5-.3-.6c-.1-.2-.3-.3-.5-.4-.2-.1-.5-.2-.8-.2h-.4Zm18.4,3.9h-1.9l-.4,1.4h-1l2-6.1h.9l2,6.1h-1l-.6-1.4Zm-1.6-.9h1.4l-.7-2.4-.7,2.4Zm19.4-3h-1.9v5.3h-1v-5.3h-1.8v-.8h4.8l-.1,.8Zm16.3,2.6c0,.4,0,.7-.1,1s-.2,.6-.4,.9c-.2,.3-.4,.5-.7,.6-.3,.2-.6,.2-1,.2-.3,0-.7-.1-1-.2-.3-.2-.5-.4-.7-.6-.2-.3-.3-.6-.4-.9-.1-.3-.1-.7-.1-1v-.8c0-.2,0-.5,.1-.7,0-.2,.1-.4,.2-.6l.3-.6c.1-.2,.3-.3,.4-.5,.2-.1,.3-.2,.5-.3s.5-.1,.7-.1c.3,0,.7,.1,1,.2,.3,.1,.5,.4,.7,.6,.2,.3,.3,.6,.4,.9,.1,.3,.1,.7,.1,1v.9Zm-1-.7c0-.2,0-.5-.1-.7,0-.2-.1-.4-.2-.6-.1-.2-.2-.3-.4-.4-.2-.1-.4-.2-.6-.2s-.4,0-.6,.2c-.2,.1-.3,.3-.4,.4-.1,.2-.2,.4-.2,.6s-.1,.5-.1,.7v.8c0,.2,0,.5,.1,.7,0,.2,.1,.4,.2,.6,.1,.2,.2,.3,.4,.4,.2,.1,.4,.2,.6,.2s.4,0,.6-.2c.2-.1,.3-.3,.4-.4,.1-.2,.2-.4,.2-.6s.1-.5,.1-.7v-.8Zm15.3,1h-1v2.4h-1v-6.1h1.9c.3,0,.6,0,.9,.1,.2,.1,.5,.2,.7,.3,.2,.2,.4,.3,.5,.6s.2,.5,.2,.8c0,.2,0,.4-.1,.6-.1,.2-.1,.3-.2,.5-.1,.1-.2,.3-.4,.4-.1,.1-.3,.2-.5,.3l1.3,2.6h-1.1l-1.2-2.5Zm-1-.8h.9c.2,0,.3,0,.5-.1,.1,0,.3-.1,.4-.2,.1-.1,.2-.2,.2-.3,.1-.1,.1-.3,.1-.4,0-.2,0-.3-.1-.5,0-.1-.1-.2-.2-.3-.1-.1-.2-.2-.4-.2s-.3-.1-.5-.1h-.9v2.1h0Z"/>
</svg>