<?xml version="1.0" encoding="utf-8"?>
<!-- Generator: Adobe Illustrator 26.3.1, SVG Export Plug-In . SVG Version: 6.00 Build 0)  -->
<svg version="1.1" id="Group_144" xmlns="http://www.w3.org/2000/svg" xmlns:xlink="http://www.w3.org/1999/xlink" x="0px" y="0px"
	 viewBox="0 0 167.2 75.3" style="enable-background:new 0 0 167.2 75.3;" xml:space="preserve">
<style type="text/css">
	.st0{display:none;fill:#3468FA;}
	.st1{fill:#2163AF;}
</style>
<rect id="Rectangle_132" class="st0" width="167.2" height="75.3"/>
<path id="Path_480" class="st1" d="M109.7,14.7v15.9c0,0.2,0.1,0.3,0.3,0.3c0,0,0,0,0,0h41.5c0.3,0,0.5-0.2,0.5-0.5c0,0,0,0,0,0
	V14.7c0-0.3-0.2-0.5-0.5-0.5c0,0,0,0,0,0h-41.3c-0.1,0-0.3,0-0.3,0.1C109.7,14.4,109.7,14.6,109.7,14.7z M147.7,26.9H114
	c-0.2,0-0.3-0.1-0.3-0.3c0,0,0,0,0,0v-8.1c0-0.1,0-0.2,0.1-0.2c0.1-0.1,0.1-0.1,0.2-0.1h33.7c0.1,0,0.2,0,0.2,0.1
	c0.1,0.1,0.1,0.1,0.1,0.2v8.1C148,26.8,147.9,26.9,147.7,26.9C147.7,26.9,147.7,26.9,147.7,26.9L147.7,26.9z M110,40.2h3.4
	c0.2,0,0.3,0.1,0.3,0.3c0,0,0,0,0,0v3.4c0,0.2-0.1,0.3-0.3,0.3c0,0,0,0,0,0H110c-0.2,0-0.3-0.1-0.3-0.3c0,0,0,0,0,0v-3.4
	C109.7,40.4,109.8,40.3,110,40.2C110,40.2,110,40.2,110,40.2L110,40.2z M62.2,14.7v3.2c0,0.2,0.1,0.3,0.3,0.3c0,0,0,0,0,0h38
	c0.2,0,0.3,0.1,0.3,0.3c0,0,0,0,0,0v8.1c0,0.2-0.1,0.3-0.3,0.3c0,0,0,0,0,0h-38c-0.2,0-0.3,0.1-0.3,0.3c0,0,0,0,0,0v3.4
	c0,0.2,0.1,0.3,0.3,0.3c0,0,0,0,0,0h41.8c0.3,0,0.5-0.2,0.5-0.5c0,0,0,0,0,0V14.7c0-0.3-0.2-0.5-0.5-0.5c0,0,0,0,0,0H62.7
	C62.4,14.2,62.2,14.4,62.2,14.7L62.2,14.7z M15.2,15v15.6c0,0.2,0.1,0.3,0.3,0.3c0,0,0,0,0,0h41.2c0.2,0,0.4-0.1,0.6-0.2
	c0.2-0.2,0.2-0.4,0.2-0.6V15c0-0.4-0.4-0.8-0.8-0.8H16C15.6,14.2,15.2,14.6,15.2,15L15.2,15z M53.3,26.9H19.6
	c-0.2,0-0.3-0.1-0.3-0.3c0,0,0,0,0,0v-8.1c0-0.1,0-0.2,0.1-0.2c0.1-0.1,0.1-0.1,0.2-0.1h33.7c0.1,0,0.2,0,0.2,0.1
	c0.1,0.1,0.1,0.1,0.1,0.2v8.1C53.6,26.8,53.5,26.9,53.3,26.9C53.3,26.9,53.3,26.9,53.3,26.9L53.3,26.9z M15.6,40.2h3.4
	c0.2,0,0.3,0.1,0.3,0.3c0,0,0,0,0,0v3.4c0,0.2-0.1,0.3-0.3,0.3c0,0,0,0,0,0h-3.4c-0.2,0-0.3-0.1-0.3-0.3c0,0,0,0,0,0v-3.4
	C15.2,40.4,15.4,40.3,15.6,40.2L15.6,40.2z M104.8,40.7v3c0,0.3-0.2,0.5-0.5,0.5c0,0,0,0,0,0H62.5c-0.2,0-0.3-0.1-0.3-0.3
	c0,0,0,0,0,0v-3.4c0-0.2,0.1-0.3,0.3-0.3c0,0,0,0,0,0h41.8C104.6,40.3,104.8,40.5,104.8,40.7L104.8,40.7z M17.8,59.5l1.3-4.6h1.1
	L18.3,61h-1l-1.9-6.1h1.1L17.8,59.5z M35.2,59.6h-1.9L32.9,61h-1l2-6.1h0.9l2,6.1h-1.1L35.2,59.6z M33.6,58.7H35l-0.7-2.4L33.6,58.7
	z M49.8,60.2h2.9V61h-3.9v-6.1h1L49.8,60.2L49.8,60.2z M65.3,54.9h3.6v0.8h-1.3v4.5h1.3V61h-3.6v-0.8h1.3v-4.4h-1.3V54.9z M81.5,61
	v-6.1H83c0.4,0,0.8,0.1,1.1,0.2c0.3,0.1,0.6,0.3,0.9,0.6c0.2,0.3,0.4,0.6,0.5,0.9c0.1,0.4,0.2,0.8,0.2,1.1v0.5
	c0,0.4-0.1,0.8-0.2,1.1c-0.1,0.3-0.3,0.6-0.5,0.9c-0.2,0.3-0.5,0.5-0.8,0.6C83.8,60.9,83.4,61,83,61L81.5,61L81.5,61z M82.5,55.7
	v4.5H83c0.3,0,0.5-0.1,0.7-0.2c0.2-0.1,0.4-0.2,0.5-0.4c0.1-0.2,0.3-0.4,0.3-0.6c0.1-0.3,0.1-0.5,0.1-0.8v-0.5c0-0.3,0-0.6-0.1-0.8
	c-0.1-0.2-0.2-0.5-0.3-0.6c-0.1-0.2-0.3-0.3-0.5-0.4c-0.2-0.1-0.5-0.2-0.8-0.2L82.5,55.7z M100.9,59.6H99L98.6,61h-1l2-6.1h0.9
	l2,6.1h-1L100.9,59.6z M99.3,58.7h1.4l-0.7-2.4L99.3,58.7z M118.7,55.7h-1.9V61h-1v-5.3H114v-0.8h4.8L118.7,55.7z M135,58.3
	c0,0.4,0,0.7-0.1,1c-0.1,0.3-0.2,0.6-0.4,0.9c-0.2,0.3-0.4,0.5-0.7,0.6c-0.3,0.2-0.6,0.2-1,0.2c-0.3,0-0.7-0.1-1-0.2
	c-0.3-0.2-0.5-0.4-0.7-0.6c-0.2-0.3-0.3-0.6-0.4-0.9c-0.1-0.3-0.1-0.7-0.1-1v-0.8c0-0.2,0-0.5,0.1-0.7c0-0.2,0.1-0.4,0.2-0.6
	c0.1-0.2,0.2-0.4,0.3-0.6c0.1-0.2,0.3-0.3,0.4-0.5c0.2-0.1,0.3-0.2,0.5-0.3c0.2-0.1,0.5-0.1,0.7-0.1c0.3,0,0.7,0.1,1,0.2
	c0.3,0.1,0.5,0.4,0.7,0.6c0.2,0.3,0.3,0.6,0.4,0.9c0.1,0.3,0.1,0.7,0.1,1L135,58.3z M134,57.6c0-0.2,0-0.5-0.1-0.7
	c0-0.2-0.1-0.4-0.2-0.6c-0.1-0.2-0.2-0.3-0.4-0.4c-0.2-0.1-0.4-0.2-0.6-0.2c-0.2,0-0.4,0-0.6,0.2c-0.2,0.1-0.3,0.3-0.4,0.4
	c-0.1,0.2-0.2,0.4-0.2,0.6c0,0.2-0.1,0.5-0.1,0.7v0.8c0,0.2,0,0.5,0.1,0.7c0,0.2,0.1,0.4,0.2,0.6c0.1,0.2,0.2,0.3,0.4,0.4
	c0.2,0.1,0.4,0.2,0.6,0.2c0.2,0,0.4,0,0.6-0.2c0.2-0.1,0.3-0.3,0.4-0.4c0.1-0.2,0.2-0.4,0.2-0.6c0-0.2,0.1-0.5,0.1-0.7V57.6z
	 M149.3,58.6h-1V61h-1v-6.1h1.9c0.3,0,0.6,0,0.9,0.1c0.2,0.1,0.5,0.2,0.7,0.3c0.2,0.2,0.4,0.3,0.5,0.6c0.1,0.3,0.2,0.5,0.2,0.8
	c0,0.2,0,0.4-0.1,0.6c-0.1,0.2-0.1,0.3-0.2,0.5c-0.1,0.1-0.2,0.3-0.4,0.4c-0.1,0.1-0.3,0.2-0.5,0.3l1.3,2.6v0h-1.1L149.3,58.6z
	 M148.3,57.8h0.9c0.2,0,0.3,0,0.5-0.1c0.1,0,0.3-0.1,0.4-0.2c0.1-0.1,0.2-0.2,0.2-0.3c0.1-0.1,0.1-0.3,0.1-0.4c0-0.2,0-0.3-0.1-0.5
	c0-0.1-0.1-0.2-0.2-0.3c-0.1-0.1-0.2-0.2-0.4-0.2c-0.2,0-0.3-0.1-0.5-0.1h-0.9L148.3,57.8L148.3,57.8z"/>
</svg>
