<svg id="Group_144" data-name="Group 144" xmlns="http://www.w3.org/2000/svg" width="167.248" height="75.323" viewBox="0 0 167.248 75.323">
  <rect id="Rectangle_132" data-name="Rectangle 132" width="167.248" height="75.323" fill="#3468fa"/>
  <path id="Path_480" data-name="Path 480" d="M-266.314,454.372v15.913a.311.311,0,0,0,.32.317h41.532a.468.468,0,0,0,.48-.478V454.372a.468.468,0,0,0-.48-.478h-41.35a.464.464,0,0,0-.341.138A.41.41,0,0,0-266.314,454.372Zm38.022,12.242h-33.691a.311.311,0,0,1-.317-.32V458.2a.283.283,0,0,1,.091-.226.285.285,0,0,1,.226-.093h33.691a.29.29,0,0,1,.229.093.29.29,0,0,1,.091.226v8.093A.311.311,0,0,1-228.292,466.614Zm-37.7,13.312h3.375a.313.313,0,0,1,.319.319V483.6a.311.311,0,0,1-.319.317h-3.375a.311.311,0,0,1-.32-.317v-3.351A.313.313,0,0,1-265.995,479.926Zm-47.825-25.554v3.193a.311.311,0,0,0,.32.317h37.955a.313.313,0,0,1,.32.32v8.093a.313.313,0,0,1-.32.32H-313.5a.313.313,0,0,0-.32.319v3.351a.311.311,0,0,0,.32.317h41.784a.467.467,0,0,0,.478-.478V454.372a.467.467,0,0,0-.478-.478h-41.623A.482.482,0,0,0-313.819,454.372Zm-46.934.319v15.593a.309.309,0,0,0,.319.317h41.213a.9.9,0,0,0,.569-.226.792.792,0,0,0,.229-.571V454.691a.806.806,0,0,0-.8-.8h-40.735A.806.806,0,0,0-360.753,454.691Zm38.022,11.922h-33.691a.313.313,0,0,1-.319-.32V458.2a.29.29,0,0,1,.091-.226.29.29,0,0,1,.229-.093h33.691a.285.285,0,0,1,.226.093.285.285,0,0,1,.093.226v8.093A.313.313,0,0,1-322.731,466.614Zm-37.7,13.312h3.372a.313.313,0,0,1,.32.319V483.6a.311.311,0,0,1-.32.317h-3.372a.309.309,0,0,1-.319-.317v-3.351A.326.326,0,0,1-360.434,479.926Zm89.219.478v3.032a.467.467,0,0,1-.478.478h-41.784a.311.311,0,0,1-.32-.317v-3.351a.313.313,0,0,1,.32-.319h41.784A.482.482,0,0,1-271.214,480.4Zm-86.987,18.76,1.278-4.58h1.094l-1.891,6.131h-.959l-1.915-6.131h1.117Zm17.438.114h-1.915l-.408,1.413h-1.049l2.006-6.131h.889l1.961,6.131h-1.073Zm-1.64-.865h1.413l-.707-2.4Zm16.207,1.481h2.918v.821h-3.944v-6.131h1v5.31Zm15.456-5.31h3.648v.819h-1.322v4.469h1.322v.821h-3.648v-.821h1.3v-4.445h-1.3Zm16.23,6.131v-6.131h1.5a3.242,3.242,0,0,1,1.14.205,2.393,2.393,0,0,1,.865.592,2.389,2.389,0,0,1,.548.889,3.276,3.276,0,0,1,.205,1.14v.455a3.3,3.3,0,0,1-.205,1.141,2.251,2.251,0,0,1-.548.889,2.492,2.492,0,0,1-.844.592,3.1,3.1,0,0,1-1.115.205h-1.551Zm1.026-5.313v4.492h.5a1.655,1.655,0,0,0,.73-.159,1.341,1.341,0,0,0,.522-.41,2.077,2.077,0,0,0,.319-.639,3.43,3.43,0,0,0,.114-.821v-.478a2.557,2.557,0,0,0-.114-.821,1.649,1.649,0,0,0-.319-.639,1.32,1.32,0,0,0-.522-.41,1.715,1.715,0,0,0-.753-.159Zm18.418,3.876h-1.915l-.41,1.413h-1.047l2.006-6.131h.889l1.959,6.131h-1.047Zm-1.642-.865h1.413l-.683-2.4Zm19.446-3.011h-1.894v5.289h-1V495.4h-1.868v-.819h4.765Zm16.23,2.621a4.156,4.156,0,0,1-.138,1.049,3.147,3.147,0,0,1-.41.889,1.875,1.875,0,0,1-.683.592,2.054,2.054,0,0,1-.98.229,1.966,1.966,0,0,1-.959-.229,2.213,2.213,0,0,1-.683-.613,3.384,3.384,0,0,1-.41-.868,4.025,4.025,0,0,1-.138-1.049v-.774a3.631,3.631,0,0,1,.07-.707,2.824,2.824,0,0,1,.182-.637,2.653,2.653,0,0,1,.3-.571,2.5,2.5,0,0,1,.41-.455,2.041,2.041,0,0,1,.546-.3,2.346,2.346,0,0,1,.686-.114,2.08,2.08,0,0,1,.98.226,1.984,1.984,0,0,1,.683.616,3.19,3.19,0,0,1,.41.891,4,4,0,0,1,.138,1.047Zm-1-.774a3.4,3.4,0,0,0-.07-.683,1.6,1.6,0,0,0-.205-.616,1.269,1.269,0,0,0-.364-.41.829.829,0,0,0-.569-.159.983.983,0,0,0-.571.159,1.321,1.321,0,0,0-.364.434,1.72,1.72,0,0,0-.182.616,6.707,6.707,0,0,0-.07.683v.751a3.418,3.418,0,0,0,.07.686,2.053,2.053,0,0,0,.182.616,1.131,1.131,0,0,0,.364.431.84.84,0,0,0,.571.161.973.973,0,0,0,.569-.161,1.338,1.338,0,0,0,.364-.431,2.447,2.447,0,0,0,.205-.616,3.42,3.42,0,0,0,.07-.686Zm15.318,1.073h-1.026v2.393h-1v-6.131h1.938a3.63,3.63,0,0,1,.865.112,1.963,1.963,0,0,1,.683.343,1.609,1.609,0,0,1,.457.569,2.027,2.027,0,0,1,.159.821,1.685,1.685,0,0,1-.091.571,1.7,1.7,0,0,1-.229.455,1.8,1.8,0,0,1-.364.366,3.148,3.148,0,0,1-.457.273l1.3,2.575v.047h-1.073Zm-1.026-.821h.935a1.44,1.44,0,0,0,.455-.07,1.138,1.138,0,0,0,.366-.205,1.144,1.144,0,0,0,.25-.317,1,1,0,0,0,.091-.434,1.514,1.514,0,0,0-.068-.457.924.924,0,0,0-.229-.34,1.153,1.153,0,0,0-.364-.205,1.714,1.714,0,0,0-.481-.07h-.933v2.1Z" transform="translate(375.993 -439.678)" fill="#fff"/>
</svg>
