<?xml version="1.0" encoding="UTF-8"?>
<svg xmlns="http://www.w3.org/2000/svg" xmlns:xlink="http://www.w3.org/1999/xlink" width="300" height="60" viewBox="0 0 300 60" version="1.1">
<g id="surface1">
<path style=" stroke:none;fill-rule:nonzero;fill:rgb(14.901961%,40%,69.019608%);fill-opacity:1;" d="M 196.699219 11.714844 L 196.699219 24.382812 C 196.699219 24.542969 196.878906 24.621094 197.234375 24.621094 L 271.488281 24.621094 C 272.027344 24.621094 272.382812 24.460938 272.382812 24.222656 L 272.382812 11.714844 C 272.382812 11.472656 272.027344 11.316406 271.488281 11.316406 L 197.59375 11.316406 C 197.414062 11.316406 197.058594 11.316406 197.058594 11.394531 C 196.699219 11.472656 196.699219 11.632812 196.699219 11.714844 Z M 264.691406 21.433594 L 204.394531 21.433594 C 204.035156 21.433594 203.855469 21.355469 203.855469 21.195312 L 203.855469 14.742188 C 203.855469 14.660156 203.855469 14.582031 204.035156 14.582031 C 204.214844 14.503906 204.214844 14.503906 204.394531 14.503906 L 264.691406 14.503906 C 264.871094 14.503906 265.046875 14.503906 265.046875 14.582031 C 265.226562 14.660156 265.226562 14.660156 265.226562 14.742188 L 265.226562 21.195312 C 265.226562 21.355469 265.046875 21.433594 264.691406 21.433594 Z M 197.234375 32.03125 L 203.320312 32.03125 C 203.675781 32.03125 203.855469 32.113281 203.855469 32.269531 L 203.855469 34.980469 C 203.855469 35.140625 203.675781 35.21875 203.320312 35.21875 L 197.234375 35.21875 C 196.878906 35.21875 196.699219 35.140625 196.699219 34.980469 L 196.699219 32.269531 C 196.699219 32.191406 196.878906 32.113281 197.234375 32.03125 Z M 111.710938 11.714844 L 111.710938 14.261719 C 111.710938 14.421875 111.890625 14.503906 112.246094 14.503906 L 180.238281 14.503906 C 180.597656 14.503906 180.773438 14.582031 180.773438 14.742188 L 180.773438 21.195312 C 180.773438 21.355469 180.597656 21.433594 180.238281 21.433594 L 112.246094 21.433594 C 111.890625 21.433594 111.710938 21.515625 111.710938 21.671875 L 111.710938 24.382812 C 111.710938 24.542969 111.890625 24.621094 112.246094 24.621094 L 187.039062 24.621094 C 187.574219 24.621094 187.933594 24.460938 187.933594 24.222656 L 187.933594 11.714844 C 187.933594 11.472656 187.574219 11.316406 187.039062 11.316406 L 112.605469 11.316406 C 112.066406 11.316406 111.710938 11.472656 111.710938 11.714844 Z M 27.617188 11.953125 L 27.617188 24.382812 C 27.617188 24.542969 27.792969 24.621094 28.152344 24.621094 L 101.871094 24.621094 C 102.226562 24.621094 102.585938 24.542969 102.941406 24.460938 C 103.300781 24.304688 103.300781 24.144531 103.300781 23.984375 L 103.300781 11.953125 C 103.300781 11.632812 102.585938 11.316406 101.871094 11.316406 L 29.046875 11.316406 C 28.332031 11.316406 27.617188 11.632812 27.617188 11.953125 Z M 95.785156 21.433594 L 35.488281 21.433594 C 35.128906 21.433594 34.953125 21.355469 34.953125 21.195312 L 34.953125 14.742188 C 34.953125 14.660156 34.953125 14.582031 35.128906 14.582031 C 35.308594 14.503906 35.308594 14.503906 35.488281 14.503906 L 95.785156 14.503906 C 95.964844 14.503906 96.144531 14.503906 96.144531 14.582031 C 96.324219 14.660156 96.324219 14.660156 96.324219 14.742188 L 96.324219 21.195312 C 96.324219 21.355469 96.144531 21.433594 95.785156 21.433594 Z M 28.332031 32.03125 L 34.414062 32.03125 C 34.773438 32.03125 34.953125 32.113281 34.953125 32.269531 L 34.953125 34.980469 C 34.953125 35.140625 34.773438 35.21875 34.414062 35.21875 L 28.332031 35.21875 C 27.972656 35.21875 27.792969 35.140625 27.792969 34.980469 L 27.792969 32.269531 C 27.617188 32.191406 27.972656 32.113281 28.332031 32.03125 Z M 187.933594 32.429688 L 187.933594 34.820312 C 187.933594 35.058594 187.574219 35.21875 187.039062 35.21875 L 112.246094 35.21875 C 111.890625 35.21875 111.710938 35.140625 111.710938 34.980469 L 111.710938 32.269531 C 111.710938 32.113281 111.890625 32.03125 112.246094 32.03125 L 187.039062 32.03125 C 187.574219 32.113281 187.933594 32.269531 187.933594 32.429688 Z M 32.265625 47.410156 L 34.59375 43.746094 L 36.5625 43.746094 L 33.160156 48.605469 L 31.371094 48.605469 L 27.972656 43.746094 L 29.941406 43.746094 Z M 63.398438 47.488281 L 60 47.488281 L 59.285156 48.605469 L 57.496094 48.605469 L 61.074219 43.746094 L 62.683594 43.746094 L 66.261719 48.605469 L 64.292969 48.605469 Z M 60.539062 46.773438 L 63.042969 46.773438 L 61.789062 44.859375 Z M 89.523438 47.96875 L 94.710938 47.96875 L 94.710938 48.605469 L 87.734375 48.605469 L 87.734375 43.746094 L 89.523438 43.746094 Z M 117.257812 43.746094 L 123.699219 43.746094 L 123.699219 44.382812 L 121.371094 44.382812 L 121.371094 47.96875 L 123.699219 47.96875 L 123.699219 48.605469 L 117.257812 48.605469 L 117.257812 47.96875 L 119.582031 47.96875 L 119.582031 44.460938 L 117.257812 44.460938 Z M 146.242188 48.605469 L 146.242188 43.746094 L 148.925781 43.746094 C 149.640625 43.746094 150.359375 43.824219 150.894531 43.90625 C 151.429688 43.984375 151.96875 44.144531 152.503906 44.382812 C 152.863281 44.621094 153.21875 44.859375 153.398438 45.097656 C 153.578125 45.417969 153.757812 45.738281 153.757812 45.976562 L 153.757812 46.375 C 153.757812 46.691406 153.578125 47.011719 153.398438 47.25 C 153.21875 47.488281 152.863281 47.730469 152.503906 47.96875 C 152.148438 48.207031 151.609375 48.367188 151.074219 48.445312 C 150.359375 48.527344 149.640625 48.605469 148.925781 48.605469 Z M 148.03125 44.382812 L 148.03125 47.96875 L 148.925781 47.96875 C 149.464844 47.96875 149.820312 47.886719 150.179688 47.808594 C 150.535156 47.730469 150.894531 47.648438 151.074219 47.488281 C 151.253906 47.332031 151.609375 47.171875 151.609375 47.011719 C 151.789062 46.773438 151.789062 46.613281 151.789062 46.375 L 151.789062 45.976562 C 151.789062 45.738281 151.789062 45.496094 151.609375 45.339844 C 151.429688 45.179688 151.253906 44.941406 151.074219 44.859375 C 150.894531 44.703125 150.535156 44.621094 150.179688 44.542969 C 149.820312 44.460938 149.285156 44.382812 148.746094 44.382812 Z M 180.953125 47.488281 L 177.554688 47.488281 L 176.839844 48.605469 L 175.050781 48.605469 L 178.628906 43.746094 L 180.238281 43.746094 L 183.816406 48.605469 L 182.027344 48.605469 Z M 178.089844 46.773438 L 180.597656 46.773438 L 179.34375 44.859375 Z M 212.800781 44.382812 L 209.402344 44.382812 L 209.402344 48.605469 L 207.613281 48.605469 L 207.613281 44.382812 L 204.394531 44.382812 L 204.394531 43.746094 L 212.980469 43.746094 Z M 241.96875 46.453125 C 241.96875 46.773438 241.96875 47.011719 241.789062 47.25 C 241.609375 47.488281 241.429688 47.730469 241.074219 47.96875 C 240.714844 48.207031 240.355469 48.367188 239.820312 48.445312 C 239.285156 48.605469 238.746094 48.605469 238.03125 48.605469 C 237.496094 48.605469 236.777344 48.527344 236.242188 48.445312 C 235.707031 48.285156 235.347656 48.128906 234.988281 47.96875 C 234.632812 47.730469 234.453125 47.488281 234.273438 47.25 C 234.09375 47.011719 234.09375 46.691406 234.09375 46.453125 L 234.09375 45.816406 C 234.09375 45.65625 234.09375 45.417969 234.273438 45.257812 C 234.273438 45.097656 234.453125 44.941406 234.632812 44.78125 C 234.808594 44.621094 234.988281 44.460938 235.167969 44.304688 C 235.347656 44.144531 235.707031 44.0625 235.882812 43.90625 C 236.242188 43.824219 236.421875 43.746094 236.777344 43.664062 C 237.136719 43.585938 237.671875 43.585938 238.03125 43.585938 C 238.566406 43.585938 239.285156 43.664062 239.820312 43.746094 C 240.355469 43.824219 240.714844 44.0625 241.074219 44.222656 C 241.429688 44.460938 241.609375 44.703125 241.789062 44.941406 C 241.96875 45.179688 241.96875 45.496094 241.96875 45.738281 Z M 240.179688 45.894531 C 240.179688 45.738281 240.179688 45.496094 240 45.339844 C 240 45.179688 239.820312 45.019531 239.640625 44.859375 C 239.460938 44.703125 239.285156 44.621094 238.925781 44.542969 C 238.566406 44.460938 238.210938 44.382812 237.851562 44.382812 C 237.496094 44.382812 237.136719 44.382812 236.777344 44.542969 C 236.421875 44.621094 236.242188 44.78125 236.0625 44.859375 C 235.882812 45.019531 235.707031 45.179688 235.707031 45.339844 C 235.707031 45.496094 235.527344 45.738281 235.527344 45.894531 L 235.527344 46.535156 C 235.527344 46.691406 235.527344 46.933594 235.707031 47.089844 C 235.707031 47.25 235.882812 47.410156 236.0625 47.570312 C 236.242188 47.730469 236.421875 47.808594 236.777344 47.886719 C 237.136719 47.96875 237.496094 48.046875 237.851562 48.046875 C 238.210938 48.046875 238.566406 48.046875 238.925781 47.886719 C 239.285156 47.808594 239.460938 47.648438 239.640625 47.570312 C 239.820312 47.410156 240 47.25 240 47.089844 C 240 46.933594 240.179688 46.691406 240.179688 46.535156 Z M 267.554688 46.691406 L 265.765625 46.691406 L 265.765625 48.605469 L 263.976562 48.605469 L 263.976562 43.746094 L 267.375 43.746094 C 267.910156 43.746094 268.449219 43.746094 268.984375 43.824219 C 269.34375 43.90625 269.878906 43.984375 270.238281 44.0625 C 270.59375 44.222656 270.953125 44.304688 271.132812 44.542969 C 271.3125 44.78125 271.488281 44.941406 271.488281 45.179688 C 271.488281 45.339844 271.488281 45.496094 271.3125 45.65625 C 271.132812 45.816406 271.132812 45.894531 270.953125 46.054688 C 270.773438 46.136719 270.59375 46.292969 270.238281 46.375 C 270.058594 46.453125 269.699219 46.535156 269.34375 46.613281 L 271.667969 48.683594 L 269.699219 48.683594 Z M 265.765625 46.054688 L 267.375 46.054688 C 267.734375 46.054688 267.910156 46.054688 268.269531 45.976562 C 268.449219 45.976562 268.804688 45.894531 268.984375 45.816406 C 269.164062 45.738281 269.34375 45.65625 269.34375 45.578125 C 269.523438 45.496094 269.523438 45.339844 269.523438 45.257812 C 269.523438 45.097656 269.523438 45.019531 269.34375 44.859375 C 269.34375 44.78125 269.164062 44.703125 268.984375 44.621094 C 268.804688 44.542969 268.628906 44.460938 268.269531 44.460938 C 267.910156 44.460938 267.734375 44.382812 267.375 44.382812 L 265.765625 44.382812 Z M 265.765625 46.054688 "/>
</g>
</svg>
