<?xml version="1.0" encoding="UTF-8"?>
<svg id="katman_1" data-name="katman 1" xmlns="http://www.w3.org/2000/svg" viewBox="0 0 300 100">
  <g id="Group_161" data-name="Group 161" transform="translate(879.235 -222.48)">
    <path id="Path_620" data-name="Path 620" d="M70.7,62h-21.26v-21.34h21.26v21.34Zm-9.77-3.83v-13.68h-1.79v13.68h1.79Zm2.44-4.4q1.87,.33,1.87-1.47v-6.35c0-1.71-.16-1.79-1.87-1.3v9.12Zm-6.68-9.37c-.73,.24-1.79-.57-1.87,.65-.16,2.93,0,5.86,0,8.8h1.87v-9.45Z"/>
    <path id="Path_621" data-name="Path 621" d="M223.34,52.8l3.18,4.64c-1.47,.57-2.12,.41-3.01-.73-.73-1.06-1.47-2.2-2.28-3.26-.24-.33-.57-.65-.9-.65-2.04-.08-3.99,0-6.11,0v4.89h-2.04v-12.79h10.1c2.2,0,3.75,1.14,4.15,3.01,.49,1.95-.49,3.75-2.52,4.64-.08,0-.24,.08-.57,.24Zm-9.04-1.95c2.93,0,5.7,.08,8.55,0,1.06-.08,1.87-.98,1.79-2.04v-.16c0-1.06-.81-1.95-1.87-1.95-1.55-.08-3.01-.08-4.56-.08h-3.91v4.24Z"/>
    <path id="Path_622" data-name="Path 622" d="M148.81,57.6c-1.47,.49-3.01,0-3.91-1.22-2.36-2.77-4.97-5.46-7.49-8.15-.24-.33-.49-.65-.65-.98l-.41,.24v10.1h-2.04v-12.71c1.3-.24,2.52-.33,3.58,.9,2.77,3.18,5.7,6.19,8.8,9.53v-10.51h2.12v12.79Z"/>
    <path id="Path_623" data-name="Path 623" d="M196.3,52.23c-1.95,0-3.99,.08-5.95,0-1.14-.08-1.63,.24-1.47,1.47,.08,.73,.08,1.47,0,2.12h11.24c.41,1.87,.33,1.95-1.38,1.95h-10.59c-.41,0-.9,0-1.38-.08v-12.87h12.3c.65,0,1.14-.08,1.22,.9,0,.98-.57,.98-1.22,.98h-8.8c-.41,0-.9,0-1.22,.08-.08,.08-.08,.24-.16,.33q-.33,3.26,2.85,3.26h3.26c1.63-.08,1.71,0,1.3,1.87Z"/>
    <path id="Path_624" data-name="Path 624" d="M84.71,57.6h-2.04v-12.71c.41,0,.73-.08,1.06-.08h9.29c2.2-.08,4.07,1.63,4.15,3.83v.16c0,2.2-1.71,3.91-3.91,3.99h-.08c-2.44,.08-4.89,.08-7.33,0-.9,0-1.22,.24-1.14,1.14,.08,1.14,0,2.36,0,3.67Zm.08-6.76h8.39c1.14,0,2.04-.9,2.04-2.04,.08-1.06-.65-1.95-1.71-2.12h-.08c-2.85-.08-5.7,0-8.72,0v4.15h.08Z"/>
    <path id="Path_625" data-name="Path 625" d="M254.05,57.6c-1.38,.33-2.44,.08-2.85-1.38-.33-1.22-1.22-1.55-2.44-1.47-1.79,.08-3.5,.08-5.29,0-1.14-.24-2.2,.49-2.52,1.55-.65,1.63-.81,1.63-2.93,1.22,1.14-2.2,2.28-4.4,3.5-6.6,.98-1.79,1.87-3.58,2.85-5.38,.57-.98,2.85-1.14,3.34-.16,2.12,3.99,4.24,7.9,6.27,11.89,.08,.08,.08,.16,.08,.33Zm-7.9-11l-3.34,6.27h6.6l-3.26-6.27Z"/>
    <path id="Path_626" data-name="Path 626" d="M106.21,57.6c.41-.81,.81-1.55,1.22-2.36,1.71-3.26,3.42-6.43,5.13-9.69,.57-1.06,2.85-1.14,3.42-.08,2.12,3.91,4.15,7.9,6.27,11.81v.24c-1.63,.57-2.04,.49-2.69-1.06-.33-1.22-1.55-1.95-2.85-1.71-1.71,.16-3.42,.16-5.13,0-1.06-.16-2.04,.41-2.36,1.47-.81,1.71-.9,1.71-3.01,1.38Zm4.81-4.81h6.6l-3.26-6.19-3.34,6.19Z"/>
    <path id="Path_627" data-name="Path 627" d="M168.85,57.68h-2.12v-11h-6.19v-1.79h14.34v1.79h-6.11l.08,11Z"/>
  </g>
</svg>