<?xml version="1.0" encoding="UTF-8"?>
<svg xmlns="http://www.w3.org/2000/svg" xmlns:xlink="http://www.w3.org/1999/xlink" width="300" height="60" viewBox="0 0 300 60" version="1.1">
<g id="surface1">
<path style=" stroke:none;fill-rule:nonzero;fill:rgb(14.901961%,40%,69.019608%);fill-opacity:1;" d="M 32.023438 60.046875 L 1.066406 60.046875 L 1.066406 0.046875 L 32.023438 0.046875 Z M 17.792969 49.28125 L 17.792969 10.808594 L 15.183594 10.808594 L 15.183594 49.28125 Z M 21.351562 36.917969 C 24.078125 37.832031 24.078125 37.832031 24.078125 32.792969 C 24.078125 26.839844 24.078125 20.886719 24.078125 14.929688 C 24.078125 10.121094 23.839844 9.894531 21.351562 11.265625 Z M 11.625 10.582031 C 10.558594 11.265625 9.015625 8.976562 8.894531 12.414062 C 8.660156 20.65625 8.894531 28.902344 8.894531 37.144531 L 11.625 37.144531 Z M 11.625 10.582031 "/>
<path style=" stroke:none;fill-rule:nonzero;fill:rgb(14.901961%,40%,69.019608%);fill-opacity:1;" d="M 254.300781 34.167969 L 258.925781 47.222656 C 256.789062 48.824219 255.839844 48.367188 254.535156 45.160156 C 253.46875 42.183594 252.402344 38.976562 251.214844 36 C 250.859375 35.082031 250.386719 34.167969 249.910156 34.167969 C 246.945312 33.9375 244.097656 34.167969 241.015625 34.167969 L 241.015625 47.910156 L 238.050781 47.910156 L 238.050781 11.953125 L 244.574219 11.953125 C 247.300781 11.953125 250.03125 11.953125 252.757812 11.953125 C 255.960938 11.953125 258.214844 15.160156 258.804688 20.425781 C 259.519531 25.921875 258.09375 30.960938 255.128906 33.480469 C 255.011719 33.480469 254.773438 33.710938 254.300781 34.167969 Z M 241.132812 28.671875 C 245.402344 28.671875 249.4375 28.902344 253.585938 28.671875 C 255.128906 28.441406 256.316406 25.921875 256.195312 22.945312 C 256.195312 22.71875 256.195312 22.71875 256.195312 22.488281 C 256.195312 19.511719 255.011719 16.992188 253.46875 16.992188 C 251.214844 16.761719 249.082031 16.761719 246.828125 16.761719 C 244.929688 16.761719 243.03125 16.761719 241.132812 16.761719 Z M 241.132812 28.671875 "/>
<path style=" stroke:none;fill-rule:nonzero;fill:rgb(14.901961%,40%,69.019608%);fill-opacity:1;" d="M 145.773438 47.679688 C 143.636719 49.054688 141.382812 47.679688 140.078125 44.246094 C 136.636719 36.457031 132.84375 28.902344 129.167969 21.34375 C 128.808594 20.425781 128.453125 19.511719 128.21875 18.59375 L 127.625 19.28125 L 127.625 47.679688 L 124.660156 47.679688 L 124.660156 11.953125 C 126.558594 11.265625 128.335938 11.039062 129.878906 14.472656 C 133.910156 23.40625 138.179688 31.878906 142.6875 41.265625 L 142.6875 11.726562 L 145.773438 11.726562 Z M 145.773438 47.679688 "/>
<path style=" stroke:none;fill-rule:nonzero;fill:rgb(14.901961%,40%,69.019608%);fill-opacity:1;" d="M 214.921875 32.566406 C 212.074219 32.566406 209.109375 32.792969 206.261719 32.566406 C 204.601562 32.335938 203.890625 33.25 204.128906 36.6875 C 204.246094 38.75 204.246094 40.808594 204.128906 42.640625 L 220.496094 42.640625 C 221.089844 47.910156 220.96875 48.136719 218.480469 48.136719 C 213.378906 48.136719 208.160156 48.136719 203.058594 48.136719 C 202.46875 48.136719 201.753906 48.136719 201.042969 47.910156 L 201.042969 11.726562 L 203.179688 11.726562 C 208.398438 11.726562 213.734375 11.726562 218.953125 11.726562 C 219.902344 11.726562 220.613281 11.496094 220.734375 14.246094 C 220.734375 16.992188 219.902344 16.992188 218.953125 16.992188 C 214.683594 16.992188 210.414062 16.992188 206.144531 16.992188 C 205.550781 16.992188 204.839844 16.992188 204.363281 17.222656 C 204.246094 17.449219 204.246094 17.910156 204.128906 18.136719 C 203.652344 27.296875 203.652344 27.296875 208.277344 27.296875 C 209.820312 27.296875 211.480469 27.296875 213.023438 27.296875 C 215.394531 27.070312 215.515625 27.296875 214.921875 32.566406 Z M 214.921875 32.566406 "/>
<path style=" stroke:none;fill-rule:nonzero;fill:rgb(14.901961%,40%,69.019608%);fill-opacity:1;" d="M 52.425781 47.679688 L 49.460938 47.679688 L 49.460938 11.953125 C 50.054688 11.953125 50.527344 11.726562 51.003906 11.726562 C 55.507812 11.726562 60.015625 11.726562 64.523438 11.726562 C 67.726562 11.496094 70.453125 16.304688 70.574219 22.488281 C 70.574219 22.71875 70.574219 22.71875 70.574219 22.945312 C 70.574219 29.128906 68.082031 33.9375 64.878906 34.167969 C 64.878906 34.167969 64.761719 34.167969 64.761719 34.167969 C 61.203125 34.398438 57.644531 34.398438 54.085938 34.167969 C 52.78125 34.167969 52.308594 34.855469 52.425781 37.375 C 52.542969 40.582031 52.425781 44.015625 52.425781 47.679688 Z M 52.542969 28.671875 C 56.8125 28.671875 60.847656 28.671875 64.761719 28.671875 C 66.421875 28.671875 67.726562 26.152344 67.726562 22.945312 C 67.84375 19.96875 66.777344 17.449219 65.234375 16.992188 C 65.234375 16.992188 65.234375 16.992188 65.117188 16.992188 C 60.964844 16.761719 56.8125 16.992188 52.425781 16.992188 L 52.425781 28.671875 Z M 52.542969 28.671875 "/>
<path style=" stroke:none;fill-rule:nonzero;fill:rgb(14.901961%,40%,69.019608%);fill-opacity:1;" d="M 299.015625 47.679688 C 297 48.59375 295.457031 47.910156 294.863281 43.785156 C 294.390625 40.351562 293.085938 39.433594 291.304688 39.664062 C 288.695312 39.894531 286.207031 39.894531 283.597656 39.664062 C 281.933594 38.976562 280.394531 41.039062 279.917969 44.015625 C 278.96875 48.59375 278.734375 48.59375 275.648438 47.449219 C 277.308594 41.265625 278.96875 35.082031 280.75 28.902344 C 282.171875 23.863281 283.476562 18.824219 284.902344 13.785156 C 285.730469 11.039062 289.050781 10.582031 289.761719 13.328125 C 292.847656 24.550781 295.929688 35.542969 298.894531 46.761719 C 299.015625 46.992188 299.015625 47.222656 299.015625 47.679688 Z M 287.511719 16.761719 L 282.648438 34.398438 L 292.253906 34.398438 Z M 287.511719 16.761719 "/>
<path style=" stroke:none;fill-rule:nonzero;fill:rgb(14.901961%,40%,69.019608%);fill-opacity:1;" d="M 83.738281 47.679688 C 84.332031 45.390625 84.925781 43.328125 85.519531 41.039062 C 88.007812 31.878906 90.5 22.945312 92.992188 13.785156 C 93.820312 10.808594 97.140625 10.582031 97.972656 13.558594 C 101.054688 24.550781 104.019531 35.769531 107.105469 46.761719 C 107.105469 46.992188 107.105469 47.222656 107.105469 47.449219 C 104.734375 49.054688 104.140625 48.824219 103.191406 44.472656 C 102.714844 41.039062 100.9375 38.976562 99.039062 39.664062 C 96.546875 40.121094 94.058594 40.121094 91.566406 39.664062 C 90.023438 39.207031 88.601562 40.808594 88.128906 43.785156 C 86.941406 48.59375 86.824219 48.59375 83.738281 47.679688 Z M 90.738281 34.167969 L 100.34375 34.167969 L 95.601562 16.761719 Z M 90.738281 34.167969 "/>
<path style=" stroke:none;fill-rule:nonzero;fill:rgb(14.901961%,40%,69.019608%);fill-opacity:1;" d="M 174.949219 47.910156 L 171.867188 47.910156 L 171.867188 16.992188 L 162.851562 16.992188 L 162.851562 11.953125 L 183.726562 11.953125 L 183.726562 16.992188 L 174.832031 16.992188 Z M 174.949219 47.910156 "/>
<path style=" stroke:none;fill-rule:nonzero;fill:rgb(100%,100%,100%);fill-opacity:1;" d="M 17.792969 49.28125 L 15.183594 49.28125 L 15.183594 10.808594 L 17.792969 10.808594 Z M 17.792969 49.28125 "/>
<path style=" stroke:none;fill-rule:nonzero;fill:rgb(100%,100%,100%);fill-opacity:1;" d="M 24.195312 32.792969 C 24.195312 37.832031 24.195312 37.832031 21.46875 36.917969 L 21.46875 11.039062 C 23.960938 9.664062 24.195312 10.121094 24.195312 14.703125 "/>
<path style=" stroke:none;fill-rule:nonzero;fill:rgb(100%,100%,100%);fill-opacity:1;" d="M 11.625 10.582031 L 11.625 37.144531 L 8.894531 37.144531 C 8.894531 28.902344 8.777344 20.65625 8.894531 12.414062 C 9.015625 8.976562 10.558594 11.265625 11.625 10.582031 Z M 11.625 10.582031 "/>
</g>
</svg>
