<?xml version="1.0" encoding="utf-8"?>
<!-- Generator: Adobe Illustrator 26.3.1, SVG Export Plug-In . SVG Version: 6.00 Build 0)  -->
<svg version="1.1" id="katman_1" xmlns="http://www.w3.org/2000/svg" xmlns:xlink="http://www.w3.org/1999/xlink" x="0px" y="0px"
	 viewBox="0 0 251.2 26.2" style="enable-background:new 0 0 251.2 26.2;" xml:space="preserve">
<style type="text/css">
	.st0{display:none;fill:#FFFFFF;}
</style>
<g id="Group_161" transform="translate(879.235 -222.48)">
	<path id="Path_620" d="M-853.1,248.7h-26.1v-26.2h26.1V248.7z M-865.1,244v-16.8h-2.2V244L-865.1,244z M-862.1,238.6
		c2.3,0.4,2.3,0.4,2.3-1.8c0-2.6,0-5.2,0-7.8c0-2.1-0.2-2.2-2.3-1.6L-862.1,238.6z M-870.3,227.1c-0.9,0.3-2.2-0.7-2.3,0.8
		c-0.2,3.6,0,7.2,0,10.8h2.3V227.1z"/>
	<path id="Path_621" d="M-665.7,237.4l3.9,5.7c-1.8,0.7-2.6,0.5-3.7-0.9c-0.9-1.3-1.8-2.7-2.8-4c-0.3-0.4-0.7-0.8-1.1-0.8
		c-2.5-0.1-4.9,0-7.5,0v6h-2.5v-15.7h5.5c2.3,0,4.6,0,6.9,0c2.7,0,4.6,1.4,5.1,3.7c0.6,2.4-0.6,4.6-3.1,5.7
		C-665.1,237.1-665.3,237.2-665.7,237.4z M-676.8,235c3.6,0,7,0.1,10.5,0c1.3-0.1,2.3-1.2,2.2-2.5c0-0.1,0-0.1,0-0.2
		c0-1.3-1-2.4-2.3-2.4c-1.9-0.1-3.7-0.1-5.6-0.1c-1.6,0-3.2,0-4.8,0L-676.8,235z"/>
	<path id="Path_622" d="M-757.2,243.3c-1.8,0.6-3.7,0-4.8-1.5c-2.9-3.4-6.1-6.7-9.2-10c-0.3-0.4-0.6-0.8-0.8-1.2l-0.5,0.3v12.4h-2.5
		v-15.6c1.6-0.3,3.1-0.4,4.4,1.1c3.4,3.9,7,7.6,10.8,11.7v-12.9h2.6L-757.2,243.3z"/>
	<path id="Path_623" d="M-698.9,236.7c-2.4,0-4.9,0.1-7.3,0c-1.4-0.1-2,0.3-1.8,1.8c0.1,0.9,0.1,1.8,0,2.6h13.8
		c0.5,2.3,0.4,2.4-1.7,2.4c-4.3,0-8.7,0-13,0c-0.5,0-1.1,0-1.7-0.1v-15.8h1.8c4.4,0,8.9,0,13.3,0c0.8,0,1.4-0.1,1.5,1.1
		c0,1.2-0.7,1.2-1.5,1.2c-3.6,0-7.2,0-10.8,0c-0.5,0-1.1,0-1.5,0.1c-0.1,0.1-0.1,0.3-0.2,0.4c-0.4,4-0.4,4,3.5,4c1.3,0,2.7,0,4,0
		C-698.5,234.3-698.4,234.4-698.9,236.7z"/>
	<path id="Path_624" d="M-835.9,243.3h-2.5v-15.6c0.5,0,0.9-0.1,1.3-0.1c3.8,0,7.6,0,11.4,0c2.7-0.1,5,2,5.1,4.7c0,0.1,0,0.1,0,0.2
		c0,2.7-2.1,4.8-4.8,4.9c0,0-0.1,0-0.1,0c-3,0.1-6,0.1-9,0c-1.1,0-1.5,0.3-1.4,1.4C-835.8,240.2-835.9,241.7-835.9,243.3z
		 M-835.8,235c3.6,0,7,0,10.3,0c1.4,0,2.5-1.1,2.5-2.5c0.1-1.3-0.8-2.4-2.1-2.6c0,0,0,0-0.1,0c-3.5-0.1-7,0-10.7,0V235z"/>
	<path id="Path_625" d="M-628,243.3c-1.7,0.4-3,0.1-3.5-1.7c-0.4-1.5-1.5-1.9-3-1.8c-2.2,0.1-4.3,0.1-6.5,0
		c-1.4-0.3-2.7,0.6-3.1,1.9c-0.8,2-1,2-3.6,1.5c1.4-2.7,2.8-5.4,4.3-8.1c1.2-2.2,2.3-4.4,3.5-6.6c0.7-1.2,3.5-1.4,4.1-0.2
		c2.6,4.9,5.2,9.7,7.7,14.6C-628,243-628,243.1-628,243.3z M-637.7,229.8l-4.1,7.7h8.1L-637.7,229.8z"/>
	<path id="Path_626" d="M-809.5,243.3c0.5-1,1-1.9,1.5-2.9c2.1-4,4.2-7.9,6.3-11.9c0.7-1.3,3.5-1.4,4.2-0.1
		c2.6,4.8,5.1,9.7,7.7,14.5c0,0.1,0,0.2,0,0.3c-2,0.7-2.5,0.6-3.3-1.3c-0.4-1.5-1.9-2.4-3.5-2.1c-2.1,0.2-4.2,0.2-6.3,0
		c-1.3-0.2-2.5,0.5-2.9,1.8C-806.8,243.7-806.9,243.7-809.5,243.3z M-803.6,237.4h8.1l-4-7.6L-803.6,237.4z"/>
	<path id="Path_627" d="M-732.6,243.4h-2.6v-13.5h-7.6v-2.2h17.6v2.2h-7.5L-732.6,243.4z"/>
	<path id="Path_628" class="st0" d="M-865.1,244h-2.2v-16.8h2.2V244z"/>
	<path id="Path_629" class="st0" d="M-859.7,236.8c0,2.2,0,2.2-2.3,1.8v-11.3c2.1-0.6,2.3-0.4,2.3,1.6"/>
	<path id="Path_630" class="st0" d="M-870.3,227.1v11.6h-2.3c0-3.6-0.1-7.2,0-10.8C-872.5,226.4-871.2,227.4-870.3,227.1z"/>
</g>
</svg>
