<svg xmlns="http://www.w3.org/2000/svg" width="251.225" height="26.193" viewBox="0 0 251.225 26.193">
  <g id="Group_161" data-name="Group 161" transform="translate(879.235 -222.48)">
    <path id="Path_620" data-name="Path 620" d="M-853.135,248.673h-26.1V222.48h26.1Zm-12-4.716V227.2h-2.205v16.753Zm3.057-5.349c2.331.355,2.333.355,2.334-1.834q0-3.9,0-7.8c0-2.07-.211-2.215-2.332-1.621Zm-8.231-11.533c-.9.3-2.219-.663-2.28.781-.152,3.572-.05,7.155-.05,10.777h2.33Z"/>
    <path id="Path_621" data-name="Path 621" d="M-190.271,249.545l3.87,5.734c-1.842.723-2.645.516-3.655-.908-.941-1.326-1.849-2.675-2.822-3.977-.271-.363-.712-.836-1.088-.847-2.451-.076-4.905-.039-7.5-.039v5.983h-2.531v-15.7h5.473q3.474,0,6.949,0c2.708,0,4.614,1.391,5.149,3.74.552,2.421-.615,4.557-3.11,5.693C-189.708,249.3-189.887,249.375-190.271,249.545Zm-11.149-2.365c3.561,0,7.035.069,10.5-.033a2.351,2.351,0,0,0,2.233-2.62,2.36,2.36,0,0,0-2.3-2.412c-1.86-.111-3.73-.054-5.6-.062-1.607-.006-3.213,0-4.841,0Z" transform="translate(-475.43 -12.183)"/>
    <path id="Path_622" data-name="Path 622" d="M-509.372,255.45a4.354,4.354,0,0,1-4.794-1.52c-2.949-3.437-6.143-6.663-9.219-9.991a8.23,8.23,0,0,1-.782-1.205l-.468.315v12.446h-2.544V239.941c1.638-.267,3.066-.415,4.431,1.146,3.4,3.886,7,7.594,10.8,11.673V239.88h2.573Z" transform="translate(-247.878 -12.175)"/>
    <path id="Path_623" data-name="Path 623" d="M-297.487,248.834c-2.409,0-4.863.075-7.309-.029-1.39-.059-2.008.319-1.825,1.786a22.639,22.639,0,0,1,.018,2.64h13.818c.479,2.276.4,2.377-1.67,2.377q-6.51,0-13.019,0c-.528,0-1.056-.048-1.656-.077V239.771h1.81q6.658,0,13.315,0c.773,0,1.433-.056,1.459,1.092.029,1.23-.666,1.19-1.509,1.187-3.6-.014-7.2-.007-10.8,0-.529,0-1.057.044-1.51.064a1.907,1.907,0,0,0-.193.4c-.444,3.967-.443,3.966,3.515,3.96q2,0,3.995,0C-297.1,246.478-297.043,246.561-297.487,248.834Z" transform="translate(-401.403 -12.173)"/>
    <path id="Path_624" data-name="Path 624" d="M-738.557,255.5h-2.466V239.851c.456-.033.884-.091,1.311-.092,3.789-.007,7.578-.017,11.367,0a4.878,4.878,0,0,1,5.08,4.829,4.84,4.84,0,0,1-4.9,4.858q-4.5.1-9-.006c-1.112-.024-1.47.346-1.41,1.441C-738.495,252.39-738.557,253.906-738.557,255.5Zm.1-8.319c3.562,0,6.95.049,10.336-.023a2.475,2.475,0,0,0,2.47-2.451,2.332,2.332,0,0,0-2.133-2.566c-3.522-.114-7.05-.038-10.673-.038Z" transform="translate(-97.313 -12.16)"/>
    <path id="Path_625" data-name="Path 625" d="M-77.062,255.232c-1.706.446-2.955.118-3.466-1.7-.433-1.538-1.479-1.9-3.005-1.807a46.9,46.9,0,0,1-6.5-.009,2.7,2.7,0,0,0-3.12,1.91c-.849,2.035-1.038,2.031-3.565,1.538,1.433-2.729,2.841-5.416,4.256-8.1,1.172-2.221,2.334-4.446,3.536-6.65.659-1.208,3.5-1.367,4.135-.184,2.611,4.854,5.157,9.744,7.721,14.623C-77.027,254.926-77.062,255.039-77.062,255.232Zm-9.7-13.538-4.086,7.679h8.12Z" transform="translate(-550.962 -11.927)"/>
    <path id="Path_626" data-name="Path 626" d="M-643.688,255.206c.519-.987,1.012-1.931,1.509-2.872,2.093-3.96,4.177-7.924,6.286-11.875.68-1.273,3.534-1.372,4.2-.12,2.577,4.816,5.11,9.656,7.654,14.489a.768.768,0,0,1,.03.283c-2.01.652-2.541.552-3.294-1.288a2.968,2.968,0,0,0-3.475-2.084,42.393,42.393,0,0,1-6.347.005,2.572,2.572,0,0,0-2.924,1.758C-641,255.678-641.086,255.64-643.688,255.206Zm5.911-5.864h8.06l-4.014-7.63Z" transform="translate(-165.846 -11.948)"/>
    <path id="Path_627" data-name="Path 627" d="M-407.748,255.847h-2.562V242.363h-7.582V240.2h17.648v2.169h-7.5Z" transform="translate(-324.826 -12.479)"/>
    <path id="Path_628" data-name="Path 628" d="M-836.844,255.2h-2.205V238.445h2.205Z" transform="translate(-28.294 -11.241)" fill="#fff"/>
    <path id="Path_629" data-name="Path 629" d="M-818.933,247.637c0,2.189,0,2.189-2.334,1.834v-11.26c2.12-.593,2.329-.448,2.331,1.621" transform="translate(-40.814 -10.862)" fill="#fff"/>
    <path id="Path_630" data-name="Path 630" d="M-854.708,237.917v11.558h-2.33c0-3.622-.1-7.205.05-10.777C-856.927,237.255-855.612,238.22-854.708,237.917Z" transform="translate(-15.605 -10.841)" fill="#fff"/>
  </g>
</svg>
