<?xml version="1.0" encoding="UTF-8"?>
<svg xmlns="http://www.w3.org/2000/svg" xmlns:xlink="http://www.w3.org/1999/xlink" width="300" height="60" viewBox="0 0 300 60" version="1.1">
<g id="surface1">
<path style=" stroke:none;fill-rule:nonzero;fill:rgb(14.901961%,40%,69.019608%);fill-opacity:1;" d="M 11.484375 33.632812 C 15.96875 23.097656 20.632812 12.382812 25.121094 1.851562 C 25.476562 0.761719 26.375 0.0351562 27.453125 0.21875 C 33.195312 0.21875 38.933594 0.21875 44.675781 0.21875 C 45.753906 0.21875 46.472656 0.398438 47.007812 1.488281 C 55.082031 20.558594 62.976562 39.625 71.050781 58.691406 C 71.050781 59.054688 71.230469 59.238281 71.230469 59.601562 C 67.824219 59.601562 64.414062 59.601562 61.183594 59.601562 C 59.570312 59.601562 59.570312 58.511719 59.210938 57.601562 C 52.929688 42.53125 46.472656 27.457031 40.371094 12.382812 C 40.011719 10.570312 38.21875 9.480469 36.601562 9.84375 C 34.628906 10.023438 32.65625 9.480469 31.578125 12.382812 C 29.066406 19.46875 25.835938 26.550781 22.964844 33.449219 L 11.484375 33.632812 M 14.355469 43.984375 L 6.816406 43.984375 C 4.484375 49.066406 2.332031 54.335938 0 59.601562 C 3.769531 59.601562 6.996094 59.601562 10.40625 59.601562 C 11.304688 59.78125 12.199219 59.238281 12.378906 58.328125 C 14.355469 53.609375 16.328125 48.703125 18.300781 43.984375 L 14.355469 43.984375 M 130.082031 17.289062 C 132.238281 12.023438 134.570312 6.753906 136.722656 1.488281 C 136.902344 0.945312 137.261719 0.582031 137.800781 0.761719 C 140.667969 0.761719 143.359375 0.761719 146.230469 0.761719 C 146.769531 0.761719 147.128906 0.761719 147.308594 1.488281 C 151.078125 10.933594 155.023438 20.375 158.972656 29.636719 C 158.972656 29.820312 158.972656 30 158.972656 30 C 157.355469 30 155.742188 30 154.125 30 C 153.410156 30 153.410156 29.457031 153.050781 28.910156 C 150 21.464844 146.949219 14.019531 143.898438 6.574219 C 143.539062 5.664062 143.003906 5.300781 142.105469 5.300781 C 141.027344 5.484375 140.132812 5.121094 139.59375 6.574219 C 138.335938 10.207031 136.902344 13.472656 135.464844 16.925781 C 133.671875 17.46875 131.878906 17.46875 130.082031 17.289062 M 216.207031 17.46875 C 218.359375 12.203125 220.695312 6.9375 222.847656 1.671875 C 223.027344 1.125 223.386719 0.761719 223.921875 0.945312 C 226.792969 0.945312 229.484375 0.945312 232.355469 0.945312 C 232.894531 0.945312 233.253906 0.945312 233.433594 1.671875 C 237.199219 11.113281 241.148438 20.558594 245.09375 29.820312 C 245.09375 30 245.09375 30.179688 245.09375 30.179688 C 243.480469 30.179688 241.867188 30.179688 240.25 30.179688 C 239.535156 30.179688 239.535156 29.636719 239.175781 29.09375 C 236.125 21.644531 233.074219 14.199219 230.023438 6.753906 C 229.664062 5.847656 229.125 5.484375 228.230469 5.484375 C 227.152344 5.664062 226.257812 5.300781 225.71875 6.753906 C 224.460938 10.386719 223.027344 13.65625 221.589844 17.105469 C 219.796875 17.46875 218.003906 17.46875 216.207031 17.46875 M 105.683594 16.5625 C 106.757812 16.5625 107.835938 16.5625 108.910156 16.199219 C 109.449219 15.835938 109.808594 15.289062 109.808594 14.5625 L 109.808594 6.574219 C 109.808594 5.847656 109.449219 5.300781 108.910156 4.9375 C 107.835938 4.574219 106.757812 4.394531 105.683594 4.574219 L 97.25 4.574219 L 97.25 16.5625 Z M 97.070312 30.179688 L 91.328125 30.179688 L 91.328125 0.582031 L 105.503906 0.582031 C 107.476562 0.398438 109.628906 0.761719 111.601562 1.488281 C 113.039062 2.035156 114.113281 3.304688 114.832031 4.574219 C 115.550781 6.390625 115.910156 8.390625 115.730469 10.570312 C 115.730469 14.199219 115.011719 16.5625 113.578125 18.195312 C 111.601562 19.832031 109.089844 20.738281 106.398438 20.558594 L 97.070312 20.558594 Z M 176.734375 16.015625 L 185.527344 16.015625 C 186.601562 16.015625 187.679688 16.015625 188.757812 15.652344 C 189.292969 15.289062 189.652344 14.746094 189.652344 14.019531 L 189.652344 6.574219 C 189.652344 5.847656 189.292969 5.300781 188.757812 4.9375 C 187.679688 4.574219 186.601562 4.394531 185.527344 4.574219 L 176.734375 4.574219 Z M 190.910156 30.179688 L 184.988281 19.832031 L 176.734375 19.832031 L 176.734375 30.179688 L 170.992188 30.179688 L 170.992188 0.582031 L 185.527344 0.582031 C 187.5 0.398438 189.652344 0.761719 191.625 1.488281 C 193.0625 2.035156 194.140625 3.125 194.855469 4.574219 C 195.574219 6.390625 195.933594 8.390625 195.753906 10.570312 C 195.933594 12.566406 195.394531 14.5625 194.675781 16.199219 C 193.960938 17.652344 192.523438 18.558594 190.910156 19.105469 L 197.367188 30 Z M 265.191406 30.179688 L 259.449219 30.179688 L 259.449219 0.582031 L 279.1875 0.582031 L 278.46875 4.394531 L 265.191406 4.394531 L 265.191406 14.019531 L 276.855469 14.019531 L 276.855469 17.832031 L 265.191406 17.832031 Z M 294.4375 30.179688 L 300.179688 30.179688 L 300.179688 0.582031 L 294.4375 0.582031 Z M 127.75 22.371094 C 126.675781 24.914062 125.597656 27.457031 124.523438 30.179688 C 126.316406 30.179688 127.929688 30.179688 129.546875 30.179688 C 130.082031 30.179688 130.441406 30 130.621094 29.457031 C 131.519531 27.09375 132.59375 24.734375 133.492188 22.371094 L 131.519531 22.371094 C 130.082031 22.371094 128.828125 22.371094 127.75 22.371094 Z M 217.644531 22.371094 L 214.054688 22.371094 C 212.976562 24.914062 211.902344 27.457031 210.824219 30.179688 C 212.621094 30.179688 214.234375 30.179688 215.847656 30.179688 C 216.386719 30.179688 216.746094 30 216.925781 29.457031 C 217.824219 27.09375 218.898438 24.734375 219.796875 22.371094 C 218.898438 22.371094 218.359375 22.371094 217.644531 22.371094 M 107.296875 55.242188 L 107.296875 50.882812 C 107.117188 49.792969 107.476562 48.703125 108.195312 47.796875 C 109.089844 47.070312 109.988281 46.707031 111.066406 46.890625 L 113.398438 46.890625 C 114.292969 46.890625 115.191406 47.070312 115.910156 47.617188 C 116.449219 48.339844 116.804688 49.066406 116.804688 49.976562 C 116.804688 50.339844 116.625 50.519531 116.269531 50.519531 C 115.910156 50.519531 115.910156 50.339844 115.730469 49.976562 C 115.730469 49.429688 115.550781 48.703125 115.011719 48.339844 C 114.472656 47.976562 113.757812 47.796875 113.039062 47.976562 L 110.707031 47.976562 C 110.167969 47.976562 109.628906 47.976562 109.089844 48.339844 C 108.730469 48.523438 108.375 48.886719 108.195312 49.25 C 108.015625 49.792969 107.835938 50.339844 107.835938 51.066406 L 107.835938 55.425781 C 107.835938 55.96875 107.835938 56.695312 108.195312 57.238281 C 108.375 57.601562 108.730469 57.964844 109.089844 58.148438 C 109.628906 58.328125 110.167969 58.511719 110.886719 58.511719 L 113.21875 58.511719 C 113.933594 58.511719 114.472656 58.328125 115.191406 58.148438 C 115.730469 57.785156 115.910156 57.058594 115.910156 56.515625 C 115.910156 56.332031 116.089844 55.96875 116.269531 55.96875 C 116.269531 55.96875 116.269531 55.96875 116.449219 55.96875 C 116.804688 55.96875 116.984375 56.152344 116.984375 56.515625 C 116.984375 57.421875 116.625 58.328125 116.089844 58.875 C 115.371094 59.417969 114.472656 59.78125 113.578125 59.601562 L 111.242188 59.601562 C 110.167969 59.78125 109.089844 59.417969 108.375 58.691406 C 107.476562 57.421875 107.117188 56.332031 107.296875 55.242188 Z M 140.132812 54.878906 L 145.515625 54.878906 L 142.824219 48.339844 Z M 148.027344 58.875 C 148.027344 59.054688 147.847656 59.238281 147.667969 59.238281 C 147.667969 59.238281 147.488281 59.238281 147.488281 59.238281 C 147.308594 59.238281 147.128906 59.054688 147.128906 58.875 L 145.875 55.789062 L 139.773438 55.789062 L 138.515625 58.875 C 138.335938 59.054688 138.335938 59.238281 138.15625 59.238281 C 138.15625 59.238281 137.976562 59.238281 137.976562 59.238281 C 137.800781 59.054688 137.621094 59.054688 137.621094 58.875 C 137.621094 58.875 137.621094 58.691406 137.621094 58.691406 L 142.285156 47.433594 C 142.285156 47.253906 142.644531 47.070312 142.824219 47.070312 C 143.003906 47.070312 143.359375 47.253906 143.359375 47.433594 L 148.027344 58.691406 C 148.027344 58.691406 148.027344 58.691406 148.027344 58.875 Z M 176.015625 50.15625 C 176.015625 49.429688 175.835938 48.886719 175.476562 48.339844 C 174.941406 47.976562 174.402344 47.796875 173.863281 47.796875 L 169.917969 47.796875 L 169.917969 53.0625 L 173.863281 53.0625 C 174.402344 53.0625 175.121094 52.882812 175.476562 52.519531 C 175.835938 51.972656 176.015625 51.429688 176.015625 50.703125 Z M 176.195312 47.617188 C 176.734375 48.339844 177.09375 49.25 176.914062 50.15625 L 176.914062 50.703125 C 176.914062 51.609375 176.734375 52.519531 176.195312 53.246094 C 175.476562 53.789062 174.761719 54.152344 173.863281 54.152344 L 169.917969 54.152344 L 169.917969 58.875 C 169.917969 59.238281 169.738281 59.417969 169.378906 59.417969 C 169.199219 59.417969 168.839844 59.238281 168.839844 59.054688 C 168.839844 59.054688 168.839844 59.054688 168.839844 58.875 L 168.839844 47.433594 C 168.839844 47.070312 169.019531 46.890625 169.378906 46.890625 L 173.683594 46.890625 C 174.582031 46.707031 175.476562 47.070312 176.195312 47.617188 Z M 198.085938 59.054688 C 198.085938 58.875 197.90625 58.875 197.90625 58.691406 L 197.90625 47.433594 C 197.90625 47.253906 197.90625 47.253906 198.085938 47.070312 C 198.265625 46.890625 198.265625 46.890625 198.445312 46.890625 C 198.625 46.890625 198.625 46.890625 198.804688 47.070312 C 198.804688 47.253906 198.984375 47.253906 198.984375 47.433594 L 198.984375 58.875 C 198.984375 59.054688 198.984375 59.054688 198.804688 59.238281 C 198.625 59.417969 198.625 59.417969 198.445312 59.417969 C 198.445312 59.238281 198.265625 59.238281 198.085938 59.054688 M 224.820312 59.054688 C 224.640625 59.054688 224.640625 58.875 224.640625 58.691406 L 224.640625 47.796875 L 220.695312 47.796875 C 220.515625 47.796875 220.515625 47.796875 220.335938 47.617188 C 220.15625 47.433594 220.15625 47.433594 220.15625 47.253906 C 220.15625 47.070312 220.15625 47.070312 220.335938 46.890625 C 220.515625 46.707031 220.515625 46.707031 220.695312 46.707031 L 229.664062 46.707031 C 229.84375 46.707031 229.84375 46.707031 230.023438 46.890625 C 230.203125 47.070312 230.203125 47.070312 230.203125 47.253906 C 230.203125 47.433594 230.203125 47.433594 230.023438 47.617188 C 229.84375 47.796875 229.84375 47.796875 229.664062 47.796875 L 225.71875 47.796875 L 225.71875 58.691406 C 225.71875 58.875 225.71875 58.875 225.539062 59.054688 C 225.539062 59.238281 225.359375 59.238281 225.179688 59.238281 C 225 59.238281 224.820312 59.238281 224.820312 59.054688 M 249.582031 54.878906 L 254.964844 54.878906 L 252.273438 48.339844 Z M 257.476562 58.875 C 257.476562 59.054688 257.296875 59.238281 257.117188 59.238281 C 257.117188 59.238281 256.9375 59.238281 256.9375 59.238281 C 256.757812 59.238281 256.578125 59.054688 256.578125 58.875 L 255.324219 55.789062 L 249.222656 55.789062 L 247.964844 58.875 C 247.785156 59.054688 247.785156 59.238281 247.609375 59.238281 C 247.609375 59.238281 247.429688 59.238281 247.429688 59.238281 C 247.25 59.054688 247.070312 59.054688 247.070312 58.875 C 247.070312 58.875 247.070312 58.691406 247.070312 58.691406 L 251.734375 47.433594 C 251.734375 47.253906 252.09375 47.070312 252.273438 47.070312 C 252.453125 47.070312 252.8125 47.253906 252.8125 47.433594 L 257.476562 58.691406 C 257.476562 58.691406 257.476562 58.691406 257.476562 58.875 Z M 278.46875 58.875 L 278.46875 47.433594 C 278.46875 47.070312 278.648438 46.890625 279.007812 46.890625 C 279.1875 46.890625 279.546875 47.070312 279.546875 47.253906 C 279.546875 47.253906 279.546875 47.253906 279.546875 47.433594 L 279.546875 58.328125 L 285.285156 58.328125 C 285.464844 58.328125 285.824219 58.511719 285.824219 58.691406 C 285.824219 58.691406 285.824219 58.691406 285.824219 58.875 C 285.824219 59.238281 285.644531 59.417969 285.285156 59.417969 L 279.007812 59.417969 C 278.828125 59.417969 278.46875 59.238281 278.46875 58.875 "/>
</g>
</svg>
