<?xml version="1.0" encoding="utf-8"?>
<!-- Generator: Adobe Illustrator 26.3.1, SVG Export Plug-In . SVG Version: 6.00 Build 0)  -->
<svg version="1.1" id="Group_142" xmlns="http://www.w3.org/2000/svg" xmlns:xlink="http://www.w3.org/1999/xlink" x="0px" y="0px"
	 viewBox="0 0 167.2 32.8" style="enable-background:new 0 0 167.2 32.8;" xml:space="preserve">
<style type="text/css">
	.st0{fill:#2666B0;}
</style>
<path id="Path_464" class="st0" d="M6.4,18.4C8.9,12.6,11.5,6.7,14,0.9c0.2-0.6,0.7-1,1.3-0.9c3.2,0,6.4,0,9.6,0
	c0.6,0,1,0.1,1.3,0.7c4.5,10.5,8.9,21,13.4,31.5c0,0.2,0.1,0.3,0.1,0.5c-1.9,0-3.8,0-5.6,0c-0.9,0-0.9-0.6-1.1-1.1
	c-3.5-8.3-7.1-16.6-10.5-24.9c-0.2-1-1.2-1.6-2.1-1.4c-1.1,0.1-2.2-0.2-2.8,1.4c-1.4,3.9-3.2,7.8-4.8,11.6L6.4,18.4 M8,24.1H3.8
	c-1.3,2.8-2.5,5.7-3.8,8.6c2.1,0,3.9,0,5.8,0c0.5,0.1,1-0.2,1.1-0.7c1.1-2.6,2.2-5.3,3.3-7.9L8,24.1 M72.5,9.4
	c1.2-2.9,2.5-5.8,3.7-8.7c0.1-0.3,0.3-0.5,0.6-0.4c1.6,0,3.1,0,4.7,0c0.3,0,0.5,0,0.6,0.4c2.1,5.2,4.3,10.4,6.5,15.5
	c0,0.1,0,0.2,0,0.2c-0.9,0-1.8,0-2.7,0c-0.4,0-0.4-0.3-0.6-0.6c-1.7-4.1-3.4-8.2-5.1-12.3c-0.2-0.5-0.5-0.7-1-0.7
	c-0.6,0.1-1.1-0.1-1.4,0.7c-0.7,2-1.5,3.8-2.3,5.7C74.5,9.5,73.5,9.5,72.5,9.4 M120.5,9.5c1.2-2.9,2.5-5.8,3.7-8.7
	c0.1-0.3,0.3-0.5,0.6-0.4c1.6,0,3.1,0,4.7,0c0.3,0,0.5,0,0.6,0.4c2.1,5.2,4.3,10.4,6.5,15.5c0,0.1,0,0.2,0,0.2c-0.9,0-1.8,0-2.7,0
	c-0.4,0-0.4-0.3-0.6-0.6c-1.7-4.1-3.4-8.2-5.1-12.3c-0.2-0.5-0.5-0.7-1-0.7c-0.6,0.1-1.1-0.1-1.4,0.7c-0.7,2-1.5,3.8-2.3,5.7
	C122.5,9.5,121.5,9.5,120.5,9.5 M58.9,9c0.6,0,1.2,0,1.8-0.2c0.3-0.2,0.5-0.5,0.5-0.9V3.5c0-0.4-0.2-0.7-0.5-0.9
	c-0.6-0.2-1.2-0.3-1.8-0.2h-4.7V9L58.9,9z M54.1,16.5h-3.2V0.2h7.9c1.1-0.1,2.3,0.1,3.4,0.5C63,1,63.6,1.7,64,2.4
	c0.4,1,0.6,2.1,0.5,3.3c0,2-0.4,3.3-1.2,4.2c-1.1,0.9-2.5,1.4-4,1.3h-5.2L54.1,16.5L54.1,16.5z M98.5,8.7h4.9c0.6,0,1.2,0,1.8-0.2
	c0.3-0.2,0.5-0.5,0.5-0.9V3.5c0-0.4-0.2-0.7-0.5-0.9c-0.6-0.2-1.2-0.3-1.8-0.2h-4.9V8.7z M106.4,16.5l-3.3-5.7h-4.6v5.7h-3.2V0.2
	h8.1c1.1-0.1,2.3,0.1,3.4,0.5c0.8,0.3,1.4,0.9,1.8,1.7c0.4,1,0.6,2.1,0.5,3.3c0.1,1.1-0.2,2.2-0.6,3.1c-0.4,0.8-1.2,1.3-2.1,1.6
	l3.6,6L106.4,16.5L106.4,16.5z M147.8,16.5h-3.2V0.2h11l-0.4,2.1h-7.4v5.3h6.5v2.1h-6.5L147.8,16.5L147.8,16.5z M164.1,16.5h3.2V0.2
	h-3.2V16.5z M71.2,12.2c-0.6,1.4-1.2,2.8-1.8,4.3c1,0,1.9,0,2.8,0c0.3,0,0.5-0.1,0.6-0.4c0.5-1.3,1.1-2.6,1.6-3.9h-1.1
	C72.5,12.2,71.8,12.2,71.2,12.2L71.2,12.2z M121.3,12.2h-2c-0.6,1.4-1.2,2.8-1.8,4.3c1,0,1.9,0,2.8,0c0.3,0,0.5-0.1,0.6-0.4
	c0.5-1.3,1.1-2.6,1.6-3.9C122,12.2,121.7,12.2,121.3,12.2 M59.8,30.3v-2.4c-0.1-0.6,0.1-1.2,0.5-1.7c0.5-0.4,1-0.6,1.6-0.5h1.3
	c0.5,0,1,0.1,1.4,0.4c0.3,0.4,0.5,0.8,0.5,1.3c0,0.2-0.1,0.3-0.3,0.3c-0.2,0-0.2-0.1-0.3-0.3c0-0.3-0.1-0.7-0.4-0.9
	c-0.3-0.2-0.7-0.3-1.1-0.2h-1.3c-0.3,0-0.6,0-0.9,0.2c-0.2,0.1-0.4,0.3-0.5,0.5c-0.1,0.3-0.2,0.6-0.2,1v2.4c0,0.3,0,0.7,0.2,1
	c0.1,0.2,0.3,0.4,0.5,0.5c0.3,0.1,0.6,0.2,1,0.2h1.3c0.4,0,0.7-0.1,1.1-0.2c0.3-0.2,0.4-0.6,0.4-0.9c0-0.1,0.1-0.3,0.2-0.3
	c0,0,0,0,0.1,0c0.2,0,0.3,0.1,0.3,0.3c0,0.5-0.2,1-0.5,1.3c-0.4,0.3-0.9,0.5-1.4,0.4H62c-0.6,0.1-1.2-0.1-1.6-0.5
	C59.9,31.5,59.7,30.9,59.8,30.3L59.8,30.3z M78.1,30.1h3l-1.5-3.6L78.1,30.1z M82.5,32.3c0,0.1-0.1,0.2-0.2,0.2c0,0-0.1,0-0.1,0
	c-0.1,0-0.2-0.1-0.2-0.2l-0.7-1.7h-3.4l-0.7,1.7c-0.1,0.1-0.1,0.2-0.2,0.2c0,0-0.1,0-0.1,0c-0.1-0.1-0.2-0.1-0.2-0.2
	c0,0,0-0.1,0-0.1l2.6-6.2c0-0.1,0.2-0.2,0.3-0.2h0c0.1,0,0.3,0.1,0.3,0.2l2.6,6.2C82.5,32.2,82.5,32.2,82.5,32.3L82.5,32.3z
	 M98.1,27.5c0-0.4-0.1-0.7-0.3-1c-0.3-0.2-0.6-0.3-0.9-0.3h-2.2v2.9h2.2c0.3,0,0.7-0.1,0.9-0.3c0.2-0.3,0.3-0.6,0.3-1V27.5z
	 M98.2,26.1c0.3,0.4,0.5,0.9,0.4,1.4v0.3c0,0.5-0.1,1-0.4,1.4c-0.4,0.3-0.8,0.5-1.3,0.5h-2.2v2.6c0,0.2-0.1,0.3-0.3,0.3
	c-0.1,0-0.3-0.1-0.3-0.2c0,0,0,0,0-0.1v-6.3c0-0.2,0.1-0.3,0.3-0.3h2.4C97.3,25.6,97.8,25.8,98.2,26.1L98.2,26.1z M110.4,32.4
	c0-0.1-0.1-0.1-0.1-0.2V26c0-0.1,0-0.1,0.1-0.2c0.1-0.1,0.1-0.1,0.2-0.1c0.1,0,0.1,0,0.2,0.1c0,0.1,0.1,0.1,0.1,0.2v6.3
	c0,0.1,0,0.1-0.1,0.2c-0.1,0.1-0.1,0.1-0.2,0.1C110.6,32.5,110.5,32.5,110.4,32.4 M125.3,32.4c-0.1,0-0.1-0.1-0.1-0.2v-6H123
	c-0.1,0-0.1,0-0.2-0.1c-0.1-0.1-0.1-0.1-0.1-0.2c0-0.1,0-0.1,0.1-0.2c0.1-0.1,0.1-0.1,0.2-0.1h5c0.1,0,0.1,0,0.2,0.1
	c0.1,0.1,0.1,0.1,0.1,0.2c0,0.1,0,0.1-0.1,0.2c-0.1,0.1-0.1,0.1-0.2,0.1h-2.2v6c0,0.1,0,0.1-0.1,0.2c0,0.1-0.1,0.1-0.2,0.1
	C125.4,32.5,125.3,32.5,125.3,32.4 M139.1,30.1h3l-1.5-3.6L139.1,30.1z M143.5,32.3c0,0.1-0.1,0.2-0.2,0.2c0,0-0.1,0-0.1,0
	c-0.1,0-0.2-0.1-0.2-0.2l-0.7-1.7h-3.4l-0.7,1.7c-0.1,0.1-0.1,0.2-0.2,0.2c0,0-0.1,0-0.1,0c-0.1-0.1-0.2-0.1-0.2-0.2
	c0,0,0-0.1,0-0.1l2.6-6.2c0-0.1,0.2-0.2,0.3-0.2h0c0.1,0,0.3,0.1,0.3,0.2l2.6,6.2C143.5,32.2,143.5,32.2,143.5,32.3L143.5,32.3z
	 M155.2,32.3V26c0-0.2,0.1-0.3,0.3-0.3c0.1,0,0.3,0.1,0.3,0.2c0,0,0,0,0,0.1v6h3.2c0.1,0,0.3,0.1,0.3,0.2c0,0,0,0,0,0.1
	c0,0.2-0.1,0.3-0.3,0.3h-3.5C155.4,32.6,155.2,32.5,155.2,32.3C155.2,32.3,155.2,32.3,155.2,32.3"/>
</svg>
