<svg id="Group_142" data-name="Group 142" xmlns="http://www.w3.org/2000/svg" width="167.248" height="32.751" viewBox="0 0 167.248 32.751">
  <path id="Path_464" data-name="Path 464" d="M-574.854,472.467q3.848-8.781,7.664-17.559a1.172,1.172,0,0,1,1.311-.863c3.2.028,6.439.028,9.644,0,.613,0,1,.084,1.255.723q6.689,15.763,13.4,31.494a1.879,1.879,0,0,1,.056.5c-1.894,0-3.762-.028-5.63.028-.863.028-.919-.613-1.14-1.115-3.512-8.305-7.053-16.554-10.481-24.859a1.786,1.786,0,0,0-2.118-1.367c-1.143.112-2.2-.224-2.815,1.392-1.448,3.93-3.2,7.75-4.821,11.624h-6.327m1.588,5.684h-4.179c-1.255,2.843-2.481,5.658-3.79,8.613,2.089,0,3.93-.028,5.767.028a1.025,1.025,0,0,0,1.143-.725c1.087-2.647,2.23-5.266,3.344-7.915h-2.286m64.493-14.658c1.224-2.9,2.479-5.77,3.706-8.669a.608.608,0,0,1,.641-.445c1.56.028,3.093.028,4.653,0,.28,0,.476.028.613.361,2.148,5.185,4.322,10.369,6.467,15.526a.6.6,0,0,1,.028.25c-.921,0-1.812-.028-2.7,0-.42,0-.448-.306-.557-.557q-2.55-6.1-5.073-12.263c-.224-.529-.473-.725-1.005-.669-.557.056-1.059-.11-1.364.7-.7,1.952-1.532,3.818-2.314,5.742-1.059.028-2.062.028-3.092.028m48.018,0c1.227-2.9,2.481-5.77,3.708-8.669a.608.608,0,0,1,.642-.445c1.56.028,3.092.028,4.653,0,.28,0,.473.028.613.361,2.146,5.185,4.319,10.369,6.467,15.526a.6.6,0,0,1,.028.25c-.921,0-1.812-.028-2.705,0-.418,0-.445-.306-.557-.557q-2.55-6.1-5.07-12.263c-.224-.529-.476-.725-1.005-.669-.557.056-1.059-.11-1.364.7-.7,1.952-1.532,3.818-2.314,5.742-1.059.028-2.062.028-3.095.028m-61.62-.42a5,5,0,0,0,1.756-.222.861.861,0,0,0,.474-.865V457.5a.9.9,0,0,0-.474-.863,4.324,4.324,0,0,0-1.756-.224h-4.711v6.661Zm-4.711,7.414h-3.232V454.239h7.916a8.466,8.466,0,0,1,3.372.529,3.28,3.28,0,0,1,1.756,1.7,7.966,7.966,0,0,1,.529,3.26c0,1.952-.389,3.319-1.2,4.154a5.33,5.33,0,0,1-3.986,1.255h-5.182v5.35Zm44.342-7.8h4.877a5.059,5.059,0,0,0,1.756-.221.863.863,0,0,0,.473-.865v-4.1a.9.9,0,0,0-.473-.863,4.311,4.311,0,0,0-1.756-.224h-4.877Zm7.916,7.8-3.344-5.742h-4.571v5.742h-3.232V454.239h8.053a8.45,8.45,0,0,1,3.372.529,3.28,3.28,0,0,1,1.756,1.7,7.963,7.963,0,0,1,.529,3.26,6.421,6.421,0,0,1-.641,3.123,3.315,3.315,0,0,1-2.062,1.56l3.65,6.047h-3.51Zm41.36,0H-436.7V454.239h10.982l-.364,2.146H-433.5v5.268h6.465v2.062H-433.5v6.773Zm16.3,0h3.179V454.239h-3.179Zm-92.89-4.291c-.613,1.392-1.2,2.815-1.84,4.263,1,0,1.9-.028,2.787,0a.5.5,0,0,0,.557-.362c.529-1.311,1.059-2.619,1.616-3.93h-1.115C-508.773,466.2-509.442,466.2-510.056,466.2Zm50.138,0h-2.034c-.613,1.392-1.2,2.815-1.84,4.263,1,0,1.9-.028,2.787,0a.5.5,0,0,0,.557-.362c.529-1.311,1.087-2.619,1.616-3.93-.362.028-.725.028-1.087.028m-61.538,18.142v-2.423a2.3,2.3,0,0,1,.53-1.7,2.16,2.16,0,0,1,1.644-.529h1.255a2.061,2.061,0,0,1,1.423.418,1.967,1.967,0,0,1,.529,1.311c0,.194-.084.278-.28.278-.165,0-.249-.084-.277-.278a1.225,1.225,0,0,0-.364-.921,1.693,1.693,0,0,0-1.059-.249h-1.252a2.173,2.173,0,0,0-.949.165,1.05,1.05,0,0,0-.5.53,2.361,2.361,0,0,0-.168.977v2.423a2.274,2.274,0,0,0,.168.977,1.05,1.05,0,0,0,.5.529,2.309,2.309,0,0,0,.975.166h1.255a1.749,1.749,0,0,0,1.059-.25,1.179,1.179,0,0,0,.364-.921.249.249,0,0,1,.278-.278c.2,0,.28.084.28.278a1.791,1.791,0,0,1-.529,1.311,2.061,2.061,0,0,1-1.423.417h-1.255a2.16,2.16,0,0,1-1.644-.529A2.2,2.2,0,0,1-521.456,484.338Zm18.338-.193h2.955l-1.476-3.568Zm4.378,2.146a.257.257,0,0,1-.168.222.21.21,0,0,1-.14.028.2.2,0,0,1-.194-.166l-.7-1.672h-3.4l-.7,1.672c-.056.11-.112.166-.222.166a.3.3,0,0,1-.14-.028c-.112-.054-.168-.11-.168-.222a.209.209,0,0,1,.028-.14l2.563-6.243a.328.328,0,0,1,.308-.222h.028a.326.326,0,0,1,.306.222l2.565,6.243a.3.3,0,0,1,.028.14Zm15.607-4.739a1.358,1.358,0,0,0-.308-.975,1.325,1.325,0,0,0-.947-.306h-2.174v2.9h2.174a1.28,1.28,0,0,0,.947-.305,1.358,1.358,0,0,0,.308-.975Zm.082-1.392a1.869,1.869,0,0,1,.448,1.364v.308a1.825,1.825,0,0,1-.448,1.364,1.809,1.809,0,0,1-1.336.476h-2.174v2.563c0,.2-.084.278-.28.278a.249.249,0,0,1-.277-.278v-6.3c0-.194.084-.278.277-.278h2.425a1.961,1.961,0,0,1,1.364.5Zm12.263,6.325a.235.235,0,0,1-.054-.194v-6.3a.433.433,0,0,1,.054-.2.26.26,0,0,1,.2-.082.26.26,0,0,1,.2.082.236.236,0,0,1,.056.2v6.3a.387.387,0,0,1-.056.194.254.254,0,0,1-.2.084.254.254,0,0,1-.2-.084m14.828,0a.246.246,0,0,1-.084-.194v-6.019h-2.23a.254.254,0,0,1-.2-.084.252.252,0,0,1-.082-.2.253.253,0,0,1,.082-.2.261.261,0,0,1,.2-.082h4.989a.26.26,0,0,1,.2.082.254.254,0,0,1,.084.2.254.254,0,0,1-.084.2.253.253,0,0,1-.2.084h-2.23v6.019a.246.246,0,0,1-.084.194.253.253,0,0,1-.194.084.242.242,0,0,1-.168-.084m13.823-2.339h2.955l-1.479-3.568Zm4.4,2.146a.257.257,0,0,1-.168.222c-.026.028-.082.028-.138.028a.2.2,0,0,1-.2-.166l-.7-1.672h-3.4l-.695,1.672c-.056.11-.112.166-.224.166a.3.3,0,0,1-.14-.028c-.11-.054-.166-.11-.166-.222a.21.21,0,0,1,.028-.14l2.563-6.243a.328.328,0,0,1,.305-.222h.028a.329.329,0,0,1,.308.222l2.563,6.243a1.212,1.212,0,0,0,.028.14Zm11.733,0v-6.3c0-.2.084-.278.28-.278a.249.249,0,0,1,.278.278v6.019h3.176a.251.251,0,0,1,.28.28c0,.194-.084.278-.28.278h-3.454a.249.249,0,0,1-.28-.278" transform="translate(581.235 -454.043)" fill="#23496e"/>
</svg>
