<?xml version="1.0" encoding="UTF-8"?>
<svg xmlns="http://www.w3.org/2000/svg" xmlns:xlink="http://www.w3.org/1999/xlink" width="300" height="60" viewBox="0 0 300 60" version="1.1">
<g id="surface1">
<path style=" stroke:none;fill-rule:nonzero;fill:rgb(14.901961%,40%,69.019608%);fill-opacity:1;" d="M 12.527344 20.328125 L 17.046875 20.328125 L 17.046875 21.6875 L 0.636719 21.6875 L 0.636719 20.328125 L 5.15625 20.328125 L 5.15625 2.417969 C 5.15625 1.8125 4.800781 1.664062 3.964844 1.664062 L 0.636719 1.664062 L 0.636719 0.152344 L 18.238281 0.152344 C 20.257812 0.152344 22.398438 0.300781 24.300781 0.753906 C 28.226562 1.664062 30.722656 4.082031 30.367188 6.726562 C 30.128906 9.292969 27.15625 11.484375 23.113281 11.941406 C 20.257812 12.242188 17.285156 12.394531 14.3125 12.316406 C 12.765625 12.316406 12.171875 12.46875 12.171875 13.300781 L 12.171875 19.496094 C 12.410156 19.648438 12.527344 19.949219 12.527344 20.328125 Z M 12.171875 1.4375 L 12.171875 10.65625 C 14.3125 10.730469 16.453125 10.730469 18.59375 10.65625 C 21.328125 10.429688 22.28125 9.671875 22.519531 7.933594 L 22.519531 4.15625 C 22.398438 2.945312 20.851562 1.890625 18.832031 1.8125 C 16.691406 1.664062 14.667969 1.664062 12.171875 1.4375 Z M 67.351562 39.144531 C 68.183594 38.613281 69.132812 38.085938 70.085938 37.558594 C 70.441406 37.328125 71.039062 37.179688 71.273438 37.328125 C 71.632812 37.328125 71.871094 37.933594 71.871094 38.085938 L 71.871094 45.039062 C 71.871094 45.414062 71.871094 45.792969 70.679688 45.792969 C 69.730469 45.792969 69.132812 45.792969 68.898438 45.039062 C 68.660156 43.980469 68.183594 42.921875 67.351562 41.941406 C 65.804688 39.824219 63.425781 38.464844 59.503906 38.691406 C 55.578125 38.539062 51.890625 39.898438 50.105469 42.167969 C 49.511719 42.847656 49.15625 43.527344 48.917969 44.28125 C 48.085938 47.378906 48.203125 50.480469 49.273438 53.5 C 50.464844 56.75 55.339844 58.867188 60.453125 58.335938 C 65.210938 57.960938 68.777344 55.390625 68.898438 52.367188 C 68.898438 51.761719 69.492188 51.613281 70.441406 51.613281 C 71.394531 51.613281 71.394531 51.988281 71.394531 52.59375 C 70.917969 55.996094 67.113281 58.789062 62 59.699219 C 56.527344 60.453125 48.085938 59.472656 43.804688 55.089844 C 41.1875 52.292969 40.355469 48.96875 41.664062 45.867188 C 43.804688 38.917969 54.746094 36.648438 61.644531 37.785156 C 63.546875 38.085938 65.566406 38.539062 67.351562 39.144531 Z M 185.792969 0.679688 L 185.792969 2.039062 L 182.464844 2.039062 C 181.515625 2.039062 181.277344 2.265625 181.277344 2.796875 L 181.277344 9.371094 C 181.277344 9.75 181.277344 10.125 182.226562 10.125 L 193.167969 10.125 L 193.167969 2.039062 L 188.53125 2.039062 L 188.53125 0.679688 L 204.226562 0.679688 L 204.226562 2.039062 L 200.898438 2.039062 C 199.945312 2.039062 199.707031 2.191406 199.707031 2.796875 L 199.707031 19.722656 C 199.707031 20.328125 199.945312 20.480469 200.898438 20.328125 L 203.277344 20.328125 C 204.226562 20.328125 204.226562 20.707031 204.226562 21.082031 C 204.226562 21.6875 203.871094 21.6875 203.277344 21.6875 L 188.53125 21.6875 C 187.933594 20.328125 188.171875 20.328125 190.074219 20.328125 L 192.453125 20.328125 L 192.453125 12.394531 C 192.453125 11.789062 192.097656 11.410156 190.910156 11.636719 L 181.515625 11.636719 C 180.5625 11.636719 180.324219 11.863281 180.324219 12.394531 L 180.324219 19.722656 C 180.324219 20.328125 180.679688 20.480469 181.515625 20.480469 L 183.058594 20.480469 C 184.84375 20.480469 184.84375 20.480469 184.84375 21.839844 L 169.144531 21.839844 L 169.144531 20.480469 L 172.476562 20.480469 C 173.425781 20.480469 173.664062 20.25 173.664062 19.722656 L 173.664062 2.71875 C 173.664062 2.117188 173.308594 1.964844 172.476562 1.964844 L 169.144531 1.964844 L 169.144531 0.605469 C 175.210938 0.679688 180.324219 0.679688 185.792969 0.679688 Z M 36.429688 11.109375 C 36.789062 7.632812 37.976562 4.761719 42.257812 2.265625 C 48.679688 -1.4375 63.1875 -0.980469 66.757812 6.875 C 68.421875 10.050781 68.0625 13.449219 65.804688 16.472656 C 62.949219 20.328125 56.410156 22.59375 49.75 21.839844 C 43.210938 21.386719 38.097656 18.210938 37.027344 14.132812 C 36.667969 13.148438 36.429688 12.089844 36.429688 11.109375 Z M 44.042969 10.882812 C 44.042969 12.015625 44.042969 13.222656 44.398438 14.359375 C 44.519531 16.398438 45.828125 18.289062 48.085938 19.722656 C 50.34375 21.234375 54.03125 21.234375 56.410156 19.875 C 56.527344 19.796875 56.527344 19.796875 56.648438 19.722656 C 57.957031 18.742188 59.027344 17.683594 59.738281 16.472656 C 60.808594 13.828125 61.046875 11.109375 60.335938 8.386719 C 60.214844 7.027344 59.621094 5.742188 58.789062 4.535156 C 57.480469 2.265625 53.4375 1.058594 49.871094 1.964844 C 47.96875 2.417969 46.539062 3.324219 45.828125 4.535156 C 43.6875 6.273438 44.042969 8.613281 44.042969 10.882812 Z M 264.519531 2.039062 L 264.519531 0.679688 L 274.269531 0.679688 C 275.460938 0.605469 276.53125 0.980469 277.007812 1.664062 C 281.882812 5.894531 286.757812 10.125 291.515625 14.359375 C 291.515625 14.132812 291.515625 14.359375 292.109375 14.585938 C 292.109375 14.207031 292.347656 13.980469 292.347656 13.828125 L 292.347656 3.25 C 292.347656 2.492188 292.109375 2.117188 290.800781 2.117188 C 289.730469 2.117188 288.78125 2.039062 287.710938 1.890625 L 287.710938 0.453125 L 299.246094 0.453125 L 299.246094 1.8125 C 298.054688 1.8125 297.460938 2.039062 296.507812 2.039062 C 295.320312 2.039062 294.726562 2.417969 294.726562 3.402344 L 294.726562 20.707031 C 294.726562 21.082031 294.367188 21.6875 293.773438 21.6875 C 293.179688 21.613281 292.464844 21.535156 291.988281 21.308594 C 291.632812 21.308594 291.632812 21.160156 291.632812 20.933594 C 286.164062 16.097656 280.691406 11.335938 274.984375 6.5 C 274.152344 5.515625 272.964844 4.761719 271.773438 3.628906 L 271.773438 19.042969 C 271.773438 20.023438 272.011719 20.402344 273.558594 20.402344 L 274.507812 20.402344 C 276.292969 20.402344 276.292969 20.402344 276.292969 21.761719 L 264.757812 21.761719 C 264.164062 20.628906 264.164062 20.402344 266.304688 20.402344 C 269.039062 20.175781 269.039062 20.175781 269.039062 18.4375 L 269.039062 3.023438 C 269.039062 2.265625 268.683594 1.8125 267.492188 2.039062 Z M 125.742188 58.035156 L 129.425781 58.035156 C 130.378906 58.035156 130.378906 58.414062 130.378906 58.789062 C 130.378906 59.167969 130.378906 59.546875 129.425781 59.546875 L 115.15625 59.546875 C 114.207031 59.546875 114.207031 59.320312 114.207031 58.789062 C 114.207031 58.414062 114.207031 58.035156 115.15625 58.035156 L 118.84375 58.035156 L 118.84375 40.957031 C 118.84375 40.203125 118.484375 39.75 117.296875 39.75 L 115.511719 39.75 C 114.5625 39.75 114.324219 39.519531 114.324219 38.992188 C 114.324219 38.464844 114.679688 38.238281 115.511719 38.238281 L 132.757812 38.238281 C 136.441406 38.238281 140.011719 38.992188 141.914062 41.109375 C 144.53125 43.675781 143.339844 47.152344 139.179688 48.816406 C 138.109375 49.195312 137.039062 49.496094 135.847656 49.648438 C 133.113281 49.949219 130.257812 50.101562 127.40625 50.023438 C 126.214844 50.023438 125.859375 50.25 125.859375 51.007812 C 125.742188 53.425781 125.742188 55.542969 125.742188 58.035156 Z M 125.503906 44.207031 L 125.503906 48.058594 C 125.503906 48.4375 125.503906 48.816406 126.453125 48.816406 C 128.238281 48.816406 130.140625 48.816406 131.925781 48.589844 C 133.828125 48.589844 135.492188 47.605469 135.609375 46.398438 C 135.609375 46.324219 135.609375 46.171875 135.609375 46.097656 L 135.609375 42.089844 C 135.253906 40.503906 134.421875 39.75 131.925781 39.597656 C 130.140625 39.371094 128.59375 39.597656 126.8125 39.371094 C 125.859375 39.371094 125.621094 39.597656 125.621094 40.125 C 125.503906 41.710938 125.503906 43.074219 125.503906 44.207031 Z M 178.777344 39.898438 C 176.875 39.976562 175.09375 40.203125 173.308594 40.503906 C 171.882812 40.730469 170.691406 41.484375 170.574219 42.46875 C 170.214844 43.300781 169.980469 44.132812 169.980469 44.960938 C 169.742188 46.097656 169.742188 46.097656 167.480469 45.945312 L 167.480469 44.359375 C 167.839844 42.621094 168.074219 40.882812 168.074219 39.144531 C 168.074219 38.765625 168.074219 38.386719 169.027344 38.386719 L 196.023438 38.386719 C 196.261719 38.386719 196.496094 38.464844 196.617188 38.613281 C 196.972656 40.957031 197.210938 43.449219 197.566406 45.71875 C 195.425781 46.097656 195.425781 46.097656 195.070312 44.734375 C 194.714844 44.132812 194.476562 43.449219 194.476562 42.769531 C 194.121094 41.183594 191.859375 39.976562 189.363281 40.050781 L 186.03125 40.050781 L 186.03125 57.960938 L 192.453125 57.960938 L 192.453125 59.320312 L 172.714844 59.320312 L 172.714844 57.960938 L 179.136719 57.960938 C 178.777344 52.066406 178.777344 46.097656 178.777344 39.898438 Z M 241.210938 21.6875 L 226.347656 21.6875 C 225.75 20.328125 225.988281 20.328125 227.890625 20.328125 L 230.03125 20.328125 C 229.082031 18.96875 228.488281 17.605469 227.890625 16.472656 C 227.890625 16.246094 227.296875 16.246094 226.941406 16.246094 L 217.785156 16.246094 C 217.425781 16.246094 216.832031 16.472656 216.832031 16.625 C 216.238281 17.757812 215.644531 18.96875 215.050781 20.101562 C 216 20.101562 216.59375 20.328125 217.191406 20.328125 C 218.972656 20.328125 218.972656 20.707031 218.734375 21.6875 L 208.152344 21.6875 C 207.796875 20.328125 207.796875 20.328125 209.699219 20.328125 C 211.242188 20.480469 212.789062 19.796875 213.027344 18.742188 C 216.121094 12.921875 219.449219 7.179688 222.777344 1.210938 C 223.136719 0.605469 223.375 0.0742188 224.5625 0.0742188 C 225.75 0.0742188 226.347656 0.453125 226.703125 1.210938 C 229.082031 5.820312 231.816406 10.429688 234.3125 15.039062 C 235.265625 16.550781 236.097656 18.058594 236.8125 19.648438 C 237.050781 20.175781 237.882812 20.480469 238.59375 20.402344 L 239.546875 20.402344 C 241.566406 20.328125 241.566406 20.328125 241.210938 21.6875 Z M 227.296875 14.507812 C 225.75 11.789062 224.207031 9.292969 223.015625 6.574219 L 222.777344 6.574219 C 221.234375 9.066406 220.042969 11.789062 218.496094 14.28125 C 221.472656 14.507812 224.445312 14.585938 227.296875 14.507812 Z M 95.535156 58.035156 L 99.460938 58.035156 C 98.507812 56.675781 97.914062 55.316406 97.320312 54.179688 C 97.320312 54.03125 96.722656 53.804688 96.367188 53.804688 L 87.210938 53.804688 C 86.734375 53.878906 86.378906 53.953125 86.019531 54.179688 C 85.425781 55.390625 84.832031 56.296875 84.238281 57.65625 C 85.425781 57.882812 86.734375 57.882812 87.925781 58.035156 L 87.925781 59.394531 L 77.339844 59.394531 C 76.746094 58.035156 76.746094 58.035156 78.886719 58.035156 C 81.382812 58.035156 81.382812 58.035156 82.214844 56.523438 C 85.546875 50.707031 88.636719 44.960938 91.96875 38.992188 C 92.324219 38.386719 92.5625 37.859375 94.109375 37.859375 C 95.652344 37.859375 95.890625 38.464844 96.25 38.992188 C 99.578125 44.960938 102.90625 51.082031 106.238281 57.054688 C 106.59375 57.808594 107.1875 58.035156 108.378906 58.035156 L 109.925781 58.035156 C 110.875 58.035156 110.875 58.414062 110.875 58.789062 C 110.875 59.167969 110.519531 59.546875 109.925781 59.546875 L 96.84375 59.546875 C 94.941406 59.394531 95.773438 58.640625 95.535156 58.035156 Z M 87.328125 52.292969 L 96.484375 52.292969 C 94.941406 49.570312 93.394531 47.078125 92.203125 44.359375 L 91.847656 44.359375 C 90.300781 47.078125 88.875 49.570312 87.328125 52.292969 Z M 215.167969 59.394531 L 215.167969 58.035156 L 219.09375 58.035156 C 218.261719 56.75 217.546875 55.464844 216.953125 54.179688 C 216.953125 54.03125 216.355469 53.804688 215.761719 53.804688 L 206.960938 53.804688 C 206.488281 53.878906 206.011719 54.105469 205.773438 54.40625 C 205.179688 55.390625 204.585938 56.523438 203.988281 57.882812 C 205.179688 58.109375 206.488281 58.109375 207.675781 58.261719 L 207.675781 59.621094 L 197.09375 59.621094 C 196.496094 58.488281 196.496094 58.261719 198.636719 58.261719 C 201.136719 58.261719 201.136719 58.261719 201.96875 56.75 C 205.296875 50.933594 208.390625 45.1875 211.71875 39.445312 C 212.074219 38.839844 212.3125 38.3125 213.859375 38.3125 C 215.40625 38.3125 215.644531 38.917969 216 39.445312 C 219.332031 45.414062 222.660156 51.535156 225.988281 57.507812 C 226.347656 58.109375 226.941406 58.488281 227.773438 58.261719 L 228.960938 58.261719 C 229.914062 58.261719 230.507812 58.261719 230.507812 59.019531 C 230.507812 59.773438 229.914062 59.773438 228.960938 59.773438 L 216.476562 59.773438 C 216.121094 59.394531 215.761719 59.394531 215.167969 59.394531 Z M 211.839844 44.585938 L 211.480469 44.585938 C 209.9375 47.078125 208.746094 49.796875 207.199219 52.292969 L 216.355469 52.292969 C 214.691406 49.722656 213.144531 47.152344 211.839844 44.585938 Z M 116.703125 11.109375 C 119.4375 8.011719 121.816406 5.289062 124.550781 2.265625 C 123.363281 2.039062 122.410156 2.039062 121.222656 1.890625 L 121.222656 0.453125 L 131.804688 0.453125 L 131.804688 1.664062 L 131.566406 1.8125 C 128.476562 1.664062 127.046875 2.570312 125.742188 4.15625 C 123.601562 7.027344 120.863281 9.75 118.484375 12.46875 C 118.128906 12.847656 117.890625 13.222656 117.890625 13.601562 L 117.890625 19.421875 C 117.890625 20.023438 118.25 20.175781 119.082031 20.175781 L 120.625 20.175781 C 122.410156 20.175781 122.410156 20.175781 122.171875 21.535156 L 106.714844 21.535156 L 106.714844 20.175781 L 110.042969 20.175781 C 110.636719 20.175781 111.230469 19.949219 111.230469 19.570312 L 111.230469 13.601562 C 111.230469 13.222656 110.875 12.996094 110.636719 12.621094 C 107.546875 9.144531 104.574219 5.894531 101.480469 2.644531 C 100.886719 2.265625 100.171875 2.117188 99.339844 2.039062 C 98.390625 1.964844 97.554688 1.964844 96.605469 2.039062 L 96.605469 0.753906 L 111.707031 0.753906 L 111.707031 2.117188 C 110.519531 2.117188 109.328125 2.191406 108.019531 2.34375 C 111.230469 5.136719 113.730469 8.011719 116.703125 11.109375 Z M 165.222656 4.308594 L 165.222656 7.558594 C 165.222656 8.160156 165.222656 8.539062 164.03125 8.539062 C 163.082031 8.539062 162.488281 8.386719 162.488281 7.785156 C 162.367188 5.820312 160.820312 3.929688 158.207031 2.796875 C 153.6875 0.453125 146.074219 2.039062 143.933594 5.667969 C 143.339844 7.253906 142.984375 8.839844 142.984375 10.503906 C 142.984375 12.542969 143.339844 14.507812 144.171875 16.472656 C 145.363281 19.34375 150 20.933594 154.757812 20.707031 C 159.277344 20.328125 162.722656 17.984375 162.960938 15.113281 C 162.960938 14.507812 163.320312 14.132812 164.507812 14.132812 C 165.699219 14.132812 165.460938 14.734375 165.460938 15.113281 C 164.984375 18.363281 161.296875 21.082031 156.304688 21.839844 C 149.046875 22.972656 141.4375 20.933594 137.511719 16.851562 C 133.828125 12.621094 133.828125 4.761719 143.933594 1.4375 C 149.046875 -0.300781 154.875 -0.679688 159.988281 1.664062 C 160.347656 1.890625 160.941406 1.664062 161.179688 1.664062 C 161.773438 1.210938 162.488281 0.832031 163.320312 0.527344 C 163.558594 0.527344 164.269531 0.152344 164.507812 0.300781 C 164.746094 0.300781 165.101562 0.90625 165.101562 1.058594 L 165.101562 4.308594 Z M 259.40625 51.082031 C 258.8125 53.804688 258.453125 56.296875 257.859375 59.019531 C 257.859375 59.246094 256.910156 59.394531 256.3125 59.394531 L 235.382812 59.394531 C 233.601562 59.394531 233.601562 59.394531 233.839844 58.035156 L 238.121094 58.035156 L 238.121094 40.730469 C 238.121094 39.976562 237.882812 39.519531 236.574219 39.75 L 235.382812 39.75 C 233.242188 39.75 233.242188 39.75 233.839844 38.386719 L 250.488281 38.386719 C 251.082031 39.75 250.84375 39.75 248.941406 39.75 L 245.015625 39.75 L 245.015625 57.882812 C 250.488281 58.640625 254.769531 57.128906 255.957031 53.804688 C 256.3125 53.199219 256.3125 52.671875 256.550781 52.066406 C 257.265625 50.933594 257.265625 50.707031 259.40625 51.082031 Z M 97.675781 13.375 C 97.082031 16.097656 96.722656 18.96875 96.128906 21.6875 L 72.226562 21.6875 L 72.226562 20.328125 L 75.554688 20.328125 C 76.507812 20.328125 76.746094 20.101562 76.746094 19.570312 L 76.746094 2.039062 L 72.464844 2.039062 L 72.464844 0.679688 L 89.707031 0.679688 L 89.707031 2.039062 L 83.878906 2.039062 L 83.878906 19.34375 C 83.878906 20.101562 84.238281 20.328125 85.425781 20.328125 C 91.492188 20.328125 94.226562 18.742188 95.414062 14.960938 C 95.414062 14.734375 95.773438 14.585938 95.773438 14.359375 C 95.179688 13.222656 96.128906 13.222656 97.675781 13.375 Z M 147.265625 39.75 L 147.265625 38.386719 L 163.675781 38.386719 L 163.675781 39.75 L 159.988281 39.75 C 159.394531 39.75 158.800781 39.976562 158.800781 40.351562 L 158.800781 57.65625 C 158.800781 57.882812 158.800781 57.882812 159.039062 58.035156 L 163.558594 58.035156 L 163.558594 59.394531 L 147.144531 59.394531 L 147.144531 58.035156 L 150.714844 58.035156 C 151.664062 58.035156 151.664062 57.882812 151.664062 57.429688 L 151.664062 40.503906 C 151.664062 39.898438 151.425781 39.75 150.476562 39.75 Z M 244.898438 2.039062 L 244.898438 0.679688 L 259.40625 0.679688 C 261.191406 0.453125 261.191406 0.453125 261.191406 2.039062 L 256.3125 2.039062 L 256.3125 19.34375 C 256.3125 20.328125 256.671875 20.480469 258.21875 20.328125 L 259.40625 20.328125 C 261.191406 20.328125 261.191406 20.328125 261.191406 21.6875 L 244.777344 21.6875 C 244.421875 20.328125 244.421875 20.328125 246.5625 20.328125 C 249.65625 20.328125 249.65625 20.328125 249.65625 18.363281 L 249.65625 2.945312 C 249.65625 2.191406 249.296875 1.8125 248.109375 1.964844 C 247.039062 2.039062 245.847656 2.039062 244.898438 2.039062 Z M 244.898438 2.039062 "/>
</g>
</svg>
