<svg id="Group_83" data-name="Group 83" xmlns="http://www.w3.org/2000/svg" width="251.225" height="79.413" viewBox="0 0 251.225 79.413">
  <path id="polychain-capital" d="M-231.311,293.413h3.811v1.8h-13.774v-1.8h3.811v-23.7c0-.753-.252-1.005-1.005-1.005h-2.806V266.66h14.779a16.71,16.71,0,0,1,5.108.756,7.738,7.738,0,0,1,5.108,7.911,7.316,7.316,0,0,1-6.113,6.866,37.855,37.855,0,0,1-7.368.5c-1.257,0-1.8.25-1.8,1.255v8.163A2.081,2.081,0,0,1-231.311,293.413Zm-.25-24.953v12.226a38.043,38.043,0,0,0,5.357,0c2.3-.252,3.057-1.257,3.309-3.559v-5.108a3.252,3.252,0,0,0-3.058-3.055c-1.8-.252-3.559-.252-5.611-.5Zm46.386,49.9a21.553,21.553,0,0,1,2.3-2.052c.254-.252.753-.5,1.005-.252.252,0,.5.753.5,1.005v9.168c0,.5,0,1.005-1.005,1.005-.753,0-1.257,0-1.549-1.005a12.594,12.594,0,0,0-1.257-4.06c-1.257-2.806-3.307-4.606-6.614-4.312a8.329,8.329,0,0,0-7.913,4.6,9.244,9.244,0,0,0-1.005,2.806,33.357,33.357,0,0,0,.252,12.226,8.317,8.317,0,0,0,9.42,6.36,8.207,8.207,0,0,0,7.118-7.913c0-.753.5-1,1.255-1s.753.5.753,1.255a10.831,10.831,0,0,1-7.911,9.42c-4.606,1.005-11.724-.252-15.278-6.113a15.829,15.829,0,0,1-1.8-12.223c1.8-9.17,10.968-12.225,16.829-10.719a16.057,16.057,0,0,1,4.9,1.805Zm99.593-50.95v1.8h-2.806c-.753,0-1,.252-1,1.005v8.667c0,.5,0,1.005.753,1.005h9.168V269.174H-83.28v-1.8h13.235v1.8H-72.85c-.753,0-1,.25-1,1v22.441c0,.753.25,1.005,1,.753H-70.8c.753,0,.753.5.753,1.005,0,.753-.252.753-.753.753H-83.275c-.5-1.8-.252-1.8,1.257-1.8h2.048V282.9c0-.753-.252-1.255-1.257-1h-7.913c-.753,0-1.005.252-1.005,1v9.672c0,.753.252,1.005,1.005,1.005h1.257c1.549,0,1.549,0,1.549,1.8H-99.561v-1.8h2.806c.753,0,1-.252,1-1.005V270.135c0-.753-.252-1-1-1h-2.806v-1.779C-94.493,267.416-90.183,267.416-85.582,267.416Zm-125.59,13.772c.252-4.6,1.257-8.415,4.856-11.722,5.359-4.853,17.585-4.312,20.64,6.113a17.156,17.156,0,0,1-.756,12.727,12.593,12.593,0,0,1-13.52,7.116,12.213,12.213,0,0,1-10.719-10.173A19.975,19.975,0,0,1-211.172,281.187Zm6.36-.252a28.692,28.692,0,0,0,.252,4.606,10.521,10.521,0,0,0,3.058,7.116,4.916,4.916,0,0,0,6.952.166c.056-.054.11-.107.163-.166a15.085,15.085,0,0,0,2.563-4.31,25.747,25.747,0,0,0,.5-10.714,16.871,16.871,0,0,0-1.255-5.11,5.852,5.852,0,0,0-7.533-3.435,5.851,5.851,0,0,0-3.435,3.435c-1.507,2.3-1.255,5.357-1.255,8.415Zm185.461-11.722v-1.8h8.163a2.247,2.247,0,0,1,2.3,1.255c4.063,5.611,8.165,11.22,12.226,16.829,0-.252,0,0,.5.252,0-.5.25-.753.25-1.005V270.723c0-1.005-.25-1.549-1.255-1.549a9.948,9.948,0,0,1-2.561-.254v-1.8H9.951v1.8c-1,0-1.5.252-2.3.252-1,0-1.549.5-1.549,1.8v22.942c0,.5-.252,1.257-.753,1.257a3.92,3.92,0,0,1-1.549-.5c-.252,0-.252-.249-.252-.5-4.606-6.362-9.17-12.729-14.026-19.089-.753-1.257-1.8-2.3-2.8-3.811v20.367c0,1.255.25,1.8,1.507,1.8h.753c1.507,0,1.507,0,1.507,1.8h-9.672c-.5-1.549-.5-1.8,1.257-1.8,2.3-.252,2.3-.252,2.3-2.563v-20.4c0-1.005-.252-1.551-1.255-1.257Zm-116.674,74.1h3.058c.753,0,.753.5.753,1.005s0,1.005-.753,1.005h-11.974c-.756,0-.756-.254-.756-1.005,0-.5,0-1.005.756-1.005h3.055V320.667c0-1.005-.252-1.551-1.257-1.551h-1.549c-.753,0-1.005-.252-1.005-1s.252-1.005,1.005-1.005h14.527c3.058,0,6.113,1.005,7.661,3.811a7.354,7.354,0,0,1-2.265,10.154,7.332,7.332,0,0,1-2.841,1.063,34.021,34.021,0,0,1-7.118.5c-1.005,0-1.257.252-1.257,1.255-.04,3.309-.04,6.113-.04,9.42Zm-.252-18.338v5.108c0,.5,0,1.005.756,1.005a28.142,28.142,0,0,0,4.6-.252,2.987,2.987,0,0,0,3.072-2.9,2.927,2.927,0,0,0-.014-.4v-5.336c-.252-2.052-1.005-3.055-3.058-3.307-1.549-.252-2.806,0-4.312-.252-.753,0-1.005.252-1.005,1.005-.042,2.029-.042,3.832-.042,5.336Zm44.837-5.609a25.011,25.011,0,0,0-4.6.753,2.989,2.989,0,0,0-2.3,2.561,14.964,14.964,0,0,0-.5,3.307c-.25,1.549-.25,1.549-2.05,1.257v-2.052a64.377,64.377,0,0,0,.5-6.866c0-.5,0-1.005.753-1.005H-76.96a.789.789,0,0,1,.5.252c.252,3.058.5,6.362.753,9.42-1.8.5-1.8.5-2.05-1.255a7.706,7.706,0,0,1-.5-2.563,4.145,4.145,0,0,0-4.312-3.557h-2.806v23.7h5.359v1.8h-16.57v-1.8h5.357c-.208-7.871-.208-15.785-.208-23.947Zm52.5-24.157H-51.417c-.5-1.8-.252-1.8,1.257-1.8h1.8c-.753-1.8-1.257-3.559-1.8-5.108,0-.252-.5-.252-.753-.252h-7.659c-.252,0-.756.252-.756.5-.5,1.549-1,3.057-1.549,4.606.756,0,1.257.252,1.8.252,1.549,0,1.549.5,1.257,1.8H-66.74c-.252-1.8-.252-1.8,1.257-1.8a2.53,2.53,0,0,0,2.806-2.052c2.561-7.661,5.357-15.278,8.163-23.194.252-.753.5-1.549,1.549-1.549s1.549.5,1.8,1.549c2.05,6.113,4.31,12.223,6.36,18.338a57.848,57.848,0,0,1,2.052,6.113,1.4,1.4,0,0,0,1.549,1h.753c1.761-.207,1.761-.207,1.509,1.593Zm-11.722-9.439c-1.255-3.559-2.561-6.866-3.559-10.467h-.25c-1.257,3.307-2.3,6.866-3.559,10.173a57.986,57.986,0,0,0,7.368.294Zm-110.816,57.541h3.307c-.753-1.8-1.257-3.557-1.8-5.108,0-.25-.5-.5-.753-.5h-7.664a1.917,1.917,0,0,0-1.005.5c-.5,1.551-1.005,2.806-1.549,4.606,1.005.252,2.05.252,3.055.5v1.8H-176.8c-.5-1.8-.5-1.8,1.255-1.8,2.052,0,2.052,0,2.806-2.05,2.806-7.661,5.359-15.278,8.163-23.194.252-.753.5-1.549,1.8-1.549s1.549.753,1.8,1.549c2.806,7.913,5.611,16.034,8.415,23.947.254,1,.756,1.255,1.8,1.255h1.255c.753,0,.753.5.753,1.005s-.252,1.005-.753,1.005h-10.968c-1.546-.166-.751-1.171-1-1.966Zm-6.91-7.619h7.661c-1.255-3.559-2.561-6.864-3.557-10.465h-.252c-1.292,3.6-2.551,6.908-3.853,10.467Zm107.508,9.42v-1.8h3.307a49.863,49.863,0,0,1-1.8-5.108c0-.25-.5-.5-1-.5h-7.365a1.35,1.35,0,0,0-1.005.753c-.5,1.257-1,2.806-1.549,4.606,1.005.252,2.052.252,3.055.5v1.8h-8.916c-.5-1.549-.5-1.8,1.257-1.8,2.05,0,2.05,0,2.806-2.05,2.8-7.661,5.357-15.281,8.163-22.944.252-.753.5-1.549,1.8-1.549s1.549.753,1.8,1.549c2.8,7.916,5.609,16.036,8.415,23.947.252.756.753,1.257,1.549,1.005h1.008c.753,0,1.255,0,1.255,1.005s-.5,1.005-1.255,1.005H-59.827c-.252-.42-.5-.42-1.047-.42Zm-2.759-19.635h-.252c-1.255,3.307-2.3,6.866-3.559,10.173h7.661a80.778,80.778,0,0,1-3.85-10.171Zm-80.047-44.291c2.3-4.06,4.312-7.661,6.614-11.722-1-.252-1.8-.252-2.8-.5v-1.8h8.916v1.553l-.25.25c-2.561-.25-3.811,1.005-4.858,3.058-1.8,3.809-4.06,7.367-6.11,10.968a3.511,3.511,0,0,0-.5,1.549V292.2c0,.756.252,1.005,1.005,1.005h1.257c1.549,0,1.549,0,1.255,1.8h-12.979v-1.8h2.806c.5,0,1.005-.252,1.005-.753v-7.913c0-.5-.252-.753-.5-1.257-2.561-4.6-5.105-8.916-7.661-13.228a2.739,2.739,0,0,0-1.8-.756,7.19,7.19,0,0,0-2.3,0v-1.8h12.725v1.8a13.568,13.568,0,0,0-3.055.252c2.677,3.722,4.734,7.573,7.242,11.633Zm40.777-8.918v4.312c0,.753,0,1.255-1,1.255-.756,0-1.257-.25-1.257-1a8.594,8.594,0,0,0-3.559-6.614c-3.808-3.058-10.173-1.005-11.974,3.809a27.43,27.43,0,0,0-.753,6.36,28.5,28.5,0,0,0,1.005,7.913c1,3.811,4.856,5.861,8.916,5.611a7.871,7.871,0,0,0,6.866-7.363c0-.756.252-1.257,1.257-1.257s.753.753.753,1.257a10.245,10.245,0,0,1-7.661,8.916,14.49,14.49,0,0,1-15.782-6.617c-3.058-5.611-3.058-16.034,5.357-20.391,4.315-2.3,9.168-2.806,13.522.254.252.252.756,0,1.005,0a11.886,11.886,0,0,1,1.8-1.549c.25,0,.753-.5,1.005-.252.25,0,.5.753.5,1.005Zm79.249,61.883c-.5,3.559-.753,6.866-1.255,10.467,0,.252-.756.5-1.257.5H-43.751c-1.549,0-1.549,0-1.255-1.8h3.557V320.415c0-1.005-.25-1.551-1.255-1.257h-1.005c-1.8,0-1.8,0-1.257-1.8H-30.94c.5,1.8.252,1.8-1.257,1.8h-3.309v23.968c4.6,1.005,8.163-1.005,9.168-5.359.252-.753.252-1.549.5-2.3C-25.457,333.917-25.457,333.646-23.661,334.152Zm-136.06-49.907c-.5,3.559-.753,7.367-1.257,10.966h-20.134v-1.8h2.806c.753,0,1.005-.252,1.005-1.005V269.214h-3.559v-1.8h14.527v1.8H-171.2v22.9c0,1.005.252,1.257,1.257,1.257,5.108,0,7.368-2.052,8.415-7.118,0-.252.252-.5.252-.753-.5-1.507.294-1.507,1.549-1.257Zm41.782,34.878v-1.8h13.772v1.8h-3.055c-.5,0-1,.252-1,.753v22.935c0,.252,0,.252.25.5h3.809v1.8h-13.772v-1.8h3.048c.753,0,.753-.25.753-.753V320.128c0-.753-.25-1.005-1-1.005Zm82.055-49.9v-1.8h12.223c1.509-.252,1.509-.252,1.509,1.8h-4.1v22.893c0,1.257.252,1.549,1.551,1.257h1c1.509,0,1.509,0,1.509,1.8H-35.968c-.252-1.8-.252-1.8,1.549-1.8,2.561,0,2.561,0,2.561-2.561V270.429c0-1.005-.252-1.549-1.255-1.255-1.005.04-2.01.04-2.764.04Z" transform="translate(241.274 -266.515)" fill="#020101"/>
</svg>
