<?xml version="1.0" encoding="UTF-8"?>
<svg xmlns="http://www.w3.org/2000/svg" xmlns:xlink="http://www.w3.org/1999/xlink" width="300" height="50" viewBox="0 0 300 50" version="1.1">
<g id="surface1">
<path style=" stroke:none;fill-rule:nonzero;fill:rgb(14.901961%,40%,69.019608%);fill-opacity:1;" d="M 12.527344 16.941406 L 17.046875 16.941406 L 17.046875 18.074219 L 0.636719 18.074219 L 0.636719 16.941406 L 5.15625 16.941406 L 5.15625 2.015625 C 5.15625 1.511719 4.800781 1.386719 3.964844 1.386719 L 0.636719 1.386719 L 0.636719 0.125 L 18.238281 0.125 C 20.257812 0.125 22.398438 0.25 24.300781 0.628906 C 28.226562 1.386719 30.722656 3.402344 30.367188 5.605469 C 30.128906 7.746094 27.15625 9.570312 23.113281 9.949219 C 20.257812 10.203125 17.285156 10.328125 14.3125 10.265625 C 12.765625 10.265625 12.171875 10.390625 12.171875 11.082031 L 12.171875 16.246094 C 12.410156 16.371094 12.527344 16.625 12.527344 16.941406 Z M 12.171875 1.195312 L 12.171875 8.878906 C 14.3125 8.941406 16.453125 8.941406 18.59375 8.878906 C 21.328125 8.691406 22.28125 8.058594 22.519531 6.613281 L 22.519531 3.464844 C 22.398438 2.457031 20.851562 1.574219 18.832031 1.511719 C 16.691406 1.386719 14.667969 1.386719 12.171875 1.195312 Z M 67.351562 32.621094 C 68.183594 32.179688 69.132812 31.738281 70.085938 31.296875 C 70.441406 31.109375 71.039062 30.980469 71.273438 31.109375 C 71.632812 31.109375 71.871094 31.613281 71.871094 31.738281 L 71.871094 37.53125 C 71.871094 37.847656 71.871094 38.160156 70.679688 38.160156 C 69.730469 38.160156 69.132812 38.160156 68.898438 37.53125 C 68.660156 36.648438 68.183594 35.769531 67.351562 34.949219 C 65.804688 33.1875 63.425781 32.054688 59.503906 32.242188 C 55.578125 32.117188 51.890625 33.25 50.105469 35.136719 C 49.511719 35.707031 49.15625 36.273438 48.917969 36.902344 C 48.085938 39.484375 48.203125 42.066406 49.273438 44.585938 C 50.464844 47.292969 55.339844 49.054688 60.453125 48.613281 C 65.210938 48.300781 68.777344 46.160156 68.898438 43.640625 C 68.898438 43.136719 69.492188 43.011719 70.441406 43.011719 C 71.394531 43.011719 71.394531 43.324219 71.394531 43.828125 C 70.917969 46.664062 67.113281 48.992188 62 49.75 C 56.527344 50.378906 48.085938 49.558594 43.804688 45.90625 C 41.1875 43.578125 40.355469 40.804688 41.664062 38.222656 C 43.804688 32.429688 54.746094 30.542969 61.644531 31.484375 C 63.546875 31.738281 65.566406 32.117188 67.351562 32.621094 Z M 185.792969 0.566406 L 185.792969 1.699219 L 182.464844 1.699219 C 181.515625 1.699219 181.277344 1.890625 181.277344 2.328125 L 181.277344 7.808594 C 181.277344 8.125 181.277344 8.4375 182.226562 8.4375 L 193.167969 8.4375 L 193.167969 1.699219 L 188.53125 1.699219 L 188.53125 0.566406 L 204.226562 0.566406 L 204.226562 1.699219 L 200.898438 1.699219 C 199.945312 1.699219 199.707031 1.828125 199.707031 2.328125 L 199.707031 16.4375 C 199.707031 16.941406 199.945312 17.066406 200.898438 16.941406 L 203.277344 16.941406 C 204.226562 16.941406 204.226562 17.253906 204.226562 17.570312 C 204.226562 18.074219 203.871094 18.074219 203.277344 18.074219 L 188.53125 18.074219 C 187.933594 16.941406 188.171875 16.941406 190.074219 16.941406 L 192.453125 16.941406 L 192.453125 10.328125 C 192.453125 9.824219 192.097656 9.507812 190.910156 9.699219 L 181.515625 9.699219 C 180.5625 9.699219 180.324219 9.886719 180.324219 10.328125 L 180.324219 16.4375 C 180.324219 16.941406 180.679688 17.066406 181.515625 17.066406 L 183.058594 17.066406 C 184.84375 17.066406 184.84375 17.066406 184.84375 18.199219 L 169.144531 18.199219 L 169.144531 17.066406 L 172.476562 17.066406 C 173.425781 17.066406 173.664062 16.875 173.664062 16.4375 L 173.664062 2.265625 C 173.664062 1.761719 173.308594 1.636719 172.476562 1.636719 L 169.144531 1.636719 L 169.144531 0.503906 C 175.210938 0.566406 180.324219 0.566406 185.792969 0.566406 Z M 36.429688 9.257812 C 36.789062 6.359375 37.976562 3.96875 42.257812 1.890625 C 48.679688 -1.195312 63.1875 -0.820312 66.757812 5.730469 C 68.421875 8.375 68.0625 11.210938 65.804688 13.726562 C 62.949219 16.941406 56.410156 18.828125 49.75 18.199219 C 43.210938 17.820312 38.097656 15.175781 37.027344 11.777344 C 36.667969 10.957031 36.429688 10.074219 36.429688 9.257812 Z M 44.042969 9.066406 C 44.042969 10.011719 44.042969 11.019531 44.398438 11.964844 C 44.519531 13.664062 45.828125 15.238281 48.085938 16.4375 C 50.34375 17.695312 54.03125 17.695312 56.410156 16.5625 C 56.527344 16.5 56.527344 16.5 56.648438 16.4375 C 57.957031 15.617188 59.027344 14.734375 59.738281 13.726562 C 60.808594 11.523438 61.046875 9.257812 60.335938 6.988281 C 60.214844 5.855469 59.621094 4.785156 58.789062 3.777344 C 57.480469 1.890625 53.4375 0.882812 49.871094 1.636719 C 47.96875 2.015625 46.539062 2.769531 45.828125 3.777344 C 43.6875 5.226562 44.042969 7.179688 44.042969 9.066406 Z M 264.519531 1.699219 L 264.519531 0.566406 L 274.269531 0.566406 C 275.460938 0.503906 276.53125 0.820312 277.007812 1.386719 C 281.882812 4.910156 286.757812 8.4375 291.515625 11.964844 C 291.515625 11.777344 291.515625 11.964844 292.109375 12.152344 C 292.109375 11.839844 292.347656 11.648438 292.347656 11.523438 L 292.347656 2.707031 C 292.347656 2.078125 292.109375 1.761719 290.800781 1.761719 C 289.730469 1.761719 288.78125 1.699219 287.710938 1.574219 L 287.710938 0.378906 L 299.246094 0.378906 L 299.246094 1.511719 C 298.054688 1.511719 297.460938 1.699219 296.507812 1.699219 C 295.320312 1.699219 294.726562 2.015625 294.726562 2.832031 L 294.726562 17.253906 C 294.726562 17.570312 294.367188 18.074219 293.773438 18.074219 C 293.179688 18.011719 292.464844 17.945312 291.988281 17.757812 C 291.632812 17.757812 291.632812 17.632812 291.632812 17.441406 C 286.164062 13.414062 280.691406 9.445312 274.984375 5.414062 C 274.152344 4.597656 272.964844 3.96875 271.773438 3.023438 L 271.773438 15.867188 C 271.773438 16.6875 272.011719 17.003906 273.558594 17.003906 L 274.507812 17.003906 C 276.292969 17.003906 276.292969 17.003906 276.292969 18.136719 L 264.757812 18.136719 C 264.164062 17.191406 264.164062 17.003906 266.304688 17.003906 C 269.039062 16.8125 269.039062 16.8125 269.039062 15.367188 L 269.039062 2.519531 C 269.039062 1.890625 268.683594 1.511719 267.492188 1.699219 Z M 125.742188 48.363281 L 129.425781 48.363281 C 130.378906 48.363281 130.378906 48.675781 130.378906 48.992188 C 130.378906 49.308594 130.378906 49.621094 129.425781 49.621094 L 115.15625 49.621094 C 114.207031 49.621094 114.207031 49.433594 114.207031 48.992188 C 114.207031 48.675781 114.207031 48.363281 115.15625 48.363281 L 118.84375 48.363281 L 118.84375 34.132812 C 118.84375 33.5 118.484375 33.125 117.296875 33.125 L 115.511719 33.125 C 114.5625 33.125 114.324219 32.933594 114.324219 32.492188 C 114.324219 32.054688 114.679688 31.863281 115.511719 31.863281 L 132.757812 31.863281 C 136.441406 31.863281 140.011719 32.492188 141.914062 34.257812 C 144.53125 36.398438 143.339844 39.292969 139.179688 40.679688 C 138.109375 40.996094 137.039062 41.246094 135.847656 41.371094 C 133.113281 41.625 130.257812 41.75 127.40625 41.6875 C 126.214844 41.6875 125.859375 41.875 125.859375 42.507812 C 125.742188 44.519531 125.742188 46.285156 125.742188 48.363281 Z M 125.503906 36.839844 L 125.503906 40.050781 C 125.503906 40.367188 125.503906 40.679688 126.453125 40.679688 C 128.238281 40.679688 130.140625 40.679688 131.925781 40.492188 C 133.828125 40.492188 135.492188 39.671875 135.609375 38.664062 C 135.609375 38.601562 135.609375 38.476562 135.609375 38.414062 L 135.609375 35.074219 C 135.253906 33.753906 134.421875 33.125 131.925781 32.996094 C 130.140625 32.808594 128.59375 32.996094 126.8125 32.808594 C 125.859375 32.808594 125.621094 32.996094 125.621094 33.4375 C 125.503906 34.761719 125.503906 35.894531 125.503906 36.839844 Z M 178.777344 33.25 C 176.875 33.3125 175.09375 33.5 173.308594 33.753906 C 171.882812 33.941406 170.691406 34.570312 170.574219 35.390625 C 170.214844 36.082031 169.980469 36.777344 169.980469 37.46875 C 169.742188 38.414062 169.742188 38.414062 167.480469 38.289062 L 167.480469 36.964844 C 167.839844 35.515625 168.074219 34.066406 168.074219 32.621094 C 168.074219 32.304688 168.074219 31.988281 169.027344 31.988281 L 196.023438 31.988281 C 196.261719 31.988281 196.496094 32.054688 196.617188 32.179688 C 196.972656 34.132812 197.210938 36.210938 197.566406 38.097656 C 195.425781 38.414062 195.425781 38.414062 195.070312 37.28125 C 194.714844 36.777344 194.476562 36.210938 194.476562 35.640625 C 194.121094 34.320312 191.859375 33.3125 189.363281 33.375 L 186.03125 33.375 L 186.03125 48.300781 L 192.453125 48.300781 L 192.453125 49.433594 L 172.714844 49.433594 L 172.714844 48.300781 L 179.136719 48.300781 C 178.777344 43.386719 178.777344 38.414062 178.777344 33.25 Z M 241.210938 18.074219 L 226.347656 18.074219 C 225.75 16.941406 225.988281 16.941406 227.890625 16.941406 L 230.03125 16.941406 C 229.082031 15.804688 228.488281 14.671875 227.890625 13.726562 C 227.890625 13.539062 227.296875 13.539062 226.941406 13.539062 L 217.785156 13.539062 C 217.425781 13.539062 216.832031 13.726562 216.832031 13.855469 C 216.238281 14.796875 215.644531 15.804688 215.050781 16.75 C 216 16.75 216.59375 16.941406 217.191406 16.941406 C 218.972656 16.941406 218.972656 17.253906 218.734375 18.074219 L 208.152344 18.074219 C 207.796875 16.941406 207.796875 16.941406 209.699219 16.941406 C 211.242188 17.066406 212.789062 16.5 213.027344 15.617188 C 216.121094 10.769531 219.449219 5.980469 222.777344 1.007812 C 223.136719 0.503906 223.375 0.0625 224.5625 0.0625 C 225.75 0.0625 226.347656 0.378906 226.703125 1.007812 C 229.082031 4.847656 231.816406 8.691406 234.3125 12.53125 C 235.265625 13.789062 236.097656 15.050781 236.8125 16.371094 C 237.050781 16.8125 237.882812 17.066406 238.59375 17.003906 L 239.546875 17.003906 C 241.566406 16.941406 241.566406 16.941406 241.210938 18.074219 Z M 227.296875 12.089844 C 225.75 9.824219 224.207031 7.746094 223.015625 5.480469 L 222.777344 5.480469 C 221.234375 7.558594 220.042969 9.824219 218.496094 11.902344 C 221.472656 12.089844 224.445312 12.152344 227.296875 12.089844 Z M 95.535156 48.363281 L 99.460938 48.363281 C 98.507812 47.230469 97.914062 46.097656 97.320312 45.152344 C 97.320312 45.023438 96.722656 44.835938 96.367188 44.835938 L 87.210938 44.835938 C 86.734375 44.898438 86.378906 44.960938 86.019531 45.152344 C 85.425781 46.160156 84.832031 46.914062 84.238281 48.046875 C 85.425781 48.238281 86.734375 48.238281 87.925781 48.363281 L 87.925781 49.496094 L 77.339844 49.496094 C 76.746094 48.363281 76.746094 48.363281 78.886719 48.363281 C 81.382812 48.363281 81.382812 48.363281 82.214844 47.101562 C 85.546875 42.253906 88.636719 37.46875 91.96875 32.492188 C 92.324219 31.988281 92.5625 31.550781 94.109375 31.550781 C 95.652344 31.550781 95.890625 32.054688 96.25 32.492188 C 99.578125 37.46875 102.90625 42.570312 106.238281 47.542969 C 106.59375 48.171875 107.1875 48.363281 108.378906 48.363281 L 109.925781 48.363281 C 110.875 48.363281 110.875 48.675781 110.875 48.992188 C 110.875 49.308594 110.519531 49.621094 109.925781 49.621094 L 96.84375 49.621094 C 94.941406 49.496094 95.773438 48.867188 95.535156 48.363281 Z M 87.328125 43.578125 L 96.484375 43.578125 C 94.941406 41.308594 93.394531 39.230469 92.203125 36.964844 L 91.847656 36.964844 C 90.300781 39.230469 88.875 41.308594 87.328125 43.578125 Z M 215.167969 49.496094 L 215.167969 48.363281 L 219.09375 48.363281 C 218.261719 47.292969 217.546875 46.222656 216.953125 45.152344 C 216.953125 45.023438 216.355469 44.835938 215.761719 44.835938 L 206.960938 44.835938 C 206.488281 44.898438 206.011719 45.089844 205.773438 45.339844 C 205.179688 46.160156 204.585938 47.101562 203.988281 48.238281 C 205.179688 48.425781 206.488281 48.425781 207.675781 48.550781 L 207.675781 49.683594 L 197.09375 49.683594 C 196.496094 48.742188 196.496094 48.550781 198.636719 48.550781 C 201.136719 48.550781 201.136719 48.550781 201.96875 47.292969 C 205.296875 42.441406 208.390625 37.65625 211.71875 32.871094 C 212.074219 32.367188 212.3125 31.925781 213.859375 31.925781 C 215.40625 31.925781 215.644531 32.429688 216 32.871094 C 219.332031 37.847656 222.660156 42.945312 225.988281 47.921875 C 226.347656 48.425781 226.941406 48.742188 227.773438 48.550781 L 228.960938 48.550781 C 229.914062 48.550781 230.507812 48.550781 230.507812 49.179688 C 230.507812 49.8125 229.914062 49.8125 228.960938 49.8125 L 216.476562 49.8125 C 216.121094 49.496094 215.761719 49.496094 215.167969 49.496094 Z M 211.839844 37.152344 L 211.480469 37.152344 C 209.9375 39.230469 208.746094 41.5 207.199219 43.578125 L 216.355469 43.578125 C 214.691406 41.4375 213.144531 39.292969 211.839844 37.152344 Z M 116.703125 9.257812 C 119.4375 6.675781 121.816406 4.40625 124.550781 1.890625 C 123.363281 1.699219 122.410156 1.699219 121.222656 1.574219 L 121.222656 0.378906 L 131.804688 0.378906 L 131.804688 1.386719 L 131.566406 1.511719 C 128.476562 1.386719 127.046875 2.140625 125.742188 3.464844 C 123.601562 5.855469 120.863281 8.125 118.484375 10.390625 C 118.128906 10.707031 117.890625 11.019531 117.890625 11.335938 L 117.890625 16.183594 C 117.890625 16.6875 118.25 16.8125 119.082031 16.8125 L 120.625 16.8125 C 122.410156 16.8125 122.410156 16.8125 122.171875 17.945312 L 106.714844 17.945312 L 106.714844 16.8125 L 110.042969 16.8125 C 110.636719 16.8125 111.230469 16.625 111.230469 16.308594 L 111.230469 11.335938 C 111.230469 11.019531 110.875 10.832031 110.636719 10.515625 C 107.546875 7.621094 104.574219 4.910156 101.480469 2.203125 C 100.886719 1.890625 100.171875 1.761719 99.339844 1.699219 C 98.390625 1.636719 97.554688 1.636719 96.605469 1.699219 L 96.605469 0.628906 L 111.707031 0.628906 L 111.707031 1.761719 C 110.519531 1.761719 109.328125 1.828125 108.019531 1.953125 C 111.230469 4.28125 113.730469 6.675781 116.703125 9.257812 Z M 165.222656 3.589844 L 165.222656 6.296875 C 165.222656 6.800781 165.222656 7.117188 164.03125 7.117188 C 163.082031 7.117188 162.488281 6.988281 162.488281 6.484375 C 162.367188 4.847656 160.820312 3.273438 158.207031 2.328125 C 153.6875 0.378906 146.074219 1.699219 143.933594 4.722656 C 143.339844 6.046875 142.984375 7.367188 142.984375 8.753906 C 142.984375 10.453125 143.339844 12.089844 144.171875 13.726562 C 145.363281 16.121094 150 17.441406 154.757812 17.253906 C 159.277344 16.941406 162.722656 14.988281 162.960938 12.59375 C 162.960938 12.089844 163.320312 11.777344 164.507812 11.777344 C 165.699219 11.777344 165.460938 12.28125 165.460938 12.59375 C 164.984375 15.300781 161.296875 17.570312 156.304688 18.199219 C 149.046875 19.144531 141.4375 17.441406 137.511719 14.042969 C 133.828125 10.515625 133.828125 3.96875 143.933594 1.195312 C 149.046875 -0.25 154.875 -0.566406 159.988281 1.386719 C 160.347656 1.574219 160.941406 1.386719 161.179688 1.386719 C 161.773438 1.007812 162.488281 0.691406 163.320312 0.441406 C 163.558594 0.441406 164.269531 0.125 164.507812 0.25 C 164.746094 0.25 165.101562 0.753906 165.101562 0.882812 L 165.101562 3.589844 Z M 259.40625 42.570312 C 258.8125 44.835938 258.453125 46.914062 257.859375 49.179688 C 257.859375 49.371094 256.910156 49.496094 256.3125 49.496094 L 235.382812 49.496094 C 233.601562 49.496094 233.601562 49.496094 233.839844 48.363281 L 238.121094 48.363281 L 238.121094 33.941406 C 238.121094 33.3125 237.882812 32.933594 236.574219 33.125 L 235.382812 33.125 C 233.242188 33.125 233.242188 33.125 233.839844 31.988281 L 250.488281 31.988281 C 251.082031 33.125 250.84375 33.125 248.941406 33.125 L 245.015625 33.125 L 245.015625 48.238281 C 250.488281 48.867188 254.769531 47.605469 255.957031 44.835938 C 256.3125 44.332031 256.3125 43.890625 256.550781 43.386719 C 257.265625 42.441406 257.265625 42.253906 259.40625 42.570312 Z M 97.675781 11.144531 C 97.082031 13.414062 96.722656 15.804688 96.128906 18.074219 L 72.226562 18.074219 L 72.226562 16.941406 L 75.554688 16.941406 C 76.507812 16.941406 76.746094 16.75 76.746094 16.308594 L 76.746094 1.699219 L 72.464844 1.699219 L 72.464844 0.566406 L 89.707031 0.566406 L 89.707031 1.699219 L 83.878906 1.699219 L 83.878906 16.121094 C 83.878906 16.75 84.238281 16.941406 85.425781 16.941406 C 91.492188 16.941406 94.226562 15.617188 95.414062 12.46875 C 95.414062 12.28125 95.773438 12.152344 95.773438 11.964844 C 95.179688 11.019531 96.128906 11.019531 97.675781 11.144531 Z M 147.265625 33.125 L 147.265625 31.988281 L 163.675781 31.988281 L 163.675781 33.125 L 159.988281 33.125 C 159.394531 33.125 158.800781 33.3125 158.800781 33.628906 L 158.800781 48.046875 C 158.800781 48.238281 158.800781 48.238281 159.039062 48.363281 L 163.558594 48.363281 L 163.558594 49.496094 L 147.144531 49.496094 L 147.144531 48.363281 L 150.714844 48.363281 C 151.664062 48.363281 151.664062 48.238281 151.664062 47.859375 L 151.664062 33.753906 C 151.664062 33.25 151.425781 33.125 150.476562 33.125 Z M 244.898438 1.699219 L 244.898438 0.566406 L 259.40625 0.566406 C 261.191406 0.378906 261.191406 0.378906 261.191406 1.699219 L 256.3125 1.699219 L 256.3125 16.121094 C 256.3125 16.941406 256.671875 17.066406 258.21875 16.941406 L 259.40625 16.941406 C 261.191406 16.941406 261.191406 16.941406 261.191406 18.074219 L 244.777344 18.074219 C 244.421875 16.941406 244.421875 16.941406 246.5625 16.941406 C 249.65625 16.941406 249.65625 16.941406 249.65625 15.300781 L 249.65625 2.457031 C 249.65625 1.828125 249.296875 1.511719 248.109375 1.636719 C 247.039062 1.699219 245.847656 1.699219 244.898438 1.699219 Z M 244.898438 1.699219 "/>
</g>
</svg>
