<?xml version="1.0" encoding="utf-8"?>
<!-- Generator: Adobe Illustrator 26.3.1, SVG Export Plug-In . SVG Version: 6.00 Build 0)  -->
<svg version="1.1" id="Group_83" xmlns="http://www.w3.org/2000/svg" xmlns:xlink="http://www.w3.org/1999/xlink" x="0px" y="0px"
	 viewBox="0 0 251.2 79.4" style="enable-background:new 0 0 251.2 79.4;" xml:space="preserve">
<style type="text/css">
	.st0{fill:#2666B0;}
</style>
<path id="polychain-capital" class="st0" d="M10,26.9h3.8v1.8H0v-1.8h3.8V3.2c0-0.8-0.3-1-1-1H0v-2h14.8c1.7,0,3.5,0.2,5.1,0.8
	c3.3,1.2,5.4,4.4,5.1,7.9c-0.2,3.4-2.7,6.3-6.1,6.9c-2.4,0.4-4.9,0.6-7.4,0.5c-1.3,0-1.8,0.2-1.8,1.3v8.2C9.9,26,10,26.4,10,26.9z
	 M9.7,1.9v12.2c1.8,0.1,3.6,0.1,5.4,0c2.3-0.3,3.1-1.3,3.3-3.6V5.5c-0.1-1.6-1.4-3-3.1-3.1C13.5,2.2,11.8,2.2,9.7,1.9L9.7,1.9z
	 M56.1,51.8c0.7-0.7,1.5-1.4,2.3-2.1c0.3-0.3,0.8-0.5,1-0.3c0.3,0,0.5,0.8,0.5,1v9.2c0,0.5,0,1-1,1c-0.8,0-1.3,0-1.5-1
	c-0.2-1.4-0.6-2.8-1.3-4.1c-1.3-2.8-3.3-4.6-6.6-4.3c-3.3-0.2-6.4,1.6-7.9,4.6c-0.5,0.9-0.8,1.8-1,2.8c-0.7,4.1-0.6,8.2,0.3,12.2
	c1,4.3,5.1,7.1,9.4,6.4c4-0.5,7-3.9,7.1-7.9c0-0.8,0.5-1,1.3-1s0.8,0.5,0.8,1.3c-0.4,4.5-3.6,8.2-7.9,9.4c-4.6,1-11.7-0.3-15.3-6.1
	c-2.2-3.7-2.9-8.1-1.8-12.2c1.8-9.2,11-12.2,16.8-10.7C52.9,50.4,54.6,51,56.1,51.8L56.1,51.8z M155.7,0.9v1.8h-2.8
	c-0.8,0-1,0.3-1,1v8.7c0,0.5,0,1,0.8,1h9.2V2.7H158V0.9h13.2v1.8h-2.8c-0.8,0-1,0.2-1,1v22.4c0,0.8,0.2,1,1,0.8h2
	c0.8,0,0.8,0.5,0.8,1c0,0.8-0.3,0.8-0.8,0.8H158c-0.5-1.8-0.3-1.8,1.3-1.8h2V16.4c0-0.8-0.3-1.3-1.3-1h-7.9c-0.8,0-1,0.3-1,1v9.7
	c0,0.8,0.3,1,1,1h1.3c1.5,0,1.5,0,1.5,1.8h-13.2v-1.8h2.8c0.8,0,1-0.3,1-1V3.6c0-0.8-0.3-1-1-1h-2.8V0.8
	C146.8,0.9,151.1,0.9,155.7,0.9L155.7,0.9z M30.1,14.7c0.3-4.6,1.3-8.4,4.9-11.7c5.4-4.9,17.6-4.3,20.6,6.1
	c1.4,4.2,1.1,8.7-0.8,12.7c-2.4,5.1-7.9,8.1-13.5,7.1c-5.5-0.6-9.8-4.8-10.7-10.2C30.3,17.4,30.1,16,30.1,14.7L30.1,14.7z
	 M36.5,14.4c0,1.5,0,3.1,0.3,4.6c0.1,2.7,1.2,5.2,3.1,7.1c1.9,2,5,2,7,0.2c0,0,0,0,0,0c0.1-0.1,0.1-0.1,0.2-0.2
	c1.1-1.3,2-2.7,2.6-4.3c0.9-3.5,1.1-7.1,0.5-10.7c-0.1-1.8-0.6-3.5-1.3-5.1c-1.1-3-4.5-4.6-7.5-3.4c0,0,0,0,0,0
	c-1.6,0.6-2.8,1.8-3.4,3.4C36.2,8.3,36.5,11.4,36.5,14.4L36.5,14.4z M221.9,2.7V0.9h8.2c1-0.1,1.9,0.4,2.3,1.3
	c4.1,5.6,8.2,11.2,12.2,16.8c0-0.3,0,0,0.5,0.3c0-0.5,0.2-0.8,0.2-1v-14c0-1-0.2-1.5-1.3-1.5c-0.9,0-1.7-0.1-2.6-0.3V0.6h9.7v1.8
	c-1,0-1.5,0.3-2.3,0.3c-1,0-1.5,0.5-1.5,1.8v22.9c0,0.5-0.3,1.3-0.8,1.3c-0.5-0.1-1.1-0.2-1.5-0.5c-0.3,0-0.3-0.2-0.3-0.5
	c-4.6-6.4-9.2-12.7-14-19.1C230,7.3,229,6.3,228,4.8v20.4c0,1.3,0.2,1.8,1.5,1.8h0.8c1.5,0,1.5,0,1.5,1.8h-9.7
	c-0.5-1.5-0.5-1.8,1.3-1.8c2.3-0.3,2.3-0.3,2.3-2.6V4c0-1-0.3-1.6-1.3-1.3L221.9,2.7z M105.2,76.8h3.1c0.8,0,0.8,0.5,0.8,1
	s0,1-0.8,1h-12c-0.8,0-0.8-0.3-0.8-1c0-0.5,0-1,0.8-1h3.1V54.2c0-1-0.3-1.6-1.3-1.6h-1.5c-0.8,0-1-0.3-1-1s0.3-1,1-1h14.5
	c3.1,0,6.1,1,7.7,3.8c2.2,3.4,1.2,8-2.3,10.2c0,0,0,0,0,0c-0.9,0.5-1.8,0.9-2.8,1.1c-2.3,0.4-4.7,0.6-7.1,0.5c-1,0-1.3,0.3-1.3,1.3
	C105.2,70.7,105.2,73.5,105.2,76.8L105.2,76.8z M105,58.5v5.1c0,0.5,0,1,0.8,1c1.5,0,3.1,0,4.6-0.3c1.6,0,3-1.3,3.1-2.9c0,0,0,0,0,0
	c0-0.1,0-0.3,0-0.4v-5.3c-0.3-2.1-1-3.1-3.1-3.3c-1.5-0.3-2.8,0-4.3-0.3c-0.8,0-1,0.3-1,1C105,55.2,105,57,105,58.5L105,58.5z
	 M149.8,52.8c-1.6,0.1-3.1,0.4-4.6,0.8c-1.2,0.3-2.2,1.3-2.3,2.6c-0.3,1.1-0.5,2.2-0.5,3.3c-0.2,1.5-0.2,1.5-2.1,1.3v-2.1
	c0.3-2.3,0.5-4.6,0.5-6.9c0-0.5,0-1,0.8-1h22.7c0.2,0,0.4,0.1,0.5,0.3c0.3,3.1,0.5,6.4,0.8,9.4c-1.8,0.5-1.8,0.5-2.1-1.3
	c-0.3-0.8-0.5-1.7-0.5-2.6c-0.3-2.1-2.2-3.7-4.3-3.6h-2.8v23.7h5.4v1.8h-16.6v-1.8h5.4C149.8,68.9,149.8,61,149.8,52.8L149.8,52.8z
	 M202.3,28.7h-12.5c-0.5-1.8-0.3-1.8,1.3-1.8h1.8c-0.8-1.8-1.3-3.6-1.8-5.1c0-0.3-0.5-0.3-0.8-0.3h-7.7c-0.3,0-0.8,0.3-0.8,0.5
	c-0.5,1.5-1,3.1-1.5,4.6c0.8,0,1.3,0.3,1.8,0.3c1.5,0,1.5,0.5,1.3,1.8h-8.9c-0.3-1.8-0.3-1.8,1.3-1.8c1.3,0.2,2.6-0.7,2.8-2.1
	c2.6-7.7,5.4-15.3,8.2-23.2c0.3-0.8,0.5-1.5,1.5-1.5s1.5,0.5,1.8,1.5c2,6.1,4.3,12.2,6.4,18.3c0.8,2,1.5,4,2.1,6.1
	c0.2,0.7,0.9,1.1,1.5,1h0.8C202.6,26.9,202.6,26.9,202.3,28.7L202.3,28.7z M190.6,19.2c-1.3-3.6-2.6-6.9-3.6-10.5h-0.2
	c-1.3,3.3-2.3,6.9-3.6,10.2C185.7,19.2,188.2,19.3,190.6,19.2z M79.8,76.8h3.3c-0.8-1.8-1.3-3.6-1.8-5.1c0-0.2-0.5-0.5-0.8-0.5h-7.7
	c-0.4,0.1-0.7,0.2-1,0.5c-0.5,1.6-1,2.8-1.5,4.6c1,0.3,2.1,0.3,3.1,0.5v1.8h-8.9c-0.5-1.8-0.5-1.8,1.3-1.8c2.1,0,2.1,0,2.8-2
	c2.8-7.7,5.4-15.3,8.2-23.2c0.3-0.8,0.5-1.5,1.8-1.5s1.5,0.8,1.8,1.5c2.8,7.9,5.6,16,8.4,23.9c0.3,1,0.8,1.3,1.8,1.3h1.3
	c0.8,0,0.8,0.5,0.8,1s-0.3,1-0.8,1h-11C79.3,78.6,80,77.6,79.8,76.8L79.8,76.8z M72.9,69.2h7.7c-1.3-3.6-2.6-6.9-3.6-10.5h-0.3
	C75.4,62.3,74.2,65.6,72.9,69.2L72.9,69.2z M180.4,78.6v-1.8h3.3c-0.7-1.7-1.3-3.4-1.8-5.1c0-0.2-0.5-0.5-1-0.5h-7.4
	c-0.4,0.1-0.8,0.4-1,0.8c-0.5,1.3-1,2.8-1.5,4.6c1,0.3,2.1,0.3,3.1,0.5v1.8h-8.9c-0.5-1.5-0.5-1.8,1.3-1.8c2.1,0,2.1,0,2.8-2
	c2.8-7.7,5.4-15.3,8.2-22.9c0.3-0.8,0.5-1.5,1.8-1.5c1.3,0,1.5,0.8,1.8,1.5c2.8,7.9,5.6,16,8.4,23.9c0.3,0.8,0.8,1.3,1.5,1h1
	c0.8,0,1.3,0,1.3,1s-0.5,1-1.3,1h-10.5C181.2,78.6,180.9,78.6,180.4,78.6L180.4,78.6z M177.6,59h-0.3c-1.3,3.3-2.3,6.9-3.6,10.2h7.7
	C180,65.8,178.7,62.4,177.6,59L177.6,59z M97.6,14.7c2.3-4.1,4.3-7.7,6.6-11.7c-1-0.3-1.8-0.3-2.8-0.5V0.6h8.9v1.6l-0.2,0.2
	c-2.6-0.2-3.8,1-4.9,3.1c-1.8,3.8-4.1,7.4-6.1,11c-0.3,0.5-0.5,1-0.5,1.5v7.7c0,0.8,0.3,1,1,1h1.3c1.5,0,1.5,0,1.3,1.8h-13v-1.8h2.8
	c0.5,0,1-0.3,1-0.8V18c0-0.5-0.3-0.8-0.5-1.3c-2.6-4.6-5.1-8.9-7.7-13.2c-0.5-0.5-1.1-0.7-1.8-0.8c-0.8-0.1-1.5-0.1-2.3,0V1h12.7
	v1.8c-1,0-2,0.1-3.1,0.3C93,6.8,95.1,10.6,97.6,14.7L97.6,14.7z M138.4,5.7v4.3c0,0.8,0,1.3-1,1.3c-0.8,0-1.3-0.2-1.3-1
	c-0.1-2.6-1.4-5.1-3.6-6.6c-3.8-3.1-10.2-1-12,3.8c-0.5,2.1-0.8,4.2-0.8,6.4c0,2.7,0.3,5.3,1,7.9c1,3.8,4.9,5.9,8.9,5.6
	c3.8-0.5,6.7-3.6,6.9-7.4c0-0.8,0.3-1.3,1.3-1.3s0.8,0.8,0.8,1.3c-0.4,4.3-3.5,7.9-7.7,8.9c-6.1,1.5-12.5-1.2-15.8-6.6
	c-3.1-5.6-3.1-16,5.4-20.4c4.3-2.3,9.2-2.8,13.5,0.3c0.3,0.3,0.8,0,1,0c0.5-0.6,1.1-1.1,1.8-1.5c0.2,0,0.8-0.5,1-0.3
	c0.2,0,0.5,0.8,0.5,1V5.7z M217.6,67.6c-0.5,3.6-0.8,6.9-1.3,10.5c0,0.3-0.8,0.5-1.3,0.5h-17.6c-1.5,0-1.5,0-1.3-1.8h3.6V53.9
	c0-1-0.2-1.6-1.3-1.3h-1c-1.8,0-1.8,0-1.3-1.8h14c0.5,1.8,0.3,1.8-1.3,1.8h-3.3v24c4.6,1,8.2-1,9.2-5.4c0.3-0.8,0.3-1.5,0.5-2.3
	C215.8,67.4,215.8,67.1,217.6,67.6L217.6,67.6z M81.6,17.7c-0.5,3.6-0.8,7.4-1.3,11H60.2v-1.8H63c0.8,0,1-0.3,1-1V2.7h-3.6V0.9h14.5
	v1.8h-4.9v22.9c0,1,0.3,1.3,1.3,1.3c5.1,0,7.4-2.1,8.4-7.1c0-0.3,0.3-0.5,0.3-0.8C79.5,17.5,80.3,17.5,81.6,17.7L81.6,17.7z
	 M123.3,52.6v-1.8h13.8v1.8h-3.1c-0.5,0-1,0.3-1,0.8v22.9c0,0.3,0,0.3,0.2,0.5h3.8v1.8h-13.8v-1.8h3c0.8,0,0.8-0.2,0.8-0.8V53.6
	c0-0.8-0.2-1-1-1L123.3,52.6z M205.4,2.7V0.9h12.2c1.5-0.3,1.5-0.3,1.5,1.8H215v22.9c0,1.3,0.3,1.5,1.6,1.3h1c1.5,0,1.5,0,1.5,1.8
	h-13.8c-0.3-1.8-0.3-1.8,1.5-1.8c2.6,0,2.6,0,2.6-2.6V3.9c0-1-0.3-1.5-1.3-1.3C207.2,2.7,206.2,2.7,205.4,2.7L205.4,2.7z"/>
</svg>
