<?xml version="1.0" encoding="UTF-8"?>
<svg xmlns="http://www.w3.org/2000/svg" xmlns:xlink="http://www.w3.org/1999/xlink" width="300" height="60" viewBox="0 0 300 60" version="1.1">
<g id="surface1">
<path style=" stroke:none;fill-rule:nonzero;fill:rgb(14.901961%,40%,69.019608%);fill-opacity:1;" d="M 58.621094 0 C 58.621094 3.796875 58.800781 7.722656 58.800781 11.519531 C 58.800781 12.152344 58.800781 12.785156 58.800781 13.671875 L 69.664062 13.671875 L 69.664062 26.582031 L 58.800781 26.582031 L 58.800781 34.429688 L 69.664062 34.429688 L 69.664062 47.46875 L 58.800781 47.46875 L 58.800781 59.492188 L 40.097656 59.492188 L 40.097656 47.722656 L 30.835938 47.722656 L 30.835938 59.492188 L 12.132812 59.492188 L 12.132812 47.59375 L 1.085938 47.59375 L 1.085938 34.558594 L 11.953125 34.558594 L 11.953125 26.835938 L 1.085938 26.835938 L 1.085938 13.671875 L 12.132812 13.671875 C 12.132812 12.660156 12.132812 12.023438 12.132812 11.265625 C 12.132812 7.46875 12.308594 3.671875 12.308594 0 L 30.65625 0 L 30.65625 13.542969 L 40.273438 13.542969 L 40.273438 0 Z M 40.097656 26.835938 L 31.011719 26.835938 L 31.011719 34.429688 L 39.917969 34.429688 C 39.917969 33.925781 40.097656 33.542969 40.097656 33.039062 C 40.097656 31.011719 40.097656 28.988281 40.097656 26.835938 Z M 40.097656 26.835938 "/>
<path style=" stroke:none;fill-rule:nonzero;fill:rgb(14.901961%,40%,69.019608%);fill-opacity:1;" d="M 122.746094 60 C 122.746094 60 122.570312 59.875 122.570312 59.875 C 114.910156 59.113281 112.773438 55.695312 112.773438 50.886719 C 112.773438 48.609375 112.949219 46.457031 113.304688 44.304688 C 113.664062 41.390625 117.046875 39.113281 121.144531 38.859375 C 123.992188 38.609375 126.664062 38.609375 129.515625 38.859375 C 134.859375 39.492188 137.351562 41.390625 138.242188 45.316406 C 138.601562 47.089844 138.601562 48.988281 138.777344 51.011719 L 122.035156 51.011719 C 121.855469 52.660156 122.210938 54.050781 124.351562 54.808594 C 126.664062 55.570312 129.160156 55.0625 132.1875 53.039062 L 138.601562 55.570312 C 136.996094 57.847656 133.96875 59.492188 130.226562 59.875 C 129.695312 60 128.980469 60.125 128.445312 60.253906 Z M 129.695312 46.457031 C 129.695312 44.050781 128.625 43.164062 125.773438 43.164062 C 123.101562 43.164062 121.679688 44.175781 121.855469 46.457031 Z M 129.695312 46.457031 "/>
<path style=" stroke:none;fill-rule:nonzero;fill:rgb(14.901961%,40%,69.019608%);fill-opacity:1;" d="M 254.738281 60 C 254.558594 59.875 254.558594 59.875 254.738281 60 C 246.722656 58.988281 245.117188 55.570312 244.941406 50.757812 C 244.941406 48.988281 244.941406 47.214844 245.296875 45.441406 C 246.1875 41.265625 248.679688 39.242188 254.558594 38.734375 C 257.585938 38.480469 260.4375 38.609375 263.464844 39.113281 C 266.671875 39.492188 269.164062 41.265625 269.878906 43.542969 C 270.589844 45.949219 270.769531 48.355469 271.304688 51.011719 L 254.023438 51.011719 C 254.023438 52.785156 254.203125 54.175781 256.695312 54.9375 C 259.191406 55.695312 261.507812 55.0625 264.179688 53.039062 L 270.769531 55.570312 C 269.164062 57.976562 265.960938 59.492188 262.21875 59.875 C 261.683594 60 260.972656 60.125 260.4375 60.253906 Z M 262.039062 46.457031 C 262.039062 43.925781 260.617188 43.039062 257.585938 43.164062 C 255.09375 43.292969 253.847656 44.429688 254.203125 46.457031 Z M 262.039062 46.457031 "/>
<path style=" stroke:none;fill-rule:nonzero;fill:rgb(14.901961%,40%,69.019608%);fill-opacity:1;" d="M 201.476562 60 C 194.886719 58.355469 193.460938 56.835938 193.460938 51.773438 C 193.460938 47.722656 193.460938 43.671875 193.460938 39.492188 C 193.460938 39.367188 193.460938 39.242188 193.640625 38.988281 L 202.546875 38.988281 C 202.546875 41.265625 202.546875 43.542969 202.546875 45.824219 C 202.546875 47.847656 202.726562 50 202.902344 52.023438 C 203.082031 53.292969 203.617188 54.304688 205.929688 54.304688 C 208.070312 54.304688 208.601562 53.292969 208.78125 52.152344 C 208.960938 49.242188 208.960938 46.203125 209.136719 43.292969 C 209.136719 41.898438 209.136719 40.507812 209.136719 38.988281 L 218.042969 38.988281 L 218.042969 59.367188 C 215.550781 58.988281 212.878906 60.378906 211.097656 58.226562 L 205.929688 59.875 Z M 201.476562 60 "/>
<path style=" stroke:none;fill-rule:nonzero;fill:rgb(14.901961%,40%,69.019608%);fill-opacity:1;" d="M 283.414062 60 C 281.8125 59.746094 280.210938 59.367188 278.605469 58.859375 C 276.648438 57.847656 274.867188 56.835938 273.085938 55.570312 L 280.386719 52.785156 C 281.8125 54.9375 284.484375 55.191406 287.335938 54.9375 C 288.757812 54.808594 290.363281 54.304688 290.007812 53.164062 C 289.828125 52.53125 288.402344 52.023438 287.335938 51.773438 C 285.554688 51.390625 283.59375 51.519531 281.8125 51.265625 C 277.894531 50.757812 275.757812 49.242188 275.222656 46.960938 C 274.507812 43.292969 276.113281 40.757812 279.851562 39.492188 C 285.554688 37.59375 293.570312 38.609375 297.132812 41.898438 C 297.488281 42.277344 297.84375 42.660156 298.199219 43.164062 L 291.609375 45.824219 C 290.71875 44.304688 288.582031 43.542969 286.445312 43.796875 C 285.375 43.925781 284.304688 44.429688 283.773438 45.191406 C 283.238281 46.457031 285.019531 46.457031 286.265625 46.707031 C 287.691406 46.835938 289.117188 46.960938 290.539062 47.089844 C 294.816406 47.339844 298.023438 48.609375 298.914062 51.898438 L 298.914062 54.558594 C 298.378906 57.339844 295.351562 59.492188 291.429688 59.875 C 290.539062 60 289.828125 60.125 288.9375 60.253906 Z M 283.414062 60 "/>
<path style=" stroke:none;fill-rule:nonzero;fill:rgb(14.901961%,40%,69.019608%);fill-opacity:1;" d="M 81.957031 0.632812 C 88.367188 0.632812 94.78125 0.507812 101.195312 0.632812 C 105.824219 0.757812 109.566406 3.417969 109.566406 6.707031 C 109.742188 8.480469 109.921875 10.378906 109.566406 12.152344 C 109.386719 15.824219 105.113281 18.609375 99.945312 18.609375 C 97.273438 18.734375 94.601562 18.609375 91.753906 18.609375 L 91.753906 28.101562 L 81.957031 28.101562 Z M 91.21875 13.417969 C 93.179688 13.417969 94.960938 13.417969 96.5625 13.417969 C 98.34375 13.542969 99.945312 12.53125 99.945312 11.265625 C 99.945312 11.265625 99.945312 11.140625 99.945312 11.140625 C 100.125 10.125 100.125 8.988281 99.945312 7.976562 C 99.769531 7.214844 99.054688 6.457031 97.988281 6.074219 C 96.027344 5.824219 94.070312 5.695312 92.109375 5.695312 C 91.753906 5.695312 91.21875 6.328125 91.21875 6.582031 C 91.21875 8.859375 91.21875 11.011719 91.21875 13.417969 Z M 91.21875 13.417969 "/>
<path style=" stroke:none;fill-rule:nonzero;fill:rgb(14.901961%,40%,69.019608%);fill-opacity:1;" d="M 77.679688 31.519531 C 80.710938 31.519531 83.558594 31.390625 86.230469 31.519531 C 86.765625 31.519531 87.476562 32.277344 87.65625 32.910156 C 89.972656 38.226562 92.109375 43.417969 94.246094 48.734375 C 94.425781 49.113281 94.601562 49.621094 94.960938 50.507812 L 103.152344 31.644531 L 112.773438 31.644531 C 111.347656 34.429688 110.101562 37.214844 108.851562 40 C 106.003906 46.074219 103.152344 52.152344 100.304688 58.101562 C 99.945312 58.988281 99.414062 59.492188 97.808594 59.367188 C 95.492188 59.242188 92.820312 59.746094 91.21875 58.988281 C 89.792969 58.355469 89.617188 56.203125 88.902344 54.808594 C 85.519531 47.722656 82.132812 40.632812 78.75 33.542969 C 78.214844 32.910156 78.039062 32.277344 77.679688 31.519531 Z M 77.679688 31.519531 "/>
<path style=" stroke:none;fill-rule:nonzero;fill:rgb(14.901961%,40%,69.019608%);fill-opacity:1;" d="M 113.664062 7.976562 L 122.570312 7.976562 C 122.570312 9.746094 122.570312 11.519531 122.570312 13.164062 C 122.570312 15.570312 122.570312 17.976562 122.746094 20.378906 C 122.925781 22.40625 123.816406 23.164062 125.597656 23.292969 C 127.554688 23.292969 128.625 22.40625 128.804688 20.378906 C 128.980469 16.835938 128.804688 13.292969 128.804688 9.621094 C 128.804688 9.113281 128.804688 8.609375 128.804688 7.976562 L 137.710938 7.976562 L 137.710938 28.355469 C 135.394531 27.976562 132.542969 29.367188 130.761719 26.960938 C 127.914062 28.734375 123.992188 29.367188 120.253906 28.480469 C 116.511719 28.101562 113.839844 25.949219 113.664062 23.292969 C 113.484375 18.226562 113.664062 13.164062 113.664062 7.976562 Z M 113.664062 7.976562 "/>
<path style=" stroke:none;fill-rule:nonzero;fill:rgb(14.901961%,40%,69.019608%);fill-opacity:1;" d="M 238.351562 19.746094 L 221.605469 19.746094 C 221.429688 21.390625 221.605469 22.785156 223.742188 23.542969 C 226.058594 24.429688 229.085938 23.796875 231.582031 21.773438 C 232.648438 22.152344 233.71875 22.53125 234.789062 23.039062 C 235.855469 23.542969 236.925781 23.925781 238.171875 24.304688 C 235.855469 27.59375 231.757812 28.480469 227.128906 28.859375 C 225.703125 28.988281 224.101562 28.988281 222.675781 28.859375 C 216.441406 28.355469 213.589844 26.582031 212.878906 22.023438 C 212.523438 18.859375 212.699219 15.695312 213.414062 12.660156 C 213.945312 10 217.152344 7.976562 220.894531 7.976562 C 223.742188 7.722656 226.414062 7.722656 229.265625 7.976562 C 233.71875 8.226562 237.460938 10.757812 237.636719 13.925781 C 237.992188 15.570312 238.171875 17.59375 238.351562 19.746094 Z M 229.445312 15.316406 C 229.445312 12.910156 228.195312 12.023438 225.523438 12.023438 C 222.851562 12.023438 221.605469 12.910156 221.605469 15.316406 Z M 229.445312 15.316406 "/>
<path style=" stroke:none;fill-rule:nonzero;fill:rgb(14.901961%,40%,69.019608%);fill-opacity:1;" d="M 150.710938 39.746094 C 153.027344 39.242188 155.523438 38.859375 158.015625 38.609375 C 164.605469 38.480469 167.992188 40.632812 168.347656 45.316406 C 168.703125 49.875 168.347656 54.558594 168.347656 59.242188 L 159.261719 59.242188 C 159.261719 58.101562 159.261719 56.960938 159.261719 55.824219 C 159.261719 52.785156 159.085938 49.746094 158.90625 46.582031 C 158.90625 45.191406 158.015625 44.050781 155.878906 43.925781 C 153.917969 43.796875 152.492188 44.808594 152.492188 46.707031 C 152.316406 49.367188 152.492188 52.023438 152.492188 54.683594 C 152.492188 56.074219 152.492188 57.59375 152.492188 59.113281 L 143.585938 59.113281 L 143.585938 38.859375 C 145.902344 39.367188 148.929688 37.847656 150.710938 39.746094 Z M 150.710938 39.746094 "/>
<path style=" stroke:none;fill-rule:nonzero;fill:rgb(14.901961%,40%,69.019608%);fill-opacity:1;" d="M 142.339844 28.226562 C 141.628906 25.949219 142.339844 23.671875 144.476562 21.898438 C 147.507812 19.242188 150 16.328125 153.027344 13.164062 L 143.230469 13.164062 L 143.230469 7.976562 L 164.070312 7.976562 C 164.785156 10.125 164.070312 12.277344 162.289062 14.050781 C 159.261719 16.835938 156.589844 19.875 153.382812 23.039062 L 164.960938 23.039062 L 164.960938 28.226562 Z M 142.339844 28.226562 "/>
<path style=" stroke:none;fill-rule:nonzero;fill:rgb(14.901961%,40%,69.019608%);fill-opacity:1;" d="M 190.433594 7.976562 C 191.148438 10.253906 190.257812 12.53125 188.296875 14.304688 C 185.269531 16.960938 182.773438 20 179.746094 23.039062 L 191.148438 23.039062 L 191.148438 28.226562 L 168.523438 28.226562 C 167.8125 26.074219 168.523438 23.796875 170.304688 22.023438 C 173.335938 19.242188 176.007812 16.203125 179.210938 13.039062 L 169.414062 13.039062 L 169.414062 7.976562 Z M 190.433594 7.976562 "/>
<path style=" stroke:none;fill-rule:nonzero;fill:rgb(14.901961%,40%,69.019608%);fill-opacity:1;" d="M 189.542969 54.304688 L 189.542969 59.492188 C 186.335938 59.367188 183.308594 58.988281 180.28125 58.609375 C 176.539062 57.976562 175.292969 55.695312 175.292969 53.164062 C 175.117188 50.125 175.292969 47.214844 175.292969 44.050781 L 172.085938 43.796875 L 172.085938 38.988281 L 174.9375 38.734375 L 175.472656 33.542969 L 184.023438 33.542969 L 184.023438 38.859375 L 189.722656 38.859375 L 189.722656 43.925781 L 184.378906 43.925781 C 184.378906 46.707031 184.199219 49.367188 184.378906 52.023438 C 184.378906 54.050781 187.050781 54.304688 189.542969 54.304688 Z M 189.542969 54.304688 "/>
<path style=" stroke:none;fill-rule:nonzero;fill:rgb(14.901961%,40%,69.019608%);fill-opacity:1;" d="M 210.742188 23.164062 L 210.742188 28.609375 C 207.535156 28.355469 204.148438 27.976562 200.945312 27.46875 C 197.203125 26.707031 196.3125 24.175781 196.132812 21.773438 C 195.957031 14.683594 196.132812 7.59375 196.132812 0.507812 L 205.039062 0.507812 L 205.039062 2.785156 C 205.039062 8.226562 205.039062 13.542969 205.039062 18.988281 C 205.21875 22.152344 206.289062 22.910156 210.742188 23.164062 Z M 210.742188 23.164062 "/>
<path style=" stroke:none;fill-rule:nonzero;fill:rgb(14.901961%,40%,69.019608%);fill-opacity:1;" d="M 243.871094 39.875 L 239.953125 45.0625 C 239.417969 44.808594 238.882812 44.558594 238.351562 44.429688 C 235.855469 43.542969 233.898438 44.050781 233.539062 46.074219 C 233.183594 48.734375 233.183594 51.390625 233.007812 54.050781 C 233.007812 55.695312 233.007812 57.339844 233.007812 59.367188 L 224.101562 59.367188 L 224.101562 38.859375 C 226.773438 39.242188 229.621094 37.976562 232.117188 39.875 C 235.855469 37.722656 239.773438 38.355469 243.871094 39.875 Z M 243.871094 39.875 "/>
</g>
</svg>
