<?xml version="1.0" encoding="utf-8"?>
<!-- Generator: Adobe Illustrator 26.3.1, SVG Export Plug-In . SVG Version: 6.00 Build 0)  -->
<svg version="1.1" id="Group_143" xmlns="http://www.w3.org/2000/svg" xmlns:xlink="http://www.w3.org/1999/xlink" x="0px" y="0px"
	 viewBox="0 0 167.2 47.4" style="enable-background:new 0 0 167.2 47.4;" xml:space="preserve">
<style type="text/css">
	.st0{fill:#2666B0;}
</style>
<path id="Path_465" class="st0" d="M32.3,0c0,3,0.1,6.1,0.1,9.1c0,0.5,0,1,0,1.7h6.1V21h-6.1v6.2h6.1v10.3h-6.1V47H21.9v-9.3h-5.2
	V47H6.2v-9.4H0V27.3h6.1v-6.1H0V10.8h6.2c0-0.8,0-1.3,0-1.9c0-3,0.1-6,0.1-8.9h10.3v10.7H22V0H32.3z M21.9,21.2h-5.1v6h5
	c0-0.4,0.1-0.7,0.1-1.1C21.9,24.5,21.9,22.9,21.9,21.2z"/>
<path id="Path_466" class="st0" d="M68.3,47.4c0,0-0.1-0.1-0.1-0.1c-4.3-0.6-5.5-3.3-5.5-7.1c0-1.8,0.1-3.5,0.3-5.2
	c0.2-2.3,2.1-4.1,4.4-4.3c1.6-0.2,3.1-0.2,4.7,0c3,0.5,4.4,2,4.9,5.1c0.2,1.4,0.2,2.9,0.3,4.5h-9.4c-0.1,1.3,0.1,2.4,1.3,3
	c1.3,0.6,2.7,0.2,4.4-1.4l3.6,2c-0.9,1.8-2.6,3.1-4.7,3.4c-0.3,0.1-0.7,0.2-1,0.3L68.3,47.4z M72.2,36.7c0-1.9-0.6-2.6-2.2-2.6
	c-1.5,0-2.3,0.8-2.2,2.6H72.2z"/>
<path id="Path_467" class="st0" d="M142.4,47.4C142.3,47.3,142.3,47.3,142.4,47.4c-4.5-0.8-5.4-3.5-5.5-7.3c0-1.4,0-2.8,0.2-4.2
	c0.5-3.3,1.9-4.9,5.2-5.3c1.7-0.2,3.3-0.1,5,0.3c1.8,0.3,3.2,1.7,3.6,3.5c0.4,1.9,0.5,3.8,0.8,5.9H142c0,1.4,0.1,2.5,1.5,3.1
	c1.4,0.6,2.7,0.1,4.2-1.5l3.7,2c-0.9,1.9-2.7,3.1-4.8,3.4c-0.3,0.1-0.7,0.2-1,0.3L142.4,47.4z M146.5,36.7c0-2-0.8-2.7-2.5-2.6
	c-1.4,0.1-2.1,1-1.9,2.6H146.5z"/>
<path id="Path_468" class="st0" d="M112.5,47.4c-3.7-1.3-4.5-2.5-4.5-6.5c0-3.2,0-6.4,0-9.7c0-0.1,0-0.2,0.1-0.4h5
	c0,1.8,0,3.6,0,5.4c0,1.6,0.1,3.3,0.2,4.9c0.1,1,0.4,1.8,1.7,1.8c1.2,0,1.5-0.8,1.6-1.7c0.1-2.3,0.1-4.7,0.2-7c0-1.1,0-2.2,0-3.4h5
	v16.1c-1.4-0.3-2.9,0.8-3.9-0.9l-2.9,1.3L112.5,47.4z"/>
<path id="Path_469" class="st0" d="M158.5,47.4c-0.9-0.2-1.8-0.5-2.7-0.9c-1.1-0.8-2.1-1.6-3.1-2.6l4.1-2.2c0.8,1.7,2.3,1.9,3.9,1.7
	c0.8-0.1,1.7-0.5,1.5-1.4c-0.1-0.5-0.9-0.9-1.5-1.1c-1-0.3-2.1-0.2-3.1-0.4c-2.2-0.4-3.4-1.6-3.7-3.4c-0.4-2.9,0.5-4.9,2.6-5.9
	c3.2-1.5,7.7-0.7,9.7,1.9c0.2,0.3,0.4,0.6,0.6,1l-3.7,2.1c-0.5-1.2-1.7-1.8-2.9-1.6c-0.6,0.1-1.2,0.5-1.5,1.1c-0.3,1,0.7,1,1.4,1.2
	c0.8,0.1,1.6,0.2,2.4,0.3c2.4,0.2,4.2,1.2,4.7,3.8v2.1c-0.3,2.2-2,3.9-4.2,4.2c-0.5,0.1-0.9,0.2-1.4,0.3L158.5,47.4z"/>
<path id="Path_470" class="st0" d="M45.4,0.5c3.6,0,7.2-0.1,10.8,0c2.6,0.1,4.7,2.2,4.7,4.8c0.1,1.4,0.2,2.9,0,4.3
	c-0.1,2.9-2.5,5.1-5.4,5.1c-1.5,0.1-3,0-4.6,0v7.5h-5.5L45.4,0.5z M50.6,10.6c1.1,0,2.1,0,3,0c1,0.1,1.9-0.7,1.9-1.7
	c0,0,0-0.1,0-0.1c0.1-0.8,0.1-1.7,0-2.5c-0.1-0.6-0.5-1.2-1.1-1.5c-1.1-0.2-2.2-0.3-3.3-0.3c-0.2,0-0.5,0.5-0.5,0.7
	C50.6,7,50.6,8.7,50.6,10.6z"/>
<path id="Path_471" class="st0" d="M43,24.9c1.7,0,3.3-0.1,4.8,0c0.3,0,0.7,0.6,0.8,1.1c1.3,4.2,2.5,8.3,3.7,12.5
	c0.1,0.3,0.2,0.7,0.4,1.4L57.3,25h5.4c-0.8,2.2-1.5,4.4-2.2,6.6c-1.6,4.8-3.2,9.6-4.8,14.3c-0.2,0.7-0.5,1.1-1.4,1
	c-1.3-0.1-2.8,0.3-3.7-0.3c-0.8-0.5-0.9-2.2-1.3-3.3c-1.9-5.6-3.8-11.2-5.7-16.8C43.3,26,43.2,25.5,43,24.9z"/>
<path id="Path_472" class="st0" d="M63.2,6.3h5c0,1.4,0,2.8,0,4.1c0,1.9,0,3.8,0.1,5.7c0.1,1.6,0.6,2.2,1.6,2.3
	c1.1,0,1.7-0.7,1.8-2.3c0.1-2.8,0-5.6,0-8.5c0-0.4,0-0.8,0-1.3h5v16.1c-1.3-0.3-2.9,0.8-3.9-1.1c-1.6,1.4-3.8,1.9-5.9,1.2
	c-2.1-0.3-3.6-2-3.7-4.1C63.1,14.4,63.2,10.4,63.2,6.3z"/>
<path id="Path_473" class="st0" d="M133.2,15.6h-9.4c-0.1,1.3,0,2.4,1.2,3c1.3,0.7,3,0.2,4.4-1.4c0.6,0.3,1.2,0.6,1.8,1
	s1.2,0.7,1.9,1c-1.3,2.6-3.6,3.3-6.2,3.6c-0.8,0.1-1.7,0.1-2.5,0c-3.5-0.4-5.1-1.8-5.5-5.4c-0.2-2.5-0.1-5,0.3-7.4
	c0.3-2.1,2.1-3.7,4.2-3.7c1.6-0.2,3.1-0.2,4.7,0c2.5,0.2,4.6,2.2,4.7,4.7C133,12.3,133.1,13.9,133.2,15.6z M128.2,12.1
	c0-1.9-0.7-2.6-2.2-2.6s-2.2,0.7-2.2,2.6H128.2z"/>
<path id="Path_474" class="st0" d="M84,31.4c1.3-0.4,2.7-0.7,4.1-0.9c3.7-0.1,5.6,1.6,5.8,5.3c0.2,3.6,0,7.3,0,11h-5.1
	c0-0.9,0-1.8,0-2.7c0-2.4-0.1-4.8-0.2-7.3c0-1.1-0.5-2-1.7-2.1c-1.1-0.1-1.9,0.7-1.9,2.2c-0.1,2.1,0,4.2,0,6.3c0,1.1,0,2.3,0,3.5h-5
	V30.7C81.3,31.1,83,29.9,84,31.4z"/>
<path id="Path_475" class="st0" d="M79.3,22.3c-0.4-1.8,0-3.6,1.2-5c1.7-2.1,3.1-4.4,4.8-6.9h-5.5V6.3h11.7c0.4,1.7,0,3.4-1,4.8
	c-1.7,2.2-3.2,4.6-5,7.1H92v4.1L79.3,22.3z"/>
<path id="Path_476" class="st0" d="M106.3,6.3c0.4,1.8-0.1,3.6-1.2,5c-1.7,2.1-3.1,4.5-4.8,6.9h6.4v4.1H94c-0.4-1.7,0-3.5,1-4.9
	c1.7-2.2,3.2-4.6,5-7.1h-5.5v-4H106.3z"/>
<path id="Path_477" class="st0" d="M105.8,42.9v4.1c-1.8-0.1-3.5-0.4-5.2-0.7c-2.1-0.5-2.8-2.3-2.8-4.3c-0.1-2.4,0-4.7,0-7.2
	l-1.8-0.2v-3.8l1.6-0.2l0.3-4.1h4.8v4.2h3.2v4h-3c0,2.2-0.1,4.3,0,6.4C102.9,42.7,104.4,42.9,105.8,42.9z"/>
<path id="Path_478" class="st0" d="M117.7,18.3v4.3c-1.8-0.2-3.7-0.5-5.5-0.9c-2.1-0.6-2.6-2.6-2.7-4.5c-0.1-5.6,0-11.2,0-16.8h5
	v1.8c0,4.3,0,8.5,0,12.8C114.6,17.5,115.2,18.1,117.7,18.3z"/>
<path id="Path_479" class="st0" d="M136.3,31.5l-2.2,4.1c-0.3-0.2-0.6-0.4-0.9-0.5c-1.4-0.7-2.5-0.3-2.7,1.3
	c-0.2,2.1-0.2,4.2-0.3,6.3c0,1.3,0,2.6,0,4.2h-5V30.7c1.5,0.3,3.1-0.7,4.5,0.8C131.8,29.8,134,30.3,136.3,31.5z"/>
</svg>
