<svg id="Group_143" data-name="Group 143" xmlns="http://www.w3.org/2000/svg" width="167.248" height="47.37" viewBox="0 0 167.248 47.37">
  <path id="Path_465" data-name="Path 465" d="M-438.847,450.909q.049,4.558.1,9.114c0,.518,0,1.038,0,1.668h6.145V471.95h-6.054v6.222h6.085v10.3h-6.141v9.45H-449.2v-9.336h-5.173v9.329h-10.525v-9.434h-6.239v-10.32h6.148v-6.087h-6.148v-10.32h6.246c0-.777,0-1.341,0-1.9q.049-4.474.1-8.946h10.32v10.749h5.292V450.909Zm-10.367,21.167h-5.094v6.05h5.017c.028-.408.072-.749.075-1.089C-449.209,475.421-449.214,473.8-449.214,472.076Z" transform="translate(471.132 -450.909)"/>
  <path id="Path_466" data-name="Path 466" d="M-438.678,480.851c-.033-.03-.063-.079-.1-.084-4.308-.571-5.476-3.347-5.469-7.062a30.533,30.533,0,0,1,.32-5.25,4.8,4.8,0,0,1,4.375-4.28,17.447,17.447,0,0,1,4.7-.042c3.02.471,4.422,2,4.858,5.052.2,1.425.17,2.883.252,4.483h-9.383c-.058,1.346.124,2.421,1.341,3,1.327.637,2.684.189,4.359-1.427l3.578,1.966a6.061,6.061,0,0,1-4.671,3.382c-.334.065-.658.17-.987.259Zm3.953-10.654c.044-1.871-.616-2.635-2.185-2.629-1.539.007-2.255.835-2.213,2.629Z" transform="translate(506.951 -433.481)"/>
  <path id="Path_467" data-name="Path 467" d="M-406.917,480.878c-.03-.033-.056-.086-.091-.091-4.422-.662-5.341-3.426-5.448-7.244a25.613,25.613,0,0,1,.224-4.2c.455-3.333,1.882-4.877,5.215-5.285a16.365,16.365,0,0,1,4.958.289,4.4,4.4,0,0,1,3.552,3.524c.417,1.859.525,3.785.788,5.852h-9.539c-.028,1.376.1,2.523,1.455,3.055,1.42.557,2.722.091,4.154-1.528l3.664,1.994a6.154,6.154,0,0,1-4.76,3.384c-.336.058-.665.168-1,.254Zm4.1-10.665c-.04-1.957-.788-2.715-2.491-2.6-1.43.093-2.083.977-1.908,2.6Z" transform="translate(549.288 -433.508)"/>
  <path id="Path_468" data-name="Path 468" d="M-420.332,480.672c-3.666-1.29-4.494-2.477-4.506-6.526-.009-3.219,0-6.435.009-9.653a2.014,2.014,0,0,1,.089-.352h4.97c0,1.8-.023,3.589.007,5.378.028,1.626.082,3.253.189,4.874.065,1,.429,1.807,1.661,1.8,1.159-.012,1.542-.77,1.586-1.721.107-2.328.149-4.66.2-6.99.023-1.091,0-2.185,0-3.356h5V480.2c-1.371-.268-2.948.793-3.913-.87l-2.915,1.343Z" transform="translate(532.801 -433.302)"/>
  <path id="Path_469" data-name="Path 469" d="M-399.876,480.937a11.649,11.649,0,0,1-2.7-.877,27.283,27.283,0,0,1-3.055-2.552l4.063-2.241c.83,1.712,2.332,1.861,3.937,1.663.828-.1,1.712-.464,1.542-1.416-.082-.453-.926-.94-1.509-1.089-1.01-.261-2.1-.205-3.128-.406-2.241-.431-3.44-1.586-3.671-3.4-.373-2.934.494-4.9,2.61-5.929,3.169-1.537,7.724-.665,9.658,1.861.205.271.359.581.6.98l-3.664,2.057a2.592,2.592,0,0,0-2.915-1.574,2.2,2.2,0,0,0-1.458,1.117c-.294.993.7,1.033,1.353,1.159a20.8,20.8,0,0,0,2.353.271c2.419.2,4.165,1.231,4.72,3.762v2.118a4.981,4.981,0,0,1-4.163,4.2q-.7.15-1.395.3Z" transform="translate(558.39 -433.567)"/>
  <path id="Path_470" data-name="Path 470" d="M-451.682,451.164c3.648,0,7.211-.142,10.756.047a5.01,5.01,0,0,1,4.748,4.828,21.241,21.241,0,0,1,.007,4.322,5.35,5.35,0,0,1-5.4,5.091c-1.488.079-2.985.014-4.632.014v7.473h-5.478Zm5.264,10.057c1.143,0,2.064.021,2.985-.007a1.809,1.809,0,0,0,1.945-1.749,7.641,7.641,0,0,0-.04-2.484,2.173,2.173,0,0,0-1.094-1.46,12.6,12.6,0,0,0-3.256-.28c-.177,0-.511.462-.518.716C-446.441,457.662-446.418,459.369-446.418,461.221Z" transform="translate(497.044 -450.637)"/>
  <path id="Path_471" data-name="Path 471" d="M-452.7,461.584c1.7,0,3.279-.058,4.849.049.306.021.7.644.833,1.059,1.264,4.151,2.482,8.317,3.713,12.48.1.333.212.665.446,1.388l4.419-14.9h5.38c-.756,2.232-1.5,4.417-2.237,6.6-1.609,4.779-3.23,9.553-4.814,14.341-.236.718-.541,1.1-1.369,1.028-1.266-.1-2.836.336-3.725-.268-.814-.55-.907-2.178-1.3-3.337q-2.861-8.4-5.712-16.813C-452.382,462.724-452.51,462.218-452.7,461.584Z" transform="translate(495.691 -436.709)"/>
  <path id="Path_472" data-name="Path 472" d="M-444,453.6h4.967c0,1.4-.009,2.75,0,4.1.014,1.894.012,3.788.075,5.681.054,1.57.578,2.241,1.64,2.269,1.11.033,1.742-.7,1.772-2.293.054-2.817.023-5.639.026-8.459,0-.394,0-.786,0-1.271h5.026V469.7c-1.348-.252-2.9.763-3.941-1.066a6.091,6.091,0,0,1-5.873,1.222,4.237,4.237,0,0,1-3.657-4.091C-444.093,461.767-444,457.763-444,453.6Z" transform="translate(507.233 -447.321)"/>
  <path id="Path_473" data-name="Path 473" d="M-405.71,463.1h-9.4c-.135,1.29-.019,2.367,1.19,2.988,1.346.693,3,.163,4.366-1.42.581.315,1.189.641,1.793.975s1.222.681,1.852,1.033c-1.276,2.631-3.62,3.342-6.211,3.571a12.01,12.01,0,0,1-2.507-.035c-3.543-.441-5.131-1.8-5.5-5.418a29.255,29.255,0,0,1,.326-7.437,4.461,4.461,0,0,1,4.235-3.748,19.71,19.71,0,0,1,4.7-.019,5.078,5.078,0,0,1,4.739,4.716C-405.887,459.823-405.852,461.367-405.71,463.1Zm-5.026-3.475c0-1.856-.653-2.6-2.225-2.6s-2.216.749-2.225,2.6Z" transform="translate(538.931 -447.509)"/>
  <path id="Path_474" data-name="Path 474" d="M-432.826,464.895a22.951,22.951,0,0,1,4.112-.919c3.661-.128,5.614,1.588,5.81,5.3.191,3.638.042,7.3.042,11.045h-5.082c0-.879.014-1.782,0-2.684-.047-2.419-.091-4.837-.163-7.256-.033-1.129-.466-2-1.74-2.076-1.115-.07-1.878.725-1.938,2.2-.086,2.113-.035,4.228-.042,6.341,0,1.138,0,2.274,0,3.491h-5.04v-16.1C-435.429,464.6-433.773,463.425-432.826,464.895Z" transform="translate(516.777 -433.51)"/>
  <path id="Path_475" data-name="Path 475" d="M-437.061,469.591a5.764,5.764,0,0,1,1.217-5.033c1.663-2.15,3.137-4.448,4.816-6.859h-5.464v-4.086h11.724a5.865,5.865,0,0,1-.98,4.774c-1.735,2.206-3.23,4.6-4.975,7.132h6.432v4.072Z" transform="translate(516.327 -447.307)"/>
  <path id="Path_476" data-name="Path 476" d="M-418.467,453.614a5.956,5.956,0,0,1-1.215,5.007c-1.681,2.136-3.132,4.455-4.832,6.915h6.449v4.058h-12.706a5.933,5.933,0,0,1,1.031-4.872c1.733-2.195,3.23-4.574,4.975-7.085h-5.481v-4.023Z" transform="translate(524.755 -447.305)"/>
  <path id="Path_477" data-name="Path 477" d="M-420.145,478.691v4.149a46.429,46.429,0,0,1-5.25-.718c-2.122-.529-2.757-2.344-2.843-4.282-.1-2.367-.026-4.746-.026-7.179l-1.758-.236V466.6l1.586-.177.341-4.14h4.818v4.205h3.165V470.5h-3.046c0,2.2-.149,4.31.049,6.383C-422.958,478.479-421.484,478.619-420.145,478.691Z" transform="translate(525.9 -435.762)"/>
  <path id="Path_478" data-name="Path 478" d="M-415.976,469.028v4.259a42.849,42.849,0,0,1-5.457-.926c-2.09-.63-2.617-2.612-2.656-4.464-.124-5.583-.044-11.171-.044-16.839h5.024v1.817c0,4.275-.009,8.548,0,12.82C-419.1,468.221-418.518,468.839-415.976,469.028Z" transform="translate(533.711 -450.71)"/>
  <path id="Path_479" data-name="Path 479" d="M-406.386,465.088l-2.178,4.1c-.327-.18-.611-.352-.907-.5-1.446-.714-2.512-.3-2.694,1.283-.238,2.087-.229,4.2-.289,6.311-.037,1.315-.007,2.633-.007,4.172h-4.975V464.281c1.474.264,3.081-.655,4.5.823C-410.85,463.292-408.692,463.861-406.386,465.088Z" transform="translate(542.667 -433.54)"/>
</svg>
