<svg xmlns="http://www.w3.org/2000/svg" width="167.724" height="30.065" viewBox="0 0 167.724 30.065">
  <g id="Group_162" data-name="Group 162" transform="translate(1177.709 -903.271)">
    <path id="Path_631" data-name="Path 631" d="M-1006.039,912.281l13.443-9.01c.361,2.043.7,3.975,1.043,5.907q1.552,8.837,3.113,17.673c.082.459-.028.554-.465.552-3.8-.017-7.6-.015-11.4-.019-.08-.247-.15-.5-.243-.74-1.275-3.321-2.544-6.645-3.836-9.96-.557-1.429-1.031-2.893-1.724-4.267Z" transform="translate(-149.083 0)" fill="#da3235"/>
    <path id="Path_632" data-name="Path 632" d="M-1155.2,972.982c.693,1.374,1.167,2.838,1.724,4.267,1.292,3.315,2.561,6.639,3.836,9.96.093.242.162.493.243.74a5.5,5.5,0,0,1-.577.059q-13.6,0-27.2,0h-.534a1.875,1.875,0,0,1,.627-.713c.3.214.441-.106.605-.214,1.49-.979,2.959-1.992,4.442-2.982q8.125-5.426,16.255-10.845A1.278,1.278,0,0,1-1155.2,972.982Z" transform="translate(0 -60.565)" fill="#b5272c"/>
    <path id="Path_633" data-name="Path 633" d="M-806.619,948.723c.593.875,1.154,1.7,1.717,2.531.763,1.119,1.571,2.21,2.277,3.364a2.844,2.844,0,0,0,1.977,1.429.871.871,0,0,1,.618,1.221c-.076.2-.226.175-.372.175-1.421,0-2.842-.01-4.262.01-.374.005-.476-.254-.624-.484-1.513-2.351-3.048-4.688-4.515-7.068a1.483,1.483,0,0,0-1.554-.849c-1,.075-1.005.019-1.005,1,0,1.551.048,3.1-.021,4.653-.033.744.168,1.168.915,1.248s.793.571.743,1.16c-.021.255-.113.336-.36.335q-3.18-.009-6.36,0c-.19,0-.39-.022-.354-.261.051-.342-.212-.749.194-1.021a.932.932,0,0,1,.182-.072c1.281-.5,1.281-.5,1.281-1.894,0-4.523-.019-9.045.02-13.568.006-.7-.183-1.059-.863-1.157a.887.887,0,0,1-.833-1.18c.039-.238.1-.352.354-.345,3.4.1,6.819-.242,10.212.26a7.8,7.8,0,0,1,3.01,1.052A4.792,4.792,0,0,1-802,944.275a4.744,4.744,0,0,1-3.383,4.036C-805.764,948.457-806.161,948.572-806.619,948.723Zm-5.742-5.2c0,1.114,0,2.228,0,3.342,0,.248-.031.479.349.469a18.427,18.427,0,0,0,3.592-.193,3,3,0,0,0,2.518-2.277,5.182,5.182,0,0,0-.079-2.907,2.814,2.814,0,0,0-1.635-1.769,11.64,11.64,0,0,0-4.461-.47c-.363-.01-.279.263-.28.464C-812.364,941.293-812.362,942.407-812.362,943.521Z" transform="translate(-312.653 -30.11)" fill="#050505"/>
    <path id="Path_634" data-name="Path 634" d="M-558.084,938.444c0-2.354,0-4.708.005-7.062a.422.422,0,0,0-.352-.465c-.231-.067-.458-.144-.687-.219a.962.962,0,0,1-.635-1.3c.075-.2.222-.179.369-.179,1.486,0,2.973,0,4.459-.006.256,0,.361.09.348.341-.008.152,0,.306,0,.459,0,5.768.014,11.537-.017,17.305,0,.739.118,1.209.932,1.292.7.072.845.519.767,1.146-.033.261-.125.326-.362.325-1.443-.006-2.885-.012-4.328,0-.339,0-.4-.138-.39-.429.017-.477,0-.956,0-1.436-.086,0-.155-.015-.164,0-1.33,2.532-4.964,2.5-7.093,1.6a5.418,5.418,0,0,1-3.246-3.64c-.779-2.759-.674-5.431,1.285-7.731a6.545,6.545,0,0,1,7.767-1.2A13.582,13.582,0,0,1-558.084,938.444Zm-7.07,4.609a8.263,8.263,0,0,0,.6,3.621,3.024,3.024,0,0,0,2.993,1.932,2.932,2.932,0,0,0,2.885-1.983,8.5,8.5,0,0,0-.063-6.574,2.853,2.853,0,0,0-2.743-1.795,3.007,3.007,0,0,0-2.961,1.667A6.909,6.909,0,0,0-565.154,943.052Z" transform="translate(-528.914 -22.542)" fill="#030303"/>
    <path id="Path_635" data-name="Path 635" d="M-435.761,985.874c2.125-3.251,8.044-2.366,9.724.713a8.085,8.085,0,0,1,.053,8.25c-1.257,2.23-3.443,2.882-5.879,2.842a5.359,5.359,0,0,1-3.9-1.56v1.86c0,1,.028,2.01-.012,3.013-.018.456.157.608.567.674.494.08.977.233,1.47.322.669.122.356.634.4.988.056.456-.321.315-.546.316q-3.211.013-6.422,0c-.2,0-.57.15-.537-.25.029-.359-.281-.841.331-1.054.445-.155,1.082-.146,1.276-.545a3.648,3.648,0,0,0,.07-1.482c0-4.411-.014-8.822.019-13.232,0-.63-.169-1.015-.77-1.112-.806-.13-.663-.709-.66-1.241,0-.247.16-.268.352-.268,1.376,0,2.752.008,4.128,0,.327,0,.339.179.335.417C-435.766,984.92-435.761,985.319-435.761,985.874Zm7.08,4.939a7.441,7.441,0,0,0-.776-3.608,3.007,3.007,0,0,0-2.848-1.641,2.863,2.863,0,0,0-2.765,1.756,8.407,8.407,0,0,0-.074,6.688,2.873,2.873,0,0,0,2.724,1.912,3.024,3.024,0,0,0,3.047-1.735A7.326,7.326,0,0,0-428.681,990.813Z" transform="translate(-640.147 -69.981)" fill="#050505"/>
    <path id="Path_636" data-name="Path 636" d="M-129.548,985.328a5.421,5.421,0,0,1,7.143-1.481,4.5,4.5,0,0,1,1.984,4.056c.036,2.119.021,4.238,0,6.357,0,.456.075.742.584.808.321.042.628.185.949.247.356.069.468.233.5.614.058.666-.153.846-.818.817-1.309-.059-2.623-.043-3.933,0-.531.016-.7-.113-.693-.672.032-2.578.014-5.156.014-7.734,0-.2.006-.394,0-.59a2.421,2.421,0,0,0-1.433-2.5,3.071,3.071,0,0,0-3.271.925,4.67,4.67,0,0,0-1.022,3.108c-.006,1.682.01,3.365-.011,5.046-.005.407.077.668.515.747a5.231,5.231,0,0,1,.622.2,1.04,1.04,0,0,1,.55,1.335c-.1.178-.267.114-.407.115q-2.951.006-5.9,0c-.168,0-.467.114-.446-.2.023-.365-.209-.784.172-1.092a.686.686,0,0,1,.183-.07c1.322-.52,1.322-.52,1.322-1.931,0-2.491-.022-4.981.016-7.471a.9.9,0,0,0-.72-1.035c-.3-.09-.7-.092-.716-.609-.033-.905-.062-.9.843-.9,1.158,0,2.317.018,3.475-.009.412-.01.538.12.51.521C-129.573,984.386-129.548,984.858-129.548,985.328Z" transform="translate(-906.193 -69.359)" fill="#040404"/>
    <path id="Path_637" data-name="Path 637" d="M-303.447,997.113c-2.464-.035-4.645-.748-6.078-2.874a7.13,7.13,0,0,1-.527-7.3,6.306,6.306,0,0,1,5.405-3.61,8.249,8.249,0,0,1,5.49,1.031,6.825,6.825,0,0,1,2.812,7.406C-297.105,995.132-299.732,997.111-303.447,997.113Zm3.5-6.978a7.824,7.824,0,0,0-.687-3.5,2.957,2.957,0,0,0-2.8-1.808,2.9,2.9,0,0,0-2.846,1.833,8.458,8.458,0,0,0,.042,7.042,2.872,2.872,0,0,0,2.789,1.816,2.934,2.934,0,0,0,2.758-1.767A7.9,7.9,0,0,0-299.945,990.135Z" transform="translate(-753.164 -69.481)" fill="#050505"/>
    <path id="Path_638" data-name="Path 638" d="M-673.315,990.368c-1.443,0-2.885.014-4.328-.009-.424-.007-.509.121-.454.527.385,2.834,2.451,4.25,5.392,3.686a6.7,6.7,0,0,0,2.6-1.018c.5-.344.6.053.774.321s.562.506.06.9c-2.15,1.685-4.6,1.865-7.158,1.461a6.382,6.382,0,0,1-3.6-1.873c-2.494-2.5-2.664-9.455,2.4-11.33a6.739,6.739,0,0,1,6.886.907,6.6,6.6,0,0,1,2.278,5.167c.06,1.26.05,1.26-1.185,1.26Zm-1.763-1.679c.894,0,1.788-.011,2.682.006.338.006.473-.087.432-.447a7.613,7.613,0,0,0-.567-2.405,2.673,2.673,0,0,0-4.229-.913,5.079,5.079,0,0,0-1.4,3.49c-.038.316.217.266.4.267C-676.866,988.691-675.972,988.689-675.078,988.689Z" transform="translate(-430.919 -68.826)" fill="#060606"/>
    <path id="Path_639" data-name="Path 639" d="M-1151.043,932.249a1.278,1.278,0,0,0-.584.275q-8.127,5.423-16.255,10.845c-1.483.99-2.952,2-4.442,2.982-.164.108-.308.428-.605.214q3.643-3.809,7.288-7.617,5.9-6.142,11.8-12.278c.148-.154.273-.332.469-.573l2.4,6.015Z" transform="translate(-4.153 -19.832)" fill="#7a2223"/>
    <path id="Path_640" data-name="Path 640" d="M-14.335,966.828c0-1.2-.013-2.4.008-3.6.006-.37-.105-.53-.48-.479a1.925,1.925,0,0,1-.262,0c-1.123,0-1.107,0-1.092-1.106,0-.366.107-.56.48-.477,1.108.244,1.672-.311,2.032-1.278.189-.508.565-.949.732-1.461.267-.818.824-.934,1.562-.875.348.028.442.131.434.463-.02.852.028,1.706-.019,2.556-.028.516.157.625.63.6.763-.038,1.531.014,2.294-.02.435-.019.554.12.547.551-.017,1.045.006,1.046-1.017,1.046-.678,0-1.356.013-2.033-.005-.313-.009-.416.1-.414.411.016,2.469-.033,4.939.039,7.406.065,2.232,1.121,2.87,3.2,2.019.344-.141.548-.13.616.236.057.3.656.6.083.926a5.527,5.527,0,0,1-5.5.282,3.239,3.239,0,0,1-1.562-2.17,19.42,19.42,0,0,1-.273-4.76C-14.338,967-14.335,966.915-14.335,966.828Z" transform="translate(-1009.154 -47.146)" fill="#050505"/>
    <path id="Path_641" data-name="Path 641" d="M-192.435,991.111c0,1.7.021,3.409-.013,5.112-.01.49.154.728.609.818a4.477,4.477,0,0,1,.438.134.936.936,0,0,1,.655,1.277c-.073.212-.221.175-.364.175q-3.016,0-6.033,0c-.161,0-.412.057-.378-.215.044-.361-.223-.79.209-1.074a.8.8,0,0,1,.123-.043c.434-.189,1.079-.143,1.273-.562a3.783,3.783,0,0,0,.076-1.483c0-2.382-.034-4.764.022-7.144.018-.757-.173-1.193-.927-1.352-.307-.065-.534-.2-.53-.612.008-.836-.022-.836.84-.836,1.093,0,2.187.03,3.278-.013.554-.022.755.1.737.7C-192.466,987.7-192.435,989.406-192.435,991.111Z" transform="translate(-851.554 -71.259)" fill="#060606"/>
    <path id="Path_642" data-name="Path 642" d="M-186.26,937.138a2.091,2.091,0,0,1-2.208-2.227,2.127,2.127,0,0,1,2.258-2.188A2.113,2.113,0,0,1-184,934.962,2.088,2.088,0,0,1-186.26,937.138Z" transform="translate(-859.457 -25.588)" fill="#050505"/>
    <path id="Path_643" data-name="Path 643" d="M68.889,1058.487a2.212,2.212,0,1,1,2.233-2.212A2.107,2.107,0,0,1,68.889,1058.487Z" transform="translate(-1081.107 -131.009)" fill="#db3639"/>
  </g>
</svg>
