<?xml version="1.0" encoding="utf-8"?>
<!-- Generator: Adobe Illustrator 26.3.1, SVG Export Plug-In . SVG Version: 6.00 Build 0)  -->
<svg version="1.1" id="katman_1" xmlns="http://www.w3.org/2000/svg" xmlns:xlink="http://www.w3.org/1999/xlink" x="0px" y="0px"
	 viewBox="0 0 300 100" style="enable-background:new 0 0 300 100;" xml:space="preserve">
<style type="text/css">
	.st0{fill:#DA3235;}
	.st1{fill:#B5272C;}
	.st2{fill:#050505;}
	.st3{fill:#030303;}
	.st4{fill:#040404;}
	.st5{fill:#060606;}
	.st6{fill:#7A2223;}
	.st7{fill:#DB3639;}
</style>
<g id="Group_162" transform="translate(1177.709 -903.271)">
	<path id="Path_631" class="st0" d="M-1088.6,947.4l13.4-9c0.4,2,0.7,4,1,5.9c1,5.9,2.1,11.8,3.1,17.7c0.1,0.5,0,0.6-0.5,0.6
		c-3.8,0-7.6,0-11.4,0c-0.1-0.2-0.2-0.5-0.2-0.7c-1.3-3.3-2.5-6.6-3.8-10c-0.6-1.4-1-2.9-1.7-4.3L-1088.6,947.4z"/>
	<path id="Path_632" class="st1" d="M-1088.7,947.5c0.7,1.4,1.2,2.8,1.7,4.3c1.3,3.3,2.6,6.6,3.8,10c0.1,0.2,0.2,0.5,0.2,0.7
		c-0.2,0-0.4,0-0.6,0.1c-9.1,0-18.1,0-27.2,0h-0.5c0.1-0.3,0.4-0.5,0.6-0.7c0.3,0.2,0.4-0.1,0.6-0.2c1.5-1,3-2,4.4-3
		c5.4-3.6,10.8-7.2,16.3-10.8C-1089.1,947.7-1088.9,947.6-1088.7,947.5z"/>
	<path id="Path_633" class="st2" d="M-1052.7,953.7c0.6,0.9,1.2,1.7,1.7,2.5c0.8,1.1,1.6,2.2,2.3,3.4c0.4,0.7,1.1,1.3,2,1.4
		c0.5,0.1,0.8,0.6,0.7,1c0,0.1,0,0.1-0.1,0.2c-0.1,0.2-0.2,0.2-0.4,0.2c-1.4,0-2.8,0-4.3,0c-0.4,0-0.5-0.3-0.6-0.5
		c-1.5-2.4-3-4.7-4.5-7.1c-0.3-0.6-0.9-0.9-1.6-0.8c-1,0.1-1,0-1,1c0,1.6,0,3.1,0,4.7c0,0.7,0.2,1.2,0.9,1.2s0.8,0.6,0.7,1.2
		c0,0.3-0.1,0.3-0.4,0.3c-2.1,0-4.2,0-6.4,0c-0.2,0-0.4,0-0.4-0.3c0.1-0.3-0.2-0.7,0.2-1c0.1,0,0.1-0.1,0.2-0.1
		c1.3-0.5,1.3-0.5,1.3-1.9c0-4.5,0-9,0-13.6c0-0.7-0.2-1.1-0.9-1.2c-0.5,0-0.9-0.4-0.9-0.9c0-0.1,0-0.2,0-0.3c0-0.2,0.1-0.4,0.4-0.3
		c3.4,0.1,6.8-0.2,10.2,0.3c1.1,0.1,2.1,0.5,3,1.1c1.7,1,2.6,3,2.2,5c-0.2,1.9-1.5,3.5-3.4,4
		C-1051.9,953.4-1052.3,953.6-1052.7,953.7z M-1058.5,948.5c0,1.1,0,2.2,0,3.3c0,0.2,0,0.5,0.3,0.5c1.2,0.1,2.4,0,3.6-0.2
		c1.2-0.2,2.2-1.1,2.5-2.3c0.3-1,0.2-2-0.1-2.9c-0.3-0.8-0.9-1.5-1.6-1.8c-1.4-0.4-3-0.6-4.5-0.5c-0.4,0-0.3,0.3-0.3,0.5
		C-1058.5,946.3-1058.5,947.4-1058.5,948.5L-1058.5,948.5z"/>
	<path id="Path_634" class="st3" d="M-1020.5,951c0-2.4,0-4.7,0-7.1c0-0.2-0.1-0.4-0.4-0.5c-0.2-0.1-0.5-0.1-0.7-0.2
		c-0.5-0.1-0.8-0.7-0.7-1.2c0,0,0-0.1,0-0.1c0.1-0.2,0.2-0.2,0.4-0.2c1.5,0,3,0,4.5,0c0.3,0,0.4,0.1,0.3,0.3c0,0.2,0,0.3,0,0.5
		c0,5.8,0,11.5,0,17.3c0,0.7,0.1,1.2,0.9,1.3c0.7,0.1,0.8,0.5,0.8,1.1c0,0.3-0.1,0.3-0.4,0.3c-1.4,0-2.9,0-4.3,0
		c-0.3,0-0.4-0.1-0.4-0.4c0-0.5,0-1,0-1.4c-0.1,0-0.2,0-0.2,0c-1.3,2.5-5,2.5-7.1,1.6c-1.6-0.6-2.8-2-3.2-3.6
		c-0.8-2.8-0.7-5.4,1.3-7.7c2-2.1,5.2-2.6,7.8-1.2C-1021.3,950.2-1020.9,950.6-1020.5,951z M-1027.5,955.6c-0.1,1.2,0.1,2.5,0.6,3.6
		c0.5,1.2,1.7,2,3,1.9c1.3,0,2.5-0.8,2.9-2c0.9-2.1,0.8-4.5-0.1-6.6c-0.4-1.1-1.5-1.8-2.7-1.8c-1.2-0.1-2.4,0.6-3,1.7
		C-1027.3,953.5-1027.5,954.5-1027.5,955.6L-1027.5,955.6z"/>
	<path id="Path_635" class="st2" d="M-1009.4,951c2.1-3.3,8-2.4,9.7,0.7c1.5,2.5,1.5,5.7,0.1,8.2c-1.3,2.2-3.4,2.9-5.9,2.8
		c-1.5,0-2.9-0.5-3.9-1.6v1.9c0,1,0,2,0,3c0,0.5,0.2,0.6,0.6,0.7c0.5,0.1,1,0.2,1.5,0.3c0.7,0.1,0.4,0.6,0.4,1
		c0.1,0.5-0.3,0.3-0.5,0.3c-2.1,0-4.3,0-6.4,0c-0.2,0-0.6,0.2-0.5-0.2c0-0.4-0.3-0.8,0.3-1.1c0.4-0.2,1.1-0.1,1.3-0.5
		c0.1-0.5,0.1-1,0.1-1.5c0-4.4,0-8.8,0-13.2c0-0.6-0.2-1-0.8-1.1c-0.8-0.1-0.7-0.7-0.7-1.2c0-0.2,0.2-0.3,0.4-0.3c1.4,0,2.8,0,4.1,0
		c0.3,0,0.3,0.2,0.3,0.4C-1009.4,950-1009.4,950.4-1009.4,951z M-1002.3,955.9c0-1.2-0.2-2.5-0.8-3.6c-0.5-1.1-1.7-1.7-2.8-1.6
		c-1.2-0.1-2.3,0.6-2.8,1.8c-0.9,2.1-1,4.5-0.1,6.7c0.4,1.2,1.5,1.9,2.7,1.9c1.3,0.1,2.5-0.6,3-1.7
		C-1002.5,958.3-1002.3,957.1-1002.3,955.9L-1002.3,955.9z"/>
	<path id="Path_636" class="st4" d="M-969.2,951.1c1.6-2.3,4.7-2.9,7.1-1.5c1.3,0.9,2.1,2.4,2,4.1c0,2.1,0,4.2,0,6.4
		c0,0.5,0.1,0.7,0.6,0.8c0.3,0,0.6,0.2,0.9,0.2c0.4,0.1,0.5,0.2,0.5,0.6c0.1,0.7-0.2,0.8-0.8,0.8c-1.3-0.1-2.6,0-3.9,0
		c-0.5,0-0.7-0.1-0.7-0.7c0-2.6,0-5.2,0-7.7c0-0.2,0-0.4,0-0.6c0.1-1.1-0.5-2.1-1.4-2.5c-1.2-0.4-2.5,0-3.3,0.9
		c-0.7,0.9-1.1,2-1,3.1c0,1.7,0,3.4,0,5c0,0.4,0.1,0.7,0.5,0.7c0.2,0.1,0.4,0.1,0.6,0.2c0.5,0.2,0.8,0.8,0.5,1.3
		c-0.1,0.2-0.3,0.1-0.4,0.1c-2,0-3.9,0-5.9,0c-0.2,0-0.5,0.1-0.4-0.2c0-0.4-0.2-0.8,0.2-1.1c0.1,0,0.1-0.1,0.2-0.1
		c1.3-0.5,1.3-0.5,1.3-1.9c0-2.5,0-5,0-7.5c0.1-0.5-0.2-0.9-0.7-1c-0.3-0.1-0.7-0.1-0.7-0.6c0-0.9-0.1-0.9,0.8-0.9
		c1.2,0,2.3,0,3.5,0c0.4,0,0.5,0.1,0.5,0.5C-969.2,950.1-969.2,950.6-969.2,951.1z"/>
	<path id="Path_637" class="st2" d="M-990.1,962.7c-2.5,0-4.6-0.7-6.1-2.9c-1.5-2.2-1.7-5-0.5-7.3c1-2.1,3.1-3.5,5.4-3.6
		c1.9-0.3,3.8,0.1,5.5,1c2.4,1.6,3.5,4.6,2.8,7.4C-983.7,960.8-986.4,962.7-990.1,962.7z M-986.6,955.8c0-1.2-0.2-2.4-0.7-3.5
		c-0.5-1.1-1.6-1.8-2.8-1.8c-1.2-0.1-2.4,0.7-2.8,1.8c-1,2.2-1,4.8,0,7c0.4,1.1,1.6,1.9,2.8,1.8c1.2,0,2.3-0.7,2.8-1.8
		C-986.8,958.2-986.5,957-986.6,955.8L-986.6,955.8z"/>
	<path id="Path_638" class="st5" d="M-1037.7,956.6c-1.4,0-2.9,0-4.3,0c-0.4,0-0.5,0.1-0.5,0.5c0.4,2.8,2.5,4.2,5.4,3.7
		c0.9-0.2,1.8-0.5,2.6-1c0.5-0.3,0.6,0.1,0.8,0.3c0.2,0.3,0.6,0.5,0.1,0.9c-2.2,1.7-4.6,1.9-7.2,1.5c-1.4-0.2-2.6-0.9-3.6-1.9
		c-2.5-2.5-2.7-9.5,2.4-11.3c2.3-1,4.9-0.6,6.9,0.9c1.5,1.3,2.3,3.2,2.3,5.2c0.1,1.3,0,1.3-1.2,1.3L-1037.7,956.6z M-1039.5,955
		c0.9,0,1.8,0,2.7,0c0.3,0,0.5-0.1,0.4-0.4c-0.1-0.8-0.2-1.6-0.6-2.4c-0.6-1.4-2.2-2-3.5-1.4c-0.3,0.1-0.5,0.3-0.7,0.5
		c-0.9,0.9-1.4,2.2-1.4,3.5c0,0.3,0.2,0.3,0.4,0.3C-1041.3,955-1040.4,955-1039.5,955L-1039.5,955z"/>
	<path id="Path_639" class="st6" d="M-1088.7,947.5c-0.2,0-0.4,0.1-0.6,0.3c-5.4,3.6-10.8,7.2-16.3,10.8c-1.5,1-3,2-4.4,3
		c-0.2,0.1-0.3,0.4-0.6,0.2c2.4-2.5,4.9-5.1,7.3-7.6c3.9-4.1,7.9-8.2,11.8-12.3c0.1-0.2,0.3-0.3,0.5-0.6l2.4,6L-1088.7,947.5z"/>
	<path id="Path_640" class="st2" d="M-957,954.8c0-1.2,0-2.4,0-3.6c0-0.4-0.1-0.5-0.5-0.5c-0.1,0-0.2,0-0.3,0c-1.1,0-1.1,0-1.1-1.1
		c0-0.4,0.1-0.6,0.5-0.5c1.1,0.2,1.7-0.3,2-1.3c0.2-0.5,0.6-0.9,0.7-1.5c0.3-0.8,0.8-0.9,1.6-0.9c0.3,0,0.4,0.1,0.4,0.5
		c0,0.9,0,1.7,0,2.6c0,0.5,0.2,0.6,0.6,0.6c0.8,0,1.5,0,2.3,0c0.4,0,0.6,0.1,0.5,0.6c0,1,0,1-1,1c-0.7,0-1.4,0-2,0
		c-0.3,0-0.4,0.1-0.4,0.4c0,2.5,0,4.9,0,7.4c0.1,2.2,1.1,2.9,3.2,2c0.3-0.1,0.5-0.1,0.6,0.2c0.1,0.3,0.7,0.6,0.1,0.9
		c-1.7,1.1-3.7,1.2-5.5,0.3c-0.8-0.5-1.4-1.3-1.6-2.2c-0.3-1.6-0.4-3.2-0.3-4.8C-957,955-957,954.9-957,954.8z"/>
	<path id="Path_641" class="st5" d="M-977.5,955c0,1.7,0,3.4,0,5.1c0,0.5,0.2,0.7,0.6,0.8c0.1,0,0.3,0.1,0.4,0.1
		c0.5,0.1,0.8,0.6,0.7,1.1c0,0.1,0,0.1-0.1,0.2c-0.1,0.2-0.2,0.2-0.4,0.2c-2,0-4,0-6,0c-0.2,0-0.4,0.1-0.4-0.2
		c0-0.4-0.2-0.8,0.2-1.1c0,0,0.1,0,0.1,0c0.4-0.2,1.1-0.1,1.3-0.6c0.1-0.5,0.1-1,0.1-1.5c0-2.4,0-4.8,0-7.1c0-0.8-0.2-1.2-0.9-1.4
		c-0.3-0.1-0.5-0.2-0.5-0.6c0-0.8,0-0.8,0.8-0.8c1.1,0,2.2,0,3.3,0c0.6,0,0.8,0.1,0.7,0.7C-977.5,951.5-977.5,953.2-977.5,955z"/>
	<path id="Path_642" class="st2" d="M-979.2,946.7c-1.2,0.1-2.1-0.8-2.2-2c0-0.1,0-0.2,0-0.3c0-1.2,0.9-2.2,2.1-2.2
		c0.1,0,0.1,0,0.2,0c1.2-0.1,2.2,0.8,2.2,2c0,0.1,0,0.2,0,0.2c0.1,1.2-0.8,2.1-2,2.2C-979,946.7-979.1,946.7-979.2,946.7z"/>
	<path id="Path_643" class="st7" d="M-945.7,962.6c-1.2,0-2.2-1-2.2-2.2s1-2.2,2.2-2.2c1.2,0,2.2,1,2.2,2.2c0.1,1.2-0.8,2.2-2,2.2
		C-945.5,962.6-945.6,962.6-945.7,962.6z"/>
</g>
</svg>
