<?xml version="1.0" encoding="utf-8"?>
<!-- Generator: Adobe Illustrator 26.3.1, SVG Export Plug-In . SVG Version: 6.00 Build 0)  -->
<svg version="1.1" id="katman_1" xmlns="http://www.w3.org/2000/svg" xmlns:xlink="http://www.w3.org/1999/xlink" x="0px" y="0px"
	 viewBox="0 0 167.7 30.1" style="enable-background:new 0 0 167.7 30.1;" xml:space="preserve">
<style type="text/css">
	.st0{fill:#DA3235;}
	.st1{fill:#B5272C;}
	.st2{fill:#2666B0;}
	.st3{fill:#DB3639;}
</style>
<g id="Group_162" transform="translate(1177.709 -903.271)">
	<path id="Path_631" class="st0" d="M-1155.1,912.3l13.4-9c0.4,2,0.7,4,1,5.9c1,5.9,2.1,11.8,3.1,17.7c0.1,0.5,0,0.6-0.5,0.6
		c-3.8,0-7.6,0-11.4,0c-0.1-0.2-0.2-0.5-0.2-0.7c-1.3-3.3-2.5-6.6-3.8-10c-0.6-1.4-1-2.9-1.7-4.3L-1155.1,912.3z"/>
	<path id="Path_632" class="st1" d="M-1155.2,912.4c0.7,1.4,1.2,2.8,1.7,4.3c1.3,3.3,2.6,6.6,3.8,10c0.1,0.2,0.2,0.5,0.2,0.7
		c-0.2,0-0.4,0-0.6,0.1c-9.1,0-18.1,0-27.2,0h-0.5c0.1-0.3,0.4-0.5,0.6-0.7c0.3,0.2,0.4-0.1,0.6-0.2c1.5-1,3-2,4.4-3
		c5.4-3.6,10.8-7.2,16.3-10.8C-1155.6,912.6-1155.4,912.5-1155.2,912.4z"/>
	<path id="Path_633" class="st2" d="M-1119.3,918.6c0.6,0.9,1.2,1.7,1.7,2.5c0.8,1.1,1.6,2.2,2.3,3.4c0.4,0.7,1.1,1.3,2,1.4
		c0.5,0.1,0.8,0.6,0.7,1c0,0.1,0,0.1-0.1,0.2c-0.1,0.2-0.2,0.2-0.4,0.2c-1.4,0-2.8,0-4.3,0c-0.4,0-0.5-0.3-0.6-0.5
		c-1.5-2.4-3-4.7-4.5-7.1c-0.3-0.6-0.9-0.9-1.6-0.8c-1,0.1-1,0-1,1c0,1.6,0,3.1,0,4.7c0,0.7,0.2,1.2,0.9,1.2s0.8,0.6,0.7,1.2
		c0,0.3-0.1,0.3-0.4,0.3c-2.1,0-4.2,0-6.4,0c-0.2,0-0.4,0-0.4-0.3c0.1-0.3-0.2-0.7,0.2-1c0.1,0,0.1-0.1,0.2-0.1
		c1.3-0.5,1.3-0.5,1.3-1.9c0-4.5,0-9,0-13.6c0-0.7-0.2-1.1-0.9-1.2c-0.5,0-0.9-0.4-0.9-0.9c0-0.1,0-0.2,0-0.3c0-0.2,0.1-0.4,0.4-0.3
		c3.4,0.1,6.8-0.2,10.2,0.3c1.1,0.1,2.1,0.5,3,1.1c1.7,1,2.6,3,2.2,5c-0.2,1.9-1.5,3.5-3.4,4
		C-1118.4,918.3-1118.8,918.5-1119.3,918.6z M-1125,913.4c0,1.1,0,2.2,0,3.3c0,0.2,0,0.5,0.3,0.5c1.2,0.1,2.4,0,3.6-0.2
		c1.2-0.2,2.2-1.1,2.5-2.3c0.3-1,0.2-2-0.1-2.9c-0.3-0.8-0.9-1.5-1.6-1.8c-1.4-0.4-3-0.6-4.5-0.5c-0.4,0-0.3,0.3-0.3,0.5
		C-1125,911.2-1125,912.3-1125,913.4L-1125,913.4z"/>
	<path id="Path_634" class="st2" d="M-1087,915.9c0-2.4,0-4.7,0-7.1c0-0.2-0.1-0.4-0.4-0.5c-0.2-0.1-0.5-0.1-0.7-0.2
		c-0.5-0.1-0.8-0.7-0.7-1.2c0,0,0-0.1,0-0.1c0.1-0.2,0.2-0.2,0.4-0.2c1.5,0,3,0,4.5,0c0.3,0,0.4,0.1,0.3,0.3c0,0.2,0,0.3,0,0.5
		c0,5.8,0,11.5,0,17.3c0,0.7,0.1,1.2,0.9,1.3c0.7,0.1,0.8,0.5,0.8,1.1c0,0.3-0.1,0.3-0.4,0.3c-1.4,0-2.9,0-4.3,0
		c-0.3,0-0.4-0.1-0.4-0.4c0-0.5,0-1,0-1.4c-0.1,0-0.2,0-0.2,0c-1.3,2.5-5,2.5-7.1,1.6c-1.6-0.6-2.8-2-3.2-3.6
		c-0.8-2.8-0.7-5.4,1.3-7.7c2-2.1,5.2-2.6,7.8-1.2C-1087.9,915.1-1087.4,915.5-1087,915.9z M-1094.1,920.5c-0.1,1.2,0.1,2.5,0.6,3.6
		c0.5,1.2,1.7,2,3,1.9c1.3,0,2.5-0.8,2.9-2c0.9-2.1,0.8-4.5-0.1-6.6c-0.4-1.1-1.5-1.8-2.7-1.8c-1.2-0.1-2.4,0.6-3,1.7
		C-1093.8,918.4-1094.1,919.4-1094.1,920.5L-1094.1,920.5z"/>
	<path id="Path_635" class="st2" d="M-1075.9,915.9c2.1-3.3,8-2.4,9.7,0.7c1.5,2.5,1.5,5.7,0.1,8.2c-1.3,2.2-3.4,2.9-5.9,2.8
		c-1.5,0-2.9-0.5-3.9-1.6v1.9c0,1,0,2,0,3c0,0.5,0.2,0.6,0.6,0.7c0.5,0.1,1,0.2,1.5,0.3c0.7,0.1,0.4,0.6,0.4,1
		c0.1,0.5-0.3,0.3-0.5,0.3c-2.1,0-4.3,0-6.4,0c-0.2,0-0.6,0.2-0.5-0.2c0-0.4-0.3-0.8,0.3-1.1c0.4-0.2,1.1-0.1,1.3-0.5
		c0.1-0.5,0.1-1,0.1-1.5c0-4.4,0-8.8,0-13.2c0-0.6-0.2-1-0.8-1.1c-0.8-0.1-0.7-0.7-0.7-1.2c0-0.2,0.2-0.3,0.4-0.3c1.4,0,2.8,0,4.1,0
		c0.3,0,0.3,0.2,0.3,0.4C-1075.9,914.9-1075.9,915.3-1075.9,915.9z M-1068.8,920.8c0-1.2-0.2-2.5-0.8-3.6c-0.5-1.1-1.7-1.7-2.8-1.6
		c-1.2-0.1-2.3,0.6-2.8,1.8c-0.9,2.1-1,4.5-0.1,6.7c0.4,1.2,1.5,1.9,2.7,1.9c1.3,0.1,2.5-0.6,3-1.7
		C-1069,923.2-1068.8,922-1068.8,920.8L-1068.8,920.8z"/>
	<path id="Path_636" class="st2" d="M-1035.7,916c1.6-2.3,4.7-2.9,7.1-1.5c1.3,0.9,2.1,2.4,2,4.1c0,2.1,0,4.2,0,6.4
		c0,0.5,0.1,0.7,0.6,0.8c0.3,0,0.6,0.2,0.9,0.2c0.4,0.1,0.5,0.2,0.5,0.6c0.1,0.7-0.2,0.8-0.8,0.8c-1.3-0.1-2.6,0-3.9,0
		c-0.5,0-0.7-0.1-0.7-0.7c0-2.6,0-5.2,0-7.7c0-0.2,0-0.4,0-0.6c0.1-1.1-0.5-2.1-1.4-2.5c-1.2-0.4-2.5,0-3.3,0.9
		c-0.7,0.9-1.1,2-1,3.1c0,1.7,0,3.4,0,5c0,0.4,0.1,0.7,0.5,0.7c0.2,0.1,0.4,0.1,0.6,0.2c0.5,0.2,0.8,0.8,0.5,1.3
		c-0.1,0.2-0.3,0.1-0.4,0.1c-2,0-3.9,0-5.9,0c-0.2,0-0.5,0.1-0.4-0.2c0-0.4-0.2-0.8,0.2-1.1c0.1,0,0.1-0.1,0.2-0.1
		c1.3-0.5,1.3-0.5,1.3-1.9c0-2.5,0-5,0-7.5c0.1-0.5-0.2-0.9-0.7-1c-0.3-0.1-0.7-0.1-0.7-0.6c0-0.9-0.1-0.9,0.8-0.9
		c1.2,0,2.3,0,3.5,0c0.4,0,0.5,0.1,0.5,0.5C-1035.8,915-1035.7,915.5-1035.7,916z"/>
	<path id="Path_637" class="st2" d="M-1056.6,927.6c-2.5,0-4.6-0.7-6.1-2.9c-1.5-2.2-1.7-5-0.5-7.3c1-2.1,3.1-3.5,5.4-3.6
		c1.9-0.3,3.8,0.1,5.5,1c2.4,1.6,3.5,4.6,2.8,7.4C-1050.3,925.7-1052.9,927.6-1056.6,927.6z M-1053.1,920.7c0-1.2-0.2-2.4-0.7-3.5
		c-0.5-1.1-1.6-1.8-2.8-1.8c-1.2-0.1-2.4,0.7-2.8,1.8c-1,2.2-1,4.8,0,7c0.4,1.1,1.6,1.9,2.8,1.8c1.2,0,2.3-0.7,2.8-1.8
		C-1053.3,923.1-1053.1,921.9-1053.1,920.7L-1053.1,920.7z"/>
	<path id="Path_638" class="st2" d="M-1104.2,921.5c-1.4,0-2.9,0-4.3,0c-0.4,0-0.5,0.1-0.5,0.5c0.4,2.8,2.5,4.2,5.4,3.7
		c0.9-0.2,1.8-0.5,2.6-1c0.5-0.3,0.6,0.1,0.8,0.3c0.2,0.3,0.6,0.5,0.1,0.9c-2.2,1.7-4.6,1.9-7.2,1.5c-1.4-0.2-2.6-0.9-3.6-1.9
		c-2.5-2.5-2.7-9.5,2.4-11.3c2.3-1,4.9-0.6,6.9,0.9c1.5,1.3,2.3,3.2,2.3,5.2c0.1,1.3,0,1.3-1.2,1.3L-1104.2,921.5z M-1106,919.9
		c0.9,0,1.8,0,2.7,0c0.3,0,0.5-0.1,0.4-0.4c-0.1-0.8-0.2-1.6-0.6-2.4c-0.6-1.4-2.2-2-3.5-1.4c-0.3,0.1-0.5,0.3-0.7,0.5
		c-0.9,0.9-1.4,2.2-1.4,3.5c0,0.3,0.2,0.3,0.4,0.3C-1107.8,919.9-1106.9,919.9-1106,919.9L-1106,919.9z"/>
	<path id="Path_639" class="st2" d="M-1155.2,912.4c-0.2,0-0.4,0.1-0.6,0.3c-5.4,3.6-10.8,7.2-16.3,10.8c-1.5,1-3,2-4.4,3
		c-0.2,0.1-0.3,0.4-0.6,0.2c2.4-2.5,4.9-5.1,7.3-7.6c3.9-4.1,7.9-8.2,11.8-12.3c0.1-0.2,0.3-0.3,0.5-0.6l2.4,6L-1155.2,912.4z"/>
	<path id="Path_640" class="st2" d="M-1023.5,919.7c0-1.2,0-2.4,0-3.6c0-0.4-0.1-0.5-0.5-0.5c-0.1,0-0.2,0-0.3,0
		c-1.1,0-1.1,0-1.1-1.1c0-0.4,0.1-0.6,0.5-0.5c1.1,0.2,1.7-0.3,2-1.3c0.2-0.5,0.6-0.9,0.7-1.5c0.3-0.8,0.8-0.9,1.6-0.9
		c0.3,0,0.4,0.1,0.4,0.5c0,0.9,0,1.7,0,2.6c0,0.5,0.2,0.6,0.6,0.6c0.8,0,1.5,0,2.3,0c0.4,0,0.6,0.1,0.5,0.6c0,1,0,1-1,1
		c-0.7,0-1.4,0-2,0c-0.3,0-0.4,0.1-0.4,0.4c0,2.5,0,4.9,0,7.4c0.1,2.2,1.1,2.9,3.2,2c0.3-0.1,0.5-0.1,0.6,0.2
		c0.1,0.3,0.7,0.6,0.1,0.9c-1.7,1.1-3.7,1.2-5.5,0.3c-0.8-0.5-1.4-1.3-1.6-2.2c-0.3-1.6-0.4-3.2-0.3-4.8
		C-1023.5,919.9-1023.5,919.8-1023.5,919.7z"/>
	<path id="Path_641" class="st2" d="M-1044,919.9c0,1.7,0,3.4,0,5.1c0,0.5,0.2,0.7,0.6,0.8c0.1,0,0.3,0.1,0.4,0.1
		c0.5,0.1,0.8,0.6,0.7,1.1c0,0.1,0,0.1-0.1,0.2c-0.1,0.2-0.2,0.2-0.4,0.2c-2,0-4,0-6,0c-0.2,0-0.4,0.1-0.4-0.2
		c0-0.4-0.2-0.8,0.2-1.1c0,0,0.1,0,0.1,0c0.4-0.2,1.1-0.1,1.3-0.6c0.1-0.5,0.1-1,0.1-1.5c0-2.4,0-4.8,0-7.1c0-0.8-0.2-1.2-0.9-1.4
		c-0.3-0.1-0.5-0.2-0.5-0.6c0-0.8,0-0.8,0.8-0.8c1.1,0,2.2,0,3.3,0c0.6,0,0.8,0.1,0.7,0.7C-1044,916.4-1044,918.1-1044,919.9z"/>
	<path id="Path_642" class="st2" d="M-1045.7,911.5c-1.2,0.1-2.1-0.8-2.2-2c0-0.1,0-0.2,0-0.3c0-1.2,0.9-2.2,2.1-2.2
		c0.1,0,0.1,0,0.2,0c1.2-0.1,2.2,0.8,2.2,2c0,0.1,0,0.2,0,0.2c0.1,1.2-0.8,2.1-2,2.2C-1045.5,911.6-1045.6,911.6-1045.7,911.5z"/>
	<path id="Path_643" class="st3" d="M-1012.2,927.5c-1.2,0-2.2-1-2.2-2.2s1-2.2,2.2-2.2c1.2,0,2.2,1,2.2,2.2c0.1,1.2-0.8,2.2-2,2.2
		C-1012.1,927.5-1012.1,927.5-1012.2,927.5z"/>
</g>
</svg>
