<?xml version="1.0" encoding="UTF-8"?>
<svg id="katman_1" data-name="katman 1" xmlns="http://www.w3.org/2000/svg" viewBox="0 0 300 100">
  <defs>
    <style>
      .cls-1 {
        fill: #040404;
      }

      .cls-2 {
        fill: #030303;
      }

      .cls-3 {
        fill: #060606;
      }

      .cls-4 {
        fill: #050505;
      }

      .cls-5 {
        fill: #b5272c;
      }

      .cls-6 {
        fill: #da3235;
      }

      .cls-7 {
        fill: #db3639;
      }

      .cls-8 {
        fill: #7a2223;
      }
    </style>
  </defs>
  <g id="Group_162" data-name="Group 162" transform="translate(1177.709 -903.271)">
    <path id="Path_631" data-name="Path 631" class="cls-6" d="M88.74,43.67l13.44-9.01c.36,2.04,.7,3.97,1.04,5.91,1.03,5.89,2.07,11.78,3.11,17.67,.08,.46-.03,.55-.47,.55-3.8-.02-7.6-.02-11.4-.02-.08-.25-.15-.5-.24-.74-1.28-3.32-2.54-6.65-3.84-9.96-.56-1.43-1.03-2.89-1.72-4.27l.07-.14Z"/>
    <path id="Path_632" data-name="Path 632" class="cls-5" d="M88.66,43.81c.69,1.37,1.17,2.84,1.72,4.27,1.29,3.32,2.56,6.64,3.84,9.96,.09,.24,.16,.49,.24,.74-.19,.03-.38,.05-.58,.06h-27.73c.14-.29,.36-.53,.63-.71,.3,.21,.44-.11,.6-.21,1.49-.98,2.96-1.99,4.44-2.98,5.42-3.62,10.84-7.23,16.26-10.84,.17-.14,.37-.23,.58-.27Z"/>
    <path id="Path_633" data-name="Path 633" class="cls-4" d="M124.59,50.01c.59,.88,1.15,1.7,1.72,2.53,.76,1.12,1.57,2.21,2.28,3.36,.41,.75,1.14,1.27,1.98,1.43,.47,.09,.78,.55,.68,1.03-.01,.07-.04,.13-.06,.2-.08,.2-.23,.17-.37,.17-1.42,0-2.84-.01-4.26,.01-.37,0-.48-.25-.62-.48-1.51-2.35-3.05-4.69-4.52-7.07-.27-.6-.91-.94-1.55-.85-1,.08-1.01,.02-1.01,1,0,1.55,.05,3.1-.02,4.65-.03,.74,.17,1.17,.91,1.25s.79,.57,.74,1.16c-.02,.26-.11,.34-.36,.34-2.12,0-4.24,0-6.36,0-.19,0-.39-.02-.35-.26,.05-.34-.21-.75,.19-1.02,.06-.03,.12-.05,.18-.07q1.28-.5,1.28-1.89c0-4.52-.02-9.04,.02-13.57,0-.7-.18-1.06-.86-1.16-.49,0-.89-.4-.88-.89,0-.1,.02-.2,.05-.29,.04-.24,.1-.35,.35-.34,3.4,.1,6.82-.24,10.21,.26,1.07,.14,2.09,.5,3.01,1.05,1.73,1.03,2.62,3.04,2.24,5.01-.21,1.91-1.54,3.5-3.38,4.04-.38,.15-.78,.26-1.24,.41Zm-5.74-5.2v3.34c0,.25-.03,.48,.35,.47,1.2,.05,2.4-.01,3.59-.19,1.23-.17,2.23-1.07,2.52-2.28,.25-.96,.22-1.97-.08-2.91-.25-.8-.85-1.45-1.64-1.77-1.44-.44-2.96-.6-4.46-.47-.36-.01-.28,.26-.28,.46,0,1.11,0,2.22,0,3.34h0Z"/>
    <path id="Path_634" data-name="Path 634" class="cls-2" d="M156.86,47.3c0-2.35,0-4.71,0-7.06,.03-.22-.13-.43-.35-.47-.23-.07-.46-.14-.69-.22-.51-.14-.82-.67-.68-1.18,.01-.04,.02-.08,.04-.12,.08-.2,.22-.18,.37-.18,1.49,0,2.97,0,4.46,0,.26,0,.36,.09,.35,.34,0,.15,0,.31,0,.46,0,5.77,.01,11.54-.02,17.3,0,.74,.12,1.21,.93,1.29,.7,.07,.84,.52,.77,1.15-.03,.26-.12,.33-.36,.33-1.44,0-2.89-.01-4.33,0-.34,0-.4-.14-.39-.43,.02-.48,0-.96,0-1.44-.09,0-.16-.02-.16,0-1.33,2.53-4.96,2.5-7.09,1.6-1.6-.63-2.8-1.98-3.25-3.64-.78-2.76-.67-5.43,1.28-7.73,2.03-2.08,5.2-2.57,7.77-1.2,.47,.37,.92,.77,1.34,1.2Zm-7.07,4.61c-.07,1.24,.13,2.47,.6,3.62,.47,1.23,1.68,2.01,2.99,1.93,1.29,.05,2.47-.76,2.89-1.98,.86-2.11,.84-4.48-.06-6.57-.45-1.12-1.54-1.83-2.74-1.79-1.24-.11-2.41,.55-2.96,1.67-.48,.97-.72,2.05-.71,3.13h0Z"/>
    <path id="Path_635" data-name="Path 635" class="cls-4" d="M167.95,47.29c2.12-3.25,8.04-2.37,9.72,.71,1.52,2.53,1.55,5.7,.05,8.25-1.26,2.23-3.44,2.88-5.88,2.84-1.46,.03-2.87-.53-3.9-1.56v1.86c0,1,.03,2.01-.01,3.01-.02,.46,.16,.61,.57,.67,.49,.08,.98,.23,1.47,.32,.67,.12,.36,.63,.4,.99,.06,.46-.32,.32-.55,.32-2.14,0-4.28,0-6.42,0-.2,0-.57,.15-.54-.25,.03-.36-.28-.84,.33-1.05,.45-.16,1.08-.15,1.28-.54,.12-.48,.15-.99,.07-1.48,0-4.41-.01-8.82,.02-13.23,0-.63-.17-1.02-.77-1.11-.81-.13-.66-.71-.66-1.24,0-.25,.16-.27,.35-.27,1.38,0,2.75,0,4.13,0,.33,0,.34,.18,.33,.42,0,.4,0,.79,0,1.35Zm7.08,4.94c.05-1.25-.22-2.49-.78-3.61-.54-1.06-1.66-1.71-2.85-1.64-1.2-.05-2.3,.65-2.77,1.76-.95,2.12-.98,4.54-.07,6.69,.41,1.15,1.5,1.92,2.72,1.91,1.28,.13,2.5-.57,3.05-1.73,.5-1.05,.73-2.21,.69-3.37h0Z"/>
    <path id="Path_636" data-name="Path 636" class="cls-1" d="M208.12,47.36c1.64-2.26,4.74-2.9,7.14-1.48,1.34,.9,2.1,2.45,1.98,4.06,.04,2.12,.02,4.24,0,6.36,0,.46,.07,.74,.58,.81,.32,.04,.63,.18,.95,.25,.36,.07,.47,.23,.5,.61,.06,.67-.15,.85-.82,.82-1.31-.06-2.62-.04-3.93,0-.53,.02-.7-.11-.69-.67,.03-2.58,.01-5.16,.01-7.73,0-.2,0-.39,0-.59,.12-1.06-.46-2.07-1.43-2.5-1.18-.38-2.47-.01-3.27,.92-.7,.88-1.07,1.98-1.02,3.11,0,1.68,0,3.36-.01,5.05,0,.41,.08,.67,.51,.75,.21,.05,.42,.12,.62,.2,.51,.22,.76,.81,.55,1.34-.1,.18-.27,.11-.41,.11-1.97,0-3.93,0-5.9,0-.17,0-.47,.11-.45-.2,.02-.36-.21-.78,.17-1.09,.06-.03,.12-.06,.18-.07q1.32-.52,1.32-1.93c0-2.49-.02-4.98,.02-7.47,.08-.48-.24-.94-.72-1.03-.3-.09-.7-.09-.72-.61-.03-.91-.06-.9,.84-.9,1.16,0,2.32,.02,3.48,0,.41-.01,.54,.12,.51,.52-.04,.46-.01,.93-.01,1.4Z"/>
    <path id="Path_637" data-name="Path 637" class="cls-4" d="M187.25,59.03c-2.46-.03-4.64-.75-6.08-2.87-1.51-2.15-1.71-4.96-.53-7.3,.99-2.11,3.07-3.5,5.4-3.61,1.89-.31,3.84,.06,5.49,1.03,2.42,1.62,3.55,4.59,2.81,7.41-.76,3.37-3.39,5.35-7.1,5.35Zm3.5-6.98c.04-1.2-.19-2.4-.69-3.5-.47-1.12-1.58-1.84-2.8-1.81-1.24-.06-2.39,.67-2.85,1.83-1.01,2.24-.99,4.81,.04,7.04,.45,1.14,1.57,1.87,2.79,1.82,1.19,.03,2.28-.67,2.76-1.77,.53-1.13,.79-2.37,.75-3.62h0Z"/>
    <path id="Path_638" data-name="Path 638" class="cls-3" d="M139.62,52.94c-1.44,0-2.89,.01-4.33,0-.42,0-.51,.12-.45,.53,.39,2.83,2.45,4.25,5.39,3.69,.93-.15,1.81-.5,2.6-1.02,.5-.34,.6,.05,.77,.32s.56,.51,.06,.9c-2.15,1.68-4.6,1.86-7.16,1.46-1.37-.22-2.64-.87-3.6-1.87-2.49-2.5-2.66-9.46,2.4-11.33,2.29-.99,4.94-.65,6.89,.91,1.49,1.29,2.33,3.19,2.28,5.17,.06,1.26,.05,1.26-1.18,1.26h-3.67Zm-1.76-1.68c.89,0,1.79-.01,2.68,0,.34,0,.47-.09,.43-.45-.06-.83-.25-1.64-.57-2.41-.6-1.35-2.17-1.96-3.52-1.37-.26,.11-.5,.27-.7,.45-.9,.94-1.4,2.19-1.4,3.49-.04,.32,.22,.27,.4,.27,.89,0,1.79,0,2.68,0h0Z"/>
    <path id="Path_639" data-name="Path 639" class="cls-8" d="M88.66,43.81c-.21,.04-.42,.13-.58,.28-5.42,3.62-10.84,7.23-16.26,10.84-1.48,.99-2.95,2-4.44,2.98-.16,.11-.31,.43-.6,.21,2.43-2.54,4.86-5.08,7.29-7.62,3.93-4.09,7.87-8.19,11.8-12.28,.15-.15,.27-.33,.47-.57l2.4,6.02-.07,.14Z"/>
    <path id="Path_640" data-name="Path 640" class="cls-4" d="M220.37,51.08c0-1.2-.01-2.4,0-3.6,0-.37-.1-.53-.48-.48-.09,0-.17,0-.26,0-1.12,0-1.11,0-1.09-1.11,0-.37,.11-.56,.48-.48,1.11,.24,1.67-.31,2.03-1.28,.19-.51,.56-.95,.73-1.46,.27-.82,.82-.93,1.56-.88,.35,.03,.44,.13,.43,.46-.02,.85,.03,1.71-.02,2.56-.03,.52,.16,.62,.63,.6,.76-.04,1.53,.01,2.29-.02,.43-.02,.55,.12,.55,.55-.02,1.04,0,1.05-1.02,1.05-.68,0-1.36,.01-2.03,0-.31,0-.42,.1-.41,.41,.02,2.47-.03,4.94,.04,7.41,.06,2.23,1.12,2.87,3.2,2.02,.34-.14,.55-.13,.62,.24,.06,.3,.66,.6,.08,.93-1.65,1.07-3.75,1.17-5.5,.28-.81-.46-1.38-1.26-1.56-2.17-.29-1.57-.38-3.17-.27-4.76,0-.09,0-.18,0-.27Z"/>
    <path id="Path_641" data-name="Path 641" class="cls-3" d="M199.87,51.25c0,1.7,.02,3.41-.01,5.11,0,.49,.15,.73,.61,.82,.15,.04,.29,.08,.44,.13,.5,.11,.82,.62,.71,1.12-.01,.05-.03,.11-.05,.16-.07,.21-.22,.17-.36,.17h-6.03c-.16,0-.41,.06-.38-.22,.04-.36-.22-.79,.21-1.07,.04-.02,.08-.03,.12-.04,.43-.19,1.08-.14,1.27-.56,.12-.48,.15-.99,.08-1.48,0-2.38-.03-4.76,.02-7.14,.02-.76-.17-1.19-.93-1.35-.31-.07-.53-.2-.53-.61,0-.84-.02-.84,.84-.84,1.09,0,2.19,.03,3.28-.01,.55-.02,.76,.1,.74,.7-.05,1.71-.01,3.41-.01,5.12Z"/>
    <path id="Path_642" data-name="Path 642" class="cls-4" d="M198.14,42.94c-1.15,.07-2.14-.81-2.21-1.97,0-.09,0-.17,0-.26-.04-1.17,.89-2.16,2.06-2.19,.07,0,.13,0,.2,0,1.17-.06,2.16,.84,2.21,2.01,0,.08,0,.15,0,.23,.05,1.15-.84,2.13-1.99,2.18-.09,0-.18,0-.27,0Z"/>
    <path id="Path_643" data-name="Path 643" class="cls-7" d="M231.64,58.87c-1.22-.01-2.2-1.01-2.19-2.23,.01-1.22,1.01-2.2,2.23-2.19,1.21,.01,2.19,1,2.19,2.21,.06,1.16-.83,2.15-2,2.21-.08,0-.16,0-.24,0Z"/>
  </g>
</svg>