<?xml version="1.0" encoding="UTF-8"?>
<svg xmlns="http://www.w3.org/2000/svg" xmlns:xlink="http://www.w3.org/1999/xlink" width="300" height="60" viewBox="0 0 300 60" version="1.1">
<g id="surface1">
<path style=" stroke:none;fill-rule:nonzero;fill:rgb(85.490196%,19.607843%,20.784314%);fill-opacity:1;" d="M 41.003906 17.996094 L 64.851562 0.0585938 C 65.566406 4.042969 66.097656 8.03125 66.632812 11.820312 C 68.414062 23.578125 70.371094 35.339844 72.152344 47.101562 C 72.328125 48.097656 72.152344 48.296875 71.261719 48.296875 C 64.496094 48.296875 57.734375 48.296875 50.972656 48.296875 C 50.792969 47.898438 50.613281 47.300781 50.613281 46.902344 C 48.300781 40.324219 46.164062 33.746094 43.851562 26.96875 C 42.785156 24.175781 42.070312 21.1875 40.828125 18.398438 Z M 41.003906 17.996094 "/>
<path style=" stroke:none;fill-rule:nonzero;fill:rgb(70.980392%,15.294118%,17.254902%);fill-opacity:1;" d="M 40.828125 18.199219 C 42.070312 20.988281 42.960938 23.777344 43.851562 26.769531 C 46.164062 33.347656 48.480469 39.925781 50.613281 46.703125 C 50.792969 47.101562 50.972656 47.699219 50.972656 48.097656 C 50.613281 48.097656 50.257812 48.097656 49.902344 48.296875 C 33.707031 48.296875 17.6875 48.296875 1.492188 48.296875 L 0.601562 48.296875 C 0.78125 47.699219 1.316406 47.300781 1.671875 46.902344 C 2.207031 47.300781 2.382812 46.703125 2.738281 46.503906 C 5.410156 44.507812 8.078125 42.515625 10.570312 40.523438 C 20.179688 33.347656 29.792969 26.171875 39.582031 18.996094 C 40.113281 18.597656 40.46875 18.398438 40.828125 18.199219 Z M 40.828125 18.199219 "/>
<path style=" stroke:none;fill-rule:nonzero;fill:rgb(14.901961%,40%,69.019608%);fill-opacity:1;" d="M 104.71875 30.554688 C 105.789062 32.351562 106.855469 33.945312 107.746094 35.539062 C 109.171875 37.730469 110.59375 39.925781 111.839844 42.316406 C 112.550781 43.710938 113.796875 44.910156 115.398438 45.109375 C 116.289062 45.308594 116.824219 46.304688 116.644531 47.101562 C 116.644531 47.300781 116.644531 47.300781 116.46875 47.5 C 116.289062 47.898438 116.109375 47.898438 115.753906 47.898438 C 113.261719 47.898438 110.773438 47.898438 108.101562 47.898438 C 107.390625 47.898438 107.210938 47.300781 107.035156 46.902344 C 104.363281 42.117188 101.695312 37.53125 99.023438 32.75 C 98.492188 31.554688 97.421875 30.953125 96.175781 31.152344 C 94.398438 31.351562 94.398438 31.152344 94.398438 33.148438 C 94.398438 36.335938 94.398438 39.328125 94.398438 42.515625 C 94.398438 43.910156 94.753906 44.910156 96 44.910156 C 97.246094 44.910156 97.421875 46.105469 97.246094 47.300781 C 97.246094 47.898438 97.066406 47.898438 96.535156 47.898438 C 92.796875 47.898438 89.058594 47.898438 85.144531 47.898438 C 84.785156 47.898438 84.429688 47.898438 84.429688 47.300781 C 84.609375 46.703125 84.074219 45.90625 84.785156 45.308594 C 84.964844 45.308594 84.964844 45.109375 85.144531 45.109375 C 87.457031 44.109375 87.457031 44.109375 87.457031 41.320312 C 87.457031 32.351562 87.457031 23.378906 87.457031 14.210938 C 87.457031 12.816406 87.101562 12.019531 85.855469 11.820312 C 84.964844 11.820312 84.253906 11.019531 84.253906 10.023438 C 84.253906 9.824219 84.253906 9.625 84.253906 9.425781 C 84.253906 9.027344 84.429688 8.628906 84.964844 8.828125 C 91.015625 9.027344 97.066406 8.429688 103.117188 9.425781 C 105.078125 9.625 106.855469 10.421875 108.457031 11.621094 C 111.484375 13.613281 113.085938 17.597656 112.375 21.585938 C 112.019531 25.375 109.703125 28.5625 106.324219 29.558594 C 106.324219 29.957031 105.609375 30.355469 104.71875 30.554688 Z M 94.574219 20.191406 C 94.574219 22.382812 94.574219 24.574219 94.574219 26.769531 C 94.574219 27.167969 94.574219 27.765625 95.109375 27.765625 C 97.246094 27.964844 99.382812 27.765625 101.515625 27.367188 C 103.652344 26.96875 105.433594 25.175781 105.964844 22.78125 C 106.5 20.789062 106.324219 18.796875 105.789062 17 C 105.253906 15.40625 104.1875 14.011719 102.941406 13.414062 C 100.449219 12.617188 97.601562 12.21875 94.933594 12.417969 C 94.21875 12.417969 94.398438 13.015625 94.398438 13.414062 C 94.574219 15.804688 94.574219 17.996094 94.574219 20.191406 Z M 94.574219 20.191406 "/>
<path style=" stroke:none;fill-rule:nonzero;fill:rgb(14.901961%,40%,69.019608%);fill-opacity:1;" d="M 162.207031 25.175781 C 162.207031 20.390625 162.207031 15.804688 162.207031 11.019531 C 162.207031 10.621094 162.03125 10.222656 161.496094 10.023438 C 161.140625 9.824219 160.605469 9.824219 160.25 9.625 C 159.359375 9.425781 158.824219 8.230469 159.003906 7.234375 C 159.003906 7.234375 159.003906 7.035156 159.003906 7.035156 C 159.183594 6.636719 159.359375 6.636719 159.714844 6.636719 C 162.386719 6.636719 165.054688 6.636719 167.726562 6.636719 C 168.257812 6.636719 168.4375 6.835938 168.257812 7.234375 C 168.257812 7.632812 168.257812 7.832031 168.257812 8.230469 C 168.257812 19.792969 168.257812 31.152344 168.257812 42.714844 C 168.257812 44.109375 168.4375 45.109375 169.859375 45.308594 C 171.105469 45.507812 171.285156 46.304688 171.285156 47.5 C 171.285156 48.097656 171.105469 48.097656 170.574219 48.097656 C 168.082031 48.097656 165.410156 48.097656 162.917969 48.097656 C 162.386719 48.097656 162.207031 47.898438 162.207031 47.300781 C 162.207031 46.304688 162.207031 45.308594 162.207031 44.507812 C 162.03125 44.507812 161.851562 44.507812 161.851562 44.507812 C 159.539062 49.492188 152.953125 49.492188 149.214844 47.699219 C 146.367188 46.503906 144.230469 43.710938 143.519531 40.523438 C 142.097656 34.941406 142.273438 29.757812 145.832031 25.175781 C 149.394531 20.988281 155.089844 19.992188 159.714844 22.78125 C 160.605469 23.578125 161.496094 24.375 162.207031 25.175781 Z M 149.570312 34.34375 C 149.394531 36.734375 149.75 39.328125 150.640625 41.519531 C 151.527344 43.910156 153.664062 45.507812 155.976562 45.308594 C 158.292969 45.308594 160.429688 43.710938 161.140625 41.320312 C 162.742188 37.132812 162.5625 32.351562 160.960938 28.164062 C 160.25 25.972656 158.292969 24.574219 156.15625 24.574219 C 154.019531 24.375 151.886719 25.773438 150.816406 27.964844 C 150.105469 30.15625 149.570312 32.152344 149.570312 34.34375 Z M 149.570312 34.34375 "/>
<path style=" stroke:none;fill-rule:nonzero;fill:rgb(14.901961%,40%,69.019608%);fill-opacity:1;" d="M 181.964844 25.175781 C 185.699219 18.597656 196.203125 20.390625 199.226562 26.570312 C 201.898438 31.554688 201.898438 37.929688 199.40625 42.914062 C 197.089844 47.300781 193.355469 48.695312 188.902344 48.496094 C 186.234375 48.496094 183.742188 47.5 181.964844 45.308594 L 181.964844 49.09375 C 181.964844 51.085938 181.964844 53.082031 181.964844 55.074219 C 181.964844 56.070312 182.320312 56.269531 183.03125 56.46875 C 183.921875 56.667969 184.8125 56.867188 185.699219 57.066406 C 186.945312 57.265625 186.414062 58.265625 186.414062 59.0625 C 186.589844 60.058594 185.878906 59.660156 185.523438 59.660156 C 181.785156 59.660156 177.871094 59.660156 174.132812 59.660156 C 173.777344 59.660156 173.0625 60.058594 173.242188 59.261719 C 173.242188 58.464844 172.707031 57.664062 173.777344 57.066406 C 174.488281 56.667969 175.734375 56.867188 176.089844 56.070312 C 176.269531 55.074219 176.269531 54.078125 176.269531 53.082031 C 176.269531 44.308594 176.269531 35.539062 176.269531 26.769531 C 176.269531 25.574219 175.910156 24.777344 174.84375 24.574219 C 173.421875 24.375 173.597656 23.179688 173.597656 22.183594 C 173.597656 21.785156 173.953125 21.585938 174.308594 21.585938 C 176.800781 21.585938 179.292969 21.585938 181.605469 21.585938 C 182.140625 21.585938 182.140625 21.984375 182.140625 22.382812 C 181.964844 23.179688 181.964844 23.976562 181.964844 25.175781 Z M 194.597656 34.941406 C 194.597656 32.550781 194.242188 29.957031 193.175781 27.765625 C 192.285156 25.574219 190.148438 24.375 188.191406 24.574219 C 186.054688 24.375 184.097656 25.773438 183.207031 28.164062 C 181.605469 32.351562 181.429688 37.132812 183.03125 41.519531 C 183.742188 43.910156 185.699219 45.308594 187.835938 45.308594 C 190.148438 45.507812 192.285156 44.109375 193.175781 41.917969 C 194.242188 39.726562 194.597656 37.332031 194.597656 34.941406 Z M 194.597656 34.941406 "/>
<path style=" stroke:none;fill-rule:nonzero;fill:rgb(14.901961%,40%,69.019608%);fill-opacity:1;" d="M 253.511719 25.375 C 256.359375 20.789062 261.875 19.59375 266.148438 22.382812 C 268.460938 24.175781 269.882812 27.167969 269.707031 30.554688 C 269.707031 34.742188 269.707031 38.929688 269.707031 43.3125 C 269.707031 44.308594 269.882812 44.707031 270.773438 44.910156 C 271.308594 44.910156 271.84375 45.308594 272.375 45.308594 C 273.089844 45.507812 273.265625 45.707031 273.265625 46.503906 C 273.445312 47.898438 272.910156 48.097656 271.84375 48.097656 C 269.527344 47.898438 267.214844 48.097656 264.902344 48.097656 C 264.011719 48.097656 263.65625 47.898438 263.65625 46.703125 C 263.65625 41.519531 263.65625 36.335938 263.65625 31.351562 C 263.65625 30.953125 263.65625 30.554688 263.65625 30.15625 C 263.832031 27.964844 262.765625 25.972656 261.164062 25.175781 C 259.027344 24.375 256.714844 25.175781 255.289062 26.96875 C 254.042969 28.761719 253.332031 30.953125 253.511719 33.148438 C 253.511719 36.535156 253.511719 39.925781 253.511719 43.113281 C 253.511719 43.910156 253.6875 44.507812 254.398438 44.507812 C 254.757812 44.707031 255.113281 44.707031 255.46875 44.910156 C 256.359375 45.308594 256.890625 46.503906 256.359375 47.5 C 256.179688 47.898438 255.824219 47.699219 255.644531 47.699219 C 252.085938 47.699219 248.703125 47.699219 245.144531 47.699219 C 244.789062 47.699219 244.253906 47.898438 244.433594 47.300781 C 244.433594 46.503906 244.078125 45.707031 244.789062 45.109375 C 244.96875 45.109375 244.96875 44.910156 245.144531 44.910156 C 247.460938 43.910156 247.460938 43.910156 247.460938 41.121094 C 247.460938 36.136719 247.460938 31.152344 247.460938 26.171875 C 247.636719 25.175781 247.101562 24.375 246.214844 24.175781 C 245.679688 23.976562 244.96875 23.976562 244.96875 22.980469 C 244.96875 21.1875 244.789062 21.1875 246.390625 21.1875 C 248.527344 21.1875 250.484375 21.1875 252.621094 21.1875 C 253.332031 21.1875 253.511719 21.386719 253.511719 22.183594 C 253.332031 23.378906 253.511719 24.375 253.511719 25.375 Z M 253.511719 25.375 "/>
<path style=" stroke:none;fill-rule:nonzero;fill:rgb(14.901961%,40%,69.019608%);fill-opacity:1;" d="M 216.3125 48.496094 C 211.863281 48.496094 208.125 47.101562 205.457031 42.714844 C 202.785156 38.332031 202.429688 32.75 204.566406 28.164062 C 206.347656 23.976562 210.082031 21.1875 214.175781 20.988281 C 217.558594 20.390625 220.941406 21.1875 223.964844 22.980469 C 228.238281 26.171875 230.195312 32.152344 228.949219 37.730469 C 227.527344 44.707031 222.898438 48.496094 216.3125 48.496094 Z M 222.542969 34.742188 C 222.542969 32.351562 222.1875 29.957031 221.296875 27.765625 C 220.40625 25.574219 218.449219 24.175781 216.3125 24.175781 C 214.175781 23.976562 212.042969 25.574219 211.328125 27.765625 C 209.550781 32.152344 209.550781 37.332031 211.328125 41.71875 C 212.042969 43.910156 214.175781 45.507812 216.3125 45.308594 C 218.449219 45.308594 220.40625 43.910156 221.296875 41.71875 C 222.1875 39.527344 222.542969 37.132812 222.542969 34.742188 Z M 222.542969 34.742188 "/>
<path style=" stroke:none;fill-rule:nonzero;fill:rgb(14.901961%,40%,69.019608%);fill-opacity:1;" d="M 131.59375 36.335938 C 129.105469 36.335938 126.433594 36.335938 123.941406 36.335938 C 123.230469 36.335938 123.050781 36.535156 123.050781 37.332031 C 123.765625 42.914062 127.5 45.707031 132.664062 44.707031 C 134.265625 44.308594 135.867188 43.710938 137.289062 42.714844 C 138.179688 42.117188 138.359375 42.914062 138.714844 43.3125 C 139.070312 43.910156 139.78125 44.308594 138.890625 45.109375 C 134.976562 48.496094 130.707031 48.894531 126.078125 48.097656 C 123.585938 47.699219 121.449219 46.304688 119.671875 44.308594 C 115.222656 39.328125 114.867188 25.375 123.941406 21.785156 C 128.035156 19.792969 132.664062 20.589844 136.222656 23.578125 C 138.890625 26.171875 140.316406 29.957031 140.316406 33.945312 C 140.496094 36.535156 140.316406 36.535156 138.179688 36.535156 Z M 128.390625 33.148438 C 129.992188 33.148438 131.59375 33.148438 133.195312 33.148438 C 133.730469 33.148438 134.085938 32.949219 133.910156 32.351562 C 133.730469 30.753906 133.554688 29.160156 132.839844 27.566406 C 131.773438 24.777344 128.925781 23.578125 126.613281 24.777344 C 126.078125 24.976562 125.722656 25.375 125.367188 25.773438 C 123.765625 27.566406 122.875 30.15625 122.875 32.75 C 122.875 33.347656 123.230469 33.347656 123.585938 33.347656 C 125.1875 33.148438 126.789062 33.148438 128.390625 33.148438 Z M 128.390625 33.148438 "/>
<path style=" stroke:none;fill-rule:nonzero;fill:rgb(14.901961%,40%,69.019608%);fill-opacity:1;" d="M 40.828125 18.199219 C 40.46875 18.199219 40.113281 18.398438 39.757812 18.796875 C 30.148438 25.972656 20.535156 33.148438 10.75 40.324219 C 8.078125 42.316406 5.410156 44.308594 2.917969 46.304688 C 2.5625 46.503906 2.382812 47.101562 1.847656 46.703125 C 6.121094 41.71875 10.570312 36.535156 14.839844 31.554688 C 21.78125 23.378906 28.902344 15.207031 35.84375 7.035156 C 36.019531 6.636719 36.378906 6.4375 36.734375 5.839844 L 41.003906 17.796875 Z M 40.828125 18.199219 "/>
<path style=" stroke:none;fill-rule:nonzero;fill:rgb(14.901961%,40%,69.019608%);fill-opacity:1;" d="M 275.222656 32.75 C 275.222656 30.355469 275.222656 27.964844 275.222656 25.574219 C 275.222656 24.777344 275.046875 24.574219 274.332031 24.574219 C 274.15625 24.574219 273.976562 24.574219 273.800781 24.574219 C 271.84375 24.574219 271.84375 24.574219 271.84375 22.382812 C 271.84375 21.585938 272.019531 21.1875 272.730469 21.386719 C 274.691406 21.785156 275.757812 20.789062 276.292969 18.796875 C 276.648438 17.796875 277.359375 17 277.539062 15.804688 C 278.070312 14.210938 278.960938 14.011719 280.386719 14.011719 C 280.917969 14.011719 281.097656 14.210938 281.097656 15.007812 C 281.097656 16.800781 281.097656 18.398438 281.097656 20.191406 C 281.097656 21.1875 281.453125 21.386719 282.164062 21.386719 C 283.589844 21.386719 284.835938 21.386719 286.257812 21.386719 C 286.96875 21.386719 287.328125 21.585938 287.148438 22.582031 C 287.148438 24.574219 287.148438 24.574219 285.367188 24.574219 C 284.121094 24.574219 282.875 24.574219 281.808594 24.574219 C 281.273438 24.574219 281.097656 24.777344 281.097656 25.375 C 281.097656 30.355469 281.097656 35.140625 281.097656 40.125 C 281.273438 44.507812 283.054688 45.90625 286.792969 44.109375 C 287.328125 43.910156 287.683594 43.910156 287.859375 44.507812 C 288.039062 45.109375 289.105469 45.707031 288.039062 46.304688 C 285.011719 48.496094 281.453125 48.695312 278.25 46.902344 C 276.824219 45.90625 275.757812 44.308594 275.402344 42.515625 C 274.867188 39.328125 274.691406 36.136719 274.867188 32.949219 C 275.222656 33.148438 275.222656 32.949219 275.222656 32.75 Z M 275.222656 32.75 "/>
<path style=" stroke:none;fill-rule:nonzero;fill:rgb(14.901961%,40%,69.019608%);fill-opacity:1;" d="M 238.738281 33.148438 C 238.738281 36.535156 238.738281 39.925781 238.738281 43.3125 C 238.738281 44.308594 239.09375 44.707031 239.804688 44.910156 C 239.984375 44.910156 240.339844 45.109375 240.519531 45.109375 C 241.40625 45.308594 241.941406 46.304688 241.765625 47.300781 C 241.765625 47.5 241.765625 47.5 241.585938 47.699219 C 241.40625 48.097656 241.230469 48.097656 240.875 48.097656 C 237.3125 48.097656 233.753906 48.097656 230.195312 48.097656 C 229.839844 48.097656 229.484375 48.296875 229.484375 47.699219 C 229.484375 46.902344 229.128906 46.105469 229.839844 45.507812 C 229.839844 45.507812 230.015625 45.507812 230.015625 45.507812 C 230.730469 45.109375 231.976562 45.308594 232.332031 44.308594 C 232.507812 43.3125 232.507812 42.316406 232.507812 41.320312 C 232.507812 36.535156 232.507812 31.753906 232.507812 27.167969 C 232.507812 25.574219 232.152344 24.777344 230.90625 24.375 C 230.375 24.175781 230.015625 23.976562 230.015625 23.179688 C 230.015625 21.585938 230.015625 21.585938 231.441406 21.585938 C 233.398438 21.585938 235.355469 21.585938 237.3125 21.585938 C 238.382812 21.585938 238.738281 21.785156 238.558594 22.980469 C 238.738281 26.171875 238.738281 29.558594 238.738281 33.148438 Z M 238.738281 33.148438 "/>
<path style=" stroke:none;fill-rule:nonzero;fill:rgb(14.901961%,40%,69.019608%);fill-opacity:1;" d="M 235.710938 16.402344 C 233.578125 16.601562 231.976562 14.808594 231.796875 12.417969 C 231.796875 12.21875 231.796875 12.019531 231.796875 11.820312 C 231.796875 9.425781 233.398438 7.433594 235.535156 7.433594 C 235.710938 7.433594 235.710938 7.433594 235.890625 7.433594 C 238.027344 7.234375 239.804688 9.027344 239.804688 11.421875 C 239.804688 11.621094 239.804688 11.820312 239.804688 11.820312 C 239.984375 14.210938 238.382812 16.003906 236.246094 16.203125 C 236.070312 16.601562 235.890625 16.601562 235.710938 16.402344 Z M 235.710938 16.402344 "/>
<path style=" stroke:none;fill-rule:nonzero;fill:rgb(85.882353%,21.176471%,22.352941%);fill-opacity:1;" d="M 295.335938 48.296875 C 293.199219 48.296875 291.417969 46.304688 291.417969 43.910156 C 291.417969 41.519531 293.199219 39.527344 295.335938 39.527344 C 297.472656 39.527344 299.25 41.519531 299.25 43.910156 C 299.429688 46.304688 297.828125 48.296875 295.691406 48.296875 C 295.511719 48.296875 295.511719 48.296875 295.335938 48.296875 Z M 295.335938 48.296875 "/>
</g>
</svg>
