<?xml version="1.0" encoding="utf-8"?>
<!-- Generator: Adobe Illustrator 26.3.1, SVG Export Plug-In . SVG Version: 6.00 Build 0)  -->
<svg version="1.1" id="Group_149" xmlns="http://www.w3.org/2000/svg" xmlns:xlink="http://www.w3.org/1999/xlink" x="0px" y="0px"
	 viewBox="0 0 167.2 33.5" style="enable-background:new 0 0 167.2 33.5;" xml:space="preserve">
<style type="text/css">
	.st0{fill:#2666B0;}
</style>
<path id="Path_493" class="st0" d="M114.2,33.5c-0.2-0.3-0.5-0.7-0.5-1c0-0.2,0.5-0.5,0.8-0.5c0.7-0.1,1.3-0.8,1.1-1.5
	c0-5.7,0-11.4,0-17.1c0-0.7-0.1-1.4-1-1.6c-0.3-0.1-0.7-0.5-0.6-0.7c0.1-0.3,0.3-0.6,0.7-0.7c1.1-0.4,2.2-0.7,3.3-1.1
	c0.9-0.4,1.3-0.1,1.2,0.9c0,0.4,0,0.7,0,1.1c0.6-0.4,1.2-0.8,1.7-1.2c1.5-1.2,3.6-1.1,5,0.3c2.2,2,2.6,4.6,2.2,7.3
	c-0.4,3.5-2.9,6.5-6.3,7.5c-0.8,0.2-1.7,0.3-2.6,0.2c0,1.7-0.1,3.6,0.1,5.5c0.2,0.6,0.7,1,1.2,1.1c1.2,0.1,1.2,0.7,0.9,1.6
	L114.2,33.5z M119.3,17.4c0,1.3,0,2.7,0,4c0,0.4,0.1,0.8,0.3,1.1c0.8,1,2.3,1.2,3.4,0.4c0.3-0.3,0.6-0.6,0.8-1
	c0.9-1.8,1.2-3.8,0.9-5.8c-0.1-1.5-0.7-2.9-1.9-3.8c-0.8-0.6-1.9-0.6-2.7-0.1c-0.9,0.4-0.9,1.1-0.9,1.9
	C119.3,15.2,119.3,16.3,119.3,17.4L119.3,17.4z"/>
<path id="Path_494" class="st0" d="M11.9,14.2c1.3,2.4,2.5,4.7,3.9,7c0.7,0.9,1.4,1.8,2.3,2.6c0.3,0.3,0.4,0.7,0.4,1.2
	c0,0.2-0.6,0.5-0.9,0.6c-3.2,0.3-5.2-1.5-6.4-4.2c-0.6-1.4-1.3-2.8-1.9-4.1c-0.3-1.1-1.4-1.9-2.6-1.8c0,2.1,0,4.3,0,6.4
	c-0.1,0.8,0.5,1.6,1.3,1.7c0,0,0.1,0,0.1,0c0.7,0,1.2,0.4,1,1.1c-0.3,0.4-0.7,0.6-1.2,0.7c-2.2,0.1-4.4,0-6.6,0
	c-0.4,0-0.8-0.4-1.1-0.6c0.3-0.3,0.6-0.9,0.9-1c1.5-0.2,1.8-1.2,1.8-2.4c0-5,0-10.1,0-15.1c0-1.1-0.3-2-1.6-2.1
	C0.4,3.9,0,3.4,0.3,2.8c0.2-0.4,0.6-0.6,1.1-0.6c2.7,0,5.4-0.1,8.1,0.1c3.4,0.2,5.2,1.4,5.8,4.2c0.7,3.1,0.2,5.2-2.7,7.3
	C12.5,13.8,12.3,13.9,11.9,14.2z M6.5,13.4c1.8,0.3,3.3,0,4.3-1.6c1.1-1.6,0.9-5.2-0.3-6.7c-0.8-1-2.1-1.4-3.4-1
	C6.8,4.3,6.6,4.6,6.5,4.9C6.5,7.7,6.5,10.6,6.5,13.4L6.5,13.4z"/>
<path id="Path_495" class="st0" d="M32.2,10.3c1.8-1.4,3.5-1.8,5.3-0.7c2,1.2,3.3,3.4,3.5,5.7c0.2,1.7,0,3.5-0.6,5.1
	c-1.9,4.4-5.7,6.1-10.2,4.5c-1.1-0.2-1.8-1.3-1.6-2.4c0.1-5.9,0-11.9,0-17.8c0-1,0-1.9-1.3-2c-0.3-0.1-0.5-0.4-0.6-0.8
	c0.1-0.4,0.3-0.7,0.7-0.9c1.3-0.4,2.7-0.7,4.1-1c0.6-0.1,0.9,0,0.9,0.8C32.1,3.9,32.2,7,32.2,10.3z M32.1,17.1L32.1,17.1
	c0,1.3,0,2.6,0,3.9c0,0.2,0,0.5,0,0.7c0,0.9,0.7,1.7,1.6,1.9c0.9,0.2,1.8-0.2,2.2-1c1.6-2.8,1.6-6.3,0.1-9.2c-0.5-1-1.6-1.7-2.7-1.6
	c-0.9,0-1.3,0.3-1.2,1.2C32.2,14.4,32.1,15.8,32.1,17.1z"/>
<path id="Path_496" class="st0" d="M47.2,0v10.2c0.3-0.1,0.5-0.2,0.8-0.4c2.3-1.6,4.7-0.8,6.5,1.6c3.2,4.1,1.7,10.3-2,12.9
	c-2.2,1.6-4.7,1.5-7.1,0.7c-1.8-0.6-1.8-0.7-1.8-2.6c0-5.9,0-11.9,0-17.8c0-0.9-0.1-1.7-1.2-1.8c-0.3-0.1-0.5-0.4-0.6-0.7
	c0-0.3,0.2-0.8,0.5-0.9C43.8,0.8,45.5,0.4,47.2,0z M47.3,16.9L47.3,16.9c0,1.4,0,2.7,0,4.1c0,1.4,0.7,2.4,1.7,2.6
	c1.3,0.2,2-0.6,2.5-1.6c0.2-0.3,0.3-0.7,0.4-1c0.2-2.1,0.2-4.1,0-6.2c-0.2-1.8-1.8-3.1-3.6-3c-0.8,0-1.1,0.3-1.1,1.1
	C47.3,14.2,47.3,15.6,47.3,16.9L47.3,16.9z"/>
<path id="Path_497" class="st0" d="M92.5,25.6c-7.3,0.1-11-6-10.9-12c-0.1-3.2,1.2-6.2,3.4-8.5c2.3-2.3,5.4-3.4,8.6-3.2
	c4.5,0.1,5.7,1.4,5.5,5.9c0,0.3-0.4,0.6-0.6,0.9c-0.3-0.3-0.7-0.5-0.8-0.8c-0.7-2.4-2.1-4.1-4.8-4.2c-2.6-0.2-4.4,1.1-5.7,3.3
	c-2.5,4.4-1.8,12,1.6,15.1c2.7,2.5,6.2,2.1,8.2-0.9c0.4-0.6,0.7-1.3,1.2-1.9c0.2-0.2,0.6-0.3,0.9-0.5c0.1,0.3,0.4,0.6,0.4,0.9
	c-0.3,1.5-0.7,2.9-1.2,4.3c-0.2,0.4-0.5,0.6-0.9,0.7C95.8,25,94.2,25.3,92.5,25.6z"/>
<path id="Path_498" class="st0" d="M153.5,23.8c-0.1,0.1-0.5,0.4-1,0.7c-1.6,1.1-3.7,0.8-4.8-0.8c-0.4-0.6-0.6-1.2-0.7-1.9
	c-0.3-2.4,0.2-3.4,2.5-4.5c1-0.5,2-0.9,3-1.3c0.9-0.2,1.5-1.1,1.3-2.1c0,0,0-0.1,0-0.1c0-0.5-0.1-1-0.3-1.4
	c-0.4-0.5-0.9-1.2-1.4-1.3c-0.4-0.1-1.1,0.6-1.4,1c-0.3,0.6-0.5,1.2-0.6,1.8c-0.3,0.7-0.7,1.3-1.6,0.9c-0.8-0.4-1.5-1-1.2-2
	c0.5-1.6,5.1-4.1,6.7-3.7c1.9,0.5,3.3,2.3,3.2,4.2c0.1,2.2,0,4.5,0.1,6.7c0,0.5,0,0.9,0.1,1.4c0.1,0.6,0.4,1.1,1.2,0.9
	c0.3,0,0.5,0.1,0.7,0.3c0.1,0.3,0.1,0.8,0,0.9c-0.9,0.6-1.8,1.5-2.8,1.7C155.5,25.3,154.6,24.4,153.5,23.8z M153.7,16.9
	c-0.8,0.5-1.7,1.1-2.4,1.7c-1,0.9-1.1,2.5-0.2,3.5c0.1,0.1,0.1,0.1,0.2,0.2c0.4,0.4,1,0.5,1.5,0.4c0.5-0.3,0.8-0.7,0.9-1.2
	C153.8,19.9,153.7,18.6,153.7,16.9L153.7,16.9z"/>
<path id="Path_499" class="st0" d="M108.3,23.5l-1,0.8c-1,0.8-2.1,1.5-3.5,0.8c-1.4-0.6-2.3-1.9-2.4-3.4c-0.3-2.2,0.5-3.5,2.6-4.4
	c1.1-0.5,2.2-1,3.3-1.4c1.4-0.6,0.9-1.7,0.8-2.7c-0.1-0.9-0.5-1.9-1.5-2c-0.5,0-1.1,0.5-1.5,1c-0.3,0.5-0.4,1.1-0.5,1.6
	c-0.3,0.8-0.6,1.5-1.7,1.1c-0.9-0.3-1.4-1.3-1.2-2.2c0-0.1,0-0.1,0.1-0.2c0.6-1.3,4.7-3.5,6.2-3.4c2,0.3,3.4,1.9,3.5,3.9
	c0.1,2.4,0,4.7,0.1,7.1c0,0.5,0,1,0.2,1.5c0.2,0.3,0.7,0.5,1,0.8c0.3,0.2,0.7,0.2,0.8,0.4c0.1,0.3,0,0.6-0.2,0.8
	c-0.8,0.6-1.6,1.2-2.5,1.6C109.6,25.7,109,24.6,108.3,23.5z M108.3,16.8c-0.9,0.5-1.8,1.2-2.7,1.8c-0.9,1.1-0.8,2.7,0.2,3.7
	c0.4,0.3,1,0.4,1.5,0.2c0.5-0.2,0.8-0.6,0.9-1.1C108.3,20,108.3,18.6,108.3,16.8L108.3,16.8z"/>
<path id="Path_500" class="st0" d="M70.7,9.3c0.8,0,1.4,0,2,0c0.7,0,1.3,0.2,1.2,1c0.1,0.6-0.4,1.1-1,1.2c-0.1,0-0.2,0-0.3,0
	c-0.6,0-1.2,0-2,0c0,3.1-0.1,6.2,0,9.2c0.1,1.9,0.8,2.2,3,1.6c0.7,0.8,0.7,1.5-0.4,2c-0.7,0.4-1.5,0.8-2.3,1.1
	c-1.7,0.4-3.4-0.7-3.7-2.4c0-0.2-0.1-0.4-0.1-0.5c-0.2-1.6-0.2-3.3-0.2-5c0-1.9,0-3.9,0-5.6l-1.8-1L67,8.6c-0.6-2,1.6-2.8,2.9-4.1
	c0.6-0.6,0.9,0,0.9,0.6C70.8,6.4,70.7,7.8,70.7,9.3z"/>
<path id="Path_501" class="st0" d="M165.3,0.2v5.1c0,5.4,0,10.7,0,16.1c0,1.1,0.1,2.1,1.5,2.4c0.3,0.1,0.5,0.4,0.5,0.7
	c0,0.2-0.4,0.5-0.7,0.5c-2,0-4,0-6,0c-0.2,0-0.5-0.3-0.7-0.5c0.2-0.2,0.3-0.7,0.5-0.7c1.4-0.3,1.5-1.2,1.5-2.3c0-5.6,0-11.2,0-16.9
	c0-1-0.2-1.8-1.4-2c-0.2,0-0.5-0.5-0.5-0.7c0-0.2,0.3-0.5,0.6-0.5C162.1,0.9,163.6,0.6,165.3,0.2z"/>
<path id="Path_502" class="st0" d="M142.6,11.4v4.5c0,1.4,0,2.8,0,4.2c0.1,2.4,0.7,2.9,3.2,2.4c0,0.5,0.2,1.2,0,1.3
	c-1.1,0.7-2.2,1.2-3.4,1.5c-1.3,0.2-2.6-0.7-2.8-2c-0.2-0.8-0.3-1.7-0.3-2.6c0-2.7,0-5.4,0-8.1v-1.2l-1.9-0.1l-0.3-0.4l2-2.1
	c-0.5-2.1,1.6-3,3.1-4.4l0.5,0.1c0,1,0,2.1,0,3.1c0,2-0.2,1.8,1.8,1.8c0.7,0,1.5-0.1,1.4,0.9c0,0.9-0.7,1-1.4,1
	C143.8,11.3,143.3,11.4,142.6,11.4z"/>
<path id="Path_503" class="st0" d="M24.5,9v1.5c0,3.7,0,7.3,0,11c0,1,0,2,1.4,2.1c0.2,0,0.5,0.6,0.5,0.9c-0.1,0.3-0.3,0.6-0.6,0.7
	c-2,0-4.1,0-6.1,0c-0.3,0-0.7-0.4-0.7-0.6c0-0.3,0.3-0.9,0.5-0.9c1.3-0.2,1.4-1.2,1.4-2.2c0-2.5,0-4.9,0-7.4c0-1-0.1-1.9-1.3-2.2
	c-0.2-0.1-0.4-0.5-0.4-0.7s0.2-0.7,0.4-0.8C21.2,9.9,22.7,9.5,24.5,9z"/>
<path id="Path_504" class="st0" d="M57.6,11.8c-0.2-1-0.1-1.4,0.9-1.6c1.1-0.1,2.1-0.4,3.1-0.9c1.1-0.5,1.2,0,1.2,0.9
	c0,3.7,0,7.5,0,11.2c0,1.1,0,2.1,1.5,2.3c0.3,0,0.4,0.8,0.8,1.4c-0.9,0.1-1.5,0.2-2,0.2c-1.6,0-3.2,0-4.9,0c-0.3,0-0.9-0.4-0.9-0.7
	c0-0.4,0.3-0.8,0.6-0.9c1.1-0.3,1.3-1.1,1.3-2c0-2.6,0-5.2,0-7.7C59.2,12.7,58.8,11.9,57.6,11.8z"/>
<path id="Path_505" class="st0" d="M134.7,9.3c0,0.5,0.1,1,0.1,1.4c0,3.6,0,7.2,0,10.9c0,1,0.1,1.9,1.3,2.2c0.2,0.1,0.4,0.5,0.5,0.8
	c-0.3,0.1-0.5,0.4-0.8,0.4c-1.9,0-3.7,0-5.6,0c-0.3,0-0.5-0.3-0.8-0.5c0.2-0.3,0.4-0.7,0.6-0.8c1.1-0.3,1.3-1.1,1.3-2.1
	c0-2.7,0-5.3,0-8c0-0.9-0.1-1.7-1.2-1.9c-0.2-0.1-0.5-0.5-0.5-0.7c0.1-0.3,0.2-0.5,0.5-0.6C131.7,10,133.1,9.7,134.7,9.3z"/>
<path id="Path_506" class="st0" d="M22.6,2.1c1.2,0.2,2.2,1.2,2.1,2.5c0,1.3-0.9,2.3-2.2,2.5c-1.3-0.1-2.2-1.2-2.1-2.5
	C20.5,3.4,21.4,2.3,22.6,2.1z"/>
<path id="Path_507" class="st0" d="M58.7,4.6c-0.1-1.3,0.9-2.3,2.1-2.5c1.2,0.2,2.1,1.3,2.1,2.6C63,5.9,62.1,7,60.8,7.1
	c0,0-0.1,0-0.1,0C59.5,6.9,58.6,5.8,58.7,4.6C58.7,4.6,58.7,4.6,58.7,4.6z"/>
<path id="Path_508" class="st0" d="M134.9,4.7c0.1,1.1-0.7,2.1-1.8,2.2c-0.1,0-0.2,0-0.2,0c-1.1-0.2-1.9-1.2-1.9-2.3
	c0-1.2,0.8-2.2,1.9-2.4C134.2,2.4,135,3.5,134.9,4.7C134.9,4.7,134.9,4.7,134.9,4.7z"/>
</svg>
