<svg id="Group_149" data-name="Group 149" xmlns="http://www.w3.org/2000/svg" width="167.247" height="33.54" viewBox="0 0 167.247 33.54">
  <path id="Path_493" data-name="Path 493" d="M-107.368,481.681c-.17-.331-.471-.667-.462-.991,0-.191.487-.469.791-.529a1.37,1.37,0,0,0,1.147-1.549q.024-8.557,0-17.116c0-.737-.133-1.4-1.042-1.616-.273-.068-.651-.485-.637-.723a1.126,1.126,0,0,1,.667-.737c1.082-.415,2.209-.714,3.3-1.117.947-.35,1.341-.1,1.243.924a9.178,9.178,0,0,0,.047,1.117c.632-.443,1.164-.814,1.693-1.187a3.645,3.645,0,0,1,4.961.275c2.248,1.989,2.572,4.6,2.174,7.319a8.913,8.913,0,0,1-6.271,7.512,10.958,10.958,0,0,1-2.556.243c0,1.684-.075,3.58.058,5.46a1.734,1.734,0,0,0,1.227,1.105c1.187.149,1.248.714.91,1.611Zm5.01-16.1c0,1.329-.026,2.661.016,3.99a1.816,1.816,0,0,0,.35,1.122,2.4,2.4,0,0,0,4.128-.581,9.3,9.3,0,0,0,.9-5.807,5.275,5.275,0,0,0-1.854-3.816,2.429,2.429,0,0,0-2.694-.14c-.877.4-.87,1.094-.854,1.866C-102.337,463.341-102.356,464.463-102.358,465.584Z" transform="translate(221.61 -448.142)" fill="#bfc1c0"/>
  <path id="Path_494" data-name="Path 494" d="M-144.7,466.272c1.292,2.379,2.488,4.746,3.851,7.013a25.683,25.683,0,0,0,2.251,2.591,1.669,1.669,0,0,1,.385,1.168c-.044.245-.574.546-.907.571-3.228.254-5.192-1.455-6.449-4.238-.632-1.392-1.311-2.761-1.95-4.149a2.451,2.451,0,0,0-2.6-1.775c0,2.148-.033,4.268.016,6.388a1.509,1.509,0,0,0,1.465,1.689c.7.044,1.21.394.963,1.082a1.534,1.534,0,0,1-1.2.655q-3.306.084-6.614-.028c-.385-.012-.758-.422-1.136-.648.292-.336.553-.924.882-.966,1.469-.191,1.824-1.182,1.831-2.374q.042-7.564,0-15.125c0-1.054-.289-1.961-1.572-2.1-.7-.077-1.131-.508-.861-1.175a1.418,1.418,0,0,1,1.094-.639c2.705-.023,5.418-.051,8.118.089,3.44.177,5.206,1.371,5.807,4.2.662,3.125.166,5.2-2.668,7.281C-144.148,465.9-144.321,466.016-144.7,466.272Zm-5.422-.746c1.842.3,3.265-.012,4.256-1.565,1.054-1.649.931-5.2-.3-6.717a3.243,3.243,0,0,0-3.37-1,1.053,1.053,0,0,0-.562.779C-150.135,459.835-150.118,462.648-150.118,465.526Z" transform="translate(156.616 -452.09)" fill="#3f4749"/>
  <path id="Path_495" data-name="Path 495" d="M-139.628,463.617c1.77-1.4,3.47-1.824,5.308-.683a7.42,7.42,0,0,1,3.494,5.719,9.944,9.944,0,0,1-.648,5.112c-1.87,4.427-5.737,6.12-10.25,4.52a2.107,2.107,0,0,1-1.63-2.409c.079-5.947.033-11.9.033-17.846,0-.951.016-1.861-1.313-1.975a.99.99,0,0,1-.59-.784,1.264,1.264,0,0,1,.695-.879c1.336-.413,2.7-.739,4.067-1.049.574-.128.877.021.861.781C-139.666,457.19-139.628,460.261-139.628,463.617Zm-.012,6.794h.019c0,1.29,0,2.58,0,3.869a6.4,6.4,0,0,0,.044.732,1.964,1.964,0,0,0,1.556,1.859,1.866,1.866,0,0,0,2.19-1.043,9.812,9.812,0,0,0,.131-9.166,2.834,2.834,0,0,0-2.738-1.6c-.9,0-1.273.28-1.222,1.234C-139.584,467.664-139.64,469.04-139.64,470.411Z" transform="translate(171.787 -453.276)" fill="#3f4749"/>
  <path id="Path_496" data-name="Path 496" d="M-133.242,453.29v10.234a7.086,7.086,0,0,0,.765-.392c2.3-1.635,4.653-.823,6.53,1.583,3.2,4.1,1.691,10.271-2,12.935-2.195,1.581-4.655,1.537-7.132.672-1.845-.644-1.845-.653-1.842-2.633q0-8.924.014-17.849c0-.9-.079-1.656-1.227-1.779a.887.887,0,0,1-.564-.667c0-.312.226-.835.457-.9C-136.636,454.05-135,453.7-133.242,453.29Zm.019,16.916h.016c0,1.374-.009,2.747,0,4.121.014,1.392.658,2.442,1.668,2.593,1.283.194,1.978-.634,2.51-1.635a2.557,2.557,0,0,0,.378-1.043,44.081,44.081,0,0,0,.044-6.178,3.351,3.351,0,0,0-3.55-2.985c-.786.028-1.112.31-1.082,1.129C-133.184,467.54-133.224,468.872-133.224,470.206Z" transform="translate(180.481 -453.29)" fill="#3f4749"/>
  <path id="Path_497" data-name="Path 497" d="M-110.7,477.78c-7.253.133-11.031-6-10.91-11.95a11.83,11.83,0,0,1,3.384-8.478,11.216,11.216,0,0,1,8.606-3.249c4.5.131,5.67,1.392,5.483,5.879-.014.317-.376.62-.574.928-.261-.266-.665-.49-.756-.807-.7-2.423-2.111-4.06-4.758-4.238-2.61-.175-4.42,1.115-5.691,3.316-2.542,4.408-1.768,11.99,1.563,15.071,2.717,2.512,6.185,2.125,8.249-.94.417-.62.718-1.318,1.152-1.924.175-.245.562-.334.854-.494.131.3.427.644.364.9-.35,1.453-.749,2.894-1.22,4.312a1.371,1.371,0,0,1-.879.714C-107.448,477.186-109.081,477.468-110.7,477.78Z" transform="translate(203.242 -452.214)" fill="#bfc1c0"/>
  <path id="Path_498" data-name="Path 498" d="M-87.049,471.872c-.133.1-.548.434-1,.714a3.471,3.471,0,0,1-5.5-2.691c-.3-2.4.229-3.393,2.451-4.45a32.109,32.109,0,0,1,2.983-1.252,1.753,1.753,0,0,0,1.311-2.185,4.083,4.083,0,0,0-.289-1.448c-.355-.539-.879-1.208-1.42-1.3-.424-.072-1.105.56-1.446,1.04a8.756,8.756,0,0,0-.59,1.754c-.28.693-.7,1.313-1.586.921-.849-.376-1.542-.968-1.241-2.015.452-1.579,5.054-4.084,6.661-3.69a4.3,4.3,0,0,1,3.211,4.245c.093,2.244.049,4.492.082,6.74a6.94,6.94,0,0,0,.14,1.355c.135.616.387,1.1,1.2.858a.765.765,0,0,1,.7.252c.1.266.117.786-.044.9-.9.639-1.828,1.535-2.834,1.663C-85.038,473.376-85.941,472.474-87.049,471.872Zm.243-6.973a24.228,24.228,0,0,0-2.442,1.654,2.467,2.467,0,0,0,0,3.657,1.8,1.8,0,0,0,1.511.383,1.714,1.714,0,0,0,.891-1.248C-86.732,467.982-86.806,466.6-86.806,464.9Z" transform="translate(240.525 -448.046)" fill="#bfc1c0"/>
  <path id="Path_499" data-name="Path 499" d="M-106.2,471.561l-.961.777c-1.045.839-2.146,1.458-3.531.826a4.087,4.087,0,0,1-2.379-3.414c-.3-2.232.5-3.531,2.589-4.4,1.105-.459,2.192-.97,3.3-1.42,1.413-.571.858-1.721.77-2.682-.089-.942-.471-1.913-1.53-2-.483-.037-1.14.518-1.493.977a6.281,6.281,0,0,0-.527,1.647c-.285.774-.641,1.523-1.7,1.126a1.759,1.759,0,0,1-1.075-2.414c.641-1.283,4.72-3.51,6.155-3.356a4.13,4.13,0,0,1,3.519,3.925c.082,2.37.035,4.741.068,7.111a3.285,3.285,0,0,0,.208,1.455c.177.341.669.527,1.043.751.273.166.7.215.828.443a.893.893,0,0,1-.224.84,9.473,9.473,0,0,1-2.514,1.56C-104.926,473.72-105.541,472.627-106.2,471.561Zm-.079-6.693a23.327,23.327,0,0,0-2.661,1.833,2.594,2.594,0,0,0,.247,3.659,1.792,1.792,0,0,0,1.462.212,1.622,1.622,0,0,0,.907-1.117C-106.211,468.06-106.278,466.652-106.278,464.867Z" transform="translate(214.547 -448.052)" fill="#bfc1c0"/>
  <path id="Path_500" data-name="Path 500" d="M-123.126,460.162c.8,0,1.42,0,2.038,0,.707,0,1.252.182,1.213,1.04a1.1,1.1,0,0,1-1.257,1.206c-.616-.012-1.231,0-1.966,0,0,3.123-.121,6.155.044,9.168.1,1.9.83,2.174,2.992,1.623.73.849.665,1.516-.42,2.017a15.384,15.384,0,0,1-2.337,1.134,3.154,3.154,0,0,1-3.8-2.981c-.175-1.647-.2-3.314-.229-4.975-.037-1.947-.009-3.895-.009-5.583l-1.8-1.049,1.77-2.258c-.634-2.022,1.612-2.8,2.894-4.123.583-.6.854-.049.858.56C-123.119,457.3-123.126,458.671-123.126,460.162Z" transform="translate(193.872 -450.854)" fill="#3f4749"/>
  <path id="Path_501" data-name="Path 501" d="M-82.675,453.368v5.11q0,8.06,0,16.118c0,1.117.126,2.083,1.483,2.356a.867.867,0,0,1,.5.7c-.014.2-.42.522-.658.527q-2.995.052-5.994-.019c-.245-.007-.48-.322-.718-.494.177-.243.322-.655.539-.7,1.36-.264,1.516-1.248,1.516-2.349q0-8.435,0-16.867c0-1.005-.189-1.812-1.392-2-.21-.033-.462-.464-.49-.732-.016-.163.329-.478.56-.539C-85.854,454.093-84.364,453.762-82.675,453.368Z" transform="translate(247.941 -453.186)" fill="#bfc1c0"/>
  <path id="Path_502" data-name="Path 502" d="M-92.329,462.106v4.536c0,1.416-.033,2.831.014,4.245.075,2.384.7,2.876,3.2,2.36,0,.464.154,1.164-.026,1.264a12.156,12.156,0,0,1-3.442,1.549,2.451,2.451,0,0,1-2.8-1.966,9.8,9.8,0,0,1-.345-2.579c-.042-2.705-.019-5.411-.021-8.116v-1.243l-1.856-.133-.264-.35,2-2.069c-.534-2.129,1.591-3.048,3.058-4.4l.483.07c0,1.042,0,2.085,0,3.128.009,2.034-.184,1.842,1.77,1.847.665,0,1.462-.119,1.423.9-.037.875-.688,1.015-1.432.968C-91.1,462.08-91.63,462.106-92.329,462.106Z" transform="translate(234.884 -450.745)" fill="#bfc1c0"/>
  <path id="Path_503" data-name="Path 503" d="M-142.939,457.163v1.467c0,3.666-.019,7.33,0,11,0,.954-.037,1.968,1.371,2.083.215.019.513.583.529.9a.93.93,0,0,1-.611.688q-3.054.07-6.113-.021c-.252-.007-.7-.418-.693-.632.007-.327.292-.882.532-.924,1.3-.229,1.378-1.194,1.39-2.16.035-2.458.012-4.916.012-7.375,0-1-.1-1.912-1.315-2.234-.2-.054-.415-.485-.41-.739s.208-.711.413-.772C-146.3,458-144.749,457.627-142.939,457.163Z" transform="translate(167.488 -448.13)" fill="#3f4749"/>
  <path id="Path_504" data-name="Path 504" d="M-131.761,459.86c-.21-.966-.093-1.444.935-1.57a10.794,10.794,0,0,0,3.072-.9c1.075-.487,1.2-.047,1.2.865-.019,3.741,0,7.484-.016,11.225-.007,1.106,0,2.083,1.486,2.253.264.03.445.77.784,1.4-.891.084-1.451.175-2.01.182-1.619.019-3.237.044-4.853-.026-.331-.014-.877-.413-.9-.676a1.168,1.168,0,0,1,.648-.949c1.105-.275,1.3-1.115,1.311-1.987.044-2.577.014-5.154,0-7.731C-130.119,460.835-130.5,460-131.761,459.86Z" transform="translate(189.313 -448.101)" fill="#3f4749"/>
  <path id="Path_505" data-name="Path 505" d="M-95.858,457.267c.023.52.058.959.061,1.4q.01,5.436.012,10.873c0,1.017.126,1.9,1.346,2.2.238.058.371.541.55.826-.266.145-.532.41-.8.415q-2.809.049-5.621-.014c-.264-.007-.52-.294-.779-.45.205-.268.366-.709.627-.779,1.126-.305,1.341-1.117,1.341-2.1,0-2.666.009-5.331,0-8,0-.87-.142-1.658-1.21-1.912-.217-.051-.457-.466-.473-.728a.814.814,0,0,1,.5-.595C-98.886,458.006-97.444,457.666-95.858,457.267Z" transform="translate(230.586 -447.992)" fill="#bfc1c0"/>
  <path id="Path_506" data-name="Path 506" d="M-145.707,454.2a2.482,2.482,0,0,1,2.143,2.493,2.394,2.394,0,0,1-2.153,2.458,2.326,2.326,0,0,1-2.122-2.47A2.466,2.466,0,0,1-145.707,454.2Z" transform="translate(168.309 -452.08)" fill="#3f4749"/>
  <path id="Path_507" data-name="Path 507" d="M-131.434,456.671a2.4,2.4,0,0,1,2.113-2.481,2.561,2.561,0,0,1,2.08,2.558,2.241,2.241,0,0,1-2.155,2.4A2.262,2.262,0,0,1-131.434,456.671Z" transform="translate(190.164 -452.091)" fill="#3f4749"/>
  <path id="Path_508" data-name="Path 508" d="M-96.56,456.715a1.992,1.992,0,0,1-2.017,2.195,2.179,2.179,0,0,1-1.859-2.279,2.344,2.344,0,0,1,1.947-2.379A2.2,2.2,0,0,1-96.56,456.715Z" transform="translate(231.46 -452.009)" fill="#bfc1c0"/>
</svg>
