<?xml version="1.0" encoding="UTF-8"?>
<svg id="katman_1" data-name="katman 1" xmlns="http://www.w3.org/2000/svg" viewBox="0 0 300 100">
  <defs>
    <style>
      .cls-1 {
        fill: #bfc1c0;
      }

      .cls-2 {
        fill: #3f4749;
      }
    </style>
  </defs>
  <path id="Path_493" data-name="Path 493" class="cls-1" d="M180.66,66.56c-.17-.33-.47-.67-.46-.99,0-.19,.49-.47,.79-.53,.74-.11,1.25-.81,1.15-1.55,.02-5.7,.02-11.41,0-17.12,0-.74-.13-1.4-1.04-1.62-.27-.07-.65-.48-.64-.72,.1-.34,.34-.61,.67-.74,1.08-.42,2.21-.71,3.3-1.12,.95-.35,1.34-.1,1.24,.92,0,.37,0,.75,.05,1.12,.63-.44,1.16-.81,1.69-1.19,1.47-1.22,3.64-1.1,4.96,.27,2.25,1.99,2.57,4.6,2.17,7.32-.41,3.53-2.87,6.48-6.27,7.51-.84,.18-1.7,.26-2.56,.24,0,1.68-.07,3.58,.06,5.46,.2,.55,.66,.97,1.23,1.11,1.19,.15,1.25,.71,.91,1.61h-7.25Zm5.01-16.1c0,1.33-.03,2.66,.02,3.99-.01,.4,.11,.8,.35,1.12,.81,1.05,2.32,1.24,3.37,.43,.34-.26,.6-.61,.76-1.01,.92-1.79,1.24-3.82,.9-5.81-.06-1.48-.73-2.86-1.85-3.82-.79-.59-1.85-.64-2.69-.14-.88,.4-.87,1.09-.85,1.87,.03,1.13,0,2.25,0,3.37h0Z"/>
  <path id="Path_494" data-name="Path 494" class="cls-2" d="M78.34,47.2c1.29,2.38,2.49,4.75,3.85,7.01,.69,.91,1.44,1.78,2.25,2.59,.27,.33,.41,.74,.38,1.17-.04,.24-.57,.55-.91,.57-3.23,.25-5.19-1.45-6.45-4.24-.63-1.39-1.31-2.76-1.95-4.15-.32-1.14-1.42-1.89-2.6-1.77,0,2.15-.03,4.27,.02,6.39-.1,.83,.49,1.58,1.32,1.68,.05,0,.1,0,.15,.01,.7,.04,1.21,.39,.96,1.08-.28,.39-.72,.64-1.2,.65-2.2,.06-4.41,.05-6.61-.03-.38-.01-.76-.42-1.14-.65,.29-.34,.55-.92,.88-.97,1.47-.19,1.82-1.18,1.83-2.37,.03-5.04,.03-10.08,0-15.12,0-1.05-.29-1.96-1.57-2.1-.7-.08-1.13-.51-.86-1.17,.24-.37,.65-.61,1.09-.64,2.71-.02,5.42-.05,8.12,.09,3.44,.18,5.21,1.37,5.81,4.2,.66,3.12,.17,5.2-2.67,7.28-.15,.12-.33,.23-.71,.49Zm-5.42-.75c1.84,.3,3.26-.01,4.26-1.57,1.05-1.65,.93-5.2-.3-6.72-.83-.97-2.15-1.36-3.37-1-.3,.15-.51,.44-.56,.78-.04,2.81-.02,5.63-.02,8.5h0Z"/>
  <path id="Path_495" data-name="Path 495" class="cls-2" d="M98.58,43.36c1.77-1.4,3.47-1.82,5.31-.68,2.01,1.24,3.31,3.37,3.49,5.72,.24,1.73,.01,3.49-.65,5.11-1.87,4.43-5.74,6.12-10.25,4.52-1.1-.24-1.82-1.3-1.63-2.41,.08-5.95,.03-11.9,.03-17.85,0-.95,.02-1.86-1.31-1.98-.32-.14-.55-.44-.59-.78,.08-.39,.34-.71,.7-.88,1.34-.41,2.7-.74,4.07-1.05,.57-.13,.88,.02,.86,.78-.07,3.07-.03,6.14-.03,9.49Zm-.01,6.79h.02v3.87c0,.24,.02,.49,.04,.73,.03,.9,.67,1.67,1.56,1.86,.89,.24,1.82-.2,2.19-1.04,1.56-2.85,1.6-6.28,.13-9.17-.5-1.04-1.58-1.68-2.74-1.6-.9,0-1.27,.28-1.22,1.23,.08,1.37,.02,2.74,.02,4.12Z"/>
  <path id="Path_496" data-name="Path 496" class="cls-2" d="M113.66,33.02v10.23c.26-.12,.52-.25,.76-.39,2.3-1.64,4.65-.82,6.53,1.58,3.2,4.1,1.69,10.27-2,12.93-2.2,1.58-4.65,1.54-7.13,.67-1.85-.64-1.85-.65-1.84-2.63,0-5.95,0-11.9,.01-17.85,0-.9-.08-1.66-1.23-1.78-.29-.11-.51-.36-.56-.67,0-.31,.23-.83,.46-.9,1.6-.44,3.24-.79,5-1.2Zm.02,16.92h.02c0,1.37,0,2.75,0,4.12,.01,1.39,.66,2.44,1.67,2.59,1.28,.19,1.98-.63,2.51-1.64,.2-.32,.33-.67,.38-1.04,.16-2.06,.17-4.12,.04-6.18-.19-1.79-1.76-3.1-3.55-2.98-.79,.03-1.11,.31-1.08,1.13,.05,1.33,.01,2.66,.01,4h0Z"/>
  <path id="Path_497" data-name="Path 497" class="cls-1" d="M158.96,58.59c-7.25,.13-11.03-6-10.91-11.95-.05-3.16,1.17-6.22,3.38-8.48,2.27-2.26,5.4-3.45,8.61-3.25,4.5,.13,5.67,1.39,5.48,5.88-.01,.32-.38,.62-.57,.93-.26-.27-.67-.49-.76-.81-.7-2.42-2.11-4.06-4.76-4.24-2.61-.17-4.42,1.11-5.69,3.32-2.54,4.41-1.77,11.99,1.56,15.07,2.72,2.51,6.18,2.12,8.25-.94,.42-.62,.72-1.32,1.15-1.92,.18-.24,.56-.33,.85-.49,.13,.3,.43,.64,.36,.9-.35,1.45-.75,2.89-1.22,4.31-.18,.35-.5,.61-.88,.71-1.62,.37-3.25,.65-4.87,.96Z"/>
  <path id="Path_498" data-name="Path 498" class="cls-1" d="M219.9,56.85c-.13,.1-.55,.43-1,.71-1.55,1.12-3.72,.77-4.85-.78-.4-.56-.63-1.22-.65-1.91-.3-2.4,.23-3.39,2.45-4.45,.97-.47,1.97-.89,2.98-1.25,.95-.21,1.54-1.14,1.34-2.09,0-.03-.02-.06-.02-.1,0-.5-.11-.99-.29-1.45-.36-.54-.88-1.21-1.42-1.3-.42-.07-1.11,.56-1.45,1.04-.26,.56-.46,1.15-.59,1.75-.28,.69-.7,1.31-1.59,.92-.85-.38-1.54-.97-1.24-2.02,.45-1.58,5.05-4.08,6.66-3.69,1.92,.5,3.25,2.26,3.21,4.24,.09,2.24,.05,4.49,.08,6.74,0,.46,.05,.91,.14,1.36,.14,.62,.39,1.1,1.2,.86,.26-.04,.53,.05,.7,.25,.1,.27,.12,.79-.04,.9-.9,.64-1.83,1.54-2.83,1.66-.78,.09-1.68-.81-2.79-1.41Zm.24-6.97c-.85,.5-1.66,1.05-2.44,1.65-1.01,.91-1.09,2.47-.17,3.48,.05,.06,.11,.12,.17,.17,.42,.35,.98,.49,1.51,.38,.48-.25,.81-.71,.89-1.25,.11-1.36,.04-2.75,.04-4.45h0Z"/>
  <path id="Path_499" data-name="Path 499" class="cls-1" d="M174.77,56.53l-.96,.78c-1.04,.84-2.15,1.46-3.53,.83-1.36-.62-2.27-1.93-2.38-3.41-.3-2.23,.5-3.53,2.59-4.4,1.11-.46,2.19-.97,3.3-1.42,1.41-.57,.86-1.72,.77-2.68-.09-.94-.47-1.91-1.53-2-.48-.04-1.14,.52-1.49,.98-.25,.52-.43,1.08-.53,1.65-.29,.77-.64,1.52-1.7,1.13-.93-.29-1.45-1.28-1.16-2.2,.02-.07,.05-.14,.08-.21,.64-1.28,4.72-3.51,6.15-3.36,1.96,.29,3.44,1.94,3.52,3.92,.08,2.37,.04,4.74,.07,7.11-.04,.49,.03,.99,.21,1.45,.18,.34,.67,.53,1.04,.75,.27,.17,.7,.21,.83,.44,.08,.3,0,.62-.22,.84-.75,.65-1.6,1.17-2.51,1.56-1.27,.41-1.89-.69-2.55-1.75Zm-.08-6.69c-.93,.55-1.82,1.16-2.66,1.83-.94,1.08-.83,2.72,.25,3.66,.43,.28,.97,.35,1.46,.21,.46-.21,.8-.62,.91-1.12,.11-1.4,.05-2.8,.05-4.59h0Z"/>
  <path id="Path_500" data-name="Path 500" class="cls-2" d="M137.17,42.33h2.04c.71,0,1.25,.18,1.21,1.04,.07,.6-.37,1.15-.98,1.21-.09,.01-.19,0-.28,0-.62-.01-1.23,0-1.97,0,0,3.12-.12,6.15,.04,9.17,.1,1.9,.83,2.17,2.99,1.62,.73,.85,.67,1.52-.42,2.02-.75,.44-1.53,.82-2.34,1.13-1.7,.36-3.38-.73-3.73-2.44-.04-.18-.06-.36-.07-.54-.18-1.65-.2-3.31-.23-4.98-.04-1.95,0-3.89,0-5.58l-1.8-1.05,1.77-2.26c-.63-2.02,1.61-2.8,2.89-4.12,.58-.6,.85-.05,.86,.56,.02,1.36,0,2.73,0,4.22Z"/>
  <path id="Path_501" data-name="Path 501" class="cls-1" d="M231.69,33.2v21.23c0,1.12,.13,2.08,1.48,2.36,.28,.13,.47,.39,.5,.7-.01,.2-.42,.52-.66,.53-2,.03-3.99,.03-5.99-.02-.25,0-.48-.32-.72-.49,.18-.24,.32-.65,.54-.7,1.36-.26,1.52-1.25,1.52-2.35,0-5.62,0-11.25,0-16.87,0-1.01-.19-1.81-1.39-2-.21-.03-.46-.46-.49-.73-.02-.16,.33-.48,.56-.54,1.48-.39,2.97-.72,4.65-1.11Z"/>
  <path id="Path_502" data-name="Path 502" class="cls-1" d="M208.98,44.38v4.54c0,1.42-.03,2.83,.01,4.24,.07,2.38,.7,2.88,3.2,2.36,0,.46,.15,1.16-.03,1.26-1.06,.69-2.22,1.22-3.44,1.55-1.31,.21-2.55-.66-2.8-1.97-.23-.84-.35-1.71-.35-2.58-.04-2.7-.02-5.41-.02-8.12v-1.24l-1.86-.13-.26-.35,2-2.07c-.53-2.13,1.59-3.05,3.06-4.4l.48,.07v3.13c0,2.03-.18,1.84,1.77,1.85,.67,0,1.46-.12,1.42,.9-.04,.88-.69,1.02-1.43,.97-.53-.04-1.06-.01-1.76-.01Z"/>
  <path id="Path_503" data-name="Path 503" class="cls-2" d="M90.97,42.05v1.47c0,3.67-.02,7.33,0,11,0,.95-.04,1.97,1.37,2.08,.21,.02,.51,.58,.53,.9-.07,.32-.3,.58-.61,.69-2.04,.05-4.07,.04-6.11-.02-.25,0-.7-.42-.69-.63,0-.33,.29-.88,.53-.92,1.3-.23,1.38-1.19,1.39-2.16,.04-2.46,.01-4.92,.01-7.38,0-1-.1-1.91-1.32-2.23-.2-.05-.41-.48-.41-.74s.21-.71,.41-.77c1.53-.44,3.09-.82,4.9-1.28Z"/>
  <path id="Path_504" data-name="Path 504" class="cls-2" d="M123.97,44.78c-.21-.97-.09-1.44,.93-1.57,1.06-.15,2.1-.45,3.07-.9,1.07-.49,1.2-.05,1.2,.86-.02,3.74,0,7.48-.02,11.23,0,1.11,0,2.08,1.49,2.25,.26,.03,.44,.77,.78,1.4-.89,.08-1.45,.17-2.01,.18-1.62,.02-3.24,.04-4.85-.03-.33-.01-.88-.41-.9-.68,.03-.41,.28-.77,.65-.95,1.1-.27,1.3-1.11,1.31-1.99,.04-2.58,.01-5.15,0-7.73-.01-1.11-.4-1.95-1.66-2.09Z"/>
  <path id="Path_505" data-name="Path 505" class="cls-1" d="M201.15,42.3c.02,.52,.06,.96,.06,1.4,0,3.62,.01,7.25,.01,10.87,0,1.02,.13,1.9,1.35,2.2,.24,.06,.37,.54,.55,.83-.27,.14-.53,.41-.8,.42-1.87,.03-3.75,.03-5.62-.01-.26,0-.52-.29-.78-.45,.21-.27,.37-.71,.63-.78,1.13-.3,1.34-1.12,1.34-2.1,0-2.67,0-5.33,0-8,0-.87-.14-1.66-1.21-1.91-.22-.05-.46-.47-.47-.73,.06-.27,.24-.49,.5-.6,1.42-.4,2.86-.74,4.45-1.14Z"/>
  <path id="Path_506" data-name="Path 506" class="cls-2" d="M89.02,35.14c1.24,.17,2.16,1.24,2.14,2.49,.04,1.26-.9,2.33-2.15,2.46-1.26-.11-2.21-1.21-2.12-2.47-.02-1.25,.9-2.31,2.13-2.48Z"/>
  <path id="Path_507" data-name="Path 507" class="cls-2" d="M125.15,37.6c-.05-1.25,.87-2.33,2.11-2.48,1.22,.23,2.1,1.31,2.08,2.56,.09,1.23-.84,2.31-2.07,2.4-.03,0-.05,0-.08,0-1.24-.12-2.16-1.22-2.04-2.46h0Z"/>
  <path id="Path_508" data-name="Path 508" class="cls-1" d="M201.32,37.73c.11,1.09-.68,2.07-1.78,2.18-.08,0-.16,.01-.24,.01-1.12-.16-1.92-1.15-1.86-2.28-.03-1.17,.8-2.18,1.95-2.38,1.21,.14,2.07,1.23,1.93,2.44v.02Z"/>
</svg>