<?xml version="1.0" encoding="UTF-8"?>
<svg xmlns="http://www.w3.org/2000/svg" xmlns:xlink="http://www.w3.org/1999/xlink" width="300" height="60" viewBox="0 0 300 60" version="1.1">
<g id="surface1">
<path style=" stroke:none;fill-rule:nonzero;fill:rgb(14.901961%,40%,69.019608%);fill-opacity:1;" d="M 204.90625 59.523438 C 204.546875 58.996094 204.007812 58.289062 204.007812 57.761719 C 204.007812 57.410156 204.90625 56.878906 205.441406 56.878906 C 206.699219 56.703125 207.773438 55.46875 207.417969 54.234375 C 207.417969 44.1875 207.417969 34.140625 207.417969 24.09375 C 207.417969 22.863281 207.238281 21.628906 205.621094 21.273438 C 205.082031 21.097656 204.367188 20.394531 204.546875 20.042969 C 204.726562 19.511719 205.082031 18.984375 205.800781 18.808594 C 207.773438 18.101562 209.75 17.574219 211.722656 16.867188 C 213.335938 16.164062 214.054688 16.691406 213.875 18.453125 C 213.875 19.160156 213.875 19.6875 213.875 20.394531 C 214.953125 19.6875 216.027344 18.984375 216.925781 18.277344 C 219.617188 16.164062 223.386719 16.339844 225.898438 18.808594 C 229.84375 22.332031 230.5625 26.914062 229.84375 31.675781 C 229.125 37.84375 224.640625 43.132812 218.539062 44.894531 C 217.105469 45.246094 215.492188 45.421875 213.875 45.246094 C 213.875 48.242188 213.695312 51.589844 214.054688 54.941406 C 214.414062 56 215.3125 56.703125 216.207031 56.878906 C 218.359375 57.054688 218.359375 58.113281 217.824219 59.699219 Z M 214.054688 31.144531 C 214.054688 33.4375 214.054688 35.90625 214.054688 38.195312 C 214.054688 38.902344 214.234375 39.605469 214.59375 40.136719 C 216.027344 41.898438 218.71875 42.25 220.695312 40.839844 C 221.230469 40.3125 221.769531 39.78125 222.128906 39.078125 C 223.742188 35.90625 224.28125 32.378906 223.742188 28.855469 C 223.566406 26.210938 222.488281 23.742188 220.335938 22.15625 C 218.898438 21.097656 216.925781 21.097656 215.492188 21.980469 C 213.875 22.683594 213.875 23.917969 213.875 25.328125 C 214.054688 27.269531 214.054688 29.207031 214.054688 31.144531 Z M 214.054688 31.144531 "/>
<path style=" stroke:none;fill-rule:nonzero;fill:rgb(14.901961%,40%,69.019608%);fill-opacity:1;" d="M 21.351562 25.503906 C 23.683594 29.734375 25.835938 33.789062 28.347656 37.84375 C 29.605469 39.429688 30.859375 41.015625 32.476562 42.425781 C 33.015625 42.953125 33.195312 43.660156 33.195312 44.542969 C 33.195312 44.894531 32.117188 45.421875 31.578125 45.597656 C 25.835938 46.128906 22.25 42.953125 20.09375 38.195312 C 19.019531 35.726562 17.761719 33.261719 16.6875 30.96875 C 16.148438 29.03125 14.175781 27.621094 12.023438 27.796875 C 12.023438 31.5 12.023438 35.375 12.023438 39.078125 C 11.84375 40.488281 12.917969 41.898438 14.355469 42.074219 C 14.355469 42.074219 14.535156 42.074219 14.535156 42.074219 C 15.789062 42.074219 16.6875 42.777344 16.328125 44.011719 C 15.789062 44.71875 15.070312 45.070312 14.175781 45.246094 C 10.226562 45.421875 6.28125 45.246094 2.332031 45.246094 C 1.613281 45.246094 0.898438 44.542969 0.359375 44.1875 C 0.898438 43.660156 1.433594 42.601562 1.972656 42.425781 C 4.664062 42.074219 5.203125 40.3125 5.203125 38.195312 C 5.203125 29.382812 5.203125 20.394531 5.203125 11.582031 C 5.203125 9.640625 4.664062 8.054688 2.332031 7.878906 C 0.71875 7.351562 0 6.46875 0.539062 5.410156 C 0.898438 4.707031 1.613281 4.355469 2.511719 4.355469 C 7.355469 4.355469 12.199219 4.179688 17.046875 4.53125 C 23.144531 4.882812 26.375 7 27.453125 11.933594 C 28.707031 17.398438 27.8125 21.097656 22.609375 24.800781 C 22.429688 24.800781 22.070312 24.976562 21.351562 25.503906 Z M 11.664062 24.09375 C 14.890625 24.625 17.582031 24.09375 19.378906 21.273438 C 21.351562 18.453125 20.992188 12.109375 18.839844 9.464844 C 17.40625 7.703125 15.070312 7 12.738281 7.703125 C 12.199219 8.054688 11.84375 8.585938 11.664062 9.113281 C 11.664062 14.046875 11.664062 19.160156 11.664062 24.09375 Z M 11.664062 24.09375 "/>
<path style=" stroke:none;fill-rule:nonzero;fill:rgb(14.901961%,40%,69.019608%);fill-opacity:1;" d="M 57.773438 18.632812 C 61.003906 16.164062 64.054688 15.457031 67.285156 17.398438 C 70.875 19.511719 73.207031 23.390625 73.566406 27.445312 C 73.921875 30.441406 73.566406 33.613281 72.488281 36.433594 C 69.078125 44.1875 62.261719 47.183594 54.1875 44.363281 C 52.214844 44.011719 50.957031 42.074219 51.316406 40.136719 C 51.496094 29.734375 51.316406 19.160156 51.316406 8.761719 C 51.316406 7 51.316406 5.410156 48.984375 5.234375 C 48.445312 5.058594 48.085938 4.53125 47.90625 3.824219 C 48.085938 3.121094 48.445312 2.589844 49.164062 2.238281 C 51.496094 1.535156 54.007812 1.003906 56.519531 0.476562 C 57.59375 0.300781 58.132812 0.476562 58.132812 1.886719 C 57.59375 7.351562 57.773438 12.816406 57.773438 18.632812 Z M 57.59375 30.617188 C 57.59375 32.910156 57.59375 35.199219 57.59375 37.492188 C 57.59375 37.84375 57.59375 38.371094 57.59375 38.726562 C 57.59375 40.3125 58.851562 41.722656 60.464844 42.074219 C 62.082031 42.425781 63.695312 41.722656 64.414062 40.3125 C 67.285156 35.375 67.285156 29.207031 64.59375 24.09375 C 63.695312 22.332031 61.722656 21.097656 59.75 21.273438 C 58.132812 21.273438 57.417969 21.804688 57.59375 23.390625 C 57.773438 25.859375 57.59375 28.324219 57.59375 30.617188 Z M 57.59375 30.617188 "/>
<path style=" stroke:none;fill-rule:nonzero;fill:rgb(14.901961%,40%,69.019608%);fill-opacity:1;" d="M 84.6875 0.476562 L 84.6875 18.453125 C 85.226562 18.277344 85.585938 18.101562 86.125 17.75 C 90.25 14.929688 94.558594 16.339844 97.785156 20.570312 C 103.527344 27.796875 100.835938 38.726562 94.199219 43.308594 C 90.25 46.128906 85.765625 45.953125 81.460938 44.542969 C 78.230469 43.484375 78.230469 43.308594 78.230469 39.957031 C 78.230469 29.558594 78.230469 18.984375 78.230469 8.585938 C 78.230469 7 78.050781 5.589844 76.078125 5.410156 C 75.539062 5.234375 75.179688 4.707031 75 4.179688 C 75 3.648438 75.359375 2.769531 75.898438 2.589844 C 78.589844 1.886719 81.640625 1.179688 84.6875 0.476562 Z M 84.867188 30.265625 C 84.867188 32.730469 84.867188 35.023438 84.867188 37.492188 C 84.867188 39.957031 86.125 41.722656 87.917969 42.074219 C 90.25 42.425781 91.507812 41.015625 92.40625 39.253906 C 92.761719 38.726562 92.941406 38.019531 93.121094 37.492188 C 93.480469 33.789062 93.480469 30.265625 93.121094 26.5625 C 92.761719 23.390625 89.890625 21.097656 86.664062 21.273438 C 85.226562 21.273438 84.6875 21.804688 84.6875 23.214844 C 84.867188 25.503906 84.867188 27.972656 84.867188 30.265625 Z M 84.867188 30.265625 "/>
<path style=" stroke:none;fill-rule:nonzero;fill:rgb(14.901961%,40%,69.019608%);fill-opacity:1;" d="M 165.96875 45.597656 C 152.871094 45.773438 146.230469 35.023438 146.410156 24.449219 C 146.230469 18.808594 148.566406 13.519531 152.511719 9.464844 C 156.640625 5.410156 162.199219 3.472656 167.941406 3.824219 C 176.015625 4 178.167969 6.292969 177.8125 14.226562 C 177.8125 14.753906 177.09375 15.28125 176.734375 15.8125 C 176.195312 15.28125 175.476562 14.929688 175.300781 14.402344 C 174.042969 10.171875 171.53125 7.175781 166.6875 7 C 162.023438 6.644531 158.792969 8.9375 156.460938 12.816406 C 151.972656 20.570312 153.230469 33.964844 159.332031 39.429688 C 164.175781 43.835938 170.453125 43.132812 174.042969 37.84375 C 174.761719 36.785156 175.300781 35.550781 176.195312 34.496094 C 176.554688 34.140625 177.273438 33.964844 177.8125 33.613281 C 177.992188 34.140625 178.527344 34.671875 178.527344 35.199219 C 177.992188 37.84375 177.273438 40.3125 176.375 42.777344 C 176.015625 43.484375 175.476562 43.835938 174.761719 44.011719 C 171.890625 44.542969 169.019531 45.070312 165.96875 45.597656 Z M 165.96875 45.597656 "/>
<path style=" stroke:none;fill-rule:nonzero;fill:rgb(14.901961%,40%,69.019608%);fill-opacity:1;" d="M 275.417969 42.425781 C 275.238281 42.601562 274.523438 43.132812 273.625 43.660156 C 270.753906 45.597656 266.984375 45.070312 265.011719 42.25 C 264.292969 41.191406 263.933594 40.136719 263.757812 38.902344 C 263.21875 34.671875 264.113281 32.910156 268.242188 30.96875 C 270.035156 30.089844 271.832031 29.382812 273.625 28.679688 C 275.238281 28.324219 276.316406 26.738281 275.957031 24.976562 C 275.957031 24.976562 275.957031 24.800781 275.957031 24.800781 C 275.957031 23.917969 275.777344 23.039062 275.417969 22.332031 C 274.699219 21.453125 273.804688 20.21875 272.90625 20.042969 C 272.1875 19.863281 270.933594 21.097656 270.394531 21.804688 C 269.855469 22.863281 269.496094 23.917969 269.316406 24.976562 C 268.78125 26.210938 268.0625 27.269531 266.449219 26.5625 C 265.011719 25.859375 263.757812 24.800781 264.292969 23.039062 C 265.191406 20.21875 273.445312 15.8125 276.316406 16.515625 C 279.726562 17.398438 282.238281 20.570312 282.058594 23.917969 C 282.238281 27.796875 282.058594 31.851562 282.238281 35.726562 C 282.238281 36.609375 282.238281 37.316406 282.417969 38.195312 C 282.59375 39.253906 283.132812 40.136719 284.570312 39.78125 C 285.109375 39.78125 285.464844 39.957031 285.824219 40.3125 C 286.003906 40.839844 286.003906 41.722656 285.824219 41.898438 C 284.210938 42.953125 282.59375 44.542969 280.800781 44.894531 C 279.007812 45.070312 277.390625 43.484375 275.417969 42.425781 Z M 275.777344 30.265625 C 274.34375 31.144531 272.726562 32.203125 271.472656 33.261719 C 269.675781 34.847656 269.496094 37.667969 271.113281 39.429688 C 271.292969 39.605469 271.292969 39.605469 271.472656 39.78125 C 272.1875 40.488281 273.265625 40.664062 274.164062 40.488281 C 275.058594 39.957031 275.597656 39.253906 275.777344 38.371094 C 275.957031 35.550781 275.777344 33.261719 275.777344 30.265625 Z M 275.777344 30.265625 "/>
<path style=" stroke:none;fill-rule:nonzero;fill:rgb(14.901961%,40%,69.019608%);fill-opacity:1;" d="M 194.316406 41.898438 L 192.523438 43.308594 C 190.730469 44.71875 188.757812 45.953125 186.242188 44.71875 C 183.730469 43.660156 182.117188 41.367188 181.9375 38.726562 C 181.398438 34.847656 182.835938 32.554688 186.601562 30.96875 C 188.578125 30.089844 190.550781 29.207031 192.523438 28.5 C 195.035156 27.445312 194.140625 25.503906 193.960938 23.742188 C 193.78125 22.15625 193.0625 20.394531 191.269531 20.21875 C 190.371094 20.21875 189.292969 21.097656 188.578125 21.980469 C 188.039062 22.863281 187.859375 23.917969 187.679688 24.800781 C 187.140625 26.210938 186.601562 27.445312 184.628906 26.738281 C 183.015625 26.210938 182.117188 24.449219 182.476562 22.863281 C 182.476562 22.683594 182.476562 22.683594 182.65625 22.507812 C 183.730469 20.21875 191.089844 16.339844 193.78125 16.515625 C 197.367188 17.046875 199.878906 19.863281 200.058594 23.390625 C 200.238281 27.621094 200.058594 31.675781 200.238281 35.90625 C 200.238281 36.785156 200.238281 37.667969 200.597656 38.546875 C 200.957031 39.078125 201.855469 39.429688 202.390625 39.957031 C 202.929688 40.3125 203.648438 40.3125 203.828125 40.664062 C 204.007812 41.191406 203.828125 41.722656 203.46875 42.074219 C 202.035156 43.132812 200.597656 44.1875 198.984375 44.894531 C 196.652344 45.773438 195.574219 43.835938 194.316406 41.898438 Z M 194.316406 30.089844 C 192.703125 30.96875 191.089844 32.203125 189.472656 33.261719 C 187.859375 35.199219 188.039062 38.019531 189.832031 39.78125 C 190.550781 40.3125 191.625 40.488281 192.523438 40.136719 C 193.421875 39.78125 193.960938 39.078125 194.140625 38.195312 C 194.316406 35.726562 194.316406 33.261719 194.316406 30.089844 Z M 194.316406 30.089844 "/>
<path style=" stroke:none;fill-rule:nonzero;fill:rgb(14.901961%,40%,69.019608%);fill-opacity:1;" d="M 126.855469 16.867188 C 128.289062 16.867188 129.367188 16.867188 130.441406 16.867188 C 131.699219 16.867188 132.773438 17.222656 132.59375 18.632812 C 132.773438 19.6875 131.878906 20.570312 130.800781 20.746094 C 130.621094 20.746094 130.441406 20.746094 130.261719 20.746094 C 129.1875 20.746094 128.109375 20.746094 126.675781 20.746094 C 126.675781 26.210938 126.496094 31.675781 126.675781 36.960938 C 126.855469 40.3125 128.109375 40.839844 132.058594 39.78125 C 133.3125 41.191406 133.3125 42.425781 131.339844 43.308594 C 130.082031 44.011719 128.648438 44.71875 127.214844 45.246094 C 124.164062 45.953125 121.113281 44.011719 120.574219 41.015625 C 120.574219 40.664062 120.394531 40.3125 120.394531 40.136719 C 120.035156 37.316406 120.035156 34.316406 120.035156 31.320312 C 120.035156 27.972656 120.035156 24.449219 120.035156 21.453125 L 116.804688 19.6875 L 120.214844 15.636719 C 119.140625 12.109375 123.085938 10.699219 125.417969 8.410156 C 126.496094 7.351562 127.035156 8.410156 127.035156 9.464844 C 127.035156 11.757812 126.855469 14.226562 126.855469 16.867188 Z M 126.855469 16.867188 "/>
<path style=" stroke:none;fill-rule:nonzero;fill:rgb(14.901961%,40%,69.019608%);fill-opacity:1;" d="M 296.589844 0.828125 L 296.589844 9.816406 C 296.589844 19.335938 296.589844 28.679688 296.589844 38.195312 C 296.589844 40.136719 296.769531 41.898438 299.28125 42.425781 C 299.820312 42.601562 300.179688 43.132812 300.179688 43.660156 C 300.179688 44.011719 299.460938 44.542969 298.921875 44.542969 C 295.335938 44.542969 291.746094 44.542969 288.15625 44.542969 C 287.800781 44.542969 287.261719 44.011719 286.902344 43.660156 C 287.261719 43.308594 287.441406 42.425781 287.800781 42.425781 C 290.3125 41.898438 290.492188 40.3125 290.492188 38.371094 C 290.492188 28.5 290.492188 18.632812 290.492188 8.585938 C 290.492188 6.820312 290.132812 5.410156 287.976562 5.058594 C 287.621094 5.058594 287.082031 4.179688 287.082031 3.824219 C 287.082031 3.472656 287.621094 2.945312 288.15625 2.945312 C 290.847656 2.0625 293.539062 1.535156 296.589844 0.828125 Z M 296.589844 0.828125 "/>
<path style=" stroke:none;fill-rule:nonzero;fill:rgb(14.901961%,40%,69.019608%);fill-opacity:1;" d="M 255.859375 20.570312 L 255.859375 28.5 C 255.859375 30.96875 255.859375 33.4375 255.859375 35.90625 C 256.039062 40.136719 257.117188 41.015625 261.601562 40.136719 C 261.601562 41.015625 261.960938 42.25 261.601562 42.425781 C 259.628906 43.660156 257.65625 44.542969 255.503906 45.070312 C 253.167969 45.421875 250.835938 43.835938 250.476562 41.546875 C 250.121094 40.136719 249.941406 38.546875 249.941406 36.960938 C 249.941406 32.203125 249.941406 27.445312 249.941406 22.683594 L 249.941406 20.570312 L 246.53125 20.394531 L 245.992188 19.6875 L 249.582031 15.988281 C 248.683594 12.285156 252.453125 10.699219 255.144531 8.230469 L 256.039062 8.410156 C 256.039062 10.171875 256.039062 12.109375 256.039062 13.871094 C 256.039062 17.398438 255.683594 17.046875 259.269531 17.046875 C 260.527344 17.046875 261.960938 16.867188 261.78125 18.632812 C 261.78125 20.21875 260.527344 20.394531 259.269531 20.394531 C 258.015625 20.394531 257.117188 20.570312 255.859375 20.570312 Z M 255.859375 20.570312 "/>
<path style=" stroke:none;fill-rule:nonzero;fill:rgb(14.901961%,40%,69.019608%);fill-opacity:1;" d="M 43.960938 16.339844 L 43.960938 18.984375 C 43.960938 25.503906 43.960938 31.851562 43.960938 38.371094 C 43.960938 40.136719 43.960938 41.898438 46.472656 42.074219 C 46.832031 42.074219 47.367188 43.132812 47.367188 43.660156 C 47.1875 44.1875 46.832031 44.71875 46.292969 44.894531 C 42.703125 44.894531 38.933594 44.894531 35.347656 44.894531 C 34.808594 44.894531 34.089844 44.1875 34.089844 43.835938 C 34.089844 43.308594 34.628906 42.25 34.988281 42.25 C 37.320312 41.898438 37.5 40.136719 37.5 38.371094 C 37.5 33.964844 37.5 29.734375 37.5 25.328125 C 37.5 23.566406 37.320312 21.980469 35.167969 21.453125 C 34.808594 21.273438 34.449219 20.570312 34.449219 20.21875 C 34.449219 19.863281 34.808594 18.984375 35.167969 18.808594 C 38.039062 17.925781 40.730469 17.222656 43.960938 16.339844 Z M 43.960938 16.339844 "/>
<path style=" stroke:none;fill-rule:nonzero;fill:rgb(14.901961%,40%,69.019608%);fill-opacity:1;" d="M 103.347656 21.273438 C 102.992188 19.511719 103.167969 18.808594 104.964844 18.453125 C 106.9375 18.277344 108.730469 17.75 110.527344 16.867188 C 112.5 15.988281 112.679688 16.867188 112.679688 18.453125 C 112.679688 24.976562 112.679688 31.675781 112.679688 38.195312 C 112.679688 40.136719 112.679688 41.898438 115.371094 42.25 C 115.910156 42.25 116.089844 43.660156 116.804688 44.71875 C 115.191406 44.894531 114.113281 45.070312 113.21875 45.070312 C 110.347656 45.070312 107.476562 45.070312 104.425781 45.070312 C 103.886719 45.070312 102.8125 44.363281 102.8125 43.835938 C 102.8125 43.132812 103.347656 42.425781 103.886719 42.25 C 105.859375 41.722656 106.21875 40.3125 106.21875 38.726562 C 106.21875 34.140625 106.21875 29.558594 106.21875 25.152344 C 106.21875 22.863281 105.503906 21.453125 103.347656 21.273438 Z M 103.347656 21.273438 "/>
<path style=" stroke:none;fill-rule:nonzero;fill:rgb(14.901961%,40%,69.019608%);fill-opacity:1;" d="M 241.6875 16.867188 C 241.6875 17.75 241.867188 18.632812 241.867188 19.335938 C 241.867188 25.683594 241.867188 32.027344 241.867188 38.546875 C 241.867188 40.3125 242.046875 41.898438 244.199219 42.425781 C 244.558594 42.601562 244.917969 43.308594 245.09375 43.835938 C 244.558594 44.011719 244.199219 44.542969 243.660156 44.542969 C 240.25 44.542969 237.023438 44.542969 233.613281 44.542969 C 233.074219 44.542969 232.714844 44.011719 232.175781 43.660156 C 232.535156 43.132812 232.894531 42.425781 233.253906 42.25 C 235.226562 41.722656 235.585938 40.3125 235.585938 38.546875 C 235.585938 33.789062 235.585938 29.207031 235.585938 24.449219 C 235.585938 22.863281 235.40625 21.453125 233.433594 21.097656 C 233.074219 20.921875 232.535156 20.21875 232.535156 19.863281 C 232.714844 19.335938 232.894531 18.984375 233.433594 18.808594 C 236.304688 18.101562 238.816406 17.574219 241.6875 16.867188 Z M 241.6875 16.867188 "/>
<path style=" stroke:none;fill-rule:nonzero;fill:rgb(14.901961%,40%,69.019608%);fill-opacity:1;" d="M 40.550781 4.179688 C 42.703125 4.53125 44.496094 6.292969 44.316406 8.585938 C 44.316406 10.875 42.703125 12.636719 40.371094 12.992188 C 38.039062 12.816406 36.421875 10.875 36.601562 8.585938 C 36.78125 6.46875 38.398438 4.53125 40.550781 4.179688 Z M 40.550781 4.179688 "/>
<path style=" stroke:none;fill-rule:nonzero;fill:rgb(14.901961%,40%,69.019608%);fill-opacity:1;" d="M 105.324219 8.585938 C 105.144531 6.292969 106.9375 4.53125 109.089844 4.179688 C 111.242188 4.53125 112.859375 6.46875 112.859375 8.761719 C 113.039062 10.875 111.421875 12.816406 109.089844 12.992188 C 109.089844 12.992188 108.910156 12.992188 108.910156 12.992188 C 106.757812 12.636719 105.144531 10.699219 105.324219 8.585938 Z M 105.324219 8.585938 "/>
<path style=" stroke:none;fill-rule:nonzero;fill:rgb(14.901961%,40%,69.019608%);fill-opacity:1;" d="M 242.046875 8.761719 C 242.226562 10.699219 240.789062 12.460938 238.816406 12.636719 C 238.636719 12.636719 238.457031 12.636719 238.457031 12.636719 C 236.484375 12.285156 235.046875 10.523438 235.046875 8.585938 C 235.046875 6.46875 236.484375 4.707031 238.457031 4.355469 C 240.789062 4.707031 242.226562 6.644531 242.046875 8.761719 Z M 242.046875 8.761719 "/>
</g>
</svg>
