<?xml version="1.0" encoding="UTF-8"?>
<svg xmlns="http://www.w3.org/2000/svg" xmlns:xlink="http://www.w3.org/1999/xlink" width="300" height="100" viewBox="0 0 300 100" version="1.1">
<g id="surface1">
<path style=" stroke:none;fill-rule:nonzero;fill:rgb(14.901961%,40%,69.019608%);fill-opacity:1;" d="M 0 99.734375 C 0.265625 99.558594 0 99.207031 0 98.855469 C 0 78.960938 0 59.066406 0 38.996094 C 0 38.46875 0.265625 38.292969 1.054688 38.292969 C 8.1875 38.292969 15.316406 38.292969 22.445312 38.292969 C 22.976562 38.292969 23.769531 38.46875 24.03125 38.820312 C 33.804688 49.207031 43.839844 59.417969 53.609375 69.804688 C 53.875 69.980469 54.136719 70.335938 54.402344 70.335938 L 54.402344 69.453125 C 54.402344 59.242188 54.402344 49.03125 54.402344 38.820312 C 54.402344 38.117188 54.664062 37.941406 55.722656 37.941406 C 62.589844 37.941406 69.71875 37.941406 76.585938 37.941406 C 77.113281 37.941406 77.640625 37.941406 77.640625 38.46875 C 77.640625 58.539062 77.640625 78.609375 77.640625 98.679688 C 77.640625 98.855469 77.640625 98.855469 77.640625 99.03125 L 55.195312 99.03125 C 55.195312 99.03125 54.929688 98.855469 54.929688 98.855469 C 44.628906 88.46875 34.332031 77.730469 24.03125 66.8125 C 23.769531 66.636719 23.769531 66.285156 23.238281 66.285156 L 23.238281 98.855469 C 23.238281 99.207031 23.238281 99.558594 23.238281 99.910156 Z M 0 99.734375 "/>
<path style=" stroke:none;fill-rule:nonzero;fill:rgb(14.901961%,40%,69.019608%);fill-opacity:1;" d="M 82.921875 99.734375 C 83.1875 99.558594 82.921875 99.207031 82.921875 98.855469 C 82.921875 78.960938 82.921875 59.066406 82.921875 39.171875 C 82.921875 38.644531 83.1875 38.46875 83.980469 38.46875 C 102.464844 38.46875 120.949219 38.46875 139.4375 38.46875 C 140.230469 38.46875 140.492188 38.46875 140.492188 39.171875 C 140.492188 43.75 140.492188 48.152344 140.492188 52.730469 C 140.492188 53.257812 140.230469 53.433594 139.4375 53.433594 C 128.609375 53.433594 118.046875 53.433594 107.21875 53.433594 C 106.160156 53.433594 105.898438 53.609375 105.898438 54.3125 C 105.898438 56.425781 105.898438 58.714844 105.898438 60.828125 C 105.898438 61.355469 106.160156 61.53125 106.953125 61.53125 C 117.78125 61.53125 128.34375 61.53125 139.171875 61.53125 C 140.230469 61.53125 140.492188 61.707031 140.492188 62.410156 C 140.492188 66.8125 140.492188 71.390625 140.492188 75.792969 C 140.492188 76.320312 140.230469 76.496094 139.4375 76.496094 C 128.609375 76.496094 117.78125 76.496094 107.21875 76.496094 C 106.160156 76.496094 106.160156 76.671875 106.160156 77.199219 C 106.160156 79.488281 106.160156 81.777344 106.160156 84.242188 C 106.160156 84.945312 106.425781 84.945312 107.21875 84.945312 C 118.046875 84.945312 128.609375 84.945312 139.4375 84.945312 C 140.492188 84.945312 140.757812 85.125 140.757812 85.828125 C 140.757812 90.582031 140.757812 95.335938 140.757812 100.089844 Z M 82.921875 99.734375 "/>
<path style=" stroke:none;fill-rule:nonzero;fill:rgb(56.470588%,55.686275%,56.078431%);fill-opacity:1;" d="M 197.269531 99.734375 L 227.375 99.558594 L 227.375 99.734375 Z M 197.269531 99.734375 "/>
<path style=" stroke:none;fill-rule:nonzero;fill:rgb(49.803922%,84.705882%,94.117647%);fill-opacity:1;" d="M 143.132812 99.734375 L 169.542969 99.558594 L 169.542969 99.734375 Z M 143.132812 99.734375 "/>
<path style=" stroke:none;fill-rule:nonzero;fill:rgb(56.470588%,55.686275%,56.078431%);fill-opacity:1;" d="M 254.050781 99.734375 L 277.023438 99.558594 L 277.023438 99.734375 Z M 254.050781 99.734375 "/>
<path style=" stroke:none;fill-rule:nonzero;fill:rgb(56.470588%,55.686275%,56.078431%);fill-opacity:1;" d="M 55.195312 99.734375 L 77.640625 99.558594 L 77.640625 99.734375 Z M 55.195312 99.734375 "/>
<path style=" stroke:none;fill-rule:nonzero;fill:rgb(14.901961%,40%,69.019608%);fill-opacity:1;" d="M 277.023438 99.558594 L 254.050781 99.558594 C 254.050781 99.207031 254.050781 99.03125 254.050781 98.679688 C 254.050781 83.890625 254.050781 68.925781 254.050781 54.136719 C 254.050781 53.433594 253.785156 53.257812 252.730469 53.257812 C 245.863281 53.257812 239.261719 53.257812 232.394531 53.257812 C 231.601562 53.257812 231.339844 53.082031 231.339844 52.554688 C 231.339844 47.976562 231.339844 43.574219 231.339844 38.996094 C 231.339844 38.46875 231.339844 38.292969 232.128906 38.292969 C 254.3125 38.292969 276.496094 38.292969 298.679688 38.292969 C 299.472656 38.292969 299.472656 38.46875 299.472656 38.996094 C 299.472656 43.574219 299.472656 48.152344 299.472656 52.554688 C 299.472656 53.082031 299.207031 53.257812 298.414062 53.257812 C 291.550781 53.257812 284.945312 53.257812 278.082031 53.257812 C 277.023438 53.257812 276.761719 53.433594 276.761719 54.136719 C 276.761719 68.925781 276.761719 83.890625 276.761719 98.679688 C 277.289062 99.03125 277.023438 99.382812 277.023438 99.558594 Z M 277.023438 99.558594 "/>
<path style=" stroke:none;fill-rule:nonzero;fill:rgb(0.392157%,69.803922%,88.627451%);fill-opacity:1;" d="M 169.277344 99.558594 L 143.132812 99.558594 C 146.832031 95.511719 150.527344 91.460938 154.226562 87.410156 C 159.507812 81.425781 165.054688 75.617188 170.597656 69.628906 C 171.125 69.277344 171.125 68.574219 170.597656 68.222656 C 161.621094 58.363281 152.640625 48.679688 143.660156 38.820312 C 143.660156 38.644531 143.398438 38.46875 143.398438 38.46875 C 143.660156 38.292969 143.925781 38.292969 144.191406 38.292969 C 152.375 38.292969 160.5625 38.292969 168.484375 38.292969 C 169.015625 38.292969 169.542969 38.46875 169.804688 38.820312 C 179.050781 48.679688 188.554688 58.539062 198.0625 68.398438 C 198.328125 68.75 198.328125 69.101562 198.0625 69.453125 C 188.292969 79.488281 178.785156 89.523438 169.277344 99.558594 Z M 169.277344 99.558594 "/>
<path style=" stroke:none;fill-rule:nonzero;fill:rgb(14.901961%,40%,69.019608%);fill-opacity:1;" d="M 92.695312 4.136719 C 92.695312 4.488281 92.695312 4.839844 92.695312 5.019531 C 92.695312 10.125 92.695312 15.230469 92.429688 20.160156 C 92.429688 23.152344 92.429688 26.144531 92.429688 29.136719 C 92.429688 29.664062 92.164062 29.664062 91.636719 29.664062 C 88.730469 29.664062 85.828125 29.664062 82.921875 29.664062 C 82.128906 29.664062 81.867188 29.488281 81.867188 28.960938 C 82.128906 24.382812 82.128906 19.804688 82.394531 15.054688 C 82.394531 11.53125 82.660156 7.835938 82.660156 4.3125 C 82.660156 3.433594 82.660156 2.375 82.660156 1.496094 C 82.660156 1.144531 82.660156 0.96875 83.1875 0.96875 C 88.730469 0.96875 94.015625 0.96875 99.558594 0.96875 C 100.089844 0.96875 100.089844 1.144531 100.351562 1.496094 C 101.9375 7.835938 103.519531 14.347656 105.105469 20.6875 C 105.371094 21.390625 105.371094 22.09375 105.632812 22.800781 C 106.160156 22.625 105.898438 22.445312 105.898438 22.269531 C 107.480469 15.40625 109.066406 8.714844 110.914062 1.847656 C 111.179688 1.320312 111.445312 1.144531 112.234375 1.144531 C 117.253906 1.144531 122.535156 1.144531 127.554688 1.144531 C 128.34375 1.144531 128.609375 1.320312 128.609375 1.847656 C 128.875 9.242188 129.136719 16.8125 129.402344 24.207031 C 129.402344 25.792969 129.402344 27.375 129.664062 29.136719 C 129.664062 29.664062 129.402344 29.664062 128.609375 29.664062 C 125.703125 29.664062 122.535156 29.664062 119.628906 29.664062 C 118.839844 29.664062 118.574219 29.488281 118.574219 28.960938 C 118.574219 25.265625 118.574219 21.566406 118.574219 17.871094 C 118.574219 13.292969 118.574219 8.714844 118.574219 4.136719 L 118.308594 4.136719 C 117.78125 5.898438 117.253906 7.835938 116.726562 9.59375 C 114.613281 16.109375 112.765625 22.625 110.914062 29.136719 C 110.652344 29.664062 110.386719 29.664062 109.859375 29.664062 C 106.953125 29.664062 103.785156 29.664062 100.878906 29.664062 C 100.089844 29.664062 99.824219 29.488281 99.824219 29.136719 C 98.769531 25.089844 97.445312 20.863281 96.390625 16.8125 C 95.335938 12.765625 94.015625 8.539062 92.957031 4.488281 C 92.695312 4.3125 92.695312 4.3125 92.695312 4.136719 Z M 92.695312 4.136719 "/>
<path style=" stroke:none;fill-rule:nonzero;fill:rgb(14.901961%,40%,69.019608%);fill-opacity:1;" d="M 232.128906 6.25 C 232.128906 8.1875 232.128906 9.945312 232.128906 11.707031 C 232.128906 14.171875 232.394531 16.8125 232.394531 19.277344 C 232.394531 22.445312 232.660156 25.617188 232.660156 28.785156 C 232.660156 29.3125 232.394531 29.488281 231.601562 29.488281 C 228.695312 29.488281 225.792969 29.488281 222.886719 29.488281 C 222.09375 29.488281 222.09375 29.3125 222.09375 28.960938 C 222.09375 19.980469 222.09375 11.003906 222.09375 1.847656 C 222.09375 1.320312 222.359375 1.320312 223.152344 1.320312 C 227.90625 1.320312 232.394531 1.320312 237.148438 1.320312 C 237.941406 1.320312 238.46875 1.496094 238.46875 2.023438 C 241.636719 9.066406 244.542969 16.109375 247.710938 22.976562 C 247.710938 23.152344 247.976562 23.328125 248.238281 23.503906 C 248.238281 23.328125 248.238281 22.976562 248.238281 22.800781 C 248.238281 18.75 247.976562 14.699219 247.976562 10.652344 C 247.976562 7.660156 247.976562 4.839844 247.710938 1.847656 C 247.710938 1.496094 247.976562 1.320312 248.503906 1.320312 C 251.671875 1.320312 254.578125 1.320312 257.746094 1.320312 C 258.273438 1.320312 258.539062 1.496094 258.539062 1.847656 C 258.539062 10.828125 258.539062 19.980469 258.539062 28.960938 C 258.539062 29.488281 258.273438 29.488281 257.746094 29.488281 C 253.257812 29.488281 248.769531 29.488281 244.277344 29.488281 C 243.484375 29.488281 243.222656 29.3125 242.957031 28.785156 C 238.996094 21.390625 235.828125 14.171875 232.394531 6.777344 C 232.394531 6.601562 232.128906 6.425781 232.128906 6.25 Z M 232.128906 6.25 "/>
<path style=" stroke:none;fill-rule:nonzero;fill:rgb(14.901961%,40%,69.019608%);fill-opacity:1;" d="M 180.105469 12.589844 C 180.105469 9.066406 180.105469 5.371094 180.105469 1.847656 C 180.105469 1.320312 180.371094 1.144531 181.160156 1.144531 C 184.066406 1.144531 186.972656 1.144531 190.140625 1.144531 C 190.933594 1.144531 191.195312 1.320312 191.195312 1.847656 C 191.195312 8.890625 191.195312 15.757812 191.195312 22.800781 C 191.195312 24.03125 192.519531 25.265625 194.367188 25.441406 C 196.214844 25.792969 198.328125 25.089844 199.121094 23.855469 C 199.382812 23.328125 199.382812 22.976562 199.382812 22.445312 C 199.382812 15.582031 199.382812 8.714844 199.382812 2.023438 C 199.382812 1.320312 199.648438 1.320312 200.441406 1.320312 C 203.34375 1.320312 206.25 1.320312 209.417969 1.320312 C 209.945312 1.320312 210.210938 1.320312 210.210938 1.847656 C 210.210938 8.890625 210.210938 15.933594 210.210938 22.976562 C 210.476562 26.671875 206.515625 29.839844 200.96875 30.371094 C 197.269531 30.898438 193.308594 30.898438 189.613281 30.371094 C 183.804688 29.839844 179.578125 26.496094 180.105469 22.625 C 180.105469 19.277344 180.105469 15.933594 180.105469 12.589844 Z M 180.105469 12.589844 "/>
<path style=" stroke:none;fill-rule:nonzero;fill:rgb(14.901961%,40%,69.019608%);fill-opacity:1;" d="M 279.929688 15.582031 C 279.929688 17.871094 279.929688 19.980469 279.929688 22.269531 C 279.664062 23.328125 280.457031 24.382812 281.777344 24.910156 C 283.363281 25.441406 285.476562 25.441406 287.058594 24.910156 C 288.117188 24.558594 288.910156 23.679688 288.910156 22.800781 C 288.910156 21.390625 288.910156 19.980469 288.910156 18.574219 C 288.910156 18.222656 288.644531 18.046875 288.378906 18.222656 C 287.324219 18.222656 286.269531 18.222656 285.476562 18.222656 C 284.945312 18.222656 284.683594 18.222656 284.683594 17.695312 C 284.683594 16.636719 284.683594 15.582031 284.683594 14.523438 C 284.683594 14.171875 284.945312 13.996094 285.476562 13.996094 C 289.964844 13.996094 294.71875 13.996094 299.207031 13.996094 C 299.734375 13.996094 300 13.996094 300 14.347656 C 300 17.339844 300.265625 20.335938 299.734375 23.328125 C 299.734375 26.496094 296.304688 29.3125 291.550781 30.019531 C 286.53125 31.074219 281.25 30.898438 276.496094 29.664062 C 272.535156 28.785156 269.628906 26.144531 269.628906 23.328125 C 269.367188 19.804688 269.628906 16.109375 269.367188 12.589844 C 269.367188 11.179688 269.367188 9.59375 269.628906 8.1875 C 269.628906 5.019531 273.0625 2.199219 277.816406 1.320312 C 282.304688 0.441406 287.058594 0.441406 291.8125 1.320312 C 296.832031 2.023438 300.265625 5.195312 300 8.539062 C 300 9.066406 300 9.59375 300 10.125 C 300 10.476562 300 10.652344 299.207031 10.652344 C 296.039062 10.652344 292.871094 10.652344 289.964844 10.652344 C 289.4375 10.652344 289.171875 10.476562 289.171875 10.125 C 289.171875 9.59375 289.171875 8.890625 289.171875 8.363281 C 289.171875 7.128906 287.324219 6.074219 285.476562 6.074219 C 283.363281 5.722656 281.25 6.601562 280.722656 8.011719 C 279.929688 8.011719 279.929688 8.539062 279.929688 8.890625 C 279.929688 11.179688 279.929688 13.292969 279.929688 15.582031 Z M 279.929688 15.582031 "/>
<path style=" stroke:none;fill-rule:nonzero;fill:rgb(14.901961%,40%,69.019608%);fill-opacity:1;" d="M 6.074219 20.335938 C 7.660156 20.335938 9.242188 20.335938 10.828125 20.335938 C 11.621094 20.335938 11.882812 20.511719 11.882812 21.039062 C 11.882812 21.566406 11.882812 22.09375 11.882812 22.800781 C 11.621094 24.910156 13.996094 26.144531 17.164062 25.792969 C 19.542969 25.441406 20.863281 23.855469 20.335938 22.269531 C 20.070312 21.917969 19.804688 21.390625 19.542969 21.039062 C 18.75 20.335938 17.695312 19.628906 16.375 19.277344 C 13.996094 18.398438 11.355469 17.339844 8.980469 16.460938 C 7.394531 15.757812 5.808594 15.054688 4.488281 14.347656 C 1.320312 12.589844 -0.265625 9.769531 0.527344 7.128906 C 0.792969 4.136719 4.226562 1.496094 8.714844 0.96875 C 13.46875 0.0898438 18.222656 0.0898438 22.976562 0.96875 C 27.464844 1.671875 30.371094 4.3125 30.105469 7.480469 C 30.105469 8.1875 30.371094 9.066406 29.839844 9.417969 C 29.3125 9.945312 27.992188 9.59375 26.9375 9.59375 C 24.824219 9.59375 22.445312 9.59375 20.335938 9.59375 C 19.542969 9.59375 19.277344 9.417969 19.277344 8.890625 C 19.277344 8.363281 19.277344 8.011719 19.277344 7.480469 C 19.277344 6.074219 17.429688 5.195312 15.582031 5.195312 C 15.582031 5.195312 15.316406 5.195312 15.316406 5.195312 C 13.203125 5.195312 11.621094 6.074219 11.355469 7.304688 C 11.355469 7.304688 11.355469 7.480469 11.355469 7.480469 C 11.355469 8.363281 11.882812 9.242188 12.941406 9.945312 C 15.054688 11.003906 17.429688 11.882812 19.804688 12.589844 C 21.917969 13.46875 23.769531 14.171875 25.878906 15.054688 C 29.839844 16.636719 31.953125 19.628906 31.160156 22.625 C 31.160156 23.503906 30.898438 24.558594 30.632812 25.441406 C 29.578125 27.730469 26.9375 29.488281 23.503906 30.019531 C 18.484375 31.25 13.203125 31.25 8.1875 30.195312 C 3.167969 29.3125 -0.265625 26.144531 0.265625 22.800781 C 0.265625 22.09375 -0.265625 21.039062 0.527344 20.511719 C 1.054688 20.160156 2.640625 20.335938 3.695312 20.335938 C 4.488281 20.335938 5.28125 20.335938 6.074219 20.335938 Z M 6.074219 20.335938 "/>
<path style=" stroke:none;fill-rule:nonzero;fill:rgb(14.901961%,40%,69.019608%);fill-opacity:1;" d="M 55.457031 3.960938 C 53.609375 12.234375 51.761719 20.6875 49.910156 28.960938 C 49.648438 29.664062 49.382812 29.839844 48.328125 29.839844 C 45.160156 29.839844 41.988281 29.839844 38.820312 29.839844 C 38.027344 29.839844 38.027344 29.839844 38.027344 29.3125 C 39.875 22.445312 41.988281 15.757812 43.839844 8.890625 C 44.367188 6.601562 45.160156 4.3125 45.6875 1.847656 C 45.6875 1.496094 45.949219 1.320312 46.480469 1.320312 C 52.289062 1.320312 58.097656 1.320312 64.171875 1.320312 C 64.699219 1.320312 64.964844 1.496094 64.964844 1.847656 C 67.339844 10.828125 69.980469 19.804688 72.359375 28.785156 C 72.625 30.019531 72.625 30.019531 70.773438 30.019531 C 67.871094 30.019531 64.964844 30.019531 62.058594 30.019531 C 61.53125 30.019531 61.003906 30.019531 61.003906 29.488281 C 59.945312 24.03125 58.625 18.75 57.570312 13.292969 L 55.722656 4.488281 C 55.722656 4.136719 55.722656 4.136719 55.457031 3.960938 Z M 55.457031 3.960938 "/>
<path style=" stroke:none;fill-rule:nonzero;fill:rgb(14.901961%,40%,69.019608%);fill-opacity:1;" d="M 145.246094 20.335938 C 146.832031 20.335938 148.679688 20.335938 150.265625 20.335938 C 150.792969 20.335938 151.054688 20.511719 151.054688 20.863281 C 151.054688 21.566406 151.054688 22.445312 151.054688 23.152344 C 151.054688 24.558594 152.640625 25.617188 154.488281 25.617188 C 156.867188 25.792969 158.1875 25.265625 158.980469 24.207031 C 159.769531 22.976562 159.507812 21.390625 157.921875 20.511719 C 156.339844 19.628906 154.753906 18.75 152.90625 18.222656 C 149.734375 17.164062 146.832031 15.933594 144.191406 14.699219 C 139.171875 11.882812 138.117188 6.953125 142.078125 3.609375 C 143.925781 2.199219 146.566406 1.144531 149.472656 0.96875 C 153.960938 0.265625 158.449219 0.441406 162.675781 1.320312 C 166.636719 2.023438 169.277344 4.664062 169.015625 7.480469 C 169.015625 8.011719 169.015625 8.539062 169.015625 9.066406 C 169.015625 9.59375 168.75 9.59375 168.222656 9.59375 C 165.316406 9.59375 162.148438 9.59375 159.242188 9.59375 C 158.449219 9.59375 158.449219 9.417969 158.449219 9.066406 C 158.449219 8.363281 158.449219 7.835938 158.449219 7.128906 C 157.921875 5.898438 156.074219 5.019531 153.960938 5.371094 C 152.113281 5.371094 150.527344 6.425781 150.527344 7.660156 C 150.527344 8.539062 151.054688 9.417969 152.113281 9.945312 C 153.960938 10.828125 155.808594 11.707031 157.921875 12.410156 C 160.300781 13.292969 162.675781 14.171875 164.789062 15.230469 C 168.222656 16.8125 170.335938 19.453125 169.804688 22.269531 C 169.804688 23.152344 169.542969 24.207031 169.277344 25.089844 C 168.484375 27.375 165.84375 29.3125 162.410156 30.019531 C 157.394531 31.25 151.847656 31.25 146.832031 30.019531 C 142.078125 29.136719 139.171875 26.320312 139.171875 23.152344 C 139.171875 22.445312 139.171875 21.742188 139.171875 21.039062 C 139.171875 20.6875 139.4375 20.511719 139.964844 20.511719 C 141.8125 20.335938 143.398438 20.335938 145.246094 20.335938 Z M 145.246094 20.335938 "/>
<path style=" stroke:none;fill-rule:nonzero;fill:rgb(14.901961%,40%,69.019608%);fill-opacity:1;" d="M 212.058594 54.664062 L 197.269531 38.46875 L 227.640625 38.46875 Z M 212.058594 54.664062 "/>
<path style=" stroke:none;fill-rule:nonzero;fill:rgb(14.901961%,40%,69.019608%);fill-opacity:1;" d="M 227.375 99.558594 L 197.269531 99.558594 C 198.855469 97.625 200.703125 95.863281 202.289062 94.101562 C 205.457031 90.582031 208.890625 87.058594 212.058594 83.539062 C 212.324219 83.539062 212.589844 83.714844 212.589844 83.890625 C 217.339844 88.996094 222.359375 94.101562 227.113281 99.207031 C 227.113281 99.382812 227.375 99.382812 227.375 99.558594 Z M 227.375 99.558594 "/>
</g>
</svg>
