<?xml version="1.0" encoding="UTF-8"?>
<svg xmlns="http://www.w3.org/2000/svg" xmlns:xlink="http://www.w3.org/1999/xlink" width="300" height="50" viewBox="0 0 300 50" version="1.1">
<g id="surface1">
<path style=" stroke:none;fill-rule:nonzero;fill:rgb(14.901961%,40%,69.019608%);fill-opacity:1;" d="M 0 49.867188 C 0.265625 49.78125 0 49.605469 0 49.429688 C 0 39.480469 0 29.535156 0 19.5 C 0 19.234375 0.265625 19.144531 1.054688 19.144531 C 8.1875 19.144531 15.316406 19.144531 22.445312 19.144531 C 22.976562 19.144531 23.769531 19.234375 24.03125 19.410156 C 33.804688 24.605469 43.839844 29.710938 53.609375 34.902344 C 53.875 34.992188 54.136719 35.167969 54.402344 35.167969 L 54.402344 34.726562 C 54.402344 29.621094 54.402344 24.515625 54.402344 19.410156 C 54.402344 19.058594 54.664062 18.96875 55.722656 18.96875 C 62.589844 18.96875 69.71875 18.96875 76.585938 18.96875 C 77.113281 18.96875 77.640625 18.96875 77.640625 19.234375 C 77.640625 29.269531 77.640625 39.304688 77.640625 49.339844 C 77.640625 49.429688 77.640625 49.429688 77.640625 49.515625 L 55.195312 49.515625 C 55.195312 49.515625 54.929688 49.429688 54.929688 49.429688 C 44.628906 44.234375 34.332031 38.863281 24.03125 33.40625 C 23.769531 33.320312 23.769531 33.144531 23.238281 33.144531 L 23.238281 49.429688 C 23.238281 49.605469 23.238281 49.78125 23.238281 49.957031 Z M 0 49.867188 "/>
<path style=" stroke:none;fill-rule:nonzero;fill:rgb(14.901961%,40%,69.019608%);fill-opacity:1;" d="M 82.921875 49.867188 C 83.1875 49.78125 82.921875 49.605469 82.921875 49.429688 C 82.921875 39.480469 82.921875 29.535156 82.921875 19.585938 C 82.921875 19.320312 83.1875 19.234375 83.980469 19.234375 C 102.464844 19.234375 120.949219 19.234375 139.4375 19.234375 C 140.230469 19.234375 140.492188 19.234375 140.492188 19.585938 C 140.492188 21.875 140.492188 24.074219 140.492188 26.363281 C 140.492188 26.628906 140.230469 26.714844 139.4375 26.714844 C 128.609375 26.714844 118.046875 26.714844 107.21875 26.714844 C 106.160156 26.714844 105.898438 26.804688 105.898438 27.15625 C 105.898438 28.214844 105.898438 29.355469 105.898438 30.414062 C 105.898438 30.679688 106.160156 30.765625 106.953125 30.765625 C 117.78125 30.765625 128.34375 30.765625 139.171875 30.765625 C 140.230469 30.765625 140.492188 30.855469 140.492188 31.207031 C 140.492188 33.40625 140.492188 35.695312 140.492188 37.894531 C 140.492188 38.160156 140.230469 38.25 139.4375 38.25 C 128.609375 38.25 117.78125 38.25 107.21875 38.25 C 106.160156 38.25 106.160156 38.335938 106.160156 38.601562 C 106.160156 39.746094 106.160156 40.890625 106.160156 42.121094 C 106.160156 42.472656 106.425781 42.472656 107.21875 42.472656 C 118.046875 42.472656 128.609375 42.472656 139.4375 42.472656 C 140.492188 42.472656 140.757812 42.5625 140.757812 42.914062 C 140.757812 45.289062 140.757812 47.667969 140.757812 50.042969 Z M 82.921875 49.867188 "/>
<path style=" stroke:none;fill-rule:nonzero;fill:rgb(56.470588%,55.686275%,56.078431%);fill-opacity:1;" d="M 197.269531 49.867188 L 227.375 49.78125 L 227.375 49.867188 Z M 197.269531 49.867188 "/>
<path style=" stroke:none;fill-rule:nonzero;fill:rgb(49.803922%,84.705882%,94.117647%);fill-opacity:1;" d="M 143.132812 49.867188 L 169.542969 49.78125 L 169.542969 49.867188 Z M 143.132812 49.867188 "/>
<path style=" stroke:none;fill-rule:nonzero;fill:rgb(56.470588%,55.686275%,56.078431%);fill-opacity:1;" d="M 254.050781 49.867188 L 277.023438 49.78125 L 277.023438 49.867188 Z M 254.050781 49.867188 "/>
<path style=" stroke:none;fill-rule:nonzero;fill:rgb(56.470588%,55.686275%,56.078431%);fill-opacity:1;" d="M 55.195312 49.867188 L 77.640625 49.78125 L 77.640625 49.867188 Z M 55.195312 49.867188 "/>
<path style=" stroke:none;fill-rule:nonzero;fill:rgb(14.901961%,40%,69.019608%);fill-opacity:1;" d="M 277.023438 49.78125 L 254.050781 49.78125 C 254.050781 49.605469 254.050781 49.515625 254.050781 49.339844 C 254.050781 41.945312 254.050781 34.464844 254.050781 27.070312 C 254.050781 26.714844 253.785156 26.628906 252.730469 26.628906 C 245.863281 26.628906 239.261719 26.628906 232.394531 26.628906 C 231.601562 26.628906 231.339844 26.539062 231.339844 26.277344 C 231.339844 23.988281 231.339844 21.785156 231.339844 19.5 C 231.339844 19.234375 231.339844 19.144531 232.128906 19.144531 C 254.3125 19.144531 276.496094 19.144531 298.679688 19.144531 C 299.472656 19.144531 299.472656 19.234375 299.472656 19.5 C 299.472656 21.785156 299.472656 24.074219 299.472656 26.277344 C 299.472656 26.539062 299.207031 26.628906 298.414062 26.628906 C 291.550781 26.628906 284.945312 26.628906 278.082031 26.628906 C 277.023438 26.628906 276.761719 26.714844 276.761719 27.070312 C 276.761719 34.464844 276.761719 41.945312 276.761719 49.339844 C 277.289062 49.515625 277.023438 49.691406 277.023438 49.78125 Z M 277.023438 49.78125 "/>
<path style=" stroke:none;fill-rule:nonzero;fill:rgb(0.392157%,69.803922%,88.627451%);fill-opacity:1;" d="M 169.277344 49.78125 L 143.132812 49.78125 C 146.832031 47.753906 150.527344 45.730469 154.226562 43.707031 C 159.507812 40.714844 165.054688 37.808594 170.597656 34.816406 C 171.125 34.640625 171.125 34.285156 170.597656 34.109375 C 161.621094 29.179688 152.640625 24.339844 143.660156 19.410156 C 143.660156 19.320312 143.398438 19.234375 143.398438 19.234375 C 143.660156 19.144531 143.925781 19.144531 144.191406 19.144531 C 152.375 19.144531 160.5625 19.144531 168.484375 19.144531 C 169.015625 19.144531 169.542969 19.234375 169.804688 19.410156 C 179.050781 24.339844 188.554688 29.269531 198.0625 34.199219 C 198.328125 34.375 198.328125 34.550781 198.0625 34.726562 C 188.292969 39.746094 178.785156 44.761719 169.277344 49.78125 Z M 169.277344 49.78125 "/>
<path style=" stroke:none;fill-rule:nonzero;fill:rgb(14.901961%,40%,69.019608%);fill-opacity:1;" d="M 92.695312 2.070312 C 92.695312 2.246094 92.695312 2.421875 92.695312 2.507812 C 92.695312 5.0625 92.695312 7.613281 92.429688 10.078125 C 92.429688 11.574219 92.429688 13.070312 92.429688 14.570312 C 92.429688 14.832031 92.164062 14.832031 91.636719 14.832031 C 88.730469 14.832031 85.828125 14.832031 82.921875 14.832031 C 82.128906 14.832031 81.867188 14.746094 81.867188 14.480469 C 82.128906 12.191406 82.128906 9.902344 82.394531 7.527344 C 82.394531 5.765625 82.660156 3.917969 82.660156 2.15625 C 82.660156 1.714844 82.660156 1.1875 82.660156 0.75 C 82.660156 0.570312 82.660156 0.484375 83.1875 0.484375 C 88.730469 0.484375 94.015625 0.484375 99.558594 0.484375 C 100.089844 0.484375 100.089844 0.570312 100.351562 0.75 C 101.9375 3.917969 103.519531 7.175781 105.105469 10.34375 C 105.371094 10.695312 105.371094 11.046875 105.632812 11.398438 C 106.160156 11.3125 105.898438 11.222656 105.898438 11.136719 C 107.480469 7.703125 109.066406 4.355469 110.914062 0.925781 C 111.179688 0.660156 111.445312 0.570312 112.234375 0.570312 C 117.253906 0.570312 122.535156 0.570312 127.554688 0.570312 C 128.34375 0.570312 128.609375 0.660156 128.609375 0.925781 C 128.875 4.621094 129.136719 8.40625 129.402344 12.105469 C 129.402344 12.894531 129.402344 13.6875 129.664062 14.570312 C 129.664062 14.832031 129.402344 14.832031 128.609375 14.832031 C 125.703125 14.832031 122.535156 14.832031 119.628906 14.832031 C 118.839844 14.832031 118.574219 14.746094 118.574219 14.480469 C 118.574219 12.632812 118.574219 10.785156 118.574219 8.933594 C 118.574219 6.644531 118.574219 4.355469 118.574219 2.070312 L 118.308594 2.070312 C 117.78125 2.949219 117.253906 3.917969 116.726562 4.796875 C 114.613281 8.054688 112.765625 11.3125 110.914062 14.570312 C 110.652344 14.832031 110.386719 14.832031 109.859375 14.832031 C 106.953125 14.832031 103.785156 14.832031 100.878906 14.832031 C 100.089844 14.832031 99.824219 14.746094 99.824219 14.570312 C 98.769531 12.542969 97.445312 10.429688 96.390625 8.40625 C 95.335938 6.382812 94.015625 4.269531 92.957031 2.246094 C 92.695312 2.15625 92.695312 2.15625 92.695312 2.070312 Z M 92.695312 2.070312 "/>
<path style=" stroke:none;fill-rule:nonzero;fill:rgb(14.901961%,40%,69.019608%);fill-opacity:1;" d="M 232.128906 3.125 C 232.128906 4.09375 232.128906 4.972656 232.128906 5.855469 C 232.128906 7.085938 232.394531 8.40625 232.394531 9.640625 C 232.394531 11.222656 232.660156 12.808594 232.660156 14.394531 C 232.660156 14.65625 232.394531 14.746094 231.601562 14.746094 C 228.695312 14.746094 225.792969 14.746094 222.886719 14.746094 C 222.09375 14.746094 222.09375 14.65625 222.09375 14.480469 C 222.09375 9.992188 222.09375 5.5 222.09375 0.925781 C 222.09375 0.660156 222.359375 0.660156 223.152344 0.660156 C 227.90625 0.660156 232.394531 0.660156 237.148438 0.660156 C 237.941406 0.660156 238.46875 0.75 238.46875 1.011719 C 241.636719 4.535156 244.542969 8.054688 247.710938 11.488281 C 247.710938 11.574219 247.976562 11.664062 248.238281 11.75 C 248.238281 11.664062 248.238281 11.488281 248.238281 11.398438 C 248.238281 9.375 247.976562 7.351562 247.976562 5.324219 C 247.976562 3.828125 247.976562 2.421875 247.710938 0.925781 C 247.710938 0.75 247.976562 0.660156 248.503906 0.660156 C 251.671875 0.660156 254.578125 0.660156 257.746094 0.660156 C 258.273438 0.660156 258.539062 0.75 258.539062 0.925781 C 258.539062 5.414062 258.539062 9.992188 258.539062 14.480469 C 258.539062 14.746094 258.273438 14.746094 257.746094 14.746094 C 253.257812 14.746094 248.769531 14.746094 244.277344 14.746094 C 243.484375 14.746094 243.222656 14.65625 242.957031 14.394531 C 238.996094 10.695312 235.828125 7.085938 232.394531 3.390625 C 232.394531 3.300781 232.128906 3.214844 232.128906 3.125 Z M 232.128906 3.125 "/>
<path style=" stroke:none;fill-rule:nonzero;fill:rgb(14.901961%,40%,69.019608%);fill-opacity:1;" d="M 180.105469 6.292969 C 180.105469 4.535156 180.105469 2.683594 180.105469 0.925781 C 180.105469 0.660156 180.371094 0.570312 181.160156 0.570312 C 184.066406 0.570312 186.972656 0.570312 190.140625 0.570312 C 190.933594 0.570312 191.195312 0.660156 191.195312 0.925781 C 191.195312 4.445312 191.195312 7.878906 191.195312 11.398438 C 191.195312 12.015625 192.519531 12.632812 194.367188 12.71875 C 196.214844 12.894531 198.328125 12.542969 199.121094 11.929688 C 199.382812 11.664062 199.382812 11.488281 199.382812 11.222656 C 199.382812 7.789062 199.382812 4.355469 199.382812 1.011719 C 199.382812 0.660156 199.648438 0.660156 200.441406 0.660156 C 203.34375 0.660156 206.25 0.660156 209.417969 0.660156 C 209.945312 0.660156 210.210938 0.660156 210.210938 0.925781 C 210.210938 4.445312 210.210938 7.964844 210.210938 11.488281 C 210.476562 13.335938 206.515625 14.921875 200.96875 15.183594 C 197.269531 15.449219 193.308594 15.449219 189.613281 15.183594 C 183.804688 14.921875 179.578125 13.25 180.105469 11.3125 C 180.105469 9.640625 180.105469 7.964844 180.105469 6.292969 Z M 180.105469 6.292969 "/>
<path style=" stroke:none;fill-rule:nonzero;fill:rgb(14.901961%,40%,69.019608%);fill-opacity:1;" d="M 279.929688 7.789062 C 279.929688 8.933594 279.929688 9.992188 279.929688 11.136719 C 279.664062 11.664062 280.457031 12.191406 281.777344 12.457031 C 283.363281 12.71875 285.476562 12.71875 287.058594 12.457031 C 288.117188 12.28125 288.910156 11.839844 288.910156 11.398438 C 288.910156 10.695312 288.910156 9.992188 288.910156 9.285156 C 288.910156 9.109375 288.644531 9.023438 288.378906 9.109375 C 287.324219 9.109375 286.269531 9.109375 285.476562 9.109375 C 284.945312 9.109375 284.683594 9.109375 284.683594 8.847656 C 284.683594 8.320312 284.683594 7.789062 284.683594 7.261719 C 284.683594 7.085938 284.945312 7 285.476562 7 C 289.964844 7 294.71875 7 299.207031 7 C 299.734375 7 300 7 300 7.175781 C 300 8.671875 300.265625 10.167969 299.734375 11.664062 C 299.734375 13.25 296.304688 14.65625 291.550781 15.007812 C 286.53125 15.535156 281.25 15.449219 276.496094 14.832031 C 272.535156 14.394531 269.628906 13.070312 269.628906 11.664062 C 269.367188 9.902344 269.628906 8.054688 269.367188 6.292969 C 269.367188 5.589844 269.367188 4.796875 269.628906 4.09375 C 269.628906 2.507812 273.0625 1.101562 277.816406 0.660156 C 282.304688 0.21875 287.058594 0.21875 291.8125 0.660156 C 296.832031 1.011719 300.265625 2.597656 300 4.269531 C 300 4.535156 300 4.796875 300 5.0625 C 300 5.238281 300 5.324219 299.207031 5.324219 C 296.039062 5.324219 292.871094 5.324219 289.964844 5.324219 C 289.4375 5.324219 289.171875 5.238281 289.171875 5.0625 C 289.171875 4.796875 289.171875 4.445312 289.171875 4.179688 C 289.171875 3.566406 287.324219 3.035156 285.476562 3.035156 C 283.363281 2.859375 281.25 3.300781 280.722656 4.003906 C 279.929688 4.003906 279.929688 4.269531 279.929688 4.445312 C 279.929688 5.589844 279.929688 6.644531 279.929688 7.789062 Z M 279.929688 7.789062 "/>
<path style=" stroke:none;fill-rule:nonzero;fill:rgb(14.901961%,40%,69.019608%);fill-opacity:1;" d="M 6.074219 10.167969 C 7.660156 10.167969 9.242188 10.167969 10.828125 10.167969 C 11.621094 10.167969 11.882812 10.253906 11.882812 10.519531 C 11.882812 10.785156 11.882812 11.046875 11.882812 11.398438 C 11.621094 12.457031 13.996094 13.070312 17.164062 12.894531 C 19.542969 12.71875 20.863281 11.929688 20.335938 11.136719 C 20.070312 10.960938 19.804688 10.695312 19.542969 10.519531 C 18.75 10.167969 17.695312 9.816406 16.375 9.640625 C 13.996094 9.199219 11.355469 8.671875 8.980469 8.230469 C 7.394531 7.878906 5.808594 7.527344 4.488281 7.175781 C 1.320312 6.292969 -0.265625 4.886719 0.527344 3.566406 C 0.792969 2.070312 4.226562 0.75 8.714844 0.484375 C 13.46875 0.0429688 18.222656 0.0429688 22.976562 0.484375 C 27.464844 0.835938 30.371094 2.15625 30.105469 3.742188 C 30.105469 4.09375 30.371094 4.535156 29.839844 4.710938 C 29.3125 4.972656 27.992188 4.796875 26.9375 4.796875 C 24.824219 4.796875 22.445312 4.796875 20.335938 4.796875 C 19.542969 4.796875 19.277344 4.710938 19.277344 4.445312 C 19.277344 4.179688 19.277344 4.003906 19.277344 3.742188 C 19.277344 3.035156 17.429688 2.597656 15.582031 2.597656 C 15.582031 2.597656 15.316406 2.597656 15.316406 2.597656 C 13.203125 2.597656 11.621094 3.035156 11.355469 3.652344 C 11.355469 3.652344 11.355469 3.742188 11.355469 3.742188 C 11.355469 4.179688 11.882812 4.621094 12.941406 4.972656 C 15.054688 5.5 17.429688 5.941406 19.804688 6.292969 C 21.917969 6.734375 23.769531 7.085938 25.878906 7.527344 C 29.839844 8.320312 31.953125 9.816406 31.160156 11.3125 C 31.160156 11.75 30.898438 12.28125 30.632812 12.71875 C 29.578125 13.863281 26.9375 14.746094 23.503906 15.007812 C 18.484375 15.625 13.203125 15.625 8.1875 15.097656 C 3.167969 14.65625 -0.265625 13.070312 0.265625 11.398438 C 0.265625 11.046875 -0.265625 10.519531 0.527344 10.253906 C 1.054688 10.078125 2.640625 10.167969 3.695312 10.167969 C 4.488281 10.167969 5.28125 10.167969 6.074219 10.167969 Z M 6.074219 10.167969 "/>
<path style=" stroke:none;fill-rule:nonzero;fill:rgb(14.901961%,40%,69.019608%);fill-opacity:1;" d="M 55.457031 1.980469 C 53.609375 6.117188 51.761719 10.34375 49.910156 14.480469 C 49.648438 14.832031 49.382812 14.921875 48.328125 14.921875 C 45.160156 14.921875 41.988281 14.921875 38.820312 14.921875 C 38.027344 14.921875 38.027344 14.921875 38.027344 14.65625 C 39.875 11.222656 41.988281 7.878906 43.839844 4.445312 C 44.367188 3.300781 45.160156 2.15625 45.6875 0.925781 C 45.6875 0.75 45.949219 0.660156 46.480469 0.660156 C 52.289062 0.660156 58.097656 0.660156 64.171875 0.660156 C 64.699219 0.660156 64.964844 0.75 64.964844 0.925781 C 67.339844 5.414062 69.980469 9.902344 72.359375 14.394531 C 72.625 15.007812 72.625 15.007812 70.773438 15.007812 C 67.871094 15.007812 64.964844 15.007812 62.058594 15.007812 C 61.53125 15.007812 61.003906 15.007812 61.003906 14.746094 C 59.945312 12.015625 58.625 9.375 57.570312 6.644531 L 55.722656 2.246094 C 55.722656 2.070312 55.722656 2.070312 55.457031 1.980469 Z M 55.457031 1.980469 "/>
<path style=" stroke:none;fill-rule:nonzero;fill:rgb(14.901961%,40%,69.019608%);fill-opacity:1;" d="M 145.246094 10.167969 C 146.832031 10.167969 148.679688 10.167969 150.265625 10.167969 C 150.792969 10.167969 151.054688 10.253906 151.054688 10.429688 C 151.054688 10.785156 151.054688 11.222656 151.054688 11.574219 C 151.054688 12.28125 152.640625 12.808594 154.488281 12.808594 C 156.867188 12.894531 158.1875 12.632812 158.980469 12.105469 C 159.769531 11.488281 159.507812 10.695312 157.921875 10.253906 C 156.339844 9.816406 154.753906 9.375 152.90625 9.109375 C 149.734375 8.582031 146.832031 7.964844 144.191406 7.351562 C 139.171875 5.941406 138.117188 3.476562 142.078125 1.804688 C 143.925781 1.101562 146.566406 0.570312 149.472656 0.484375 C 153.960938 0.132812 158.449219 0.21875 162.675781 0.660156 C 166.636719 1.011719 169.277344 2.332031 169.015625 3.742188 C 169.015625 4.003906 169.015625 4.269531 169.015625 4.535156 C 169.015625 4.796875 168.75 4.796875 168.222656 4.796875 C 165.316406 4.796875 162.148438 4.796875 159.242188 4.796875 C 158.449219 4.796875 158.449219 4.710938 158.449219 4.535156 C 158.449219 4.179688 158.449219 3.917969 158.449219 3.566406 C 157.921875 2.949219 156.074219 2.507812 153.960938 2.683594 C 152.113281 2.683594 150.527344 3.214844 150.527344 3.828125 C 150.527344 4.269531 151.054688 4.710938 152.113281 4.972656 C 153.960938 5.414062 155.808594 5.855469 157.921875 6.207031 C 160.300781 6.644531 162.675781 7.085938 164.789062 7.613281 C 168.222656 8.40625 170.335938 9.726562 169.804688 11.136719 C 169.804688 11.574219 169.542969 12.105469 169.277344 12.542969 C 168.484375 13.6875 165.84375 14.65625 162.410156 15.007812 C 157.394531 15.625 151.847656 15.625 146.832031 15.007812 C 142.078125 14.570312 139.171875 13.160156 139.171875 11.574219 C 139.171875 11.222656 139.171875 10.871094 139.171875 10.519531 C 139.171875 10.34375 139.4375 10.253906 139.964844 10.253906 C 141.8125 10.167969 143.398438 10.167969 145.246094 10.167969 Z M 145.246094 10.167969 "/>
<path style=" stroke:none;fill-rule:nonzero;fill:rgb(14.901961%,40%,69.019608%);fill-opacity:1;" d="M 212.058594 27.332031 L 197.269531 19.234375 L 227.640625 19.234375 Z M 212.058594 27.332031 "/>
<path style=" stroke:none;fill-rule:nonzero;fill:rgb(14.901961%,40%,69.019608%);fill-opacity:1;" d="M 227.375 49.78125 L 197.269531 49.78125 C 198.855469 48.8125 200.703125 47.929688 202.289062 47.050781 C 205.457031 45.289062 208.890625 43.53125 212.058594 41.769531 C 212.324219 41.769531 212.589844 41.855469 212.589844 41.945312 C 217.339844 44.5 222.359375 47.050781 227.113281 49.605469 C 227.113281 49.691406 227.375 49.691406 227.375 49.78125 Z M 227.375 49.78125 "/>
</g>
</svg>
