<?xml version="1.0" encoding="UTF-8"?>
<svg id="katman_1" data-name="katman 1" xmlns="http://www.w3.org/2000/svg" viewBox="0 0 300 100">
  <defs>
    <style>
      .cls-1 {
        fill: #01b2e2;
      }

      .cls-2 {
        fill: #908e8f;
      }

      .cls-3 {
        fill: #242021;
      }

      .cls-4 {
        fill: #231f20;
      }

      .cls-5 {
        fill: #221e1f;
      }

      .cls-6 {
        fill: #7fd8f0;
      }
    </style>
  </defs>
  <path id="Path_509" data-name="Path 509" class="cls-4" d="M97.35,75.66c.08-.13,.03-.28,.03-.42,0-10.43,0-20.86,0-31.3,0-.32,.07-.41,.4-.4,2.49,.01,4.99,.01,7.48,0,.23-.02,.45,.1,.55,.31,3.44,5.41,6.88,10.83,10.32,16.23,.07,.13,.17,.23,.29,.31v-.42c0-5.34,0-10.68,0-16.02,0-.34,.09-.42,.42-.42,2.43,.01,4.86,.01,7.3,0,.22,0,.34,0,.34,.3,0,10.52-.01,21.04,0,31.56,0,.06,0,.12-.01,.18h-7.84s-.06-.08-.08-.12c-3.61-5.69-7.21-11.37-10.82-17.05-.07-.11-.1-.25-.28-.32v17.05c0,.17,0,.34-.01,.52h-8.07Z"/>
  <path id="Path_510" data-name="Path 510" class="cls-4" d="M126.23,75.66c.08-.13,.03-.28,.03-.42,0-10.43,0-20.86,0-31.29,0-.31,.05-.41,.39-.41,6.44,.01,12.88,.01,19.32,0,.29,0,.4,.05,.39,.37-.02,2.35-.02,4.71,0,7.06,0,.31-.08,.39-.39,.38-3.75-.01-7.5,0-11.25-.01-.35,0-.43,.09-.42,.43,.02,1.15,.02,2.29,0,3.44,0,.31,.08,.39,.39,.39,3.75-.01,7.5,0,11.25-.01,.33,0,.43,.08,.42,.42-.02,2.34-.02,4.69,0,7.03,0,.3-.08,.36-.37,.36-3.76,0-7.53,0-11.29-.01-.33,0-.41,.09-.4,.41,.02,1.22,.02,2.44,0,3.66,0,.32,.1,.37,.39,.37,3.75-.01,7.5,0,11.25-.01,.34,0,.42,.09,.42,.42-.01,2.47,0,4.95,0,7.43h-20.15Z"/>
  <path id="Path_511" data-name="Path 511" class="cls-2" d="M166.14,75.67v-.08h10.52v.07h-10.52Z"/>
  <path id="Path_512" data-name="Path 512" class="cls-6" d="M147.26,75.66v-.08h9.17v.08h-9.17Z"/>
  <path id="Path_513" data-name="Path 513" class="cls-2" d="M185.99,75.67l.02-.09h8.04v.09h-8.06Z"/>
  <path id="Path_514" data-name="Path 514" class="cls-2" d="M116.6,75.66v-.08h7.84v.08h-7.84Z"/>
  <path id="Path_515" data-name="Path 515" class="cls-5" d="M194.05,75.58h-8.04c0-.15,0-.3,0-.45,0-7.78,0-15.56,0-23.34,0-.35-.08-.45-.44-.44-2.36,.02-4.71,0-7.07,.02-.31,0-.38-.09-.38-.39,.01-2.37,.01-4.74,0-7.1,0-.25,.05-.33,.32-.33,7.75,0,15.5,0,23.25,0,.27,0,.32,.08,.32,.33,0,2.38-.01,4.76,0,7.14,0,.32-.12,.35-.38,.35-2.37,0-4.74,0-7.11-.01-.35,0-.47,.06-.47,.45,.01,7.78,.02,15.56,.01,23.34,0,.15,0,.3,0,.44Z"/>
  <path id="Path_516" data-name="Path 516" class="cls-1" d="M156.43,75.58h-9.16c1.29-2.12,2.58-4.25,3.87-6.37,1.89-3.09,3.78-6.18,5.67-9.27,.17-.21,.17-.51,0-.72-3.14-5.12-6.28-10.25-9.41-15.38-.05-.07-.08-.15-.13-.22,.08-.11,.18-.06,.27-.06,2.84,0,5.67,0,8.51,0,.2-.02,.38,.08,.47,.26,3.27,5.17,6.55,10.34,9.84,15.51,.13,.15,.13,.37,0,.52-3.32,5.24-6.64,10.49-9.95,15.74Z"/>
  <path id="Path_517" data-name="Path 517" class="cls-3" d="M129.64,25.64c-.01,.2-.04,.34-.04,.49l-.05,7.95c-.01,1.55-.04,3.1-.04,4.66,0,.26-.09,.3-.32,.3-1.01-.01-2.03-.02-3.04,0-.31,0-.4-.07-.39-.38,.06-2.41,.11-4.83,.16-7.24l.12-5.62c.01-.49,.03-.98,.03-1.47,0-.16,.02-.24,.21-.24,1.9,0,3.8,0,5.7,0,.18,0,.22,.07,.25,.23,.54,3.34,1.07,6.69,1.62,10.03,.06,.36,.12,.73,.18,1.1,.14-.05,.11-.18,.12-.28,.57-3.56,1.15-7.12,1.72-10.68,.05-.32,.16-.4,.48-.4,1.79,.02,3.58,.02,5.37,0,.27,0,.35,.06,.35,.34,.07,3.92,.15,7.83,.24,11.75,.02,.85,.03,1.7,.07,2.55,.01,.28-.08,.32-.33,.32-1.04-.01-2.07-.01-3.11,0-.29,0-.34-.09-.34-.36,0-1.95-.01-3.9-.02-5.84v-7.21h-.12c-.18,.94-.36,1.89-.53,2.84-.64,3.42-1.28,6.84-1.91,10.27-.05,.26-.15,.31-.38,.3-1.05-.01-2.1-.01-3.15,0-.26,0-.35-.07-.4-.32-.39-2.16-.79-4.31-1.19-6.46s-.8-4.31-1.2-6.46c-.02-.05-.04-.09-.07-.14Z"/>
  <path id="Path_518" data-name="Path 518" class="cls-3" d="M178.33,26.7c0,1,0,1.94,0,2.89,.02,1.32,.05,2.64,.07,3.95,.03,1.65,.06,3.3,.1,4.95,0,.28-.06,.38-.36,.37-1.01-.02-2.02-.01-3.04,0-.24,0-.31-.06-.31-.31,0-4.72,0-9.45,0-14.17,0-.28,.09-.31,.33-.31,1.62,.01,3.23,.01,4.85,0,.23-.04,.46,.11,.5,.34v.03c1.07,3.67,2.14,7.34,3.21,11.01,.02,.11,.08,.2,.15,.28v-.4c-.03-2.13-.06-4.26-.1-6.39-.02-1.54-.04-3.08-.09-4.62,0-.22,.06-.24,.24-.24,1.07,0,2.15,0,3.22,0,.22,0,.26,.08,.26,.28,0,4.74,0,9.47,0,14.21,0,.26-.09,.3-.32,.3-1.57,0-3.13-.01-4.7,0-.29,0-.37-.11-.45-.35-1.16-3.84-2.32-7.67-3.5-11.5-.02-.08-.05-.17-.1-.3Z"/>
  <path id="Path_519" data-name="Path 519" class="cls-4" d="M160.18,30.06c0-1.87,0-3.75,0-5.62,0-.29,.08-.37,.37-.37,1.04,.02,2.07,.02,3.11,0,.29,0,.34,.09,.34,.35,0,3.65,0,7.3,0,10.95-.03,.67,.44,1.26,1.11,1.36,.69,.18,1.4-.17,1.68-.81,.08-.23,.12-.48,.11-.72,0-3.58,0-7.15-.01-10.72,0-.32,.08-.41,.4-.4,1.04,.02,2.07,.01,3.11,0,.21,0,.3,.04,.3,.28,0,3.67,.01,7.35-.01,11.02,.1,1.94-1.31,3.64-3.24,3.89-1.31,.29-2.66,.29-3.96,0-2.02-.25-3.47-2.05-3.29-4.07,0-1.7,0-3.42,0-5.13Z"/>
  <path id="Path_520" data-name="Path 520" class="cls-4" d="M195.03,31.55v3.48c-.07,.55,.2,1.1,.69,1.37,.56,.31,1.25,.3,1.8-.04,.4-.23,.63-.66,.61-1.11,.01-.74,0-1.47,0-2.22,0-.18-.06-.23-.23-.23-.35,.01-.69,0-1.04,0-.2,0-.29-.03-.29-.26,.01-.57,.01-1.13,0-1.7,0-.21,.08-.24,.26-.24,1.6,0,3.21,0,4.81,0,.15,0,.26,0,.25,.21-.03,1.57,.08,3.13-.06,4.7-.03,1.68-1.22,3.12-2.87,3.47-1.72,.53-3.57,.47-5.26-.17-1.42-.49-2.38-1.82-2.4-3.33-.13-1.87-.03-3.75-.06-5.62,0-.77,0-1.53,.06-2.29,.04-1.7,1.21-3.17,2.86-3.58,1.58-.47,3.27-.47,4.85,0,1.73,.41,2.92,1.99,2.85,3.76,0,.27,0,.54,0,.81,0,.19-.03,.29-.26,.28-1.09-.01-2.17-.01-3.26,0-.21,0-.28-.06-.28-.27,.01-.32,0-.64-.02-.96-.04-.68-.6-1.22-1.29-1.23-.75-.16-1.49,.29-1.68,1.04-.05,.23-.08,.46-.08,.7,0,1.14,.01,2.29,0,3.44Z"/>
  <path id="Path_521" data-name="Path 521" class="cls-3" d="M99.42,34.09c.55,0,1.11,.02,1.67,0,.29-.01,.36,.09,.34,.35-.02,.29,.01,.59,0,.89-.09,1.13,.71,1.71,1.84,1.55,.82-.19,1.33-1,1.15-1.82-.05-.23-.16-.44-.3-.63-.3-.38-.67-.7-1.09-.93-.86-.51-1.73-.99-2.59-1.49-.53-.31-1.04-.66-1.52-1.05-1.13-.92-1.66-2.38-1.38-3.81,.13-1.59,1.29-2.92,2.85-3.25,1.62-.47,3.35-.46,4.96,.03,1.54,.37,2.6,1.78,2.52,3.37,0,.35,.12,.82-.06,1.04-.19,.23-.67,.07-1.03,.07-.78,.01-1.55,0-2.33,.01-.29,0-.37-.08-.34-.35,.02-.25,.01-.49-.01-.74-.03-.69-.62-1.23-1.32-1.19-.03,0-.07,0-.1,0-.68-.05-1.28,.46-1.33,1.15,0,.03,0,.06,0,.09-.04,.49,.17,.96,.55,1.27,.74,.56,1.53,1.04,2.37,1.43,.72,.38,1.41,.8,2.09,1.25,1.35,.86,2.07,2.42,1.86,4-.02,.5-.1,1-.23,1.49-.36,1.18-1.31,2.09-2.51,2.4-1.72,.55-3.56,.55-5.28,0-1.74-.46-2.92-2.09-2.79-3.89,0-.4-.18-.94,.08-1.17,.22-.2,.75-.06,1.15-.06,.27,0,.54,0,.81,0Z"/>
  <path id="Path_522" data-name="Path 522" class="cls-4" d="M116.7,25.52c-.66,4.36-1.31,8.71-1.96,13.05-.05,.36-.17,.47-.54,.46-1.1-.03-2.19-.02-3.29,0-.24,0-.3-.03-.25-.3,.67-3.56,1.34-7.13,1.99-10.7,.23-1.22,.46-2.44,.67-3.67,.04-.21,.09-.29,.32-.29,2.05,.01,4.1,.01,6.14,0,.2,0,.27,.05,.31,.26,.86,4.69,1.72,9.39,2.59,14.09,.11,.61,.11,.61-.51,.61-1.02,0-2.05,0-3.07,0-.23,0-.34-.03-.38-.3-.4-2.82-.82-5.63-1.24-8.44l-.68-4.6c0-.07-.04-.13-.11-.16Z"/>
  <path id="Path_523" data-name="Path 523" class="cls-4" d="M148,34.08c.58,0,1.16,0,1.74,0,.21,0,.28,.05,.27,.26-.02,.39-.01,.79,0,1.18-.02,.7,.53,1.28,1.23,1.31h0c.83,.06,1.32-.16,1.57-.7,.32-.66,.18-1.46-.36-1.97-.52-.48-1.1-.88-1.72-1.19-1.08-.54-2.11-1.17-3.08-1.89-1.77-1.44-2.08-4.03-.7-5.85,.66-.76,1.58-1.25,2.58-1.38,1.51-.32,3.09-.24,4.56,.24,1.41,.43,2.35,1.77,2.26,3.24,0,.28-.02,.57,0,.85,.02,.24-.08,.28-.29,.28-1.05-.01-2.1-.01-3.15,0-.25,0-.28-.09-.28-.3,.03-.33,.02-.66-.04-.99-.16-.68-.84-1.11-1.52-.95-.66,.03-1.18,.58-1.16,1.24-.03,.48,.18,.94,.55,1.23,.63,.49,1.32,.91,2.04,1.26,.84,.43,1.66,.92,2.44,1.46,1.21,.8,1.89,2.19,1.78,3.64,0,.5-.06,1.01-.17,1.5-.27,1.22-1.19,2.2-2.39,2.55-1.78,.61-3.7,.62-5.48,.02-1.62-.46-2.72-1.96-2.67-3.64-.01-.38,0-.76,0-1.15,0-.2,.06-.25,.25-.25,.59,0,1.17,0,1.75,0Z"/>
  <path id="Path_524" data-name="Path 524" class="cls-4" d="M171.32,52.07l-5.21-8.49h10.6l-5.39,8.49Z"/>
  <path id="Path_525" data-name="Path 525" class="cls-4" d="M176.66,75.6h-10.52c.53-1.01,1.16-1.94,1.75-2.91,1.12-1.85,2.26-3.69,3.39-5.53,.12,0,.15,.1,.19,.17,1.7,2.68,3.4,5.36,5.1,8.04,.04,.07,.11,.13,.1,.23Z"/>
</svg>