<svg id="Group_150" data-name="Group 150" xmlns="http://www.w3.org/2000/svg" width="113.571" height="56.521" viewBox="0 0 113.571 56.521">
  <path id="Path_509" data-name="Path 509" d="M-569.717,541.065c.089-.145.035-.3.035-.455q.007-16.977,0-33.955c0-.348.075-.441.434-.439q4.058.024,8.114,0a.606.606,0,0,1,.595.338q5.594,8.812,11.2,17.613a.948.948,0,0,0,.31.336v-.457q0-8.69-.009-17.38c0-.373.1-.452.459-.452,2.638.016,5.278.012,7.915,0,.243,0,.373.007.373.327q-.014,17.117-.009,34.235c0,.068-.009.133-.014.2l-8.51,0c-.03-.044-.063-.086-.091-.131q-5.867-9.253-11.734-18.5c-.075-.117-.112-.27-.3-.345v18.5c0,.187-.007.373-.012.56Z" transform="translate(569.741 -484.544)" fill="#231f20"/>
  <path id="Path_510" data-name="Path 510" d="M-556.282,541.065c.089-.145.035-.3.035-.455q.007-16.974,0-33.948c0-.336.054-.448.427-.445q10.485.021,20.964,0c.317,0,.429.049.427.4q-.025,3.831,0,7.664c0,.336-.089.42-.422.417-4.07-.012-8.14,0-12.209-.016-.375,0-.462.1-.455.466q.031,1.864,0,3.732c0,.331.082.42.418.42,4.07-.012,8.139,0,12.209-.016.359,0,.462.082.46.455q-.025,3.813,0,7.624c0,.322-.091.392-.4.392-4.084-.009-8.165,0-12.249-.016-.361,0-.443.093-.436.443q.031,1.987,0,3.972c0,.352.107.406.427.406,4.07-.012,8.139,0,12.209-.016.373,0,.455.1.452.459-.012,2.684,0,5.371,0,8.058Z" transform="translate(587.64 -484.544)" fill="#231f20"/>
  <path id="Path_511" data-name="Path 511" d="M-537.714,521.206v-.082l11.414.009-.007.072Z" transform="translate(612.377 -464.684)" fill="#908e8f"/>
  <path id="Path_512" data-name="Path 512" d="M-546.5,521.211l.014-.091,9.937,0,.012.089Z" transform="translate(600.673 -464.69)" fill="#7fd8f0"/>
  <path id="Path_513" data-name="Path 513" d="M-528.482,521.214l.023-.1,8.725.007.009.089Z" transform="translate(624.675 -464.692)" fill="#908e8f"/>
  <path id="Path_514" data-name="Path 514" d="M-560.761,521.207l0-.084,8.51,0,0,.082Z" transform="translate(581.673 -464.686)" fill="#908e8f"/>
  <path id="Path_515" data-name="Path 515" d="M-514.857,540.975l-8.725-.007c0-.161-.009-.322-.009-.481q0-12.664.009-25.323c0-.382-.086-.483-.476-.48-2.558.021-5.115,0-7.671.019-.34,0-.415-.093-.415-.42q.021-3.855,0-7.706c0-.268.049-.359.343-.359q12.611.014,25.223,0c.292,0,.345.086.343.357-.009,2.582-.014,5.164,0,7.745,0,.348-.128.38-.415.38-2.57-.009-5.14,0-7.71-.014-.385,0-.506.063-.506.485q.021,12.664.012,25.323C-514.847,540.656-514.854,540.814-514.857,540.975Z" transform="translate(619.798 -484.542)" fill="#221e1f"/>
  <path id="Path_516" data-name="Path 516" d="M-536.555,540.977l-9.937,0q2.1-3.456,4.2-6.915,3.068-5.031,6.152-10.052a.634.634,0,0,0,0-.781q-5.111-8.337-10.206-16.689c-.049-.077-.091-.161-.138-.243.082-.121.2-.065.294-.065q4.617,0,9.236-.007a.527.527,0,0,1,.513.28q5.324,8.42,10.67,16.827a.449.449,0,0,1,.009.567Q-531.163,532.432-536.555,540.977Z" transform="translate(600.681 -484.544)" fill="#01b2e2"/>
  <path id="Path_517" data-name="Path 517" d="M-552.295,498.859c-.016.215-.04.371-.042.527q-.028,4.313-.056,8.627c-.012,1.684-.042,3.368-.044,5.054,0,.28-.1.324-.345.322-1.1-.012-2.2-.019-3.293,0-.331,0-.431-.075-.422-.413.07-2.619.119-5.238.175-7.857q.063-3.047.126-6.094c.012-.534.033-1.068.037-1.6,0-.17.019-.263.233-.263q3.093.01,6.185,0c.194,0,.238.077.266.254q.871,5.44,1.754,10.878c.065.394.126.791.191,1.189.151-.056.114-.191.133-.3q.934-5.793,1.861-11.589c.056-.343.177-.439.525-.436q2.91.028,5.823,0c.294,0,.378.063.383.371q.115,6.374.259,12.748c.021.921.03,1.845.077,2.766.016.305-.089.347-.354.343-1.124-.012-2.251-.016-3.375,0-.315.007-.373-.1-.373-.39,0-2.113-.014-4.226-.019-6.339,0-2.608,0-5.215,0-7.822l-.126-.007q-.29,1.539-.578,3.083c-.693,3.713-1.39,7.426-2.069,11.143-.054.285-.161.331-.415.329-1.138-.012-2.276-.016-3.415,0-.282,0-.385-.072-.436-.35-.422-2.339-.861-4.676-1.294-7.013s-.865-4.674-1.3-7.011A1.114,1.114,0,0,0-552.295,498.859Z" transform="translate(587.352 -496.611)" fill="#242021"/>
  <path id="Path_518" data-name="Path 518" d="M-529.862,500.011c0,1.082-.009,2.106,0,3.13.019,1.43.051,2.859.079,4.289.033,1.791.063,3.58.112,5.371.007.308-.065.41-.392.4-1.1-.021-2.195-.014-3.293,0-.263,0-.333-.07-.333-.334q.014-7.686,0-15.369c0-.3.1-.34.362-.34,1.754.012,3.508.016,5.261,0a.464.464,0,0,1,.548.4q1.728,5.975,3.482,11.946a.61.61,0,0,0,.168.3c0-.145,0-.289,0-.434q-.052-3.467-.107-6.936c-.026-1.67-.047-3.34-.094-5.01-.007-.24.07-.263.261-.261,1.164,0,2.33.009,3.494,0,.243,0,.282.091.282.3q-.01,7.707,0,15.411c0,.285-.1.324-.347.324-1.7-.009-3.4-.014-5.1,0-.312,0-.406-.121-.485-.383q-1.886-6.244-3.792-12.48C-529.781,500.249-529.815,500.154-529.862,500.011Z" transform="translate(617.741 -496.611)" fill="#242021"/>
  <path id="Path_519" data-name="Path 519" d="M-540.484,503.655c0-2.031.007-4.065-.007-6.1,0-.317.082-.4.4-.4,1.124.019,2.25.019,3.372,0,.312,0,.371.093.371.382q-.014,5.94,0,11.878a1.423,1.423,0,0,0,1.2,1.479,1.559,1.559,0,0,0,1.826-.884,2.044,2.044,0,0,0,.119-.786c0-3.879,0-7.757-.012-11.635,0-.352.082-.443.434-.434,1.124.026,2.248.016,3.372,0,.233,0,.322.04.322.3-.009,3.986.012,7.972-.014,11.957a4.038,4.038,0,0,1-3.51,4.221,10.12,10.12,0,0,1-4.3.007,4.077,4.077,0,0,1-3.568-4.417C-540.488,507.374-540.484,505.516-540.484,503.655Z" transform="translate(608.677 -496.611)" fill="#231f20"/>
  <path id="Path_520" data-name="Path 520" d="M-521.939,505.544c0,1.257,0,2.514,0,3.771a1.482,1.482,0,0,0,.746,1.488,1.956,1.956,0,0,0,1.957-.042,1.33,1.33,0,0,0,.667-1.206c.014-.8,0-1.6.01-2.407,0-.2-.061-.252-.25-.245-.375.014-.751,0-1.124.007-.212.009-.317-.033-.31-.28.016-.616.014-1.231,0-1.845,0-.226.086-.264.285-.264q2.61.007,5.219,0c.163,0,.28,0,.275.224-.037,1.7.089,3.4-.07,5.094a3.91,3.91,0,0,1-3.111,3.76,8.8,8.8,0,0,1-5.707-.184,3.875,3.875,0,0,1-2.607-3.608c-.14-2.029-.035-4.063-.063-6.094-.009-.83,0-1.658.061-2.486a4.1,4.1,0,0,1,3.1-3.885,9.315,9.315,0,0,1,5.264-.007,4.018,4.018,0,0,1,3.09,4.081c.009.294-.007.588,0,.882.009.21-.03.31-.28.308-1.178-.014-2.356-.012-3.533,0-.229,0-.3-.063-.3-.292a9.119,9.119,0,0,0-.026-1.042,1.419,1.419,0,0,0-1.395-1.339,1.543,1.543,0,0,0-1.826,1.126,3.264,3.264,0,0,0-.082.756Q-521.938,503.677-521.939,505.544Z" transform="translate(627.935 -496.878)" fill="#231f20"/>
  <path id="Path_521" data-name="Path 521" d="M-567.45,508.345c.6,0,1.206.021,1.807-.009.317-.014.387.1.364.385-.026.317.016.644-.009.961-.1,1.224.765,1.859,2,1.679a1.65,1.65,0,0,0,.914-2.652,3.966,3.966,0,0,0-1.182-1.01c-.931-.55-1.878-1.073-2.815-1.612a12.275,12.275,0,0,1-1.647-1.14,4.28,4.28,0,0,1-1.5-4.13,3.916,3.916,0,0,1,3.093-3.522,9.522,9.522,0,0,1,5.383.035,3.563,3.563,0,0,1,2.731,3.652c.007.385.13.889-.061,1.126-.205.254-.73.075-1.115.079-.842.014-1.686-.009-2.53.012-.31.009-.4-.091-.368-.385a5.118,5.118,0,0,0-.012-.8,1.363,1.363,0,0,0-1.539-1.283,1.346,1.346,0,0,0-1.446,1.339,1.585,1.585,0,0,0,.595,1.374,14.48,14.48,0,0,0,2.57,1.549,25.231,25.231,0,0,1,2.265,1.357,4.451,4.451,0,0,1,2.02,4.345,7.587,7.587,0,0,1-.25,1.619,3.854,3.854,0,0,1-2.724,2.6,9.4,9.4,0,0,1-5.723,0,4.086,4.086,0,0,1-3.032-4.224c0-.436-.194-1.021.084-1.269.243-.217.816-.063,1.243-.07C-568.04,508.343-567.746,508.345-567.45,508.345Z" transform="translate(569.727 -496.924)" fill="#242021"/>
  <path id="Path_522" data-name="Path 522" d="M-556.958,498.73q-1.071,7.1-2.122,14.161c-.058.387-.182.513-.59.5-1.189-.033-2.381-.019-3.573-.007-.259,0-.327-.035-.273-.326q1.095-5.8,2.162-11.612c.245-1.327.5-2.649.73-3.979.04-.224.1-.31.345-.31q3.334.017,6.665,0c.212,0,.292.056.333.28q1.4,7.64,2.81,15.281c.121.658.117.66-.553.66-1.112,0-2.223-.007-3.333,0-.25,0-.366-.028-.408-.324-.436-3.055-.893-6.106-1.343-9.156l-.735-4.993A.186.186,0,0,0-556.958,498.73Z" transform="translate(577.98 -496.609)" fill="#231f20"/>
  <path id="Path_523" data-name="Path 523" d="M-544.921,508.27c.63,0,1.257.009,1.887,0,.226,0,.3.058.289.287-.019.427-.012.856,0,1.283a1.377,1.377,0,0,0,1.343,1.416c.9.068,1.437-.173,1.707-.756a1.845,1.845,0,0,0-.387-2.139,8.075,8.075,0,0,0-1.87-1.294,23.244,23.244,0,0,1-3.342-2.05,4.6,4.6,0,0,1-.763-6.344,4.468,4.468,0,0,1,2.8-1.495,9.523,9.523,0,0,1,4.947.259,3.466,3.466,0,0,1,2.456,3.515c0,.308-.019.618,0,.924.021.259-.082.308-.317.306-1.138-.012-2.276-.016-3.415,0-.266,0-.3-.1-.3-.324a4.184,4.184,0,0,0-.044-1.077,1.381,1.381,0,0,0-1.654-1.036,1.316,1.316,0,0,0-1.262,1.346,1.557,1.557,0,0,0,.6,1.332,12.116,12.116,0,0,0,2.213,1.362,24.021,24.021,0,0,1,2.645,1.579,4.315,4.315,0,0,1,1.926,3.951,8.707,8.707,0,0,1-.18,1.63,3.735,3.735,0,0,1-2.594,2.764,9.185,9.185,0,0,1-5.949.021,4,4,0,0,1-2.9-3.946c-.014-.413.009-.828-.007-1.243-.007-.215.063-.273.273-.271C-546.18,508.279-545.551,508.27-544.921,508.27Z" transform="translate(599.897 -496.863)" fill="#231f20"/>
  <path id="Path_524" data-name="Path 524" d="M-532.081,515.447l-5.649-9.215h11.5Z" transform="translate(612.355 -484.524)" fill="#231f20"/>
  <path id="Path_525" data-name="Path 525" d="M-526.3,526.357l-11.414-.009c.578-1.082,1.259-2.1,1.9-3.146,1.22-2.006,2.451-4,3.673-6,.135,0,.159.112.205.184q2.767,4.359,5.532,8.72C-526.361,526.182-526.281,526.25-526.3,526.357Z" transform="translate(612.377 -469.908)" fill="#231f20"/>
</svg>
