<?xml version="1.0" encoding="UTF-8"?>
<svg xmlns="http://www.w3.org/2000/svg" xmlns:xlink="http://www.w3.org/1999/xlink" width="300" height="50" viewBox="0 0 300 50" version="1.1">
<g id="surface1">
<path style=" stroke:none;fill-rule:nonzero;fill:rgb(14.901961%,40%,69.019608%);fill-opacity:1;" d="M 41.714844 49.710938 L 40.871094 49.710938 C 39.605469 49.625 38.132812 49.535156 36.867188 49.359375 C 31.601562 48.925781 26.335938 48.3125 21.066406 47.613281 C 11.375 46.039062 5.054688 42.800781 0.210938 39.039062 L 0.210938 37.640625 L 15.800781 34.402344 C 21.488281 39.214844 30.125 41.839844 43.1875 41.488281 C 51.824219 41.226562 57.515625 39.476562 58.988281 36.675781 C 60.464844 33.792969 57.304688 31.339844 49.296875 29.679688 C 46.558594 29.066406 43.609375 28.628906 40.871094 28.105469 C 33.285156 26.878906 25.914062 25.570312 18.75 24.082031 C 7.585938 21.457031 2.527344 17.257812 3.582031 12.011719 C 4.636719 7.113281 11.585938 3.789062 22.121094 1.949219 C 26.546875 1.339844 31.179688 0.726562 35.816406 0.289062 L 44.242188 0.289062 C 52.035156 0.988281 60.042969 1.777344 66.152344 4.136719 C 70.574219 5.886719 74.367188 7.8125 78.792969 9.824219 L 63.625 13.585938 C 60.042969 12.273438 56.882812 10.960938 53.511719 9.910156 C 47.613281 7.898438 39.394531 7.460938 32.234375 8.6875 C 25.914062 9.648438 22.542969 12.535156 24.859375 15.160156 C 25.703125 16.207031 27.386719 17.082031 29.496094 17.609375 C 32.023438 18.308594 34.550781 18.832031 37.289062 19.269531 C 47.402344 21.28125 58.566406 22.683594 67.835938 25.304688 C 87.21875 30.816406 85.113281 42.101562 64.675781 46.824219 C 58.777344 48.3125 52.035156 49.273438 45.085938 49.535156 "/>
<path style=" stroke:none;fill-rule:nonzero;fill:rgb(14.901961%,40%,69.019608%);fill-opacity:1;" d="M 118.398438 48.398438 L 97.121094 48.398438 L 97.121094 1.164062 C 102.175781 1.164062 107.234375 1.074219 112.289062 1.25 C 113.554688 1.25 115.027344 2.039062 115.871094 2.5625 C 133.988281 12.097656 152.105469 21.542969 170.015625 31.078125 C 170.644531 31.429688 171.277344 31.691406 172.542969 32.304688 L 172.542969 1.25 L 193.609375 1.25 L 193.609375 48.488281 C 188.765625 48.488281 184.128906 48.574219 179.285156 48.398438 C 178.019531 48.398438 176.753906 47.785156 175.703125 47.347656 C 157.585938 37.902344 139.464844 28.457031 121.558594 19.007812 C 120.714844 18.570312 119.875 18.132812 118.1875 17.347656 Z M 118.398438 48.398438 "/>
<path style=" stroke:none;fill-rule:nonzero;fill:rgb(14.901961%,40%,69.019608%);fill-opacity:1;" d="M 265.871094 8.597656 L 244.382812 8.597656 C 235.113281 8.597656 226.054688 8.597656 216.785156 8.597656 C 214.046875 8.597656 212.992188 8.335938 212.992188 7.113281 C 213.203125 5.539062 213.203125 3.960938 212.992188 2.386719 C 212.992188 1.511719 213.625 1.074219 215.941406 1.074219 C 243.328125 1.074219 270.714844 1.074219 298.105469 1.074219 C 298.316406 1.074219 298.523438 1.164062 299.367188 1.339844 C 281.039062 14.371094 262.710938 27.40625 244.171875 40.703125 L 300.210938 40.703125 L 300.210938 48.398438 L 210.042969 48.398438 C 228.792969 35.101562 247.121094 21.980469 265.871094 8.597656 Z M 265.871094 8.597656 "/>
</g>
</svg>
