<?xml version="1.0" encoding="utf-8"?>
<!-- Generator: Adobe Illustrator 26.3.1, SVG Export Plug-In . SVG Version: 6.00 Build 0)  -->
<svg version="1.1" id="Group_152" xmlns="http://www.w3.org/2000/svg" xmlns:xlink="http://www.w3.org/1999/xlink" x="0px" y="0px"
	 viewBox="0 0 142.4 56.5" style="enable-background:new 0 0 142.4 56.5;" xml:space="preserve">
<style type="text/css">
	.st0{fill:#2666B0;}
</style>
<g id="Group_151">
	<path id="Path_526" class="st0" d="M19.8,56.5h-0.4c-0.6-0.1-1.3-0.2-1.9-0.4c-2.5-0.5-5-1.2-7.5-2c-4.6-1.8-7.6-5.5-9.9-9.8v-1.6
		l7.4-3.7c2.7,5.5,6.8,8.5,13,8.1c4.1-0.3,6.8-2.3,7.5-5.5c0.7-3.3-0.8-6.1-4.6-8c-1.3-0.7-2.7-1.2-4-1.8c-3.6-1.4-7.1-2.9-10.5-4.6
		c-5.3-3-7.7-7.8-7.2-13.8c0.5-5.6,3.8-9.4,8.8-11.5C12.6,1.2,14.8,0.5,17,0h4c3.7,0.8,7.5,1.7,10.4,4.4c2.1,2,3.9,4.2,6,6.5
		l-7.2,4.3c-1.7-1.5-3.2-3-4.8-4.2c-2.8-2.3-6.7-2.8-10.1-1.4c-3,1.1-4.6,4.4-3.5,7.4c0.4,1.2,1.2,2.2,2.2,2.8
		c1.2,0.8,2.4,1.4,3.7,1.9c4.8,2.3,10.1,3.9,14.5,6.9c9.2,6.3,8.2,19.2-1.5,24.6c-2.8,1.7-6,2.8-9.3,3.1"/>
	<path id="Path_527" class="st0" d="M56.2,55H46.1V1c2.4,0,4.8-0.1,7.2,0.1c0.6,0,1.3,0.9,1.7,1.5c8.6,10.9,17.2,21.7,25.7,32.6
		c0.3,0.4,0.6,0.7,1.2,1.4V1.1h10v54c-2.3,0-4.5,0.1-6.8-0.1c-0.6,0-1.2-0.7-1.7-1.2c-8.6-10.8-17.2-21.6-25.7-32.4
		c-0.4-0.5-0.8-1-1.6-1.9L56.2,55z"/>
	<path id="Path_528" class="st0" d="M126.2,9.5h-10.2c-4.4,0-8.7,0-13.1,0c-1.3,0-1.8-0.3-1.8-1.7c0.1-1.8,0.1-3.6,0-5.4
		c0-1,0.3-1.5,1.4-1.5c13,0,26,0,39,0c0.1,0,0.2,0.1,0.6,0.3c-8.7,14.9-17.4,29.8-26.2,45h26.6V55H99.7
		C108.6,39.8,117.3,24.8,126.2,9.5z"/>
</g>
</svg>
