<svg id="Group_152" data-name="Group 152" xmlns="http://www.w3.org/2000/svg" width="142.389" height="56.521" viewBox="0 0 142.389 56.521">
  <g id="Group_151" data-name="Group 151">
    <path id="Path_526" data-name="Path 526" d="M-446.021,553.445h-.4c-.648-.131-1.3-.233-1.945-.394a63.2,63.2,0,0,1-7.5-1.959c-4.65-1.805-7.594-5.516-9.935-9.758v-1.616l7.391-3.687c2.689,5.518,6.812,8.524,13.023,8.086,4.084-.289,6.822-2.295,7.517-5.49.721-3.321-.847-6.129-4.58-8.046-1.306-.672-2.689-1.194-4.042-1.78a113.972,113.972,0,0,1-10.46-4.583c-5.306-2.957-7.692-7.806-7.188-13.821.471-5.616,3.787-9.359,8.832-11.528a56.934,56.934,0,0,1,6.463-1.945h4.037c3.736.823,7.5,1.675,10.371,4.41,2.066,1.966,3.893,4.184,6.038,6.523l-7.2,4.275c-1.723-1.518-3.153-2.95-4.758-4.154a9.705,9.705,0,0,0-10.052-1.364,5.788,5.788,0,0,0-1.362,10.229,21.054,21.054,0,0,0,3.729,1.936c4.839,2.267,10.089,3.921,14.45,6.885,9.243,6.283,8.226,19.157-1.537,24.637a21.578,21.578,0,0,1-9.291,3.144" transform="translate(465.803 -496.924)" fill="#d6c07c"/>
    <path id="Path_527" data-name="Path 527" d="M-435.926,551.419h-10.1V497.365c2.386,0,4.781-.1,7.155.07.616.047,1.255.907,1.733,1.511q12.874,16.3,25.71,32.63c.285.362.618.69,1.231,1.369V497.509h9.977v54.017c-2.255,0-4.527.084-6.787-.058-.581-.037-1.234-.7-1.656-1.236q-12.877-16.169-25.7-32.378c-.417-.525-.842-1.04-1.56-1.924Z" transform="translate(492.146 -496.378)" fill="#d6c07c"/>
    <path id="Path_528" data-name="Path 528" d="M-396.6,505.92h-10.234c-4.373,0-8.746-.04-13.119.023-1.283.019-1.833-.329-1.761-1.7.1-1.812.054-3.634.012-5.448-.021-.987.261-1.472,1.36-1.469q19.475.049,38.953.049c.112,0,.224.112.585.308-8.695,14.931-17.382,29.85-26.231,45.042h26.65v8.687h-42.647C-414.195,536.194-405.493,521.217-396.6,505.92Z" transform="translate(522.778 -496.383)" fill="#d6c07c"/>
  </g>
</svg>
