<?xml version="1.0" encoding="UTF-8"?>
<svg xmlns="http://www.w3.org/2000/svg" xmlns:xlink="http://www.w3.org/1999/xlink" width="300" height="60" viewBox="0 0 300 60" version="1.1">
<g id="surface1">
<path style=" stroke:none;fill-rule:nonzero;fill:rgb(14.901961%,40%,69.019608%);fill-opacity:1;" d="M 41.714844 59.652344 L 40.871094 59.652344 C 39.605469 59.546875 38.132812 59.445312 36.867188 59.234375 C 31.601562 58.707031 26.335938 57.972656 21.066406 57.132812 C 11.375 55.246094 5.054688 51.359375 0.210938 46.847656 L 0.210938 45.167969 L 15.800781 41.285156 C 21.488281 47.058594 30.125 50.207031 43.1875 49.785156 C 51.824219 49.472656 57.515625 47.371094 58.988281 44.011719 C 60.464844 40.550781 57.304688 37.609375 49.296875 35.617188 C 46.558594 34.882812 43.609375 34.355469 40.871094 33.726562 C 33.285156 32.257812 25.914062 30.683594 18.75 28.898438 C 7.585938 25.75 2.527344 20.710938 3.582031 14.414062 C 4.636719 8.535156 11.585938 4.546875 22.121094 2.339844 C 26.546875 1.605469 31.179688 0.871094 35.816406 0.347656 L 44.242188 0.347656 C 52.035156 1.1875 60.042969 2.132812 66.152344 4.964844 C 70.574219 7.066406 74.367188 9.375 78.792969 11.789062 L 63.625 16.300781 C 60.042969 14.726562 56.882812 13.152344 53.511719 11.894531 C 47.613281 9.480469 39.394531 8.953125 32.234375 10.421875 C 25.914062 11.578125 22.542969 15.042969 24.859375 18.191406 C 25.703125 19.449219 27.386719 20.5 29.496094 21.128906 C 32.023438 21.96875 34.550781 22.601562 37.289062 23.125 C 47.402344 25.539062 58.566406 27.21875 67.835938 30.367188 C 87.21875 36.980469 85.113281 50.519531 64.675781 56.1875 C 58.777344 57.972656 52.035156 59.128906 45.085938 59.445312 "/>
<path style=" stroke:none;fill-rule:nonzero;fill:rgb(14.901961%,40%,69.019608%);fill-opacity:1;" d="M 118.398438 58.078125 L 97.121094 58.078125 L 97.121094 1.394531 C 102.175781 1.394531 107.234375 1.292969 112.289062 1.5 C 113.554688 1.5 115.027344 2.445312 115.871094 3.074219 C 133.988281 14.515625 152.105469 25.855469 170.015625 37.296875 C 170.644531 37.714844 171.277344 38.03125 172.542969 38.765625 L 172.542969 1.5 L 193.609375 1.5 L 193.609375 58.183594 C 188.765625 58.183594 184.128906 58.289062 179.285156 58.078125 C 178.019531 58.078125 176.753906 57.34375 175.703125 56.820312 C 157.585938 45.484375 139.464844 34.144531 121.558594 22.808594 C 120.714844 22.285156 119.875 21.761719 118.1875 20.816406 Z M 118.398438 58.078125 "/>
<path style=" stroke:none;fill-rule:nonzero;fill:rgb(14.901961%,40%,69.019608%);fill-opacity:1;" d="M 265.871094 10.320312 L 244.382812 10.320312 C 235.113281 10.320312 226.054688 10.320312 216.785156 10.320312 C 214.046875 10.320312 212.992188 10.003906 212.992188 8.535156 C 213.203125 6.644531 213.203125 4.753906 212.992188 2.867188 C 212.992188 1.816406 213.625 1.292969 215.941406 1.292969 C 243.328125 1.292969 270.714844 1.292969 298.105469 1.292969 C 298.316406 1.292969 298.523438 1.394531 299.367188 1.605469 C 281.039062 17.246094 262.710938 32.886719 244.171875 48.839844 L 300.210938 48.839844 L 300.210938 58.078125 L 210.042969 58.078125 C 228.792969 42.125 247.121094 26.378906 265.871094 10.320312 Z M 265.871094 10.320312 "/>
</g>
</svg>
