<?xml version="1.0" encoding="utf-8"?>
<!-- Generator: Adobe Illustrator 26.3.1, SVG Export Plug-In . SVG Version: 6.00 Build 0)  -->
<svg version="1.1" id="katman_1" xmlns="http://www.w3.org/2000/svg" xmlns:xlink="http://www.w3.org/1999/xlink" x="0px" y="0px"
	 viewBox="0 0 167.2 20.4" style="enable-background:new 0 0 167.2 20.4;" xml:space="preserve">
<style type="text/css">
	.st0{fill:#2666B0;}
</style>
<g id="Group_154" transform="translate(-27.126 -4.231)">
	<path id="Path_548" class="st0" d="M178.5,4.2l13.2,13.8V5.5h2.6v19.2l-13-13.6l-0.2,0.1v12.5h-2.6L178.5,4.2z"/>
	<path id="Path_549" class="st0" d="M103.3,5.3c2,0.1,3.8,0.1,5.6,0.3c2.3,0.2,4.2,2,4.5,4.3c0.4,2.4-1,4.8-3.3,5.8
		c-0.2,0.1-0.3,0.2-0.6,0.3l5.6,7.7c-1.2,0-2.1,0-3.1,0c-0.2,0-0.5-0.4-0.7-0.6c-1.5-2.1-2.9-4.1-4.4-6.2c-0.2-0.2-0.4-0.5-0.6-0.7
		l-0.2,0.1v7.4h-2.8L103.3,5.3z M106.1,7.9v5.8c1.6,0,3.3,0.2,4.3-1.3c0.7-0.9,0.7-2.2,0-3.1C109.4,7.8,107.8,8,106.1,7.9L106.1,7.9
		z"/>
	<path id="Path_550" class="st0" d="M27.1,18.6l2.6-0.6c0.1,0.3,0.1,0.6,0.2,0.8c0.2,1.5,1.5,2.6,3,2.6c1.4,0,2.6-0.9,2.9-2.2
		c0.4-1.4-0.2-2.9-1.6-3.5c-1-0.5-2-0.9-3-1.4c-1.4-0.5-2.6-1.6-3.2-3c-0.8-2.5,0.6-5.2,3.1-6c0.3-0.1,0.6-0.2,0.9-0.2
		c2.4-0.4,4.9,0.8,6,3l-2.1,1.3c-0.6-1.2-1.8-1.9-3.1-1.7c-1.1,0.1-2,0.8-2.3,1.8c-0.2,1,0.3,1.8,1.5,2.3c0.9,0.4,1.9,0.7,2.8,1.2
		c1.7,0.8,3.2,1.8,3.7,3.7c0.8,3-0.9,6.1-3.9,7c-0.2,0.1-0.4,0.1-0.5,0.1c-3.1,0.7-6.2-1.2-6.9-4.3C27.2,19.1,27.1,18.9,27.1,18.6z"
		/>
	<path id="Path_551" class="st0" d="M52.7,5.3c2.1,0.1,4,0.1,5.9,0.3c2.1,0.3,3.8,2,4.1,4.1c0.4,2.1-0.4,4.2-2.2,5.4
		c-1.2,0.8-2.5,1.1-3.9,1.1c-0.4,0-0.7,0-1.2,0v7.3h-2.7V5.3z M55.3,13.7c0.8,0,1.4,0.1,2,0c1.8-0.2,2.8-1.2,2.8-2.8
		S59.4,8.3,57.6,8c-0.6-0.1-1.1-0.1-1.7-0.1c-0.2,0-0.6,0.3-0.6,0.5C55.3,10.1,55.3,11.8,55.3,13.7L55.3,13.7z"/>
	<path id="Path_552" class="st0" d="M164.5,23.5c-0.2,0.1-0.2,0.1-0.3,0.1c-2.7,0.1-2.6,0.1-3.7-2.3c-1.5-3.4-2.9-6.8-4.4-10.2
		c-0.1-0.1-0.1-0.3-0.3-0.6c-0.2,0.4-0.4,0.7-0.5,1c-1.7,3.8-3.5,7.5-5.2,11.3c-0.3,0.7-0.7,1-1.5,0.9c-0.6,0-1.3,0-1.9,0l9-19.4
		C158.8,10.8,161.6,17.1,164.5,23.5z"/>
	<path id="Path_553" class="st0" d="M80.8,10.4c-0.2,0.5-0.4,0.8-0.5,1.1c-1.7,3.7-3.4,7.5-5.1,11.2c-0.2,0.6-0.8,1-1.5,0.9
		c-0.5-0.1-1.1,0-1.9,0l9-19.4l8.6,19.4c-0.8,0-1.7,0-2.5,0c-0.3,0-0.6-0.5-0.8-0.8c-1.7-3.8-3.3-7.7-5-11.6
		C81.1,11,81,10.8,80.8,10.4z"/>
	<path id="Path_554" class="st0" d="M124.1,5.4h14.6C138,6.2,137.5,7,137,7.7c-0.1,0.2-0.5,0.2-0.8,0.2c-1.1,0-2.2,0-3.5,0v15.7H130
		c0-0.4,0-0.8-0.1-1.1c0-4.5,0-9,0-13.5c0-0.8-0.3-1.1-1.1-1c-0.4,0-0.9,0-1.3,0C125.6,7.9,125,7.4,124.1,5.4z"/>
</g>
</svg>
