<?xml version="1.0" encoding="UTF-8"?>
<svg xmlns="http://www.w3.org/2000/svg" xmlns:xlink="http://www.w3.org/1999/xlink" width="300" height="60" viewBox="0 0 300 60" version="1.1">
<g id="surface1">
<path style=" stroke:none;fill-rule:nonzero;fill:rgb(14.901961%,40%,69.019608%);fill-opacity:1;" d="M 269.363281 -0.0898438 L 292.609375 40.496094 L 292.609375 3.730469 L 297.1875 3.730469 L 297.1875 60.203125 L 274.292969 20.203125 L 273.941406 20.496094 L 273.941406 57.261719 L 269.363281 57.261719 Z M 269.363281 -0.0898438 "/>
<path style=" stroke:none;fill-rule:nonzero;fill:rgb(14.901961%,40%,69.019608%);fill-opacity:1;" d="M 136.921875 3.144531 C 140.445312 3.4375 143.613281 3.4375 146.785156 4.027344 C 150.835938 4.613281 154.179688 9.910156 154.710938 16.671875 C 155.414062 23.730469 152.949219 30.792969 148.898438 33.730469 C 148.546875 34.027344 148.371094 34.320312 147.839844 34.613281 L 157.703125 57.261719 C 155.589844 57.261719 154.003906 57.261719 152.242188 57.261719 C 151.890625 57.261719 151.363281 56.085938 151.011719 55.496094 C 148.371094 49.320312 145.902344 43.4375 143.261719 37.261719 C 142.910156 36.671875 142.558594 35.792969 142.203125 35.203125 L 141.851562 35.496094 L 141.851562 57.261719 L 136.921875 57.261719 Z M 141.851562 10.792969 L 141.851562 27.851562 C 144.671875 27.851562 147.664062 28.4375 149.425781 24.027344 C 150.660156 21.378906 150.660156 17.554688 149.425781 14.910156 C 147.664062 10.496094 144.847656 11.085938 141.851562 10.792969 Z M 141.851562 10.792969 "/>
<path style=" stroke:none;fill-rule:nonzero;fill:rgb(14.901961%,40%,69.019608%);fill-opacity:1;" d="M 2.71875 42.261719 L 7.296875 40.496094 C 7.472656 41.378906 7.472656 42.261719 7.652344 42.851562 C 8.003906 47.261719 10.292969 50.496094 12.933594 50.496094 C 15.398438 50.496094 17.511719 47.851562 18.042969 44.027344 C 18.746094 39.910156 17.6875 35.496094 15.222656 33.730469 C 13.460938 32.261719 11.703125 31.085938 9.941406 29.613281 C 7.472656 28.144531 5.359375 24.910156 4.304688 20.792969 C 2.894531 13.4375 5.359375 5.496094 9.765625 3.144531 C 10.292969 2.851562 10.820312 2.554688 11.347656 2.554688 C 15.574219 1.378906 19.980469 4.910156 21.917969 11.378906 L 18.21875 15.203125 C 17.160156 11.671875 15.046875 9.613281 12.757812 10.203125 C 10.820312 10.496094 9.234375 12.554688 8.707031 15.496094 C 8.355469 18.4375 9.234375 20.792969 11.347656 22.261719 C 12.933594 23.4375 14.695312 24.320312 16.28125 25.792969 C 19.273438 28.144531 21.917969 31.085938 22.796875 36.671875 C 24.207031 45.496094 21.210938 54.613281 15.929688 57.261719 C 15.574219 57.554688 15.222656 57.554688 15.046875 57.554688 C 9.585938 59.613281 4.128906 54.027344 2.894531 44.910156 C 2.894531 43.730469 2.71875 43.144531 2.71875 42.261719 Z M 2.71875 42.261719 "/>
<path style=" stroke:none;fill-rule:nonzero;fill:rgb(14.901961%,40%,69.019608%);fill-opacity:1;" d="M 47.804688 3.144531 C 51.503906 3.4375 54.851562 3.4375 58.195312 4.027344 C 61.894531 4.910156 64.890625 9.910156 65.417969 16.085938 C 66.121094 22.261719 64.714844 28.4375 61.542969 31.96875 C 59.429688 34.320312 57.140625 35.203125 54.675781 35.203125 C 53.96875 35.203125 53.441406 35.203125 52.5625 35.203125 L 52.5625 56.671875 L 47.804688 56.671875 Z M 52.382812 27.851562 C 53.792969 27.851562 54.851562 28.144531 55.90625 27.851562 C 59.078125 27.261719 60.839844 24.320312 60.839844 19.613281 C 60.839844 14.910156 59.605469 11.96875 56.433594 11.085938 C 55.378906 10.792969 54.5 10.792969 53.441406 10.792969 C 53.089844 10.792969 52.382812 11.671875 52.382812 12.261719 C 52.382812 17.261719 52.382812 22.261719 52.382812 27.851562 Z M 52.382812 27.851562 "/>
<path style=" stroke:none;fill-rule:nonzero;fill:rgb(14.901961%,40%,69.019608%);fill-opacity:1;" d="M 244.707031 56.671875 C 244.355469 56.96875 244.355469 56.96875 244.175781 56.96875 C 239.421875 57.261719 239.597656 57.261719 237.660156 50.203125 C 235.019531 40.203125 232.554688 30.203125 229.910156 20.203125 C 229.734375 19.910156 229.734375 19.320312 229.382812 18.4375 C 229.03125 19.613281 228.679688 20.496094 228.503906 21.378906 C 225.507812 32.554688 222.339844 43.4375 219.34375 54.613281 C 218.816406 56.671875 218.113281 57.554688 216.703125 57.261719 C 215.644531 57.261719 214.414062 57.261719 213.355469 57.261719 L 229.207031 0.203125 C 234.667969 19.320312 239.597656 37.851562 244.707031 56.671875 Z M 244.707031 56.671875 "/>
<path style=" stroke:none;fill-rule:nonzero;fill:rgb(14.901961%,40%,69.019608%);fill-opacity:1;" d="M 97.292969 18.144531 C 96.941406 19.613281 96.589844 20.496094 96.414062 21.378906 C 93.421875 32.261719 90.425781 43.4375 87.433594 54.320312 C 87.078125 56.085938 86.023438 57.261719 84.789062 56.96875 C 83.910156 56.671875 82.851562 56.96875 81.445312 56.96875 L 97.292969 -0.0898438 L 112.441406 56.96875 C 111.03125 56.96875 109.445312 56.96875 108.039062 56.96875 C 107.507812 56.96875 106.980469 55.496094 106.628906 54.613281 C 103.636719 43.4375 100.816406 31.96875 97.824219 20.496094 C 97.824219 19.910156 97.648438 19.320312 97.292969 18.144531 Z M 97.292969 18.144531 "/>
<path style=" stroke:none;fill-rule:nonzero;fill:rgb(14.901961%,40%,69.019608%);fill-opacity:1;" d="M 173.554688 3.4375 L 199.265625 3.4375 C 198.035156 5.792969 197.152344 8.144531 196.273438 10.203125 C 196.097656 10.792969 195.394531 10.792969 194.863281 10.792969 C 192.925781 10.792969 190.988281 10.792969 188.699219 10.792969 L 188.699219 56.96875 L 183.945312 56.96875 C 183.945312 55.792969 183.945312 54.613281 183.769531 53.730469 C 183.769531 40.496094 183.769531 27.261719 183.769531 14.027344 C 183.769531 11.671875 183.242188 10.792969 181.832031 11.085938 C 181.128906 11.085938 180.246094 11.085938 179.542969 11.085938 C 176.195312 10.792969 175.140625 9.320312 173.554688 3.4375 Z M 173.554688 3.4375 "/>
</g>
</svg>
