<?xml version="1.0" encoding="UTF-8"?>
<svg id="katman_1" data-name="katman 1" xmlns="http://www.w3.org/2000/svg" viewBox="0 0 300 100">
  <g id="Group_154" data-name="Group 154" transform="translate(-27.126 -4.231)">
    <path id="Path_548" data-name="Path 548" d="M217.8,39.55l13.24,13.85v-12.6h2.63v19.16l-13.03-13.62-.24,.09v12.47h-2.6v-19.35Z"/>
    <path id="Path_549" data-name="Path 549" d="M142.6,40.64c1.97,.09,3.83,.06,5.64,.3,2.32,.17,4.18,1.96,4.45,4.27,.38,2.44-.97,4.83-3.26,5.76-.17,.07-.32,.17-.6,.32l5.56,7.66c-1.16,0-2.14,.04-3.11-.03-.23-.01-.48-.35-.65-.59-1.47-2.07-2.92-4.15-4.39-6.22-.2-.25-.41-.48-.63-.71l-.25,.1v7.4h-2.77v-18.26Zm2.8,2.62v5.77c1.63,.01,3.26,.22,4.3-1.32,.66-.92,.68-2.16,.04-3.1-1.02-1.52-2.68-1.32-4.33-1.35h0Z"/>
    <path id="Path_550" data-name="Path 550" d="M66.42,53.88l2.63-.56c.08,.34,.14,.57,.19,.81,.24,1.49,1.52,2.58,3.02,2.58,1.36,0,2.56-.9,2.95-2.2,.43-1.41-.25-2.93-1.59-3.55-.96-.52-1.99-.91-2.99-1.35-1.44-.52-2.58-1.62-3.16-3.03-.79-2.53,.61-5.22,3.14-6.02,.29-.09,.6-.16,.9-.19,2.44-.44,4.89,.78,6,3l-2.13,1.28c-.58-1.17-1.83-1.85-3.12-1.71-1.09,.05-2.03,.8-2.33,1.85-.18,.98,.29,1.78,1.48,2.35,.9,.43,1.86,.74,2.77,1.15,1.7,.77,3.19,1.78,3.72,3.72,.85,3-.89,6.11-3.89,6.96-.18,.05-.36,.09-.54,.13-3.1,.71-6.19-1.23-6.91-4.33-.07-.29-.11-.59-.13-.89Z"/>
    <path id="Path_551" data-name="Path 551" d="M91.95,40.63c2.05,.1,4,.09,5.92,.31,2.12,.33,3.78,2,4.09,4.12,.43,2.09-.44,4.23-2.21,5.42-1.16,.75-2.52,1.15-3.91,1.14h-1.22v7.27h-2.67v-18.26Zm2.69,8.36c.78,0,1.41,.05,2.03-.01,1.81-.19,2.8-1.18,2.84-2.78s-.79-2.55-2.61-2.87c-.55-.1-1.12-.14-1.68-.11-.2,.01-.55,.32-.56,.51-.04,1.72-.02,3.44-.02,5.27h0Z"/>
    <path id="Path_552" data-name="Path 552" d="M203.82,58.85c-.2,.06-.23,.08-.26,.08-2.65,.14-2.64,.13-3.7-2.33-1.47-3.42-2.94-6.83-4.43-10.24-.06-.14-.14-.27-.31-.57-.2,.4-.35,.68-.49,.97-1.73,3.75-3.47,7.5-5.16,11.27-.31,.7-.67,1.04-1.46,.95-.63-.04-1.27-.05-1.9-.01l9.02-19.37c2.94,6.54,5.8,12.88,8.68,19.27Z"/>
    <path id="Path_553" data-name="Path 553" d="M120.06,45.72c-.24,.51-.4,.81-.53,1.11-1.7,3.74-3.43,7.46-5.1,11.22-.18,.65-.82,1.05-1.48,.91-.55-.06-1.11-.01-1.85-.01l9.02-19.36,8.6,19.36c-.83,.05-1.67,.03-2.5-.04-.29-.04-.62-.47-.76-.79-1.69-3.85-3.35-7.71-5.01-11.56-.08-.2-.17-.39-.38-.84Z"/>
    <path id="Path_554" data-name="Path 554" d="M163.4,40.71h14.57c-.64,.86-1.15,1.59-1.72,2.27-.14,.17-.51,.19-.77,.2-1.12,.02-2.25,0-3.51,0v15.7h-2.71c-.02-.4-.05-.77-.05-1.13,0-4.52-.02-9.03,.02-13.55,0-.85-.25-1.14-1.07-1.03-.44,.03-.88,.03-1.32,0-1.95,0-2.58-.45-3.44-2.48Z"/>
  </g>
</svg>