<svg xmlns="http://www.w3.org/2000/svg" width="167.25" height="20.407" viewBox="0 0 167.25 20.407">
  <g id="Group_154" data-name="Group 154" transform="translate(-27.126 -4.231)">
    <path id="Path_548" data-name="Path 548" d="M-302.38,504.649l13.245,13.847V505.9h2.626v19.159l-13.032-13.622-.238.091v12.468h-2.6Z" transform="translate(480.885 -500.418)"/>
    <path id="Path_549" data-name="Path 549" d="M-328.691,505.113c1.969.093,3.825.058,5.644.3a4.835,4.835,0,0,1,4.45,4.27,5.334,5.334,0,0,1-3.256,5.761c-.166.072-.32.168-.6.317l5.558,7.657c-1.164,0-2.139.04-3.109-.028-.231-.014-.48-.352-.651-.592-1.469-2.067-2.92-4.147-4.385-6.218a8.2,8.2,0,0,0-.632-.707l-.25.1v7.4h-2.771Zm2.8,2.619V513.5c1.63.012,3.263.217,4.3-1.318a2.709,2.709,0,0,0,.037-3.1C-322.573,507.562-324.232,507.76-325.888,507.732Z" transform="translate(432 -499.8)"/>
    <path id="Path_550" data-name="Path 550" d="M-355.656,518.555l2.628-.56c.079.338.135.574.189.812a3.064,3.064,0,0,0,3.02,2.584,3.081,3.081,0,0,0,2.948-2.2,2.959,2.959,0,0,0-1.588-3.55c-.961-.52-1.992-.905-2.99-1.355a5.409,5.409,0,0,1-3.163-3.034,4.8,4.8,0,0,1,4.042-6.208,5.6,5.6,0,0,1,6,3l-2.132,1.276a3.092,3.092,0,0,0-3.123-1.707,2.558,2.558,0,0,0-2.335,1.849c-.177.977.289,1.78,1.479,2.346.9.431,1.859.742,2.768,1.154,1.7.772,3.193,1.782,3.722,3.718a5.638,5.638,0,0,1-4.427,7.088A5.763,5.763,0,0,1-355.656,518.555Z" transform="translate(382.782 -500.002)"/>
    <path id="Path_551" data-name="Path 551" d="M-346.6,505.11c2.055.1,4,.086,5.922.313a4.89,4.89,0,0,1,4.091,4.119,5.259,5.259,0,0,1-2.209,5.422,7.062,7.062,0,0,1-3.911,1.136c-.366,0-.732,0-1.22,0v7.274H-346.6Zm2.689,8.361c.784,0,1.411.054,2.027-.012,1.807-.187,2.8-1.18,2.843-2.782s-.793-2.547-2.607-2.871a6.982,6.982,0,0,0-1.677-.11c-.205.012-.555.324-.56.508C-343.925,509.921-343.909,511.64-343.909,513.471Z" transform="translate(399.257 -499.804)"/>
    <path id="Path_552" data-name="Path 552" d="M-295.937,523.93c-.2.061-.228.077-.259.079-2.654.138-2.645.133-3.7-2.328q-2.2-5.129-4.434-10.245c-.058-.14-.14-.268-.306-.574-.2.4-.354.683-.487.97-1.726,3.753-3.468,7.5-5.161,11.265-.31.7-.672,1.04-1.458.945a16.7,16.7,0,0,0-1.9-.014l9.023-19.367C-301.675,511.2-298.818,517.537-295.937,523.93Z" transform="translate(460.461 -500.402)"/>
    <path id="Path_553" data-name="Path 553" d="M-331.01,510.792c-.245.511-.4.809-.534,1.113-1.7,3.736-3.431,7.463-5.1,11.218a1.273,1.273,0,0,1-1.479.914c-.548-.058-1.105-.012-1.852-.012l9.023-19.362,8.6,19.357a18.064,18.064,0,0,1-2.5-.037c-.292-.044-.618-.467-.763-.791-1.689-3.846-3.347-7.706-5.014-11.561C-330.711,511.431-330.8,511.238-331.01,510.792Z" transform="translate(411.78 -500.4)"/>
    <path id="Path_554" data-name="Path 554" d="M-321.459,505.144h14.567c-.641.858-1.147,1.593-1.723,2.272-.14.166-.506.191-.767.2-1.124.021-2.246.009-3.505.009v15.7h-2.71c-.019-.4-.049-.767-.051-1.131,0-4.518-.023-9.033.016-13.548.009-.846-.252-1.136-1.068-1.033a10.742,10.742,0,0,1-1.315.009C-319.966,507.621-320.6,507.175-321.459,505.144Z" transform="translate(445.572 -499.759)"/>
  </g>
</svg>
