<?xml version="1.0" encoding="utf-8"?>
<!-- Generator: Adobe Illustrator 26.3.1, SVG Export Plug-In . SVG Version: 6.00 Build 0)  -->
<svg version="1.1" id="katman_1" xmlns="http://www.w3.org/2000/svg" xmlns:xlink="http://www.w3.org/1999/xlink" x="0px" y="0px"
	 viewBox="0 0 300 100" style="enable-background:new 0 0 300 100;" xml:space="preserve">
<style type="text/css">
	.st0{fill:#2163AF;}
</style>
<g id="Group_155" transform="translate(8.94 9.907)">
	<path id="Path_555" class="st0" d="M122.8,21.5V22c0,4.7,0,9.4,0,14.1c0,0.3-0.1,0.5-0.4,0.4c-0.7,0-1.4,0-2.1,0
		c-0.3,0-0.4-0.1-0.4-0.4c0-2.5,0-4.9,0-7.4c0-3.9,0-7.7,0-11.5c0-0.3,0.1-0.4,0.4-0.4c0.8,0,1.5,0,2.3,0c0.2,0,0.5,0.1,0.6,0.3
		c3.4,4.7,6.8,9.3,10.1,14c0.1,0.1,0.2,0.3,0.4,0.5v-0.5c0-4.6,0-9.2,0-13.8c0-0.3,0.1-0.4,0.4-0.4c0.7,0,1.4,0,2.1,0
		c0.3,0,0.4,0.1,0.4,0.4c0,5.5,0,11.1,0,16.6c0,0.8,0,1.6,0,2.4c0,0.2-0.1,0.3-0.3,0.3c-0.7,0-1.5,0-2.2,0c-0.3,0-0.5-0.1-0.7-0.3
		c-3.4-4.8-6.8-9.5-10.2-14.2C123,21.8,122.9,21.6,122.8,21.5L122.8,21.5z"/>
	<path id="Path_556" class="st0" d="M141,26.6c0-3.1,0-6.3,0-9.4c0-0.4,0.1-0.4,0.4-0.4c2.4,0,4.8,0,7.1,0c3.2-0.1,6.2,1.5,8.1,4.1
		c1.4,2,1.9,4.5,1.6,6.9c-0.2,2.2-1.1,4.2-2.7,5.8c-1.6,1.6-3.7,2.6-6,2.8c-2.5,0.2-5,0.1-7.5,0.1c-0.4,0-0.8,0.1-1.1-0.1
		c-0.3-0.2-0.1-0.7-0.1-1C141,32.5,141,29.5,141,26.6z M143.9,26.6c0,2.3,0,4.6,0,6.9c0,0.2,0,0.4,0.3,0.4c1.4,0,2.7,0,4.1,0
		c2.6,0.1,5-1.4,6.1-3.8c0.7-1.6,0.9-3.3,0.6-5c-0.4-3.1-3-5.4-6.1-5.7c-1.6-0.1-3.1,0-4.7-0.1c-0.4,0-0.4,0.1-0.4,0.4
		C143.9,22,143.9,24.3,143.9,26.6L143.9,26.6z"/>
	<path id="Path_557" class="st0" d="M198.8,26.6c0-3.2,0-6.3,0-9.5c0-0.3,0.1-0.4,0.4-0.4c2.4,0,4.8,0,7.2,0
		c3.2-0.1,6.2,1.5,8.1,4.1c1.4,2,1.9,4.5,1.6,6.9c-0.2,2.2-1.1,4.3-2.7,5.8c-1.6,1.6-3.7,2.6-5.9,2.8c-2.5,0.2-5,0.1-7.4,0.1
		c-0.4,0-0.9,0.1-1.1-0.1c-0.3-0.2-0.1-0.8-0.1-1.2C198.7,32.4,198.8,29.5,198.8,26.6z M201.7,26.6c0,2.3,0,4.6,0,6.9
		c0,0.2,0,0.4,0.3,0.4c1.4,0,2.7,0,4.1,0c2.6,0.1,5-1.4,6.2-3.8c0.7-1.6,0.9-3.3,0.6-5c-0.4-3.1-3-5.4-6.1-5.7
		c-1.6-0.1-3.1,0-4.7-0.1c-0.3,0-0.4,0.1-0.4,0.4C201.7,22,201.7,24.3,201.7,26.6L201.7,26.6z"/>
	<path id="Path_558" class="st0" d="M196.7,53.6c0.1,2.3-0.5,4.5-1.8,6.4c-1.7,2.5-4.4,4-7.4,4c-2.3,0.2-4.6-0.4-6.5-1.7
		c-2.1-1.4-3.6-3.7-4-6.2c-0.6-2.7-0.2-5.5,1.2-7.9c1.5-2.6,4.2-4.3,7.2-4.6c2.2-0.3,4.4,0.1,6.3,1.1c2.6,1.4,4.4,4,4.8,6.9
		C196.7,52.4,196.7,53,196.7,53.6z M193.7,53.8c0-0.4,0-0.9-0.1-1.4c-0.3-3.4-3.2-6-6.6-6c-2.6-0.2-5.1,1.2-6.2,3.6
		c-1,2-1.2,4.3-0.6,6.4c0.9,3.6,4.6,5.9,8.2,5c1.1-0.3,2.1-0.8,2.9-1.5C192.9,58.2,193.8,56.1,193.7,53.8L193.7,53.8z"/>
	<path id="Path_559" class="st0" d="M195.2,36.5c-1.1,0-2.2,0-3.3,0c-0.2,0-0.3-0.2-0.4-0.3c-1.4-2.3-2.9-4.6-4.3-6.9
		c-0.1-0.3-0.4-0.5-0.8-0.4c-0.9,0-1.8,0-2.8,0c-0.3,0-0.4,0.1-0.4,0.4c0,2.3,0,4.6,0,6.8c0,0.3-0.1,0.4-0.4,0.4c-0.8,0-1.5,0-2.3,0
		c-0.2,0-0.3-0.1-0.3-0.3c0-6.4,0-12.8,0-19.1c0-0.2,0.1-0.3,0.3-0.3c2.8,0,5.7,0,8.5,0c3.2,0,5.8,2.5,5.9,5.7c0,0.2,0,0.4,0,0.5
		c0.1,2.7-1.9,5.1-4.6,5.5c-0.4,0.1-0.2,0.2-0.1,0.4c1.5,2.4,3.1,4.8,4.6,7.2L195.2,36.5z M183.4,22.8c0,1,0,2.1,0,3.1
		c0,0.2,0,0.3,0.3,0.3c1.6,0,3.3,0,4.9,0c1.9,0,3.4-1.4,3.5-3.3c0-0.5-0.1-1-0.3-1.4c-0.6-1.4-1.9-2.2-3.4-2.1c-1.5,0-3.1,0-4.6,0
		c-0.3,0-0.4,0.1-0.4,0.3C183.4,20.7,183.4,21.8,183.4,22.8L183.4,22.8z"/>
	<path id="Path_560" class="st0" d="M122.1,63.8c-1.1,0-2.2,0-3.2,0c-0.3,0-0.3-0.2-0.4-0.3c-1.4-2.3-2.9-4.6-4.3-7
		c-0.1-0.2-0.4-0.4-0.6-0.3c-0.4,0-0.8,0.2-1.1-0.1c-0.3-0.3-0.1-0.7-0.1-1s0-0.7,0-1s0.1-0.4,0.4-0.4c1,0.1,2.1,0,3.1-0.1
		c1.7-0.2,3-1.6,3-3.4c0-1.7-1.2-3.2-3-3.4c-0.5-0.1-1-0.1-1.5-0.1c-1.3,0-2.5,0-3.8,0c-0.3,0-0.4,0.1-0.4,0.4c0,0.1,0,0.3,0,0.4
		c0,5.3,0,10.7,0,16c0,0.2-0.1,0.3-0.3,0.3c-0.8,0-1.5,0-2.3,0c-0.3,0-0.4-0.1-0.4-0.4c0-1.8,0-3.7,0-5.5c0-4.5,0-8.9,0-13.4
		c0-0.3,0-0.4,0.4-0.4c2.7,0,5.5,0,8.2,0c2-0.1,3.8,0.9,5,2.5c1.6,2.2,1.6,6.7-1.5,8.5c-0.6,0.4-1.2,0.6-1.9,0.7
		c-0.4,0.1-0.3,0.2-0.2,0.4c1.5,2.4,3,4.7,4.5,7.1C121.8,63.4,121.9,63.6,122.1,63.8z"/>
	<path id="Path_561" class="st0" d="M98,36.5c0.5-1.3,1-2.6,1.5-3.9c2-5.1,4.1-10.3,6.1-15.4c0.1-0.3,0.3-0.5,0.6-0.4c1,0,2,0,3,0
		c0.2,0,0.4,0.1,0.4,0.3c2.5,6.4,5,12.7,7.6,19.1c0.1,0.4,0,0.4-0.3,0.4c-0.8,0-1.7,0-2.5,0c-0.2,0-0.4-0.1-0.5-0.3
		c-0.4-1.1-0.9-2.3-1.3-3.4c-0.1-0.2-0.2-0.3-0.5-0.3c-3,0-6,0-9,0c-0.2,0-0.4,0.1-0.5,0.3c-0.4,1.2-0.9,2.3-1.3,3.5
		c-0.1,0.1-0.1,0.3-0.3,0.3C100.1,36.5,99.1,36.5,98,36.5z M107.7,19.3l-3.9,10.4h7.9L107.7,19.3z"/>
	<path id="Path_562" class="st0" d="M178,36.5c-1,0-2,0-3,0c-0.2,0-0.2-0.2-0.3-0.3c-0.5-1.2-0.9-2.3-1.4-3.5c0-0.2-0.3-0.4-0.5-0.3
		c-3,0-6,0-8.9,0c-0.2,0-0.5,0.1-0.5,0.4c-0.4,1.1-0.9,2.3-1.3,3.4c0,0.2-0.2,0.3-0.4,0.3c-1,0-1.9,0-3,0c0.3-0.7,0.5-1.3,0.8-2
		c2.3-5.8,4.6-11.5,6.9-17.3c0.1-0.3,0.3-0.5,0.6-0.5c1,0,2,0,3,0c0.2,0,0.3,0.1,0.4,0.3c2.5,6.4,5.1,12.8,7.6,19.2
		C178,36.3,178,36.4,178,36.5z M168.4,19.4c-0.1,0.1-0.1,0.2-0.2,0.3c-1.2,3.2-2.5,6.5-3.7,9.7c-0.1,0.3-0.1,0.4,0.3,0.4
		c2.4,0,4.8,0,7.1,0c0.4,0,0.4-0.1,0.3-0.4c-0.6-1.6-1.2-3.2-1.8-4.7C169.7,22.9,169.1,21.2,168.4,19.4L168.4,19.4z"/>
	<path id="Path_563" class="st0" d="M79.7,21.4c-0.8-0.8-1.7-1.4-2.8-1.8c-1.4-0.6-3.1-0.7-4.6-0.3c-0.6,0.2-1.2,0.6-1.5,1.1
		c-0.7,0.9-0.6,2.2,0.3,3c0.1,0,0.2,0.1,0.3,0.1c0.8,0.5,1.7,0.8,2.7,1c1.2,0.3,2.5,0.6,3.7,1.1c0.5,0.2,0.9,0.4,1.3,0.6
		c4,2,3.4,7.5,0.3,9.4c-1.1,0.7-2.4,1.1-3.7,1.1c-2.5,0.3-4.9-0.2-7.1-1.5c-0.6-0.4-1.2-0.9-1.7-1.4c-0.1-0.1-0.2-0.2-0.1-0.4
		c0.5-0.6,0.9-1.2,1.4-1.9c0.2-0.2,0.2-0.1,0.4,0c1.3,1.4,3,2.3,4.9,2.5c1.2,0.2,2.5,0.1,3.7-0.4c1.3-0.5,2-1.8,1.7-3.1
		c-0.2-0.7-0.7-1.3-1.4-1.7c-0.8-0.4-1.7-0.7-2.7-1c-1.4-0.3-2.8-0.7-4.1-1.3c-0.3-0.1-0.6-0.3-0.8-0.4c-2.4-1.3-3.3-4.3-2-6.7
		c0.2-0.2,0.5-0.6,0.8-0.9c1-1.1,2.4-1.8,3.9-2c2.5-0.4,5.1,0,7.3,1.4c0.5,0.3,0.9,0.7,1.4,1c0.1,0.1,0.2,0.2,0,0.4
		C80.8,20,80.3,20.7,79.7,21.4z"/>
	<path id="Path_564" class="st0" d="M143.8,53.9c0-3.2,0-6.3,0-9.5c0-0.3,0-0.4,0.4-0.4c2.8,0,5.5,0,8.3,0c2.7-0.1,5.1,1.7,5.7,4.3
		c1,3.8-1.3,7.7-5.9,7.8c-1.1,0-2.1,0-3.1,0c-0.3,0-0.3-0.1-0.3-0.3c0-0.7,0-1.3,0-2c0-0.3,0.1-0.3,0.3-0.3c1.1,0,2.2,0,3.3-0.1
		c1.7-0.2,3-1.7,2.9-3.4c0-1.7-1.2-3.2-2.9-3.4c-1.2-0.1-2.4-0.1-3.6-0.1c-0.5,0-1.1,0-1.6,0c-0.3,0-0.5,0.1-0.4,0.4
		c0,1.5,0,3,0,4.5c0,3.9,0,7.8,0,11.7c0,0.4-0.1,0.5-0.5,0.5c-0.7,0-1.4,0-2.1,0c-0.3,0-0.4-0.1-0.4-0.4
		C143.8,60.2,143.8,57.1,143.8,53.9z"/>
	<path id="Path_565" class="st0" d="M89.4,54.2c0,2.6,1.3,5.1,3.6,6.4c2.9,1.7,6.6,1,8.6-1.7c0.1-0.2,0.2-0.2,0.4-0.1
		c0.6,0.4,1.3,0.7,2,1c0.3,0.1,0.2,0.2,0.1,0.5c-1.5,2.2-4,3.7-6.7,3.8c-3.1,0.3-6.2-0.8-8.4-3c-1.6-1.7-2.6-3.8-2.7-6.1
		c-0.3-2.8,0.5-5.6,2.3-7.8c1.6-1.9,3.9-3.1,6.4-3.4c2.2-0.3,4.5,0.1,6.4,1.3c1,0.7,1.9,1.5,2.6,2.6c0.1,0.2,0.1,0.3-0.1,0.4
		c-0.7,0.3-1.3,0.7-2,1.1c-0.2,0.1-0.3,0.1-0.4-0.1c-2.7-4-9.4-3.5-11.6,1.6C89.6,51.7,89.4,53,89.4,54.2z"/>
	<path id="Path_566" class="st0" d="M123,44c1.1,0,2.2,0,3.3,0c0.2,0,0.3,0.2,0.4,0.3c1.8,2.7,3.5,5.3,5.3,8
		c0.1,0.1,0.2,0.3,0.3,0.4c0.2-0.1,0.2-0.2,0.3-0.3c1.8-2.7,3.5-5.4,5.2-8.1c0.1-0.2,0.4-0.4,0.6-0.3c1,0,2,0,3,0
		c0,0.2-0.1,0.3-0.2,0.4c-2.4,3.6-4.8,7.1-7.2,10.7c-0.2,0.3-0.3,0.6-0.3,0.9c0,2.5,0,5,0,7.4c0,0.3-0.1,0.4-0.4,0.4
		c-0.7,0-1.5,0-2.2,0c-0.4,0-0.4-0.1-0.4-0.4c0-2.4,0-4.8,0-7.3c0-0.4-0.1-0.7-0.3-1c-2.4-3.5-4.7-7-7.1-10.5
		C123.3,44.4,123.2,44.3,123,44z"/>
	<path id="Path_567" class="st0" d="M92.9,27.9c0,2.7,0,5.4,0,8.1c0,0.3-0.1,0.4-0.4,0.4c-0.7,0-1.4,0-2.1,0c-0.3,0-0.4-0.1-0.4-0.4
		c0-5.4,0-10.8,0-16.2c0-0.6,0-0.6-0.6-0.6c-1.7,0-3.5,0-5.2,0c-0.3,0-0.4-0.1-0.4-0.4c0-0.6,0-1.2,0-1.8c0-0.3,0.1-0.4,0.4-0.4
		c3.7,0,7.3,0,11,0c1.2,0,2.3,0,3.5,0c0.3,0,0.4,0.1,0.4,0.4c0,0.6,0,1.2,0,1.8c0,0.3-0.1,0.4-0.4,0.4c-1.8,0-3.6,0-5.3,0
		c-0.3,0-0.4,0.1-0.4,0.4C92.9,22.4,92.9,25.2,92.9,27.9z"/>
	<path id="Path_568" class="st0" d="M169.3,56.2c0,2.4,0,4.8,0,7.1c0,0.4-0.1,0.4-0.4,0.4c-0.7,0-1.4,0-2.1,0
		c-0.4,0-0.4-0.1-0.4-0.4c0-3.6,0-7.3,0-10.9c0-1.1,0-2.2,0-3.4c0-0.4,0.1-0.4,0.4-0.4c0.7,0,1.4,0,2.1,0c0.3,0,0.4,0.1,0.4,0.4
		C169.3,51.4,169.3,53.8,169.3,56.2z"/>
	<path id="Path_569" class="st0" d="M167.8,46.6c-2.4,0-4.8,0-7.2,0c-0.3,0-0.4-0.1-0.4-0.4c0-0.6,0-1.2,0-1.8c0-0.2,0-0.3,0.3-0.3
		c4.9,0,9.7,0,14.6,0c0.3,0,0.3,0.1,0.3,0.3c0,0.7,0,1.3,0,2c0,0.1,0.1,0.2-0.2,0.2c-0.4,0-0.9,0-1.3,0
		C171.8,46.6,169.8,46.6,167.8,46.6z"/>
</g>
</svg>
