<?xml version="1.0" encoding="utf-8"?>
<!-- Generator: Adobe Illustrator 26.3.1, SVG Export Plug-In . SVG Version: 6.00 Build 0)  -->
<svg version="1.1" id="Group_156" xmlns="http://www.w3.org/2000/svg" xmlns:xlink="http://www.w3.org/1999/xlink" x="0px" y="0px"
	 viewBox="0 0 167.2 67.5" style="enable-background:new 0 0 167.2 67.5;" xml:space="preserve">
<style type="text/css">
	.st0{display:none;fill:#303030;}
	.st1{fill:#2163AF;}
</style>
<rect id="Rectangle_133" class="st0" width="167.2" height="67.5"/>
<g id="Group_155" transform="translate(8.94 9.907)">
	<path id="Path_555" class="st1" d="M56.1,5.1v0.5c0,4.7,0,9.4,0,14.1c0,0.3-0.1,0.5-0.4,0.4c-0.7,0-1.4,0-2.1,0
		c-0.3,0-0.4-0.1-0.4-0.4c0-2.5,0-4.9,0-7.4c0-3.9,0-7.7,0-11.5c0-0.3,0.1-0.4,0.4-0.4c0.8,0,1.5,0,2.3,0c0.2,0,0.5,0.1,0.6,0.3
		c3.4,4.7,6.8,9.3,10.1,14c0.1,0.1,0.2,0.3,0.4,0.5v-0.5c0-4.6,0-9.2,0-13.8c0-0.3,0.1-0.4,0.4-0.4c0.7,0,1.4,0,2.1,0
		c0.3,0,0.4,0.1,0.4,0.4c0,5.5,0,11.1,0,16.6c0,0.8,0,1.6,0,2.4c0,0.2-0.1,0.3-0.3,0.3c-0.7,0-1.5,0-2.2,0c-0.3,0-0.5-0.1-0.7-0.3
		c-3.4-4.8-6.8-9.5-10.2-14.2C56.3,5.4,56.2,5.2,56.1,5.1L56.1,5.1z"/>
	<path id="Path_556" class="st1" d="M74.3,10.2c0-3.1,0-6.3,0-9.4c0-0.4,0.1-0.4,0.4-0.4c2.4,0,4.8,0,7.1,0C85,0.3,88,1.9,89.9,4.5
		c1.4,2,1.9,4.5,1.6,6.9c-0.2,2.2-1.1,4.2-2.7,5.8s-3.7,2.6-6,2.8c-2.5,0.2-5,0.1-7.5,0.1c-0.4,0-0.8,0.1-1.1-0.1s-0.1-0.7-0.1-1
		C74.3,16.1,74.3,13.1,74.3,10.2z M77.2,10.2c0,2.3,0,4.6,0,6.9c0,0.2,0,0.4,0.3,0.4c1.4,0,2.7,0,4.1,0c2.6,0.1,5-1.4,6.1-3.8
		c0.7-1.6,0.9-3.3,0.6-5c-0.4-3.1-3-5.4-6.1-5.7c-1.6-0.1-3.1,0-4.7-0.1c-0.4,0-0.4,0.1-0.4,0.4C77.2,5.6,77.2,7.9,77.2,10.2
		L77.2,10.2z"/>
	<path id="Path_557" class="st1" d="M132.1,10.2c0-3.2,0-6.3,0-9.5c0-0.3,0.1-0.4,0.4-0.4c2.4,0,4.8,0,7.2,0
		c3.2-0.1,6.2,1.5,8.1,4.1c1.4,2,1.9,4.5,1.6,6.9c-0.2,2.2-1.1,4.3-2.7,5.8c-1.6,1.6-3.7,2.6-5.9,2.8c-2.5,0.2-5,0.1-7.4,0.1
		c-0.4,0-0.9,0.1-1.1-0.1c-0.3-0.2-0.1-0.8-0.1-1.2C132,16,132.1,13.1,132.1,10.2z M135,10.2c0,2.3,0,4.6,0,6.9c0,0.2,0,0.4,0.3,0.4
		c1.4,0,2.7,0,4.1,0c2.6,0.1,5-1.4,6.2-3.8c0.7-1.6,0.9-3.3,0.6-5c-0.4-3.1-3-5.4-6.1-5.7c-1.6-0.1-3.1,0-4.7-0.1
		c-0.3,0-0.4,0.1-0.4,0.4C135,5.6,135,7.9,135,10.2L135,10.2z"/>
	<path id="Path_558" class="st1" d="M130,37.2c0.1,2.3-0.5,4.5-1.8,6.4c-1.7,2.5-4.4,4-7.4,4c-2.3,0.2-4.6-0.4-6.5-1.7
		c-2.1-1.4-3.6-3.7-4-6.2c-0.6-2.7-0.2-5.5,1.2-7.9c1.5-2.6,4.2-4.3,7.2-4.6c2.2-0.3,4.4,0.1,6.3,1.1c2.6,1.4,4.4,4,4.8,6.9
		C130,36,130,36.6,130,37.2z M127,37.4c0-0.4,0-0.9-0.1-1.4c-0.3-3.4-3.2-6-6.6-6c-2.6-0.2-5.1,1.2-6.2,3.6c-1,2-1.2,4.3-0.6,6.4
		c0.9,3.6,4.6,5.9,8.2,5c1.1-0.3,2.1-0.8,2.9-1.5C126.2,41.8,127.1,39.7,127,37.4L127,37.4z"/>
	<path id="Path_559" class="st1" d="M128.5,20.1c-1.1,0-2.2,0-3.3,0c-0.2,0-0.3-0.2-0.4-0.3c-1.4-2.3-2.9-4.6-4.3-6.9
		c-0.1-0.3-0.4-0.5-0.8-0.4c-0.9,0-1.8,0-2.8,0c-0.3,0-0.4,0.1-0.4,0.4c0,2.3,0,4.6,0,6.8c0,0.3-0.1,0.4-0.4,0.4c-0.8,0-1.5,0-2.3,0
		c-0.2,0-0.3-0.1-0.3-0.3c0-6.4,0-12.8,0-19.1c0-0.2,0.1-0.3,0.3-0.3c2.8,0,5.7,0,8.5,0c3.2,0,5.8,2.5,5.9,5.7c0,0.2,0,0.4,0,0.5
		c0.1,2.7-1.9,5.1-4.6,5.5c-0.4,0.1-0.2,0.2-0.1,0.4c1.5,2.4,3.1,4.8,4.6,7.2L128.5,20.1z M116.7,6.4c0,1,0,2.1,0,3.1
		c0,0.2,0,0.3,0.3,0.3c1.6,0,3.3,0,4.9,0c1.9,0,3.4-1.4,3.5-3.3c0-0.5-0.1-1-0.3-1.4c-0.6-1.4-1.9-2.2-3.4-2.1c-1.5,0-3.1,0-4.6,0
		c-0.3,0-0.4,0.1-0.4,0.3C116.7,4.3,116.7,5.4,116.7,6.4L116.7,6.4z"/>
	<path id="Path_560" class="st1" d="M55.4,47.4c-1.1,0-2.2,0-3.2,0c-0.3,0-0.3-0.2-0.4-0.3c-1.4-2.3-2.9-4.6-4.3-7
		c-0.1-0.2-0.4-0.4-0.6-0.3c-0.4,0-0.8,0.2-1.1-0.1s-0.1-0.7-0.1-1s0-0.7,0-1s0.1-0.4,0.4-0.4c1,0.1,2.1,0,3.1-0.1
		c1.7-0.2,3-1.6,3-3.4c0-1.7-1.2-3.2-3-3.4c-0.5-0.1-1-0.1-1.5-0.1c-1.3,0-2.5,0-3.8,0c-0.3,0-0.4,0.1-0.4,0.4c0,0.1,0,0.3,0,0.4
		c0,5.3,0,10.7,0,16c0,0.2-0.1,0.3-0.3,0.3c-0.8,0-1.5,0-2.3,0c-0.3,0-0.4-0.1-0.4-0.4c0-1.8,0-3.7,0-5.5c0-4.5,0-8.9,0-13.4
		c0-0.3,0-0.4,0.4-0.4c2.7,0,5.5,0,8.2,0c2-0.1,3.8,0.9,5,2.5c1.6,2.2,1.6,6.7-1.5,8.5c-0.6,0.4-1.2,0.6-1.9,0.7
		c-0.4,0.1-0.3,0.2-0.2,0.4c1.5,2.4,3,4.7,4.5,7.1C55.1,47,55.2,47.2,55.4,47.4z"/>
	<path id="Path_561" class="st1" d="M31.3,20.1c0.5-1.3,1-2.6,1.5-3.9c2-5.1,4.1-10.3,6.1-15.4c0.1-0.3,0.3-0.5,0.6-0.4c1,0,2,0,3,0
		c0.2,0,0.4,0.1,0.4,0.3c2.5,6.4,5,12.7,7.6,19.1c0.1,0.4,0,0.4-0.3,0.4c-0.8,0-1.7,0-2.5,0c-0.2,0-0.4-0.1-0.5-0.3
		c-0.4-1.1-0.9-2.3-1.3-3.4c-0.1-0.2-0.2-0.3-0.5-0.3c-3,0-6,0-9,0c-0.2,0-0.4,0.1-0.5,0.3c-0.4,1.2-0.9,2.3-1.3,3.5
		c-0.1,0.1-0.1,0.3-0.3,0.3C33.4,20.1,32.4,20.1,31.3,20.1z M41,2.9l-3.9,10.4H45L41,2.9z"/>
	<path id="Path_562" class="st1" d="M111.3,20.1c-1,0-2,0-3,0c-0.2,0-0.2-0.2-0.3-0.3c-0.5-1.2-0.9-2.3-1.4-3.5
		c0-0.2-0.3-0.4-0.5-0.3c-3,0-6,0-8.9,0c-0.2,0-0.5,0.1-0.5,0.4c-0.4,1.1-0.9,2.3-1.3,3.4c0,0.2-0.2,0.3-0.4,0.3c-1,0-1.9,0-3,0
		c0.3-0.7,0.5-1.3,0.8-2c2.3-5.8,4.6-11.5,6.9-17.3c0.1-0.3,0.3-0.5,0.6-0.5c1,0,2,0,3,0c0.2,0,0.3,0.1,0.4,0.3
		c2.5,6.4,5.1,12.8,7.6,19.2C111.3,19.9,111.3,20,111.3,20.1z M101.7,3c-0.1,0.1-0.1,0.2-0.2,0.3c-1.2,3.2-2.5,6.5-3.7,9.7
		c-0.1,0.3-0.1,0.4,0.3,0.4c2.4,0,4.8,0,7.1,0c0.4,0,0.4-0.1,0.3-0.4c-0.6-1.6-1.2-3.2-1.8-4.7C103,6.5,102.4,4.8,101.7,3L101.7,3z"
		/>
	<path id="Path_563" class="st1" d="M13,5c-0.8-0.8-1.7-1.4-2.8-1.8C8.8,2.6,7.1,2.5,5.6,2.9C5,3.1,4.4,3.5,4.1,4
		C3.4,4.9,3.5,6.2,4.4,7c0.1,0,0.2,0.1,0.3,0.1c0.8,0.5,1.7,0.8,2.7,1c1.2,0.3,2.5,0.6,3.7,1.1c0.5,0.2,0.9,0.4,1.3,0.6
		c4,2,3.4,7.5,0.3,9.4c-1.1,0.7-2.4,1.1-3.7,1.1c-2.5,0.3-4.9-0.2-7.1-1.5c-0.6-0.4-1.2-0.9-1.7-1.4C0.1,17.3,0,17.2,0.1,17
		c0.5-0.6,0.9-1.2,1.4-1.9c0.2-0.2,0.2-0.1,0.4,0c1.3,1.4,3,2.3,4.9,2.5c1.2,0.2,2.5,0.1,3.7-0.4c1.3-0.5,2-1.8,1.7-3.1
		c-0.2-0.7-0.7-1.3-1.4-1.7c-0.8-0.4-1.7-0.7-2.7-1c-1.4-0.3-2.8-0.7-4.1-1.3C3.7,10,3.4,9.8,3.2,9.7C0.8,8.4-0.1,5.4,1.2,3
		C1.4,2.8,1.7,2.4,2,2.1c1-1.1,2.4-1.8,3.9-2c2.5-0.4,5.1,0,7.3,1.4c0.5,0.3,0.9,0.7,1.4,1c0.1,0.1,0.2,0.2,0,0.4
		C14.1,3.6,13.6,4.3,13,5z"/>
	<path id="Path_564" class="st1" d="M77.1,37.5c0-3.2,0-6.3,0-9.5c0-0.3,0-0.4,0.4-0.4c2.8,0,5.5,0,8.3,0c2.7-0.1,5.1,1.7,5.7,4.3
		c1,3.8-1.3,7.7-5.9,7.8c-1.1,0-2.1,0-3.1,0c-0.3,0-0.3-0.1-0.3-0.3c0-0.7,0-1.3,0-2c0-0.3,0.1-0.3,0.3-0.3c1.1,0,2.2,0,3.3-0.1
		c1.7-0.2,3-1.7,2.9-3.4c0-1.7-1.2-3.2-2.9-3.4c-1.2-0.1-2.4-0.1-3.6-0.1c-0.5,0-1.1,0-1.6,0c-0.3,0-0.5,0.1-0.4,0.4
		c0,1.5,0,3,0,4.5c0,3.9,0,7.8,0,11.7c0,0.4-0.1,0.5-0.5,0.5c-0.7,0-1.4,0-2.1,0c-0.3,0-0.4-0.1-0.4-0.4
		C77.1,43.8,77.1,40.7,77.1,37.5z"/>
	<path id="Path_565" class="st1" d="M22.7,37.8c0,2.6,1.3,5.1,3.6,6.4c2.9,1.7,6.6,1,8.6-1.7c0.1-0.2,0.2-0.2,0.4-0.1
		c0.6,0.4,1.3,0.7,2,1c0.3,0.1,0.2,0.2,0.1,0.5c-1.5,2.2-4,3.7-6.7,3.8c-3.1,0.3-6.2-0.8-8.4-3c-1.6-1.7-2.6-3.8-2.7-6.1
		c-0.3-2.8,0.5-5.6,2.3-7.8c1.6-1.9,3.9-3.1,6.4-3.4c2.2-0.3,4.5,0.1,6.4,1.3c1,0.7,1.9,1.5,2.6,2.6c0.1,0.2,0.1,0.3-0.1,0.4
		c-0.7,0.3-1.3,0.7-2,1.1c-0.2,0.1-0.3,0.1-0.4-0.1c-2.7-4-9.4-3.5-11.6,1.6C22.9,35.3,22.7,36.6,22.7,37.8z"/>
	<path id="Path_566" class="st1" d="M56.3,27.6c1.1,0,2.2,0,3.3,0c0.2,0,0.3,0.2,0.4,0.3c1.8,2.7,3.5,5.3,5.3,8
		c0.1,0.1,0.2,0.3,0.3,0.4c0.2-0.1,0.2-0.2,0.3-0.3c1.8-2.7,3.5-5.4,5.2-8.1c0.1-0.2,0.4-0.4,0.6-0.3c1,0,2,0,3,0
		c0,0.2-0.1,0.3-0.2,0.4c-2.4,3.6-4.8,7.1-7.2,10.7C67.1,39,67,39.3,67,39.6c0,2.5,0,5,0,7.4c0,0.3-0.1,0.4-0.4,0.4
		c-0.7,0-1.5,0-2.2,0C64,47.4,64,47.3,64,47c0-2.4,0-4.8,0-7.3c0-0.4-0.1-0.7-0.3-1c-2.4-3.5-4.7-7-7.1-10.5
		C56.6,28,56.5,27.9,56.3,27.6z"/>
	<path id="Path_567" class="st1" d="M26.2,11.5c0,2.7,0,5.4,0,8.1c0,0.3-0.1,0.4-0.4,0.4c-0.7,0-1.4,0-2.1,0c-0.3,0-0.4-0.1-0.4-0.4
		c0-5.4,0-10.8,0-16.2c0-0.6,0-0.6-0.6-0.6c-1.7,0-3.5,0-5.2,0c-0.3,0-0.4-0.1-0.4-0.4c0-0.6,0-1.2,0-1.8c0-0.3,0.1-0.4,0.4-0.4
		c3.7,0,7.3,0,11,0c1.2,0,2.3,0,3.5,0c0.3,0,0.4,0.1,0.4,0.4c0,0.6,0,1.2,0,1.8c0,0.3-0.1,0.4-0.4,0.4c-1.8,0-3.6,0-5.3,0
		c-0.3,0-0.4,0.1-0.4,0.4C26.2,6,26.2,8.8,26.2,11.5z"/>
	<path id="Path_568" class="st1" d="M102.6,39.8c0,2.4,0,4.8,0,7.1c0,0.4-0.1,0.4-0.4,0.4c-0.7,0-1.4,0-2.1,0
		c-0.4,0-0.4-0.1-0.4-0.4c0-3.6,0-7.3,0-10.9c0-1.1,0-2.2,0-3.4c0-0.4,0.1-0.4,0.4-0.4c0.7,0,1.4,0,2.1,0c0.3,0,0.4,0.1,0.4,0.4
		C102.6,35,102.6,37.4,102.6,39.8z"/>
	<path id="Path_569" class="st1" d="M101.1,30.2c-2.4,0-4.8,0-7.2,0c-0.3,0-0.4-0.1-0.4-0.4c0-0.6,0-1.2,0-1.8c0-0.2,0-0.3,0.3-0.3
		c4.9,0,9.7,0,14.6,0c0.3,0,0.3,0.1,0.3,0.3c0,0.7,0,1.3,0,2c0,0.1,0.1,0.2-0.2,0.2c-0.4,0-0.9,0-1.3,0
		C105.1,30.2,103.1,30.2,101.1,30.2z"/>
</g>
</svg>
