<?xml version="1.0" encoding="UTF-8"?>
<svg xmlns="http://www.w3.org/2000/svg" xmlns:xlink="http://www.w3.org/1999/xlink" width="300" height="60" viewBox="0 0 300 60" version="1.1">
<g id="surface1">
<path style=" stroke:none;fill-rule:nonzero;fill:rgb(14.901961%,40%,69.019608%);fill-opacity:1;" d="M 116.699219 13.480469 L 116.699219 13.921875 C 116.699219 18.066406 116.699219 22.207031 116.699219 26.347656 C 116.699219 26.613281 116.519531 26.789062 115.980469 26.703125 C 114.726562 26.703125 113.46875 26.703125 112.214844 26.703125 C 111.675781 26.703125 111.496094 26.613281 111.496094 26.347656 C 111.496094 24.144531 111.496094 22.03125 111.496094 19.828125 C 111.496094 16.390625 111.496094 13.042969 111.496094 9.691406 C 111.496094 9.429688 111.675781 9.339844 112.214844 9.339844 C 113.648438 9.339844 114.90625 9.339844 116.339844 9.339844 C 116.699219 9.339844 117.238281 9.429688 117.417969 9.605469 C 123.515625 13.746094 129.617188 17.800781 135.539062 21.941406 C 135.71875 22.03125 135.898438 22.207031 136.257812 22.382812 L 136.257812 21.941406 C 136.257812 17.886719 136.257812 13.835938 136.257812 9.78125 C 136.257812 9.515625 136.433594 9.429688 136.972656 9.429688 C 138.230469 9.429688 139.484375 9.429688 140.742188 9.429688 C 141.28125 9.429688 141.460938 9.515625 141.460938 9.78125 C 141.460938 14.628906 141.460938 19.5625 141.460938 24.410156 C 141.460938 25.113281 141.460938 25.820312 141.460938 26.523438 C 141.460938 26.703125 141.28125 26.789062 140.921875 26.789062 C 139.664062 26.789062 138.230469 26.789062 136.972656 26.789062 C 136.433594 26.789062 136.078125 26.703125 135.71875 26.523438 C 129.617188 22.292969 123.515625 18.152344 117.417969 14.011719 C 117.058594 13.746094 116.878906 13.570312 116.699219 13.480469 Z M 116.699219 13.480469 "/>
<path style=" stroke:none;fill-rule:nonzero;fill:rgb(14.901961%,40%,69.019608%);fill-opacity:1;" d="M 149.355469 17.976562 C 149.355469 15.246094 149.355469 12.425781 149.355469 9.691406 C 149.355469 9.339844 149.535156 9.339844 150.070312 9.339844 C 154.378906 9.339844 158.683594 9.339844 162.8125 9.339844 C 168.550781 9.25 173.933594 10.660156 177.34375 12.953125 C 179.855469 14.714844 180.753906 16.917969 180.214844 19.035156 C 179.855469 20.972656 178.242188 22.734375 175.371094 24.144531 C 172.5 25.554688 168.730469 26.4375 164.605469 26.613281 C 160.121094 26.789062 155.632812 26.703125 151.148438 26.703125 C 150.429688 26.703125 149.714844 26.789062 149.175781 26.613281 C 148.636719 26.4375 148.996094 25.996094 148.996094 25.730469 C 149.355469 23.175781 149.355469 20.53125 149.355469 17.976562 Z M 154.558594 17.976562 C 154.558594 20.003906 154.558594 22.03125 154.558594 24.058594 C 154.558594 24.234375 154.558594 24.410156 155.09375 24.410156 C 157.609375 24.410156 159.941406 24.410156 162.453125 24.410156 C 167.117188 24.5 171.421875 23.175781 173.398438 21.0625 C 174.652344 19.652344 175.011719 18.152344 174.472656 16.65625 C 173.757812 13.921875 169.089844 11.894531 163.527344 11.632812 C 160.65625 11.542969 157.964844 11.632812 155.09375 11.542969 C 154.378906 11.542969 154.378906 11.632812 154.378906 11.894531 C 154.558594 13.921875 154.558594 15.949219 154.558594 17.976562 Z M 154.558594 17.976562 "/>
<path style=" stroke:none;fill-rule:nonzero;fill:rgb(14.901961%,40%,69.019608%);fill-opacity:1;" d="M 253.0625 17.976562 C 253.0625 15.15625 253.0625 12.425781 253.0625 9.605469 C 253.0625 9.339844 253.242188 9.25 253.78125 9.25 C 258.085938 9.25 262.390625 9.25 266.699219 9.25 C 272.441406 9.164062 277.824219 10.574219 281.230469 12.863281 C 283.742188 14.628906 284.640625 16.832031 284.101562 18.945312 C 283.742188 20.882812 282.128906 22.734375 279.257812 24.058594 C 276.386719 25.46875 272.621094 26.347656 268.671875 26.523438 C 264.1875 26.703125 259.699219 26.613281 255.394531 26.613281 C 254.675781 26.613281 253.78125 26.703125 253.421875 26.523438 C 252.882812 26.347656 253.242188 25.820312 253.242188 25.46875 C 252.882812 23.089844 253.0625 20.53125 253.0625 17.976562 Z M 258.265625 17.976562 C 258.265625 20.003906 258.265625 22.03125 258.265625 24.058594 C 258.265625 24.234375 258.265625 24.410156 258.804688 24.410156 C 261.316406 24.410156 263.648438 24.410156 266.160156 24.410156 C 270.824219 24.5 275.132812 23.175781 277.285156 21.0625 C 278.539062 19.652344 278.898438 18.152344 278.359375 16.65625 C 277.644531 13.921875 272.976562 11.894531 267.417969 11.632812 C 264.546875 11.542969 261.855469 11.632812 258.984375 11.542969 C 258.445312 11.542969 258.265625 11.632812 258.265625 11.894531 C 258.265625 13.921875 258.265625 15.949219 258.265625 17.976562 Z M 258.265625 17.976562 "/>
<path style=" stroke:none;fill-rule:nonzero;fill:rgb(14.901961%,40%,69.019608%);fill-opacity:1;" d="M 249.292969 41.773438 C 249.472656 43.796875 248.398438 45.738281 246.066406 47.410156 C 243.015625 49.613281 238.167969 50.9375 232.785156 50.9375 C 228.660156 51.113281 224.535156 50.585938 221.125 49.4375 C 217.355469 48.203125 214.664062 46.179688 213.949219 43.976562 C 212.871094 41.59375 213.589844 39.128906 216.101562 37.011719 C 218.792969 34.722656 223.636719 33.222656 229.019531 32.957031 C 232.964844 32.695312 236.914062 33.046875 240.324219 33.929688 C 244.988281 35.160156 248.21875 37.453125 248.933594 40.007812 C 249.292969 40.714844 249.292969 41.242188 249.292969 41.773438 Z M 243.910156 41.949219 C 243.910156 41.59375 243.910156 41.15625 243.730469 40.714844 C 243.195312 37.71875 237.992188 35.425781 231.890625 35.425781 C 227.226562 35.25 222.738281 36.484375 220.765625 38.597656 C 218.972656 40.363281 218.613281 42.386719 219.6875 44.238281 C 221.304688 47.410156 227.941406 49.4375 234.402344 48.644531 C 236.375 48.382812 238.167969 47.941406 239.605469 47.324219 C 242.476562 45.824219 244.089844 43.976562 243.910156 41.949219 Z M 243.910156 41.949219 "/>
<path style=" stroke:none;fill-rule:nonzero;fill:rgb(14.901961%,40%,69.019608%);fill-opacity:1;" d="M 246.601562 26.703125 C 244.628906 26.703125 242.65625 26.703125 240.683594 26.703125 C 240.324219 26.703125 240.144531 26.523438 239.964844 26.4375 C 237.453125 24.410156 234.761719 22.382812 232.25 20.355469 C 232.070312 20.089844 231.53125 19.914062 230.8125 20.003906 C 229.199219 20.003906 227.582031 20.003906 225.789062 20.003906 C 225.25 20.003906 225.070312 20.089844 225.070312 20.355469 C 225.070312 22.382812 225.070312 24.410156 225.070312 26.347656 C 225.070312 26.613281 224.890625 26.703125 224.355469 26.703125 C 222.917969 26.703125 221.664062 26.703125 220.226562 26.703125 C 219.867188 26.703125 219.6875 26.613281 219.6875 26.4375 C 219.6875 20.796875 219.6875 15.15625 219.6875 9.605469 C 219.6875 9.429688 219.867188 9.339844 220.226562 9.339844 C 225.25 9.339844 230.453125 9.339844 235.476562 9.339844 C 241.21875 9.339844 245.886719 11.542969 246.066406 14.363281 C 246.066406 14.539062 246.066406 14.714844 246.066406 14.804688 C 246.242188 17.183594 242.65625 19.296875 237.8125 19.652344 C 237.09375 19.738281 237.453125 19.828125 237.632812 20.003906 C 240.324219 22.117188 243.195312 24.234375 245.886719 26.347656 Z M 225.429688 14.628906 C 225.429688 15.507812 225.429688 16.476562 225.429688 17.359375 C 225.429688 17.535156 225.429688 17.625 225.96875 17.625 C 228.839844 17.625 231.890625 17.625 234.761719 17.625 C 238.167969 17.625 240.859375 16.390625 241.039062 14.714844 C 241.039062 14.273438 240.859375 13.835938 240.503906 13.480469 C 239.425781 12.246094 237.09375 11.542969 234.402344 11.632812 C 231.710938 11.632812 228.839844 11.632812 226.148438 11.632812 C 225.609375 11.632812 225.429688 11.71875 225.429688 11.894531 C 225.429688 12.777344 225.429688 13.746094 225.429688 14.628906 Z M 225.429688 14.628906 "/>
<path style=" stroke:none;fill-rule:nonzero;fill:rgb(14.901961%,40%,69.019608%);fill-opacity:1;" d="M 115.441406 50.761719 C 113.46875 50.761719 111.496094 50.761719 109.699219 50.761719 C 109.164062 50.761719 109.164062 50.585938 108.984375 50.496094 C 106.472656 48.46875 103.78125 46.441406 101.269531 44.328125 C 101.089844 44.152344 100.550781 43.976562 100.191406 44.0625 C 99.472656 44.0625 98.757812 44.238281 98.21875 43.976562 C 97.679688 43.710938 98.039062 43.359375 98.039062 43.09375 C 98.039062 42.828125 98.039062 42.476562 98.039062 42.210938 C 98.039062 41.949219 98.21875 41.859375 98.757812 41.859375 C 100.550781 41.949219 102.523438 41.859375 104.316406 41.773438 C 107.367188 41.59375 109.699219 40.363281 109.699219 38.773438 C 109.699219 37.277344 107.546875 35.953125 104.316406 35.777344 C 103.421875 35.691406 102.523438 35.691406 101.625 35.691406 C 99.292969 35.691406 97.140625 35.691406 94.808594 35.691406 C 94.269531 35.691406 94.089844 35.777344 94.089844 36.042969 C 94.089844 36.132812 94.089844 36.308594 94.089844 36.394531 C 94.089844 41.066406 94.089844 45.824219 94.089844 50.496094 C 94.089844 50.671875 93.910156 50.761719 93.550781 50.761719 C 92.117188 50.761719 90.859375 50.761719 89.425781 50.761719 C 88.886719 50.761719 88.707031 50.671875 88.707031 50.410156 C 88.707031 48.820312 88.707031 47.148438 88.707031 45.5625 C 88.707031 41.59375 88.707031 37.71875 88.707031 33.75 C 88.707031 33.488281 88.707031 33.398438 89.425781 33.398438 C 94.269531 33.398438 99.292969 33.398438 104.140625 33.398438 C 107.726562 33.3125 110.957031 34.191406 113.109375 35.601562 C 115.980469 37.542969 115.980469 41.507812 110.417969 43.09375 C 109.34375 43.445312 108.265625 43.621094 107.007812 43.710938 C 106.292969 43.796875 106.472656 43.886719 106.652344 44.0625 C 109.34375 46.179688 112.035156 48.203125 114.726562 50.320312 C 114.90625 50.410156 115.082031 50.585938 115.441406 50.761719 Z M 115.441406 50.761719 "/>
<path style=" stroke:none;fill-rule:nonzero;fill:rgb(14.901961%,40%,69.019608%);fill-opacity:1;" d="M 72.199219 26.703125 C 73.097656 25.554688 73.996094 24.410156 74.890625 23.265625 C 78.480469 18.769531 82.25 14.1875 85.835938 9.691406 C 86.015625 9.429688 86.375 9.25 86.914062 9.339844 C 88.707031 9.339844 90.503906 9.339844 92.296875 9.339844 C 92.65625 9.339844 93.015625 9.429688 93.015625 9.605469 C 97.5 15.246094 101.984375 20.796875 106.652344 26.4375 C 106.832031 26.789062 106.652344 26.789062 106.113281 26.789062 C 104.675781 26.789062 103.0625 26.789062 101.625 26.789062 C 101.269531 26.789062 100.910156 26.703125 100.730469 26.523438 C 100.011719 25.554688 99.113281 24.5 98.398438 23.527344 C 98.21875 23.351562 98.039062 23.265625 97.5 23.265625 C 92.117188 23.265625 86.734375 23.265625 81.351562 23.265625 C 80.992188 23.265625 80.632812 23.351562 80.453125 23.527344 C 79.738281 24.585938 78.839844 25.554688 78.121094 26.613281 C 77.941406 26.703125 77.941406 26.878906 77.582031 26.878906 C 75.96875 26.703125 74.175781 26.703125 72.199219 26.703125 Z M 89.605469 11.542969 L 82.609375 20.707031 L 96.78125 20.707031 Z M 89.605469 11.542969 "/>
<path style=" stroke:none;fill-rule:nonzero;fill:rgb(14.901961%,40%,69.019608%);fill-opacity:1;" d="M 215.742188 26.703125 C 213.949219 26.703125 212.152344 26.703125 210.359375 26.703125 C 210 26.703125 210 26.523438 209.820312 26.4375 C 208.921875 25.378906 208.207031 24.410156 207.308594 23.351562 C 207.308594 23.175781 206.769531 23 206.410156 23.089844 C 201.027344 23.089844 195.644531 23.089844 190.441406 23.089844 C 190.082031 23.089844 189.546875 23.175781 189.546875 23.441406 C 188.828125 24.410156 187.929688 25.46875 187.214844 26.4375 C 187.214844 26.613281 186.855469 26.703125 186.496094 26.703125 C 184.699219 26.703125 183.085938 26.703125 181.113281 26.703125 C 181.652344 26.085938 182.007812 25.554688 182.546875 24.9375 C 186.675781 19.828125 190.800781 14.804688 194.929688 9.691406 C 195.109375 9.429688 195.464844 9.25 196.003906 9.25 C 197.800781 9.25 199.59375 9.25 201.386719 9.25 C 201.746094 9.25 201.925781 9.339844 202.105469 9.515625 C 206.589844 15.15625 211.257812 20.796875 215.742188 26.4375 C 215.742188 26.523438 215.742188 26.613281 215.742188 26.703125 Z M 198.515625 11.632812 C 198.335938 11.71875 198.335938 11.808594 198.15625 11.894531 C 196.003906 14.714844 193.671875 17.625 191.519531 20.445312 C 191.339844 20.707031 191.339844 20.796875 192.058594 20.796875 C 196.363281 20.796875 200.667969 20.796875 204.796875 20.796875 C 205.515625 20.796875 205.515625 20.707031 205.335938 20.445312 C 204.257812 19.035156 203.183594 17.625 202.105469 16.300781 C 200.847656 14.714844 199.773438 13.21875 198.515625 11.632812 Z M 198.515625 11.632812 "/>
<path style=" stroke:none;fill-rule:nonzero;fill:rgb(14.901961%,40%,69.019608%);fill-opacity:1;" d="M 39.367188 13.394531 C 37.929688 12.6875 36.316406 12.160156 34.34375 11.808594 C 31.832031 11.277344 28.78125 11.191406 26.089844 11.542969 C 25.011719 11.71875 23.933594 12.070312 23.398438 12.511719 C 22.140625 13.304688 22.320312 14.453125 23.933594 15.15625 C 24.113281 15.15625 24.292969 15.246094 24.472656 15.246094 C 25.910156 15.683594 27.523438 15.949219 29.316406 16.125 C 31.472656 16.390625 33.804688 16.65625 35.957031 17.09375 C 36.855469 17.269531 37.570312 17.449219 38.289062 17.625 C 45.464844 19.386719 44.390625 24.234375 38.828125 25.90625 C 36.855469 26.523438 34.523438 26.878906 32.1875 26.878906 C 27.703125 27.140625 23.398438 26.703125 19.449219 25.554688 C 18.375 25.203125 17.296875 24.761719 16.398438 24.320312 C 16.21875 24.234375 16.039062 24.144531 16.21875 23.96875 C 17.117188 23.441406 17.835938 22.910156 18.730469 22.292969 C 19.089844 22.117188 19.089844 22.207031 19.449219 22.292969 C 21.78125 23.527344 24.832031 24.320312 28.242188 24.5 C 30.394531 24.675781 32.726562 24.585938 34.878906 24.144531 C 37.214844 23.703125 38.46875 22.558594 37.929688 21.414062 C 37.570312 20.796875 36.675781 20.269531 35.417969 19.914062 C 33.984375 19.5625 32.367188 19.296875 30.574219 19.035156 C 28.0625 18.769531 25.550781 18.417969 23.21875 17.886719 C 22.679688 17.800781 22.140625 17.625 21.78125 17.535156 C 17.476562 16.390625 15.859375 13.746094 18.195312 11.632812 C 18.550781 11.453125 19.089844 11.101562 19.628906 10.839844 C 21.421875 9.867188 23.933594 9.25 26.625 9.074219 C 31.113281 8.722656 35.777344 9.074219 39.726562 10.308594 C 40.621094 10.574219 41.339844 10.925781 42.238281 11.191406 C 42.417969 11.277344 42.59375 11.367188 42.238281 11.542969 C 41.339844 12.160156 40.441406 12.777344 39.367188 13.394531 Z M 39.367188 13.394531 "/>
<path style=" stroke:none;fill-rule:nonzero;fill:rgb(14.901961%,40%,69.019608%);fill-opacity:1;" d="M 154.378906 42.035156 C 154.378906 39.214844 154.378906 36.484375 154.378906 33.664062 C 154.378906 33.398438 154.378906 33.3125 155.09375 33.3125 C 160.121094 33.3125 164.964844 33.3125 169.988281 33.3125 C 174.832031 33.222656 179.140625 34.808594 180.214844 37.101562 C 182.007812 40.449219 177.882812 43.886719 169.628906 43.976562 C 167.65625 43.976562 165.859375 43.976562 164.066406 43.976562 C 163.527344 43.976562 163.527344 43.886719 163.527344 43.710938 C 163.527344 43.09375 163.527344 42.566406 163.527344 41.949219 C 163.527344 41.683594 163.707031 41.683594 164.066406 41.683594 C 166.039062 41.683594 168.015625 41.683594 169.988281 41.59375 C 173.039062 41.417969 175.371094 40.097656 175.191406 38.597656 C 175.191406 37.101562 173.039062 35.777344 169.988281 35.601562 C 167.835938 35.515625 165.683594 35.515625 163.527344 35.515625 C 162.632812 35.515625 161.554688 35.515625 160.65625 35.515625 C 160.121094 35.515625 159.761719 35.601562 159.941406 35.867188 C 159.941406 37.1875 159.941406 38.511719 159.941406 39.832031 C 159.941406 43.269531 159.941406 46.707031 159.941406 50.144531 C 159.941406 50.496094 159.761719 50.585938 159.042969 50.585938 C 157.785156 50.585938 156.53125 50.585938 155.273438 50.585938 C 154.738281 50.585938 154.558594 50.496094 154.558594 50.230469 C 154.378906 47.589844 154.378906 44.855469 154.378906 42.035156 Z M 154.378906 42.035156 "/>
<path style=" stroke:none;fill-rule:nonzero;fill:rgb(14.901961%,40%,69.019608%);fill-opacity:1;" d="M 56.769531 42.300781 C 56.769531 44.589844 59.101562 46.792969 63.230469 47.941406 C 68.433594 49.4375 75.070312 48.820312 78.660156 46.441406 C 78.839844 46.265625 79.019531 46.265625 79.378906 46.355469 C 80.453125 46.707031 81.710938 46.972656 82.964844 47.234375 C 83.503906 47.324219 83.324219 47.410156 83.144531 47.675781 C 80.453125 49.613281 75.96875 50.9375 71.125 51.023438 C 65.5625 51.289062 60 50.320312 56.050781 48.382812 C 53.183594 46.882812 51.386719 45.03125 51.207031 43.003906 C 50.667969 40.539062 52.105469 38.070312 55.335938 36.132812 C 58.207031 34.457031 62.332031 33.398438 66.816406 33.136719 C 70.765625 32.871094 74.890625 33.222656 78.300781 34.28125 C 80.09375 34.898438 81.710938 35.601562 82.964844 36.570312 C 83.144531 36.75 83.144531 36.835938 82.785156 36.925781 C 81.53125 37.1875 80.453125 37.542969 79.199219 37.894531 C 78.839844 37.980469 78.660156 37.980469 78.480469 37.804688 C 73.636719 34.28125 61.613281 34.722656 57.667969 39.214844 C 57.128906 40.097656 56.769531 41.242188 56.769531 42.300781 Z M 56.769531 42.300781 "/>
<path style=" stroke:none;fill-rule:nonzero;fill:rgb(14.901961%,40%,69.019608%);fill-opacity:1;" d="M 117.058594 33.3125 C 119.03125 33.3125 121.003906 33.3125 122.976562 33.3125 C 123.335938 33.3125 123.515625 33.488281 123.695312 33.574219 C 126.925781 35.953125 129.976562 38.246094 133.207031 40.625 C 133.386719 40.714844 133.566406 40.890625 133.742188 40.976562 C 134.101562 40.890625 134.101562 40.800781 134.28125 40.714844 C 137.511719 38.335938 140.5625 35.953125 143.613281 33.574219 C 143.792969 33.398438 144.332031 33.222656 144.6875 33.3125 C 146.484375 33.3125 148.277344 33.3125 150.070312 33.3125 C 150.070312 33.488281 149.890625 33.574219 149.714844 33.664062 C 145.40625 36.835938 141.101562 39.921875 136.792969 43.09375 C 136.433594 43.359375 136.257812 43.621094 136.257812 43.886719 C 136.257812 46.089844 136.257812 48.292969 136.257812 50.410156 C 136.257812 50.671875 136.078125 50.761719 135.539062 50.761719 C 134.28125 50.761719 132.847656 50.761719 131.589844 50.761719 C 130.875 50.761719 130.875 50.671875 130.875 50.410156 C 130.875 48.292969 130.875 46.179688 130.875 43.976562 C 130.875 43.621094 130.695312 43.359375 130.335938 43.09375 C 126.027344 40.007812 121.902344 36.925781 117.59375 33.839844 C 117.59375 33.664062 117.417969 33.574219 117.058594 33.3125 Z M 117.058594 33.3125 "/>
<path style=" stroke:none;fill-rule:nonzero;fill:rgb(14.901961%,40%,69.019608%);fill-opacity:1;" d="M 63.050781 19.121094 C 63.050781 21.5 63.050781 23.882812 63.050781 26.261719 C 63.050781 26.523438 62.871094 26.613281 62.332031 26.613281 C 61.078125 26.613281 59.820312 26.613281 58.566406 26.613281 C 58.027344 26.613281 57.847656 26.523438 57.847656 26.261719 C 57.847656 21.5 57.847656 16.742188 57.847656 11.984375 C 57.847656 11.453125 57.847656 11.453125 56.769531 11.453125 C 53.71875 11.453125 50.492188 11.453125 47.441406 11.453125 C 46.902344 11.453125 46.722656 11.367188 46.722656 11.101562 C 46.722656 10.574219 46.722656 10.042969 46.722656 9.515625 C 46.722656 9.25 46.902344 9.164062 47.441406 9.164062 C 54.078125 9.164062 60.539062 9.164062 67.175781 9.164062 C 69.332031 9.164062 71.304688 9.164062 73.457031 9.164062 C 73.996094 9.164062 74.175781 9.25 74.175781 9.515625 C 74.175781 10.042969 74.175781 10.574219 74.175781 11.101562 C 74.175781 11.367188 73.996094 11.453125 73.457031 11.453125 C 70.226562 11.453125 66.996094 11.453125 63.949219 11.453125 C 63.410156 11.453125 63.230469 11.542969 63.230469 11.808594 C 63.050781 14.273438 63.050781 16.742188 63.050781 19.121094 Z M 63.050781 19.121094 "/>
<path style=" stroke:none;fill-rule:nonzero;fill:rgb(14.901961%,40%,69.019608%);fill-opacity:1;" d="M 200.132812 44.0625 C 200.132812 46.179688 200.132812 48.292969 200.132812 50.320312 C 200.132812 50.671875 199.953125 50.671875 199.414062 50.671875 C 198.15625 50.671875 196.902344 50.671875 195.644531 50.671875 C 194.929688 50.671875 194.929688 50.585938 194.929688 50.320312 C 194.929688 47.148438 194.929688 43.886719 194.929688 40.714844 C 194.929688 39.746094 194.929688 38.773438 194.929688 37.71875 C 194.929688 37.363281 195.109375 37.363281 195.644531 37.363281 C 196.902344 37.363281 198.15625 37.363281 199.414062 37.363281 C 199.953125 37.363281 200.132812 37.453125 200.132812 37.71875 C 200.132812 39.832031 200.132812 41.949219 200.132812 44.0625 Z M 200.132812 44.0625 "/>
<path style=" stroke:none;fill-rule:nonzero;fill:rgb(14.901961%,40%,69.019608%);fill-opacity:1;" d="M 197.441406 35.601562 C 193.132812 35.601562 188.828125 35.601562 184.523438 35.601562 C 183.984375 35.601562 183.804688 35.515625 183.804688 35.25 C 183.804688 34.722656 183.804688 34.191406 183.804688 33.664062 C 183.804688 33.488281 183.804688 33.398438 184.34375 33.398438 C 193.132812 33.398438 201.746094 33.398438 210.539062 33.398438 C 211.078125 33.398438 211.078125 33.488281 211.078125 33.664062 C 211.078125 34.28125 211.078125 34.808594 211.078125 35.425781 C 211.078125 35.515625 211.257812 35.601562 210.71875 35.601562 C 210 35.601562 209.101562 35.601562 208.386719 35.601562 C 204.617188 35.601562 201.027344 35.601562 197.441406 35.601562 Z M 197.441406 35.601562 "/>
</g>
</svg>
