<svg id="Group_156" data-name="Group 156" xmlns="http://www.w3.org/2000/svg" width="167.248" height="67.542" viewBox="0 0 167.248 67.542">
  <rect id="Rectangle_133" data-name="Rectangle 133" width="167.248" height="67.542" fill="#303030"/>
  <g id="Group_155" data-name="Group 155" transform="translate(8.94 9.907)">
    <path id="Path_555" data-name="Path 555" d="M-230.283,502.467v.45q0,7.035.009,14.07c0,.343-.07.452-.427.436-.714-.033-1.43-.026-2.143,0-.317.009-.415-.063-.413-.4.016-2.463.007-4.926.007-7.391,0-3.85,0-7.7-.007-11.549,0-.315.061-.429.4-.415.767.028,1.539.023,2.309,0a.611.611,0,0,1,.578.3q5.066,7,10.145,14c.093.128.189.256.35.476v-.55q0-6.909-.007-13.816c0-.329.077-.422.406-.411.714.028,1.43.03,2.143,0,.348-.014.434.077.434.429q-.021,8.295-.009,16.589c0,.812-.009,1.626,0,2.437,0,.238-.065.306-.3.3-.728-.014-1.458-.021-2.185,0a.684.684,0,0,1-.651-.329q-5.111-7.126-10.241-14.238c-.1-.147-.21-.289-.317-.434Z" transform="translate(286.333 -497.331)" fill="#fdfdfd"/>
    <path id="Path_556" data-name="Path 556" d="M-224.147,507.54c0-3.148.007-6.3-.009-9.448,0-.357.1-.427.436-.424,2.379.019,4.76-.049,7.137.028a9.617,9.617,0,0,1,8.065,4.149,10.013,10.013,0,0,1,1.619,6.913,9.252,9.252,0,0,1-2.654,5.786,9.486,9.486,0,0,1-5.959,2.773c-2.5.247-5.007.056-7.51.1-.361.007-.835.119-1.052-.063s-.068-.681-.07-1.04Q-224.151,511.927-224.147,507.54Zm2.967,0q0,3.463,0,6.927c0,.215-.007.359.3.355,1.369-.021,2.743.03,4.112-.028a6.632,6.632,0,0,0,6.12-3.781,8.185,8.185,0,0,0,.627-4.993,6.609,6.609,0,0,0-6.061-5.67c-1.565-.133-3.132-.026-4.7-.077-.357-.012-.4.117-.4.424C-221.175,502.978-221.18,505.259-221.18,507.54Z" transform="translate(298.401 -497.336)" fill="#fdfdfd"/>
    <path id="Path_557" data-name="Path 557" d="M-199.36,507.549c0-3.162,0-6.325-.007-9.49,0-.3.058-.394.38-.392,2.4.019,4.79-.049,7.181.028a9.619,9.619,0,0,1,8.069,4.142,10.008,10.008,0,0,1,1.626,6.908,9.259,9.259,0,0,1-2.68,5.821,9.5,9.5,0,0,1-5.926,2.75c-2.467.25-4.951.056-7.426.1-.389.007-.912.138-1.136-.058-.259-.226-.077-.76-.079-1.159C-199.365,513.314-199.36,510.432-199.36,507.549Zm2.967-.047q0,3.463,0,6.927c0,.212-.047.4.3.394,1.357-.026,2.717.026,4.072-.028a6.64,6.64,0,0,0,6.157-3.788,8.177,8.177,0,0,0,.625-5,6.607,6.607,0,0,0-6.066-5.663c-1.565-.135-3.134-.028-4.7-.075-.31-.009-.4.063-.4.385C-196.386,502.941-196.393,505.222-196.393,507.5Z" transform="translate(331.414 -497.336)" fill="#fdfdfd"/>
    <path id="Path_558" data-name="Path 558" d="M-188.864,519.141a10.792,10.792,0,0,1-1.826,6.444,9.349,9.349,0,0,1-7.428,4.042,9.97,9.97,0,0,1-6.458-1.665,9.36,9.36,0,0,1-3.979-6.185,10.931,10.931,0,0,1,1.22-7.9,9.176,9.176,0,0,1,7.153-4.56,10.2,10.2,0,0,1,6.332,1.131,9.45,9.45,0,0,1,4.807,6.92A9.168,9.168,0,0,1-188.864,519.141Zm-3.058.233c-.044-.439-.049-.94-.124-1.441a6.692,6.692,0,0,0-6.579-6.047,6.331,6.331,0,0,0-6.2,3.582,8.762,8.762,0,0,0-.583,6.414,6.793,6.793,0,0,0,11.108,3.452A7.914,7.914,0,0,0-191.922,519.375Z" transform="translate(318.91 -481.925)" fill="#87aeb0"/>
    <path id="Path_559" data-name="Path 559" d="M-192.445,517.414c-1.14,0-2.213,0-3.286,0-.229,0-.266-.173-.35-.305-1.423-2.307-2.85-4.611-4.254-6.931a.745.745,0,0,0-.76-.42c-.921.028-1.847.023-2.771,0-.32-.007-.422.065-.42.406.016,2.283,0,4.564.019,6.845,0,.333-.089.42-.413.408-.756-.026-1.511-.016-2.267,0-.238,0-.3-.063-.3-.3q.011-9.575,0-19.15c0-.238.061-.3.3-.3,2.829.009,5.658-.028,8.485.019a5.8,5.8,0,0,1,5.861,6.246,5.42,5.42,0,0,1-4.585,5.49c-.4.079-.189.233-.093.383q2.295,3.61,4.59,7.218Zm-11.831-13.693c0,1.047,0,2.1,0,3.146,0,.193.014.3.261.3,1.637-.014,3.274.049,4.907-.028a3.4,3.4,0,0,0,3.218-4.713,3.47,3.47,0,0,0-3.428-2.15c-1.537-.019-3.076,0-4.613-.009-.277,0-.354.072-.35.348C-204.267,501.651-204.277,502.686-204.277,503.721Z" transform="translate(320.982 -497.33)" fill="#fdfdfd"/>
    <path id="Path_560" data-name="Path 560" d="M-223.83,529.12c-1.122,0-2.171-.007-3.221.007-.261,0-.324-.175-.422-.336-1.43-2.323-2.864-4.643-4.282-6.973a.618.618,0,0,0-.632-.35c-.359.014-.826.161-1.054-.061s-.058-.69-.072-1.049.021-.7-.007-1.05.068-.448.429-.448a21.516,21.516,0,0,0,3.1-.061,3.312,3.312,0,0,0,2.962-3.358A3.33,3.33,0,0,0-230,512.048a9.6,9.6,0,0,0-1.465-.063c-1.262,0-2.521.012-3.781-.012-.341,0-.45.107-.422.422.014.14,0,.28,0,.42q0,8,.009,16c0,.242-.058.315-.3.31-.77-.012-1.542-.021-2.311,0-.315.009-.357-.112-.355-.387.009-1.847,0-3.694,0-5.544q0-6.7,0-13.4c0-.3.037-.434.4-.431,2.743.019,5.488-.021,8.23.023a5.915,5.915,0,0,1,4.961,2.454c1.63,2.248,1.612,6.658-1.528,8.536a5.331,5.331,0,0,1-1.905.732c-.394.063-.34.173-.173.436q2.263,3.537,4.508,7.081C-224.044,528.77-223.958,528.91-223.83,529.12Z" transform="translate(279.184 -481.735)" fill="#87afb1"/>
    <path id="Path_561" data-name="Path 561" d="M-242.587,517.415c.52-1.32,1.026-2.6,1.535-3.881q3.065-7.721,6.127-15.439a.557.557,0,0,1,.623-.434c.994.03,1.987.021,2.981,0a.373.373,0,0,1,.417.292q3.782,9.551,7.584,19.092c.14.355.04.378-.273.371q-1.259-.024-2.519,0a.427.427,0,0,1-.485-.326c-.431-1.147-.893-2.286-1.325-3.433-.091-.24-.191-.348-.469-.345q-4.492.017-8.984,0a.435.435,0,0,0-.478.34c-.441,1.161-.9,2.316-1.348,3.473-.054.138-.068.289-.289.289C-240.507,517.408-241.526,517.415-242.587,517.415Zm9.686-17.133-3.939,10.381h7.909Z" transform="translate(273.903 -497.332)" fill="#fcfcfc"/>
    <path id="Path_562" data-name="Path 562" d="M-197.246,517.415c-1.01,0-2.027-.007-3.044,0-.231,0-.231-.172-.282-.3-.457-1.154-.917-2.309-1.35-3.47a.424.424,0,0,0-.48-.329q-4.471.014-8.942,0a.46.46,0,0,0-.508.359c-.434,1.147-.9,2.286-1.327,3.435a.4.4,0,0,1-.445.312c-.966-.016-1.931-.007-2.953-.007.268-.686.522-1.339.781-1.992q3.439-8.652,6.868-17.305c.131-.331.271-.471.648-.457.994.033,1.987.019,2.981,0a.353.353,0,0,1,.392.268q3.8,9.585,7.61,19.171A.421.421,0,0,1-197.246,517.415Zm-9.611-17.039c-.131.061-.131.168-.166.259-1.229,3.235-2.451,6.472-3.692,9.7-.124.319-.058.364.252.361,2.381-.009,4.76-.014,7.141,0,.4,0,.382-.112.264-.415-.616-1.572-1.217-3.151-1.821-4.727Q-205.87,502.972-206.857,500.376Z" transform="translate(308.553 -497.332)" fill="#fcfcfc"/>
    <path id="Path_563" data-name="Path 563" d="M-242.978,502.476a7.12,7.12,0,0,0-2.759-1.8,7.227,7.227,0,0,0-4.727-.217,2.834,2.834,0,0,0-1.469,1.061,2.1,2.1,0,0,0,.59,3.128,9.3,9.3,0,0,0,2.691,1.021c1.238.334,2.489.634,3.692,1.089a14.269,14.269,0,0,1,1.336.6c4,2.006,3.438,7.507.268,9.387a8.54,8.54,0,0,1-3.732,1.14,11.423,11.423,0,0,1-7.06-1.479,8.929,8.929,0,0,1-1.728-1.39c-.131-.135-.205-.226-.058-.417q.721-.927,1.4-1.889c.152-.217.231-.142.368,0a8.092,8.092,0,0,0,4.863,2.5,6.64,6.64,0,0,0,3.666-.385,2.749,2.749,0,0,0,1.724-3.106,2.472,2.472,0,0,0-1.376-1.651,11.894,11.894,0,0,0-2.673-.956,28.575,28.575,0,0,1-4.077-1.255c-.282-.124-.555-.263-.828-.4a4.964,4.964,0,0,1-1.157-7.862,6.732,6.732,0,0,1,3.916-1.931,10.572,10.572,0,0,1,7.3,1.355,9.388,9.388,0,0,1,1.36,1.05c.147.131.189.233.044.408C-241.931,501.128-242.442,501.793-242.978,502.476Z" transform="translate(256.015 -497.52)" fill="#fcfcfc"/>
    <path id="Path_564" data-name="Path 564" d="M-222.946,519.243q0-4.726,0-9.453c0-.264,0-.425.362-.422,2.771.019,5.544-.007,8.317.019a5.745,5.745,0,0,1,5.723,4.312c.993,3.85-1.287,7.706-5.884,7.773-1.05.016-2.1,0-3.148.009-.257,0-.338-.063-.331-.327.019-.658.021-1.315,0-1.973-.009-.28.1-.312.34-.317a27.319,27.319,0,0,0,3.272-.065,3.3,3.3,0,0,0,2.92-3.389,3.285,3.285,0,0,0-2.911-3.354,32.884,32.884,0,0,0-3.65-.072c-.546-.012-1.094.019-1.637-.009-.34-.016-.455.072-.45.434.021,1.511.009,3.023.009,4.536,0,3.9,0,7.811.009,11.717,0,.357-.065.487-.455.469-.7-.037-1.4-.028-2.1,0-.319.012-.392-.084-.392-.394C-222.941,525.57-222.946,522.405-222.946,519.243Z" transform="translate(300.057 -481.735)" fill="#87aeb0"/>
    <path id="Path_565" data-name="Path 565" d="M-244.532,519.716a7.223,7.223,0,0,0,3.6,6.374,6.521,6.521,0,0,0,8.622-1.721c.138-.2.245-.205.441-.1.648.357,1.3.709,1.966,1.038.27.135.247.25.091.464a8.768,8.768,0,0,1-6.686,3.839,10.047,10.047,0,0,1-8.356-3.011,9.674,9.674,0,0,1-2.694-6.138,10.284,10.284,0,0,1,2.311-7.755,9.609,9.609,0,0,1,6.407-3.386,9.533,9.533,0,0,1,6.411,1.276,9.334,9.334,0,0,1,2.64,2.554c.142.2.126.289-.1.4-.674.343-1.339.7-2,1.059-.17.093-.282.119-.413-.075-2.682-3.974-9.378-3.545-11.575,1.556A8.975,8.975,0,0,0-244.532,519.716Z" transform="translate(267.233 -481.924)" fill="#86aeb0"/>
    <path id="Path_566" data-name="Path 566" d="M-231.86,509.378c1.138,0,2.2,0,3.256,0,.245,0,.292.191.385.331q2.631,3.995,5.259,7.995c.091.138.187.275.285.417.17-.075.217-.231.294-.35q2.627-4.027,5.241-8.058a.649.649,0,0,1,.639-.341c.977.021,1.959.007,2.955.007.023.2-.124.313-.21.441q-3.579,5.356-7.172,10.7a1.3,1.3,0,0,0-.24.777c.009,2.477,0,4.954.012,7.433,0,.3-.061.411-.387.4-.725-.028-1.455-.028-2.183,0-.35.014-.408-.114-.406-.427.012-2.421,0-4.844.012-7.265a1.692,1.692,0,0,0-.3-1.012q-3.565-5.265-7.1-10.549C-231.62,509.738-231.713,509.6-231.86,509.378Z" transform="translate(288.194 -481.734)" fill="#87aeb0"/>
    <path id="Path_567" data-name="Path 567" d="M-239.583,508.861c0,2.717,0,5.432.009,8.149,0,.32-.068.424-.406.41q-1.07-.042-2.141,0c-.34.014-.438-.065-.436-.424q.018-8.085.009-16.169c0-.551,0-.551-.553-.551-1.738,0-3.473-.007-5.208,0-.285,0-.387-.051-.373-.359.026-.613.026-1.231,0-1.847-.014-.324.072-.413.406-.413,3.652.014,7.307.009,10.961.009,1.161,0,2.323.009,3.484-.007.3,0,.378.082.366.373-.021.6-.028,1.2,0,1.805.016.341-.065.445-.427.443-1.777-.021-3.557,0-5.334-.019-.289,0-.368.065-.368.364C-239.576,503.374-239.583,506.119-239.583,508.861Z" transform="translate(265.782 -497.33)" fill="#fefefe"/>
    <path id="Path_568" data-name="Path 568" d="M-210.34,518.923c0,2.379-.007,4.758.009,7.137,0,.357-.1.443-.441.429q-1.05-.042-2.1,0c-.35.014-.441-.084-.441-.436.014-3.638.009-7.277.009-10.915,0-1.119.016-2.239-.009-3.356-.007-.364.107-.443.448-.431.711.026,1.427.026,2.139,0,.317-.012.394.082.392.394C-210.344,514.138-210.34,516.53-210.34,518.923Z" transform="translate(312.905 -479.095)" fill="#87afb1"/>
    <path id="Path_569" data-name="Path 569" d="M-208.329,511.9c-2.4,0-4.811-.007-7.216.009-.317,0-.406-.079-.392-.392.023-.6.016-1.2,0-1.805-.007-.245.047-.338.32-.338q7.28.01,14.56,0c.254,0,.341.068.334.329-.016.672,0,1.343-.009,2.015,0,.1.075.245-.175.219a12.807,12.807,0,0,0-1.339-.035Q-205.287,511.895-208.329,511.9Z" transform="translate(309.406 -481.732)" fill="#87afb1"/>
  </g>
</svg>
