<?xml version="1.0" encoding="UTF-8"?>
<svg id="katman_1" data-name="katman 1" xmlns="http://www.w3.org/2000/svg" viewBox="0 0 300 100">
  <defs>
    <style>
      .cls-1 {
        fill: #2163af;
      }
    </style>
  </defs>
  <g id="Group_155" data-name="Group 155" transform="translate(8.94 9.907)">
    <path id="Path_555" data-name="Path 555" class="cls-1" d="M131.34,31.01v14.6c0,.3-.1,.5-.4,.4h-2.1c-.3,0-.4-.1-.4-.4V26.71c0-.3,.1-.4,.4-.4h2.3c.2,0,.5,.1,.6,.3,3.4,4.7,6.8,9.3,10.1,14,.1,.1,.2,.3,.4,.5v-14.3c0-.3,.1-.4,.4-.4h2.1c.3,0,.4,.1,.4,.4v19c0,.2-.1,.3-.3,.3h-2.2c-.3,0-.5-.1-.7-.3-3.4-4.8-6.8-9.5-10.2-14.2-.2-.3-.3-.5-.4-.6h0Z"/>
    <path id="Path_556" data-name="Path 556" class="cls-1" d="M149.54,36.11v-9.4c0-.4,.1-.4,.4-.4h7.1c3.2-.1,6.2,1.5,8.1,4.1,1.4,2,1.9,4.5,1.6,6.9-.2,2.2-1.1,4.2-2.7,5.8-1.6,1.6-3.7,2.6-6,2.8-2.5,.2-5,.1-7.5,.1-.4,0-.8,.1-1.1-.1s-.1-.7-.1-1c.2-2.9,.2-5.9,.2-8.8Zm2.9,0v6.9c0,.2,0,.4,.3,.4h4.1c2.6,.1,5-1.4,6.1-3.8,.7-1.6,.9-3.3,.6-5-.4-3.1-3-5.4-6.1-5.7-1.6-.1-3.1,0-4.7-.1-.4,0-.4,.1-.4,.4,.1,2.3,.1,4.6,.1,6.9h0Z"/>
    <path id="Path_557" data-name="Path 557" class="cls-1" d="M207.34,36.11v-9.5c0-.3,.1-.4,.4-.4h7.2c3.2-.1,6.2,1.5,8.1,4.1,1.4,2,1.9,4.5,1.6,6.9-.2,2.2-1.1,4.3-2.7,5.8-1.6,1.6-3.7,2.6-5.9,2.8-2.5,.2-5,.1-7.4,.1-.4,0-.9,.1-1.1-.1-.3-.2-.1-.8-.1-1.2-.2-2.7-.1-5.6-.1-8.5Zm2.9,0v6.9c0,.2,0,.4,.3,.4h4.1c2.6,.1,5-1.4,6.2-3.8,.7-1.6,.9-3.3,.6-5-.4-3.1-3-5.4-6.1-5.7-1.6-.1-3.1,0-4.7-.1-.3,0-.4,.1-.4,.4,0,2.3,0,4.6,0,6.9h0Z"/>
    <path id="Path_558" data-name="Path 558" class="cls-1" d="M205.24,63.11c.1,2.3-.5,4.5-1.8,6.4-1.7,2.5-4.4,4-7.4,4-2.3,.2-4.6-.4-6.5-1.7-2.1-1.4-3.6-3.7-4-6.2-.6-2.7-.2-5.5,1.2-7.9,1.5-2.6,4.2-4.3,7.2-4.6,2.2-.3,4.4,.1,6.3,1.1,2.6,1.4,4.4,4,4.8,6.9,.2,.8,.2,1.4,.2,2Zm-3,.2c0-.4,0-.9-.1-1.4-.3-3.4-3.2-6-6.6-6-2.6-.2-5.1,1.2-6.2,3.6-1,2-1.2,4.3-.6,6.4,.9,3.6,4.6,5.9,8.2,5,1.1-.3,2.1-.8,2.9-1.5,1.6-1.7,2.5-3.8,2.4-6.1h0Z"/>
    <path id="Path_559" data-name="Path 559" class="cls-1" d="M203.74,46.01h-3.3c-.2,0-.3-.2-.4-.3-1.4-2.3-2.9-4.6-4.3-6.9-.1-.3-.4-.5-.8-.4h-2.8c-.3,0-.4,.1-.4,.4v6.8c0,.3-.1,.4-.4,.4h-2.3c-.2,0-.3-.1-.3-.3V26.61c0-.2,.1-.3,.3-.3h8.5c3.2,0,5.8,2.5,5.9,5.7v.5c.1,2.7-1.9,5.1-4.6,5.5-.4,.1-.2,.2-.1,.4,1.5,2.4,3.1,4.8,4.6,7.2l.4,.4Zm-11.8-13.7v3.1c0,.2,0,.3,.3,.3h4.9c1.9,0,3.4-1.4,3.5-3.3,0-.5-.1-1-.3-1.4-.6-1.4-1.9-2.2-3.4-2.1h-4.6c-.3,0-.4,.1-.4,.3v3.1h0Z"/>
    <path id="Path_560" data-name="Path 560" class="cls-1" d="M130.64,73.31h-3.2c-.3,0-.3-.2-.4-.3-1.4-2.3-2.9-4.6-4.3-7-.1-.2-.4-.4-.6-.3-.4,0-.8,.2-1.1-.1s-.1-.7-.1-1v-1c0-.3,.1-.4,.4-.4,1,.1,2.1,0,3.1-.1,1.7-.2,3-1.6,3-3.4,0-1.7-1.2-3.2-3-3.4-.5-.1-1-.1-1.5-.1h-3.8c-.3,0-.4,.1-.4,.4v16.4c0,.2-.1,.3-.3,.3h-2.3c-.3,0-.4-.1-.4-.4v-18.9c0-.3,0-.4,.4-.4h8.2c2-.1,3.8,.9,5,2.5,1.6,2.2,1.6,6.7-1.5,8.5-.6,.4-1.2,.6-1.9,.7-.4,.1-.3,.2-.2,.4,1.5,2.4,3,4.7,4.5,7.1,.1,.1,.2,.3,.4,.5Z"/>
    <path id="Path_561" data-name="Path 561" class="cls-1" d="M106.54,46.01l1.5-3.9c2-5.1,4.1-10.3,6.1-15.4,.1-.3,.3-.5,.6-.4h3c.2,0,.4,.1,.4,.3,2.5,6.4,5,12.7,7.6,19.1,.1,.4,0,.4-.3,.4h-2.5c-.2,0-.4-.1-.5-.3-.4-1.1-.9-2.3-1.3-3.4-.1-.2-.2-.3-.5-.3h-9c-.2,0-.4,.1-.5,.3-.4,1.2-.9,2.3-1.3,3.5-.1,.1-.1,.3-.3,.3-.9-.2-1.9-.2-3-.2Zm9.7-17.2l-3.9,10.4h7.9l-4-10.4Z"/>
    <path id="Path_562" data-name="Path 562" class="cls-1" d="M186.54,46.01h-3c-.2,0-.2-.2-.3-.3-.5-1.2-.9-2.3-1.4-3.5,0-.2-.3-.4-.5-.3h-8.9c-.2,0-.5,.1-.5,.4-.4,1.1-.9,2.3-1.3,3.4,0,.2-.2,.3-.4,.3h-3c.3-.7,.5-1.3,.8-2,2.3-5.8,4.6-11.5,6.9-17.3,.1-.3,.3-.5,.6-.5h3c.2,0,.3,.1,.4,.3,2.5,6.4,5.1,12.8,7.6,19.2v.3Zm-9.6-17.1c-.1,.1-.1,.2-.2,.3-1.2,3.2-2.5,6.5-3.7,9.7-.1,.3-.1,.4,.3,.4h7.1c.4,0,.4-.1,.3-.4-.6-1.6-1.2-3.2-1.8-4.7-.7-1.8-1.3-3.5-2-5.3h0Z"/>
    <path id="Path_563" data-name="Path 563" class="cls-1" d="M88.24,30.91c-.8-.8-1.7-1.4-2.8-1.8-1.4-.6-3.1-.7-4.6-.3-.6,.2-1.2,.6-1.5,1.1-.7,.9-.6,2.2,.3,3,.1,0,.2,.1,.3,.1,.8,.5,1.7,.8,2.7,1,1.2,.3,2.5,.6,3.7,1.1,.5,.2,.9,.4,1.3,.6,4,2,3.4,7.5,.3,9.4-1.1,.7-2.4,1.1-3.7,1.1-2.5,.3-4.9-.2-7.1-1.5-.6-.4-1.2-.9-1.7-1.4-.1-.1-.2-.2-.1-.4,.5-.6,.9-1.2,1.4-1.9,.2-.2,.2-.1,.4,0,1.3,1.4,3,2.3,4.9,2.5,1.2,.2,2.5,.1,3.7-.4,1.3-.5,2-1.8,1.7-3.1-.2-.7-.7-1.3-1.4-1.7-.8-.4-1.7-.7-2.7-1-1.4-.3-2.8-.7-4.1-1.3-.3-.1-.6-.3-.8-.4-2.4-1.3-3.3-4.3-2-6.7,.2-.2,.5-.6,.8-.9,1-1.1,2.4-1.8,3.9-2,2.5-.4,5.1,0,7.3,1.4,.5,.3,.9,.7,1.4,1,.1,.1,.2,.2,0,.4-.5,.7-1,1.4-1.6,2.1Z"/>
    <path id="Path_564" data-name="Path 564" class="cls-1" d="M152.34,63.41v-9.5c0-.3,0-.4,.4-.4h8.3c2.7-.1,5.1,1.7,5.7,4.3,1,3.8-1.3,7.7-5.9,7.8h-3.1c-.3,0-.3-.1-.3-.3v-2c0-.3,.1-.3,.3-.3,1.1,0,2.2,0,3.3-.1,1.7-.2,3-1.7,2.9-3.4,0-1.7-1.2-3.2-2.9-3.4-1.2-.1-2.4-.1-3.6-.1h-1.6c-.3,0-.5,.1-.4,.4v16.2c0,.4-.1,.5-.5,.5h-2.1c-.3,0-.4-.1-.4-.4-.1-3-.1-6.1-.1-9.3Z"/>
    <path id="Path_565" data-name="Path 565" class="cls-1" d="M97.94,63.71c0,2.6,1.3,5.1,3.6,6.4,2.9,1.7,6.6,1,8.6-1.7,.1-.2,.2-.2,.4-.1,.6,.4,1.3,.7,2,1,.3,.1,.2,.2,.1,.5-1.5,2.2-4,3.7-6.7,3.8-3.1,.3-6.2-.8-8.4-3-1.6-1.7-2.6-3.8-2.7-6.1-.3-2.8,.5-5.6,2.3-7.8,1.6-1.9,3.9-3.1,6.4-3.4,2.2-.3,4.5,.1,6.4,1.3,1,.7,1.9,1.5,2.6,2.6,.1,.2,.1,.3-.1,.4-.7,.3-1.3,.7-2,1.1-.2,.1-.3,.1-.4-.1-2.7-4-9.4-3.5-11.6,1.6-.3,1-.5,2.3-.5,3.5Z"/>
    <path id="Path_566" data-name="Path 566" class="cls-1" d="M131.54,53.51h3.3c.2,0,.3,.2,.4,.3,1.8,2.7,3.5,5.3,5.3,8,.1,.1,.2,.3,.3,.4,.2-.1,.2-.2,.3-.3,1.8-2.7,3.5-5.4,5.2-8.1,.1-.2,.4-.4,.6-.3h3c0,.2-.1,.3-.2,.4-2.4,3.6-4.8,7.1-7.2,10.7-.2,.3-.3,.6-.3,.9v7.4c0,.3-.1,.4-.4,.4h-2.2c-.4,0-.4-.1-.4-.4v-7.3c0-.4-.1-.7-.3-1-2.4-3.5-4.7-7-7.1-10.5,0-.2-.1-.3-.3-.6Z"/>
    <path id="Path_567" data-name="Path 567" class="cls-1" d="M101.44,37.41v8.1c0,.3-.1,.4-.4,.4h-2.1c-.3,0-.4-.1-.4-.4V29.31q0-.6-.6-.6h-5.2c-.3,0-.4-.1-.4-.4v-1.8c0-.3,.1-.4,.4-.4h14.5c.3,0,.4,.1,.4,.4v1.8c0,.3-.1,.4-.4,.4h-5.3c-.3,0-.4,.1-.4,.4-.1,2.8-.1,5.6-.1,8.3Z"/>
    <path id="Path_568" data-name="Path 568" class="cls-1" d="M177.84,65.71v7.1c0,.4-.1,.4-.4,.4h-2.1c-.4,0-.4-.1-.4-.4v-14.3c0-.4,.1-.4,.4-.4h2.1c.3,0,.4,.1,.4,.4v7.2Z"/>
    <path id="Path_569" data-name="Path 569" class="cls-1" d="M176.34,56.11h-7.2c-.3,0-.4-.1-.4-.4v-1.8c0-.2,0-.3,.3-.3h14.6c.3,0,.3,.1,.3,.3v2c0,.1,.1,.2-.2,.2h-7.4Z"/>
  </g>
</svg>