<?xml version="1.0" encoding="utf-8"?>
<!-- Generator: Adobe Illustrator 26.3.1, SVG Export Plug-In . SVG Version: 6.00 Build 0)  -->
<svg version="1.1" id="katman_1" xmlns="http://www.w3.org/2000/svg" xmlns:xlink="http://www.w3.org/1999/xlink" x="0px" y="0px"
	 viewBox="0 0 167.3 21" style="enable-background:new 0 0 167.3 21;" xml:space="preserve">
<style type="text/css">
	.st0{fill:#2666B0;}
	.st1{display:none;fill:#FFFFFF;}
</style>
<g id="stone_bridge" transform="translate(-0.019 -0.001)">
	<path id="Path_652" class="st0" d="M82.6,20.9c0-0.2-0.1-0.4-0.1-0.7c2.3-1.4,1.7-3.6,1.7-5.6c0-2.9,0-5.8,0-8.8
		c0-1.9,0.6-4.1-2.2-5.3c0.5-0.2,0.9-0.3,1.4-0.4c3,0,6,0,8.9,0.1s4.6,1.3,5,3.1C98.1,6,97.2,8,94.6,9.5c-0.1,0.1-0.3,0.2-0.5,0.3
		c0.3,0.2,0.5,0.4,0.8,0.5c2.4,1.2,3.2,2.8,2.9,5.6c-0.1,2.2-1.8,4.1-4,4.3C90,20.7,86.3,20.7,82.6,20.9z M87.3,19.2
		c2.5-0.1,5.1,0.7,6.7-1.8c1-1.5,1-3.5-0.2-5c-1.7-2.2-4.2-1.5-6.5-1.6V19.2z M87.3,9.4c1.5,0,2.9-0.2,4.3-0.4
		c2-0.5,2.9-2.1,2.7-4.2c-0.1-1.8-1-2.7-3.1-3c-1-0.1-2-0.2-3-0.1c-0.4,0.1-0.8,0.5-0.9,0.9C87.2,4.7,87.3,6.9,87.3,9.4L87.3,9.4z"
		/>
	<path id="Path_653" class="st0" d="M11.9,4.6c-1.1,0.3-1.7,0.1-2.1-1C9.2,1.9,8,1.3,6.2,1.5c-1.3,0-2.5,0.8-2.9,2.1
		C2.8,5.1,3.4,6.8,4.9,7.7c1.5,1,3,1.7,4.5,2.7c2.1,1.2,3.2,3.6,2.8,6c-0.3,2.2-1.6,4.1-3.9,4.3c-2.5,0.1-5.1,0-7.6-0.3
		c-0.3,0-0.6-0.6-0.7-1c-0.1-1,0-2.1,0-3.2c1.1-0.4,1.7-0.3,2.1,0.9c0.5,1.6,2,2.6,3.7,2.4c1.5,0.1,2.9-0.8,3.3-2.2
		c0.6-1.6,0-3.4-1.4-4.4c-1.3-0.9-2.8-1.6-4.1-2.4c-1.5-0.9-2.9-2-3.3-3.9c-0.7-2.8,1.1-5.7,3.9-6.3c0.3-0.1,0.7-0.1,1-0.1
		c1.8,0,3.6,0,5.4,0.2c0.9,0,1.3,0.5,1.2,1.4S11.9,3.6,11.9,4.6z"/>
	<path id="Path_654" class="st0" d="M48.9,7.6c0,3.9-0.1,7.2,0.1,10.5c0,0.8,0.7,1.6,1.2,2.5h-4.6c2.5-1.9,1.5-4.5,1.6-6.7
		c0.1-2.4,0.1-4.8-0.1-7.2c-0.1-0.8-0.8-1.5-1.2-2.2C48,3.6,49.7,4.1,50.8,6l5.9,9.8c0-3.3,0.1-6.5-0.1-9.7c0-0.5-0.8-1-1.4-1.7h4.6
		c-1.8,1.4-1.3,3.2-1.3,4.9c0,3.8,0,7.5,0,11.4c-0.8,0.4-1.8,0.2-2.3-0.6c0-0.1-0.1-0.1-0.1-0.2C53.8,15.8,51.5,11.9,48.9,7.6z"/>
	<path id="Path_655" class="st0" d="M104.8,13.8c0.4,2.2-1.1,4.7,1.8,6.7h-6.2c2.5-1.4,1.8-3.4,1.9-5.3c0.1-2.2,0-4.5,0-6.7
		c0-1.5,0.3-3.1-1.9-4.1c0.5-0.2,1-0.3,1.5-0.3c2.3,0,4.6,0,6.8,0.2c2.4,0.3,3.5,1.3,3.8,3.2c0.4,2-0.6,4-2.3,5l-0.7,0.5l5.1,7.5
		c-3,0.7-3.2,0.6-4.7-2.2c-0.5-1-1-2-1.6-2.9C107.5,13.7,107.2,13.5,104.8,13.8z M104.9,12.4c1.8,0,3.6,0.3,4.6-1.5
		c0.9-1.3,0.8-3-0.1-4.2c-1.1-1.5-2.8-1.3-4.5-1.1V12.4z"/>
	<path id="Path_656" class="st0" d="M124.1,20.4c2.2-1.2,1.6-3.1,1.6-4.9c0.1-2.2,0-4.4,0-6.5c0-1.6,0.4-3.4-1.5-4.6
		c3.5,0,6.8-0.7,10,0.7c1.8,0.7,3.1,2.3,3.3,4.2c0.3,2.1,0.2,4.3-0.2,6.4c-0.4,2.6-2.5,4.6-5.1,4.7c-2.6,0.3-5.2,0.3-7.8,0.4
		L124.1,20.4z M128.2,19.4c3.6,0.3,5.8-0.6,6.4-3.3c0.5-2.2,0.5-4.4,0.2-6.6c-0.6-3.2-3.2-4.6-6.5-3.9L128.2,19.4z"/>
	<path id="Path_657" class="st0" d="M43.3,12.3c-0.2,2.4-0.6,4.7-2.2,6.6c-2.4,2.8-9.3,3.2-10.8-2.3c-0.9-3.3-0.9-6.7,0.9-9.7
		c1.5-2.5,3.9-3.1,6.7-2.7c2.3,0.2,4.1,1.8,4.6,4C42.9,9.5,43.1,10.9,43.3,12.3z M32.3,12.4c0.3,1.7,0.7,3.4,1.2,5
		c0.4,1.4,1.7,2.3,3.2,2.2c1.4,0,2.7-1,3.1-2.4c1.2-3.1,1.1-6.6-0.1-9.7c-0.6-1.7-2.4-2.7-4.2-2.1c-1,0.3-1.9,1.2-2.2,2.3
		C32.8,9.3,32.5,10.8,32.3,12.4L32.3,12.4z"/>
	<path id="Path_658" class="st0" d="M62.5,20.3c2-1,1.6-2.8,1.6-4.5c0-2.3,0-4.6,0-6.9c0-1.6,0.4-3.4-1.4-4.7H74v3.7
		c-0.5-0.2-1.3-0.3-1.4-0.5c-0.6-2.1-2.2-2.2-3.9-2.1c-0.6,0-1.3,0-2,0v6c1.4-0.1,3.1,0.8,3.9-1.3c0.1-0.3,0.7-0.3,1.3-0.5v5.1
		c-1.8-0.9-3-3.1-5.3-1.7v6.4c1.4,0.1,2.7,0.1,4.1-0.1c0.7-0.2,1.4-1.2,1.8-1.9s0.6-1.4,1.5-0.9v4.2H62.8L62.5,20.3z"/>
	<path id="Path_659" class="st0" d="M156,4.3h11.3v3.9c-0.6-0.4-1.3-0.6-1.5-0.9c-0.6-1.6-1.7-2-3.3-1.9c-0.8,0.1-1.7,0-2.6,0v6
		c1.5-0.1,3.2,0.7,4-1.3c0.1-0.2,0.7-0.3,1.2-0.4v5.1c-1.7-0.9-2.9-2.9-5.2-1.7v6.4c1.3,0.1,2.7,0.1,4-0.1c0.8-0.2,1.3-1.3,1.9-2
		c0.4-0.4,0.8-0.8,1.1-1.2l0.3,0.3v4.2h-11.7c2.5-1.7,1.7-3.9,1.8-5.9c0.1-2.1,0-4.2,0-6.4c0-1.4,0.2-2.9-1.6-3.7L156,4.3z"/>
	<path id="Path_660" class="st0" d="M152.1,4.6v3.8c-0.8-0.6-1.3-0.8-1.6-1.3c-0.8-1.6-2.7-2.3-4.3-1.5c-0.5,0.2-0.9,0.6-1.2,1
		c-0.5,0.7-0.9,1.4-1.2,2.2c-0.7,2.5-0.7,5.1,0,7.6c0.2,0.7,0.5,1.4,1,2c1,1.4,3,1.7,4.5,0.7l0,0c1-1,0.9-3.9-0.2-4.8
		c-0.3-0.2-0.6-0.3-0.9-0.4l0.3-0.5h5c-1.8,2-1,4.4-1.2,6.7c-0.1,1-0.7,1-1.5,0.6c-0.4-0.2-0.9-0.3-1.4-0.1
		c-4.5,1.5-7.9-0.5-8.6-5.1c-0.2-1.4-0.2-2.8-0.1-4.3c0.6-5.5,3.9-7.8,9.6-6.8C150.9,4.3,151.4,4.4,152.1,4.6z"/>
	<path id="Path_661" class="st0" d="M18.3,20.5c2.1-1.3,1.5-3.4,1.5-5.2c0-3.2,0-6.5,0-9.7c-2.2-0.5-2.9-0.1-3.7,1.9
		C15.9,8,15.4,8.4,15,8.8l-0.4-0.3V4.3h12.9v4.6c-0.7-0.6-1.3-0.8-1.5-1.3c-1-2.2-1.1-2.3-3.7-2.2c0,0.5-0.1,1.1-0.1,1.7v9.1
		c0,2.6,0,2.6,1.7,4.3H18.3z"/>
	<path id="Path_662" class="st0" d="M121.5,20.6h-5.1c2-1.5,1.3-3.5,1.3-5.3c0.1-2.2,0-4.4,0-6.5c0-1.5,0.4-3.2-1.4-4.4h5.6
		c-2.4,1.4-1.8,3.4-1.8,5.3c-0.1,2.2,0,4.5,0,6.7c0,1.5-0.5,3.2,1.7,3.9L121.5,20.6z"/>
	<path id="Path_663" class="st1" d="M87.3,19.2v-8.3c2.4,0.1,4.8-0.6,6.5,1.6c1.1,1.4,1.2,3.4,0.2,5C92.4,19.9,89.8,19,87.3,19.2z"
		/>
	<path id="Path_664" class="st1" d="M87.3,9.4c0-2.5,0-4.6,0-6.8c0.1-0.4,0.5-0.8,0.9-0.9c1-0.1,2-0.1,3,0.1c2.1,0.3,3,1.2,3.1,3
		C94.5,7,93.5,8.6,91.6,9C90.2,9.2,88.7,9.3,87.3,9.4z"/>
	<path id="Path_665" class="st1" d="M104.9,12.4V5.6c1.7-0.2,3.4-0.4,4.5,1.1c0.9,1.2,1,2.9,0.1,4.2
		C108.5,12.7,106.7,12.4,104.9,12.4z"/>
	<path id="Path_666" class="st1" d="M128.2,19.4V5.7c3.3-0.7,6,0.7,6.5,3.9c0.4,2.2,0.3,4.4-0.2,6.6C134,18.7,131.9,19.7,128.2,19.4
		z"/>
	<path id="Path_667" class="st1" d="M32.3,12.4c0.3-1.7,0.5-3.2,1-4.6c0.4-1.8,2.3-2.8,4-2.3c1.1,0.3,1.9,1.1,2.3,2.2
		c1.2,3.1,1.3,6.5,0.1,9.7c-0.4,1.4-1.7,2.3-3.1,2.4c-1.5,0.1-2.8-0.8-3.2-2.2C32.9,15.8,32.5,14.1,32.3,12.4z"/>
</g>
</svg>
