<svg xmlns="http://www.w3.org/2000/svg" width="167.256" height="20.963" viewBox="0 0 167.256 20.963">
  <g id="stone_bridge" transform="translate(-0.019 -0.001)">
    <path id="Path_652" data-name="Path 652" d="M257.6,21.144a4.534,4.534,0,0,1-.061-.661c2.251-1.357,1.73-3.579,1.743-5.622.019-2.925.029-5.849,0-8.774-.019-1.938.591-4.106-2.235-5.3A6.411,6.411,0,0,1,258.458.35c2.976.019,5.954,0,8.94.137,2.9.134,4.562,1.252,5.016,3.126.639,2.615-.278,4.582-2.838,6.114-.134.08-.265.166-.52.319a9.122,9.122,0,0,0,.785.511c2.388,1.226,3.193,2.806,2.893,5.619a4.611,4.611,0,0,1-4.029,4.329C265.016,20.943,261.315,20.956,257.6,21.144Zm4.7-1.75c2.49-.125,5.108.706,6.679-1.8a4.22,4.22,0,0,0-.166-4.958c-1.689-2.165-4.151-1.507-6.513-1.561Zm-.067-9.786a31.3,31.3,0,0,0,4.332-.415c1.986-.469,2.905-2.05,2.736-4.234-.137-1.753-1.041-2.663-3.126-2.96a12.905,12.905,0,0,0-3-.077,1.315,1.315,0,0,0-.9.9c-.08,2.161-.042,4.32-.042,6.791Z" transform="translate(-174.969 -0.238)"/>
    <path id="Path_653" data-name="Path 653" d="M11.883,4.636c-1.133.319-1.683.083-2.069-.958C9.176,1.916,8.023,1.329,6.191,1.45A2.961,2.961,0,0,0,3.273,3.512,3.519,3.519,0,0,0,4.894,7.663c1.459.958,3.039,1.743,4.527,2.669a5.671,5.671,0,0,1,2.758,5.983c-.275,2.168-1.631,4.064-3.866,4.275A46.685,46.685,0,0,1,.744,20.3c-.259,0-.639-.639-.674-1-.093-1.05-.032-2.117-.032-3.193,1.07-.37,1.67-.255,2.069.926a3.377,3.377,0,0,0,3.7,2.414,3.218,3.218,0,0,0,3.327-2.235,3.7,3.7,0,0,0-1.421-4.38c-1.3-.907-2.755-1.6-4.115-2.423C2.072,9.486.693,8.4.332,6.5A5.255,5.255,0,0,1,5.281.048a40.748,40.748,0,0,1,5.392.214c.932.042,1.3.485,1.226,1.43S11.883,3.6,11.883,4.636Z" transform="translate(0 0)"/>
    <path id="Path_654" data-name="Path 654" d="M145.883,16.192c0,3.85-.077,7.2.054,10.536.029.8.738,1.58,1.188,2.471H142.48c2.516-1.916,1.475-4.47,1.6-6.749a59.1,59.1,0,0,0-.064-7.174c-.051-.753-.776-1.459-1.188-2.181,2.091-.91,3.755-.437,4.885,1.453l5.875,9.821c0-3.349.051-6.542-.054-9.731-.019-.508-.763-.987-1.354-1.7h4.582c-1.807,1.363-1.277,3.215-1.277,4.891-.026,3.771,0,7.544,0,11.353a1.659,1.659,0,0,1-2.359-.859C150.823,24.394,148.457,20.5,145.883,16.192Z" transform="translate(-96.977 -8.609)"/>
    <path id="Path_655" data-name="Path 655" d="M319.078,22.72c.405,2.193-1.1,4.732,1.849,6.7h-6.152c2.532-1.414,1.849-3.445,1.9-5.255.061-2.235.022-4.47,0-6.7,0-1.5.319-3.126-1.944-4.071a8.478,8.478,0,0,1,1.475-.345c2.283.035,4.582-.038,6.842.2,2.433.255,3.5,1.277,3.831,3.164a4.785,4.785,0,0,1-2.315,5.019l-.718.453,5.14,7.528c-2.995.661-3.193.575-4.681-2.19-.53-.983-1.031-1.979-1.577-2.95C321.764,22.548,321.39,22.385,319.078,22.72Zm.1-1.443c1.794.032,3.566.262,4.62-1.51a3.61,3.61,0,0,0-.1-4.2c-1.143-1.5-2.829-1.344-4.524-1.108Z" transform="translate(-214.233 -8.883)"/>
    <path id="Path_656" data-name="Path 656" d="M388.77,29.317c2.209-1.172,1.6-3.148,1.619-4.91.051-2.177.032-4.358,0-6.535-.019-1.625.434-3.407-1.542-4.575,3.467-.035,6.8-.7,9.984.677a5.146,5.146,0,0,1,3.3,4.2,22.7,22.7,0,0,1-.16,6.446,5.593,5.593,0,0,1-5.143,4.738c-2.554.319-5.169.284-7.752.409Zm4.1-1.038c3.624.319,5.782-.61,6.369-3.282a17.081,17.081,0,0,0,.172-6.551c-.578-3.193-3.193-4.569-6.542-3.863Z" transform="translate(-264.634 -8.921)"/>
    <path id="Path_657" data-name="Path 657" d="M106.692,20.928c-.23,2.4-.565,4.7-2.155,6.609-2.363,2.835-9.31,3.247-10.807-2.315-.9-3.336-.91-6.654.923-9.725,1.51-2.529,3.943-3.065,6.65-2.688a5.31,5.31,0,0,1,4.61,4.068C106.292,18.192,106.439,19.574,106.692,20.928Zm-11.044.112A51.207,51.207,0,0,0,96.8,26.049a3.1,3.1,0,0,0,3.193,2.235,3.27,3.27,0,0,0,3.1-2.359,13.441,13.441,0,0,0-.115-9.661,3.309,3.309,0,0,0-6.331.137A41.694,41.694,0,0,0,95.648,21.039Z" transform="translate(-63.389 -8.645)"/>
    <path id="Path_658" data-name="Path 658" d="M195.81,29.581c2.011-1.038,1.6-2.819,1.6-4.47q.026-3.426,0-6.855c0-1.641.405-3.419-1.389-4.687h11.257V17.3c-.524-.192-1.306-.265-1.382-.543-.607-2.107-2.184-2.2-3.924-2.1-.639.038-1.277,0-2.043,0v6c1.434-.064,3.065.785,3.93-1.277.109-.255.747-.291,1.277-.473v5.108c-1.759-.935-2.982-3.138-5.252-1.718v6.36a17.366,17.366,0,0,0,4.087-.089c.725-.179,1.379-1.175,1.785-1.948s.591-1.351,1.545-.942v4.2H196.1Z" transform="translate(-133.281 -9.237)"/>
    <path id="Path_659" data-name="Path 659" d="M487.745,13.52H499v3.924c-.639-.39-1.344-.559-1.485-.932-.6-1.6-1.734-2.005-3.276-1.89-.836.064-1.686,0-2.637,0v6.025c1.5-.067,3.17.741,3.988-1.338.089-.233.686-.268,1.2-.447v5.07c-1.679-.9-2.947-2.931-5.188-1.683v6.385a15.381,15.381,0,0,0,3.962-.093c.773-.214,1.3-1.3,1.941-2,.38-.412.763-.814,1.146-1.223l.319.271v4.227H487.32c2.5-1.676,1.679-3.914,1.762-5.913.089-2.12.022-4.249.019-6.385,0-1.411.227-2.912-1.577-3.652Z" transform="translate(-331.72 -9.203)"/>
    <path id="Path_660" data-name="Path 660" d="M451.975,13.109v3.831c-.753-.587-1.341-.84-1.6-1.277a3.243,3.243,0,0,0-5.523-.562,6.332,6.332,0,0,0-1.178,2.235,13.914,13.914,0,0,0-.016,7.551,6.014,6.014,0,0,0,.958,1.983,3.192,3.192,0,0,0,4.5.661c.987-.958.9-3.876-.172-4.815a3,3,0,0,0-.856-.364l.319-.52h5c-1.836,2-.983,4.428-1.2,6.7-.1,1.022-.7.958-1.469.581a2.05,2.05,0,0,0-1.37-.147c-4.5,1.52-7.947-.476-8.6-5.137a17.214,17.214,0,0,1-.1-4.269c.616-5.514,3.937-7.841,9.62-6.839C450.8,12.816,451.311,12.956,451.975,13.109Z" transform="translate(-299.913 -8.508)"/>
    <path id="Path_661" data-name="Path 661" d="M49.327,29.724c2.149-1.277,1.453-3.359,1.481-5.169.048-3.237,0-6.475,0-9.69-2.213-.536-2.9-.147-3.735,1.855-.2.476-.715.817-1.089,1.22l-.434-.281V13.48H58.464v4.636c-.677-.568-1.277-.827-1.456-1.261-.958-2.152-1.13-2.305-3.656-2.184-.032.536-.089,1.1-.093,1.654v9.093c0,2.554,0,2.554,1.734,4.307Z" transform="translate(-30.994 -9.176)"/>
    <path id="Path_662" data-name="Path 662" d="M369.578,29.9h-5.067c1.983-1.459,1.293-3.493,1.344-5.3.061-2.177.026-4.361,0-6.542,0-1.545.383-3.237-1.4-4.393H370.1c-2.439,1.43-1.8,3.445-1.839,5.255-.054,2.235-.035,4.47,0,6.7.019,1.491-.46,3.174,1.724,3.94Z" transform="translate(-248.086 -9.298)"/>
    <path id="Path_663" data-name="Path 663" d="M273.51,42.187v-8.3c2.35.054,4.824-.6,6.513,1.561a4.219,4.219,0,0,1,.166,4.958C278.622,42.9,276,42.069,273.51,42.187Z" transform="translate(-186.174 -23.031)" fill="#fff"/>
    <path id="Path_664" data-name="Path 664" d="M273.28,12.871c0-2.471-.038-4.629.042-6.784a1.315,1.315,0,0,1,.9-.9,12.9,12.9,0,0,1,3,.077c2.085.3,2.988,1.207,3.126,2.96.169,2.184-.75,3.764-2.736,4.234A31.3,31.3,0,0,1,273.28,12.871Z" transform="translate(-186.011 -3.494)" fill="#fff"/>
    <path id="Path_665" data-name="Path 665" d="M328.66,23.957v-6.82c1.7-.236,3.381-.393,4.524,1.108a3.609,3.609,0,0,1,.1,4.2C332.226,24.219,330.454,23.989,328.66,23.957Z" transform="translate(-223.716 -11.563)" fill="#fff"/>
    <path id="Path_666" data-name="Path 666" d="M401.6,31.04v-13.7c3.346-.706,5.964.661,6.542,3.863a17.082,17.082,0,0,1-.172,6.551C407.382,30.43,405.24,31.366,401.6,31.04Z" transform="translate(-273.368 -11.682)" fill="#fff"/>
    <path id="Path_667" data-name="Path 667" d="M101,23.762c.338-1.663.53-3.193.983-4.645a3.309,3.309,0,0,1,6.331-.137,13.441,13.441,0,0,1,.115,9.661,3.27,3.27,0,0,1-3.1,2.359,3.1,3.1,0,0,1-3.193-2.235A48.829,48.829,0,0,1,101,23.762Z" transform="translate(-68.741 -11.368)" fill="#fff"/>
  </g>
</svg>
