<?xml version="1.0" encoding="UTF-8"?>
<svg id="katman_1" data-name="katman 1" xmlns="http://www.w3.org/2000/svg" viewBox="0 0 300 100">
  <g id="stone_bridge" data-name="stone bridge" transform="translate(-0.019 -0.001)">
    <path id="Path_652" data-name="Path 652" d="M149.19,59.56c0-.2-.1-.4-.1-.7,2.3-1.4,1.7-3.6,1.7-5.6v-8.8c0-1.9,.6-4.1-2.2-5.3,.5-.2,.9-.3,1.4-.4,3,0,6,0,8.9,.1s4.6,1.3,5,3.1c.8,2.7-.1,4.7-2.7,6.2-.1,.1-.3,.2-.5,.3,.3,.2,.5,.4,.8,.5,2.4,1.2,3.2,2.8,2.9,5.6-.1,2.2-1.8,4.1-4,4.3-3.8,.5-7.5,.5-11.2,.7Zm4.7-1.7c2.5-.1,5.1,.7,6.7-1.8,1-1.5,1-3.5-.2-5-1.7-2.2-4.2-1.5-6.5-1.6v8.4Zm0-9.8c1.5,0,2.9-.2,4.3-.4,2-.5,2.9-2.1,2.7-4.2-.1-1.8-1-2.7-3.1-3-1-.1-2-.2-3-.1-.4,.1-.8,.5-.9,.9-.1,2.1,0,4.3,0,6.8h0Z"/>
    <path id="Path_653" data-name="Path 653" d="M78.49,43.26c-1.1,.3-1.7,.1-2.1-1-.6-1.7-1.8-2.3-3.6-2.1-1.3,0-2.5,.8-2.9,2.1-.5,1.5,.1,3.2,1.6,4.1,1.5,1,3,1.7,4.5,2.7,2.1,1.2,3.2,3.6,2.8,6-.3,2.2-1.6,4.1-3.9,4.3-2.5,.1-5.1,0-7.6-.3-.3,0-.6-.6-.7-1-.1-1,0-2.1,0-3.2,1.1-.4,1.7-.3,2.1,.9,.5,1.6,2,2.6,3.7,2.4,1.5,.1,2.9-.8,3.3-2.2,.6-1.6,0-3.4-1.4-4.4-1.3-.9-2.8-1.6-4.1-2.4-1.5-.9-2.9-2-3.3-3.9-.7-2.8,1.1-5.7,3.9-6.3,.3-.1,.7-.1,1-.1,1.8,0,3.6,0,5.4,.2,.9,0,1.3,.5,1.2,1.4-.1,.9,.1,1.8,.1,2.8Z"/>
    <path id="Path_654" data-name="Path 654" d="M115.49,46.26c0,3.9-.1,7.2,.1,10.5,0,.8,.7,1.6,1.2,2.5h-4.6c2.5-1.9,1.5-4.5,1.6-6.7,.1-2.4,.1-4.8-.1-7.2-.1-.8-.8-1.5-1.2-2.2,2.1-.9,3.8-.4,4.9,1.5l5.9,9.8c0-3.3,.1-6.5-.1-9.7,0-.5-.8-1-1.4-1.7h4.6c-1.8,1.4-1.3,3.2-1.3,4.9v11.4c-.8,.4-1.8,.2-2.3-.6,0-.1-.1-.1-.1-.2-2.3-4.1-4.6-8-7.2-12.3Z"/>
    <path id="Path_655" data-name="Path 655" d="M171.39,52.46c.4,2.2-1.1,4.7,1.8,6.7h-6.2c2.5-1.4,1.8-3.4,1.9-5.3,.1-2.2,0-4.5,0-6.7,0-1.5,.3-3.1-1.9-4.1,.5-.2,1-.3,1.5-.3,2.3,0,4.6,0,6.8,.2,2.4,.3,3.5,1.3,3.8,3.2,.4,2-.6,4-2.3,5l-.7,.5,5.1,7.5c-3,.7-3.2,.6-4.7-2.2-.5-1-1-2-1.6-2.9-.8-1.7-1.1-1.9-3.5-1.6Zm.1-1.4c1.8,0,3.6,.3,4.6-1.5,.9-1.3,.8-3-.1-4.2-1.1-1.5-2.8-1.3-4.5-1.1v6.8Z"/>
    <path id="Path_656" data-name="Path 656" d="M190.69,59.06c2.2-1.2,1.6-3.1,1.6-4.9,.1-2.2,0-4.4,0-6.5,0-1.6,.4-3.4-1.5-4.6,3.5,0,6.8-.7,10,.7,1.8,.7,3.1,2.3,3.3,4.2,.3,2.1,.2,4.3-.2,6.4-.4,2.6-2.5,4.6-5.1,4.7-2.6,.3-5.2,.3-7.8,.4l-.3-.4Zm4.1-1c3.6,.3,5.8-.6,6.4-3.3,.5-2.2,.5-4.4,.2-6.6-.6-3.2-3.2-4.6-6.5-3.9l-.1,13.8Z"/>
    <path id="Path_657" data-name="Path 657" d="M109.89,50.96c-.2,2.4-.6,4.7-2.2,6.6-2.4,2.8-9.3,3.2-10.8-2.3-.9-3.3-.9-6.7,.9-9.7,1.5-2.5,3.9-3.1,6.7-2.7,2.3,.2,4.1,1.8,4.6,4,.4,1.3,.6,2.7,.8,4.1Zm-11,.1c.3,1.7,.7,3.4,1.2,5,.4,1.4,1.7,2.3,3.2,2.2,1.4,0,2.7-1,3.1-2.4,1.2-3.1,1.1-6.6-.1-9.7-.6-1.7-2.4-2.7-4.2-2.1-1,.3-1.9,1.2-2.2,2.3-.5,1.6-.8,3.1-1,4.7h0Z"/>
    <path id="Path_658" data-name="Path 658" d="M129.09,58.96c2-1,1.6-2.8,1.6-4.5v-6.9c0-1.6,.4-3.4-1.4-4.7h11.3v3.7c-.5-.2-1.3-.3-1.4-.5-.6-2.1-2.2-2.2-3.9-2.1h-2v6c1.4-.1,3.1,.8,3.9-1.3,.1-.3,.7-.3,1.3-.5v5.1c-1.8-.9-3-3.1-5.3-1.7v6.4c1.4,.1,2.7,.1,4.1-.1,.7-.2,1.4-1.2,1.8-1.9s.6-1.4,1.5-.9v4.2h-11.2l-.3-.3Z"/>
    <path id="Path_659" data-name="Path 659" d="M222.59,42.96h11.3v3.9c-.6-.4-1.3-.6-1.5-.9-.6-1.6-1.7-2-3.3-1.9-.8,.1-1.7,0-2.6,0v6c1.5-.1,3.2,.7,4-1.3,.1-.2,.7-.3,1.2-.4v5.1c-1.7-.9-2.9-2.9-5.2-1.7v6.4c1.3,.1,2.7,.1,4-.1,.8-.2,1.3-1.3,1.9-2,.4-.4,.8-.8,1.1-1.2l.3,.3v4.2h-11.7c2.5-1.7,1.7-3.9,1.8-5.9,.1-2.1,0-4.2,0-6.4,0-1.4,.2-2.9-1.6-3.7l.3-.4Z"/>
    <path id="Path_660" data-name="Path 660" d="M218.69,43.26v3.8c-.8-.6-1.3-.8-1.6-1.3-.8-1.6-2.7-2.3-4.3-1.5-.5,.2-.9,.6-1.2,1-.5,.7-.9,1.4-1.2,2.2-.7,2.5-.7,5.1,0,7.6,.2,.7,.5,1.4,1,2,1,1.4,3,1.7,4.5,.7h0c1-1,.9-3.9-.2-4.8-.3-.2-.6-.3-.9-.4l.3-.5h5c-1.8,2-1,4.4-1.2,6.7-.1,1-.7,1-1.5,.6-.4-.2-.9-.3-1.4-.1-4.5,1.5-7.9-.5-8.6-5.1-.2-1.4-.2-2.8-.1-4.3,.6-5.5,3.9-7.8,9.6-6.8,.6-.1,1.1,0,1.8,.2Z"/>
    <path id="Path_661" data-name="Path 661" d="M84.89,59.16c2.1-1.3,1.5-3.4,1.5-5.2v-9.7c-2.2-.5-2.9-.1-3.7,1.9-.2,.5-.7,.9-1.1,1.3l-.4-.3v-4.2h12.9v4.6c-.7-.6-1.3-.8-1.5-1.3-1-2.2-1.1-2.3-3.7-2.2,0,.5-.1,1.1-.1,1.7v9.1q0,2.6,1.7,4.3h-5.6Z"/>
    <path id="Path_662" data-name="Path 662" d="M188.09,59.26h-5.1c2-1.5,1.3-3.5,1.3-5.3,.1-2.2,0-4.4,0-6.5,0-1.5,.4-3.2-1.4-4.4h5.6c-2.4,1.4-1.8,3.4-1.8,5.3-.1,2.2,0,4.5,0,6.7,0,1.5-.5,3.2,1.7,3.9l-.3,.3Z"/>
  </g>
</svg>