<?xml version="1.0" encoding="UTF-8"?>
<svg xmlns="http://www.w3.org/2000/svg" xmlns:xlink="http://www.w3.org/1999/xlink" width="300" height="60" viewBox="0 0 300 60" version="1.1">
<g id="surface1">
<path style=" stroke:none;fill-rule:nonzero;fill:rgb(14.901961%,40%,69.019608%);fill-opacity:1;" d="M 148.082031 59.65625 C 148.082031 59.085938 147.902344 58.515625 147.902344 57.660156 C 152.027344 53.667969 150.953125 47.394531 150.953125 41.691406 C 150.953125 33.417969 150.953125 25.148438 150.953125 16.59375 C 150.953125 11.171875 152.027344 4.898438 147.007812 1.476562 C 147.902344 0.90625 148.621094 0.621094 149.519531 0.335938 C 154.898438 0.335938 160.277344 0.335938 165.476562 0.621094 C 170.675781 0.90625 173.726562 4.328125 174.441406 9.460938 C 175.878906 17.164062 174.261719 22.867188 169.601562 27.144531 C 169.421875 27.429688 169.0625 27.714844 168.703125 28 C 169.242188 28.570312 169.601562 29.140625 170.140625 29.425781 C 174.441406 32.847656 175.878906 37.414062 175.339844 45.398438 C 175.160156 51.671875 172.113281 57.089844 168.167969 57.660156 C 161.351562 59.085938 154.71875 59.085938 148.082031 59.65625 Z M 156.511719 54.808594 C 160.992188 54.523438 165.65625 56.804688 168.527344 49.675781 C 170.320312 45.398438 170.320312 39.695312 168.167969 35.414062 C 165.117188 29.140625 160.636719 31.136719 156.511719 30.851562 Z M 156.511719 26.859375 C 159.199219 26.859375 161.710938 26.289062 164.222656 25.71875 C 167.808594 24.292969 169.421875 19.730469 169.0625 13.742188 C 168.882812 8.605469 167.269531 6.039062 163.503906 5.183594 C 161.710938 4.898438 159.917969 4.613281 158.125 4.898438 C 157.40625 5.183594 156.691406 6.324219 156.511719 7.464844 C 156.332031 13.457031 156.511719 19.730469 156.511719 26.859375 Z M 156.511719 26.859375 "/>
<path style=" stroke:none;fill-rule:nonzero;fill:rgb(14.901961%,40%,69.019608%);fill-opacity:1;" d="M 21.304688 13.171875 C 19.332031 14.027344 18.257812 13.457031 17.539062 10.316406 C 16.464844 5.46875 14.3125 3.757812 11.082031 4.328125 C 8.753906 4.328125 6.601562 6.609375 5.882812 10.316406 C 4.988281 14.597656 6.0625 19.445312 8.753906 22.011719 C 11.441406 24.863281 14.132812 26.859375 16.820312 29.710938 C 20.585938 33.132812 22.558594 39.980469 21.84375 46.824219 C 21.304688 53.097656 18.972656 58.515625 14.847656 59.085938 C 10.367188 59.371094 5.703125 59.085938 1.222656 58.230469 C 0.683594 58.230469 0.144531 56.519531 -0.0351562 55.378906 C -0.214844 52.527344 -0.0351562 49.390625 -0.0351562 46.253906 C 1.9375 45.113281 3.015625 45.398438 3.730469 48.820312 C 4.628906 53.382812 7.316406 56.234375 10.367188 55.664062 C 13.054688 55.949219 15.566406 53.382812 16.285156 49.390625 C 17.359375 44.828125 16.285156 39.695312 13.773438 36.84375 C 11.441406 34.273438 8.753906 32.277344 6.421875 29.996094 C 3.730469 27.429688 1.222656 24.292969 0.503906 18.875 C -0.75 10.886719 2.476562 2.617188 7.496094 0.90625 C 8.035156 0.621094 8.753906 0.621094 9.289062 0.621094 C 12.519531 0.621094 15.746094 0.621094 18.972656 1.191406 C 20.585938 1.191406 21.304688 2.617188 21.125 5.183594 C 20.945312 7.75 21.304688 10.316406 21.304688 13.171875 Z M 21.304688 13.171875 "/>
<path style=" stroke:none;fill-rule:nonzero;fill:rgb(14.901961%,40%,69.019608%);fill-opacity:1;" d="M 87.652344 21.726562 C 87.652344 32.847656 87.472656 42.261719 87.832031 51.671875 C 87.832031 53.953125 89.085938 56.234375 89.984375 58.800781 L 81.734375 58.800781 C 86.21875 53.382812 84.425781 45.96875 84.605469 39.695312 C 84.785156 32.847656 84.785156 26.003906 84.425781 19.160156 C 84.246094 16.878906 82.992188 14.882812 82.273438 12.886719 C 86.039062 10.316406 89.085938 11.746094 91.058594 17.164062 L 101.640625 45.113281 C 101.640625 35.703125 101.820312 26.574219 101.460938 17.449219 C 101.460938 16.023438 100.027344 14.597656 98.949219 12.601562 L 107.199219 12.601562 C 103.972656 16.59375 104.867188 21.726562 104.867188 26.574219 C 104.867188 37.414062 104.867188 47.964844 104.867188 59.085938 C 103.433594 60.230469 101.640625 59.65625 100.742188 57.375 C 100.742188 57.089844 100.5625 57.089844 100.5625 56.804688 C 96.4375 45.113281 92.316406 33.988281 87.652344 21.726562 Z M 87.652344 21.726562 "/>
<path style=" stroke:none;fill-rule:nonzero;fill:rgb(14.901961%,40%,69.019608%);fill-opacity:1;" d="M 187.890625 39.410156 C 188.609375 45.683594 185.917969 52.8125 191.121094 58.515625 L 180 58.515625 C 184.484375 54.523438 183.230469 48.820312 183.410156 43.402344 C 183.589844 37.128906 183.410156 30.566406 183.410156 24.292969 C 183.410156 20.015625 183.945312 15.453125 180 12.601562 C 180.898438 12.03125 181.796875 11.746094 182.691406 11.746094 C 186.816406 11.746094 190.941406 11.746094 194.886719 12.316406 C 199.1875 13.171875 201.160156 16.023438 201.699219 21.441406 C 202.417969 27.144531 200.625 32.847656 197.574219 35.703125 L 196.320312 37.128906 L 205.464844 58.515625 C 200.085938 60.515625 199.726562 60.230469 197.035156 52.242188 C 196.140625 49.390625 195.242188 46.539062 194.167969 43.972656 C 192.734375 39.125 192.195312 38.554688 187.890625 39.410156 Z M 188.070312 35.414062 C 191.300781 35.414062 194.527344 36.273438 196.320312 31.136719 C 197.933594 27.429688 197.753906 22.582031 196.140625 19.160156 C 194.167969 14.882812 191.121094 15.453125 188.070312 16.023438 Z M 188.070312 35.414062 "/>
<path style=" stroke:none;fill-rule:nonzero;fill:rgb(14.901961%,40%,69.019608%);fill-opacity:1;" d="M 222.5 58.230469 C 226.445312 54.808594 225.371094 49.390625 225.371094 44.257812 C 225.546875 37.984375 225.371094 31.707031 225.371094 25.71875 C 225.371094 21.15625 226.085938 16.023438 222.679688 12.601562 C 228.957031 12.601562 234.875 10.601562 240.613281 14.597656 C 243.839844 16.59375 246.171875 21.15625 246.527344 26.574219 C 247.066406 32.5625 246.886719 38.839844 246.171875 44.828125 C 245.453125 52.242188 241.6875 57.945312 237.023438 58.230469 C 232.363281 59.085938 227.699219 59.085938 223.039062 59.371094 Z M 229.851562 55.378906 C 236.308594 56.234375 240.253906 53.667969 241.328125 45.96875 C 242.226562 39.695312 242.226562 33.417969 241.6875 27.144531 C 240.613281 18.019531 235.949219 14.027344 230.03125 16.023438 Z M 229.851562 55.378906 "/>
<path style=" stroke:none;fill-rule:nonzero;fill:rgb(14.901961%,40%,69.019608%);fill-opacity:1;" d="M 77.609375 35.128906 C 77.253906 41.976562 76.535156 48.535156 73.664062 53.953125 C 69.363281 61.941406 56.988281 63.082031 54.300781 47.394531 C 52.6875 37.984375 52.6875 28.285156 55.914062 19.730469 C 58.601562 12.601562 62.90625 10.886719 67.925781 12.03125 C 72.050781 12.601562 75.28125 17.164062 76.175781 23.4375 C 76.894531 27.144531 77.253906 31.136719 77.609375 35.128906 Z M 57.886719 35.414062 C 58.421875 40.265625 59.140625 45.113281 60.039062 49.675781 C 60.753906 53.667969 63.085938 56.234375 65.777344 55.949219 C 68.285156 55.949219 70.617188 53.097656 71.335938 49.105469 C 73.488281 40.265625 73.308594 30.28125 71.15625 21.441406 C 70.078125 16.59375 66.851562 13.742188 63.625 15.453125 C 61.832031 16.308594 60.21875 18.875 59.679688 22.011719 C 58.78125 26.574219 58.246094 30.851562 57.886719 35.414062 Z M 57.886719 35.414062 "/>
<path style=" stroke:none;fill-rule:nonzero;fill:rgb(14.901961%,40%,69.019608%);fill-opacity:1;" d="M 112.039062 57.945312 C 115.625 55.09375 114.910156 49.960938 114.910156 45.113281 C 114.910156 38.554688 114.910156 31.992188 114.910156 25.433594 C 114.910156 20.871094 115.625 15.738281 112.398438 12.03125 L 132.660156 12.03125 L 132.660156 22.582031 C 131.765625 22.011719 130.332031 21.726562 130.152344 21.15625 C 129.074219 15.167969 126.207031 14.882812 123.15625 15.167969 C 122.082031 15.167969 120.828125 15.167969 119.570312 15.167969 L 119.570312 32.277344 C 122.082031 31.992188 125.128906 34.558594 126.566406 28.570312 C 126.746094 27.714844 127.820312 27.714844 128.894531 27.144531 L 128.894531 41.691406 C 125.667969 39.125 123.515625 32.847656 119.390625 36.84375 L 119.390625 55.09375 C 121.902344 55.378906 124.234375 55.378906 126.746094 54.808594 C 128 54.238281 129.253906 51.386719 129.972656 49.390625 C 130.6875 47.394531 131.046875 45.398438 132.660156 46.824219 L 132.660156 58.800781 L 112.578125 58.800781 Z M 112.039062 57.945312 "/>
<path style=" stroke:none;fill-rule:nonzero;fill:rgb(14.901961%,40%,69.019608%);fill-opacity:1;" d="M 279.703125 12.316406 L 299.964844 12.316406 L 299.964844 23.4375 C 298.890625 22.296875 297.636719 21.726562 297.277344 20.871094 C 296.199219 16.308594 294.226562 15.167969 291.359375 15.453125 C 289.925781 15.738281 288.308594 15.453125 286.695312 15.453125 L 286.695312 32.5625 C 289.386719 32.277344 292.433594 34.558594 293.867188 28.855469 C 294.046875 28.285156 295.125 28 296.019531 27.714844 L 296.019531 42.261719 C 292.972656 39.695312 290.820312 33.988281 286.695312 37.414062 L 286.695312 55.664062 C 289.027344 55.949219 291.539062 55.949219 293.867188 55.378906 C 295.304688 54.808594 296.199219 51.671875 297.277344 49.675781 C 297.992188 48.535156 298.710938 47.394531 299.25 46.253906 L 299.785156 47.109375 L 299.785156 59.085938 L 278.804688 59.085938 C 283.289062 54.238281 281.855469 47.964844 282.035156 42.261719 C 282.214844 36.273438 282.035156 30.28125 282.035156 24.007812 C 282.035156 20.015625 282.394531 15.738281 279.164062 13.457031 Z M 279.703125 12.316406 "/>
<path style=" stroke:none;fill-rule:nonzero;fill:rgb(14.901961%,40%,69.019608%);fill-opacity:1;" d="M 272.710938 13.171875 L 272.710938 24.007812 C 271.273438 22.296875 270.378906 21.726562 269.839844 20.300781 C 268.40625 15.738281 265 13.742188 262.128906 16.023438 C 261.234375 16.59375 260.515625 17.734375 259.976562 18.875 C 259.082031 20.871094 258.363281 22.867188 257.824219 25.148438 C 256.570312 32.277344 256.570312 39.695312 257.824219 46.824219 C 258.183594 48.820312 258.722656 50.816406 259.621094 52.527344 C 261.414062 56.519531 265 57.375 267.6875 54.523438 C 269.480469 51.671875 269.300781 43.402344 267.328125 40.835938 C 266.792969 40.265625 266.253906 39.980469 265.714844 39.695312 L 266.253906 38.269531 L 275.21875 38.269531 C 271.992188 43.972656 273.425781 50.816406 273.066406 57.375 C 272.890625 60.230469 271.8125 60.230469 270.378906 59.085938 C 269.660156 58.515625 268.765625 58.230469 267.867188 58.800781 C 259.796875 63.082031 253.703125 57.375 252.445312 44.257812 C 252.085938 40.265625 252.085938 36.273438 252.265625 31.992188 C 253.34375 16.308594 259.261719 9.746094 269.480469 12.601562 C 270.558594 12.316406 271.453125 12.601562 272.710938 13.171875 Z M 272.710938 13.171875 "/>
<path style=" stroke:none;fill-rule:nonzero;fill:rgb(14.901961%,40%,69.019608%);fill-opacity:1;" d="M 32.78125 58.515625 C 36.546875 54.808594 35.472656 48.820312 35.472656 43.6875 C 35.472656 34.558594 35.472656 25.148438 35.472656 16.023438 C 31.527344 14.597656 30.269531 15.738281 28.835938 21.441406 C 28.476562 22.867188 27.582031 24.007812 26.863281 25.148438 L 26.144531 24.292969 L 26.144531 12.316406 L 49.277344 12.316406 L 49.277344 25.433594 C 48.023438 23.722656 46.949219 23.152344 46.589844 21.726562 C 44.796875 15.453125 44.617188 15.167969 39.953125 15.453125 C 39.953125 16.878906 39.773438 18.589844 39.773438 20.300781 L 39.773438 46.253906 C 39.773438 53.667969 39.773438 53.667969 42.824219 58.515625 Z M 32.78125 58.515625 "/>
<path style=" stroke:none;fill-rule:nonzero;fill:rgb(14.901961%,40%,69.019608%);fill-opacity:1;" d="M 217.839844 58.800781 L 208.691406 58.800781 C 212.277344 54.523438 211.023438 48.820312 211.023438 43.6875 C 211.203125 37.414062 211.023438 31.136719 211.023438 25.148438 C 211.023438 20.871094 211.742188 16.023438 208.511719 12.601562 L 218.554688 12.601562 C 214.25 16.59375 215.328125 22.296875 215.328125 27.714844 C 215.148438 33.988281 215.328125 40.550781 215.328125 46.824219 C 215.328125 51.101562 214.429688 55.949219 218.375 57.945312 Z M 217.839844 58.800781 "/>
</g>
</svg>
