<svg id="Layer_1" style="enable-background:new 0 0 936.4 53;" version="1.1" viewBox="0 0 936.4 53" x="0px" xml:space="preserve" xmlns="http://www.w3.org/2000/svg" xmlns:xlink="http://www.w3.org/1999/xlink" y="0px">
<style type="text/css">
	.st0{fill:#40474F;}
</style>
<g>
<path class="st0" d="M23.6,2.6C24.4,0.4,24.7,0,25.1,0c0.4,0,0.7,0.3,1.5,2.4c1,2.6,11.6,30.5,15.7,40.7c2.4,6,4.4,7.1,5.8,7.5
		c1,0.3,2,0.4,2.7,0.4c0.4,0,0.7,0.1,0.7,0.4c0,0.4-0.6,0.5-1.4,0.5c-1,0-5.9,0-10.6-0.1c-1.3-0.1-2-0.1-2-0.5
		c0-0.3,0.2-0.4,0.5-0.5c0.4-0.1,0.8-0.7,0.4-1.8l-6.3-16.6c-0.1-0.3-0.3-0.4-0.6-0.4H17c-0.3,0-0.5,0.2-0.7,0.5l-4.1,12
		c-0.6,1.7-0.9,3.3-0.9,4.5c0,1.3,1.4,2,2.6,2h0.7c0.5,0,0.7,0.1,0.7,0.4c0,0.4-0.4,0.5-1,0.5c-1.6,0-4.5-0.2-5.3-0.2
		c-0.7,0-4.5,0.2-7.6,0.2C0.4,52,0,51.9,0,51.5c0-0.3,0.3-0.4,0.6-0.4c0.5,0,1.4-0.1,2-0.1c3.1-0.4,4.5-3,5.7-6.3L23.6,2.6z
		 M30.6,29.7c0.3,0,0.3-0.2,0.3-0.5l-6.4-18.2c-0.3-1-0.7-1-1,0l-5.9,18.2c-0.1,0.3,0,0.5,0.2,0.5H30.6z"></path>
<path class="st0" d="M66.4,42.8c0.1,5.5,0.8,7.3,2.6,7.8c1.3,0.3,2.8,0.4,3.4,0.4c0.3,0,0.5,0.1,0.5,0.4c0,0.4-0.4,0.5-1.2,0.5
		c-3.9,0-6.6-0.2-7.2-0.2c-0.6,0-3.4,0.2-6.5,0.2C57.4,52,57,52,57,51.5c0-0.3,0.2-0.4,0.5-0.4c0.5,0,1.8-0.1,2.8-0.4
		c1.7-0.5,2-2.4,2-8.6l0.1-38.7c0-2.6,0.2-3.4,0.7-3.4c0.5,0,1.7,1.5,2.4,2.2c1,1.1,11.1,12,21.5,23.2c6.7,7.2,14.1,15.4,16.2,17.6
		l-0.7-34.3c-0.1-4.4-0.5-5.9-2.6-6.4C98.6,2,97,1.9,96.5,1.9C96,1.9,96,1.7,96,1.4c0-0.4,0.5-0.5,1.4-0.5c3,0,6.3,0.2,7,0.2
		c0.7,0,3-0.2,5.7-0.2c0.7,0,1.2,0.1,1.2,0.5c0,0.3-0.3,0.5-0.7,0.5c-0.3,0-0.8,0-1.6,0.2c-2.2,0.5-2.5,2-2.5,6l-0.1,39.6
		c0,4.5-0.1,4.8-0.6,4.8c-0.5,0-1.4-0.7-4.9-4.3c-0.7-0.7-10.5-10.6-17.6-18.3c-7.8-8.4-15.5-17-17.6-19.4L66.4,42.8z"></path>
<path class="st0" d="M125.1,20.5c0-10.5,0-12.4-0.1-14.6c-0.1-2.3-0.7-3.4-2.9-3.8c-0.5-0.1-1.7-0.2-2.3-0.2
		c-0.3,0-0.5-0.1-0.5-0.4c0-0.4,0.3-0.5,1.1-0.5c3,0,7.3,0.2,7.6,0.2c0.8,0,5.1-0.2,9.1-0.2c6.7,0,19.1-0.6,27.1,7.7
		c3.4,3.5,6.6,9.1,6.6,17.2c0,8.5-3.5,15.1-7.3,19.1c-2.9,3-9,7.8-20.5,7.8c-2.9,0-6.5-0.2-9.4-0.4c-3-0.2-5.3-0.4-5.6-0.4
		c-0.1,0-1.3,0-2.7,0.1c-1.4,0-2.9,0.1-3.9,0.1c-0.7,0-1.1-0.1-1.1-0.5c0-0.2,0.1-0.4,0.5-0.4c0.6,0,1.4-0.1,2-0.3
		c1.3-0.3,1.7-1.8,2-3.7c0.3-2.8,0.3-8.2,0.3-14.7V20.5z M130.8,27.8c0,7.2,0.1,13.4,0.1,14.7c0.1,1.7,0.2,4.4,0.7,5.1
		c0.9,1.3,3.5,2.7,11.5,2.7c6.3,0,12.1-2.3,16.1-6.3c3.5-3.4,5.4-9.9,5.4-16.1c0-8.6-3.7-14.1-6.5-17c-6.4-6.7-14.1-7.6-22.1-7.6
		c-1.3,0-3.9,0.2-4.4,0.5c-0.6,0.3-0.8,0.6-0.8,1.4c-0.1,2.3-0.1,9.2-0.1,14.4V27.8z"></path>
<path class="st0" d="M183.1,20.5c0-10.5,0-12.4-0.1-14.6c-0.1-2.3-0.7-3.4-2.9-3.8c-0.5-0.1-1.7-0.2-2.3-0.2
		c-0.3,0-0.5-0.1-0.5-0.4c0-0.4,0.3-0.5,1.1-0.5c3,0,7.3,0.2,7.6,0.2c0.7,0,5.9-0.2,8-0.2c4.3,0,8.8,0.4,12.4,3
		c1.7,1.2,4.7,4.5,4.7,9.2c0,5-2.1,10-8.2,15.6c5.5,7.1,10.1,13.1,14.1,17.3c3.6,3.9,6.6,4.6,8.2,4.9c1.3,0.2,2.2,0.2,2.6,0.2
		c0.3,0,0.6,0.2,0.6,0.4c0,0.4-0.4,0.5-1.6,0.5h-4.8c-3.8,0-5.5-0.3-7.2-1.3c-2.9-1.6-5.3-4.9-9.1-9.9c-2.8-3.7-6-8.2-7.4-10
		c-0.3-0.3-0.5-0.4-0.9-0.4l-8.3-0.1c-0.3,0-0.5,0.2-0.5,0.5v1.6c0,6.5,0,11.8,0.3,14.7c0.2,2,0.6,3.4,2.6,3.7
		c0.9,0.1,2.4,0.3,3,0.3c0.4,0,0.5,0.2,0.5,0.4c0,0.3-0.3,0.5-1.1,0.5c-3.7,0-8-0.2-8.3-0.2c-0.1,0-4.3,0.2-6.4,0.2
		c-0.7,0-1.1-0.1-1.1-0.5c0-0.2,0.1-0.4,0.5-0.4c0.6,0,1.4-0.1,2-0.3c1.3-0.3,1.7-1.8,2-3.7c0.3-2.8,0.3-8.2,0.3-14.7V20.5z
		 M188.5,26.4c0,0.3,0.1,0.6,0.5,0.8c1,0.6,4.1,1.1,7.1,1.1c1.6,0,3.5-0.2,5.1-1.3c2.4-1.6,4.1-5.3,4.1-10.4
		c0-8.4-4.5-13.5-11.7-13.5c-2,0-3.8,0.2-4.5,0.4c-0.3,0.1-0.5,0.4-0.5,0.8V26.4z"></path>
<path class="st0" d="M234.7,20.5c0-10.5,0-12.4-0.1-14.6c-0.1-2.3-0.7-3.4-2.9-3.8c-0.5-0.1-1.7-0.2-2.3-0.2
		c-0.3,0-0.5-0.1-0.5-0.4c0-0.4,0.3-0.5,1.1-0.5c1.6,0,3.4,0,4.9,0.1l2.8,0.1c0.5,0,13.9,0,15.5-0.1c1.3-0.1,2.4-0.2,2.9-0.3
		c0.3-0.1,0.6-0.3,0.9-0.3c0.2,0,0.3,0.3,0.3,0.6c0,0.5-0.3,1.3-0.5,3.2c-0.1,0.7-0.2,3.7-0.3,4.5c-0.1,0.3-0.2,0.7-0.5,0.7
		c-0.4,0-0.5-0.3-0.5-0.9c0-0.5-0.1-1.6-0.4-2.4c-0.5-1.1-1.1-1.9-4.8-2.3c-1.1-0.1-8.5-0.2-9.3-0.2c-0.3,0-0.4,0.2-0.4,0.7v18.6
		c0,0.5,0.1,0.7,0.4,0.7c0.9,0,9.2,0,10.7-0.1c1.6-0.1,2.6-0.3,3.2-0.9c0.5-0.5,0.7-0.9,1-0.9c0.2,0,0.3,0.1,0.3,0.5
		c0,0.4-0.3,1.6-0.5,3.8c-0.1,1.3-0.3,3.8-0.3,4.3c0,0.5,0,1.3-0.5,1.3c-0.3,0-0.5-0.3-0.5-0.6c0-0.7,0-1.4-0.3-2.2
		c-0.3-0.9-0.9-2.1-3.5-2.4c-1.8-0.2-8.5-0.3-9.7-0.3c-0.3,0-0.5,0.2-0.5,0.5v5.9c0,2.3-0.1,10.1,0,11.6c0.2,4.7,1.2,5.5,7.8,5.5
		c1.8,0,4.7,0,6.5-0.7c1.8-0.7,2.6-2.1,3-4.9c0.1-0.7,0.3-1,0.6-1c0.4,0,0.4,0.5,0.4,1c0,0.5-0.5,5.1-0.9,6.6
		c-0.5,1.8-1,1.8-3.6,1.8c-5.1,0-8.8-0.1-11.4-0.2c-2.6-0.1-4.3-0.2-5.3-0.2c-0.1,0-1.3,0-2.7,0.1c-1.4,0-2.9,0.1-3.9,0.1
		c-0.7,0-1.1-0.1-1.1-0.5c0-0.2,0.1-0.4,0.5-0.4c0.6,0,1.4-0.1,2-0.3c1.3-0.3,1.7-1.8,2-3.7c0.3-2.8,0.3-8.2,0.3-14.7V20.5z"></path>
<path class="st0" d="M273.9,20.5c0-10.5,0-12.4-0.1-14.6c-0.1-2.3-0.7-3.4-2.9-3.8c-0.5-0.1-1.7-0.2-2.3-0.2
		c-0.3,0-0.5-0.1-0.5-0.4c0-0.4,0.3-0.5,1.1-0.5c1.6,0,3.4,0,4.9,0.1l2.8,0.1c0.5,0,13.9,0,15.5-0.1c1.3-0.1,2.4-0.2,2.9-0.3
		c0.3-0.1,0.6-0.3,0.9-0.3c0.2,0,0.3,0.3,0.3,0.6c0,0.5-0.3,1.3-0.5,3.2c-0.1,0.7-0.2,3.7-0.3,4.5c-0.1,0.3-0.2,0.7-0.5,0.7
		c-0.4,0-0.5-0.3-0.5-0.9c0-0.5-0.1-1.6-0.4-2.4c-0.5-1.1-1.1-1.9-4.8-2.3c-1.1-0.1-8.5-0.2-9.3-0.2c-0.3,0-0.4,0.2-0.4,0.7v18.6
		c0,0.5,0.1,0.7,0.4,0.7c0.9,0,9.2,0,10.7-0.1c1.6-0.1,2.6-0.3,3.2-0.9c0.5-0.5,0.7-0.9,1-0.9c0.2,0,0.3,0.1,0.3,0.5
		c0,0.4-0.3,1.6-0.5,3.8c-0.1,1.3-0.3,3.8-0.3,4.3c0,0.5,0,1.3-0.5,1.3c-0.3,0-0.5-0.3-0.5-0.6c0-0.7,0-1.4-0.3-2.2
		c-0.3-0.9-0.9-2.1-3.5-2.4c-1.8-0.2-8.5-0.3-9.7-0.3c-0.3,0-0.5,0.2-0.5,0.5v5.9c0,2.3-0.1,10.1,0,11.6c0.2,4.7,1.2,5.5,7.8,5.5
		c1.8,0,4.7,0,6.5-0.7c1.8-0.7,2.6-2.1,3-4.9c0.1-0.7,0.3-1,0.6-1c0.4,0,0.4,0.5,0.4,1c0,0.5-0.5,5.1-0.9,6.6
		c-0.5,1.8-1,1.8-3.6,1.8c-5.1,0-8.8-0.1-11.4-0.2c-2.6-0.1-4.3-0.2-5.3-0.2c-0.1,0-1.3,0-2.7,0.1c-1.4,0-2.9,0.1-3.9,0.1
		c-0.7,0-1.1-0.1-1.1-0.5c0-0.2,0.1-0.4,0.5-0.4c0.6,0,1.4-0.1,2-0.3c1.3-0.3,1.7-1.8,2-3.7c0.3-2.8,0.3-8.2,0.3-14.7V20.5z"></path>
<path class="st0" d="M310.1,51.2c-0.9-0.5-1-0.7-1-2.6c0-3.4,0.3-6.1,0.3-7.2c0.1-0.7,0.2-1.1,0.5-1.1c0.4,0,0.5,0.2,0.5,0.7
		c0,0.6,0,1.6,0.2,2.5c1,5,5.5,6.9,10,6.9c6.5,0,9.7-4.7,9.7-9c0-4.7-2-7.4-7.8-12.2l-3-2.5c-7.2-5.9-8.8-10.1-8.8-14.7
		c0-7.2,5.4-12.2,14-12.2c2.6,0,4.6,0.3,6.3,0.7c1.3,0.3,1.8,0.3,2.4,0.3c0.5,0,0.7,0.1,0.7,0.5c0,0.3-0.3,2.6-0.3,7.2
		c0,1.1-0.1,1.6-0.5,1.6c-0.4,0-0.5-0.3-0.5-0.9c-0.1-0.8-0.5-2.6-0.9-3.4c-0.4-0.7-2.2-3.6-8.4-3.6c-4.7,0-8.3,2.9-8.3,7.8
		c0,3.9,1.8,6.3,8.2,11.4l1.9,1.5c8,6.3,9.9,10.5,9.9,15.9c0,2.8-1.1,7.9-5.7,11.2c-2.9,2-6.6,2.8-10.2,2.8
		C316,53,312.9,52.5,310.1,51.2z"></path>
<path class="st0" d="M347.9,51.2c-0.9-0.5-1-0.7-1-2.6c0-3.4,0.3-6.1,0.3-7.2c0.1-0.7,0.2-1.1,0.5-1.1c0.4,0,0.5,0.2,0.5,0.7
		c0,0.6,0,1.6,0.2,2.5c1,5,5.5,6.9,10,6.9c6.5,0,9.7-4.7,9.7-9c0-4.7-2-7.4-7.8-12.2l-3-2.5c-7.2-5.9-8.8-10.1-8.8-14.7
		c0-7.2,5.4-12.2,14-12.2c2.6,0,4.6,0.3,6.3,0.7c1.3,0.3,1.8,0.3,2.4,0.3c0.5,0,0.7,0.1,0.7,0.5c0,0.3-0.3,2.6-0.3,7.2
		c0,1.1-0.1,1.6-0.5,1.6c-0.4,0-0.5-0.3-0.5-0.9c-0.1-0.8-0.5-2.6-0.9-3.4c-0.4-0.7-2.2-3.6-8.4-3.6c-4.7,0-8.3,2.9-8.3,7.8
		c0,3.9,1.8,6.3,8.2,11.4l1.9,1.5c8,6.3,9.9,10.5,9.9,15.9c0,2.8-1.1,7.9-5.7,11.2c-2.9,2-6.6,2.8-10.2,2.8
		C353.8,53,350.7,52.5,347.9,51.2z"></path>
<path class="st0" d="M388.7,20.5c0-10.5,0-12.4-0.1-14.6c-0.1-2.3-0.7-3.4-2.9-3.8c-0.5-0.1-1.7-0.2-2.3-0.2
		c-0.3,0-0.5-0.1-0.5-0.4c0-0.4,0.3-0.5,1.1-0.5c1.6,0,3.4,0,4.9,0.1l2.8,0.1c0.5,0,13.9,0,15.5-0.1c1.3-0.1,2.4-0.2,2.9-0.3
		c0.3-0.1,0.6-0.3,0.9-0.3c0.2,0,0.3,0.3,0.3,0.6c0,0.5-0.3,1.3-0.5,3.2c-0.1,0.7-0.2,3.7-0.3,4.5c-0.1,0.3-0.2,0.7-0.5,0.7
		c-0.4,0-0.5-0.3-0.5-0.9c0-0.5-0.1-1.6-0.4-2.4c-0.5-1.1-1.1-1.9-4.8-2.3c-1.2-0.1-8.5-0.2-9.3-0.2c-0.3,0-0.4,0.2-0.4,0.7v18.6
		c0,0.5,0.1,0.7,0.4,0.7c0.9,0,9.2,0,10.7-0.1c1.6-0.1,2.6-0.3,3.2-0.9c0.5-0.5,0.7-0.9,1-0.9c0.2,0,0.3,0.1,0.3,0.5
		c0,0.4-0.3,1.6-0.5,3.8c-0.1,1.3-0.3,3.8-0.3,4.3c0,0.5,0,1.3-0.5,1.3c-0.3,0-0.5-0.3-0.5-0.6c0-0.7,0-1.4-0.3-2.2
		c-0.3-0.9-0.9-2.1-3.5-2.4c-1.8-0.2-8.5-0.3-9.7-0.3c-0.3,0-0.5,0.2-0.5,0.5v5.9c0,2.3-0.1,10.1,0,11.6c0.2,4.7,1.2,5.5,7.8,5.5
		c1.8,0,4.7,0,6.5-0.7c1.8-0.7,2.6-2.1,3-4.9c0.1-0.7,0.3-1,0.6-1c0.4,0,0.4,0.5,0.4,1c0,0.5-0.5,5.1-0.9,6.6
		c-0.5,1.8-1,1.8-3.7,1.8c-5.1,0-8.8-0.1-11.4-0.2c-2.6-0.1-4.3-0.2-5.3-0.2c-0.1,0-1.3,0-2.7,0.1c-1.3,0-2.9,0.1-3.9,0.1
		c-0.7,0-1.1-0.1-1.1-0.5c0-0.2,0.1-0.4,0.5-0.4c0.6,0,1.4-0.1,2-0.3c1.4-0.3,1.7-1.8,2-3.7c0.3-2.8,0.3-8.2,0.3-14.7V20.5z"></path>
<path class="st0" d="M431.1,42.8c0.1,5.5,0.8,7.3,2.6,7.8c1.3,0.3,2.8,0.4,3.4,0.4c0.3,0,0.5,0.1,0.5,0.4c0,0.4-0.4,0.5-1.2,0.5
		c-3.9,0-6.6-0.2-7.2-0.2c-0.6,0-3.4,0.2-6.5,0.2c-0.7,0-1.1-0.1-1.1-0.5c0-0.3,0.2-0.4,0.5-0.4c0.5,0,1.8-0.1,2.8-0.4
		c1.7-0.5,2-2.4,2-8.6l0.1-38.7c0-2.6,0.2-3.4,0.7-3.4c0.5,0,1.7,1.5,2.4,2.2c1,1.1,11.1,12,21.5,23.2c6.7,7.2,14.1,15.4,16.2,17.6
		l-0.7-34.3c-0.1-4.4-0.5-5.9-2.6-6.4c-1.2-0.3-2.8-0.3-3.3-0.3c-0.5,0-0.5-0.2-0.5-0.5c0-0.4,0.5-0.5,1.3-0.5c3,0,6.3,0.2,7,0.2
		c0.7,0,3-0.2,5.7-0.2c0.7,0,1.2,0.1,1.2,0.5c0,0.3-0.3,0.5-0.7,0.5c-0.3,0-0.8,0-1.6,0.2c-2.2,0.5-2.5,2-2.5,6l-0.1,39.6
		c0,4.5-0.1,4.8-0.6,4.8c-0.5,0-1.4-0.7-4.9-4.3c-0.7-0.7-10.5-10.6-17.6-18.3c-7.8-8.4-15.5-17-17.6-19.4L431.1,42.8z"></path>
<path class="st0" d="M562.8,32.4c0,6.5,0,11.8,0.3,14.7c0.2,2,0.6,3.4,2.6,3.7c0.9,0.1,2.4,0.3,3,0.3c0.4,0,0.5,0.2,0.5,0.4
		c0,0.3-0.3,0.5-1.1,0.5c-3.7,0-8-0.2-8.3-0.2c-0.3,0-4.6,0.2-6.6,0.2c-0.7,0-1.1-0.1-1.1-0.5c0-0.2,0.1-0.4,0.5-0.4
		c0.6,0,1.4-0.1,2-0.3c1.4-0.3,1.7-1.8,2-3.7c0.3-2.8,0.3-8.2,0.3-14.7v-7.1c0-0.3-0.2-0.4-0.4-0.4h-28.7c-0.2,0-0.4,0.1-0.4,0.4
		v7.1c0,6.5,0,11.8,0.3,14.7c0.2,2,0.6,3.4,2.6,3.7c0.9,0.1,2.4,0.3,3,0.3c0.4,0,0.5,0.2,0.5,0.4c0,0.3-0.3,0.5-1.1,0.5
		c-3.7,0-8-0.2-8.3-0.2c-0.3,0-4.6,0.2-6.6,0.2c-0.7,0-1.1-0.1-1.1-0.5c0-0.2,0.1-0.4,0.5-0.4c0.6,0,1.4-0.1,2-0.3
		c1.4-0.3,1.7-1.8,2-3.7c0.3-2.8,0.3-8.2,0.3-14.7V20.5c0-10.5,0-12.4-0.1-14.6c-0.1-2.3-0.7-3.4-2.9-3.8c-0.5-0.1-1.7-0.2-2.3-0.2
		c-0.3,0-0.5-0.1-0.5-0.4c0-0.4,0.3-0.5,1.1-0.5c3,0,7.3,0.2,7.6,0.2c0.3,0,4.6-0.2,6.6-0.2c0.7,0,1.1,0.1,1.1,0.5
		c0,0.3-0.3,0.4-0.5,0.4c-0.5,0-0.9,0.1-1.7,0.2c-1.8,0.3-2.4,1.5-2.5,3.8c-0.1,2.2-0.1,4.1-0.1,14.6V22c0,0.3,0.2,0.4,0.4,0.4h28.7
		c0.2,0,0.4-0.1,0.4-0.4v-1.4c0-10.5,0-12.4-0.1-14.6c-0.1-2.3-0.7-3.4-2.9-3.8c-0.5-0.1-1.7-0.2-2.3-0.2c-0.3,0-0.5-0.1-0.5-0.4
		c0-0.4,0.3-0.5,1.1-0.5c3,0,7.3,0.2,7.6,0.2c0.3,0,4.6-0.2,6.6-0.2c0.7,0,1.1,0.1,1.1,0.5c0,0.3-0.3,0.4-0.5,0.4
		c-0.5,0-0.9,0.1-1.7,0.2c-1.8,0.3-2.4,1.5-2.5,3.8c-0.1,2.2-0.1,4.1-0.1,14.6V32.4z"></path>
<path class="st0" d="M600.7,0c15.2,0,26.6,9.6,26.6,25.3c0,15.1-10.7,27.6-27,27.6c-18.5,0-26.2-14.4-26.2-26.6
		C574.1,15.5,582.1,0,600.7,0z M602.1,50.4c6.1,0,18.7-3.5,18.7-23.2c0-16.2-9.9-24.9-20.5-24.9c-11.3,0-19.7,7.4-19.7,22.2
		C580.5,40.3,590,50.4,602.1,50.4z"></path>
<path class="st0" d="M638.2,20.5c0-10.5,0-12.4-0.1-14.6c-0.1-2.3-0.7-3.4-2.9-3.8c-0.5-0.1-1.7-0.2-2.3-0.2
		c-0.3,0-0.5-0.1-0.5-0.4c0-0.4,0.3-0.5,1.1-0.5c3,0,7.3,0.2,7.6,0.2c0.7,0,5.9-0.2,8-0.2c4.3,0,8.8,0.4,12.4,3
		c1.7,1.2,4.7,4.5,4.7,9.2c0,5-2.1,10-8.2,15.6c5.5,7.1,10.1,13.1,14.1,17.3c3.6,3.9,6.6,4.6,8.2,4.9c1.3,0.2,2.2,0.2,2.6,0.2
		c0.3,0,0.6,0.2,0.6,0.4c0,0.4-0.4,0.5-1.6,0.5H677c-3.8,0-5.5-0.3-7.2-1.3c-2.9-1.6-5.3-4.9-9.1-9.9c-2.8-3.7-6-8.2-7.4-10
		c-0.3-0.3-0.5-0.4-0.9-0.4l-8.3-0.1c-0.3,0-0.5,0.2-0.5,0.5v1.6c0,6.5,0,11.8,0.3,14.7c0.2,2,0.6,3.4,2.6,3.7
		c0.9,0.1,2.4,0.3,3,0.3c0.4,0,0.5,0.2,0.5,0.4c0,0.3-0.3,0.5-1.1,0.5c-3.7,0-8-0.2-8.3-0.2c-0.1,0-4.3,0.2-6.4,0.2
		c-0.7,0-1.1-0.1-1.1-0.5c0-0.2,0.1-0.4,0.5-0.4c0.6,0,1.4-0.1,2-0.3c1.4-0.3,1.7-1.8,2-3.7c0.3-2.8,0.3-8.2,0.3-14.7V20.5z
		 M643.6,26.4c0,0.3,0.1,0.6,0.5,0.8c1,0.6,4.1,1.1,7.1,1.1c1.6,0,3.5-0.2,5.1-1.3c2.4-1.6,4.1-5.3,4.1-10.4
		c0-8.4-4.5-13.5-11.7-13.5c-2,0-3.9,0.2-4.5,0.4c-0.3,0.1-0.5,0.4-0.5,0.8V26.4z"></path>
<path class="st0" d="M709.8,0c15.2,0,26.6,9.6,26.6,25.3c0,15.1-10.7,27.6-27,27.6c-18.5,0-26.2-14.4-26.2-26.6
		C683.2,15.5,691.1,0,709.8,0z M711.2,50.4c6.1,0,18.7-3.5,18.7-23.2c0-16.2-9.9-24.9-20.5-24.9c-11.3,0-19.7,7.4-19.7,22.2
		C689.6,40.3,699,50.4,711.2,50.4z"></path>
<path class="st0" d="M792.2,42.7h0.3c1.8-6.2,8-25.8,10.4-34.5c0.7-2.5,0.7-3.4,0.7-4.3c0-1.2-0.7-2-3.9-2c-0.3,0-0.6-0.2-0.6-0.5
		c0-0.3,0.3-0.5,1.1-0.5c3.4,0,6.3,0.2,6.9,0.2c0.5,0,3.4-0.2,5.5-0.2c0.6,0,0.9,0.1,0.9,0.4c0,0.3-0.2,0.5-0.6,0.5
		c-0.3,0-1.6,0.1-2.3,0.3c-2,0.7-3.1,3.6-4.4,7.3c-3,8.6-9.8,30.1-12.4,37.6c-1.8,5-2.1,5.8-2.8,5.8c-0.7,0-1.1-0.9-2-3.5
		l-13.2-37.6h-0.1c-2.4,6.5-11.7,31.2-14.1,37.5c-1.1,2.8-1.4,3.6-2.2,3.6c-0.7,0-1-0.7-2.4-5.3l-12-40.1c-1.1-3.6-2-4.6-3.7-5.3
		c-0.9-0.3-2.6-0.4-3-0.4c-0.3,0-0.6-0.1-0.6-0.5c0-0.3,0.4-0.5,1.1-0.5c3.5,0,7.2,0.2,8,0.2c0.6,0,3.6-0.2,7-0.2
		c0.9,0,1.2,0.2,1.2,0.5c0,0.4-0.3,0.5-0.7,0.5c-0.5,0-1.8,0-2.6,0.4c-0.4,0.2-0.9,0.7-0.9,1.6c0,0.9,0.6,3.2,1.3,6.2
		c1,4.3,8,29.1,9.1,32.7h0.1l14.3-38.5c1-2.8,1.3-3.1,1.7-3.1c0.5,0,0.9,0.9,1.7,3.2L792.2,42.7z"></path>
<path class="st0" d="M832.4,32.4c0,6.5,0,11.8,0.3,14.7c0.2,2,0.6,3.4,2.6,3.7c0.9,0.1,2.4,0.3,3,0.3c0.4,0,0.5,0.2,0.5,0.4
		c0,0.3-0.3,0.5-1.1,0.5c-3.7,0-8-0.2-8.3-0.2c-0.3,0-4.6,0.2-6.6,0.2c-0.7,0-1.1-0.1-1.1-0.5c0-0.2,0.1-0.4,0.5-0.4
		c0.6,0,1.4-0.1,2-0.3c1.4-0.3,1.7-1.8,2-3.7c0.3-2.8,0.3-8.2,0.3-14.7V20.5c0-10.5,0-12.4-0.1-14.6c-0.1-2.3-0.8-3.4-2.3-3.8
		c-0.7-0.2-1.6-0.3-2.1-0.3c-0.3,0-0.5-0.1-0.5-0.4c0-0.4,0.3-0.5,1.1-0.5c2.2,0,6.5,0.2,6.8,0.2c0.3,0,4.6-0.2,6.6-0.2
		c0.7,0,1.1,0.1,1.1,0.5c0,0.3-0.3,0.4-0.5,0.4c-0.5,0-0.9,0.1-1.7,0.2c-1.8,0.3-2.4,1.5-2.5,3.8c-0.1,2.2-0.1,4.1-0.1,14.6V32.4z"></path>
<path class="st0" d="M871.5,32.4c0,6.5,0,11.8,0.3,14.7c0.2,2,0.6,3.4,2.6,3.7c0.9,0.1,2.4,0.3,3,0.3c0.4,0,0.5,0.2,0.5,0.4
		c0,0.3-0.3,0.5-1.1,0.5c-3.7,0-8-0.2-8.3-0.2c-0.3,0-4.6,0.2-6.6,0.2c-0.7,0-1.1-0.1-1.1-0.5c0-0.2,0.1-0.4,0.5-0.4
		c0.6,0,1.4-0.1,2-0.3c1.4-0.3,1.7-1.8,2-3.7c0.3-2.8,0.3-8.2,0.3-14.7V3.8l-10,0.1c-4.2,0.1-5.8,0.5-6.9,2.2
		c-0.7,1.1-0.9,1.6-1.1,2.1c-0.2,0.5-0.4,0.7-0.7,0.7c-0.2,0-0.3-0.2-0.3-0.6c0-0.7,1.3-6.5,1.5-7c0.1-0.4,0.4-1.3,0.7-1.3
		c0.5,0,1.1,0.7,3,0.8c2,0.2,4.5,0.3,5.3,0.3h25.3c2.2,0,3.7-0.1,4.8-0.3c1-0.1,1.6-0.3,1.9-0.3c0.3,0,0.3,0.4,0.3,0.8
		c0,2-0.2,6.7-0.2,7.4c0,0.6-0.2,0.9-0.5,0.9c-0.3,0-0.5-0.2-0.5-1.2l-0.1-0.7c-0.2-2-1.8-3.6-8.3-3.7l-8.5-0.1V32.4z"></path>
<path class="st0" d="M923.3,49.1c7.1,0,9.3-1.3,10.7-3.3c0.6-0.9,1.2-2.7,1.4-3.7c0.1-0.7,0.3-1.1,0.6-1.1c0.4,0,0.5,0.3,0.5,1.6
		c0,2.1-0.9,6.1-1.4,7.8c-0.4,1.6-0.5,1.8-2,1.8c-11.3,0-22.6-0.3-34.5-0.3c-0.8,0-1.2-0.1-1.2-0.5c0-0.3,0.1-0.7,0.9-1.9
		C908.4,34.2,918.6,19,928,3.7h-14.7c-3.4,0-7.6,0.2-9.7,1.4c-2.4,1.3-3.6,3.8-3.9,5.3c-0.1,1-0.4,1.2-0.7,1.2
		c-0.3,0-0.4-0.3-0.4-0.9c0-0.8,1-7,1.4-9c0.1-0.9,0.3-1.3,0.7-1.3c0.6,0,1,0.4,2.8,0.5c6.4,0.3,9.7,0.2,11.8,0.2h18.9
		c1,0,1.3,0.1,1.3,0.5c0,0.3,0,0.4-0.3,0.8c-9.8,15.5-20,31.1-30.3,46.6H923.3z"></path>
</g>
</svg>