<?xml version="1.0" encoding="utf-8"?>
<!-- Generator: Adobe Illustrator 26.3.1, SVG Export Plug-In . SVG Version: 6.00 Build 0)  -->
<svg version="1.1" id="katman_1" xmlns="http://www.w3.org/2000/svg" xmlns:xlink="http://www.w3.org/1999/xlink" x="0px" y="0px"
	 viewBox="0 0 300 100" style="enable-background:new 0 0 300 100;" xml:space="preserve">
<style type="text/css">
	.st0{fill:#40474F;}
</style>
<g>
	<path class="st0" d="M45.4,45.2c0.2-0.5,0.3-0.6,0.3-0.6c0.1,0,0.2,0.1,0.3,0.6c0.2,0.6,2.7,7,3.6,9.3c0.6,1.4,1,1.6,1.3,1.7
		c0.2,0.1,0.5,0.1,0.6,0.1c0.1,0,0.2,0,0.2,0.1c0,0.1-0.1,0.1-0.3,0.1c-0.2,0-1.4,0-2.4,0c-0.3,0-0.5,0-0.5-0.1c0-0.1,0-0.1,0.1-0.1
		c0.1,0,0.2-0.2,0.1-0.4l-1.4-3.8c0-0.1-0.1-0.1-0.1-0.1h-3.3c-0.1,0-0.1,0-0.2,0.1l-0.9,2.8c-0.1,0.4-0.2,0.8-0.2,1
		c0,0.3,0.3,0.5,0.6,0.5h0.2c0.1,0,0.2,0,0.2,0.1c0,0.1-0.1,0.1-0.2,0.1c-0.4,0-1,0-1.2,0c-0.2,0-1,0-1.7,0c-0.2,0-0.3,0-0.3-0.1
		c0-0.1,0.1-0.1,0.1-0.1c0.1,0,0.3,0,0.5,0c0.7-0.1,1-0.7,1.3-1.4L45.4,45.2z M47,51.5c0.1,0,0.1,0,0.1-0.1l-1.5-4.2
		c-0.1-0.2-0.2-0.2-0.2,0L44,51.3c0,0.1,0,0.1,0,0.1H47z"/>
	<path class="st0" d="M55.2,54.5c0,1.3,0.2,1.7,0.6,1.8c0.3,0.1,0.6,0.1,0.8,0.1c0.1,0,0.1,0,0.1,0.1c0,0.1-0.1,0.1-0.3,0.1
		c-0.9,0-1.5,0-1.7,0c-0.1,0-0.8,0-1.5,0c-0.1,0-0.2,0-0.2-0.1c0-0.1,0-0.1,0.1-0.1c0.1,0,0.4,0,0.6-0.1c0.4-0.1,0.5-0.6,0.5-2
		l0-8.9c0-0.6,0-0.8,0.2-0.8c0.1,0,0.4,0.3,0.6,0.5c0.2,0.3,2.5,2.8,4.9,5.3c1.5,1.7,3.2,3.5,3.7,4l-0.2-7.9c0-1-0.1-1.4-0.6-1.5
		c-0.3-0.1-0.7-0.1-0.8-0.1C62,45.1,62,45,62,45c0-0.1,0.1-0.1,0.3-0.1c0.7,0,1.4,0,1.6,0s0.7,0,1.3,0c0.2,0,0.3,0,0.3,0.1
		c0,0.1-0.1,0.1-0.2,0.1c-0.1,0-0.2,0-0.4,0c-0.5,0.1-0.6,0.5-0.6,1.4l0,9.1c0,1,0,1.1-0.1,1.1s-0.3-0.2-1.1-1
		c-0.2-0.2-2.4-2.4-4-4.2c-1.8-1.9-3.6-3.9-4-4.5L55.2,54.5z"/>
	<path class="st0" d="M68.7,49.3c0-2.4,0-2.8,0-3.4c0-0.5-0.2-0.8-0.7-0.9c-0.1,0-0.4,0-0.5,0c-0.1,0-0.1,0-0.1-0.1
		c0-0.1,0.1-0.1,0.3-0.1c0.7,0,1.7,0,1.7,0c0.2,0,1.2,0,2.1,0c1.5,0,4.4-0.1,6.2,1.8c0.8,0.8,1.5,2.1,1.5,3.9c0,2-0.8,3.5-1.7,4.4
		c-0.7,0.7-2.1,1.8-4.7,1.8c-0.7,0-1.5,0-2.2-0.1c-0.7,0-1.2-0.1-1.3-0.1c0,0-0.3,0-0.6,0c-0.3,0-0.7,0-0.9,0c-0.2,0-0.3,0-0.3-0.1
		c0,0,0-0.1,0.1-0.1c0.1,0,0.3,0,0.5-0.1c0.3-0.1,0.4-0.4,0.5-0.8c0.1-0.6,0.1-1.9,0.1-3.4C68.7,52.1,68.7,49.3,68.7,49.3z M70,51
		c0,1.7,0,3.1,0,3.4c0,0.4,0,1,0.2,1.2c0.2,0.3,0.8,0.6,2.6,0.6c1.4,0,2.8-0.5,3.7-1.4c0.8-0.8,1.2-2.3,1.2-3.7c0-2-0.8-3.2-1.5-3.9
		c-1.5-1.5-3.2-1.7-5.1-1.7c-0.3,0-0.9,0-1,0.1c-0.1,0.1-0.2,0.1-0.2,0.3c0,0.5,0,2.1,0,3.3L70,51L70,51z"/>
	<path class="st0" d="M82,49.3c0-2.4,0-2.8,0-3.4c0-0.5-0.2-0.8-0.7-0.9c-0.1,0-0.4,0-0.5,0c-0.1,0-0.1,0-0.1-0.1
		c0-0.1,0.1-0.1,0.3-0.1c0.7,0,1.7,0,1.7,0c0.2,0,1.4,0,1.8,0c1,0,2,0.1,2.8,0.7c0.4,0.3,1.1,1,1.1,2.1c0,1.1-0.5,2.3-1.9,3.6
		c1.3,1.6,2.3,3,3.2,4c0.8,0.9,1.5,1.1,1.9,1.1c0.3,0,0.5,0,0.6,0c0.1,0,0.1,0,0.1,0.1c0,0.1-0.1,0.1-0.4,0.1H91
		c-0.9,0-1.3-0.1-1.7-0.3c-0.7-0.4-1.2-1.1-2.1-2.3c-0.6-0.8-1.4-1.9-1.7-2.3c-0.1-0.1-0.1-0.1-0.2-0.1l-1.9,0c-0.1,0-0.1,0-0.1,0.1
		v0.4c0,1.5,0,2.7,0.1,3.4c0,0.5,0.1,0.8,0.6,0.8c0.2,0,0.6,0.1,0.7,0.1c0.1,0,0.1,0,0.1,0.1c0,0.1-0.1,0.1-0.3,0.1
		c-0.8,0-1.8,0-1.9,0c0,0-1,0-1.5,0c-0.2,0-0.3,0-0.3-0.1c0,0,0-0.1,0.1-0.1c0.1,0,0.3,0,0.5-0.1c0.3-0.1,0.4-0.4,0.5-0.8
		c0.1-0.6,0.1-1.9,0.1-3.4L82,49.3L82,49.3z M83.3,50.7c0,0.1,0,0.1,0.1,0.2c0.2,0.1,0.9,0.3,1.6,0.3c0.4,0,0.8,0,1.2-0.3
		c0.6-0.4,0.9-1.2,0.9-2.4c0-1.9-1-3.1-2.7-3.1c-0.5,0-0.9,0-1,0.1c-0.1,0-0.1,0.1-0.1,0.2L83.3,50.7L83.3,50.7z"/>
	<path class="st0" d="M93.9,49.3c0-2.4,0-2.8,0-3.4c0-0.5-0.2-0.8-0.7-0.9c-0.1,0-0.4,0-0.5,0c-0.1,0-0.1,0-0.1-0.1
		c0-0.1,0.1-0.1,0.3-0.1c0.4,0,0.8,0,1.1,0l0.6,0c0.1,0,3.2,0,3.6,0c0.3,0,0.6,0,0.7-0.1c0.1,0,0.1-0.1,0.2-0.1c0,0,0.1,0.1,0.1,0.1
		c0,0.1-0.1,0.3-0.1,0.7c0,0.2,0,0.8-0.1,1c0,0.1,0,0.2-0.1,0.2c-0.1,0-0.1-0.1-0.1-0.2c0-0.1,0-0.4-0.1-0.6
		c-0.1-0.3-0.3-0.4-1.1-0.5c-0.3,0-2,0-2.1,0c-0.1,0-0.1,0-0.1,0.2v4.3c0,0.1,0,0.2,0.1,0.2c0.2,0,2.1,0,2.5,0
		c0.4,0,0.6-0.1,0.7-0.2c0.1-0.1,0.2-0.2,0.2-0.2c0,0,0.1,0,0.1,0.1s-0.1,0.4-0.1,0.9c0,0.3-0.1,0.9-0.1,1s0,0.3-0.1,0.3
		c-0.1,0-0.1-0.1-0.1-0.1c0-0.2,0-0.3-0.1-0.5c-0.1-0.2-0.2-0.5-0.8-0.6c-0.4,0-2-0.1-2.2-0.1c-0.1,0-0.1,0-0.1,0.1v1.4
		c0,0.5,0,2.3,0,2.7c0,1.1,0.3,1.3,1.8,1.3c0.4,0,1.1,0,1.5-0.2c0.4-0.2,0.6-0.5,0.7-1.1c0-0.2,0.1-0.2,0.1-0.2
		c0.1,0,0.1,0.1,0.1,0.2c0,0.1-0.1,1.2-0.2,1.5c-0.1,0.4-0.2,0.4-0.8,0.4c-1.2,0-2,0-2.6,0c-0.6,0-1,0-1.2,0c0,0-0.3,0-0.6,0
		c-0.3,0-0.7,0-0.9,0c-0.2,0-0.3,0-0.3-0.1c0,0,0-0.1,0.1-0.1c0.1,0,0.3,0,0.5-0.1c0.3-0.1,0.4-0.4,0.5-0.8c0.1-0.6,0.1-1.9,0.1-3.4
		L93.9,49.3L93.9,49.3z"/>
	<path class="st0" d="M102.9,49.3c0-2.4,0-2.8,0-3.4c0-0.5-0.2-0.8-0.7-0.9c-0.1,0-0.4,0-0.5,0c-0.1,0-0.1,0-0.1-0.1
		c0-0.1,0.1-0.1,0.3-0.1c0.4,0,0.8,0,1.1,0l0.6,0c0.1,0,3.2,0,3.6,0c0.3,0,0.6,0,0.7-0.1c0.1,0,0.1-0.1,0.2-0.1c0,0,0.1,0.1,0.1,0.1
		c0,0.1-0.1,0.3-0.1,0.7c0,0.2,0,0.8-0.1,1c0,0.1,0,0.2-0.1,0.2c-0.1,0-0.1-0.1-0.1-0.2c0-0.1,0-0.4-0.1-0.6
		c-0.1-0.3-0.3-0.4-1.1-0.5c-0.3,0-2,0-2.1,0c-0.1,0-0.1,0-0.1,0.2v4.3c0,0.1,0,0.2,0.1,0.2c0.2,0,2.1,0,2.5,0
		c0.4,0,0.6-0.1,0.7-0.2c0.1-0.1,0.2-0.2,0.2-0.2c0,0,0.1,0,0.1,0.1s-0.1,0.4-0.1,0.9c0,0.3-0.1,0.9-0.1,1s0,0.3-0.1,0.3
		c-0.1,0-0.1-0.1-0.1-0.1c0-0.2,0-0.3-0.1-0.5c-0.1-0.2-0.2-0.5-0.8-0.6c-0.4,0-2-0.1-2.2-0.1c-0.1,0-0.1,0-0.1,0.1v1.4
		c0,0.5,0,2.3,0,2.7c0,1.1,0.3,1.3,1.8,1.3c0.4,0,1.1,0,1.5-0.2c0.4-0.2,0.6-0.5,0.7-1.1c0-0.2,0.1-0.2,0.1-0.2
		c0.1,0,0.1,0.1,0.1,0.2c0,0.1-0.1,1.2-0.2,1.5c-0.1,0.4-0.2,0.4-0.8,0.4c-1.2,0-2,0-2.6,0c-0.6,0-1,0-1.2,0c0,0-0.3,0-0.6,0
		c-0.3,0-0.7,0-0.9,0c-0.2,0-0.3,0-0.3-0.1c0,0,0-0.1,0.1-0.1c0.1,0,0.3,0,0.5-0.1c0.3-0.1,0.4-0.4,0.5-0.8c0.1-0.6,0.1-1.9,0.1-3.4
		L102.9,49.3L102.9,49.3z"/>
	<path class="st0" d="M111.2,56.4c-0.2-0.1-0.2-0.2-0.2-0.6c0-0.8,0.1-1.4,0.1-1.7c0-0.2,0-0.3,0.1-0.3c0.1,0,0.1,0,0.1,0.2
		c0,0.1,0,0.4,0,0.6c0.2,1.1,1.3,1.6,2.3,1.6c1.5,0,2.2-1.1,2.2-2.1c0-1.1-0.5-1.7-1.8-2.8l-0.7-0.6c-1.7-1.4-2-2.3-2-3.4
		c0-1.7,1.2-2.8,3.2-2.8c0.6,0,1.1,0.1,1.4,0.2c0.3,0.1,0.4,0.1,0.6,0.1c0.1,0,0.2,0,0.2,0.1c0,0.1-0.1,0.6-0.1,1.7
		c0,0.3,0,0.4-0.1,0.4c-0.1,0-0.1-0.1-0.1-0.2c0-0.2-0.1-0.6-0.2-0.8c-0.1-0.2-0.5-0.8-1.9-0.8c-1.1,0-1.9,0.7-1.9,1.8
		c0,0.9,0.4,1.4,1.9,2.6l0.4,0.3c1.8,1.4,2.3,2.4,2.3,3.7c0,0.6-0.3,1.8-1.3,2.6c-0.7,0.5-1.5,0.6-2.3,0.6
		C112.5,56.8,111.8,56.7,111.2,56.4z"/>
	<path class="st0" d="M119.9,56.4c-0.2-0.1-0.2-0.2-0.2-0.6c0-0.8,0.1-1.4,0.1-1.7c0-0.2,0-0.3,0.1-0.3c0.1,0,0.1,0,0.1,0.2
		c0,0.1,0,0.4,0,0.6c0.2,1.1,1.3,1.6,2.3,1.6c1.5,0,2.2-1.1,2.2-2.1c0-1.1-0.5-1.7-1.8-2.8l-0.7-0.6c-1.7-1.4-2-2.3-2-3.4
		c0-1.7,1.2-2.8,3.2-2.8c0.6,0,1.1,0.1,1.4,0.2c0.3,0.1,0.4,0.1,0.6,0.1c0.1,0,0.2,0,0.2,0.1c0,0.1-0.1,0.6-0.1,1.7
		c0,0.3,0,0.4-0.1,0.4c-0.1,0-0.1-0.1-0.1-0.2c0-0.2-0.1-0.6-0.2-0.8c-0.1-0.2-0.5-0.8-1.9-0.8c-1.1,0-1.9,0.7-1.9,1.8
		c0,0.9,0.4,1.4,1.9,2.6l0.4,0.3c1.8,1.4,2.3,2.4,2.3,3.7c0,0.6-0.3,1.8-1.3,2.6c-0.7,0.5-1.5,0.6-2.3,0.6
		C121.2,56.8,120.5,56.7,119.9,56.4z"/>
	<path class="st0" d="M129.2,49.3c0-2.4,0-2.8,0-3.4c0-0.5-0.2-0.8-0.7-0.9c-0.1,0-0.4,0-0.5,0c-0.1,0-0.1,0-0.1-0.1
		c0-0.1,0.1-0.1,0.3-0.1c0.4,0,0.8,0,1.1,0l0.6,0c0.1,0,3.2,0,3.6,0c0.3,0,0.6,0,0.7-0.1c0.1,0,0.1-0.1,0.2-0.1c0,0,0.1,0.1,0.1,0.1
		c0,0.1-0.1,0.3-0.1,0.7c0,0.2,0,0.8-0.1,1c0,0.1,0,0.2-0.1,0.2c-0.1,0-0.1-0.1-0.1-0.2c0-0.1,0-0.4-0.1-0.6
		c-0.1-0.3-0.3-0.4-1.1-0.5c-0.3,0-2,0-2.1,0c-0.1,0-0.1,0-0.1,0.2v4.3c0,0.1,0,0.2,0.1,0.2c0.2,0,2.1,0,2.5,0
		c0.4,0,0.6-0.1,0.7-0.2c0.1-0.1,0.2-0.2,0.2-0.2c0,0,0.1,0,0.1,0.1s-0.1,0.4-0.1,0.9c0,0.3-0.1,0.9-0.1,1s0,0.3-0.1,0.3
		c-0.1,0-0.1-0.1-0.1-0.1c0-0.2,0-0.3-0.1-0.5c-0.1-0.2-0.2-0.5-0.8-0.6c-0.4,0-2-0.1-2.2-0.1c-0.1,0-0.1,0-0.1,0.1v1.4
		c0,0.5,0,2.3,0,2.7c0,1.1,0.3,1.3,1.8,1.3c0.4,0,1.1,0,1.5-0.2c0.4-0.2,0.6-0.5,0.7-1.1c0-0.2,0.1-0.2,0.1-0.2
		c0.1,0,0.1,0.1,0.1,0.2c0,0.1-0.1,1.2-0.2,1.5c-0.1,0.4-0.2,0.4-0.8,0.4c-1.2,0-2,0-2.6,0s-1,0-1.2,0c0,0-0.3,0-0.6,0
		c-0.3,0-0.7,0-0.9,0c-0.2,0-0.3,0-0.3-0.1c0,0,0-0.1,0.1-0.1c0.1,0,0.3,0,0.5-0.1c0.3-0.1,0.4-0.4,0.5-0.8c0.1-0.6,0.1-1.9,0.1-3.4
		L129.2,49.3L129.2,49.3z"/>
	<path class="st0" d="M139,54.5c0,1.3,0.2,1.7,0.6,1.8c0.3,0.1,0.6,0.1,0.8,0.1c0.1,0,0.1,0,0.1,0.1c0,0.1-0.1,0.1-0.3,0.1
		c-0.9,0-1.5,0-1.7,0c-0.1,0-0.8,0-1.5,0c-0.2,0-0.3,0-0.3-0.1c0-0.1,0-0.1,0.1-0.1c0.1,0,0.4,0,0.6-0.1c0.4-0.1,0.5-0.6,0.5-2
		l0-8.9c0-0.6,0-0.8,0.2-0.8s0.4,0.3,0.6,0.5c0.2,0.3,2.5,2.8,4.9,5.3c1.5,1.7,3.2,3.5,3.7,4l-0.2-7.9c0-1-0.1-1.4-0.6-1.5
		c-0.3-0.1-0.6-0.1-0.8-0.1s-0.1,0-0.1-0.1c0-0.1,0.1-0.1,0.3-0.1c0.7,0,1.4,0,1.6,0c0.2,0,0.7,0,1.3,0c0.2,0,0.3,0,0.3,0.1
		c0,0.1-0.1,0.1-0.2,0.1c-0.1,0-0.2,0-0.4,0c-0.5,0.1-0.6,0.5-0.6,1.4l0,9.1c0,1,0,1.1-0.1,1.1s-0.3-0.2-1.1-1
		c-0.2-0.2-2.4-2.4-4-4.2c-1.8-1.9-3.6-3.9-4-4.5L139,54.5z"/>
	<path class="st0" d="M169.2,52.1c0,1.5,0,2.7,0.1,3.4c0,0.5,0.1,0.8,0.6,0.8c0.2,0,0.6,0.1,0.7,0.1c0.1,0,0.1,0,0.1,0.1
		c0,0.1-0.1,0.1-0.3,0.1c-0.8,0-1.8,0-1.9,0c-0.1,0-1.1,0-1.5,0c-0.2,0-0.3,0-0.3-0.1c0,0,0-0.1,0.1-0.1c0.1,0,0.3,0,0.5-0.1
		c0.3-0.1,0.4-0.4,0.5-0.8c0.1-0.6,0.1-1.9,0.1-3.4v-1.6c0-0.1,0-0.1-0.1-0.1h-6.6c0,0-0.1,0-0.1,0.1v1.6c0,1.5,0,2.7,0.1,3.4
		c0,0.5,0.1,0.8,0.6,0.8c0.2,0,0.6,0.1,0.7,0.1c0.1,0,0.1,0,0.1,0.1c0,0.1-0.1,0.1-0.3,0.1c-0.8,0-1.8,0-1.9,0c-0.1,0-1.1,0-1.5,0
		c-0.2,0-0.3,0-0.3-0.1c0,0,0-0.1,0.1-0.1c0.1,0,0.3,0,0.5-0.1c0.3-0.1,0.4-0.4,0.5-0.8c0.1-0.6,0.1-1.9,0.1-3.4v-2.7
		c0-2.4,0-2.8,0-3.4c0-0.5-0.2-0.8-0.7-0.9c-0.1,0-0.4,0-0.5,0c-0.1,0-0.1,0-0.1-0.1c0-0.1,0.1-0.1,0.3-0.1c0.7,0,1.7,0,1.7,0
		c0.1,0,1.1,0,1.5,0c0.2,0,0.3,0,0.3,0.1c0,0.1-0.1,0.1-0.1,0.1c-0.1,0-0.2,0-0.4,0c-0.4,0.1-0.6,0.3-0.6,0.9c0,0.5,0,0.9,0,3.4v0.3
		c0,0.1,0,0.1,0.1,0.1h6.6c0,0,0.1,0,0.1-0.1v-0.3c0-2.4,0-2.8,0-3.4c0-0.5-0.2-0.8-0.7-0.9c-0.1,0-0.4,0-0.5,0
		c-0.1,0-0.1,0-0.1-0.1c0-0.1,0.1-0.1,0.3-0.1c0.7,0,1.7,0,1.7,0c0.1,0,1.1,0,1.5,0c0.2,0,0.3,0,0.3,0.1c0,0.1-0.1,0.1-0.1,0.1
		c-0.1,0-0.2,0-0.4,0c-0.4,0.1-0.6,0.3-0.6,0.9c0,0.5,0,0.9,0,3.4L169.2,52.1L169.2,52.1z"/>
	<path class="st0" d="M177.9,44.6c3.5,0,6.1,2.2,6.1,5.8c0,3.5-2.5,6.3-6.2,6.3c-4.2,0-6-3.3-6-6.1
		C171.8,48.2,173.6,44.6,177.9,44.6z M178.2,56.2c1.4,0,4.3-0.8,4.3-5.3c0-3.7-2.3-5.7-4.7-5.7c-2.6,0-4.5,1.7-4.5,5.1
		C173.3,53.9,175.5,56.2,178.2,56.2z"/>
	<path class="st0" d="M186.5,49.3c0-2.4,0-2.8,0-3.4c0-0.5-0.2-0.8-0.7-0.9c-0.1,0-0.4,0-0.5,0c-0.1,0-0.1,0-0.1-0.1
		c0-0.1,0.1-0.1,0.3-0.1c0.7,0,1.7,0,1.7,0c0.2,0,1.4,0,1.8,0c1,0,2,0.1,2.8,0.7c0.4,0.3,1.1,1,1.1,2.1c0,1.1-0.5,2.3-1.9,3.6
		c1.3,1.6,2.3,3,3.2,4c0.8,0.9,1.5,1.1,1.9,1.1c0.3,0,0.5,0,0.6,0c0.1,0,0.1,0,0.1,0.1c0,0.1-0.1,0.1-0.4,0.1h-1.1
		c-0.9,0-1.3-0.1-1.7-0.3c-0.7-0.4-1.2-1.1-2.1-2.3c-0.6-0.8-1.4-1.9-1.7-2.3c-0.1-0.1-0.1-0.1-0.2-0.1l-1.9,0c-0.1,0-0.1,0-0.1,0.1
		v0.4c0,1.5,0,2.7,0.1,3.4c0,0.5,0.1,0.8,0.6,0.8c0.2,0,0.6,0.1,0.7,0.1c0.1,0,0.1,0,0.1,0.1c0,0.1-0.1,0.1-0.3,0.1
		c-0.8,0-1.8,0-1.9,0c0,0-1,0-1.5,0c-0.2,0-0.3,0-0.3-0.1c0,0,0-0.1,0.1-0.1c0.1,0,0.3,0,0.5-0.1c0.3-0.1,0.4-0.4,0.5-0.8
		c0.1-0.6,0.1-1.9,0.1-3.4L186.5,49.3L186.5,49.3z M187.8,50.7c0,0.1,0,0.1,0.1,0.2c0.2,0.1,0.9,0.3,1.6,0.3c0.4,0,0.8,0,1.2-0.3
		c0.6-0.4,0.9-1.2,0.9-2.4c0-1.9-1-3.1-2.7-3.1c-0.5,0-0.9,0-1,0.1c-0.1,0-0.1,0.1-0.1,0.2L187.8,50.7L187.8,50.7z"/>
	<path class="st0" d="M203,44.6c3.5,0,6.1,2.2,6.1,5.8c0,3.5-2.5,6.3-6.2,6.3c-4.2,0-6-3.3-6-6.1C196.8,48.2,198.7,44.6,203,44.6z
		 M203.3,56.2c1.4,0,4.3-0.8,4.3-5.3c0-3.7-2.3-5.7-4.7-5.7c-2.6,0-4.5,1.7-4.5,5.1C198.3,53.9,200.5,56.2,203.3,56.2z"/>
	<path class="st0" d="M221.9,54.4L221.9,54.4c0.5-1.4,1.9-5.9,2.5-7.9c0.2-0.6,0.2-0.8,0.2-1c0-0.3-0.2-0.5-0.9-0.5
		c-0.1,0-0.1,0-0.1-0.1s0.1-0.1,0.3-0.1c0.8,0,1.4,0,1.6,0c0.1,0,0.8,0,1.3,0c0.1,0,0.2,0,0.2,0.1s0,0.1-0.1,0.1
		c-0.1,0-0.4,0-0.5,0.1c-0.5,0.2-0.7,0.8-1,1.7c-0.7,2-2.2,6.9-2.8,8.6c-0.4,1.1-0.5,1.3-0.6,1.3s-0.3-0.2-0.5-0.8l-3-8.6h0
		c-0.6,1.5-2.7,7.2-3.2,8.6c-0.3,0.6-0.3,0.8-0.5,0.8c-0.2,0-0.2-0.2-0.6-1.2l-2.8-9.2c-0.3-0.8-0.5-1.1-0.8-1.2
		c-0.2-0.1-0.6-0.1-0.7-0.1c-0.1,0-0.1,0-0.1-0.1c0-0.1,0.1-0.1,0.3-0.1c0.8,0,1.7,0,1.8,0c0.1,0,0.8,0,1.6,0c0.2,0,0.3,0,0.3,0.1
		c0,0.1-0.1,0.1-0.2,0.1c-0.1,0-0.4,0-0.6,0.1c-0.1,0-0.2,0.2-0.2,0.4s0.1,0.7,0.3,1.4c0.2,1,1.8,6.7,2.1,7.5h0l3.3-8.8
		c0.2-0.6,0.3-0.7,0.4-0.7c0.1,0,0.2,0.2,0.4,0.7L221.9,54.4z"/>
	<path class="st0" d="M231.1,52.1c0,1.5,0,2.7,0.1,3.4c0,0.5,0.1,0.8,0.6,0.8c0.2,0,0.6,0.1,0.7,0.1c0.1,0,0.1,0,0.1,0.1
		c0,0.1-0.1,0.1-0.3,0.1c-0.8,0-1.8,0-1.9,0c-0.1,0-1.1,0-1.5,0c-0.2,0-0.3,0-0.3-0.1c0,0,0-0.1,0.1-0.1c0.1,0,0.3,0,0.5-0.1
		c0.3-0.1,0.4-0.4,0.5-0.8c0.1-0.6,0.1-1.9,0.1-3.4v-2.7c0-2.4,0-2.8,0-3.4c0-0.5-0.2-0.8-0.5-0.9c-0.2,0-0.4-0.1-0.5-0.1
		c-0.1,0-0.1,0-0.1-0.1c0-0.1,0.1-0.1,0.3-0.1c0.5,0,1.5,0,1.6,0c0.1,0,1.1,0,1.5,0c0.2,0,0.3,0,0.3,0.1c0,0.1-0.1,0.1-0.1,0.1
		c-0.1,0-0.2,0-0.4,0c-0.4,0.1-0.6,0.3-0.6,0.9c0,0.5,0,0.9,0,3.4L231.1,52.1L231.1,52.1z"/>
	<path class="st0" d="M240.1,52.1c0,1.5,0,2.7,0.1,3.4c0,0.5,0.1,0.8,0.6,0.8c0.2,0,0.6,0.1,0.7,0.1c0.1,0,0.1,0,0.1,0.1
		c0,0.1-0.1,0.1-0.3,0.1c-0.8,0-1.8,0-1.9,0c-0.1,0-1.1,0-1.5,0c-0.2,0-0.3,0-0.3-0.1c0,0,0-0.1,0.1-0.1c0.1,0,0.3,0,0.5-0.1
		c0.3-0.1,0.4-0.4,0.5-0.8c0.1-0.6,0.1-1.9,0.1-3.4v-6.6l-2.3,0c-1,0-1.3,0.1-1.6,0.5c-0.2,0.3-0.2,0.4-0.3,0.5
		c0,0.1-0.1,0.2-0.2,0.2c0,0-0.1,0-0.1-0.1c0-0.2,0.3-1.5,0.3-1.6c0-0.1,0.1-0.3,0.2-0.3c0.1,0,0.3,0.2,0.7,0.2c0.5,0,1,0.1,1.2,0.1
		h5.8c0.5,0,0.8,0,1.1-0.1c0.2,0,0.4-0.1,0.4-0.1c0.1,0,0.1,0.1,0.1,0.2c0,0.5,0,1.5,0,1.7c0,0.1,0,0.2-0.1,0.2
		c-0.1,0-0.1,0-0.1-0.3l0-0.2c0-0.5-0.4-0.8-1.9-0.8l-2,0L240.1,52.1L240.1,52.1z"/>
	<path class="st0" d="M252,55.9c1.6,0,2.1-0.3,2.5-0.8c0.1-0.2,0.3-0.6,0.3-0.8c0-0.2,0.1-0.3,0.1-0.3c0.1,0,0.1,0.1,0.1,0.4
		c0,0.5-0.2,1.4-0.3,1.8c-0.1,0.4-0.1,0.4-0.5,0.4c-2.6,0-5.2-0.1-7.9-0.1c-0.2,0-0.3,0-0.3-0.1c0-0.1,0-0.2,0.2-0.4
		c2.3-3.5,4.7-7,6.8-10.5h-3.4c-0.8,0-1.7,0-2.2,0.3c-0.6,0.3-0.8,0.9-0.9,1.2c0,0.2-0.1,0.3-0.2,0.3c-0.1,0-0.1-0.1-0.1-0.2
		c0-0.2,0.2-1.6,0.3-2.1c0-0.2,0.1-0.3,0.2-0.3c0.1,0,0.2,0.1,0.6,0.1c1.5,0.1,2.2,0,2.7,0h4.3c0.2,0,0.3,0,0.3,0.1
		c0,0.1,0,0.1-0.1,0.2c-2.2,3.6-4.6,7.1-7,10.7L252,55.9L252,55.9z"/>
</g>
</svg>
