<?xml version="1.0" encoding="utf-8"?>
<!-- Generator: Adobe Illustrator 26.3.1, SVG Export Plug-In . SVG Version: 6.00 Build 0)  -->
<svg version="1.1" id="katman_1" xmlns="http://www.w3.org/2000/svg" xmlns:xlink="http://www.w3.org/1999/xlink" x="0px" y="0px"
	 viewBox="0 0 300 100" style="enable-background:new 0 0 300 100;" xml:space="preserve">
<style type="text/css">
	.st0{fill:#E52823;}
	.st1{fill:#1C2156;}
	.st2{fill:#1CA6DF;}
	.st3{fill:#ABCAE9;}
</style>
<polygon class="st0" points="60,57.5 60,66.9 78.8,57.5 69.4,52.8 "/>
<polygon class="st1" points="60,66.9 88.2,66.9 88.2,62.2 78.8,57.5 "/>
<polygon class="st2" points="60,38.7 60,48.1 69.4,52.8 78.8,48.1 "/>
<polygon class="st1" points="60,38.7 78.8,48.1 88.2,43.4 88.2,38.7 "/>
<polygon class="st3" points="78.8,48.1 69.4,52.8 78.8,57.5 88.2,62.2 88.2,52.8 88.2,43.4 "/>
<path class="st1" d="M222.8,55.8c-0.8,0-1.6,0.1-2.4,0.1c-1.5,0.2-2.2,1-2.2,2.2c0,1.1,0.7,1.7,1.8,1.7c1.5,0,2.8-1,2.8-3V55.8z
	 M218.9,62.5c-2.7,0-4.4-1.7-4.4-4.3c0-2.3,1.5-3.8,4-4.4c1.4-0.2,2.8-0.4,4.3-0.4c0-2-0.8-2.7-2.9-2.7c-1.3,0.1-2.6,0.4-3.9,0.9V49
	c1.4-0.6,2.8-0.8,4.4-0.8c4.4,0,6,2,6,5.7v5.5h1.7v2.8h-4.9l-0.3-1.4h-0.1C221.8,61.9,220.4,62.5,218.9,62.5 M175,55.8
	c-0.8,0-1.6,0.1-2.4,0.1c-1.5,0.2-2.2,1-2.2,2.2c0,1.1,0.7,1.7,1.8,1.7c1.5,0,2.8-1,2.8-3V55.8z M171.1,62.5c-2.7,0-4.4-1.7-4.4-4.3
	c0-2.3,1.5-3.8,4-4.4c1.4-0.2,2.8-0.4,4.3-0.4c0-2-0.8-2.7-2.9-2.7c-1.3,0.1-2.6,0.4-3.9,0.9V49c1.4-0.6,2.8-0.8,4.3-0.8
	c4.4,0,6,2,6,5.7v5.5h1.7v2.8h-4.9l-0.2-1.4H175C174.1,61.9,172.7,62.5,171.1,62.5 M121,55.8c-0.8,0-1.6,0.1-2.4,0.1
	c-1.5,0.2-2.2,1-2.2,2.2c0,1.1,0.7,1.7,1.8,1.7c1.5,0,2.8-1,2.8-3V55.8z M117.1,62.5c-2.7,0-4.4-1.7-4.4-4.3c0-2.3,1.5-3.8,4-4.4
	c1.4-0.2,2.8-0.4,4.3-0.4c0-2-0.8-2.7-2.9-2.7c-1.3,0.1-2.6,0.4-3.8,0.9V49c1.4-0.6,2.8-0.8,4.3-0.8c4.4,0,6,2,6,5.7v5.5h1.7v2.8
	h-4.8l-0.3-1.4h-0.1C120.1,61.9,118.7,62.5,117.1,62.5 M192.2,55.3c0-2.5-1.3-4.3-3.2-4.3s-3.2,1.7-3.2,4.3c0,2.5,1.2,4.3,3.1,4.3
	C190.9,59.5,192.2,57.8,192.2,55.3 M195.9,55.3c0,4.3-2.5,7.2-6,7.2c-2.1,0-3.4-0.8-4-1.7h-0.1v5.8l-3.6,1.5V51.2h-1.8v-2.8h5.1
	l0.2,1.8h0.1c0.4-0.7,1.5-2,4-2C193.6,48.1,195.9,50.9,195.9,55.3 M144.1,48.1c-1.7-0.1-3.4,0.7-4.4,2h-0.1l-0.2-1.8H134v2.8h2v11
	h3.6v-6.4c0-3.4,1.8-4.6,3.4-4.6c1.5,0,2.2,0.9,2.2,3v8h3.6v-8.8C148.6,49.9,147,48.1,144.1,48.1 M160.3,59.2
	c-3.7,0-5.8-2.5-5.8-6.4c0-3.9,2.2-6.5,5.5-6.5c0.8,0,1.6,0.1,2.4,0.3v3.9l3.2-1.3v-4.6c-1.6-0.9-3.5-1.4-5.4-1.4
	c-5.6,0-9.4,3.5-9.4,9.6c0,5.9,3.4,9.6,9.4,9.6c1.9,0,3.8-0.5,5.5-1.4l-0.8-3C163.5,58.8,161.9,59.2,160.3,59.2 M233.4,59.4v-17
	l-3.6,1.5v18.3h5.3v-2.8H233.4z M107.9,56.6c0-1.8-1.3-2.7-3.5-2.7H101v5.5h3.5C106.9,59.3,107.9,58.2,107.9,56.6 M101,51.1h2.9
	c2,0,3-1,3-2.3c0-1.6-1-2.4-2.8-2.4H101V51.1z M111.7,56.8c0,3.6-2.8,5.4-7,5.4h-7.3V46.3H95v-2.8h9c2.4,0,3.7,0.4,4.6,0.9
	c1.3,0.8,2,2.2,2,3.7c0,2-1.2,3.5-3.2,4v0.1C110,52.6,111.7,54.4,111.7,56.8 M196.9,51.2h2v11h3.6V48.4h-5.5V51.2z M198.8,46h3.6
	v-3.4h-3.6V46z M126.6,51.2h2v11h3.6V48.4h-5.5V51.2z M128.5,46h3.6v-3.4h-3.6V46z M209.9,48.4h3.6v2.8h-3.6v6.1
	c0,1.5,0.4,2.4,1.8,2.4c0.5-0.1,1.1-0.1,1.6-0.2v2.7c-0.9,0.2-1.9,0.4-2.8,0.4c-2.8,0-4.2-1.4-4.2-4.3v-7h-2v-2.8h2v-2.3l3.6-1.5
	L209.9,48.4z"/>
</svg>
