<svg width="137" height="20" viewBox="0 0 137 20" fill="none" xmlns="http://www.w3.org/2000/svg">
<path d="M136.663 0.138861C136.807 0.138861 136.891 0.27511 136.998 0.365943V5.95218C136.998 6.0124 136.974 6.07017 136.931 6.11275C136.888 6.15534 136.83 6.17926 136.77 6.17926H133.424C133.394 6.1808 133.363 6.17607 133.334 6.16535C133.305 6.15462 133.278 6.13815 133.256 6.1169C133.234 6.09566 133.216 6.0701 133.204 6.04178C133.192 6.01346 133.185 5.98298 133.185 5.95218L133.138 4.34898C133.151 4.23255 133.12 4.1153 133.049 4.02177C132.978 3.92823 132.874 3.86566 132.758 3.84712H127.37C127.086 3.84712 126.94 4.0742 126.94 4.34898V14.8788C126.94 15.1536 127.168 15.2921 127.466 15.2921L130.611 15.3352C130.672 15.3352 130.729 15.3592 130.772 15.4017C130.815 15.4443 130.839 15.5021 130.839 15.5623V18.7755C130.839 18.8358 130.815 18.8935 130.772 18.9361C130.729 18.9787 130.672 19.0026 130.611 19.0026H119.507C119.476 19.0042 119.445 18.9994 119.416 18.9887C119.387 18.978 119.361 18.9615 119.338 18.9403C119.316 18.919 119.298 18.8935 119.286 18.8651C119.274 18.8368 119.268 18.8063 119.268 18.7755V15.5737C119.268 15.5429 119.274 15.5124 119.286 15.4841C119.298 15.4558 119.316 15.4302 119.338 15.4089C119.361 15.3877 119.387 15.3712 119.416 15.3605C119.445 15.3498 119.476 15.3451 119.507 15.3466L122.509 15.3034C122.62 15.3193 122.733 15.2957 122.829 15.2368C122.925 15.1779 122.996 15.0874 123.032 14.981V4.25814C123.032 3.98337 122.793 3.84712 122.509 3.84712H117.121C117.005 3.86566 116.901 3.92823 116.83 4.02177C116.759 4.1153 116.727 4.23255 116.741 4.34898L116.693 5.95218C116.693 5.98298 116.687 6.01346 116.675 6.04178C116.663 6.0701 116.645 6.09566 116.623 6.1169C116.6 6.13815 116.574 6.15462 116.545 6.16535C116.516 6.17607 116.485 6.1808 116.454 6.17926H113.118C113.057 6.17926 113 6.15534 112.957 6.11275C112.914 6.07017 112.89 6.0124 112.89 5.95218V0.365943C112.89 0.305717 112.914 0.247961 112.957 0.205375C113 0.162789 113.057 0.138861 113.118 0.138861H136.663ZM75.7821 8.19576C76.1599 8.19576 76.3511 8.05723 76.3511 7.64621C76.2717 7.08575 76.0953 6.5433 75.8299 6.04301C75.538 5.38942 75.0664 4.83176 74.4698 4.43467C73.8732 4.03758 73.1761 3.81732 72.4591 3.79943H66.9034C66.1864 3.81732 65.4893 4.03758 64.8927 4.43467C64.2961 4.83176 63.8245 5.38942 63.5326 6.04301C63.2746 6.54681 63.1001 7.089 63.016 7.64849C62.9682 8.05951 63.1593 8.19803 63.5372 8.19803L75.7821 8.19576ZM83.994 15.3352C84.1374 15.3352 84.2216 15.4283 84.1829 15.5623V18.7755C84.1829 18.8358 84.1589 18.8935 84.1162 18.9361C84.0735 18.9787 84.0156 19.0026 83.9553 19.0026H73.1237C73.0929 19.0042 73.0621 18.9994 73.0331 18.9887C73.0042 18.978 72.9777 18.9615 72.9554 18.9403C72.933 18.919 72.9152 18.8935 72.9031 18.8651C72.8909 18.8368 72.8847 18.8063 72.8847 18.7755V15.5737C72.8847 15.5429 72.8909 15.5124 72.9031 15.4841C72.9152 15.4558 72.933 15.4302 72.9554 15.4089C72.9777 15.3877 73.0042 15.3712 73.0331 15.3605C73.0621 15.3498 73.0929 15.3451 73.1237 15.3466L75.7821 15.3034C76.0666 15.3034 76.3033 15.1649 76.3033 14.8902V12.4513C76.3033 12.1765 76.1599 11.9494 75.8754 11.9494H63.3915C63.107 11.9494 62.9636 12.1765 62.9636 12.4513V14.8788C62.9636 15.1536 63.2026 15.2921 63.4871 15.2921L66.1455 15.3352C66.2058 15.3352 66.2637 15.3592 66.3064 15.4017C66.3491 15.4443 66.3731 15.5021 66.3731 15.5623V18.7755C66.3731 18.8358 66.3491 18.8935 66.3064 18.9361C66.2637 18.9787 66.2058 19.0026 66.1455 19.0026H55.3208C55.2604 19.0026 55.2025 18.9787 55.1598 18.9361C55.1171 18.8935 55.0932 18.8358 55.0932 18.7755V15.5737C55.0932 15.5134 55.1171 15.4557 55.1598 15.4131C55.2025 15.3705 55.2604 15.3466 55.3208 15.3466L58.6437 15.3034C58.9282 15.3034 59.1649 15.1649 59.1649 14.8902V8.24117C59.1696 7.62561 59.2337 7.01194 59.3561 6.40862C59.9729 3.343 62.9181 0.138861 66.0499 0.138861H73.258C76.3443 0.138861 79.2872 3.343 79.9518 6.40862C80.0742 7.01194 80.1383 7.62561 80.1429 8.24117V14.8788C80.1429 15.1536 80.3705 15.2921 80.6642 15.2921L83.994 15.3352ZM18.7316 19.0026H6.86218C4.24249 19.0026 1.66832 16.7522 0.57128 14.0068C0.193369 13.009 -0.00018448 11.9511 5.08889e-07 10.8844V8.35244C-0.000362232 7.28648 0.193202 6.22931 0.57128 5.23232C1.66832 2.47781 4.09682 0.236505 6.86218 0.236505L23.0219 0.145673C23.0527 0.144133 23.0835 0.148868 23.1125 0.159588C23.1414 0.170309 23.1679 0.186794 23.1902 0.208036C23.2126 0.229278 23.2304 0.254832 23.2425 0.283151C23.2546 0.311469 23.2609 0.341955 23.2608 0.372756V5.97034C23.2609 6.00114 23.2546 6.03164 23.2425 6.05995C23.2304 6.08827 23.2126 6.11383 23.1902 6.13507C23.1679 6.15631 23.1414 6.1728 23.1125 6.18352C23.0835 6.19424 23.0527 6.19896 23.0219 6.19742H19.5441C19.5133 6.19896 19.4825 6.19424 19.4535 6.18352C19.4246 6.1728 19.3981 6.15631 19.3758 6.13507C19.3534 6.11383 19.3356 6.08827 19.3235 6.05995C19.3113 6.03164 19.3051 6.00114 19.3051 5.97034L19.2596 4.4557C19.2596 4.18093 19.1162 3.95158 18.8295 3.95158L7.39021 3.997C6.14979 3.997 4.86384 5.14376 4.24476 6.61299C4.01931 7.16669 3.90562 7.75935 3.91019 8.35698V10.9276C3.9095 11.5241 4.02306 12.1153 4.24476 12.6693C4.81604 14.1385 6.10427 15.3784 7.39021 15.3784L18.7339 15.333C18.8705 15.3342 19.0022 15.2818 19.1006 15.1871C19.1989 15.0924 19.256 14.9629 19.2596 14.8266L19.3051 13.2211C19.3051 13.1903 19.3113 13.1598 19.3235 13.1315C19.3356 13.1032 19.3534 13.0776 19.3758 13.0564C19.3981 13.0351 19.4246 13.0186 19.4535 13.0079C19.4825 12.9972 19.5133 12.9925 19.5441 12.994H23.0241C23.055 12.9925 23.0858 12.9972 23.1147 13.0079C23.1437 13.0186 23.1701 13.0351 23.1925 13.0564C23.2148 13.0776 23.2326 13.1032 23.2448 13.1315C23.2569 13.1598 23.2632 13.1903 23.2631 13.2211V18.7278C23.2632 18.7586 23.2569 18.7891 23.2448 18.8174C23.2326 18.8458 23.2148 18.8713 23.1925 18.8926C23.1701 18.9138 23.1437 18.9303 23.1147 18.941C23.0858 18.9517 23.055 18.9565 23.0241 18.9549H19.5896L18.7316 19.0026ZM43.9953 8.28205C44.298 8.29164 44.5995 8.24043 44.882 8.13148C45.1645 8.02253 45.4221 7.85806 45.6396 7.64783C45.8571 7.4376 46.03 7.18589 46.1481 6.90767C46.2663 6.62946 46.3271 6.33039 46.3271 6.02825C46.3271 5.7261 46.2663 5.42704 46.1481 5.14882C46.03 4.8706 45.8571 4.61891 45.6396 4.40868C45.4221 4.19845 45.1645 4.03397 44.882 3.92502C44.5995 3.81607 44.298 3.76487 43.9953 3.77446H43.663L33.3777 3.82214C33.3174 3.82214 33.2595 3.84607 33.2168 3.88866C33.1741 3.93124 33.1501 3.989 33.1501 4.04922V8.00501C33.1501 8.06523 33.1741 8.12299 33.2168 8.16558C33.2595 8.20816 33.3174 8.23209 33.3777 8.23209L43.663 8.2775L43.9953 8.28205ZM52.5281 15.1831C52.5917 15.1915 52.6519 15.2171 52.702 15.2572C52.7521 15.2972 52.7904 15.3501 52.8126 15.4102V18.6302C52.8126 18.6904 52.7886 18.7482 52.7459 18.7908C52.7032 18.8334 52.6454 18.8573 52.585 18.8573H41.7557C41.6954 18.8573 41.6375 18.8334 41.5948 18.7908C41.5521 18.7482 41.5281 18.6904 41.5281 18.6302V15.4124C41.5281 15.3522 41.5521 15.2945 41.5948 15.2519C41.6375 15.2093 41.6954 15.1854 41.7557 15.1854L43.7472 15.1399C44.0317 15.1399 44.1273 14.956 43.9748 14.7266C43.6425 14.2725 42.6092 12.7488 42.3156 12.4263C42.2158 12.2984 42.0852 12.1976 41.9361 12.1333C41.7869 12.0691 41.6239 12.0433 41.4621 12.0584H36.637L33.4119 12.1038C33.3515 12.1038 33.2936 12.1278 33.2509 12.1704C33.2082 12.2129 33.1843 12.2707 33.1843 12.3309V14.7244C33.1843 14.9991 33.4119 15.1377 33.7077 15.1377L36.9306 15.1831C36.9909 15.1831 37.0488 15.207 37.0915 15.2496C37.1342 15.2922 37.1582 15.3499 37.1582 15.4102V18.6302C37.1582 18.6904 37.1342 18.7482 37.0915 18.7908C37.0488 18.8334 36.9909 18.8573 36.9306 18.8573H26.1127C26.0523 18.8573 25.9944 18.8334 25.9518 18.7908C25.9091 18.7482 25.8851 18.6904 25.8851 18.6302V15.4124C25.8851 15.3522 25.9091 15.2945 25.9518 15.2519C25.9944 15.2093 26.0523 15.1854 26.1127 15.1854L28.8143 15.1399C29.1011 15.1399 29.3378 15.0014 29.3378 14.7266V4.28085C29.3378 4.00381 29.1102 3.86529 28.8143 3.86529L26.0649 3.82214C26.0045 3.82214 25.9466 3.79822 25.904 3.75563C25.8613 3.71305 25.8373 3.65529 25.8373 3.59506V0.231965C25.8373 0.171739 25.8613 0.113983 25.904 0.0713971C25.9466 0.0288108 26.0045 0.00488281 26.0649 0.00488281H44.0773C47.4913 0.00488281 50.2407 2.71852 50.2407 6.03166C50.241 7.07632 49.9651 8.10258 49.4408 9.00684C48.9165 9.9111 48.1624 10.6614 47.2546 11.1819C46.7334 11.3681 46.6856 11.6906 46.8768 12.0107C47.0179 12.2378 48.3926 14.3588 48.6771 14.8175C48.7347 14.927 48.8244 15.0165 48.9341 15.074C49.0438 15.1316 49.1685 15.1546 49.2916 15.1399L52.5281 15.1831ZM93.5145 4.45117H93.5714L93.6192 7.1262C93.6192 7.40097 93.7603 7.63259 94.0471 7.63259L102.229 7.67801C102.26 7.67647 102.291 7.6812 102.32 7.69192C102.349 7.70264 102.375 7.71912 102.398 7.74036C102.42 7.76161 102.438 7.78717 102.45 7.81549C102.462 7.8438 102.468 7.87429 102.468 7.90509V11.1297C102.468 11.1899 102.444 11.2476 102.402 11.2902C102.359 11.3328 102.301 11.3567 102.241 11.3567C102.2 11.3791 102.153 11.3909 102.106 11.3908H93.9333H93.8536C93.774 11.4388 93.7095 11.508 93.6672 11.5907C93.625 11.6733 93.6068 11.7661 93.6147 11.8586L93.5669 14.9151C93.5684 14.9587 93.5582 15.0018 93.5373 15.04C93.5853 15.1258 93.6575 15.1956 93.7449 15.2408C93.8322 15.286 93.931 15.3046 94.0289 15.2944L97.1607 15.3375C97.2211 15.3375 97.2789 15.3614 97.3216 15.404C97.3643 15.4466 97.3883 15.5044 97.3883 15.5646V18.7755C97.3883 18.8358 97.3643 18.8935 97.3216 18.9361C97.2789 18.9787 97.2211 19.0026 97.1607 19.0026H86.336C86.2756 19.0026 86.2177 18.9787 86.175 18.9361C86.1324 18.8935 86.1084 18.8358 86.1084 18.7755V15.5737C86.1084 15.5134 86.1324 15.4557 86.175 15.4131C86.2177 15.3705 86.2756 15.3466 86.336 15.3466L89.1377 15.3034C89.3653 15.3034 89.6134 15.2103 89.659 14.981V4.25814C89.659 3.98337 89.4314 3.84712 89.1377 3.84712L86.2882 3.79943C86.2278 3.79943 86.1699 3.77551 86.1272 3.73292C86.0846 3.69034 86.0606 3.63258 86.0606 3.57235V0.365943C86.0606 0.305717 86.0846 0.247961 86.1272 0.205375C86.1699 0.162789 86.2278 0.138861 86.2882 0.138861H110.503C110.561 0.143977 110.616 0.16955 110.658 0.211078C110.7 0.252607 110.725 0.307436 110.73 0.365943V5.95218C110.73 6.0124 110.706 6.07017 110.664 6.11275C110.621 6.15534 110.563 6.17926 110.503 6.17926H107.171C107.11 6.17926 107.052 6.15534 107.01 6.11275C106.967 6.07017 106.943 6.0124 106.943 5.95218L106.895 4.34898C106.909 4.23289 106.878 4.11593 106.807 4.02245C106.737 3.92898 106.633 3.86618 106.517 3.84712H93.9333C93.6465 3.84712 93.5054 4.0742 93.5054 4.34898L93.5145 4.45117Z" fill="#F5F3F4"/>
</svg>
