<?xml version="1.0" encoding="utf-8"?>
<!-- Generator: Adobe Illustrator 26.3.1, SVG Export Plug-In . SVG Version: 6.00 Build 0)  -->
<svg version="1.1" id="katman_1" xmlns="http://www.w3.org/2000/svg" xmlns:xlink="http://www.w3.org/1999/xlink" x="0px" y="0px"
	 viewBox="0 0 300 100" style="enable-background:new 0 0 300 100;" xml:space="preserve">
<style type="text/css">
	.st0{fill:#1C0311;}
</style>
<path class="st0" d="M218.6,40.3c0.1,0,0.2,0.1,0.3,0.2v5.7c0,0.1,0,0.1-0.1,0.2c0,0-0.1,0.1-0.2,0.1h-3.3h-0.1h-0.1
	c0,0,0,0-0.1-0.1v-0.1v-1.6c0-0.1,0-0.2-0.1-0.3c-0.1-0.1-0.2-0.2-0.3-0.2h-5.4c-0.3,0-0.4,0.2-0.4,0.5v10.5c0,0.3,0.2,0.4,0.5,0.4
	h3.1c0.1,0,0.1,0,0.2,0.1c0,0,0.1,0.1,0.1,0.2v3.2c0,0.1,0,0.1-0.1,0.2c-0.1,0.1-0.1,0.1-0.2,0.1h-11.1h-0.1h-0.1c0,0,0,0-0.1-0.1
	v-0.1V56v-0.1c0,0,0-0.1,0.1-0.1c0,0,0,0,0.1,0h0.1h3c0.1,0,0.2,0,0.3-0.1c0.1-0.1,0.2-0.1,0.2-0.3V44.5c0-0.3-0.2-0.4-0.5-0.4h-5.4
	c-0.1,0-0.2,0.1-0.3,0.2c-0.1,0.1-0.1,0.2-0.1,0.3v1.6v0.1c0,0,0,0.1-0.1,0.1c0,0,0,0-0.1,0h-0.1h-3.3c-0.1,0-0.1,0-0.2-0.1
	c0,0-0.1-0.1-0.1-0.2v-5.5c0-0.1,0-0.1,0.1-0.2c0.1-0.1,0.1-0.1,0.2-0.1H218.6z M157.7,48.4c0.4,0,0.6-0.1,0.6-0.5
	c-0.1-0.6-0.3-1.1-0.5-1.6c-0.3-0.7-0.8-1.2-1.4-1.6c-0.6-0.4-1.3-0.6-2-0.6h-5.6c-0.7,0-1.4,0.2-2,0.6c-0.6,0.4-1.1,1-1.4,1.6
	c-0.3,0.5-0.4,1-0.5,1.6c0,0.4,0.1,0.5,0.5,0.5H157.7z M165.9,55.5c0.1,0,0.2,0.1,0.2,0.2v3.2c0,0.1,0,0.1-0.1,0.2
	c0,0-0.1,0.1-0.2,0.1H155h-0.1h-0.1c0,0,0,0-0.1-0.1V59v-3.2v-0.1c0,0,0-0.1,0.1-0.1c0,0,0,0,0.1,0h0.1h2.7c0.3,0,0.5-0.1,0.5-0.4
	v-2.4c0-0.3-0.1-0.5-0.4-0.5h-12.5c-0.3,0-0.4,0.2-0.4,0.5v2.4c0,0.3,0.2,0.4,0.5,0.4h2.7c0.1,0,0.1,0,0.2,0.1c0,0,0.1,0.1,0.1,0.2
	v3.2c0,0.1,0,0.1-0.1,0.2c0,0-0.1,0.1-0.2,0.1h-10.9c-0.1,0-0.1,0-0.2-0.1c0,0-0.1-0.1-0.1-0.2v-3.2c0-0.1,0-0.1,0.1-0.2
	c0,0,0.1-0.1,0.2-0.1h3.3c0.3,0,0.5-0.1,0.5-0.4v-6.8c0-0.6,0.1-1.2,0.2-1.8c0.7-3.1,3.6-6.3,6.7-6.3h7.2c3.1,0,6,3.2,6.7,6.3
	c0.1,0.6,0.2,1.2,0.2,1.8V55c0,0.3,0.2,0.4,0.5,0.4L165.9,55.5z M100.6,59.2H88.8c-2.6,0-5.2-2.3-6.3-5c-0.4-1-0.6-2-0.6-3.1v-2.5
	c0-1.1,0.2-2.1,0.6-3.1c1.1-2.8,3.5-5,6.3-5l16.1-0.2h0.1h0.1c0,0,0,0,0.1,0.1v0.1v5.7v0.1c0,0,0,0.1-0.1,0.1c0,0,0,0-0.1,0h-0.1
	h-3.5h-0.1h-0.1c0,0,0,0-0.1-0.1v-0.1v-1.5c0-0.3-0.1-0.5-0.4-0.5H89.3c-1.3,0-2.5,1.1-3.2,2.6c-0.2,0.6-0.3,1.2-0.3,1.8v2.6
	c0,0.6,0.1,1.2,0.3,1.7c0.6,1.5,1.9,2.7,3.1,2.7h11.3c0.1,0,0.3-0.1,0.4-0.1c0.1-0.1,0.2-0.2,0.2-0.4v-1.6v-0.1c0,0,0-0.1,0.1-0.1
	c0,0,0,0,0.1,0h0.1h3.5h0.1h0.1c0,0,0,0,0.1,0.1v0.1V59v0.1c0,0,0,0.1-0.1,0.1c0,0,0,0-0.1,0h-0.1h-3.4H100.6z M125.9,48.5
	c0.3,0,0.6,0,0.9-0.2c0.3-0.1,0.5-0.3,0.8-0.5c0.2-0.2,0.4-0.5,0.5-0.7c0.1-0.3,0.2-0.6,0.2-0.9c0-0.3-0.1-0.6-0.2-0.9
	c-0.1-0.3-0.3-0.5-0.5-0.7c-0.2-0.2-0.5-0.4-0.8-0.5c-0.3-0.1-0.6-0.1-0.9-0.1h-0.3h-10.3c-0.1,0-0.1,0-0.2,0.1c0,0-0.1,0.1-0.1,0.2
	v4c0,0.1,0,0.1,0.1,0.2c0,0,0.1,0.1,0.2,0.1h10.3L125.9,48.5z M134.4,55.4c0.1,0,0.1,0,0.2,0.1c0.1,0,0.1,0.1,0.1,0.2v3.2
	c0,0.1,0,0.1-0.1,0.2c0,0-0.1,0.1-0.2,0.1h-10.7c-0.1,0-0.1,0-0.2-0.1c0,0-0.1-0.1-0.1-0.2v-3.2c0-0.1,0-0.1,0.1-0.2
	c0,0,0.1-0.1,0.2-0.1h2c0.3,0,0.4-0.2,0.2-0.4c-0.3-0.5-1.4-2-1.7-2.3c-0.1-0.1-0.2-0.2-0.4-0.3c-0.1-0.1-0.3-0.1-0.5-0.1h-4.8h-3.2
	c-0.1,0-0.1,0-0.2,0.1c0,0-0.1,0.1-0.1,0.2V55c0,0.3,0.2,0.4,0.5,0.4h3.2c0.1,0,0.1,0,0.2,0.1c0,0,0.1,0.1,0.1,0.2v3.2
	c0,0.1,0,0.1-0.1,0.2c0,0-0.1,0.1-0.2,0.1H108c-0.1,0-0.1,0-0.2-0.1c0,0-0.1-0.1-0.1-0.2v-3.2c0-0.1,0-0.1,0.1-0.2
	c0,0,0.1-0.1,0.2-0.1h2.7c0.3,0,0.5-0.1,0.5-0.4V44.5c0-0.3-0.2-0.4-0.5-0.4H108c-0.1,0-0.1,0-0.2-0.1c0,0-0.1-0.1-0.1-0.2v-3.4
	c0-0.1,0-0.1,0.1-0.2c0,0,0.1,0,0.2,0h18c3.4,0,6.2,2.7,6.2,6c0,1-0.3,2.1-0.8,3c-0.5,0.9-1.3,1.7-2.2,2.2c-0.5,0.2-0.6,0.5-0.4,0.8
	c0.1,0.2,1.5,2.3,1.8,2.8c0.1,0.1,0.1,0.2,0.3,0.3c0.1,0.1,0.2,0.1,0.4,0.1H134.4z M175.4,44.7L175.4,44.7l0.1,2.7
	c0,0.3,0.1,0.5,0.4,0.5h8.2h0.1h0.1c0,0,0,0,0.1,0.1v0.1v3.2c0,0.1,0,0.1-0.1,0.2c0,0-0.1,0.1-0.2,0.1H184h-8.2h-0.1
	c-0.1,0-0.1,0.1-0.2,0.2c0,0.1-0.1,0.2-0.1,0.3v3.1v0.1c0,0.1,0.1,0.2,0.2,0.2c0.1,0,0.2,0.1,0.3,0.1h3.1c0.1,0,0.1,0,0.2,0.1
	c0,0,0.1,0.1,0.1,0.2v3.2c0,0.1,0,0.1-0.1,0.2c-0.1,0.1-0.1-0.1-0.1-0.1h-10.9c-0.1,0-0.1,0-0.2-0.1c0,0-0.1-0.1-0.1-0.2v-3.2
	c0-0.1,0-0.1,0.1-0.2c0,0,0.1-0.1,0.2-0.1h2.8c0.2,0,0.5-0.1,0.5-0.3V44.5c0-0.3-0.2-0.4-0.5-0.4h-2.8c-0.1,0-0.1,0-0.2-0.1
	c0,0-0.1-0.1-0.1-0.2v-3.2c0-0.1,0-0.1,0.1-0.2c0,0,0.1-0.1,0.2-0.1h24.2c0.1,0,0.1,0,0.2,0.1c0,0,0.1,0.1,0.1,0.2v5.6
	c0,0.1,0,0.1-0.1,0.2c0,0-0.1,0.1-0.2,0.1h-3.3c-0.1,0-0.1,0-0.2-0.1c0,0-0.1-0.1-0.1-0.2v-1.6c0-0.1,0-0.2-0.1-0.3
	c-0.1-0.1-0.2-0.2-0.3-0.2h-12.6C175.5,44.1,175.4,44.3,175.4,44.7L175.4,44.7z"/>
</svg>
