<?xml version="1.0" encoding="utf-8"?>
<!-- Generator: Adobe Illustrator 26.3.1, SVG Export Plug-In . SVG Version: 6.00 Build 0)  -->
<svg version="1.1" id="katman_1" xmlns="http://www.w3.org/2000/svg" xmlns:xlink="http://www.w3.org/1999/xlink" x="0px" y="0px"
	 viewBox="0 0 137 20" style="enable-background:new 0 0 137 20;" xml:space="preserve">
<style type="text/css">
	.st0{fill:#1C0311;}
</style>
<path class="st0" d="M136.7,0.1c0.1,0,0.2,0.1,0.3,0.2V6c0,0.1,0,0.1-0.1,0.2c0,0-0.1,0.1-0.2,0.1h-3.3c0,0-0.1,0-0.1,0
	c0,0-0.1,0-0.1,0c0,0,0,0-0.1-0.1c0,0,0-0.1,0-0.1l0-1.6c0-0.1,0-0.2-0.1-0.3c-0.1-0.1-0.2-0.2-0.3-0.2h-5.4c-0.3,0-0.4,0.2-0.4,0.5
	v10.5c0,0.3,0.2,0.4,0.5,0.4l3.1,0c0.1,0,0.1,0,0.2,0.1c0,0,0.1,0.1,0.1,0.2v3.2c0,0.1,0,0.1-0.1,0.2s-0.1,0.1-0.2,0.1h-11.1
	c0,0-0.1,0-0.1,0c0,0-0.1,0-0.1,0c0,0,0,0-0.1-0.1c0,0,0-0.1,0-0.1v-3.2c0,0,0-0.1,0-0.1c0,0,0-0.1,0.1-0.1c0,0,0,0,0.1,0
	c0,0,0.1,0,0.1,0l3,0c0.1,0,0.2,0,0.3-0.1s0.2-0.1,0.2-0.3V4.3c0-0.3-0.2-0.4-0.5-0.4h-5.4c-0.1,0-0.2,0.1-0.3,0.2
	c-0.1,0.1-0.1,0.2-0.1,0.3l0,1.6c0,0,0,0.1,0,0.1c0,0,0,0.1-0.1,0.1c0,0,0,0-0.1,0c0,0-0.1,0-0.1,0h-3.3c-0.1,0-0.1,0-0.2-0.1
	c0,0-0.1-0.1-0.1-0.2V0.4c0-0.1,0-0.1,0.1-0.2s0.1-0.1,0.2-0.1H136.7z M75.8,8.2c0.4,0,0.6-0.1,0.6-0.5c-0.1-0.6-0.3-1.1-0.5-1.6
	c-0.3-0.7-0.8-1.2-1.4-1.6c-0.6-0.4-1.3-0.6-2-0.6h-5.6c-0.7,0-1.4,0.2-2,0.6s-1.1,1-1.4,1.6c-0.3,0.5-0.4,1-0.5,1.6
	c0,0.4,0.1,0.5,0.5,0.5L75.8,8.2z M84,15.3c0.1,0,0.2,0.1,0.2,0.2v3.2c0,0.1,0,0.1-0.1,0.2c0,0-0.1,0.1-0.2,0.1H73.1
	c0,0-0.1,0-0.1,0c0,0-0.1,0-0.1,0c0,0,0,0-0.1-0.1c0,0,0-0.1,0-0.1v-3.2c0,0,0-0.1,0-0.1c0,0,0-0.1,0.1-0.1c0,0,0,0,0.1,0
	c0,0,0.1,0,0.1,0l2.7,0c0.3,0,0.5-0.1,0.5-0.4v-2.4c0-0.3-0.1-0.5-0.4-0.5H63.4c-0.3,0-0.4,0.2-0.4,0.5v2.4c0,0.3,0.2,0.4,0.5,0.4
	l2.7,0c0.1,0,0.1,0,0.2,0.1c0,0,0.1,0.1,0.1,0.2v3.2c0,0.1,0,0.1-0.1,0.2c0,0-0.1,0.1-0.2,0.1H55.3c-0.1,0-0.1,0-0.2-0.1
	c0,0-0.1-0.1-0.1-0.2v-3.2c0-0.1,0-0.1,0.1-0.2c0,0,0.1-0.1,0.2-0.1l3.3,0c0.3,0,0.5-0.1,0.5-0.4V8.2c0-0.6,0.1-1.2,0.2-1.8
	C60,3.3,62.9,0.1,66,0.1h7.2c3.1,0,6,3.2,6.7,6.3c0.1,0.6,0.2,1.2,0.2,1.8v6.6c0,0.3,0.2,0.4,0.5,0.4L84,15.3z M18.7,19H6.9
	c-2.6,0-5.2-2.3-6.3-5C0.2,13,0,12,0,10.9V8.4c0-1.1,0.2-2.1,0.6-3.1c1.1-2.8,3.5-5,6.3-5L23,0.1c0,0,0.1,0,0.1,0c0,0,0.1,0,0.1,0
	c0,0,0,0,0.1,0.1c0,0,0,0.1,0,0.1V6c0,0,0,0.1,0,0.1c0,0,0,0.1-0.1,0.1c0,0,0,0-0.1,0c0,0-0.1,0-0.1,0h-3.5c0,0-0.1,0-0.1,0
	c0,0-0.1,0-0.1,0c0,0,0,0-0.1-0.1c0,0,0-0.1,0-0.1l0-1.5c0-0.3-0.1-0.5-0.4-0.5L7.4,4C6.1,4,4.9,5.1,4.2,6.6C4,7.2,3.9,7.8,3.9,8.4
	v2.6c0,0.6,0.1,1.2,0.3,1.7c0.6,1.5,1.9,2.7,3.1,2.7l11.3,0c0.1,0,0.3-0.1,0.4-0.1c0.1-0.1,0.2-0.2,0.2-0.4l0-1.6c0,0,0-0.1,0-0.1
	c0,0,0-0.1,0.1-0.1c0,0,0,0,0.1,0c0,0,0.1,0,0.1,0H23c0,0,0.1,0,0.1,0c0,0,0.1,0,0.1,0c0,0,0,0,0.1,0.1c0,0,0,0.1,0,0.1v5.5
	c0,0,0,0.1,0,0.1c0,0,0,0.1-0.1,0.1c0,0,0,0-0.1,0c0,0-0.1,0-0.1,0h-3.4L18.7,19z M44,8.3c0.3,0,0.6,0,0.9-0.2
	c0.3-0.1,0.5-0.3,0.8-0.5c0.2-0.2,0.4-0.5,0.5-0.7c0.1-0.3,0.2-0.6,0.2-0.9c0-0.3-0.1-0.6-0.2-0.9c-0.1-0.3-0.3-0.5-0.5-0.7
	c-0.2-0.2-0.5-0.4-0.8-0.5S44.3,3.8,44,3.8h-0.3l-10.3,0c-0.1,0-0.1,0-0.2,0.1c0,0-0.1,0.1-0.1,0.2v4c0,0.1,0,0.1,0.1,0.2
	c0,0,0.1,0.1,0.2,0.1l10.3,0L44,8.3z M52.5,15.2c0.1,0,0.1,0,0.2,0.1c0.1,0,0.1,0.1,0.1,0.2v3.2c0,0.1,0,0.1-0.1,0.2
	c0,0-0.1,0.1-0.2,0.1H41.8c-0.1,0-0.1,0-0.2-0.1c0,0-0.1-0.1-0.1-0.2v-3.2c0-0.1,0-0.1,0.1-0.2c0,0,0.1-0.1,0.2-0.1l2,0
	c0.3,0,0.4-0.2,0.2-0.4c-0.3-0.5-1.4-2-1.7-2.3c-0.1-0.1-0.2-0.2-0.4-0.3c-0.1-0.1-0.3-0.1-0.5-0.1h-4.8l-3.2,0
	c-0.1,0-0.1,0-0.2,0.1c0,0-0.1,0.1-0.1,0.2v2.4c0,0.3,0.2,0.4,0.5,0.4l3.2,0c0.1,0,0.1,0,0.2,0.1c0,0,0.1,0.1,0.1,0.2v3.2
	c0,0.1,0,0.1-0.1,0.2c0,0-0.1,0.1-0.2,0.1H26.1c-0.1,0-0.1,0-0.2-0.1c0,0-0.1-0.1-0.1-0.2v-3.2c0-0.1,0-0.1,0.1-0.2
	c0,0,0.1-0.1,0.2-0.1l2.7,0c0.3,0,0.5-0.1,0.5-0.4V4.3c0-0.3-0.2-0.4-0.5-0.4l-2.7,0c-0.1,0-0.1,0-0.2-0.1c0,0-0.1-0.1-0.1-0.2V0.2
	c0-0.1,0-0.1,0.1-0.2C25.9,0,26,0,26.1,0h18c3.4,0,6.2,2.7,6.2,6c0,1-0.3,2.1-0.8,3c-0.5,0.9-1.3,1.7-2.2,2.2
	c-0.5,0.2-0.6,0.5-0.4,0.8c0.1,0.2,1.5,2.3,1.8,2.8c0.1,0.1,0.1,0.2,0.3,0.3c0.1,0.1,0.2,0.1,0.4,0.1L52.5,15.2z M93.5,4.5L93.5,4.5
	l0.1,2.7c0,0.3,0.1,0.5,0.4,0.5l8.2,0c0,0,0.1,0,0.1,0c0,0,0.1,0,0.1,0c0,0,0,0,0.1,0.1c0,0,0,0.1,0,0.1v3.2c0,0.1,0,0.1-0.1,0.2
	c0,0-0.1,0.1-0.2,0.1c0,0-0.1,0-0.1,0h-8.2h-0.1c-0.1,0-0.1,0.1-0.2,0.2c0,0.1-0.1,0.2-0.1,0.3l0,3.1c0,0,0,0.1,0,0.1
	c0,0.1,0.1,0.2,0.2,0.2c0.1,0,0.2,0.1,0.3,0.1l3.1,0c0.1,0,0.1,0,0.2,0.1c0,0,0.1,0.1,0.1,0.2v3.2c0,0.1,0,0.1-0.1,0.2
	S97.2,19,97.2,19H86.3c-0.1,0-0.1,0-0.2-0.1c0,0-0.1-0.1-0.1-0.2v-3.2c0-0.1,0-0.1,0.1-0.2c0,0,0.1-0.1,0.2-0.1l2.8,0
	c0.2,0,0.5-0.1,0.5-0.3V4.3c0-0.3-0.2-0.4-0.5-0.4l-2.8,0c-0.1,0-0.1,0-0.2-0.1c0,0-0.1-0.1-0.1-0.2V0.4c0-0.1,0-0.1,0.1-0.2
	c0,0,0.1-0.1,0.2-0.1h24.2c0.1,0,0.1,0,0.2,0.1c0,0,0.1,0.1,0.1,0.2V6c0,0.1,0,0.1-0.1,0.2c0,0-0.1,0.1-0.2,0.1h-3.3
	c-0.1,0-0.1,0-0.2-0.1c0,0-0.1-0.1-0.1-0.2l0-1.6c0-0.1,0-0.2-0.1-0.3c-0.1-0.1-0.2-0.2-0.3-0.2H93.9c-0.3,0-0.4,0.2-0.4,0.5
	L93.5,4.5z"/>
</svg>
