<?xml version="1.0" encoding="utf-8"?>
<!-- Generator: Adobe Illustrator 26.3.1, SVG Export Plug-In . SVG Version: 6.00 Build 0)  -->
<svg version="1.1" id="katman_1" xmlns="http://www.w3.org/2000/svg" xmlns:xlink="http://www.w3.org/1999/xlink" x="0px" y="0px"
	 viewBox="0 0 300 100" style="enable-background:new 0 0 300 100;" xml:space="preserve">
<style type="text/css">
	.st0{fill-rule:evenodd;clip-rule:evenodd;fill:#28292D;}
	.st1{fill:#00BBF2;}
</style>
<path class="st0" d="M146.3,54.4c0.7-0.4,1.3-0.8,1.9-1.4l1.6,1.6c-0.4,0.4-0.7,0.7-1.2,1.1c-0.4,0.3-0.8,0.6-1.3,0.8
	c-0.5,0.2-1,0.4-1.5,0.5c-0.6,0.1-1.2,0.2-1.8,0.2c-1,0-2-0.2-2.9-0.6c-0.9-0.4-1.7-0.9-2.3-1.6c-0.7-0.7-1.2-1.5-1.5-2.3
	c-0.4-0.9-0.6-1.9-0.6-2.9v0c0-1,0.2-2,0.5-2.9c0.4-0.9,0.9-1.7,1.5-2.4c0.7-0.7,1.5-1.2,2.3-1.6c0.9-0.4,2-0.6,3-0.6
	c0.6,0,1.2,0.1,1.8,0.2c0.5,0.1,1,0.3,1.5,0.5c0.4,0.2,0.9,0.4,1.2,0.7c0.4,0.3,0.7,0.6,1.1,0.9l-1.6,1.9c-0.5-0.5-1.2-0.9-1.8-1.3
	c-0.7-0.3-1.4-0.5-2.2-0.5c-0.7,0-1.3,0.1-1.9,0.4c-0.6,0.3-1.1,0.6-1.5,1.1c-0.4,0.5-0.8,1-1,1.6c-0.2,0.6-0.4,1.3-0.3,2v0
	c0,0.7,0.1,1.3,0.3,2c0.2,0.6,0.6,1.2,1,1.6c0.4,0.5,0.9,0.8,1.5,1.1c0.6,0.3,1.2,0.4,1.9,0.4C144.8,55,145.6,54.8,146.3,54.4z
	 M96.7,54.4c0.7-0.4,1.3-0.8,1.9-1.4l1.6,1.6c-0.4,0.4-0.7,0.7-1.2,1.1c-0.4,0.3-0.8,0.6-1.3,0.8c-0.5,0.2-1,0.4-1.5,0.5
	c-0.6,0.1-1.2,0.2-1.8,0.2c-1,0-2-0.2-2.9-0.6c-0.9-0.4-1.7-0.9-2.3-1.6c-0.7-0.7-1.2-1.5-1.5-2.3c-0.4-0.9-0.6-1.9-0.6-2.9v0
	c0-1,0.2-2,0.5-2.9c0.4-0.9,0.9-1.7,1.5-2.4c0.7-0.7,1.5-1.2,2.3-1.6c0.9-0.4,2-0.6,3-0.6c0.6,0,1.2,0.1,1.8,0.2
	c0.5,0.1,1,0.3,1.5,0.5c0.4,0.2,0.9,0.4,1.2,0.7c0.4,0.3,0.7,0.6,1.1,0.9l-1.6,1.9c-0.5-0.5-1.2-0.9-1.8-1.3
	c-0.7-0.3-1.4-0.5-2.2-0.5c-0.7,0-1.3,0.1-1.9,0.4c-0.6,0.3-1.1,0.6-1.5,1.1c-0.4,0.5-0.8,1-1,1.6c-0.2,0.6-0.4,1.3-0.3,2v0
	c0,0.7,0.1,1.3,0.3,2c0.2,0.6,0.6,1.2,1,1.6c0.4,0.5,0.9,0.8,1.5,1.1c0.6,0.3,1.2,0.4,1.9,0.4C95.3,55,96,54.8,96.7,54.4z
	 M50.2,50.9v3.8h8.2V57H47.7V42.7h10.6V45h-8.1v3.7h7.2v2.3H50.2z M63.9,42.7v12.1h7.5V57h-10V42.7H63.9z M76.5,54.7v-3.8h7.2v-2.3
	h-7.2V45h8.1v-2.3H74V57h10.7v-2.3H76.5z M101.8,42.7V45h4.5v12h2.5V45h4.5v-2.3H101.8z M125.7,51c-0.4,0.3-0.9,0.5-1.4,0.6l3.9,5.4
	h-3l-3.5-5l-1.5-2.2h2c0.8,0,1.5-0.2,2.2-0.6c0.3-0.2,0.5-0.5,0.6-0.8c0.1-0.3,0.2-0.6,0.2-1v0c0-0.3,0-0.7-0.2-1
	c-0.1-0.3-0.3-0.6-0.6-0.8c-0.6-0.4-1.4-0.7-2.2-0.6h-3.7V57h-2.5V42.7h6.4c0.8,0,1.6,0.1,2.4,0.4c0.6,0.2,1.2,0.6,1.7,1.1
	c0.4,0.4,0.7,0.9,0.9,1.4c0.2,0.5,0.3,1.1,0.3,1.7v0c0,0.5-0.1,1.1-0.3,1.6c-0.2,0.5-0.4,0.9-0.7,1.3
	C126.5,50.4,126.1,50.8,125.7,51z M131,42.7V57h2.5V42.7H131z"/>
<path class="st0" d="M175.1,53.1c-0.6,0.5-1.2,1-1.9,1.4c-0.7,0.4-1.5,0.5-2.2,0.5c-0.7,0-1.3-0.1-1.9-0.4c-0.6-0.3-1.1-0.6-1.5-1.1
	c-0.4-0.5-0.8-1-1-1.6c-0.2-0.6-0.3-1.3-0.3-2v0c0-0.7,0.1-1.3,0.3-2c0.2-0.6,0.6-1.1,1-1.6c0.4-0.5,0.9-0.8,1.5-1.1
	c0.6-0.3,1.2-0.4,1.9-0.4c0.8,0,1.5,0.2,2.2,0.5c0.7,0.3,1.3,0.8,1.8,1.3l1.6-1.9c-0.3-0.3-0.7-0.6-1.1-0.9
	c-0.4-0.3-0.8-0.5-1.3-0.7c-0.5-0.2-1-0.4-1.5-0.5c-0.6-0.1-1.2-0.2-1.8-0.2c-1,0-2,0.2-3,0.6c-0.9,0.4-1.7,0.9-2.3,1.6
	c-0.7,0.7-1.2,1.5-1.5,2.4c-0.4,0.9-0.6,1.9-0.5,2.9v0c0,1,0.2,2,0.6,2.9c0.4,0.9,0.9,1.7,1.5,2.3c0.7,0.7,1.4,1.2,2.3,1.6
	c0.9,0.4,1.9,0.6,2.9,0.6c0.6,0,1.2-0.1,1.8-0.2c0.5-0.1,1-0.3,1.5-0.5c0.5-0.2,0.9-0.5,1.3-0.8c0.4-0.3,0.8-0.7,1.2-1.1L175.1,53.1
	z M186.7,42.6h-2.3L178.1,57h2.6l1.5-3.5l0.9-2.2l2.5-5.7l2.5,5.7l0.9,2.2l1.5,3.5h2.7L186.7,42.6z M205.1,44
	c0.5,0.4,0.8,0.9,1.1,1.5c0.3,0.6,0.4,1.3,0.4,2v0c0,0.7-0.1,1.5-0.5,2.1c-0.3,0.6-0.7,1.1-1.2,1.5c-0.5,0.4-1.2,0.7-1.8,0.9
	c-0.7,0.2-1.5,0.3-2.2,0.3H198V57h-2.5V42.7h5.6c0.8,0,1.5,0.1,2.3,0.3C204,43.2,204.6,43.5,205.1,44z M203.8,48.6
	c0.1-0.3,0.2-0.7,0.2-1l0,0c0-0.4,0-0.7-0.2-1.1c-0.1-0.3-0.4-0.6-0.7-0.9c-0.7-0.5-1.5-0.7-2.3-0.6H198v5.2h2.9
	c0.8,0,1.6-0.2,2.3-0.7C203.4,49.2,203.7,48.9,203.8,48.6z M209.3,42.7V57h2.5V42.7H209.3z M214.6,45v-2.3h11.6V45h-4.5v12h-2.5V45
	H214.6z M234.3,42.6H232L225.7,57h2.6l1.5-3.5l0.9-2.2l2.5-5.7l2.5,5.7l0.9,2.2l1.5,3.5h2.7L234.3,42.6z M245.6,42.7v12.1h7.5V57
	h-10V42.7H245.6z"/>
<path class="st1" d="M158.9,49h-2.6v-6.6l-2.6,8.2h2.6v6.6L158.9,49z"/>
</svg>
