<?xml version="1.0" encoding="utf-8"?>
<!-- Generator: Adobe Illustrator 26.0.3, SVG Export Plug-In . SVG Version: 6.00 Build 0)  -->
<svg version="1.0" id="katman_1" xmlns="http://www.w3.org/2000/svg" xmlns:xlink="http://www.w3.org/1999/xlink" x="0px" y="0px"
	 viewBox="0 0 800 600" style="enable-background:new 0 0 800 600;" xml:space="preserve">
<style type="text/css">
	.st0{fill:#5E93C6;}
</style>
<g>
	<path d="M400,298.6h45.8v4.3c-10.8,1.6-14.6,3.3-14.6,18.2v47.7c-15.6,9.9-33.7,15.1-52.1,14.9c-51.6,0-84.7-34.2-84.7-82.6
		c0-49.6,37.8-85.2,90.4-85.2c21.9,0,38.9,4.5,53.6,11.8V254h-4.5c-7.8-21.2-24.1-31.2-49.8-31.2c-45.8,0-77.9,32.3-77.9,77.1
		c0,46.5,31.6,76.4,75.3,76.4c14.2,0,27.4-2.8,39.2-8.8v-46.4c0-15.1-3.3-16.8-20.5-18.4L400,298.6z M459.2,367.5v-27.8h4.5
		c9.4,27.6,26.9,36.8,46.5,36.8c19.1,0,39.4-12,39.4-34.2c0-14.4-8.5-22.7-27.8-31.6l-24.1-11.1c-20.3-9.4-32.8-22.4-32.8-42
		c0-22.4,18.6-41.8,49.6-41.8c16.3,0,33.3,5.2,43.6,11.6v26.2h-4.5c-7.5-23.6-23.6-30.6-40.3-30.6c-22.7,0-38,13.7-38,33.5
		c0,16.8,10.6,25.7,26.9,33l24.3,11.1c21.7,9.9,33.5,21.2,33.5,39.9c0,25-22.2,43.2-50.8,43.2C491.3,383.6,473.8,378,459.2,367.5
		L459.2,367.5z M711.2,381v0.7h-14.4l-80.4-83.8h-12.7v58c0,19.3,3.5,20.5,14.9,21.5v4.3h-40.4v-4.3c11.8-0.9,14.9-2.1,14.9-21.5
		V244.8c0-17.7-2.6-21.5-14.9-22.9v-4.2h50.9c35.2,0,57.6,15.1,57.6,39.4c0,23.8-21.5,40.1-55.4,41.3L711.2,381z M603.6,290.8H627
		c30.9,0,48.1-12.3,48.1-33.5c0-20.5-17-32.5-47.9-32.5h-23.6L603.6,290.8L603.6,290.8z"/>
	<path class="st0" d="M179.5,271.4v-59.9h-6.7v59.9C175,271.1,177.2,271.1,179.5,271.4z M131.3,223.7l-5.7,3.6l32.4,50.4
		c1.7-1.4,3.6-2.7,5.7-3.6C163.7,274.1,131.3,223.7,131.3,223.7z M97.4,259.9l-2.8,6.1l54.5,24.9c0.7-2.1,1.6-4.2,2.8-6.1
		L97.4,259.9L97.4,259.9z M88.4,308.8l1,6.7l59.3-8.5c-0.6-2.2-0.9-4.4-1-6.7L88.4,308.8z M152.6,315.5l-45.3,39.2l4.4,5.1
		l45.3-39.2C155.4,319.1,153.9,317.3,152.6,315.5L152.6,315.5z M148.1,383.2l6.5,1.9l16.9-57.5c-2.2-0.4-4.4-1-6.5-1.9L148.1,383.2
		L148.1,383.2z M197.7,385.1l6.5-1.9l-16.8-57.5c-2.1,0.9-4.2,1.5-6.5,1.9L197.7,385.1L197.7,385.1z M195.2,320.6l45.3,39.2l4.4-5.1
		l-45.3-39.2C198.3,317.4,196.9,319.1,195.2,320.6z M203.5,306.9l59.3,8.5l1-6.7l-59.3-8.5C204.4,302.5,204.1,304.8,203.5,306.9z
		 M257.7,266.1l-2.8-6.1l-54.5,24.9c1.2,1.9,2.1,4,2.8,6.1L257.7,266.1z M226.6,227.3l-5.7-3.6l-32.4,50.4c2,1,3.9,2.2,5.7,3.6
		L226.6,227.3L226.6,227.3z M148.1,216l6.5-1.9l11.1,37.8l-6.5,1.9L148.1,216z M186.6,251.9l11.1-37.8l6.5,1.9l-11.1,37.8
		L186.6,251.9z M107.3,244.4l4.4-5.1l29.8,25.8l-4.4,5.1L107.3,244.4z M88.4,290.4l1-6.7l39,5.6l-1,6.7L88.4,290.4z M95.1,333.1
		l35.9-16.6l2.8,6.1l-35.9,16.6L95.1,333.1z M125.7,371.9l21.3-33.2l5.7,3.6l-21.3,33.2L125.7,371.9z M172.8,348.3h6.7v39.4h-6.7
		V348.3z M199.6,342.3l5.7-3.7l21.3,33.2l-5.7,3.7L199.6,342.3z M219,322.9l2.8-6.1l35.9,16.4l-2.8,6.1L219,322.9z M223.8,289.3
		l39-5.6l1,6.7l-39,5.6L223.8,289.3z M210.7,265.2l29.8-25.8l4.4,5.1l-29.8,25.8L210.7,265.2z"/>
</g>
</svg>
