<?xml version="1.0" encoding="utf-8"?>
<!-- Generator: Adobe Illustrator 26.3.1, SVG Export Plug-In . SVG Version: 6.00 Build 0)  -->
<svg version="1.1" id="katman_1" xmlns="http://www.w3.org/2000/svg" xmlns:xlink="http://www.w3.org/1999/xlink" x="0px" y="0px"
	 viewBox="0 0 300 100" style="enable-background:new 0 0 300 100;" xml:space="preserve">
<style type="text/css">
	.st0{fill:#5E93C6;}
</style>
<g>
	<path d="M150,50.1h10.7v1c-2.5,0.4-3.4,0.8-3.4,4.3v11.2c-3.7,2.3-7.9,3.5-12.2,3.5c-12.1,0-19.8-8-19.8-19.3
		c0-11.6,8.9-19.9,21.2-19.9c5.1,0,9.1,1.1,12.6,2.8v6.2h-1.1c-1.8-5-5.6-7.3-11.7-7.3c-10.7,0-18.2,7.6-18.2,18.1
		c0,10.9,7.4,17.9,17.6,17.9c3.3,0,6.4-0.7,9.2-2.1V55.4c0-3.5-0.8-3.9-4.8-4.3L150,50.1z M163.9,66.3v-6.5h1.1
		c2.2,6.5,6.3,8.6,10.9,8.6c4.5,0,9.2-2.8,9.2-8c0-3.4-2-5.3-6.5-7.4l-5.6-2.6c-4.8-2.2-7.7-5.2-7.7-9.8c0-5.2,4.4-9.8,11.6-9.8
		c3.8,0,7.8,1.2,10.2,2.7v6.1H186c-1.8-5.5-5.5-7.2-9.4-7.2c-5.3,0-8.9,3.2-8.9,7.8c0,3.9,2.5,6,6.3,7.7l5.7,2.6
		c5.1,2.3,7.8,5,7.8,9.3c0,5.9-5.2,10.1-11.9,10.1C171.4,70,167.3,68.7,163.9,66.3L163.9,66.3z M222.9,69.4v0.2h-3.4L200.7,50h-3
		v13.6c0,4.5,0.8,4.8,3.5,5v1h-9.5v-1c2.8-0.2,3.5-0.5,3.5-5v-26c0-4.1-0.6-5-3.5-5.4v-1h11.9c8.2,0,13.5,3.5,13.5,9.2
		c0,5.6-5,9.4-13,9.7L222.9,69.4z M197.7,48.3h5.5c7.2,0,11.3-2.9,11.3-7.8c0-4.8-4-7.6-11.2-7.6h-5.5V48.3L197.7,48.3z"/>
	<path class="st0" d="M98.4,43.8v-14h-1.6v14C97.3,43.7,97.8,43.7,98.4,43.8z M87.1,32.6l-1.3,0.8l7.6,11.8c0.4-0.3,0.8-0.6,1.3-0.8
		L87.1,32.6z M79.1,41.1l-0.7,1.4l12.8,5.8c0.2-0.5,0.4-1,0.7-1.4L79.1,41.1L79.1,41.1z M77,52.5l0.2,1.6l13.9-2
		c-0.1-0.5-0.2-1-0.2-1.6L77,52.5z M92.1,54.1l-10.6,9.2l1,1.2l10.6-9.2C92.7,54.9,92.4,54.5,92.1,54.1L92.1,54.1z M91,69.9l1.5,0.4
		l4-13.5c-0.5-0.1-1-0.2-1.5-0.4L91,69.9L91,69.9z M102.6,70.4l1.5-0.4l-3.9-13.5c-0.5,0.2-1,0.4-1.5,0.4L102.6,70.4L102.6,70.4z
		 M102,55.3l10.6,9.2l1-1.2l-10.6-9.2C102.8,54.5,102.4,54.9,102,55.3z M104,52.1l13.9,2l0.2-1.6l-13.9-2
		C104.2,51.1,104.1,51.6,104,52.1z M116.7,42.5l-0.7-1.4l-12.8,5.8c0.3,0.4,0.5,0.9,0.7,1.4L116.7,42.5z M109.4,33.4l-1.3-0.8
		l-7.6,11.8c0.5,0.2,0.9,0.5,1.3,0.8L109.4,33.4L109.4,33.4z M91,30.8l1.5-0.4l2.6,8.9l-1.5,0.4L91,30.8z M100,39.2l2.6-8.9l1.5,0.4
		l-2.6,8.9L100,39.2z M81.5,37.4l1-1.2l7,6l-1,1.2L81.5,37.4z M77,48.2l0.2-1.6l9.1,1.3l-0.2,1.6L77,48.2z M78.6,58.2l8.4-3.9
		l0.7,1.4l-8.4,3.9L78.6,58.2z M85.8,67.3l5-7.8l1.3,0.8l-5,7.8L85.8,67.3z M96.8,61.8h1.6V71h-1.6V61.8z M103.1,60.4l1.3-0.9l5,7.8
		l-1.3,0.9L103.1,60.4z M107.6,55.8l0.7-1.4l8.4,3.8l-0.7,1.4L107.6,55.8z M108.7,48l9.1-1.3l0.2,1.6l-9.1,1.3L108.7,48z
		 M105.7,42.3l7-6l1,1.2l-7,6L105.7,42.3z"/>
</g>
</svg>
