<?xml version="1.0" encoding="utf-8"?>
<!-- Generator: Adobe Illustrator 26.3.1, SVG Export Plug-In . SVG Version: 6.00 Build 0)  -->
<svg version="1.1" id="katman_1" xmlns="http://www.w3.org/2000/svg" xmlns:xlink="http://www.w3.org/1999/xlink" x="0px" y="0px"
	 viewBox="0 0 300 100" style="enable-background:new 0 0 300 100;" xml:space="preserve">
<g id="Group_154" transform="translate(-27.126 -4.231)">
	<path id="Path_548" d="M245.3,44.2l13.2,13.8V45.5h2.6v19.2l-13-13.6l-0.2,0.1v12.5h-2.6L245.3,44.2z"/>
	<path id="Path_549" d="M170.1,45.3c2,0.1,3.8,0.1,5.6,0.3c2.3,0.2,4.2,2,4.5,4.3c0.4,2.4-1,4.8-3.3,5.8c-0.2,0.1-0.3,0.2-0.6,0.3
		l5.6,7.7c-1.2,0-2.1,0-3.1,0c-0.2,0-0.5-0.4-0.7-0.6c-1.5-2.1-2.9-4.1-4.4-6.2c-0.2-0.2-0.4-0.5-0.6-0.7l-0.2,0.1v7.4h-2.8
		L170.1,45.3z M172.9,47.9v5.8c1.6,0,3.3,0.2,4.3-1.3c0.7-0.9,0.7-2.2,0-3.1C176.2,47.8,174.6,48,172.9,47.9L172.9,47.9z"/>
	<path id="Path_550" d="M93.9,58.5l2.6-0.6c0.1,0.3,0.1,0.6,0.2,0.8c0.2,1.5,1.5,2.6,3,2.6c1.4,0,2.6-0.9,2.9-2.2
		c0.4-1.4-0.2-2.9-1.6-3.5c-1-0.5-2-0.9-3-1.4c-1.4-0.5-2.6-1.6-3.2-3c-0.8-2.5,0.6-5.2,3.1-6c0.3-0.1,0.6-0.2,0.9-0.2
		c2.4-0.4,4.9,0.8,6,3l-2.1,1.3c-0.6-1.2-1.8-1.9-3.1-1.7c-1.1,0.1-2,0.8-2.3,1.8c-0.2,1,0.3,1.8,1.5,2.3c0.9,0.4,1.9,0.7,2.8,1.2
		c1.7,0.8,3.2,1.8,3.7,3.7c0.8,3-0.9,6.1-3.9,7c-0.2,0.1-0.4,0.1-0.5,0.1c-3.1,0.7-6.2-1.2-6.9-4.3C94,59.1,93.9,58.8,93.9,58.5z"/>
	<path id="Path_551" d="M119.5,45.3c2.1,0.1,4,0.1,5.9,0.3c2.1,0.3,3.8,2,4.1,4.1c0.4,2.1-0.4,4.2-2.2,5.4c-1.2,0.8-2.5,1.1-3.9,1.1
		c-0.4,0-0.7,0-1.2,0v7.3h-2.7V45.3z M122.1,53.7c0.8,0,1.4,0.1,2,0c1.8-0.2,2.8-1.2,2.8-2.8s-0.8-2.5-2.6-2.9
		c-0.6-0.1-1.1-0.1-1.7-0.1c-0.2,0-0.6,0.3-0.6,0.5C122.1,50.1,122.1,51.8,122.1,53.7L122.1,53.7z"/>
	<path id="Path_552" d="M231.3,63.5c-0.2,0.1-0.2,0.1-0.3,0.1c-2.7,0.1-2.6,0.1-3.7-2.3c-1.5-3.4-2.9-6.8-4.4-10.2
		c-0.1-0.1-0.1-0.3-0.3-0.6c-0.2,0.4-0.4,0.7-0.5,1c-1.7,3.8-3.5,7.5-5.2,11.3c-0.3,0.7-0.7,1-1.5,0.9c-0.6,0-1.3,0-1.9,0l9-19.4
		C225.6,50.8,228.4,57.1,231.3,63.5z"/>
	<path id="Path_553" d="M147.6,50.4c-0.2,0.5-0.4,0.8-0.5,1.1c-1.7,3.7-3.4,7.5-5.1,11.2c-0.2,0.6-0.8,1-1.5,0.9
		c-0.5-0.1-1.1,0-1.9,0l9-19.4l8.6,19.4c-0.8,0-1.7,0-2.5,0c-0.3,0-0.6-0.5-0.8-0.8c-1.7-3.8-3.3-7.7-5-11.6
		C147.9,51,147.8,50.8,147.6,50.4z"/>
	<path id="Path_554" d="M190.9,45.4h14.6c-0.6,0.9-1.1,1.6-1.7,2.3c-0.1,0.2-0.5,0.2-0.8,0.2c-1.1,0-2.2,0-3.5,0v15.7h-2.7
		c0-0.4,0-0.8-0.1-1.1c0-4.5,0-9,0-13.5c0-0.8-0.3-1.1-1.1-1c-0.4,0-0.9,0-1.3,0C192.4,47.9,191.8,47.4,190.9,45.4z"/>
</g>
</svg>
