<?xml version="1.0" encoding="utf-8"?>
<!-- Generator: Adobe Illustrator 26.3.1, SVG Export Plug-In . SVG Version: 6.00 Build 0)  -->
<svg version="1.1" id="katman_1" xmlns="http://www.w3.org/2000/svg" xmlns:xlink="http://www.w3.org/1999/xlink" x="0px" y="0px"
	 viewBox="0 0 300 100" style="enable-background:new 0 0 300 100;" xml:space="preserve">
<style type="text/css">
	.st0{fill:#1D1D1B;}
	.st1{fill:#A3EC26;}
</style>
<path class="st0" d="M103.5,43c-0.1-0.3,0.1-0.5,0.4-0.5h1.8c0.2,0,0.3,0.1,0.4,0.3l2.1,8h0.1l3.2-8.3c0-0.1,0.1-0.2,0.3-0.2h0.4
	c0.2,0,0.3,0.1,0.3,0.2l3.2,8.3h0.1l2.1-8c0-0.1,0.2-0.3,0.4-0.3h1.8c0.3,0,0.4,0.2,0.4,0.5l-3.8,13.5c0,0.2-0.2,0.3-0.4,0.3h-0.3
	c-0.2,0-0.3-0.1-0.3-0.2l-3.5-9.1h-0.1l-3.5,9.1c-0.1,0.1-0.1,0.2-0.3,0.2h-0.3c-0.2,0-0.3-0.1-0.4-0.3L103.5,43z"/>
<path class="st0" d="M124.3,42.9c0-0.2,0.2-0.4,0.4-0.4h1.9c0.2,0,0.4,0.2,0.4,0.4v13.3c0,0.2-0.2,0.4-0.4,0.4h-1.9
	c-0.2,0-0.4-0.2-0.4-0.4V42.9z"/>
<path class="st0" d="M132.3,42.7c0-0.2,0.2-0.4,0.4-0.4h0.5l8.3,8.9h0v-8.3c0-0.2,0.2-0.4,0.4-0.4h1.8c0.2,0,0.4,0.2,0.4,0.4v13.5
	c0,0.2-0.2,0.4-0.4,0.4h-0.5l-8.4-9.2h0v8.6c0,0.2-0.2,0.4-0.4,0.4h-1.8c-0.2,0-0.4-0.2-0.4-0.4L132.3,42.7L132.3,42.7z"/>
<path class="st0" d="M151.3,44.9h-3.1c-0.2,0-0.4-0.2-0.4-0.4v-1.6c0-0.2,0.2-0.4,0.4-0.4h8.8c0.2,0,0.4,0.2,0.4,0.4v1.6
	c0,0.2-0.2,0.4-0.4,0.4h-3.1v11.3c0,0.2-0.2,0.4-0.4,0.4h-1.9c-0.2,0-0.4-0.2-0.4-0.4L151.3,44.9L151.3,44.9z"/>
<path class="st0" d="M161.1,42.9c0-0.2,0.2-0.4,0.4-0.4h8.2c0.2,0,0.4,0.2,0.4,0.4v1.6c0,0.2-0.2,0.4-0.4,0.4h-5.9v3.3h5
	c0.2,0,0.4,0.2,0.4,0.4v1.7c0,0.2-0.2,0.4-0.4,0.4h-5v3.5h5.9c0.2,0,0.4,0.2,0.4,0.4v1.6c0,0.2-0.2,0.4-0.4,0.4h-8.2
	c-0.2,0-0.4-0.2-0.4-0.4V42.9z"/>
<path class="st0" d="M174.7,42.9c0-0.2,0.2-0.4,0.4-0.4h5.7c2.4,0,4.4,1.9,4.4,4.3c0,1.8-1.2,3.4-3,4l2.7,5.1c0.1,0.2,0,0.6-0.3,0.6
	h-2.1c-0.2,0-0.3-0.1-0.3-0.2l-2.7-5.3h-2.2v5.1c0,0.2-0.2,0.4-0.4,0.4h-1.9c-0.2,0-0.4-0.2-0.4-0.4V42.9L174.7,42.9z M180.6,48.9
	c1.1,0,2-0.9,2-2.1c0-1.1-0.9-1.9-2-1.9h-3.3v4H180.6L180.6,48.9z"/>
<path class="st0" d="M191.2,42.6c0-0.2,0.1-0.3,0.4-0.3h0.3c0.2,0,0.3,0.1,0.3,0.2l4.4,9.5c0,0,0,0,0.1,0l4.4-9.5
	c0.1-0.1,0.2-0.2,0.3-0.2h0.3c0.2,0,0.3,0.1,0.4,0.3l2.4,13.5c0.1,0.3-0.1,0.5-0.4,0.5h-1.8c-0.2,0-0.3-0.2-0.4-0.3l-1.2-7.6
	c0,0-0.1,0-0.1,0l-3.5,7.9c0,0.1-0.2,0.2-0.3,0.2h-0.3c-0.2,0-0.3-0.1-0.3-0.2l-3.5-7.9c0,0,0,0-0.1,0l-1.2,7.6
	c0,0.1-0.2,0.3-0.4,0.3h-1.8c-0.2,0-0.4-0.2-0.4-0.5L191.2,42.6z"/>
<path class="st0" d="M208.6,42.9c0-0.2,0.2-0.4,0.4-0.4h1.9c0.2,0,0.4,0.2,0.4,0.4v8.2c0,1.7,1.2,3,2.9,3s2.9-1.3,2.9-3v-8.2
	c0-0.2,0.2-0.4,0.4-0.4h1.9c0.2,0,0.4,0.2,0.4,0.4v8.3c0,3-2.4,5.5-5.6,5.5c-3.1,0-5.6-2.5-5.6-5.5L208.6,42.9L208.6,42.9z"/>
<path class="st0" d="M226.9,44.9h-3.1c-0.2,0-0.4-0.2-0.4-0.4v-1.6c0-0.2,0.2-0.4,0.4-0.4h8.8c0.2,0,0.4,0.2,0.4,0.4v1.6
	c0,0.2-0.2,0.4-0.4,0.4h-3.1v11.3c0,0.2-0.2,0.4-0.4,0.4h-1.9c-0.2,0-0.4-0.2-0.4-0.4L226.9,44.9L226.9,44.9z"/>
<path class="st0" d="M236.7,42.9c0-0.2,0.2-0.4,0.4-0.4h8.2c0.2,0,0.4,0.2,0.4,0.4v1.6c0,0.2-0.2,0.4-0.4,0.4h-5.9v3.3h5
	c0.2,0,0.4,0.2,0.4,0.4v1.7c0,0.2-0.2,0.4-0.4,0.4h-5v3.5h5.9c0.2,0,0.4,0.2,0.4,0.4v1.6c0,0.2-0.2,0.4-0.4,0.4h-8.2
	c-0.2,0-0.4-0.2-0.4-0.4V42.9z"/>
<path class="st1" d="M54,54.2C54,54.3,54,54.3,54,54.2c0,0.1,0,0.1,0,0.2v0c0,0,0,0,0,0.1c0,0,0,0.1,0,0.1c0,0,0,0.1,0,0.1
	c0,0,0,0.1,0,0.1c0,0,0,0.1,0,0.1c0,0,0,0.1,0,0.1c0,0,0,0.1,0.1,0.1c0,0,0,0.1,0.1,0.1c0,0,0,0,0.1,0.1c0,0,0,0,0.1,0.1
	c0,0,0.1,0,0.1,0.1c0,0,0,0,0.1,0L74,65h0c0,0,0,0,0,0h0c0,0,0,0,0.1,0c0,0,0,0,0.1,0h0h0c0,0,0,0,0.1,0c0,0,0,0,0.1,0
	c0,0,0,0,0.1,0c0,0,0,0,0.1,0s0,0,0.1,0h0h0c0,0,0,0,0.1,0c0,0,0,0,0.1,0h0c0,0,0,0,0,0h0l19.6-9.8c0,0,0,0,0.1,0c0,0,0.1,0,0.1-0.1
	c0,0,0,0,0.1-0.1c0,0,0,0,0.1-0.1c0,0,0,0,0.1-0.1c0,0,0-0.1,0.1-0.1c0,0,0-0.1,0-0.1c0,0,0-0.1,0-0.1c0,0,0-0.1,0-0.1
	c0,0,0-0.1,0-0.1c0,0,0-0.1,0-0.1c0,0,0,0,0-0.1v0c0,0,0-0.1,0-0.1c0,0,0-0.1,0-0.1c0,0,0-0.1,0-0.1c0,0,0-0.1,0-0.1v0L85,34.5
	c0,0,0,0,0,0c0-0.1-0.1-0.1-0.1-0.1l0,0c-0.1-0.1-0.1-0.1-0.1-0.1c0,0,0,0-0.1,0c-0.1,0-0.1-0.1-0.1-0.1c0,0,0,0-0.1,0
	c-0.1,0-0.1,0-0.2,0l0,0h0c-0.1,0-0.1,0-0.1,0c0,0,0,0-0.1,0c-0.1,0-0.1,0-0.1,0.1h0c0,0,0,0-0.1,0c0,0-0.1,0-0.1,0.1s0,0-0.1,0.1
	c0,0,0,0-0.1,0.1c0,0,0,0-0.1,0.1c0,0,0,0.1-0.1,0.1c0,0,0,0.1,0,0.1c0,0,0,0.1,0,0.1s0,0.1,0,0.1s0,0.1,0,0.1c0,0,0,0.1,0,0.1
	c0,0,0,0,0,0.1v17.6L75,44.1c0,0-0.1-0.1-0.1-0.1c0,0,0,0-0.1,0c0,0-0.1,0-0.1-0.1c0,0-0.1,0-0.1,0s-0.1,0-0.1,0c-0.1,0-0.1,0-0.2,0
	s-0.1,0-0.2,0c0,0-0.1,0-0.1,0s-0.1,0-0.1,0s-0.1,0-0.1,0.1c0,0,0,0-0.1,0c-0.1,0-0.1,0.1-0.1,0.1l-8.4,8.4V34.9c0,0,0,0,0-0.1
	s0-0.1,0-0.1s0-0.1,0-0.1c0,0,0-0.1,0-0.1c0,0,0-0.1,0-0.1c0,0,0-0.1,0-0.1c0,0,0-0.1-0.1-0.1c0,0,0-0.1-0.1-0.1c0,0,0,0-0.1-0.1
	c0,0,0,0-0.1-0.1c0,0-0.1,0-0.1-0.1c0,0,0,0-0.1,0h0c0,0-0.1,0-0.1-0.1c0,0,0,0-0.1,0c-0.1,0-0.1,0-0.1,0h0l0,0c-0.1,0-0.1,0-0.2,0
	c0,0,0,0-0.1,0c-0.1,0-0.1,0-0.1,0.1c0,0,0,0-0.1,0c-0.1,0-0.1,0.1-0.1,0.1l0,0c0,0.1-0.1,0.1-0.1,0.1c0,0,0,0,0,0L54.1,54v0
	C54.1,54.1,54,54.1,54,54.2C54,54.2,54,54.2,54,54.2z M64.2,55.2l6,6l-12-6H64.2z M84.5,55.2h6l-12,6L84.5,55.2z M85,53.6V38.3
	l7.7,15.3H85z M75.2,62.2V46.6l7.8,7.8L75.2,62.2z M73.5,62.2l-7.8-7.8l7.8-7.8V62.2L73.5,62.2z M56.1,53.6l7.7-15.3v15.3H56.1z"/>
</svg>
