<?xml version="1.0" encoding="utf-8"?>
<!-- Generator: Adobe Illustrator 26.0.3, SVG Export Plug-In . SVG Version: 6.00 Build 0)  -->
<svg version="1.0" id="katman_1" xmlns="http://www.w3.org/2000/svg" xmlns:xlink="http://www.w3.org/1999/xlink" x="0px" y="0px"
	 viewBox="0 0 800 600" style="enable-background:new 0 0 800 600;" xml:space="preserve">
<style type="text/css">
	.st0{fill:#1D1D1B;}
	.st1{fill:#A3EC26;}
</style>
<path class="st0" d="M229.5,276c-0.3-1,0.3-1.7,1.3-1.7h6.6c0.6,0,1.2,0.5,1.3,1l7.5,28.9h0.3l11.5-29.8c0.1-0.4,0.5-0.8,1.2-0.8
	h1.3c0.7,0,1.1,0.4,1.2,0.8l11.6,29.8h0.3l7.4-28.9c0.1-0.5,0.7-1,1.3-1h6.6c1,0,1.6,0.7,1.3,1.7l-13.7,48.6c-0.1,0.6-0.7,1-1.3,1
	h-1.2c-0.7,0-1.1-0.4-1.2-0.8L260,292.1h-0.4l-12.8,32.8c-0.2,0.4-0.5,0.8-1.2,0.8h-1.2c-0.6,0-1.2-0.4-1.3-1L229.5,276z"/>
<path class="st0" d="M304.6,275.7c0-0.7,0.7-1.4,1.4-1.4h6.7c0.7,0,1.4,0.7,1.4,1.4v47.9c0,0.7-0.7,1.4-1.4,1.4H306
	c-0.7,0-1.4-0.7-1.4-1.4V275.7z"/>
<path class="st0" d="M333.4,274.9c0-0.7,0.7-1.3,1.4-1.3h1.8l30.1,32h0.1v-29.9c0-0.7,0.6-1.4,1.4-1.4h6.6c0.7,0,1.4,0.7,1.4,1.4
	v48.7c0,0.7-0.7,1.3-1.4,1.3H373l-30.2-33.2h-0.1v31.1c0,0.7-0.6,1.4-1.4,1.4h-6.6c-0.7,0-1.4-0.7-1.4-1.4L333.4,274.9L333.4,274.9z
	"/>
<path class="st0" d="M402.1,283H391c-0.8,0-1.4-0.7-1.4-1.4v-5.9c0-0.7,0.6-1.4,1.4-1.4h31.6c0.8,0,1.4,0.7,1.4,1.4v5.9
	c0,0.7-0.6,1.4-1.4,1.4h-11.1v40.6c0,0.7-0.7,1.4-1.4,1.4h-6.7c-0.7,0-1.4-0.7-1.4-1.4V283L402.1,283z"/>
<path class="st0" d="M437.5,275.7c0-0.7,0.6-1.4,1.4-1.4h29.4c0.8,0,1.4,0.7,1.4,1.4v5.9c0,0.7-0.6,1.4-1.4,1.4h-21.4v11.9h17.9
	c0.7,0,1.4,0.7,1.4,1.4v6c0,0.8-0.7,1.4-1.4,1.4h-17.9v12.7h21.4c0.8,0,1.4,0.7,1.4,1.4v5.9c0,0.7-0.6,1.4-1.4,1.4h-29.4
	c-0.8,0-1.4-0.7-1.4-1.4V275.7z"/>
<path class="st0" d="M486.6,275.7c0-0.7,0.6-1.4,1.4-1.4h20.7c8.7,0,15.8,6.9,15.8,15.5c0,6.6-4.4,12.1-10.7,14.6l9.9,18.4
	c0.5,0.9,0,2.1-1.2,2.1h-7.6c-0.7,0-1-0.4-1.2-0.7l-9.6-19.2h-8v18.4c0,0.7-0.7,1.4-1.4,1.4H488c-0.8,0-1.4-0.7-1.4-1.4L486.6,275.7
	L486.6,275.7z M507.8,297.3c3.8,0,7.2-3.3,7.2-7.4c0-3.8-3.3-7-7.2-7H496v14.4H507.8L507.8,297.3z"/>
<path class="st0" d="M545.9,274.6c0.1-0.6,0.5-1.1,1.3-1.1h1.2c0.6,0,1,0.3,1.2,0.7l15.9,34.1c0.1,0,0.1,0,0.2,0l15.9-34.1
	c0.2-0.4,0.6-0.7,1.2-0.7h1.2c0.8,0,1.2,0.5,1.3,1.1l8.5,48.6c0.2,1-0.4,1.7-1.3,1.7H586c-0.7,0-1.2-0.6-1.4-1.1l-4.3-27.4
	c-0.1,0-0.2,0-0.2,0l-12.7,28.4c-0.1,0.4-0.6,0.8-1.2,0.8H565c-0.7,0-1-0.4-1.2-0.8l-12.8-28.4c0,0-0.1,0-0.2,0l-4.2,27.4
	c-0.1,0.5-0.7,1.1-1.3,1.1h-6.5c-0.9,0-1.5-0.7-1.4-1.7L545.9,274.6z"/>
<path class="st0" d="M608.8,275.7c0-0.7,0.7-1.4,1.4-1.4h6.9c0.8,0,1.4,0.7,1.4,1.4v29.6c0,6.1,4.2,11,10.5,11
	c6.3,0,10.6-4.8,10.6-10.9v-29.6c0-0.7,0.6-1.4,1.4-1.4h6.9c0.7,0,1.4,0.7,1.4,1.4v30.1c0,11-8.7,19.9-20.2,19.9
	c-11.3,0-20.1-8.9-20.1-19.9V275.7L608.8,275.7z"/>
<path class="st0" d="M674.7,283h-11.1c-0.8,0-1.4-0.7-1.4-1.4v-5.9c0-0.7,0.6-1.4,1.4-1.4h31.6c0.8,0,1.4,0.7,1.4,1.4v5.9
	c0,0.7-0.6,1.4-1.4,1.4h-11.1v40.6c0,0.7-0.6,1.4-1.4,1.4H676c-0.7,0-1.4-0.7-1.4-1.4V283L674.7,283z"/>
<path class="st0" d="M710.1,275.7c0-0.7,0.6-1.4,1.4-1.4h29.4c0.8,0,1.4,0.7,1.4,1.4v5.9c0,0.7-0.6,1.4-1.4,1.4h-21.4v11.9h17.9
	c0.7,0,1.4,0.7,1.4,1.4v6c0,0.8-0.6,1.4-1.4,1.4h-17.9v12.7h21.4c0.8,0,1.4,0.7,1.4,1.4v5.9c0,0.7-0.6,1.4-1.4,1.4h-29.4
	c-0.8,0-1.4-0.7-1.4-1.4V275.7z"/>
<path class="st1" d="M51.1,316.6c0,0.1,0,0.2,0,0.3c0,0.1,0,0.2,0,0.3c0,0,0,0.1,0,0.1c0,0.1,0,0.1,0,0.2c0,0.1,0,0.2,0,0.3
	c0,0.1,0,0.2,0.1,0.3c0,0.1,0.1,0.2,0.1,0.3c0,0.1,0.1,0.2,0.1,0.3c0,0.1,0.1,0.2,0.1,0.2c0.1,0.1,0.1,0.2,0.2,0.2
	c0.1,0.1,0.1,0.2,0.2,0.2c0.1,0.1,0.1,0.1,0.2,0.2c0.1,0.1,0.1,0.1,0.2,0.2c0.1,0.1,0.2,0.1,0.3,0.2c0.1,0,0.1,0.1,0.2,0.1
	l70.6,35.3c0,0,0.1,0,0.1,0c0,0,0.1,0,0.1,0.1c0,0,0.1,0,0.1,0c0.1,0,0.1,0,0.2,0.1c0.1,0,0.1,0,0.2,0c0,0,0.1,0,0.1,0
	c0,0,0.1,0,0.1,0c0.1,0,0.1,0,0.2,0c0.1,0,0.1,0,0.2,0c0.1,0,0.1,0,0.2,0c0.1,0,0.1,0,0.2,0c0.1,0,0.1,0,0.2,0c0,0,0.1,0,0.1,0
	c0,0,0.1,0,0.1,0c0.1,0,0.1,0,0.2,0c0.1,0,0.1,0,0.2-0.1c0,0,0.1,0,0.1,0c0,0,0.1,0,0.1-0.1c0,0,0.1,0,0.1,0l70.6-35.3
	c0.1,0,0.1-0.1,0.2-0.1c0.1-0.1,0.2-0.1,0.3-0.2c0.1-0.1,0.1-0.1,0.2-0.2c0.1-0.1,0.1-0.1,0.2-0.2c0.1-0.1,0.1-0.1,0.2-0.2
	c0.1-0.1,0.1-0.2,0.2-0.2c0.1-0.1,0.1-0.2,0.1-0.2c0-0.1,0.1-0.2,0.1-0.3c0-0.1,0.1-0.2,0.1-0.3c0-0.1,0-0.2,0.1-0.3
	c0-0.1,0-0.2,0-0.3c0-0.1,0-0.1,0-0.2c0,0,0-0.1,0-0.1c0-0.1,0-0.2,0-0.3c0-0.1,0-0.2,0-0.3c0-0.1-0.1-0.2-0.1-0.3
	c0-0.1-0.1-0.2-0.1-0.3c0,0,0-0.1,0-0.1l-35.3-70.6c0,0,0-0.1-0.1-0.1c-0.1-0.2-0.2-0.4-0.4-0.5c0,0-0.1-0.1-0.1-0.1
	c-0.2-0.2-0.3-0.3-0.5-0.4c-0.1,0-0.1-0.1-0.2-0.1c-0.2-0.1-0.3-0.2-0.5-0.2c-0.1,0-0.1,0-0.2-0.1c-0.2-0.1-0.5-0.1-0.7-0.1
	c0,0,0,0,0,0c0,0-0.1,0-0.1,0c-0.2,0-0.4,0-0.5,0.1c-0.1,0-0.1,0-0.2,0.1c-0.2,0-0.3,0.1-0.4,0.2c0,0-0.1,0-0.1,0
	c-0.1,0-0.1,0.1-0.2,0.1c-0.1,0.1-0.2,0.1-0.3,0.2c-0.1,0.1-0.1,0.1-0.2,0.2c-0.1,0.1-0.1,0.1-0.2,0.2c-0.1,0.1-0.1,0.1-0.2,0.2
	c-0.1,0.1-0.1,0.2-0.2,0.2c-0.1,0.1-0.1,0.2-0.1,0.2c0,0.1-0.1,0.2-0.1,0.3c0,0.1-0.1,0.2-0.1,0.3c0,0.1,0,0.2-0.1,0.3
	c0,0.1,0,0.2,0,0.3c0,0.1,0,0.1,0,0.2v63.5l-30.3-30.3c-0.1-0.1-0.3-0.3-0.5-0.4c-0.1,0-0.1-0.1-0.2-0.1c-0.1-0.1-0.2-0.1-0.3-0.2
	c-0.1,0-0.2-0.1-0.3-0.1c-0.1,0-0.2-0.1-0.3-0.1c-0.2,0-0.4-0.1-0.6-0.1c-0.2,0-0.4,0-0.6,0.1c-0.1,0-0.2,0.1-0.3,0.1
	c-0.1,0-0.2,0.1-0.3,0.1c-0.1,0-0.2,0.1-0.3,0.2c-0.1,0-0.1,0.1-0.2,0.1c-0.2,0.1-0.3,0.2-0.5,0.4l-30.3,30.3v-63.5
	c0-0.1,0-0.1,0-0.2c0-0.1,0-0.2,0-0.3c0-0.1,0-0.2-0.1-0.3c0-0.1-0.1-0.2-0.1-0.3c0-0.1-0.1-0.2-0.1-0.3c0-0.1-0.1-0.2-0.1-0.2
	c-0.1-0.1-0.1-0.2-0.2-0.2c-0.1-0.1-0.1-0.2-0.2-0.2c-0.1-0.1-0.1-0.1-0.2-0.2c-0.1-0.1-0.1-0.1-0.2-0.2c-0.1-0.1-0.2-0.1-0.3-0.2
	c-0.1,0-0.1-0.1-0.2-0.1c0,0-0.1,0-0.1,0c-0.1-0.1-0.3-0.1-0.4-0.2c-0.1,0-0.1,0-0.2-0.1c-0.2,0-0.3-0.1-0.5-0.1c0,0-0.1,0-0.1,0
	c0,0,0,0,0,0c-0.2,0-0.5,0-0.7,0.1c-0.1,0-0.1,0-0.2,0.1c-0.2,0.1-0.4,0.1-0.5,0.2c-0.1,0-0.1,0.1-0.2,0.1c-0.2,0.1-0.4,0.3-0.5,0.4
	c0,0-0.1,0.1-0.1,0.1c-0.1,0.2-0.3,0.3-0.4,0.5c0,0,0,0.1-0.1,0.1l-35.3,70.6c0,0,0,0.1,0,0.1c0,0.1-0.1,0.2-0.1,0.3
	C51.2,316.4,51.1,316.5,51.1,316.6z M88,320.2l21.6,21.6l-43.2-21.6H88z M161,320.2h21.6l-43.2,21.6L161,320.2z M162.8,314.3v-55.2
	l27.6,55.2H162.8z M127.5,345.4V289l28.2,28.2L127.5,345.4z M121.6,345.4l-28.2-28.2l28.2-28.2V345.4L121.6,345.4z M58.7,314.3
	l27.6-55.2v55.2H58.7z"/>
</svg>
