<?xml version="1.0" encoding="utf-8"?>
<!-- Generator: Adobe Illustrator 26.3.1, SVG Export Plug-In . SVG Version: 6.00 Build 0)  -->
<svg version="1.1" id="katman_1" xmlns="http://www.w3.org/2000/svg" xmlns:xlink="http://www.w3.org/1999/xlink" x="0px" y="0px"
	 viewBox="0 0 300 100" style="enable-background:new 0 0 300 100;" xml:space="preserve">
<style type="text/css">
	.st0{fill:#FEFEFE;}
	.st1{fill:#1F4AFE;}
	.st2{fill:#FED62A;}
	.st3{fill:#FEDB43;}
	.st4{fill:#373737;}
	.st5{fill:#343434;}
	.st6{fill:#3A3A3A;}
	.st7{fill:#383838;}
	.st8{fill:#3B3B3B;}
	.st9{fill:#545454;}
	.st10{fill:#595959;}
	.st11{fill:#484848;}
	.st12{fill:#525252;}
	.st13{fill:#454545;}
	.st14{fill:#505050;}
	.st15{fill:#FDFDFD;}
</style>
<g>
	<g>
		<path class="st0" d="M78.6,55.2c0-1.8,0-3.5,0-5.3c3.2-2,6.7-0.7,10.1-1.1c1.8-0.2,5,1,5.1-1.6c0.1-3.2-3.2-2-5.1-2.2
			c-4.2-0.4-5-1.2-5-5.8c0-4.5,0.9-5.4,5.3-5.5c4.1-0.1,8.2,0.1,12.2,0c5.1-0.1,8.4,2.4,10.8,6.5c0.3,0.5,0.5,1.1,0.8,1.7
			c0.6,1.1,1.6,1.7,2.8,1.3c1.3-0.4,1-1.6,0.9-2.6c-0.6-5.7-6.1-10.5-12.5-10.7c-6.8-0.2-13.5,0-20.3-0.1c-1.8,0-3.6,0.2-5.1-1.1
			c-0.3-1.2,0.7-0.7,1.2-0.7c46.5,0,93.1,0,139.6-0.1c1.6,0,2,0.3,2,1.9c-0.1,13.3-0.1,26.6,0,39.9c0,2.7-1.5,1.9-2.8,1.9
			c-37.5,0-74.9,0-112.4,0c-0.2-0.4-0.2-0.8,0.2-1.1c7.2-2.8,10.6-8.1,10.8-15.7c0.1-2.8-0.8-4-3.6-3.9c-2.8,0-5.6-0.1-8.4,0.1
			c-1.3,0.1-2.3,0.5-2.2,2c0.1,1.3,1.1,1.6,2.1,1.7c1.3,0.1,2.6,0,3.8,0.1c3.1,0.4,4,1.8,2.9,4.6c-1.6,4.1-4.7,6.6-9.1,7
			c-5.1,0.5-10.2,0.2-15.3,0.1c-2.5,0-3.7-1.4-3.8-3.8c0-0.5-0.1,0.1,0-0.4C84.5,58.5,82.9,56,78.6,55.2z"/>
		<path class="st1" d="M78.6,28.8c8.4,0,16.8,0,25.3,0c7.7,0.1,13.7,5.8,14.1,13.4c0.1,1.2,0.5,2.8-1.6,2.6
			c-1.6-0.2-3.8,1.2-4.8-1.6c-2.3-6.9-4.6-8.5-11.9-8.6c-3.8,0-7.7,0.2-11.5-0.1c-3-0.2-3.6,1-3.5,3.6c0.2,5.8,0,5.9,6.2,5.8
			c3-0.1,5,0.2,4.4,3.9c-0.2,1.6-0.7,2.2-2.3,2.2c-4.8-0.1-9.7-0.2-14.5-0.2C78.6,42.9,78.6,35.9,78.6,28.8z"/>
		<path class="st2" d="M78.6,55.2c6.2,0.3,6.3,0.3,6.1,6.7c-0.1,3.3,1,4.1,4.1,3.9c4.3-0.3,8.7,0,13-0.1c4.4-0.1,7.3-2.5,9.2-6.3
			c1-2.1,0.8-3.4-2-3.2c-1.3,0.1-2.6-0.1-3.8,0c-2.4,0.2-3.7-0.2-3.7-3.1c0-3.2,1.7-3,3.9-3c3.4,0.1,6.9,0,10.3,0
			c1.2,0,2.2,0,2.6,1.5c1.8,6.7-2.3,15.6-8.6,18.7c-1.1,0.5-2.1,0.8-3.3,0.8c-9.3,0.4-18.5,0.6-27.8-0.1
			C78.6,65.7,78.6,60.5,78.6,55.2z"/>
		<path class="st3" d="M78.6,71c9.3,0,18.5,0.1,27.8,0.1c-0.1,0.2-0.1,0.4-0.2,0.7c-8.6,0-17.1,0-25.7-0.1
			C80,71.7,78.7,72.7,78.6,71z"/>
		<path class="st4" d="M154.8,60.5c-1.7,2.2-4.1,3.2-6.8,3.8c-5.9,1.1-11.8,0.3-18,0.1c4-0.9,3.5-3.7,3.5-6.3c0-5.6,0-11.3,0-16.9
			c0-3.5,0-3.5-3-5.2c7.1-2.4,20.1-0.6,24.4,3.3c-1.2,1.1-2.3,0.2-3.4-0.2c-1.4-0.6-2.8-0.8-4.3-0.6c-5.1-0.3-5.2-0.2-5.2,4.7
			c0,4.9-0.1,9.8,0,14.6c0.1,4,0.3,4.2,4.3,4.2c1.8,0.2,3.5-0.3,5.1-1.1C152.4,60.4,153.5,59.4,154.8,60.5z"/>
		<path class="st5" d="M172.3,38c0,3.5,0,6.9,0,10.4c0.6,0.8,0.6,1.6,0.1,2.4c0,2.1,0.1,4.3,0,6.4c-0.2,3.3-0.2,6.5,4.2,6.9
			c-0.1,0.9-0.6,0.7-0.9,0.7c-4.6,0-9.1,0-14.1-0.2c5-1.5,3.8-5.2,3.8-8.5c0-5,0-10,0-15c0-1.4,0.1-2.8-0.8-4
			c1.7-3.1,4.4-1.2,6.7-1.3C172.3,35.8,172.9,36.8,172.3,38z"/>
		<path class="st5" d="M200.6,65c-6.9-1.4-11.3-6.7-11.5-13.8c-0.2-7.9,3.7-13.6,10.7-15.7c0.9-0.2,2.1-1,2.4,0.7
			c-5.9,5.1-7.4,18.8-2.8,25.1c1.1,1.5,2.7,2.2,4.4,2.8C203.1,66.3,201.7,65.3,200.6,65z"/>
		<path class="st5" d="M154.8,60.5c-2.8,0-4.6,3.7-7.9,2.2c3.3-4.6,3.9-9.7,3.6-15.2c-0.2-3.5-2.2-6.3-2.9-9.6
			c2.9-2.1,4.7,1.5,7.2,1.3C161,45,161,54.6,154.8,60.5z"/>
		<path class="st6" d="M209,63.4c1.3-2.4,0.7-4.9,0.7-7.4c-0.1-2.4-2.5-2.3-3.9-3.4c4.6,0,9.2,0,15.1,0c-4.6,1.6-4.3,4.4-4.3,7.3
			c0,1.5,0.7,3.5-1.8,3.8c-1.3,0.2-2.4,0.9-3.6,1C210.3,64.6,208.9,65.1,209,63.4z"/>
		<path class="st7" d="M172.3,38c-2.3-3-5-1.7-7.8-0.9c-0.6,0-1.3,0.1-1.6-0.6c-0.1-0.7,0.2-1.3,1-1.2c7.3,0.1,14.6-0.6,21.9,0.3
			c0.6,2.7,0.3,5.3,0.2,9c-2-3.4-2.7-6.7-6.1-7.6c-2.3-0.6-4.6-0.6-6.9,0C172.8,37.4,172.5,37.7,172.3,38z"/>
		<path class="st8" d="M208.4,36.3c0.7,0.1,1.5,0.1,2.2,0.2c1.3,0.3,2.6,0.8,3.7-0.3c0.4-1.1,1.3-2.1,1.6-0.2
			c0.4,2.9,0.1,5.8-0.4,8.9c-2.1-3.5-4.9-6.2-8.1-8.5C207.7,36.1,208,36.1,208.4,36.3z"/>
		<path class="st8" d="M177.6,47c0.5-1.4,1-2.7,1.5-4.1c0.2,0,0.4,0,0.5,0.1c0,4.6,0,9.2,0,13.9c-1.4-2.1-1.7-4.9-4.4-6.1
			c-0.5-0.6-1.7-1.3-0.2-1.8C176.3,48.5,177,47.8,177.6,47z"/>
		<path class="st9" d="M185.8,35.7c-6.3,0-12.7,0-19,0.1c-1.3,0-2.8-0.5-3.9,0.8c-0.4-0.1-1-0.1-1-0.3c-0.4-1.2,0.6-1.1,1.3-1.1
			c4.4,0,8.9-0.1,13.3,0C179.6,35.3,182.7,34.6,185.8,35.7z"/>
		<path class="st10" d="M208.4,36.3c-0.3,0-0.6,0.1-1,0.1c-1.8,0-3.5-0.1-5.3-0.1c-0.6-0.9-1.6-0.5-2.4-0.7
			C202.7,34.7,205.7,33.5,208.4,36.3z"/>
		<path class="st11" d="M177.6,47c0.7,2.1-3.2,1.5-2.3,3.8c-1,0-2,0.1-3,0.1c0-0.8,0-1.6-0.1-2.4C174.5,49.4,176,48.2,177.6,47z"/>
		<path class="st12" d="M200.6,65c1-0.3,2.3,0.3,3.1-0.8c1,0,2,0,3.1,0c0.8,0.4,2-0.2,2.5,0.9C206.4,66,203.5,66.2,200.6,65z"/>
		<path class="st13" d="M209.3,65.1c-0.9-0.2-1.9,0-2.5-0.9c0.7-0.3,1.5-0.6,2.2-0.9c1.8,2.1,3.9-0.6,5.7,0.2
			C213.1,64.7,211.2,65.1,209.3,65.1z"/>
		<path class="st9" d="M173,37.1c2.3-1.5,4.6-1.3,6.9,0C177.6,37.1,175.3,37.1,173,37.1z"/>
		<path class="st14" d="M214.3,36.2c-1.1,1.7-2.4,1.2-3.7,0.3C211.8,36.2,213.1,36.9,214.3,36.2z"/>
		<path class="st15" d="M147.6,38c5.3,6.2,4.7,13.3,2.9,20.5c-0.5,1.9-2.2,3-3.6,4.2c-6.1,1.3-6.2,1.2-6.2-4.9c0-5,0.1-10,0-15
			C140.5,37.4,140,35.4,147.6,38z"/>
	</g>
</g>
</svg>
