<?xml version="1.0" encoding="UTF-8"?>
<svg id="katman_1" data-name="katman 1" xmlns="http://www.w3.org/2000/svg" width="300" height="100" viewBox="0 0 300 100">
  <defs>
    <style>
      .cls-1 {
        fill: #fff;
      }
    </style>
  </defs>
  <path class="cls-1" d="M69.3,26.73c.55-.14,1.09-.39,1.64-.39,24.23-.02,48.45-.02,72.68-.02h87.09v47.18h-2.92c-52.28,0-104.57,0-156.85-.04-.52,0-1.77,.84-1.64-.77,.54,.06,1.08,.18,1.62,.18,9.92,.01,19.84,0,29.76,0,.46,0,.91-.08,1.39-.13V26.73h-32.77Zm60.67,22.95V30.32c-3.32,3.64-6.37,6.98-9.5,10.42l-9.57-10.33v19.24h3.56v-9.88l5.94,6.62,6.01-6.72v10h3.56Zm85.31-18.79v18.74h3.93v-4.35c2.41-.97,3.09,.71,3.97,2.04,1.84,2.77,2.51,3.03,5.93,2.1-1.22-1.86-2.42-3.69-3.65-5.58,3.26-1.81,4.12-4.5,3.45-7.71-.64-3.09-2.82-4.83-5.83-5.19-2.54-.3-5.14-.06-7.81-.06Zm-19.64-.05v18.8h12.83v-3.41h-8.87v-2.76h7.49v-3.33h-7.45v-6.14h8.43v-3.16h-12.43Zm-26.44,2.8c-1.42-2.5-3.68-3.54-6.46-3.08-2.5,.41-4.19,1.88-4.62,4.01-.51,2.51,.5,4.67,3,6.1,1.18,.67,2.58,1.01,3.65,1.8,.8,.6,1.8,1.77,1.69,2.54-.21,1.52-1.84,1.83-3.11,1.46-1.3-.37-2.44-1.26-3.83-2.02l-2.55,1.54c1.85,3.33,5.73,4.76,9.57,3.6,2.72-.82,4.02-2.67,3.93-5.44-.07-2.1-1.09-3.61-2.89-4.59-1.37-.75-2.85-1.31-4.24-2.02-1.13-.57-2.01-1.46-1.22-2.76,.8-1.31,2.06-1.08,3.23-.42,.4,.23,.71,.61,1.16,1l2.69-1.73Zm-25-3.43c-2.94,6.67-5.69,12.92-8.56,19.42,1.9-.02,3.64,.92,4.47-1.51,.34-1.01,7.82-.98,8.21,.02,1.01,2.6,2.87,1.33,4.77,1.5-3.01-6.58-5.84-12.78-8.89-19.44Zm36.13,3.8v15.56h3.98v-15.52h5.24v-3.14h-14.57v3.1h5.34Zm18.26,30.29c.39-.32,.72-.56,1.02-.82,2.68-2.36,2.2-7.1-1.13-8.29-2.32-.83-4.97-.74-7.49-1.06v14.34h2.85v-3.3q1.84-.1,2.99,1.64c1.44,2.17,1.63,2.24,4.32,1.45l-2.56-3.96Zm-44.19,4.55v-14.35h-2.6v7.97c-3.03-2.82-5.83-5.43-8.95-8.34v14.35h2.58v-7.94l8.96,8.32Zm51.53-14.41v14.09h9.64v-2.42h-6.55v-2.09h5.52v-2.62h-5.5v-4.57h6.31v-2.38h-9.42Zm-77.76-.01v14.06h9.73l-.11-2.36c-1.81,0-3.51-.05-5.2,.02-1.58,.07-1.91-.58-1.31-2.12h5.36v-2.62h-5.49v-4.61h6.25v-2.37h-9.24Zm45.96,.03c0,2.78,0,5.33,0,7.89,0,.61-.03,1.22,.04,1.82,.34,2.86,2.28,4.49,5.49,4.67,3.11,.17,5.69-1.35,5.93-4.06,.3-3.39,.07-6.83,.07-10.27h-2.65c-.04,.83-.09,1.56-.1,2.28-.02,2.23,.04,4.46-.06,6.69-.09,2.08-.92,2.77-2.97,2.74-2.01-.03-2.8-.82-2.85-3.12-.06-2.87-.02-5.75-.02-8.65h-2.89Zm45.17,11.43c1.65,2.5,3.8,3.22,6.36,2.91,1.96-.24,3.56-1.05,3.96-3.21,.39-2.12-.41-3.72-2.33-4.73-1.02-.54-2.19-.87-3.09-1.56-.48-.37-.52-1.3-.76-1.97,.68-.13,1.67-.61,1.98-.33,1.56,1.38,2.33,.27,3.28-.65-1.61-2.03-3.4-2.63-5.64-1.98-1.79,.52-2.78,1.77-2.86,3.55-.09,2.26,1.29,3.6,3.25,4.46,.75,.33,1.58,.55,2.21,1.04,.46,.36,1.03,1.22,.88,1.56-.24,.54-1.11,1.22-1.6,1.14-1.19-.19-2.32-.79-3.79-1.35l-1.87,1.1Zm-95.3-11.32c-2.18-.69-3.17,.05-3.79,1.85-.7,2.03-1.67,3.97-2.58,6.09-.94-2.17-1.8-4.19-2.7-6.19-1.03-2.3-1.22-2.36-3.95-1.6l6.59,14.43c2.26-5.13,4.32-9.81,6.41-14.58Zm41.89,14.01v-11.66l3.88-.18v-2.22h-10.78v2.39h4.01v11.68h2.89Z"/>
  <path d="M69.3,26.73h32.77v46.01c-.48,.05-.93,.13-1.39,.13-9.92,0-19.84,0-29.76,0-.54,0-1.08-.12-1.62-.18V26.73Zm2.13,1.78v42.44h28.9V28.51h-28.9Z"/>
  <path d="M129.97,49.68h-3.56v-10l-6.01,6.72-5.94-6.62v9.88h-3.56V30.41l9.57,10.33c3.13-3.43,6.18-6.77,9.5-10.42v19.36Z"/>
  <path d="M215.28,30.89c2.67,0,5.27-.24,7.81,.06,3.01,.36,5.19,2.09,5.83,5.19,.66,3.21-.2,5.9-3.45,7.71,1.24,1.89,2.44,3.72,3.65,5.58-3.42,.92-4.1,.67-5.93-2.1-.88-1.33-1.56-3.01-3.97-2.04v4.35h-3.93V30.89Zm3.94,10.61c2.12,.09,4.33,.41,5.22-1.63,.53-1.21,.42-3.17-.25-4.31-1.01-1.71-3.07-1.52-4.96-1.34v7.28Z"/>
  <path d="M195.65,30.84h12.43v3.16h-8.43v6.14h7.45v3.33h-7.49v2.76h8.87v3.41h-12.83V30.84Z"/>
  <path d="M169.21,33.64l-2.69,1.73c-.44-.39-.75-.77-1.16-1-1.17-.66-2.43-.9-3.23,.42-.79,1.3,.09,2.18,1.22,2.76,1.4,.71,2.87,1.28,4.24,2.02,1.8,.98,2.82,2.48,2.89,4.59,.09,2.78-1.21,4.62-3.93,5.44-3.85,1.16-7.73-.27-9.57-3.6l2.55-1.54c1.38,.76,2.53,1.65,3.83,2.02,1.27,.37,2.9,.06,3.11-1.46,.11-.77-.89-1.94-1.69-2.54-1.07-.8-2.47-1.13-3.65-1.8-2.5-1.43-3.51-3.59-3-6.1,.43-2.13,2.12-3.6,4.62-4.01,2.78-.46,5.04,.58,6.46,3.08Z"/>
  <path d="M144.21,30.21c3.04,6.66,5.88,12.86,8.89,19.44-1.9-.17-3.76,1.1-4.77-1.5-.39-1-7.86-1.03-8.21-.02-.83,2.43-2.57,1.49-4.47,1.51,2.87-6.5,5.62-12.76,8.56-19.42Zm2.43,13.99l-2.47-6.24c-.89,2.28-1.63,4.19-2.43,6.24h4.9Z"/>
  <path d="M180.34,34.01h-5.34v-3.1h14.57v3.14h-5.24v15.52h-3.98v-15.56Z"/>
  <path d="M198.59,64.3l2.56,3.96c-2.69,.79-2.89,.72-4.32-1.45q-1.15-1.74-2.99-1.64v3.3h-2.85v-14.34c2.52,.32,5.17,.23,7.49,1.06,3.34,1.19,3.82,5.93,1.13,8.29-.3,.26-.62,.5-1.02,.82Zm-4.71-7.36v5.5c3.14,.19,4.37-.6,4.37-2.71,0-2.09-1.31-2.97-4.37-2.8Z"/>
  <path d="M154.4,68.85l-8.96-8.32v7.94h-2.58v-14.35c3.12,2.91,5.93,5.52,8.95,8.34v-7.97h2.6v14.35Z"/>
  <path d="M205.94,54.43h9.42v2.38h-6.31v4.57h5.5v2.62h-5.52v2.09h6.55v2.42h-9.64v-14.09Z"/>
  <path d="M128.18,54.42h9.24v2.37h-6.25v4.61h5.49v2.62h-5.36c-.6,1.54-.27,2.18,1.31,2.12,1.69-.07,3.39-.02,5.2-.02l.11,2.36h-9.73v-14.06Z"/>
  <path d="M174.14,54.45h2.89c0,2.9-.05,5.77,.02,8.65,.05,2.29,.84,3.08,2.85,3.12,2.05,.03,2.88-.66,2.97-2.74,.1-2.23,.03-4.46,.06-6.69,0-.73,.06-1.45,.1-2.28h2.65c0,3.44,.23,6.87-.07,10.27-.24,2.71-2.81,4.24-5.93,4.06-3.22-.18-5.16-1.81-5.49-4.67-.07-.6-.04-1.21-.04-1.82,0-2.56,0-5.11,0-7.89Z"/>
  <path d="M219.31,65.88l1.87-1.1c1.47,.55,2.59,1.15,3.79,1.35,.49,.08,1.36-.61,1.6-1.14,.15-.35-.42-1.21-.88-1.56-.63-.48-1.46-.71-2.21-1.04-1.96-.86-3.35-2.21-3.25-4.46,.08-1.78,1.06-3.03,2.86-3.55,2.24-.65,4.03-.05,5.64,1.98-.95,.92-1.72,2.03-3.28,.65-.31-.28-1.3,.2-1.98,.33,.24,.68,.28,1.6,.76,1.97,.9,.69,2.06,1.02,3.09,1.56,1.92,1.01,2.72,2.6,2.33,4.73-.4,2.15-2,2.97-3.96,3.21-2.56,.31-4.71-.42-6.36-2.91Z"/>
  <path d="M124.01,54.56c-2.1,4.77-4.16,9.45-6.41,14.58l-6.59-14.43c2.73-.76,2.91-.7,3.95,1.6,.9,2,1.76,4.02,2.7,6.19,.91-2.12,1.88-4.06,2.58-6.09,.62-1.8,1.61-2.54,3.79-1.85Z"/>
  <path d="M165.9,68.56h-2.89v-11.68h-4.01v-2.39h10.78v2.22l-3.88,.18v11.66Z"/>
  <path class="cls-1" d="M71.43,28.51h28.9v42.44h-28.9V28.51Zm14.06,13.81l-11.22-11.46c0,4.8,.33,9.42-.1,13.98-.36,3.9,1.75,5.88,4.67,8.13v-10.87l7.46,7.2,6.51-7.07v10.83c2.76-2.3,5.08-4.13,4.69-7.99-.4-3.95-.05-7.98-.03-11.97,0-.71,0-1.42,0-2.69l-11.97,11.91Zm.3,19.92c-3.87-3.99-7.49-7.71-11.52-11.87,0,2.02,.11,3.42-.03,4.8-.16,1.63,.4,2.78,1.61,3.89,2.36,2.16,4.56,4.48,6.84,6.73,1.04,1.03,2.1,2.03,3.18,3.07,3.09-3.05,5.77-6.18,8.95-8.7,3.31-2.63,2.6-5.79,2.44-9.49-3.91,3.95-7.52,7.6-11.46,11.59Z"/>
  <path class="cls-1" d="M219.22,41.49v-7.28c1.9-.18,3.96-.37,4.96,1.34,.67,1.14,.78,3.09,.25,4.31-.89,2.05-3.1,1.72-5.22,1.63Z"/>
  <path class="cls-1" d="M146.63,44.2h-4.9c.8-2.06,1.54-3.96,2.43-6.24l2.47,6.24Z"/>
  <path class="cls-1" d="M193.89,56.95c3.05-.17,4.36,.71,4.37,2.8,0,2.11-1.23,2.9-4.37,2.71v-5.5Z"/>
  <path d="M85.49,42.32l11.97-11.91c0,1.27,0,1.98,0,2.69-.02,3.99-.37,8.02,.03,11.97,.39,3.86-1.94,5.69-4.69,7.99v-10.83l-6.51,7.07-7.46-7.2v10.87c-2.91-2.25-5.03-4.24-4.67-8.13,.43-4.56,.1-9.18,.1-13.98l11.22,11.46Z"/>
  <path d="M85.79,62.24c3.94-3.98,7.55-7.63,11.46-11.59,.16,3.7,.88,6.87-2.44,9.49-3.18,2.52-5.86,5.66-8.95,8.7-1.08-1.04-2.14-2.04-3.18-3.07-2.28-2.25-4.48-4.57-6.84-6.73-1.21-1.11-1.77-2.26-1.61-3.89,.13-1.38,.03-2.78,.03-4.8,4.04,4.16,7.65,7.89,11.52,11.87Z"/>
</svg>