<?xml version="1.0" encoding="utf-8"?>
<!-- Generator: Adobe Illustrator 26.3.1, SVG Export Plug-In . SVG Version: 6.00 Build 0)  -->
<svg version="1.1" id="katman_1" xmlns="http://www.w3.org/2000/svg" xmlns:xlink="http://www.w3.org/1999/xlink" x="0px" y="0px"
	 viewBox="0 0 300 100" style="enable-background:new 0 0 300 100;" xml:space="preserve">
<style type="text/css">
	.st0{fill:#FEFEFE;}
	.st1{opacity:0.4;}
	.st2{opacity:0.4;fill:#FEFEFE;enable-background:new    ;}
</style>
<path class="st0" d="M97.8,31.9c0,0.1,0,0.3,0,0.4c-0.1,0.7,0.2,1.4,0.8,1.7l5.1,3c0.6,0.3,1.3,0.2,1.9-0.2c0.8-0.6,1.8-0.9,2.9-0.9
	c2.8,0,5.1,2.3,5.1,5.1c0,2.8-2.3,5.1-5.1,5.1c-2.8,0-5.1-2.3-5.1-5.1c0-0.1,0-0.3,0-0.4c0.1-0.7-0.2-1.4-0.8-1.7l-5.1-3
	c-0.6-0.3-1.3-0.2-1.9,0.2c-0.8,0.6-1.8,0.9-2.9,0.9s-2.1-0.3-2.9-0.9c-0.6-0.4-1.3-0.5-1.9-0.2l-5.1,3c-0.6,0.3-0.8,1.1-0.8,1.7
	c0,0.1,0,0.3,0,0.4c0,2-1.2,3.8-2.9,4.6c-0.6,0.3-1.1,0.9-1.1,1.6v5.9c0,0.7,0.5,1.3,1.1,1.6c1.7,0.8,2.9,2.6,2.9,4.6
	c0,0.1,0,0.3,0,0.4c-0.1,0.7,0.2,1.4,0.8,1.7l5.1,3c0.6,0.3,1.3,0.2,1.9-0.2c0.8-0.6,1.8-0.9,2.9-0.9c1.1,0,2.1,0.3,2.9,0.9
	c0.6,0.4,1.3,0.5,1.9,0.2l5.1-3c0.6-0.3,0.8-1.1,0.8-1.7c0-0.1,0-0.3,0-0.4c0-2.8,2.3-5.1,5.1-5.1c2.8,0,5.1,2.3,5.1,5.1
	c0,2.8-2.3,5.1-5.1,5.1c-1.1,0-2-0.3-2.9-0.9c-0.6-0.4-1.3-0.5-1.9-0.2l-5.1,3c-0.6,0.3-0.8,1.1-0.8,1.7c0,0.1,0,0.3,0,0.4
	c0,2.8-2.3,5.1-5.1,5.1s-5.1-2.3-5.1-5.1c0-0.1,0-0.3,0-0.4c0.1-0.7-0.2-1.4-0.8-1.7l-5.1-3c-0.6-0.3-1.3-0.2-1.9,0.2
	c-0.8,0.6-1.8,0.9-2.9,0.9c-2.8,0-5.1-2.3-5.1-5.1c0-2,1.2-3.8,2.9-4.6c0.6-0.3,1.1-0.9,1.1-1.6v-5.9c0-0.7-0.5-1.3-1.1-1.6
	c-1.7-0.8-2.9-2.6-2.9-4.6c0-2.8,2.3-5.1,5.1-5.1c1.1,0,2.1,0.3,2.9,0.9c0.6,0.4,1.3,0.5,1.9,0.2l5.1-3c0.6-0.3,0.8-1.1,0.8-1.7
	c0-0.1,0-0.3,0-0.4c0-2.8,2.3-5.1,5.1-5.1C95.5,26.8,97.8,29.1,97.8,31.9z"/>
<g class="st1">
	<path class="st2" d="M73.9,50.2c0,2.1-1.7,3.8-3.7,3.8c-2.1,0-3.7-1.7-3.7-3.8c0-2.1,1.7-3.8,3.7-3.8
		C72.2,46.4,73.9,48.1,73.9,50.2z"/>
	<path class="st2" d="M94.4,23.9c0,1-0.8,1.7-1.7,1.7S91,24.9,91,23.9s0.8-1.7,1.7-1.7S94.4,23,94.4,23.9z"/>
	<path class="st2" d="M94.4,76.5c0,1-0.8,1.7-1.7,1.7S91,77.4,91,76.5c0-1,0.8-1.7,1.7-1.7S94.4,75.5,94.4,76.5z"/>
	<path class="st2" d="M84.6,28.6c1,1.8,0.4,4.1-1.4,5.1c-1.8,1-4.1,0.4-5.1-1.4c-1-1.8-0.4-4.1,1.4-5.1
		C81.3,26.2,83.6,26.8,84.6,28.6z"/>
	<path class="st2" d="M100.7,28.6c-1,1.8-0.4,4.1,1.4,5.1c1.8,1,4.1,0.4,5.1-1.4c1-1.8,0.4-4.1-1.4-5.1
		C104,26.2,101.8,26.8,100.7,28.6z"/>
	<path class="st2" d="M100.7,71.8c1,1.8,3.3,2.4,5.1,1.4c1.8-1,2.4-3.3,1.4-5.1s-3.3-2.4-5.1-1.4C100.3,67.7,99.7,70,100.7,71.8z"/>
	<path class="st2" d="M84.6,71.8c-1,1.8-3.3,2.4-5.1,1.4c-1.8-1-2.4-3.3-1.4-5.1c1-1.8,3.3-2.4,5.1-1.4C85,67.7,85.7,70,84.6,71.8z"
		/>
	<path class="st2" d="M71.9,37.1c0,1-0.8,1.7-1.7,1.7s-1.7-0.8-1.7-1.7c0-1,0.8-1.7,1.7-1.7S71.9,36.1,71.9,37.1z"/>
	<path class="st2" d="M71.9,63.3c0,1-0.8,1.7-1.7,1.7s-1.7-0.8-1.7-1.7c0-1,0.8-1.7,1.7-1.7S71.9,62.4,71.9,63.3z"/>
</g>
<path class="st0" d="M123.8,52.8c0-2.1,0.4-4,1.3-5.6c0.9-1.6,2.1-2.9,3.6-3.7c1.5-0.9,3.2-1.3,5.2-1.3c2.5,0,4.5,0.6,6.1,1.8
	c1.6,1.2,2.7,2.9,3.3,5.1h-4.6c-0.4-1-1-1.8-1.8-2.4c-0.8-0.6-1.8-0.9-3.1-0.9c-1.7,0-3.1,0.6-4.2,1.9c-1,1.2-1.5,2.9-1.5,5.2
	c0,2.2,0.5,4,1.5,5.2c1,1.2,2.4,1.9,4.2,1.9c2.5,0,4.1-1.1,4.9-3.3h4.6c-0.6,2.1-1.7,3.8-3.3,5c-1.6,1.2-3.7,1.8-6.1,1.8
	c-2,0-3.7-0.4-5.2-1.3c-1.5-0.9-2.7-2.1-3.6-3.7C124.2,56.8,123.8,55,123.8,52.8z"/>
<path class="st0" d="M162.6,37.1v3.5h-11v7.7h8.5v3.5h-8.5v11.4h-4.2V37.1H162.6z"/>
<path class="st0" d="M185.1,42.5v20.7h-4.2v-2.4c-0.7,0.8-1.5,1.5-2.6,2c-1.1,0.5-2.2,0.7-3.4,0.7c-1.6,0-3.1-0.3-4.3-1
	c-1.3-0.7-2.3-1.7-3-3c-0.7-1.3-1.1-2.9-1.1-4.8V42.5h4.2V54c0,1.8,0.5,3.3,1.4,4.3c0.9,1,2.2,1.5,3.8,1.5c1.6,0,2.8-0.5,3.8-1.5
	c0.9-1,1.4-2.4,1.4-4.3V42.5H185.1z"/>
<path class="st0" d="M201,42.2c1.6,0,3,0.3,4.3,1c1.3,0.7,2.3,1.7,3,3c0.7,1.3,1.1,2.9,1.1,4.8v12.2h-4.2V51.6
	c0-1.8-0.5-3.3-1.4-4.2c-0.9-1-2.2-1.5-3.8-1.5c-1.6,0-2.8,0.5-3.8,1.5c-0.9,1-1.4,2.4-1.4,4.2v11.5h-4.2V42.5h4.2v2.4
	c0.7-0.8,1.6-1.5,2.6-2C198.7,42.4,199.8,42.2,201,42.2z"/>
<path class="st0" d="M213.4,52.8c0-2.1,0.4-3.9,1.3-5.5c0.9-1.6,2-2.8,3.5-3.7c1.5-0.9,3.1-1.3,4.9-1.3c1.3,0,2.7,0.3,3.9,0.9
	c1.3,0.6,2.4,1.3,3.1,2.3v-10h4.3v27.7h-4.3v-3.1c-0.7,1-1.7,1.8-2.9,2.5c-1.2,0.6-2.6,1-4.2,1c-1.8,0-3.4-0.4-4.9-1.3
	c-1.5-0.9-2.6-2.2-3.5-3.8C213.8,56.7,213.4,54.8,213.4,52.8z M230.2,52.8c0-1.4-0.3-2.7-0.9-3.7c-0.6-1-1.3-1.8-2.3-2.4
	c-0.9-0.5-2-0.8-3-0.8s-2.1,0.3-3,0.8c-0.9,0.5-1.7,1.3-2.3,2.4c-0.6,1-0.9,2.2-0.9,3.7c0,1.4,0.3,2.7,0.9,3.7
	c0.6,1.1,1.4,1.9,2.3,2.5c1,0.5,2,0.8,3,0.8c1.1,0,2.1-0.3,3-0.8c0.9-0.5,1.7-1.3,2.3-2.4C229.9,55.5,230.2,54.3,230.2,52.8z"/>
</svg>
