<?xml version="1.0" encoding="utf-8"?>
<!-- Generator: Adobe Illustrator 26.3.1, SVG Export Plug-In . SVG Version: 6.00 Build 0)  -->
<svg version="1.1" id="katman_1" xmlns="http://www.w3.org/2000/svg" xmlns:xlink="http://www.w3.org/1999/xlink" x="0px" y="0px"
	 viewBox="0 0 300 100" style="enable-background:new 0 0 300 100;" xml:space="preserve">
<style type="text/css">
	.st0{fill:#FAFAFA;}
	.st1{fill:#49D395;}
	.st2{fill-rule:evenodd;clip-rule:evenodd;fill:#1F59F4;}
	.st3{fill-rule:evenodd;clip-rule:evenodd;fill:url(#Fill-2_00000178175966067844945140000006494700431257260435_);}
	.st4{fill-rule:evenodd;clip-rule:evenodd;fill:url(#Fill-4_00000176016389934242062200000016001064306262184375_);}
	.st5{fill-rule:evenodd;clip-rule:evenodd;fill:#1C51AF;}
	.st6{fill-rule:evenodd;clip-rule:evenodd;fill:url(#Fill-6_00000075135934810916450230000017572758453774993314_);}
	.st7{fill-rule:evenodd;clip-rule:evenodd;fill:url(#Fill-9_00000103980572953053436120000010362117820927639186_);}
	.st8{fill-rule:evenodd;clip-rule:evenodd;fill:url(#Fill-11_00000168833154071995817730000009905109999847093401_);}
	.st9{fill-rule:evenodd;clip-rule:evenodd;fill:url(#Fill-12_00000098221065286444848630000014245971344501129091_);}
	.st10{fill-rule:evenodd;clip-rule:evenodd;fill:#1944A3;}
	.st11{fill-rule:evenodd;clip-rule:evenodd;fill:#11327C;}
	.st12{fill:none;}
</style>
<g id="Page-1">
	<g id="Basic-Branding-Overview" transform="translate(-822.000000, -52.000000)">
		<g id="Platonic-Logo" transform="translate(822.000000, 52.000000)">
			<g id="Platonic.Systems" transform="translate(157.000000, 38.000000)">
				<path id="Platonic" class="st0" d="M-39.4,18.2v-4.2h1.5c1.4,0,2.4-0.3,3.2-0.9c0.8-0.6,1.2-1.5,1.2-2.7l0,0v-0.1
					c0-1.2-0.4-2.1-1.1-2.7s-1.9-0.9-3.3-0.9l0,0h-4v11.5C-42,18.2-39.4,18.2-39.4,18.2z M-38.1,12.3h-1.3V8.7h1.3
					c1.3,0,2,0.6,2,1.7l0,0v0.1C-36.1,11.7-36.8,12.3-38.1,12.3L-38.1,12.3z M-29.7,18.2V6H-32v12.2H-29.7z M-25.3,18.4
					c1.1,0,2-0.4,2.6-1.2l0,0v1h2.3v-5.5c0-2.1-1.2-3.1-3.5-3.1c-1.1,0-2,0.2-2.7,0.7c-0.7,0.5-1.1,1.2-1.1,2.2l0,0h2.2
					c0.1-0.8,0.6-1.2,1.4-1.2c0.5,0,0.9,0.1,1.1,0.4c0.2,0.2,0.3,0.6,0.3,1.2l0,0v0.4h-0.9c-2.9,0-4.4,0.9-4.4,2.7
					c0,0.8,0.3,1.5,0.8,1.9C-26.8,18.2-26.1,18.4-25.3,18.4z M-24.6,16.8c-0.8,0-1.2-0.4-1.2-1c0-0.4,0.2-0.7,0.5-0.9
					c0.4-0.2,0.9-0.3,1.6-0.3l0,0h0.9v0.7c0,0.5-0.2,0.8-0.5,1.1C-23.6,16.7-24.1,16.8-24.6,16.8z M-15.4,18.4c0.5,0,1-0.1,1.4-0.2
					l0,0v-1.8c-0.2,0.1-0.6,0.2-0.9,0.2c-0.6,0-0.9-0.3-0.9-1l0,0v-4.1h1.8V9.8h-1.8V8h-2.3v1.8h-1.1v1.6h1.1v4.3
					c0,0.9,0.2,1.5,0.7,2C-17,18.2-16.3,18.4-15.4,18.4z M-8.4,18.4c1.3,0,2.3-0.4,3.2-1.2S-4,15.4-4,14.1l0,0v-0.1
					c0-1.3-0.4-2.3-1.3-3.1s-1.9-1.2-3.2-1.2s-2.3,0.4-3.2,1.2s-1.3,1.9-1.3,3.2l0,0v0.1c0,1.3,0.4,2.3,1.3,3.1
					C-10.8,18-9.7,18.4-8.4,18.4z M-8.4,16.6c-0.7,0-1.2-0.2-1.5-0.7c-0.4-0.5-0.5-1.1-0.5-1.9l0,0v-0.1c0-0.8,0.2-1.4,0.6-1.9
					c0.4-0.5,0.9-0.7,1.5-0.7c0.7,0,1.2,0.2,1.5,0.7c0.4,0.5,0.5,1.1,0.5,1.9l0,0v0.1c0,0.8-0.2,1.4-0.5,1.9
					C-7.3,16.4-7.8,16.6-8.4,16.6z M-0.1,18.2v-4.9c0-0.6,0.2-1.1,0.5-1.4c0.3-0.3,0.7-0.5,1.3-0.5s0.9,0.1,1.1,0.4s0.4,0.7,0.4,1.3
					l0,0v5h2.3v-5.4c0-1.1-0.2-1.9-0.8-2.5C4.2,9.9,3.5,9.6,2.6,9.6C2,9.6,1.4,9.8,0.9,10c-0.5,0.3-0.8,0.7-1.1,1.1l0,0V9.8h-2.3
					v8.4L-0.1,18.2L-0.1,18.2z M8.7,8.7c0.4,0,0.7-0.1,0.9-0.4C9.9,8.1,10,7.8,10,7.4c0-0.4-0.1-0.7-0.4-0.9
					C9.4,6.3,9.1,6.2,8.7,6.2C8.3,6.2,8,6.3,7.8,6.5C7.5,6.8,7.4,7.1,7.4,7.4c0,0.4,0.1,0.7,0.4,0.9S8.3,8.7,8.7,8.7z M9.9,18.2V9.8
					H7.6v8.4H9.9z M15.8,18.4c1.2,0,2.2-0.3,2.9-0.9c0.7-0.6,1.1-1.4,1.2-2.5l0,0h-2.1c-0.1,0.5-0.2,0.9-0.6,1.2
					c-0.4,0.3-0.7,0.4-1.2,0.4c-0.7,0-1.2-0.2-1.5-0.7c-0.4-0.4-0.5-1.1-0.5-1.9l0,0V14c0-0.8,0.2-1.4,0.6-1.9s0.8-0.7,1.5-0.7
					c1,0,1.5,0.5,1.7,1.4l0,0h2.2c-0.1-1.1-0.5-2-1.3-2.5c-0.7-0.5-1.6-0.8-2.7-0.8c-1.2,0-2.3,0.4-3.1,1.2
					c-0.8,0.8-1.3,1.9-1.3,3.2l0,0v0.1c0,1.3,0.4,2.4,1.2,3.2C13.5,18,14.6,18.4,15.8,18.4z"/>
				<path id="_x2E_" class="st1" d="M22.7,18.4c0.4,0,0.7-0.1,1-0.4c0.3-0.3,0.4-0.6,0.4-1c0-0.4-0.1-0.7-0.4-1
					c-0.3-0.3-0.6-0.4-1-0.4c-0.4,0-0.7,0.1-1,0.4c-0.3,0.3-0.4,0.6-0.4,1c0,0.4,0.1,0.7,0.4,1S22.3,18.4,22.7,18.4z"/>
				<path id="Systems" class="st0" d="M30.4,18.4c1.3,0,2.4-0.4,3.2-1.1c0.8-0.7,1.2-1.6,1.2-2.6c0-1.1-0.4-2-1-2.5
					c-0.7-0.5-1.8-0.8-3.2-1.1c-0.9-0.1-1.4-0.3-1.7-0.5c-0.3-0.2-0.4-0.5-0.4-0.9c0-0.4,0.1-0.7,0.5-0.9c0.3-0.2,0.7-0.4,1.3-0.4
					c1.1,0,1.8,0.5,1.9,1.5l0,0h2.4c-0.1-1.1-0.5-2-1.3-2.6c-0.7-0.6-1.8-0.9-3-0.9c-1.3,0-2.3,0.3-3,1c-0.8,0.7-1.2,1.5-1.2,2.5
					c0,1.1,0.3,1.9,0.9,2.4c0.6,0.5,1.7,0.9,3.2,1.1c0.8,0.1,1.4,0.3,1.7,0.5c0.3,0.2,0.5,0.5,0.5,1c0,0.5-0.2,0.8-0.5,1.1
					c-0.4,0.3-0.8,0.4-1.4,0.4c-0.8,0-1.3-0.2-1.7-0.5c-0.4-0.3-0.5-0.8-0.6-1.4l0,0h-2.5c0.1,1.2,0.5,2.1,1.3,2.8
					C27.7,18.1,28.8,18.4,30.4,18.4z M39.8,21.1l4.6-11.3h-2.2l-1.9,5l-2-5h-2.5l3.4,7.6l-1.5,3.7H39.8z M48.7,18.4
					c1.1,0,2-0.2,2.6-0.7c0.6-0.5,0.9-1.2,0.9-2.1c0-0.8-0.2-1.5-0.8-1.8c-0.5-0.4-1.4-0.6-2.5-0.8c-0.6-0.1-1.1-0.2-1.3-0.3
					c-0.2-0.1-0.4-0.3-0.4-0.6c0-0.2,0.1-0.5,0.3-0.6c0.2-0.2,0.5-0.2,0.9-0.2c0.7,0,1.2,0.4,1.3,1l0,0h2.1
					c-0.2-1.8-1.4-2.6-3.5-2.6c-0.9,0-1.7,0.2-2.3,0.7s-1,1.1-1,1.9c0,0.8,0.2,1.4,0.7,1.8c0.5,0.4,1.3,0.7,2.4,0.8
					c0.6,0.1,1.1,0.2,1.3,0.4c0.3,0.1,0.4,0.4,0.4,0.6c0,0.6-0.5,0.9-1.3,0.9c-0.5,0-0.8-0.1-1.1-0.3c-0.2-0.2-0.4-0.5-0.4-0.9l0,0
					H45c0,0.9,0.4,1.6,1,2.1C46.6,18.2,47.5,18.4,48.7,18.4z M56.8,18.4c0.5,0,1-0.1,1.4-0.2l0,0v-1.8c-0.2,0.1-0.6,0.2-0.9,0.2
					c-0.6,0-0.9-0.3-0.9-1l0,0v-4.1h1.8V9.8h-1.8V8h-2.3v1.8H53v1.6h1.1v4.3c0,0.9,0.2,1.5,0.7,2C55.2,18.2,55.9,18.4,56.8,18.4z
					 M63.7,18.4c1.2,0,2.1-0.2,2.8-0.7c0.7-0.5,1.1-1.2,1.3-2.1l0,0h-2.2c-0.2,0.8-0.7,1.2-1.8,1.2c-0.6,0-1.1-0.2-1.5-0.6
					c-0.4-0.4-0.6-0.9-0.6-1.6l0,0h6.1v-0.6c0-1.4-0.4-2.5-1.2-3.2c-0.8-0.7-1.8-1.1-2.9-1.1c-1.3,0-2.3,0.4-3.1,1.2
					c-0.8,0.8-1.2,1.9-1.2,3.2l0,0v0.1c0,1.3,0.4,2.3,1.2,3.1C61.3,18,62.4,18.4,63.7,18.4z M65.4,13.1h-3.8
					c0.1-0.6,0.3-1.1,0.6-1.4c0.4-0.3,0.8-0.5,1.3-0.5C64.7,11.2,65.4,11.9,65.4,13.1L65.4,13.1z M71.6,18.2v-5c0-0.6,0.1-1,0.5-1.3
					c0.3-0.3,0.7-0.5,1.2-0.5c0.9,0,1.3,0.5,1.3,1.6l0,0v5.1h2.3v-5c0-0.6,0.1-1,0.5-1.3c0.3-0.3,0.7-0.5,1.2-0.5
					c0.9,0,1.3,0.5,1.3,1.6l0,0v5.1h2.3v-5.4c0-1.1-0.2-1.9-0.8-2.4c-0.5-0.5-1.2-0.8-2-0.8c-1.2,0-2.2,0.5-2.8,1.5
					c-0.4-1-1.2-1.5-2.3-1.5c-0.6,0-1.1,0.1-1.6,0.4c-0.5,0.3-0.8,0.6-1,1.1l0,0V9.8h-2.3v8.4L71.6,18.2L71.6,18.2z M87.2,18.4
					c1.1,0,2-0.2,2.6-0.7c0.6-0.5,0.9-1.2,0.9-2.1c0-0.8-0.2-1.5-0.8-1.8c-0.5-0.4-1.4-0.6-2.5-0.8c-0.6-0.1-1.1-0.2-1.3-0.3
					c-0.2-0.1-0.4-0.3-0.4-0.6c0-0.2,0.1-0.5,0.3-0.6c0.2-0.2,0.5-0.2,0.9-0.2c0.7,0,1.2,0.4,1.3,1l0,0h2.1
					c-0.2-1.8-1.4-2.6-3.5-2.6c-0.9,0-1.7,0.2-2.3,0.7c-0.7,0.5-1,1.1-1,1.9c0,0.8,0.2,1.4,0.7,1.8c0.5,0.4,1.3,0.7,2.4,0.8
					c0.6,0.1,1.1,0.2,1.3,0.4c0.3,0.1,0.4,0.4,0.4,0.6c0,0.6-0.5,0.9-1.3,0.9c-0.5,0-0.8-0.1-1.1-0.3c-0.2-0.2-0.4-0.5-0.4-0.9l0,0
					h-2.2c0,0.9,0.4,1.6,1,2.1C85.2,18.2,86.1,18.4,87.2,18.4z"/>
			</g>
			<g id="Group-42">
				<polygon id="Fill-1" class="st2" points="79.9,62.6 70.5,59.5 70,49.6 80,52.6 				"/>
				
					<linearGradient id="Fill-2_00000052796379658381976890000000261567870709529217_" gradientUnits="userSpaceOnUse" x1="-34.3367" y1="-338.7477" x2="-33.7294" y2="-338.7922" gradientTransform="matrix(51 0 0 23.8961 1800 8147.6104)">
					<stop  offset="0" style="stop-color:#49D395"/>
					<stop  offset="1" style="stop-color:#1F59F4"/>
				</linearGradient>
				
					<polygon id="Fill-2" style="fill-rule:evenodd;clip-rule:evenodd;fill:url(#Fill-2_00000052796379658381976890000000261567870709529217_);" points="
					60,52.9 70.6,56.4 77.9,51 67.8,48 				"/>
				<polygon id="Fill-3" class="st2" points="81.5,48.5 71.6,45.7 77.9,41.7 87.3,44.2 				"/>
				
					<linearGradient id="Fill-4_00000036967281728590925070000015607508308837326242_" gradientUnits="userSpaceOnUse" x1="-33.4871" y1="-344.095" x2="-33.1472" y2="-343.5426" gradientTransform="matrix(31.5 0 0 40.3247 1123.5 13902.0879)">
					<stop  offset="0" style="stop-color:#49D395"/>
					<stop  offset="1" style="stop-color:#1F59F4"/>
				</linearGradient>
				
					<polygon id="Fill-4" style="fill-rule:evenodd;clip-rule:evenodd;fill:url(#Fill-4_00000036967281728590925070000015607508308837326242_);" points="
					80,46.4 69.5,43.7 68.9,32.3 79.9,34.7 				"/>
				<polygon id="Fill-5" class="st5" points="77.3,51.7 70,49.6 70.3,56.2 70.9,56.4 				"/>
				
					<linearGradient id="Fill-6_00000160870687081243197870000000224835852744566667_" gradientUnits="userSpaceOnUse" x1="-32.9583" y1="-344.8008" x2="-33.0219" y2="-344.4503" gradientTransform="matrix(18 0 0 44.8052 681 15479.2334)">
					<stop  offset="0" style="stop-color:#4292FA"/>
					<stop  offset="1" style="stop-color:#1F59F4"/>
				</linearGradient>
				
					<polygon id="Fill-6" style="fill-rule:evenodd;clip-rule:evenodd;fill:url(#Fill-6_00000160870687081243197870000000224835852744566667_);" points="
					84.4,34.4 84.2,46.4 90,42.1 90.5,30.7 				"/>
				<polygon id="Fill-7" class="st2" points="73.1,41.1 73.6,54.2 81,48.8 81,36.4 				"/>
				<polygon id="Fill-8" class="st2" points="84.4,51.9 84.2,62.1 89.6,57.1 90,47.4 				"/>
				
					<linearGradient id="Fill-9_00000130605292116954625340000004335414495101702807_" gradientUnits="userSpaceOnUse" x1="-32.5353" y1="-345.6412" x2="-32.4281" y2="-346.2202" gradientTransform="matrix(21 0 0 47.7922 759 16600.8574)">
					<stop  offset="0" style="stop-color:#49D395"/>
					<stop  offset="1" style="stop-color:#1F59F4"/>
				</linearGradient>
				
					<polygon id="Fill-9" style="fill-rule:evenodd;clip-rule:evenodd;fill:url(#Fill-9_00000130605292116954625340000004335414495101702807_);" points="
					73.7,60 74.2,71 81,64.7 81,54.2 				"/>
				<polygon id="Fill-10" class="st2" points="86.8,49.7 98,52.7 103.1,48 92.5,45.3 				"/>
				
					<linearGradient id="Fill-11_00000019651878300935047830000010343064377893423245_" gradientUnits="userSpaceOnUse" x1="-34.4112" y1="-344.7503" x2="-34.2847" y2="-344.3185" gradientTransform="matrix(33 0 0 38.8312 1224 13437.6074)">
					<stop  offset="0" style="stop-color:#49D395"/>
					<stop  offset="1" style="stop-color:#1F59F4"/>
				</linearGradient>
				
					<polygon id="Fill-11" style="fill-rule:evenodd;clip-rule:evenodd;fill:url(#Fill-11_00000019651878300935047830000010343064377893423245_);" points="
					85.5,54.2 85.2,64.4 96,67.8 96.8,57.5 				"/>
				
					<linearGradient id="Fill-12_00000161628793308620711650000006970443171639408063_" gradientUnits="userSpaceOnUse" x1="-34.3002" y1="-345.0056" x2="-34.6131" y2="-344.6844" gradientTransform="matrix(36 0 0 44.8052 1332 15494.1689)">
					<stop  offset="0" style="stop-color:#49D395"/>
					<stop  offset="1" style="stop-color:#1F59F4"/>
				</linearGradient>
				
					<polygon id="Fill-12" style="fill-rule:evenodd;clip-rule:evenodd;fill:url(#Fill-12_00000161628793308620711650000006970443171639408063_);" points="
					85.5,35.9 97.9,38.7 96.9,51.6 85.2,48.3 				"/>
				<polygon id="Fill-13" class="st5" points="84.2,46.4 87.3,44 84.2,43.2 				"/>
				<polygon id="Fill-14" class="st10" points="80,55.3 73.7,60.1 73.7,60.9 79.9,62.6 				"/>
				<polygon id="Fill-16" class="st5" points="89.9,50.6 90,47.4 86.8,49.8 				"/>
				<polygon id="Fill-17" class="st2" points="76.3,58 83.4,52.1 95.2,55.6 88.8,62.1 				"/>
				<polygon id="Fill-18" class="st5" points="73.3,44.6 80,46.4 79.9,37 73.1,40.9 				"/>
				<polygon id="Fill-19" class="st10" points="73.1,45.9 81,48 81,42 77.9,41.2 73.1,44.2 				"/>
				<polygon id="Fill-21" class="st5" points="89.8,41.9 90,37 85.5,35.9 85.2,45.3 				"/>
				<polygon id="Fill-22" class="st5" points="96.9,51.6 97.3,46.6 92.4,45.3 87.9,49.1 				"/>
				<polygon id="Fill-23" class="st5" points="73.1,49.6 73.3,54.2 77.9,50.9 				"/>
				<polygon id="Fill-24" class="st11" points="73.2,54.2 76.8,51.7 73.1,50.6 				"/>
				<polygon id="Fill-25" class="st5" points="81,59.5 81,54.2 76.3,57.9 				"/>
				<g id="Group-30" transform="translate(67.500000, 61.233766)">
					<polygon id="Fill-26" class="st10" points="21.2,0.8 26.6,-4.8 17.5,-7.6 17.3,-0.5 					"/>
					<polygon id="Fill-28" class="st10" points="16.2,-0.9 17.5,-0.5 21.7,-4.4 21.8,-7.5 16.4,-9 					"/>
				</g>
				<polygon id="Fill-31" class="st11" points="80,59.5 80,55.3 76.3,58.2 				"/>
				<polygon id="Fill-32" class="st11" points="89.9,49.6 90,47.4 87.9,49 				"/>
				<polygon id="Fill-33" class="st11" points="85.2,45.3 87.3,43.8 85.2,43.2 				"/>
				<line id="Fill-34" class="st12" x1="88.9" y1="62.1" x2="94.2" y2="56.9"/>
				<polygon id="Fill-40" class="st11" points="84.8,61 84.7,61 84.9,54.2 89.4,55.5 89.4,57.1 				"/>
				<polygon id="Fill-41" class="st11" points="80,42.2 80,46.9 73.1,45.1 73.1,44.6 77.8,41.7 				"/>
			</g>
		</g>
	</g>
</g>
</svg>
