<?xml version="1.0" standalone="no"?>
<!DOCTYPE svg PUBLIC "-//W3C//DTD SVG 20010904//EN"
 "http://www.w3.org/TR/2001/REC-SVG-20010904/DTD/svg10.dtd">
<svg version="1.0" xmlns="http://www.w3.org/2000/svg"
 width="400.000000pt" height="400.000000pt" viewBox="0 0 400.000000 400.000000"
 preserveAspectRatio="xMidYMid meet">

<g transform="translate(0.000000,400.000000) scale(0.100000,-0.100000)"
fill="#000000" stroke="none">
<path d="M1431 3195 c-81 -25 -121 -82 -121 -172 0 -71 30 -123 90 -153 75
-38 160 -21 218 44 38 43 46 71 40 136 -11 108 -119 178 -227 145z"/>
<path d="M2035 3160 c-53 -16 -88 -62 -92 -122 -14 -184 251 -205 273 -22 12
95 -85 173 -181 144z"/>
<path d="M2625 3117 c-82 -37 -69 -158 20 -187 90 -30 164 87 102 163 -26 33
-79 43 -122 24z"/>
<path d="M1089 2707 c-112 -59 -153 -209 -86 -308 43 -63 89 -91 160 -96 83
-7 128 8 178 60 46 49 75 128 64 180 -33 150 -188 231 -316 164z"/>
<path d="M1705 2674 c-45 -23 -66 -45 -86 -89 -36 -77 -15 -154 58 -214 34
-28 44 -31 107 -31 l69 0 47 48 c39 38 49 56 55 94 12 80 -27 157 -97 194 -36
19 -116 18 -153 -2z"/>
<path d="M2336 2650 c-115 -35 -135 -188 -34 -258 12 -9 43 -15 75 -15 48 0
58 4 89 34 82 79 60 188 -48 234 -42 17 -41 17 -82 5z"/>
<path d="M2925 2605 c-43 -22 -55 -43 -55 -93 0 -89 91 -133 159 -76 59 50 46
140 -24 170 -42 17 -43 17 -80 -1z"/>
<path d="M813 2241 c-70 -24 -113 -59 -146 -119 -57 -105 -41 -218 43 -302
142 -143 369 -79 427 119 37 129 -43 265 -183 307 -60 18 -77 17 -141 -5z"/>
<path d="M1417 2205 c-97 -36 -147 -105 -147 -204 0 -98 40 -159 130 -200 62
-28 115 -27 181 7 173 87 151 342 -34 397 -61 18 -80 18 -130 0z"/>
<path d="M2015 2165 c-109 -38 -151 -188 -78 -275 58 -69 144 -87 223 -47 35
17 51 34 73 76 32 65 33 87 6 150 -22 51 -53 80 -108 99 -43 15 -66 15 -116
-3z"/>
<path d="M2610 2122 c-160 -80 -53 -311 117 -252 49 18 78 66 78 132 0 64 -23
99 -82 124 -43 18 -71 18 -113 -4z"/>
<path d="M3194 2066 c-38 -38 -43 -72 -17 -116 33 -57 104 -66 155 -21 27 24
33 36 33 71 0 35 -6 47 -33 71 -46 42 -93 40 -138 -5z"/>
<path d="M1092 1679 c-154 -77 -162 -286 -15 -380 99 -62 239 -26 295 77 49
91 46 149 -12 236 -54 82 -176 112 -268 67z"/>
<path d="M1705 1648 c-88 -48 -128 -153 -89 -231 38 -75 88 -107 166 -107 84
0 146 46 168 127 23 81 -15 169 -91 209 -33 17 -125 18 -154 2z"/>
<path d="M2279 1581 c-38 -37 -42 -51 -41 -115 2 -60 70 -121 137 -121 67 0
135 61 137 121 1 64 -3 78 -41 115 -36 36 -43 39 -96 39 -53 0 -60 -3 -96 -39z"/>
<path d="M2920 1573 c-39 -27 -49 -45 -50 -86 0 -49 13 -73 52 -93 90 -46 183
57 128 144 -31 51 -86 66 -130 35z"/>
<path d="M1414 1136 c-16 -7 -47 -33 -67 -57 -34 -39 -37 -48 -37 -103 0 -93
43 -153 126 -176 109 -31 224 52 224 161 0 26 -5 60 -11 76 -33 88 -148 136
-235 99z"/>
<path d="M2013 1094 c-86 -43 -99 -176 -23 -233 88 -65 213 -12 226 95 13 107
-104 187 -203 138z"/>
<path d="M2599 1041 c-51 -52 -27 -151 40 -166 74 -16 131 26 131 97 0 89
-107 132 -171 69z"/>
</g>
</svg>
