<?xml version="1.0" standalone="no"?>
<!DOCTYPE svg PUBLIC "-//W3C//DTD SVG 20010904//EN"
 "http://www.w3.org/TR/2001/REC-SVG-20010904/DTD/svg10.dtd">
<svg version="1.0" xmlns="http://www.w3.org/2000/svg"
 width="200.000000pt" height="200.000000pt" viewBox="0 0 200.000000 200.000000"
 preserveAspectRatio="xMidYMid meet">

<g transform="translate(0.000000,200.000000) scale(0.100000,-0.100000)"
fill="#000000" stroke="none">
<path d="M1390 1845 c0 -20 -5 -25 -25 -25 -21 0 -25 -5 -25 -30 0 -27 -3 -30
-30 -30 -27 0 -30 -3 -30 -30 0 -27 -3 -30 -30 -30 -30 0 -30 -1 -30 -55 0
-52 -1 -55 -25 -55 -22 0 -24 -4 -27 -57 -3 -55 -4 -58 -30 -61 l-28 -3 0
-170 0 -169 -85 0 -85 0 0 115 0 115 -30 0 c-30 0 -30 1 -30 54 0 52 -1 55
-27 58 -22 2 -29 9 -31 30 -3 21 -9 27 -30 30 -21 2 -28 9 -30 31 -3 21 -9 27
-27 27 -18 0 -24 6 -27 28 -3 27 -4 27 -85 30 l-83 3 0 -31 0 -30 -84 0 -85 0
-3 -27 c-2 -22 -9 -29 -30 -31 -21 -3 -27 -9 -30 -30 -2 -21 -9 -28 -31 -30
l-27 -3 0 -110 0 -109 30 0 c27 0 30 -3 30 -30 l0 -30 85 0 85 0 0 30 c0 30 1
30 55 30 54 0 55 0 55 -30 0 -27 3 -30 30 -30 27 0 30 -3 30 -30 0 -30 -1 -30
-55 -30 l-55 0 0 -485 0 -485 485 0 485 0 0 485 0 485 -60 0 -60 0 0 30 c0 27
3 30 30 30 30 0 30 1 30 54 0 52 1 55 28 58 26 3 27 6 30 61 3 53 5 57 27 57
24 0 25 3 25 55 0 54 0 55 30 55 l30 0 0 145 0 145 -30 0 c-25 0 -30 4 -30 25
0 25 -1 25 -85 25 -84 0 -85 0 -85 -25z m170 -170 l0 -145 -25 0 c-24 0 -25
-3 -25 -55 0 -54 0 -55 -30 -55 l-30 0 0 -60 0 -60 -30 0 c-30 0 -30 -1 -30
-55 0 -52 -1 -55 -25 -55 -24 0 -25 -3 -25 -55 0 -54 0 -55 -30 -55 l-30 0 0
-60 0 -60 30 0 30 0 -2 -312 -3 -313 -312 -3 -313 -2 0 315 0 315 30 0 31 0
-3 58 c-3 54 -4 57 -30 60 -27 3 -28 6 -28 58 0 53 0 54 -30 54 -30 0 -30 1
-30 55 0 54 0 55 30 55 27 0 30 3 30 30 l0 30 -60 0 -60 0 0 -30 c0 -30 -1
-30 -55 -30 -52 0 -55 -1 -55 -25 0 -25 -1 -25 -85 -25 l-85 0 0 109 0 110 27
3 c22 2 29 9 31 31 l3 27 85 0 84 0 0 30 0 30 85 0 85 0 0 -30 c0 -25 4 -30
24 -30 19 0 25 -6 28 -27 2 -22 9 -29 31 -31 26 -3 27 -6 27 -58 0 -53 0 -54
30 -54 l30 0 0 -200 0 -200 145 0 145 0 0 255 0 255 25 0 c24 0 25 3 25 60 l0
60 30 0 c30 0 30 1 30 54 0 52 1 55 28 58 21 2 28 9 30 31 3 21 9 27 28 27 20
0 24 5 24 30 l0 30 85 0 85 0 0 -145z m-850 -630 c0 -21 -5 -25 -30 -25 l-30
0 0 -375 0 -375 370 0 370 0 0 375 0 375 -25 0 c-20 0 -25 5 -25 25 0 24 3 25
55 25 l55 0 0 -425 0 -425 -430 0 -430 0 0 425 0 425 60 0 c57 0 60 -1 60 -25z
m400 0 c0 -25 -1 -25 -85 -25 -84 0 -85 0 -85 25 0 25 1 25 85 25 84 0 85 0
85 -25z"/>
<path d="M710 1391 c0 -28 3 -31 31 -31 27 0 30 3 27 28 -2 21 -9 28 -30 30
-25 3 -28 0 -28 -27z"/>
<path d="M820 760 c0 -27 -3 -30 -31 -30 -27 0 -30 -3 -27 -27 2 -22 9 -29 31
-31 24 -3 27 0 27 27 0 28 3 31 30 31 27 0 30 -3 30 -31 0 -27 3 -30 28 -27
21 2 28 9 30 31 3 24 0 27 -27 27 -28 0 -31 3 -31 30 0 27 -3 30 -30 30 -27 0
-30 -3 -30 -30z"/>
<path d="M1160 760 c0 -25 -4 -30 -25 -30 -21 0 -25 -5 -25 -31 0 -27 3 -30
28 -27 21 2 28 9 30 31 3 21 9 27 27 27 18 0 24 -6 27 -27 2 -22 9 -29 31 -31
24 -3 27 0 27 27 0 28 -3 31 -30 31 -27 0 -30 3 -30 30 0 27 -3 30 -30 30 -27
0 -30 -3 -30 -30z"/>
<path d="M940 530 c0 -25 4 -30 25 -30 20 0 25 -5 25 -25 0 -21 5 -25 30 -25
25 0 30 4 30 25 0 21 5 25 30 25 27 0 30 3 30 30 l0 30 -85 0 -85 0 0 -30z"/>
</g>
</svg>
