<svg xmlns="http://www.w3.org/2000/svg" x="0" y="0" viewBox="0 0 550 550">
  <defs>
    <style>
      .cls-3{fill-rule:evenodd;fill:#fff}
    </style>
  </defs>
  <path d="M275 32c134.2 0 243 108.795 243 243S409.2 518 275 518 32 409.205 32 275 140.795 32 275 32Zm0 24c120.95 0 219 98.05 219 219s-98.05 219-219 219S56 395.95 56 275 154.05 56 275 56Z" fill-rule="evenodd" fill="#ffb529"/>
  <circle cx="275" cy="275" r="173" fill="#ffb529"/>
  <path class="cls-3" d="m197.234 346.132 77.76-94.745-39.407-32.247a9.965 9.965 0 0 1-1.395-14.038l16.464-20.06-17-13.91a5 5 0 0 0-7.03.7L195.6 209.634l-34-27.821-16.464 20.06 25.5 20.866 6.955 5.69a1.994 1.994 0 0 1 .279 2.808l-10.132 12.344a2 2 0 0 1-2.812.279l-6.954-5.691-25.5-20.865-16.464 20.06 34 27.821-9.625 11.727a52.615 52.615 0 0 0 7.363 74.122 35.2 35.2 0 0 0 49.488-4.902Zm-20.805-72.224 21.53-26.232a2 2 0 0 1 2.812-.278l40.18 32.878a1.994 1.994 0 0 1 .279 2.808l-21.53 26.232a27.956 27.956 0 0 1-43.271-35.408Z"/>
  <path class="cls-3" d="m352.967 346.569-77.836-94.981 39.446-32.326a10 10 0 0 0 1.4-14.073l-16.48-20.11 17.016-13.945a5 5 0 0 1 7.036.7l31.059 37.9 34.032-27.89 16.48 20.11-25.524 20.917-6.961 5.705a2 2 0 0 0-.279 2.815l10.141 12.375a2 2 0 0 0 2.815.279l6.961-5.705 25.524-20.917 16.48 20.11-34.032 27.89 9.635 11.756a52.8 52.8 0 0 1-7.371 74.306 35.2 35.2 0 0 1-49.542-4.916Zm20.826-72.4-21.551-26.3a2 2 0 0 0-2.815-.28l-40.219 32.961a2 2 0 0 0-.28 2.814l21.551 26.3a28 28 0 1 0 43.314-35.498Z"/>
</svg>
