<?xml version="1.0" encoding="utf-8"?>
<!-- Generator: Adobe Illustrator 26.5.0, SVG Export Plug-In . SVG Version: 6.00 Build 0)  -->
<svg version="1.1" id="Layer_1" xmlns="http://www.w3.org/2000/svg" xmlns:xlink="http://www.w3.org/1999/xlink" x="0px" y="0px"
	 viewBox="0 0 1682 619" style="enable-background:new 0 0 1682 619;" xml:space="preserve">
<style type="text/css">
	.st0{fill:#CBFF00;}
	.st1{fill:#1CD7D1;}
	.st2{fill-rule:evenodd;clip-rule:evenodd;fill:#E84142;}
</style>
<g>
	<g>
		<path class="st0" d="M556.4,611.8c-93.3,0-169.2-75.9-169.2-169.1s75.9-169.2,169.2-169.2s169.2,75.9,169.2,169.2
			S649.6,611.8,556.4,611.8z M556.4,312c-72,0-130.6,58.6-130.6,130.6c0,72,58.6,130.6,130.6,130.6c72,0,130.6-58.6,130.6-130.6
			C687,370.6,628.4,312,556.4,312z"/>
		<g>
			<g>
				<g>
					<path class="st0" d="M825.9,436.3c-10.5,0-19.5-7.5-21.2-17.9l-60-353c-1-5.7,0.3-11.4,3.7-16.1c3.3-4.7,8.3-7.8,14-8.8
						c11.7-2,22.9,5.9,24.9,17.6l60,353c1,5.7-0.3,11.4-3.7,16.1c-3.3,4.7-8.3,7.8-14,8.8C828.3,436.2,827.1,436.3,825.9,436.3z"/>
				</g>
			</g>
		</g>
		<path class="st0" d="M926.5,273.5c-34.3,0-66.2,10.3-92.9,27.9l7.3,42.7c23-20,52.9-32.1,85.7-32.1c72,0,130.6,58.6,130.6,130.6
			c0,72-58.6,130.6-130.6,130.6c-72,0-130.6-58.6-130.6-130.6c0-9.6,1.1-19,3-28l-11.6-68c-18.9,27.3-30,60.4-30,96
			c0,93.3,75.9,169.1,169.2,169.1s169.2-75.9,169.2-169.1S1019.8,273.5,926.5,273.5z"/>
		<g>
			<g>
				<g>
					<g>
						<path class="st0" d="M85.9,436.3c-10.5,0-19.5-7.5-21.2-17.9l-60-353C3.7,59.7,5,54,8.3,49.3c3.3-4.7,8.3-7.8,14-8.8
							c11.7-2,22.9,5.9,24.9,17.6l60,353c1,5.7-0.3,11.4-3.7,16.1c-3.3,4.7-8.3,7.8-14,8.8C88.4,436.2,87.2,436.3,85.9,436.3z"/>
					</g>
				</g>
			</g>
			<path class="st0" d="M186.6,273.5c-34.3,0-66.2,10.3-92.9,27.9l7.3,42.7c23-20,52.9-32.1,85.7-32.1c72,0,130.6,58.6,130.6,130.6
				c0,72-58.6,130.6-130.6,130.6c-72,0-130.6-58.6-130.6-130.6c0-9.6,1.1-19,3-28l-11.6-68c-18.9,27.3-30,60.4-30,96
				c0,93.3,75.9,169.1,169.2,169.1s169.2-75.9,169.2-169.1S279.8,273.5,186.6,273.5z"/>
			<g>
				<g>
					<circle class="st1" cx="177.3" cy="518.3" r="23"/>
				</g>
				<g>
					<circle class="st1" cx="249.3" cy="491.5" r="23"/>
				</g>
				<g>
					<circle class="st1" cx="192.7" cy="442.1" r="23"/>
				</g>
				<g>
					<circle class="st1" cx="121.2" cy="465.7" r="23"/>
				</g>
				<g>
					<circle class="st1" cx="264" cy="418.5" r="23"/>
				</g>
				<g>
					<circle class="st1" cx="208.1" cy="365.9" r="23"/>
				</g>
				<g>
					<circle class="st1" cx="135.9" cy="392.7" r="23"/>
				</g>
			</g>
		</g>
		<g>
			<g>
				<circle class="st1" cx="917.3" cy="518.3" r="23"/>
			</g>
			<g>
				<circle class="st1" cx="989.2" cy="491.5" r="23"/>
			</g>
			<g>
				<circle class="st1" cx="932.6" cy="442.1" r="23"/>
			</g>
			<g>
				<circle class="st1" cx="861.1" cy="465.7" r="23"/>
			</g>
			<g>
				<circle class="st1" cx="1003.9" cy="418.5" r="23"/>
			</g>
			<g>
				<circle class="st1" cx="948" cy="365.9" r="23"/>
			</g>
			<g>
				<circle class="st1" cx="875.9" cy="392.7" r="23"/>
			</g>
		</g>
		<g>
			<g>
				<g>
					<g>
						<path class="st0" d="M1396.9,448.6c10.5,0,19.5,7.5,21.2,17.9l21.5,126.9c1,5.7-0.3,11.4-3.7,16.1c-3.3,4.7-8.3,7.8-14,8.8
							c-11.7,2-22.9-5.9-24.9-17.6l-21.5-126.9c-1-5.7,0.3-11.4,3.7-16.1c3.3-4.7,8.3-7.8,14-8.8
							C1394.5,448.7,1395.7,448.6,1396.9,448.6z"/>
					</g>
				</g>
			</g>
			<path class="st0" d="M1296.3,611.4c34.3,0,66.2-10.3,92.9-27.9l-7.3-42.7c-23,20-52.9,32.1-85.7,32.1
				c-72,0-130.6-58.6-130.6-130.6c0-72,58.6-130.6,130.6-130.6c72,0,130.6,58.6,130.6,130.6c0,9.6-1.1,19-3,28l11.6,68
				c18.9-27.3,30-60.4,30-96c0-93.3-75.9-169.2-169.2-169.2s-169.2,75.9-169.2,169.2S1203,611.4,1296.3,611.4z"/>
		</g>
	</g>
	<g>
		<g>
			<path class="st2" d="M1676.8,220.1L1676.8,220.1c-2.7,1.8-7.1,1.8-16,1.8h-60.2c-8.9,0-13.4,0-16-1.7c-2.9-1.9-4.6-5-4.9-8.4
				c-0.2-3.1,2-6.9,6.4-14.5l0.1-0.2l30.1-51.6c4.4-7.6,6.7-11.4,9.4-12.9c3-1.5,6.6-1.5,9.6,0c2.7,1.4,4.9,5,9.1,12.2l0.4,0.6
				L1675,197c0.1,0.3,0.3,0.5,0.4,0.7c4.2,7.2,6.3,10.9,6.2,13.9C1681.5,215,1679.7,218.2,1676.8,220.1z"/>
			<path class="st2" d="M1600.2,83.4c-1.1,4.5-3.5,8.7-8.3,17.2l-54.5,96.4h0l-0.1,0.3c-4.8,8.4-7.2,12.7-10.6,15.9
				c-3.7,3.5-8.1,6.1-12.9,7.5c-4.4,1.2-9.4,1.2-19.3,1.2h-42c-8.8,0-13.2,0-15.9-1.7c-2.9-1.9-4.6-4.9-4.9-8.3
				c-0.2-3.1,2-7,6.4-14.6l103.8-182.9c4.4-7.8,6.7-11.6,9.5-13.1c3-1.6,6.7-1.6,9.7,0c2.8,1.4,5.1,5.3,9.5,13.1l21.3,37.3l0.1,0.2
				c4.8,8.3,7.2,12.5,8.3,17C1601.3,73.5,1601.3,78.6,1600.2,83.4z"/>
		</g>
	</g>
</g>
</svg>
