<?xml version="1.0" encoding="utf-8"?>
<!-- Generator: Adobe Illustrator 26.5.0, SVG Export Plug-In . SVG Version: 6.00 Build 0)  -->
<svg version="1.1" id="Layer_1" xmlns="http://www.w3.org/2000/svg" xmlns:xlink="http://www.w3.org/1999/xlink" x="0px" y="0px"
	 viewBox="0 0 1657 606" style="enable-background:new 0 0 1657 606;" xml:space="preserve">
<style type="text/css">
	.st0{fill:#CBFF00;}
	.st1{fill:#1CD7D1;}
	.st2{fill:#53CBC8;}
	.st3{fill:#E1147B;}
</style>
<g>
	<g>
		<path class="st0" d="M552,599.2c-93.3,0-169.2-75.9-169.2-169.2S458.8,260.9,552,260.9S721.2,336.8,721.2,430
			S645.3,599.2,552,599.2z M552,299.4c-72,0-130.6,58.6-130.6,130.6c0,72,58.6,130.6,130.6,130.6c72,0,130.6-58.6,130.6-130.6
			C682.7,358,624.1,299.4,552,299.4z"/>
		<g>
			<g>
				<g>
					<path class="st0" d="M821.5,423.7c-10.5,0-19.5-7.5-21.2-17.9l-60-353c-1-5.7,0.3-11.4,3.7-16.1c3.3-4.7,8.3-7.8,14-8.8
						c11.7-2,22.9,5.9,24.9,17.6l60,353c1,5.7-0.3,11.4-3.7,16.1c-3.3,4.7-8.3,7.8-14,8.8C824,423.6,822.8,423.7,821.5,423.7z"/>
				</g>
			</g>
		</g>
		<path class="st0" d="M922.2,260.9c-34.3,0-66.2,10.3-92.9,27.9l7.3,42.7c23-20,52.9-32.1,85.7-32.1c72,0,130.6,58.6,130.6,130.6
			c0,72-58.6,130.6-130.6,130.6c-72,0-130.6-58.6-130.6-130.6c0-9.6,1.1-19,3-28L783,334c-18.9,27.3-30,60.4-30,96
			c0,93.3,75.9,169.2,169.2,169.2s169.2-75.9,169.2-169.2S1015.4,260.9,922.2,260.9z"/>
		<g>
			<g>
				<g>
					<g>
						<path class="st0" d="M81.6,423.7c-10.5,0-19.5-7.5-21.2-17.9l-60-353c-1-5.7,0.3-11.4,3.7-16.1c3.3-4.7,8.3-7.8,14-8.8
							c11.7-2,22.9,5.9,24.9,17.6l60,353c1,5.7-0.3,11.4-3.7,16.1c-3.3,4.7-8.3,7.8-14,8.8C84.1,423.6,82.8,423.7,81.6,423.7z"/>
					</g>
				</g>
			</g>
			<path class="st0" d="M182.2,260.9c-34.3,0-66.2,10.3-92.9,27.9l7.3,42.7c23-20,52.9-32.1,85.7-32.1c72,0,130.6,58.6,130.6,130.6
				c0,72-58.6,130.6-130.6,130.6c-72,0-130.6-58.6-130.6-130.6c0-9.6,1.1-19,3-28l-11.6-68c-18.9,27.3-30,60.4-30,96
				c0,93.3,75.9,169.2,169.2,169.2S351.4,523.3,351.4,430S275.5,260.9,182.2,260.9z"/>
			<g>
				<g>
					<circle class="st1" cx="173" cy="505.7" r="23"/>
				</g>
				<g>
					<circle class="st1" cx="244.9" cy="478.9" r="23"/>
				</g>
				<g>
					<circle class="st1" cx="188.4" cy="429.5" r="23"/>
				</g>
				<g>
					<circle class="st1" cx="116.8" cy="453" r="23"/>
				</g>
				<g>
					<circle class="st1" cx="259.7" cy="405.9" r="23"/>
				</g>
				<g>
					<circle class="st1" cx="203.7" cy="353.3" r="23"/>
				</g>
				<g>
					<circle class="st1" cx="131.6" cy="380.1" r="23"/>
				</g>
			</g>
		</g>
		<g>
			<g>
				<circle class="st1" cx="912.9" cy="505.7" r="23"/>
			</g>
			<g>
				<circle class="st1" cx="984.9" cy="478.9" r="23"/>
			</g>
			<g>
				<circle class="st1" cx="928.3" cy="429.5" r="23"/>
			</g>
			<g>
				<circle class="st1" cx="856.8" cy="453" r="23"/>
			</g>
			<g>
				<circle class="st1" cx="999.6" cy="405.9" r="23"/>
			</g>
			<g>
				<circle class="st1" cx="943.7" cy="353.3" r="23"/>
			</g>
			<g>
				<circle class="st1" cx="871.5" cy="380.1" r="23"/>
			</g>
		</g>
		<g>
			<g>
				<g>
					<g>
						<path class="st0" d="M1392.6,436c10.5,0,19.5,7.5,21.2,17.9l21.5,126.9c1,5.7-0.3,11.4-3.7,16.1c-3.3,4.7-8.3,7.8-14,8.8
							c-11.7,2-22.9-5.9-24.9-17.6l-21.5-126.9c-1-5.7,0.3-11.4,3.7-16.1c3.3-4.7,8.3-7.8,14-8.8
							C1390.2,436.1,1391.4,436,1392.6,436z"/>
					</g>
				</g>
			</g>
			<path class="st0" d="M1292,598.8c34.3,0,66.2-10.3,92.9-27.9l-7.3-42.7c-23,20-52.9,32.1-85.7,32.1c-72,0-130.6-58.6-130.6-130.6
				c0-72,58.6-130.6,130.6-130.6c72,0,130.6,58.6,130.6,130.6c0,9.6-1.1,19-3,28l11.6,68c18.9-27.3,30-60.4,30-96
				c0-93.3-75.9-169.2-169.2-169.2s-169.2,75.9-169.2,169.2S1198.7,598.8,1292,598.8z"/>
		</g>
	</g>
	<g>
		<path class="st2" d="M1553.5,81.5c-23.5,0-46.9-0.2-70.4,0.1c-6.4,0.1-8.5-2-8.3-8.5c0.9-37.3,36.3-71.6,73.7-73.5
			c43.6-2.2,77.7,29,83.4,66.7c0.1,0.7,0.3,1.4,0.4,2.2c1.7,11.9,0.8,13-11.4,13C1598.5,81.5,1576,81.5,1553.5,81.5z"/>
		<path class="st3" d="M1553.8,106.9c-28.9,0-57.7,0-86.6,0c-2.2,0-4.4,0.1-6.6-0.3c-2.4-0.4-3.8-2.2-3.7-4.8
			c0.1-2.2,1.3-3.8,3.5-4.2c2.6-0.4,5.3-0.6,8-0.6c57,0,114-0.1,171,0.1c4.2,0,10.9-2,11.1,4.8c0.1,7.2-6.7,4.9-10.8,4.9
			C1611,107,1582.4,106.9,1553.8,106.9z"/>
		<path class="st3" d="M1543.5,151.1c-25.4,0-50.8,0-76.2,0c-2.2,0-4.4,0-6.6-0.3c-2.5-0.4-3.8-2.1-3.7-4.6c0.1-2.5,1.5-4.1,4.1-4.4
			c1.9-0.2,3.9-0.2,5.9-0.2c50.6,0,101.2,0,151.7,0c1.2,0,2.4,0,3.7,0c3.4,0,6.7,0.5,6.6,4.9c-0.1,4.4-3.6,4.6-6.9,4.6
			C1595.8,151.1,1569.6,151.1,1543.5,151.1z"/>
		<path class="st3" d="M1492,119.5c20.5,0,41.1,0,61.6,0c2.2,0,4.4,0.1,6.6,0.4c2.2,0.3,3.3,2,3.5,4.1c0.1,2.2-1.1,4-3.1,4.5
			c-2.1,0.5-4.4,0.5-6.5,0.5c-41.8,0-83.6,0-125.4,0c-3.8,0-9,1.1-9.1-4.6c-0.1-6.4,5.6-4.8,9.4-4.9c17.1-0.1,34.2-0.1,51.3-0.1
			C1484.2,119.5,1488.1,119.5,1492,119.5z"/>
		<path class="st3" d="M1584.5,173.2c-20.5,0-41,0-61.5,0c-2.2,0-4.4,0-6.6-0.3c-2.5-0.4-3.8-2.2-3.7-4.7c0.1-2.1,1.3-3.7,3.5-4.1
			c1.7-0.3,3.4-0.3,5.1-0.3c42.2,0,84.5,0,126.7,0c1.2,0,2.4,0,3.7,0.1c3.2,0.1,5.2,1.5,5,4.9c-0.1,3-2.1,4.3-4.8,4.4
			c-3.2,0.1-6.3,0.1-9.5,0.1C1623.1,173.2,1603.8,173.2,1584.5,173.2z"/>
		<path class="st3" d="M1535.4,217.7c-12.7,0-25.4,0.1-38.1,0c-3.6,0-8.1,0.4-8.3-4.9c-0.2-5.5,4.3-4.9,7.9-4.9
			c25.4,0,50.7,0,76.1,0c3.8,0,8.2,0,8,5c-0.2,5-4.7,4.8-8.4,4.8C1560.3,217.8,1547.9,217.7,1535.4,217.7z"/>
		<path class="st3" d="M1585.9,195.3c-13,0-25.9,0-38.9,0c-3.6,0-7.5-0.3-7.2-5c0.2-4.2,3.7-4.5,7.1-4.5c25.9,0,51.8,0,77.7,0
			c3.6,0,7.4,0,7.2,5c-0.2,4.4-3.8,4.5-7,4.5C1611.8,195.3,1598.9,195.3,1585.9,195.3z"/>
		<path class="st3" d="M1466.4,163.7c9.8,0,19.6,0,29.4,0c3.4,0,6.7,0.3,6.7,4.8c-0.1,4.5-3.6,4.6-6.9,4.6c-19.8,0-39.6,0-59.4,0
			c-3.3,0-6.9-0.1-7-4.5c-0.2-5,3.7-4.9,7.3-4.9C1446.3,163.7,1456.4,163.7,1466.4,163.7z"/>
		<path class="st3" d="M1444.3,97.5c2.9,0.3,4.5,2,4.3,4.8c-0.2,2.8-1.9,4.6-4.8,4.3c-2.8-0.2-4.5-2-4.4-4.9
			C1439.5,99,1441.4,97.5,1444.3,97.5z"/>
		<path class="st3" d="M1406.3,119.7c2.9,0,4.7,1.5,4.9,4.3c0.1,2.8-1.6,4.6-4.4,4.8c-3,0.2-4.6-1.5-4.8-4.3
			C1401.9,121.6,1403.4,119.9,1406.3,119.7z"/>
		<path class="st3" d="M1531.7,190.2c-0.4,3.1-1.7,4.9-4.7,4.9c-2.9,0-4.7-1.5-4.7-4.4c0-2.8,1.5-4.7,4.5-4.7
			C1529.8,185.9,1531,187.9,1531.7,190.2z"/>
		<path class="st3" d="M1448.7,146.1c-0.4,3.1-1.8,4.8-4.7,4.8c-2.9-0.1-4.6-1.8-4.6-4.6c0-2.8,1.8-4.5,4.7-4.5
			C1447,141.8,1448.3,143.6,1448.7,146.1z"/>
		<path class="st3" d="M1475.9,208c2.8,0.2,4.6,1.6,4.7,4.5c0.1,2.9-1.5,4.7-4.4,4.8c-2.8,0.1-4.6-1.4-4.7-4.4
			C1471.4,210,1473,208.4,1475.9,208z"/>
		<path class="st3" d="M1420.6,168.3c-0.2,2.8-1.5,4.6-4.4,4.6c-2.9,0-4.6-1.6-4.7-4.4c-0.1-2.8,1.6-4.5,4.5-4.6
			C1418.9,163.8,1420.3,165.5,1420.6,168.3z"/>
	</g>
</g>
</svg>
