<?xml version="1.0" encoding="utf-8"?>
<!-- Generator: Adobe Illustrator 26.5.0, SVG Export Plug-In . SVG Version: 6.00 Build 0)  -->
<svg version="1.1" id="Layer_1" xmlns="http://www.w3.org/2000/svg" xmlns:xlink="http://www.w3.org/1999/xlink" x="0px" y="0px"
	 viewBox="0 0 1695 608" style="enable-background:new 0 0 1695 608;" xml:space="preserve">
<style type="text/css">
	.st0{fill:#CBFF00;}
	.st1{fill:#1CD7D1;}
	.st2{fill:#F3BA2F;}
</style>
<g>
	<g>
		<path class="st0" d="M552,601.2c-93.3,0-169.2-75.9-169.2-169.2S458.8,262.9,552,262.9S721.2,338.8,721.2,432
			S645.3,601.2,552,601.2z M552,301.4c-72,0-130.6,58.6-130.6,130.6c0,72,58.6,130.6,130.6,130.6c72,0,130.6-58.6,130.6-130.6
			C682.7,360,624.1,301.4,552,301.4z"/>
		<g>
			<g>
				<g>
					<path class="st0" d="M821.5,425.7c-10.5,0-19.5-7.5-21.2-17.9l-60-353c-1-5.7,0.3-11.4,3.7-16.1c3.3-4.7,8.3-7.8,14-8.8
						c11.7-2,22.9,5.9,24.9,17.6l60,353c1,5.7-0.3,11.4-3.7,16.1c-3.3,4.7-8.3,7.8-14,8.8C824,425.6,822.8,425.7,821.5,425.7z"/>
				</g>
			</g>
		</g>
		<path class="st0" d="M922.2,262.9c-34.3,0-66.2,10.3-92.9,27.9l7.3,42.7c23-20,52.9-32.1,85.7-32.1c72,0,130.6,58.6,130.6,130.6
			c0,72-58.6,130.6-130.6,130.6c-72,0-130.6-58.6-130.6-130.6c0-9.6,1.1-19,3-28L783,336c-18.9,27.3-30,60.4-30,96
			c0,93.3,75.9,169.2,169.2,169.2s169.2-75.9,169.2-169.2S1015.4,262.9,922.2,262.9z"/>
		<g>
			<g>
				<g>
					<g>
						<path class="st0" d="M81.6,425.7c-10.5,0-19.5-7.5-21.2-17.9l-60-353c-1-5.7,0.3-11.4,3.7-16.1c3.3-4.7,8.3-7.8,14-8.8
							c11.7-2,22.9,5.9,24.9,17.6l60,353c1,5.7-0.3,11.4-3.7,16.1c-3.3,4.7-8.3,7.8-14,8.8C84.1,425.6,82.8,425.7,81.6,425.7z"/>
					</g>
				</g>
			</g>
			<path class="st0" d="M182.2,262.9c-34.3,0-66.2,10.3-92.9,27.9l7.3,42.7c23-20,52.9-32.1,85.7-32.1c72,0,130.6,58.6,130.6,130.6
				c0,72-58.6,130.6-130.6,130.6c-72,0-130.6-58.6-130.6-130.6c0-9.6,1.1-19,3-28l-11.6-68c-18.9,27.3-30,60.4-30,96
				c0,93.3,75.9,169.2,169.2,169.2S351.4,525.3,351.4,432S275.5,262.9,182.2,262.9z"/>
			<g>
				<g>
					<circle class="st1" cx="173" cy="507.7" r="23"/>
				</g>
				<g>
					<circle class="st1" cx="244.9" cy="480.9" r="23"/>
				</g>
				<g>
					<circle class="st1" cx="188.4" cy="431.5" r="23"/>
				</g>
				<g>
					<circle class="st1" cx="116.8" cy="455" r="23"/>
				</g>
				<g>
					<circle class="st1" cx="259.7" cy="407.9" r="23"/>
				</g>
				<g>
					<circle class="st1" cx="203.7" cy="355.3" r="23"/>
				</g>
				<g>
					<circle class="st1" cx="131.6" cy="382.1" r="23"/>
				</g>
			</g>
		</g>
		<g>
			<g>
				<circle class="st1" cx="912.9" cy="507.7" r="23"/>
			</g>
			<g>
				<circle class="st1" cx="984.9" cy="480.9" r="23"/>
			</g>
			<g>
				<circle class="st1" cx="928.3" cy="431.5" r="23"/>
			</g>
			<g>
				<circle class="st1" cx="856.8" cy="455" r="23"/>
			</g>
			<g>
				<circle class="st1" cx="999.6" cy="407.9" r="23"/>
			</g>
			<g>
				<circle class="st1" cx="943.7" cy="355.3" r="23"/>
			</g>
			<g>
				<circle class="st1" cx="871.5" cy="382.1" r="23"/>
			</g>
		</g>
		<g>
			<g>
				<g>
					<g>
						<path class="st0" d="M1392.6,438c10.5,0,19.5,7.5,21.2,17.9l21.5,126.9c1,5.7-0.3,11.4-3.7,16.1c-3.3,4.7-8.3,7.8-14,8.8
							c-11.7,2-22.9-5.9-24.9-17.6l-21.5-126.9c-1-5.7,0.3-11.4,3.7-16.1c3.3-4.7,8.3-7.8,14-8.8
							C1390.2,438.1,1391.4,438,1392.6,438z"/>
					</g>
				</g>
			</g>
			<path class="st0" d="M1292,600.8c34.3,0,66.2-10.3,92.9-27.9l-7.3-42.7c-23,20-52.9,32.1-85.7,32.1c-72,0-130.6-58.6-130.6-130.6
				c0-72,58.6-130.6,130.6-130.6c72,0,130.6,58.6,130.6,130.6c0,9.6-1.1,19-3,28l11.6,68c18.9-27.3,30-60.4,30-96
				c0-93.3-75.9-169.2-169.2-169.2s-169.2,75.9-169.2,169.2S1198.7,600.8,1292,600.8z"/>
		</g>
	</g>
	<g>
		<g>
			<path class="st2" d="M1561.6-0.5c0.2,0.3,0.4,0.5,0.6,0.7c26.9,26.9,53.8,53.8,80.7,80.7c0.6,0.6,0.6,0.6,0,1.3
				c-9.6,9.6-19.3,19.3-28.9,28.9c-0.7,0.7-0.7,0.7-1.3,0c-16.9-16.9-33.7-33.7-50.6-50.6c-0.8-0.8-0.6-0.8-1.4,0
				c-16.8,16.8-33.6,33.6-50.5,50.5c-0.8,0.8-0.7,0.8-1.5,0c-9.6-9.6-19.2-19.2-28.8-28.8c-0.8-0.8-0.7-0.7,0-1.4
				c26.9-26.9,53.7-53.7,80.6-80.6c0.2-0.2,0.5-0.4,0.6-0.7C1561.4-0.5,1561.5-0.5,1561.6-0.5z"/>
			<path class="st2" d="M1695,133.2c-0.3,0.1-0.4,0.4-0.6,0.6c-9.6,9.6-19.3,19.3-28.9,28.9c-0.7,0.7-0.6,0.7-1.3,0
				c-9.7-9.7-19.4-19.4-29-29c-0.6-0.6-0.6-0.5,0-1.2c9.7-9.7,19.4-19.4,29.1-29.1c0.6-0.6,0.5-0.6,1.2,0
				c9.6,9.6,19.3,19.3,28.9,28.9c0.2,0.2,0.4,0.4,0.6,0.6C1695,133,1695,133.1,1695,133.2z"/>
			<path class="st2" d="M1643.5,184.5c0,0.1,0,0.2-0.1,0.2c-0.1,0.1-0.3,0.3-0.4,0.4c-27,27-53.9,53.9-80.9,80.9
				c-0.7,0.7-0.6,0.7-1.3,0c-27-27-53.9-53.9-80.9-80.9c-0.7-0.7-0.7-0.5,0-1.2c9.7-9.7,19.4-19.3,29-29c0.6-0.6,0.6-0.6,1.3,0
				c16.9,16.9,33.7,33.7,50.6,50.6c0.7,0.7,0.6,0.7,1.3,0c16.9-16.9,33.7-33.7,50.6-50.6c0.6-0.6,0.6-0.6,1.2,0
				c9.7,9.7,19.4,19.4,29.1,29.1C1643.2,184.2,1643.4,184.3,1643.5,184.5z"/>
			<path class="st2" d="M1592,133c0,0.1,0,0.2-0.1,0.3c-0.1,0.1-0.2,0.3-0.4,0.4c-9.8,9.8-19.6,19.6-29.4,29.4
				c-0.7,0.7-0.6,0.7-1.2,0c-9.8-9.8-19.6-19.6-29.4-29.4c-0.7-0.7-0.7-0.5,0-1.2c9.8-9.8,19.6-19.6,29.4-29.4
				c0.6-0.6,0.5-0.6,1.2,0c9.8,9.8,19.7,19.7,29.5,29.5C1591.7,132.6,1591.9,132.8,1592,133z"/>
			<path class="st2" d="M1488.3,133.1c0,0-0.1,0.1-0.1,0.2c-0.1,0.1-0.2,0.3-0.4,0.4c-9.7,9.7-19.3,19.3-29,29
				c-0.7,0.7-0.6,0.7-1.2,0c-9.7-9.7-19.3-19.3-29-29c-0.7-0.7-0.7-0.5,0-1.2c9.7-9.7,19.3-19.3,29-29c0.7-0.7,0.5-0.7,1.2,0
				c9.7,9.7,19.3,19.3,29,29c0.1,0.1,0.3,0.3,0.4,0.4C1488.2,132.9,1488.3,133,1488.3,133.1z"/>
		</g>
	</g>
</g>
</svg>
