<svg width="294" height="72" viewBox="0 0 294 72" fill="none" xmlns="http://www.w3.org/2000/svg">
<path d="M21.7451 33.3335H23.0337V34.6668H21.7451V33.3335Z" fill="#19110F"/>
<path d="M21.7451 34.6665H23.0337V35.9998H21.7451V34.6665Z" fill="#DD941A"/>
<path d="M21.7451 36H23.0337V37.3333H21.7451V36Z" fill="#DD941A"/>
<path d="M21.7451 37.3335H23.0337V38.6668H21.7451V37.3335Z" fill="#FFF493"/>
<path d="M21.7451 38.6665H23.0337V39.9998H21.7451V38.6665Z" fill="#FFF493"/>
<path d="M21.7451 40H23.0337V41.3333H21.7451V40Z" fill="#19110F"/>
<path d="M23.0337 33.3335H24.3223V34.6668H23.0337V33.3335Z" fill="#19110F"/>
<path d="M23.0337 34.6665H24.3223V35.9998H23.0337V34.6665Z" fill="#DD941A"/>
<path d="M23.0337 36H24.3223V37.3333H23.0337V36Z" fill="#DD941A"/>
<path d="M23.0337 37.3335H24.3223V38.6668H23.0337V37.3335Z" fill="#DD941A"/>
<path d="M23.0337 38.6665H24.3223V39.9998H23.0337V38.6665Z" fill="#FFF493"/>
<path d="M23.0337 40H24.3223V41.3333H23.0337V40Z" fill="#19110F"/>
<path d="M19.1679 30.6665H20.4565V31.9998H19.1679V30.6665Z" fill="#19110F"/>
<path d="M19.1679 32H20.4565V33.3333H19.1679V32Z" fill="#DD941A"/>
<path d="M19.1679 33.3335H20.4565V34.6668H19.1679V33.3335Z" fill="#DD941A"/>
<path d="M19.1679 34.6665H20.4565V35.9998H19.1679V34.6665Z" fill="#FFF493"/>
<path d="M19.1679 36H20.4565V37.3333H19.1679V36Z" fill="#FFF493"/>
<path d="M19.1679 37.3335H20.4565V38.6668H19.1679V37.3335Z" fill="#FFF493"/>
<path d="M19.1679 38.6665H20.4565V39.9998H19.1679V38.6665Z" fill="#19110F"/>
<path d="M20.4565 32H21.7451V33.3333H20.4565V32Z" fill="#19110F"/>
<path d="M20.4565 33.3335H21.7451V34.6668H20.4565V33.3335Z" fill="#DD941A"/>
<path d="M20.4565 34.6665H21.7451V35.9998H20.4565V34.6665Z" fill="#DD941A"/>
<path d="M20.4565 36H21.7451V37.3333H20.4565V36Z" fill="#FFF493"/>
<path d="M20.4565 37.3335H21.7451V38.6668H20.4565V37.3335Z" fill="#FFF493"/>
<path d="M20.4565 38.6665H21.7451V39.9998H20.4565V38.6665Z" fill="#19110F"/>
<path d="M24.3223 32H25.6108V33.3333H24.3223V32Z" fill="#19110F"/>
<path d="M24.3223 33.3335H25.6108V34.6668H24.3223V33.3335Z" fill="#DD941A"/>
<path d="M24.3223 34.6665H25.6108V35.9998H24.3223V34.6665Z" fill="#DD941A"/>
<path d="M24.3222 36H25.6108V37.3333H24.3222V36Z" fill="#DD941A"/>
<path d="M24.3223 37.3335H25.6108V38.6668H24.3223V37.3335Z" fill="#DD941A"/>
<path d="M24.3223 38.6665H25.6108V39.9998H24.3223V38.6665Z" fill="#FFF493"/>
<path d="M24.3223 40H25.6108V41.3333H24.3223V40Z" fill="#19110F"/>
<path d="M25.6108 32H26.8994V33.3333H25.6108V32Z" fill="#19110F"/>
<path d="M25.6108 33.3335H26.8994V34.6668H25.6108V33.3335Z" fill="#DD941A"/>
<path d="M25.6108 34.6665H26.8994V35.9998H25.6108V34.6665Z" fill="#DD941A"/>
<path d="M25.6108 36H26.8994V37.3333H25.6108V36Z" fill="#DD941A"/>
<path d="M25.6108 37.3335H26.8994V38.6668H25.6108V37.3335Z" fill="#DD941A"/>
<path d="M25.6108 38.6665H26.8994V39.9998H25.6108V38.6665Z" fill="#DD941A"/>
<path d="M25.6108 40H26.8994V41.3333H25.6108V40Z" fill="#DD941A"/>
<path d="M25.6108 41.3335H26.8994V42.6668H25.6108V41.3335Z" fill="#19110F"/>
<path d="M17.8794 29.3335H19.168V30.6668H17.8794V29.3335Z" fill="#19110F"/>
<path d="M17.8794 30.6665H19.168V31.9998H17.8794V30.6665Z" fill="#DD941A"/>
<path d="M17.8794 32H19.168V33.3333H17.8794V32Z" fill="#DD941A"/>
<path d="M17.8794 33.3335H19.168V34.6668H17.8794V33.3335Z" fill="#DD941A"/>
<path d="M17.8794 34.6665H19.168V35.9998H17.8794V34.6665Z" fill="#FFF493"/>
<path d="M17.8794 36H19.168V37.3333H17.8794V36Z" fill="#FFF493"/>
<path d="M17.8794 37.3335H19.168V38.6668H17.8794V37.3335Z" fill="#19110F"/>
<path d="M16.5908 28H17.8794V29.3333H16.5908V28Z" fill="#19110F"/>
<path d="M16.5908 29.3335H17.8794V30.6668H16.5908V29.3335Z" fill="#DD941A"/>
<path d="M16.5908 30.6665H17.8794V31.9998H16.5908V30.6665Z" fill="#DD941A"/>
<path d="M16.5908 32H17.8794V33.3333H16.5908V32Z" fill="#DD941A"/>
<path d="M16.5908 33.3335H17.8794V34.6668H16.5908V33.3335Z" fill="#FFF493"/>
<path d="M16.5908 34.6665H17.8794V35.9998H16.5908V34.6665Z" fill="#FFF493"/>
<path d="M16.5908 36H17.8794V37.3333H16.5908V36Z" fill="#19110F"/>
<path d="M15.3022 26.6665H16.5908V27.9998H15.3022V26.6665Z" fill="#19110F"/>
<path d="M15.3022 28H16.5908V29.3333H15.3022V28Z" fill="#DD941A"/>
<path d="M15.3022 29.3335H16.5908V30.6668H15.3022V29.3335Z" fill="#DD941A"/>
<path d="M15.3022 30.6665H16.5908V31.9998H15.3022V30.6665Z" fill="#DD941A"/>
<path d="M15.3022 32H16.5908V33.3333H15.3022V32Z" fill="#FFF493"/>
<path d="M15.3022 33.3335H16.5908V34.6668H15.3022V33.3335Z" fill="#FFF493"/>
<path d="M15.3022 34.6665H16.5908V35.9998H15.3022V34.6665Z" fill="#19110F"/>
<path d="M14.0137 25.3335H15.3022V26.6668H14.0137V25.3335Z" fill="#19110F"/>
<path d="M14.0137 26.6665H15.3022V27.9998H14.0137V26.6665Z" fill="#DD941A"/>
<path d="M14.0137 28H15.3022V29.3333H14.0137V28Z" fill="#DD941A"/>
<path d="M14.0136 29.3335H15.3022V30.6668H14.0136V29.3335Z" fill="#DD941A"/>
<path d="M14.0136 30.6665H15.3022V31.9998H14.0136V30.6665Z" fill="#FFF493"/>
<path d="M14.0137 32H15.3022V33.3333H14.0137V32Z" fill="#FFF493"/>
<path d="M14.0137 33.3335H15.3022V34.6668H14.0137V33.3335Z" fill="#19110F"/>
<path d="M12.7246 24H14.0132V25.3333H12.7246V24Z" fill="#19110F"/>
<path d="M12.7251 25.3335H14.0137V26.6668H12.7251V25.3335Z" fill="#DD941A"/>
<path d="M12.7251 26.6665H14.0137V27.9998H12.7251V26.6665Z" fill="#DD941A"/>
<path d="M12.7251 28H14.0137V29.3333H12.7251V28Z" fill="#DD941A"/>
<path d="M12.7246 29.3335H14.0132V30.6668H12.7246V29.3335Z" fill="#FFF493"/>
<path d="M12.7246 30.6665H14.0132V31.9998H12.7246V30.6665Z" fill="#19110F"/>
<path d="M12.7251 32H14.0137V33.3333H12.7251V32Z" fill="#19110F"/>
<path d="M11.4365 22.6665H12.7251V23.9998H11.4365V22.6665Z" fill="#19110F"/>
<path d="M11.436 24H12.7246V25.3333H11.436V24Z" fill="#DD941A"/>
<path d="M11.4365 25.3335H12.7251V26.6668H11.4365V25.3335Z" fill="#DD941A"/>
<path d="M11.4365 26.6665H12.7251V27.9998H11.4365V26.6665Z" fill="#DD941A"/>
<path d="M11.4365 28H12.7251V29.3333H11.4365V28Z" fill="#FFF493"/>
<path d="M11.436 29.3335H12.7246V30.6668H11.436V29.3335Z" fill="#19110F"/>
<path d="M10.1475 21.3335H11.436V22.6668H10.1475V21.3335Z" fill="#19110F"/>
<path d="M10.1475 22.6665H11.436V23.9998H10.1475V22.6665Z" fill="#DD941A"/>
<path d="M10.1475 24H11.436V25.3333H10.1475V24Z" fill="#DD941A"/>
<path d="M10.1475 25.3335H11.436V26.6668H10.1475V25.3335Z" fill="#DD941A"/>
<path d="M10.1475 26.6665H11.436V27.9998H10.1475V26.6665Z" fill="#FFF493"/>
<path d="M10.1475 28H11.436V29.3333H10.1475V28Z" fill="#19110F"/>
<path d="M7.57031 20H8.85889V21.3333H7.57031V20Z" fill="#19110F"/>
<path d="M7.57031 21.3335H8.85889V22.6668H7.57031V21.3335Z" fill="#DD941A"/>
<path d="M7.57031 22.6665H8.85889V23.9998H7.57031V22.6665Z" fill="#DD941A"/>
<path d="M7.57031 24H8.85889V25.3333H7.57031V24Z" fill="#19110F"/>
<path d="M8.85889 20H10.1475V21.3333H8.85889V20Z" fill="#19110F"/>
<path d="M8.85889 21.3335H10.1475V22.6668H8.85889V21.3335Z" fill="#DD941A"/>
<path d="M8.85889 22.6665H10.1475V23.9998H8.85889V22.6665Z" fill="#DD941A"/>
<path d="M8.85889 24H10.1475V25.3333H8.85889V24Z" fill="#DD941A"/>
<path d="M8.85889 25.3335H10.1475V26.6668H8.85889V25.3335Z" fill="#19110F"/>
<path d="M8.85889 26.6665H10.1475V27.9998H8.85889V26.6665Z" fill="#19110F"/>
<path d="M3.86569 17.3335H5.1543V18.6668H3.86569V17.3335Z" fill="#19110F"/>
<path d="M3.86569 18.6665H5.1543V19.9998H3.86569V18.6665Z" fill="#DD941A"/>
<path d="M3.86569 20H5.1543V21.3333H3.86569V20Z" fill="#19110F"/>
<path d="M4.99316 18.6665H6.28174V19.9998H4.99316V18.6665Z" fill="#19110F"/>
<path d="M4.99313 20H6.28174V21.3333H4.99313V20Z" fill="#DD941A"/>
<path d="M4.99313 21.3335H6.28174V22.6668H4.99313V21.3335Z" fill="#19110F"/>
<path d="M6.28171 18.6665H7.57031V19.9998H6.28171V18.6665Z" fill="#19110F"/>
<path d="M6.28171 20H7.57031V21.3333H6.28171V20Z" fill="#DD941A"/>
<path d="M6.28171 21.3335H7.57031V22.6668H6.28171V21.3335Z" fill="#DD941A"/>
<path d="M6.28171 22.6665H7.57031V23.9998H6.28171V22.6665Z" fill="#19110F"/>
<path d="M50.0937 14.6665H51.3823V15.9998H50.0937V14.6665Z" fill="#19110F"/>
<path d="M-3.05176e-05 16H1.28857V17.3333H-3.05176e-05V16Z" fill="#19110F"/>
<path d="M-3.05176e-05 17.3335H1.28857V18.6668H-3.05176e-05V17.3335Z" fill="#19110F"/>
<path d="M1.28854 16H2.57715V17.3333H1.28854V16Z" fill="#19110F"/>
<path d="M1.28854 17.3335H2.57715V18.6668H1.28854V17.3335Z" fill="#19110F"/>
<path d="M1.28854 18.6665H2.57715V19.9998H1.28854V18.6665Z" fill="#19110F"/>
<path d="M2.57715 17.3335H3.86572V18.6668H2.57715V17.3335Z" fill="#19110F"/>
<path d="M2.57715 18.6665H3.86572V19.9998H2.57715V18.6665Z" fill="#19110F"/>
<path d="M2.57712 20H3.86572V21.3333H2.57712V20Z" fill="#19110F"/>
<path d="M50.0937 47.5557H51.3823V48.7953H50.0937V47.5557Z" fill="#19110F"/>
<path d="M47.5166 53.3335H48.8052V54.6668H47.5166V53.3335Z" fill="#19110F"/>
<path d="M47.5166 54.6665H48.8052V55.9998H47.5166V54.6665Z" fill="#DD941A"/>
<path d="M47.5166 56H48.8052V57.3333H47.5166V56Z" fill="#19110F"/>
<path d="M47.5166 57.3335H48.8052V58.6668H47.5166V57.3335Z" fill="#DD941A"/>
<path d="M47.5166 58.6665H48.8052V59.9998H47.5166V58.6665Z" fill="#19110F"/>
<path d="M48.8052 53.3335H50.0938V54.6668H48.8052V53.3335Z" fill="#19110F"/>
<path d="M48.8052 54.6665H50.0938V55.9998H48.8052V54.6665Z" fill="#19110F"/>
<path d="M48.8052 56H50.0938V57.3333H48.8052V56Z" fill="#19110F"/>
<path d="M48.8052 57.3335H50.0938V58.6668H48.8052V57.3335Z" fill="#19110F"/>
<path d="M48.8052 58.6665H50.0938V59.9998H48.8052V58.6665Z" fill="#19110F"/>
<path d="M44.9394 52H46.228V53.3333H44.9394V52Z" fill="#19110F"/>
<path d="M44.9394 53.3335H46.228V54.6668H44.9394V53.3335Z" fill="#DD941A"/>
<path d="M44.9394 54.6665H46.228V55.9998H44.9394V54.6665Z" fill="#19110F"/>
<path d="M44.9394 56H46.228V57.3333H44.9394V56Z" fill="#DD941A"/>
<path d="M44.9394 57.3335H46.228V58.6668H44.9394V57.3335Z" fill="#DD941A"/>
<path d="M44.9394 58.6665H46.228V59.9998H44.9394V58.6665Z" fill="#19110F"/>
<path d="M46.228 52H47.5166V53.3333H46.228V52Z" fill="#19110F"/>
<path d="M46.228 53.3335H47.5166V54.6668H46.228V53.3335Z" fill="#DD941A"/>
<path d="M46.228 54.6665H47.5166V55.9998H46.228V54.6665Z" fill="#19110F"/>
<path d="M46.228 56H47.5166V57.3333H46.228V56Z" fill="#19110F"/>
<path d="M46.228 57.3335H47.5166V58.6668H46.228V57.3335Z" fill="#DD941A"/>
<path d="M46.228 58.6665H47.5166V59.9998H46.228V58.6665Z" fill="#19110F"/>
<path d="M42.3623 50.6665H43.6509V51.9998H42.3623V50.6665Z" fill="#19110F"/>
<path d="M42.3623 52H43.6509V53.3333H42.3623V52Z" fill="#DD941A"/>
<path d="M42.3623 53.3335H43.6509V54.6668H42.3623V53.3335Z" fill="#19110F"/>
<path d="M42.3623 54.6665H43.6509V55.9998H42.3623V54.6665Z" fill="#DD941A"/>
<path d="M42.3623 56H43.6509V57.3333H42.3623V56Z" fill="#DD941A"/>
<path d="M42.3623 57.3335H43.6509V58.6668H42.3623V57.3335Z" fill="#19110F"/>
<path d="M43.6509 52H44.9395V53.3333H43.6509V52Z" fill="#19110F"/>
<path d="M43.6509 53.3335H44.9395V54.6668H43.6509V53.3335Z" fill="#DD941A"/>
<path d="M43.6509 54.6665H44.9395V55.9998H43.6509V54.6665Z" fill="#19110F"/>
<path d="M43.6509 56H44.9395V57.3333H43.6509V56Z" fill="#DD941A"/>
<path d="M43.6509 57.3335H44.9395V58.6668H43.6509V57.3335Z" fill="#DD941A"/>
<path d="M43.6509 58.6665H44.9395V59.9998H43.6509V58.6665Z" fill="#19110F"/>
<path d="M41.0737 50.6665H42.3623V51.9998H41.0737V50.6665Z" fill="#19110F"/>
<path d="M41.0737 52H42.3623V53.3333H41.0737V52Z" fill="#DD941A"/>
<path d="M41.0737 53.3335H42.3623V54.6668H41.0737V53.3335Z" fill="#19110F"/>
<path d="M41.0737 54.6665H42.3623V55.9998H41.0737V54.6665Z" fill="#DD941A"/>
<path d="M41.0737 56H42.3623V57.3333H41.0737V56Z" fill="#DD941A"/>
<path d="M41.0737 57.3335H42.3623V58.6668H41.0737V57.3335Z" fill="#19110F"/>
<path d="M53.7988 44.6665H55.0874V45.9998H53.7988V44.6665Z" fill="#19110F"/>
<path d="M53.7988 46H55.0874V47.3333H53.7988V46Z" fill="#19110F"/>
<path d="M53.7988 47.3335H55.0874V48.6668H53.7988V47.3335Z" fill="#19110F"/>
<path d="M52.5762 43.4312H53.8647V44.7645H52.5762V43.4312Z" fill="#19110F"/>
<path d="M52.5762 44.7646H53.8647V46.098H52.5762V44.7646Z" fill="#DD941A"/>
<path d="M52.5762 46.0981H53.8647V47.4315H52.5762V46.0981Z" fill="#DD941A"/>
<path d="M52.5762 47.4312H53.8647V48.7645H52.5762V47.4312Z" fill="#DD941A"/>
<path d="M52.5762 48.7646H53.8647V50.098H52.5762V48.7646Z" fill="#19110F"/>
<path d="M26.8994 32H28.188V33.3333H26.8994V32Z" fill="#19110F"/>
<path d="M26.8994 33.3335H28.188V34.6668H26.8994V33.3335Z" fill="#DD941A"/>
<path d="M26.8994 34.6665H28.188V35.9998H26.8994V34.6665Z" fill="#DD941A"/>
<path d="M26.8994 36H28.188V37.3333H26.8994V36Z" fill="#DD941A"/>
<path d="M26.8994 37.3335H28.188V38.6668H26.8994V37.3335Z" fill="#DD941A"/>
<path d="M26.8994 38.6665H28.188V39.9998H26.8994V38.6665Z" fill="#DD941A"/>
<path d="M26.8994 40H28.188V41.3333H26.8994V40Z" fill="#DD941A"/>
<path d="M26.8994 41.3335H28.188V42.6668H26.8994V41.3335Z" fill="#DD941A"/>
<path d="M26.8994 42.6665H28.188V43.9998H26.8994V42.6665Z" fill="#DD941A"/>
<path d="M26.8994 44H28.188V45.3333H26.8994V44Z" fill="#19110F"/>
<path d="M28.188 32H29.4766V33.3333H28.188V32Z" fill="#19110F"/>
<path d="M28.188 33.3335H29.4766V34.6668H28.188V33.3335Z" fill="#DD941A"/>
<path d="M28.188 34.6665H29.4766V35.9998H28.188V34.6665Z" fill="#DD941A"/>
<path d="M28.188 36H29.4766V37.3333H28.188V36Z" fill="#DD941A"/>
<path d="M28.188 37.3335H29.4766V38.6668H28.188V37.3335Z" fill="#DD941A"/>
<path d="M28.188 38.6665H29.4766V39.9998H28.188V38.6665Z" fill="#DD941A"/>
<path d="M28.188 40H29.4766V41.3333H28.188V40Z" fill="#DD941A"/>
<path d="M28.188 41.3335H29.4766V42.6668H28.188V41.3335Z" fill="#DD941A"/>
<path d="M28.188 42.6665H29.4766V43.9998H28.188V42.6665Z" fill="#DD941A"/>
<path d="M28.188 44H29.4766V45.3333H28.188V44Z" fill="#DD941A"/>
<path d="M28.188 45.3335H29.4766V46.6668H28.188V45.3335Z" fill="#19110F"/>
<path d="M29.4765 30.6665H30.7651V31.9998H29.4765V30.6665Z" fill="#19110F"/>
<path d="M29.4765 32H30.7651V33.3333H29.4765V32Z" fill="#DD941A"/>
<path d="M29.4765 33.3335H30.7651V34.6668H29.4765V33.3335Z" fill="#DD941A"/>
<path d="M29.4765 34.6665H30.7651V35.9998H29.4765V34.6665Z" fill="#DD941A"/>
<path d="M29.4765 36H30.7651V37.3333H29.4765V36Z" fill="#DD941A"/>
<path d="M29.4765 37.3335H30.7651V38.6668H29.4765V37.3335Z" fill="#DD941A"/>
<path d="M29.4765 38.6665H30.7651V39.9998H29.4765V38.6665Z" fill="#DD941A"/>
<path d="M29.4765 40H30.7651V41.3333H29.4765V40Z" fill="#DD941A"/>
<path d="M29.4765 41.3335H30.7651V42.6668H29.4765V41.3335Z" fill="#DD941A"/>
<path d="M29.4765 42.6665H30.7651V43.9998H29.4765V42.6665Z" fill="#DD941A"/>
<path d="M29.4765 44H30.7651V45.3333H29.4765V44Z" fill="#DD941A"/>
<path d="M29.4765 45.3335H30.7651V46.6668H29.4765V45.3335Z" fill="#DD941A"/>
<path d="M29.4765 46.6665H30.7651V47.9998H29.4765V46.6665Z" fill="#19110F"/>
<path d="M30.7651 30.6665H32.0537V31.9998H30.7651V30.6665Z" fill="#19110F"/>
<path d="M30.7651 32H32.0537V33.3333H30.7651V32Z" fill="#DD941A"/>
<path d="M30.7651 33.3335H32.0537V34.6668H30.7651V33.3335Z" fill="#DD941A"/>
<path d="M30.7651 34.6665H32.0537V35.9998H30.7651V34.6665Z" fill="#DD941A"/>
<path d="M30.7651 36H32.0537V37.3333H30.7651V36Z" fill="#DD941A"/>
<path d="M30.7651 37.3335H32.0537V38.6668H30.7651V37.3335Z" fill="#DD941A"/>
<path d="M30.7651 38.6665H32.0537V39.9998H30.7651V38.6665Z" fill="#DD941A"/>
<path d="M30.7651 40H32.0537V41.3333H30.7651V40Z" fill="#DD941A"/>
<path d="M30.7651 41.3335H32.0537V42.6668H30.7651V41.3335Z" fill="#DD941A"/>
<path d="M30.7651 42.6665H32.0537V43.9998H30.7651V42.6665Z" fill="#DD941A"/>
<path d="M30.7651 44H32.0537V45.3333H30.7651V44Z" fill="#DD941A"/>
<path d="M30.7651 45.3335H32.0537V46.6668H30.7651V45.3335Z" fill="#DD941A"/>
<path d="M30.7651 46.6665H32.0537V47.9998H30.7651V46.6665Z" fill="#DD941A"/>
<path d="M30.7651 48H32.0537V49.3333H30.7651V48Z" fill="#19110F"/>
<path d="M32.0537 30.6665H33.3423V31.9998H32.0537V30.6665Z" fill="#19110F"/>
<path d="M32.0537 32H33.3423V33.3333H32.0537V32Z" fill="#DD941A"/>
<path d="M32.0537 33.3335H33.3423V34.6668H32.0537V33.3335Z" fill="#DD941A"/>
<path d="M32.0537 34.6665H33.3423V35.9998H32.0537V34.6665Z" fill="#DD941A"/>
<path d="M32.0537 36H33.3423V37.3333H32.0537V36Z" fill="#DD941A"/>
<path d="M32.0537 37.3335H33.3423V38.6668H32.0537V37.3335Z" fill="#DD941A"/>
<path d="M32.0537 38.6665H33.3423V39.9998H32.0537V38.6665Z" fill="#DD941A"/>
<path d="M32.0537 40H33.3423V41.3333H32.0537V40Z" fill="#DD941A"/>
<path d="M32.0537 41.3335H33.3423V42.6668H32.0537V41.3335Z" fill="#DD941A"/>
<path d="M32.0537 42.6665H33.3423V43.9998H32.0537V42.6665Z" fill="#DD941A"/>
<path d="M32.0537 44H33.3423V45.3333H32.0537V44Z" fill="#DD941A"/>
<path d="M32.0537 45.3335H33.3423V46.6668H32.0537V45.3335Z" fill="#DD941A"/>
<path d="M32.0537 46.6665H33.3423V47.9998H32.0537V46.6665Z" fill="#DD941A"/>
<path d="M32.0537 48H33.3423V49.3333H32.0537V48Z" fill="#DD941A"/>
<path d="M32.0537 49.3335H33.3423V50.6668H32.0537V49.3335Z" fill="#19110F"/>
<path d="M33.3423 30.6665H34.6309V31.9998H33.3423V30.6665Z" fill="#19110F"/>
<path d="M33.3423 32H34.6309V33.3333H33.3423V32Z" fill="#DD941A"/>
<path d="M33.3423 33.3335H34.6309V34.6668H33.3423V33.3335Z" fill="#DD941A"/>
<path d="M33.3423 34.6665H34.6309V35.9998H33.3423V34.6665Z" fill="#DD941A"/>
<path d="M33.3423 36H34.6309V37.3333H33.3423V36Z" fill="#DD941A"/>
<path d="M33.3423 37.3335H34.6309V38.6668H33.3423V37.3335Z" fill="#DD941A"/>
<path d="M33.3423 38.6665H34.6309V39.9998H33.3423V38.6665Z" fill="#DD941A"/>
<path d="M33.3423 40H34.6309V41.3333H33.3423V40Z" fill="#DD941A"/>
<path d="M33.3423 41.3335H34.6309V42.6668H33.3423V41.3335Z" fill="#DD941A"/>
<path d="M33.3423 42.6665H34.6309V43.9998H33.3423V42.6665Z" fill="#DD941A"/>
<path d="M33.3423 44H34.6309V45.3333H33.3423V44Z" fill="#DD941A"/>
<path d="M33.3423 45.3335H34.6309V46.6668H33.3423V45.3335Z" fill="#DD941A"/>
<path d="M33.3423 46.6665H34.6309V47.9998H33.3423V46.6665Z" fill="#DD941A"/>
<path d="M33.3423 48H34.6309V49.3333H33.3423V48Z" fill="#19110F"/>
<path d="M33.3423 49.3335H34.6309V50.6668H33.3423V49.3335Z" fill="#19110F"/>
<path d="M33.3423 50.6665H34.6309V51.9998H33.3423V50.6665Z" fill="#19110F"/>
<path d="M33.3423 52H34.6309V53.3333H33.3423V52Z" fill="#19110F"/>
<path d="M34.6308 30.6665H35.9194V31.9998H34.6308V30.6665Z" fill="#19110F"/>
<path d="M34.6308 32H35.9194V33.3333H34.6308V32Z" fill="#DD941A"/>
<path d="M34.6308 33.3335H35.9194V34.6668H34.6308V33.3335Z" fill="#DD941A"/>
<path d="M34.6308 34.6665H35.9194V35.9998H34.6308V34.6665Z" fill="#DD941A"/>
<path d="M34.6308 36H35.9194V37.3333H34.6308V36Z" fill="#DD941A"/>
<path d="M34.6308 37.3335H35.9194V38.6668H34.6308V37.3335Z" fill="#DD941A"/>
<path d="M34.6308 38.6665H35.9194V39.9998H34.6308V38.6665Z" fill="#DD941A"/>
<path d="M34.6308 40H35.9194V41.3333H34.6308V40Z" fill="#DD941A"/>
<path d="M34.6308 41.3335H35.9194V42.6668H34.6308V41.3335Z" fill="#DD941A"/>
<path d="M34.6308 42.6665H35.9194V43.9998H34.6308V42.6665Z" fill="#DD941A"/>
<path d="M34.6308 44H35.9194V45.3333H34.6308V44Z" fill="#DD941A"/>
<path d="M34.6308 45.3335H35.9194V46.6668H34.6308V45.3335Z" fill="#DD941A"/>
<path d="M34.6308 46.6665H35.9194V47.9998H34.6308V46.6665Z" fill="#DD941A"/>
<path d="M34.6308 48H35.9194V49.3333H34.6308V48Z" fill="#DD941A"/>
<path d="M34.6308 49.3335H35.9194V50.6668H34.6308V49.3335Z" fill="#DD941A"/>
<path d="M34.6308 50.6665H35.9194V51.9998H34.6308V50.6665Z" fill="#DD941A"/>
<path d="M34.6308 52H35.9194V53.3333H34.6308V52Z" fill="#19110F"/>
<path d="M34.6308 53.3335H35.9194V54.6668H34.6308V53.3335Z" fill="#19110F"/>
<path d="M34.6308 54.6665H35.9194V55.9998H34.6308V54.6665Z" fill="#19110F"/>
<path d="M35.9194 30.6665H37.208V31.9998H35.9194V30.6665Z" fill="#19110F"/>
<path d="M35.9194 32H37.208V33.3333H35.9194V32Z" fill="#DD941A"/>
<path d="M35.9194 33.3335H37.208V34.6668H35.9194V33.3335Z" fill="#DD941A"/>
<path d="M35.9194 34.6665H37.208V35.9998H35.9194V34.6665Z" fill="#DD941A"/>
<path d="M35.9194 36H37.208V37.3333H35.9194V36Z" fill="#19110F"/>
<path d="M35.9194 37.3335H37.208V38.6668H35.9194V37.3335Z" fill="#DD941A"/>
<path d="M35.9194 38.6665H37.208V39.9998H35.9194V38.6665Z" fill="#DD941A"/>
<path d="M35.9194 40H37.208V41.3333H35.9194V40Z" fill="#DD941A"/>
<path d="M35.9194 41.3335H37.208V42.6668H35.9194V41.3335Z" fill="#DD941A"/>
<path d="M35.9194 42.6665H37.208V43.9998H35.9194V42.6665Z" fill="#DD941A"/>
<path d="M35.9194 44H37.208V45.3333H35.9194V44Z" fill="#DD941A"/>
<path d="M35.9194 45.3335H37.208V46.6668H35.9194V45.3335Z" fill="#DD941A"/>
<path d="M35.9194 46.6665H37.208V47.9998H35.9194V46.6665Z" fill="#DD941A"/>
<path d="M35.9194 48H37.208V49.3333H35.9194V48Z" fill="#DD941A"/>
<path d="M35.9194 49.3335H37.208V50.6668H35.9194V49.3335Z" fill="#DD941A"/>
<path d="M35.9194 50.6665H37.208V51.9998H35.9194V50.6665Z" fill="#DD941A"/>
<path d="M35.9194 52H37.208V53.3333H35.9194V52Z" fill="#DD941A"/>
<path d="M35.9194 53.3335H37.208V54.6668H35.9194V53.3335Z" fill="#DD941A"/>
<path d="M35.9194 54.6665H37.208V55.9998H35.9194V54.6665Z" fill="#19110F"/>
<path d="M37.208 30.6665H38.4966V31.9998H37.208V30.6665Z" fill="#19110F"/>
<path d="M37.208 32H38.4966V33.3333H37.208V32Z" fill="#DD941A"/>
<path d="M37.208 33.3335H38.4966V34.6668H37.208V33.3335Z" fill="#DD941A"/>
<path d="M37.208 34.6665H38.4966V35.9998H37.208V34.6665Z" fill="#DD941A"/>
<path d="M37.208 36H38.4966V37.3333H37.208V36Z" fill="#DD941A"/>
<path d="M37.208 37.3335H38.4966V38.6668H37.208V37.3335Z" fill="#19110F"/>
<path d="M37.208 38.6665H38.4966V39.9998H37.208V38.6665Z" fill="#DD941A"/>
<path d="M37.208 40H38.4966V41.3333H37.208V40Z" fill="#DD941A"/>
<path d="M37.208 41.3335H38.4966V42.6668H37.208V41.3335Z" fill="#DD941A"/>
<path d="M37.208 42.6665H38.4966V43.9998H37.208V42.6665Z" fill="#DD941A"/>
<path d="M37.208 44H38.4966V45.3333H37.208V44Z" fill="#DD941A"/>
<path d="M37.208 45.3335H38.4966V46.6668H37.208V45.3335Z" fill="#DD941A"/>
<path d="M37.208 46.6665H38.4966V47.9998H37.208V46.6665Z" fill="#19110F"/>
<path d="M37.208 48H38.4966V49.3333H37.208V48Z" fill="#19110F"/>
<path d="M37.208 49.3335H38.4966V50.6668H37.208V49.3335Z" fill="#19110F"/>
<path d="M37.208 50.6665H38.4966V51.9998H37.208V50.6665Z" fill="#19110F"/>
<path d="M37.208 52H38.4966V53.3333H37.208V52Z" fill="#19110F"/>
<path d="M37.208 53.3335H38.4966V54.6668H37.208V53.3335Z" fill="#DD941A"/>
<path d="M37.208 54.6665H38.4966V55.9998H37.208V54.6665Z" fill="#DD941A"/>
<path d="M37.208 56H38.4966V57.3333H37.208V56Z" fill="#19110F"/>
<path d="M38.4966 30.6665H39.7852V31.9998H38.4966V30.6665Z" fill="#19110F"/>
<path d="M38.4966 32H39.7852V33.3333H38.4966V32Z" fill="#DD941A"/>
<path d="M38.4966 33.3335H39.7852V34.6668H38.4966V33.3335Z" fill="#DD941A"/>
<path d="M38.4966 34.6665H39.7852V35.9998H38.4966V34.6665Z" fill="#DD941A"/>
<path d="M38.4966 36H39.7852V37.3333H38.4966V36Z" fill="#DD941A"/>
<path d="M38.4966 37.3335H39.7852V38.6668H38.4966V37.3335Z" fill="#19110F"/>
<path d="M38.4966 38.6665H39.7852V39.9998H38.4966V38.6665Z" fill="#DD941A"/>
<path d="M38.4966 40H39.7852V41.3333H38.4966V40Z" fill="#DD941A"/>
<path d="M38.4966 41.3335H39.7852V42.6668H38.4966V41.3335Z" fill="#DD941A"/>
<path d="M38.4966 42.6665H39.7852V43.9998H38.4966V42.6665Z" fill="#DD941A"/>
<path d="M38.4966 44H39.7852V45.3333H38.4966V44Z" fill="#DD941A"/>
<path d="M38.4966 45.3335H39.7852V46.6668H38.4966V45.3335Z" fill="#19110F"/>
<path d="M38.4966 46.6665H39.7852V47.9998H38.4966V46.6665Z" fill="#FFF493"/>
<path d="M38.4966 48H39.7852V49.3333H38.4966V48Z" fill="#E1B544"/>
<path d="M38.4966 49.3335H39.7852V50.6668H38.4966V49.3335Z" fill="#DD941A"/>
<path d="M38.4966 50.6665H39.7852V51.9998H38.4966V50.6665Z" fill="#DD941A"/>
<path d="M38.4966 52H39.7852V53.3333H38.4966V52Z" fill="#19110F"/>
<path d="M38.4966 53.3335H39.7852V54.6668H38.4966V53.3335Z" fill="#DD941A"/>
<path d="M38.4966 54.6665H39.7852V55.9998H38.4966V54.6665Z" fill="#DD941A"/>
<path d="M38.4966 56H39.7852V57.3333H38.4966V56Z" fill="#19110F"/>
<path d="M39.7851 30.6665H41.0737V31.9998H39.7851V30.6665Z" fill="#19110F"/>
<path d="M39.7851 32H41.0737V33.3333H39.7851V32Z" fill="#DD941A"/>
<path d="M39.7851 33.3335H41.0737V34.6668H39.7851V33.3335Z" fill="#DD941A"/>
<path d="M39.7851 34.6665H41.0737V35.9998H39.7851V34.6665Z" fill="#DD941A"/>
<path d="M39.7851 36H41.0737V37.3333H39.7851V36Z" fill="#DD941A"/>
<path d="M39.7851 37.3335H41.0737V38.6668H39.7851V37.3335Z" fill="#DD941A"/>
<path d="M39.7851 38.6665H41.0737V39.9998H39.7851V38.6665Z" fill="#19110F"/>
<path d="M39.7851 40H41.0737V41.3333H39.7851V40Z" fill="#19110F"/>
<path d="M39.7851 41.3335H41.0737V42.6668H39.7851V41.3335Z" fill="#19110F"/>
<path d="M39.7851 42.6665H41.0737V43.9998H39.7851V42.6665Z" fill="#19110F"/>
<path d="M39.7851 44H41.0737V45.3333H39.7851V44Z" fill="#19110F"/>
<path d="M39.7851 45.3335H41.0737V46.6668H39.7851V45.3335Z" fill="#FFF493"/>
<path d="M39.7851 46.6665H41.0737V47.9998H39.7851V46.6665Z" fill="#E1B544"/>
<path d="M39.7851 48H41.0737V49.3333H39.7851V48Z" fill="#19110F"/>
<path d="M39.7851 49.3335H41.0737V50.6668H39.7851V49.3335Z" fill="#19110F"/>
<path d="M39.7851 50.6665H41.0737V51.9998H39.7851V50.6665Z" fill="#19110F"/>
<path d="M39.7851 52H41.0737V53.3333H39.7851V52Z" fill="#DD941A"/>
<path d="M39.7851 53.3335H41.0737V54.6668H39.7851V53.3335Z" fill="#19110F"/>
<path d="M39.7851 54.6665H41.0737V55.9998H39.7851V54.6665Z" fill="#DD941A"/>
<path d="M39.7851 56H41.0737V57.3333H39.7851V56Z" fill="#DD941A"/>
<path d="M39.7851 57.3335H41.0737V58.6668H39.7851V57.3335Z" fill="#19110F"/>
<path d="M41.0737 30.6665H42.3623V31.9998H41.0737V30.6665Z" fill="#19110F"/>
<path d="M41.0737 32H42.3623V33.3333H41.0737V32Z" fill="#DD941A"/>
<path d="M41.0737 33.3335H42.3623V34.6668H41.0737V33.3335Z" fill="#DD941A"/>
<path d="M41.0737 34.6665H42.3623V35.9998H41.0737V34.6665Z" fill="#DD941A"/>
<path d="M41.0737 36H42.3623V37.3333H41.0737V36Z" fill="#DD941A"/>
<path d="M41.0737 37.3335H42.3623V38.6668H41.0737V37.3335Z" fill="#DD941A"/>
<path d="M41.0737 38.6665H42.3623V39.9998H41.0737V38.6665Z" fill="#DD941A"/>
<path d="M41.0737 40H42.3623V41.3333H41.0737V40Z" fill="#FFF493"/>
<path d="M41.0737 41.3335H42.3623V42.6668H41.0737V41.3335Z" fill="#FFF493"/>
<path d="M41.0737 42.6665H42.3623V43.9998H41.0737V42.6665Z" fill="#FFF493"/>
<path d="M41.0737 44H42.3623V45.3333H41.0737V44Z" fill="#FFF493"/>
<path d="M41.0737 45.3335H42.3623V46.6668H41.0737V45.3335Z" fill="#E1B544"/>
<path d="M41.0737 46.6665H42.3623V47.9998H41.0737V46.6665Z" fill="#19110F"/>
<path d="M42.3623 30.6665H43.6509V31.9998H42.3623V30.6665Z" fill="#19110F"/>
<path d="M42.3623 32H43.6509V33.3333H42.3623V32Z" fill="#DD941A"/>
<path d="M42.3623 33.3335H43.6509V34.6668H42.3623V33.3335Z" fill="#DD941A"/>
<path d="M42.3623 34.6665H43.6509V35.9998H42.3623V34.6665Z" fill="#DD941A"/>
<path d="M42.3623 36H43.6509V37.3333H42.3623V36Z" fill="#DD941A"/>
<path d="M42.3623 37.3335H43.6509V38.6668H42.3623V37.3335Z" fill="#DD941A"/>
<path d="M42.3623 38.6665H43.6509V39.9998H42.3623V38.6665Z" fill="#DD941A"/>
<path d="M42.3623 40H43.6509V41.3333H42.3623V40Z" fill="#FFF493"/>
<path d="M42.3623 41.3335H43.6509V42.6668H42.3623V41.3335Z" fill="#FFF493"/>
<path d="M42.3623 42.6665H43.6509V43.9998H42.3623V42.6665Z" fill="#FFF493"/>
<path d="M42.3623 44H43.6509V45.3333H42.3623V44Z" fill="#FFF493"/>
<path d="M42.3623 45.3335H43.6509V46.6668H42.3623V45.3335Z" fill="#E1B544"/>
<path d="M42.3623 46.6665H43.6509V47.9998H42.3623V46.6665Z" fill="#19110F"/>
<path d="M43.6509 30.6665H44.9395V31.9998H43.6509V30.6665Z" fill="#19110F"/>
<path d="M43.6509 32H44.9395V33.3333H43.6509V32Z" fill="#DD941A"/>
<path d="M43.6509 33.3335H44.9395V34.6668H43.6509V33.3335Z" fill="#DD941A"/>
<path d="M43.6509 34.6665H44.9395V35.9998H43.6509V34.6665Z" fill="#DD941A"/>
<path d="M43.6509 36H44.9395V37.3333H43.6509V36Z" fill="#DD941A"/>
<path d="M43.6509 37.3335H44.9395V38.6668H43.6509V37.3335Z" fill="#DD941A"/>
<path d="M43.6509 38.6665H44.9395V39.9998H43.6509V38.6665Z" fill="#DD941A"/>
<path d="M43.6509 40H44.9395V41.3333H43.6509V40Z" fill="#FFF493"/>
<path d="M43.6509 41.3335H44.9395V42.6668H43.6509V41.3335Z" fill="#FFF493"/>
<path d="M43.6509 42.6665H44.9395V43.9998H43.6509V42.6665Z" fill="#E1B544"/>
<path d="M43.6509 44H44.9395V45.3333H43.6509V44Z" fill="#E1B544"/>
<path d="M43.6509 45.3335H44.9395V46.6668H43.6509V45.3335Z" fill="#E1B544"/>
<path d="M43.6509 46.6665H44.9395V47.9998H43.6509V46.6665Z" fill="#19110F"/>
<path d="M44.9394 30.6665H46.228V31.9998H44.9394V30.6665Z" fill="#19110F"/>
<path d="M44.9394 32H46.228V33.3333H44.9394V32Z" fill="#DD941A"/>
<path d="M44.9394 33.3335H46.228V34.6668H44.9394V33.3335Z" fill="#DD941A"/>
<path d="M44.9394 34.6665H46.228V35.9998H44.9394V34.6665Z" fill="#DD941A"/>
<path d="M44.9394 36H46.228V37.3333H44.9394V36Z" fill="#DD941A"/>
<path d="M44.9394 37.3335H46.228V38.6668H44.9394V37.3335Z" fill="#DD941A"/>
<path d="M44.9394 38.6665H46.228V39.9998H44.9394V38.6665Z" fill="#DD941A"/>
<path d="M44.9394 40H46.228V41.3333H44.9394V40Z" fill="#FFF493"/>
<path d="M44.9394 41.3335H46.228V42.6668H44.9394V41.3335Z" fill="#FFF493"/>
<path d="M44.9394 42.6665H46.228V43.9998H44.9394V42.6665Z" fill="#E1B544"/>
<path d="M44.9394 44H46.228V45.3333H44.9394V44Z" fill="#19110F"/>
<path d="M44.9394 45.3335H46.228V46.6668H44.9394V45.3335Z" fill="#19110F"/>
<path d="M44.9394 46.6665H46.228V47.9998H44.9394V46.6665Z" fill="#19110F"/>
<path d="M46.228 30.6665H47.5166V31.9998H46.228V30.6665Z" fill="#19110F"/>
<path d="M46.228 32H47.5166V33.3333H46.228V32Z" fill="#DD941A"/>
<path d="M46.228 33.3335H47.5166V34.6668H46.228V33.3335Z" fill="#DD941A"/>
<path d="M46.228 34.6665H47.5166V35.9998H46.228V34.6665Z" fill="#DD941A"/>
<path d="M46.228 36H47.5166V37.3333H46.228V36Z" fill="#DD941A"/>
<path d="M46.228 37.3335H47.5166V38.6668H46.228V37.3335Z" fill="#DD941A"/>
<path d="M46.228 38.6665H47.5166V39.9998H46.228V38.6665Z" fill="#DD941A"/>
<path d="M46.228 40H47.5166V41.3333H46.228V40Z" fill="#19110F"/>
<path d="M46.228 41.3335H47.5166V42.6668H46.228V41.3335Z" fill="#FFF493"/>
<path d="M46.228 42.6665H47.5166V43.9998H46.228V42.6665Z" fill="#E1B544"/>
<path d="M46.228 44H47.5166V45.3333H46.228V44Z" fill="#19110F"/>
<path d="M47.5166 29.3335H48.8052V30.6668H47.5166V29.3335Z" fill="#19110F"/>
<path d="M47.5166 30.6665H48.8052V31.9998H47.5166V30.6665Z" fill="#DD941A"/>
<path d="M47.5166 32H48.8052V33.3333H47.5166V32Z" fill="#DD941A"/>
<path d="M47.5166 33.3335H48.8052V34.6668H47.5166V33.3335Z" fill="#DD941A"/>
<path d="M47.5166 34.6665H48.8052V35.9998H47.5166V34.6665Z" fill="#DD941A"/>
<path d="M47.5166 36H48.8052V37.3333H47.5166V36Z" fill="#DD941A"/>
<path d="M47.5166 37.3335H48.8052V38.6668H47.5166V37.3335Z" fill="#DD941A"/>
<path d="M47.5166 38.6665H48.8052V39.9998H47.5166V38.6665Z" fill="#DD941A"/>
<path d="M47.5166 40H48.8052V41.3333H47.5166V40Z" fill="#19110F"/>
<path d="M47.5166 41.3335H48.8052V42.6668H47.5166V41.3335Z" fill="#E1B544"/>
<path d="M47.5166 42.6665H48.8052V43.9998H47.5166V42.6665Z" fill="#E1B544"/>
<path d="M47.5166 44H48.8052V45.3333H47.5166V44Z" fill="#19110F"/>
<path d="M48.8052 28H50.0938V29.3333H48.8052V28Z" fill="#19110F"/>
<path d="M48.8052 29.3335H50.0938V30.6668H48.8052V29.3335Z" fill="#DD941A"/>
<path d="M48.8052 30.6665H50.0938V31.9998H48.8052V30.6665Z" fill="#DD941A"/>
<path d="M48.8052 32H50.0938V33.3333H48.8052V32Z" fill="#DD941A"/>
<path d="M48.8052 33.3335H50.0938V34.6668H48.8052V33.3335Z" fill="#DD941A"/>
<path d="M48.8052 34.6665H50.0938V35.9998H48.8052V34.6665Z" fill="#DD941A"/>
<path d="M48.8052 36H50.0938V37.3333H48.8052V36Z" fill="#DD941A"/>
<path d="M48.8052 37.3335H50.0938V38.6668H48.8052V37.3335Z" fill="#DD941A"/>
<path d="M48.8052 38.6665H50.0938V39.9998H48.8052V38.6665Z" fill="#DD941A"/>
<path d="M48.8052 40H50.0938V41.3333H48.8052V40Z" fill="#19110F"/>
<path d="M48.8052 41.3335H50.0938V42.6668H48.8052V41.3335Z" fill="#19110F"/>
<path d="M48.8052 42.6665H50.0938V43.9998H48.8052V42.6665Z" fill="#19110F"/>
<path d="M48.8052 44H50.0938V45.3333H48.8052V44Z" fill="#19110F"/>
<path d="M48.8052 45.3335H50.0938V46.6668H48.8052V45.3335Z" fill="#19110F"/>
<path d="M48.8052 46.6665H50.0938V47.9998H48.8052V46.6665Z" fill="#19110F"/>
<path d="M48.8052 48H50.0938V49.3333H48.8052V48Z" fill="#19110F"/>
<path d="M48.8052 49.3335H50.0938V50.6668H48.8052V49.3335Z" fill="#19110F"/>
<path d="M69.4175 21.3706H70.7061V22.7039H69.4175V21.3706Z" fill="#19110F"/>
<path d="M69.4175 22.7036H70.7061V24.0369H69.4175V22.7036Z" fill="black"/>
<path d="M69.4175 24.0371H70.7061V25.3704H69.4175V24.0371Z" fill="#C18217"/>
<path d="M69.4175 25.3706H70.7061V26.7039H69.4175V25.3706Z" fill="#C18217"/>
<path d="M69.4175 26.7036H70.7061V28.0369H69.4175V26.7036Z" fill="#C18217"/>
<path d="M69.4175 28.0371H70.7061V29.3704H69.4175V28.0371Z" fill="#19110F"/>
<path d="M65.5361 20.0322H66.8247V21.3656H65.5361V20.0322Z" fill="#19110F"/>
<path d="M65.5361 21.3657H66.8247V22.6991H65.5361V21.3657Z" fill="#FCAB23"/>
<path d="M65.5361 22.6992H66.8247V24.0326H65.5361V22.6992Z" fill="black"/>
<path d="M65.5361 24.0322H66.8247V25.3656H65.5361V24.0322Z" fill="#DD941A"/>
<path d="M65.5361 25.3657H66.8247V26.6991H65.5361V25.3657Z" fill="#DD941A"/>
<path d="M65.5361 26.6992H66.8247V28.0325H65.5361V26.6992Z" fill="#DD941A"/>
<path d="M65.5361 28.0322H66.8247V29.3656H65.5361V28.0322Z" fill="#C18217"/>
<path d="M65.5361 29.3657H66.8247V30.6991H65.5361V29.3657Z" fill="#19110F"/>
<path d="M64.2422 18.6934H65.5308V20.0267H64.2422V18.6934Z" fill="#19110F"/>
<path d="M64.2422 20.0264H65.5308V21.3597H64.2422V20.0264Z" fill="#FCAB23"/>
<path d="M64.2422 21.3599H65.5308V22.6932H64.2422V21.3599Z" fill="#DD941A"/>
<path d="M64.2422 22.6934H65.5308V24.0267H64.2422V22.6934Z" fill="#DD941A"/>
<path d="M64.2422 24.0264H65.5308V25.3597H64.2422V24.0264Z" fill="#DD941A"/>
<path d="M64.2422 25.3599H65.5308V26.6932H64.2422V25.3599Z" fill="#DD941A"/>
<path d="M64.2422 26.6934H65.5308V28.0267H64.2422V26.6934Z" fill="#DD941A"/>
<path d="M64.2422 28.0264H65.5308V29.3597H64.2422V28.0264Z" fill="#C18217"/>
<path d="M64.2422 29.3599H65.5308V30.6932H64.2422V29.3599Z" fill="#19110F"/>
<path d="M66.8301 20.0322H68.1187V21.3656H66.8301V20.0322Z" fill="#19110F"/>
<path d="M66.8301 21.3657H68.1187V22.6991H66.8301V21.3657Z" fill="#FCAB23"/>
<path d="M66.8301 22.6992H68.1187V24.0326H66.8301V22.6992Z" fill="black"/>
<path d="M66.8301 24.0322H68.1187V25.3656H66.8301V24.0322Z" fill="black"/>
<path d="M66.8301 25.3657H68.1187V26.6991H66.8301V25.3657Z" fill="#DD941A"/>
<path d="M66.8301 26.6992H68.1187V28.0325H66.8301V26.6992Z" fill="#DD941A"/>
<path d="M66.8301 28.0322H68.1187V29.3656H66.8301V28.0322Z" fill="#C18217"/>
<path d="M66.8301 29.3657H68.1187V30.6991H66.8301V29.3657Z" fill="#19110F"/>
<path d="M62.9487 18.6934H64.2373V20.0267H62.9487V18.6934Z" fill="#19110F"/>
<path d="M62.9487 20.0264H64.2373V21.3597H62.9487V20.0264Z" fill="#FCAB23"/>
<path d="M62.9487 21.3599H64.2373V22.6932H62.9487V21.3599Z" fill="#DD941A"/>
<path d="M62.9487 22.6934H64.2373V24.0267H62.9487V22.6934Z" fill="#DD941A"/>
<path d="M62.9487 24.0264H64.2373V25.3597H62.9487V24.0264Z" fill="#DD941A"/>
<path d="M62.9487 25.3599H64.2373V26.6932H62.9487V25.3599Z" fill="#DD941A"/>
<path d="M62.9487 26.6934H64.2373V28.0267H62.9487V26.6934Z" fill="#DD941A"/>
<path d="M62.9487 28.0264H64.2373V29.3597H62.9487V28.0264Z" fill="#C18217"/>
<path d="M62.9487 29.3599H64.2373V30.6932H62.9487V29.3599Z" fill="#C18217"/>
<path d="M62.9487 30.6934H64.2373V32.0267H62.9487V30.6934Z" fill="#19110F"/>
<path d="M61.6543 18.6934H62.9429V20.0267H61.6543V18.6934Z" fill="#19110F"/>
<path d="M61.6543 20.0264H62.9429V21.3597H61.6543V20.0264Z" fill="#FCAB23"/>
<path d="M61.6543 21.3599H62.9429V22.6932H61.6543V21.3599Z" fill="#DD941A"/>
<path d="M61.6543 22.6934H62.9429V24.0267H61.6543V22.6934Z" fill="#FCAB23"/>
<path d="M61.6543 24.0264H62.9429V25.3597H61.6543V24.0264Z" fill="#DD941A"/>
<path d="M61.6543 25.3599H62.9429V26.6932H61.6543V25.3599Z" fill="#DD941A"/>
<path d="M61.6543 26.6934H62.9429V28.0267H61.6543V26.6934Z" fill="#DD941A"/>
<path d="M61.6543 28.0264H62.9429V29.3597H61.6543V28.0264Z" fill="#19110F"/>
<path d="M61.6543 29.3599H62.9429V30.6932H61.6543V29.3599Z" fill="#C18217"/>
<path d="M61.6543 30.6934H62.9429V32.0267H61.6543V30.6934Z" fill="#19110F"/>
<path d="M60.3603 17.355H61.6489V18.6883H60.3603V17.355Z" fill="#19110F"/>
<path d="M60.3603 18.6885H61.6489V20.0218H60.3603V18.6885Z" fill="#FCAB23"/>
<path d="M60.3603 20.022H61.6489V21.3553H60.3603V20.022Z" fill="#19110F"/>
<path d="M60.3603 21.355H61.6489V22.6883H60.3603V21.355Z" fill="#19110F"/>
<path d="M60.3603 22.6885H61.6489V24.0218H60.3603V22.6885Z" fill="#FCAB23"/>
<path d="M60.3603 24.022H61.6489V25.3553H60.3603V24.022Z" fill="#DD941A"/>
<path d="M60.3603 25.355H61.6489V26.6883H60.3603V25.355Z" fill="#DD941A"/>
<path d="M60.3603 26.6885H61.6489V28.0218H60.3603V26.6885Z" fill="#DD941A"/>
<path d="M60.3603 28.022H61.6489V29.3553H60.3603V28.022Z" fill="#19110F"/>
<path d="M60.3603 29.355H61.6489V30.6883H60.3603V29.355Z" fill="#C18217"/>
<path d="M60.3603 30.6885H61.6489V32.0218H60.3603V30.6885Z" fill="#19110F"/>
<path d="M68.123 20.0322H69.4116V21.3656H68.123V20.0322Z" fill="#19110F"/>
<path d="M68.123 21.3657H69.4116V22.6991H68.123V21.3657Z" fill="#FCAB23"/>
<path d="M68.123 22.6992H69.4116V24.0326H68.123V22.6992Z" fill="black"/>
<path d="M68.123 24.0322H69.4116V25.3656H68.123V24.0322Z" fill="black"/>
<path d="M68.123 25.3657H69.4116V26.6991H68.123V25.3657Z" fill="#DD941A"/>
<path d="M68.123 26.6992H69.4116V28.0325H68.123V26.6992Z" fill="#C18217"/>
<path d="M68.123 28.0322H69.4116V29.3656H68.123V28.0322Z" fill="#19110F"/>
<path d="M70.7114 22.6665H72V23.9998H70.7114V22.6665Z" fill="#19110F"/>
<path d="M70.7114 24H72V25.3333H70.7114V24Z" fill="#19110F"/>
<path d="M70.7114 25.3335H72V26.6668H70.7114V25.3335Z" fill="#19110F"/>
<path d="M70.7114 26.6665H72V27.9998H70.7114V26.6665Z" fill="#19110F"/>
<path d="M50.0937 25.3335H51.3823V26.6668H50.0937V25.3335Z" fill="#19110F"/>
<path d="M50.0937 26.6665H51.3823V27.9998H50.0937V26.6665Z" fill="#19110F"/>
<path d="M50.0937 28H51.3823V29.3333H50.0937V28Z" fill="#DD941A"/>
<path d="M50.0937 29.3335H51.3823V30.6668H50.0937V29.3335Z" fill="#DD941A"/>
<path d="M50.0937 30.6665H51.3823V31.9998H50.0937V30.6665Z" fill="#DD941A"/>
<path d="M50.0937 32H51.3823V33.3333H50.0937V32Z" fill="#DD941A"/>
<path d="M50.0937 33.3335H51.3823V34.6668H50.0937V33.3335Z" fill="#DD941A"/>
<path d="M50.0937 34.6665H51.3823V35.9998H50.0937V34.6665Z" fill="#DD941A"/>
<path d="M50.0937 36H51.3823V37.3333H50.0937V36Z" fill="#DD941A"/>
<path d="M50.0937 37.3335H51.3823V38.6668H50.0937V37.3335Z" fill="#DD941A"/>
<path d="M50.0937 38.6665H51.3823V39.9998H50.0937V38.6665Z" fill="#DD941A"/>
<path d="M50.0937 40H51.3823V41.3333H50.0937V40Z" fill="#DD941A"/>
<path d="M50.0937 41.3335H51.3823V42.6668H50.0937V41.3335Z" fill="#DD941A"/>
<path d="M50.0937 42.6665H51.3823V43.9998H50.0937V42.6665Z" fill="#DD941A"/>
<path d="M50.0937 44H51.3823V45.3333H50.0937V44Z" fill="#DD941A"/>
<path d="M50.0937 45.3335H51.3823V46.6668H50.0937V45.3335Z" fill="#DD941A"/>
<path d="M50.0937 46.6665H51.3823V47.9998H50.0937V46.6665Z" fill="#19110F"/>
<path d="M50.0937 48H51.3823V49.3333H50.0937V48Z" fill="#DD941A"/>
<path d="M50.0937 49.3335H51.3823V50.6668H50.0937V49.3335Z" fill="#19110F"/>
<path d="M55.186 17.355H56.4746V18.6883H55.186V17.355Z" fill="#19110F"/>
<path d="M55.186 18.6885H56.4746V20.0218H55.186V18.6885Z" fill="#DD941A"/>
<path d="M55.186 20.022H56.4746V21.3553H55.186V20.022Z" fill="#DD941A"/>
<path d="M55.186 21.355H56.4746V22.6883H55.186V21.355Z" fill="#DD941A"/>
<path d="M55.186 22.6885H56.4746V24.0218H55.186V22.6885Z" fill="#FCAB23"/>
<path d="M55.186 24.022H56.4746V25.3553H55.186V24.022Z" fill="#DD941A"/>
<path d="M55.186 25.355H56.4746V26.6883H55.186V25.355Z" fill="#DD941A"/>
<path d="M55.186 26.6885H56.4746V28.0218H55.186V26.6885Z" fill="#DD941A"/>
<path d="M55.186 28.022H56.4746V29.3553H55.186V28.022Z" fill="#DD941A"/>
<path d="M55.186 29.355H56.4746V30.6883H55.186V29.355Z" fill="#C18217"/>
<path d="M55.186 30.6885H56.4746V32.0218H55.186V30.6885Z" fill="#19110F"/>
<path d="M60.4028 14.5776H61.6914V15.8173H60.4028V14.5776Z" fill="#19110F"/>
<path d="M56.479 14.6772H57.7676V16.0106H56.479V14.6772Z" fill="#19110F"/>
<path d="M56.479 16.0107H57.7676V17.3441H56.479V16.0107Z" fill="#19110F"/>
<path d="M56.479 17.3438H57.7676V18.6771H56.479V17.3438Z" fill="#19110F"/>
<path d="M56.479 18.6772H57.7676V20.0106H56.479V18.6772Z" fill="#DD941A"/>
<path d="M56.479 20.0107H57.7676V21.3441H56.479V20.0107Z" fill="#19110F"/>
<path d="M56.479 21.3438H57.7676V22.6771H56.479V21.3438Z" fill="#19110F"/>
<path d="M56.479 22.6772H57.7676V24.0106H56.479V22.6772Z" fill="#FCAB23"/>
<path d="M56.479 24.0107H57.7676V25.3441H56.479V24.0107Z" fill="#DD941A"/>
<path d="M56.479 25.3438H57.7676V26.6771H56.479V25.3438Z" fill="#DD941A"/>
<path d="M56.479 26.6772H57.7676V28.0106H56.479V26.6772Z" fill="#DD941A"/>
<path d="M56.479 28.0107H57.7676V29.3441H56.479V28.0107Z" fill="#DD941A"/>
<path d="M56.479 29.3438H57.7676V30.6771H56.479V29.3438Z" fill="#C18217"/>
<path d="M56.479 30.6772H57.7676V32.0106H56.479V30.6772Z" fill="#19110F"/>
<path d="M53.8921 14.6772H55.1807V16.0106H53.8921V14.6772Z" fill="#19110F"/>
<path d="M53.8921 16.0107H55.1807V17.3441H53.8921V16.0107Z" fill="#19110F"/>
<path d="M53.8921 17.3438H55.1807V18.6771H53.8921V17.3438Z" fill="#19110F"/>
<path d="M53.8921 18.6772H55.1807V20.0106H53.8921V18.6772Z" fill="#DD941A"/>
<path d="M53.8921 20.0107H55.1807V21.3441H53.8921V20.0107Z" fill="#DD941A"/>
<path d="M53.8921 21.3438H55.1807V22.6771H53.8921V21.3438Z" fill="#DD941A"/>
<path d="M53.8921 22.6772H55.1807V24.0106H53.8921V22.6772Z" fill="#DD941A"/>
<path d="M53.8921 24.0107H55.1807V25.3441H53.8921V24.0107Z" fill="#DD941A"/>
<path d="M53.8921 25.3438H55.1807V26.6771H53.8921V25.3438Z" fill="#DD941A"/>
<path d="M53.8921 26.6772H55.1807V28.0106H53.8921V26.6772Z" fill="#DD941A"/>
<path d="M53.8921 28.0107H55.1807V29.3441H53.8921V28.0107Z" fill="#DD941A"/>
<path d="M53.8921 29.3438H55.1807V30.6771H53.8921V29.3438Z" fill="#19110F"/>
<path d="M53.8921 30.6772H55.1807V32.0106H53.8921V30.6772Z" fill="#19110F"/>
<path d="M53.8921 32.0107H55.1807V33.3441H53.8921V32.0107Z" fill="#19110F"/>
<path d="M53.8921 33.3438H55.1807V34.6771H53.8921V33.3438Z" fill="#19110F"/>
<path d="M50.0937 13.3335H51.3823V14.6668H50.0937V13.3335Z" fill="#19110F"/>
<path d="M59.0674 12H60.356V13.3333H59.0674V12Z" fill="#19110F"/>
<path d="M59.0674 13.3335H60.356V14.6668H59.0674V13.3335Z" fill="#FCAB23"/>
<path d="M59.0674 14.6665H60.356V15.9998H59.0674V14.6665Z" fill="#FCAB23"/>
<path d="M59.0674 16H60.356V17.3333H59.0674V16Z" fill="#19110F"/>
<path d="M59.0674 17.3335H60.356V18.6668H59.0674V17.3335Z" fill="#19110F"/>
<path d="M59.0674 18.6665H60.356V19.9998H59.0674V18.6665Z" fill="#DD941A"/>
<path d="M59.0674 20H60.356V21.3333H59.0674V20Z" fill="#DD941A"/>
<path d="M59.0674 21.3335H60.356V22.6668H59.0674V21.3335Z" fill="#DD941A"/>
<path d="M59.0674 22.6665H60.356V23.9998H59.0674V22.6665Z" fill="#DD941A"/>
<path d="M59.0674 24H60.356V25.3333H59.0674V24Z" fill="#DD941A"/>
<path d="M59.0674 25.3335H60.356V26.6668H59.0674V25.3335Z" fill="#DD941A"/>
<path d="M59.0674 26.6665H60.356V27.9998H59.0674V26.6665Z" fill="#DD941A"/>
<path d="M59.0674 28H60.356V29.3333H59.0674V28Z" fill="#19110F"/>
<path d="M59.0674 29.3335H60.356V30.6668H59.0674V29.3335Z" fill="#C18217"/>
<path d="M59.0674 30.6665H60.356V31.9998H59.0674V30.6665Z" fill="#19110F"/>
<path d="M57.7734 13.3389H59.062V14.6722H57.7734V13.3389Z" fill="#19110F"/>
<path d="M57.7734 14.6724H59.062V16.0057H57.7734V14.6724Z" fill="#DD941A"/>
<path d="M57.7734 16.0054H59.062V17.3387H57.7734V16.0054Z" fill="#DD941A"/>
<path d="M57.7734 17.3389H59.062V18.6722H57.7734V17.3389Z" fill="#DD941A"/>
<path d="M57.7734 18.6724H59.062V20.0057H57.7734V18.6724Z" fill="#DD941A"/>
<path d="M57.7734 20.0054H59.062V21.3387H57.7734V20.0054Z" fill="#DD941A"/>
<path d="M57.7734 21.3389H59.062V22.6722H57.7734V21.3389Z" fill="#DD941A"/>
<path d="M57.7734 22.6724H59.062V24.0057H57.7734V22.6724Z" fill="#DD941A"/>
<path d="M57.7734 24.0054H59.062V25.3387H57.7734V24.0054Z" fill="#DD941A"/>
<path d="M57.7734 25.3389H59.062V26.6722H57.7734V25.3389Z" fill="#DD941A"/>
<path d="M57.7734 26.6724H59.062V28.0057H57.7734V26.6724Z" fill="#19110F"/>
<path d="M57.7734 28.0054H59.062V29.3387H57.7734V28.0054Z" fill="#DD941A"/>
<path d="M57.7734 29.3389H59.062V30.6722H57.7734V29.3389Z" fill="#C18217"/>
<path d="M57.7734 30.6724H59.062V32.0057H57.7734V30.6724Z" fill="#19110F"/>
<path d="M60.4028 13.3335H61.6914V14.5731H60.4028V13.3335Z" fill="#19110F"/>
<path d="M51.3047 12H52.5933V13.3333H51.3047V12Z" fill="#19110F"/>
<path d="M51.3047 13.3335H52.5933V14.6668H51.3047V13.3335Z" fill="#FCAB23"/>
<path d="M51.3047 14.6665H52.5933V15.9998H51.3047V14.6665Z" fill="#DD941A"/>
<path d="M51.3047 16H52.5933V17.3333H51.3047V16Z" fill="#DD941A"/>
<path d="M51.3047 17.3335H52.5933V18.6668H51.3047V17.3335Z" fill="#19110F"/>
<path d="M51.3047 18.6665H52.5933V19.9998H51.3047V18.6665Z" fill="#19110F"/>
<path d="M51.3047 20H52.5933V21.3333H51.3047V20Z" fill="#19110F"/>
<path d="M51.3047 21.3335H52.5933V22.6668H51.3047V21.3335Z" fill="#19110F"/>
<path d="M51.3047 22.6665H52.5933V23.9998H51.3047V22.6665Z" fill="#19110F"/>
<path d="M51.3047 24H52.5933V25.3333H51.3047V24Z" fill="#19110F"/>
<path d="M51.3047 25.3335H52.5933V26.6668H51.3047V25.3335Z" fill="#DD941A"/>
<path d="M51.3047 26.6665H52.5933V27.9998H51.3047V26.6665Z" fill="#DD941A"/>
<path d="M51.3047 28H52.5933V29.3333H51.3047V28Z" fill="#DD941A"/>
<path d="M51.3047 29.3335H52.5933V30.6668H51.3047V29.3335Z" fill="#DD941A"/>
<path d="M51.3047 30.6665H52.5933V31.9998H51.3047V30.6665Z" fill="#DD941A"/>
<path d="M51.3047 32H52.5933V33.3333H51.3047V32Z" fill="#DD941A"/>
<path d="M51.3047 33.3335H52.5933V34.6668H51.3047V33.3335Z" fill="#FFF493"/>
<path d="M51.3047 34.6665H52.5933V35.9998H51.3047V34.6665Z" fill="#FFF493"/>
<path d="M51.3047 36H52.5933V37.3333H51.3047V36Z" fill="#FFF493"/>
<path d="M51.3047 37.3335H52.5933V38.6668H51.3047V37.3335Z" fill="#19110F"/>
<path d="M51.3047 38.6665H52.5933V39.9998H51.3047V38.6665Z" fill="#19110F"/>
<path d="M51.3047 40H52.5933V41.3333H51.3047V40Z" fill="#19110F"/>
<path d="M51.3047 41.3335H52.5933V42.6668H51.3047V41.3335Z" fill="#19110F"/>
<path d="M51.3047 42.6665H52.5933V43.9998H51.3047V42.6665Z" fill="#19110F"/>
<path d="M51.3047 44H52.5933V45.3333H51.3047V44Z" fill="#DD941A"/>
<path d="M51.3047 45.3335H52.5933V46.6668H51.3047V45.3335Z" fill="#DD941A"/>
<path d="M51.3047 46.6665H52.5933V47.9998H51.3047V46.6665Z" fill="#19110F"/>
<path d="M51.3047 48H52.5933V49.3333H51.3047V48Z" fill="#DD941A"/>
<path d="M51.3047 49.3335H52.5933V50.6668H51.3047V49.3335Z" fill="#19110F"/>
<path d="M52.5986 13.3389H53.8872V14.6722H52.5986V13.3389Z" fill="#19110F"/>
<path d="M52.5986 14.6724H53.8872V16.0057H52.5986V14.6724Z" fill="#FCAB23"/>
<path d="M52.5986 16.0054H53.8872V17.3387H52.5986V16.0054Z" fill="#DD941A"/>
<path d="M52.5986 17.3389H53.8872V18.6722H52.5986V17.3389Z" fill="#DD941A"/>
<path d="M52.5986 18.6724H53.8872V20.0057H52.5986V18.6724Z" fill="#DD941A"/>
<path d="M52.5986 20.0054H53.8872V21.3387H52.5986V20.0054Z" fill="#DD941A"/>
<path d="M52.5986 21.3389H53.8872V22.6722H52.5986V21.3389Z" fill="#DD941A"/>
<path d="M52.5986 22.6724H53.8872V24.0057H52.5986V22.6724Z" fill="#DD941A"/>
<path d="M52.5986 24.0054H53.8872V25.3387H52.5986V24.0054Z" fill="#DD941A"/>
<path d="M52.5986 25.3389H53.8872V26.6722H52.5986V25.3389Z" fill="#DD941A"/>
<path d="M52.5986 26.6724H53.8872V28.0057H52.5986V26.6724Z" fill="#DD941A"/>
<path d="M52.5986 28.0054H53.8872V29.3387H52.5986V28.0054Z" fill="#DD941A"/>
<path d="M52.5986 29.3389H53.8872V30.6722H52.5986V29.3389Z" fill="#DD941A"/>
<path d="M52.5986 30.6724H53.8872V32.0057H52.5986V30.6724Z" fill="#FFF493"/>
<path d="M52.5986 32.0054H53.8872V33.3387H52.5986V32.0054Z" fill="#FFF493"/>
<path d="M52.5986 33.3389H53.8872V34.6722H52.5986V33.3389Z" fill="#FFF493"/>
<path d="M52.5986 34.6724H53.8872V36.0057H52.5986V34.6724Z" fill="#19110F"/>
<path d="M52.5986 36.0054H53.8872V37.3387H52.5986V36.0054Z" fill="#19110F"/>
<path d="M50.0937 16H51.3823V17.3333H50.0937V16Z" fill="#19110F"/>
<rect x="84.1191" y="26.2368" width="3.05949" height="3.19588" fill="black"/>
<rect x="87.1787" y="26.2368" width="3.05949" height="3.19588" fill="black"/>
<rect x="89.9321" y="26.2368" width="3.05949" height="3.19588" fill="black"/>
<rect x="92.9917" y="26.2368" width="3.05949" height="3.19588" fill="black"/>
<rect x="84.1191" y="44.7729" width="3.05949" height="3.19588" fill="black"/>
<rect x="84.1191" y="29.4331" width="3.05949" height="3.19588" fill="black"/>
<rect x="96.0508" y="29.4331" width="3.05949" height="3.19588" fill="black"/>
<rect x="107.677" y="26.2368" width="3.05949" height="3.19588" fill="black"/>
<rect x="107.677" y="39.0205" width="3.05949" height="3.19588" fill="black"/>
<rect x="107.677" y="32.6289" width="3.05949" height="3.19588" fill="black"/>
<rect x="110.736" y="32.6289" width="3.05949" height="3.19588" fill="black"/>
<rect x="113.796" y="32.6289" width="3.05949" height="3.19588" fill="black"/>
<rect x="116.855" y="32.6289" width="3.05949" height="3.19588" fill="black"/>
<rect x="119.915" y="32.6289" width="3.05948" height="3.19588" fill="black"/>
<rect x="122.975" y="35.5054" width="3.05949" height="3.19588" fill="black"/>
<rect x="122.975" y="41.897" width="3.05949" height="3.19588" fill="black"/>
<rect x="122.974" y="38.7012" width="3.05949" height="3.19588" fill="black"/>
<rect x="122.975" y="45.0928" width="3.05949" height="3.19588" fill="black"/>
<rect x="122.974" y="48.2886" width="3.05949" height="3.19588" fill="black"/>
<rect x="150.51" y="48.2886" width="3.05949" height="3.19588" fill="black"/>
<rect x="177.434" y="48.2886" width="3.05948" height="3.19588" fill="black"/>
<rect x="170.397" y="48.2886" width="3.05949" height="3.19588" fill="black"/>
<rect x="122.974" y="32.6289" width="3.05949" height="3.19588" fill="black"/>
<rect x="126.034" y="35.5054" width="3.05948" height="3.19588" fill="black"/>
<rect x="135.212" y="32.6289" width="3.05948" height="3.19588" fill="black"/>
<rect x="135.212" y="39.0205" width="3.05947" height="3.19588" fill="black"/>
<rect x="135.212" y="48.2886" width="3.05948" height="3.19588" fill="black"/>
<rect x="162.136" y="48.2886" width="3.05949" height="3.19588" fill="black"/>
<rect x="164.278" y="33.5874" width="3.0595" height="3.19588" fill="black"/>
<rect x="135.212" y="41.897" width="3.05947" height="3.19588" fill="black"/>
<rect x="135.212" y="45.0928" width="3.05947" height="3.19588" fill="black"/>
<rect x="132.153" y="45.0928" width="3.05948" height="3.19588" fill="black"/>
<rect x="141.331" y="32.6289" width="3.05949" height="3.19588" fill="black"/>
<rect x="141.331" y="39.0205" width="3.05948" height="3.19588" fill="black"/>
<rect x="141.331" y="48.2886" width="3.05949" height="3.19588" fill="black"/>
<rect x="168.255" y="48.2886" width="3.05949" height="3.19588" fill="black"/>
<rect x="170.397" y="33.5874" width="3.05949" height="3.19588" fill="black"/>
<rect x="170.397" y="24" width="3.05949" height="3.19588" fill="black"/>
<rect x="147.45" y="32.6289" width="3.05948" height="3.19588" fill="black"/>
<rect x="147.45" y="39.0205" width="3.05949" height="3.19588" fill="black"/>
<rect x="147.45" y="48.2886" width="3.05948" height="3.19588" fill="black"/>
<rect x="174.374" y="48.2886" width="3.05949" height="3.19588" fill="black"/>
<rect x="150.51" y="35.8247" width="3.05949" height="3.19588" fill="black"/>
<rect x="170.397" y="35.8247" width="3.05949" height="3.19588" fill="black"/>
<rect x="170.397" y="26.2368" width="3.05949" height="3.19588" fill="black"/>
<rect x="150.51" y="42.2163" width="3.05949" height="3.19588" fill="black"/>
<rect x="170.397" y="42.2163" width="3.05949" height="3.19588" fill="black"/>
<rect x="187.53" y="42.2163" width="3.05947" height="3.19588" fill="black"/>
<rect x="205.887" y="42.2163" width="3.05953" height="3.19588" fill="black"/>
<rect x="215.065" y="42.2163" width="3.05952" height="3.19588" fill="black"/>
<rect x="215.065" y="32.6289" width="3.05952" height="3.19588" fill="black"/>
<rect x="232.504" y="42.2163" width="3.05952" height="3.19588" fill="black"/>
<rect x="241.989" y="42.2163" width="3.05948" height="3.19588" fill="black"/>
<rect x="263.405" y="42.2163" width="3.05947" height="3.19588" fill="black"/>
<rect x="272.583" y="39.0205" width="3.05948" height="3.19588" fill="black"/>
<rect x="290.94" y="39.0205" width="3.05951" height="3.19588" fill="black"/>
<rect x="272.583" y="48.6084" width="3.05948" height="3.19588" fill="black"/>
<rect x="232.504" y="32.6289" width="3.05952" height="3.19588" fill="black"/>
<rect x="187.53" y="35.8247" width="3.05947" height="3.19588" fill="black"/>
<rect x="205.887" y="35.8247" width="3.05953" height="3.19588" fill="black"/>
<rect x="215.065" y="35.8247" width="3.05952" height="3.19588" fill="black"/>
<rect x="221.184" y="37.4229" width="3.05951" height="3.19588" fill="black"/>
<rect x="248.107" y="32.6289" width="3.05948" height="3.19588" fill="black"/>
<rect x="278.703" y="32.6289" width="3.05944" height="3.19588" fill="black"/>
<rect x="278.703" y="45.4126" width="3.05944" height="3.19588" fill="black"/>
<rect x="248.107" y="48.6084" width="3.05948" height="3.19588" fill="black"/>
<rect x="227.303" y="37.4229" width="3.05948" height="3.19588" fill="black"/>
<rect x="254.227" y="32.6289" width="3.05948" height="3.19588" fill="black"/>
<rect x="284.821" y="32.6289" width="3.05948" height="3.19588" fill="black"/>
<rect x="284.821" y="45.4126" width="3.05948" height="3.19588" fill="black"/>
<rect x="254.227" y="48.6084" width="3.05948" height="3.19588" fill="black"/>
<rect x="215.065" y="26.2368" width="3.05952" height="3.19588" fill="black"/>
<rect x="232.504" y="35.8247" width="3.05952" height="3.19588" fill="black"/>
<rect x="241.989" y="35.8247" width="3.05948" height="3.19588" fill="black"/>
<rect x="263.405" y="35.8247" width="3.05947" height="3.19588" fill="black"/>
<rect x="272.583" y="32.6289" width="3.05948" height="3.19588" fill="black"/>
<rect x="232.504" y="26.2368" width="3.05952" height="3.19588" fill="black"/>
<rect x="150.51" y="39.0205" width="3.05949" height="3.19588" fill="black"/>
<rect x="170.397" y="39.0205" width="3.05949" height="3.19588" fill="black"/>
<rect x="187.53" y="39.0205" width="3.05949" height="3.19588" fill="black"/>
<rect x="205.887" y="39.0205" width="3.05948" height="3.19588" fill="black"/>
<rect x="215.065" y="39.0205" width="3.05952" height="3.19588" fill="black"/>
<rect x="215.065" y="29.4331" width="3.05952" height="3.19588" fill="black"/>
<rect x="232.504" y="39.0205" width="3.05952" height="3.19588" fill="black"/>
<rect x="241.989" y="39.0205" width="3.05948" height="3.19588" fill="black"/>
<rect x="263.405" y="39.0205" width="3.05947" height="3.19588" fill="black"/>
<rect x="272.583" y="35.8247" width="3.05948" height="3.19588" fill="black"/>
<rect x="290.94" y="35.8247" width="3.05946" height="3.19588" fill="black"/>
<rect x="272.583" y="45.4126" width="3.05948" height="3.19588" fill="black"/>
<rect x="232.504" y="29.4331" width="3.05952" height="3.19588" fill="black"/>
<rect x="187.53" y="32.6289" width="3.05947" height="3.19588" fill="black"/>
<rect x="193.649" y="32.6289" width="3.05953" height="3.19588" fill="black"/>
<rect x="199.768" y="32.6289" width="3.05948" height="3.19588" fill="black"/>
<rect x="150.51" y="45.4126" width="3.05949" height="3.19587" fill="black"/>
<rect x="170.397" y="45.4126" width="3.05949" height="3.19588" fill="black"/>
<rect x="187.53" y="45.4126" width="3.05947" height="3.19588" fill="black"/>
<rect x="205.887" y="45.4126" width="3.05953" height="3.19588" fill="black"/>
<rect x="215.065" y="45.4126" width="3.05952" height="3.19587" fill="black"/>
<rect x="232.504" y="45.4126" width="3.05952" height="3.19587" fill="black"/>
<rect x="241.989" y="45.4126" width="3.05948" height="3.19587" fill="black"/>
<rect x="263.405" y="45.4126" width="3.05947" height="3.19587" fill="black"/>
<rect x="272.583" y="42.2163" width="3.05948" height="3.19588" fill="black"/>
<rect x="290.94" y="42.2163" width="3.05946" height="3.19588" fill="black"/>
<rect x="272.583" y="51.8042" width="3.05948" height="3.19587" fill="black"/>
<rect x="187.53" y="48.6084" width="3.05947" height="3.19588" fill="black"/>
<rect x="205.887" y="48.6084" width="3.05953" height="3.19588" fill="black"/>
<rect x="215.065" y="48.6084" width="3.05952" height="3.19588" fill="black"/>
<rect x="232.504" y="48.6084" width="3.05952" height="3.19588" fill="black"/>
<rect x="138.272" y="32.6289" width="3.05949" height="3.19588" fill="black"/>
<rect x="138.272" y="39.0205" width="3.05948" height="3.19588" fill="black"/>
<rect x="138.272" y="48.2886" width="3.05949" height="3.19588" fill="black"/>
<rect x="165.195" y="48.2886" width="3.05948" height="3.19588" fill="black"/>
<rect x="167.337" y="33.5874" width="3.05949" height="3.19588" fill="black"/>
<rect x="144.391" y="32.6289" width="3.05948" height="3.19588" fill="black"/>
<rect x="144.391" y="39.0205" width="3.05949" height="3.19588" fill="black"/>
<rect x="144.391" y="48.2886" width="3.05948" height="3.19588" fill="black"/>
<rect x="171.314" y="48.2886" width="3.05948" height="3.19588" fill="black"/>
<rect x="173.456" y="33.5874" width="3.05949" height="3.19588" fill="black"/>
<rect x="173.456" y="24" width="3.05949" height="3.19588" fill="black"/>
<rect x="150.51" y="32.6289" width="3.05949" height="3.19588" fill="black"/>
<rect x="153.569" y="35.8247" width="3.05948" height="3.19588" fill="black"/>
<rect x="173.456" y="35.8247" width="3.05949" height="3.19588" fill="black"/>
<rect x="173.456" y="26.2368" width="3.05949" height="3.19588" fill="black"/>
<rect x="153.569" y="42.2163" width="3.05948" height="3.19588" fill="black"/>
<rect x="173.456" y="42.2163" width="3.05949" height="3.19588" fill="black"/>
<rect x="190.589" y="42.2163" width="3.05947" height="3.19588" fill="black"/>
<rect x="208.946" y="42.2163" width="3.05949" height="3.19588" fill="black"/>
<rect x="218.125" y="42.2163" width="3.05952" height="3.19588" fill="black"/>
<rect x="218.125" y="32.6289" width="3.05952" height="3.19588" fill="black"/>
<rect x="235.563" y="42.2163" width="3.05953" height="3.19588" fill="black"/>
<rect x="245.048" y="42.2163" width="3.05948" height="3.19588" fill="black"/>
<rect x="260.346" y="42.2163" width="3.05948" height="3.19588" fill="black"/>
<rect x="269.524" y="39.0205" width="3.05948" height="3.19588" fill="black"/>
<rect x="287.881" y="39.0205" width="3.05955" height="3.19588" fill="black"/>
<rect x="269.524" y="48.6084" width="3.05948" height="3.19588" fill="black"/>
<rect x="235.563" y="32.6289" width="3.05953" height="3.19588" fill="black"/>
<rect x="245.048" y="32.6289" width="3.05948" height="3.19588" fill="black"/>
<rect x="275.643" y="32.6289" width="3.05953" height="3.19588" fill="black"/>
<rect x="275.643" y="45.4126" width="3.05953" height="3.19588" fill="black"/>
<rect x="260.346" y="32.6289" width="3.05948" height="3.19588" fill="black"/>
<rect x="190.589" y="35.8247" width="3.05947" height="3.19588" fill="black"/>
<rect x="208.946" y="35.8247" width="3.05949" height="3.19588" fill="black"/>
<rect x="218.125" y="35.8247" width="3.05952" height="3.19588" fill="black"/>
<rect x="224.244" y="37.4229" width="3.05949" height="3.19588" fill="black"/>
<rect x="251.167" y="32.6289" width="3.05948" height="3.19588" fill="black"/>
<rect x="281.762" y="32.6289" width="3.05948" height="3.19588" fill="black"/>
<rect x="281.762" y="45.4126" width="3.05948" height="3.19588" fill="black"/>
<rect x="251.167" y="48.6084" width="3.05948" height="3.19588" fill="black"/>
<rect x="230.363" y="37.4229" width="3.05949" height="3.19588" fill="black"/>
<rect x="257.286" y="32.6289" width="3.05951" height="3.19588" fill="black"/>
<rect x="287.881" y="32.6289" width="3.05946" height="3.19588" fill="black"/>
<rect x="287.881" y="45.4126" width="3.05946" height="3.19588" fill="black"/>
<rect x="257.286" y="48.6084" width="3.05951" height="3.19588" fill="black"/>
<rect x="218.125" y="26.2368" width="3.05949" height="3.19588" fill="black"/>
<rect x="235.563" y="35.8247" width="3.05953" height="3.19588" fill="black"/>
<rect x="245.048" y="35.8247" width="3.05948" height="3.19588" fill="black"/>
<rect x="260.346" y="35.8247" width="3.05948" height="3.19588" fill="black"/>
<rect x="269.524" y="32.6289" width="3.05948" height="3.19588" fill="black"/>
<rect x="235.563" y="26.2368" width="3.05949" height="3.19588" fill="black"/>
<rect x="153.569" y="39.0205" width="3.05948" height="3.19588" fill="black"/>
<rect x="173.456" y="39.0205" width="3.05949" height="3.19588" fill="black"/>
<rect x="190.589" y="39.0205" width="3.05949" height="3.19588" fill="black"/>
<rect x="208.946" y="39.0205" width="3.05953" height="3.19588" fill="black"/>
<rect x="218.125" y="39.0205" width="3.05949" height="3.19588" fill="black"/>
<rect x="218.125" y="29.4331" width="3.05949" height="3.19588" fill="black"/>
<rect x="235.563" y="39.0205" width="3.05949" height="3.19588" fill="black"/>
<rect x="245.048" y="39.0205" width="3.05948" height="3.19588" fill="black"/>
<rect x="260.346" y="39.0205" width="3.05952" height="3.19588" fill="black"/>
<rect x="269.524" y="35.8247" width="3.05948" height="3.19588" fill="black"/>
<rect x="287.881" y="35.8247" width="3.05946" height="3.19588" fill="black"/>
<rect x="269.524" y="45.4126" width="3.05948" height="3.19588" fill="black"/>
<rect x="235.563" y="29.4331" width="3.05949" height="3.19588" fill="black"/>
<rect x="190.589" y="32.6289" width="3.05947" height="3.19588" fill="black"/>
<rect x="196.708" y="32.6289" width="3.05949" height="3.19588" fill="black"/>
<rect x="202.827" y="32.6289" width="3.05948" height="3.19588" fill="black"/>
<rect x="205.887" y="32.6289" width="3.05953" height="3.19588" fill="black"/>
<rect x="153.569" y="45.4126" width="3.05948" height="3.19588" fill="black"/>
<rect x="173.456" y="45.4126" width="3.05949" height="3.19588" fill="black"/>
<rect x="190.589" y="45.4126" width="3.05947" height="3.19588" fill="black"/>
<rect x="208.946" y="45.4126" width="3.05949" height="3.19588" fill="black"/>
<rect x="218.125" y="45.4126" width="3.05952" height="3.19588" fill="black"/>
<rect x="235.563" y="45.4126" width="3.05953" height="3.19588" fill="black"/>
<rect x="245.048" y="45.4126" width="3.05948" height="3.19587" fill="black"/>
<rect x="260.346" y="45.4126" width="3.05948" height="3.19588" fill="black"/>
<rect x="269.524" y="42.2163" width="3.05948" height="3.19588" fill="black"/>
<rect x="287.881" y="42.2163" width="3.05946" height="3.19588" fill="black"/>
<rect x="269.524" y="51.8042" width="3.05948" height="3.19587" fill="black"/>
<rect x="245.048" y="48.6084" width="3.05948" height="3.19588" fill="black"/>
<rect x="260.346" y="48.6084" width="3.05948" height="3.19588" fill="black"/>
<rect x="190.589" y="48.6084" width="3.05947" height="3.19588" fill="black"/>
<rect x="208.946" y="48.6084" width="3.05949" height="3.19588" fill="black"/>
<rect x="218.125" y="48.6084" width="3.05952" height="3.19588" fill="black"/>
<rect x="235.563" y="48.6084" width="3.05953" height="3.19588" fill="black"/>
<rect x="126.034" y="41.897" width="3.05948" height="3.19588" fill="black"/>
<rect x="126.034" y="38.7012" width="3.05948" height="3.19588" fill="black"/>
<rect x="126.034" y="45.0928" width="3.05948" height="3.19588" fill="black"/>
<rect x="126.034" y="48.2886" width="3.05948" height="3.19588" fill="black"/>
<rect x="153.569" y="48.2886" width="3.05948" height="3.19588" fill="black"/>
<rect x="180.493" y="48.2886" width="3.05949" height="3.19588" fill="black"/>
<rect x="173.456" y="48.2886" width="3.05949" height="3.19588" fill="black"/>
<rect x="107.677" y="45.4126" width="3.05949" height="3.19588" fill="black"/>
<rect x="107.677" y="29.4331" width="3.05949" height="3.19588" fill="black"/>
<rect x="107.677" y="42.2163" width="3.05949" height="3.19588" fill="black"/>
<rect x="107.677" y="35.8247" width="3.05949" height="3.19588" fill="black"/>
<rect x="107.677" y="48.6084" width="3.05949" height="3.19588" fill="black"/>
<rect x="96.0508" y="44.7729" width="3.05949" height="3.19588" fill="black"/>
<rect x="84.1191" y="47.9692" width="3.05949" height="3.19588" fill="black"/>
<rect x="87.1787" y="47.9692" width="3.05949" height="3.19588" fill="black"/>
<rect x="89.9321" y="47.9692" width="3.05949" height="3.19588" fill="black"/>
<rect x="92.9917" y="47.9692" width="3.05949" height="3.19588" fill="black"/>
<rect x="81.0596" y="29.4331" width="3.05949" height="3.19588" fill="black"/>
<rect x="92.9917" y="29.4331" width="3.05949" height="3.19588" fill="black"/>
<rect x="104.617" y="26.2368" width="3.05949" height="3.19588" fill="black"/>
<rect x="104.617" y="39.0205" width="3.05949" height="3.19588" fill="black"/>
<rect x="104.617" y="32.6289" width="3.05949" height="3.19588" fill="black"/>
<rect x="104.617" y="45.4126" width="3.05949" height="3.19588" fill="black"/>
<rect x="104.617" y="29.4331" width="3.05949" height="3.19588" fill="black"/>
<rect x="104.617" y="42.2163" width="3.05949" height="3.19588" fill="black"/>
<rect x="104.617" y="35.8247" width="3.05949" height="3.19588" fill="black"/>
<rect x="104.617" y="48.6084" width="3.05949" height="3.19588" fill="black"/>
<rect x="92.9917" y="44.7729" width="3.05949" height="3.19588" fill="black"/>
<rect x="81.0596" y="32.6289" width="3.05949" height="3.19588" fill="black"/>
<rect x="78" y="32.6289" width="3.05949" height="3.19588" fill="black"/>
<rect x="81.0596" y="35.8247" width="3.05949" height="3.19588" fill="black"/>
<rect x="78" y="35.8247" width="3.05949" height="3.19588" fill="black"/>
<rect x="81.0596" y="38.7012" width="3.05949" height="3.19588" fill="black"/>
<rect x="78" y="38.7012" width="3.05949" height="3.19588" fill="black"/>
<rect x="81.0596" y="41.897" width="3.05949" height="3.19588" fill="black"/>
<rect x="78" y="41.897" width="3.05949" height="3.19588" fill="black"/>
<rect x="81.0596" y="45.0928" width="3.05949" height="3.19588" fill="black"/>
</svg>
