<svg id="Capa_1" data-name="Capa 1" xmlns="http://www.w3.org/2000/svg" viewBox="0 0 1878.3 2418.2"><defs><style>.cls-1{fill:#d25254;}.cls-2{fill:#e2c159;}.cls-3{fill:#242424;}</style></defs><path class="cls-1" d="M1485.36,1254.64v129.13a160.66,160.66,0,0,1-160.61,160.61H455.32v-289.1H388.94V1126.8h387.6v32.12a96.51,96.51,0,0,0,96.37,96.36h548.21Z"/><rect class="cls-1" x="905.03" y="447.96" width="64.24" height="807.33"/><path class="cls-1" d="M1485.36,1383.77a160.66,160.66,0,0,1-160.61,160.61H937.15V1383.77Z"/><rect class="cls-2" x="937.15" y="447.96" width="160.61" height="194.87"/><rect class="cls-2" x="774.4" y="447.96" width="162.75" height="194.87"/><rect class="cls-2" x="937.15" y="704.93" width="418.65" height="326.36"/><rect class="cls-2" x="518.5" y="704.93" width="418.65" height="326.36"/><rect class="cls-1" x="776.33" y="1255.5" width="161.04" height="128.27"/><rect class="cls-1" x="615.08" y="1255.28" width="161.04" height="128.27"/><rect class="cls-1" x="937.36" y="1255.28" width="161.04" height="128.27"/><rect class="cls-1" x="1421.12" y="1094.67" width="64.24" height="160.61"/><path class="cls-3" d="M410.6,1850.87c0-72.22,45-127.41,116.86-127.41,60,0,95.39,35.77,100.5,82.1H578.9C574.47,1781,556.07,1765,527.46,1765c-45,0-66.44,37.48-66.44,85.85,0,49.74,25.89,85.51,66.78,85.51,29,0,49.39-17.37,52.46-42.92h48.38A86.26,86.26,0,0,1,601.72,1951c-16.69,15.67-40.2,25.89-73.92,25.89C459.32,1976.92,410.6,1924.12,410.6,1850.87Z"/><path class="cls-3" d="M644.54,1728.23h46.33v243.58H644.54Z"/><path class="cls-3" d="M719.14,1728.23h46.33v41.56H719.14Zm0,68.82h46.33v174.76H719.14Z"/><path class="cls-3" d="M795.45,1797.05h44.63v21.8h1c11.25-15.33,27.6-26.57,51.45-26.57,46.33,0,76,37.81,76,92.32,0,56.55-30.66,92.32-75.63,92.32-24.53,0-40.54-9.88-50.42-24.87h-.68v77H795.45Zm126,88.91c0-33-11.58-56.21-40.2-56.21-28.95,0-40.54,24.87-40.54,56.21,0,31.69,14.65,52.47,42.25,52.47C906.51,1938.43,921.5,1919,921.5,1886Z"/><path class="cls-3" d="M987,1797.05h44.63v21.8h1c11.24-15.33,27.6-26.57,51.44-26.57,46.34,0,76,37.81,76,92.32,0,56.55-30.66,92.32-75.63,92.32-24.52,0-40.54-9.88-50.42-24.87h-.68v77H987ZM1113,1886c0-33-11.58-56.21-40.2-56.21-29,0-40.54,24.87-40.54,56.21,0,31.69,14.65,52.47,42.24,52.47C1098.05,1938.43,1113,1919,1113,1886Z"/><path class="cls-3" d="M1176,1884.26c0-51.78,35.09-92,86.19-92,56.21,0,86.19,42.92,86.19,105.27H1221.64c3.4,26.91,18.39,43.6,44.63,43.6,18,0,28.61-8.17,33.72-21.46h45.65c-6.47,31-34.06,57.23-79,57.23C1208.69,1976.92,1176,1936.38,1176,1884.26Zm46.33-18.74H1300c-1.36-22.14-16-37.47-37.13-37.47C1238.33,1828.05,1226.41,1842.7,1222.32,1865.52Z"/><path class="cls-3" d="M1412.66,1825h1c10.56-19.76,22.48-30,42.92-30,5.11,0,8.18.34,10.9,1.36v40.55h-1c-30.32-3.07-52.12,12.94-52.12,49.73v85.17H1368V1797.05h44.63Z"/></svg>