<?xml version="1.0" encoding="utf-8"?>
<!-- Generator: Adobe Illustrator 26.3.1, SVG Export Plug-In . SVG Version: 6.00 Build 0)  -->
<svg version="1.1" id="katman_1" xmlns="http://www.w3.org/2000/svg" xmlns:xlink="http://www.w3.org/1999/xlink" x="0px" y="0px"
	 viewBox="0 0 219.2 236.3" style="enable-background:new 0 0 219.2 236.3;" xml:space="preserve">
<style type="text/css">
	.st0{fill:#8DC63F;}
	.st1{fill:#FFFFFF;}
	.st2{fill:#8BC53F;}
	.st3{display:none;fill:#58595B;}
</style>
<path class="st0" d="M219.2,117.6c0.3,65.3-48.6,118.4-109.1,118.7C49.6,236.6,0.3,183.9,0,118.7C-0.3,53.4,48.6,0.3,109.1,0
	S218.9,52.4,219.2,117.6z"/>
<path class="st1" d="M210.9,117.7C211.2,178,166,227.1,110,227.4C54.1,227.7,8.5,179,8.3,118.6C8,58.3,53.2,9.2,109.1,8.9
	C165.1,8.6,210.7,57.3,210.9,117.7z"/>
<path class="st1" d="M111.4,16c6.4-1.4,13-1.2,19.5,0c6.5,1.2,12.8,3.3,18.6,6.7c5.8,3.4,10.8,8.1,15.7,12.4
	c5,4.4,9.9,8.8,14.6,13.7c4.8,4.8,9,10.2,12.5,16.2c3.5,6,6.6,12.3,8.7,19c4.2,13.4,5.7,27.8,3.6,41.6H204c-2.1-13.7-5-26.7-9.5-39
	c-2.2-6.2-4.6-12.3-7.5-18.2c-3-5.8-6.2-11.5-9.9-17.1c-3.7-5.5-8.1-10.5-13.2-14.4c-5.1-4-11.1-6.5-16.8-9
	c-5.7-2.5-11.4-4.8-17.4-6.7c-5.9-1.9-12-3.2-18.4-4.6L111.4,16L111.4,16z"/>
<path class="st2" d="M161,79.1c-7.4-2.3-15-5.6-22.7-8.8c-0.4-2.1-2.2-4.7-5.6-7.9c-5-4.7-14.5-4.6-22.7-2.5c-9-2.3-18-3.1-26.5-0.9
	c-70.1,20.8-30.3,71.6-56.1,122.6c3.7,8.4,43.1,57.2,100.2,44.1c0,0-19.5-50.6,24.5-74.9C187.8,131.1,213.6,94.6,161,79.1L161,79.1z
	"/>
<path class="st1" d="M169.6,112.3c0,2.5-1.9,4.6-4.2,4.6c-2.3,0-4.2-2-4.3-4.6c0-2.5,1.9-4.6,4.2-4.6
	C167.7,107.8,169.6,109.8,169.6,112.3L169.6,112.3z"/>
<path class="st2" d="M109.9,59.8c5.1,0.4,23.6,6.9,28.3,10.4C134.3,57.8,120.9,56.2,109.9,59.8C109.9,59.8,109.9,59.8,109.9,59.8z"
	/>
<path class="st1" d="M114.8,91.2c0,11.7-8.8,21.1-19.6,21.1s-19.6-9.4-19.6-21.1s8.8-21.1,19.6-21.1S114.8,79.6,114.8,91.2z"/>
<path class="st3" d="M109,91.4c0,8.2-6.2,14.9-13.8,14.9s-13.8-6.7-13.8-14.9s6.2-14.9,13.8-14.9S109,83.2,109,91.4z"/>
<path class="st2" d="M185.5,121.6c-15.9,12.1-33.9,21.2-59.5,21.2c-12,0-14.4-13.7-22.3-7c-4.1,3.5-18.5,11.2-29.9,10.7
	c-11.5-0.6-30-7.8-35.2-34.2c-2,26.3-3.1,45.7-12.3,68c18.3,31.5,61.8,55.9,101.3,45.4c-4.2-32,21.7-63.3,36.3-79.3
	C169.4,140.3,179.9,130.4,185.5,121.6L185.5,121.6L185.5,121.6z"/>
<path class="st1" d="M184.9,122.4c-4.9,4.8-10.8,8.4-16.8,11.6c-6,3.1-12.3,5.6-18.8,7.4c-6.5,1.8-13.2,3.2-20.1,2.5
	c-6.7-0.6-13.8-3.2-18.4-8.7l0.2-0.3c5.6,3.9,12,5.3,18.4,5.5c6.4,0.2,12.9-0.3,19.3-1.7c6.4-1.4,12.7-3.6,18.8-6.2
	c6.1-2.7,12.1-5.8,17.2-10.3L184.9,122.4L184.9,122.4z"/>
</svg>
