<?xml version="1.0" encoding="UTF-8"?><svg id="katman_1" xmlns="http://www.w3.org/2000/svg" xmlns:xlink="http://www.w3.org/1999/xlink" viewBox="0 0 929.18 850.39"><defs><style>.cls-1{fill:none;}.cls-2{clip-path:url(#clippath);}</style><clipPath id="clippath"><rect class="cls-1" width="929.18" height="850.39"/></clipPath></defs><g class="cls-2"><path d="M531.65,719.68c-14.62,2.24-28.78,5.31-43.09,6.47-85.37,6.87-160.26-20.7-227.88-70.88-34.59-25.67-63.47-56.8-85.94-93.71-1.56-2.56-1.99-4.59-.75-7.63,17.09-41.84,27.56-85.42,32.32-130.28,3.6-33.92,6.15-67.94,9.12-101.92,2.23-25.56,4.81-51.05,13.13-75.55,12.6-37.09,36.57-64.86,69.65-85.21,24.15-14.85,50.15-25.48,77.38-32.93,29.38-8.03,58.75-5.06,87.99,1.59,2.91,.66,6.29,.54,9.18-.23,18.82-4.99,37.7-6.69,56.66-1.15,19.03,5.56,31.7,18.15,39.31,36.27,.83,1.98,2.83,4.03,4.8,4.9,31.8,14.06,64.43,25.89,97.43,36.83,21.29,7.06,41.16,17.26,57.99,32.48,26.49,23.95,33.53,53.61,20.83,87.03-8.56,22.53-22.95,41.18-39.17,58.59-20.55,22.05-41.54,43.72-61.62,66.19-37.4,41.86-70.68,86.64-94,138.13-12.72,28.07-21.82,57.23-24.04,88.11-.85,11.74,.03,23.61,.16,35.43,.02,1.99,.27,3.97,.53,7.48M347.26,242.26c-.4,13.55,3.03,26.11,9.39,37.9,25.74,47.74,89.8,49.61,118.3,3.48,17.82-28.85,14.86-66.45-7.31-92.69-23.22-27.48-63.36-31.84-91.57-9.6-19.6,15.45-28.61,36.17-28.8,60.9"/></g></svg>