<?xml version="1.0" encoding="UTF-8"?><svg id="katman_1" xmlns="http://www.w3.org/2000/svg" viewBox="0 0 219.16 236.31"><defs><style>.cls-1{fill:#f9e988;}.cls-2{fill:#009345;}.cls-3{fill:#fff;}.cls-4{fill:#8dc63f;}.cls-5{fill:#8bc53f;}.cls-6{fill:#58595b;}</style></defs><path class="cls-4" d="M219.16,117.63c.27,65.25-48.57,118.39-109.09,118.68C49.56,236.6,.27,183.94,0,118.69-.27,53.43,48.57,.29,109.09,0c60.52-.29,109.8,52.36,110.07,117.63Z"/><path class="cls-1" d="M210.91,117.66c.25,60.34-44.91,109.48-100.87,109.75-55.97,.27-101.54-48.42-101.78-108.77C8,58.3,53.16,9.17,109.13,8.9c55.96-.27,101.53,48.43,101.78,108.76Z"/><path class="cls-3" d="M111.43,15.98c6.39-1.35,13.02-1.17,19.48-.04,6.46,1.17,12.84,3.32,18.6,6.72,5.77,3.43,10.77,8.07,15.74,12.43,4.96,4.41,9.92,8.81,14.63,13.66,4.75,4.79,9.02,10.23,12.47,16.24,3.51,5.96,6.58,12.29,8.74,18.98,4.23,13.4,5.7,27.84,3.59,41.62h-.65c-2.12-13.66-5-26.66-9.49-39.04-2.19-6.19-4.56-12.33-7.49-18.19-3-5.81-6.21-11.55-9.86-17.06-3.69-5.46-8.06-10.49-13.22-14.39-5.14-3.95-11.06-6.51-16.78-8.95-5.73-2.47-11.45-4.84-17.4-6.69-5.94-1.9-12.03-3.24-18.37-4.58v-.71Z"/><path class="cls-5" d="M160.96,79.06c-7.36-2.3-14.97-5.55-22.7-8.84-.44-2.09-2.16-4.69-5.63-7.87-5.04-4.72-14.51-4.59-22.7-2.51-9.04-2.3-17.96-3.11-26.53-.89-70.06,20.82-30.34,71.59-56.06,122.63,3.66,8.37,43.11,57.22,100.19,44.11,0,0-19.52-50.58,24.54-74.87,35.73-19.7,61.55-56.27,8.88-71.77Z"/><path class="cls-3" d="M169.61,112.32c0,2.53-1.89,4.59-4.23,4.6-2.34,.01-4.25-2.03-4.27-4.56-.01-2.53,1.88-4.58,4.23-4.59,2.34-.01,4.25,2.02,4.26,4.55Z"/><path class="cls-2" d="M109.95,59.85c5.1,.39,23.56,6.88,28.32,10.38-3.94-12.41-17.33-14.07-28.32-10.38h0Z"/><path class="cls-3" d="M114.8,91.23c0,11.67-8.77,21.12-19.59,21.12s-19.59-9.45-19.59-21.12,8.77-21.12,19.59-21.12,19.59,9.46,19.59,21.12Z"/><path class="cls-6" d="M108.99,91.43c0,8.21-6.17,14.86-13.78,14.86s-13.78-6.65-13.78-14.86,6.17-14.86,13.78-14.86,13.78,6.65,13.78,14.86Z"/><path class="cls-5" d="M185.48,121.63c-15.87,12.06-33.93,21.21-59.53,21.21-11.98,0-14.42-13.73-22.34-7-4.09,3.48-18.51,11.25-29.95,10.66-11.54-.59-29.98-7.83-35.16-34.16-2.05,26.33-3.1,45.73-12.27,67.96,18.26,31.53,61.8,55.85,101.32,45.39-4.24-31.97,21.67-63.29,36.27-79.32,5.53-6.07,16.12-15.98,21.66-24.75h0Z"/><path class="cls-6" d="M184.87,122.42c-4.93,4.84-10.79,8.43-16.76,11.6-6.03,3.07-12.32,5.57-18.82,7.39-6.47,1.81-13.24,3.17-20.08,2.5-6.73-.64-13.83-3.19-18.37-8.71l.21-.27c5.6,3.89,11.97,5.26,18.36,5.46,6.38,.18,12.89-.33,19.29-1.73,6.39-1.43,12.68-3.55,18.75-6.25,6.06-2.7,12.05-5.82,17.21-10.26l.21,.27Z"/></svg>