<?xml version="1.0" encoding="UTF-8"?><svg id="katman_1" xmlns="http://www.w3.org/2000/svg" viewBox="0 0 164.58 170.47"><defs><style>.cls-1{fill:#fcfcfc;}.cls-2{fill:#fff;}</style></defs><path class="cls-1" d="M134.7,21.4c-7.4-2.3-15-5.6-22.7-8.8-.4-2.1-2.2-4.7-5.6-7.9C101.4,0,91.9,.1,83.7,2.2,74.7-.1,65.7-.9,57.2,1.3-12.9,22.1,26.9,72.9,1.1,123.9c3.7,8.4,43.1,57.2,100.2,44.1,0,0-19.5-50.6,24.5-74.9,35.7-19.7,61.5-56.2,8.9-71.7h0Z"/><path class="cls-2" d="M83.6,2.1c5.1,.4,23.6,6.9,28.3,10.4C108,.1,94.6-1.5,83.6,2.1h0Z"/><path class="cls-2" d="M88.5,33.5c0,11.7-8.8,21.1-19.6,21.1s-19.6-9.4-19.6-21.1,8.8-21.1,19.6-21.1,19.6,9.5,19.6,21.1Z"/><path class="cls-2" d="M159.2,63.9c-15.9,12.1-33.9,21.2-59.5,21.2-12,0-14.4-13.7-22.3-7-4.1,3.5-18.5,11.2-29.9,10.7-11.5-.6-30-7.8-35.2-34.2-2,26.3-3.1,45.7-12.3,68,18.3,31.5,61.8,55.9,101.3,45.4-4.2-32,21.7-63.3,36.3-79.3,5.5-6.1,16-16,21.6-24.8h0Z"/><path class="cls-2" d="M158.6,64.7c-4.9,4.8-10.8,8.4-16.8,11.6-6,3.1-12.3,5.6-18.8,7.4-6.5,1.8-13.2,3.2-20.1,2.5-6.7-.6-13.8-3.2-18.4-8.7l.2-.3c5.6,3.9,12,5.3,18.4,5.5,6.4,.2,12.9-.3,19.3-1.7,6.4-1.4,12.7-3.6,18.8-6.2,6.1-2.7,12.1-5.8,17.2-10.3l.2,.2h0Z"/></svg>