<svg id="svg" version="1.1" xmlns="http://www.w3.org/2000/svg" xmlns:xlink="http://www.w3.org/1999/xlink" width="400" height="400" viewBox="0, 0, 400,400"><g id="svgg"><path id="path0" d="M66.979 97.213 C 66.879 97.314,66.797 114.488,66.797 135.378 L 66.797 173.361 83.496 173.547 C 102.858 173.763,108.002 174.294,120.392 177.361 C 173.295 190.457,214.565 234.173,224.366 287.500 C 226.059 296.714,226.264 299.565,226.453 316.504 L 226.639 333.203 264.645 333.203 C 297.853 333.203,302.679 333.130,302.873 332.625 C 302.995 332.306,303.017 330.592,302.921 328.816 C 302.826 327.039,302.661 322.422,302.555 318.555 C 302.449 314.688,302.270 310.117,302.157 308.398 C 301.752 302.227,301.523 299.401,301.365 298.633 C 301.277 298.203,301.100 296.106,300.972 293.972 C 300.844 291.838,300.676 289.990,300.599 289.865 C 300.522 289.740,300.341 288.486,300.197 287.079 C 299.670 281.917,297.631 269.531,297.055 267.996 C 296.887 267.548,296.001 263.778,295.120 259.766 C 295.049 259.443,294.788 258.652,294.538 258.008 C 294.289 257.363,294.098 256.792,294.113 256.738 C 294.140 256.642,294.120 256.533,293.964 255.957 C 293.920 255.796,293.743 254.961,293.569 254.102 C 293.276 252.649,292.571 250.488,291.783 248.633 C 291.601 248.203,291.333 247.236,291.189 246.484 C 291.044 245.732,290.799 244.941,290.644 244.727 C 290.406 244.398,288.573 239.665,288.449 239.063 C 288.427 238.955,288.298 238.604,288.163 238.281 C 288.028 237.959,287.541 236.641,287.080 235.352 C 286.255 233.043,285.367 230.986,283.198 226.367 C 282.593 225.078,281.725 223.145,281.269 222.070 C 280.225 219.613,277.056 213.404,276.185 212.109 C 275.823 211.572,275.128 210.263,274.640 209.201 C 274.151 208.138,273.330 206.647,272.813 205.887 C 272.297 205.128,271.875 204.185,271.875 203.793 C 271.875 203.400,271.706 203.183,271.499 203.311 C 271.293 203.439,270.744 202.790,270.281 201.869 C 269.817 200.949,268.844 199.360,268.117 198.339 C 267.391 197.318,266.797 196.406,266.797 196.311 C 266.797 196.217,265.830 194.728,264.648 193.003 C 263.467 191.278,262.500 189.700,262.500 189.497 C 262.500 189.294,262.360 189.069,262.189 188.997 C 261.908 188.880,260.511 187.092,258.398 184.146 C 257.969 183.547,256.914 182.187,256.055 181.125 C 255.195 180.063,254.316 178.928,254.102 178.604 C 253.887 178.280,253.184 177.464,252.539 176.792 C 251.895 176.119,250.673 174.693,249.824 173.624 C 247.442 170.622,239.620 162.307,235.573 158.476 C 229.719 152.934,228.061 151.432,225.816 149.637 C 224.440 148.537,222.935 147.246,222.472 146.768 C 222.009 146.290,221.225 145.635,220.731 145.313 C 219.272 144.362,215.831 141.631,215.690 141.311 C 215.618 141.148,215.326 141.016,215.039 141.016 C 214.753 141.016,214.460 140.882,214.388 140.720 C 214.185 140.258,211.317 138.140,209.375 137.019 C 208.408 136.461,207.213 135.622,206.719 135.156 C 205.972 134.451,200.820 131.170,196.875 128.886 C 196.338 128.575,195.811 128.232,195.703 128.125 C 195.323 127.745,188.960 124.240,185.938 122.746 C 185.186 122.374,184.482 121.982,184.375 121.875 C 184.268 121.768,182.773 120.998,181.055 120.166 C 179.336 119.333,177.624 118.498,177.251 118.310 C 176.878 118.122,176.379 117.969,176.141 117.969 C 175.904 117.969,175.262 117.617,174.716 117.188 C 174.170 116.758,173.395 116.406,172.994 116.406 C 172.593 116.406,172.266 116.220,172.266 115.993 C 172.266 115.765,172.102 115.680,171.901 115.804 C 171.701 115.928,170.778 115.609,169.850 115.096 C 168.923 114.583,167.725 114.033,167.188 113.874 C 166.650 113.715,165.684 113.367,165.039 113.101 C 161.200 111.515,156.269 109.738,152.930 108.738 C 151.855 108.416,150.625 107.995,150.195 107.802 C 149.490 107.485,147.838 107.012,143.164 105.789 C 142.305 105.564,141.216 105.328,140.745 105.266 C 140.274 105.203,139.696 105.033,139.460 104.887 C 139.066 104.644,133.392 103.157,132.031 102.941 C 131.709 102.889,131.006 102.742,130.469 102.612 C 128.826 102.217,118.275 100.404,116.406 100.196 C 115.439 100.089,113.945 99.899,113.086 99.774 C 112.227 99.649,111.084 99.484,110.547 99.407 C 110.010 99.330,107.988 99.159,106.055 99.028 C 104.121 98.897,101.660 98.635,100.586 98.445 C 99.512 98.256,97.930 98.100,97.070 98.100 C 96.211 98.099,93.926 98.013,91.992 97.908 C 81.494 97.339,67.249 96.944,66.979 97.213 " stroke="none" fill="#f38919" fill-rule="evenodd"></path><path id="path1" d="M90.039 0.433 C 61.907 2.073,42.876 9.815,26.346 26.346 C 9.615 43.076,2.049 61.935,0.399 91.016 C -0.124 100.239,-0.124 299.761,0.399 308.984 C 2.049 338.065,9.615 356.924,26.346 373.654 C 43.076 390.385,61.935 397.951,91.016 399.601 C 100.239 400.124,299.761 400.124,308.984 399.601 C 338.065 397.951,356.924 390.385,373.654 373.654 C 390.385 356.924,397.951 338.065,399.601 308.984 C 400.124 299.761,400.124 100.239,399.601 91.016 C 397.951 61.935,390.385 43.076,373.654 26.346 C 356.841 9.532,338.247 2.089,308.843 0.401 C 300.458 -0.081,98.339 -0.051,90.039 0.433 M100.894 67.203 C 219.409 74.363,315.424 163.554,331.084 281.033 C 332.745 293.496,333.683 312.836,332.828 316.992 C 331.256 324.631,324.771 331.206,317.266 332.771 C 313.743 333.506,191.913 333.357,188.762 332.614 C 179.019 330.317,174.063 323.513,173.400 311.523 C 170.695 262.593,133.913 226.636,86.497 226.567 C 77.585 226.554,69.465 220.060,67.398 211.292 C 66.500 207.481,66.497 85.300,67.395 81.852 C 69.202 74.914,75.073 69.066,81.888 67.417 C 84.695 66.737,91.854 66.657,100.894 67.203 " stroke="none" fill="#042d77" fill-rule="evenodd"></path><path id="path2" d="M81.888 67.417 C 71.794 69.860,66.797 77.544,66.797 90.621 L 66.797 97.094 70.215 97.119 C 73.883 97.146,86.236 97.593,91.992 97.907 C 93.926 98.012,96.211 98.099,97.070 98.100 C 97.930 98.100,99.512 98.256,100.586 98.445 C 101.660 98.635,104.121 98.897,106.055 99.028 C 107.988 99.159,110.010 99.330,110.547 99.407 C 111.084 99.484,112.227 99.649,113.086 99.774 C 113.945 99.899,115.439 100.089,116.406 100.196 C 118.275 100.404,128.826 102.217,130.469 102.612 C 131.006 102.742,131.709 102.889,132.031 102.941 C 133.392 103.157,139.066 104.644,139.460 104.887 C 139.696 105.033,140.274 105.203,140.745 105.266 C 141.216 105.328,142.305 105.564,143.164 105.789 C 147.838 107.012,149.490 107.485,150.195 107.802 C 150.625 107.995,151.855 108.416,152.930 108.738 C 156.269 109.738,161.200 111.515,165.039 113.101 C 165.684 113.367,166.650 113.715,167.188 113.874 C 167.725 114.033,168.923 114.583,169.850 115.096 C 170.778 115.609,171.701 115.928,171.901 115.804 C 172.102 115.680,172.266 115.765,172.266 115.993 C 172.266 116.220,172.593 116.406,172.994 116.406 C 173.395 116.406,174.170 116.758,174.716 117.188 C 175.262 117.617,175.904 117.969,176.141 117.969 C 176.379 117.969,176.878 118.122,177.251 118.310 C 177.624 118.498,179.336 119.333,181.055 120.166 C 182.773 120.998,184.268 121.768,184.375 121.875 C 184.482 121.982,185.186 122.374,185.938 122.746 C 188.960 124.240,195.323 127.745,195.703 128.125 C 195.811 128.232,196.338 128.575,196.875 128.886 C 200.820 131.170,205.972 134.451,206.719 135.156 C 207.213 135.622,208.408 136.461,209.375 137.019 C 211.317 138.140,214.185 140.258,214.388 140.720 C 214.460 140.882,214.753 141.016,215.039 141.016 C 215.326 141.016,215.618 141.148,215.690 141.311 C 215.831 141.631,219.272 144.362,220.731 145.313 C 221.225 145.635,222.009 146.290,222.472 146.768 C 222.935 147.246,224.440 148.537,225.816 149.637 C 228.061 151.432,229.719 152.934,235.573 158.476 C 239.620 162.307,247.442 170.622,249.824 173.624 C 250.673 174.693,251.895 176.119,252.539 176.792 C 253.184 177.464,253.887 178.280,254.102 178.604 C 254.316 178.928,255.195 180.063,256.055 181.125 C 256.914 182.187,257.969 183.547,258.398 184.146 C 260.511 187.092,261.908 188.880,262.189 188.997 C 262.360 189.069,262.500 189.294,262.500 189.497 C 262.500 189.700,263.467 191.278,264.648 193.003 C 265.830 194.728,266.797 196.217,266.797 196.311 C 266.797 196.406,267.391 197.318,268.117 198.339 C 268.844 199.360,269.817 200.949,270.281 201.869 C 270.744 202.790,271.293 203.439,271.499 203.311 C 271.706 203.183,271.875 203.400,271.875 203.793 C 271.875 204.185,272.297 205.128,272.813 205.887 C 273.330 206.647,274.151 208.138,274.640 209.201 C 275.128 210.263,275.823 211.572,276.185 212.109 C 277.056 213.404,280.225 219.613,281.269 222.070 C 281.725 223.145,282.593 225.078,283.198 226.367 C 285.367 230.986,286.255 233.043,287.080 235.352 C 287.541 236.641,288.028 237.959,288.163 238.281 C 288.298 238.604,288.427 238.955,288.449 239.063 C 288.573 239.665,290.406 244.398,290.644 244.727 C 290.799 244.941,291.044 245.732,291.189 246.484 C 291.333 247.236,291.601 248.203,291.783 248.633 C 292.823 251.084,293.390 252.998,293.921 255.859 C 293.941 255.967,294.097 256.274,294.267 256.543 C 294.438 256.812,294.483 257.031,294.369 257.031 C 294.254 257.031,294.347 257.515,294.576 258.105 C 294.804 258.696,295.049 259.443,295.120 259.766 C 296.001 263.778,296.887 267.548,297.055 267.996 C 297.631 269.531,299.670 281.917,300.197 287.079 C 300.341 288.486,300.522 289.740,300.599 289.865 C 300.676 289.990,300.844 291.838,300.972 293.972 C 301.100 296.106,301.277 298.203,301.365 298.633 C 301.520 299.385,301.733 301.986,302.149 308.203 C 302.352 311.230,302.808 324.844,302.886 330.176 L 302.930 333.203 309.063 333.203 C 318.763 333.203,322.360 332.009,327.184 327.184 C 332.441 321.928,333.427 318.449,333.059 306.445 C 329.125 177.981,229.143 74.951,100.894 67.203 C 91.854 66.657,84.695 66.737,81.888 67.417 " stroke="none" fill="#aa4aa7" fill-rule="evenodd"></path><path id="path3" d="M66.803 197.387 C 66.807 206.175,66.944 209.363,67.398 211.292 C 69.465 220.060,77.585 226.554,86.497 226.567 C 133.913 226.636,170.695 262.593,173.400 311.523 C 173.879 320.181,175.835 324.816,180.599 328.582 C 185.821 332.710,188.105 333.190,202.544 333.197 L 213.877 333.203 213.785 329.980 C 213.597 323.422,213.150 315.143,212.725 310.352 C 211.856 300.566,210.230 290.714,208.405 284.180 C 207.865 282.246,207.071 279.346,206.639 277.734 C 206.208 276.123,205.219 273.135,204.442 271.094 C 203.664 269.053,202.801 266.768,202.523 266.016 C 202.245 265.264,201.476 263.560,200.814 262.229 C 200.151 260.898,199.609 259.546,199.609 259.225 C 199.609 258.903,199.439 258.534,199.230 258.405 C 199.021 258.276,198.490 257.431,198.049 256.527 C 197.608 255.623,196.643 253.828,195.904 252.539 C 195.165 251.250,194.091 249.316,193.518 248.242 C 192.945 247.168,192.354 246.201,192.206 246.094 C 192.057 245.986,190.909 244.404,189.653 242.578 C 186.844 238.491,185.268 236.385,184.209 235.306 C 183.763 234.851,183.135 234.093,182.813 233.622 C 182.490 233.150,181.394 231.853,180.377 230.738 C 179.360 229.623,178.525 228.569,178.522 228.395 C 178.518 228.221,178.340 228.188,178.125 228.320 C 177.910 228.453,177.734 228.386,177.734 228.171 C 177.734 227.550,166.864 217.104,165.330 216.252 C 164.955 216.043,164.033 215.291,163.281 214.580 C 162.529 213.870,161.795 213.287,161.649 213.285 C 161.503 213.283,161.146 213.043,160.855 212.752 C 160.564 212.461,159.871 211.978,159.315 211.678 C 158.389 211.178,157.797 210.750,154.747 208.372 C 154.177 207.928,153.140 207.335,152.441 207.055 C 151.743 206.775,151.172 206.362,151.172 206.138 C 151.172 205.913,151.066 205.835,150.937 205.964 C 150.808 206.093,149.991 205.682,149.121 205.052 C 148.251 204.422,147.316 203.906,147.044 203.906 C 146.772 203.906,146.491 203.764,146.419 203.590 C 146.215 203.094,141.969 200.781,141.261 200.781 C 140.911 200.781,140.625 200.605,140.625 200.391 C 140.625 200.176,140.367 200.000,140.051 200.000 C 139.276 200.000,134.995 198.035,134.830 197.604 C 134.758 197.415,134.543 197.357,134.353 197.474 C 134.163 197.592,133.480 197.415,132.834 197.082 C 132.189 196.748,130.382 196.031,128.819 195.489 C 127.256 194.946,125.671 194.333,125.298 194.126 C 124.925 193.919,124.360 193.750,124.042 193.750 C 123.725 193.750,122.712 193.511,121.791 193.219 C 119.176 192.389,115.508 191.398,114.648 191.288 C 114.219 191.233,113.647 191.051,113.379 190.884 C 113.110 190.716,112.891 190.673,112.891 190.788 C 112.891 190.902,112.437 190.824,111.882 190.613 C 111.327 190.402,110.062 190.132,109.072 190.013 C 108.082 189.894,107.119 189.703,106.934 189.588 C 106.748 189.473,106.211 189.325,105.739 189.260 C 105.268 189.194,103.564 188.936,101.953 188.688 C 100.342 188.440,97.983 188.151,96.712 188.046 C 95.441 187.942,94.290 187.788,94.155 187.704 C 94.020 187.621,92.248 187.443,90.216 187.309 C 88.185 187.176,85.563 186.988,84.388 186.891 C 83.214 186.795,79.698 186.622,76.576 186.507 C 73.453 186.391,69.976 186.227,68.848 186.141 L 66.797 185.984 66.803 197.387 " stroke="none" fill="#04c69a" fill-rule="evenodd"></path><path id="path4" d="M66.885 179.687 L 66.992 186.012 68.750 186.144 C 69.717 186.217,73.232 186.381,76.563 186.508 C 79.893 186.635,83.496 186.813,84.570 186.902 C 85.645 186.992,88.185 187.175,90.216 187.309 C 92.248 187.443,94.020 187.621,94.155 187.704 C 94.290 187.788,95.441 187.942,96.712 188.046 C 97.983 188.151,100.342 188.440,101.953 188.688 C 103.564 188.936,105.268 189.194,105.739 189.260 C 106.211 189.325,106.748 189.473,106.934 189.588 C 107.119 189.703,108.082 189.894,109.072 190.013 C 110.062 190.132,111.283 190.385,111.784 190.576 C 112.285 190.766,112.827 190.943,112.988 190.969 C 113.149 190.995,113.325 191.029,113.379 191.045 C 113.433 191.061,113.916 191.144,114.453 191.231 C 115.537 191.405,119.213 192.401,121.791 193.219 C 122.712 193.511,123.725 193.750,124.042 193.750 C 124.360 193.750,124.925 193.919,125.298 194.126 C 125.671 194.333,127.256 194.946,128.819 195.489 C 130.382 196.031,132.189 196.748,132.834 197.082 C 133.480 197.415,134.163 197.592,134.353 197.474 C 134.543 197.357,134.758 197.415,134.830 197.604 C 134.995 198.035,139.276 200.000,140.051 200.000 C 140.367 200.000,140.625 200.176,140.625 200.391 C 140.625 200.605,140.911 200.781,141.261 200.781 C 141.969 200.781,146.215 203.094,146.419 203.590 C 146.491 203.764,146.772 203.906,147.044 203.906 C 147.316 203.906,148.251 204.422,149.121 205.052 C 149.991 205.682,150.808 206.093,150.937 205.964 C 151.066 205.835,151.172 205.913,151.172 206.138 C 151.172 206.362,151.743 206.775,152.441 207.055 C 153.140 207.335,154.177 207.928,154.747 208.372 C 157.797 210.750,158.389 211.178,159.315 211.678 C 159.871 211.978,160.564 212.461,160.855 212.752 C 161.146 213.043,161.503 213.283,161.649 213.285 C 161.795 213.287,162.529 213.870,163.281 214.580 C 164.033 215.291,164.955 216.043,165.330 216.252 C 166.864 217.104,177.734 227.550,177.734 228.171 C 177.734 228.386,177.910 228.453,178.125 228.320 C 178.340 228.188,178.518 228.221,178.522 228.395 C 178.525 228.569,179.360 229.623,180.377 230.738 C 181.394 231.853,182.490 233.150,182.813 233.622 C 183.135 234.093,183.763 234.851,184.209 235.306 C 185.268 236.385,186.844 238.491,189.653 242.578 C 190.909 244.404,192.057 245.986,192.206 246.094 C 192.354 246.201,192.945 247.168,193.518 248.242 C 194.091 249.316,195.165 251.250,195.904 252.539 C 196.643 253.828,197.608 255.623,198.049 256.527 C 198.490 257.431,199.021 258.276,199.230 258.405 C 199.439 258.534,199.609 258.903,199.609 259.225 C 199.609 259.546,200.151 260.898,200.814 262.229 C 201.476 263.560,202.245 265.264,202.523 266.016 C 202.801 266.768,203.664 269.053,204.442 271.094 C 205.219 273.135,206.208 276.123,206.639 277.734 C 207.071 279.346,207.865 282.246,208.405 284.180 C 211.374 294.808,213.408 311.883,213.712 328.711 C 213.801 333.604,213.205 333.203,220.393 333.203 L 226.639 333.203 226.453 316.504 C 226.264 299.565,226.059 296.714,224.366 287.500 C 214.565 234.173,173.295 190.457,120.392 177.361 C 108.000 174.294,102.859 173.763,83.486 173.547 L 66.777 173.361 66.885 179.687 " stroke="none" fill="#04dc29" fill-rule="evenodd"></path></g></svg>