<?xml version="1.0" standalone="no"?>
<!DOCTYPE svg PUBLIC "-//W3C//DTD SVG 20010904//EN"
 "http://www.w3.org/TR/2001/REC-SVG-20010904/DTD/svg10.dtd">
<svg version="1.0" xmlns="http://www.w3.org/2000/svg"
 width="140.000000pt" height="140.000000pt" viewBox="0 0 140.000000 140.000000"
 preserveAspectRatio="xMidYMid meet">

<g transform="translate(0.000000,140.000000) scale(0.100000,-0.100000)"
fill="#000000" stroke="none">
<path d="M340 1055 l-34 -35 130 -131 131 -130 37 37 37 37 -128 129 c-70 70
-130 128 -133 128 -4 0 -21 -16 -40 -35z"/>
<path d="M887 962 l-128 -129 37 -37 37 -37 131 130 130 131 -34 35 c-19 19
-36 35 -40 35 -3 0 -63 -58 -133 -128z"/>
<path d="M435 510 l-130 -130 38 -37 37 -38 131 131 130 131 -36 36 c-20 20
-38 37 -39 37 -1 0 -60 -58 -131 -130z"/>
<path d="M792 602 l-34 -35 131 -131 131 -131 37 38 38 37 -130 130 c-71 72
-132 129 -135 129 -3 -1 -20 -17 -38 -37z"/>
</g>
</svg>
