<svg id="Layer_1" data-name="Layer 1" xmlns="http://www.w3.org/2000/svg" xmlns:xlink="http://www.w3.org/1999/xlink" viewBox="0 0 1088.51 266.3"><defs><style>.cls-1{fill:#007ceb;}.cls-2{fill:none;clip-rule:evenodd;}.cls-3{clip-path:url(#clip-path);}.cls-4{clip-path:url(#clip-path-2);}.cls-5{fill:url(#未命名的渐变_22);}.cls-6{clip-path:url(#clip-path-3);}.cls-7{fill:#fff;}</style><clipPath id="clip-path" transform="translate(7.27 -378.85)"><path class="cls-1" d="M972.31,544.08c-19.68,0-33.7-16-33.7-35.4s13.73-35.12,33.42-35.12,33.7,16,33.7,35.4S992,544.08,972.31,544.08Zm-.28,16c30.44,0,52-23.37,52-51.4s-21.24-51.13-51.69-51.13-52,23.37-52,51.41S941.58,560.08,972,560.08ZM890.6,519H856.47l17-39.65Zm-50.7,39.37,10.2-23.93H897L907,558.38h18.41l-43.62-99.84H865.68l-43.62,99.84Zm-65.42-15.86H754.94V475.11h19.54c20.82,0,34.41,14.31,34.41,33.85S795.3,542.52,774.48,542.52Zm0,15.86c31.15,0,52.68-21.67,52.68-49.7s-21.53-49.43-52.68-49.43h-37v99.13ZM686.57,538c-11.76,0-21.25-8.36-21.25-20.82s9.35-20.67,21.25-20.67,21.95,8.21,21.95,20.81C708.52,529.63,698.46,538,686.57,538Zm-1.42,43.33c25.77,0,40.22-11.75,40.22-38.23V483.61H708.23V494.8c-5.8-6.94-13.59-12.75-26.2-12.75-17.41,0-34,13-34,35.26s16.42,35.12,34,35.12c12.32,0,20.11-5.66,26.34-13.73v5.8c0,15-8.35,22.94-23.65,22.94a48.63,48.63,0,0,1-26.62-7.93l-6.37,12.89A64.38,64.38,0,0,0,685.15,581.32ZM587,558.38v-42.2c0-11.61,6.94-18.55,16.85-18.55,10.2,0,16,6.66,16,18.27v42.48H637V510.8c0-17.42-9.77-28.75-26.62-28.75-11.61,0-18.55,6.09-23.37,13.17V483.61H569.88v74.77Zm-28.61,0V483.61H541.27v74.77Zm.57-86.24V455.85H540.56v16.29Zm-55.51,86.24V529.92c0-19.83,10.48-29.6,25.49-29.6h1V482.19c-13.17-.56-21.81,7.08-26.48,18.27V483.61H486.33v74.77Zm-68.54-13.17c-13.31,0-22.8-10.9-22.8-24.21s8.78-23.94,22.52-23.94c13.45,0,22.94,10.91,22.94,24.22S448.8,545.21,434.92,545.21Zm-.28,14.87c23.08,0,40.07-17.7,40.07-39.08s-16.85-38.95-39.79-38.95S395,499.75,395,521.28,411.84,560.08,434.64,560.08ZM351.94,543H323.05V515.76h27.61c13.74,0,20.39,5,20.39,13.45C371.05,538.27,363.83,543,351.94,543ZM346.84,501H323.05V474.69h25.06c11.19,0,17.42,4.67,17.42,12.74C365.53,496.64,358,501,346.84,501Zm5,57.35c22.1,0,36.68-9.49,36.68-27.33,0-13.59-8.07-20.25-19.68-24.22C376.15,503,383,496.78,383,484.6c0-15.58-12.6-25.35-32.57-25.35H305.91v99.13Z"/></clipPath><clipPath id="clip-path-2" transform="translate(7.27 -378.85)"><path class="cls-2" d="M251.77,512A125.89,125.89,0,1,1,125.88,386.12,125.88,125.88,0,0,1,251.77,512"/></clipPath><linearGradient id="未命名的渐变_22" x1="133.15" x2="133.15" y2="266.3" gradientUnits="userSpaceOnUse"><stop offset="0" stop-color="#007ceb"/><stop offset="0.38" stop-color="#0079e9"/><stop offset="0.66" stop-color="#0070e1"/><stop offset="0.91" stop-color="#0060d4"/><stop offset="1" stop-color="#0058ce"/></linearGradient><clipPath id="clip-path-3" transform="translate(7.27 -378.85)"><path class="cls-2" d="M126.14,493.28a21.07,21.07,0,1,1-21.07,21.53V493.28ZM84.36,393.13V515.44a41.78,41.78,0,1,0,42.47-41.77H105.06V459.13h21.08a56.31,56.31,0,1,1-56.31,57.24V399.26A122.54,122.54,0,0,1,84.36,393.13ZM48,413.07V515.44a78.11,78.11,0,1,0,79.4-78.09H105.07V422.81h21.07A92.64,92.64,0,1,1,33.51,517V426.5A126.58,126.58,0,0,1,48,413.07Z"/></clipPath></defs><title>logo-app</title><path class="cls-1" d="M972.31,544.08c-19.68,0-33.7-16-33.7-35.4s13.73-35.12,33.42-35.12,33.7,16,33.7,35.4S992,544.08,972.31,544.08Zm-.28,16c30.44,0,52-23.37,52-51.4s-21.24-51.13-51.69-51.13-52,23.37-52,51.41S941.58,560.08,972,560.08ZM890.6,519H856.47l17-39.65Zm-50.7,39.37,10.2-23.93H897L907,558.38h18.41l-43.62-99.84H865.68l-43.62,99.84Zm-65.42-15.86H754.94V475.11h19.54c20.82,0,34.41,14.31,34.41,33.85S795.3,542.52,774.48,542.52Zm0,15.86c31.15,0,52.68-21.67,52.68-49.7s-21.53-49.43-52.68-49.43h-37v99.13ZM686.57,538c-11.76,0-21.25-8.36-21.25-20.82s9.35-20.67,21.25-20.67,21.95,8.21,21.95,20.81C708.52,529.63,698.46,538,686.57,538Zm-1.42,43.33c25.77,0,40.22-11.75,40.22-38.23V483.61H708.23V494.8c-5.8-6.94-13.59-12.75-26.2-12.75-17.41,0-34,13-34,35.26s16.42,35.12,34,35.12c12.32,0,20.11-5.66,26.34-13.73v5.8c0,15-8.35,22.94-23.65,22.94a48.63,48.63,0,0,1-26.62-7.93l-6.37,12.89A64.38,64.38,0,0,0,685.15,581.32ZM587,558.38v-42.2c0-11.61,6.94-18.55,16.85-18.55,10.2,0,16,6.66,16,18.27v42.48H637V510.8c0-17.42-9.77-28.75-26.62-28.75-11.61,0-18.55,6.09-23.37,13.17V483.61H569.88v74.77Zm-28.61,0V483.61H541.27v74.77Zm.57-86.24V455.85H540.56v16.29Zm-55.51,86.24V529.92c0-19.83,10.48-29.6,25.49-29.6h1V482.19c-13.17-.56-21.81,7.08-26.48,18.27V483.61H486.33v74.77Zm-68.54-13.17c-13.31,0-22.8-10.9-22.8-24.21s8.78-23.94,22.52-23.94c13.45,0,22.94,10.91,22.94,24.22S448.8,545.21,434.92,545.21Zm-.28,14.87c23.08,0,40.07-17.7,40.07-39.08s-16.85-38.95-39.79-38.95S395,499.75,395,521.28,411.84,560.08,434.64,560.08ZM351.94,543H323.05V515.76h27.61c13.74,0,20.39,5,20.39,13.45C371.05,538.27,363.83,543,351.94,543ZM346.84,501H323.05V474.69h25.06c11.19,0,17.42,4.67,17.42,12.74C365.53,496.64,358,501,346.84,501Zm5,57.35c22.1,0,36.68-9.49,36.68-27.33,0-13.59-8.07-20.25-19.68-24.22C376.15,503,383,496.78,383,484.6c0-15.58-12.6-25.35-32.57-25.35H305.91v99.13Z" transform="translate(7.27 -378.85)"/><g class="cls-3"><rect class="cls-1" x="296.75" y="59.3" width="791.76" height="160.87"/></g><path class="cls-1" d="M971.5,530.46a22,22,0,1,1,22-22A22,22,0,0,1,971.5,530.46Zm0-29.65a7.69,7.69,0,1,0,7.68,7.69A7.7,7.7,0,0,0,971.5,500.81Z" transform="translate(7.27 -378.85)"/><g class="cls-4"><rect class="cls-5" width="266.3" height="266.3"/></g><g class="cls-6"><rect class="cls-7" x="33.49" y="7.01" width="199.81" height="229.49"/></g></svg>