<?xml version="1.0" standalone="no"?>
<!DOCTYPE svg PUBLIC "-//W3C//DTD SVG 20010904//EN"
 "http://www.w3.org/TR/2001/REC-SVG-20010904/DTD/svg10.dtd">
<svg version="1.0" xmlns="http://www.w3.org/2000/svg"
 width="1024.000000pt" height="1024.000000pt" viewBox="0 0 1024.000000 1024.000000"
 preserveAspectRatio="xMidYMid meet">

<g transform="translate(0.000000,1024.000000) scale(0.100000,-0.100000)"
fill="#000000" stroke="none">
<path d="M2585 10233 c-599 -13 -989 -89 -1330 -258 -593 -293 -1008 -819
-1160 -1470 -94 -406 -97 -523 -92 -3630 4 -2549 5 -2590 43 -2875 68 -515
268 -944 599 -1288 183 -191 380 -335 610 -447 290 -142 583 -213 1015 -247
241 -19 5459 -19 5700 0 432 34 725 105 1015 247 519 253 920 712 1099 1255
73 223 110 416 137 725 9 93 13 839 16 2630 4 2438 0 2960 -27 3230 -60 598
-255 1049 -620 1428 -346 362 -786 579 -1325 656 -308 44 -311 44 -2995 46
-1411 1 -2619 0 -2685 -2z m-60 -3073 c1316 -84 2534 -681 3403 -1666 623
-705 1022 -1547 1176 -2479 51 -308 66 -524 66 -972 l0 -333 -1117 0 c-718 0
-1141 4 -1183 10 -134 22 -273 112 -345 225 -62 97 -76 153 -86 345 -17 348
-85 622 -224 905 -219 444 -574 801 -1010 1015 -296 144 -563 211 -915 230
-191 9 -253 24 -341 80 -114 74 -207 216 -229 350 -6 42 -10 465 -10 1183 l0
1117 328 0 c180 0 399 -5 487 -10z"/>
</g>
</svg>
