<?xml version="1.0" encoding="utf-8"?>
<!-- Generator: Adobe Illustrator 26.0.3, SVG Export Plug-In . SVG Version: 6.00 Build 0)  -->
<svg version="1.1" id="Layer_1" xmlns="http://www.w3.org/2000/svg" xmlns:xlink="http://www.w3.org/1999/xlink" x="0px" y="0px"
	 viewBox="0 0 673 599" style="enable-background:new 0 0 673 599;" xml:space="preserve">
<style type="text/css">
	.st0{fill:#001B23;}
</style>
<path class="st0" d="M341.4,178c3.4-0.7,6.5-2.5,9-4.9l70.9-70.3c7.1-7.1,7.3-19.5,0.2-26.6L350.5,5.3c-7.1-7.1-18.7-7.1-25.9,0
	l-84,84l0,0L116.6,213.7c-7,7,0.3,18.6,9.6,15.3l213.4-50.6L341.4,178z"/>
<path class="st0" d="M553.6,139.8L336.1,195c-4.8,1.2-10.5,3.1-14.2,6.9l-66.5,66.5c-8.5,8.6-8.5,22.5,0,31l65.9,65.9
	c8.6,8.5,22.5,8.5,31,0l70.9-70.9l0,0l139.8-139.4C570,148,562.8,136.5,553.6,139.8z"/>
<path class="st0" d="M0,595.8V462.4h17.7v133.3H0z M14.1,532.7v-11.6h32c7.5,0,13-2,16.5-6c3.6-4,5.3-9.2,5.3-15.5
	c0-6.4-1.8-11.6-5.3-15.6c-3.6-4-9.1-6-16.5-6h-32v-15.6H43c14.5,0,25.2,3,32.3,9.1c7.1,6.1,10.7,14.9,10.7,26.3v2.5
	c0,8.1-1.8,14.5-5.4,19.2c-3.8,4.9-9.1,8.4-15.1,10.1c-7.3,2.1-14.9,3.1-22.5,3L14.1,532.7z M14.1,595.8v-15.5H51
	c7.1,0,12.6-2,16.5-6s5.8-9.4,5.8-16.2c0-6.9-1.9-12.3-5.8-16.2c-3.9-3.9-9.4-5.8-16.6-5.8H14.1v-11.6h34.3
	c7.6-0.1,15.1,0.9,22.3,3.1c6,1.7,11.3,5.3,15.2,10.2c3.7,4.8,5.5,11.2,5.5,19.4v2.5c0,7.7-1.6,14.2-4.7,19.6
	c-3.3,5.5-8.3,9.8-14.3,12.3c-6.4,2.8-14.4,4.2-24,4.2L14.1,595.8z"/>
<path class="st0" d="M160.6,598.3c-8.4,0-15.7-1.4-21.9-4.3c-5.8-2.6-10.9-6.6-15-11.5c-3.8-4.7-6.8-10.2-8.6-16
	c-1.9-5.8-2.8-11.9-2.8-18.1v-3.2c0-6.2,0.9-12.3,2.8-18.2c1.8-5.8,4.7-11.3,8.6-16c4-4.9,9-8.7,14.7-11.4c6-2.8,13-4.2,21-4.2
	c10.5,0,19.1,2.3,25.9,6.8c6.6,4.3,11.9,10.3,15.2,17.4c3.3,7.1,5,14.9,5,22.8v7.8H120v-13h73l-4,7c0.1-6.1-1-12.2-3.2-17.8
	c-2-4.8-5.4-8.8-9.8-11.6c-4.3-2.8-9.8-4.2-16.4-4.2c-6.9,0-12.6,1.6-17.1,4.7c-4.6,3.2-8.1,7.6-10.1,12.8c-4.5,12-4.5,25.3,0,37.3
	c2.1,5.3,5.7,9.8,10.4,13c4.7,3.2,10.7,4.8,17.9,4.8c7.6,0,13.8-1.7,18.5-5.1c4.8-3.4,7.6-7.3,8.6-11.7H204
	c-2.3,12.7-11,23.4-23,28.2C174.5,597.1,167.6,598.4,160.6,598.3z"/>
<path class="st0" d="M256.9,597.6c-6.4,0.2-12.8-1.1-18.7-3.7c-5-2.3-9.3-6-12.1-10.8c-2.8-4.7-4.2-10.3-4.2-17
	c0-6.9,1.5-12.6,4.6-17.2c3.3-4.8,8-8.4,13.5-10.4c5.9-2.3,13-3.5,21.3-3.5h26.2v13h-26.9c-7,0-12.3,1.7-16.1,5.1
	c-3.7,3.3-5.7,8.1-5.6,13c-0.2,4.9,1.9,9.6,5.6,12.8c3.7,3.3,9.1,4.9,16.1,4.9c4,0,8-0.8,11.8-2.3c3.8-1.6,7-4.2,9.3-7.6
	c2.5-3.5,3.8-8.5,4.1-14.7l4.7,6.9c-0.6,6.9-2.3,12.6-5,17.3c-2.6,4.6-6.5,8.3-11.2,10.6C269.4,596.4,263.6,597.6,256.9,597.6z
	 M288.5,595v-28.9h-2.9v-33.4c0-6.6-1.7-11.6-5.1-15s-8.5-5.1-15.1-5.1c-3.7,0-7.6,0.1-11.6,0.2l-11.4,0.4c-3.6,0.1-6.8,0.3-9.4,0.5
	v-15.2c2.7-0.2,5.5-0.4,8.4-0.6c2.9-0.2,6-0.3,9.1-0.4c3.1-0.1,6.1-0.1,9-0.1c9.9,0,17.9,1.2,24.2,3.5c5.9,2,10.8,6.1,13.9,11.5
	c3,5.3,4.5,12.5,4.5,21.5V595H288.5z"/>
<path class="st0" d="M334.1,595v-96.5h13.7v41.4h-2.2c0-9.4,1.2-17.4,3.7-23.9s6.2-11.6,11.1-15.1c4.9-3.5,11.2-5.2,18.8-5.2h0.8
	c7.6,0,13.9,1.7,18.9,5.2c5.2,3.7,9.1,9,11.1,15.1c2.4,6.6,3.6,14.6,3.6,23.9h-5.1c0-9.4,1.3-17.4,3.8-23.9
	c2.5-6.6,6.3-11.6,11.3-15.1c5-3.5,11.3-5.2,18.9-5.2h0.7c7.6,0,13.9,1.7,19,5.2c5.2,3.7,9.2,9,11.3,15.1c2.5,6.6,3.7,14.6,3.7,23.9
	V595h-17.4v-58.9c0-7.8-1.9-13.9-5.8-18.2s-9.2-6.4-16-6.4c-7.1,0-12.8,2.3-17.2,6.8c-4.3,4.5-6.5,10.8-6.5,18.9V595h-17.4v-58.9
	c0-7.8-1.9-13.9-5.8-18.2s-9.2-6.4-16.1-6.4c-7.1,0-12.8,2.3-17.2,6.8c-4.3,4.5-6.5,10.8-6.5,18.9V595H334.1z"/>
<path class="st0" d="M550,598.3c-8.4,0-15.7-1.4-21.9-4.3c-5.8-2.6-10.9-6.6-15-11.5c-3.8-4.7-6.8-10.2-8.6-16
	c-1.9-5.8-2.8-11.9-2.8-18.1v-3.2c0-6.2,0.9-12.3,2.8-18.2c1.8-5.8,4.7-11.3,8.6-16c4-4.9,9-8.7,14.7-11.4c6-2.8,13-4.2,21-4.2
	c10.5,0,19.1,2.3,25.9,6.8c6.6,4.3,11.9,10.3,15.2,17.5c3.3,7.1,5,14.9,5,22.8v7.8h-85.7v-13h73l-4,7c0.1-6.1-1-12.2-3.2-17.8
	c-2-4.8-5.4-8.8-9.8-11.7c-4.3-2.8-9.8-4.2-16.4-4.2c-6.9,0-12.6,1.6-17.1,4.7c-4.6,3.2-8.1,7.6-10.1,12.8c-4.5,12-4.5,25.3,0,37.3
	c2.1,5.3,5.7,9.8,10.4,13c4.7,3.2,10.6,4.8,17.9,4.8c7.6,0,13.8-1.7,18.5-5.1s7.6-7.3,8.6-11.7h16.3c-2.3,12.7-11,23.3-22.9,28.2
	C563.9,597.1,557,598.4,550,598.3z"/>
<path class="st0" d="M619.5,595v-96.5h13.7v39.8h-0.7c0-14.1,3.1-24.4,9.3-31c6.2-6.6,15.5-9.9,27.9-9.8h3.2V513h-6.1
	c-9.6,0-17,2.6-22.2,7.7s-7.8,12.5-7.8,22.1V595L619.5,595z"/>
</svg>
