<?xml version="1.0" standalone="no"?>
<!DOCTYPE svg PUBLIC "-//W3C//DTD SVG 20010904//EN"
 "http://www.w3.org/TR/2001/REC-SVG-20010904/DTD/svg10.dtd">
<svg version="1.0" xmlns="http://www.w3.org/2000/svg"
 width="800.000000pt" height="800.000000pt" viewBox="0 0 800.000000 800.000000"
 preserveAspectRatio="xMidYMid meet">

<g transform="translate(0.000000,800.000000) scale(0.100000,-0.100000)"
fill="#000000" stroke="none">
<path d="M3925 5906 c-174 -43 -319 -175 -377 -344 -32 -94 -32 -247 0 -347
82 -254 348 -402 611 -340 172 41 313 170 373 342 34 100 32 261 -4 354 -35
89 -71 144 -134 205 -124 119 -308 170 -469 130z"/>
<path d="M2345 4526 c-126 -31 -231 -103 -306 -209 -72 -102 -94 -177 -93
-312 0 -94 4 -120 27 -178 34 -88 88 -167 146 -217 265 -227 654 -144 811 173
40 81 43 93 48 187 8 177 -36 301 -151 418 -119 121 -319 178 -482 138z"/>
<path d="M5401 4529 c-136 -26 -289 -143 -354 -267 -58 -112 -70 -167 -65
-286 5 -109 5 -110 82 -253 61 -115 203 -209 349 -233 320 -53 600 165 624
485 25 343 -295 621 -636 554z"/>
<path d="M3925 3146 c-126 -31 -231 -103 -306 -209 -72 -102 -94 -177 -93
-312 0 -94 4 -120 27 -178 34 -88 88 -167 146 -217 208 -179 508 -170 702 20
125 123 177 290 151 479 -15 105 -60 191 -141 271 -135 133 -317 188 -486 146z"/>
</g>
</svg>
