<?xml version="1.0" encoding="UTF-8"?><svg id="katman_1" xmlns="http://www.w3.org/2000/svg" viewBox="0 0 148.23 171.21"><defs><style>.cls-1{fill:#0077b5;}.cls-2{fill:#0077b6;}</style></defs><path class="cls-2" d="M34.49,105c.92-1.87,1.81-3.58,2.91-5.73,7.1,8.7,14.01,17.17,21.01,25.76l1.39-1.62,1.75,1.26c11.44-20.95,22.83-41.83,34.45-63.11,12.65,18.42,24.99,36.39,37.41,54.47l1.42-1.56,1.55,1.28c3.73-6.67,7.4-13.25,11.07-19.83l.5,.16v33.21c-1.6,1.18-2.73,.7-3.87-1.11-2.43-3.84-5.08-7.54-7.64-11.3-1.04,.08-1.57,2.5-2.88,.22-3.01,5.44-5.87,10.59-8.71,15.75-2.46,4.47-4.79,9.01-7.42,13.38-.74,1.23-2.22,2.11-3.52,2.88-6.75,3.99-13.56,7.89-20.34,11.83-1.15,.67-2.09,.66-3.02-.44-3.52-4.17-7.13-8.28-10.65-12.46-2.99-3.55-5.89-7.17-8.85-10.75-3.13-3.79-6.28-7.56-9.53-11.47-.74,1-1.56,2.04-2.94,.21-5.18,9.39-10.22,18.53-15.42,27.96-2.89-1.63-5.63-3.14-8.34-4.7-4.76-2.75-9.47-5.59-14.26-8.27-1.62-.91-2.02-1.97-1.26-3.61,3.08-6.56,6.13-13.13,9.21-19.7,1.96-4.19,3.94-8.38,5.95-12.72Z"/><path class="cls-2" d="M53.83,116.3c-3.02-3.71-5.96-7.3-8.9-10.88-2.13-2.6-4.27-5.18-6.4-7.77-1.01,.64-1.73,2.24-2.92,.21-2.07,4.3-4.05,8.39-6,12.51-1.26,2.66-2.42,5.38-3.7,8.03-2.83,5.87-5.75,11.7-8.55,17.58-.77,1.63-1.68,2.1-3.28,1.15-4.27-2.52-8.58-4.96-12.83-7.52-.51-.31-1.06-1.1-1.06-1.66-.05-24.05-.04-48.1-.03-72.15,0-.18,.09-.36,.3-1.19,12.06,14.04,23.22,28.29,34.72,41.86l2.75-.7,.3,.52c11.37-23.05,21.71-46.61,33.49-70.09,2.14,3.1,3.93,5.65,5.67,8.22,5.37,7.93,10.75,15.85,16.04,23.84,.44,.67,.61,1.99,.25,2.66-4.63,8.78-9.39,17.5-14.11,26.24-2.77,5.13-5.51,10.29-8.3,15.41-3.54,6.47-7.12,12.92-10.69,19.37-.13,.23-.36,.4-.78,.87-1.99-2.16-3.94-4.28-5.97-6.51Z"/><path class="cls-2" d="M68.72,26.86c-2.57,5.53-5.13,11.06-7.72,16.58-6.41,13.66-12.83,27.32-19.27,40.97-1.57,3.32-3.23,6.59-5.13,10.46-1.86-2.11-3.35-3.73-4.75-5.43-2.86-3.48-5.64-7.02-8.5-10.49-4.06-4.93-8.2-9.81-12.25-14.75-3.41-4.15-6.8-8.33-10.08-12.58-.58-.75-.82-1.94-.84-2.93-.05-2.22-.56-4.83,.41-6.56,.91-1.62,3.48-2.31,5.33-3.39,10.4-6.1,20.8-12.21,31.22-18.3,6.83-3.99,13.68-7.93,20.51-11.91,.97-.57,1.75-.57,2.43,.43,3.15,4.66,6.32,9.3,9.47,14.22-.28,1.41-.55,2.55-.83,3.69Z"/><path class="cls-2" d="M97.83,58.36c2.1-4.04,4.17-8.1,6.33-12.12,1.94-3.6,4-7.14,5.97-10.72,1.91-3.47,3.81-6.94,5.63-10.46,.61-1.17,1.07-1.13,2.17-.48,9.41,5.55,18.86,11.04,28.34,16.46,1.38,.79,1.96,1.61,1.95,3.27-.08,14.58-.11,29.17,.01,43.75,.02,2.68-1.45,4.57-2.55,6.64-3.07,5.81-6.35,11.5-9.58,17.23-.35,.61-.84,1.15-1.5,2.05-1.83-2.53-3.52-4.75-5.09-7.06-7.74-11.35-15.44-22.72-23.17-34.07-2.49-3.65-5.03-7.27-7.63-11.19-.35-1.29-.62-2.3-.89-3.3Z"/><path class="cls-2" d="M97.74,12.69c5.58,3.36,11.03,6.63,16.75,10.07-5.98,11.59-12.11,22.99-18.92,34.57-2.2-3.2-4.05-5.88-5.88-8.58-5.37-7.93-10.76-15.86-16.04-23.85-.48-.72-.59-2.09-.25-2.89,2.35-5.41,4.87-10.75,7.34-16.11,.7-1.53,1.36-2.37,3.31-1.15,4.42,2.78,9.03,5.26,13.69,7.94Z"/><path class="cls-2" d="M50.3,158.27c-1.8-1.05-3.48-2.02-5.35-3.11,1.99-3.66,3.89-7.17,5.82-10.68,2.69-4.87,5.39-9.74,8.1-14.6,.95-1.71,1.94-1.88,3.2-.35,4.25,5.12,8.43,10.3,12.66,15.45,3.33,4.06,6.7,8.08,10.04,12.13,1.57,1.91,3.08,3.87,4.89,6.16-4.76,2.67-9.26,5.29-13.87,7.68-.85,.44-2.37,.3-3.26-.18-5.45-2.89-10.81-5.95-16.19-8.97-1.99-1.12-3.94-2.29-6.03-3.53Z"/><path class="cls-2" d="M143,129.9c-.1,.82-.09,1.91-.56,2.19-6.54,3.94-13.14,7.77-19.73,11.61-.18,.11-.48,.01-1.41,.01,4.6-8.41,9-16.43,13.72-25.06,2.82,3.99,5.34,7.57,7.97,11.25Z"/><path class="cls-2" d="M63.01,9.8c-1.81-2.98-1.86-3.06,1.01-4.85,2.61-1.63,5.3-3.14,8.02-4.59,1.85-.99,6.5,.25,7.53,1.96,.21,.35,.15,1.03-.04,1.44-2.4,5.17-4.84,10.31-7.29,15.45-.31,.64-.75,1.21-1.3,2.08-2.68-3.9-5.25-7.64-7.93-11.49Z"/><path class="cls-2" d="M68.81,26.74c.19-1.02,.46-2.17,.8-3.44,.56-.56,1.04-.99,1.85-1.69,.34,.88,.81,1.76,.99,2.69,.07,.37-.49,1.24-.73,1.23-.54-.02-1.06-.46-1.71-.79-.31,.52-.71,1.2-1.2,2Z"/><path class="cls-1" d="M97.71,58.41c.39,.95,.66,1.96,.95,3.13-.9-.99-1.72-2.51-3.5-.46l-.4-.36,.23-2.78c1.12,.22,1.86,.37,2.73,.47Z"/></svg>