<?xml version="1.0" encoding="utf-8"?>
<!-- Generator: Adobe Illustrator 26.3.1, SVG Export Plug-In . SVG Version: 6.00 Build 0)  -->
<svg version="1.1" id="katman_1" xmlns="http://www.w3.org/2000/svg" xmlns:xlink="http://www.w3.org/1999/xlink" x="0px" y="0px"
	 viewBox="0 0 300 100" style="enable-background:new 0 0 300 100;" xml:space="preserve">
<style type="text/css">
	.st0{fill:#FFFFFF;}
	.st1{fill:#03316C;}
	.st2{fill:#002E73;}
</style>
<path class="st0" d="M64.9,30.6L48,40.4v19.5l16.9,9.8l16.9-9.8V40.4L64.9,30.6z M64.9,30.6L48,40.4v19.5l16.9,9.8l16.9-9.8V40.4
	L64.9,30.6z"/>
<path class="st1" d="M71.6,62h-2.4l-2.9-2.6V58l3-2.8v-4.5l3.9-2.5l4.4,3.4L71.6,62z M61.6,54.9l0.4-4.2l-1.5-3.8h8.6l-1.4,3.8
	l0.4,4.2h-3.3H61.6z M63.6,59.4l-2.9,2.7h-2.4l-6.1-10.6l4.5-3.3l3.9,2.5v4.5l3,2.8C63.6,58,63.6,59.4,63.6,59.4z M58.2,39h13.3
	l1.6,6.8H56.7L58.2,39z M64.9,30.6L48,40.4v19.5l16.9,9.8l16.9-9.8V40.4L64.9,30.6z"/>
<path class="st2" d="M100.8,59.2c-4.5,0-7.8-3.5-7.8-7.8s3.3-7.9,7.8-7.9c2.8,0,4.6,1.1,6,2.6l-2.1,2.3c-1.1-1.1-2.2-1.9-3.9-1.9
	c-2.5,0-4.3,2.2-4.3,4.8c0,2.7,1.9,4.9,4.5,4.9c1.6,0,2.8-0.8,3.9-1.9l2.1,2.1C105.5,58,103.7,59.2,100.8,59.2"/>
<path class="st2" d="M113.5,59.2H110V43.5h3.5v3.7c0.9-2.2,2.7-3.8,5.3-3.7v3.7h-0.2c-3,0-5.1,2-5.1,6L113.5,59.2L113.5,59.2z"/>
<polygon class="st2" points="136.9,43.4 129.3,63.4 125.8,63.4 127.4,59.2 120.9,43.4 124.6,43.4 129,55.1 133.3,43.4 "/>
<path class="st2" d="M147.1,46.5c-2.3,0-4.4,1.9-4.4,4.8c0,2.9,2.1,4.8,4.4,4.8c2.4,0,4.3-1.9,4.3-4.8
	C151.4,48.3,149.4,46.5,147.1,46.5 M147.8,59.1c-2.5,0-4-1.3-5.1-2.6v6.9h-3.5V43.4h3.5v2.8c1.1-1.6,2.7-2.8,5.1-2.8
	c3.6,0,7,2.8,7,7.8C154.9,56.3,151.4,59.1,147.8,59.1"/>
<path class="st2" d="M162.4,46.7v7.4c0,1.3,0.7,1.9,1.9,1.9h1.4v3.1h-2.4c-2.5,0-4.3-1.1-4.3-4.4v-7.9h-1.9v-2.9h1.9v-4.1h3.5v4.1
	h3.2v2.9L162.4,46.7L162.4,46.7z"/>
<path class="st2" d="M176.5,46.5c-2.8,0-4.5,2.2-4.5,4.8c0,2.7,1.9,4.9,4.6,4.9c2.8,0,4.5-2.2,4.5-4.8
	C181.2,48.7,179.2,46.5,176.5,46.5 M176.5,59.2c-4.6,0-8-3.5-8-7.8c0-4.3,3.4-7.9,8-7.9c4.6,0,8,3.5,8,7.8
	C184.6,55.6,181.2,59.2,176.5,59.2"/>
<path class="st2" d="M217.6,46.5c-2.8,0-4.5,2.2-4.5,4.8c0,2.7,1.9,4.9,4.6,4.9c2.8,0,4.5-2.2,4.5-4.8
	C222.2,48.7,220.3,46.5,217.6,46.5 M217.6,59.2c-4.6,0-8-3.5-8-7.8c0-4.3,3.4-7.9,8-7.9s8,3.5,8,7.8
	C225.7,55.6,222.2,59.2,217.6,59.2"/>
<path class="st2" d="M246.1,43.4c3.3,0,5.3,2.1,5.3,5.8v9.9H248v-8.9c0-2.4-1.1-3.7-3.1-3.7c-1.9,0-3.2,1.3-3.2,3.7v8.8h-3.5v-8.9
	c0-2.3-1.2-3.7-3.1-3.7c-1.9,0-3.2,1.4-3.2,3.8v8.8h-3.5V43.5h3.5v2.6c1-1.3,2.3-2.6,4.6-2.6c2.2,0,3.7,1.1,4.5,2.6
	C242.3,44.5,243.9,43.4,246.1,43.4"/>
<polygon class="st2" points="190.9,56 190.9,57.8 190.8,57.9 189.3,58.8 189.1,58.8 187.6,57.9 187.5,57.8 187.5,56 187.6,55.8 
	189.1,55 189.3,55 190.8,55.8 "/>
<path class="st2" d="M201.4,59.1c-4.5-0.1-7.7-3.7-7.6-8s3.5-7.8,8-7.7c2.8,0.1,4.6,1.2,6,2.7l-2.2,2.3c-1-1.1-2.1-1.9-3.9-2
	c-2.5,0-4.4,2.1-4.4,4.7c-0.1,2.7,1.8,4.9,4.4,5c1.6,0,2.8-0.7,3.9-1.8l2,2.1C206.1,58.1,204.4,59.2,201.4,59.1"/>
</svg>
