<?xml version="1.0" encoding="utf-8"?>
<!-- Generator: Adobe Illustrator 26.3.1, SVG Export Plug-In . SVG Version: 6.00 Build 0)  -->
<svg version="1.1" id="katman_1" xmlns:serif="http://www.serif.com/"
	 xmlns="http://www.w3.org/2000/svg" xmlns:xlink="http://www.w3.org/1999/xlink" x="0px" y="0px" viewBox="0 0 262 64"
	 style="enable-background:new 0 0 262 64;" xml:space="preserve">
<style type="text/css">
	.st0{fill:#103351;}
	.st1{fill-rule:evenodd;clip-rule:evenodd;fill:#103351;}
</style>
<g transform="matrix(1,0,0,1,-12.3334,-26.9614)">
	<path class="st0" d="M106.7,57.8h-20V42.4h-3.9v34.7h3.9V61.5h20v15.6h3.9V42.4h-3.9V57.8z"/>
	<path class="st0" d="M127.7,51.1c-1.9,0-3.6,0.2-5,0.6c-1.5,0.4-2.9,0.9-4.3,1.6l1.1,3.1c1.2-0.6,2.4-1,3.6-1.3
		c1.2-0.3,2.6-0.5,4.1-0.5c2.4,0,4.3,0.6,5.6,1.8c1.3,1.2,2,2.9,2,5.2v0.8c-1.2-0.3-2.3-0.6-3.5-0.8c-1.2-0.2-2.6-0.3-4.3-0.3
		c-1.6,0-3.1,0.2-4.4,0.5c-1.3,0.4-2.5,0.9-3.5,1.6c-1,0.7-1.7,1.6-2.3,2.6c-0.5,1-0.8,2.3-0.8,3.6v0.1c0,1.3,0.3,2.5,0.8,3.5
		s1.3,1.8,2.2,2.5c0.9,0.7,1.9,1.2,3.1,1.5c1.2,0.3,2.3,0.5,3.5,0.5c2.2,0,4.1-0.4,5.6-1.3s2.7-1.9,3.6-3.1v3.8h3.8V61.4
		c0-3.2-0.9-5.8-2.7-7.5C134.1,52,131.4,51.1,127.7,51.1z M135,67.7c0,1-0.2,2-0.7,2.8c-0.4,0.8-1.1,1.6-1.8,2.2
		c-0.8,0.6-1.7,1.1-2.7,1.4c-1,0.3-2.1,0.5-3.3,0.5c-0.9,0-1.7-0.1-2.4-0.3c-0.8-0.2-1.5-0.6-2.1-1c-0.6-0.4-1.1-1-1.4-1.6
		c-0.3-0.6-0.5-1.4-0.5-2.1v-0.1c0-1.5,0.7-2.8,2-3.7c1.3-0.9,3.1-1.4,5.5-1.4c1.6,0,3,0.1,4.2,0.3c1.2,0.2,2.3,0.5,3.3,0.7v2.3H135
		z"/>
	<path class="st0" d="M161.2,73.2c-1.3,0.7-2.7,1.1-4.4,1.1c-1.4,0-2.6-0.3-3.7-0.8c-1.1-0.5-2.1-1.2-3-2.1c-0.8-0.9-1.5-2-2-3.2
		c-0.5-1.2-0.7-2.5-0.7-3.9v-0.1c0-1.4,0.2-2.7,0.7-3.9s1.1-2.3,1.9-3.2c0.8-0.9,1.8-1.6,2.9-2.1c1.1-0.5,2.3-0.8,3.6-0.8
		c1.8,0,3.2,0.4,4.4,1.1c1.2,0.8,2.3,1.7,3.3,2.7l2.5-2.7c-0.6-0.6-1.2-1.2-1.9-1.8s-1.5-1.1-2.3-1.5s-1.7-0.7-2.7-1
		c-1-0.2-2.1-0.3-3.3-0.3c-1.9,0-3.6,0.4-5.2,1.1c-1.6,0.7-3,1.7-4.2,2.9c-1.2,1.2-2.1,2.6-2.8,4.3c-0.7,1.6-1,3.3-1,5.2v0.1
		c0,1.8,0.3,3.5,1,5.1s1.6,3,2.8,4.2c1.2,1.2,2.6,2.2,4.2,2.9c1.6,0.7,3.3,1.1,5.2,1.1c2.4,0,4.4-0.5,6.1-1.4
		c1.6-0.9,3.1-2.1,4.4-3.6l-2.4-2.3C163.6,71.5,162.4,72.5,161.2,73.2z"/>
	<path class="st0" d="M194,51.4h-4.8l-13.8,14.5v-25h-3.8v36.2h3.8v-6.7l5.2-5.3l9.2,12h4.6l-11.2-14.6L194,51.4z"/>
	<path class="st0" d="M235,42.4l-13.7,31.9l-13.6-31.9h-2.8l15.2,34.9h2.3l15.3-34.9H235z"/>
	<path class="st0" d="M267,70c-1.8,1.8-3.6,3.1-5.4,4c-1.9,0.9-4,1.4-6.6,1.4c-2.1,0-4-0.4-5.8-1.2c-1.8-0.8-3.3-1.9-4.6-3.3
		c-1.3-1.4-2.3-3.1-3.1-5s-1.1-3.9-1.1-6.1v-0.1c0-2.2,0.4-4.2,1.1-6.1c0.7-1.9,1.8-3.5,3.1-4.9c1.3-1.4,2.9-2.5,4.6-3.3
		c1.8-0.8,3.7-1.2,5.8-1.2c1.3,0,2.5,0.1,3.6,0.4c1.1,0.3,2.1,0.6,3.1,1.1c0.9,0.4,1.8,1,2.7,1.6c0.8,0.6,1.6,1.3,2.4,2l1.8-1.9
		c-0.9-0.8-1.8-1.6-2.8-2.3c-0.9-0.7-2-1.3-3-1.8c-1.1-0.5-2.2-0.9-3.5-1.1c-1.3-0.3-2.7-0.4-4.2-0.4c-2.5,0-4.8,0.5-6.9,1.4
		c-2.1,0.9-3.9,2.2-5.5,3.9c-1.5,1.6-2.7,3.5-3.6,5.7c-0.9,2.2-1.3,4.5-1.3,6.9v0.1c0,2.5,0.4,4.8,1.3,7c0.9,2.2,2.1,4.1,3.6,5.7
		s3.4,2.9,5.5,3.8c2.1,0.9,4.4,1.4,6.9,1.4c1.5,0,2.9-0.1,4.2-0.4c1.3-0.3,2.5-0.7,3.6-1.2s2.1-1.2,3.1-1.9c1-0.7,1.9-1.6,2.9-2.5
		L267,70z"/>
	<path class="st0" d="M50.6,39.2L39.8,50H29L15.8,63.2h12.5V74h10.8v12.5l13.2-13.2V62.5L63,51.8L69.2,33L50.6,39.2z M21.5,60.8
		l8.4-8.4h7.5L29,60.8H21.5z M65.5,36.8l-4.6,13.7L39.8,71.6h-9.1v-9.1l21.1-21.1L65.5,36.8z M41.5,80.8v-7.5l8.4-8.4v7.5L41.5,80.8
		z"/>
	<path class="st0" d="M17.8,79.8l8.1-8.1c0.2-0.2,0.2-0.5,0-0.8c-0.2-0.2-0.5-0.2-0.8,0L17,79c-0.2,0.2-0.2,0.5,0,0.8
		C17.3,80,17.6,80,17.8,79.8z"/>
	<path class="st0" d="M30.6,76.4l-8.1,8.1c-0.2,0.2-0.2,0.5,0,0.8c0.2,0.2,0.5,0.2,0.8,0l8.1-8.1c0.2-0.2,0.2-0.5,0-0.8
		C31.1,76.1,30.8,76.1,30.6,76.4z"/>
	<path class="st0" d="M26.6,75.7c-0.2-0.2-0.5-0.2-0.8,0L17,84.5c-0.2,0.2-0.2,0.5,0,0.8c0.2,0.2,0.5,0.2,0.8,0l8.8-8.8
		C26.8,76.2,26.8,75.9,26.6,75.7z"/>
	<g transform="matrix(0.7071,-0.7071,0.7071,0.7071,-17.0855,52.841)">
		<circle class="st1" cx="55.2" cy="47" r="3"/>
	</g>
</g>
</svg>
