<?xml version="1.0" encoding="utf-8"?>
<!-- Generator: Adobe Illustrator 26.3.1, SVG Export Plug-In . SVG Version: 6.00 Build 0)  -->
<svg version="1.1" id="katman_1" xmlns="http://www.w3.org/2000/svg" xmlns:xlink="http://www.w3.org/1999/xlink" x="0px" y="0px"
	 viewBox="0 0 300 100" style="enable-background:new 0 0 300 100;" xml:space="preserve">
<style type="text/css">
	.st0{fill:#103351;}
	.st1{fill-rule:evenodd;clip-rule:evenodd;fill:#103351;}
</style>
<g transform="matrix(1,0,0,1,-12.3334,-26.9614)">
	<path class="st0" d="M134.9,75h-15.3V63.3h-3v26.5h3V77.9h15.3v11.9h3V63.3h-3V75z"/>
	<path class="st0" d="M150.9,69.9c-1.5,0-2.8,0.2-3.8,0.5c-1.1,0.3-2.2,0.7-3.3,1.2l0.8,2.4c0.9-0.5,1.8-0.8,2.8-1
		c0.9-0.2,2-0.4,3.1-0.4c1.8,0,3.3,0.5,4.3,1.4c1,0.9,1.5,2.2,1.5,4v0.6c-0.9-0.2-1.8-0.5-2.7-0.6s-2-0.2-3.3-0.2
		c-1.2,0-2.4,0.2-3.4,0.4c-1,0.3-1.9,0.7-2.7,1.2c-0.8,0.5-1.3,1.2-1.8,2c-0.4,0.8-0.6,1.8-0.6,2.8v0.1c0,1,0.2,1.9,0.6,2.7
		s1,1.4,1.7,1.9c0.7,0.5,1.5,0.9,2.4,1.1c0.9,0.2,1.8,0.4,2.7,0.4c1.7,0,3.1-0.3,4.3-1c1.1-0.7,2.1-1.5,2.8-2.4v2.9h2.9v-12
		c0-2.4-0.7-4.4-2.1-5.7C155.8,70.6,153.8,69.9,150.9,69.9z M156.5,82.6c0,0.8-0.2,1.5-0.5,2.1c-0.3,0.6-0.8,1.2-1.4,1.7
		c-0.6,0.5-1.3,0.8-2.1,1.1c-0.8,0.2-1.6,0.4-2.5,0.4c-0.7,0-1.3-0.1-1.8-0.2c-0.6-0.2-1.1-0.5-1.6-0.8c-0.5-0.3-0.8-0.8-1.1-1.2
		c-0.2-0.5-0.4-1.1-0.4-1.6V84c0-1.1,0.5-2.1,1.5-2.8c1-0.7,2.4-1.1,4.2-1.1c1.2,0,2.3,0.1,3.2,0.2c0.9,0.2,1.8,0.4,2.5,0.5
		L156.5,82.6C156.6,82.6,156.5,82.6,156.5,82.6z"/>
	<path class="st0" d="M176.5,86.8c-1,0.5-2.1,0.8-3.4,0.8c-1.1,0-2-0.2-2.8-0.6s-1.6-0.9-2.3-1.6c-0.6-0.7-1.1-1.5-1.5-2.4
		c-0.4-0.9-0.5-1.9-0.5-3v-0.1c0-1.1,0.2-2.1,0.5-3c0.4-0.9,0.8-1.8,1.5-2.4c0.6-0.7,1.4-1.2,2.2-1.6c0.8-0.4,1.8-0.6,2.8-0.6
		c1.4,0,2.4,0.3,3.4,0.8c0.9,0.6,1.8,1.3,2.5,2.1l1.9-2.1c-0.5-0.5-0.9-0.9-1.5-1.4c-0.5-0.5-1.1-0.8-1.8-1.1
		c-0.6-0.3-1.3-0.5-2.1-0.8c-0.8-0.2-1.6-0.2-2.5-0.2c-1.5,0-2.8,0.3-4,0.8c-1.2,0.5-2.3,1.3-3.2,2.2c-0.9,0.9-1.6,2-2.1,3.3
		c-0.5,1.2-0.8,2.5-0.8,4V80c0,1.4,0.2,2.7,0.8,3.9c0.5,1.2,1.2,2.3,2.1,3.2c0.9,0.9,2,1.7,3.2,2.2c1.2,0.5,2.5,0.8,4,0.8
		c1.8,0,3.4-0.4,4.7-1.1c1.2-0.7,2.4-1.6,3.4-2.8l-1.8-1.8C178.4,85.5,177.4,86.3,176.5,86.8z"/>
	<path class="st0" d="M201.6,70.1h-3.7l-10.5,11.1V62.1h-2.9v27.7h2.9v-5.1l4-4l7,9.2h3.5l-8.6-11.2L201.6,70.1z"/>
	<path class="st0" d="M232.9,63.3l-10.5,24.4L212,63.3h-2.1l11.6,26.7h1.8L235,63.3H232.9z"/>
	<path class="st0" d="M257.3,84.4c-1.4,1.4-2.8,2.4-4.1,3.1c-1.5,0.7-3.1,1.1-5,1.1c-1.6,0-3.1-0.3-4.4-0.9
		c-1.4-0.6-2.5-1.5-3.5-2.5s-1.8-2.4-2.4-3.8s-0.8-3-0.8-4.7v-0.1c0-1.7,0.3-3.2,0.8-4.7c0.5-1.5,1.4-2.7,2.4-3.7s2.2-1.9,3.5-2.5
		c1.4-0.6,2.8-0.9,4.4-0.9c1,0,1.9,0.1,2.8,0.3c0.8,0.2,1.6,0.5,2.4,0.8c0.7,0.3,1.4,0.8,2.1,1.2c0.6,0.5,1.2,1,1.8,1.5l1.4-1.5
		c-0.7-0.6-1.4-1.2-2.1-1.8c-0.7-0.5-1.5-1-2.3-1.4c-0.8-0.4-1.7-0.7-2.7-0.8c-1-0.2-2.1-0.3-3.2-0.3c-1.9,0-3.7,0.4-5.3,1.1
		c-1.6,0.7-3,1.7-4.2,3c-1.1,1.2-2.1,2.7-2.8,4.4c-0.7,1.7-1,3.4-1,5.3v0.1c0,1.9,0.3,3.7,1,5.3c0.7,1.7,1.6,3.1,2.8,4.4
		c1.1,1.2,2.6,2.2,4.2,2.9c1.6,0.7,3.4,1.1,5.3,1.1c1.1,0,2.2-0.1,3.2-0.3c1-0.2,1.9-0.5,2.8-0.9c0.8-0.4,1.6-0.9,2.4-1.5
		c0.8-0.5,1.5-1.2,2.2-1.9L257.3,84.4z"/>
	<path class="st0" d="M92,60.8l-8.3,8.3h-8.3L65.4,79.2H75v8.3h8.3V97l10.1-10.1v-8.3l8.2-8.2l4.7-14.4L92,60.8z M69.8,77.3l6.4-6.4
		h5.7l-6.4,6.4H69.8z M103.4,59l-3.5,10.5L83.8,85.6h-7v-7l16.1-16.1L103.4,59z M85.1,92.6v-5.7l6.4-6.4v5.7L85.1,92.6z"/>
	<path class="st0" d="M67,91.8l6.2-6.2c0.2-0.2,0.2-0.4,0-0.6c-0.2-0.2-0.4-0.2-0.6,0l-6.2,6.2c-0.2,0.2-0.2,0.4,0,0.6
		C66.6,92,66.8,92,67,91.8z"/>
	<path class="st0" d="M76.7,89.2l-6.2,6.2c-0.2,0.2-0.2,0.4,0,0.6c0.2,0.2,0.4,0.2,0.6,0l6.2-6.2c0.2-0.2,0.2-0.4,0-0.6
		C77.1,89,76.9,89,76.7,89.2z"/>
	<path class="st0" d="M73.7,88.7c-0.2-0.2-0.4-0.2-0.6,0l-6.7,6.7c-0.2,0.2-0.2,0.4,0,0.6c0.2,0.2,0.4,0.2,0.6,0l6.7-6.7
		C73.8,89.1,73.8,88.9,73.7,88.7z"/>
	<g transform="matrix(0.7071,-0.7071,0.7071,0.7071,-17.0855,52.841)">
		<circle class="st1" cx="69.7" cy="89.5" r="2.3"/>
	</g>
</g>
</svg>
