<?xml version="1.0" encoding="utf-8"?>
<!-- Generator: Adobe Illustrator 26.3.1, SVG Export Plug-In . SVG Version: 6.00 Build 0)  -->
<svg version="1.1" id="katman_1" xmlns="http://www.w3.org/2000/svg" xmlns:xlink="http://www.w3.org/1999/xlink" x="0px" y="0px"
	 viewBox="0 0 300 100" style="enable-background:new 0 0 300 100;" xml:space="preserve">
<style type="text/css">
	.st0{fill:#1C2143;}
	.st1{fill:#2AAAE0;}
</style>
<path class="st0" d="M61.7,44.2c0-4.3-2.1-8-3.7-9.2c0,0-0.1-0.1-0.1,0.1c-0.1,8.4-4.4,10.6-6.7,13.6c-3.6,4.4-2.9,10.8,1.5,14.4
	c1,0.8,2.1,1.4,3.2,1.8c2.9,0.8-0.7-1.4-1.1-6.1C54.2,53.1,61.7,48.9,61.7,44.2L61.7,44.2z"/>
<path class="st1" d="M64.5,47.1C64.5,47,64.4,47,64.5,47.1c-0.1,0-0.1,0-0.1,0c-0.5,1.9-1.5,3.8-2.7,5.4c-4.9,7-2.1,10.4-0.5,12.1
	c0.9,1.1,0,0,2.3-1.1c2.8-1.5,4.6-4.3,4.9-7.5C68.6,52.6,67.2,49.2,64.5,47.1L64.5,47.1z"/>
<circle class="st1" cx="149.6" cy="44.2" r="2.3"/>
<path class="st0" d="M87,42v8.8h-8.7v-7.6c0-0.6-0.5-1.1-1.1-1.1h-3v20.9c0,0.6,0.5,1.1,1.1,1.1h0.1h2.9v-9.8h8.7v8.6
	c0,0.6,0.5,1.1,1.1,1.1h2.9V43.1c0-0.6-0.5-1.1-1.1-1.1h0H87z M104.3,47.4v10.5c0,1-0.5,1.8-1.3,2.3c-1.4,0.9-3.3,0.5-4.2-0.9
	c-0.3-0.5-0.5-1-0.5-1.6v-9.2c0-0.6-0.5-1.1-1.1-1.1h-2.9v10.7c0,3.4,2.8,6.2,6.2,6.2h1.7c3.4,0,6.2-2.8,6.2-6.2v-9.5
	c0-0.6-0.5-1.1-1.1-1.1L104.3,47.4z"/>
<path class="st1" d="M148.7,64h2.9V49.2c0-0.6-0.5-1.1-1.1-1.1h-2.9v14.8C147.6,63.5,148.1,64,148.7,64z"/>
<path class="st0" d="M118.9,47.4c-4.1-0.2-7.6,3-7.7,7.1c0,0.1,0,0.1,0,0.2V57c0.1,4.1,3.4,7.3,7.5,7.3c0.1,0,0.2,0,0.2,0
	c4.1,0.2,7.5-3,7.7-7c0-0.1,0-0.2,0-0.2v-2.3c-0.1-4.1-3.5-7.3-7.5-7.3C119,47.4,118.9,47.4,118.9,47.4L118.9,47.4z M122.5,57.3
	c0,2-1.6,3.7-3.7,3.7s-3.7-1.6-3.7-3.7v-2.9c0-2,1.6-3.7,3.7-3.7s3.7,1.6,3.7,3.7V57.3z"/>
<path class="st1" d="M137.1,47.4c-1.3,0-2.5,0.3-3.6,0.8v-5.1c0-0.6-0.5-1.1-1.1-1.1h-3V57c0.1,4.1,3.4,7.3,7.5,7.3
	c0.1,0,0.2,0,0.2,0c4.1,0.2,7.5-3,7.7-7c0-0.1,0-0.2,0-0.2v-2.3c0-4.1-3.4-7.4-7.5-7.3C137.3,47.4,137.2,47.4,137.1,47.4L137.1,47.4
	z M140.7,57.3c0,2-1.6,3.7-3.7,3.7c-2,0-3.7-1.6-3.7-3.7v-2.9c0-2,1.6-3.7,3.7-3.7c2,0,3.7,1.6,3.7,3.7V57.3z"/>
<path class="st0" d="M216.2,47.2c-1.3,0-2.5,0.3-3.6,0.8v-5.1c0-0.6-0.5-1.1-1.1-1.1h-2.9v15.1c0.1,4.1,3.4,7.3,7.5,7.3
	c0.1,0,0.2,0,0.2,0c4.1,0.2,7.5-3,7.7-7c0-0.1,0-0.2,0-0.2v-2.3c0-4.1-3.4-7.4-7.5-7.3C216.4,47.2,216.3,47.2,216.2,47.2L216.2,47.2
	z M219.8,57.1c0,2-1.6,3.7-3.7,3.7c-2,0-3.7-1.6-3.7-3.7v-2.9c0-2,1.6-3.7,3.7-3.7c2,0,3.7,1.6,3.7,3.7V57.1z M178,50.8h-8V53
	c0,0.7,0.5,1.2,1.2,1.2h3.8v1.9c0.1,1.1-0.3,2.3-1.1,3.1c-1.9,1.8-4.9,1.9-6.9,0.2c-1.1-1.1-1.3-2.2-1.3-6.5s0.2-5.4,1.3-6.4
	c1-0.9,2.3-1.3,3.6-1.4c4.3,0,5.8,1.5,6.9,2.9h0.1V45c0-0.5-0.2-0.9-0.6-1.2c-1.8-1.5-3.6-2-6.8-2c-2.4-0.1-4.7,0.8-6.5,2.4
	c-2.4,2.2-2.4,4.6-2.4,8.6v0.3c0,4,0,6.5,2.4,8.6c3.8,3.2,9.4,3.2,13.1-0.2c1.5-1.5,2.2-4.3,2.2-7.3v-2.4
	C179.1,51.3,178.6,50.8,178,50.8L178,50.8z M189.7,64v-2.6c0-0.6-0.5-1.1-1.1-1.1h-2c-1.7,0-1.6-0.8-1.6-3V42.8
	c0-0.6-0.5-1.1-1.1-1.1h-3v16.1c0,3.9,1,6.2,5.2,6.2L189.7,64L189.7,64z M250.9,64.1v-2.6c0-0.6-0.4-1.1-1.1-1.1c0,0,0,0,0,0h-2
	c-1.7,0-1.6-0.8-1.6-3V43c0-0.6-0.5-1.1-1.1-1.1h-3V58c0,3.9,1,6.2,5.2,6.2L250.9,64.1L250.9,64.1z M199,47.2
	c-4.1-0.2-7.6,3-7.7,7.1c0,0.1,0,0.1,0,0.2v2.3c0.1,4.1,3.4,7.3,7.5,7.3c0.1,0,0.2,0,0.2,0c4.1,0.2,7.5-3,7.7-7c0-0.1,0-0.2,0-0.2
	v-2.3c-0.1-4.1-3.4-7.4-7.5-7.3C199.1,47.2,199,47.2,199,47.2L199,47.2z M202.6,57.1c0,2-1.6,3.7-3.7,3.7c-2,0-3.7-1.6-3.7-3.7v-2.9
	c0-2,1.6-3.7,3.7-3.7c2,0,3.7,1.6,3.7,3.7V57.1z M238.1,48.7c-1.5-1.1-3.4-1.6-5.3-1.5c-0.9,0-1.8,0.1-2.7,0.2
	c-0.7,0.1-1.8,0.2-2.5,0.4c-0.3,0.1-0.4,0.3-0.4,0.6v2.2c0,0.4,0,0.7,0.4,0.6c0.8-0.2,2.3-0.5,2.7-0.6c0.7-0.1,1.4-0.2,2.1-0.2
	c0.9-0.1,1.8,0.1,2.6,0.6c0.6,0.5,0.9,1.3,0.8,2.2v0.1h-2.4c-0.9,0-1.9,0.1-2.8,0.3c-0.9,0.2-1.7,0.6-2.4,1c-0.7,0.4-1.3,1-1.7,1.8
	c-0.4,0.7-0.6,1.6-0.6,2.4c0,0.8,0.2,1.7,0.5,2.4c0.4,0.7,0.9,1.2,1.5,1.7c0.7,0.5,1.6,0.8,2.4,0.9c1,0.2,2,0.3,3,0.3
	c0.8,0,6.6-0.1,6.6-2.8v-8C240.2,51.6,239.5,49.8,238.1,48.7z M235.9,56.5v4.2c-0.3,0.1-0.7,0.1-1,0.1c-0.9,0.1-1.8,0.1-2.7,0
	c-0.4,0-0.7-0.1-1-0.3c-0.3-0.2-0.6-0.4-0.7-0.7c-0.2-0.4-0.3-0.8-0.3-1.2c0-0.7,0.3-1.4,0.9-1.8c0.9-0.5,1.9-0.7,2.9-0.6h1.2
	L235.9,56.5z"/>
</svg>
