<?xml version="1.0" encoding="utf-8"?>
<!-- Generator: Adobe Illustrator 26.3.1, SVG Export Plug-In . SVG Version: 6.00 Build 0)  -->
<svg version="1.1" id="katman_1" xmlns="http://www.w3.org/2000/svg" xmlns:xlink="http://www.w3.org/1999/xlink" x="0px" y="0px"
	 viewBox="0 0 300 100" style="enable-background:new 0 0 300 100;" xml:space="preserve">
<style type="text/css">
	.st0{fill-rule:evenodd;clip-rule:evenodd;}
</style>
<path class="st0" d="M150.2,78c-15.5,0-28.1-12.6-28.1-28.1s12.6-28.1,28.1-28.1s28.1,12.6,28.1,28.1S165.8,78,150.2,78z
	 M165.2,41.1l-14.9-8.8l-14.9,8.8v17.6l14.9,8.8l14.9-8.8V41.1z M149.8,50.6l-1.8-1.1l-1.1,0.6l-2.6-1.5l1.1-0.6l-5.8-3.4l11-6.5
	l10.4,6l-2.8,1.6l-7.6-4.4l-5.5,3.2l3.1,1.8l1.6-0.9l2.6,1.5l-1.6,0.9l1.8,1.1l1.3-0.8l2.6,1.5l-1.3,0.8l6.5,3.8l-11,6.5l-11.5-6.7
	l0-3.2l11.4,6.7l5.5-3.2l-3.7-2.2l-1.4,0.8l-2.6-1.5L149.8,50.6z"/>
</svg>
