<svg width="600" height="600" viewBox="0 0 600 600" fill="none" xmlns="http://www.w3.org/2000/svg">
<path d="M257.18 316.021C235.848 317.984 217.733 318.656 205.536 317.778L211.194 353.902C219.602 363.101 235.64 375.245 250.848 382.067C252.82 382.946 252.56 384.548 249.809 383.979C234.758 380.723 220.121 374.212 213.218 366.46L217.578 394.264C225 400.362 231.488 405.013 257.387 403.152C286.245 401.137 299.636 399.018 316.609 396.382C333.633 393.747 347.024 391.628 375.104 384.806C400.328 378.708 405 372.3 410.242 364.238L406.505 340.465C405.934 336.744 404.792 337.984 404.429 339.69L401.73 352.765C401.107 355.866 399.758 355.866 399.706 352.61L398.46 293.54C398.408 290.853 397.578 290.181 394.775 290.956C394.619 291.008 394.463 291.059 394.308 291.111C379.1 295.762 358.858 300.517 336.384 304.754C333.633 305.271 330.83 305.788 327.976 306.305C321.54 307.442 315 308.579 308.356 309.612C294.031 311.835 280.069 313.695 267.093 315.039C269.688 319.018 270.934 322.946 272.076 326.46C272.906 329.096 273.633 331.318 274.723 332.92C274.931 333.23 275.969 334.263 276.799 335.09C280.329 338.708 285.726 344.238 287.595 349.199C289.619 354.47 294.446 361.24 301.194 367.183C303.218 369.096 302.387 370.232 299.533 369.096C288.996 364.599 282.457 359.535 279.654 352.196C278.408 348.889 273.373 343.773 270.675 340.982C269.066 339.328 268.287 338.501 267.768 337.778C265.899 335.142 264.965 332.145 263.979 328.992C262.941 325.788 261.903 322.532 259.827 319.38C259.463 318.811 259.1 318.398 258.685 317.933C258.114 317.313 257.595 316.692 257.18 316.021ZM399.29 385.581C393.944 388.269 386.782 390.801 377.076 393.178C348.633 400.103 335.086 402.222 317.906 404.858C300.726 407.493 287.128 409.664 257.958 411.731C247.941 412.455 240.415 412.196 234.498 411.266C220.484 409.457 227.699 417.726 234.083 422.067C235.588 422.997 237.197 423.979 238.962 424.961C240.986 426.098 242.647 427.338 249.239 427.545C258.166 428.01 268.287 427.804 280.017 426.873C291.747 425.943 305.086 424.289 320.605 421.86C336.072 419.431 349.308 416.951 360.778 414.264C372.249 411.576 381.903 408.734 390.259 405.53C396.436 403.307 397.681 401.654 399.29 399.948C400.64 398.45 401.886 397.054 403.027 395.711C407.699 389.664 412.059 379.587 399.29 385.581ZM397.214 199.535L424.931 376.021L424.567 377.003C419.74 390.801 413.771 398.656 402.197 411.008L401.626 411.628L400.848 411.99C382.63 420 358.339 426.098 322.111 431.731C285.934 437.364 260.917 438.966 241.09 436.847L240.207 436.744L239.429 436.331C224.636 428.062 216.54 422.429 207.716 410.749L207.093 409.922L179.377 233.437C178.754 229.509 181.401 226.098 194.636 221.55C201.54 199.121 210.986 181.24 222.872 168.32L224.377 166.667L226.557 166.977C232.111 167.752 242.751 175.297 243.737 181.757C244.412 186.201 243.633 188.682 243.062 190.543C242.699 191.628 242.595 191.99 242.699 192.61C242.854 193.54 243.27 194.16 244.1 195.245C245.034 196.486 246.332 198.191 246.695 200.62C247.214 203.721 246.643 205.995 246.176 207.804C246.072 208.165 246.021 208.475 245.969 208.785C258.477 206.305 271.972 203.928 285.986 201.757C300.83 199.431 315.259 197.519 328.546 196.072C323.564 189.612 318.581 183.617 313.598 179.173C310.951 176.796 306.228 178.966 303.893 177.519C299.585 174.78 302.906 173.333 299.844 162.274C298.443 157.261 305.138 157.106 310.329 160.62C315.519 164.134 317.751 171.369 319.412 173.075C325.536 178.863 332.076 186.563 338.304 195.09C346.453 194.263 354.083 193.695 360.986 193.333C390.363 191.731 396.384 194.264 397.214 199.535ZM396.591 277.623L393.425 257.364C381.643 249.974 369.342 251.886 363.062 253.695C355.173 255.969 348.789 260.103 345.104 264.083L393.789 280C393.996 280.052 394.204 280.103 394.36 280.207C395.969 280.62 397.007 280.465 396.591 277.623ZM391.765 247.028L386.626 214.315C380.346 216.847 370.744 219.845 356.055 223.307C360.052 230.801 363.373 238.036 365.553 244.444C374.688 242.739 383.72 243.618 391.765 247.028ZM383.356 285.478L339.758 271.266C339.706 271.266 339.706 271.266 339.654 271.214C337.162 270.439 335.398 270.543 335.346 274.212C335.346 274.367 335.346 274.522 335.346 274.677L336.072 296.227C353.823 292.868 370.017 289.199 383.356 285.478ZM349.308 211.524C358.079 209.509 365.553 207.545 371.574 205.788C364.827 205.943 356.47 206.408 346.661 207.287C347.543 208.734 348.425 210.129 349.308 211.524ZM357.353 246.667C355.121 240.207 351.695 232.816 347.543 225.22C340.432 226.77 332.335 228.424 323.097 230.181C323.045 230.181 322.993 230.181 322.941 230.181C321.072 230.491 319.256 229.509 318.477 227.855C318.477 227.804 318.425 227.752 318.425 227.7C318.373 227.649 318.373 227.545 318.322 227.493V227.442C318.062 226.873 317.854 226.615 316.816 226.77C314.844 227.132 312.872 227.493 310.848 227.855C309.083 228.165 309.29 229.044 309.083 229.974C308.771 231.628 307.422 232.972 305.657 233.282C300.986 234.108 296.159 234.884 291.28 235.607C276.799 237.881 262.733 239.742 249.706 241.189C249.706 242.791 249.654 243.979 249.602 245.013C249.498 247.597 249.498 248.682 250.017 252.558C250.225 253.85 251.367 256.279 252.405 258.398C253.702 261.034 255 263.721 255.467 266.201C255.934 268.837 255.363 271.628 254.844 274.315C254.377 276.744 253.858 279.225 254.117 281.447C254.169 282.119 254.325 282.326 255.467 283.566C256.92 285.116 258.841 287.235 260.294 291.421L323.408 262.532L323.668 262.429C328.443 260.31 332.335 259.897 336.384 261.24C340.692 255.349 348.477 249.922 357.353 246.667ZM340.588 213.488C339.446 211.731 338.356 209.922 337.162 208.217C323.097 209.612 306.54 211.731 287.958 214.625C286.038 214.935 284.221 213.902 283.443 212.196C282.872 211.059 282.716 210.904 280.796 211.214C276.955 211.835 273.218 212.455 269.585 213.075C268.235 213.333 267.82 213.902 267.664 214.987C267.457 216.744 266.107 218.295 264.239 218.605C258.685 219.586 253.495 220.568 248.616 221.55C248.356 222.842 247.837 223.876 247.422 224.754C246.799 225.943 246.384 226.77 246.54 228.475C246.54 228.527 246.54 228.579 246.54 228.63C259.152 227.235 273.477 225.375 289.308 222.894C309.031 219.793 326.263 216.589 340.588 213.488ZM326.938 274.884C326.626 271.421 324.498 271.421 321.332 272.868L262.111 299.948C262.111 300 262.11 300.052 262.162 300.155C262.474 303.152 262.785 305.375 263.045 307.028C276.747 305.633 291.643 303.669 307.007 301.292C314.014 300.207 320.969 299.018 327.664 297.829L326.886 275.452C326.938 275.194 326.938 275.039 326.938 274.884ZM253.754 301.034C253.65 300 253.495 299.07 253.339 298.191C253.339 298.139 253.339 298.088 253.339 298.036C252.353 292.713 250.744 290.904 249.29 289.354C247.941 287.855 246.176 285.995 245.761 282.532C245.294 278.966 245.969 275.659 246.591 272.713C246.955 270.801 247.37 268.837 247.162 267.752C246.903 266.46 245.813 264.134 244.827 262.17C243.425 259.38 242.024 256.434 241.661 253.798C241.038 249.199 241.09 247.545 241.194 244.806C241.194 244.083 241.245 243.256 241.297 242.222C232.266 243.152 223.91 243.773 216.436 244.186C208.65 244.599 202.474 244.754 197.595 244.599C196.816 248.32 196.194 251.731 195.675 254.832L204.239 309.251C215.553 310.284 233.356 309.767 254.688 307.855C254.325 305.943 254.014 303.773 253.754 301.034ZM234.965 188.01C235.432 186.667 235.744 185.581 235.38 183.101C234.965 181.447 230.553 177.623 227.335 176.072C213.737 191.835 205.484 213.282 200.553 231.731C202.111 231.731 203.823 231.731 205.64 231.68C213.996 231.473 224.948 230.801 238.079 229.509C238.079 229.354 238.027 229.199 238.027 229.096C237.768 225.013 238.962 222.584 239.792 220.982C239.948 220.62 240.207 220.155 240.259 220C240.207 219.431 240.052 219.225 239.533 218.346C238.806 217.209 237.82 215.607 237.405 212.92C236.938 209.871 237.508 207.649 237.924 205.84C238.287 204.393 238.495 203.462 238.287 202.067C238.235 201.705 237.872 201.189 237.301 200.413C236.211 199.018 234.758 197.106 234.29 194.005C233.927 191.318 234.498 189.509 234.965 188.01Z" fill="url(#paint0_linear_101_122)"/>
<path d="M334.204 313.695C335.813 313.385 336.695 313.798 336.799 316.796L337.941 351.266C338.045 355.245 339.187 356.072 339.602 358.966C340.121 362.946 337.422 365.426 333.633 365.581C329.896 365.736 327.716 361.86 327.82 359.69C327.924 357.468 329.533 354.729 329.533 352.61L328.391 318.191C328.391 318.036 328.391 317.881 328.391 317.726C328.391 315.659 328.962 314.78 330.675 314.367C330.83 314.367 330.934 314.315 331.09 314.315C332.076 314.108 333.166 313.953 334.204 313.695Z" fill="url(#paint1_linear_101_122)"/>
<g id="logo-text-circle">
<animateTransform attributeName="transform"
                          attributeType="XML"
                          type="rotate"
                          from="0 300 300"
                          to="360 300 300"
                          dur="15s"
                          repeatCount="indefinite"/>
<path d="M43.8584 289.509C40.1214 290.284 36.7996 290.233 27.6127 289.096C18.4258 288.01 15.2079 287.235 11.7823 285.633C2.90682 281.55 -0.985917 273.437 0.207855 263.463C1.45353 253.385 7.16287 246.46 16.7649 244.548C20.502 243.773 23.8238 243.824 33.0106 244.961C42.1975 246.047 45.4155 246.822 48.8411 248.424C57.7165 252.507 61.6092 260.62 60.4155 270.698C59.2217 280.724 53.5124 287.649 43.8584 289.509ZM45.0002 257.829C42.9241 256.899 39.9656 256.176 31.7649 255.194C23.4605 254.212 20.502 254.16 18.2701 254.625C13.3393 255.659 10.0175 258.76 9.3428 264.548C8.66806 270.284 11.1594 274.057 15.675 276.227C17.7511 277.158 20.6058 277.881 28.9103 278.863C37.1629 279.845 40.1733 279.897 42.4051 279.432C47.3359 278.398 50.6577 275.297 51.3324 269.612C52.0591 263.824 49.5158 260.052 45.0002 257.829Z" fill="#121112"/>
<path d="M18.8409 193.54C18.3738 193.333 18.2181 192.868 18.4257 192.403L21.8513 184.703C22.0589 184.238 22.526 184.083 22.9931 184.289L67.007 203.773C67.3184 203.928 67.526 203.824 67.6817 203.514L78.6333 179.018C78.8409 178.553 79.308 178.398 79.7752 178.605L86.5745 181.602C87.0416 181.809 87.1973 182.274 86.9897 182.739L72.0416 216.176C71.834 216.641 71.3669 216.796 70.8997 216.589L18.8409 193.54Z" fill="#121112"/>
<path d="M60.0001 118.863C59.5849 118.501 59.5849 118.036 59.8963 117.674L73.6506 101.86C80.2423 94.2636 88.0797 92.093 96.3323 95.6072C99.187 96.7959 101.938 98.5013 109.619 105.168C117.301 111.835 119.377 114.264 120.986 116.899C125.658 124.548 124.619 132.558 118.028 140.155L104.273 155.969C103.91 156.382 103.443 156.382 103.08 156.072L60.0001 118.863ZM103.806 142.584L109.516 136.021C113.772 131.163 114.706 126.77 111.903 122.016C111.073 120.517 109.308 118.398 102.924 112.92C96.4361 107.339 94.2043 105.995 92.5953 105.375C87.4569 103.256 83.2527 104.806 78.9966 109.716L73.2873 116.279C73.0797 116.537 73.0797 116.796 73.3392 117.003L103.08 142.687C103.339 142.842 103.547 142.842 103.806 142.584Z" fill="#121112"/>
<path d="M173.253 27.4934C173.045 27.0283 173.253 26.5631 173.72 26.3564L207.872 12.7647C208.339 12.558 208.806 12.7647 209.014 13.2298L211.765 20.1549C211.973 20.62 211.765 21.0851 211.298 21.2918L186.281 31.2143C185.969 31.3694 185.865 31.5761 185.969 31.8861L191.523 45.6846C191.627 45.9947 191.886 46.098 192.197 45.943L213.322 37.5709C213.789 37.3642 214.256 37.5709 214.464 38.036L217.215 44.9094C217.422 45.3745 217.215 45.8396 216.748 46.0463L195.623 54.4184C195.312 54.5735 195.208 54.7802 195.312 55.0903L203.876 76.4339C204.083 76.8991 203.876 77.3642 203.409 77.5709L195.571 80.6717C195.104 80.8784 194.637 80.6717 194.429 80.2066L173.253 27.4934Z" fill="#121112"/>
<path d="M265.225 1.80879C265.329 1.29199 265.64 0.878553 266.263 0.826873L274.152 -3.95346e-07C274.775 -0.05168 275.138 0.258398 275.346 0.723514L300.986 55.1421C301.194 55.6589 301.09 56.0207 300.467 56.0724L292.059 56.9509C291.436 57.0026 291.073 56.7959 290.865 56.2274L285.83 45.323L263.824 47.5969L261.125 59.2765C261.021 59.8966 260.709 60.2067 260.087 60.2584L251.73 61.137C251.107 61.1886 250.9 60.8786 251.055 60.3618L265.225 1.80879ZM281.782 36.6925L271.713 14.8837H271.453L265.952 38.2946L281.782 36.6925Z" fill="#121112"/>
<path d="M329.066 51.0595C328.806 50.646 328.702 50.1292 329.17 49.7675L335.657 44.7546C336.073 44.3928 336.592 44.4962 336.851 44.9096C339.965 48.5789 344.844 52.8166 351.28 54.1086C358.132 55.4522 362.803 52.8166 363.789 48.0104C364.619 43.876 362.595 40.6719 354.862 37.9845L351.903 36.951C341.107 33.23 335.917 26.6667 337.837 17.1577C339.914 6.77007 348.893 1.3954 360.779 3.72098C367.993 5.16801 374.377 8.78558 378.27 13.1267C378.633 13.5401 378.633 13.9019 378.218 14.367L372.924 19.7933C372.509 20.1551 372.042 20.1551 371.678 19.7933C367.63 15.814 363.581 13.5401 358.754 12.6099C352.889 11.4729 349.049 14.0052 348.166 18.5013C347.388 22.4807 349.619 25.7365 357.197 28.3721L360.156 29.4057C370.952 33.1267 375.986 39.5349 374.014 49.4057C371.99 59.5866 363.114 65.7365 348.789 62.8941C340.225 61.1887 332.699 56.1758 329.066 51.0595Z" fill="#121112"/>
<path d="M428.409 26.7183C428.668 26.2532 429.135 26.1498 429.602 26.4082L437.025 30.4909C437.492 30.7493 437.596 31.2144 437.336 31.6795L426.125 51.8346C425.969 52.1446 426.021 52.3514 426.333 52.5581L445.9 63.3591C446.211 63.5141 446.419 63.4625 446.627 63.1524L457.838 42.9973C458.097 42.5322 458.564 42.4289 459.032 42.6873L466.402 46.77C466.869 47.0284 466.973 47.4935 466.713 47.9586L439.049 97.571C438.789 98.0361 438.322 98.1395 437.855 97.9328L430.485 93.8501C430.018 93.5917 429.914 93.1265 430.173 92.6614L441.644 72.093C441.8 71.7829 441.748 71.5762 441.436 71.3694L421.869 60.5684C421.557 60.4134 421.35 60.4651 421.142 60.7751L409.672 81.3436C409.412 81.8087 408.945 81.9121 408.478 81.6537L401.108 77.5193C400.641 77.2609 400.537 76.7958 400.796 76.3307L428.409 26.7183Z" fill="#121112"/>
<path d="M505.744 79.1214C506.108 78.7597 506.575 78.7597 506.99 79.0697L513.114 84.8578C513.478 85.2196 513.478 85.6847 513.166 86.0982L473.876 127.183C473.512 127.545 473.045 127.545 472.63 127.183L466.505 121.395C466.142 121.034 466.142 120.568 466.454 120.155L505.744 79.1214Z" fill="#121112"/>
<path d="M508.132 146.667C510.571 143.721 513.166 141.705 521.004 136.796C528.841 131.886 531.8 130.439 535.537 129.561C545.035 127.183 553.184 131.008 558.582 139.535C563.979 148.114 563.928 157.106 557.647 164.599C555.208 167.545 552.613 169.561 544.775 174.47C536.938 179.38 533.979 180.827 530.242 181.705C520.744 184.083 512.595 180.258 507.146 171.628C501.748 163.101 501.8 154.16 508.132 146.667ZM527.232 171.99C529.412 171.421 532.163 170.129 539.222 165.736C546.332 161.292 548.616 159.431 550.069 157.726C553.236 153.85 553.858 149.354 550.744 144.393C547.682 139.535 543.322 138.139 538.443 139.276C536.263 139.845 533.564 141.085 526.453 145.53C519.447 149.922 517.059 151.835 515.606 153.54C512.44 157.416 511.817 161.912 514.879 166.77C518.045 171.731 522.353 173.127 527.232 171.99Z" fill="#121112"/>
<path d="M588.737 205.995C589.257 205.891 589.672 206.15 589.776 206.615L591.696 214.315C591.852 214.987 591.696 215.452 591.229 215.917L557.699 248.785L557.803 249.096L597.094 239.328C597.613 239.225 598.028 239.431 598.132 239.948L599.949 247.235C600.052 247.752 599.845 248.165 599.326 248.269L543.997 262.015C543.478 262.119 543.063 261.912 542.959 261.395L541.038 253.798C540.883 253.127 541.038 252.661 541.506 252.196L574.931 219.276L574.827 218.966L535.589 228.682C535.07 228.785 534.654 228.579 534.551 228.062L532.734 220.827C532.63 220.31 532.838 219.897 533.357 219.793L588.737 205.995Z" fill="#121112"/>
<path d="M534.395 372.3C534.55 371.628 534.914 371.37 535.537 371.266L560.502 366.047L562.993 356.279C563.097 355.969 562.941 355.711 562.63 355.659L540.934 350.181C540.415 350.078 540.208 349.612 540.312 349.147L542.388 340.982C542.492 340.465 542.959 340.207 543.426 340.362L598.651 354.315C599.17 354.419 599.429 354.884 599.274 355.349L593.72 377.261C591.073 387.7 582.146 393.592 572.128 391.059C564.654 389.199 559.983 383.463 559.204 376.331L532.993 382.429C532.319 382.636 531.903 382.171 532.059 381.55L534.395 372.3ZM574.62 381.292C579.55 382.532 583.651 379.845 584.948 374.677L588.011 362.584C588.114 362.274 587.959 362.016 587.647 361.964L572.492 358.14C572.18 358.036 571.973 358.191 571.869 358.501L568.806 370.594C567.457 375.762 569.741 380.052 574.62 381.292Z" fill="#121112"/>
<path d="M568.339 440.827C568.755 441.085 568.91 441.55 568.651 442.016L549.499 473.282C549.239 473.747 548.772 473.85 548.305 473.592L541.973 469.716C541.505 469.457 541.402 468.992 541.661 468.527L555.675 445.633C555.831 445.323 555.779 445.116 555.519 444.91L543.27 437.468C542.959 437.261 542.751 437.364 542.543 437.623L530.71 456.951C530.45 457.364 529.983 457.519 529.516 457.261L523.184 453.385C522.768 453.127 522.613 452.662 522.872 452.196L534.706 432.868C534.914 432.558 534.81 432.351 534.55 432.145L521.886 424.444C521.575 424.238 521.367 424.341 521.159 424.6L507.146 447.494C506.886 447.959 506.419 448.062 505.952 447.804L499.62 443.928C499.153 443.669 499.049 443.204 499.308 442.739L518.46 411.473C518.72 411.059 519.187 410.904 519.654 411.214L568.339 440.827Z" fill="#121112"/>
<path d="M484.723 471.266C485.191 471.318 485.71 471.576 485.71 472.093L485.865 480.258C485.917 480.827 485.502 481.137 485.035 481.137C480.208 481.395 473.876 482.791 468.997 487.132C463.806 491.783 463.132 497.106 466.402 500.724C469.204 503.876 472.993 504.186 479.793 499.638L482.388 497.881C491.834 491.525 500.242 491.318 506.782 498.553C513.841 506.46 512.803 516.848 503.772 524.858C498.322 529.716 491.523 532.662 485.71 533.127C485.139 533.178 484.879 532.972 484.775 532.351L483.582 524.858C483.53 524.289 483.789 523.979 484.308 523.876C489.914 523.049 494.17 521.189 497.855 517.933C502.319 513.954 502.578 509.354 499.516 505.943C496.817 502.946 492.82 502.791 486.177 507.235L483.582 508.992C474.135 515.349 465.883 515.504 459.187 508.01C452.232 500.258 452.647 489.509 463.495 479.793C469.879 474.109 478.443 471.111 484.723 471.266Z" fill="#121112"/>
<path d="M445.122 564.548C445.329 565.013 445.173 565.478 444.706 565.685L411.384 581.189C410.917 581.395 410.45 581.24 410.243 580.775L407.077 574.057C406.869 573.592 407.025 573.127 407.492 572.92L431.886 561.602C432.198 561.447 432.301 561.24 432.146 560.93L426.073 548.01C425.917 547.7 425.71 547.597 425.398 547.752L404.845 557.313C404.378 557.519 403.91 557.364 403.703 556.899L400.537 550.181C400.329 549.716 400.485 549.251 400.952 549.044L421.506 539.483C421.817 539.328 421.921 539.121 421.765 538.811L415.485 525.426C415.329 525.116 415.121 525.013 414.81 525.168L390.416 536.486C389.948 536.692 389.481 536.537 389.274 536.072L386.16 529.354C385.952 528.889 386.108 528.424 386.575 528.217L419.897 512.713C420.364 512.506 420.831 512.661 421.038 513.127L445.122 564.548Z" fill="#121112"/>
<path d="M347.491 596.692C347.387 597.209 347.076 597.623 346.505 597.674L338.616 598.76C337.993 598.863 337.63 598.553 337.37 598.036L309.965 544.496C309.706 544.031 309.862 543.617 310.433 543.566L318.841 542.429C319.464 542.325 319.827 542.532 320.086 543.101L325.484 553.798L347.388 550.801L349.671 539.018C349.775 538.398 350.086 538.088 350.657 538.036L358.962 536.899C359.585 536.796 359.792 537.106 359.689 537.674L347.491 596.692ZM329.792 562.429L340.588 583.876L340.848 583.824L345.519 560.258L329.792 562.429Z" fill="#121112"/>
<path d="M247.215 536.951C247.889 537.054 248.201 537.364 248.357 538.036L255.571 562.377L265.536 564.083C265.9 564.134 266.055 563.979 266.159 563.669L269.896 541.705C270 541.189 270.363 540.93 270.882 540.982L279.239 542.377C279.758 542.481 280.017 542.842 279.966 543.359L270.415 599.328C270.312 599.845 269.948 600.103 269.429 600.052L247.059 596.279C236.419 594.47 229.775 586.098 231.54 575.917C232.838 568.372 238.184 563.256 245.242 561.912L237.094 536.382C236.834 535.711 237.301 535.297 237.872 535.401L247.215 536.951ZM241.402 577.571C240.519 582.584 243.581 586.408 248.824 587.287L261.177 589.354C261.54 589.406 261.696 589.251 261.799 588.941L264.395 573.592C264.446 573.282 264.291 573.075 263.979 572.972L251.626 570.904C246.384 570.026 242.284 572.662 241.402 577.571Z" fill="#121112"/>
<path d="M195.883 551.576C191.678 559.845 190.018 562.326 187.319 565.013C180.312 572.145 171.488 573.127 162.613 568.63C154.204 564.393 150.052 556.899 150.571 548.475C150.623 548.01 150.986 547.7 151.402 547.752L159.55 547.907C160.121 547.907 160.381 548.32 160.381 548.786C160.225 553.333 161.575 557.881 166.713 560.465C171.696 562.997 176.004 561.809 179.637 558.295C181.402 556.486 182.699 554.522 186.592 546.873C190.485 539.225 191.315 537.003 191.73 534.522C192.405 529.561 190.848 525.426 185.865 522.894C180.675 520.31 176.211 521.86 172.63 524.703C172.267 525.013 171.8 525.065 171.436 524.599L166.505 518.14C166.194 517.778 166.246 517.313 166.609 517.054C173.149 511.68 181.609 510.543 190.018 514.78C198.893 519.276 203.305 526.873 201.696 536.744C201.125 540.517 200.139 543.307 195.883 551.576Z" fill="#121112"/>
<path d="M105.883 529.612C105.519 529.974 105.052 529.974 104.637 529.612L98.6161 523.721C98.2528 523.359 98.2528 522.894 98.6161 522.481L114.81 505.995C115.069 505.736 115.069 505.53 114.81 505.271L98.8238 489.664C98.5642 489.406 98.3566 489.406 98.0971 489.664L81.9033 506.15C81.54 506.512 81.0729 506.512 80.6577 506.15L74.585 500.258C74.2217 499.897 74.2217 499.432 74.585 499.018L114.498 458.501C114.862 458.14 115.329 458.14 115.744 458.501L121.817 464.393C122.18 464.755 122.18 465.22 121.817 465.633L105.26 482.481C105 482.739 105 482.946 105.26 483.204L121.246 498.811C121.505 499.07 121.713 499.07 121.973 498.811L138.53 481.964C138.893 481.602 139.36 481.602 139.775 481.964L145.848 487.855C146.211 488.217 146.211 488.682 145.848 489.096L105.883 529.612Z" fill="#121112"/>
<path d="M49.4639 398.346C42.7684 400.62 36.4881 397.519 34.2044 390.904C31.9206 384.289 34.9829 377.985 41.6784 375.711C48.3739 373.437 54.6542 376.538 56.9379 383.153C59.2217 389.767 56.1594 396.072 49.4639 398.346Z" fill="#121112"/>
</g>
<defs>
<linearGradient id="paint0_linear_101_122" x1="179.295" y1="297.997" x2="424.912" y2="297.997" gradientUnits="userSpaceOnUse">
<stop stop-color="#DB4538"/>
<stop offset="0.9988" stop-color="#F1733D"/>
</linearGradient>
<linearGradient id="paint1_linear_101_122" x1="327.823" y1="339.623" x2="339.629" y2="339.623" gradientUnits="userSpaceOnUse">
<stop stop-color="#DB4538"/>
<stop offset="0.9988" stop-color="#F1733D"/>
</linearGradient>
</defs>
</svg>
