<?xml version="1.0" encoding="utf-8"?>
<!-- Generator: Adobe Illustrator 26.3.1, SVG Export Plug-In . SVG Version: 6.00 Build 0)  -->
<svg version="1.1" id="katman_1" xmlns="http://www.w3.org/2000/svg" xmlns:xlink="http://www.w3.org/1999/xlink" x="0px" y="0px"
	 viewBox="0 0 300 100" style="enable-background:new 0 0 300 100;" xml:space="preserve">
<style type="text/css">
	.st0{fill:url(#SVGID_1_);}
	.st1{fill:url(#SVGID_00000011010830906535709600000004121334193715013786_);}
	.st2{fill:#121112;}
</style>
<linearGradient id="SVGID_1_" gradientUnits="userSpaceOnUse" x1="135.5352" y1="51.7815" x2="165.5857" y2="51.7815" gradientTransform="matrix(1 0 0 -1 0 102)">
	<stop  offset="0" style="stop-color:#DB4538"/>
	<stop  offset="0.9988" style="stop-color:#F1733D"/>
</linearGradient>
<path class="st0" d="M145.1,52.4c-2.6,0.2-4.8,0.3-6.3,0.2l0.7,4.4c1,1.1,3,2.6,4.9,3.4c0.2,0.1,0.2,0.3-0.1,0.2
	c-1.8-0.4-3.6-1.2-4.5-2.1l0.5,3.4c0.9,0.7,1.7,1.3,4.9,1.1c3.5-0.2,5.2-0.5,7.2-0.8c2.1-0.3,3.7-0.6,7.2-1.4
	c3.1-0.7,3.7-1.5,4.3-2.5l-0.5-2.9c-0.1-0.5-0.2-0.3-0.3-0.1l-0.3,1.6c-0.1,0.4-0.2,0.4-0.2,0l-0.2-7.2c0-0.3-0.1-0.4-0.5-0.3
	c0,0,0,0-0.1,0c-1.9,0.6-4.3,1.2-7.1,1.7c-0.3,0.1-0.7,0.1-1,0.2c-0.8,0.1-1.6,0.3-2.4,0.4c-1.8,0.3-3.5,0.5-5,0.7
	c0.3,0.5,0.5,1,0.6,1.4c0.1,0.3,0.2,0.6,0.3,0.8c0,0,0.2,0.2,0.3,0.3c0.4,0.4,1.1,1.1,1.3,1.7c0.2,0.6,0.8,1.5,1.7,2.2
	c0.2,0.2,0.1,0.4-0.2,0.2c-1.3-0.6-2.1-1.2-2.4-2.1c-0.2-0.4-0.8-1-1.1-1.4c-0.2-0.2-0.3-0.3-0.4-0.4c-0.2-0.3-0.3-0.7-0.5-1.1
	c-0.1-0.4-0.3-0.8-0.5-1.2c0-0.1-0.1-0.1-0.1-0.2C145.2,52.6,145.1,52.5,145.1,52.4z M162.4,60.9c-0.7,0.3-1.5,0.6-2.7,0.9
	c-3.5,0.8-5.1,1.1-7.2,1.4c-2.1,0.3-3.8,0.6-7.3,0.8c-1.2,0.1-2.1,0.1-2.9-0.1c-1.7-0.2-0.8,0.8-0.1,1.3c0.2,0.1,0.4,0.2,0.6,0.4
	c0.2,0.1,0.5,0.3,1.3,0.3c1.1,0.1,2.3,0,3.8-0.1c1.4-0.1,3.1-0.3,5-0.6c1.9-0.3,3.5-0.6,4.9-0.9c1.4-0.3,2.6-0.7,3.6-1.1
	c0.8-0.3,0.9-0.5,1.1-0.7c0.2-0.2,0.3-0.4,0.5-0.5C163.5,61.4,164,60.2,162.4,60.9z M162.2,38.2l3.4,21.6l0,0.1
	c-0.6,1.7-1.3,2.6-2.7,4.2l-0.1,0.1l-0.1,0c-2.2,1-5.2,1.7-9.6,2.4c-4.4,0.7-7.5,0.9-9.9,0.6l-0.1,0l-0.1-0.1
	c-1.8-1-2.8-1.7-3.9-3.1l-0.1-0.1l-3.4-21.6c-0.1-0.5,0.2-0.9,1.9-1.5c0.8-2.7,2-4.9,3.5-6.5l0.2-0.2l0.3,0c0.7,0.1,2,1,2.1,1.8
	c0.1,0.5,0,0.8-0.1,1.1c0,0.1-0.1,0.2,0,0.3c0,0.1,0.1,0.2,0.2,0.3c0.1,0.2,0.3,0.4,0.3,0.7c0.1,0.4,0,0.7-0.1,0.9c0,0,0,0.1,0,0.1
	c1.5-0.3,3.2-0.6,4.9-0.9c1.8-0.3,3.6-0.5,5.2-0.7c-0.6-0.8-1.2-1.5-1.8-2.1c-0.3-0.3-0.9,0-1.2-0.2c-0.5-0.3-0.1-0.5-0.5-1.9
	c-0.2-0.6,0.6-0.6,1.3-0.2c0.6,0.4,0.9,1.3,1.1,1.5c0.7,0.7,1.5,1.7,2.3,2.7c1-0.1,1.9-0.2,2.8-0.2
	C161.4,37.2,162.1,37.5,162.2,38.2z M162.1,47.7l-0.4-2.5c-1.4-0.9-2.9-0.7-3.7-0.4c-1,0.3-1.7,0.8-2.2,1.3l6,1.9c0,0,0.1,0,0.1,0
	C162,48.1,162.2,48.1,162.1,47.7z M161.5,44l-0.6-4c-0.8,0.3-1.9,0.7-3.7,1.1c0.5,0.9,0.9,1.8,1.2,2.6
	C159.4,43.5,160.5,43.6,161.5,44z M160.5,48.7l-5.3-1.7c0,0,0,0,0,0c-0.3-0.1-0.5-0.1-0.5,0.4c0,0,0,0,0,0.1l0.1,2.6
	C156.9,49.6,158.9,49.1,160.5,48.7z M156.3,39.6c1.1-0.2,2-0.5,2.7-0.7c-0.8,0-1.8,0.1-3,0.2C156.1,39.3,156.2,39.5,156.3,39.6z
	 M157.3,43.9c-0.3-0.8-0.7-1.7-1.2-2.6c-0.9,0.2-1.9,0.4-3,0.6c0,0,0,0,0,0c-0.2,0-0.5-0.1-0.5-0.3c0,0,0,0,0,0c0,0,0,0,0,0v0
	c0-0.1-0.1-0.1-0.2-0.1c-0.2,0-0.5,0.1-0.7,0.1c-0.2,0-0.2,0.1-0.2,0.3c0,0.2-0.2,0.4-0.4,0.4c-0.6,0.1-1.2,0.2-1.8,0.3
	c-1.8,0.3-3.5,0.5-5.1,0.7c0,0.2,0,0.3,0,0.5c0,0.3,0,0.4,0.1,0.9c0,0.2,0.2,0.5,0.3,0.7c0.2,0.3,0.3,0.7,0.4,1c0.1,0.3,0,0.7-0.1,1
	c-0.1,0.3-0.1,0.6-0.1,0.9c0,0.1,0,0.1,0.2,0.3c0.2,0.2,0.4,0.4,0.6,1l7.7-3.5l0,0c0.6-0.3,1.1-0.3,1.6-0.1
	C155.3,45,156.2,44.3,157.3,43.9z M155.3,39.9c-0.1-0.2-0.3-0.4-0.4-0.6c-1.7,0.2-3.7,0.4-6,0.8c-0.2,0-0.5-0.1-0.6-0.3
	c-0.1-0.1-0.1-0.2-0.3-0.1c-0.5,0.1-0.9,0.2-1.4,0.2c-0.2,0-0.2,0.1-0.2,0.2c0,0.2-0.2,0.4-0.4,0.4c-0.7,0.1-1.3,0.2-1.9,0.4
	c0,0.2-0.1,0.3-0.1,0.4c-0.1,0.1-0.1,0.2-0.1,0.5c0,0,0,0,0,0c1.5-0.2,3.3-0.4,5.2-0.7C151.4,40.7,153.5,40.3,155.3,39.9z
	 M153.6,47.4c0-0.4-0.3-0.4-0.7-0.2l-7.2,3.3c0,0,0,0,0,0c0,0.4,0.1,0.6,0.1,0.8c1.7-0.2,3.5-0.4,5.4-0.7c0.9-0.1,1.7-0.3,2.5-0.4
	L153.6,47.4C153.6,47.4,153.6,47.4,153.6,47.4z M144.6,50.6c0-0.1,0-0.2-0.1-0.3c0,0,0,0,0,0c-0.1-0.7-0.3-0.9-0.5-1.1
	c-0.2-0.2-0.4-0.4-0.4-0.8c-0.1-0.4,0-0.8,0.1-1.2c0-0.2,0.1-0.5,0.1-0.6c0-0.2-0.2-0.4-0.3-0.7c-0.2-0.3-0.3-0.7-0.4-1
	c-0.1-0.6-0.1-0.8-0.1-1.1c0-0.1,0-0.2,0-0.3c-1.1,0.1-2.1,0.2-3,0.2c-1,0.1-1.7,0.1-2.3,0.1c-0.1,0.5-0.2,0.9-0.2,1.3l1,6.7
	c1.4,0.1,3.6,0.1,6.2-0.2C144.7,51.2,144.7,50.9,144.6,50.6z M142.3,36.8c0.1-0.2,0.1-0.3,0.1-0.6c-0.1-0.2-0.6-0.7-1-0.9
	c-1.7,1.9-2.7,4.6-3.3,6.8c0.2,0,0.4,0,0.6,0c1,0,2.4-0.1,4-0.3c0,0,0,0,0-0.1c0-0.5,0.1-0.8,0.2-1c0,0,0.1-0.1,0.1-0.1
	c0-0.1,0-0.1-0.1-0.2c-0.1-0.1-0.2-0.3-0.3-0.7c-0.1-0.4,0-0.6,0.1-0.9c0-0.2,0.1-0.3,0-0.5c0,0-0.1-0.1-0.1-0.2
	c-0.1-0.2-0.3-0.4-0.4-0.8C142.2,37.2,142.3,36.9,142.3,36.8z"/>
<linearGradient id="SVGID_00000125570834483882852090000006274639668336434836_" gradientUnits="userSpaceOnUse" x1="153.7051" y1="46.6901" x2="155.1494" y2="46.6901" gradientTransform="matrix(1 0 0 -1 0 102)">
	<stop  offset="0" style="stop-color:#DB4538"/>
	<stop  offset="0.9988" style="stop-color:#F1733D"/>
</linearGradient>
<path style="fill:url(#SVGID_00000125570834483882852090000006274639668336434836_);" d="M154.5,52.1c0.2,0,0.3,0,0.3,0.4l0.1,4.2
	c0,0.5,0.2,0.6,0.2,0.9c0.1,0.5-0.3,0.8-0.7,0.8c-0.5,0-0.7-0.5-0.7-0.7c0-0.3,0.2-0.6,0.2-0.9l-0.1-4.2c0,0,0,0,0-0.1
	c0-0.3,0.1-0.4,0.3-0.4c0,0,0,0,0.1,0C154.2,52.2,154.4,52.2,154.5,52.1z"/>
<g id="logo-text-circle">
	
		<animateTransform  accumulate="none" additive="replace" attributeName="transform" attributeType="XML" calcMode="linear" dur="15s" fill="remove" from="0 300 300" repeatCount="indefinite" restart="always" to="360 300 300" type="rotate">
		</animateTransform>
	<path class="st2" d="M119,49.2c-0.5,0.1-0.9,0.1-2-0.1c-1.1-0.1-1.5-0.2-1.9-0.4c-1.1-0.5-1.6-1.5-1.4-2.7c0.2-1.2,0.9-2.1,2-2.3
		c0.5-0.1,0.9-0.1,2,0.1c1.1,0.1,1.5,0.2,1.9,0.4c1.1,0.5,1.6,1.5,1.4,2.7C120.8,48.1,120.1,49,119,49.2z M119.1,45.3
		c-0.3-0.1-0.6-0.2-1.6-0.3c-1-0.1-1.4-0.1-1.7-0.1c-0.6,0.1-1,0.5-1.1,1.2c-0.1,0.7,0.2,1.2,0.8,1.4c0.3,0.1,0.6,0.2,1.6,0.3
		c1,0.1,1.4,0.1,1.7,0.1c0.6-0.1,1-0.5,1.1-1.2C120,46,119.7,45.6,119.1,45.3z"/>
	<path class="st2" d="M115.9,37.4c-0.1,0-0.1-0.1-0.1-0.1l0.4-0.9c0-0.1,0.1-0.1,0.1-0.1l5.4,2.4c0,0,0.1,0,0.1,0l1.3-3
		c0-0.1,0.1-0.1,0.1-0.1l0.8,0.4c0.1,0,0.1,0.1,0.1,0.1l-1.8,4.1c0,0.1-0.1,0.1-0.1,0.1L115.9,37.4z"/>
	<path class="st2" d="M120.9,28.3c-0.1,0-0.1-0.1,0-0.1l1.7-1.9c0.8-0.9,1.8-1.2,2.8-0.8c0.3,0.1,0.7,0.4,1.6,1.2
		c0.9,0.8,1.2,1.1,1.4,1.4c0.6,0.9,0.4,1.9-0.4,2.8l-1.7,1.9c0,0.1-0.1,0.1-0.1,0L120.9,28.3z M126.3,31.2l0.7-0.8
		c0.5-0.6,0.6-1.1,0.3-1.7c-0.1-0.2-0.3-0.4-1.1-1.1c-0.8-0.7-1.1-0.8-1.3-0.9c-0.6-0.3-1.1-0.1-1.7,0.5l-0.7,0.8c0,0,0,0.1,0,0.1
		L126.3,31.2C126.2,31.2,126.3,31.2,126.3,31.2z"/>
	<path class="st2" d="M134.8,17.1c0-0.1,0-0.1,0.1-0.1l4.2-1.7c0.1,0,0.1,0,0.1,0.1l0.3,0.8c0,0.1,0,0.1-0.1,0.1l-3.1,1.2
		c0,0-0.1,0,0,0.1l0.7,1.7c0,0,0,0.1,0.1,0l2.6-1c0.1,0,0.1,0,0.1,0.1l0.3,0.8c0,0.1,0,0.1-0.1,0.1l-2.6,1c0,0-0.1,0,0,0.1l1,2.6
		c0,0.1,0,0.1-0.1,0.1l-1,0.4c-0.1,0-0.1,0-0.1-0.1L134.8,17.1z"/>
	<path class="st2" d="M146,14c0-0.1,0.1-0.1,0.1-0.1l1-0.1c0.1,0,0.1,0,0.1,0.1l3.1,6.7c0,0.1,0,0.1-0.1,0.1l-1,0.1
		c-0.1,0-0.1,0-0.1-0.1l-0.6-1.3l-2.7,0.3l-0.3,1.4c0,0.1-0.1,0.1-0.1,0.1l-1,0.1c-0.1,0-0.1,0-0.1-0.1L146,14z M148.1,18.3
		l-1.2-2.7h0l-0.7,2.9L148.1,18.3z"/>
	<path class="st2" d="M153.9,20c0-0.1,0-0.1,0-0.2l0.8-0.6c0.1,0,0.1,0,0.1,0c0.4,0.4,1,1,1.8,1.1c0.8,0.2,1.4-0.2,1.5-0.7
		c0.1-0.5-0.1-0.9-1.1-1.2l-0.4-0.1c-1.3-0.5-2-1.3-1.7-2.4c0.3-1.3,1.4-1.9,2.8-1.6c0.9,0.2,1.7,0.6,2.1,1.2c0,0.1,0,0.1,0,0.2
		l-0.6,0.7c-0.1,0-0.1,0-0.2,0c-0.5-0.5-1-0.8-1.6-0.9c-0.7-0.1-1.2,0.2-1.3,0.7c-0.1,0.5,0.2,0.9,1.1,1.2l0.4,0.1
		c1.3,0.5,1.9,1.2,1.7,2.4c-0.2,1.2-1.3,2-3.1,1.7C155.2,21.3,154.3,20.6,153.9,20z"/>
	<path class="st2" d="M166,17c0-0.1,0.1-0.1,0.1,0l0.9,0.5c0.1,0,0.1,0.1,0,0.1l-1.4,2.5c0,0,0,0.1,0,0.1l2.4,1.3c0,0,0.1,0,0.1,0
		l1.4-2.5c0-0.1,0.1-0.1,0.1,0l0.9,0.5c0.1,0,0.1,0.1,0,0.1l-3.4,6.1c0,0.1-0.1,0.1-0.1,0l-0.9-0.5c-0.1,0-0.1-0.1,0-0.1l1.4-2.5
		c0,0,0-0.1,0-0.1l-2.4-1.3c0,0-0.1,0-0.1,0l-1.4,2.5c0,0.1-0.1,0.1-0.1,0l-0.9-0.5c-0.1,0-0.1-0.1,0-0.1L166,17z"/>
	<path class="st2" d="M175.5,23.4c0,0,0.1,0,0.2,0l0.7,0.7c0,0,0,0.1,0,0.2l-4.8,5c0,0-0.1,0-0.2,0l-0.7-0.7c0,0,0-0.1,0-0.2
		L175.5,23.4z"/>
	<path class="st2" d="M175.8,31.7c0.3-0.4,0.6-0.6,1.6-1.2c1-0.6,1.3-0.8,1.8-0.9c1.2-0.3,2.2,0.2,2.8,1.2c0.7,1,0.7,2.1-0.1,3.1
		c-0.3,0.4-0.6,0.6-1.6,1.2c-1,0.6-1.3,0.8-1.8,0.9c-1.2,0.3-2.2-0.2-2.8-1.2C175,33.7,175,32.6,175.8,31.7z M178.1,34.8
		c0.3-0.1,0.6-0.2,1.5-0.8c0.9-0.5,1.1-0.8,1.3-1c0.4-0.5,0.5-1,0.1-1.6c-0.4-0.6-0.9-0.8-1.5-0.6c-0.3,0.1-0.6,0.2-1.5,0.8
		c-0.9,0.5-1.1,0.8-1.3,1c-0.4,0.5-0.5,1-0.1,1.6C177,34.8,177.5,34.9,178.1,34.8z"/>
	<path class="st2" d="M185.6,39c0.1,0,0.1,0,0.1,0.1L186,40c0,0.1,0,0.1-0.1,0.2l-4.1,4l0,0l4.8-1.2c0.1,0,0.1,0,0.1,0.1L187,44
		c0,0.1,0,0.1-0.1,0.1l-6.8,1.7c-0.1,0-0.1,0-0.1-0.1l-0.2-0.9c0-0.1,0-0.1,0.1-0.2l4.1-4l0,0l-4.8,1.2c-0.1,0-0.1,0-0.1-0.1
		l-0.2-0.9c0-0.1,0-0.1,0.1-0.1L185.6,39z"/>
	<path class="st2" d="M179,59.3c0-0.1,0.1-0.1,0.1-0.1l3.1-0.6l0.3-1.2c0,0,0-0.1,0-0.1l-2.7-0.7c-0.1,0-0.1-0.1-0.1-0.1l0.3-1
		c0-0.1,0.1-0.1,0.1-0.1l6.8,1.7c0.1,0,0.1,0.1,0.1,0.1l-0.7,2.7c-0.3,1.3-1.4,2-2.6,1.7c-0.9-0.2-1.5-0.9-1.6-1.8l-3.2,0.7
		c-0.1,0-0.1,0-0.1-0.1L179,59.3z M183.9,60.4c0.6,0.2,1.1-0.2,1.3-0.8l0.4-1.5c0,0,0-0.1,0-0.1l-1.9-0.5c0,0-0.1,0-0.1,0l-0.4,1.5
		C183,59.7,183.3,60.3,183.9,60.4z"/>
	<path class="st2" d="M183.1,67.7c0.1,0,0.1,0.1,0,0.1l-2.3,3.8c0,0.1-0.1,0.1-0.1,0l-0.8-0.5c-0.1,0-0.1-0.1,0-0.1l1.7-2.8
		c0,0,0-0.1,0-0.1l-1.5-0.9c0,0-0.1,0-0.1,0l-1.4,2.4c0,0.1-0.1,0.1-0.1,0l-0.8-0.5c-0.1,0-0.1-0.1,0-0.1l1.4-2.4c0,0,0-0.1,0-0.1
		l-1.5-0.9c0,0-0.1,0-0.1,0l-1.7,2.8c0,0.1-0.1,0.1-0.1,0l-0.8-0.5c-0.1,0-0.1-0.1,0-0.1l2.3-3.8c0-0.1,0.1-0.1,0.1,0L183.1,67.7z"
		/>
	<path class="st2" d="M172.9,71.4c0.1,0,0.1,0,0.1,0.1l0,1c0,0.1,0,0.1-0.1,0.1c-0.6,0-1.4,0.2-2,0.7c-0.6,0.6-0.7,1.2-0.3,1.7
		c0.3,0.4,0.8,0.4,1.6-0.1l0.3-0.2c1.2-0.8,2.2-0.8,3,0.1c0.9,1,0.7,2.2-0.4,3.2c-0.7,0.6-1.5,1-2.2,1c-0.1,0-0.1,0-0.1-0.1
		l-0.1-0.9c0-0.1,0-0.1,0.1-0.1c0.7-0.1,1.2-0.3,1.7-0.7c0.5-0.5,0.6-1,0.2-1.5c-0.3-0.4-0.8-0.4-1.6,0.2l-0.3,0.2
		c-1.2,0.8-2.2,0.8-3-0.1c-0.9-0.9-0.8-2.3,0.5-3.5C171.1,71.8,172.1,71.4,172.9,71.4z"/>
	<path class="st2" d="M168.1,82.8c0,0.1,0,0.1-0.1,0.1l-4.1,1.9c-0.1,0-0.1,0-0.1-0.1l-0.4-0.8c0-0.1,0-0.1,0.1-0.1l3-1.4
		c0,0,0.1,0,0-0.1l-0.7-1.6c0,0,0-0.1-0.1,0l-2.5,1.2c-0.1,0-0.1,0-0.1-0.1l-0.4-0.8c0-0.1,0-0.1,0.1-0.1l2.5-1.2c0,0,0.1,0,0-0.1
		l-0.8-1.6c0,0,0-0.1-0.1,0l-3,1.4c-0.1,0-0.1,0-0.1-0.1l-0.4-0.8c0-0.1,0-0.1,0.1-0.1l4.1-1.9c0.1,0,0.1,0,0.1,0.1L168.1,82.8z"/>
	<path class="st2" d="M156.1,86.8c0,0.1-0.1,0.1-0.1,0.1l-1,0.1c-0.1,0-0.1,0-0.2-0.1l-3.4-6.5c0-0.1,0-0.1,0.1-0.1l1-0.1
		c0.1,0,0.1,0,0.2,0.1l0.7,1.3l2.7-0.4l0.3-1.4c0-0.1,0.1-0.1,0.1-0.1l1-0.1c0.1,0,0.1,0,0.1,0.1L156.1,86.8z M153.9,82.6l1.3,2.6
		l0,0l0.6-2.9L153.9,82.6z"/>
	<path class="st2" d="M143.8,79.5c0.1,0,0.1,0.1,0.1,0.1l0.9,3l1.2,0.2c0,0,0.1,0,0.1-0.1l0.5-2.7c0-0.1,0.1-0.1,0.1-0.1l1,0.2
		c0.1,0,0.1,0.1,0.1,0.1l-1.2,6.8c0,0.1-0.1,0.1-0.1,0.1l-2.7-0.5c-1.3-0.2-2.1-1.2-1.9-2.5c0.2-0.9,0.8-1.5,1.7-1.7l-1-3.1
		c0-0.1,0-0.1,0.1-0.1L143.8,79.5z M143.1,84.4c-0.1,0.6,0.3,1.1,0.9,1.2l1.5,0.3c0,0,0.1,0,0.1-0.1l0.3-1.9c0,0,0-0.1-0.1-0.1
		l-1.5-0.3C143.7,83.5,143.2,83.8,143.1,84.4z"/>
	<path class="st2" d="M137.6,81.2c-0.5,1-0.7,1.3-1,1.6c-0.9,0.9-1.9,1-3,0.4c-1-0.5-1.5-1.4-1.5-2.5c0-0.1,0.1-0.1,0.1-0.1l1,0
		c0.1,0,0.1,0.1,0.1,0.1c0,0.6,0.1,1.1,0.8,1.4c0.6,0.3,1.1,0.2,1.6-0.3c0.2-0.2,0.4-0.5,0.9-1.4c0.5-0.9,0.6-1.2,0.6-1.5
		c0.1-0.6-0.1-1.1-0.7-1.4c-0.6-0.3-1.2-0.1-1.6,0.2c0,0-0.1,0-0.1,0l-0.6-0.8c0,0,0-0.1,0-0.1c0.8-0.7,1.8-0.8,2.9-0.3
		c1.1,0.6,1.6,1.5,1.4,2.7C138.2,79.9,138.1,80.2,137.6,81.2z"/>
	<path class="st2" d="M126.6,78.6c0,0-0.1,0-0.2,0l-0.7-0.7c0,0,0-0.1,0-0.2l2-2c0,0,0-0.1,0-0.1l-2-1.9c0,0-0.1,0-0.1,0l-2,2
		c0,0-0.1,0-0.2,0l-0.7-0.7c0,0,0-0.1,0-0.2l4.9-5c0,0,0.1,0,0.2,0l0.7,0.7c0,0,0,0.1,0,0.2l-2,2.1c0,0,0,0.1,0,0.1l2,1.9
		c0,0,0.1,0,0.1,0l2-2.1c0,0,0.1,0,0.2,0l0.7,0.7c0,0,0,0.1,0,0.2L126.6,78.6z"/>
	<path class="st2" d="M119.7,62.5c-0.8,0.3-1.6-0.1-1.9-0.9c-0.3-0.8,0.1-1.6,0.9-1.9c0.8-0.3,1.6,0.1,1.9,0.9
		C120.8,61.4,120.5,62.2,119.7,62.5z"/>
</g>
</svg>
