<?xml version="1.0" encoding="utf-8"?>
<!-- Generator: Adobe Illustrator 26.3.1, SVG Export Plug-In . SVG Version: 6.00 Build 0)  -->
<svg version="1.1" id="katman_1" xmlns="http://www.w3.org/2000/svg" xmlns:xlink="http://www.w3.org/1999/xlink" x="0px" y="0px"
	 viewBox="0 0 300 100" style="enable-background:new 0 0 300 100;" xml:space="preserve">
<g>
	<path d="M47.8,58.7V45h-4.9v-3.2h13.5V45h-4.9v13.7H47.8z"/>
	<path d="M60,50.3c0-5.1,3.7-8.7,8.8-8.7c5.1,0,8.8,3.6,8.8,8.7S74,59,68.9,59C63.7,59,60,55.4,60,50.3z M74,50.3
		c0-3.2-2-5.5-5.1-5.5c-3.1,0-5.1,2.4-5.1,5.5c0,3.1,2,5.5,5.1,5.5C72,55.8,74,53.4,74,50.3z"/>
	<path d="M94.6,58.7l-8-11v11H83V41.8h3.7l7.8,10.6V41.8h3.6v16.9C98.1,58.7,94.6,58.7,94.6,58.7z"/>
	<path d="M108.9,58.7v-6.9l-6.5-10h4.1l4.2,6.8l4.2-6.8h4.1l-6.5,10v6.9L108.9,58.7L108.9,58.7z"/>
	<path d="M142.1,58.7l-3.3-6h-2.6v6h-3.6V41.8h7.9c3.5,0,5.7,2.3,5.7,5.4c0,3-1.9,4.6-3.7,5l3.8,6.4H142.1z M142.5,47.2
		c0-1.4-1.1-2.3-2.5-2.3h-3.8v4.5h3.8C141.4,49.5,142.5,48.7,142.5,47.2z"/>
	<path d="M150.8,50.3c0-5.1,3.7-8.7,8.8-8.7c5.1,0,8.8,3.6,8.8,8.7s-3.7,8.7-8.8,8.7C154.5,59,150.8,55.4,150.8,50.3z M164.7,50.3
		c0-3.2-2-5.5-5.1-5.5c-3.1,0-5.1,2.4-5.1,5.5c0,3.1,2,5.5,5.1,5.5C162.7,55.8,164.7,53.4,164.7,50.3z"/>
	<path d="M173.7,58.7V41.8h8.9c3.2,0,4.9,2.1,4.9,4.3c0,2.1-1.3,3.5-2.9,3.9c1.8,0.3,3.2,2,3.2,4.1c0,2.6-1.7,4.6-4.9,4.6H173.7z
		 M183.8,46.8c0-1-0.8-1.8-2-1.8h-4.5v3.5h4.5C183.1,48.5,183.8,47.8,183.8,46.8z M184.1,53.6c0-1.1-0.8-1.9-2.2-1.9h-4.6v3.8h4.6
		C183.3,55.5,184.1,54.8,184.1,53.6z"/>
	<path d="M193.3,58.7V41.8h8.9c3.2,0,4.9,2.1,4.9,4.3c0,2.1-1.3,3.5-2.9,3.9c1.8,0.3,3.2,2,3.2,4.1c0,2.6-1.7,4.6-4.9,4.6H193.3z
		 M203.4,46.8c0-1-0.8-1.8-2-1.8h-4.5v3.5h4.5C202.6,48.5,203.4,47.8,203.4,46.8z M203.7,53.6c0-1.1-0.8-1.9-2.2-1.9h-4.6v3.8h4.6
		C202.9,55.5,203.7,54.8,203.7,53.6z"/>
	<path d="M212.8,58.7V41.8h3.6v16.9C216.4,58.7,212.8,58.7,212.8,58.7z"/>
	<path d="M234.2,58.7l-8-11v11h-3.6V41.8h3.7l7.8,10.6V41.8h3.6v16.9C237.7,58.7,234.2,58.7,234.2,58.7z"/>
	<path d="M242.6,56.3l2-2.8c1.2,1.2,3,2.3,5.4,2.3c2,0,2.9-0.9,2.9-1.9c0-2.9-9.7-0.9-9.7-7.2c0-2.8,2.4-5.1,6.4-5.1
		c2.7,0,4.9,0.8,6.6,2.4l-2,2.7c-1.4-1.3-3.2-1.8-4.9-1.8c-1.5,0-2.4,0.7-2.4,1.7c0,2.7,9.7,0.9,9.7,7.2c0,3.1-2.2,5.4-6.8,5.4
		C246.5,59,244.2,57.9,242.6,56.3z"/>
</g>
</svg>
