<?xml version="1.0" encoding="utf-8"?>
<!-- Generator: Adobe Illustrator 26.3.1, SVG Export Plug-In . SVG Version: 6.00 Build 0)  -->
<svg version="1.1" id="katman_1" xmlns="http://www.w3.org/2000/svg" xmlns:xlink="http://www.w3.org/1999/xlink" x="0px" y="0px"
	 viewBox="0 0 116 16" style="enable-background:new 0 0 116 16;" xml:space="preserve">
<style type="text/css">
	.st0{fill:#030F19;}
</style>
<g id="web">
	<g id="_x30_1-home-alt" transform="translate(-80.000000, -22.000000)">
		<g id="valour" transform="translate(80.000000, 22.000000)">
			<path id="Shape" class="st0" d="M7,16H5.6L0.2,1.1c-0.1-0.2,0-0.5,0.3-0.6c0,0,0.1,0,0.2,0h1.9c0.2,0,0.4,0.1,0.4,0.3l3.3,10
				L9.9,0.8c0.1-0.2,0.2-0.3,0.4-0.3h1.9c0.3,0,0.5,0.2,0.5,0.5c0,0.1,0,0.1,0,0.2L7,16z M30,15.8l-3.7-11H26l-3.7,11h-2.7l5.9-15.5
				h1.2l6,15.5H30z M40.9,15.8V0.9c0-0.3,0.2-0.5,0.5-0.5h1.7c0.3,0,0.5,0.2,0.5,0.5v12.4h6.3c0.3,0,0.5,0.2,0.5,0.5v1.5
				c0,0.3-0.2,0.5-0.5,0.5H40.9z M59,7.9c0-2.2,0.6-4.1,1.7-5.6C61.9,0.8,63.4,0,65.4,0c2.1,0,3.8,0.7,4.9,2.1S72,5.4,72,7.9
				s-0.6,4.5-1.8,5.9s-2.9,2.2-5,2.2c-2,0-3.5-0.7-4.6-2.2S59,10.4,59,7.9z M61.7,7.9c0,1.8,0.3,3.2,0.9,4.1c0.6,1,1.5,1.5,2.6,1.5
				c1.3,0,2.3-0.5,3-1.4c0.7-1,1-2.3,1-4.2c0-3.6-1.3-5.4-3.9-5.4c-1.2,0-2.1,0.5-2.7,1.5S61.7,6.2,61.7,7.9z M83,0.5h1.7
				c0.3,0,0.5,0.2,0.5,0.5v9.9c0,0.8,0.2,1.5,0.7,2c0.5,0.5,1.1,0.8,2,0.8c0.9,0,1.7-0.3,2.2-0.8c0.5-0.5,0.8-1.2,0.8-2.1V0.9
				c0-0.3,0.2-0.5,0.5-0.5H93c0.3,0,0.5,0.2,0.5,0.5V11c0,1.6-0.5,2.8-1.5,3.7S89.6,16,87.9,16c-1.7,0-3-0.4-4-1.3
				c-0.9-0.9-1.4-2.1-1.4-3.7v-10C82.5,0.7,82.7,0.5,83,0.5z M112.6,15.5l-3.7-6.1c-0.4,0-0.9,0-1.6-0.1v6c0,0.3-0.2,0.5-0.5,0.5
				h-1.7c-0.3,0-0.5-0.2-0.5-0.5V0.8c0-0.2,0.2-0.4,0.4-0.5c0.4,0,0.8,0,1.2-0.1c1-0.1,1.7-0.1,2.3-0.1c3.6,0,5.4,1.5,5.4,4.5
				c0,0.9-0.3,1.7-0.8,2.5c-0.5,0.7-1.1,1.3-1.9,1.6l3.8,6.2c0.1,0.2,0.1,0.5-0.2,0.6c-0.1,0-0.2,0.1-0.2,0.1H113
				C112.8,15.8,112.7,15.7,112.6,15.5z M107.4,2.8V7c0.4,0,0.8,0.1,1,0.1c1,0,1.7-0.2,2.2-0.5c0.5-0.3,0.7-0.9,0.7-1.9
				c0-0.7-0.2-1.3-0.7-1.6s-1.3-0.4-2.3-0.4C108,2.7,107.7,2.8,107.4,2.8z"/>
		</g>
	</g>
</g>
</svg>
