<?xml version="1.0" encoding="utf-8"?>
<!-- Generator: Adobe Illustrator 26.3.1, SVG Export Plug-In . SVG Version: 6.00 Build 0)  -->
<svg version="1.1" id="katman_1" xmlns="http://www.w3.org/2000/svg" xmlns:xlink="http://www.w3.org/1999/xlink" x="0px" y="0px"
	 viewBox="0 0 300 100" style="enable-background:new 0 0 300 100;" xml:space="preserve">
<style type="text/css">
	.st0{fill:#030F19;}
</style>
<g id="web">
	<g id="_x30_1-home-alt" transform="translate(-80.000000, -22.000000)">
		<g id="valour" transform="translate(80.000000, 22.000000)">
			<path id="Shape" class="st0" d="M99.7,58.3h-1.4l-5.4-14.9c-0.1-0.2,0-0.5,0.3-0.6c0,0,0.1,0,0.2,0h1.9c0.2,0,0.4,0.1,0.4,0.3
				l3.3,10l3.6-10c0.1-0.2,0.2-0.3,0.4-0.3h1.9c0.3,0,0.5,0.2,0.5,0.5c0,0.1,0,0.1,0,0.2L99.7,58.3z M122.7,58.1l-3.7-11h-0.3
				l-3.7,11h-2.7l5.9-15.5h1.2l6,15.5H122.7z M133.6,58.1V43.2c0-0.3,0.2-0.5,0.5-0.5h1.7c0.3,0,0.5,0.2,0.5,0.5v12.4h6.3
				c0.3,0,0.5,0.2,0.5,0.5v1.5c0,0.3-0.2,0.5-0.5,0.5C142.6,58.1,133.6,58.1,133.6,58.1z M151.7,50.2c0-2.2,0.6-4.1,1.7-5.6
				c1.2-1.5,2.7-2.3,4.7-2.3c2.1,0,3.8,0.7,4.9,2.1c1.1,1.4,1.7,3.3,1.7,5.8s-0.6,4.5-1.8,5.9c-1.2,1.4-2.9,2.2-5,2.2
				c-2,0-3.5-0.7-4.6-2.2C152.2,54.6,151.7,52.7,151.7,50.2z M154.4,50.2c0,1.8,0.3,3.2,0.9,4.1c0.6,1,1.5,1.5,2.6,1.5
				c1.3,0,2.3-0.5,3-1.4c0.7-1,1-2.3,1-4.2c0-3.6-1.3-5.4-3.9-5.4c-1.2,0-2.1,0.5-2.7,1.5S154.4,48.5,154.4,50.2z M175.7,42.8h1.7
				c0.3,0,0.5,0.2,0.5,0.5v9.9c0,0.8,0.2,1.5,0.7,2s1.1,0.8,2,0.8c0.9,0,1.7-0.3,2.2-0.8s0.8-1.2,0.8-2.1v-9.9
				c0-0.3,0.2-0.5,0.5-0.5h1.6c0.3,0,0.5,0.2,0.5,0.5v10.1c0,1.6-0.5,2.8-1.5,3.7c-1,0.9-2.4,1.3-4.1,1.3s-3-0.4-4-1.3
				c-0.9-0.9-1.4-2.1-1.4-3.7v-10C175.2,43,175.4,42.8,175.7,42.8z M205.3,57.8l-3.7-6.1c-0.4,0-0.9,0-1.6-0.1v6
				c0,0.3-0.2,0.5-0.5,0.5h-1.7c-0.3,0-0.5-0.2-0.5-0.5V43.1c0-0.2,0.2-0.4,0.4-0.5c0.4,0,0.8,0,1.2-0.1c1-0.1,1.7-0.1,2.3-0.1
				c3.6,0,5.4,1.5,5.4,4.5c0,0.9-0.3,1.7-0.8,2.5c-0.5,0.7-1.1,1.3-1.9,1.6l3.8,6.2c0.1,0.2,0.1,0.5-0.2,0.6c-0.1,0-0.2,0.1-0.2,0.1
				h-1.6C205.5,58.1,205.4,58,205.3,57.8z M200.1,45.1v4.2c0.4,0,0.8,0.1,1,0.1c1,0,1.7-0.2,2.2-0.5c0.5-0.3,0.7-0.9,0.7-1.9
				c0-0.7-0.2-1.3-0.7-1.6c-0.5-0.3-1.3-0.4-2.3-0.4C200.7,45,200.4,45.1,200.1,45.1z"/>
		</g>
	</g>
</g>
</svg>
