<?xml version="1.0" encoding="utf-8"?>
<!-- Generator: Adobe Illustrator 26.3.1, SVG Export Plug-In . SVG Version: 6.00 Build 0)  -->
<svg version="1.1" id="katman_1" xmlns="http://www.w3.org/2000/svg" xmlns:xlink="http://www.w3.org/1999/xlink" x="0px" y="0px"
	 viewBox="0 0 300 100" style="enable-background:new 0 0 300 100;" xml:space="preserve">
<style type="text/css">
	.st0{clip-path:url(#SVGID_00000052815421782217007330000016146860035905839240_);}
	.st1{fill:#5101A0;}
</style>
<g>
	<defs>
		<rect id="SVGID_1_" x="92.4" y="31.6" width="115.6" height="36.3"/>
	</defs>
	<clipPath id="SVGID_00000116930509076174734290000004559867280571680433_">
		<use xlink:href="#SVGID_1_"  style="overflow:visible;"/>
	</clipPath>
	<g style="clip-path:url(#SVGID_00000116930509076174734290000004559867280571680433_);">
		<path class="st1" d="M181.6,61.7c-0.8-0.9-1.3-1.9-1.7-3l-0.1-0.3l-0.1-0.3l-0.1-0.2l-0.1-0.4l0-0.2c0-0.2-0.1-0.4-0.1-0.7
			c0-0.1,0-0.2,0-0.2l0-0.4c0-0.1,0-0.2,0-0.3l0-0.3l17.2-4.1c-0.1-0.9-0.4-1.8-0.8-2.6c-0.6-1.4-1.7-2.6-3-3.4
			c-1.4-0.9-3.1-1.5-4.8-1.7l-0.3,0c-1-0.1-2.1-0.1-3.1,0c-2.7,0.3-5.3,1.4-7.3,3.3c-2,1.8-3.3,4.2-3.8,6.8v0.1
			c0,0.2-0.1,0.3-0.1,0.5c0,0.2,0,0.2,0,0.3c0,0.1,0,0.2,0,0.3c0,0.2,0,0.3,0,0.5v0.8c0,1.4,0.3,2.8,0.9,4.1c2,4.6,6.5,7.6,11.5,7.7
			c2.1,0,4.1-0.4,6-1.3c1.8-0.9,3.4-2.3,4.6-3.9l-0.3-0.7C195,64.2,186.6,67.1,181.6,61.7z M189.5,51.4l-10.2,2.5c0-0.3,0-0.6,0-0.9
			v-0.1c0-0.1,0-0.2,0-0.3l0-0.4c0.1-0.6,0.2-1.3,0.4-1.9c0.3-1.1,0.9-2.2,1.6-3.2c0.6-0.9,1.4-1.7,2.4-2.2c0.9-0.5,1.9-0.8,3-0.8
			c1.5,0,2.5,0.4,3.2,1.2c0.2,0.3,0.5,0.6,0.6,0.9C191.2,48,191.2,50.9,189.5,51.4z"/>
		<path class="st1" d="M150.9,61.9c-1.2,2.3-9.6,5.2-14.6-0.2c-0.8-0.9-1.4-2.1-1.8-3.2c-0.4-1.4-0.6-2.8-0.6-4.2
			c0-1.3,0.2-2.6,0.6-3.9c0.3-1.1,0.9-2.2,1.6-3.2c0.6-0.9,1.4-1.6,2.3-2.2c0.9-0.5,1.9-0.8,3-0.8c1.5,0,2.5,0.4,3.2,1.2
			c0.7,0.9,1.1,2,1,3.1c0,0.6-0.1,1.2-0.3,1.7l5.2-1.2c-1.9-4.9-8.2-5.6-9.4-5.6c-10-0.2-15.4,9.2-12.2,16.9c2,4.6,6.5,7.6,11.5,7.7
			c2.1,0,4.1-0.4,6-1.3c1.8-0.9,3.4-2.3,4.6-3.9L150.9,61.9z"/>
		<path class="st1" d="M173.6,61.9c-1.2,2.3-9.6,5.2-14.6-0.2c-0.8-0.9-1.4-2-1.8-3.2c-0.4-1.4-0.6-2.8-0.6-4.2
			c0-1.3,0.2-2.6,0.6-3.9c0.3-1.1,0.9-2.2,1.6-3.2c0.6-0.9,1.4-1.7,2.3-2.2c0.9-0.5,1.9-0.8,3-0.8c1.5,0,2.5,0.4,3.2,1.2
			c0.7,0.9,1.1,2,1,3.1c0,0.6-0.1,1.2-0.3,1.7l5.2-1.2c-1.9-4.9-8.2-5.6-9.3-5.6c-10-0.2-15.4,9.2-12.2,16.9c2,4.6,6.5,7.6,11.5,7.7
			c2.1,0,4.1-0.4,6-1.3c1.8-0.9,3.4-2.3,4.6-3.9L173.6,61.9z"/>
		<path class="st1" d="M204,63V31.6l-7.4,1.8h0v0.7c0.3,0,2.5,0.6,2.5,2.2v26.6c0,3.4-2.4,3.8-4,3.9v0.6H208v-0.6
			C206.4,66.7,204.1,66.2,204,63z"/>
		<path class="st1" d="M114.9,31.6l-7.3,1.8h-0.1V34c0.3,0,2.4,0.8,1.8,2.2c-2.8,6.1-11.8,26.6-12.2,27.5c-1.6,3.1-3.8,3.1-4.7,3.2
			v0.6h11.4v-0.6c0,0-4.3,0-4.3-2.2c0-1.4,2.2-6.8,2.9-8.3l14.9-3.6c0,0.1,4,9.8,4,11.8c0,2.2-3.6,2.3-3.7,2.3v0.6h14.9v-0.6
			c-2.2,0-4.1-1.2-5-3.2C127.1,62.7,114.9,31.6,114.9,31.6z M116.8,51.4L103,54.8c0.1-0.2,7.6-17.7,7.8-18.2
			C111.1,37.4,116.7,51.4,116.8,51.4L116.8,51.4z"/>
	</g>
</g>
</svg>
