<?xml version="1.0" encoding="utf-8"?>
<!-- Generator: Adobe Illustrator 26.3.1, SVG Export Plug-In . SVG Version: 6.00 Build 0)  -->
<svg version="1.1" id="katman_1" xmlns="http://www.w3.org/2000/svg" xmlns:xlink="http://www.w3.org/1999/xlink" x="0px" y="0px"
	 viewBox="0 0 300 100" style="enable-background:new 0 0 300 100;" xml:space="preserve">
<style type="text/css">
	.st0{fill-rule:evenodd;clip-rule:evenodd;}
</style>
<path class="st0" d="M111.7,53.8c0-4.1-3-7.1-7.1-7.1c-4.1,0-7.1,3.1-7.1,7.1s3,7.1,7.1,7.1C108.7,60.9,111.7,57.9,111.7,53.8z
	 M116.1,43v21.7h-3.6l-0.4-2.6c-2,2-4.7,3.2-7.9,3.2c-6.5,0-11.3-4.9-11.3-11.4c0-6.5,4.8-11.4,11.3-11.4c3.2,0,6,1.2,7.9,3.2
	l0.5-2.7C112.7,43,116.1,43,116.1,43z M121.9,64.7h4.5V35.2h-4.5V64.7z M142.1,60.9c4.1,0,7.1-3.1,7.1-7.1c0-4.1-3-7.1-7.1-7.1
	c-4.1,0-7.1,3-7.1,7.1S138,60.9,142.1,60.9L142.1,60.9z M153.4,35.2v29.5H150l-0.6-2.5c-2,1.9-4.6,3-7.7,3
	c-6.6,0-11.3-4.9-11.3-11.4c0-6.5,4.7-11.4,11.3-11.4c2.8,0,5.3,0.9,7.1,2.5v-9.8L153.4,35.2L153.4,35.2z M168.7,46.5
	c-3.4,0-5.8,2-6.5,5.2h13.1C174.5,48.4,172,46.5,168.7,46.5z M179.8,53.9c0,0.5,0,1-0.1,1.5H162c0.6,3.5,3.1,5.7,6.6,5.7
	c2.6,0,4.7-1.2,5.8-3.2h4.7c-1.7,4.6-5.7,7.4-10.5,7.4c-6.3,0-11.1-4.9-11.1-11.4c0-6.5,4.8-11.4,11.1-11.4
	C175.3,42.4,179.8,47.6,179.8,53.9z M189.5,54.4h9.3l-4.7-11.9L189.5,54.4z M200.5,58.5h-12.5l-2.4,6.1h-4.9L192,36.5h4.3l11.6,28.1
	h-5L200.5,58.5L200.5,58.5z"/>
</svg>
