<?xml version="1.0" encoding="utf-8"?>
<!-- Generator: Adobe Illustrator 26.3.1, SVG Export Plug-In . SVG Version: 6.00 Build 0)  -->
<svg version="1.1" id="katman_1" xmlns="http://www.w3.org/2000/svg" xmlns:xlink="http://www.w3.org/1999/xlink" x="0px" y="0px"
	 viewBox="0 0 300 100" style="enable-background:new 0 0 300 100;" xml:space="preserve">
<g>
	<g>
		<path d="M119.5,47.7c2.7,0,3.9,2.5,3.9,5.3c0,2.8-1.2,5.3-3.9,5.3s-3.9-2.5-3.9-5.3C115.6,50.3,116.8,47.7,119.5,47.7z
			 M111.2,61.4h4.3v-2.1h0.1c1,1.8,3,2.6,5.5,2.6c3.3,0,6.9-2.7,6.9-8.8s-3.6-8.8-6.9-8.8c-2.1,0-4.1,0.8-5.3,2.5l0,0v-8.4h-4.6
			V61.4z"/>
	</g>
	<g>
		<path d="M129.1,38.4h4.6v23h-4.6V38.4z"/>
	</g>
	<g>
		<path d="M135.5,44.7h4.6v16.7h-4.6V44.7z M140,42.1h-4.6v-3.7h4.6V42.1z"/>
	</g>
	<g>
		<path d="M145.3,56c0,2,1.7,2.8,3.5,2.8c1.3,0,3-0.5,3-2.1c0-1.4-1.9-1.9-5.2-2.6c-2.6-0.6-5.3-1.5-5.3-4.4c0-4.3,3.7-5.3,7.2-5.3
			c3.6,0,7,1.2,7.3,5.3h-4.3c-0.1-1.8-1.5-2.3-3.1-2.3c-1,0-2.5,0.2-2.5,1.5c0,1.6,2.6,1.9,5.2,2.5c2.7,0.6,5.3,1.6,5.3,4.7
			c0,4.4-3.8,5.8-7.6,5.8c-3.9,0-7.6-1.5-7.8-5.9H145.3z"/>
	</g>
	<g>
		<path d="M168.4,50.6c-0.3-1.9-1.5-2.9-3.4-2.9c-2.9,0-3.9,3-3.9,5.4c0,2.4,0.9,5.3,3.8,5.3c2.1,0,3.3-1.4,3.6-3.4h4.4
			c-0.6,4.4-3.6,6.8-8,6.8c-5,0-8.4-3.5-8.4-8.5c0-5.2,3.1-9,8.5-9c3.9,0,7.5,2.1,7.8,6.3C172.8,50.6,168.4,50.6,168.4,50.6z"/>
	</g>
	<g>
		<path d="M177.4,51.3c0.1-1.3,0.9-3.5,3.8-3.5c2.2,0,3.2,1.2,3.6,3.5H177.4z M189.4,54.2c0.3-5.1-2.4-9.9-8.1-9.9
			c-5.1,0-8.5,3.8-8.5,8.8c0,5.2,3.3,8.8,8.5,8.8c3.8,0,6.5-1.7,7.8-5.6h-4c-0.3,1-1.8,2.2-3.6,2.2c-2.5,0-4-1.3-4.1-4.2h12
			C189.4,54.3,189.4,54.2,189.4,54.2z"/>
	</g>
</g>
</svg>
