<?xml version="1.0" encoding="utf-8"?>
<!-- Generator: Adobe Illustrator 26.3.1, SVG Export Plug-In . SVG Version: 6.00 Build 0)  -->
<svg version="1.1" id="katman_1" xmlns="http://www.w3.org/2000/svg" xmlns:xlink="http://www.w3.org/1999/xlink" x="0px" y="0px"
	 viewBox="0 0 300 100" style="enable-background:new 0 0 300 100;" xml:space="preserve">
<style type="text/css">
	.st0{fill:#1A233F;}
	.st1{fill:#FFFFFF;}
</style>
<rect x="137.3" y="32.2" class="st0" width="0.9" height="36"/>
<rect x="96.3" y="32.2" class="st0" width="36" height="36"/>
<path class="st0" d="M143.3,37.1c0-0.3,0.2-0.5,0.5-0.5h0.8c0.3,0,0.5,0.2,0.5,0.5V49h17.3V37.1c0-0.3,0.2-0.5,0.5-0.5h0.8
	c0.3,0,0.5,0.2,0.5,0.5v26.2c0,0.3-0.2,0.5-0.5,0.5H163c-0.3,0-0.5-0.2-0.5-0.5V50.7h-17.3v12.6c0,0.3-0.2,0.5-0.5,0.5h-0.8
	c-0.3,0-0.5-0.2-0.5-0.5V37.1z M177.5,39.9l-4.6,3.8c-0.2,0.2-0.4,0.2-0.6,0l-0.5-0.5c-0.2-0.2-0.1-0.4,0.1-0.6l6.2-5.2h0.6
	c0.3,0,0.6,0.2,0.6,0.5v25.5c0,0.3-0.2,0.5-0.5,0.5h-0.8c-0.3,0-0.5-0.2-0.5-0.5L177.5,39.9L177.5,39.9z M184.2,57.1v-0.7l15.8-19.6
	h0.7c0.3,0,0.4,0.1,0.4,0.4c0,6.3,0,12.6,0,18.9h2.9c0.3,0,0.5,0.2,0.5,0.5v0.5c0,0.3-0.2,0.5-0.5,0.5h-2.9v5.6
	c0,0.3-0.2,0.5-0.5,0.5c-0.5,0-1.2,0.1-1.2-0.5v-5.6h-14.6C184.4,57.7,184.2,57.6,184.2,57.1 M199.5,56.2V40l-13.1,16.1H199.5z"/>
<path class="st1" d="M113.5,35.3c6.6,0,11.9,5.3,11.9,11.9c0,5.1-3,9.3-7.4,11l3.9,6.4c0.1,0.2,0,0.5-0.2,0.5h-1.1
	c-0.1,0-0.3-0.1-0.4-0.3l-3.7-6.1c-0.9,0.2-2,0.4-3,0.4c-6.6,0-11.9-5.2-11.9-11.9C101.7,40.7,106.9,35.3,113.5,35.3 M113.5,57.7
	c5.8,0,10.4-4.6,10.4-10.4c0-5.8-4.7-10.5-10.4-10.5c-5.8,0-10.4,4.7-10.4,10.5C103.1,53.1,107.8,57.7,113.5,57.7"/>
</svg>
