<?xml version="1.0" encoding="utf-8"?>
<!-- Generator: Adobe Illustrator 26.3.1, SVG Export Plug-In . SVG Version: 6.00 Build 0)  -->
<svg version="1.1" id="katman_1" xmlns="http://www.w3.org/2000/svg" xmlns:xlink="http://www.w3.org/1999/xlink" x="0px" y="0px"
	 viewBox="0 0 300 100" style="enable-background:new 0 0 300 100;" xml:space="preserve">
<style type="text/css">
	.st0{fill-rule:evenodd;clip-rule:evenodd;fill:#1F191A;}
	.st1{fill-rule:evenodd;clip-rule:evenodd;fill:#FFFFFF;filter:url(#Adobe_OpacityMaskFilter);}
	.st2{mask:url(#_x38_2l8s80w8a_00000090269822170011953600000015483234188930841249_);}
	
		.st3{fill-rule:evenodd;clip-rule:evenodd;fill:#FFFFFF;filter:url(#Adobe_OpacityMaskFilter_00000035511489307368467100000004009160295592962996_);}
	.st4{mask:url(#_x36_8otsowuab_00000169533696082403083100000005510170862718455443_);}
</style>
<path class="st0" d="M87.3,35.8v12.9H74.9V35.8h-6.5v29.8h6.5V52h12.4v13.6h6.5V35.8L87.3,35.8L87.3,35.8z M102.1,52h7.7
	c0.2-4.1-1.5-5.5-3.5-5.5C104.2,46.5,102.3,48.4,102.1,52z M102.5,55.4c1,4.2,4.4,5.8,7.3,5.8c2.4,0,4.6-0.8,5.9-2.1
	c-0.3,4.2-3.7,7-8.7,7c-5.6,0-10.3-4.3-10.3-10.9c0-6.6,4.3-11.6,10.3-11.6c5.9,0,8.7,3.9,8.7,7.2c0,0.2,0,0.3,0,0.6L102.5,55.4
	L102.5,55.4z"/>
<defs>
	<filter id="Adobe_OpacityMaskFilter" filterUnits="userSpaceOnUse" x="141.4" y="35" width="20.4" height="31">
		<feColorMatrix  type="matrix" values="1 0 0 0 0  0 1 0 0 0  0 0 1 0 0  0 0 0 1 0"/>
	</filter>
</defs>
<mask maskUnits="userSpaceOnUse" x="141.4" y="35" width="20.4" height="31" id="_x38_2l8s80w8a_00000090269822170011953600000015483234188930841249_">
	<path class="st1" d="M141.4,35h20.4v31h-20.4V35z"/>
</mask>
<g class="st2">
	<path class="st0" d="M155.8,61V48c-0.9-1-2.1-1.6-3.5-1.6c-2.6,0-4.7,2.2-4.7,6.9c0,4.9,1.9,8.5,5.7,8.5
		C154.2,61.8,155.1,61.4,155.8,61L155.8,61z M161.7,65.6h-5.9V62c-1.1,2.3-3.2,4-6.2,4c-4.4,0-8.3-4-8.3-10.6
		c0-6.9,4.2-11.8,10.7-11.8c1.2,0,2.5,0.2,3.8,0.6v-7.5l5.9-1.8C161.7,35,161.7,65.6,161.7,65.6z"/>
</g>
<path class="st0" d="M132.5,61V48c-0.9-1-2.1-1.6-3.5-1.6c-2.6,0-4.7,2.2-4.7,6.9c0,4.9,1.9,8.5,5.7,8.5
	C130.9,61.8,131.8,61.4,132.5,61L132.5,61z M138.4,65.6h-5.9V62c-1.1,2.3-3.2,4-6.2,4c-4.4,0-8.3-4-8.3-10.6
	c0-6.9,4.2-11.8,10.7-11.8c2.4,0,3.8,1.3,3.8,1.3l5.9-1.8L138.4,65.6L138.4,65.6z M167.1,36.7L173,35v30.6h-5.9V36.7z M178.4,45.3
	l5.9-1.8v22h-5.9V45.3z M189.6,45.3l5.9-1.8v4.2c1.4-2.3,3.6-4.2,7-4.2c3.5,0,6.2,2.3,6.2,7.3v14.7h-5.9V52.9c0-3.4-1.4-5-4.2-5
	c-1,0-2,0.3-3,0.8v16.9h-5.9L189.6,45.3L189.6,45.3z M217,52h7.7c0.2-4.1-1.5-5.5-3.5-5.5C219.1,46.5,217.2,48.4,217,52L217,52z
	 M217.4,55.4c1,4.2,4.4,5.8,7.3,5.8c2.4,0,4.6-0.8,5.9-2.1c-0.3,4.2-3.7,7-8.7,7c-5.6,0-10.3-4.3-10.3-10.9
	c0-6.6,4.3-11.6,10.3-11.6c5.9,0,8.7,3.9,8.7,7.2c0,0.2,0,0.3,0,0.6L217.4,55.4L217.4,55.4z"/>
<defs>
	
		<filter id="Adobe_OpacityMaskFilter_00000124840185503546917060000002599015695361231284_" filterUnits="userSpaceOnUse" x="178.1" y="36" width="6.5" height="4.6">
		<feColorMatrix  type="matrix" values="1 0 0 0 0  0 1 0 0 0  0 0 1 0 0  0 0 0 1 0"/>
	</filter>
</defs>
<mask maskUnits="userSpaceOnUse" x="178.1" y="36" width="6.5" height="4.6" id="_x36_8otsowuab_00000169533696082403083100000005510170862718455443_">
	
		<path style="fill-rule:evenodd;clip-rule:evenodd;fill:#FFFFFF;filter:url(#Adobe_OpacityMaskFilter_00000124840185503546917060000002599015695361231284_);" d="
		M68.4,66h162.2V35H68.4V66z"/>
</mask>
<g class="st4">
	<path class="st0" d="M178.1,40.6h6.5V36h-6.5V40.6L178.1,40.6z"/>
</g>
</svg>
