<?xml version="1.0" encoding="utf-8"?>
<!-- Generator: Adobe Illustrator 26.3.1, SVG Export Plug-In . SVG Version: 6.00 Build 0)  -->
<svg version="1.1" id="katman_1" xmlns="http://www.w3.org/2000/svg" xmlns:xlink="http://www.w3.org/1999/xlink" x="0px" y="0px"
	 viewBox="0 0 300 100" style="enable-background:new 0 0 300 100;" xml:space="preserve">
<style type="text/css">
	.st0{fill:#575757;}
	.st1{fill:#0080C9;}
</style>
<g id="g7703" transform="matrix(0.30137929,0,0,0.30137929,0,5.3333817)">
	<g id="g7701">
		<path id="path6" class="st0" d="M439.4,158.4c0-11.8,7.3-18.1,24.9-18.1c8.1,0,14.4,1.7,21.5,4.6l0.1-4.6c0-12.3-3-17.7-19.4-17.7
			c-7,0-13.5,1.4-18.5,3.6c-1.4,0.7-2.4,0.1-2.4-1.5v-2.4c0-1.1,0.5-1.9,1.5-2.4c5.4-2.2,12-3.6,20.6-3.6c19.7,0,28.2,7.8,28.2,22.3
			v30.1c0,1.1-0.3,1.8-1.3,2.3c-8.3,3.9-17.6,5.8-28,5.8C445.7,177,439.4,170.2,439.4,158.4z M485.7,166.6v-15.9
			c-6.8-2.8-12.3-4-19.3-4c-12.4,0-16.5,3.6-16.5,11.8c0,8.1,4.1,12.3,17.1,12.3C474.5,170.8,479.8,169.3,485.7,166.6z"/>
		<path id="path8" class="st0" d="M552.7,126.3c-5.4-2.4-9.9-3.6-16.8-3.6c-5.6,0-11.2,1.4-17.1,4v46.9c0,1.3-0.7,2.1-2.1,2.1h-6.5
			c-1.3,0-2.1-0.7-2.1-2.1v-48.9c0-1.1,0.5-1.8,1.5-2.4c7.8-3.7,16.8-6,26.2-6c7,0,12.6,1.1,17.6,3.4c1,0.5,1.5,1.3,1.5,2.4v2.6
			C555,126.3,554.1,126.9,552.7,126.3z"/>
		<path id="path10" class="st0" d="M562.2,117.7v-15.2c0-1.3,0.7-2.1,2.1-2.1h6.6c1.3,0,2.1,0.7,2.1,2.1v15.2h16
			c1.3,0,2.1,0.7,2.1,2.1v2.3c0,1.3-0.7,2.1-2.1,2.1h-16v36c0,7.2,0.1,10.8,7.8,10.8c3.3,0,6.1-0.2,8.5-0.8c1.4-0.2,2.3,0.3,2.3,1.7
			v2.1c0,1.1-0.6,1.9-1.7,2.3c-3,0.6-6.6,1-10.1,1c-13,0-17.3-6.4-17.3-17V124v-6.3L562.2,117.7L562.2,117.7z"/>
		<path id="path12" class="st0" d="M628.7,170.9c6.2,0,11.7-1,17-3.4c1.4-0.7,2.4-0.1,2.4,1.5v2.5c0,1.1-0.5,1.9-1.6,2.3
			c-5.5,2.2-11.8,3.3-17.9,3.3c-22.8,0-33.8-9.9-33.8-27.3v-6c0-17.3,11-27.4,31.1-27.4c19.3,0,26.6,9.7,26.6,20.1
			c0,10.7-7,14.6-18.8,14.6h-28.2C605.4,164.7,612.7,170.9,628.7,170.9z M629.2,144.8c8.5,0,12.8-2.1,12.8-8.4
			c0-8.1-4.8-13.8-17.8-13.8c-13,0-18.8,6.6-18.8,21.1v1.1h23.7V144.8L629.2,144.8z"/>
		<path id="path14" class="st0" d="M692.9,170.8c6.8,0,12-1,16.8-3.2c1.4-0.7,2.4-0.1,2.4,1.5v2.4c0,1.1-0.5,1.9-1.5,2.4
			c-4.9,2.2-10.8,3.2-18,3.2c-21.5,0-32.3-10-32.3-27.4v-5.8c0-17.3,10.9-27.4,32.3-27.4c7.2,0,13.1,1.1,18,3.2
			c1,0.5,1.5,1.3,1.5,2.4v2.5c0,1.6-0.9,2.1-2.4,1.4c-4.8-2.3-10.2-3.3-16.8-3.3c-14.7,0-22,5.6-22,21.2v5.8
			C670.9,165.2,678.2,170.8,692.9,170.8z"/>
		<path id="path16" class="st0" d="M766,173.6v-32.4c0-12.8-1-18.6-16.2-18.6c-7.4,0-12.5,2.5-17.8,6.3v44.8c0,1.3-0.7,2.1-2.1,2.1
			h-6.5c-1.3,0-2.1-0.7-2.1-2.1V96c0-1.3,0.7-2.1,2.1-2.1h6.5c1.3,0,2.1,0.7,2.1,2.1v26.4c5.8-3.4,11.8-6.1,19.9-6.1
			c17.9,0,24.4,7.6,24.4,24.1v33.2c0,1.3-0.7,2.1-2.1,2.1H768C766.8,175.7,766,174.9,766,173.6z"/>
		<g id="g20" transform="translate(-183.26061,-231.8)">
			<path id="path18" class="st0" d="M557.8,353.8c7.4-3.9,15.7-5.8,26.1-5.8c22.5,0,29.7,10.1,29.7,27.4v5.8
				c0,17.4-7.3,27.4-27.2,27.4c-8.9,0-14.6-2.3-20.1-5.8v26.2c0,1.3-0.7,2.1-2.1,2.1h-6c-1.3,0-2.1-0.7-2.1-2.1v-72.8
				C556.4,355,556.9,354.3,557.8,353.8z M583.5,354.2c-7.2,0-11.5,1.3-17.2,4v37.9c5.4,3.7,10.4,6.2,18.8,6.2c13.8,0,18-7.6,18-21.2
				v-5.8C603.3,362,598.6,354.2,583.5,354.2z"/>
		</g>
		<g id="g24" transform="translate(-183.26061,-231.8)">
			<path id="path22" class="st1" d="M450.9,345.4L450.9,345.4l3.2-14.2l-8,4.2l0,0c-9.4,4.8-21.9,8.3-26.6,8.3
				c-3.7,0-4.5-1.6-4.4-3.8c0,0-1.6,2.3-3.2,5.2c-1,1.7-2.3,4.1-3.1,6.3c-2.1,5.3,2.5,6.3,11.6,4.7
				C428.7,354.4,441.4,349.9,450.9,345.4 M477.9,377.4l-3.6,18.3l0,0c-13.9,6.9-36.7,16.2-50,15.6c-6.5-0.2-10.4-3.4-12.5-7.8
				c-0.6-0.8-1.8-3.6-2.8-6.3c-0.6-1.7-0.2-0.6-0.7-2.1c1.7,2.4,4.7,3.2,8.1,3.2c15.9-0.5,36.6-9.1,51.6-16l0,0L477.9,377.4z
				 M512.3,390.8l-10.5,5.8l0,0c-19.1,11-31.3,17.3-48.3,22.2c-8.5,2.3-21.3,4.8-25.8,2.6c0.9,0.7,2.1,1.5,3.1,2.2
				c1.8,1.1,6.4,3.9,8.4,4.6c8,3.4,14.3,3.6,25.8,0.7c15.9-5,32.2-13.3,44-21.4l0,0L512.3,390.8z M496.4,331.4l-3.1,20.2l0,0
				c-19.9,15-54.6,28.9-72.2,32.2c-11.2,2.1-15.7-2.1-16.4-7.3c-0.2-4.7-0.2-6,0.1-9.4c0.1-1,0.2-1.1,0.5-2.2
				c0.1,2.2,2.4,4.8,8.3,4.5c18-1.5,50.4-16.6,71.5-30.4l0,0L496.4,331.4z"/>
		</g>
	</g>
</g>
</svg>
