<?xml version="1.0" encoding="utf-8"?>
<!-- Generator: Adobe Illustrator 26.3.1, SVG Export Plug-In . SVG Version: 6.00 Build 0)  -->
<svg version="1.1" id="katman_1" xmlns="http://www.w3.org/2000/svg" xmlns:xlink="http://www.w3.org/1999/xlink" x="0px" y="0px"
	 viewBox="0 0 300 100" style="enable-background:new 0 0 300 100;" xml:space="preserve">
<style type="text/css">
	.st0{fill:#27AAE1;}
</style>
<g id="Layer_2">
	<g id="Layer_1-2">
		<path class="st0" d="M84.6,57.6l-0.1-2.1c-0.7,0.8-1.6,1.4-2.6,1.8c-0.9,0.4-1.8,0.6-2.8,0.6c-0.8,0-1.6-0.1-2.3-0.3
			c-0.6-0.2-1.1-0.5-1.6-1c-0.4-0.4-0.7-0.9-0.9-1.4c-0.2-0.6-0.3-1.2-0.3-1.8c0-1.6,0.6-2.8,1.8-3.7c1.2-0.9,2.9-1.3,5.2-1.3h3.3
			v-1.4c0-0.9-0.3-1.7-0.9-2.2s-1.5-0.8-2.7-0.8c-0.9,0-1.8,0.1-2.6,0.3c-0.9,0.2-1.8,0.5-2.7,0.8v-2.5c0.3-0.1,0.7-0.2,1.2-0.4
			s0.9-0.2,1.3-0.3c0.5-0.1,1-0.2,1.5-0.2c0.5-0.1,1-0.1,1.6-0.1c0.9,0,1.7,0.1,2.6,0.3c0.7,0.2,1.4,0.5,1.9,1
			c0.5,0.4,0.9,1,1.2,1.6c0.3,0.7,0.4,1.5,0.4,2.3v10.9H84.6z M84.3,50.4h-3.5c-0.6,0-1.2,0.1-1.8,0.2c-0.4,0.1-0.9,0.3-1.2,0.6
			c-0.3,0.2-0.5,0.6-0.7,0.9C77,52.5,77,52.9,77,53.3c0,0.3,0,0.6,0.1,0.9c0.1,0.3,0.2,0.5,0.5,0.7c0.2,0.2,0.5,0.4,0.8,0.5
			c0.4,0.1,0.8,0.2,1.2,0.2c0.6,0,1.3-0.2,2.2-0.6c0.9-0.5,1.8-1.1,2.6-1.8L84.3,50.4z M118.9,57c-0.7,0.3-1.4,0.5-2.2,0.6
			c-0.8,0.1-1.5,0.2-2.3,0.2c-2.5,0-4.4-0.7-5.7-2c-1.3-1.3-2-3.3-2-5.9c0-1.2,0.2-2.3,0.6-3.4c0.4-1,0.9-1.9,1.6-2.6
			c0.7-0.7,1.6-1.3,2.5-1.7c1-0.4,2.1-0.6,3.2-0.6c0.8,0,1.5,0.1,2.3,0.2c0.7,0.1,1.4,0.3,2,0.6v2.6c-0.7-0.3-1.4-0.6-2.1-0.8
			c-0.7-0.2-1.5-0.2-2.2-0.2c-0.7,0-1.4,0.1-2,0.4c-0.6,0.3-1.2,0.7-1.6,1.2c-0.5,0.5-0.9,1.2-1.1,1.8c-0.3,0.8-0.4,1.6-0.4,2.5
			c0,1.9,0.5,3.3,1.4,4.3c0.9,0.9,2.2,1.4,3.9,1.4c0.7,0,1.5-0.1,2.2-0.3c0.7-0.2,1.4-0.4,2-0.8L118.9,57z M134.4,57.6l-0.1-2.1
			c-0.7,0.8-1.6,1.4-2.6,1.8c-0.9,0.4-1.8,0.6-2.8,0.6c-0.8,0-1.6-0.1-2.3-0.3c-0.6-0.2-1.1-0.5-1.6-1c-0.4-0.4-0.7-0.9-0.9-1.4
			c-0.2-0.6-0.3-1.2-0.3-1.8c0-1.6,0.6-2.8,1.8-3.7s2.9-1.3,5.2-1.3h3.3v-1.4c0-0.9-0.3-1.7-0.9-2.2s-1.5-0.8-2.7-0.8
			c-0.9,0-1.8,0.1-2.6,0.3c-0.9,0.2-1.8,0.5-2.7,0.8v-2.5c0.3-0.1,0.7-0.2,1.2-0.4c0.4-0.1,0.9-0.2,1.3-0.3s1-0.2,1.5-0.2
			c0.5-0.1,1-0.1,1.6-0.1c0.9,0,1.7,0.1,2.6,0.3c0.7,0.2,1.4,0.5,1.9,1c0.5,0.4,0.9,1,1.2,1.6c0.3,0.7,0.4,1.5,0.4,2.3v10.9
			L134.4,57.6z M134.1,50.4h-3.5c-0.6,0-1.2,0.1-1.8,0.2c-0.4,0.1-0.9,0.3-1.2,0.6c-0.3,0.2-0.5,0.6-0.7,0.9
			c-0.2,0.4-0.2,0.8-0.2,1.2c0,0.3,0,0.6,0.1,0.9c0.1,0.3,0.3,0.5,0.5,0.7c0.2,0.2,0.5,0.4,0.8,0.5c0.4,0.1,0.8,0.2,1.2,0.2
			c0.6,0,1.3-0.2,2.2-0.6c0.9-0.5,1.8-1.1,2.6-1.8L134.1,50.4z M155.4,49.4c0,1.4-0.2,2.6-0.6,3.7c-0.3,1-0.9,1.9-1.6,2.6
			c-0.7,0.7-1.5,1.2-2.4,1.6c-1,0.4-2,0.5-3.1,0.5c-0.5,0-1,0-1.5-0.1c-0.5-0.1-1-0.1-1.5-0.3V64h-2.7V41.8h2.4l0.2,2.6
			c0.8-1.1,1.6-1.8,2.5-2.3c0.9-0.4,1.9-0.7,2.9-0.7c0.8,0,1.6,0.2,2.4,0.6c0.7,0.4,1.3,0.9,1.7,1.6c0.5,0.8,0.8,1.6,1,2.5
			C155.3,47.2,155.4,48.3,155.4,49.4L155.4,49.4z M152.6,49.5c0-0.8-0.1-1.5-0.2-2.3c-0.1-0.6-0.3-1.2-0.6-1.8
			c-0.2-0.5-0.6-0.9-1-1.2c-0.4-0.3-0.9-0.4-1.4-0.4c-0.4,0-0.7,0.1-1.1,0.2c-0.4,0.1-0.8,0.3-1.1,0.5c-0.4,0.3-0.8,0.6-1.2,1
			c-0.5,0.5-0.9,1-1.4,1.6v7.6c0.5,0.2,1,0.4,1.6,0.5c0.5,0.1,1.1,0.2,1.6,0.2c1.5,0,2.6-0.5,3.5-1.5
			C152.2,53,152.6,51.5,152.6,49.5L152.6,49.5z M165,44.1h-4.6v-2.3h7.4v13.5h4.7v2.3h-12.6v-2.3h5.2L165,44.1z M165.9,35.2
			c0.3,0,0.6,0.1,0.8,0.2c0.3,0.1,0.5,0.3,0.7,0.5c0.2,0.2,0.3,0.4,0.5,0.7c0.1,0.3,0.2,0.6,0.2,0.8c0,0.3-0.1,0.6-0.2,0.8
			c-0.1,0.3-0.3,0.5-0.5,0.7c-0.2,0.2-0.4,0.4-0.7,0.5c-0.5,0.2-1.2,0.2-1.7,0c-0.3-0.1-0.5-0.3-0.7-0.5c-0.2-0.2-0.3-0.4-0.5-0.7
			c-0.1-0.3-0.2-0.5-0.2-0.8c0-0.3,0.1-0.6,0.2-0.8c0.1-0.3,0.3-0.5,0.5-0.7c0.2-0.2,0.4-0.4,0.7-0.5
			C165.4,35.3,165.6,35.2,165.9,35.2z M190,57.3c-0.6,0.2-1.3,0.3-1.9,0.3c-0.7,0.1-1.3,0.1-2,0.1c-2,0-3.5-0.4-4.4-1.3
			c-1-0.9-1.5-2.3-1.5-4.1v-8.2h-4.4v-2.3h4.4v-4.3l2.7-0.7v5h7.1v2.3h-7.1v8c0,1.1,0.3,2,0.9,2.5c0.6,0.6,1.5,0.8,2.7,0.8
			c0.6,0,1.1,0,1.6-0.1c0.6-0.1,1.3-0.2,1.9-0.4L190,57.3z M205.1,57.6l-0.1-2.1c-0.7,0.8-1.6,1.4-2.6,1.8c-0.9,0.4-1.8,0.6-2.8,0.6
			c-0.8,0-1.6-0.1-2.3-0.3c-0.6-0.2-1.1-0.5-1.6-1c-0.4-0.4-0.7-0.9-0.9-1.4c-0.2-0.6-0.3-1.2-0.3-1.8c0-1.6,0.6-2.8,1.8-3.7
			c1.2-0.9,2.9-1.3,5.2-1.3h3.3v-1.4c0-0.9-0.3-1.7-0.9-2.2s-1.5-0.8-2.7-0.8c-0.9,0-1.8,0.1-2.6,0.3c-0.9,0.2-1.8,0.5-2.7,0.8v-2.5
			c0.3-0.1,0.7-0.2,1.2-0.4c0.4-0.1,0.9-0.2,1.3-0.3c0.5-0.1,1-0.2,1.5-0.2c0.5-0.1,1-0.1,1.6-0.1c0.9,0,1.7,0.1,2.6,0.3
			c0.7,0.2,1.4,0.5,1.9,1c0.5,0.4,0.9,1,1.2,1.6c0.3,0.7,0.4,1.5,0.4,2.3v10.9H205.1z M204.8,50.4h-3.5c-0.6,0-1.2,0.1-1.8,0.2
			c-0.4,0.1-0.9,0.3-1.2,0.6c-0.3,0.2-0.5,0.6-0.7,0.9c-0.2,0.4-0.2,0.8-0.2,1.2c0,0.3,0,0.6,0.1,0.9c0.1,0.3,0.2,0.5,0.5,0.7
			c0.2,0.2,0.5,0.4,0.8,0.5c0.4,0.1,0.8,0.2,1.2,0.2c0.6,0,1.3-0.2,2.2-0.6c0.9-0.5,1.8-1.1,2.6-1.8L204.8,50.4z M218,37.6h-4.7
			v-2.2h7.4v19.9h4.7v2.3h-12.6v-2.3h5.2V37.6z M106.3,59.9H88.7v-2.3h17.7V59.9z"/>
	</g>
</g>
</svg>
