<svg xmlns="http://www.w3.org/2000/svg" viewBox="0 0 998.64 189.95"><defs><style>.cls-1{fill:#27aae1;}</style></defs><title>logo</title><g id="Layer_2" data-name="Layer 2"><g id="Layer_1-2" data-name="Layer 1"><path class="cls-1" d="M69.56,147.51l-.41-14a56.64,56.64,0,0,1-17.24,12.11,46.44,46.44,0,0,1-18.37,3.72,45.23,45.23,0,0,1-15.22-2.27,28.44,28.44,0,0,1-10.4-6.27,24.09,24.09,0,0,1-6-9.37A34.5,34.5,0,0,1,0,119.77q0-15.63,11.65-24.48t34.41-8.85H67.6V77.33q0-9.22-5.9-14.75T43.68,57a77.16,77.16,0,0,0-17.34,2A123.57,123.57,0,0,0,8.7,64.59V48.34c2.27-.83,4.81-1.64,7.6-2.43s5.75-1.5,8.85-2.12,6.35-1.12,9.73-1.5a91.72,91.72,0,0,1,10.25-.57,64.32,64.32,0,0,1,17,2.07A34.33,34.33,0,0,1,74.89,50.1a27.88,27.88,0,0,1,8,10.66,37.71,37.71,0,0,1,2.79,15.12v71.63Zm-2-47.31H44.72a43.79,43.79,0,0,0-11.6,1.35,22,22,0,0,0-8,3.83,15.39,15.39,0,0,0-4.6,6,19.51,19.51,0,0,0-1.5,7.82,17.75,17.75,0,0,0,.93,5.74,12.81,12.81,0,0,0,3,4.87,14.54,14.54,0,0,0,5.38,3.36,23.07,23.07,0,0,0,8.08,1.24q6.21,0,14.23-3.78a69.39,69.39,0,0,0,16.93-12Zm227.85,43.48a77.87,77.87,0,0,1-14.44,4A88.68,88.68,0,0,1,265.75,149q-24.65,0-37.94-13.35t-13.31-39a62.41,62.41,0,0,1,3.83-22.36A50,50,0,0,1,229.1,57a47.68,47.68,0,0,1,16.56-11,56.21,56.21,0,0,1,21.22-3.88A94.71,94.71,0,0,1,282,43.27,62.38,62.38,0,0,1,295.45,47V64.18a56.79,56.79,0,0,0-13.71-5.12,64.3,64.3,0,0,0-14.44-1.61,32.9,32.9,0,0,0-13.1,2.64,32,32,0,0,0-10.81,7.61A35.89,35.89,0,0,0,236,79.81,45.43,45.43,0,0,0,233.34,96q0,18.84,9.16,28.21t25.42,9.37a60.83,60.83,0,0,0,14.23-1.66,58.73,58.73,0,0,0,13.3-5ZM398,147.51l-.42-14a56.61,56.61,0,0,1-17.23,12.11A46.49,46.49,0,0,1,362,149.37a45.21,45.21,0,0,1-15.21-2.27,28.57,28.57,0,0,1-10.41-6.27,24.32,24.32,0,0,1-6-9.37,34.5,34.5,0,0,1-1.91-11.69q0-15.63,11.64-24.48t34.42-8.85h21.53V77.33q0-9.22-5.9-14.75t-18-5.54a77,77,0,0,0-17.34,2,123.68,123.68,0,0,0-17.65,5.59V48.34c2.28-.83,4.81-1.64,7.61-2.43s5.74-1.5,8.85-2.12,6.35-1.12,9.73-1.5a91.72,91.72,0,0,1,10.25-.57,64.19,64.19,0,0,1,17,2.07,34.46,34.46,0,0,1,12.79,6.31,27.86,27.86,0,0,1,8,10.66,37.71,37.71,0,0,1,2.8,15.12v71.63Zm-2-47.31H373.19a43.71,43.71,0,0,0-11.59,1.35,22,22,0,0,0-8,3.83,15.41,15.41,0,0,0-4.61,6,19.51,19.51,0,0,0-1.5,7.82,17.75,17.75,0,0,0,.93,5.74,13,13,0,0,0,3,4.87,14.54,14.54,0,0,0,5.38,3.36,23.05,23.05,0,0,0,8.07,1.24q6.21,0,14.24-3.78a69.35,69.35,0,0,0,16.92-12Zm140.58-6.52q0,13.88-3.89,24.22a47.4,47.4,0,0,1-10.71,17.19,44,44,0,0,1-16.15,10.25,58.36,58.36,0,0,1-20.18,3.41,93,93,0,0,1-9.89-.52,73.8,73.8,0,0,1-10-1.76V190h-18V43.58h16L465,61q7.77-10.66,16.57-15a42.84,42.84,0,0,1,19-4.29,31.75,31.75,0,0,1,15.63,3.72A32.52,32.52,0,0,1,527.54,56a49.84,49.84,0,0,1,6.83,16.36A92.34,92.34,0,0,1,536.65,93.68Zm-18.43.83a88,88,0,0,0-1.19-15,39.05,39.05,0,0,0-3.78-11.7,20.75,20.75,0,0,0-6.62-7.61A16.8,16.8,0,0,0,497,57.45a23.28,23.28,0,0,0-6.94,1.09,27.91,27.91,0,0,0-7.29,3.62,54.26,54.26,0,0,0-8,6.73,105.5,105.5,0,0,0-9,10.4v50.42A60.94,60.94,0,0,0,476.3,133a50.81,50.81,0,0,0,10.76,1.19q14.6,0,22.88-9.89T518.22,94.51Zm81.57-36H569.05V43.58h49V132.5h31v15H565.63v-15h34.16ZM606.1,0a14.14,14.14,0,0,1,5.59,1.09,13.48,13.48,0,0,1,4.51,3.05,14.89,14.89,0,0,1,3,4.5,14,14,0,0,1,1.09,5.54,14.15,14.15,0,0,1-1.09,5.49,14.76,14.76,0,0,1-3,4.55,13.65,13.65,0,0,1-4.51,3.06,15,15,0,0,1-11.18,0,13.71,13.71,0,0,1-4.5-3.06,14.41,14.41,0,0,1-3-4.55,14.15,14.15,0,0,1-1.09-5.49A14,14,0,0,1,593,8.64a14.53,14.53,0,0,1,3-4.5,13.54,13.54,0,0,1,4.5-3A14.22,14.22,0,0,1,606.1,0ZM764.69,146.06a87.18,87.18,0,0,1-12.63,2.23,131.48,131.48,0,0,1-13.25.67q-19.56,0-29.19-8.85T700,112.94V58.69H670.91V43.58H700V15l18-4.66V43.58h46.69V58.69H718v52.8q0,11.17,6,16.71t17.54,5.54a84.93,84.93,0,0,0,10.87-.77,102.57,102.57,0,0,0,12.32-2.44Zm99.58,1.45-.41-14a56.64,56.64,0,0,1-17.24,12.11,46.44,46.44,0,0,1-18.37,3.72A45.23,45.23,0,0,1,813,147.1a28.44,28.44,0,0,1-10.4-6.27,24.23,24.23,0,0,1-6-9.37,34.75,34.75,0,0,1-1.91-11.69q0-15.63,11.65-24.48t34.41-8.85h21.54V77.33q0-9.22-5.9-14.75t-18-5.54a77.16,77.16,0,0,0-17.34,2,123.57,123.57,0,0,0-17.64,5.59V48.34c2.27-.83,4.81-1.64,7.6-2.43s5.75-1.5,8.85-2.12,6.35-1.12,9.73-1.5a91.85,91.85,0,0,1,10.25-.57,64.32,64.32,0,0,1,17,2.07A34.33,34.33,0,0,1,869.6,50.1a27.88,27.88,0,0,1,8,10.66,37.71,37.71,0,0,1,2.79,15.12v71.63Zm-2-47.31H839.43a43.79,43.79,0,0,0-11.6,1.35,22,22,0,0,0-8,3.83,15.39,15.39,0,0,0-4.6,6,19.51,19.51,0,0,0-1.5,7.82,17.75,17.75,0,0,0,.93,5.74,12.81,12.81,0,0,0,3,4.87,14.54,14.54,0,0,0,5.38,3.36,23.07,23.07,0,0,0,8.08,1.24q6.21,0,14.23-3.78a69.39,69.39,0,0,0,16.93-12ZM949.47,16H918.72V1.24h49V132.5h31v15H915.31v-15h34.16ZM212.83,162.81H96.27V147.9H212.83Z"/></g></g></svg>