<?xml version="1.0" standalone="yes"?>
<svg xmlns="http://www.w3.org/2000/svg" width="5303" height="316">
<path style="fill:#010101; stroke:none;" d="M0 0L0 316L5303 316L5303 0L0 0z"/>
<path style="fill:#ffffff; stroke:none;" d="M42 154C29.8717 165.163 18.2808 174.541 11.3117 190C-6.47602 229.457 10.6691 275.934 47 297.547C72.8719 312.938 102.034 312 131 312C185.488 312 243.483 315.65 274.572 261C279.529 252.285 283.657 241.967 285 232L256 232C252.328 232 246.631 230.961 243.39 233.028C239.013 235.82 236.89 243.821 233.841 248C227.224 257.071 218.445 264.325 208 268.547C189.728 275.932 169.266 274 150 274C129.273 274 107.264 276.196 87 271.105C46.2345 260.864 28.126 206.63 70 183.792C88.9891 173.436 109.985 174 131 174L212 174L212 136L126 136C107.582 136 88.9119 137.437 72 128.741C30.6243 107.465 46.3385 54.8629 87 45.2361C107.694 40.3367 130.83 43 152 43C169.576 43 188.339 41.0645 205 47.865C215.993 52.352 225.213 59.3995 232.243 69C235.226 73.0742 237.394 81.1591 241.498 83.9722C244.585 86.0875 250.445 85 254 85L283 85C282.22 75.4552 278.007 66.4539 273.752 58C244.385 -0.3526 179.523 4 124 4C92.8408 4 59.8904 5.99637 35 27.3001C-2.16821 59.1125 -6.99934 128.987 42 154M5051 232C5055.4 257.521 5078.77 280.769 5100 293.396C5157.25 327.457 5268.38 320.925 5293 248C5296.84 236.611 5298.13 223.912 5296.42 212C5287.74 151.423 5226.27 142.126 5176 138.086C5153.28 136.26 5125.48 135.386 5109.19 116.996C5091.19 96.679 5102.11 68.0613 5123 55.0656C5148.36 39.2928 5182.58 39.8239 5210 49.3441C5222.08 53.5402 5232.92 59.9278 5242 69.0039C5246 73.0088 5250.1 82.1968 5255.21 84.3966C5265.9 89.0012 5286.33 85 5298 85C5295.62 61.2498 5270.83 37.5734 5252 25.5872C5197.71 -8.97781 5090.62 -6.95438 5064.07 63C5059.77 74.3142 5058.94 86.0342 5059 98C5059.05 107.405 5061.08 117.288 5064.6 126C5084.91 176.238 5146.28 173.224 5191 178.715C5211.34 181.213 5233.7 184.402 5247.79 201C5264.65 220.862 5253.21 246.899 5234 259.644C5208.05 276.86 5170.82 277.72 5142 267.996C5129.91 263.916 5118.27 257.851 5109 248.961C5104.6 244.739 5100.01 235.08 5094.62 232.603C5090.93 230.907 5084.98 232 5081 232L5051 232M328 10L328 49L441 49L441 307L482 307L482 49L595 49L595 10L328 10M669 10L669 307L710 307L710 177L894 177L894 307L935 307L935 10L894 10L894 139L710 139L710 10L669 10M1019 10L1019 75C1019 86.2359 1017.29 99.0714 1020.16 110C1024.89 128.05 1040.44 139.846 1059 140L1059 177C1041.47 177.012 1025.3 187.418 1020.49 205C1017.39 216.342 1019 229.339 1019 241L1019 307L1251 307L1251 268L1060 268L1060 177L1240 177L1240 139L1060 139L1060 49L1251 49L1251 10L1019 10M1335 10L1335 307L1376 307L1376 185L1433 185L1455.83 186.603L1477.42 214L1526.35 278L1548.46 305.972L1563 307L1599 307L1576.37 275L1529.13 213L1508 184C1533.77 183.983 1561.18 171.105 1576.22 150C1601.64 114.324 1595.68 54.9312 1560 28.3781C1534.15 9.1423 1502.64 10 1472 10L1335 10M1670 10L1670 77C1670 88.2112 1668.21 101.165 1671.44 112C1676.55 129.157 1692.55 139.856 1710 140L1710 177C1691.68 177.012 1676.06 187.869 1671.16 206C1668.22 216.867 1670 229.81 1670 241L1670 307L1902 307L1902 268L1711 268L1711 177L1891 177L1891 139L1711 139L1711 49L1902 49L1902 10L1670 10M1965 307L1995 307C1998.66 307 2004.4 308.058 2007.35 305.397C2010.89 302.207 2012.43 295.288 2014.28 291C2019.32 279.309 2024.58 267.711 2029.58 256C2031.65 251.15 2033.97 240.883 2039.21 238.603C2050.3 233.778 2071.87 238 2084 238C2119.22 238 2154.82 236.475 2190 238.019C2198.08 238.374 2199.88 248.695 2202.58 255C2209.12 270.294 2214.51 291.371 2224.41 304.682C2226.91 308.045 2232.32 307 2236 307L2269 307C2267.53 298.741 2262.6 290.688 2259.28 283C2252.36 266.965 2245.2 251.035 2238.28 235C2215.94 183.221 2193.48 131.412 2170.31 80C2162.38 62.4254 2154.93 44.6333 2147.14 27C2145.1 22.3772 2142.54 11.1317 2136.89 10.1481C2127.17 8.45587 2115.87 10 2106 10C2102.6 10 2097.41 9.06909 2094.7 11.6034C2089.38 16.5765 2086.58 28.3584 2083.72 35C2075.64 53.7142 2067.38 72.3563 2059.14 91C2038.24 138.291 2017.94 185.866 1996.69 233C1989.51 248.934 1982.55 264.973 1975.58 281C1971.97 289.289 1966.59 298.083 1965 307M2332 10L2332 307L2569 307L2569 268L2373 268L2373 10L2332 10M2741 10C2745.08 33.725 2757.23 58.3018 2765.31 81C2783.17 131.189 2801.14 181.468 2818 232C2823.92 249.728 2830.03 267.495 2836.58 285C2839.52 292.87 2841.58 300.954 2850 304.633C2867.29 312.19 2895.38 307.03 2914 307C2921.46 306.988 2929.25 306.247 2934.9 300.812C2941.28 294.666 2943.57 283.207 2946.33 275C2952.29 257.289 2958.43 239.606 2964.69 222C2981.86 173.767 2998.55 125.366 3015.34 77C3022.78 55.5672 3034.68 32.4636 3038 10L2994 10L2973.69 68L2916.31 229L2890 304L2861.31 224L2813.69 91L2793 33L2784.3 11.0278L2772 10L2741 10M3112 10L3112 76C3112 87.1904 3110.22 100.133 3113.16 111C3117.95 128.698 3134.07 139.951 3152 140L3152 177C3133.09 177.013 3117.49 188.275 3112.76 207C3110.19 217.162 3112 229.555 3112 240L3112 307L3344 307L3344 268L3153 268L3153 177L3333 177L3333 139L3153 139L3153 49L3344 49L3344 10L3112 10M3428 10L3428 307L3469 307L3469 70L3470 70C3480.14 90.3629 3498.48 108.799 3512.13 127C3540.71 165.107 3569.28 203.268 3598.35 241C3610.08 256.223 3621.46 271.722 3633.12 287C3637.4 292.62 3642.12 302.369 3648.3 305.972C3651.93 308.09 3657.95 307 3662 307L3694 307L3694 10L3653 10L3653 247L3527.13 80L3490.87 32L3473.83 11.0278L3460 10L3428 10M3762 10L3762 49L3875 49L3875 307L3916 307L3916 49L4029 49L4029 10L3762 10M4097 10L4097 152C4097 185.022 4095.06 218.347 4109.78 249C4149.83 332.363 4291.05 334.508 4336.99 256C4355.26 224.77 4354 188.873 4354 154L4354 10L4313 10L4313 151C4313 178.401 4315.41 207.907 4302.11 233C4274.12 285.82 4180.02 289.735 4150.31 236C4135.48 209.174 4138 179.573 4138 150L4138 10L4097 10M4430 10L4430 307L4471 307L4471 185L4527 185L4549.7 186.028L4572.63 215L4623 281L4643.17 305.972L4658 307L4694 307C4688.71 294.475 4676.77 282.73 4668.42 272C4646.5 243.813 4619.66 214.997 4602 184C4627.12 183.983 4653.81 172.193 4669.1 152C4695.83 116.709 4691.36 55.9338 4655 28.76C4628.83 9.19775 4597.03 10 4566 10L4430 10M4759 10L4759 74C4759 86.1144 4757.67 99.1638 4760.76 111C4765.27 128.29 4781.45 139.855 4799 140L4799 177C4780.97 177.012 4765.52 188.253 4760.76 206C4757.59 217.811 4759 230.888 4759 243L4759 307L4992 307L4992 268L4800 268L4800 177L4980 177L4980 139L4800 139L4800 49L4992 49L4992 10L4759 10z"/>
<path style="fill:#010101; stroke:none;" d="M1376 48L1376 146L1477 146C1495.89 146 1515.74 147.859 1532 136.211C1559.23 116.707 1555.52 68.6136 1525 54.3233C1507.92 46.327 1487.38 48 1469 48L1376 48M4471 48L4471 146L4570 146C4587.69 146 4607.16 148.126 4623 138.535C4653.9 119.826 4651.15 69.9201 4619 54.2592C4602.73 46.3333 4582.62 48 4565 48L4471 48M2116 56L2072.58 156L2054 200L2179 200L2140.42 111L2116 56z"/>
<path style="fill:#ffffff; stroke:none;" d="M2853 100L2861.67 125L2866.7 135.972L2886 137L2912.49 135.972L2917.31 126L2926 100L2853 100z"/>
</svg>
