<?xml version="1.0" standalone="yes"?>
<svg xmlns="http://www.w3.org/2000/svg" width="1280" height="640">
<path style="fill:#fdfcfa; stroke:none;" d="M0 0L0 24L49 24L49 0L0 0z"/>
<path style="fill:#c4e6da; stroke:none;" d="M49 0L49 24L0 24L0 25L33 25C36.8429 25 43.332 23.7923 46.6821 26.0278C50.9624 28.884 49 39.5424 49 44L49 98L0 98L0 99L49 99L49 153C49 157.458 50.9624 168.116 46.6821 170.972C43.332 173.208 36.8429 172 33 172L0 172L0 173L49 173L49 227C49 231.458 50.9624 242.116 46.6821 244.972C43.332 247.208 36.8429 246 33 246L0 246L0 247L49 247L49 319L0 319L0 321L49 321L49 393L0 393L0 394L33 394C36.8429 394 43.332 392.792 46.6821 395.028C50.9624 397.884 49 408.542 49 413L49 467L0 467L0 468L33 468C36.8429 468 43.332 466.792 46.6821 469.028C50.9624 471.884 49 482.542 49 487L49 541L0 541L0 542L49 542L49 596C49 600.458 50.9624 611.116 46.6821 613.972C43.332 616.208 36.8429 615 33 615L0 615L0 616L49 616L49 640L50 640L50 616L123 616L123 640L124 640L124 616L197 616L197 640L198 640L198 616L271 616L271 640L272 640L272 616L344 616L344 640L346 640L346 616L418 616L418 640L420 640L420 616L492 616L492 640L493 640C493 634.69 490.624 621.583 494.603 617.603C498.112 614.095 508.41 616 513 616L566 616L566 640L567 640C567 634.69 564.624 621.583 568.603 617.603C572.112 614.095 582.41 616 587 616L640 616L640 640L641 640L641 616L714 616L714 640L715 640L715 616L788 616L788 640L789 640L789 616L862 616L862 640L863 640L863 616L936 616L936 640L937 640L937 616L1010 616L1010 640L1011 640L1011 616L1084 616L1084 640L1085 640L1085 616L1158 616L1158 640L1159 640L1159 616L1232 616L1232 640L1233 640L1233 616L1280 616L1280 615L1233 615L1233 542L1280 542L1280 541L1233 541L1233 468L1280 468L1280 467L1233 467L1233 394L1280 394L1280 393L1233 393L1233 321L1280 321L1280 319L1233 319L1233 247L1280 247L1280 246L1248 246C1244.38 246 1238.48 247.082 1235.32 244.972C1231.04 242.116 1233 231.458 1233 227L1233 173L1280 173L1280 172L1233 172L1233 99L1280 99L1280 98L1233 98L1233 25L1280 25L1280 24L1233 24L1233 0L1232 0L1232 24L1159 24L1159 0L1158 0L1158 24L1085 24L1085 0L1084 0L1084 24L1011 24L1011 0L1010 0L1010 24L937 24L937 0L936 0L936 24L863 24L863 0L862 0L862 24L789 24L789 0L788 0L788 24L715 24L715 0L714 0L714 24L641 24L641 0L640 0L640 24L587 24C582.41 24 572.112 25.9054 568.603 22.3966C564.624 18.4173 567 5.31 567 0L566 0L566 24L513 24C508.41 24 498.112 25.9054 494.603 22.3966C490.624 18.4172 493 5.31 493 0L492 0L492 24L420 24L420 0L418 0L418 24L346 24L346 0L344 0L344 24L272 24L272 0L271 0C271 5.31006 273.376 18.4172 269.397 22.3966C265.888 25.9055 255.59 24 251 24L198 24L198 0L197 0C197 5.31 199.376 18.4173 195.397 22.3966C191.888 25.9055 181.59 24 177 24L124 24L124 0L123 0L123 24L50 24L49 0z"/>
<path style="fill:#fdfcfa; stroke:none;" d="M50 0L50 24L123 24L123 0L50 0M124 0L124 24L178 24L195.972 22.3966L197 0L124 0M198 0L198 24L252 24L269.972 22.3966L271 0L198 0M272 0L272 24L344 24L344 0L272 0M346 0L346 24L418 24L418 0L346 0M420 0L420 24L492 24L492 0L420 0M493 0L494.028 22.3966L512 24L566 24L566 0L493 0M567 0L568.028 22.3966L586 24L640 24L640 0L567 0M641 0L641 24L714 24L714 0L641 0M715 0L715 24L788 24L788 0L715 0M789 0L789 24L862 24L862 0L789 0M863 0L863 24L936 24L936 0L863 0M937 0L937 24L1010 24L1010 0L937 0M1011 0L1011 24L1084 24L1084 0L1011 0M1085 0L1085 24L1158 24L1158 0L1085 0M1159 0L1159 24L1232 24L1232 0L1159 0M1233 0L1233 24L1280 24L1280 0L1233 0M0 25L0 98L49 98L49 44L47.3966 26.0278L34 25L0 25M50 25L50 98L123 98L123 46L121.972 26.6034L104 25L50 25M124 25L124 98L174 98C179.643 98 189.562 99.9161 194.682 97.3966C198.757 95.3916 197 85.7344 197 82L197 40C197 36.5242 198.478 28.4684 195.397 26.0278C191.561 22.9902 180.705 25 176 25L124 25M198 25L198 98L250 98C254.705 98 265.561 100.01 269.397 96.9722C272.478 94.5316 271 86.4758 271 83L271 41C271 37.2656 272.757 27.6084 268.682 25.6034C263.562 23.0839 253.643 25 248 25L198 25M272 25L272 98L344 98L344 25L272 25M346 25L346 98L418 98L418 25L346 25M420 25L420 98L492 98L492 25L420 25M566 98L566 25L516 25C510.357 25 500.438 23.0839 495.318 25.6034C491.243 27.6084 493 37.2657 493 41L493 83C493 86.4758 491.522 94.5316 494.603 96.9722C498.439 100.01 509.295 98 514 98L566 98M640 98L640 25L590 25C584.357 25 574.438 23.0839 569.318 25.6034C565.243 27.6084 567 37.2657 567 41L567 83C567 86.4757 565.522 94.5317 568.603 96.9722C572.439 100.01 583.295 98 588 98L640 98M641 25L641 98L714 98L714 25L641 25M715 25L715 98L788 98L788 25L715 25M789 25L789 98L862 98L862 25L789 25M863 25L863 98L936 98L936 25L863 25M937 25L937 98L1010 98L1010 25L937 25M1011 25L1011 98L1084 98L1084 25L1011 25M1085 25L1085 98L1158 98L1158 25L1085 25M1159 25L1159 98L1232 98L1232 25L1159 25M1233 25L1233 98L1280 98L1280 25L1233 25M0 99L0 172L34 172L47.3966 170.972L49 153L49 99L0 99M50 99L50 172L104 172L121.972 170.397L123 151L123 99L50 99M124 99L124 172L176 172C180.705 172 191.561 174.01 195.397 170.972C198.478 168.532 197 160.476 197 157L197 115C197 111.266 198.757 101.608 194.682 99.6034C189.562 97.0839 179.643 99 174 99L124 99M198 99L198 172L250 172C254.705 172 265.561 174.01 269.397 170.972C272.478 168.532 271 160.476 271 157L271 115C271 111.266 272.757 101.608 268.682 99.6034C263.562 97.0839 253.643 99 248 99L198 99M272 99L272 172L344 172L344 99L272 99M346 99L346 172L418 172L418 99L346 99M420 99L420 172L492 172L492 99L420 99M566 172L566 99L516 99C510.357 99 500.438 97.0839 495.318 99.6034C491.243 101.608 493 111.266 493 115L493 157C493 160.476 491.522 168.532 494.603 170.972C498.439 174.01 509.295 172 514 172L566 172M640 172L640 99L590 99C584.357 99 574.438 97.0839 569.318 99.6034C565.243 101.608 567 111.266 567 115L567 157C567 160.476 565.522 168.532 568.603 170.972C572.439 174.01 583.295 172 588 172L640 172M641 99L641 153L642.603 170.972L662 172L714 172L714 99L641 99M715 99L715 153L716.603 170.972L736 172L788 172L788 99L715 99M789 99L789 153L790.603 170.972L810 172L862 172L862 99L789 99M863 99L863 172L936 172L936 99L863 99M937 99L937 172L1010 172L1010 99L937 99M1011 99L1011 172L1084 172L1084 99L1011 99M1085 99L1085 172L1139 172L1156.97 170.397L1158 151L1158 99L1085 99M1159 99L1159 172L1213 172L1230.97 170.397L1232 151L1232 99L1159 99M1233 99L1233 172L1280 172L1280 99L1233 99M0 173L0 246L34 246L47.3966 244.972L49 227L49 173L0 173M50 173L50 223C50 228.643 48.0838 238.562 50.6034 243.682C52.6084 247.757 62.2656 246 66 246L108 246C111.476 246 119.532 247.478 121.972 244.397C125.01 240.561 123 229.705 123 225L123 173L50 173M124 173L124 225C124 229.705 121.99 240.561 125.028 244.397C127.468 247.478 135.524 246 139 246L181 246C184.734 246 194.392 247.757 196.397 243.682C198.916 238.562 197 228.643 197 223L197 173L124 173M198 173L198 246L250 246L269.397 244.972L271 227L271 173L198 173M272 173L272 246L344 246L344 173L272 173M346 173L346 246L385 245.91L418 242L418 173L346 173M420 173L420 242L441 245.91L492 246L492 173L420 173M566 246L566 173L514 173C509.295 173 498.439 170.99 494.603 174.028C491.522 176.468 493 184.524 493 188L493 230C493 233.734 491.243 243.392 495.318 245.397C500.438 247.916 510.357 246 516 246L566 246M640 246L640 173L588 173C583.295 173 572.439 170.99 568.603 174.028C565.522 176.468 567 184.524 567 188L567 230C567 233.734 565.243 243.392 569.318 245.397C574.438 247.916 584.357 246 590 246L640 246M641 173L641 227L642.603 244.972L662 246L714 246L714 173L641 173M715 173L715 227L716.603 244.972L736 246L788 246L788 173L715 173M789 173L789 223C789 228.643 787.084 238.562 789.603 243.682C791.608 247.757 801.266 246 805 246L847 246C850.476 246 858.532 247.478 860.972 244.397C864.01 240.561 862 229.705 862 225L862 173L789 173M863 173L863 225C863 229.705 860.99 240.561 864.028 244.397C866.468 247.478 874.524 246 878 246L920 246C923.734 246 933.392 247.757 935.397 243.682C937.916 238.562 936 228.643 936 223L936 173L863 173M937 173L937 223C937 228.643 935.084 238.562 937.603 243.682C939.608 247.757 949.266 246 953 246L995 246C998.476 246 1006.53 247.478 1008.97 244.397C1012.01 240.561 1010 229.705 1010 225L1010 173L937 173M1011 173L1011 223C1011 228.643 1009.08 238.562 1011.6 243.682C1013.61 247.757 1023.27 246 1027 246L1069 246C1072.48 246 1080.53 247.478 1082.97 244.397C1086.01 240.561 1084 229.705 1084 225L1084 173L1011 173M1085 173L1085 223C1085 228.643 1083.08 238.562 1085.6 243.682C1087.61 247.757 1097.27 246 1101 246L1143 246C1146.48 246 1154.53 247.478 1156.97 244.397C1160.01 240.561 1158 229.705 1158 225L1158 173L1085 173M1159 173L1159 225C1159 229.705 1156.99 240.561 1160.03 244.397C1162.47 247.478 1170.52 246 1174 246L1216 246C1219.73 246 1229.39 247.757 1231.4 243.682C1233.92 238.562 1232 228.643 1232 223L1232 173L1159 173M1233 173L1233 227L1234.6 244.972L1247 246L1280 246L1280 173L1233 173z"/>
<path style="fill:#c4e6da; stroke:none;" d="M402 242L403 243L402 242z"/>
<path style="fill:#a3dac8; stroke:none;" d="M403 242L404 243L403 242z"/>
<path style="fill:#7bccb3; stroke:none;" d="M404 242L404 243L407 243L404 242z"/>
<path style="fill:#1ea980; stroke:none;" d="M407 242.424C375.886 246.56 348.901 264.143 338.516 295C321.306 346.136 362.453 406.477 419 399.715C453.169 395.628 481.807 373.312 489.765 339C501.161 289.863 459.681 235.423 407 242.424z"/>
<path style="fill:#7bccb3; stroke:none;" d="M420.667 242.333L421.333 242.667L420.667 242.333z"/>
<path style="fill:#a3dac8; stroke:none;" d="M422 242L423 243L422 242z"/>
<path style="fill:#c4e6da; stroke:none;" d="M423.667 242.333L424.333 242.667L423.667 242.333M396 243L397 244L396 243z"/>
<path style="fill:#a3dac8; stroke:none;" d="M397 243L398 244L397 243z"/>
<path style="fill:#7bccb3; stroke:none;" d="M398 243L399 244L398 243M427.667 243.333L428.333 243.667L427.667 243.333z"/>
<path style="fill:#c4e6da; stroke:none;" d="M429 243L430 244L429 243M392 244L393 245L392 244z"/>
<path style="fill:#7bccb3; stroke:none;" d="M393 244L394 245L393 244M432 244L433 245L432 244z"/>
<path style="fill:#c4e6da; stroke:none;" d="M433 244L434 245L433 244M388 245L389 246L388 245z"/>
<path style="fill:#7bccb3; stroke:none;" d="M389.667 245.333L390.333 245.667L389.667 245.333M435 245L436 246L435 245z"/>
<path style="fill:#a3dac8; stroke:none;" d="M436 245L437 246L436 245z"/>
<path style="fill:#c4e6da; stroke:none;" d="M437 245L438 246L437 245z"/>
<path style="fill:#7bccb3; stroke:none;" d="M386 246L387 247L386 246z"/>
<path style="fill:#a3dac8; stroke:none;" d="M439 246L440 247L439 246z"/>
<path style="fill:#fdfcfa; stroke:none;" d="M0 247L0 319L49 319L49 247L0 247M50 247L50 319L123 319L123 247L50 247M124 247L124 319L197 319L197 247L124 247M198 247L198 319L271 319L271 247L198 247M272 247L272 319L334 319L343.61 282L344 247L272 247M346 247L346 278L347 278C355.427 264.526 368.389 254.083 383 248C373.202 243.889 356.649 247 346 247z"/>
<path style="fill:#7bccb3; stroke:none;" d="M384 247L385 248L384 247M441 247L442 248L441 247z"/>
<path style="fill:#fdfcfa; stroke:none;" d="M443 247L443 248C466.992 257.989 488.811 282.203 491 309L492 309L492 247L443 247M493 247L493 319L533 319L533 280L548.671 281.028L566 304L566 247L493 247M567 247C567 264.928 562.484 289.854 567.649 307C570.635 316.912 576.693 319 586 319L586 280L601 280L601 319L612 319C615.309 305.236 627.499 302 640 302L640 247L567 247M641 247L641 302C650.749 302.857 659.937 308.686 661 319L672 319C676.661 297.358 699.334 300.171 714 309L714 247L641 247M715 247L715 291C715 300.025 714.104 308.652 718 317L715 318L715 319C718.293 319 722.729 319.729 725.675 317.972C730.724 314.961 733.681 308.945 739 305.764C750.512 298.878 779.006 301.036 779 319C790.566 318.959 788 310.272 788 301L788 247L715 247M789 247L789 314C800.539 305.904 812.2 296.978 827 304.378C837.967 309.861 838.823 319 852 319L852 303L862 303L862 247L789 247M863 247L863 303L867 303L867 311C880.122 301.867 902.376 295.777 906 319L919 319L919 315L911 315L911 303L919 303L919 288L935 288L935 303L936 303L936 247L863 247M937 247L937 303L947 303L947 315C942.654 315.003 938.56 314.3 937 319L1010 319L1010 247L937 247M1011 247L1011 319L1084 319L1084 247L1011 247M1085 247L1085 319L1158 319L1158 247L1085 247M1159 247L1159 319L1232 319L1232 247L1159 247M1233 247L1233 319L1280 319L1280 247L1233 247z"/>
<path style="fill:#7bccb3; stroke:none;" d="M381 248L382 249L381 248z"/>
<path style="fill:#a3dac8; stroke:none;" d="M444 248L445 249L444 248z"/>
<path style="fill:#7bccb3; stroke:none;" d="M379 249L380 250L379 249M446 249L447 250L446 249M377 250L378 251L377 250M448 250L449 251L448 250M375 251L376 252L375 251M450 251L451 252L450 251z"/>
<path style="fill:#a3dac8; stroke:none;" d="M373 252L374 253L373 252M452 252L453 253L452 252z"/>
<path style="fill:#c4e6da; stroke:none;" d="M371 253L372 254L371 253M454 253L455 254L454 253z"/>
<path style="fill:#7bccb3; stroke:none;" d="M370 254L371 255L370 254M455 254L456 255L455 254z"/>
<path style="fill:#c4e6da; stroke:none;" d="M368 255L369 256L368 255z"/>
<path style="fill:#a3dac8; stroke:none;" d="M457 255L458 256L457 255z"/>
<path style="fill:#7bccb3; stroke:none;" d="M367 256L368 257L367 256M458 256L459 257L458 256z"/>
<path style="fill:#a3dac8; stroke:none;" d="M364 258L365 259L364 258M461 258L462 259L461 258z"/>
<path style="fill:#7bccb3; stroke:none;" d="M363 259L364 260L363 259M462 259L463 260L462 259M362 260L363 261L362 260M463 260L464 261L463 260z"/>
<path style="fill:#c4e6da; stroke:none;" d="M358 263L359 264L358 263M467 263L468 264L467 263M357 264L358 265L357 264M468 264L469 265L468 264M356 265L357 266L356 265M469 265L470 266L469 265M355 266L356 267L355 266M470 266L471 267L470 266z"/>
<path style="fill:#7bccb3; stroke:none;" d="M352 270L353 271L352 270M473 270L474 271L473 270M351 271L352 272L351 271M474 271L475 272L474 271z"/>
<path style="fill:#a3dac8; stroke:none;" d="M350 272L351 273L350 272M475 272L476 273L475 272z"/>
<path style="fill:#7bccb3; stroke:none;" d="M348 275L349 276L348 275M477 275L478 276L477 275z"/>
<path style="fill:#a3dac8; stroke:none;" d="M347 276L348 277L347 276z"/>
<path style="fill:#c4e6da; stroke:none;" d="M478 276L479 277L478 276z"/>
<path style="fill:#7bccb3; stroke:none;" d="M449 277L450 278L449 277M346 278L347 279L346 278M447 278L448 279L447 278z"/>
<path style="fill:#c4e6da; stroke:none;" d="M448 278L449 312L450 312C450 304.642 453.568 282.866 448 278z"/>
<path style="fill:#7bccb3; stroke:none;" d="M479 278L480 279L479 278z"/>
<path style="fill:#c4e6da; stroke:none;" d="M446 279L447 280L446 279z"/>
<path style="fill:#fdfcfa; stroke:none;" d="M412 325L411 325C405.517 314.438 387.175 304.537 376 301C376 313.065 373.445 328.522 377.549 340C381.986 352.412 401.925 363.178 414 367C414 360.928 411.817 349.625 415.028 344.329C421.41 333.801 439.07 333.133 446.005 321.999C452.761 311.154 449 291.363 449 279C438.061 282.218 419.11 292.352 414.189 303C411.044 309.805 412 317.708 412 325z"/>
<path style="fill:#c4e6da; stroke:none;" d="M480 279L481 280L480 279z"/>
<path style="fill:#7bccb3; stroke:none;" d="M444 280L445 281L444 280z"/>
<path style="fill:#c4e6da; stroke:none;" d="M533 280L534 281L533 280z"/>
<path style="fill:#7bccb3; stroke:none;" d="M534 280L534 281L549 281L534 280z"/>
<path style="fill:#c4e6da; stroke:none;" d="M549 280L550 281L549 280z"/>
<path style="fill:#7bccb3; stroke:none;" d="M586 280L586 281L601 281L586 280z"/>
<path style="fill:#a3dac8; stroke:none;" d="M344 281L345 282L344 281z"/>
<path style="fill:#7bccb3; stroke:none;" d="M442 281L443 282L442 281z"/>
<path style="fill:#a3dac8; stroke:none;" d="M481 281L482 282L481 281M533 281L533 360L534 360L534 306L533 281z"/>
<path style="fill:#1ea980; stroke:none;" d="M534 281L534 360L548 360L548 303L549 303L574.003 343L585.518 358.972L601 360L601 281L586 281L586 337L560.667 298L549.471 282.028L534 281z"/>
<path style="fill:#c4e6da; stroke:none;" d="M441 282L442 283L441 282z"/>
<path style="fill:#7bccb3; stroke:none;" d="M550 282L551 283L550 282M343 283L344 284L343 283z"/>
<path style="fill:#a3dac8; stroke:none;" d="M439 283L440 284L439 283z"/>
<path style="fill:#7bccb3; stroke:none;" d="M482 283L483 284L482 283z"/>
<path style="fill:#c4e6da; stroke:none;" d="M551 283L552 284L551 283z"/>
<path style="fill:#7bccb3; stroke:none;" d="M437 284L438 285L437 284M342 285L343 286L342 285M435 285L436 286L435 285z"/>
<path style="fill:#c4e6da; stroke:none;" d="M436 285L437 286L436 285z"/>
<path style="fill:#7bccb3; stroke:none;" d="M483 285L484 286L483 285M552 285L553 286L552 285z"/>
<path style="fill:#c4e6da; stroke:none;" d="M434 286L435 287L434 286z"/>
<path style="fill:#7bccb3; stroke:none;" d="M341 287L342 288L341 287M432 287L433 288L432 287M484 287L485 288L484 287M553 287L554 288L553 287M430 288L431 289L430 288z"/>
<path style="fill:#a3dac8; stroke:none;" d="M554 288L555 289L554 288z"/>
<path style="fill:#c4e6da; stroke:none;" d="M919 288L919 303L920 303L919 288z"/>
<path style="fill:#7bccb3; stroke:none;" d="M920 288L920 289L934 289L920 288z"/>
<path style="fill:#c4e6da; stroke:none;" d="M934 288L934 303L935 303L934 288z"/>
<path style="fill:#a3dac8; stroke:none;" d="M340 289L341 290L340 289z"/>
<path style="fill:#7bccb3; stroke:none;" d="M428 289L429 290L428 289z"/>
<path style="fill:#c4e6da; stroke:none;" d="M429 289L430 290L429 289z"/>
<path style="fill:#7bccb3; stroke:none;" d="M485 289L486 290L485 289z"/>
<path style="fill:#1ea980; stroke:none;" d="M920 289L920 304L911 304L911 315L920 315C920 326.465 916.176 346.336 923.649 355.892C927.112 360.32 941.606 364.93 945.972 359.397C948.061 356.75 946.547 351.948 946 349C928.806 348.844 934 327.365 934 315L946 315L946 304L934 304L934 289L920 289z"/>
<path style="fill:#a3dac8; stroke:none;" d="M427 290L428 291L427 290z"/>
<path style="fill:#7bccb3; stroke:none;" d="M555 290L556 291L555 290z"/>
<path style="fill:#c4e6da; stroke:none;" d="M339 291L340 292L339 291z"/>
<path style="fill:#7bccb3; stroke:none;" d="M425 291L426 292L425 291z"/>
<path style="fill:#c4e6da; stroke:none;" d="M486 291L487 292L486 291z"/>
<path style="fill:#a3dac8; stroke:none;" d="M556 291L557 292L556 291z"/>
<path style="fill:#7bccb3; stroke:none;" d="M339 292L340 293L339 292M423 292L424 293L423 292z"/>
<path style="fill:#c4e6da; stroke:none;" d="M424 292L425 293L424 292z"/>
<path style="fill:#7bccb3; stroke:none;" d="M486 292L487 293L486 292z"/>
<path style="fill:#c4e6da; stroke:none;" d="M422 293L423 294L422 293z"/>
<path style="fill:#7bccb3; stroke:none;" d="M557 293L558 294L557 293z"/>
<path style="fill:#a3dac8; stroke:none;" d="M338 294L339 295L338 294z"/>
<path style="fill:#7bccb3; stroke:none;" d="M420 294L421 295L420 294z"/>
<path style="fill:#a3dac8; stroke:none;" d="M487 294L488 295L487 294M558 294L559 295L558 294z"/>
<path style="fill:#7bccb3; stroke:none;" d="M419 295L420 296L419 295M487 295L488 296L487 295M418 296L419 297L418 296M559 296L560 297L559 296z"/>
<path style="fill:#a3dac8; stroke:none;" d="M337 297L338 298L337 297z"/>
<path style="fill:#7bccb3; stroke:none;" d="M417 297L418 298L417 297z"/>
<path style="fill:#a3dac8; stroke:none;" d="M488 297L489 298L488 297M560 297L561 298L560 297z"/>
<path style="fill:#7bccb3; stroke:none;" d="M337 298L338 299L337 298M416 298L417 299L416 298M488 298L489 299L488 298M561 299L562 300L561 299z"/>
<path style="fill:#c4e6da; stroke:none;" d="M336 300L337 301L336 300z"/>
<path style="fill:#a3dac8; stroke:none;" d="M376 300L377 301L376 300M415 300L416 301L415 300z"/>
<path style="fill:#c4e6da; stroke:none;" d="M489 300L490 301L489 300z"/>
<path style="fill:#a3dac8; stroke:none;" d="M562 300L563 301L562 300z"/>
<path style="fill:#7bccb3; stroke:none;" d="M336 301L337 302L336 301M378 301L379 302L378 301M414 301L415 302L414 301M489 301L490 302L489 301M380 302L381 303L380 302M563 302L564 303L563 302z"/>
<path style="fill:#c4e6da; stroke:none;" d="M628 302L629 303L628 302z"/>
<path style="fill:#a3dac8; stroke:none;" d="M629 302L630 303L629 302z"/>
<path style="fill:#7bccb3; stroke:none;" d="M630 302L631 303L630 302z"/>
<path style="fill:#1ea980; stroke:none;" d="M613 323C622.917 322.135 645.726 299.726 647 323C640.433 323.519 633.375 324.482 627 326.156C623.18 327.159 619.25 328.422 616.043 330.8C592.57 348.207 634.559 377.586 647 351L648 351C648.908 361.312 655.425 360 664 360C660.784 345.973 666.075 320.106 656.606 309.105C643.268 293.607 613.014 302.602 613 323z"/>
<path style="fill:#7bccb3; stroke:none;" d="M642.667 302.333L643.333 302.667L642.667 302.333z"/>
<path style="fill:#a3dac8; stroke:none;" d="M644 302L645 303L644 302z"/>
<path style="fill:#c4e6da; stroke:none;" d="M645 302L646 303L645 302z"/>
<path style="fill:#a3dac8; stroke:none;" d="M687 302L688 303L687 302z"/>
<path style="fill:#7bccb3; stroke:none;" d="M688 302L689 303L688 302z"/>
<path style="fill:#1ea980; stroke:none;" d="M681 338L670 344C675.819 363.635 713.557 370.079 717.671 346C721.628 322.832 693.445 332.361 686.832 318.971C684.467 314.182 691.47 311.939 695 312.373C700.809 313.086 704.084 317.424 707 322L717 317C711.828 299.588 676.465 294.692 673.214 316C671.475 327.407 681.366 333.295 691 335.573C695.103 336.542 702.055 337.512 703.824 342.104C705.833 347.319 697.883 350.261 694 349.566C687.922 348.477 684.065 342.822 681 338z"/>
<path style="fill:#7bccb3; stroke:none;" d="M699.667 302.333L700.333 302.667L699.667 302.333z"/>
<path style="fill:#c4e6da; stroke:none;" d="M701 302L702 303L701 302M746 302L747 303L746 302z"/>
<path style="fill:#a3dac8; stroke:none;" d="M747 302L748 303L747 302z"/>
<path style="fill:#7bccb3; stroke:none;" d="M748 302L749 303L748 302z"/>
<path style="fill:#1ea980; stroke:none;" d="M780 345L768 339C759.751 353.143 738.868 349.518 738.463 332C738.039 313.681 759.742 310.833 768 325C780.104 318.287 780.307 309.227 766 304.105C756.574 300.73 745.506 301.484 737 306.969C732.865 309.636 729.211 313.592 727 318C720.338 331.281 724.914 350.128 738 357.633C751.811 365.555 774.8 361.285 780 345z"/>
<path style="fill:#7bccb3; stroke:none;" d="M759.667 302.333L760.333 302.667L759.667 302.333z"/>
<path style="fill:#c4e6da; stroke:none;" d="M761 302L762 303L761 302M807 302L808 303L807 302z"/>
<path style="fill:#a3dac8; stroke:none;" d="M808 302L809 303L808 302z"/>
<path style="fill:#7bccb3; stroke:none;" d="M809 302L810 303L809 302z"/>
<path style="fill:#1ea980; stroke:none;" d="M841 345C838.238 343.547 834.381 340.465 831.089 340.994C827.313 341.601 824.555 346.433 820.999 348.03C811.009 352.517 800.146 345.548 799 335L843 335C842.911 324.222 840.337 313.204 830.999 306.649C813.974 294.697 789.15 306.403 785.616 326C779.636 359.152 826.335 375.821 841 345z"/>
<path style="fill:#7bccb3; stroke:none;" d="M819.667 302.333L820.333 302.667L819.667 302.333z"/>
<path style="fill:#a3dac8; stroke:none;" d="M821 302L822 303L821 302z"/>
<path style="fill:#c4e6da; stroke:none;" d="M822 302L823 303L822 302M879 302L880 303L879 302z"/>
<path style="fill:#a3dac8; stroke:none;" d="M880 302L881 303L880 302z"/>
<path style="fill:#7bccb3; stroke:none;" d="M881 302L882 303L881 302z"/>
<path style="fill:#1ea980; stroke:none;" d="M866 312L866 304L852 304L852 360L866 360C866 349.002 863.053 332.921 868.558 323.004C872.856 315.261 883.414 312.103 889.297 320.105C895.874 329.051 892 349.339 892 360L906 360C906 346.218 909.058 328.18 904.775 315C901.021 303.445 887.586 299.464 877 303.955C872.665 305.795 869.535 309.035 866 312z"/>
<path style="fill:#7bccb3; stroke:none;" d="M890.667 302.333L891.333 302.667L890.667 302.333z"/>
<path style="fill:#c4e6da; stroke:none;" d="M892 302L893 303L892 302z"/>
<path style="fill:#a3dac8; stroke:none;" d="M381 303L382 304L381 303z"/>
<path style="fill:#7bccb3; stroke:none;" d="M413 303L414 304L413 303M548 303L550 305L548 303z"/>
<path style="fill:#a3dac8; stroke:none;" d="M564 303L565 304L564 303M625 303L626 304L625 303z"/>
<path style="fill:#7bccb3; stroke:none;" d="M626 303L627 304L626 303M647 303L648 304L647 303z"/>
<path style="fill:#a3dac8; stroke:none;" d="M648 303L649 304L648 303z"/>
<path style="fill:#c4e6da; stroke:none;" d="M683 303L684 304L683 303z"/>
<path style="fill:#7bccb3; stroke:none;" d="M684 303L685 304L684 303M704 303L705 304L704 303z"/>
<path style="fill:#a3dac8; stroke:none;" d="M743 303L744 304L743 303z"/>
<path style="fill:#7bccb3; stroke:none;" d="M744 303L745 304L744 303M764 303L765 304L764 303z"/>
<path style="fill:#c4e6da; stroke:none;" d="M765 303L766 304L765 303z"/>
<path style="fill:#a3dac8; stroke:none;" d="M804 303L805 304L804 303z"/>
<path style="fill:#7bccb3; stroke:none;" d="M805 303L806 304L805 303M824 303L825 304L824 303z"/>
<path style="fill:#c4e6da; stroke:none;" d="M825 303L826 304L825 303z"/>
<path style="fill:#a3dac8; stroke:none;" d="M852 303L853 304L852 303z"/>
<path style="fill:#7bccb3; stroke:none;" d="M853 303L853 304L866 304L868 312C865.667 302.351 862.431 303 853 303z"/>
<path style="fill:#c4e6da; stroke:none;" d="M866 303L867 304L866 303M876 303L877 304L876 303z"/>
<path style="fill:#7bccb3; stroke:none;" d="M877 303L878 304L877 303M894 303L895 304L894 303M911 303L911 304L920 304L911 303M934 303L934 304L946 304L946 315C950.555 304.144 942.539 303 934 303z"/>
<path style="fill:#c4e6da; stroke:none;" d="M946 303L947 304L946 303M335 304L336 305L335 304z"/>
<path style="fill:#7bccb3; stroke:none;" d="M383 304L384 305L383 304z"/>
<path style="fill:#c4e6da; stroke:none;" d="M413 304L414 305L413 304M490 304L491 305L490 304z"/>
<path style="fill:#a3dac8; stroke:none;" d="M548 304L548 360L549 360L549 322L548 304z"/>
<path style="fill:#7bccb3; stroke:none;" d="M623 304L624 305L623 304M650 304L651 305L650 304z"/>
<path style="fill:#c4e6da; stroke:none;" d="M681 304L682 305L681 304z"/>
<path style="fill:#7bccb3; stroke:none;" d="M682 304L683 305L682 304M706 304L707 305L706 304z"/>
<path style="fill:#c4e6da; stroke:none;" d="M740 304L741 305L740 304z"/>
<path style="fill:#7bccb3; stroke:none;" d="M741 304L742 305L741 304z"/>
<path style="fill:#a3dac8; stroke:none;" d="M767 304L768 305L767 304z"/>
<path style="fill:#c4e6da; stroke:none;" d="M801 304L802 305L801 304z"/>
<path style="fill:#7bccb3; stroke:none;" d="M802 304L803 305L802 304z"/>
<path style="fill:#a3dac8; stroke:none;" d="M827 304L828 305L827 304z"/>
<path style="fill:#7bccb3; stroke:none;" d="M875 304L876 305L875 304M896 304L897 305L896 304M335.333 305.667L335.667 306.333L335.333 305.667M385 305L386 306L385 305z"/>
<path style="fill:#a3dac8; stroke:none;" d="M490 305L491 306L490 305z"/>
<path style="fill:#c4e6da; stroke:none;" d="M549 305L550 306L549 305z"/>
<path style="fill:#7bccb3; stroke:none;" d="M565 305L566 306L565 305M621 305L622 306L621 305M652 305L653 306L652 305M680 305L681 306L680 305M708 305L709 306L708 305M739 305L740 306L739 305z"/>
<path style="fill:#a3dac8; stroke:none;" d="M769 305L770 306L769 305z"/>
<path style="fill:#c4e6da; stroke:none;" d="M799 305L800 306L799 305z"/>
<path style="fill:#7bccb3; stroke:none;" d="M800 305L801 306L800 305z"/>
<path style="fill:#a3dac8; stroke:none;" d="M829 305L830 306L829 305z"/>
<path style="fill:#7bccb3; stroke:none;" d="M873 305L874 306L873 305z"/>
<path style="fill:#a3dac8; stroke:none;" d="M898 305L899 306L898 305z"/>
<path style="fill:#c4e6da; stroke:none;" d="M386 306L387 307L386 306z"/>
<path style="fill:#7bccb3; stroke:none;" d="M412 306L413 307L412 306M490 306L491 307L490 306z"/>
<path style="fill:#fdfcfa; stroke:none;" d="M549 306L549 319L558 319L549 306z"/>
<path style="fill:#7bccb3; stroke:none;" d="M550 306L551 307L550 306M566 306L567 307L566 306z"/>
<path style="fill:#c4e6da; stroke:none;" d="M619 306L620 307L619 306M654 306L655 307L654 306M678 306L679 307L678 306M710 306L711 307L710 306z"/>
<path style="fill:#7bccb3; stroke:none;" d="M737 306L738 307L737 306M798 306L799 307L798 306M872 306L873 307L872 306M899 306L900 307L899 306z"/>
<path style="fill:#a3dac8; stroke:none;" d="M388 307L389 308L388 307z"/>
<path style="fill:#c4e6da; stroke:none;" d="M412 307L413 308L412 307M567 307L568 308L567 307z"/>
<path style="fill:#7bccb3; stroke:none;" d="M618 307L619 308L618 307M655 307L656 308L655 307M677 307L678 308L677 307z"/>
<path style="fill:#a3dac8; stroke:none;" d="M711 307L712 308L711 307z"/>
<path style="fill:#7bccb3; stroke:none;" d="M772 307L773 308L772 307z"/>
<path style="fill:#c4e6da; stroke:none;" d="M796 307L797 308L796 307z"/>
<path style="fill:#a3dac8; stroke:none;" d="M832 307L833 308L832 307z"/>
<path style="fill:#7bccb3; stroke:none;" d="M900 307L901 308L900 307M390 308L391 309L390 308M551 308L552 309L551 308M567 308L568 309L567 308M617 308L618 309L617 308M656 308L657 309L656 308M676 308L677 309L676 308z"/>
<path style="fill:#a3dac8; stroke:none;" d="M712 308L713 309L712 308M734 308L735 309L734 308z"/>
<path style="fill:#7bccb3; stroke:none;" d="M773 308L774 309L773 308z"/>
<path style="fill:#a3dac8; stroke:none;" d="M795 308L796 309L795 308z"/>
<path style="fill:#7bccb3; stroke:none;" d="M833 308L834 309L833 308M901 308L902 309L901 308z"/>
<path style="fill:#c4e6da; stroke:none;" d="M334.333 309.667L334.667 310.333L334.333 309.667z"/>
<path style="fill:#7bccb3; stroke:none;" d="M392 309L393 310L392 309z"/>
<path style="fill:#a3dac8; stroke:none;" d="M568 309L569 310L568 309z"/>
<path style="fill:#7bccb3; stroke:none;" d="M616 309L617 310L616 309z"/>
<path style="fill:#a3dac8; stroke:none;" d="M657 309L658 310L657 309z"/>
<path style="fill:#7bccb3; stroke:none;" d="M675 309L676 310L675 309z"/>
<path style="fill:#a3dac8; stroke:none;" d="M713 309L714 310L713 309z"/>
<path style="fill:#7bccb3; stroke:none;" d="M733 309L734 310L733 309M794 309L795 310L794 309M834 309L835 310L834 309z"/>
<path style="fill:#a3dac8; stroke:none;" d="M902 309L903 310L902 309M393 310L394 311L393 310z"/>
<path style="fill:#7bccb3; stroke:none;" d="M411 310L411 325L412 325L411 310z"/>
<path style="fill:#c4e6da; stroke:none;" d="M552 310L553 311L552 310z"/>
<path style="fill:#7bccb3; stroke:none;" d="M615 310L616 311L615 310z"/>
<path style="fill:#c4e6da; stroke:none;" d="M658 310L659 311L658 310z"/>
<path style="fill:#7bccb3; stroke:none;" d="M732 310L733 311L732 310M793 310L794 311L793 310M835 310L836 311L835 310z"/>
<path style="fill:#a3dac8; stroke:none;" d="M334 311L335 312L334 311z"/>
<path style="fill:#7bccb3; stroke:none;" d="M395 311L396 312L395 311z"/>
<path style="fill:#a3dac8; stroke:none;" d="M491 311L492 312L491 311z"/>
<path style="fill:#7bccb3; stroke:none;" d="M553 311L554 312L553 311M569 311L570 312L569 311z"/>
<path style="fill:#c4e6da; stroke:none;" d="M614 311L615 312L614 311z"/>
<path style="fill:#7bccb3; stroke:none;" d="M658 311L659 312L658 311M674 311L675 312L674 311z"/>
<path style="fill:#c4e6da; stroke:none;" d="M715 311L716 312L715 311z"/>
<path style="fill:#7bccb3; stroke:none;" d="M731 311L732 312L731 311M776 311L777 312L776 311M792 311L793 312L792 311M836 311L837 312L836 311M903 311L904 312L903 311M334 312L334 315L335 315L334 312M397 312L398 313L397 312z"/>
<path style="fill:#a3dac8; stroke:none;" d="M449 312L450 313L449 312z"/>
<path style="fill:#7bccb3; stroke:none;" d="M491 312L491 315L492 315L491 312z"/>
<path style="fill:#a3dac8; stroke:none;" d="M570 312L571 313L570 312z"/>
<path style="fill:#7bccb3; stroke:none;" d="M631 312L632 313L631 312z"/>
<path style="fill:#a3dac8; stroke:none;" d="M632 312L633 313L632 312z"/>
<path style="fill:#fdfcfa; stroke:none;" d="M626 319L640 319C639.667 308.856 629.068 311.605 626 319z"/>
<path style="fill:#c4e6da; stroke:none;" d="M639 312L640 319L625 320L625 321L640 321L639 324L640 324L647 318L641 319L639 312z"/>
<path style="fill:#a3dac8; stroke:none;" d="M640 312L641 313L640 312z"/>
<path style="fill:#7bccb3; stroke:none;" d="M641 312L642 313L641 312z"/>
<path style="fill:#c4e6da; stroke:none;" d="M659 312L660 313L659 312M673 312L674 313L673 312z"/>
<path style="fill:#7bccb3; stroke:none;" d="M690 312L690 313L697 313L690 312M715 312L716 313L715 312M730 312L731 313L730 312z"/>
<path style="fill:#a3dac8; stroke:none;" d="M777 312L778 313L777 312z"/>
<path style="fill:#7bccb3; stroke:none;" d="M791 312L792 313L791 312z"/>
<path style="fill:#c4e6da; stroke:none;" d="M837 312L838 313L837 312M904 312L905 313L904 312M398 313L399 314L398 313z"/>
<path style="fill:#7bccb3; stroke:none;" d="M449.333 313.667L449.667 314.333L449.333 313.667z"/>
<path style="fill:#c4e6da; stroke:none;" d="M554 313L555 314L554 313z"/>
<path style="fill:#a3dac8; stroke:none;" d="M613 313L614 314L613 313M629 313L630 314L629 313z"/>
<path style="fill:#fdfcfa; stroke:none;" d="M641 313L641 319L646 319L641 313z"/>
<path style="fill:#7bccb3; stroke:none;" d="M643 313L644 314L643 313M659 313L660 314L659 313M673 313L674 314L673 313z"/>
<path style="fill:#c4e6da; stroke:none;" d="M688 313L689 314L688 313z"/>
<path style="fill:#fdfcfa; stroke:none;" d="M686 319L705 319C700.658 313.174 687.67 308.768 686 319z"/>
<path style="fill:#a3dac8; stroke:none;" d="M699 313L700 314L699 313z"/>
<path style="fill:#c4e6da; stroke:none;" d="M729 313L730 314L729 313z"/>
<path style="fill:#a3dac8; stroke:none;" d="M790 313L791 314L790 313z"/>
<path style="fill:#7bccb3; stroke:none;" d="M809 313L810 314L809 313z"/>
<path style="fill:#a3dac8; stroke:none;" d="M810 313L811 314L810 313z"/>
<path style="fill:#fdfcfa; stroke:none;" d="M803 319L827 319C820.56 311.507 809.221 311.128 803 319z"/>
<path style="fill:#c4e6da; stroke:none;" d="M818 313L819 314L818 313z"/>
<path style="fill:#7bccb3; stroke:none;" d="M819 313L820 314L819 313M904 313L905 314L904 313z"/>
<path style="fill:#a3dac8; stroke:none;" d="M400 314L401 315L400 314z"/>
<path style="fill:#7bccb3; stroke:none;" d="M555 314L556 315L555 314M571 314L572 315L571 314z"/>
<path style="fill:#a3dac8; stroke:none;" d="M644 314L645 315L644 314z"/>
<path style="fill:#c4e6da; stroke:none;" d="M660 314L661 315L660 314z"/>
<path style="fill:#7bccb3; stroke:none;" d="M686 314L687 315L686 314M701 314L702 315L701 314M716 314L717 315L716 314M778 314L779 315L778 314M807 314L808 315L807 314z"/>
<path style="fill:#c4e6da; stroke:none;" d="M821 314L822 315L821 314z"/>
<path style="fill:#7bccb3; stroke:none;" d="M822 314L823 315L822 314M838 314L839 315L838 314M402 315L403 316L402 315z"/>
<path style="fill:#c4e6da; stroke:none;" d="M572 315L573 316L572 315z"/>
<path style="fill:#a3dac8; stroke:none;" d="M645 315L646 316L645 315z"/>
<path style="fill:#7bccb3; stroke:none;" d="M660.333 315.667L660.667 316.333L660.333 315.667z"/>
<path style="fill:#a3dac8; stroke:none;" d="M702 315L703 316L702 315z"/>
<path style="fill:#c4e6da; stroke:none;" d="M717.333 315.667L717.667 316.333L717.333 315.667z"/>
<path style="fill:#7bccb3; stroke:none;" d="M728 315L729 316L728 315M750.667 315.333L751.333 315.667L750.667 315.333z"/>
<path style="fill:#a3dac8; stroke:none;" d="M752 315L752 316L755 316L752 315z"/>
<path style="fill:#7bccb3; stroke:none;" d="M755 315L755 316L758 316L755 315z"/>
<path style="fill:#c4e6da; stroke:none;" d="M779 315L780 316L779 315z"/>
<path style="fill:#7bccb3; stroke:none;" d="M789 315L790 316L789 315M805 315L806 316L805 315z"/>
<path style="fill:#a3dac8; stroke:none;" d="M823 315L824 316L823 315z"/>
<path style="fill:#c4e6da; stroke:none;" d="M839 315L840 316L839 315z"/>
<path style="fill:#7bccb3; stroke:none;" d="M877.667 315.333L878.333 315.667L877.667 315.333z"/>
<path style="fill:#a3dac8; stroke:none;" d="M879.667 315.333L880.333 315.667L879.667 315.333z"/>
<path style="fill:#7bccb3; stroke:none;" d="M881 315L881 316L884 316L881 315z"/>
<path style="fill:#c4e6da; stroke:none;" d="M905 315L906 316L905 315z"/>
<path style="fill:#a3dac8; stroke:none;" d="M919 315L920 316L919 315z"/>
<path style="fill:#c4e6da; stroke:none;" d="M448 316L449 317L448 316M556 316L557 317L556 316z"/>
<path style="fill:#a3dac8; stroke:none;" d="M612 316L613 317L612 316z"/>
<path style="fill:#7bccb3; stroke:none;" d="M626 316L627 317L626 316z"/>
<path style="fill:#c4e6da; stroke:none;" d="M672.333 316.667L672.667 317.333L672.333 316.667z"/>
<path style="fill:#7bccb3; stroke:none;" d="M685 316L685 319L686 319L685 316z"/>
<path style="fill:#a3dac8; stroke:none;" d="M703 316L704 317L703 316z"/>
<path style="fill:#c4e6da; stroke:none;" d="M727 316L728 317L727 316z"/>
<path style="fill:#7bccb3; stroke:none;" d="M747 316L748 317L747 316z"/>
<path style="fill:#c4e6da; stroke:none;" d="M748 316L749 317L748 316z"/>
<path style="fill:#fdfcfa; stroke:none;" d="M745 318L745 319L763 319C757.618 314.72 751.071 315.787 745 318z"/>
<path style="fill:#a3dac8; stroke:none;" d="M759 316L760 317L759 316z"/>
<path style="fill:#7bccb3; stroke:none;" d="M760 316L761 317L760 316M779.333 316.667L779.667 317.333L779.333 316.667z"/>
<path style="fill:#a3dac8; stroke:none;" d="M788 316L789 317L788 316M804 316L805 317L804 316z"/>
<path style="fill:#7bccb3; stroke:none;" d="M839 316L840 317L839 316M874 316L875 317L874 316z"/>
<path style="fill:#fdfcfa; stroke:none;" d="M872 318L872 319L888 319C883.538 314.819 877.226 315.485 872 318z"/>
<path style="fill:#a3dac8; stroke:none;" d="M885 316L886 317L885 316M905 316L906 317L905 316z"/>
<path style="fill:#c4e6da; stroke:none;" d="M919 316C916.261 320.224 910.57 319 906 319L906 321L919 321L919 346L920 346L919 316z"/>
<path style="fill:#fdfcfa; stroke:none;" d="M935 316L935 319L936 319L935 316z"/>
<path style="fill:#7bccb3; stroke:none;" d="M405 317L406 318L405 317M448 317L449 318L448 317M557 317L558 318L557 317M573 317L574 318L573 317M612 317L612 321L613 321L612 317z"/>
<path style="fill:#c4e6da; stroke:none;" d="M626 317L627 318L626 317z"/>
<path style="fill:#7bccb3; stroke:none;" d="M646 317L647 318L646 317M704 317L705 318L704 317z"/>
<path style="fill:#a3dac8; stroke:none;" d="M715 317L716 318L715 317z"/>
<path style="fill:#7bccb3; stroke:none;" d="M745 317L746 318L745 317z"/>
<path style="fill:#c4e6da; stroke:none;" d="M746 317L747 318L746 317M761 317L762 318L761 317z"/>
<path style="fill:#a3dac8; stroke:none;" d="M803 317L804 318L803 317z"/>
<path style="fill:#c4e6da; stroke:none;" d="M840 317L841 318L840 317z"/>
<path style="fill:#7bccb3; stroke:none;" d="M872 317L873 318L872 317M887 317L888 318L887 317M905 317L906 318L905 317M406 318L407 319L406 318z"/>
<path style="fill:#c4e6da; stroke:none;" d="M574 318L575 319L574 318z"/>
<path style="fill:#a3dac8; stroke:none;" d="M672.333 318.667L672.667 319.333L672.333 318.667z"/>
<path style="fill:#7bccb3; stroke:none;" d="M713 318L714 319L713 318z"/>
<path style="fill:#c4e6da; stroke:none;" d="M711 320L711 321L714 321L714 332L715 332L715 321L726 321L726 319L711 320z"/>
<path style="fill:#a3dac8; stroke:none;" d="M726 318L727 319L726 318z"/>
<path style="fill:#7bccb3; stroke:none;" d="M744 318L741 322L744 318M763 318L766 321L763 318z"/>
<path style="fill:#a3dac8; stroke:none;" d="M778 318L779 319L778 318M787 318L788 319L787 318M802 318L803 319L802 318z"/>
<path style="fill:#7bccb3; stroke:none;" d="M840 318L841 319L840 318M871 318L870 320L871 318M888 318L890 320L888 318M407 319L408 320L407 319z"/>
<path style="fill:#a3dac8; stroke:none;" d="M447 319L448 320L447 319z"/>
<path style="fill:#c4e6da; stroke:none;" d="M549 319L549 321L559 321L549 319z"/>
<path style="fill:#a3dac8; stroke:none;" d="M558 319L559 320L558 319z"/>
<path style="fill:#c4e6da; stroke:none;" d="M575 319L576 322L586 321L586 319L575 319M601 319L601 321L612 321L612 319L601 319z"/>
<path style="fill:#a3dac8; stroke:none;" d="M626 319L627 320L626 319M661 319L661 348L662 348L661 319z"/>
<path style="fill:#c4e6da; stroke:none;" d="M662 319L662 321L673 321L662 319M686 319L686 320L707 322C702.128 317.025 692.545 319 686 319z"/>
<path style="fill:#a3dac8; stroke:none;" d="M705 319L706 320L705 319M712 319L713 320L712 319z"/>
<path style="fill:#c4e6da; stroke:none;" d="M743 320L743 321L765 321C760.035 317.239 748.785 318.29 743 320M776 320L776 321L787 321L787 319L776 320z"/>
<path style="fill:#7bccb3; stroke:none;" d="M801 319L802 320L801 319z"/>
<path style="fill:#c4e6da; stroke:none;" d="M800 322L828 321C822.636 316.936 804.724 317.177 800 322z"/>
<path style="fill:#7bccb3; stroke:none;" d="M827 319L828 320L827 319z"/>
<path style="fill:#c4e6da; stroke:none;" d="M841 319L841 320L852 321L852 319L841 319M870 320L870 321L890 321C885.277 317.422 875.491 318.377 870 320z"/>
<path style="fill:#a3dac8; stroke:none;" d="M919.333 319.667L919.667 320.333L919.333 319.667M934.333 319.667L934.667 320.333L934.333 319.667z"/>
<path style="fill:#7bccb3; stroke:none;" d="M408 320L409 321L408 320M559 320L560 321L559 320M575 320L576 321L575 320z"/>
<path style="fill:#a3dac8; stroke:none;" d="M624 320L625 321L624 320M710 320L711 321L710 320z"/>
<path style="fill:#7bccb3; stroke:none;" d="M775 320L776 321L775 320M841.333 320.667L841.667 321.333L841.333 320.667z"/>
<path style="fill:#fdfcfa; stroke:none;" d="M0 321L0 393L49 393L49 321L0 321M50 321L50 393L123 393L123 321L50 321M124 321L124 393L178 393L195.972 391.397L197 372L197 321L124 321M198 321L198 393L252 393L269.972 391.397L271 372L271 321L198 321M272 321L272 393L344 393L343.61 360L334 321L272 321z"/>
<path style="fill:#7bccb3; stroke:none;" d="M446 321L447 322L446 321z"/>
<path style="fill:#fdfcfa; stroke:none;" d="M493 321L493 393L566 393L566 350C566 343.868 567.357 335.807 565.157 330C561.997 321.661 556.919 321 549 321L549 360L533 360L533 321L493 321M577 321L585 335L586 335L586 321L577 321M601 321L601 360C596.55 360 590.118 361.161 586.093 358.972C578.468 354.825 572.783 341.09 568 334L567 334L567 393L640 393L640 360C633.573 361.326 627.394 363.13 621 360.517C609.385 355.77 605.079 341.62 614.329 332.329C620.951 325.678 635.619 327.784 640 321L601 321z"/>
<path style="fill:#a3dac8; stroke:none;" d="M612 321L613 322L612 321z"/>
<path style="fill:#7bccb3; stroke:none;" d="M620 321L621 322L620 321z"/>
<path style="fill:#a3dac8; stroke:none;" d="M621 321L622 322L621 321z"/>
<path style="fill:#fdfcfa; stroke:none;" d="M641 321L641 323L647 322L641 321M662 321C662 333.986 660.276 347.732 665 360C657.863 360 649.776 361.7 648 353C636.42 359.66 641 381.464 641 393L714 393L714 356C696.278 363.343 678.825 364.647 669 344L681 337C683.371 342.493 686.577 347.805 693 348.785C697.205 349.428 706.432 347.504 702.953 341.224C700.831 337.394 694.778 336.885 691 335.848C682.922 333.631 675.083 329.761 673 321L662 321M688 321L688 322L714 331L714 321L688 321z"/>
<path style="fill:#7bccb3; stroke:none;" d="M708 321L709 322L708 321z"/>
<path style="fill:#fdfcfa; stroke:none;" d="M715 321L717.969 343L715.105 356L715 393L788 393L787.907 349L786 321C780.412 321 774.241 323.476 769.089 323.192C761.323 322.764 751.277 318.025 743.225 321.603C736.706 324.5 738.451 337.341 741.703 341.956C748.637 351.795 764.288 348.889 768 338L781 345C768.767 364.249 740.398 369.505 727.532 347C722.874 338.851 723.877 329.886 725 321L715 321z"/>
<path style="fill:#7bccb3; stroke:none;" d="M725 321L726 322L725 321M773 321L774 322L773 321M786 321L787 322L786 321z"/>
<path style="fill:#fdfcfa; stroke:none;" d="M800 324L829 324C825.63 318.802 803.37 318.802 800 324z"/>
<path style="fill:#7bccb3; stroke:none;" d="M828 321L829 322L828 321z"/>
<path style="fill:#fdfcfa; stroke:none;" d="M842 321L843 336L799 336C804.09 350.92 822.197 353.998 830 339C832.77 340.459 837.608 342.17 838.978 345.213C842.654 353.378 824.626 360.868 819 361.699C805.708 363.661 799.409 355.925 789 350L789 393L862 393C862 381.081 867.57 360.012 852 360L852 321L842 321M867 360C859.346 362.54 863 385.88 863 393L936 393L936 362C915.393 358.911 919 336.712 919 321L906 321L906 360L891 360L891 333C891 330.09 891.912 325.052 889.972 322.603C886.997 318.847 870.186 319.753 868.148 324.148C863.851 333.417 867 349.89 867 360z"/>
<path style="fill:#7bccb3; stroke:none;" d="M890 321L891 322L890 321z"/>
<path style="fill:#c4e6da; stroke:none;" d="M934 321L934 343L935 343L934 321z"/>
<path style="fill:#fdfcfa; stroke:none;" d="M935 321L935 346L936 346L935 321M937 321L937 348L947 348L948 361L937 362L937 393L1010 393L1010 321L937 321M1011 321L1011 393L1084 393L1084 321L1011 321M1085 321L1085 393L1158 393L1158 321L1085 321M1159 321L1159 393L1232 393L1232 321L1159 321M1233 321L1233 393L1280 393L1280 321L1233 321z"/>
<path style="fill:#a3dac8; stroke:none;" d="M560 322L561 323L560 322z"/>
<path style="fill:#c4e6da; stroke:none;" d="M612 322L613 323L612 322z"/>
<path style="fill:#7bccb3; stroke:none;" d="M617 322L618 323L617 322z"/>
<path style="fill:#a3dac8; stroke:none;" d="M618 322L619 323L618 322z"/>
<path style="fill:#c4e6da; stroke:none;" d="M646 322L647 323L646 322z"/>
<path style="fill:#7bccb3; stroke:none;" d="M689 322L690 323L689 322z"/>
<path style="fill:#c4e6da; stroke:none;" d="M766 322L767 323L766 322M772 322L773 323L772 322z"/>
<path style="fill:#7bccb3; stroke:none;" d="M799 322L800 323L799 322M868 322L869 323L868 322z"/>
<path style="fill:#a3dac8; stroke:none;" d="M410 323L411 324L410 323z"/>
<path style="fill:#7bccb3; stroke:none;" d="M561 323L562 324L561 323M577 323L578 324L577 323M613.667 323.333L614.333 323.667L613.667 323.333z"/>
<path style="fill:#a3dac8; stroke:none;" d="M615 323L616 324L615 323M640 323L641 324L640 323z"/>
<path style="fill:#7bccb3; stroke:none;" d="M641.667 323.333L642.333 323.667L641.667 323.333M673 323L674 324L673 323M691 323L692 324L691 323z"/>
<path style="fill:#c4e6da; stroke:none;" d="M692 323L693 324L692 323z"/>
<path style="fill:#a3dac8; stroke:none;" d="M740 323L741 324L740 323z"/>
<path style="fill:#7bccb3; stroke:none;" d="M767 323L768 324L767 323M770 323L771 324L770 323z"/>
<path style="fill:#a3dac8; stroke:none;" d="M799 323L800 324L799 323z"/>
<path style="fill:#7bccb3; stroke:none;" d="M829.333 323.667L829.667 324.333L829.333 323.667z"/>
<path style="fill:#c4e6da; stroke:none;" d="M842 323L843 324L842 323z"/>
<path style="fill:#7bccb3; stroke:none;" d="M444 324L445 325L444 324z"/>
<path style="fill:#c4e6da; stroke:none;" d="M578 324L579 325L578 324M633 324L634 325L633 324z"/>
<path style="fill:#a3dac8; stroke:none;" d="M634 324L635 325L634 324z"/>
<path style="fill:#7bccb3; stroke:none;" d="M635.667 324.333L636.333 324.667L635.667 324.333z"/>
<path style="fill:#c4e6da; stroke:none;" d="M673 324L674 325L673 324z"/>
<path style="fill:#7bccb3; stroke:none;" d="M694 324L695 325L694 324z"/>
<path style="fill:#a3dac8; stroke:none;" d="M695 324L696 325L695 324z"/>
<path style="fill:#c4e6da; stroke:none;" d="M724 324L725 325L724 324M769 324L770 325L769 324M785 324L786 325L785 324M799 324L799 325L829 325L799 324z"/>
<path style="fill:#a3dac8; stroke:none;" d="M842 324L843 325L842 324z"/>
<path style="fill:#7bccb3; stroke:none;" d="M867 324L868 325L867 324M891 324L891 360L892 360C892 349.613 895.011 333.56 891 324M443 325L444 326L443 325z"/>
<path style="fill:#a3dac8; stroke:none;" d="M562 325L563 326L562 325z"/>
<path style="fill:#c4e6da; stroke:none;" d="M627 325L628 326L627 325z"/>
<path style="fill:#a3dac8; stroke:none;" d="M628 325L629 326L628 325z"/>
<path style="fill:#7bccb3; stroke:none;" d="M629 325L630 326L629 325M674 325L675 326L674 325M698 325L699 326L698 325z"/>
<path style="fill:#a3dac8; stroke:none;" d="M699 325L700 326L699 325z"/>
<path style="fill:#c4e6da; stroke:none;" d="M700 325L701 326L700 325z"/>
<path style="fill:#7bccb3; stroke:none;" d="M724.333 325.667L724.667 326.333L724.333 325.667M739 325L740 326L739 325M785.333 325.667L785.667 326.333L785.333 325.667M842 325L842 328L843 328L842 325z"/>
<path style="fill:#a3dac8; stroke:none;" d="M867 325L868 326L867 325z"/>
<path style="fill:#7bccb3; stroke:none;" d="M442 326L443 327L442 326M563 326L564 327L563 326M579 326L580 327L579 326z"/>
<path style="fill:#c4e6da; stroke:none;" d="M623 326L624 327L623 326z"/>
<path style="fill:#7bccb3; stroke:none;" d="M624.667 326.333L625.333 326.667L624.667 326.333M702 326L703 327L702 326z"/>
<path style="fill:#a3dac8; stroke:none;" d="M703 326L704 327L703 326z"/>
<path style="fill:#c4e6da; stroke:none;" d="M739 326L740 327L739 326z"/>
<path style="fill:#7bccb3; stroke:none;" d="M334 327L334 330L335 330L334 327M441 327L442 328L441 327M491 327L491 330L492 330L491 327z"/>
<path style="fill:#c4e6da; stroke:none;" d="M580 327L581 328L580 327z"/>
<path style="fill:#7bccb3; stroke:none;" d="M621.667 327.333L622.333 327.667L621.667 327.333z"/>
<path style="fill:#a3dac8; stroke:none;" d="M675 327L676 328L675 327M706 327L707 328L706 327z"/>
<path style="fill:#7bccb3; stroke:none;" d="M440 328L441 329L440 328z"/>
<path style="fill:#a3dac8; stroke:none;" d="M564 328L565 329L564 328z"/>
<path style="fill:#7bccb3; stroke:none;" d="M619 328L620 329L619 328M676 328L677 329L676 328M708 328L709 329L708 328M866 328L866 360L867 360L866 328z"/>
<path style="fill:#a3dac8; stroke:none;" d="M438 329L439 330L438 329z"/>
<path style="fill:#7bccb3; stroke:none;" d="M565 329L566 330L565 329M581 329L582 330L581 329z"/>
<path style="fill:#a3dac8; stroke:none;" d="M617 329L618 330L617 329z"/>
<path style="fill:#7bccb3; stroke:none;" d="M677 329L678 330L677 329M710 329L711 330L710 329M738 329L738 334L739 334L738 329z"/>
<path style="fill:#a3dac8; stroke:none;" d="M334 330L335 331L334 330z"/>
<path style="fill:#c4e6da; stroke:none;" d="M436 330L437 331L436 330z"/>
<path style="fill:#a3dac8; stroke:none;" d="M491 330L492 331L491 330z"/>
<path style="fill:#c4e6da; stroke:none;" d="M582 330L583 331L582 330z"/>
<path style="fill:#7bccb3; stroke:none;" d="M616 330L617 331L616 330z"/>
<path style="fill:#a3dac8; stroke:none;" d="M678 330L679 331L678 330z"/>
<path style="fill:#c4e6da; stroke:none;" d="M334 331L335 332L334 331z"/>
<path style="fill:#7bccb3; stroke:none;" d="M435 331L436 332L435 331M566 331L567 332L566 331z"/>
<path style="fill:#c4e6da; stroke:none;" d="M614 331L615 332L614 331z"/>
<path style="fill:#a3dac8; stroke:none;" d="M713 331L714 332L713 331z"/>
<path style="fill:#7bccb3; stroke:none;" d="M433 332L434 333L433 332M583 332L584 333L583 332z"/>
<path style="fill:#c4e6da; stroke:none;" d="M613 332L614 333L613 332z"/>
<path style="fill:#7bccb3; stroke:none;" d="M646 332L647 333L646 332z"/>
<path style="fill:#a3dac8; stroke:none;" d="M681 332L682 333L681 332M714 332L715 333L714 332M431 333L432 334L431 333z"/>
<path style="fill:#fdfcfa; stroke:none;" d="M491 333C489.001 357.472 469.335 382.652 447 392L447 393L492 393L492 352L491 333z"/>
<path style="fill:#7bccb3; stroke:none;" d="M640.667 333.333L641.333 333.667L640.667 333.333z"/>
<path style="fill:#a3dac8; stroke:none;" d="M642 333L643 334L642 333z"/>
<path style="fill:#c4e6da; stroke:none;" d="M643 333L644 334L643 333z"/>
<path style="fill:#fdfcfa; stroke:none;" d="M641 334L641 346C645.857 343.234 646.039 338.097 647 333L641 334z"/>
<path style="fill:#a3dac8; stroke:none;" d="M683 333L684 334L683 333z"/>
<path style="fill:#7bccb3; stroke:none;" d="M684 333L685 334L684 333z"/>
<path style="fill:#c4e6da; stroke:none;" d="M715 333L716 334L715 333M429 334L430 335L429 334z"/>
<path style="fill:#7bccb3; stroke:none;" d="M430 334L431 335L430 334z"/>
<path style="fill:#a3dac8; stroke:none;" d="M568 334L569 335L568 334z"/>
<path style="fill:#7bccb3; stroke:none;" d="M584 334L585 335L584 334M634.667 334.333L635.333 334.667L634.667 334.333z"/>
<path style="fill:#a3dac8; stroke:none;" d="M636 334L637 335L636 334z"/>
<path style="fill:#c4e6da; stroke:none;" d="M637 334L638 335L637 334z"/>
<path style="fill:#fdfcfa; stroke:none;" d="M640 334C634.863 334.968 626.732 335.175 624.619 341.044C621.699 349.155 634.626 353.049 638.972 347.297C641.27 344.256 640 337.624 640 334z"/>
<path style="fill:#c4e6da; stroke:none;" d="M640 334L642 347L640 334z"/>
<path style="fill:#a3dac8; stroke:none;" d="M686 334L687 335L686 334z"/>
<path style="fill:#7bccb3; stroke:none;" d="M335 335L336 336L335 335M428 335L429 336L428 335M490.333 335.667L490.667 336.333L490.333 335.667M569 335L570 336L569 335z"/>
<path style="fill:#c4e6da; stroke:none;" d="M585 335L586 336L585 335z"/>
<path style="fill:#7bccb3; stroke:none;" d="M611 335L612 336L611 335M629.667 335.333L630.333 335.667L629.667 335.333z"/>
<path style="fill:#c4e6da; stroke:none;" d="M631 335L632 336L631 335M646.333 335.667L646.667 336.333L646.333 335.667z"/>
<path style="fill:#a3dac8; stroke:none;" d="M689 335L690 336L689 335z"/>
<path style="fill:#7bccb3; stroke:none;" d="M690 335L691 336L690 335M716 335L717 336L716 335z"/>
<path style="fill:#c4e6da; stroke:none;" d="M799 335L799 336L843 336C831.537 331.19 811.48 335 799 335z"/>
<path style="fill:#a3dac8; stroke:none;" d="M335 336L336 337L335 336z"/>
<path style="fill:#c4e6da; stroke:none;" d="M376 336L377 337L376 336z"/>
<path style="fill:#7bccb3; stroke:none;" d="M426 336L427 337L426 336z"/>
<path style="fill:#c4e6da; stroke:none;" d="M569 336L570 337L569 336z"/>
<path style="fill:#7bccb3; stroke:none;" d="M585 336L586 337L585 336M627 336L628 337L627 336z"/>
<path style="fill:#c4e6da; stroke:none;" d="M628 336L629 337L628 336M693 336L694 337L693 336z"/>
<path style="fill:#a3dac8; stroke:none;" d="M694 336L695 337L694 336z"/>
<path style="fill:#7bccb3; stroke:none;" d="M695 336L696 337L695 336z"/>
<path style="fill:#c4e6da; stroke:none;" d="M335 337L336 338L335 337z"/>
<path style="fill:#a3dac8; stroke:none;" d="M376 337L377 338L376 337z"/>
<path style="fill:#c4e6da; stroke:none;" d="M424 337L425 338L424 337M490 337L491 338L490 337z"/>
<path style="fill:#7bccb3; stroke:none;" d="M570 337L571 338L570 337M610 337L611 338L610 337z"/>
<path style="fill:#a3dac8; stroke:none;" d="M626 337L627 338L626 337M646 337L647 338L646 337z"/>
<path style="fill:#c4e6da; stroke:none;" d="M680 337L681 338L680 337M697 337L698 338L697 337z"/>
<path style="fill:#7bccb3; stroke:none;" d="M698 337L699 338L698 337z"/>
<path style="fill:#a3dac8; stroke:none;" d="M717 337L718 338L717 337z"/>
<path style="fill:#7bccb3; stroke:none;" d="M724 337L725 338L724 337z"/>
<path style="fill:#a3dac8; stroke:none;" d="M739 337L740 338L739 337z"/>
<path style="fill:#7bccb3; stroke:none;" d="M785 337L786 338L785 337z"/>
<path style="fill:#c4e6da; stroke:none;" d="M799 337L800 338L799 337z"/>
<path style="fill:#7bccb3; stroke:none;" d="M376 338L377 339L376 338M423 338L424 339L423 338z"/>
<path style="fill:#c4e6da; stroke:none;" d="M625 338L626 339L625 338z"/>
<path style="fill:#7bccb3; stroke:none;" d="M646 338L647 339L646 338M679 338L680 339L679 338M681 338L682 339L681 338z"/>
<path style="fill:#a3dac8; stroke:none;" d="M700 338L701 339L700 338z"/>
<path style="fill:#7bccb3; stroke:none;" d="M717 338L718 339L717 338z"/>
<path style="fill:#a3dac8; stroke:none;" d="M724 338L725 339L724 338z"/>
<path style="fill:#7bccb3; stroke:none;" d="M739 338L740 339L739 338z"/>
<path style="fill:#a3dac8; stroke:none;" d="M768 338L769 339L768 338z"/>
<path style="fill:#7bccb3; stroke:none;" d="M769 338L770 339L769 338z"/>
<path style="fill:#a3dac8; stroke:none;" d="M785 338L786 339L785 338z"/>
<path style="fill:#7bccb3; stroke:none;" d="M799.333 338.667L799.667 339.333L799.333 338.667M421 339L422 340L421 339z"/>
<path style="fill:#c4e6da; stroke:none;" d="M571 339L572 340L571 339z"/>
<path style="fill:#7bccb3; stroke:none;" d="M624 339L625 340L624 339z"/>
<path style="fill:#c4e6da; stroke:none;" d="M677 339L678 340L677 339z"/>
<path style="fill:#a3dac8; stroke:none;" d="M702 339L703 340L702 339z"/>
<path style="fill:#c4e6da; stroke:none;" d="M724 339L725 340L724 339z"/>
<path style="fill:#7bccb3; stroke:none;" d="M771 339L772 340L771 339z"/>
<path style="fill:#c4e6da; stroke:none;" d="M785 339L786 340L785 339z"/>
<path style="fill:#7bccb3; stroke:none;" d="M830 339L831 340L830 339z"/>
<path style="fill:#a3dac8; stroke:none;" d="M831 339L832 340L831 339z"/>
<path style="fill:#7bccb3; stroke:none;" d="M336 340L337 341L336 340z"/>
<path style="fill:#c4e6da; stroke:none;" d="M377 340L378 341L377 340z"/>
<path style="fill:#a3dac8; stroke:none;" d="M419 340L420 341L419 340z"/>
<path style="fill:#7bccb3; stroke:none;" d="M489 340L490 341L489 340M572 340L573 341L572 340z"/>
<path style="fill:#c4e6da; stroke:none;" d="M609 340L610 341L609 340z"/>
<path style="fill:#7bccb3; stroke:none;" d="M676 340L677 341L676 340z"/>
<path style="fill:#a3dac8; stroke:none;" d="M682 340L683 341L682 340z"/>
<path style="fill:#c4e6da; stroke:none;" d="M703 340L704 341L703 340z"/>
<path style="fill:#7bccb3; stroke:none;" d="M740 340L741 341L740 340M767 340L768 341L767 340z"/>
<path style="fill:#c4e6da; stroke:none;" d="M800 340L801 341L800 340z"/>
<path style="fill:#7bccb3; stroke:none;" d="M829 340L830 341L829 340M832 340L833 341L832 340z"/>
<path style="fill:#c4e6da; stroke:none;" d="M336 341L337 342L336 341z"/>
<path style="fill:#7bccb3; stroke:none;" d="M377 341L378 342L377 341z"/>
<path style="fill:#c4e6da; stroke:none;" d="M417 341L418 342L417 341z"/>
<path style="fill:#7bccb3; stroke:none;" d="M418 341L419 342L418 341z"/>
<path style="fill:#c4e6da; stroke:none;" d="M489 341L490 342L489 341z"/>
<path style="fill:#7bccb3; stroke:none;" d="M609 341L609 347L610 347L609 341M623 341L623 345L624 345L623 341z"/>
<path style="fill:#a3dac8; stroke:none;" d="M645 341L646 342L645 341M674 341L675 342L674 341z"/>
<path style="fill:#7bccb3; stroke:none;" d="M704 341L705 342L704 341M725.333 341.667L725.667 342.333L725.333 341.667M774 341L775 342L774 341M786 341L787 342L786 341M800 341L801 342L800 341M834 341L835 342L834 341z"/>
<path style="fill:#c4e6da; stroke:none;" d="M378 342L379 343L378 342z"/>
<path style="fill:#7bccb3; stroke:none;" d="M416 342L417 343L416 342z"/>
<path style="fill:#c4e6da; stroke:none;" d="M573 342L574 343L573 342M672 342L673 343L672 342z"/>
<path style="fill:#7bccb3; stroke:none;" d="M673 342L674 343L673 342M683 342L684 343L683 342z"/>
<path style="fill:#c4e6da; stroke:none;" d="M704 342L704 345L705 345L704 342M776 342L777 343L776 342z"/>
<path style="fill:#a3dac8; stroke:none;" d="M786 342L787 343L786 342z"/>
<path style="fill:#c4e6da; stroke:none;" d="M801 342L802 343L801 342z"/>
<path style="fill:#a3dac8; stroke:none;" d="M836 342L837 343L836 342z"/>
<path style="fill:#7bccb3; stroke:none;" d="M337 343L338 344L337 343M378 343L379 344L378 343M414 343L415 344L414 343M488 343L489 344L488 343M574 343L575 344L574 343z"/>
<path style="fill:#a3dac8; stroke:none;" d="M644 343L645 344L644 343z"/>
<path style="fill:#7bccb3; stroke:none;" d="M671 343L672 344L671 343z"/>
<path style="fill:#c4e6da; stroke:none;" d="M684 343L685 344L684 343z"/>
<path style="fill:#7bccb3; stroke:none;" d="M742 343L743 344L742 343M765 343L766 344L765 343M777 343L778 344L777 343M827 343L828 344L827 343z"/>
<path style="fill:#a3dac8; stroke:none;" d="M838 343L839 344L838 343M934 343L935 344L934 343M337 344L338 345L337 344z"/>
<path style="fill:#c4e6da; stroke:none;" d="M379 344L380 345L379 344z"/>
<path style="fill:#a3dac8; stroke:none;" d="M488 344L489 345L488 344z"/>
<path style="fill:#c4e6da; stroke:none;" d="M669.333 344.667L669.667 345.333L669.333 344.667z"/>
<path style="fill:#7bccb3; stroke:none;" d="M726 344L727 345L726 344M743 344L744 345L743 344M764 344L765 345L764 344z"/>
<path style="fill:#a3dac8; stroke:none;" d="M779 344L780 345L779 344z"/>
<path style="fill:#7bccb3; stroke:none;" d="M787 344L788 345L787 344M802 344L803 345L802 344M826 344L827 345L826 344M839 344L840 345L839 344M934 344L935 345L934 344z"/>
<path style="fill:#c4e6da; stroke:none;" d="M575 345L576 346L575 345z"/>
<path style="fill:#7bccb3; stroke:none;" d="M704 345L705 346L704 345z"/>
<path style="fill:#c4e6da; stroke:none;" d="M726 345L727 346L726 345z"/>
<path style="fill:#7bccb3; stroke:none;" d="M744 345L745 346L744 345M763 345L764 346L763 345z"/>
<path style="fill:#a3dac8; stroke:none;" d="M780 345L781 346L780 345z"/>
<path style="fill:#c4e6da; stroke:none;" d="M787 345L788 346L787 345z"/>
<path style="fill:#7bccb3; stroke:none;" d="M803 345L804 346L803 345M825 345L826 346L825 345M338 346L339 347L338 346M380 346L381 347L380 346M576 346L577 347L576 346z"/>
<path style="fill:#c4e6da; stroke:none;" d="M624 346L625 347L624 346z"/>
<path style="fill:#7bccb3; stroke:none;" d="M670 346L671 347L670 346z"/>
<path style="fill:#c4e6da; stroke:none;" d="M703 346L704 347L703 346z"/>
<path style="fill:#7bccb3; stroke:none;" d="M727 346L728 347L727 346z"/>
<path style="fill:#a3dac8; stroke:none;" d="M746 346L747 347L746 346M761 346L762 347L761 346z"/>
<path style="fill:#7bccb3; stroke:none;" d="M824 346L825 347L824 346z"/>
<path style="fill:#a3dac8; stroke:none;" d="M840 346L841 347L840 346z"/>
<path style="fill:#7bccb3; stroke:none;" d="M935 346L936 347L935 346z"/>
<path style="fill:#a3dac8; stroke:none;" d="M338 347L339 348L338 347z"/>
<path style="fill:#7bccb3; stroke:none;" d="M381 347L382 348L381 347z"/>
<path style="fill:#a3dac8; stroke:none;" d="M487 347L488 348L487 347M609 347L610 348L609 347M640 347L641 348L640 347z"/>
<path style="fill:#c4e6da; stroke:none;" d="M670 347L671 348L670 347z"/>
<path style="fill:#a3dac8; stroke:none;" d="M688 347L689 348L688 347z"/>
<path style="fill:#c4e6da; stroke:none;" d="M702 347L703 348L702 347z"/>
<path style="fill:#7bccb3; stroke:none;" d="M717 347L718 348L717 347z"/>
<path style="fill:#c4e6da; stroke:none;" d="M727 347L728 348L727 347z"/>
<path style="fill:#7bccb3; stroke:none;" d="M748 347L749 348L748 347z"/>
<path style="fill:#c4e6da; stroke:none;" d="M749 347L750 348L749 347M758 347L759 348L758 347z"/>
<path style="fill:#7bccb3; stroke:none;" d="M759 347L760 348L759 347M779 347L780 348L779 347M806 347L807 348L806 347M822 347L823 348L822 347M936 347L937 348L936 347M382 348L383 349L382 348z"/>
<path style="fill:#c4e6da; stroke:none;" d="M577 348L578 349L577 348M609 348L610 349L609 348M638 348L639 349L638 348z"/>
<path style="fill:#7bccb3; stroke:none;" d="M639 348L640 349L639 348M661 348L661 351L662 351L661 348M671 348L672 349L671 348z"/>
<path style="fill:#a3dac8; stroke:none;" d="M690 348L691 349L690 348z"/>
<path style="fill:#c4e6da; stroke:none;" d="M700 348L701 349L700 348z"/>
<path style="fill:#7bccb3; stroke:none;" d="M701 348L702 349L701 348z"/>
<path style="fill:#a3dac8; stroke:none;" d="M717 348L718 349L717 348z"/>
<path style="fill:#7bccb3; stroke:none;" d="M728 348L729 349L728 348M752 348L752 349L755 349L752 348M789 348L790 349L789 348M808 348L809 349L808 348z"/>
<path style="fill:#c4e6da; stroke:none;" d="M809 348L810 349L809 348M819 348L820 349L819 348z"/>
<path style="fill:#7bccb3; stroke:none;" d="M820 348L821 349L820 348z"/>
<path style="fill:#a3dac8; stroke:none;" d="M839 348L840 349L839 348M938 348L939 349L938 348z"/>
<path style="fill:#c4e6da; stroke:none;" d="M939 348L940 349L939 348M944 348L945 349L944 348z"/>
<path style="fill:#7bccb3; stroke:none;" d="M945 348L946 349L945 348z"/>
<path style="fill:#c4e6da; stroke:none;" d="M946 348L947 349L946 348z"/>
<path style="fill:#7bccb3; stroke:none;" d="M339 349L340 350L339 349M383 349L384 350L383 349M486 349L487 350L486 349M578 349L579 350L578 349M627 349L628 350L627 349z"/>
<path style="fill:#c4e6da; stroke:none;" d="M628 349L629 350L628 349M635 349L636 350L635 349z"/>
<path style="fill:#a3dac8; stroke:none;" d="M636 349L637 350L636 349z"/>
<path style="fill:#7bccb3; stroke:none;" d="M637 349L638 350L637 349M692.667 349.333L693.333 349.667L692.667 349.333z"/>
<path style="fill:#a3dac8; stroke:none;" d="M694 349L694 350L698 350L694 349z"/>
<path style="fill:#7bccb3; stroke:none;" d="M698 349L699 350L698 349z"/>
<path style="fill:#a3dac8; stroke:none;" d="M778 349L779 350L778 349z"/>
<path style="fill:#7bccb3; stroke:none;" d="M812 349L812 350L817 350L812 349M838 349L839 350L838 349M920 349L921 350L920 349z"/>
<path style="fill:#a3dac8; stroke:none;" d="M946 349L947 350L946 349z"/>
<path style="fill:#c4e6da; stroke:none;" d="M339 350L340 351L339 350z"/>
<path style="fill:#7bccb3; stroke:none;" d="M384 350L385 351L384 350z"/>
<path style="fill:#c4e6da; stroke:none;" d="M486 350L487 351L486 350z"/>
<path style="fill:#7bccb3; stroke:none;" d="M610 350L611 351L610 350z"/>
<path style="fill:#c4e6da; stroke:none;" d="M672 350L673 351L672 350z"/>
<path style="fill:#7bccb3; stroke:none;" d="M716 350L717 351L716 350z"/>
<path style="fill:#c4e6da; stroke:none;" d="M729 350L730 351L729 350z"/>
<path style="fill:#7bccb3; stroke:none;" d="M777 350L778 351L777 350z"/>
<path style="fill:#a3dac8; stroke:none;" d="M920 350L921 351L920 350z"/>
<path style="fill:#7bccb3; stroke:none;" d="M946.333 350.667L946.667 351.333L946.333 350.667z"/>
<path style="fill:#c4e6da; stroke:none;" d="M579 351L580 352L579 351M610 351L611 352L610 351z"/>
<path style="fill:#7bccb3; stroke:none;" d="M647 351L648 352L647 351M673 351L674 352L673 351z"/>
<path style="fill:#a3dac8; stroke:none;" d="M730 351L731 352L730 351M791 351L792 352L791 351z"/>
<path style="fill:#c4e6da; stroke:none;" d="M837 351L838 352L837 351M920 351L921 352L920 351z"/>
<path style="fill:#7bccb3; stroke:none;" d="M340 352L341 353L340 352M387 352L388 353L387 352z"/>
<path style="fill:#a3dac8; stroke:none;" d="M485 352L486 353L485 352z"/>
<path style="fill:#7bccb3; stroke:none;" d="M580 352L581 353L580 352M611 352L612 353L611 352z"/>
<path style="fill:#c4e6da; stroke:none;" d="M647 352L648 353L647 352z"/>
<path style="fill:#7bccb3; stroke:none;" d="M674 352L675 353L674 352M715 352L716 353L715 352M731 352L732 353L731 352M792 352L793 353L792 352z"/>
<path style="fill:#a3dac8; stroke:none;" d="M836 352L837 353L836 352z"/>
<path style="fill:#7bccb3; stroke:none;" d="M921 352L922 353L921 352z"/>
<path style="fill:#a3dac8; stroke:none;" d="M389 353L390 354L389 353z"/>
<path style="fill:#c4e6da; stroke:none;" d="M611 353L612 354L611 353M662 353L663 354L662 353z"/>
<path style="fill:#7bccb3; stroke:none;" d="M732 353L733 354L732 353M793 353L794 354L793 353M835 353L836 354L835 353z"/>
<path style="fill:#a3dac8; stroke:none;" d="M921 353L922 354L921 353z"/>
<path style="fill:#7bccb3; stroke:none;" d="M341 354L342 355L341 354z"/>
<path style="fill:#a3dac8; stroke:none;" d="M391 354L392 355L391 354z"/>
<path style="fill:#7bccb3; stroke:none;" d="M484 354L485 355L484 354z"/>
<path style="fill:#c4e6da; stroke:none;" d="M581 354L582 355L581 354z"/>
<path style="fill:#7bccb3; stroke:none;" d="M612 354L613 355L612 354z"/>
<path style="fill:#a3dac8; stroke:none;" d="M645 354L646 355L645 354z"/>
<path style="fill:#7bccb3; stroke:none;" d="M662 354L663 355L662 354M733 354L734 355L733 354z"/>
<path style="fill:#a3dac8; stroke:none;" d="M794 354L795 355L794 354z"/>
<path style="fill:#7bccb3; stroke:none;" d="M834 354L835 355L834 354M922 354L923 355L922 354M392 355L393 356L392 355M582 355L583 356L582 355M613 355L614 356L613 355M644 355L645 356L644 355M648.333 355.667L648.667 356.333L648.333 355.667M677 355L678 356L677 355z"/>
<path style="fill:#a3dac8; stroke:none;" d="M734 355L735 356L734 355z"/>
<path style="fill:#c4e6da; stroke:none;" d="M795 355L796 356L795 355z"/>
<path style="fill:#a3dac8; stroke:none;" d="M833 355L834 356L833 355z"/>
<path style="fill:#c4e6da; stroke:none;" d="M922 355L923 356L922 355z"/>
<path style="fill:#7bccb3; stroke:none;" d="M342 356L343 357L342 356M394 356L395 357L394 356M483 356L484 357L483 356M643 356L644 357L643 356z"/>
<path style="fill:#c4e6da; stroke:none;" d="M663 356L664 357L663 356z"/>
<path style="fill:#7bccb3; stroke:none;" d="M678 356L679 357L678 356M771 356L772 357L771 356M797 356L798 357L797 356z"/>
<path style="fill:#c4e6da; stroke:none;" d="M832 356L833 357L832 356z"/>
<path style="fill:#a3dac8; stroke:none;" d="M923 356L924 357L923 356z"/>
<path style="fill:#c4e6da; stroke:none;" d="M947 356L948 357L947 356z"/>
<path style="fill:#a3dac8; stroke:none;" d="M396 357L397 358L396 357z"/>
<path style="fill:#c4e6da; stroke:none;" d="M583 357L584 358L583 357z"/>
<path style="fill:#7bccb3; stroke:none;" d="M615 357L616 358L615 357z"/>
<path style="fill:#a3dac8; stroke:none;" d="M642 357L643 358L642 357z"/>
<path style="fill:#7bccb3; stroke:none;" d="M663 357L664 358L663 357M710 357L711 358L710 357z"/>
<path style="fill:#a3dac8; stroke:none;" d="M737 357L738 358L737 357z"/>
<path style="fill:#c4e6da; stroke:none;" d="M770 357L771 358L770 357z"/>
<path style="fill:#a3dac8; stroke:none;" d="M798 357L799 358L798 357z"/>
<path style="fill:#7bccb3; stroke:none;" d="M830 357L831 358L830 357M924 357L925 358L924 357z"/>
<path style="fill:#a3dac8; stroke:none;" d="M947 357L948 358L947 357z"/>
<path style="fill:#7bccb3; stroke:none;" d="M343 358L344 359L343 358M482 358L483 359L482 358M584 358L585 359L584 358z"/>
<path style="fill:#a3dac8; stroke:none;" d="M616 358L617 359L616 358z"/>
<path style="fill:#c4e6da; stroke:none;" d="M641 358L642 359L641 358z"/>
<path style="fill:#7bccb3; stroke:none;" d="M649 358L650 359L649 358z"/>
<path style="fill:#c4e6da; stroke:none;" d="M664 358L665 359L664 358z"/>
<path style="fill:#7bccb3; stroke:none;" d="M681 358L682 359L681 358z"/>
<path style="fill:#a3dac8; stroke:none;" d="M709 358L710 359L709 358z"/>
<path style="fill:#7bccb3; stroke:none;" d="M739 358L740 359L739 358M768 358L769 359L768 358M800 358L801 359L800 358M828 358L829 359L828 358z"/>
<path style="fill:#c4e6da; stroke:none;" d="M925 358L926 359L925 358z"/>
<path style="fill:#7bccb3; stroke:none;" d="M947 358L946 361L947 358M399 359L400 360L399 359M618 359L619 360L618 359M638 359L639 360L638 359M664 359L665 360L664 359z"/>
<path style="fill:#a3dac8; stroke:none;" d="M683 359L684 360L683 359M707 359L708 360L707 359M741 359L742 360L741 359z"/>
<path style="fill:#7bccb3; stroke:none;" d="M765 359L766 360L765 359z"/>
<path style="fill:#a3dac8; stroke:none;" d="M766 359L767 360L766 359M802 359L803 360L802 359z"/>
<path style="fill:#7bccb3; stroke:none;" d="M826 359L827 360L826 359M927 359L928 360L927 359M344 360L345 361L344 360M401 360L402 361L401 360z"/>
<path style="fill:#a3dac8; stroke:none;" d="M481 360L482 361L481 360M620 360L621 361L620 360z"/>
<path style="fill:#7bccb3; stroke:none;" d="M621 360L622 361L621 360M636 360L637 361L636 360z"/>
<path style="fill:#c4e6da; stroke:none;" d="M637 360L638 361L637 360M685 360L686 361L685 360z"/>
<path style="fill:#7bccb3; stroke:none;" d="M686 360L687 361L686 360M704 360L705 361L704 360z"/>
<path style="fill:#c4e6da; stroke:none;" d="M705 360L706 361L705 360M743 360L744 361L743 360z"/>
<path style="fill:#a3dac8; stroke:none;" d="M744 360L745 361L744 360z"/>
<path style="fill:#7bccb3; stroke:none;" d="M745 360L746 361L745 360M762 360L763 361L762 360z"/>
<path style="fill:#a3dac8; stroke:none;" d="M763 360L764 361L763 360z"/>
<path style="fill:#c4e6da; stroke:none;" d="M804 360L805 361L804 360z"/>
<path style="fill:#7bccb3; stroke:none;" d="M805 360L806 361L805 360M823 360L824 361L823 360z"/>
<path style="fill:#c4e6da; stroke:none;" d="M824 360L825 361L824 360z"/>
<path style="fill:#a3dac8; stroke:none;" d="M929 360L930 361L929 360z"/>
<path style="fill:#7bccb3; stroke:none;" d="M930 360L931 361L930 360z"/>
<path style="fill:#c4e6da; stroke:none;" d="M947 360L948 361L947 360z"/>
<path style="fill:#a3dac8; stroke:none;" d="M403 361L404 362L403 361z"/>
<path style="fill:#c4e6da; stroke:none;" d="M623 361L624 362L623 361z"/>
<path style="fill:#a3dac8; stroke:none;" d="M624 361L625 362L624 361z"/>
<path style="fill:#7bccb3; stroke:none;" d="M625 361L625 362L633 362L625 361z"/>
<path style="fill:#a3dac8; stroke:none;" d="M633 361L634 362L633 361z"/>
<path style="fill:#c4e6da; stroke:none;" d="M689 361L690 362L689 361z"/>
<path style="fill:#a3dac8; stroke:none;" d="M690 361L691 362L690 361z"/>
<path style="fill:#7bccb3; stroke:none;" d="M691 361L691 362L700 362L691 361z"/>
<path style="fill:#a3dac8; stroke:none;" d="M700 361L701 362L700 361z"/>
<path style="fill:#c4e6da; stroke:none;" d="M701 361L702 362L701 361M747.667 361.333L748.333 361.667L747.667 361.333z"/>
<path style="fill:#7bccb3; stroke:none;" d="M749 361L749 362L759 362L749 361z"/>
<path style="fill:#a3dac8; stroke:none;" d="M759 361L760 362L759 361z"/>
<path style="fill:#c4e6da; stroke:none;" d="M760 361L761 362L760 361M808 361L809 362L808 361z"/>
<path style="fill:#a3dac8; stroke:none;" d="M809 361L810 362L809 361z"/>
<path style="fill:#7bccb3; stroke:none;" d="M810 361L810 362L819 362L810 361z"/>
<path style="fill:#a3dac8; stroke:none;" d="M819 361L820 362L819 361z"/>
<path style="fill:#c4e6da; stroke:none;" d="M820 361L821 362L820 361M932 361L933 362L932 361z"/>
<path style="fill:#a3dac8; stroke:none;" d="M933 361L934 362L933 361z"/>
<path style="fill:#7bccb3; stroke:none;" d="M934.667 361.333L935.333 361.667L934.667 361.333M937 361L937 362L942 362L937 361z"/>
<path style="fill:#a3dac8; stroke:none;" d="M942 361L943 362L942 361z"/>
<path style="fill:#c4e6da; stroke:none;" d="M943 361L944 362L943 361z"/>
<path style="fill:#a3dac8; stroke:none;" d="M345 362L346 363L345 362z"/>
<path style="fill:#7bccb3; stroke:none;" d="M404 362L405 363L404 362z"/>
<path style="fill:#c4e6da; stroke:none;" d="M480 362L481 363L480 362z"/>
<path style="fill:#7bccb3; stroke:none;" d="M346 363L347 364L346 363M406 363L407 364L406 363M479 363L480 364L479 363z"/>
<path style="fill:#fdfcfa; stroke:none;" d="M346 364L346 393L378 393L378 392L346 364z"/>
<path style="fill:#a3dac8; stroke:none;" d="M408 364L409 365L408 364z"/>
<path style="fill:#c4e6da; stroke:none;" d="M347 365L348 366L347 365z"/>
<path style="fill:#a3dac8; stroke:none;" d="M478 365L479 366L478 365z"/>
<path style="fill:#7bccb3; stroke:none;" d="M348 366L349 367L348 366M411 366L412 367L411 366M477 366L478 367L477 366M413 367L414 368L413 367z"/>
<path style="fill:#a3dac8; stroke:none;" d="M350 369L351 370L350 369M475 369L476 370L475 369z"/>
<path style="fill:#7bccb3; stroke:none;" d="M351 370L352 371L351 370M474 370L475 371L474 370M352 371L353 372L352 371M473 371L474 372L473 371z"/>
<path style="fill:#c4e6da; stroke:none;" d="M355 375L356 376L355 375M470 375L471 376L470 375M356 376L357 377L356 376M469 376L470 377L469 376M357 377L358 378L357 377M468 377L469 378L468 377M358 378L359 379L358 378M467 378L468 379L467 378z"/>
<path style="fill:#7bccb3; stroke:none;" d="M362 381L363 382L362 381M463 381L464 382L463 381M363 382L364 383L363 382M462 382L463 383L462 382z"/>
<path style="fill:#a3dac8; stroke:none;" d="M364 383L365 384L364 383M461 383L462 384L461 383z"/>
<path style="fill:#7bccb3; stroke:none;" d="M367 385L368 386L367 385M458 385L459 386L458 385z"/>
<path style="fill:#a3dac8; stroke:none;" d="M368 386L369 387L368 386z"/>
<path style="fill:#c4e6da; stroke:none;" d="M457 386L458 387L457 386z"/>
<path style="fill:#7bccb3; stroke:none;" d="M370 387L371 388L370 387M455 387L456 388L455 387z"/>
<path style="fill:#c4e6da; stroke:none;" d="M371 388L372 389L371 388M454 388L455 389L454 388z"/>
<path style="fill:#a3dac8; stroke:none;" d="M373 389L374 390L373 389M452 389L453 390L452 389z"/>
<path style="fill:#7bccb3; stroke:none;" d="M375 390L376 391L375 390M450 390L451 391L450 390M377 391L378 392L377 391M448 391L449 392L448 391M379 392L380 393L379 392M446 392L447 393L446 392z"/>
<path style="fill:#a3dac8; stroke:none;" d="M381 393L382 394L381 393z"/>
<path style="fill:#7bccb3; stroke:none;" d="M444 393L445 394L444 393z"/>
<path style="fill:#fdfcfa; stroke:none;" d="M0 394L0 467L49 467L49 413L47.3966 395.028L34 394L0 394M50 394L50 467L123 467L123 415L121.972 395.603L104 394L50 394M124 394L124 467L174 467C179.643 467 189.562 468.916 194.682 466.397C198.757 464.392 197 454.734 197 451L197 409C197 405.524 198.478 397.468 195.397 395.028C191.561 391.99 180.705 394 176 394L124 394M198 394L198 467L250 467C254.705 467 265.561 469.01 269.397 465.972C272.478 463.532 271 455.476 271 452L271 410C271 406.266 272.757 396.608 268.682 394.603C263.562 392.084 253.643 394 248 394L198 394M272 394L272 467L344 467L344 394L272 394M346 394L346 467L418 467L418 400L381 394.184L346 394z"/>
<path style="fill:#a3dac8; stroke:none;" d="M383 394L384 395L383 394z"/>
<path style="fill:#7bccb3; stroke:none;" d="M384 394L385 395L384 394M441 394L442 395L441 394z"/>
<path style="fill:#c4e6da; stroke:none;" d="M442 394L443 395L442 394z"/>
<path style="fill:#fdfcfa; stroke:none;" d="M420 400L420 467L492 467L492 394L445 394.184L420 400M566 467L566 394L516 394C510.357 394 500.438 392.084 495.318 394.603C491.243 396.608 493 406.266 493 410L493 452C493 455.476 491.522 463.532 494.603 465.972C498.439 469.01 509.295 467 514 467L566 467M640 467L640 394L590 394C584.357 394 574.438 392.084 569.318 394.603C565.243 396.608 567 406.266 567 410L567 452C567 455.476 565.522 463.532 568.603 465.972C572.439 469.01 583.295 467 588 467L640 467M641 467L714 467L714 394L660 394L642.028 395.603L641 415L641 467M715 467L788 467L788 394L736 394L716.603 395.028L715 413L715 467M789 467L862 467L862 394L810 394L790.603 395.028L789 413L789 467M863 467L936 467L936 394L884 394L864.603 395.028L863 413L863 467M937 467L1010 467L1010 394L958 394L938.603 395.028L937 413L937 467M1011 394L1011 467L1084 467L1084 394L1011 394M1085 394L1085 467L1158 467L1158 394L1085 394M1159 394L1159 467L1232 467L1232 394L1159 394M1233 394L1233 467L1280 467L1280 394L1233 394z"/>
<path style="fill:#a3dac8; stroke:none;" d="M386 395L387 396L386 395z"/>
<path style="fill:#7bccb3; stroke:none;" d="M438 395L439 396L438 395z"/>
<path style="fill:#a3dac8; stroke:none;" d="M439 395L440 396L439 395M389 396L390 397L389 396z"/>
<path style="fill:#7bccb3; stroke:none;" d="M390 396L391 397L390 396M435 396L436 397L435 396z"/>
<path style="fill:#a3dac8; stroke:none;" d="M436 396L437 397L436 396z"/>
<path style="fill:#c4e6da; stroke:none;" d="M392 397L393 398L392 397z"/>
<path style="fill:#7bccb3; stroke:none;" d="M393 397L394 398L393 397M432 397L433 398L432 397z"/>
<path style="fill:#c4e6da; stroke:none;" d="M433 397L434 398L433 397M396 398L397 399L396 398z"/>
<path style="fill:#7bccb3; stroke:none;" d="M397.667 398.333L398.333 398.667L397.667 398.333M427 398L428 399L427 398z"/>
<path style="fill:#a3dac8; stroke:none;" d="M428 398L429 399L428 398z"/>
<path style="fill:#c4e6da; stroke:none;" d="M429 398L430 399L429 398M401.667 399.333L402.333 399.667L401.667 399.333z"/>
<path style="fill:#a3dac8; stroke:none;" d="M403 399L404 400L403 399z"/>
<path style="fill:#7bccb3; stroke:none;" d="M404 399L404 400L407 400L404 399M420.667 399.333L421.333 399.667L420.667 399.333z"/>
<path style="fill:#a3dac8; stroke:none;" d="M422 399L423 400L422 399z"/>
<path style="fill:#c4e6da; stroke:none;" d="M423 399L424 400L423 399z"/>
<path style="fill:#fdfcfa; stroke:none;" d="M0 468L0 541L49 541L49 487L47.3966 469.028L34 468L0 468M50 468L50 541L123 541L123 487L121.397 469.028L102 468L50 468M124 468L124 541L174 541C179.643 541 189.562 542.916 194.682 540.397C198.757 538.392 197 528.734 197 525L197 483C197 479.524 198.478 471.468 195.397 469.028C191.561 465.99 180.705 468 176 468L124 468M198 468L198 541L250 541C254.705 541 265.561 543.01 269.397 539.972C272.478 537.532 271 529.476 271 526L271 484C271 480.266 272.757 470.608 268.682 468.603C263.562 466.084 253.643 468 248 468L198 468M272 468L272 541L344 541L344 468L272 468M346 468L346 541L418 541L418 468L346 468M420 468L420 541L492 541L492 468L420 468M566 541L566 468L516 468C510.357 468 500.438 466.084 495.318 468.603C491.243 470.608 493 480.266 493 484L493 526C493 529.476 491.522 537.532 494.603 539.972C498.439 543.01 509.295 541 514 541L566 541M640 541L640 468L590 468C584.357 468 574.438 466.084 569.318 468.603C565.243 470.608 567 480.266 567 484L567 526C567 529.476 565.522 537.532 568.603 539.972C572.439 543.01 583.295 541 588 541L640 541M641 468L641 522L642.603 539.972L662 541L714 541L714 468L641 468M715 468L715 522L716.603 539.972L736 541L788 541L788 468L715 468M789 468L789 522L790.603 539.972L810 541L862 541L862 468L789 468M863 468L863 541L936 541L936 468L863 468M937 468L937 541L1010 541L1010 468L937 468M1011 468L1011 541L1084 541L1084 468L1011 468M1085 468L1085 541L1158 541L1158 468L1085 468M1159 468L1159 541L1232 541L1232 468L1159 468M1233 468L1233 541L1280 541L1280 468L1233 468M0 542L0 615L34 615L47.3966 613.972L49 596L49 542L0 542M50 542L50 615L102 615L121.397 613.972L123 596L123 542L50 542M124 542L124 615L174 615C179.643 615 189.562 616.916 194.682 614.397C198.757 612.392 197 602.734 197 599L197 557C197 553.524 198.478 545.468 195.397 543.028C191.561 539.99 180.705 542 176 542L124 542M198 542L198 615L248 615C253.643 615 263.562 616.916 268.682 614.397C272.757 612.392 271 602.734 271 599L271 557C271 553.524 272.478 545.468 269.397 543.028C265.561 539.99 254.705 542 250 542L198 542M272 542L272 615L344 615L344 542L272 542M346 542L346 615L418 615L418 542L346 542M420 542L420 615L492 615L492 542L420 542M566 615L566 542L516 542C510.357 542 500.438 540.084 495.318 542.603C491.243 544.608 493 554.266 493 558L493 600C493 603.476 491.522 611.532 494.603 613.972C498.439 617.01 509.295 615 514 615L566 615M640 615L640 542L590 542C584.357 542 574.438 540.084 569.318 542.603C565.243 544.608 567 554.266 567 558L567 600C567 603.476 565.522 611.532 568.603 613.972C572.439 617.01 583.295 615 588 615L640 615M641 542L641 596L642.603 613.972L662 615L714 615L714 542L641 542M715 542L715 594L716.028 613.397L734 615L788 615L788 542L715 542M789 542L789 594L790.028 613.397L808 615L862 615L862 542L789 542M863 542L863 615L936 615L936 542L863 542M937 542L937 615L1010 615L1010 542L937 542M1011 542L1011 615L1084 615L1084 542L1011 542M1085 542L1085 615L1139 615L1156.97 613.397L1158 594L1158 542L1085 542M1159 542L1159 615L1211 615L1230.4 613.972L1232 596L1232 542L1159 542M1233 542L1233 615L1280 615L1280 542L1233 542M0 616L0 640L49 640L49 616L0 616M50 616L50 640L123 640L123 616L50 616M124 616L124 640L197 640L197 616L124 616M198 616L198 640L271 640L271 616L198 616M272 616L272 640L344 640L344 616L272 616M346 616L346 640L418 640L418 616L346 616M420 616L420 640L492 640L492 616L420 616M493 640L566 640L566 616L512 616L494.028 617.603L493 640M567 640L640 640L640 616L586 616L568.028 617.603L567 640M641 616L641 640L714 640L714 616L641 616M715 616L715 640L788 640L788 616L715 616M789 616L789 640L862 640L862 616L789 616M863 616L863 640L936 640L936 616L863 616M937 616L937 640L1010 640L1010 616L937 616M1011 616L1011 640L1084 640L1084 616L1011 616M1085 616L1085 640L1158 640L1158 616L1085 616M1159 616L1159 640L1232 640L1232 616L1159 616M1233 616L1233 640L1280 640L1280 616L1233 616z"/>
</svg>
