<?xml version="1.0" standalone="no"?>
<!DOCTYPE svg PUBLIC "-//W3C//DTD SVG 20010904//EN"
 "http://www.w3.org/TR/2001/REC-SVG-20010904/DTD/svg10.dtd">
<svg version="1.0" xmlns="http://www.w3.org/2000/svg"
 width="200.000000pt" height="200.000000pt" viewBox="0 0 200.000000 200.000000"
 preserveAspectRatio="xMidYMid meet">

<g transform="translate(0.000000,200.000000) scale(0.100000,-0.100000)"
fill="#000000" stroke="none">
<path d="M0 1005 l0 -255 265 0 265 0 0 255 0 255 -265 0 -265 0 0 -255z m190
115 c0 -40 0 -40 39 -40 42 0 51 -11 51 -61 0 -26 3 -29 35 -29 28 0 36 4 40
23 4 13 5 27 4 33 -5 27 3 34 40 34 43 0 49 -7 43 -56 -4 -30 -7 -33 -41 -36
-34 -3 -36 -5 -41 -43 -5 -38 -7 -40 -42 -43 -35 -3 -37 -5 -40 -40 -3 -36 -4
-37 -45 -40 l-42 -3 -3 38 c-3 36 -5 38 -43 43 l-40 5 -3 128 -3 127 46 0 45
0 0 -40z"/>
<path d="M197 984 c-4 -4 -7 -22 -7 -41 0 -32 1 -33 41 -33 l40 0 -3 38 c-3
33 -6 37 -33 40 -17 2 -34 0 -38 -4z"/>
<path d="M1360 1086 c0 -9 7 -16 16 -16 17 0 14 22 -4 28 -7 2 -12 -3 -12 -12z"/>
<path d="M1810 1066 c0 -13 -6 -27 -12 -30 -10 -5 -10 -7 0 -12 8 -4 12 -28
12 -70 l0 -64 36 0 c21 0 33 4 29 10 -3 6 -13 10 -21 10 -10 0 -14 14 -14 54
0 47 3 55 23 61 l22 8 -22 4 c-16 3 -23 11 -23 29 0 15 -6 24 -15 24 -9 0 -15
-9 -15 -24z"/>
<path d="M909 965 c32 -92 47 -94 78 -10 25 69 28 88 11 83 -6 -2 -19 -28 -27
-56 -8 -29 -18 -52 -22 -52 -4 0 -13 24 -21 53 -9 30 -21 53 -30 55 -12 2 -10
-11 11 -73z"/>
<path d="M1065 1020 c-16 -17 -16 -20 -2 -20 9 0 19 5 22 10 3 6 17 10 31 10
17 0 24 -5 24 -20 0 -15 -7 -20 -28 -20 -33 0 -65 -30 -60 -56 1 -9 12 -23 23
-30 17 -11 25 -11 48 1 15 7 27 10 27 4 0 -5 9 -9 20 -9 11 0 20 5 20 10 0 6
-4 10 -10 10 -5 0 -10 21 -10 46 0 25 -5 54 -10 65 -14 26 -71 26 -95 -1z m73
-82 c-4 -31 -58 -40 -58 -10 0 25 8 32 37 32 20 0 24 -5 21 -22z"/>
<path d="M1240 965 c0 -91 18 -101 22 -12 3 56 5 62 26 65 35 5 26 22 -13 22
l-35 0 0 -75z"/>
<path d="M1360 965 c0 -60 3 -75 15 -75 12 0 15 15 15 75 0 60 -3 75 -15 75
-12 0 -15 -15 -15 -75z"/>
<path d="M1444 1004 c-23 -54 0 -115 41 -115 11 1 39 1 63 1 23 0 42 5 42 10
0 6 -4 10 -10 10 -6 0 -10 28 -10 64 l0 63 -56 2 c-54 1 -55 0 -70 -35z m91
-39 c0 -48 -1 -50 -29 -53 -33 -4 -46 10 -46 54 0 37 17 56 50 52 23 -3 25 -7
25 -53z"/>
<path d="M1630 964 c0 -58 3 -74 15 -74 10 0 15 16 17 63 3 59 4 62 29 65 30
4 39 -15 39 -85 0 -24 5 -43 10 -43 15 0 13 125 -3 138 -7 6 -34 11 -60 10
l-47 -1 0 -73z"/>
</g>
</svg>
