<svg id="Layer_1" data-name="Layer 1" xmlns="http://www.w3.org/2000/svg" width="857.362" height="354.743" viewBox="0 0 857.362 354.743">
  <title>ZKV_Final-logo</title>
  <rect x="283.593" y="45.125" width="9.292" height="265.514" fill="#fff"/>
  <polygon points="431.895 45.145 427.058 51.263 349.614 145.836 349.614 45.145 340.324 45.145 340.324 159.682 350.286 159.682 437.83 52.775 444.198 45.145 431.895 45.145" fill="#fff"/>
  <polygon points="340.323 198.174 340.323 310.658 349.614 310.658 349.614 211.769 427.274 304.83 431.894 310.676 444.253 310.676 437.797 302.94 350.37 198.174 340.323 198.174" fill="#fff"/>
  <polygon points="493.548 45.145 488.65 51.34 488.657 51.341 384.79 178.907 489.693 305.802 493.548 310.676 505.906 310.676 499.451 302.94 499.391 302.948 396.809 178.863 499.46 52.788 505.852 45.124 493.548 45.145" fill="#fff"/>
  <polygon points="34.702 92.956 34.702 102.248 136.46 102.248 42.021 296.488 35.135 310.673 237.011 310.673 237.011 301.382 51.921 301.382 152.785 92.956 34.702 92.956" fill="#fff"/>
  <polygon points="34.702 45.145 34.702 54.438 221.24 54.438 122.178 262.506 237.011 262.506 237.011 253.214 138.328 253.214 230.363 58.945 237.435 45.145 34.702 45.145" fill="#fff"/>
  <polygon points="746.122 45.145 742.266 50.023 586.55 240.476 530.476 173.174 525.581 166.983 513.333 166.983 519.399 174.254 586.524 255.235 751.927 52.866 758.479 45.145 746.122 45.145" fill="#fff"/>
  <polygon points="813.247 45.145 808.401 51.346 601.916 301.351 568.709 301.099 494.94 211.645 490.043 205.456 477.807 205.456 483.874 212.727 564.486 310.673 606.346 310.678 819.087 52.871 825.605 45.146 825.605 45.145 813.247 45.145" fill="#fff"/>
</svg>
