<?xml version="1.0" encoding="utf-8"?>
<!-- Generator: Adobe Illustrator 26.3.1, SVG Export Plug-In . SVG Version: 6.00 Build 0)  -->
<svg version="1.1" id="katman_1" xmlns="http://www.w3.org/2000/svg" xmlns:xlink="http://www.w3.org/1999/xlink" x="0px" y="0px"
	 viewBox="0 0 300 100" style="enable-background:new 0 0 300 100;" xml:space="preserve">
<rect x="121.5" y="24.7" width="1.8" height="51.2"/>
<polygon points="150.1,24.7 149.1,25.8 134.2,44.1 134.2,24.7 132.4,24.7 132.4,46.8 134.3,46.8 151.2,26.1 152.4,24.7 "/>
<polygon points="132.4,54.2 132.4,75.9 134.2,75.9 134.2,56.8 149.2,74.7 150.1,75.9 152.5,75.9 151.2,74.4 134.3,54.2 "/>
<polygon points="161.9,24.7 161,25.8 161,25.8 141,50.5 161.2,74.9 161.9,75.9 164.3,75.9 163.1,74.4 163.1,74.4 143.3,50.5 
	163.1,26.1 164.3,24.7 "/>
<polygon points="73.5,33.9 73.5,35.7 93.1,35.7 74.9,73.1 73.5,75.9 112.5,75.9 112.5,74.1 76.8,74.1 96.2,33.9 "/>
<polygon points="73.5,24.7 73.5,26.4 109.4,26.4 90.3,66.6 112.5,66.6 112.5,64.8 93.4,64.8 111.2,27.3 112.5,24.7 "/>
<polygon points="210.7,24.7 209.9,25.6 179.9,62.3 169.1,49.4 168.1,48.2 165.8,48.2 166.9,49.6 179.9,65.2 211.8,26.2 213.1,24.7 
	"/>
<polygon points="223.6,24.7 222.7,25.8 182.9,74.1 176.4,74 162.2,56.8 161.3,55.6 158.9,55.6 160.1,57 175.6,75.9 183.7,75.9 
	224.7,26.2 226,24.7 226,24.7 "/>
</svg>
