<?xml version="1.0" encoding="utf-8"?>
<!-- Generator: Adobe Illustrator 26.3.1, SVG Export Plug-In . SVG Version: 6.00 Build 0)  -->
<svg version="1.1" id="katman_1" xmlns="http://www.w3.org/2000/svg" xmlns:xlink="http://www.w3.org/1999/xlink" x="0px" y="0px"
	 viewBox="0 0 300 100" style="enable-background:new 0 0 300 100;" xml:space="preserve">
<style type="text/css">
	.st0{fill-rule:evenodd;clip-rule:evenodd;}
</style>
<path d="M119.9,31c0.8,0,0.9,0,0.9-0.3c0-0.3,0.1-0.3,1.4-0.3c1.3,0,1.4,0,1.4,0.3c0,0.2-0.1,0.3-0.3,0.3c-0.2,0-0.3,0.1-0.3,0.3
	c0,0.2,0.1,0.3,0.3,0.3c0.3,0,0.3,0.1,0.3,17.4s0,17.4-0.3,17.4c-0.2,0-0.3,0.1-0.3,0.3c0,0.2,0.1,0.3,0.3,0.3
	c0.2,0,0.3,0.1,0.3,0.3c0,0.3,0.1,0.3,4.9,0.3c4.8,0,4.9,0,4.9,0.3c0,0.2,0.1,0.3,0.3,0.3s0.3,0.1,0.3,0.3s0.1,0.3,0.3,0.3
	s0.3,0.1,0.3,0.3s-0.1,0.3-0.3,0.3c-0.2,0-0.3,0.1-0.3,0.6v0.6h-11.7c-11.6,0-11.7,0-11.7-0.3c0-0.2-0.1-0.3-0.3-0.3
	c-0.3,0-0.3-0.1-0.3-0.9s0-0.9,0.3-0.9c0.2,0,0.3-0.1,0.3-0.3c0-0.3,0.1-0.3,5.1-0.3h5.1V33.8h-0.9c-0.8,0-0.9,0-0.9,0.3
	s-0.1,0.3-0.9,0.3s-0.9,0-0.9,0.3s-0.1,0.3-0.9,0.3s-0.9,0-0.9,0.3s-0.1,0.3-0.9,0.3s-0.9,0-0.9,0.3S113.8,36,113,36s-0.9,0-0.9,0.3
	s-0.1,0.3-0.9,0.3s-0.9,0-0.9-0.3c0-0.2-0.1-0.3-0.3-0.3c-0.3,0-0.3-0.1-0.3-0.9s0-0.9,0.3-0.9c0.2,0,0.3-0.1,0.3-0.3
	c0-0.3,0.1-0.3,0.9-0.3s0.9,0,0.9-0.3s0.1-0.3,0.9-0.3s0.9,0,0.9-0.3s0.1-0.3,0.9-0.3s0.9,0,0.9-0.3s0.1-0.3,0.9-0.3s0.9,0,0.9-0.3
	s0.1-0.3,0.9-0.3s0.9,0,0.9-0.3C119,31,119.1,31,119.9,31z"/>
<path class="st0" d="M138.7,31c0.2,0,0.3-0.1,0.3-0.3c0-0.3,0.1-0.3,3.7-0.3h3.7v12.3c0,12.2,0,12.3,0.3,12.3c0.2,0,0.3-0.1,0.3-0.3
	c0-0.2,0.1-0.3,0.3-0.3s0.3-0.1,0.3-0.3c0-0.2,0.1-0.3,0.3-0.3s0.3-0.1,0.3-0.3c0-0.2,0.1-0.3,0.3-0.3s0.3-0.1,0.3-0.3
	c0-0.2,0.1-0.3,0.6-0.3s0.6,0,0.6-0.3c0-0.2,0.1-0.3,0.3-0.3c0.2,0,0.3-0.1,0.3-0.3c0-0.2,0.1-0.3,0.3-0.3s0.3-0.1,0.3-0.3
	c0-0.2,0.1-0.3,0.3-0.3c0.2,0,0.3-0.1,0.3-0.3c0-0.2,0.1-0.3,0.3-0.3s0.3-0.1,0.3-0.3c0-0.2,0.1-0.3,0.6-0.3s0.6,0,0.6-0.3
	c0-0.2,0.1-0.3,0.3-0.3s0.3-0.1,0.3-0.3s0.1-0.3,0.3-0.3s0.3-0.1,0.3-0.3c0-0.2,0.1-0.3,0.3-0.3c0.2,0,0.3-0.1,0.3-0.3
	c0-0.2,0.1-0.3,0.3-0.3s0.3-0.1,0.3-0.3c0-0.2,0.1-0.3,0.3-0.3c0.2,0,0.3-0.1,0.3-0.3c0-0.2,0.1-0.3,0.6-0.3h0.6v-1.3h-1.1
	c-1,0-1.1,0-1.1-0.3c0-0.2-0.1-0.3-0.3-0.3c-0.2,0-0.3-0.1-0.3-0.6s0-0.6,0.3-0.6c0.2,0,0.3-0.1,0.3-0.3c0-0.3,0.1-0.3,7.1-0.3
	s7.1,0,7.1,0.3c0,0.2,0.1,0.3,0.3,0.3c0.3,0,0.3,0.1,0.3,0.9v0.9h-0.9c-0.8,0-0.9,0-0.9,0.3s-0.1,0.3-0.9,0.3s-0.9,0-0.9-0.3
	c0-0.2-0.1-0.3-0.6-0.3h-0.6v1.1h0.6c0.5,0,0.6,0,0.6,0.3c0,0.2,0.1,0.3,0.3,0.3s0.3,0.1,0.3,0.3c0,0.2,0.1,0.3,0.3,0.3
	c0.2,0,0.3,0.1,0.3,0.3c0,0.2,0.1,0.3,0.3,0.3s0.3,0.1,0.3,0.3c0,0.2,0.1,0.3,0.3,0.3s0.3,0.1,0.3,0.3s0.1,0.3,0.3,0.3
	s0.3,0.1,0.3,0.3c0,0.2,0.1,0.3,0.3,0.3s0.3,0.1,0.3,0.3c0,0.2,0.1,0.3,0.3,0.3c0.2,0,0.3,0.1,0.3,0.3c0,0.2,0.1,0.3,0.3,0.3
	s0.3,0.1,0.3,0.3c0,0.2,0.1,0.3,0.3,0.3c0.2,0,0.3,0.1,0.3,0.3c0,0.2,0.1,0.3,0.3,0.3s0.3,0.1,0.3,0.3c0,0.2,0.1,0.3,0.3,0.3
	s0.3,0.1,0.3,0.3c0,0.2,0.1,0.3,0.3,0.3s0.3,0.1,0.3,0.3c0,0.2,0.1,0.3,0.6,0.3s0.6,0,0.6-0.3c0-0.2,0.1-0.3,0.3-0.3
	c0.2,0,0.3-0.1,0.3-0.3c0-0.2,0.1-0.3,0.3-0.3s0.3-0.1,0.3-0.3c0-0.2,0.1-0.3,0.6-0.3c0.5,0,0.6,0,0.6-0.3c0-0.2,0.1-0.3,0.3-0.3
	s0.3-0.1,0.3-0.3c0-0.2,0.1-0.3,0.3-0.3s0.3-0.1,0.3-0.3c0-0.2,0.1-0.3,0.3-0.3s0.3-0.1,0.3-0.3c0-0.2,0.1-0.3,0.3-0.3
	s0.3-0.1,0.3-0.3c0-0.2,0.1-0.3,0.3-0.3c0.2,0,0.3-0.1,0.3-0.3s0.1-0.3,0.3-0.3s0.3-0.1,0.3-0.3s0.1-0.3,0.3-0.3
	c0.2,0,0.3-0.1,0.3-0.3s0.1-0.3,0.3-0.3s0.3-0.1,0.3-0.3s0.1-0.3,0.3-0.3s0.3-0.1,0.3-0.3s0.1-0.3,0.3-0.3c0.2,0,0.3-0.1,0.3-0.6
	s0-0.6-0.3-0.6c-0.2,0-0.3,0.1-0.3,0.3c0,0.3-0.1,0.3-0.9,0.3s-0.9,0-0.9-0.3s-0.1-0.3-0.9-0.3s-0.9,0-0.9-0.3
	c0-0.2-0.1-0.3-0.3-0.3c-0.2,0-0.3-0.1-0.3-0.6s0-0.6,0.3-0.6c0.2,0,0.3-0.1,0.3-0.3c0-0.3,0.1-0.3,4.9-0.3c4.8,0,4.9,0,4.9,0.3
	c0,0.2,0.1,0.3,0.3,0.3c0.3,0,0.3,0.1,0.3,0.9v0.9h-0.6c-0.5,0-0.6,0-0.6,0.3c0,0.3-0.1,0.3-0.9,0.3s-0.9,0-0.9,0.3
	c0,0.2-0.1,0.3-0.3,0.3s-0.3,0.1-0.3,0.3s-0.1,0.3-0.3,0.3s-0.3,0.1-0.3,0.3s-0.1,0.3-0.3,0.3s-0.3,0.1-0.3,0.3s-0.1,0.3-0.3,0.3
	s-0.3,0.1-0.3,0.3s-0.1,0.3-0.3,0.3c-0.2,0-0.3,0.1-0.3,0.3s-0.1,0.3-0.3,0.3s-0.3,0.1-0.3,0.3s-0.1,0.3-0.3,0.3s-0.3,0.1-0.3,0.3
	c0,0.2-0.1,0.3-0.3,0.3s-0.3,0.1-0.3,0.3c0,0.2-0.1,0.3-0.3,0.3s-0.3,0.1-0.3,0.3c0,0.2-0.1,0.3-0.3,0.3c-0.2,0-0.3,0.1-0.3,0.3
	c0,0.2-0.1,0.3-0.3,0.3s-0.3,0.1-0.3,0.3c0,0.2-0.1,0.3-0.3,0.3c-0.2,0-0.3,0.1-0.3,0.3c0,0.2-0.1,0.3-0.3,0.3s-0.3,0.1-0.3,0.3
	c0,0.2-0.1,0.3-0.3,0.3s-0.3,0.1-0.3,0.3c0,0.2-0.1,0.3-0.3,0.3s-0.3,0.1-0.3,0.3c0,0.2-0.1,0.3-0.3,0.3s-0.3,0.1-0.3,0.3
	c0,0.2-0.1,0.3-0.3,0.3c-0.2,0-0.3,0.1-0.3,0.6c0,0.5,0,0.6,0.3,0.6c0.2,0,0.3,0.1,0.3,0.3c0,0.2,0.1,0.3,0.3,0.3s0.3,0.1,0.3,0.3
	c0,0.2,0.1,0.3,0.3,0.3s0.3,0.1,0.3,0.3c0,0.2,0.1,0.3,0.3,0.3s0.3,0.1,0.3,0.3c0,0.2,0.1,0.3,0.3,0.3s0.3,0.1,0.3,0.3
	c0,0.2,0.1,0.3,0.3,0.3c0.2,0,0.3,0.1,0.3,0.3c0,0.2,0.1,0.3,0.6,0.3s0.6,0,0.6,0.3c0,0.2,0.1,0.3,0.3,0.3c0.2,0,0.3,0.1,0.3,0.3
	s0.1,0.3,0.3,0.3s0.3,0.1,0.3,0.3c0,0.2,0.1,0.3,0.3,0.3s0.3,0.1,0.3,0.3c0,0.2,0.1,0.3,0.3,0.3s0.3,0.1,0.3,0.3
	c0,0.2,0.1,0.3,0.3,0.3s0.3,0.1,0.3,0.3c0,0.2,0.1,0.3,0.3,0.3c0.2,0,0.3,0.1,0.3,0.3c0,0.2,0.1,0.3,0.3,0.3s0.3,0.1,0.3,0.3
	s0.1,0.3,0.3,0.3s0.3,0.1,0.3,0.3c0,0.2,0.1,0.3,0.3,0.3s0.3,0.1,0.3,0.3c0,0.2,0.1,0.3,0.3,0.3s0.3,0.1,0.3,0.3s0.1,0.3,0.3,0.3
	s0.3,0.1,0.3,0.3s0.1,0.3,0.3,0.3s0.3,0.1,0.3,0.3c0,0.3,0.1,0.3,0.9,0.3s0.9,0,0.9,0.3c0,0.2,0.1,0.3,0.3,0.3s0.3,0.1,0.3,0.3
	c0,0.2,0.1,0.3,0.3,0.3s0.3,0.1,0.3,0.3c0,0.2-0.1,0.3-0.3,0.3s-0.3,0.1-0.3,0.3c0,0.2-0.1,0.3-0.3,0.3s-0.3,0.1-0.3,0.3
	c0,0.3-0.1,0.3-5.1,0.3c-5,0-5.1,0-5.1-0.3c0-0.2-0.1-0.3-0.3-0.3s-0.3-0.1-0.3-0.3c0-0.2-0.1-0.3-0.3-0.3s-0.3-0.1-0.3-0.3
	c0-0.2,0.1-0.3,0.3-0.3s0.3-0.1,0.3-0.3c0-0.2,0.1-0.3,0.3-0.3s0.3-0.1,0.3-0.3c0-0.3,0.1-0.3,2.6-0.3c2.5,0,2.6,0,2.6-0.3
	c0-0.2-0.1-0.3-0.6-0.3c-0.5,0-0.6,0-0.6-0.3c0-0.2-0.1-0.3-0.3-0.3s-0.3-0.1-0.3-0.3s-0.1-0.3-0.3-0.3s-0.3-0.1-0.3-0.3
	c0-0.2-0.1-0.3-0.3-0.3s-0.3-0.1-0.3-0.3c0-0.2-0.1-0.3-0.3-0.3s-0.3-0.1-0.3-0.3s-0.1-0.3-0.3-0.3c-0.2,0-0.3-0.1-0.3-0.3
	c0-0.2-0.1-0.3-0.3-0.3s-0.3-0.1-0.3-0.3c0-0.2-0.1-0.3-0.3-0.3c-0.2,0-0.3-0.1-0.3-0.3c0-0.2-0.1-0.3-0.3-0.3s-0.3-0.1-0.3-0.3
	c0-0.2-0.1-0.3-0.3-0.3s-0.3-0.1-0.3-0.3c0-0.2-0.1-0.3-0.3-0.3s-0.3-0.1-0.3-0.3s-0.1-0.3-0.3-0.3s-0.3-0.1-0.3-0.3
	c0-0.2-0.1-0.3-0.3-0.3c-0.2,0-0.3-0.1-0.3-0.3c0-0.2-0.1-0.3-0.3-0.3s-0.3-0.1-0.3-0.3c0-0.2-0.1-0.3-0.3-0.3
	c-0.2,0-0.3-0.1-0.3-0.3c0-0.2-0.1-0.3-0.3-0.3s-0.3-0.1-0.3-0.3c0-0.2-0.1-0.3-0.6-0.3s-0.6,0-0.6,0.3c0,0.2-0.1,0.3-0.3,0.3
	s-0.3,0.1-0.3,0.3c0,0.2-0.1,0.3-0.3,0.3s-0.3,0.1-0.3,0.3c0,0.2-0.1,0.3-0.3,0.3c-0.2,0-0.3,0.1-0.3,0.3c0,0.2-0.1,0.3-0.3,0.3
	s-0.3,0.1-0.3,0.3c0,0.2-0.1,0.3-0.3,0.3c-0.2,0-0.3,0.1-0.3,0.3s-0.1,0.3-0.3,0.3s-0.3,0.1-0.3,0.3c0,0.2-0.1,0.3-0.3,0.3
	s-0.3,0.1-0.3,0.3c0,0.2-0.1,0.3-0.3,0.3s-0.3,0.1-0.3,0.3c0,0.2-0.1,0.3-0.3,0.3s-0.3,0.1-0.3,0.3c0,0.2-0.1,0.3-0.3,0.3
	c-0.2,0-0.3,0.1-0.3,0.3c0,0.2-0.1,0.3-0.3,0.3s-0.3,0.1-0.3,0.3s-0.1,0.3-0.3,0.3c-0.2,0-0.3,0.1-0.3,0.3c0,0.2-0.1,0.3-0.3,0.3
	s-0.3,0.1-0.3,0.3c0,0.2-0.1,0.3-0.3,0.3s-0.3,0.1-0.3,0.3S165.1,66,165,66s-0.3,0.1-0.3,0.3s-0.1,0.3-0.3,0.3s-0.3,0.1-0.3,0.3
	c0,0.3,0.1,0.3,2.6,0.3c2.5,0,2.6,0,2.6,0.3c0,0.2,0.1,0.3,0.3,0.3c0.3,0,0.3,0.1,0.3,0.9c0,0.8,0,0.9-0.3,0.9
	c-0.2,0-0.3,0.1-0.3,0.3c0,0.3-0.1,0.3-5.7,0.3c-5.6,0-5.7,0-5.7-0.3c0-0.2-0.1-0.3-0.3-0.3c-0.3,0-0.3-0.1-0.3-0.9
	c0-0.8,0-0.9,0.3-0.9c0.2,0,0.3-0.1,0.3-0.3c0-0.3,0.1-0.3,1.1-0.3h1.1v-0.6c0-0.5,0-0.6-0.3-0.6c-0.2,0-0.3-0.1-0.3-0.3
	s-0.1-0.3-0.3-0.3s-0.3-0.1-0.3-0.3s-0.1-0.3-0.3-0.3s-0.3-0.1-0.3-0.3c0-0.2-0.1-0.3-0.3-0.3s-0.3-0.1-0.3-0.3
	c0-0.2-0.1-0.3-0.3-0.3c-0.2,0-0.3-0.1-0.3-0.3c0-0.2-0.1-0.3-0.3-0.3s-0.3-0.1-0.3-0.3c0-0.2-0.1-0.3-0.3-0.3
	c-0.2,0-0.3-0.1-0.3-0.3c0-0.2-0.1-0.3-0.3-0.3s-0.3-0.1-0.3-0.3c0-0.2-0.1-0.3-0.3-0.3s-0.3-0.1-0.3-0.3c0-0.2-0.1-0.3-0.3-0.3
	s-0.3-0.1-0.3-0.3c0-0.2-0.1-0.3-0.3-0.3S154,60.2,154,60s-0.1-0.3-0.3-0.3c-0.2,0-0.3-0.1-0.3-0.3c0-0.2-0.1-0.3-0.3-0.3
	s-0.3-0.1-0.3-0.3c0-0.2-0.1-0.3-0.3-0.3c-0.2,0-0.3-0.1-0.3-0.3c0-0.2-0.1-0.3-0.3-0.3s-0.3-0.1-0.3-0.3c0-0.2-0.1-0.3-0.3-0.3
	s-0.3-0.1-0.3-0.3c0-0.2-0.1-0.3-0.3-0.3s-0.3-0.1-0.3-0.3c0-0.2-0.1-0.3-0.3-0.3s-0.3-0.1-0.3-0.3c0-0.2-0.1-0.3-0.6-0.3
	c-0.5,0-0.6,0-0.6,0.3c0,0.2-0.1,0.3-0.3,0.3s-0.3,0.1-0.3,0.3c0,0.2-0.1,0.3-0.3,0.3c-0.2,0-0.3,0.1-0.3,0.3c0,0.2-0.1,0.3-0.3,0.3
	s-0.3,0.1-0.3,0.3c0,0.2-0.1,0.3-0.3,0.3c-0.3,0-0.3,0.1-0.3,6v6h-3.7c-3.6,0-3.7,0-3.7-0.3c0-0.2-0.1-0.3-0.3-0.3
	c-0.3,0-0.3-0.1-0.3-0.9s0-0.9,0.3-0.9c0.2,0,0.3-0.1,0.3-0.3c0-0.3,0.1-0.3,2.3-0.3h2.3v-34h-2.3c-2.2,0-2.3,0-2.3-0.3
	c0-0.2-0.1-0.3-0.3-0.3c-0.3,0-0.3-0.1-0.3-0.9C138.4,31.1,138.5,31,138.7,31z M162.1,46.4c-0.2,0-0.3-0.1-0.3-0.3s-0.1-0.3-0.3-0.3
	s-0.3,0.1-0.3,0.3s-0.1,0.3-0.3,0.3s-0.3,0.1-0.3,0.3s-0.1,0.3-0.3,0.3s-0.3,0.1-0.3,0.3c0,0.2-0.1,0.3-0.6,0.3s-0.6,0-0.6,0.3
	c0,0.2-0.1,0.3-0.3,0.3c-0.2,0-0.3,0.1-0.3,0.3c0,0.2-0.1,0.3-0.3,0.3s-0.3,0.1-0.3,0.3s-0.1,0.3-0.3,0.3c-0.2,0-0.3,0.1-0.3,0.3
	c0,0.2-0.1,0.3-0.6,0.3s-0.6,0-0.6,0.3c0,0.2-0.1,0.3-0.3,0.3s-0.3,0.1-0.3,0.3c0,0.2-0.1,0.3-0.3,0.3s-0.3,0.1-0.3,0.3
	c0,0.2-0.1,0.3-0.3,0.3s-0.3,0.1-0.3,0.3c0,0.2-0.1,0.3-0.3,0.3c-0.2,0-0.3,0.1-0.3,0.3c0,0.2-0.1,0.3-0.3,0.3s-0.3,0.1-0.3,0.3
	c0,0.2-0.1,0.3-0.6,0.3c-0.5,0-0.6,0-0.6,0.3c0,0.2-0.1,0.3-0.3,0.3s-0.3,0.1-0.3,0.3c0,0.2,0.1,0.3,0.3,0.3s0.3,0.1,0.3,0.3
	s0.1,0.3,0.3,0.3c0.2,0,0.3,0.1,0.3,0.3c0,0.2,0.1,0.3,0.3,0.3c0.2,0,0.3,0.1,0.3,0.6c0,0.5,0,0.6,0.3,0.6c0.2,0,0.3,0.1,0.3,0.3
	c0,0.2,0.1,0.3,0.6,0.3h0.6v0.6c0,0.5,0,0.6,0.3,0.6c0.2,0,0.3,0.1,0.3,0.3c0,0.2,0.1,0.3,0.3,0.3s0.3,0.1,0.3,0.3
	c0,0.2,0.1,0.3,0.3,0.3s0.3,0.1,0.3,0.3c0,0.2,0.1,0.3,0.3,0.3c0.2,0,0.3,0.1,0.3,0.3c0,0.2,0.1,0.3,0.3,0.3s0.3,0.1,0.3,0.3
	c0,0.2,0.1,0.3,0.3,0.3c0.2,0,0.3,0.1,0.3,0.3c0,0.2,0.1,0.3,0.3,0.3s0.3,0.1,0.3,0.3c0,0.2,0.1,0.3,0.3,0.3s0.3,0.1,0.3,0.3
	c0,0.2,0.1,0.3,0.3,0.3s0.3,0.1,0.3,0.3c0,0.2,0.1,0.3,0.3,0.3s0.3,0.1,0.3,0.3c0,0.2,0.1,0.3,0.3,0.3c0.2,0,0.3,0.1,0.3,0.3
	c0,0.2,0.1,0.3,0.3,0.3s0.3,0.1,0.3,0.3s0.1,0.3,0.3,0.3c0.2,0,0.3-0.1,0.3-0.3s0.1-0.3,0.3-0.3s0.3-0.1,0.3-0.3
	c0-0.2,0.1-0.3,0.3-0.3s0.3-0.1,0.3-0.3c0-0.2,0.1-0.3,0.6-0.3s0.6,0,0.6-0.3c0-0.2,0.1-0.3,0.3-0.3s0.3-0.1,0.3-0.3
	c0-0.2,0.1-0.3,0.3-0.3c0.2,0,0.3-0.1,0.3-0.3c0-0.2,0.1-0.3,0.3-0.3s0.3-0.1,0.3-0.3c0-0.2,0.1-0.3,0.3-0.3c0.2,0,0.3-0.1,0.3-0.3
	c0-0.2,0.1-0.3,0.3-0.3s0.3-0.1,0.3-0.3c0-0.2,0.1-0.3,0.3-0.3s0.3-0.1,0.3-0.3c0-0.2,0.1-0.3,0.3-0.3s0.3-0.1,0.3-0.3
	c0-0.2,0.1-0.3,0.3-0.3s0.3-0.1,0.3-0.3c0-0.2,0.1-0.3,0.3-0.3c0.2,0,0.3-0.1,0.3-0.3c0-0.2,0.1-0.3,0.3-0.3s0.3-0.1,0.3-0.3
	c0-0.2,0.1-0.3,0.3-0.3c0.2,0,0.3-0.1,0.3-0.3c0-0.2,0.1-0.3,0.3-0.3s0.3-0.1,0.3-0.3c0-0.2,0.1-0.3,0.3-0.3s0.3-0.1,0.3-0.3
	s-0.1-0.3-0.3-0.3s-0.3-0.1-0.3-0.3c0-0.2-0.1-0.3-0.3-0.3s-0.3-0.1-0.3-0.3c0-0.2-0.1-0.3-0.3-0.3c-0.2,0-0.3-0.1-0.3-0.3
	c0-0.2-0.1-0.3-0.3-0.3s-0.3-0.1-0.3-0.3c0-0.2-0.1-0.3-0.3-0.3c-0.2,0-0.3-0.1-0.3-0.3c0-0.2-0.1-0.3-0.6-0.3s-0.6,0-0.6-0.3
	c0-0.2-0.1-0.3-0.3-0.3s-0.3-0.1-0.3-0.3c0-0.2-0.1-0.3-0.3-0.3s-0.3-0.1-0.3-0.3c0-0.2-0.1-0.3-0.3-0.3s-0.3-0.1-0.3-0.3
	c0-0.2-0.1-0.3-0.3-0.3c-0.2,0-0.3-0.1-0.3-0.3c0-0.2-0.1-0.3-0.3-0.3s-0.3-0.1-0.3-0.3c0-0.2-0.1-0.3-0.3-0.3
	c-0.2,0-0.3-0.1-0.3-0.3s-0.1-0.3-0.3-0.3s-0.3-0.1-0.3-0.3s-0.1-0.3-0.3-0.3s-0.3-0.1-0.3-0.3s-0.1-0.3-0.3-0.3s-0.3-0.1-0.3-0.3
	s-0.1-0.3-0.3-0.3s-0.3-0.1-0.3-0.3C162.4,46.5,162.3,46.4,162.1,46.4z"/>
</svg>
