<?xml version="1.0" encoding="utf-8"?>
<!-- Generator: Adobe Illustrator 26.3.1, SVG Export Plug-In . SVG Version: 6.00 Build 0)  -->
<svg version="1.1" id="katman_1" xmlns="http://www.w3.org/2000/svg" xmlns:xlink="http://www.w3.org/1999/xlink" x="0px" y="0px"
	 viewBox="0 0 471 267" style="enable-background:new 0 0 471 267;" xml:space="preserve">
<style type="text/css">
	.st0{fill-rule:evenodd;clip-rule:evenodd;}
</style>
<path d="M84.1,36.5c3.8,0,4.3-0.1,4.3-1.4c0-1.4,0.5-1.4,7.1-1.4c6.6,0,7.1,0.1,7.1,1.4c0,0.9-0.5,1.4-1.4,1.4
	c-0.9,0-1.4,0.5-1.4,1.4c0,0.9,0.5,1.4,1.4,1.4c1.4,0,1.4,0.5,1.4,87.1c0,86.6,0,87.1-1.4,87.1c-0.9,0-1.4,0.5-1.4,1.4
	c0,0.9,0.5,1.4,1.4,1.4c0.9,0,1.4,0.5,1.4,1.4c0,1.4,0.5,1.4,24.3,1.4c23.8,0,24.3,0,24.3,1.4c0,0.9,0.5,1.4,1.4,1.4
	c0.9,0,1.4,0.5,1.4,1.4s0.5,1.4,1.4,1.4c0.9,0,1.4,0.5,1.4,1.4c0,0.9-0.5,1.4-1.4,1.4c-1.2,0-1.4,0.5-1.4,2.9v2.9H95.5
	c-58.1,0-58.6,0-58.6-1.4c0-0.9-0.5-1.4-1.4-1.4c-1.3,0-1.4-0.5-1.4-4.3c0-3.8,0.1-4.3,1.4-4.3c0.9,0,1.4-0.5,1.4-1.4
	c0-1.4,0.5-1.4,25.7-1.4h25.7V50.8h-4.3c-3.8,0-4.3,0.1-4.3,1.4c0,1.3-0.5,1.4-4.3,1.4c-3.8,0-4.3,0.1-4.3,1.4
	c0,1.3-0.5,1.4-4.3,1.4c-3.8,0-4.3,0.1-4.3,1.4c0,1.3-0.5,1.4-4.3,1.4s-4.3,0.1-4.3,1.4c0,1.3-0.5,1.4-4.3,1.4
	c-3.8,0-4.3,0.1-4.3,1.4s-0.5,1.4-4.3,1.4c-3.8,0-4.3-0.1-4.3-1.4c0-0.9-0.5-1.4-1.4-1.4c-1.3,0-1.4-0.5-1.4-4.3
	c0-3.8,0.1-4.3,1.4-4.3c0.9,0,1.4-0.5,1.4-1.4c0-1.3,0.5-1.4,4.3-1.4c3.8,0,4.3-0.1,4.3-1.4c0-1.3,0.5-1.4,4.3-1.4
	c3.8,0,4.3-0.1,4.3-1.4c0-1.3,0.5-1.4,4.3-1.4s4.3-0.1,4.3-1.4c0-1.3,0.5-1.4,4.3-1.4c3.8,0,4.3-0.1,4.3-1.4c0-1.3,0.5-1.4,4.3-1.4
	c3.8,0,4.3-0.1,4.3-1.4C79.8,36.7,80.3,36.5,84.1,36.5z"/>
<path class="st0" d="M178.4,36.5c0.9,0,1.4-0.5,1.4-1.4c0-1.4,0.5-1.4,18.6-1.4h18.6v61.4c0,60.9,0,61.4,1.4,61.4
	c0.9,0,1.4-0.5,1.4-1.4c0-0.9,0.5-1.4,1.4-1.4c0.9,0,1.4-0.5,1.4-1.4c0-0.9,0.5-1.4,1.4-1.4c0.9,0,1.4-0.5,1.4-1.4
	c0-0.9,0.5-1.4,1.4-1.4c0.9,0,1.4-0.5,1.4-1.4c0-1.2,0.5-1.4,2.9-1.4s2.9-0.2,2.9-1.4c0-0.9,0.5-1.4,1.4-1.4c0.9,0,1.4-0.5,1.4-1.4
	c0-0.9,0.5-1.4,1.4-1.4s1.4-0.5,1.4-1.4c0-0.9,0.5-1.4,1.4-1.4c0.9,0,1.4-0.5,1.4-1.4c0-0.9,0.5-1.4,1.4-1.4c0.9,0,1.4-0.5,1.4-1.4
	c0-1.2,0.5-1.4,2.9-1.4c2.4,0,2.9-0.2,2.9-1.4c0-0.9,0.5-1.4,1.4-1.4c0.9,0,1.4-0.5,1.4-1.4c0-0.9,0.5-1.4,1.4-1.4
	c0.9,0,1.4-0.5,1.4-1.4s0.5-1.4,1.4-1.4c0.9,0,1.4-0.5,1.4-1.4c0-0.9,0.5-1.4,1.4-1.4c0.9,0,1.4-0.5,1.4-1.4c0-0.9,0.5-1.4,1.4-1.4
	c0.9,0,1.4-0.5,1.4-1.4c0-1.2,0.5-1.4,2.9-1.4h2.9V108h-5.7c-5.2,0-5.7-0.1-5.7-1.4c0-0.9-0.5-1.4-1.4-1.4c-1.2,0-1.4-0.5-1.4-2.9
	c0-2.4,0.2-2.9,1.4-2.9c0.9,0,1.4-0.5,1.4-1.4c0-1.4,0.5-1.4,35.7-1.4s35.7,0,35.7,1.4c0,0.9,0.5,1.4,1.4,1.4c1.3,0,1.4,0.5,1.4,4.3
	v4.3h-4.3c-3.8,0-4.3,0.1-4.3,1.4c0,1.3-0.5,1.4-4.3,1.4s-4.3-0.1-4.3-1.4c0-1.2-0.5-1.4-2.9-1.4h-2.9v5.7h2.9
	c2.4,0,2.9,0.2,2.9,1.4c0,0.9,0.5,1.4,1.4,1.4c0.9,0,1.4,0.5,1.4,1.4c0,0.9,0.5,1.4,1.4,1.4c0.9,0,1.4,0.5,1.4,1.4
	c0,0.9,0.5,1.4,1.4,1.4c0.9,0,1.4,0.5,1.4,1.4s0.5,1.4,1.4,1.4c0.9,0,1.4,0.5,1.4,1.4c0,0.9,0.5,1.4,1.4,1.4c0.9,0,1.4,0.5,1.4,1.4
	c0,0.9,0.5,1.4,1.4,1.4c0.9,0,1.4,0.5,1.4,1.4c0,0.9,0.5,1.4,1.4,1.4c0.9,0,1.4,0.5,1.4,1.4c0,0.9,0.5,1.4,1.4,1.4
	c0.9,0,1.4,0.5,1.4,1.4c0,0.9,0.5,1.4,1.4,1.4c0.9,0,1.4,0.5,1.4,1.4c0,0.9,0.5,1.4,1.4,1.4c0.9,0,1.4,0.5,1.4,1.4s0.5,1.4,1.4,1.4
	c0.9,0,1.4,0.5,1.4,1.4c0,0.9,0.5,1.4,1.4,1.4c0.9,0,1.4,0.5,1.4,1.4c0,1.2,0.5,1.4,2.9,1.4s2.9-0.2,2.9-1.4c0-0.9,0.5-1.4,1.4-1.4
	c0.9,0,1.4-0.5,1.4-1.4c0-0.9,0.5-1.4,1.4-1.4c0.9,0,1.4-0.5,1.4-1.4c0-1.2,0.5-1.4,2.9-1.4s2.9-0.2,2.9-1.4c0-0.9,0.5-1.4,1.4-1.4
	c0.9,0,1.4-0.5,1.4-1.4c0-0.9,0.5-1.4,1.4-1.4c0.9,0,1.4-0.5,1.4-1.4c0-0.9,0.5-1.4,1.4-1.4c0.9,0,1.4-0.5,1.4-1.4
	c0-0.9,0.5-1.4,1.4-1.4c0.9,0,1.4-0.5,1.4-1.4c0-0.9,0.5-1.4,1.4-1.4c0.9,0,1.4-0.5,1.4-1.4c0-0.9,0.5-1.4,1.4-1.4
	c0.9,0,1.4-0.5,1.4-1.4s0.5-1.4,1.4-1.4c0.9,0,1.4-0.5,1.4-1.4c0-0.9,0.5-1.4,1.4-1.4c0.9,0,1.4-0.5,1.4-1.4c0-0.9,0.5-1.4,1.4-1.4
	c0.9,0,1.4-0.5,1.4-1.4c0-0.9,0.5-1.4,1.4-1.4c1.2,0,1.4-0.5,1.4-2.9c0-2.4-0.2-2.9-1.4-2.9c-0.9,0-1.4,0.5-1.4,1.4
	c0,1.3-0.5,1.4-4.3,1.4c-3.8,0-4.3-0.1-4.3-1.4c0-1.3-0.5-1.4-4.3-1.4s-4.3-0.1-4.3-1.4c0-0.9-0.5-1.4-1.4-1.4
	c-1.2,0-1.4-0.5-1.4-2.9c0-2.4,0.2-2.9,1.4-2.9c0.9,0,1.4-0.5,1.4-1.4c0-1.4,0.5-1.4,24.3-1.4s24.3,0,24.3,1.4
	c0,0.9,0.5,1.4,1.4,1.4c1.3,0,1.4,0.5,1.4,4.3v4.3h-2.9c-2.4,0-2.9,0.2-2.9,1.4c0,1.3-0.5,1.4-4.3,1.4s-4.3,0.1-4.3,1.4
	c0,0.9-0.5,1.4-1.4,1.4c-0.9,0-1.4,0.5-1.4,1.4c0,0.9-0.5,1.4-1.4,1.4c-0.9,0-1.4,0.5-1.4,1.4c0,0.9-0.5,1.4-1.4,1.4
	c-0.9,0-1.4,0.5-1.4,1.4c0,0.9-0.5,1.4-1.4,1.4c-0.9,0-1.4,0.5-1.4,1.4s-0.5,1.4-1.4,1.4c-0.9,0-1.4,0.5-1.4,1.4
	c0,0.9-0.5,1.4-1.4,1.4c-0.9,0-1.4,0.5-1.4,1.4c0,0.9-0.5,1.4-1.4,1.4c-0.9,0-1.4,0.5-1.4,1.4c0,0.9-0.5,1.4-1.4,1.4
	c-0.9,0-1.4,0.5-1.4,1.4c0,0.9-0.5,1.4-1.4,1.4c-0.9,0-1.4,0.5-1.4,1.4c0,0.9-0.5,1.4-1.4,1.4c-0.9,0-1.4,0.5-1.4,1.4
	c0,0.9-0.5,1.4-1.4,1.4c-0.9,0-1.4,0.5-1.4,1.4s-0.5,1.4-1.4,1.4c-0.9,0-1.4,0.5-1.4,1.4c0,0.9-0.5,1.4-1.4,1.4
	c-0.9,0-1.4,0.5-1.4,1.4c0,0.9-0.5,1.4-1.4,1.4c-0.9,0-1.4,0.5-1.4,1.4c0,0.9-0.5,1.4-1.4,1.4c-0.9,0-1.4,0.5-1.4,1.4
	c0,0.9-0.5,1.4-1.4,1.4c-0.9,0-1.4,0.5-1.4,1.4c0,0.9-0.5,1.4-1.4,1.4c-1.2,0-1.4,0.5-1.4,2.9c0,2.4,0.2,2.9,1.4,2.9
	c0.9,0,1.4,0.5,1.4,1.4c0,0.9,0.5,1.4,1.4,1.4c0.9,0,1.4,0.5,1.4,1.4c0,0.9,0.5,1.4,1.4,1.4c0.9,0,1.4,0.5,1.4,1.4
	c0,0.9,0.5,1.4,1.4,1.4c0.9,0,1.4,0.5,1.4,1.4c0,0.9,0.5,1.4,1.4,1.4c0.9,0,1.4,0.5,1.4,1.4c0,0.9,0.5,1.4,1.4,1.4
	c0.9,0,1.4,0.5,1.4,1.4c0,1.2,0.5,1.4,2.9,1.4s2.9,0.2,2.9,1.4c0,0.9,0.5,1.4,1.4,1.4c0.9,0,1.4,0.5,1.4,1.4c0,0.9,0.5,1.4,1.4,1.4
	c0.9,0,1.4,0.5,1.4,1.4c0,0.9,0.5,1.4,1.4,1.4c0.9,0,1.4,0.5,1.4,1.4c0,0.9,0.5,1.4,1.4,1.4c0.9,0,1.4,0.5,1.4,1.4
	c0,0.9,0.5,1.4,1.4,1.4c0.9,0,1.4,0.5,1.4,1.4c0,0.9,0.5,1.4,1.4,1.4c0.9,0,1.4,0.5,1.4,1.4c0,0.9,0.5,1.4,1.4,1.4
	c0.9,0,1.4,0.5,1.4,1.4s0.5,1.4,1.4,1.4c0.9,0,1.4,0.5,1.4,1.4c0,0.9,0.5,1.4,1.4,1.4c0.9,0,1.4,0.5,1.4,1.4c0,0.9,0.5,1.4,1.4,1.4
	c0.9,0,1.4,0.5,1.4,1.4c0,0.9,0.5,1.4,1.4,1.4c0.9,0,1.4,0.5,1.4,1.4c0,0.9,0.5,1.4,1.4,1.4c0.9,0,1.4,0.5,1.4,1.4
	c0,1.3,0.5,1.4,4.3,1.4c3.8,0,4.3,0.1,4.3,1.4c0,0.9,0.5,1.4,1.4,1.4c0.9,0,1.4,0.5,1.4,1.4s0.5,1.4,1.4,1.4c0.9,0,1.4,0.5,1.4,1.4
	c0,0.9-0.5,1.4-1.4,1.4c-0.9,0-1.4,0.5-1.4,1.4c0,0.9-0.5,1.4-1.4,1.4c-0.9,0-1.4,0.5-1.4,1.4c0,1.4-0.5,1.4-25.7,1.4
	c-25.2,0-25.7,0-25.7-1.4c0-0.9-0.5-1.4-1.4-1.4c-0.9,0-1.4-0.5-1.4-1.4c0-0.9-0.5-1.4-1.4-1.4c-0.9,0-1.4-0.5-1.4-1.4
	c0-0.9,0.5-1.4,1.4-1.4c0.9,0,1.4-0.5,1.4-1.4s0.5-1.4,1.4-1.4c0.9,0,1.4-0.5,1.4-1.4c0-1.4,0.5-1.4,12.9-1.4
	c12.4,0,12.9-0.1,12.9-1.4c0-1.2-0.5-1.4-2.9-1.4c-2.4,0-2.9-0.2-2.9-1.4c0-0.9-0.5-1.4-1.4-1.4c-0.9,0-1.4-0.5-1.4-1.4
	c0-0.9-0.5-1.4-1.4-1.4c-0.9,0-1.4-0.5-1.4-1.4c0-0.9-0.5-1.4-1.4-1.4c-0.9,0-1.4-0.5-1.4-1.4c0-0.9-0.5-1.4-1.4-1.4
	c-0.9,0-1.4-0.5-1.4-1.4s-0.5-1.4-1.4-1.4c-0.9,0-1.4-0.5-1.4-1.4c0-0.9-0.5-1.4-1.4-1.4c-0.9,0-1.4-0.5-1.4-1.4
	c0-0.9-0.5-1.4-1.4-1.4c-0.9,0-1.4-0.5-1.4-1.4c0-0.9-0.5-1.4-1.4-1.4c-0.9,0-1.4-0.5-1.4-1.4c0-0.9-0.5-1.4-1.4-1.4
	c-0.9,0-1.4-0.5-1.4-1.4c0-0.9-0.5-1.4-1.4-1.4c-0.9,0-1.4-0.5-1.4-1.4c0-0.9-0.5-1.4-1.4-1.4c-0.9,0-1.4-0.5-1.4-1.4
	s-0.5-1.4-1.4-1.4c-0.9,0-1.4-0.5-1.4-1.4c0-0.9-0.5-1.4-1.4-1.4c-0.9,0-1.4-0.5-1.4-1.4c0-0.9-0.5-1.4-1.4-1.4
	c-0.9,0-1.4-0.5-1.4-1.4c0-0.9-0.5-1.4-1.4-1.4c-0.9,0-1.4-0.5-1.4-1.4c0-1.2-0.5-1.4-2.9-1.4s-2.9,0.2-2.9,1.4
	c0,0.9-0.5,1.4-1.4,1.4c-0.9,0-1.4,0.5-1.4,1.4c0,0.9-0.5,1.4-1.4,1.4c-0.9,0-1.4,0.5-1.4,1.4c0,0.9-0.5,1.4-1.4,1.4
	c-0.9,0-1.4,0.5-1.4,1.4c0,0.9-0.5,1.4-1.4,1.4c-0.9,0-1.4,0.5-1.4,1.4s-0.5,1.4-1.4,1.4c-0.9,0-1.4,0.5-1.4,1.4
	c0,0.9-0.5,1.4-1.4,1.4c-0.9,0-1.4,0.5-1.4,1.4c0,0.9-0.5,1.4-1.4,1.4c-0.9,0-1.4,0.5-1.4,1.4c0,0.9-0.5,1.4-1.4,1.4
	c-0.9,0-1.4,0.5-1.4,1.4c0,0.9-0.5,1.4-1.4,1.4c-0.9,0-1.4,0.5-1.4,1.4c0,0.9-0.5,1.4-1.4,1.4c-0.9,0-1.4,0.5-1.4,1.4
	c0,0.9-0.5,1.4-1.4,1.4c-0.9,0-1.4,0.5-1.4,1.4s-0.5,1.4-1.4,1.4c-0.9,0-1.4,0.5-1.4,1.4c0,0.9-0.5,1.4-1.4,1.4
	c-0.9,0-1.4,0.5-1.4,1.4c0,0.9-0.5,1.4-1.4,1.4c-0.9,0-1.4,0.5-1.4,1.4c0,0.9-0.5,1.4-1.4,1.4c-0.9,0-1.4,0.5-1.4,1.4
	c0,0.9-0.5,1.4-1.4,1.4c-0.9,0-1.4,0.5-1.4,1.4c0,1.4,0.5,1.4,12.9,1.4s12.9,0.1,12.9,1.4c0,0.9,0.5,1.4,1.4,1.4
	c1.3,0,1.4,0.5,1.4,4.3c0,3.8-0.1,4.3-1.4,4.3c-0.9,0-1.4,0.5-1.4,1.4c0,1.4-0.5,1.4-28.6,1.4c-28.1,0-28.6,0-28.6-1.4
	c0-0.9-0.5-1.4-1.4-1.4c-1.3,0-1.4-0.5-1.4-4.3c0-3.8,0.1-4.3,1.4-4.3c0.9,0,1.4-0.5,1.4-1.4c0-1.3,0.5-1.4,5.7-1.4h5.7v-2.9
	c0-2.4-0.2-2.9-1.4-2.9c-0.9,0-1.4-0.5-1.4-1.4c0-0.9-0.5-1.4-1.4-1.4c-0.9,0-1.4-0.5-1.4-1.4c0-0.9-0.5-1.4-1.4-1.4
	c-0.9,0-1.4-0.5-1.4-1.4c0-0.9-0.5-1.4-1.4-1.4c-0.9,0-1.4-0.5-1.4-1.4s-0.5-1.4-1.4-1.4c-0.9,0-1.4-0.5-1.4-1.4
	c0-0.9-0.5-1.4-1.4-1.4c-0.9,0-1.4-0.5-1.4-1.4c0-0.9-0.5-1.4-1.4-1.4c-0.9,0-1.4-0.5-1.4-1.4c0-0.9-0.5-1.4-1.4-1.4
	c-0.9,0-1.4-0.5-1.4-1.4c0-0.9-0.5-1.4-1.4-1.4c-0.9,0-1.4-0.5-1.4-1.4c0-0.9-0.5-1.4-1.4-1.4c-0.9,0-1.4-0.5-1.4-1.4
	c0-0.9-0.5-1.4-1.4-1.4c-0.9,0-1.4-0.5-1.4-1.4s-0.5-1.4-1.4-1.4c-0.9,0-1.4-0.5-1.4-1.4c0-0.9-0.5-1.4-1.4-1.4
	c-0.9,0-1.4-0.5-1.4-1.4c0-0.9-0.5-1.4-1.4-1.4c-0.9,0-1.4-0.5-1.4-1.4c0-0.9-0.5-1.4-1.4-1.4c-0.9,0-1.4-0.5-1.4-1.4
	c0-0.9-0.5-1.4-1.4-1.4c-0.9,0-1.4-0.5-1.4-1.4c0-0.9-0.5-1.4-1.4-1.4s-1.4-0.5-1.4-1.4c0-0.9-0.5-1.4-1.4-1.4
	c-0.9,0-1.4-0.5-1.4-1.4c0-1.2-0.5-1.4-2.9-1.4s-2.9,0.2-2.9,1.4c0,0.9-0.5,1.4-1.4,1.4c-0.9,0-1.4,0.5-1.4,1.4
	c0,0.9-0.5,1.4-1.4,1.4c-0.9,0-1.4,0.5-1.4,1.4c0,0.9-0.5,1.4-1.4,1.4c-0.9,0-1.4,0.5-1.4,1.4c0,0.9-0.5,1.4-1.4,1.4
	c-1.4,0-1.4,0.5-1.4,30v30h-18.6c-18.1,0-18.6-0.1-18.6-1.4c0-0.9-0.5-1.4-1.4-1.4c-1.3,0-1.4-0.5-1.4-4.3c0-3.8,0.1-4.3,1.4-4.3
	c0.9,0,1.4-0.5,1.4-1.4c0-1.4,0.5-1.4,11.4-1.4h11.4V48h-11.4c-10.9,0-11.4-0.1-11.4-1.4c0-0.9-0.5-1.4-1.4-1.4
	c-1.3,0-1.4-0.5-1.4-4.3C176.9,37,177.1,36.5,178.4,36.5z M295.5,113.7c-0.9,0-1.4-0.5-1.4-1.4c0-0.9-0.5-1.4-1.4-1.4
	c-0.9,0-1.4,0.5-1.4,1.4c0,0.9-0.5,1.4-1.4,1.4c-0.9,0-1.4,0.5-1.4,1.4c0,0.9-0.5,1.4-1.4,1.4c-0.9,0-1.4,0.5-1.4,1.4
	c0,1.2-0.5,1.4-2.9,1.4c-2.4,0-2.9,0.2-2.9,1.4c0,0.9-0.5,1.4-1.4,1.4c-0.9,0-1.4,0.5-1.4,1.4s-0.5,1.4-1.4,1.4
	c-0.9,0-1.4,0.5-1.4,1.4c0,0.9-0.5,1.4-1.4,1.4c-0.9,0-1.4,0.5-1.4,1.4c0,1.2-0.5,1.4-2.9,1.4s-2.9,0.2-2.9,1.4
	c0,0.9-0.5,1.4-1.4,1.4c-0.9,0-1.4,0.5-1.4,1.4c0,0.9-0.5,1.4-1.4,1.4c-0.9,0-1.4,0.5-1.4,1.4c0,0.9-0.5,1.4-1.4,1.4
	c-0.9,0-1.4,0.5-1.4,1.4c0,0.9-0.5,1.4-1.4,1.4c-0.9,0-1.4,0.5-1.4,1.4s-0.5,1.4-1.4,1.4c-0.9,0-1.4,0.5-1.4,1.4
	c0,1.2-0.5,1.4-2.9,1.4c-2.4,0-2.9,0.2-2.9,1.4c0,0.9-0.5,1.4-1.4,1.4c-0.9,0-1.4,0.5-1.4,1.4c0,0.9,0.5,1.4,1.4,1.4
	c0.9,0,1.4,0.5,1.4,1.4c0,0.9,0.5,1.4,1.4,1.4c0.9,0,1.4,0.5,1.4,1.4c0,0.9,0.5,1.4,1.4,1.4c1.2,0,1.4,0.5,1.4,2.9
	c0,2.4,0.2,2.9,1.4,2.9c0.9,0,1.4,0.5,1.4,1.4c0,1.2,0.5,1.4,2.9,1.4h2.9v2.9c0,2.4,0.2,2.9,1.4,2.9c0.9,0,1.4,0.5,1.4,1.4
	c0,0.9,0.5,1.4,1.4,1.4c0.9,0,1.4,0.5,1.4,1.4c0,0.9,0.5,1.4,1.4,1.4c0.9,0,1.4,0.5,1.4,1.4c0,0.9,0.5,1.4,1.4,1.4
	c0.9,0,1.4,0.5,1.4,1.4s0.5,1.4,1.4,1.4c0.9,0,1.4,0.5,1.4,1.4c0,0.9,0.5,1.4,1.4,1.4c0.9,0,1.4,0.5,1.4,1.4c0,0.9,0.5,1.4,1.4,1.4
	c0.9,0,1.4,0.5,1.4,1.4c0,0.9,0.5,1.4,1.4,1.4c0.9,0,1.4,0.5,1.4,1.4c0,0.9,0.5,1.4,1.4,1.4c0.9,0,1.4,0.5,1.4,1.4
	c0,0.9,0.5,1.4,1.4,1.4c0.9,0,1.4,0.5,1.4,1.4c0,0.9,0.5,1.4,1.4,1.4c0.9,0,1.4,0.5,1.4,1.4s0.5,1.4,1.4,1.4c0.9,0,1.4,0.5,1.4,1.4
	c0,0.9,0.5,1.4,1.4,1.4c0.9,0,1.4-0.5,1.4-1.4c0-0.9,0.5-1.4,1.4-1.4c0.9,0,1.4-0.5,1.4-1.4s0.5-1.4,1.4-1.4c0.9,0,1.4-0.5,1.4-1.4
	c0-1.2,0.5-1.4,2.9-1.4s2.9-0.2,2.9-1.4c0-0.9,0.5-1.4,1.4-1.4c0.9,0,1.4-0.5,1.4-1.4c0-0.9,0.5-1.4,1.4-1.4c0.9,0,1.4-0.5,1.4-1.4
	c0-0.9,0.5-1.4,1.4-1.4c0.9,0,1.4-0.5,1.4-1.4c0-0.9,0.5-1.4,1.4-1.4c0.9,0,1.4-0.5,1.4-1.4c0-0.9,0.5-1.4,1.4-1.4
	c0.9,0,1.4-0.5,1.4-1.4s0.5-1.4,1.4-1.4c0.9,0,1.4-0.5,1.4-1.4c0-0.9,0.5-1.4,1.4-1.4c0.9,0,1.4-0.5,1.4-1.4c0-0.9,0.5-1.4,1.4-1.4
	c0.9,0,1.4-0.5,1.4-1.4c0-0.9,0.5-1.4,1.4-1.4c0.9,0,1.4-0.5,1.4-1.4c0-0.9,0.5-1.4,1.4-1.4c0.9,0,1.4-0.5,1.4-1.4
	c0-0.9,0.5-1.4,1.4-1.4c0.9,0,1.4-0.5,1.4-1.4c0-0.9,0.5-1.4,1.4-1.4c0.9,0,1.4-0.5,1.4-1.4s0.5-1.4,1.4-1.4c0.9,0,1.4-0.5,1.4-1.4
	c0-0.9-0.5-1.4-1.4-1.4c-0.9,0-1.4-0.5-1.4-1.4c0-0.9-0.5-1.4-1.4-1.4c-0.9,0-1.4-0.5-1.4-1.4c0-0.9-0.5-1.4-1.4-1.4
	c-0.9,0-1.4-0.5-1.4-1.4c0-0.9-0.5-1.4-1.4-1.4c-0.9,0-1.4-0.5-1.4-1.4c0-0.9-0.5-1.4-1.4-1.4c-0.9,0-1.4-0.5-1.4-1.4
	c0-1.2-0.5-1.4-2.9-1.4s-2.9-0.2-2.9-1.4c0-0.9-0.5-1.4-1.4-1.4c-0.9,0-1.4-0.5-1.4-1.4c0-0.9-0.5-1.4-1.4-1.4
	c-0.9,0-1.4-0.5-1.4-1.4c0-0.9-0.5-1.4-1.4-1.4c-0.9,0-1.4-0.5-1.4-1.4c0-0.9-0.5-1.4-1.4-1.4c-0.9,0-1.4-0.5-1.4-1.4
	c0-0.9-0.5-1.4-1.4-1.4c-0.9,0-1.4-0.5-1.4-1.4c0-0.9-0.5-1.4-1.4-1.4c-0.9,0-1.4-0.5-1.4-1.4c0-0.9-0.5-1.4-1.4-1.4
	c-0.9,0-1.4-0.5-1.4-1.4s-0.5-1.4-1.4-1.4c-0.9,0-1.4-0.5-1.4-1.4c0-0.9-0.5-1.4-1.4-1.4c-0.9,0-1.4-0.5-1.4-1.4
	c0-0.9-0.5-1.4-1.4-1.4c-0.9,0-1.4-0.5-1.4-1.4C296.9,114.2,296.4,113.7,295.5,113.7z"/>
</svg>
