<?xml version="1.0" encoding="utf-8"?>
<!-- Generator: Adobe Illustrator 26.3.1, SVG Export Plug-In . SVG Version: 6.00 Build 0)  -->
<svg version="1.1" id="katman_1" xmlns="http://www.w3.org/2000/svg" xmlns:xlink="http://www.w3.org/1999/xlink" x="0px" y="0px"
	 viewBox="0 0 300 100" style="enable-background:new 0 0 300 100;" xml:space="preserve">
<style type="text/css">
	.st0{fill:#40474F;}
</style>
<g>
	<path class="st0" d="M79.9,46c0.1-0.3,0.2-0.4,0.2-0.4s0.1,0,0.2,0.4c0.2,0.4,1.8,4.8,2.5,6.4c0.4,0.9,0.7,1.1,0.9,1.2
		c0.2,0,0.3,0.1,0.4,0.1c0.1,0,0.1,0,0.1,0.1c0,0.1-0.1,0.1-0.2,0.1c-0.2,0-0.9,0-1.7,0c-0.2,0-0.3,0-0.3-0.1c0,0,0-0.1,0.1-0.1
		c0.1,0,0.1-0.1,0.1-0.3l-1-2.6c0,0,0-0.1-0.1-0.1h-2.3c0,0-0.1,0-0.1,0.1l-0.6,1.9C78,52.9,78,53.2,78,53.4c0,0.2,0.2,0.3,0.4,0.3
		h0.1c0.1,0,0.1,0,0.1,0.1c0,0.1-0.1,0.1-0.2,0.1c-0.3,0-0.7,0-0.8,0c-0.1,0-0.7,0-1.2,0c-0.2,0-0.2,0-0.2-0.1c0,0,0-0.1,0.1-0.1
		c0.1,0,0.2,0,0.3,0c0.5-0.1,0.7-0.5,0.9-1L79.9,46z M81,50.3C81.1,50.3,81.1,50.3,81,50.3l-1-3c0-0.2-0.1-0.2-0.2,0L79,50.2
		c0,0,0,0.1,0,0.1H81z"/>
	<path class="st0" d="M86.7,52.4c0,0.9,0.1,1.2,0.4,1.2c0.2,0,0.4,0.1,0.5,0.1c0,0,0.1,0,0.1,0.1c0,0.1-0.1,0.1-0.2,0.1
		c-0.6,0-1,0-1.1,0c-0.1,0-0.5,0-1,0c-0.1,0-0.2,0-0.2-0.1c0,0,0-0.1,0.1-0.1c0.1,0,0.3,0,0.4-0.1c0.3-0.1,0.3-0.4,0.3-1.4l0-6.1
		c0-0.4,0-0.5,0.1-0.5c0.1,0,0.3,0.2,0.4,0.3c0.2,0.2,1.8,1.9,3.4,3.7c1.1,1.1,2.2,2.4,2.6,2.8L92.4,47c0-0.7-0.1-0.9-0.4-1
		c-0.2,0-0.5-0.1-0.5-0.1c-0.1,0-0.1,0-0.1-0.1c0-0.1,0.1-0.1,0.2-0.1c0.5,0,1,0,1.1,0c0.1,0,0.5,0,0.9,0c0.1,0,0.2,0,0.2,0.1
		c0,0,0,0.1-0.1,0.1c0,0-0.1,0-0.3,0C93,46,93,46.3,93,46.9l0,6.3c0,0.7,0,0.8-0.1,0.8c-0.1,0-0.2-0.1-0.8-0.7
		c-0.1-0.1-1.7-1.7-2.8-2.9c-1.2-1.3-2.4-2.7-2.8-3.1L86.7,52.4z"/>
	<path class="st0" d="M95.9,48.9c0-1.7,0-2,0-2.3c0-0.4-0.1-0.5-0.5-0.6c-0.1,0-0.3,0-0.4,0c0,0-0.1,0-0.1-0.1c0-0.1,0-0.1,0.2-0.1
		c0.5,0,1.2,0,1.2,0c0.1,0,0.8,0,1.4,0c1.1,0,3-0.1,4.3,1.2c0.5,0.6,1,1.4,1,2.7c0,1.3-0.6,2.4-1.2,3c-0.5,0.5-1.4,1.2-3.2,1.2
		c-0.5,0-1,0-1.5-0.1c-0.5,0-0.8-0.1-0.9-0.1c0,0-0.2,0-0.4,0c-0.2,0-0.5,0-0.6,0c-0.1,0-0.2,0-0.2-0.1c0,0,0-0.1,0.1-0.1
		c0.1,0,0.2,0,0.3,0c0.2,0,0.3-0.3,0.3-0.6c0-0.4,0-1.3,0-2.3C95.9,50.8,95.9,48.9,95.9,48.9z M96.8,50c0,1.1,0,2.1,0,2.3
		c0,0.3,0,0.7,0.1,0.8c0.1,0.2,0.6,0.4,1.8,0.4c1,0,1.9-0.4,2.5-1c0.6-0.5,0.9-1.6,0.9-2.5c0-1.4-0.6-2.2-1-2.7
		c-1-1.1-2.2-1.2-3.5-1.2c-0.2,0-0.6,0-0.7,0.1c-0.1,0-0.1,0.1-0.1,0.2c0,0.4,0,1.5,0,2.3L96.8,50L96.8,50z"/>
	<path class="st0" d="M105.1,48.9c0-1.7,0-2,0-2.3c0-0.4-0.1-0.5-0.5-0.6c-0.1,0-0.3,0-0.4,0c0,0-0.1,0-0.1-0.1c0-0.1,0-0.1,0.2-0.1
		c0.5,0,1.2,0,1.2,0c0.1,0,0.9,0,1.3,0c0.7,0,1.4,0.1,2,0.5c0.3,0.2,0.7,0.7,0.7,1.5c0,0.8-0.3,1.6-1.3,2.5c0.9,1.1,1.6,2.1,2.2,2.7
		c0.6,0.6,1,0.7,1.3,0.8c0.2,0,0.3,0,0.4,0c0,0,0.1,0,0.1,0.1c0,0.1-0.1,0.1-0.3,0.1h-0.8c-0.6,0-0.9,0-1.1-0.2
		c-0.5-0.3-0.8-0.8-1.4-1.6c-0.4-0.6-0.9-1.3-1.2-1.6c0,0-0.1-0.1-0.1-0.1l-1.3,0c0,0-0.1,0-0.1,0.1v0.3c0,1,0,1.9,0,2.3
		c0,0.3,0.1,0.5,0.4,0.6c0.1,0,0.4,0,0.5,0c0.1,0,0.1,0,0.1,0.1c0,0,0,0.1-0.2,0.1c-0.6,0-1.3,0-1.3,0c0,0-0.7,0-1,0
		c-0.1,0-0.2,0-0.2-0.1c0,0,0-0.1,0.1-0.1c0.1,0,0.2,0,0.3,0c0.2,0,0.3-0.3,0.3-0.6c0-0.4,0-1.3,0-2.3L105.1,48.9L105.1,48.9z
		 M105.9,49.8c0,0,0,0.1,0.1,0.1c0.2,0.1,0.6,0.2,1.1,0.2c0.3,0,0.6,0,0.8-0.2c0.4-0.3,0.6-0.8,0.6-1.6c0-1.3-0.7-2.1-1.8-2.1
		c-0.3,0-0.6,0-0.7,0.1c0,0-0.1,0.1-0.1,0.1L105.9,49.8L105.9,49.8z"/>
	<path class="st0" d="M113.2,48.9c0-1.7,0-2,0-2.3c0-0.4-0.1-0.5-0.5-0.6c-0.1,0-0.3,0-0.4,0c0,0-0.1,0-0.1-0.1c0-0.1,0-0.1,0.2-0.1
		c0.3,0,0.5,0,0.8,0l0.4,0c0.1,0,2.2,0,2.4,0c0.2,0,0.4,0,0.5,0c0,0,0.1,0,0.1,0c0,0,0,0,0,0.1c0,0.1,0,0.2-0.1,0.5
		c0,0.1,0,0.6,0,0.7c0,0,0,0.1-0.1,0.1c-0.1,0-0.1,0-0.1-0.1c0-0.1,0-0.3-0.1-0.4c-0.1-0.2-0.2-0.3-0.8-0.4c-0.2,0-1.3,0-1.5,0
		c0,0-0.1,0-0.1,0.1v2.9c0,0.1,0,0.1,0.1,0.1c0.1,0,1.5,0,1.7,0c0.3,0,0.4,0,0.5-0.1c0.1-0.1,0.1-0.1,0.2-0.1c0,0,0,0,0,0.1
		c0,0.1,0,0.3-0.1,0.6c0,0.2,0,0.6,0,0.7s0,0.2-0.1,0.2c0,0-0.1,0-0.1-0.1c0-0.1,0-0.2,0-0.3c0-0.1-0.1-0.3-0.6-0.4
		c-0.3,0-1.3,0-1.5,0c0,0-0.1,0-0.1,0.1v0.9c0,0.4,0,1.6,0,1.8c0,0.7,0.2,0.9,1.2,0.9c0.3,0,0.7,0,1-0.1c0.3-0.1,0.4-0.3,0.5-0.8
		c0-0.1,0-0.2,0.1-0.2c0.1,0,0.1,0.1,0.1,0.2s-0.1,0.8-0.1,1c-0.1,0.3-0.2,0.3-0.6,0.3c-0.8,0-1.4,0-1.8,0s-0.7,0-0.8,0
		c0,0-0.2,0-0.4,0c-0.2,0-0.5,0-0.6,0c-0.1,0-0.2,0-0.2-0.1c0,0,0-0.1,0.1-0.1c0.1,0,0.2,0,0.3,0c0.2,0,0.3-0.3,0.3-0.6
		c0-0.4,0-1.3,0-2.3L113.2,48.9L113.2,48.9z"/>
	<path class="st0" d="M119.4,48.9c0-1.7,0-2,0-2.3c0-0.4-0.1-0.5-0.5-0.6c-0.1,0-0.3,0-0.4,0c0,0-0.1,0-0.1-0.1c0-0.1,0-0.1,0.2-0.1
		c0.3,0,0.5,0,0.8,0l0.4,0c0.1,0,2.2,0,2.4,0c0.2,0,0.4,0,0.5,0c0,0,0.1,0,0.1,0c0,0,0,0,0,0.1c0,0.1,0,0.2-0.1,0.5
		c0,0.1,0,0.6,0,0.7c0,0,0,0.1-0.1,0.1c-0.1,0-0.1,0-0.1-0.1c0-0.1,0-0.3-0.1-0.4c-0.1-0.2-0.2-0.3-0.8-0.4c-0.2,0-1.3,0-1.5,0
		c0,0-0.1,0-0.1,0.1v2.9c0,0.1,0,0.1,0.1,0.1c0.1,0,1.5,0,1.7,0c0.3,0,0.4,0,0.5-0.1c0.1-0.1,0.1-0.1,0.2-0.1c0,0,0,0,0,0.1
		c0,0.1,0,0.3-0.1,0.6c0,0.2,0,0.6,0,0.7s0,0.2-0.1,0.2c0,0-0.1,0-0.1-0.1c0-0.1,0-0.2,0-0.3c0-0.1-0.1-0.3-0.6-0.4
		c-0.3,0-1.3,0-1.5,0c0,0-0.1,0-0.1,0.1v0.9c0,0.4,0,1.6,0,1.8c0,0.7,0.2,0.9,1.2,0.9c0.3,0,0.7,0,1-0.1c0.3-0.1,0.4-0.3,0.5-0.8
		c0-0.1,0-0.2,0.1-0.2c0.1,0,0.1,0.1,0.1,0.2s-0.1,0.8-0.1,1c-0.1,0.3-0.2,0.3-0.6,0.3c-0.8,0-1.4,0-1.8,0s-0.7,0-0.8,0
		c0,0-0.2,0-0.4,0c-0.2,0-0.5,0-0.6,0c-0.1,0-0.2,0-0.2-0.1c0,0,0-0.1,0.1-0.1c0.1,0,0.2,0,0.3,0c0.2,0,0.3-0.3,0.3-0.6
		c0-0.4,0-1.3,0-2.3L119.4,48.9L119.4,48.9z"/>
	<path class="st0" d="M125.1,53.7c-0.1-0.1-0.2-0.1-0.2-0.4c0-0.5,0-1,0-1.1c0-0.1,0-0.2,0.1-0.2c0.1,0,0.1,0,0.1,0.1
		c0,0.1,0,0.3,0,0.4c0.2,0.8,0.9,1.1,1.6,1.1c1,0,1.5-0.7,1.5-1.4c0-0.7-0.3-1.2-1.2-1.9l-0.5-0.4c-1.1-0.9-1.4-1.6-1.4-2.3
		c0-1.1,0.9-1.9,2.2-1.9c0.4,0,0.7,0,1,0.1c0.2,0,0.3,0,0.4,0c0.1,0,0.1,0,0.1,0.1c0,0,0,0.4,0,1.1c0,0.2,0,0.3-0.1,0.3
		s-0.1,0-0.1-0.1c0-0.1-0.1-0.4-0.1-0.5c-0.1-0.1-0.3-0.6-1.3-0.6c-0.7,0-1.3,0.5-1.3,1.2c0,0.6,0.3,1,1.3,1.8l0.3,0.2
		c1.3,1,1.6,1.7,1.6,2.5c0,0.4-0.2,1.2-0.9,1.8c-0.5,0.3-1,0.4-1.6,0.4C126.1,54,125.6,53.9,125.1,53.7z"/>
	<path class="st0" d="M131.1,53.7c-0.1-0.1-0.2-0.1-0.2-0.4c0-0.5,0-1,0-1.1c0-0.1,0-0.2,0.1-0.2c0.1,0,0.1,0,0.1,0.1
		c0,0.1,0,0.3,0,0.4c0.2,0.8,0.9,1.1,1.6,1.1c1,0,1.5-0.7,1.5-1.4c0-0.7-0.3-1.2-1.2-1.9l-0.5-0.4c-1.1-0.9-1.4-1.6-1.4-2.3
		c0-1.1,0.9-1.9,2.2-1.9c0.4,0,0.7,0,1,0.1c0.2,0,0.3,0,0.4,0c0.1,0,0.1,0,0.1,0.1c0,0,0,0.4,0,1.1c0,0.2,0,0.3-0.1,0.3
		s-0.1,0-0.1-0.1c0-0.1-0.1-0.4-0.1-0.5c-0.1-0.1-0.3-0.6-1.3-0.6c-0.7,0-1.3,0.5-1.3,1.2c0,0.6,0.3,1,1.3,1.8l0.3,0.2
		c1.3,1,1.6,1.7,1.6,2.5c0,0.4-0.2,1.2-0.9,1.8c-0.5,0.3-1,0.4-1.6,0.4C132,54,131.5,53.9,131.1,53.7z"/>
	<path class="st0" d="M137.5,48.9c0-1.7,0-2,0-2.3c0-0.4-0.1-0.5-0.5-0.6c-0.1,0-0.3,0-0.4,0c0,0-0.1,0-0.1-0.1c0-0.1,0-0.1,0.2-0.1
		c0.3,0,0.5,0,0.8,0l0.4,0c0.1,0,2.2,0,2.4,0c0.2,0,0.4,0,0.5,0c0,0,0.1,0,0.1,0c0,0,0,0,0,0.1c0,0.1,0,0.2-0.1,0.5
		c0,0.1,0,0.6,0,0.7c0,0,0,0.1-0.1,0.1c-0.1,0-0.1,0-0.1-0.1c0-0.1,0-0.3-0.1-0.4c-0.1-0.2-0.2-0.3-0.8-0.4c-0.2,0-1.3,0-1.5,0
		c0,0-0.1,0-0.1,0.1v2.9c0,0.1,0,0.1,0.1,0.1c0.1,0,1.5,0,1.7,0c0.3,0,0.4,0,0.5-0.1c0.1-0.1,0.1-0.1,0.2-0.1c0,0,0,0,0,0.1
		c0,0.1,0,0.3-0.1,0.6c0,0.2,0,0.6,0,0.7s0,0.2-0.1,0.2c0,0-0.1,0-0.1-0.1c0-0.1,0-0.2,0-0.3c0-0.1-0.1-0.3-0.6-0.4
		c-0.3,0-1.3,0-1.5,0c0,0-0.1,0-0.1,0.1v0.9c0,0.4,0,1.6,0,1.8c0,0.7,0.2,0.9,1.2,0.9c0.3,0,0.7,0,1-0.1c0.3-0.1,0.4-0.3,0.5-0.8
		c0-0.1,0-0.2,0.1-0.2c0.1,0,0.1,0.1,0.1,0.2s-0.1,0.8-0.1,1c-0.1,0.3-0.2,0.3-0.6,0.3c-0.8,0-1.4,0-1.8,0s-0.7,0-0.8,0
		c0,0-0.2,0-0.4,0c-0.2,0-0.5,0-0.6,0c-0.1,0-0.2,0-0.2-0.1c0,0,0-0.1,0.1-0.1c0.1,0,0.2,0,0.3,0c0.2,0,0.3-0.3,0.3-0.6
		c0-0.4,0-1.3,0-2.3L137.5,48.9L137.5,48.9z"/>
	<path class="st0" d="M144.2,52.4c0,0.9,0.1,1.2,0.4,1.2c0.2,0,0.4,0.1,0.5,0.1c0,0,0.1,0,0.1,0.1c0,0.1-0.1,0.1-0.2,0.1
		c-0.6,0-1,0-1.1,0c-0.1,0-0.5,0-1,0c-0.1,0-0.2,0-0.2-0.1c0,0,0-0.1,0.1-0.1c0.1,0,0.3,0,0.4-0.1c0.3-0.1,0.3-0.4,0.3-1.4l0-6.1
		c0-0.4,0-0.5,0.1-0.5c0.1,0,0.3,0.2,0.4,0.3c0.2,0.2,1.8,1.9,3.4,3.7c1.1,1.1,2.2,2.4,2.6,2.8l-0.1-5.4c0-0.7-0.1-0.9-0.4-1
		c-0.2,0-0.4,0-0.5,0s-0.1,0-0.1-0.1c0-0.1,0.1-0.1,0.2-0.1c0.5,0,1,0,1.1,0s0.5,0,0.9,0c0.1,0,0.2,0,0.2,0.1c0,0,0,0.1-0.1,0.1
		c0,0-0.1,0-0.3,0c-0.3,0.1-0.4,0.3-0.4,0.9l0,6.3c0,0.7,0,0.8-0.1,0.8c-0.1,0-0.2-0.1-0.8-0.7c-0.1-0.1-1.7-1.7-2.8-2.9
		c-1.2-1.3-2.4-2.7-2.8-3.1L144.2,52.4z"/>
	<path class="st0" d="M165,50.7c0,1,0,1.9,0,2.3c0,0.3,0.1,0.5,0.4,0.6c0.1,0,0.4,0,0.5,0c0.1,0,0.1,0,0.1,0.1c0,0,0,0.1-0.2,0.1
		c-0.6,0-1.3,0-1.3,0s-0.7,0-1,0c-0.1,0-0.2,0-0.2-0.1c0,0,0-0.1,0.1-0.1c0.1,0,0.2,0,0.3,0c0.2,0,0.3-0.3,0.3-0.6
		c0-0.4,0-1.3,0-2.3v-1.1c0,0,0-0.1-0.1-0.1h-4.5c0,0-0.1,0-0.1,0.1v1.1c0,1,0,1.9,0,2.3c0,0.3,0.1,0.5,0.4,0.6c0.1,0,0.4,0,0.5,0
		c0.1,0,0.1,0,0.1,0.1c0,0,0,0.1-0.2,0.1c-0.6,0-1.3,0-1.3,0c0,0-0.7,0-1,0c-0.1,0-0.2,0-0.2-0.1c0,0,0-0.1,0.1-0.1
		c0.1,0,0.2,0,0.3,0c0.2,0,0.3-0.3,0.3-0.6c0-0.4,0-1.3,0-2.3v-1.9c0-1.7,0-2,0-2.3c0-0.4-0.1-0.5-0.5-0.6c-0.1,0-0.3,0-0.4,0
		c0,0-0.1,0-0.1-0.1c0-0.1,0-0.1,0.2-0.1c0.5,0,1.2,0,1.2,0c0,0,0.7,0,1,0c0.1,0,0.2,0,0.2,0.1c0,0,0,0.1-0.1,0.1
		c-0.1,0-0.1,0-0.3,0c-0.3,0-0.4,0.2-0.4,0.6c0,0.3,0,0.6,0,2.3v0.2c0,0,0,0.1,0.1,0.1h4.5c0,0,0.1,0,0.1-0.1v-0.2c0-1.7,0-2,0-2.3
		c0-0.4-0.1-0.5-0.5-0.6c-0.1,0-0.3,0-0.4,0c0,0-0.1,0-0.1-0.1c0-0.1,0-0.1,0.2-0.1c0.5,0,1.2,0,1.2,0s0.7,0,1,0
		c0.1,0,0.2,0,0.2,0.1c0,0,0,0.1-0.1,0.1c-0.1,0-0.1,0-0.3,0c-0.3,0-0.4,0.2-0.4,0.6c0,0.3,0,0.6,0,2.3L165,50.7L165,50.7z"/>
	<path class="st0" d="M171,45.6c2.4,0,4.2,1.5,4.2,4c0,2.4-1.7,4.4-4.3,4.4c-2.9,0-4.1-2.3-4.1-4.2C166.8,48.1,168.1,45.6,171,45.6z
		 M171.2,53.6c1,0,3-0.6,3-3.7c0-2.6-1.6-3.9-3.2-3.9c-1.8,0-3.1,1.2-3.1,3.5C167.8,52,169.3,53.6,171.2,53.6z"/>
	<path class="st0" d="M176.9,48.9c0-1.7,0-2,0-2.3c0-0.4-0.1-0.5-0.5-0.6c-0.1,0-0.3,0-0.4,0c0,0-0.1,0-0.1-0.1c0-0.1,0-0.1,0.2-0.1
		c0.5,0,1.2,0,1.2,0c0.1,0,0.9,0,1.3,0c0.7,0,1.4,0.1,2,0.5c0.3,0.2,0.7,0.7,0.7,1.5c0,0.8-0.3,1.6-1.3,2.5c0.9,1.1,1.6,2.1,2.2,2.7
		c0.6,0.6,1,0.7,1.3,0.8c0.2,0,0.3,0,0.4,0c0,0,0.1,0,0.1,0.1c0,0.1-0.1,0.1-0.3,0.1H183c-0.6,0-0.9,0-1.1-0.2
		c-0.5-0.3-0.8-0.8-1.4-1.6c-0.4-0.6-0.9-1.3-1.2-1.6c0,0-0.1-0.1-0.1-0.1l-1.3,0c0,0-0.1,0-0.1,0.1v0.3c0,1,0,1.9,0,2.3
		c0,0.3,0.1,0.5,0.4,0.6c0.1,0,0.4,0,0.5,0c0.1,0,0.1,0,0.1,0.1c0,0,0,0.1-0.2,0.1c-0.6,0-1.3,0-1.3,0c0,0-0.7,0-1,0
		c-0.1,0-0.2,0-0.2-0.1c0,0,0-0.1,0.1-0.1c0.1,0,0.2,0,0.3,0c0.2,0,0.3-0.3,0.3-0.6c0-0.4,0-1.3,0-2.3L176.9,48.9L176.9,48.9z
		 M177.8,49.8c0,0,0,0.1,0.1,0.1c0.2,0.1,0.6,0.2,1.1,0.2c0.3,0,0.6,0,0.8-0.2c0.4-0.3,0.6-0.8,0.6-1.6c0-1.3-0.7-2.1-1.8-2.1
		c-0.3,0-0.6,0-0.7,0.1c0,0-0.1,0.1-0.1,0.1L177.8,49.8L177.8,49.8z"/>
	<path class="st0" d="M188.2,45.6c2.4,0,4.2,1.5,4.2,4c0,2.4-1.7,4.4-4.3,4.4c-2.9,0-4.1-2.3-4.1-4.2
		C184,48.1,185.3,45.6,188.2,45.6z M188.4,53.6c1,0,3-0.6,3-3.7c0-2.6-1.6-3.9-3.2-3.9c-1.8,0-3.1,1.2-3.1,3.5
		C185,52,186.5,53.6,188.4,53.6z"/>
	<path class="st0" d="M201.2,52.4L201.2,52.4c0.3-1,1.3-4.1,1.7-5.4c0.1-0.4,0.1-0.5,0.1-0.7c0-0.2-0.1-0.3-0.6-0.3
		c0,0-0.1,0-0.1-0.1c0,0,0-0.1,0.2-0.1c0.5,0,1,0,1.1,0c0.1,0,0.5,0,0.9,0c0.1,0,0.1,0,0.1,0.1c0,0,0,0.1-0.1,0.1c0,0-0.3,0-0.4,0
		c-0.3,0.1-0.5,0.6-0.7,1.2c-0.5,1.4-1.5,4.8-2,5.9c-0.3,0.8-0.3,0.9-0.4,0.9c-0.1,0-0.2-0.1-0.3-0.6l-2.1-5.9h0
		c-0.4,1-1.8,4.9-2.2,5.9c-0.2,0.4-0.2,0.6-0.3,0.6c-0.1,0-0.2-0.1-0.4-0.8l-1.9-6.3c-0.2-0.6-0.3-0.7-0.6-0.8
		c-0.1,0-0.4-0.1-0.5-0.1c0,0-0.1,0-0.1-0.1c0,0,0.1-0.1,0.2-0.1c0.6,0,1.1,0,1.3,0c0.1,0,0.6,0,1.1,0c0.1,0,0.2,0,0.2,0.1
		c0,0.1,0,0.1-0.1,0.1c-0.1,0-0.3,0-0.4,0.1c-0.1,0-0.1,0.1-0.1,0.3c0,0.1,0.1,0.5,0.2,1c0.2,0.7,1.3,4.6,1.4,5.2h0l2.3-6.1
		c0.2-0.4,0.2-0.5,0.3-0.5c0.1,0,0.1,0.1,0.3,0.5L201.2,52.4z"/>
	<path class="st0" d="M207.6,50.7c0,1,0,1.9,0,2.3c0,0.3,0.1,0.5,0.4,0.6c0.1,0,0.4,0,0.5,0c0.1,0,0.1,0,0.1,0.1c0,0,0,0.1-0.2,0.1
		c-0.6,0-1.3,0-1.3,0s-0.7,0-1,0c-0.1,0-0.2,0-0.2-0.1c0,0,0-0.1,0.1-0.1c0.1,0,0.2,0,0.3,0c0.2,0,0.3-0.3,0.3-0.6
		c0-0.4,0-1.3,0-2.3v-1.9c0-1.7,0-2,0-2.3c0-0.4-0.1-0.5-0.4-0.6c-0.1,0-0.3,0-0.3,0c0,0-0.1,0-0.1-0.1c0-0.1,0-0.1,0.2-0.1
		c0.3,0,1,0,1.1,0s0.7,0,1,0c0.1,0,0.2,0,0.2,0.1c0,0,0,0.1-0.1,0.1c-0.1,0-0.1,0-0.3,0c-0.3,0-0.4,0.2-0.4,0.6c0,0.3,0,0.6,0,2.3
		L207.6,50.7L207.6,50.7z"/>
	<path class="st0" d="M213.7,50.7c0,1,0,1.9,0,2.3c0,0.3,0.1,0.5,0.4,0.6c0.1,0,0.4,0,0.5,0c0.1,0,0.1,0,0.1,0.1c0,0,0,0.1-0.2,0.1
		c-0.6,0-1.3,0-1.3,0c0,0-0.7,0-1,0c-0.1,0-0.2,0-0.2-0.1c0,0,0-0.1,0.1-0.1c0.1,0,0.2,0,0.3,0c0.2,0,0.3-0.3,0.3-0.6
		c0-0.4,0-1.3,0-2.3v-4.5l-1.6,0c-0.7,0-0.9,0.1-1.1,0.3c-0.1,0.2-0.1,0.3-0.2,0.3s-0.1,0.1-0.1,0.1c0,0,0,0,0-0.1
		c0-0.1,0.2-1,0.2-1.1c0-0.1,0.1-0.2,0.1-0.2c0.1,0,0.2,0.1,0.5,0.1c0.3,0,0.7,0,0.8,0h4c0.3,0,0.6,0,0.8,0c0.2,0,0.3,0,0.3,0
		c0,0,0,0.1,0,0.1c0,0.3,0,1.1,0,1.2c0,0.1,0,0.1-0.1,0.1c0,0-0.1,0-0.1-0.2l0-0.1c0-0.3-0.3-0.6-1.3-0.6l-1.3,0L213.7,50.7
		L213.7,50.7z"/>
	<path class="st0" d="M221.9,53.4c1.1,0,1.5-0.2,1.7-0.5c0.1-0.1,0.2-0.4,0.2-0.6c0-0.1,0-0.2,0.1-0.2c0.1,0,0.1,0,0.1,0.3
		c0,0.3-0.1,1-0.2,1.2c-0.1,0.3-0.1,0.3-0.3,0.3c-1.8,0-3.6,0-5.4,0c-0.1,0-0.2,0-0.2-0.1c0,0,0-0.1,0.1-0.3
		c1.6-2.4,3.2-4.8,4.7-7.2h-2.3c-0.5,0-1.2,0-1.5,0.2c-0.4,0.2-0.6,0.6-0.6,0.8c0,0.2-0.1,0.2-0.1,0.2c0,0-0.1,0-0.1-0.1
		c0-0.1,0.2-1.1,0.2-1.4c0-0.1,0-0.2,0.1-0.2c0.1,0,0.2,0.1,0.4,0.1c1,0,1.5,0,1.9,0h3c0.2,0,0.2,0,0.2,0.1c0,0,0,0.1,0,0.1
		c-1.5,2.4-3.2,4.9-4.8,7.4L221.9,53.4L221.9,53.4z"/>
</g>
</svg>
