<?xml version="1.0" encoding="utf-8"?>
<!-- Generator: Adobe Illustrator 26.3.1, SVG Export Plug-In . SVG Version: 6.00 Build 0)  -->
<svg version="1.1" id="katman_1" xmlns="http://www.w3.org/2000/svg" xmlns:xlink="http://www.w3.org/1999/xlink" x="0px" y="0px"
	 viewBox="0 0 300 100" style="enable-background:new 0 0 300 100;" xml:space="preserve">
<style type="text/css">
	.st0{fill:#FFFFFF;}
	.st1{fill-rule:evenodd;clip-rule:evenodd;fill:#FFE8AA;fill-opacity:0.25;}
	.st2{fill:none;}
	.st3{fill:#FFE8AA;fill-opacity:0.25;}
</style>
<g>
	<path class="st0" d="M65.8,47.4c0.3,0,0.7,0.1,0.9,0.4l6.7,6.7c0.6,0.6,1.5,0.6,2.1,0l6.7-6.7c0.2-0.2,0.6-0.4,0.9-0.4
		c1.2,0,1.8,1.4,0.9,2.2l-8.5,8.5c-0.6,0.6-1.5,0.6-2.1,0l-8.5-8.5C64.1,48.8,64.7,47.4,65.8,47.4z M74.1,50.4
		c-0.3,0-0.7-0.1-0.9-0.4l-6.7-6.7c-0.6-0.6-1.5-0.6-2.1,0L57.8,50c-0.2,0.2-0.6,0.4-0.9,0.4c-1.2,0-1.8-1.4-0.9-2.2l8.5-8.5
		c0.6-0.6,1.5-0.6,2.1,0l8.5,8.5C75.9,49,75.3,50.4,74.1,50.4z"/>
	<path class="st1" d="M65.8,47.4c0.3,0,0.7,0.1,0.9,0.4l6.7,6.7c0.6,0.6,1.5,0.6,2.1,0l6.7-6.7c0.2-0.2,0.6-0.4,0.9-0.4
		c1.2,0,1.8,1.4,0.9,2.2l-8.5,8.5c-0.6,0.6-1.5,0.6-2.1,0l-8.5-8.5C64.1,48.8,64.7,47.4,65.8,47.4z M74.1,50.4
		c-0.3,0-0.7-0.1-0.9-0.4l-6.7-6.7c-0.6-0.6-1.5-0.6-2.1,0L57.8,50c-0.2,0.2-0.6,0.4-0.9,0.4c-1.2,0-1.8-1.4-0.9-2.2l8.5-8.5
		c0.6-0.6,1.5-0.6,2.1,0l8.5,8.5C75.9,49,75.3,50.4,74.1,50.4z"/>
	<path class="st2" d="M99.4,54.8h-0.5c-0.4,0-0.6-0.2-0.6-0.7v-4.2c0-1.1-0.3-2-1-2.6c-0.7-0.6-1.6-0.9-2.9-0.9
		c-1.2,0-2.1,0.3-2.9,0.8c-0.7,0.5-1.1,1.3-1.3,2.2h1.6c0.1-0.5,0.4-0.9,0.8-1.2c0.4-0.3,1-0.5,1.7-0.5c0.8,0,1.4,0.2,1.8,0.5
		c0.4,0.4,0.6,0.9,0.6,1.5v0.7h-2.9c-1.3,0-2.3,0.3-2.9,0.8c-0.7,0.5-1,1.3-1,2.3c0,0.9,0.3,1.6,1,2.1c0.6,0.5,1.5,0.8,2.6,0.8
		c1.4,0,2.5-0.5,3.3-1.6c0,0.5,0.2,0.9,0.4,1.1c0.3,0.3,0.7,0.4,1.3,0.4h0.9V54.8z M96.7,51.7v0.5c0,0.8-0.3,1.5-0.8,2
		c-0.6,0.5-1.3,0.7-2.3,0.7c-0.6,0-1.2-0.1-1.5-0.4c-0.4-0.3-0.6-0.7-0.6-1.2c0-1.1,0.7-1.6,2.2-1.6H96.7z M100.8,42.8v13.4h1.6
		V42.8H100.8z M112,55.4c0.7-0.6,1.2-1.5,1.4-2.6h-1.6c-0.2,0.6-0.5,1.2-0.9,1.5c-0.5,0.4-1.1,0.6-1.8,0.6c-0.9,0-1.7-0.3-2.3-1
		c-0.6-0.7-0.9-1.5-0.9-2.6c0-1,0.3-1.9,0.9-2.6c0.6-0.6,1.3-1,2.3-1c0.7,0,1.3,0.2,1.8,0.6c0.5,0.4,0.8,0.9,1,1.5h1.6
		c-0.2-1.1-0.7-1.9-1.4-2.5s-1.7-0.9-2.8-0.9c-1,0-1.8,0.2-2.5,0.6c-0.7,0.4-1.3,1-1.7,1.7c-0.4,0.8-0.6,1.6-0.6,2.6
		c0,1,0.2,1.9,0.6,2.6c0.4,0.8,0.9,1.3,1.7,1.8c0.7,0.4,1.5,0.6,2.5,0.6C110.3,56.3,111.2,56,112,55.4z M123,47.4
		c-0.7-0.7-1.7-1.1-2.9-1.1c-0.8,0-1.4,0.2-1.9,0.5c-0.5,0.3-1,0.7-1.3,1.2v-5.2h-1.6v13.4h1.6v-4.9c0-1.1,0.2-1.9,0.8-2.6
		c0.5-0.6,1.2-1,2.2-1c0.8,0,1.5,0.3,2,0.8c0.5,0.5,0.7,1.3,0.7,2.3v5.3h1.6v-5.4C124.1,49.2,123.8,48.1,123,47.4z M126.5,48.7
		c-0.4,0.8-0.6,1.6-0.6,2.6s0.2,1.9,0.6,2.6c0.4,0.8,1,1.3,1.7,1.8c0.7,0.4,1.6,0.6,2.5,0.6c1.1,0,2-0.3,2.8-0.9
		c0.8-0.6,1.2-1.5,1.4-2.4h-1.6c-0.2,0.6-0.5,1.1-1,1.5c-0.5,0.3-1.1,0.5-1.8,0.5c-0.9,0-1.6-0.3-2.2-0.9c-0.6-0.6-0.9-1.3-0.9-2.3
		v-0.1h7.6c0-0.3,0-0.5,0-0.7c0-0.9-0.2-1.8-0.6-2.5c-0.4-0.7-0.9-1.2-1.6-1.6c-0.7-0.4-1.5-0.6-2.4-0.6c-0.9,0-1.7,0.2-2.4,0.6
		C127.5,47.4,126.9,48,126.5,48.7z M133.6,50.3h-5.9c0.1-0.8,0.4-1.4,1-1.9c0.6-0.5,1.2-0.7,1.9-0.7c0.8,0,1.5,0.2,2,0.7
		S133.5,49.5,133.6,50.3z M150.7,47.4c-0.7-0.7-1.6-1-2.7-1c-1.6,0-2.7,0.6-3.4,1.9c-0.3-0.6-0.7-1.1-1.2-1.4
		c-0.5-0.3-1.2-0.5-1.9-0.5c-1.2,0-2.2,0.5-2.8,1.5l-0.2-1.3h-1.4v9.7h1.6V51c0-1,0.2-1.8,0.7-2.4c0.5-0.6,1.1-0.9,1.9-0.9
		c0.7,0,1.3,0.2,1.7,0.7c0.4,0.5,0.6,1.2,0.6,2.2v5.5h1.6V51c0-1,0.2-1.8,0.7-2.3c0.5-0.6,1.1-0.9,1.9-0.9c0.7,0,1.3,0.2,1.7,0.7
		c0.4,0.5,0.6,1.2,0.6,2.2v5.5h1.6v-5.6C151.7,49.1,151.4,48.1,150.7,47.4z M154.3,46.4h-1.7l3.8,9.8l-0.5,1.2
		c-0.2,0.3-0.3,0.6-0.4,0.7c-0.1,0.2-0.2,0.2-0.4,0.3c-0.2,0.1-0.4,0.1-0.7,0.1h-1.4V60h1.9c0.4,0,0.8-0.1,1.1-0.2
		c0.3-0.1,0.5-0.3,0.7-0.6c0.2-0.3,0.4-0.7,0.6-1.3l4.5-11.4h-1.7l-2.9,7.9L154.3,46.4z"/>
	<path class="st3" d="M99.4,54.8h-0.5c-0.4,0-0.6-0.2-0.6-0.7v-4.2c0-1.1-0.3-2-1-2.6c-0.7-0.6-1.6-0.9-2.9-0.9
		c-1.2,0-2.1,0.3-2.9,0.8c-0.7,0.5-1.1,1.3-1.3,2.2h1.6c0.1-0.5,0.4-0.9,0.8-1.2c0.4-0.3,1-0.5,1.7-0.5c0.8,0,1.4,0.2,1.8,0.5
		c0.4,0.4,0.6,0.9,0.6,1.5v0.7h-2.9c-1.3,0-2.3,0.3-2.9,0.8c-0.7,0.5-1,1.3-1,2.3c0,0.9,0.3,1.6,1,2.1c0.6,0.5,1.5,0.8,2.6,0.8
		c1.4,0,2.5-0.5,3.3-1.6c0,0.5,0.2,0.9,0.4,1.1c0.3,0.3,0.7,0.4,1.3,0.4h0.9V54.8z M96.7,51.7v0.5c0,0.8-0.3,1.5-0.8,2
		c-0.6,0.5-1.3,0.7-2.3,0.7c-0.6,0-1.2-0.1-1.5-0.4c-0.4-0.3-0.6-0.7-0.6-1.2c0-1.1,0.7-1.6,2.2-1.6H96.7z M100.8,42.8v13.4h1.6
		V42.8H100.8z M112,55.4c0.7-0.6,1.2-1.5,1.4-2.6h-1.6c-0.2,0.6-0.5,1.2-0.9,1.5c-0.5,0.4-1.1,0.6-1.8,0.6c-0.9,0-1.7-0.3-2.3-1
		c-0.6-0.7-0.9-1.5-0.9-2.6c0-1,0.3-1.9,0.9-2.6c0.6-0.6,1.3-1,2.3-1c0.7,0,1.3,0.2,1.8,0.6c0.5,0.4,0.8,0.9,1,1.5h1.6
		c-0.2-1.1-0.7-1.9-1.4-2.5s-1.7-0.9-2.8-0.9c-1,0-1.8,0.2-2.5,0.6c-0.7,0.4-1.3,1-1.7,1.7c-0.4,0.8-0.6,1.6-0.6,2.6
		c0,1,0.2,1.9,0.6,2.6c0.4,0.8,0.9,1.3,1.7,1.8c0.7,0.4,1.5,0.6,2.5,0.6C110.3,56.3,111.2,56,112,55.4z M123,47.4
		c-0.7-0.7-1.7-1.1-2.9-1.1c-0.8,0-1.4,0.2-1.9,0.5c-0.5,0.3-1,0.7-1.3,1.2v-5.2h-1.6v13.4h1.6v-4.9c0-1.1,0.2-1.9,0.8-2.6
		c0.5-0.6,1.2-1,2.2-1c0.8,0,1.5,0.3,2,0.8c0.5,0.5,0.7,1.3,0.7,2.3v5.3h1.6v-5.4C124.1,49.2,123.8,48.1,123,47.4z M126.5,48.7
		c-0.4,0.8-0.6,1.6-0.6,2.6s0.2,1.9,0.6,2.6c0.4,0.8,1,1.3,1.7,1.8c0.7,0.4,1.6,0.6,2.5,0.6c1.1,0,2-0.3,2.8-0.9
		c0.8-0.6,1.2-1.5,1.4-2.4h-1.6c-0.2,0.6-0.5,1.1-1,1.5c-0.5,0.3-1.1,0.5-1.8,0.5c-0.9,0-1.6-0.3-2.2-0.9c-0.6-0.6-0.9-1.3-0.9-2.3
		v-0.1h7.6c0-0.3,0-0.5,0-0.7c0-0.9-0.2-1.8-0.6-2.5c-0.4-0.7-0.9-1.2-1.6-1.6c-0.7-0.4-1.5-0.6-2.4-0.6c-0.9,0-1.7,0.2-2.4,0.6
		C127.5,47.4,126.9,48,126.5,48.7z M133.6,50.3h-5.9c0.1-0.8,0.4-1.4,1-1.9c0.6-0.5,1.2-0.7,1.9-0.7c0.8,0,1.5,0.2,2,0.7
		S133.5,49.5,133.6,50.3z M150.7,47.4c-0.7-0.7-1.6-1-2.7-1c-1.6,0-2.7,0.6-3.4,1.9c-0.3-0.6-0.7-1.1-1.2-1.4
		c-0.5-0.3-1.2-0.5-1.9-0.5c-1.2,0-2.2,0.5-2.8,1.5l-0.2-1.3h-1.4v9.7h1.6V51c0-1,0.2-1.8,0.7-2.4c0.5-0.6,1.1-0.9,1.9-0.9
		c0.7,0,1.3,0.2,1.7,0.7c0.4,0.5,0.6,1.2,0.6,2.2v5.5h1.6V51c0-1,0.2-1.8,0.7-2.3c0.5-0.6,1.1-0.9,1.9-0.9c0.7,0,1.3,0.2,1.7,0.7
		c0.4,0.5,0.6,1.2,0.6,2.2v5.5h1.6v-5.6C151.7,49.1,151.4,48.1,150.7,47.4z M154.3,46.4h-1.7l3.8,9.8l-0.5,1.2
		c-0.2,0.3-0.3,0.6-0.4,0.7c-0.1,0.2-0.2,0.2-0.4,0.3c-0.2,0.1-0.4,0.1-0.7,0.1h-1.4V60h1.9c0.4,0,0.8-0.1,1.1-0.2
		c0.3-0.1,0.5-0.3,0.7-0.6c0.2-0.3,0.4-0.7,0.6-1.3l4.5-11.4h-1.7l-2.9,7.9L154.3,46.4z"/>
	<path class="st2" d="M164.5,43l4.5,13.4h3.4L177,43h-3l-3.3,9.9l-3.2-9.9H164.5z M177.3,48.8c-0.4,0.8-0.6,1.6-0.6,2.7
		s0.2,1.9,0.6,2.7c0.4,0.8,1,1.3,1.8,1.7c0.8,0.4,1.7,0.6,2.8,0.6c0.8,0,1.6-0.1,2.2-0.4c0.6-0.3,1.2-0.7,1.6-1.2
		c0.4-0.5,0.6-1.1,0.7-1.8h-2.7c-0.1,0.5-0.4,0.8-0.7,1c-0.4,0.2-0.8,0.3-1.4,0.3c-0.7,0-1.2-0.2-1.6-0.6c-0.4-0.4-0.6-1-0.7-1.7
		v-0.1h7.1c0-0.3,0.1-0.6,0.1-0.9c0-1-0.2-1.8-0.7-2.5c-0.4-0.7-1-1.3-1.8-1.6c-0.8-0.4-1.6-0.6-2.6-0.6c-1,0-1.9,0.2-2.6,0.6
		C178.3,47.5,177.7,48.1,177.3,48.8z M184,50.3h-4.4c0.1-0.6,0.3-1,0.7-1.4c0.4-0.3,0.9-0.5,1.5-0.5c0.6,0,1.1,0.2,1.5,0.5
		S183.9,49.7,184,50.3z M196.8,47.5c-0.7-0.7-1.7-1.1-2.8-1.1c-0.7,0-1.3,0.1-1.8,0.4c-0.5,0.2-0.9,0.6-1.2,1l-0.2-1.2h-2.3v9.8h2.7
		v-5c0-0.8,0.2-1.5,0.6-2c0.4-0.5,0.9-0.7,1.6-0.7c1.3,0,2,0.9,2,2.5v5.2h2.7V51C197.9,49.4,197.5,48.2,196.8,47.5z M200.4,48.8v4.7
		c0,1.9,0.9,2.8,2.8,2.8h2.2v-2.3H204c-0.3,0-0.6-0.1-0.7-0.2c-0.2-0.2-0.2-0.4-0.2-0.7v-4.3h2.2v-2.3h-2.2v-2.7h-2.7v2.7h-1.6v2.3
		H200.4z M216,46.6h-2.7v4.8c0,0.9-0.2,1.6-0.6,2.1c-0.4,0.5-0.9,0.7-1.6,0.7c-0.6,0-1.1-0.2-1.5-0.7c-0.3-0.5-0.5-1.1-0.5-2v-5
		h-2.7v5.3c0,1.7,0.4,2.8,1.1,3.6c0.7,0.7,1.7,1,2.8,1c0.6,0,1.2-0.1,1.7-0.3c0.5-0.2,0.9-0.5,1.2-1l0.2,1.2h2.4V46.6z M224,46.6
		h-0.5c-0.7,0-1.3,0.1-1.7,0.4c-0.4,0.2-0.8,0.6-1.1,1.1l-0.2-1.5h-2.4v9.8h2.7v-4.8c0-0.8,0.2-1.4,0.5-1.9c0.3-0.5,0.9-0.7,1.7-0.7
		h1.1V46.6z M225.3,48.8c-0.4,0.8-0.6,1.6-0.6,2.7s0.2,1.9,0.6,2.7c0.4,0.8,1,1.3,1.8,1.7c0.8,0.4,1.7,0.6,2.8,0.6
		c0.8,0,1.6-0.1,2.2-0.4c0.6-0.3,1.2-0.7,1.6-1.2c0.4-0.5,0.6-1.1,0.7-1.8h-2.7c-0.1,0.5-0.4,0.8-0.7,1c-0.4,0.2-0.8,0.3-1.4,0.3
		c-0.7,0-1.2-0.2-1.6-0.6c-0.4-0.4-0.6-1-0.7-1.7v-0.1h7.1c0-0.3,0.1-0.6,0.1-0.9c0-1-0.2-1.8-0.7-2.5c-0.4-0.7-1-1.3-1.8-1.6
		s-1.6-0.6-2.6-0.6c-1,0-1.9,0.2-2.6,0.6C226.3,47.5,225.8,48.1,225.3,48.8z M232,50.3h-4.4c0.1-0.6,0.3-1,0.7-1.4
		c0.4-0.3,0.9-0.5,1.5-0.5c0.6,0,1.1,0.2,1.5,0.5C231.7,49.3,231.9,49.7,232,50.3z M238.5,53.1H236c0,1,0.5,1.9,1.4,2.5
		c0.8,0.6,1.9,0.9,3.3,0.9c0.9,0,1.6-0.1,2.3-0.4c0.7-0.3,1.2-0.6,1.6-1.1c0.4-0.5,0.6-1,0.6-1.7c0-1-0.4-1.7-1.1-2.1
		c-0.7-0.4-1.7-0.7-3-0.9c-0.6-0.1-1.1-0.1-1.3-0.2c-0.3,0-0.5-0.1-0.6-0.2c-0.2-0.1-0.2-0.3-0.2-0.5c0-0.3,0.2-0.6,0.5-0.8
		c0.3-0.2,0.7-0.3,1.2-0.3c0.5,0,1,0.1,1.3,0.4c0.3,0.2,0.6,0.5,0.6,0.9h2.6c-0.1-1-0.5-1.8-1.3-2.3c-0.8-0.6-1.9-0.8-3.2-0.9
		c-0.8,0-1.6,0.1-2.2,0.4c-0.6,0.3-1.1,0.6-1.5,1.1c-0.3,0.5-0.5,1-0.5,1.7c0,0.6,0.2,1.1,0.5,1.5c0.3,0.4,0.8,0.7,1.4,0.8
		c0.6,0.2,1.3,0.3,2.2,0.4c0.6,0.1,1.1,0.2,1.4,0.2c0.3,0.1,0.5,0.2,0.6,0.3c0.2,0.1,0.2,0.3,0.2,0.6c0,0.3-0.2,0.6-0.5,0.8
		c-0.3,0.2-0.8,0.3-1.4,0.3c-0.6,0-1.1-0.1-1.5-0.4C238.8,53.9,238.5,53.5,238.5,53.1z"/>
	<path class="st3" d="M164.5,43l4.5,13.4h3.4L177,43h-3l-3.3,9.9l-3.2-9.9H164.5z M177.3,48.8c-0.4,0.8-0.6,1.6-0.6,2.7
		s0.2,1.9,0.6,2.7c0.4,0.8,1,1.3,1.8,1.7c0.8,0.4,1.7,0.6,2.8,0.6c0.8,0,1.6-0.1,2.2-0.4c0.6-0.3,1.2-0.7,1.6-1.2
		c0.4-0.5,0.6-1.1,0.7-1.8h-2.7c-0.1,0.5-0.4,0.8-0.7,1c-0.4,0.2-0.8,0.3-1.4,0.3c-0.7,0-1.2-0.2-1.6-0.6c-0.4-0.4-0.6-1-0.7-1.7
		v-0.1h7.1c0-0.3,0.1-0.6,0.1-0.9c0-1-0.2-1.8-0.7-2.5c-0.4-0.7-1-1.3-1.8-1.6c-0.8-0.4-1.6-0.6-2.6-0.6c-1,0-1.9,0.2-2.6,0.6
		C178.3,47.5,177.7,48.1,177.3,48.8z M184,50.3h-4.4c0.1-0.6,0.3-1,0.7-1.4c0.4-0.3,0.9-0.5,1.5-0.5c0.6,0,1.1,0.2,1.5,0.5
		S183.9,49.7,184,50.3z M196.8,47.5c-0.7-0.7-1.7-1.1-2.8-1.1c-0.7,0-1.3,0.1-1.8,0.4c-0.5,0.2-0.9,0.6-1.2,1l-0.2-1.2h-2.3v9.8h2.7
		v-5c0-0.8,0.2-1.5,0.6-2c0.4-0.5,0.9-0.7,1.6-0.7c1.3,0,2,0.9,2,2.5v5.2h2.7V51C197.9,49.4,197.5,48.2,196.8,47.5z M200.4,48.8v4.7
		c0,1.9,0.9,2.8,2.8,2.8h2.2v-2.3H204c-0.3,0-0.6-0.1-0.7-0.2c-0.2-0.2-0.2-0.4-0.2-0.7v-4.3h2.2v-2.3h-2.2v-2.7h-2.7v2.7h-1.6v2.3
		H200.4z M216,46.6h-2.7v4.8c0,0.9-0.2,1.6-0.6,2.1c-0.4,0.5-0.9,0.7-1.6,0.7c-0.6,0-1.1-0.2-1.5-0.7c-0.3-0.5-0.5-1.1-0.5-2v-5
		h-2.7v5.3c0,1.7,0.4,2.8,1.1,3.6c0.7,0.7,1.7,1,2.8,1c0.6,0,1.2-0.1,1.7-0.3c0.5-0.2,0.9-0.5,1.2-1l0.2,1.2h2.4V46.6z M224,46.6
		h-0.5c-0.7,0-1.3,0.1-1.7,0.4c-0.4,0.2-0.8,0.6-1.1,1.1l-0.2-1.5h-2.4v9.8h2.7v-4.8c0-0.8,0.2-1.4,0.5-1.9c0.3-0.5,0.9-0.7,1.7-0.7
		h1.1V46.6z M225.3,48.8c-0.4,0.8-0.6,1.6-0.6,2.7s0.2,1.9,0.6,2.7c0.4,0.8,1,1.3,1.8,1.7c0.8,0.4,1.7,0.6,2.8,0.6
		c0.8,0,1.6-0.1,2.2-0.4c0.6-0.3,1.2-0.7,1.6-1.2c0.4-0.5,0.6-1.1,0.7-1.8h-2.7c-0.1,0.5-0.4,0.8-0.7,1c-0.4,0.2-0.8,0.3-1.4,0.3
		c-0.7,0-1.2-0.2-1.6-0.6c-0.4-0.4-0.6-1-0.7-1.7v-0.1h7.1c0-0.3,0.1-0.6,0.1-0.9c0-1-0.2-1.8-0.7-2.5c-0.4-0.7-1-1.3-1.8-1.6
		s-1.6-0.6-2.6-0.6c-1,0-1.9,0.2-2.6,0.6C226.3,47.5,225.8,48.1,225.3,48.8z M232,50.3h-4.4c0.1-0.6,0.3-1,0.7-1.4
		c0.4-0.3,0.9-0.5,1.5-0.5c0.6,0,1.1,0.2,1.5,0.5C231.7,49.3,231.9,49.7,232,50.3z M238.5,53.1H236c0,1,0.5,1.9,1.4,2.5
		c0.8,0.6,1.9,0.9,3.3,0.9c0.9,0,1.6-0.1,2.3-0.4c0.7-0.3,1.2-0.6,1.6-1.1c0.4-0.5,0.6-1,0.6-1.7c0-1-0.4-1.7-1.1-2.1
		c-0.7-0.4-1.7-0.7-3-0.9c-0.6-0.1-1.1-0.1-1.3-0.2c-0.3,0-0.5-0.1-0.6-0.2c-0.2-0.1-0.2-0.3-0.2-0.5c0-0.3,0.2-0.6,0.5-0.8
		c0.3-0.2,0.7-0.3,1.2-0.3c0.5,0,1,0.1,1.3,0.4c0.3,0.2,0.6,0.5,0.6,0.9h2.6c-0.1-1-0.5-1.8-1.3-2.3c-0.8-0.6-1.9-0.8-3.2-0.9
		c-0.8,0-1.6,0.1-2.2,0.4c-0.6,0.3-1.1,0.6-1.5,1.1c-0.3,0.5-0.5,1-0.5,1.7c0,0.6,0.2,1.1,0.5,1.5c0.3,0.4,0.8,0.7,1.4,0.8
		c0.6,0.2,1.3,0.3,2.2,0.4c0.6,0.1,1.1,0.2,1.4,0.2c0.3,0.1,0.5,0.2,0.6,0.3c0.2,0.1,0.2,0.3,0.2,0.6c0,0.3-0.2,0.6-0.5,0.8
		c-0.3,0.2-0.8,0.3-1.4,0.3c-0.6,0-1.1-0.1-1.5-0.4C238.8,53.9,238.5,53.5,238.5,53.1z"/>
</g>
</svg>
