<?xml version="1.0" encoding="utf-8"?>
<!-- Generator: Adobe Illustrator 26.3.1, SVG Export Plug-In . SVG Version: 6.00 Build 0)  -->
<svg version="1.1" id="katman_1" xmlns="http://www.w3.org/2000/svg" xmlns:xlink="http://www.w3.org/1999/xlink" x="0px" y="0px"
	 viewBox="0 0 300 100" style="enable-background:new 0 0 300 100;" xml:space="preserve">
<style type="text/css">
	.st0{fill:#9B7F0A;}
	.st1{fill-rule:evenodd;clip-rule:evenodd;fill:#9B7F0A;}
</style>
<path class="st0" d="M65.2,48.1c0.4,0,0.7,0.1,0.9,0.4l6.7,6.7c0.6,0.6,1.5,0.6,2.1,0l6.7-6.7c0.2-0.2,0.6-0.4,0.9-0.4
	c1.2,0,1.8,1.4,0.9,2.3L75,59c-0.6,0.6-1.5,0.6-2.1,0l-8.6-8.6C63.5,49.5,64.1,48.1,65.2,48.1z M73.6,51.1c-0.4,0-0.7-0.1-0.9-0.4
	L66,43.9c-0.6-0.6-1.5-0.6-2.1,0l-6.7,6.7c-0.2,0.2-0.6,0.4-0.9,0.4c-1.2,0-1.8-1.4-0.9-2.3l8.6-8.6c0.6-0.6,1.5-0.6,2.1,0l8.6,8.6
	C75.4,49.7,74.8,51.1,73.6,51.1z"/>
<path class="st1" d="M65.2,48.1c0.4,0,0.7,0.1,0.9,0.4l6.7,6.7c0.6,0.6,1.5,0.6,2.1,0l6.7-6.7c0.2-0.2,0.6-0.4,0.9-0.4
	c1.2,0,1.8,1.4,0.9,2.3L75,59c-0.6,0.6-1.5,0.6-2.1,0l-8.6-8.6C63.5,49.5,64.1,48.1,65.2,48.1z M73.6,51.1c-0.4,0-0.7-0.1-0.9-0.4
	L66,43.9c-0.6-0.6-1.5-0.6-2.1,0l-6.7,6.7c-0.2,0.2-0.6,0.4-0.9,0.4c-1.2,0-1.8-1.4-0.9-2.3l8.6-8.6c0.6-0.6,1.5-0.6,2.1,0l8.6,8.6
	C75.4,49.7,74.8,51.1,73.6,51.1z"/>
<path class="st1" d="M65.2,48.1c0.4,0,0.7,0.1,0.9,0.4l6.7,6.7c0.6,0.6,1.5,0.6,2.1,0l6.7-6.7c0.2-0.2,0.6-0.4,0.9-0.4
	c1.2,0,1.8,1.4,0.9,2.3L75,59c-0.6,0.6-1.5,0.6-2.1,0l-8.6-8.6C63.5,49.5,64.1,48.1,65.2,48.1z M73.6,51.1c-0.4,0-0.7-0.1-0.9-0.4
	L66,43.9c-0.6-0.6-1.5-0.6-2.1,0l-6.7,6.7c-0.2,0.2-0.6,0.4-0.9,0.4c-1.2,0-1.8-1.4-0.9-2.3l8.6-8.6c0.6-0.6,1.5-0.6,2.1,0l8.6,8.6
	C75.4,49.7,74.8,51.1,73.6,51.1z"/>
<path class="st0" d="M99.2,55.5h-0.5c-0.4,0-0.7-0.2-0.7-0.7v-4.2c0-1.1-0.3-2-1-2.6c-0.7-0.6-1.7-0.9-2.9-0.9
	c-1.2,0-2.2,0.3-2.9,0.8c-0.7,0.5-1.2,1.3-1.3,2.3h1.6c0.1-0.5,0.4-0.9,0.8-1.2c0.4-0.3,1-0.5,1.7-0.5c0.8,0,1.4,0.2,1.8,0.5
	c0.4,0.4,0.7,0.9,0.7,1.5v0.7h-2.9c-1.3,0-2.3,0.3-3,0.8c-0.7,0.5-1,1.3-1,2.3c0,0.9,0.3,1.6,1,2.1c0.7,0.5,1.5,0.8,2.6,0.8
	c1.4,0,2.5-0.5,3.3-1.6c0,0.5,0.2,0.9,0.4,1.1c0.3,0.3,0.7,0.4,1.4,0.4h0.9V55.5z M96.5,52.4v0.5c0,0.8-0.3,1.5-0.8,2
	c-0.6,0.5-1.3,0.8-2.3,0.8c-0.7,0-1.2-0.1-1.6-0.4c-0.4-0.3-0.6-0.7-0.6-1.2c0-1.1,0.7-1.6,2.2-1.6H96.5z M100.6,43.4v13.5h1.6V43.4
	H100.6z M111.9,56.1c0.8-0.6,1.2-1.5,1.4-2.6h-1.6c-0.2,0.7-0.5,1.2-0.9,1.5c-0.5,0.4-1.1,0.6-1.8,0.6c-0.9,0-1.7-0.3-2.3-1
	c-0.6-0.7-0.9-1.6-0.9-2.6c0-1.1,0.3-1.9,0.9-2.6c0.6-0.7,1.4-1,2.3-1c0.7,0,1.3,0.2,1.8,0.6c0.5,0.4,0.8,0.9,1,1.5h1.6
	c-0.2-1.1-0.7-1.9-1.4-2.5c-0.8-0.6-1.7-0.9-2.9-0.9c-1,0-1.8,0.2-2.5,0.6c-0.7,0.4-1.3,1-1.7,1.8c-0.4,0.8-0.6,1.6-0.6,2.6
	c0,1,0.2,1.9,0.6,2.6c0.4,0.8,0.9,1.4,1.7,1.8c0.7,0.4,1.5,0.6,2.5,0.6C110.2,57,111.1,56.7,111.9,56.1z M123.1,48
	c-0.7-0.7-1.7-1.1-2.9-1.1c-0.8,0-1.4,0.2-2,0.5c-0.5,0.3-1,0.8-1.3,1.3v-5.3h-1.6v13.5h1.6V52c0-1.1,0.3-2,0.8-2.6
	c0.5-0.6,1.3-1,2.2-1c0.8,0,1.5,0.3,2,0.8c0.5,0.5,0.7,1.3,0.7,2.3v5.4h1.6v-5.5C124.2,49.9,123.8,48.8,123.1,48z M126.6,49.3
	c-0.4,0.8-0.6,1.6-0.6,2.6s0.2,1.9,0.6,2.6c0.4,0.8,1,1.4,1.7,1.8c0.7,0.4,1.6,0.6,2.6,0.6c1.1,0,2.1-0.3,2.8-0.9
	c0.8-0.6,1.3-1.5,1.4-2.5h-1.6c-0.2,0.6-0.5,1.1-1,1.5c-0.5,0.3-1.1,0.5-1.8,0.5c-0.9,0-1.7-0.3-2.2-0.9c-0.6-0.6-0.9-1.4-0.9-2.3
	v-0.1h7.6c0-0.3,0-0.5,0-0.7c0-0.9-0.3-1.8-0.6-2.5c-0.4-0.7-0.9-1.2-1.6-1.6c-0.7-0.4-1.5-0.6-2.4-0.6c-0.9,0-1.7,0.2-2.4,0.6
	C127.6,48,127,48.6,126.6,49.3z M133.7,51h-5.9c0.1-0.8,0.4-1.4,1-1.9c0.6-0.5,1.2-0.7,2-0.7c0.8,0,1.5,0.2,2.1,0.7
	C133.3,49.5,133.7,50.2,133.7,51z M151,48c-0.7-0.7-1.6-1-2.7-1c-1.6,0-2.7,0.6-3.4,1.9c-0.3-0.6-0.7-1.1-1.2-1.4
	c-0.5-0.3-1.2-0.5-1.9-0.5c-1.2,0-2.2,0.5-2.9,1.5l-0.2-1.4h-1.4v9.8h1.6v-5.2c0-1,0.2-1.8,0.7-2.4c0.5-0.6,1.1-0.9,1.9-0.9
	c0.8,0,1.3,0.3,1.8,0.8c0.4,0.5,0.6,1.2,0.6,2.2v5.6h1.6v-5.3c0-1,0.2-1.8,0.7-2.4c0.5-0.6,1.1-0.9,1.9-0.9c0.7,0,1.3,0.3,1.7,0.8
	c0.4,0.5,0.6,1.2,0.6,2.2v5.6h1.6v-5.7C152.1,49.8,151.7,48.7,151,48z M154.7,47.1H153l3.9,9.9l-0.5,1.2c-0.2,0.3-0.3,0.6-0.4,0.8
	c-0.1,0.2-0.2,0.3-0.4,0.3c-0.2,0.1-0.4,0.1-0.7,0.1h-1.4v1.4h1.9c0.4,0,0.8-0.1,1.1-0.2c0.3-0.1,0.5-0.3,0.7-0.7
	c0.2-0.3,0.4-0.7,0.6-1.3l4.5-11.5h-1.7l-2.9,8L154.7,47.1z"/>
<path class="st0" d="M99.2,55.5h-0.5c-0.4,0-0.7-0.2-0.7-0.7v-4.2c0-1.1-0.3-2-1-2.6c-0.7-0.6-1.7-0.9-2.9-0.9
	c-1.2,0-2.2,0.3-2.9,0.8c-0.7,0.5-1.2,1.3-1.3,2.3h1.6c0.1-0.5,0.4-0.9,0.8-1.2c0.4-0.3,1-0.5,1.7-0.5c0.8,0,1.4,0.2,1.8,0.5
	c0.4,0.4,0.7,0.9,0.7,1.5v0.7h-2.9c-1.3,0-2.3,0.3-3,0.8c-0.7,0.5-1,1.3-1,2.3c0,0.9,0.3,1.6,1,2.1c0.7,0.5,1.5,0.8,2.6,0.8
	c1.4,0,2.5-0.5,3.3-1.6c0,0.5,0.2,0.9,0.4,1.1c0.3,0.3,0.7,0.4,1.4,0.4h0.9V55.5z M96.5,52.4v0.5c0,0.8-0.3,1.5-0.8,2
	c-0.6,0.5-1.3,0.8-2.3,0.8c-0.7,0-1.2-0.1-1.6-0.4c-0.4-0.3-0.6-0.7-0.6-1.2c0-1.1,0.7-1.6,2.2-1.6H96.5z M100.6,43.4v13.5h1.6V43.4
	H100.6z M111.9,56.1c0.8-0.6,1.2-1.5,1.4-2.6h-1.6c-0.2,0.7-0.5,1.2-0.9,1.5c-0.5,0.4-1.1,0.6-1.8,0.6c-0.9,0-1.7-0.3-2.3-1
	c-0.6-0.7-0.9-1.6-0.9-2.6c0-1.1,0.3-1.9,0.9-2.6c0.6-0.7,1.4-1,2.3-1c0.7,0,1.3,0.2,1.8,0.6c0.5,0.4,0.8,0.9,1,1.5h1.6
	c-0.2-1.1-0.7-1.9-1.4-2.5c-0.8-0.6-1.7-0.9-2.9-0.9c-1,0-1.8,0.2-2.5,0.6c-0.7,0.4-1.3,1-1.7,1.8c-0.4,0.8-0.6,1.6-0.6,2.6
	c0,1,0.2,1.9,0.6,2.6c0.4,0.8,0.9,1.4,1.7,1.8c0.7,0.4,1.5,0.6,2.5,0.6C110.2,57,111.1,56.7,111.9,56.1z M123.1,48
	c-0.7-0.7-1.7-1.1-2.9-1.1c-0.8,0-1.4,0.2-2,0.5c-0.5,0.3-1,0.8-1.3,1.3v-5.3h-1.6v13.5h1.6V52c0-1.1,0.3-2,0.8-2.6
	c0.5-0.6,1.3-1,2.2-1c0.8,0,1.5,0.3,2,0.8c0.5,0.5,0.7,1.3,0.7,2.3v5.4h1.6v-5.5C124.2,49.9,123.8,48.8,123.1,48z M126.6,49.3
	c-0.4,0.8-0.6,1.6-0.6,2.6s0.2,1.9,0.6,2.6c0.4,0.8,1,1.4,1.7,1.8c0.7,0.4,1.6,0.6,2.6,0.6c1.1,0,2.1-0.3,2.8-0.9
	c0.8-0.6,1.3-1.5,1.4-2.5h-1.6c-0.2,0.6-0.5,1.1-1,1.5c-0.5,0.3-1.1,0.5-1.8,0.5c-0.9,0-1.7-0.3-2.2-0.9c-0.6-0.6-0.9-1.4-0.9-2.3
	v-0.1h7.6c0-0.3,0-0.5,0-0.7c0-0.9-0.3-1.8-0.6-2.5c-0.4-0.7-0.9-1.2-1.6-1.6c-0.7-0.4-1.5-0.6-2.4-0.6c-0.9,0-1.7,0.2-2.4,0.6
	C127.6,48,127,48.6,126.6,49.3z M133.7,51h-5.9c0.1-0.8,0.4-1.4,1-1.9c0.6-0.5,1.2-0.7,2-0.7c0.8,0,1.5,0.2,2.1,0.7
	C133.3,49.5,133.7,50.2,133.7,51z M151,48c-0.7-0.7-1.6-1-2.7-1c-1.6,0-2.7,0.6-3.4,1.9c-0.3-0.6-0.7-1.1-1.2-1.4
	c-0.5-0.3-1.2-0.5-1.9-0.5c-1.2,0-2.2,0.5-2.9,1.5l-0.2-1.4h-1.4v9.8h1.6v-5.2c0-1,0.2-1.8,0.7-2.4c0.5-0.6,1.1-0.9,1.9-0.9
	c0.8,0,1.3,0.3,1.8,0.8c0.4,0.5,0.6,1.2,0.6,2.2v5.6h1.6v-5.3c0-1,0.2-1.8,0.7-2.4c0.5-0.6,1.1-0.9,1.9-0.9c0.7,0,1.3,0.3,1.7,0.8
	c0.4,0.5,0.6,1.2,0.6,2.2v5.6h1.6v-5.7C152.1,49.8,151.7,48.7,151,48z M154.7,47.1H153l3.9,9.9l-0.5,1.2c-0.2,0.3-0.3,0.6-0.4,0.8
	c-0.1,0.2-0.2,0.3-0.4,0.3c-0.2,0.1-0.4,0.1-0.7,0.1h-1.4v1.4h1.9c0.4,0,0.8-0.1,1.1-0.2c0.3-0.1,0.5-0.3,0.7-0.7
	c0.2-0.3,0.4-0.7,0.6-1.3l4.5-11.5h-1.7l-2.9,8L154.7,47.1z"/>
<path class="st0" d="M99.2,55.5h-0.5c-0.4,0-0.7-0.2-0.7-0.7v-4.2c0-1.1-0.3-2-1-2.6c-0.7-0.6-1.7-0.9-2.9-0.9
	c-1.2,0-2.2,0.3-2.9,0.8c-0.7,0.5-1.2,1.3-1.3,2.3h1.6c0.1-0.5,0.4-0.9,0.8-1.2c0.4-0.3,1-0.5,1.7-0.5c0.8,0,1.4,0.2,1.8,0.5
	c0.4,0.4,0.7,0.9,0.7,1.5v0.7h-2.9c-1.3,0-2.3,0.3-3,0.8c-0.7,0.5-1,1.3-1,2.3c0,0.9,0.3,1.6,1,2.1c0.7,0.5,1.5,0.8,2.6,0.8
	c1.4,0,2.5-0.5,3.3-1.6c0,0.5,0.2,0.9,0.4,1.1c0.3,0.3,0.7,0.4,1.4,0.4h0.9V55.5z M96.5,52.4v0.5c0,0.8-0.3,1.5-0.8,2
	c-0.6,0.5-1.3,0.8-2.3,0.8c-0.7,0-1.2-0.1-1.6-0.4c-0.4-0.3-0.6-0.7-0.6-1.2c0-1.1,0.7-1.6,2.2-1.6H96.5z M100.6,43.4v13.5h1.6V43.4
	H100.6z M111.9,56.1c0.8-0.6,1.2-1.5,1.4-2.6h-1.6c-0.2,0.7-0.5,1.2-0.9,1.5c-0.5,0.4-1.1,0.6-1.8,0.6c-0.9,0-1.7-0.3-2.3-1
	c-0.6-0.7-0.9-1.6-0.9-2.6c0-1.1,0.3-1.9,0.9-2.6c0.6-0.7,1.4-1,2.3-1c0.7,0,1.3,0.2,1.8,0.6c0.5,0.4,0.8,0.9,1,1.5h1.6
	c-0.2-1.1-0.7-1.9-1.4-2.5c-0.8-0.6-1.7-0.9-2.9-0.9c-1,0-1.8,0.2-2.5,0.6c-0.7,0.4-1.3,1-1.7,1.8c-0.4,0.8-0.6,1.6-0.6,2.6
	c0,1,0.2,1.9,0.6,2.6c0.4,0.8,0.9,1.4,1.7,1.8c0.7,0.4,1.5,0.6,2.5,0.6C110.2,57,111.1,56.7,111.9,56.1z M123.1,48
	c-0.7-0.7-1.7-1.1-2.9-1.1c-0.8,0-1.4,0.2-2,0.5c-0.5,0.3-1,0.8-1.3,1.3v-5.3h-1.6v13.5h1.6V52c0-1.1,0.3-2,0.8-2.6
	c0.5-0.6,1.3-1,2.2-1c0.8,0,1.5,0.3,2,0.8c0.5,0.5,0.7,1.3,0.7,2.3v5.4h1.6v-5.5C124.2,49.9,123.8,48.8,123.1,48z M126.6,49.3
	c-0.4,0.8-0.6,1.6-0.6,2.6s0.2,1.9,0.6,2.6c0.4,0.8,1,1.4,1.7,1.8c0.7,0.4,1.6,0.6,2.6,0.6c1.1,0,2.1-0.3,2.8-0.9
	c0.8-0.6,1.3-1.5,1.4-2.5h-1.6c-0.2,0.6-0.5,1.1-1,1.5c-0.5,0.3-1.1,0.5-1.8,0.5c-0.9,0-1.7-0.3-2.2-0.9c-0.6-0.6-0.9-1.4-0.9-2.3
	v-0.1h7.6c0-0.3,0-0.5,0-0.7c0-0.9-0.3-1.8-0.6-2.5c-0.4-0.7-0.9-1.2-1.6-1.6c-0.7-0.4-1.5-0.6-2.4-0.6c-0.9,0-1.7,0.2-2.4,0.6
	C127.6,48,127,48.6,126.6,49.3z M133.7,51h-5.9c0.1-0.8,0.4-1.4,1-1.9c0.6-0.5,1.2-0.7,2-0.7c0.8,0,1.5,0.2,2.1,0.7
	C133.3,49.5,133.7,50.2,133.7,51z M151,48c-0.7-0.7-1.6-1-2.7-1c-1.6,0-2.7,0.6-3.4,1.9c-0.3-0.6-0.7-1.1-1.2-1.4
	c-0.5-0.3-1.2-0.5-1.9-0.5c-1.2,0-2.2,0.5-2.9,1.5l-0.2-1.4h-1.4v9.8h1.6v-5.2c0-1,0.2-1.8,0.7-2.4c0.5-0.6,1.1-0.9,1.9-0.9
	c0.8,0,1.3,0.3,1.8,0.8c0.4,0.5,0.6,1.2,0.6,2.2v5.6h1.6v-5.3c0-1,0.2-1.8,0.7-2.4c0.5-0.6,1.1-0.9,1.9-0.9c0.7,0,1.3,0.3,1.7,0.8
	c0.4,0.5,0.6,1.2,0.6,2.2v5.6h1.6v-5.7C152.1,49.8,151.7,48.7,151,48z M154.7,47.1H153l3.9,9.9l-0.5,1.2c-0.2,0.3-0.3,0.6-0.4,0.8
	c-0.1,0.2-0.2,0.3-0.4,0.3c-0.2,0.1-0.4,0.1-0.7,0.1h-1.4v1.4h1.9c0.4,0,0.8-0.1,1.1-0.2c0.3-0.1,0.5-0.3,0.7-0.7
	c0.2-0.3,0.4-0.7,0.6-1.3l4.5-11.5h-1.7l-2.9,8L154.7,47.1z"/>
<path class="st0" d="M165,43.6l4.6,13.5h3.5l4.6-13.5h-3l-3.3,10l-3.2-10H165z M177.9,49.5c-0.4,0.8-0.6,1.7-0.6,2.7
	c0,1,0.2,1.9,0.6,2.7c0.4,0.8,1,1.4,1.9,1.8c0.8,0.4,1.8,0.6,2.9,0.6c0.8,0,1.6-0.1,2.3-0.4c0.7-0.3,1.2-0.7,1.6-1.3
	c0.4-0.5,0.6-1.1,0.8-1.8h-2.7c-0.1,0.5-0.4,0.8-0.7,1.1c-0.4,0.2-0.8,0.3-1.4,0.3c-0.7,0-1.3-0.2-1.6-0.6c-0.4-0.4-0.6-1-0.7-1.7
	v-0.1h7.2c0-0.3,0.1-0.6,0.1-0.9c0-1-0.2-1.8-0.7-2.5c-0.4-0.7-1-1.3-1.8-1.7c-0.8-0.4-1.6-0.6-2.6-0.6c-1,0-1.9,0.2-2.6,0.6
	C178.9,48.1,178.3,48.7,177.9,49.5z M184.7,51h-4.5c0.1-0.6,0.3-1,0.7-1.4c0.4-0.3,0.9-0.5,1.5-0.5c0.6,0,1.1,0.2,1.5,0.5
	C184.3,49.9,184.6,50.4,184.7,51z M197.6,48.1c-0.8-0.7-1.7-1.1-2.9-1.1c-0.7,0-1.3,0.1-1.8,0.4c-0.5,0.2-0.9,0.6-1.3,1l-0.3-1.2
	h-2.4v9.9h2.7V52c0-0.8,0.2-1.5,0.6-2c0.4-0.5,0.9-0.7,1.6-0.7c1.3,0,2,0.9,2,2.6v5.2h2.7v-5.4C198.7,50.1,198.3,48.9,197.6,48.1z
	 M201.3,49.5v4.8c0,1.9,0.9,2.8,2.8,2.8h2.3v-2.3H205c-0.3,0-0.6-0.1-0.8-0.2c-0.2-0.2-0.2-0.4-0.2-0.8v-4.3h2.3v-2.3H204v-2.8h-2.7
	v2.8h-1.6v2.3H201.3z M217,47.2h-2.7v4.9c0,0.9-0.2,1.6-0.6,2.1c-0.4,0.5-0.9,0.8-1.6,0.8c-0.7,0-1.2-0.2-1.5-0.7
	c-0.3-0.5-0.5-1.1-0.5-2v-5.1h-2.7v5.4c0,1.7,0.4,2.9,1.1,3.6c0.7,0.7,1.7,1.1,2.8,1.1c0.7,0,1.2-0.1,1.7-0.3c0.5-0.2,0.9-0.5,1.2-1
	l0.3,1.2h2.4V47.2z M225.2,47.2h-0.5c-0.7,0-1.3,0.1-1.8,0.4c-0.4,0.3-0.8,0.6-1.1,1.1l-0.2-1.5h-2.5v9.9h2.7v-4.9
	c0-0.8,0.2-1.4,0.5-1.9c0.3-0.5,0.9-0.7,1.7-0.7h1.1V47.2z M226.5,49.5c-0.4,0.8-0.6,1.7-0.6,2.7c0,1,0.2,1.9,0.6,2.7
	c0.4,0.8,1,1.4,1.9,1.8c0.8,0.4,1.8,0.6,2.9,0.6c0.8,0,1.6-0.1,2.3-0.4c0.7-0.3,1.2-0.7,1.6-1.3c0.4-0.5,0.6-1.1,0.8-1.8h-2.7
	c-0.1,0.5-0.4,0.8-0.7,1.1c-0.4,0.2-0.8,0.3-1.4,0.3c-0.7,0-1.3-0.2-1.6-0.6c-0.4-0.4-0.6-1-0.7-1.7v-0.1h7.2c0-0.3,0.1-0.6,0.1-0.9
	c0-1-0.3-1.8-0.7-2.5c-0.4-0.7-1-1.3-1.8-1.7c-0.8-0.4-1.6-0.6-2.6-0.6c-1,0-1.9,0.2-2.6,0.6C227.5,48.1,226.9,48.7,226.5,49.5z
	 M233.3,51h-4.5c0.1-0.6,0.3-1,0.7-1.4c0.4-0.3,0.9-0.5,1.5-0.5c0.6,0,1.1,0.2,1.5,0.5C232.9,49.9,233.2,50.4,233.3,51z M239.8,53.8
	h-2.6c0,1.1,0.5,1.9,1.4,2.5c0.8,0.6,2,0.9,3.4,0.9c0.9,0,1.7-0.1,2.3-0.4c0.7-0.3,1.2-0.6,1.6-1.1c0.4-0.5,0.6-1,0.6-1.7
	c0-1-0.4-1.7-1.1-2.1s-1.7-0.7-3.1-0.9c-0.6-0.1-1.1-0.1-1.3-0.2c-0.3,0-0.5-0.1-0.7-0.3c-0.2-0.1-0.3-0.3-0.3-0.5
	c0-0.3,0.2-0.6,0.5-0.8s0.7-0.3,1.3-0.3c0.5,0,1,0.1,1.4,0.4c0.3,0.2,0.6,0.5,0.6,0.9h2.6c-0.1-1-0.5-1.8-1.3-2.4
	c-0.8-0.6-1.9-0.8-3.3-0.9c-0.8,0-1.6,0.1-2.2,0.4c-0.7,0.3-1.2,0.7-1.5,1.2s-0.5,1.1-0.5,1.7c0,0.7,0.2,1.2,0.5,1.5
	s0.8,0.7,1.4,0.8c0.6,0.2,1.3,0.3,2.2,0.4c0.6,0.1,1.1,0.2,1.4,0.2c0.3,0.1,0.5,0.2,0.7,0.3c0.2,0.1,0.2,0.3,0.2,0.6
	c0,0.3-0.2,0.6-0.5,0.8c-0.3,0.2-0.8,0.3-1.4,0.3c-0.6,0-1.1-0.1-1.5-0.4S239.8,54.2,239.8,53.8z"/>
<path class="st0" d="M165,43.6l4.6,13.5h3.5l4.6-13.5h-3l-3.3,10l-3.2-10H165z M177.9,49.5c-0.4,0.8-0.6,1.7-0.6,2.7
	c0,1,0.2,1.9,0.6,2.7c0.4,0.8,1,1.4,1.9,1.8c0.8,0.4,1.8,0.6,2.9,0.6c0.8,0,1.6-0.1,2.3-0.4c0.7-0.3,1.2-0.7,1.6-1.3
	c0.4-0.5,0.6-1.1,0.8-1.8h-2.7c-0.1,0.5-0.4,0.8-0.7,1.1c-0.4,0.2-0.8,0.3-1.4,0.3c-0.7,0-1.3-0.2-1.6-0.6c-0.4-0.4-0.6-1-0.7-1.7
	v-0.1h7.2c0-0.3,0.1-0.6,0.1-0.9c0-1-0.2-1.8-0.7-2.5c-0.4-0.7-1-1.3-1.8-1.7c-0.8-0.4-1.6-0.6-2.6-0.6c-1,0-1.9,0.2-2.6,0.6
	C178.9,48.1,178.3,48.7,177.9,49.5z M184.7,51h-4.5c0.1-0.6,0.3-1,0.7-1.4c0.4-0.3,0.9-0.5,1.5-0.5c0.6,0,1.1,0.2,1.5,0.5
	C184.3,49.9,184.6,50.4,184.7,51z M197.6,48.1c-0.8-0.7-1.7-1.1-2.9-1.1c-0.7,0-1.3,0.1-1.8,0.4c-0.5,0.2-0.9,0.6-1.3,1l-0.3-1.2
	h-2.4v9.9h2.7V52c0-0.8,0.2-1.5,0.6-2c0.4-0.5,0.9-0.7,1.6-0.7c1.3,0,2,0.9,2,2.6v5.2h2.7v-5.4C198.7,50.1,198.3,48.9,197.6,48.1z
	 M201.3,49.5v4.8c0,1.9,0.9,2.8,2.8,2.8h2.3v-2.3H205c-0.3,0-0.6-0.1-0.8-0.2c-0.2-0.2-0.2-0.4-0.2-0.8v-4.3h2.3v-2.3H204v-2.8h-2.7
	v2.8h-1.6v2.3H201.3z M217,47.2h-2.7v4.9c0,0.9-0.2,1.6-0.6,2.1c-0.4,0.5-0.9,0.8-1.6,0.8c-0.7,0-1.2-0.2-1.5-0.7
	c-0.3-0.5-0.5-1.1-0.5-2v-5.1h-2.7v5.4c0,1.7,0.4,2.9,1.1,3.6c0.7,0.7,1.7,1.1,2.8,1.1c0.7,0,1.2-0.1,1.7-0.3c0.5-0.2,0.9-0.5,1.2-1
	l0.3,1.2h2.4V47.2z M225.2,47.2h-0.5c-0.7,0-1.3,0.1-1.8,0.4c-0.4,0.3-0.8,0.6-1.1,1.1l-0.2-1.5h-2.5v9.9h2.7v-4.9
	c0-0.8,0.2-1.4,0.5-1.9c0.3-0.5,0.9-0.7,1.7-0.7h1.1V47.2z M226.5,49.5c-0.4,0.8-0.6,1.7-0.6,2.7c0,1,0.2,1.9,0.6,2.7
	c0.4,0.8,1,1.4,1.9,1.8c0.8,0.4,1.8,0.6,2.9,0.6c0.8,0,1.6-0.1,2.3-0.4c0.7-0.3,1.2-0.7,1.6-1.3c0.4-0.5,0.6-1.1,0.8-1.8h-2.7
	c-0.1,0.5-0.4,0.8-0.7,1.1c-0.4,0.2-0.8,0.3-1.4,0.3c-0.7,0-1.3-0.2-1.6-0.6c-0.4-0.4-0.6-1-0.7-1.7v-0.1h7.2c0-0.3,0.1-0.6,0.1-0.9
	c0-1-0.3-1.8-0.7-2.5c-0.4-0.7-1-1.3-1.8-1.7c-0.8-0.4-1.6-0.6-2.6-0.6c-1,0-1.9,0.2-2.6,0.6C227.5,48.1,226.9,48.7,226.5,49.5z
	 M233.3,51h-4.5c0.1-0.6,0.3-1,0.7-1.4c0.4-0.3,0.9-0.5,1.5-0.5c0.6,0,1.1,0.2,1.5,0.5C232.9,49.9,233.2,50.4,233.3,51z M239.8,53.8
	h-2.6c0,1.1,0.5,1.9,1.4,2.5c0.8,0.6,2,0.9,3.4,0.9c0.9,0,1.7-0.1,2.3-0.4c0.7-0.3,1.2-0.6,1.6-1.1c0.4-0.5,0.6-1,0.6-1.7
	c0-1-0.4-1.7-1.1-2.1s-1.7-0.7-3.1-0.9c-0.6-0.1-1.1-0.1-1.3-0.2c-0.3,0-0.5-0.1-0.7-0.3c-0.2-0.1-0.3-0.3-0.3-0.5
	c0-0.3,0.2-0.6,0.5-0.8s0.7-0.3,1.3-0.3c0.5,0,1,0.1,1.4,0.4c0.3,0.2,0.6,0.5,0.6,0.9h2.6c-0.1-1-0.5-1.8-1.3-2.4
	c-0.8-0.6-1.9-0.8-3.3-0.9c-0.8,0-1.6,0.1-2.2,0.4c-0.7,0.3-1.2,0.7-1.5,1.2s-0.5,1.1-0.5,1.7c0,0.7,0.2,1.2,0.5,1.5
	s0.8,0.7,1.4,0.8c0.6,0.2,1.3,0.3,2.2,0.4c0.6,0.1,1.1,0.2,1.4,0.2c0.3,0.1,0.5,0.2,0.7,0.3c0.2,0.1,0.2,0.3,0.2,0.6
	c0,0.3-0.2,0.6-0.5,0.8c-0.3,0.2-0.8,0.3-1.4,0.3c-0.6,0-1.1-0.1-1.5-0.4S239.8,54.2,239.8,53.8z"/>
<path class="st0" d="M165,43.6l4.6,13.5h3.5l4.6-13.5h-3l-3.3,10l-3.2-10H165z M177.9,49.5c-0.4,0.8-0.6,1.7-0.6,2.7
	c0,1,0.2,1.9,0.6,2.7c0.4,0.8,1,1.4,1.9,1.8c0.8,0.4,1.8,0.6,2.9,0.6c0.8,0,1.6-0.1,2.3-0.4c0.7-0.3,1.2-0.7,1.6-1.3
	c0.4-0.5,0.6-1.1,0.8-1.8h-2.7c-0.1,0.5-0.4,0.8-0.7,1.1c-0.4,0.2-0.8,0.3-1.4,0.3c-0.7,0-1.3-0.2-1.6-0.6c-0.4-0.4-0.6-1-0.7-1.7
	v-0.1h7.2c0-0.3,0.1-0.6,0.1-0.9c0-1-0.2-1.8-0.7-2.5c-0.4-0.7-1-1.3-1.8-1.7c-0.8-0.4-1.6-0.6-2.6-0.6c-1,0-1.9,0.2-2.6,0.6
	C178.9,48.1,178.3,48.7,177.9,49.5z M184.7,51h-4.5c0.1-0.6,0.3-1,0.7-1.4c0.4-0.3,0.9-0.5,1.5-0.5c0.6,0,1.1,0.2,1.5,0.5
	C184.3,49.9,184.6,50.4,184.7,51z M197.6,48.1c-0.8-0.7-1.7-1.1-2.9-1.1c-0.7,0-1.3,0.1-1.8,0.4c-0.5,0.2-0.9,0.6-1.3,1l-0.3-1.2
	h-2.4v9.9h2.7V52c0-0.8,0.2-1.5,0.6-2c0.4-0.5,0.9-0.7,1.6-0.7c1.3,0,2,0.9,2,2.6v5.2h2.7v-5.4C198.7,50.1,198.3,48.9,197.6,48.1z
	 M201.3,49.5v4.8c0,1.9,0.9,2.8,2.8,2.8h2.3v-2.3H205c-0.3,0-0.6-0.1-0.8-0.2c-0.2-0.2-0.2-0.4-0.2-0.8v-4.3h2.3v-2.3H204v-2.8h-2.7
	v2.8h-1.6v2.3H201.3z M217,47.2h-2.7v4.9c0,0.9-0.2,1.6-0.6,2.1c-0.4,0.5-0.9,0.8-1.6,0.8c-0.7,0-1.2-0.2-1.5-0.7
	c-0.3-0.5-0.5-1.1-0.5-2v-5.1h-2.7v5.4c0,1.7,0.4,2.9,1.1,3.6c0.7,0.7,1.7,1.1,2.8,1.1c0.7,0,1.2-0.1,1.7-0.3c0.5-0.2,0.9-0.5,1.2-1
	l0.3,1.2h2.4V47.2z M225.2,47.2h-0.5c-0.7,0-1.3,0.1-1.8,0.4c-0.4,0.3-0.8,0.6-1.1,1.1l-0.2-1.5h-2.5v9.9h2.7v-4.9
	c0-0.8,0.2-1.4,0.5-1.9c0.3-0.5,0.9-0.7,1.7-0.7h1.1V47.2z M226.5,49.5c-0.4,0.8-0.6,1.7-0.6,2.7c0,1,0.2,1.9,0.6,2.7
	c0.4,0.8,1,1.4,1.9,1.8c0.8,0.4,1.8,0.6,2.9,0.6c0.8,0,1.6-0.1,2.3-0.4c0.7-0.3,1.2-0.7,1.6-1.3c0.4-0.5,0.6-1.1,0.8-1.8h-2.7
	c-0.1,0.5-0.4,0.8-0.7,1.1c-0.4,0.2-0.8,0.3-1.4,0.3c-0.7,0-1.3-0.2-1.6-0.6c-0.4-0.4-0.6-1-0.7-1.7v-0.1h7.2c0-0.3,0.1-0.6,0.1-0.9
	c0-1-0.3-1.8-0.7-2.5c-0.4-0.7-1-1.3-1.8-1.7c-0.8-0.4-1.6-0.6-2.6-0.6c-1,0-1.9,0.2-2.6,0.6C227.5,48.1,226.9,48.7,226.5,49.5z
	 M233.3,51h-4.5c0.1-0.6,0.3-1,0.7-1.4c0.4-0.3,0.9-0.5,1.5-0.5c0.6,0,1.1,0.2,1.5,0.5C232.9,49.9,233.2,50.4,233.3,51z M239.8,53.8
	h-2.6c0,1.1,0.5,1.9,1.4,2.5c0.8,0.6,2,0.9,3.4,0.9c0.9,0,1.7-0.1,2.3-0.4c0.7-0.3,1.2-0.6,1.6-1.1c0.4-0.5,0.6-1,0.6-1.7
	c0-1-0.4-1.7-1.1-2.1s-1.7-0.7-3.1-0.9c-0.6-0.1-1.1-0.1-1.3-0.2c-0.3,0-0.5-0.1-0.7-0.3c-0.2-0.1-0.3-0.3-0.3-0.5
	c0-0.3,0.2-0.6,0.5-0.8s0.7-0.3,1.3-0.3c0.5,0,1,0.1,1.4,0.4c0.3,0.2,0.6,0.5,0.6,0.9h2.6c-0.1-1-0.5-1.8-1.3-2.4
	c-0.8-0.6-1.9-0.8-3.3-0.9c-0.8,0-1.6,0.1-2.2,0.4c-0.7,0.3-1.2,0.7-1.5,1.2s-0.5,1.1-0.5,1.7c0,0.7,0.2,1.2,0.5,1.5
	s0.8,0.7,1.4,0.8c0.6,0.2,1.3,0.3,2.2,0.4c0.6,0.1,1.1,0.2,1.4,0.2c0.3,0.1,0.5,0.2,0.7,0.3c0.2,0.1,0.2,0.3,0.2,0.6
	c0,0.3-0.2,0.6-0.5,0.8c-0.3,0.2-0.8,0.3-1.4,0.3c-0.6,0-1.1-0.1-1.5-0.4S239.8,54.2,239.8,53.8z"/>
</svg>
