<?xml version="1.0" encoding="utf-8"?>
<!-- Generator: Adobe Illustrator 26.3.1, SVG Export Plug-In . SVG Version: 6.00 Build 0)  -->
<svg version="1.1" id="katman_1" xmlns="http://www.w3.org/2000/svg" xmlns:xlink="http://www.w3.org/1999/xlink" x="0px" y="0px"
	 viewBox="0 0 300 100" style="enable-background:new 0 0 300 100;" xml:space="preserve">
<style type="text/css">
	.st0{fill:#F0B90B;}
	.st1{fill:none;}
</style>
<path class="st0" d="M96.8,50l3-3l3,3l-3,3L96.8,50z"/>
<path class="st0" d="M110.1,42.7l5.1,5.1l3-3l-8.1-8.1l-8.1,8.1l3,3L110.1,42.7L110.1,42.7z"/>
<path class="st0" d="M117.4,50l3-3l3,3l-3,3L117.4,50z"/>
<path class="st0" d="M110.1,57.3l-5.1-5.1l-3,3l8.1,8.1l8.1-8.1l-3-3C115.2,52.1,110.1,57.3,110.1,57.3z"/>
<path class="st0" d="M107.1,50l3-3l3,3l-3,3L107.1,50z"/>
<path class="st0" d="M134.3,50h-4.9V39.7h4.8c2.1,0,3.4,1.1,3.4,2.7v0c0,1.2-0.6,1.8-1.4,2.2c1.2,0.5,1.9,1.1,1.9,2.5v0
	C138.1,49.1,136.6,50,134.3,50z M135.3,42.7c0-0.7-0.5-1.1-1.5-1.1h-2.2v2.2h2.1C134.7,43.9,135.3,43.5,135.3,42.7L135.3,42.7z
	 M135.9,46.9c0-0.7-0.5-1.1-1.7-1.1h-2.6V48h2.7C135.3,48,135.9,47.7,135.9,46.9L135.9,46.9z M140.6,50V39.7h2.3V50L140.6,50z
	 M153.1,50l-5-6.6V50h-2.2V39.7h2.1l4.8,6.3v-6.3h2.2V50L153.1,50z M165.2,50l-0.9-2.3H160L159,50h-2.3l4.4-10.4h2.1l4.4,10.4
	L165.2,50z M162.1,42.3l-1.4,3.3h2.7L162.1,42.3z M176.5,50l-5-6.6V50h-2.2V39.7h2.1l4.8,6.3v-6.3h2.2V50L176.5,50z M185.9,50.2
	c-2.9,0-5.2-2.3-5.3-5.1c0-0.1,0-0.1,0-0.2v0c0-2.9,2.2-5.3,5.4-5.3c1.9,0,3.1,0.6,4.1,1.6l-1.4,1.7c-0.8-0.7-1.6-1.2-2.6-1.2
	c-1.7,0-3,1.4-3,3.2v0c0,1.8,1.2,3.2,3,3.2c1.2,0,1.9-0.5,2.7-1.2l1.4,1.5C189.1,49.5,187.9,50.2,185.9,50.2L185.9,50.2z M191.9,50
	V39.7h7.8v2h-5.5v2.1h4.9v2h-4.9V48h5.6v2L191.9,50z M172.3,53h1.3v6.1h3.8v1.2h-5.1V53z M186.2,60.3h-1.4l-0.7-1.8h-3.4l-0.7,1.8
	h-1.3l3.2-7.3h1.2L186.2,60.3z M182.3,54.5l-1.2,2.9h2.5L182.3,54.5z M193.2,54.9c0,0.9-0.5,1.4-1,1.6c0.9,0.3,1.4,0.8,1.4,1.8
	c0,1.3-1.1,2-2.7,2h-3.4V53h3.3C192.3,53,193.2,53.7,193.2,54.9L193.2,54.9z M191.9,55.1c0-0.6-0.5-0.9-1.3-0.9h-1.8v1.9h1.7
	C191.4,56.1,191.9,55.7,191.9,55.1L191.9,55.1z M192.3,58.1c0-0.6-0.5-1-1.5-1h-2v2h2.1C191.8,59.2,192.3,58.8,192.3,58.1
	L192.3,58.1z M198,56.1c1.5,0.4,2.3,0.9,2.3,2.1c0,1.4-1.1,2.2-2.6,2.2c-1.1,0-2.2-0.4-3-1.2l0.8-0.9c0.7,0.6,1.4,0.9,2.3,0.9
	c0.8,0,1.3-0.4,1.3-0.9c0-0.5-0.3-0.8-1.6-1.1c-1.6-0.4-2.4-0.8-2.4-2.2c0-1.3,1-2.1,2.5-2.1c1,0,1.9,0.3,2.6,0.9l-0.7,1
	c-0.6-0.5-1.3-0.7-2-0.7c-0.7,0-1.2,0.4-1.2,0.9C196.3,55.5,196.6,55.7,198,56.1L198,56.1z M129.4,56h39.9v1.2h-39.9L129.4,56z"/>
<path class="st1" d="M86.4,23.2H213v53.2H86.4V23.2z"/>
</svg>
