<?xml version="1.0" encoding="utf-8"?>
<!-- Generator: Adobe Illustrator 26.3.1, SVG Export Plug-In . SVG Version: 6.00 Build 0)  -->
<svg version="1.1" id="katman_1" xmlns="http://www.w3.org/2000/svg" xmlns:xlink="http://www.w3.org/1999/xlink" x="0px" y="0px"
	 viewBox="0 0 300 100" style="enable-background:new 0 0 300 100;" xml:space="preserve">
<style type="text/css">
	.st0{fill:#00AEE6;}
	.st1{fill:#123962;}
	.st2{fill:#B1D4E5;}
	.st3{fill:#2754BA;}
	.st4{fill:#799EB2;}
</style>
<g id="PIN">
	<g id="logo">
		<g id="Layer_2">
			<g id="Group_85">
				<g id="Layer_1-2">
					<path id="Shape" class="st0" d="M78.1,50.2l-5.9,5.9l7.4,7.4c1.2,1.2,3.1,1.2,4.3,0l7.4-7.4l-5.9-5.9l-3.6-3.7L78.1,50.2z"/>
					<path id="Shape-2" class="st1" d="M72.2,44.3L68.5,48c-1.2,1.2-1.2,3.1,0,4.3c0,0,0,0,0,0l3.8,3.7l5.9-5.9l3.7-3.7l-5.9-5.9
						L72.2,44.3z"/>
					<path id="Shape-3" class="st2" d="M87.7,52.4l3.7,3.7l3.7-3.7c1.2-1.2,1.2-3.1,0-4.3l-1.5-1.5L87.7,52.4z"/>
					<path id="Shape-4" class="st2" d="M85.4,50.2L85.4,50.2l-3.7-3.7l5.9-5.9l0,0l-5.9,5.9L85.4,50.2z"/>
					<path id="Shape-5" class="st3" d="M81.8,46.5l3.7,3.7l2.2,2.2l5.9-5.9l-2.2-2.2l-3.7-3.7L81.8,46.5z"/>
					<path id="Shape-6" class="st4" d="M87.7,40.6l-3.7-3.8c-1.2-1.2-3.1-1.2-4.3,0l-3.7,3.8l5.9,5.9L87.7,40.6z"/>
				</g>
			</g>
		</g>
	</g>
</g>
<g id="Group_86" transform="translate(37.944 6.786)">
	<path id="Path_108" d="M67.6,49.8V36.2h7.7c2.7,0,4,1.8,4,3.5c0.1,1.5-0.9,2.8-2.3,3.1c1.6,0.3,2.7,1.7,2.6,3.3c0,2-1.3,3.7-4,3.7
		L67.6,49.8z M75.7,40.3c0-0.6-0.5-1.1-1.1-1.1c0,0-0.1,0-0.1,0h-3.4v2.3h3.4c0.6,0,1.1-0.4,1.2-1C75.7,40.4,75.7,40.3,75.7,40.3
		L75.7,40.3z M75.9,45.6c0-0.7-0.5-1.2-1.2-1.2c0,0-0.1,0-0.1,0h-3.5v2.4h3.5c0.7,0.1,1.3-0.4,1.3-1.1
		C75.9,45.7,75.9,45.7,75.9,45.6L75.9,45.6z"/>
	<path id="Path_109" d="M81.4,49.8V36.2h3.5v10.5h5.5v3.1H81.4z"/>
	<path id="Path_110" d="M91,43c-0.1-3.8,3-7,6.8-7c0.2,0,0.3,0,0.5,0c3.8-0.2,7,2.7,7.2,6.5c0,0.2,0,0.3,0,0.5c0.1,3.8-2.9,7-6.7,7
		c-0.2,0-0.3,0-0.5,0c-3.8,0.2-7.1-2.7-7.3-6.5C91,43.3,91,43.2,91,43z M101.9,43c0.1-2-1.4-3.8-3.4-3.9c-0.1,0-0.2,0-0.3,0
		c-2,0-3.7,1.6-3.7,3.6c0,0.1,0,0.2,0,0.3c-0.1,2,1.4,3.8,3.4,3.9c0.1,0,0.2,0,0.3,0c2,0,3.7-1.6,3.7-3.6
		C101.9,43.2,101.9,43.1,101.9,43z"/>
	<path id="Path_111" d="M106.6,43c0-4.2,3.2-7,7.3-7c2.5-0.1,4.9,1.3,5.9,3.6l-3,1.4c-0.5-1.2-1.6-1.9-2.9-2c-2.1,0-3.8,1.6-3.8,3.7
		c0,0.1,0,0.1,0,0.2c-0.1,2.1,1.5,3.8,3.6,3.9c0.1,0,0.1,0,0.2,0c1.3,0,2.4-0.8,2.9-2l3,1.4c-1.1,2.3-3.4,3.7-5.9,3.6
		C109.7,50,106.6,47.2,106.6,43z"/>
	<path id="Path_112" d="M129.3,49.8l-3.6-5.1l-0.9,1.1v4h-3.5V36.2h3.5v5.6l4.2-5.6h4.3l-5.3,6.3l5.6,7.2L129.3,49.8z"/>
	<path id="Path_113" d="M133.1,43c0-4.2,3.2-7,7.3-7c2.5-0.1,4.9,1.3,5.9,3.6l-3,1.4c-0.5-1.2-1.6-1.9-2.9-2c-2.1,0-3.8,1.6-3.8,3.7
		c0,0.1,0,0.1,0,0.2c-0.1,2.1,1.5,3.8,3.6,3.9c0.1,0,0.1,0,0.2,0c1.3,0,2.4-0.8,2.9-2l3,1.4c-1.1,2.3-3.4,3.7-5.9,3.6
		C136.2,50,133.1,47.2,133.1,43z"/>
	<path id="Path_114" d="M157,49.8v-5.5h-5.6v5.5h-3.5V36.2h3.5v5.1h5.6v-5.1h3.5v13.6H157z"/>
	<path id="Path_115" d="M172.1,49.8l-0.7-2h-5.4l-0.7,2h-4l5.1-13.6h4.4l5.1,13.6H172.1z M168.8,39.7l-1.7,5.1h3.5L168.8,39.7z"/>
	<path id="Path_116" d="M177.1,49.8V36.2h3.5v13.6H177.1z"/>
	<path id="Path_117" d="M192.3,49.8l-5.7-7.9v7.9H183V36.2h3.6l5.5,7.5v-7.5h3.5v13.6H192.3z"/>
</g>
</svg>
