<?xml version="1.0" encoding="utf-8"?>
<!-- Generator: Adobe Illustrator 26.3.1, SVG Export Plug-In . SVG Version: 6.00 Build 0)  -->
<svg version="1.1" id="katman_1" xmlns="http://www.w3.org/2000/svg" xmlns:xlink="http://www.w3.org/1999/xlink" x="0px" y="0px"
	 viewBox="0 0 87 34" style="enable-background:new 0 0 87 34;" xml:space="preserve">
<style type="text/css">
	.st0{fill:#F7A600;}
	.st1{fill:#021423;}
</style>
<path class="st0" d="M62,25.4V3h4.5v22.4H62z"/>
<path class="st1" d="M9.6,32H0V9.6h9.2c4.5,0,7.1,2.4,7.1,6.3c0,2.5-1.7,4.1-2.8,4.6c1.4,0.6,3.2,2,3.2,5C16.7,29.7,13.7,32,9.6,32z
	 M8.9,13.5H4.5v5.1h4.4c1.9,0,3-1,3-2.6C11.9,14.6,10.8,13.5,8.9,13.5z M9.2,22.6H4.5v5.5h4.7c2,0,3-1.3,3-2.8
	C12.2,23.8,11.2,22.6,9.2,22.6z"/>
<path class="st1" d="M30.4,22.8V32h-4.5v-9.2L19,9.6h4.9l4.3,9l4.2-9h4.9L30.4,22.8z"/>
<path class="st1" d="M50,32h-9.6V9.6h9.2c4.5,0,7.1,2.4,7.1,6.3c0,2.5-1.7,4.1-2.8,4.6c1.4,0.6,3.2,2,3.2,5C57.1,29.7,54.2,32,50,32
	z M49.3,13.5h-4.4v5.1h4.4c1.9,0,3-1,3-2.6C52.3,14.6,51.2,13.5,49.3,13.5z M49.6,22.6h-4.7v5.5h4.7c2,0,3-1.3,3-2.8
	C52.6,23.8,51.6,22.6,49.6,22.6z"/>
<path class="st1" d="M81,13.5V32h-4.5V13.5h-6V9.6H87v3.9H81z"/>
</svg>
