<?xml version="1.0" encoding="utf-8"?>
<!-- Generator: Adobe Illustrator 26.3.1, SVG Export Plug-In . SVG Version: 6.00 Build 0)  -->
<svg version="1.1" id="katman_1" xmlns="http://www.w3.org/2000/svg" xmlns:xlink="http://www.w3.org/1999/xlink" x="0px" y="0px"
	 viewBox="0 0 300 100" style="enable-background:new 0 0 300 100;" xml:space="preserve">
<style type="text/css">
	.st0{fill:#F7A600;}
	.st1{fill:#021423;}
</style>
<path class="st0" d="M168.9,58.1V35.7h4.5v22.4H168.9z"/>
<path class="st1" d="M116.5,64.7h-9.6V42.3h9.2c4.5,0,7.1,2.4,7.1,6.3c0,2.5-1.7,4.1-2.8,4.6c1.4,0.6,3.2,2,3.2,5
	C123.6,62.4,120.6,64.7,116.5,64.7z M115.8,46.2h-4.4v5.1h4.4c1.9,0,3-1,3-2.6C118.8,47.3,117.7,46.2,115.8,46.2z M116.1,55.3h-4.7
	v5.5h4.7c2,0,3-1.3,3-2.8C119.1,56.5,118.1,55.3,116.1,55.3z"/>
<path class="st1" d="M137.3,55.5v9.2h-4.5v-9.2l-6.9-13.2h4.9l4.3,9l4.2-9h4.9L137.3,55.5z"/>
<path class="st1" d="M156.9,64.7h-9.6V42.3h9.2c4.5,0,7.1,2.4,7.1,6.3c0,2.5-1.7,4.1-2.8,4.6c1.4,0.6,3.2,2,3.2,5
	C164,62.4,161.1,64.7,156.9,64.7z M156.2,46.2h-4.4v5.1h4.4c1.9,0,3-1,3-2.6C159.2,47.3,158.1,46.2,156.2,46.2z M156.5,55.3h-4.7
	v5.5h4.7c2,0,3-1.3,3-2.8C159.5,56.5,158.5,55.3,156.5,55.3z"/>
<path class="st1" d="M187.9,46.2v18.5h-4.5V46.2h-6v-3.9h16.5v3.9H187.9z"/>
</svg>
