<?xml version="1.0" encoding="utf-8"?>
<!-- Generator: Adobe Illustrator 26.3.1, SVG Export Plug-In . SVG Version: 6.00 Build 0)  -->
<svg version="1.1" id="katman_1" xmlns="http://www.w3.org/2000/svg" xmlns:xlink="http://www.w3.org/1999/xlink" x="0px" y="0px"
	 viewBox="0 0 300 100" style="enable-background:new 0 0 300 100;" xml:space="preserve">
<style type="text/css">
	.st0{fill:#FFFFFF;}
	.st1{fill:#03316C;}
	.st2{fill:#002E73;}
</style>
<path class="st0" d="M83.3,34.6L70,42.2v15.3l13.3,7.7l13.3-7.7V42.2L83.3,34.6z M83.3,34.6L70,42.2v15.3l13.3,7.7l13.3-7.7V42.2
	L83.3,34.6z"/>
<path class="st1" d="M88.5,59.2h-1.9l-2.3-2.1v-1.1l2.3-2.2v-3.5l3.1-2l3.5,2.6L88.5,59.2z M80.7,53.6l0.3-3.3l-1.1-3h6.7l-1.1,3
	l0.3,3.3h-2.6H80.7z M82.2,57.2L80,59.3h-1.9L73.3,51l3.5-2.6l3.1,2v3.5l2.3,2.2C82.2,56.1,82.2,57.2,82.2,57.2z M78,41.2h10.4
	l1.2,5.3H76.8L78,41.2z M83.3,34.6L70,42.2v15.3l13.3,7.7l13.3-7.7V42.2L83.3,34.6z"/>
<path class="st2" d="M111.4,57c-3.5,0-6.1-2.7-6.1-6.1c0-3.4,2.6-6.2,6.1-6.2c2.2,0,3.6,0.8,4.7,2l-1.7,1.8
	c-0.8-0.9-1.7-1.5-3.1-1.5c-2,0-3.4,1.7-3.4,3.8c0,2.1,1.5,3.8,3.5,3.8c1.3,0,2.2-0.6,3.1-1.5l1.6,1.6C115,56.1,113.7,57,111.4,57"
	/>
<path class="st2" d="M121.3,57h-2.7V44.7h2.7v2.9c0.7-1.8,2.1-3,4.2-2.9v2.9h-0.2c-2.4,0-4,1.5-4,4.7L121.3,57L121.3,57z"/>
<polygon class="st2" points="139.7,44.7 133.7,60.3 131,60.3 132.3,57 127.1,44.7 130,44.7 133.5,53.8 136.9,44.7 "/>
<path class="st2" d="M147.6,47c-1.8,0-3.4,1.5-3.4,3.8c0,2.3,1.6,3.8,3.4,3.8c1.9,0,3.4-1.5,3.4-3.8C151,48.5,149.5,47,147.6,47
	 M148.3,57c-1.9,0-3.2-1-4-2.1v5.4h-2.7V44.7h2.7v2.2c0.9-1.2,2.1-2.2,4-2.2c2.8,0,5.5,2.2,5.5,6.1C153.8,54.7,151.1,57,148.3,57"/>
<path class="st2" d="M159.7,47.2V53c0,1,0.5,1.5,1.5,1.5h1.1v2.4h-1.9c-2,0-3.4-0.9-3.4-3.5v-6.2h-1.5v-2.3h1.5v-3.2h2.7v3.2h2.5
	v2.3L159.7,47.2L159.7,47.2z"/>
<path class="st2" d="M170.7,47c-2.2,0-3.6,1.7-3.6,3.8c0,2.1,1.5,3.8,3.6,3.8c2.2,0,3.6-1.7,3.6-3.8C174.4,48.8,172.9,47,170.7,47
	 M170.7,57c-3.6,0-6.2-2.7-6.2-6.1c0-3.4,2.7-6.2,6.3-6.2s6.3,2.7,6.3,6.1C177.1,54.2,174.4,57,170.7,57"/>
<path class="st2" d="M202.9,47c-2.2,0-3.6,1.7-3.6,3.8c0,2.1,1.5,3.8,3.6,3.8c2.2,0,3.6-1.7,3.6-3.8C206.5,48.8,205,47,202.9,47
	 M202.9,57c-3.6,0-6.2-2.7-6.2-6.1c0-3.4,2.7-6.2,6.3-6.2c3.6,0,6.3,2.7,6.3,6.1C209.2,54.2,206.5,57,202.9,57"/>
<path class="st2" d="M225.3,44.7c2.6,0,4.1,1.6,4.1,4.5V57h-2.7v-7c0-1.9-0.9-2.9-2.4-2.9c-1.5,0-2.5,1-2.5,2.9V57h-2.7v-7
	c0-1.8-0.9-2.9-2.4-2.9s-2.5,1.1-2.5,2.9V57h-2.7V44.7h2.7v2c0.8-1,1.8-2,3.6-2c1.7,0,2.9,0.8,3.5,2.1
	C222.3,45.5,223.5,44.7,225.3,44.7"/>
<polygon class="st2" points="182,54.5 182,55.9 181.9,56 180.7,56.7 180.6,56.7 179.4,56 179.3,55.9 179.3,54.5 179.4,54.4 
	180.6,53.7 180.7,53.7 181.9,54.4 "/>
<path class="st2" d="M190.2,57c-3.5-0.1-6-2.9-6-6.2c0.1-3.4,2.7-6.1,6.2-6.1c2.2,0.1,3.6,0.9,4.7,2.1l-1.7,1.8
	c-0.8-0.9-1.7-1.5-3-1.5c-2,0-3.4,1.6-3.5,3.7c-0.1,2.1,1.4,3.9,3.5,3.9c1.3,0,2.2-0.6,3.1-1.4l1.6,1.6
	C193.9,56.1,192.5,57,190.2,57"/>
</svg>
