<?xml version="1.0" encoding="utf-8"?>
<!-- Generator: Adobe Illustrator 26.3.1, SVG Export Plug-In . SVG Version: 6.00 Build 0)  -->
<svg version="1.1" id="katman_1" xmlns="http://www.w3.org/2000/svg" xmlns:xlink="http://www.w3.org/1999/xlink" x="0px" y="0px"
	 viewBox="0 0 643 267" style="enable-background:new 0 0 643 267;" xml:space="preserve">
<style type="text/css">
	.st0{fill-rule:evenodd;clip-rule:evenodd;}
</style>
<path d="M35.6,109.7c8.9-41.1,42.4-71.3,83.8-75.7c8.8-0.9,9.4-0.9,18.3,0c9.5,0.9,15.9,2.4,23.8,5.1c28.3,10.2,51.6,35.3,59.6,64.3
	c0.9,3.1,1.6,5.9,1.6,6.3c0,0.3-2.8,0.6-6.4,0.4l-6.4-0.2l-2.1-6.4c-1.2-3.5-3.5-9-5.1-12.1c-10.5-20.7-29.8-36.3-53-42.7
	c-5.2-1.4-8.3-1.7-20.3-1.7c-12.4-0.1-15,0.2-20.9,1.7c-29.1,8-52.3,31.1-59.4,59.5c-1,3.9-2,8.7-2,10.7l-0.3,3.5l12.6,0.2l12.6,0.2
	l0.1,7.3C72.1,143,77.3,157,85.3,166c2,2.2,3.5,4.5,3.5,5c0,1.3-9.4,37-10.2,38.3c-0.8,1.4-12.9-8-19.4-14.9
	C53,187.6,46.5,178,42.8,170c-3.2-7-6.7-17.4-6.7-20c0-1.8,0.2-1.9,6.1-1.9h6.1l1.8,5.7c3.5,11.4,12.2,26.2,19.1,32.8l2,1.7l1.7-6.1
	c0.9-3.5,1.7-6.8,1.7-7.4c0-0.6-1.9-4.1-4.3-7.6c-4.9-7.3-8.8-17.4-10.2-25.9l-0.9-5.7H33.5l0.5-10.1
	C34.2,119.9,34.9,112.9,35.6,109.7z"/>
<path d="M384.1,114.3V46.6h12.6l0.2,20.2l0.2,20.2L416,65.5h6.6c6.1-0.1,6.5,0,5.5,1.3c-0.6,0.8-4.6,5.4-8.7,10.2
	c-4.3,4.9-7.7,9.1-7.7,9.3c0,0.3,4,6.3,8.9,13.3c4.9,7,9.2,13.2,9.5,13.7c0.4,0.8-0.9,1-6,1h-6.5l-14.2-21.1l-3.3,3.2l-3.4,3.2v14.6
	H384.1z"/>
<path class="st0" d="M263.6,114.3h12.8c7,0,14.8-0.3,17.3-0.8c14.3-2.3,23.8-12.3,25.7-26.9c2.6-19-7.6-34.5-24.8-37.6
	c-2.5-0.5-10.6-0.9-17.9-0.9h-13.2V114.3z M295.7,61.1c6.9,2.9,10.6,8.8,11.1,17.8c0.6,10.6-3.1,18.3-10.3,21.9
	c-2.8,1.3-4.9,1.7-11.8,1.7h-8.4V81.4c0-11.7,0.2-21.4,0.6-21.8C277.8,58.6,292.4,59.8,295.7,61.1z"/>
<path d="M583.3,65.5V49.7h12.6v15.7h10.2v9.4h-10.2v12.9c0,10.7,0.2,13.1,1.3,14.2c1.4,1.4,4.7,1.7,7.8,0.5c1.8-0.7,2.1-0.6,2.8,1.3
	c0.5,1.1,1,3.3,1.3,5l0.5,3.1l-4.2,1.4c-5.4,1.8-12.9,1.9-16.1,0.2c-5.1-2.8-5.4-4-5.7-22.1l-0.2-16.3H577v-9.4H583.3z"/>
<path class="st0" d="M122.7,72.1c0,11.8-0.2,13-1.3,13c-2.8,0.1-12.4,3.9-16.3,6.5c-9.1,6.1-16.3,16-19,26.2
	c-0.6,2.5-1.2,7.6-1.2,11.3c0,12.8,3.9,22,13.1,31.4l5.8,6l-6.3,23.6c-3.5,13-6.4,24.3-6.5,25.2c-0.2,1.3,0.9,2,7.2,4.2
	c10.2,3.5,18.8,4.9,31.3,4.9c12,0,22.8-1.8,32-5.4c4.6-1.7,5.5-2.4,5.4-3.6c-0.2-0.9-3.1-12.3-6.6-25.4c-3.5-13.1-6.2-23.9-6.1-24
	c3.9-2.6,8.5-7.3,11.7-12c9.2-13.8,10.2-29.9,2.8-45.1c-5.4-11-17.2-20.3-29.1-23l-4.3-0.9V72.5h2.3c3.4,0,12.4,3,18.2,6
	c18.2,9.5,29.3,27.2,30.5,48.5l0.5,8.5h12.4c10.2,0,12.5,0.2,12.5,1.1c0,2.7-2.6,14.2-4.3,19.4c-3.6,10.6-11.7,23.9-18.3,30.1
	l-2.3,2.1l-1.8-7.1l-1.9-7.1l3.3-4.6c3.7-5.3,8.5-15,9.2-18.7l0.6-2.5h-12.6l-3.2,6.5c-1.8,3.6-5,8.7-7.2,11.4l-4,4.9l5.2,19.5
	c2.9,10.7,5.4,19.6,5.4,19.8c0.2,0.1,3.1-1.9,6.5-4.4c23.9-18,38.1-45.7,38.1-74.6v-8.2h-12.5c-1,0-2,0-2.8,0h0
	c-6.3,0-8.7,0-9.8-1.2c-0.7-0.7-0.8-2-1.1-3.9c-0.1-0.4-0.1-0.9-0.2-1.4c-0.6-4.6-3.5-13-6.3-18.7c-7.2-14.3-17.6-24.4-32.3-31.6
	c-9.5-4.6-19.4-7-29.7-7h-6.9V72.1z M135.6,98.1c12.6,2.7,21.9,12,24.5,24.6c2.2,10.6-1,21.5-8.8,29.1c-2.3,2.3-6,4.9-8.1,5.9
	c-3.2,1.4-3.9,2.1-3.7,3.4c0.1,0.7,1.9,7.3,4.2,15.9l0,0l0,0c0.7,2.5,1.4,5.3,2.2,8c3.3,12.3,5.8,22.8,5.7,23.3
	c-0.6,1.5-13.5,3.5-22.5,3.5c-9.1,0-22-2-22.5-3.5c-0.2-0.6,2.4-11.7,6-24.8c3.5-13.1,6.3-23.9,6.1-23.9c-0.1-0.1-1.4-0.8-3.1-1.8
	l0,0c-0.4-0.2-0.8-0.4-1.2-0.7c-5.7-3-10.9-8.5-13.9-14.6c-2.4-4.7-2.5-5.7-2.5-13.4c0-7.8,0.2-8.6,2.6-13.6
	c4.6-9.4,13.5-16.1,23.1-17.8c2.9-0.5,4.4-0.7,5.8-0.7C131,97.2,132.5,97.5,135.6,98.1z"/>
<path d="M64.6,102.1c7.2-17.6,22.8-32.5,41.1-39.1c2.2-0.8,4-1.4,4.2-1.4c0.1-0.1,0.2,2.8,0.2,6.5v6.5l-6.8,3.5
	C92,83.8,81.6,94.8,76.4,106.6l-1.7,3.8h-6.3c-4.6,0-6.4-0.3-6.4-1C62,108.8,63.2,105.5,64.6,102.1z"/>
<path class="st0" d="M343.5,65.7c-7.1,2.4-12,6.5-15.4,13.1c-1.6,3-1.9,4.7-1.9,11c0,6.6,0.2,8,2.1,11.5c2.5,4.7,7.4,9.4,12.4,11.6
	c2.8,1.3,5.2,1.7,10.7,1.7c6.2,0,7.6-0.3,11.6-2.2c4.5-2.2,11.5-9,10.3-10c-0.4-0.3-2.7-1.1-5.3-1.8l-4.6-1.3l-1.6,2
	c-3.2,4-10.7,5.4-16.1,2.9c-3.1-1.5-6.5-6.1-6.5-8.7v-1.8h37.2l-0.4-6.1c-0.6-9.8-5-16.5-13.9-20.7C357.9,64.9,348,64.2,343.5,65.7z
	 M357.6,75.6c2.9,1.7,5,4.5,5.7,7.7l0.6,2.6h-12.3c-6.8,0-12.4-0.2-12.6-0.6c-0.8-1.3,1.2-5.5,3.7-8
	C346.8,73.3,352.4,72.7,357.6,75.6z"/>
<path d="M451.3,70.7c2.2-2.2,5.4-4.5,6.9-5c6.1-1.9,6.3-1.7,6.3,4.8v5.7l-3.5,0.5c-4.6,0.7-9.3,3.1-11.3,6
	c-1.5,2.1-1.7,3.4-1.7,16.9v14.6h-11.8V65.5h11v9.4L451.3,70.7z"/>
<path class="st0" d="M544.6,65.4c-3.3,1.1-5.7,2.5-8.3,5l-2.6,2.4v-7.4h-11V134l12.2-0.5l0.2-13.6l0.2-13.6l2,2.4
	c3.5,4,7.8,5.8,14.1,5.8c6.7,0,10.6-1.7,15-6.8c4.3-4.9,6.2-10.5,6.1-18.3c-0.1-13.7-8.7-23.8-21.1-24.5
	C548.9,64.8,545.7,65,544.6,65.4z M549.8,75.8c6.2,1.7,10.1,7.2,10.1,14.2c0,5.2-2.4,10.2-6.2,12.5c-3.6,2.3-9.5,2.1-12.9-0.4
	c-4.6-3.4-5.5-5.5-5.5-13.2c0-6.5,0.2-7.1,2.2-9.3c1.2-1.3,3.5-2.9,5.3-3.5c0.1,0,0.2-0.1,0.3-0.1l0.5-0.2c1.4-0.5,2.1-0.7,2.8-0.8
	c0.7,0,1.4,0.2,2.8,0.6C549.4,75.7,549.6,75.7,549.8,75.8z"/>
<path d="M476.7,91.2c-5-12.7-9.3-23.6-9.6-24.4c-0.4-1.2,0.2-1.3,5.8-1.3h6.4l1.5,4.1c0.3,1,1.1,3.2,2.1,6c1.2,3.6,2.8,8.1,4.4,12.6
	c2.8,8,5.2,14,5.5,13.5c0.3-0.5,3-8.8,6-18.5l5.4-17.7h5.7c3.1,0,5.7,0.2,5.7,0.4c0,0.9-20.6,58.8-21.6,60.8
	c-2.7,5.2-8.3,8.3-15,8.4c-2.7,0-5.1-0.2-5.5-0.5c-0.5-0.2-0.6-2.8-0.6-5.7l0.3-5.1l3.3,0.4c4,0.6,5.8-0.9,8-6.5l1.3-3.5L476.7,91.2
	z"/>
<path d="M435.2,146.2c0,0.2,0,3-0.1,6.1v5.7l12,0.5v-12.7h-5.9C437.9,145.8,435.3,145.9,435.2,146.2z"/>
<path d="M548.9,208.8c-1.8-2.7-1.8-2.8-1.8-32.8v-30.2h12.6l0,30.6c0,20,0,25.4,2.2,26.6c0.8,0.4,1.9,0.3,3.5,0.2l0,0l0,0
	c0.2,0,0.4,0,0.6-0.1l3.7-0.4l0.6,4.2c0.2,2.4,0.3,4.6,0.1,5c-0.6,0.9-7.6,2.4-11.3,2.4C555.1,214.3,551,212.1,548.9,208.8z"/>
<path d="M281.4,148.1c-16,4-27,21-24.2,37.2c3.2,18.3,19.2,30.9,35.9,28.3c7.7-1.2,14-4.3,18.5-9.3c2.2-2.4,3.9-4.6,3.9-5
	c0-1.3-10.5-6.7-10.9-5.7c-0.7,2.2-4.3,5.7-7.7,7.2c-5.1,2.5-12.9,2-17.6-1c-3.7-2.4-7.6-8-8.8-12.8c-2.4-8.5,1.2-20.4,7.3-24.8
	c8-5.8,20.4-4,25.4,3.6l1.6,2.4l4.9-3.2c2.8-1.8,5-3.5,5-3.8c0-0.2-1.7-2.4-3.9-4.8c-5.3-5.8-11.4-8.5-20-8.9
	C287.3,147.5,283.1,147.7,281.4,148.1z"/>
<path d="M461.3,157.3c0-4.1,0.2-7.6,0.6-8s3.1-0.4,6.1-0.3l5.5,0.2l0.5,15.3l9.8,0.5v9.4l-4.7,0.1l-4.7,0.2l-0.2,12.9
	c-0.2,10.8,0,13.1,1,14c1.3,1.1,3.7,1.3,7.6,0.5l2.8-0.6l1,4.5c0.6,2.5,0.7,4.8,0.3,5.1c-1.2,1.2-9.2,3.1-12.8,3.1
	c-4.3,0-8.4-1.9-10.6-5c-1.5-2-1.7-3.6-2-18.5l-0.4-16.2h-2.8l-2.8-0.1l-0.5-9.8h6.4V157.3z"/>
<path class="st0" d="M336.1,164.7c-4.4,0.9-11.5,3.7-12.6,5c-0.6,0.7-0.4,2,0.9,4.6c0.9,2,2,3.5,2.2,3.4c7.7-4.5,14.4-6,19.2-4.3
	c3.7,1.3,5.7,3.9,6.4,8.4c0.6,3.4,0.6,3.5-1.3,2.9c-4.4-1.4-14.6-1.4-19.1-0.2c-11.1,3.2-15.6,14.4-9.2,23.1c3.1,4.4,7,6.1,14.2,6.1
	c6.3-0.1,9.9-1.4,14.9-5.5c2.2-2,2.4-2,2.4-0.6c0,4.1,5.3,7.1,10.7,6.1l2.7-0.6v-4.9c0-3.9-0.3-5.2-1.6-6.3
	c-1.4-1.2-1.6-2.3-1.6-12.6c0-10.6-0.2-11.5-2-15.4c-2.7-5.3-7.1-8.3-14-9.4C342.8,163.8,341.1,163.8,336.1,164.7z M350.2,191.5
	c2,0.7,2.4,1.3,2.4,3.3c0,5.2-4.1,9.3-10.2,10.3c-5.5,0.9-11.1-2.7-11.1-7.1c0-2,2.8-5.7,5-6.6C338.7,190.4,347.2,190.5,350.2,191.5
	z"/>
<path class="st0" d="M388.7,171.2c1.1-2,7-5.7,10.6-6.6c3.5-0.9,9.7-0.1,13.6,1.6c4.4,2,8.8,6.5,11.3,11.8c1.7,3.7,2,5.5,2,11.5
	c0,6-0.3,7.8-2,11.4c-2.8,5.9-5.5,9-10.3,11.3c-7.3,3.7-15.9,2.4-21.7-3.2l-3.4-3.2v27.3h-12.6v-68.6l10.6,0.5l0.4,3.9
	C387.6,172.6,387.7,172.8,388.7,171.2z M414,188.8c0-4.6-3.7-10.5-8-12.8c-4.9-2.5-11.7-0.8-15.4,4c-1.5,1.8-1.7,3.2-1.7,8.6
	c0,5.5,0.2,6.8,2,9.3c2.7,3.9,8,6.5,12.3,5.7C408.8,202.6,414,195.6,414,188.8z"/>
<path class="st0" d="M508.9,164.4c-3.9,0.6-11.7,3.3-13.6,4.8l-1.9,1.4l1.8,3.7c1,2,2,3.6,2.3,3.5c13.8-8,24.4-6.2,25.7,4.1l0.5,3.4
	l-2.7-0.6c-1.5-0.4-6.1-0.7-10.2-0.7c-6.6,0.1-8,0.3-11.6,2.2c-5.6,2.9-8.3,7-8.4,12.6c-0.2,14.5,18.7,20.8,30.9,10.4l3.2-2.8
	l0.6,2.2c1.1,4.4,5.2,6.5,10.6,5.3c2.4-0.6,2.4-0.6,2.4-6c0-4.1-0.2-5.4-1.1-5.4c-1.7,0-2-2.6-2-13.5c0-10.6-0.6-13.8-3.6-17.8
	C528,166.4,517.3,163.2,508.9,164.4z M521,191.5c2.1,0.8,2.4,1.2,2.4,3.9c0,9.5-16.3,13.8-20.3,5.3c-2.5-5.3,2.4-10,10.5-10
	C516.3,190.7,519.6,191,521,191.5z"/>
<path d="M435.1,189.4c-0.2-13.2-0.1-24.3,0.1-24.4c0.2-0.2,2.9-0.3,6.1-0.3h5.7v48.8h-11.7L435.1,189.4z"/>
</svg>
