<?xml version="1.0" encoding="utf-8"?>
<!-- Generator: Adobe Illustrator 26.3.1, SVG Export Plug-In . SVG Version: 6.00 Build 0)  -->
<svg version="1.1" id="katman_1" xmlns="http://www.w3.org/2000/svg" xmlns:xlink="http://www.w3.org/1999/xlink" x="0px" y="0px"
	 viewBox="0 0 300 100" style="enable-background:new 0 0 300 100;" xml:space="preserve">
<style type="text/css">
	.st0{fill-rule:evenodd;clip-rule:evenodd;}
</style>
<path d="M89.8,45.7c1.9-8.8,9-15.2,17.9-16.1c1.9-0.2,2-0.2,3.9,0c2,0.2,3.4,0.5,5.1,1.1c6,2.2,11,7.5,12.7,13.7
	c0.2,0.7,0.3,1.3,0.3,1.3c0,0.1-0.6,0.1-1.4,0.1l-1.4,0l-0.4-1.4c-0.3-0.7-0.7-1.9-1.1-2.6c-2.2-4.4-6.4-7.7-11.3-9.1
	c-1.1-0.3-1.8-0.4-4.3-0.4c-2.6,0-3.2,0-4.5,0.4c-6.2,1.7-11.1,6.6-12.7,12.7c-0.2,0.8-0.4,1.9-0.4,2.3l-0.1,0.7l2.7,0l2.7,0l0,1.6
	c0,2.7,1.1,5.7,2.8,7.7c0.4,0.5,0.7,1,0.7,1.1c0,0.3-2,7.9-2.2,8.2c-0.2,0.3-2.7-1.7-4.1-3.2c-1.3-1.4-2.7-3.5-3.5-5.2
	c-0.7-1.5-1.4-3.7-1.4-4.3c0-0.4,0-0.4,1.3-0.4h1.3l0.4,1.2c0.7,2.4,2.6,5.6,4.1,7l0.4,0.4l0.4-1.3c0.2-0.7,0.4-1.4,0.4-1.6
	c0-0.1-0.4-0.9-0.9-1.6c-1-1.6-1.9-3.7-2.2-5.5l-0.2-1.2h-5.5l0.1-2.2C89.5,47.9,89.7,46.4,89.8,45.7z"/>
<path d="M164.1,46.7V32.3h2.7l0,4.3l0,4.3l4-4.6h1.4c1.3,0,1.4,0,1.2,0.3c-0.1,0.2-1,1.2-1.9,2.2c-0.9,1-1.6,1.9-1.6,2
	c0,0.1,0.9,1.3,1.9,2.8c1,1.5,2,2.8,2,2.9c0.1,0.2-0.2,0.2-1.3,0.2h-1.4l-3-4.5l-0.7,0.7l-0.7,0.7v3.1L164.1,46.7L164.1,46.7z"/>
<path class="st0" d="M138.4,46.7h2.7c1.5,0,3.2-0.1,3.7-0.2c3-0.5,5.1-2.6,5.5-5.7c0.6-4-1.6-7.4-5.3-8c-0.5-0.1-2.3-0.2-3.8-0.2
	h-2.8L138.4,46.7L138.4,46.7z M145.3,35.3c1.5,0.6,2.3,1.9,2.4,3.8c0.1,2.3-0.7,3.9-2.2,4.7c-0.6,0.3-1,0.4-2.5,0.4h-1.8v-4.5
	c0-2.5,0-4.6,0.1-4.6C141.4,34.8,144.6,35.1,145.3,35.3z"/>
<path d="M206.6,36.3v-3.4h2.7v3.3h2.2v2h-2.2V41c0,2.3,0,2.8,0.3,3c0.3,0.3,1,0.4,1.7,0.1c0.4-0.1,0.4-0.1,0.6,0.3
	c0.1,0.2,0.2,0.7,0.3,1.1l0.1,0.7l-0.9,0.3c-1.2,0.4-2.7,0.4-3.4,0c-1.1-0.6-1.2-0.9-1.2-4.7l0-3.5h-1.4v-2L206.6,36.3L206.6,36.3z"
	/>
<path class="st0" d="M108.4,37.7c0,2.5,0,2.8-0.3,2.8c-0.6,0-2.6,0.8-3.5,1.4c-1.9,1.3-3.5,3.4-4,5.6c-0.1,0.5-0.3,1.6-0.3,2.4
	c0,2.7,0.8,4.7,2.8,6.7l1.2,1.3l-1.3,5c-0.7,2.8-1.4,5.2-1.4,5.4c0,0.3,0.2,0.4,1.5,0.9c2.2,0.7,4,1,6.7,1c2.6,0,4.9-0.4,6.8-1.2
	c1-0.4,1.2-0.5,1.2-0.8c0-0.2-0.7-2.6-1.4-5.4c-0.7-2.8-1.3-5.1-1.3-5.1c0.8-0.6,1.8-1.6,2.5-2.6c2-2.9,2.2-6.4,0.6-9.6
	c-1.2-2.3-3.7-4.3-6.2-4.9l-0.9-0.2v-2.7h0.5c0.7,0,2.6,0.6,3.9,1.3c3.9,2,6.2,5.8,6.5,10.3l0.1,1.8h2.6c2.2,0,2.7,0,2.7,0.2
	c0,0.6-0.6,3-0.9,4.1c-0.8,2.3-2.5,5.1-3.9,6.4l-0.5,0.4l-0.4-1.5l-0.4-1.5l0.7-1c0.8-1.1,1.8-3.2,2-4l0.1-0.5h-2.7l-0.7,1.4
	c-0.4,0.8-1.1,1.9-1.5,2.4l-0.9,1l1.1,4.2c0.6,2.3,1.2,4.2,1.2,4.2c0,0,0.7-0.4,1.4-0.9c5.1-3.8,8.1-9.7,8.1-15.9v-1.7h-2.7
	c-0.2,0-0.4,0-0.6,0l0,0c-1.3,0-1.9,0-2.1-0.3c-0.1-0.1-0.2-0.4-0.2-0.8c0-0.1,0-0.2,0-0.3c-0.1-1-0.7-2.8-1.3-4
	c-1.5-3-3.8-5.2-6.9-6.7c-2-1-4.1-1.5-6.3-1.5h-1.5L108.4,37.7L108.4,37.7z M111.1,43.2c2.7,0.6,4.7,2.6,5.2,5.2
	c0.5,2.3-0.2,4.6-1.9,6.2c-0.5,0.5-1.3,1-1.7,1.3c-0.7,0.3-0.8,0.4-0.8,0.7c0,0.1,0.4,1.6,0.9,3.4l0,0l0,0c0.1,0.5,0.3,1.1,0.5,1.7
	c0.7,2.6,1.2,4.9,1.2,5c-0.1,0.3-2.9,0.7-4.8,0.7c-1.9,0-4.7-0.4-4.8-0.7c0-0.1,0.5-2.5,1.3-5.3c0.7-2.8,1.3-5.1,1.3-5.1
	c0,0-0.3-0.2-0.7-0.4l0,0c-0.1,0-0.2-0.1-0.3-0.1c-1.2-0.6-2.3-1.8-3-3.1c-0.5-1-0.5-1.2-0.5-2.9c0-1.7,0-1.8,0.6-2.9
	c1-2,2.9-3.4,4.9-3.8c0.6-0.1,0.9-0.1,1.2-0.1C110.2,43,110.5,43.1,111.1,43.2z"/>
<path d="M96,44.1c1.5-3.8,4.9-6.9,8.8-8.3c0.5-0.2,0.9-0.3,0.9-0.3c0,0,0,0.6,0,1.4v1.4l-1.4,0.7c-2.4,1.2-4.6,3.6-5.7,6.1l-0.4,0.8
	h-1.3c-1,0-1.4-0.1-1.4-0.2C95.5,45.5,95.7,44.8,96,44.1z"/>
<path class="st0" d="M155.4,36.3c-1.5,0.5-2.6,1.4-3.3,2.8c-0.3,0.6-0.4,1-0.4,2.3c0,1.4,0,1.7,0.4,2.5c0.5,1,1.6,2,2.6,2.5
	c0.6,0.3,1.1,0.4,2.3,0.4c1.3,0,1.6-0.1,2.5-0.5c1-0.5,2.5-1.9,2.2-2.1c-0.1-0.1-0.6-0.2-1.1-0.4l-1-0.3l-0.3,0.4
	c-0.7,0.9-2.3,1.2-3.4,0.6c-0.7-0.3-1.4-1.3-1.4-1.9v-0.4h7.9l-0.1-1.3c-0.1-2.1-1.1-3.5-3-4.4C158.5,36.2,156.4,36,155.4,36.3z
	 M158.5,38.4c0.6,0.4,1.1,1,1.2,1.6l0.1,0.6h-2.6c-1.4,0-2.6,0-2.7-0.1c-0.2-0.3,0.3-1.2,0.8-1.7C156.2,37.9,157.3,37.8,158.5,38.4z
	"/>
<path d="M178.4,37.4c0.5-0.5,1.2-1,1.5-1.1c1.3-0.4,1.3-0.4,1.3,1v1.2l-0.7,0.1c-1,0.1-2,0.7-2.4,1.3c-0.3,0.4-0.4,0.7-0.4,3.6v3.1
	h-2.5V36.3h2.3v2L178.4,37.4z"/>
<path class="st0" d="M198.3,36.3c-0.7,0.2-1.2,0.5-1.8,1.1l-0.6,0.5v-1.6h-2.3v14.6l2.6-0.1l0-2.9l0-2.9l0.4,0.5
	c0.7,0.9,1.7,1.2,3,1.2c1.4,0,2.3-0.4,3.2-1.4c0.9-1,1.3-2.2,1.3-3.9c0-2.9-1.9-5.1-4.5-5.2C199.2,36.1,198.5,36.2,198.3,36.3z
	 M199.4,38.5c1.3,0.4,2.2,1.5,2.2,3c0,1.1-0.5,2.2-1.3,2.7c-0.8,0.5-2,0.4-2.7-0.1c-1-0.7-1.2-1.2-1.2-2.8c0-1.4,0-1.5,0.5-2
	c0.3-0.3,0.7-0.6,1.1-0.7c0,0,0,0,0.1,0l0.1,0c0.3-0.1,0.4-0.1,0.6-0.2c0.1,0,0.3,0,0.6,0.1C199.3,38.5,199.4,38.5,199.4,38.5z"/>
<path d="M183.8,41.8c-1.1-2.7-2-5-2-5.2c-0.1-0.3,0-0.3,1.2-0.3h1.4l0.3,0.9c0.1,0.2,0.2,0.7,0.4,1.3c0.3,0.8,0.6,1.7,0.9,2.7
	c0.6,1.7,1.1,3,1.2,2.9s0.6-1.9,1.3-3.9l1.2-3.8h1.2c0.7,0,1.2,0,1.2,0.1c0,0.2-4.4,12.5-4.6,13c-0.6,1.1-1.8,1.8-3.2,1.8
	c-0.6,0-1.1,0-1.2-0.1c-0.1,0-0.1-0.6-0.1-1.2l0.1-1.1l0.7,0.1c0.9,0.1,1.2-0.2,1.7-1.4l0.3-0.7L183.8,41.8z"/>
<path d="M175,53.5c0,0,0,0.6,0,1.3V56l2.6,0.1v-2.7h-1.3C175.6,53.4,175,53.4,175,53.5z"/>
<path d="M199.2,66.8c-0.4-0.6-0.4-0.6-0.4-7v-6.4h2.7v6.5c0,4.3,0,5.4,0.5,5.7c0.2,0.1,0.4,0.1,0.7,0l0,0l0,0c0,0,0.1,0,0.1,0
	l0.8-0.1l0.1,0.9c0,0.5,0.1,1,0,1.1c-0.1,0.2-1.6,0.5-2.4,0.5C200.5,68,199.7,67.5,199.2,66.8z"/>
<path d="M142.2,53.9c-3.4,0.9-5.8,4.5-5.2,7.9c0.7,3.9,4.1,6.6,7.7,6c1.6-0.3,3-0.9,3.9-2c0.5-0.5,0.8-1,0.8-1.1
	c0-0.3-2.2-1.4-2.3-1.2c-0.1,0.5-0.9,1.2-1.6,1.5c-1.1,0.5-2.7,0.4-3.8-0.2c-0.8-0.5-1.6-1.7-1.9-2.7c-0.5-1.8,0.3-4.3,1.6-5.3
	c1.7-1.2,4.3-0.9,5.4,0.8l0.3,0.5l1-0.7c0.6-0.4,1.1-0.7,1.1-0.8c0,0-0.4-0.5-0.8-1c-1.1-1.2-2.4-1.8-4.3-1.9
	C143.5,53.8,142.6,53.8,142.2,53.9z"/>
<path d="M180.6,55.8c0-0.9,0-1.6,0.1-1.7s0.7-0.1,1.3-0.1l1.2,0l0.1,3.3l2.1,0.1v2l-1,0l-1,0l0,2.7c0,2.3,0,2.8,0.2,3
	c0.3,0.2,0.8,0.3,1.6,0.1l0.6-0.1l0.2,1c0.1,0.5,0.1,1,0.1,1.1c-0.3,0.3-2,0.7-2.7,0.7c-0.9,0-1.8-0.4-2.3-1.1
	c-0.3-0.4-0.4-0.8-0.4-3.9l-0.1-3.5h-0.6l-0.6,0l-0.1-2.1h1.4L180.6,55.8L180.6,55.8z"/>
<path class="st0" d="M153.9,57.4c-0.9,0.2-2.5,0.8-2.7,1.1c-0.1,0.1-0.1,0.4,0.2,1c0.2,0.4,0.4,0.7,0.5,0.7c1.6-1,3.1-1.3,4.1-0.9
	c0.8,0.3,1.2,0.8,1.4,1.8c0.1,0.7,0.1,0.7-0.3,0.6c-0.9-0.3-3.1-0.3-4.1,0c-2.4,0.7-3.3,3.1-2,4.9c0.7,0.9,1.5,1.3,3,1.3
	c1.3,0,2.1-0.3,3.2-1.2c0.5-0.4,0.5-0.4,0.5-0.1c0,0.9,1.1,1.5,2.3,1.3l0.6-0.1v-1c0-0.8-0.1-1.1-0.3-1.3c-0.3-0.3-0.3-0.5-0.3-2.7
	c0-2.3,0-2.5-0.4-3.3c-0.6-1.1-1.5-1.8-3-2C155.3,57.2,154.9,57.2,153.9,57.4z M156.9,63.1c0.4,0.1,0.5,0.3,0.5,0.7
	c0,1.1-0.9,2-2.2,2.2c-1.2,0.2-2.4-0.6-2.4-1.5c0-0.4,0.6-1.2,1.1-1.4C154.4,62.9,156.2,62.9,156.9,63.1z"/>
<path class="st0" d="M165.1,58.8c0.2-0.4,1.5-1.2,2.3-1.4c0.7-0.2,2.1,0,2.9,0.3c0.9,0.4,1.9,1.4,2.4,2.5c0.4,0.8,0.4,1.2,0.4,2.5
	s-0.1,1.7-0.4,2.4c-0.6,1.3-1.2,1.9-2.2,2.4c-1.6,0.8-3.4,0.5-4.6-0.7l-0.7-0.7V72h-2.7V57.4l2.3,0.1l0.1,0.8
	C164.8,59.1,164.9,59.1,165.1,58.8z M170.5,62.6c0-1-0.8-2.2-1.7-2.7c-1-0.5-2.5-0.2-3.3,0.9c-0.3,0.4-0.4,0.7-0.4,1.8
	c0,1.2,0,1.4,0.4,2c0.6,0.8,1.7,1.4,2.6,1.2C169.4,65.5,170.5,64,170.5,62.6z"/>
<path class="st0" d="M190.7,57.4c-0.8,0.1-2.5,0.7-2.9,1l-0.4,0.3l0.4,0.8c0.2,0.4,0.4,0.8,0.5,0.7c2.9-1.7,5.2-1.3,5.5,0.9l0.1,0.7
	l-0.6-0.1c-0.3-0.1-1.3-0.1-2.2-0.1c-1.4,0-1.7,0.1-2.5,0.5c-1.2,0.6-1.8,1.5-1.8,2.7c0,3.1,4,4.4,6.6,2.2l0.7-0.6l0.1,0.5
	c0.2,0.9,1.1,1.4,2.3,1.1c0.5-0.1,0.5-0.1,0.5-1.3c0-0.9,0-1.2-0.2-1.2c-0.4,0-0.4-0.6-0.4-2.9c0-2.3-0.1-2.9-0.8-3.8
	C194.8,57.8,192.5,57.1,190.7,57.4z M193.3,63.1c0.4,0.2,0.5,0.3,0.5,0.8c0,2-3.5,2.9-4.3,1.1c-0.5-1.1,0.5-2.1,2.2-2.1
	C192.3,63,193,63,193.3,63.1z"/>
<path d="M175,62.7c0-2.8,0-5.2,0-5.2c0,0,0.6-0.1,1.3-0.1h1.2v10.4H175L175,62.7z"/>
</svg>
