<?xml version="1.0" encoding="utf-8"?>
<!-- Generator: Adobe Illustrator 19.2.1, SVG Export Plug-In . SVG Version: 6.00 Build 0)  -->
<svg version="1.1" id="layer" xmlns="http://www.w3.org/2000/svg" xmlns:xlink="http://www.w3.org/1999/xlink" x="0px" y="0px"
	 viewBox="0 0 652 652" style="enable-background:new 0 0 652 652;" xml:space="preserve">
<path d="M26.1,229.4c0.6,0,1.2,0.1,1.9,0.1c55.8,0,111.6,0,167.5,0c0.6,0,1.1,0,2,0c-5.3,14.5-10.6,28.7-16,43.1
	c-21.8-10.9-43.4-21.8-65.3-32.7c0,39.4,0,78.5,0,117.8c-2.8,0-5.6,0-8.4,0c0-39.1,0-78.3,0-117.8c-21.9,11-43.6,21.9-65.5,32.8
	c-0.5-1.4-1-2.7-1.5-4.1c-4.8-12.6-9.4-25.1-14.1-37.7c-0.1-0.2-0.4-0.6-0.5-1C26.1,229.8,26.1,229.7,26.1,229.4z M38.3,238.2
	c2.8,7.5,5.6,15,8.4,22.5c15-7.5,29.8-15,44.6-22.4c0-0.1-0.1-0.1-0.1-0.2C73.7,238.2,56.2,238.2,38.3,238.2z M185,238.2
	c-17.7,0-35.4,0-53,0v0.1c14.9,7.4,29.7,14.9,44.6,22.4C179.4,253.2,182.1,245.8,185,238.2z M567.5,228.2c0,23.1,0,46.4,0,69.7
	c2.7,0.4,5.4,0.6,8.2,1c-0.1,1-0.2,2-0.4,3c-7.3,0-14.6,0-22,0c-0.1-0.9-0.4-1.9-0.5-3c2.1-0.4,4.2-0.6,6.3-1c0-12.9,0-25.9,0-38.9
	c-7.3,0-14.6,0-22,0c0,13,0,25.9,0,38.7c3,0.2,5.8,0.4,8.9,0.6c-0.1,1.2-0.4,2.2-0.5,3.3c-8,0-15.8,0-23.9,0c-0.1-0.9-0.4-1.9-0.5-3
	c2.6-0.4,5-0.6,7.6-1c0-12.9,0-25.9,0-38.9c-3,0-5.9,0-9,0c-0.4-1.1,0-1.9,0.5-2.6c1.4-2.1,3.1-3,5.4-2.6c1,0.1,2,0,3,0
	c0.1-1.7,0.2-3.5,0.5-5.2c0.6-3.8,2.5-7.2,5-10.1c2.5-3,4.9-5.9,7.4-9c0.5-0.6,1.1-0.9,2-0.9c5.7,0,11.4-0.1,17-0.2
	c0.6,0,1.2-0.1,1.9-0.2C564.1,228.2,565.8,228.2,567.5,228.2z M559.1,234.4c-0.2,0-0.5,0-0.6,0.1c-3.6,1.7-7.4,2-11.4,1.7
	c-1.5-0.1-3.1,0-4.6,0c-0.5,0-1,0.2-1.4,0.6c-2.5,2.4-3.8,5.2-3.8,8.7c-0.1,2.8,0,5.8,0,8.7c7.3,0,14.6,0,21.9,0
	C559.1,247.6,559.1,241.1,559.1,234.4z M133,315.5c0-3,0-5.7,0-8.5c8.5,0,17,0,25.5,0c0,31.2,0,62.4,0,93.6c-31.2,0-62.3,0-93.6,0
	c0-31.2,0-62.4,0-93.6c8.4,0,16.8,0,25.4,0c0,2.8,0,5.6,0,8.4c-5.7,0-11.3,0-17,0c0,25.6,0,51.1,0,76.6c25.5,0,51,0,76.6,0
	c0-25.5,0-51,0-76.6C144.4,315.5,138.7,315.5,133,315.5z M217.5,302c-0.1-1-0.4-2-0.5-3.2c1.6-0.2,3.2-0.5,4.8-0.7
	c1.6-0.2,3.2-0.5,5-0.6c0-0.5,0-1,0-1.4c0-20.2,0-40.2,0-60.4c0-1.2-0.4-1.6-1.5-1.7c-2.4-0.2-4.8-0.6-7.2-1c-0.4,0-0.6-0.1-1-0.2
	c0.1-1.1,0.4-2.1,0.5-3c2.2,0,4.5,0,6.7,0c9.5,0,19.1-0.1,28.7-0.1c6.3,0,12.3,1.2,17.7,4.5c6.9,4.1,11.1,10.1,13.1,17.7
	c2.2,8.8,2.1,17.6-0.5,26.2c-3.2,10.9-10.8,17.7-21.3,21.3c-6.3,2.2-12.7,2.7-19.3,2.5c-7.2-0.2-14.4,0-21.5,0
	C219.9,302,218.8,302,217.5,302z M236.1,234.3c0,20.8,0,41.5,0,62.3c3.6,0.2,7.2,0.4,10.8,0.9c9.3,1.1,18.8-3.3,23.6-13
	c5.2-10.4,5.7-21.3,2.2-32.3c-3-9.2-9.3-15.1-18.8-17.5C248,233.2,242.1,234.1,236.1,234.3z M378.1,302c-1.2-0.7-2.5-1.2-3.7-2.1
	c-2.6-1.7-4-5.4-3.2-8.4c0.1-0.4,0.5-0.6,0.9-0.9c3-2.1,5.9-4.3,9.2-6.6c-0.6-0.2-1.1-0.5-1.7-0.7c-11.9-5.2-10.5-18.1-4.2-24
	c4.1-3.8,9.2-6.3,14.5-7.1c5.2-0.7,10.1,1,14.2,4.5c0.2,0.2,0.5,0.5,0.9,0.7c1.7-1.6,3.3-3.2,5.1-4.8c0.4-0.4,1.1-0.6,1.6-0.6
	c1.6-0.1,3.2,0,4.8,0c0,2.6,0,5,0,7.5c-3.2-0.1-6.4-0.2-8.8,1.7c0.2,2.2,0.6,4.3,0.6,6.4c-0.1,5-2.6,8.8-6.6,11.8
	c-3.8,2.8-8.2,4.3-12.7,5.6c-0.4,0.1-0.9,0.1-1.2,0c-1.7-0.5-2.8,0.4-3.8,1.7c-1.1,1.5-2.5,2.8-3.7,4.3c-1.1,1.4-1,3,0.5,3.8
	c0.7,0.4,1.6,0.6,2.5,0.6c6.2,0,12.5,0,18.7,0c2,0,3.8,0.2,5.8,0.7c5.9,1.5,8.8,6.7,6.9,12.5c-1.4,4.3-4.3,7.3-7.8,9.9
	c-5.1,3.8-10.8,6.4-16.8,8c-2,0.5-4.1,0.1-6.2,0c-3.3-0.2-6.7-1-9.8-2.6c-5.9-3.1-6.9-8.3-6.7-13c0-0.4,0.5-0.9,0.9-1.1
	c3-2.5,5.9-5,8.9-7.4C377.4,302.5,377.7,302.2,378.1,302z M389.5,321.5c4.3,0,8.2-1.2,11.5-3.8c2.5-2,4.3-4.3,5-7.5
	c0.9-3.8-0.5-5.9-4.3-6.8c-1.1-0.2-2.2-0.4-3.2-0.4c-5.3-0.1-10.5-0.1-15.8-0.1c-0.4,0-1,0.1-1.2,0.4c-1.7,2.4-3.6,4.6-5.2,6.9
	c-1.2,2-1,4.1,0.4,5.9c0.7,1.1,1.9,2,3,2.7C382.5,320.9,386,321.4,389.5,321.5z M379.1,267.3c0.1,1.2,0.2,2.5,0.5,3.6
	c1.2,6.4,5.6,9.9,11.9,9.5c3.7-0.2,6.9-2.4,7.8-5.8c1.4-5.4,0.4-10.5-3.2-14.9c-2.6-3-6.1-3.7-9.9-2.8c-3.5,0.7-5.6,3.2-6.4,6.7
	C379.3,264.8,379.2,266.2,379.1,267.3z M341.2,399c0,6.7,0,13.4,0,20.2c3.7,0.4,7.3,0.7,11.1,1.1c-0.1,1-0.2,1.9-0.5,2.7
	c-0.1,0.2-0.6,0.6-1,0.6c-4,0-7.9-0.2-11.8-0.2c-4.1,0-8.2,0.1-12.3,0.2c-0.4,0-0.6,0-1.1,0c-0.1-1.1-0.4-2.1-0.6-3.2
	c2.5-0.4,5-0.7,7.5-1.1c0-20.5,0-41.2,0-61.9c-2.5,0.2-5,0.5-7.5,0.7c-0.1-1-0.4-2-0.6-3.2c5.2-1.1,10.1-3.5,15.7-3.6
	c0.1,2.7,0.4,5.4,0.5,8.3c0.4-0.2,0.6-0.4,0.9-0.5c3.7-2.8,7.5-5.7,11.3-8.5c0.4-0.2,0.9-0.5,1.2-0.5c5.9,0,11.3,1.6,15.3,6.1
	c3.1,3.3,4.5,7.4,5.2,11.8c0.7,5,0.7,9.9-0.5,14.9c-2,7.5-6.7,12.9-13.9,15.7c-3.2,1.2-6.8,2.1-10.3,2.7c-2.8,0.5-5.6-0.5-8-1.7
	c-0.2-0.1-0.5-0.2-0.7-0.4C341.3,399,341.3,399,341.2,399z M341.2,377.3c0,4,0,7.9,0,11.9c0,0.5,0.2,1.2,0.5,1.6
	c3,4.1,9.4,6.4,14.4,5.2c4.7-1.2,7.3-4.6,8.9-8.9c1.9-5.1,1.9-10.3,1.2-15.5c-0.5-3.7-1.4-7.2-3.5-10.3c-3-4.5-7.2-5.7-12-3.1
	c-3.2,1.7-6.2,4-9.2,6.1c-0.4,0.2-0.5,0.9-0.5,1.4C341.1,369.4,341.2,373.4,341.2,377.3z M281.3,346.8c-1.6,0-3,0-4.5,0
	c-0.7,0-1-0.2-1.2-0.9c-0.9-2.5-1.6-5-2.6-7.4c-0.4-0.9-0.9-1.6-1.5-2.2c-11.6-9.9-35.8-8.4-41.6,13.4c-3.1,11.6-2.1,23,4.6,33.4
	c5.8,8.9,14.1,13.6,25,13.1c4.5-0.2,8.3-2.4,11.6-5.2c1.1-1,1.6-2.7,2.2-4.1c1.1-2.1,2.2-4.3,3.3-6.4c0.2-0.4,0.9-0.7,1.4-0.9
	c1.4-0.1,2.8,0,4.5,0c-1,4.5-1.9,8.9-2.8,13.2c-0.1,0.2-0.5,0.6-0.7,0.7c-7.3,3.5-14.9,6.3-22.9,7.7c-4,0.7-7.8-0.1-11.6-1.2
	c-14.9-4.1-24.6-16.1-26-31.3c-0.6-7.8,0.1-15.3,3.6-22.4c4-7.9,10.4-13.2,18.4-16.6c5.3-2.2,10.9-4,16.7-4c8.7,0,16.3,3,23.4,7.8
	c0.4,0.2,0.6,0.6,0.6,1C281.4,338.5,281.3,342.6,281.3,346.8z M485.5,298.7c-0.1,1.1-0.4,2.1-0.5,3.1c-6.9,0-13.9,0-21,0
	c-0.1-0.9-0.4-2-0.5-3.1c2.6-0.4,5.1-0.6,7.7-1c0-12.7,0-25.4,0-38.1c-2.5,0.2-4.9,0.5-7.4,0.7c-0.1-1.1-0.4-2.1-0.5-3.1
	c2.7-1.4,12.9-3.8,15.5-3.6c0.2,2.7,0.4,5.6,0.6,8.5c0.6-0.4,1-0.6,1.4-0.9c4.2-2.8,8.5-5.7,12.7-8.4c0.6-0.4,1.4-0.6,2-0.6
	c1.7,0,3.5,0.1,5.2,0.4c5.4,0.9,8,3.8,8.7,9.5c0.2,1.9,0.2,3.8,0.4,5.7c0,9.5,0,19.1,0,28.7c0,1.1,0.4,1.5,1.4,1.5
	c2.2,0.1,4.6,0.5,7.1,0.7c-0.1,1.1-0.4,2.1-0.5,3.1c-7.1,0-14,0-21,0c-0.1-1-0.4-2-0.5-3.1c1.9-0.4,3.6-0.6,5.4-1c0-0.5,0-0.9,0-1.4
	c0-9.4,0-18.8,0-28.2c0-0.2,0-0.6,0-0.9c-0.2-7.1-5.2-8.5-10-7.2c-1.6,0.5-3.1,1.2-4.6,2.1c-2.2,1.2-4.3,2.7-6.6,4.2
	c-0.4,0.2-0.6,0.7-0.6,1.2c0,9.8,0,19.6,0,29.5c0,0.7,0.2,1,0.9,1C482,298.1,483.6,298.5,485.5,298.7z M612.2,257.9
	c-1.6-0.4-3.1-0.7-4.7-1.1c0.1-1.1,0.2-2.1,0.5-3.1c5.8,0,11.6,0,17.6,0c0.1,0.9,0.4,2,0.5,3.1c-1.9,0.2-3.6,0.6-5.4,0.7
	c-1,0.1-1.5,0.5-1.9,1.5c-5.2,13.5-10.3,27.1-15.7,40.5c-3.6,8.7-7.5,17.2-11.4,25.9c-0.1,0.2-0.6,0.7-0.9,0.7c-3.5,0-7.1,0-10.6,0
	c0-3.1,0-6.1,0-9.3c1.6,0,3.2-0.1,4.8,0c2.2,0.2,3.5-0.6,4.6-2.5c2.5-4.2,5.1-8.3,7.7-12.4c0.1-0.2,0.4-0.6,0.6-1
	c-0.7,0.2-1.4,0.4-2.2,0.5c-1.1-2.7-2.1-5.4-3.2-8.3c-4.5-11.4-8.8-22.8-13.2-34.3c-0.4-1-0.9-1.4-1.9-1.4c-1.9-0.2-3.6-0.5-5.4-0.7
	c0.1-1.1,0.4-2.1,0.5-3.1c7.3,0,14.5,0,21.9,0c0.1,0.9,0.4,2,0.5,3.1c-2.5,0.4-4.7,0.7-7.2,1.1c1.6,4.5,3.1,8.8,4.7,13
	c1.9,5.1,3.6,10.1,5.4,15.1c0.9,2.4,1.4,4.8,1.5,7.4c0,0.5,0.1,1,0.5,1.5C603.9,282.7,608,270.4,612.2,257.9z M415.3,278.7
	c0.1-6.4,1.6-12.5,6.1-17.5c3.8-4.3,8.8-6.4,14.2-8.2c10.1-3.1,21.5,2.7,25.5,13.1c2.8,7.4,2.8,15-0.2,22.3
	c-3.1,7.5-9.3,11.4-16.8,13.9c-12.7,4.1-26.1-4.3-28.3-18.6C415.6,282,415.4,280.3,415.3,278.7z M454.6,277.7
	c-0.1-0.9-0.1-2.6-0.4-4.2c-0.7-5-2.6-9.4-6.6-12.9c-5.7-5.1-16.6-6.2-21.2,4.6c-2.6,6.1-3.1,12.3-1.6,18.6c1.1,4.8,3.3,8.9,7.3,12
	c5.8,4.3,14.8,4.6,19.3-4.1C453.7,287.5,454.4,283,454.6,277.7z M327.6,394.4c0.1,1.1,0.2,2.1,0.4,3.3c-4,0.7-7.9,1.5-11.9,2.4
	c-1-2.6-2-5.1-3.1-7.8c-0.4,0.2-0.7,0.5-1.1,0.7c-3.5,2.6-7.1,5.2-10.5,7.7c-0.5,0.4-1.2,0.6-1.9,0.6c-3.3-0.1-6.6-1-9.2-3.1
	c-4.6-3.6-5.8-10.5-3.1-16.1c1-2,2.4-3.3,4.6-4c6.4-2,12.9-4.3,19.3-6.4c0.9-0.2,1.2-0.6,1.1-1.6c-0.1-2.8,0.1-5.8-0.2-8.7
	c-0.5-4.3-2.7-5.9-7.1-5.4c-2.5,0.2-4.8,1-7.3,1.6c-0.5,0.1-1,0.7-1.1,1.2c-0.6,2.1-1.1,4.2-1.6,6.4c-2.5,0-5,0-7.5,0
	c0-2.4,0-4.6,0-6.8c0-0.2,0.4-0.6,0.6-0.7c5.6-2.5,11-5.1,16.6-7.5c0.2-0.1,0.6-0.2,0.9-0.1c2.1,0.1,4.2,0.1,6.2,0.5
	c5.3,1,7.8,3.6,8.4,8.9c0.2,2.5,0.5,4.8,0.5,7.3c0,6.9,0,14,0,20.9c0,2.1,0.2,4.2,1.4,5.9c0.2,0.4,0.9,0.7,1.4,0.7
	C324.6,394.4,326.1,394.4,327.6,394.4z M312.2,375.2c-0.6,0.2-1,0.4-1.4,0.5c-4.5,1.9-8.9,3.8-13.5,5.6c-1.6,0.6-2.5,1.7-3,3.3
	c-0.6,1.9-0.5,3.7,0,5.4c0.7,2.7,2.7,4.3,5.6,4.2c1.6-0.1,3.3-0.4,4.7-1.1c2.5-1.4,4.8-3.1,7.2-4.7c0.2-0.1,0.5-0.5,0.5-0.9
	C312.2,383.5,312.2,379.4,312.2,375.2z M475.7,394.4c-1.5,0-2.8-0.1-4.2,0c-0.9,0-1.2-0.4-1.6-1c-1-2-1.2-4.2-1.2-6.4
	c0-7.2,0-14.5,0-21.7c0-2.6-0.4-5.3-0.9-7.9c-0.5-2.5-1.7-4.6-4.1-5.8c-3.3-1.6-6.8-1.7-10.4-1.6c-0.2,0-0.4,0.1-0.6,0.2
	c-5.4,2.5-11,5-16.5,7.4c-0.2,0.1-0.6,0.5-0.7,0.7c0,2.2,0,4.5,0,6.8c2.5,0,4.7,0,7.1,0c0.2,0,0.6-0.5,0.7-0.7
	c0.5-1.9,1-3.8,1.5-5.8c0.1-0.4,0.5-1,0.7-1c2.8-0.6,5.7-1.5,8.7-1.7c3.7-0.2,5.7,1.6,6.1,5.3c0.2,3,0.1,5.9,0.2,8.9
	c0,0.9-0.4,1.1-1.1,1.4c-6.6,2.2-13,4.5-19.6,6.6c-2.2,0.7-3.6,2-4.5,4c-2.5,5.1-1.9,11,1.7,14.9c3,3.2,6.9,4.2,11.1,4.3
	c0.4,0,0.9-0.2,1.2-0.5c2.6-1.9,5.2-3.7,7.8-5.7c1.2-0.9,2.5-1.9,3.8-2.8c1.1,2.7,2.1,5.2,3.1,7.8c4-0.7,7.9-1.5,11.9-2.2
	C476,396.5,475.8,395.4,475.7,394.4z M460.4,387.6c0,0.2-0.2,0.6-0.5,0.7c-2.2,1.6-4.5,3.2-6.8,4.6c-2.1,1.2-4.3,1.9-6.8,1.1
	c-1.7-0.5-2.8-1.6-3.6-3.2c-0.9-2.2-0.9-4.6-0.1-6.8c0.5-1.4,1.2-2.2,2.7-2.8c4.6-1.9,9.2-3.8,13.9-5.7c0.4-0.1,0.7-0.2,1.2-0.5
	C460.5,379.4,460.5,383.5,460.4,387.6z M327.4,267.4c0-2.4,0-4.6,0-6.7c0-0.2,0.4-0.7,0.7-0.9c5.4-2.5,10.9-5.2,16.5-7.4
	c1.5-0.6,3.5-0.1,5.2-0.1c0.7,0,1.5,0.1,2.2,0.4c5.3,1.1,7.9,4.1,8.2,10.1c0.2,8,0.2,16.1,0.4,24.3c0,1.7,0.1,3.6,0.2,5.3
	c0,0.5,0.1,0.9,0.2,1.4c0.7,2.7,1,3,3.8,3c0.9,0,1.7,0,2.7,0c0.1,1.1,0.2,2.1,0.4,3.2c-4,0.7-7.9,1.5-11.9,2.2c-1-2.6-2-5.1-3.1-7.8
	c-0.5,0.4-0.9,0.6-1.2,0.9c-3.5,2.5-6.9,5.1-10.4,7.5c-0.4,0.2-0.9,0.6-1.2,0.6c-4.8,0-9.3-1.4-12.1-5.6c-3-4.3-3-9-0.6-13.9
	c0.9-2,2.2-3.1,4.3-3.8c6.6-2,13-4.3,19.4-6.4c1-0.4,1.4-0.7,1.2-1.7c-0.1-2.7-0.1-5.4-0.2-8c-0.2-4.2-2.4-6.2-6.6-5.8
	c-2.7,0.2-5.3,1-8,1.6c-0.4,0.1-0.9,0.7-1,1.1c-0.5,1.9-1,3.8-1.5,5.7c-0.1,0.4-0.6,0.7-0.9,0.7
	C332.2,267.6,329.9,267.4,327.4,267.4z M352.6,277.5c-0.6,0.2-1.1,0.4-1.5,0.6c-4.6,1.9-9.2,3.8-13.7,5.7c-1.1,0.5-2,1.1-2.4,2.2
	c-1.1,2.6-1.1,5.3,0.1,7.8c0.7,1.5,2,2.2,3.5,2.7c2.6,0.6,4.8-0.1,7.1-1.5c2.1-1.4,4.2-2.8,6.3-4.2c0.2-0.2,0.6-0.6,0.6-1
	C352.6,285.7,352.6,281.7,352.6,277.5z M494.2,395.5c2.8,0.4,5.4,0.6,8.3,1c-0.1,1-0.1,1.9-0.4,2.6c-0.1,0.4-0.7,0.6-1.2,0.6
	c-3,0-5.8-0.2-8.8-0.2c-3.8,0-7.8,0.1-11.6,0.2c-0.5,0-1,0-1.6,0c-0.1-1.1-0.4-2-0.5-3.2c2.5-0.4,4.9-0.6,7.5-1
	c0-20.9,0-41.8,0-62.7c-2.5,0-4.8,0-7.4,0c-0.1-1-0.4-2-0.5-3.2c5.4-1.2,10.5-3.7,16.3-3.6C494.2,349.2,494.2,372.4,494.2,395.5z
	 M416.8,338.8c0,4.5,0,9,0,13.6c5.3,0,10.6,0,16,0c0,1.5,0,2.8,0,4.3c-5.3,0-10.5,0-15.8,0c0,0.6-0.1,1-0.1,1.5c0,9.5,0,19.1,0,28.6
	c0,0.9,0.1,1.7,0.2,2.6c0.4,2.7,2.1,4.3,4.8,4.5c2.4,0.1,4.5-0.5,6.7-1.5c0.6-0.2,1.4-0.6,2.1-0.9c0.5,1,1,2,1.6,3.1
	c-2.6,1.5-5.1,3-7.7,4.3c-0.5,0.4-1.1,0.6-1.6,1c-4.1,2.4-7.9,1.2-11.6-0.7c-2.1-1.1-2.4-3.5-2.6-5.7c-0.1-1.6-0.1-3.2-0.1-4.8
	c0-10,0-20,0-30.1c0-0.5,0-1.1,0-1.7c-3.3,0-6.7,0-9.9,0c-0.4-1.1-0.1-1.9,0.6-2.7c1.6-2,3.6-3,6.2-2.5c1.1,0.1,2.2,0,3.6,0
	c0-1.9-0.1-3.7,0-5.4c0-0.7,0.4-1.5,0.7-2c1.2-1.6,2.7-3.1,4.1-4.6C414.9,338.5,414.9,338.5,416.8,338.8z M304.7,253.4
	c0,4.3,0,8.4,0,12.7c1.7-2,3.5-3.8,5.1-5.8c2-2.4,4.1-4.7,6.1-6.9c0.4-0.4,1.1-0.7,1.7-0.7c2.2-0.1,4.5,0,6.8,0c0,3.1,0,6.1,0,9.2
	c-1.9,0-3.7-0.1-5.4,0c-1.2,0.1-2.5,0.4-3.5,0.9c-4.1,2.1-7.3,5.2-9.9,8.9c-0.2,0.2-0.4,0.7-0.4,1c0,8,0,16.1,0,24.1
	c0,0.2,0,0.4,0.1,0.7c3.5,0.4,7.1,0.6,10.5,1c-0.1,1.2-0.4,2.5-0.5,3.5c-8.4,0-16.8,0-25.2,0c-0.1-1-0.4-2-0.5-3.1
	c2.2-0.2,4.3-0.6,6.6-0.7c0.7-0.1,1.1-0.4,1.1-1.1c0-12.1,0-24.3,0-36.4c0-0.2,0-0.4-0.1-0.7c-2.5,0.2-5,0.5-7.5,0.6
	c-0.1-1.1-0.4-2.1-0.5-3.3C294.3,255.9,299.1,253.7,304.7,253.4z M401.6,396.5c-0.1,1.1-0.4,2.1-0.5,3.1c-2.5,0-5,0-7.4,0
	c-4.6,0-9.2,0.1-13.9,0.1c-2,0-2,0-2.4-1.9c-0.1-0.4-0.1-0.9-0.1-1.2c2.5-0.4,5-0.6,7.5-1c0-12.6,0-25.2,0-38
	c-2.5,0.1-5,0.4-7.5,0.5c-0.1-1.1-0.4-2.1-0.5-3.2c5.4-1.2,10.6-3.7,16.5-3.6c0,14.9,0,29.6,0,44.3
	C396.1,395.9,398.7,396.1,401.6,396.5z M387.8,344.7c-0.2,0-0.4,0.1-0.6,0.1c-2.2,0.1-2.8-0.5-3.2-2.7c-0.4-2.4-0.2-4.7,0.4-7.1
	c0.1-0.4,0.4-0.9,0.6-0.9c2.7-0.1,5.6-0.9,8.3-0.1c0.4,0.1,0.7,0.6,0.7,0.9c0.5,2.8,0.5,5.7-0.4,8.5c-0.1,0.4-0.6,0.7-0.9,0.7
	C391.1,344.4,389.4,344.5,387.8,344.7z"/>
</svg>
