<?xml version="1.0" encoding="UTF-8"?>
<svg id="katman_1" data-name="katman 1" xmlns="http://www.w3.org/2000/svg" width="300" height="100" viewBox="0 0 300 100">
  <path d="M82.66,40.32c.06,2.32,1.77,3.42,3.68,3.42,1.23,0,2.45-.52,2.97-1.64h3.19c-.71,3.03-3.45,4.58-6.32,4.58-3.42,0-6.84-2.32-6.84-7.38s3.22-7.42,6.87-7.42c3.45,0,6.42,2.29,6.42,7v1.42h-9.96v.03Zm.1-2.55h6.48c0-1.87-1.32-2.97-3.1-2.97-1.58,.06-3.1,.9-3.39,2.97Zm20.74,8.61h-2.26c-2.71,0-4.35-.84-4.35-4.64v-6.51h-2.58v-3.1h2.61v-3.19l3.42-.94v4.16h2.84v3.1h-2.84v6.42c0,.97,.29,1.71,1.71,1.71h1.45v3Zm15.83-9.16v9.19h-3.42v-8.9c0-1.61-.97-2.55-2.68-2.55-2.03,0-3.13,1.42-3.13,3.74v7.71h-3.42V26.75h3.45v7.55c.77-1.35,1.9-2.35,4.35-2.35,3.19-.06,4.84,1.9,4.84,5.29Zm6.64,3.1c.06,2.32,1.77,3.42,3.68,3.42,1.23,0,2.45-.52,2.97-1.64h3.19c-.71,3.03-3.45,4.58-6.32,4.58-3.42,0-6.84-2.32-6.84-7.38s3.22-7.42,6.87-7.42c3.45,0,6.42,2.29,6.42,7v1.42h-9.96v.03Zm.1-2.55h6.48c0-1.87-1.32-2.97-3.1-2.97-1.58,.06-3.06,.9-3.39,2.97Zm21.41-2.45h-.9c-2.39,0-3.71,1.32-3.71,4.13v6.93h-3.42v-14.22h3.42v2.1c.71-1.58,2.03-2.26,3.71-2.26h.94l-.03,3.32Zm4.97,5c.06,2.32,1.77,3.42,3.68,3.42,1.23,0,2.45-.52,2.97-1.64h3.19c-.71,3.03-3.45,4.58-6.32,4.58-3.42,0-6.84-2.32-6.84-7.38s3.22-7.42,6.87-7.42c3.45,0,6.42,2.29,6.42,7v1.42h-9.96v.03Zm.1-2.55h6.48c0-1.87-1.32-2.97-3.1-2.97-1.58,.06-3.13,.9-3.39,2.97Zm25.6,8.61h-3.35v-2.03c-.84,1.32-2,2.16-3.97,2.16-3,0-5.13-1.9-5.13-5.58v-8.8h3.42v8.61c0,1.9,1,2.77,2.48,2.77,1.61,0,3.1-1.19,3.1-4.45v-6.93h3.42l.03,14.25Zm24.77-9.58v9.61h-3.42v-8.93c0-1.71-.77-2.48-2.26-2.48-1.64,0-2.74,.97-2.74,3.42v8.03h-3.42v-8.96c0-1.71-.87-2.48-2.29-2.48-1.61,0-2.74,1-2.74,3.39v8.06h-3.45v-14.29h3.39v2.1c.45-1.13,1.58-2.35,3.74-2.35,1.9,0,3.29,.87,4,2.35,.55-1,1.64-2.35,4.22-2.35,3.03-.03,4.97,1.84,4.97,4.9Zm-117.28,19.67c-1.23,0-1.45,.61-1.45,1.45v.94h2.61v3.1h-2.61v11.16h-3.42v-11.16h-2.13v-3.1h2.13v-.74c0-3.84,1.71-4.64,4.32-4.64h2.06v3.06l-1.52-.06Zm17.28,9.55c0,4.64-2.93,7.42-7.09,7.42s-7.06-2.77-7.06-7.42,2.93-7.38,7.06-7.38c4.16-.03,7.09,2.71,7.09,7.38Zm-10.67,0c0,2.87,1.55,4.26,3.61,4.26,2.23,0,3.51-1.58,3.51-4.26,0-2.84-1.55-4.22-3.61-4.22-2.23,0-3.51,1.55-3.51,4.22Zm26.41,7.09h-3.32v-2.03c-.84,1.32-2,2.16-3.97,2.16-3,0-5.13-1.9-5.13-5.58v-8.84h3.42v8.61c0,1.9,1,2.77,2.48,2.77,1.61,0,3.1-1.19,3.1-4.45v-6.9h3.42v14.25h0Zm17.09-9.22v9.22h-3.42v-8.9c0-1.61-.97-2.55-2.68-2.55-2.03,0-3.13,1.42-3.13,3.74v7.71h-3.42v-14.22h3.42v2.06c.77-1.32,1.97-2.32,4.35-2.32,3.19-.03,4.87,1.9,4.87,5.26Zm17.64,9.22h-3.39v-2.16c-.74,1.64-2.55,2.48-4.51,2.48-3.48,0-6.42-2.45-6.42-7.45s2.93-7.35,6.42-7.35c1.87,0,3.61,.74,4.45,2.13v-7.32h3.42l.03,19.67Zm-3.35-7.13c0-2.97-1.87-4.35-3.74-4.35-2,0-3.71,1.42-3.71,4.35s1.71,4.32,3.71,4.32c1.84-.03,3.74-1.42,3.74-4.32Zm19.22-2.42v9.58h-3.35v-2.06c-1.1,1.84-2.97,2.39-4.45,2.39-2.26,0-4.58-1.23-4.58-4.26,0-3.55,3.22-4.19,4.55-4.35l2.97-.42c.61-.06,1.71-.39,1.71-1.55s-1-1.58-2.32-1.58c-1.9,0-2.84,.87-3,2.1h-3.32c.39-3.29,3.19-4.8,6.45-4.8,3.32,0,5.35,1.58,5.35,4.97Zm-3.32,3.58v-.74c-.45,.19-.9,.29-1.71,.42l-1.71,.23c-.87,.1-2.29,.52-2.29,1.9,0,1.1,.84,1.64,2.06,1.64,2.03-.03,3.64-1.48,3.64-3.45Zm14.93,5.97h-2.26c-2.71,0-4.35-.84-4.35-4.64v-6.51h-2.61v-3.1h2.61v-3.19l3.42-.94v4.13h2.84v3.1h-2.84v6.42c0,.97,.29,1.71,1.71,1.71h1.45l.03,3.03Zm2.97-20.06h3.64v3.9h-3.64v-3.9Zm.1,20.06h3.42v-14.25h-3.42v14.25Zm20.96-7.09c0,4.64-2.93,7.42-7.09,7.42s-7.06-2.77-7.06-7.42,2.93-7.38,7.06-7.38c4.22-.03,7.09,2.71,7.09,7.38Zm-10.61,0c0,2.87,1.55,4.26,3.61,4.26,2.23,0,3.51-1.58,3.51-4.26,0-2.84-1.55-4.22-3.61-4.22-2.23,0-3.51,1.55-3.51,4.22Zm26.73-2.13v9.22h-3.42v-8.9c0-1.61-.97-2.55-2.68-2.55-2.03,0-3.13,1.42-3.13,3.74v7.71h-3.42v-14.22h3.42v2.06c.77-1.32,1.97-2.32,4.35-2.32,3.22-.03,4.9,1.9,4.87,5.26Z"/>
</svg>