<?xml version="1.0" encoding="utf-8"?>
<!-- Generator: Adobe Illustrator 26.3.1, SVG Export Plug-In . SVG Version: 6.00 Build 0)  -->
<svg version="1.1" id="katman_1" xmlns="http://www.w3.org/2000/svg" xmlns:xlink="http://www.w3.org/1999/xlink" x="0px" y="0px"
	 viewBox="0 0 652 267" style="enable-background:new 0 0 652 267;" xml:space="preserve">
<style type="text/css">
	.st0{fill:#FFFFFF;}
</style>
<path class="st0" d="M92.2,172.8V33.3l-58.8,102L92.2,172.8z"/>
<path class="st0" d="M92.2,33.3l58.8,102l-58.8,37.4V33.3z"/>
<path class="st0" d="M33.4,147.5L92.3,185v48.3"/>
<path class="st0" d="M151,147.5L92.2,185v48.3"/>
<path class="st0" d="M92.2,101.9l-58.9,33.4l58.9,37.4V101.9z"/>
<path class="st0" d="M92.2,101.9l58.8,33.4l-58.8,37.4V101.9z"/>
<path d="M189.1,98.5c0.2,7.2,5.5,10.6,11.4,10.6c3.8,0,7.6-1.6,9.2-5.1h9.9c-2.2,9.4-10.7,14.2-19.6,14.2
	c-10.6,0-21.2-7.2-21.2-22.9c0-15.2,10-23,21.3-23c10.7,0,19.9,7.1,19.9,21.7v4.4H189.1z M189.4,90.6h20.1c0-5.8-4.1-9.2-9.6-9.2
	C195,81.6,190.3,84.2,189.4,90.6z M253.7,117.3h-7c-8.4,0-13.5-2.6-13.5-14.4V82.7h-8v-9.6h8.1v-9.9l10.6-2.9v12.9h8.8v9.6h-8.8
	v19.9c0,3,0.9,5.3,5.3,5.3h4.5L253.7,117.3z M302.8,88.9v28.5h-10.6V89.8c0-5-3-7.9-8.3-7.9c-6.3,0-9.7,4.4-9.7,11.6v23.9h-10.6v-61
	h10.7v23.4c2.4-4.2,5.9-7.3,13.5-7.3C297.7,72.3,302.8,78.4,302.8,88.9z M323.4,98.5c0.2,7.2,5.5,10.6,11.4,10.6
	c3.8,0,7.6-1.6,9.2-5.1h9.9c-2.2,9.4-10.7,14.2-19.6,14.2c-10.6,0-21.2-7.2-21.2-22.9c0-15.2,10-23,21.3-23
	c10.7,0,19.9,7.1,19.9,21.7v4.4H323.4z M323.7,90.6h20.1c0-5.8-4.1-9.2-9.6-9.2C329.3,81.6,324.7,84.2,323.7,90.6z M390.1,83h-2.8
	c-7.4,0-11.5,4.1-11.5,12.8v21.5h-10.6V73.2h10.6v6.5c2.2-4.9,6.3-7,11.5-7h2.9L390.1,83z M405.5,98.5c0.2,7.2,5.5,10.6,11.4,10.6
	c3.8,0,7.6-1.6,9.2-5.1h9.9c-2.2,9.4-10.7,14.2-19.6,14.2c-10.6,0-21.2-7.2-21.2-22.9c0-15.2,10-23,21.3-23
	c10.7,0,19.9,7.1,19.9,21.7v4.4H405.5z M405.8,90.6h20.1c0-5.8-4.1-9.2-9.6-9.2C411.4,81.6,406.6,84.2,405.8,90.6z M485.2,117.3
	h-10.4V111c-2.6,4.1-6.2,6.7-12.3,6.7c-9.3,0-15.9-5.9-15.9-17.3V73.1h10.6v26.7c0,5.9,3.1,8.6,7.7,8.6c5,0,9.6-3.7,9.6-13.8V73.1
	h10.6L485.2,117.3z M562,87.6v29.8h-10.6V89.7c0-5.3-2.4-7.7-7-7.7c-5.1,0-8.5,3-8.5,10.6v24.9h-10.6V89.7c0-5.3-2.7-7.7-7.1-7.7
	c-5,0-8.5,3.1-8.5,10.5v25H499V73.2h10.5v6.5c1.4-3.5,4.9-7.3,11.6-7.3c5.9,0,10.2,2.7,12.4,7.3c1.7-3.1,5.1-7.3,13.1-7.3
	C556,72.3,562,78.1,562,87.6z M198.3,148.6c-3.8,0-4.5,1.9-4.5,4.5v2.9h8.1v9.6h-8.1v34.6h-10.6v-34.6h-6.6V156h6.6v-2.3
	c0-11.9,5.3-14.4,13.4-14.4h6.4v9.5L198.3,148.6z M251.9,178.2c0,14.4-9.1,23-22,23c-12.9,0-21.9-8.6-21.9-23
	c0-14.3,9.1-22.9,21.9-22.9C242.8,155.2,251.9,163.7,251.9,178.2z M218.8,178.2c0,8.9,4.8,13.2,11.2,13.2c6.9,0,10.9-4.9,10.9-13.2
	c0-8.8-4.8-13.1-11.2-13.1C222.8,165.1,218.8,169.9,218.8,178.2z M300.7,200.2h-10.3v-6.3c-2.6,4.1-6.2,6.7-12.3,6.7
	c-9.3,0-15.9-5.9-15.9-17.3v-27.4h10.6v26.7c0,5.9,3.1,8.6,7.7,8.6c5,0,9.6-3.7,9.6-13.8v-21.4h10.6V200.2z M353.7,171.6v28.6h-10.6
	v-27.6c0-5-3-7.9-8.3-7.9c-6.3,0-9.7,4.4-9.7,11.6v23.9h-10.6v-44.1h10.6v6.4c2.4-4.1,6.1-7.2,13.5-7.2
	C348.5,155.2,353.7,161.2,353.7,171.6z M408.4,200.2h-10.5v-6.7c-2.3,5.1-7.9,7.7-14,7.7c-10.8,0-19.9-7.6-19.9-23.1
	c0-15.3,9.1-22.8,19.9-22.8c5.8,0,11.2,2.3,13.8,6.6v-22.7h10.6L408.4,200.2z M398,178.1c0-9.2-5.8-13.5-11.6-13.5
	c-6.2,0-11.5,4.4-11.5,13.5c0,8.9,5.3,13.4,11.5,13.4C392.1,191.4,398,187.1,398,178.1z M457.6,170.6v29.7h-10.4v-6.4
	c-3.4,5.7-9.2,7.4-13.8,7.4c-7,0-14.2-3.8-14.2-13.2c0-11,10-13,14.1-13.5l9.2-1.3c1.9-0.2,5.3-1.2,5.3-4.8c0-3.5-3.1-4.9-7.2-4.9
	c-5.9,0-8.8,2.7-9.3,6.5H421c1.2-10.2,9.9-14.9,20-14.9C451.3,155.2,457.6,160.1,457.6,170.6z M447.3,181.7v-2.3
	c-1.4,0.6-2.8,0.9-5.3,1.3l-5.3,0.7c-2.7,0.3-7.1,1.6-7.1,5.9c0,3.4,2.6,5.1,6.4,5.1C442.3,192.3,447.3,187.8,447.3,181.7z
	 M493.6,200.2h-7c-8.4,0-13.5-2.6-13.5-14.4v-20.2h-8.1V156h8.1v-9.9l10.6-2.9V156h8.8v9.6h-8.8v19.9c0,3,0.9,5.3,5.3,5.3h4.5
	L493.6,200.2z M502.8,138h11.3v12.1h-11.3V138z M503.1,200.2h10.6V156h-10.6V200.2z M568.1,178.2c0,14.4-9.1,23-22,23
	c-12.9,0-21.9-8.6-21.9-23c0-14.3,9.1-22.9,21.9-22.9C559.2,155.2,568.1,163.7,568.1,178.2z M535.2,178.2c0,8.9,4.8,13.2,11.2,13.2
	c6.9,0,10.9-4.9,10.9-13.2c0-8.8-4.8-13.1-11.2-13.1C539.2,165.1,535.2,169.9,535.2,178.2z M618.1,171.6v28.6h-10.6v-27.6
	c0-5-3-7.9-8.3-7.9c-6.3,0-9.7,4.4-9.7,11.6v23.9h-10.6v-44.1h10.6v6.4c2.4-4.1,6.1-7.2,13.5-7.2C613,155.2,618.2,161.2,618.1,171.6
	z"/>
</svg>
