<?xml version="1.0" encoding="utf-8"?>
<!-- Generator: Adobe Illustrator 26.3.1, SVG Export Plug-In . SVG Version: 6.00 Build 0)  -->
<svg version="1.1" id="katman_1" xmlns="http://www.w3.org/2000/svg" xmlns:xlink="http://www.w3.org/1999/xlink" x="0px" y="0px"
	 viewBox="0 0 836 262" style="enable-background:new 0 0 836 262;" xml:space="preserve">
<style type="text/css">
	.st0{fill:#280404;}
</style>
<path class="st0" d="M435.1,228.5c-35.7,0-37.9-21-31.3-44.8h28.8c-2.8,13.2-4.6,24.2,11.2,24.2c9.7,0,15.8-6.3,17.8-15.6
	c5.3-24.8-52.4-26.3-43.7-67.3c4.6-21.6,18.5-38.7,53.6-38.7c28,0,39.3,12.6,31.3,41.4h-28c2.2-10.3,2.7-20.8-8.9-20.8
	c-9.3,0-16,5.2-18,14.7c-5.6,26.1,52.9,23.8,43.7,67.2C484,224.3,457,228.5,435.1,228.5z M603.5,226.2l29.3-137.7H708l-4.5,21.2
	h-46.4l-7.2,34h42.7l-4.5,21.2h-42.7l-8.6,40.3h47.9l-4.5,21.2H603.5z M575.5,143.6l11.7-55.1H616l-29.3,137.7h-28.8l13.1-61.4h-33
	l-13.1,61.4h-28.8l29.3-137.7h28.8l-11.7,55.1H575.5z M360.6,127.5l-48.3,98.6h-29l67.4-137.7h38l8.1,137.7h-30.4L360.6,127.5z
	 M767.4,88.4c37.8,0,39.5,25.2,30.4,68.1c-4.5,21.2-11.6,69.6-60.8,69.6h-46.9c9.8-45.9,19.5-91.8,29.3-137.7H767.4z M768.4,157.3
	c5.4-25.4,10.1-47.7-9.9-47.7h-14.9c-6.8,31.8-13.5,63.6-20.3,95.4h13.9C754.9,205,761.1,191.8,768.4,157.3z M276.4,226.2h-28.8
	l13.1-61.4h-33l-13.1,61.4h-28.8l29.3-137.7h28.8l-11.7,55.1h33l11.7-55.1h28.8L276.4,226.2z M128.4,143.6l7.2-34h-33l-7.2,34H128.4
	z M193.3,109.6h-28.8l-7.2,34H186l-4.5,21.2h-28.8l-13.1,61.4h-28.8l13.1-61.4h-33l-13.1,61.4H49.1l13.1-61.4H33.3l4.5-21.2h28.8
	l7.2-34H45l4.5-21.2h28.8l11.7-55.1h28.8l-11.7,55.1h33l11.7-55.1h28.8L169,88.4h28.8L193.3,109.6z"/>
</svg>
