<?xml version="1.0" encoding="UTF-8"?>
<svg id="katman_1" data-name="katman 1" xmlns="http://www.w3.org/2000/svg" width="300" height="100" viewBox="0 0 300 100">
  <defs>
    <style>
      .cls-1 {
        fill: #010202;
      }

      .cls-2 {
        fill: #872f61;
      }

      .cls-3 {
        fill: #bf2378;
      }

      .cls-4 {
        fill: #c9227a;
      }

      .cls-5 {
        fill: #cb4290;
      }

      .cls-6 {
        fill: #cb428f;
      }

      .cls-7 {
        fill: #c8217a;
      }

      .cls-8 {
        fill: #ca227c;
      }

      .cls-9 {
        fill: #363a52;
      }

      .cls-10 {
        fill: #555454;
      }

      .cls-11 {
        fill: #393c54;
      }

      .cls-12 {
        fill: #fff;
        fill-rule: evenodd;
      }
    </style>
  </defs>
  <path class="cls-4" d="M113.86,33.55v14.86h9.28v-3.19h-5.68v-11.7h-3.6v.03Z"/>
  <path class="cls-4" d="M122.82,41.01c0,2.23,.73,4.05,2.2,5.49,1.5,1.44,3.28,2.17,5.42,2.17s3.92-.73,5.42-2.17c1.47-1.44,2.2-3.25,2.2-5.49s-.73-4.05-2.2-5.49-3.25-2.17-5.42-2.17-3.95,.73-5.42,2.17-2.2,3.28-2.2,5.49Zm11.58,0c0,1.31-.35,2.36-1.08,3.13-.73,.8-1.66,1.18-2.84,1.18s-2.17-.38-2.87-1.18c-.73-.8-1.05-1.82-1.05-3.13s.35-2.36,1.05-3.16c.73-.77,1.69-1.18,2.87-1.18s2.14,.41,2.84,1.18c.73,.8,1.08,1.82,1.08,3.16Z"/>
  <path class="cls-4" d="M149.04,33.55v8.55l-6.15-8.55h-3.51v14.86h3.6v-8.64l6.44,8.64h3.25v-14.86h-3.64Z"/>
  <path class="cls-4" d="M153.95,41.01c0,2.23,.73,4.05,2.2,5.49,1.5,1.44,3.28,2.17,5.42,2.17s3.73-.67,5.1-2.04c1.37-1.37,2.07-3.13,2.07-5.29,0-.61-.06-1.12-.16-1.56h-8.45v2.81h4.82c-.13,.92-.51,1.66-1.18,2.14-.67,.51-1.44,.73-2.26,.73-1.18,0-2.14-.41-2.81-1.21-.73-.8-1.05-1.88-1.05-3.22s.35-2.39,1.05-3.19c.67-.8,1.63-1.21,2.77-1.21,1.5,0,2.52,.67,3.06,1.91h4.05c-.38-1.66-1.24-2.93-2.52-3.83-1.31-.86-2.77-1.31-4.46-1.31-2.17,0-3.95,.73-5.42,2.17-1.53,1.4-2.23,3.25-2.23,5.45Z"/>
  <path class="cls-1" d="M172.57,48.89h1.28v-7.65h8.04v7.65h1.28v-15.43h-1.28v6.7h-8.04v-6.7h-1.28v15.43Z"/>
  <path class="cls-1" d="M204.18,49.17c3.03,0,5.01-1.82,5.01-4.21s-1.5-3.32-3.25-4.11l-2.33-1.02c-1.12-.48-2.65-1.15-2.65-2.9,0-1.59,1.31-2.61,3.28-2.61,1.53,0,2.74,.61,3.64,1.56l.73-.83c-.99-1.05-2.52-1.85-4.37-1.85-2.65,0-4.59,1.59-4.59,3.89s1.75,3.25,3.13,3.86l2.33,1.02c1.53,.67,2.74,1.28,2.74,3.13,0,1.75-1.44,2.97-3.7,2.97-1.75,0-3.35-.8-4.46-2.04l-.8,.89c1.28,1.34,3.06,2.26,5.29,2.26Z"/>
  <path class="cls-1" d="M212.4,48.89h1.28v-7.65h8.04v7.65h1.28v-15.43h-1.28v6.7h-8.04v-6.7h-1.28v15.43Z"/>
  <path class="cls-1" d="M189.89,39.89c.61-1.79,1.15-3.44,1.69-5.29h.1c.54,1.85,1.05,3.51,1.69,5.29l1.28,3.83,1.72,5.2h1.37l-5.42-15.43h-1.31l-5.42,15.43h1.28l3.03-9.02Z"/>
  <path class="cls-1" d="M116.83,64.58h1.37l3.03-9.47h-1.21l-1.53,5.13c-.35,1.12-.57,2.01-.92,3.13h-.06c-.35-1.12-.57-2.01-.92-3.13l-1.53-5.13h-1.24l3.03,9.47Z"/>
  <path class="cls-1" d="M129.08,64.58h5.61v-1.02h-4.4v-3.44h3.6v-1.02h-3.6v-2.97h4.27v-1.05h-5.49v9.5Z"/>
  <path class="cls-1" d="M143.2,64.58h1.15v-4.97c0-.99-.1-2.01-.13-2.97h.06l1.02,1.95,3.44,6h1.24v-9.5h-1.15v4.94c0,.99,.1,2.04,.16,3h-.06l-1.02-1.95-3.48-6h-1.24v9.5Z"/>
  <path class="cls-1" d="M161.06,64.58h1.21v-8.45h2.87v-1.05h-6.95v1.02h2.87v8.48Z"/>
  <path class="cls-1" d="M176.72,64.74c1.95,0,3.41-1.02,3.41-4.08v-5.58h-1.15v5.61c0,2.3-.99,3-2.26,3s-2.2-.7-2.2-3v-5.61h-1.21v5.58c.03,3.03,1.5,4.08,3.41,4.08Z"/>
  <path class="cls-1" d="M189.22,64.58h1.21v-4.02h1.72l2.3,4.02h1.37l-2.42-4.15c1.31-.32,2.14-1.18,2.14-2.65,0-1.98-1.37-2.68-3.32-2.68h-2.97v9.47h-.03Zm1.21-5.01v-3.51h1.59c1.5,0,2.3,.45,2.3,1.69s-.83,1.82-2.3,1.82h-1.59Z"/>
  <path class="cls-1" d="M203.98,64.58h5.61v-1.02h-4.4v-3.44h3.6v-1.02h-3.6v-2.97h4.27v-1.05h-5.49v9.5Z"/>
  <path class="cls-1" d="M220.76,64.74c1.98,0,3.22-1.18,3.22-2.68,0-1.4-.86-2.04-1.95-2.52l-1.37-.57c-.73-.32-1.56-.67-1.56-1.56s.7-1.4,1.79-1.4c.89,0,1.56,.35,2.17,.89l.64-.77c-.67-.7-1.66-1.18-2.81-1.18-1.72,0-3,1.05-3,2.52,0,1.37,1.05,2.04,1.91,2.42l1.37,.61c.89,.41,1.59,.7,1.59,1.69,0,.92-.77,1.56-1.98,1.56-.99,0-1.95-.48-2.61-1.18l-.73,.83c.83,.8,1.98,1.34,3.32,1.34Z"/>
  <path class="cls-9" d="M106.11,45.41l-11.51,2.9c-2.49-1.37-3.25-2.42-3.89-4.56l3.95,2.3,9.31-2.46c.57,.8,1.02,1.18,2.14,1.82Z"/>
  <path class="cls-3" d="M94.6,50.64v-2.36l11.51-2.9v1.66c-.1,.45-.22,.61-.67,.83l-10.84,2.77Z"/>
  <path class="cls-11" d="M94.6,50.64l-1.98-1.15v2.3l2.58,1.53v4.62l-2.58,.67v4.94l11.51-3.13v-12.25l-9.54,2.46Z"/>
  <path class="cls-8" d="M92.63,53.99l-4.05-2.36,2.52-.67,4.11,2.36v4.62l-2.58,.67v-4.62Z"/>
  <path class="cls-7" d="M105.51,50.64l-1.37-.77v-1.66l.77-.16v.06l3.19,1.82v4.72l-2.58,.61v-4.62h0Z"/>
  <path class="cls-7" d="M94.6,64.8l-1.98-1.21,3.79-1.08,2.04,1.08v2.42l-3.89,.99v-2.2h.03Z"/>
  <path class="cls-7" d="M102.22,65.02v-2.36l-1.98-1.15,3.79-1.05,2.04,1.21v2.36l-3.86,.99Z"/>
  <path class="cls-2" d="M75.28,39.48l3.95,2.36v4.4l3.95,2.3v1.21l-1.69,.45,3.41,1.98v6.98l-3.41-1.98v-4.18l-2.3-1.37v-5.39l-3.92-2.3v-4.46Z"/>
  <path class="cls-5" d="M75.28,39.48l3.79-.99,3.95,2.36v4.5l2.52,1.44v5.17l-.67,.22-3.35-1.98,1.69-.45v-1.21l-3.95-2.3v-4.4l-3.99-2.36Z"/>
  <path class="cls-10" d="M85.55,59.47l-.61-.32v-6.98l.61-.22v7.53Z"/>
  <path class="cls-2" d="M94.6,67l-9.06-5.23v-24.87c.06-.32,.1-.48,.32-.67l4.78,2.81v2.3l4.05,2.36v2.36l-3.95-2.2c.7,2.17,1.53,3.16,3.89,4.5v2.36l-1.98-1.15v2.3l-1.53-.83-2.52,.67,4.05,2.36v9.6l1.98,1.15v2.2h-.03Z"/>
  <path class="cls-1" d="M87.24,40.24c.16-.67,1.12-.8,1.53,0-.73,.35-.92,.61-.38,1.44-.8-.06-1.31-.77-1.15-1.44Z"/>
  <path class="cls-6" d="M85.86,36.19c.1-.16,.19-.22,.38-.32l9.98-2.52c.61-.03,.89,.03,1.37,.16l4.5,2.58v2.3l4.05,2.36v1.59c-.06,.45-.19,.64-.54,.83l-10.91,2.81v-2.36l-4.05-2.36v-2.3l-4.78-2.77Z"/>
  <path class="cls-2" d="M105.51,50.64l-1.37-.77v4.72l1.37,.67v-4.62Z"/>
  <path class="cls-2" d="M102.22,62.66l-1.98-1.15-2.68,.67,4.66,2.74v-2.26h0Z"/>
  <path class="cls-12" d="M95.69,53.1l.99-.22v-1.91l1.37-.32v1.91l1.98-.45v-2.04l1.31-.22v1.91l.92-.22v1.37l-.92,.22v3.13l.92-.22v1.44l-.92,.22v1.91l-1.31,.32v-1.75l-1.98,.45v1.75l-1.37,.38v-1.82l-.99,.22v-1.44l.99-.22v-2.97l-.99,.22v-1.66Zm4.34,.45l-1.98,.54v2.97l1.98-.54v-2.97Z"/>
</svg>