<?xml version="1.0" encoding="utf-8"?>
<!-- Generator: Adobe Illustrator 26.3.1, SVG Export Plug-In . SVG Version: 6.00 Build 0)  -->
<svg version="1.1" id="katman_1" xmlns="http://www.w3.org/2000/svg" xmlns:xlink="http://www.w3.org/1999/xlink" x="0px" y="0px"
	 viewBox="0 0 300 100" style="enable-background:new 0 0 300 100;" xml:space="preserve">
<style type="text/css">
	.st0{fill:#062238;}
</style>
<path class="st0" d="M70.7,60.8l-8.9-16.3v16.3H57V39.7h7.6l8.2,14.9L81,39.7h7.5v21.1h-4.9V44.5l-8.8,16.3H70.7z"/>
<path class="st0" d="M104,60.8h-5V39.7h5V60.8z"/>
<path class="st0" d="M113.7,51h15.1c2.9,0,4.6-1.3,4.6-3.5c0-2.2-1.7-3.5-4.6-3.5h-15.1v-4.3H129c5.5,0,9.3,2.7,9.3,7.8
	c0,3.8-2.2,6.3-5.6,7.2l6.2,6.1h-5.8l-5.8-5.6h-8.7v5.6h-5L113.7,51z"/>
<path class="st0" d="M159.4,44.7l-9.8,16.1h-5.3l12.3-21.1h5.6l12.3,21.1h-5.4L159.4,44.7z"/>
<path class="st0" d="M206.6,60.8h-4.4l-15.9-14.7v14.7h-4.8V39.7h5.1l15.2,13.9V39.7h4.9V60.8z"/>
<path class="st0" d="M228.8,44.7L219,60.8h-5.3L226,39.7h5.6L244,60.8h-5.4L228.8,44.7z"/>
</svg>
