<?xml version="1.0" encoding="utf-8"?>
<!-- Generator: Adobe Illustrator 26.3.1, SVG Export Plug-In . SVG Version: 6.00 Build 0)  -->
<svg version="1.1" id="katman_1" xmlns="http://www.w3.org/2000/svg" xmlns:xlink="http://www.w3.org/1999/xlink" x="0px" y="0px"
	 viewBox="0 0 1089 123" style="enable-background:new 0 0 1089 123;" xml:space="preserve">
<style type="text/css">
	.st0{fill:#062238;}
</style>
<path class="st0" d="M80,123L28.3,28v95H0V0h44.4l47.8,87l47.8-87h43.8v123h-28.5V28l-51.5,95H80z"/>
<path class="st0" d="M273.5,123h-29.1V0h29.1V123z"/>
<path class="st0" d="M330.3,65.6h87.8c17,0,26.8-7.4,26.8-20.2c0-13-9.7-20.4-26.8-20.4h-87.8V0h89.3c32.3,0,54.1,15.6,54.1,45.2
	c0,22-12.7,36.6-32.9,42.2l36.3,35.5h-33.5l-33.5-32.7h-50.7V123h-29.1L330.3,65.6z"/>
<path class="st0" d="M596.7,29l-56.9,94h-31.1L580.4,0h32.7l71.7,123h-31.5L596.7,29z"/>
<path class="st0" d="M871.6,123h-25.8l-92.9-85.6V123h-28.1V0h29.7l88.8,80.8V0h28.3V123z"/>
<path class="st0" d="M1000.8,29l-56.9,94h-31.1L984.6,0h32.7l71.8,123h-31.5L1000.8,29z"/>
</svg>
