<?xml version="1.0" encoding="UTF-8"?><svg id="katman_1" xmlns="http://www.w3.org/2000/svg" viewBox="0 0 600 450"><defs><style>.cls-1{fill:none;}.cls-2{fill:#1d1d1b;}</style></defs><rect class="cls-1" x="-103.42" y="4.55" width="807.09" height="441.63"/><g><g><g><path class="cls-2" d="M236.47,159.34v-.4c0-11.19,8.22-19.17,19.37-19.17s19.37,7.63,19.37,18.92v.45c0,11.19-7.68,19.37-19.42,19.37s-19.32-8.17-19.32-19.17Zm29.82-.1v-.45c0-7.33-3.91-12.33-10.45-12.33s-10.45,4.8-10.45,12.38v.45c0,7.68,4.41,12.43,10.6,12.43,6.29,0,10.3-4.9,10.3-12.48Z"/><path class="cls-2" d="M280.86,140.32h6.89c.45,0,.84,.35,.84,.84v15.4l12.93-15.9c.15-.2,.4-.3,.64-.3h7.48c.45,0,.69,.54,.4,.89l-14.12,16.89,14.91,18.97c.3,.35,.05,.89-.45,.89h-8.42c-.25,0-.5-.1-.64-.3l-12.73-16.59v16.05c0,.45-.35,.84-.84,.84h-6.89c-.45,0-.84-.35-.84-.84v-35.96c0-.54,.4-.89,.84-.89Z"/><path class="cls-2" d="M325.24,158.4l-10.3-17.34c-.25-.45,.05-1.04,.59-1.04h7.97c.25,0,.45,.15,.59,.35l6.44,11.19h.35l6.44-11.19c.1-.2,.35-.35,.59-.35h8.02c.54,0,.84,.59,.59,1.04l-10.4,17.34,10.95,18.28c.3,.45-.05,1.04-.59,1.04h-8.17c-.25,0-.5-.15-.59-.35l-6.79-12.28h-.35l-6.84,12.28c-.1,.2-.35,.35-.59,.35h-8.12c-.54,0-.84-.59-.59-1.04l10.8-18.28Z"/></g><g><path class="cls-2" d="M236.47,199.81c0-.45,.35-.84,.84-.84h13.97c8.22,0,12.48,3.37,12.48,9.81v.2c0,3.96-1.88,6.84-6.09,8.07,4.9,.99,7.53,3.76,7.53,8.82v.2c0,6.89-4.51,10.5-13.23,10.5h-14.66c-.45,0-.84-.35-.84-.84v-35.91h0Zm13.42,14.66c4.11,0,5.75-1.49,5.75-4.85v-.2c0-3.17-1.78-4.56-5.8-4.56h-4.51c-.3,0-.54,.25-.54,.54v8.52c0,.3,.25,.54,.54,.54h4.56Zm.74,16.3c4.21,0,6.09-1.88,6.09-5.3v-.2c0-3.47-1.88-5.25-6.54-5.25h-4.85c-.3,0-.54,.25-.54,.54v9.71c0,.3,.25,.54,.54,.54h5.3v-.05Z"/><path class="cls-2" d="M270.16,196.64h5.94c.45,0,.84,.35,.84,.84v38.34c0,.45-.35,.84-.84,.84h-5.94c-.45,0-.84-.35-.84-.84v-38.34c.05-.5,.4-.84,.84-.84Z"/><path class="cls-2" d="M280.86,223.19v-.45c0-8.62,6.24-14.27,14.51-14.27s14.46,5.55,14.46,14.12v.45c0,8.67-6.24,14.22-14.51,14.22-8.17-.05-14.46-5.5-14.46-14.07Zm21.3-.15v-.35c0-5.25-2.48-8.42-6.74-8.42s-6.74,3.07-6.74,8.32v.45c0,5.25,2.43,8.42,6.74,8.42,4.26-.05,6.74-3.17,6.74-8.42Z"/><path class="cls-2" d="M311.96,223.24v-.45c0-8.92,6.39-14.31,14.22-14.31,6.09,0,11.79,2.58,12.83,9.76,.05,.5-.3,.94-.79,.94h-5.84c-.25,0-.5-.2-.54-.45-.64-2.92-2.53-4.26-5.5-4.26-3.96,0-6.59,2.92-6.59,8.22v.4c0,5.55,2.48,8.37,6.74,8.37,2.92,0,5.3-1.63,5.84-4.85,.05-.25,.25-.45,.54-.45h5.5c.5,0,.89,.45,.79,.94-.79,6.04-5.45,10.15-13.08,10.15-7.97-.05-14.12-5.05-14.12-14.02Z"/><path class="cls-2" d="M343.56,196.64h5.99c.45,0,.84,.35,.84,.84v22.04c0,.4,.5,.54,.74,.25l7.93-10.45c.1-.15,.25-.2,.45-.2h6.69c.45,0,.69,.54,.45,.89l-9.31,11.64,10.15,14.12c.25,.35,0,.89-.45,.89h-7.28c-.2,0-.35-.1-.45-.25l-8.17-11.69c-.25-.35-.74-.15-.74,.25v10.9c0,.45-.35,.84-.84,.84h-5.99c-.45,0-.84-.35-.84-.84v-38.34c.05-.54,.4-.89,.84-.89Z"/><path class="cls-2" d="M367.93,223.29v-.4c0-9.06,5.2-14.36,12.09-14.36,4.21,0,6.89,1.73,8.42,4.31,.05,.1,.25,.05,.25-.05v-15.26c0-.45,.35-.84,.84-.84h5.94c.45,0,.84,.35,.84,.84v38.34c0,.45-.35,.84-.84,.84h-5.94c-.45,0-.84-.35-.84-.84v-3.22c0-.15-.2-.2-.25-.05-1.54,2.58-4.76,4.71-8.57,4.71-6.69-.1-11.94-4.85-11.94-14.02Zm21-.3v-.4c0-5.45-2.43-8.27-6.59-8.27s-6.64,2.87-6.64,8.37v.4c0,5.45,2.63,8.17,6.44,8.17,3.96,0,6.79-2.67,6.79-8.27Z"/><path class="cls-2" d="M402.61,209.12h5.99c.45,0,.84,.35,.84,.84v4.46c1.63-3.42,4.06-5.35,8.02-5.65,.5-.05,.89,.35,.89,.84v5.45c0,.45-.35,.79-.79,.84-5.15,.15-8.07,2.03-8.07,7.03v12.98c0,.45-.35,.84-.84,.84h-5.99c-.45,0-.84-.35-.84-.84v-25.86c-.05-.59,.3-.94,.79-.94Z"/><path class="cls-2" d="M419.79,223.24v-.45c0-8.67,6.14-14.31,14.17-14.31,7.08,0,13.42,4.16,13.42,14.02v1.29c0,.45-.35,.84-.84,.84h-18.43c-.35,0-.59,.3-.54,.59,.4,4.21,2.82,6.59,6.79,6.59,3.22,0,4.95-1.29,5.6-3.27,.1-.35,.45-.54,.79-.54h5.55c.54,0,.94,.5,.79,1.04-1.24,5.3-5.89,8.22-12.98,8.22-8.22-.05-14.31-5.25-14.31-14.02Zm19.57-3.32c.35,0,.59-.3,.54-.59-.45-3.76-2.48-5.55-5.94-5.55-3.22,0-5.45,2.03-6.19,5.5-.05,.35,.2,.64,.54,.64h11.05Z"/><path class="cls-2" d="M449.56,228.99c0-6.44,5.89-8.82,14.31-8.82h2.97c.1,0,.15-.05,.15-.15v-.99c0-3.27-.99-5.05-4.46-5.05-2.72,0-4.11,1.24-4.56,3.27-.1,.35-.4,.64-.79,.64h-5.6c-.5,0-.89-.45-.79-.94,.89-5.84,5.84-8.47,12.28-8.47s11.54,2.72,11.54,10.2v17.14c0,.45-.35,.84-.84,.84h-5.8c-.45,0-.84-.35-.84-.84v-2.48c-1.59,2.23-4.01,3.91-8.32,3.91-5.05-.05-9.26-2.48-9.26-8.27Zm17.39-1.98v-2.18c0-.1-.05-.15-.15-.15h-2.82c-4.41,0-6.98,.94-6.98,3.91,0,1.98,1.19,3.32,4.01,3.32,3.37,0,5.94-1.83,5.94-4.9Z"/><path class="cls-2" d="M480.52,209.12h5.99c.45,0,.84,.35,.84,.84v2.87c0,.15,.2,.2,.25,.05,1.44-2.38,4.31-4.41,8.17-4.41,3.57,0,6.24,1.44,7.58,4.56,.05,.1,.2,.1,.25,0,2.23-3.17,5.75-4.61,9.11-4.61,5.1,0,9.06,3.22,9.06,10.5v16.79c0,.45-.35,.84-.84,.84h-5.94c-.45,0-.84-.35-.84-.84v-15.95c0-3.52-1.59-5.1-4.31-5.1-2.92,0-5.3,1.88-5.3,5.65v15.45c0,.45-.35,.84-.84,.84h-5.94c-.45,0-.84-.35-.84-.84v-15.95c0-3.52-1.63-5.1-4.31-5.1-2.92,0-5.3,1.88-5.3,5.65v15.45c0,.45-.35,.84-.84,.84h-5.94c-.45,0-.84-.35-.84-.84v-25.86c0-.5,.4-.84,.84-.84Z"/></g><g><path class="cls-2" d="M237.27,255.64h7.23c.35,0,.69,.25,.79,.59l8.62,27.89c.05,.15,.2,.15,.25,0l8.62-27.89c.1-.35,.45-.59,.79-.59h6.24c.54,0,.94,.54,.79,1.09l-11.99,35.96c-.1,.35-.45,.54-.79,.54h-8.62c-.35,0-.64-.25-.79-.54l-12.04-35.96c-.05-.54,.35-1.09,.89-1.09Z"/><path class="cls-2" d="M268.92,279.81v-.45c0-8.67,6.14-14.31,14.17-14.31,7.08,0,13.42,4.16,13.42,14.02v1.29c0,.45-.35,.84-.84,.84h-18.43c-.35,0-.59,.3-.54,.59,.4,4.21,2.82,6.59,6.79,6.59,3.22,0,4.95-1.29,5.6-3.27,.1-.35,.45-.54,.79-.54h5.55c.54,0,.94,.5,.79,1.04-1.24,5.3-5.89,8.22-12.98,8.22-8.27,0-14.31-5.2-14.31-14.02Zm19.57-3.32c.35,0,.59-.3,.54-.59-.45-3.76-2.48-5.55-5.94-5.55-3.22,0-5.45,2.03-6.19,5.5-.05,.35,.2,.64,.54,.64h11.05Z"/><path class="cls-2" d="M301.02,265.74h5.99c.45,0,.84,.35,.84,.84v3.02c0,.15,.2,.2,.25,.05,1.49-2.53,4.36-4.51,8.72-4.51,5.4,0,9.26,3.27,9.26,10.65v16.64c0,.45-.35,.84-.84,.84h-5.99c-.45,0-.84-.35-.84-.84v-15.6c0-3.71-1.49-5.55-4.85-5.55s-5.75,1.98-5.75,6.04v15.11c0,.45-.35,.84-.84,.84h-5.99c-.45,0-.84-.35-.84-.84v-25.86c.05-.5,.45-.84,.89-.84Z"/><path class="cls-2" d="M332.42,285.11v-13.82c0-.1-.05-.15-.15-.15h-2.58c-.45,0-.84-.35-.84-.84v-3.76c0-.45,.35-.84,.84-.84h2.72v-5.1c0-.45,.35-.84,.84-.84h5.94c.45,0,.84,.35,.84,.84v5.1h4.95c.45,0,.84,.35,.84,.84v3.76c0,.45-.35,.84-.84,.84h-4.85c-.1,0-.15,.05-.15,.15v13.13c0,2.23,1.09,3.27,3.07,3.27,.69,0,1.29-.05,1.88-.2,.54-.1,1.04,.25,1.04,.79v4.16c0,.35-.25,.69-.59,.79-.99,.3-2.33,.54-4.06,.54-5.84,0-8.92-2.97-8.92-8.67Z"/><path class="cls-2" d="M349.56,283.47v-16.89c0-.45,.35-.84,.84-.84h5.94c.45,0,.84,.35,.84,.84v15.85c0,3.71,1.54,5.55,4.8,5.55s5.75-1.98,5.75-6.04v-15.36c0-.45,.35-.84,.84-.84h5.94c.45,0,.84,.35,.84,.84v25.86c0,.45-.35,.84-.84,.84h-5.94c-.45,0-.84-.35-.84-.84v-3.52c-1.44,2.77-4.21,4.9-8.72,4.9-5.45,0-9.46-3.17-9.46-10.35Z"/><path class="cls-2" d="M381.46,265.74h5.99c.45,0,.84,.35,.84,.84v4.46c1.63-3.42,4.06-5.35,8.02-5.65,.5-.05,.89,.35,.89,.84v5.45c0,.45-.35,.79-.79,.84-5.15,.15-8.07,2.03-8.07,7.03v12.88c0,.45-.35,.84-.84,.84h-6.04c-.45,0-.84-.35-.84-.84v-25.86c.05-.5,.4-.84,.84-.84Z"/><path class="cls-2" d="M398.69,279.81v-.45c0-8.67,6.14-14.31,14.17-14.31,7.08,0,13.42,4.16,13.42,14.02v1.29c0,.45-.35,.84-.84,.84h-18.43c-.35,0-.59,.3-.54,.59,.4,4.21,2.82,6.59,6.79,6.59,3.22,0,4.95-1.29,5.6-3.27,.1-.35,.45-.54,.79-.54h5.55c.54,0,.94,.5,.79,1.04-1.24,5.3-5.89,8.22-12.98,8.22-8.27,0-14.31-5.2-14.31-14.02Zm19.57-3.32c.35,0,.59-.3,.54-.59-.45-3.76-2.48-5.55-5.94-5.55-3.22,0-5.45,2.03-6.19,5.5-.05,.35,.2,.64,.54,.64h11.05Z"/><path class="cls-2" d="M429.11,284.61h5.5c.4,0,.74,.25,.79,.64,.45,2.08,1.73,3.27,4.76,3.27s4.31-1.09,4.31-3.02-1.63-2.67-5.6-3.27c-7.33-1.09-10.15-3.22-10.15-8.57,0-5.75,5.25-8.57,10.9-8.57s10.2,1.98,11.24,7.53c.1,.5-.3,.99-.79,.99h-5.4c-.35,0-.69-.25-.79-.59-.54-1.88-1.78-2.72-4.16-2.72s-3.91,1.14-3.91,2.82,1.34,2.43,5.3,3.02c6.89,.99,10.7,2.72,10.7,8.62s-4.31,9.06-11.59,9.06-11.24-2.92-11.94-8.27c0-.5,.35-.94,.84-.94Z"/></g></g><g><path class="cls-2" d="M97.63,191.74H50.53c-1.34,0-2.43-1.09-2.43-2.43v-47.11c0-1.34,1.09-2.43,2.43-2.43h47.11c1.34,0,2.43,1.09,2.43,2.43v47.11c0,1.34-1.09,2.43-2.43,2.43Z"/><path class="cls-2" d="M199.47,191.84h-47.11c-1.34,0-2.43-1.09-2.43-2.43v-47.11c0-1.34,1.09-2.43,2.43-2.43h47.11c1.34,0,2.43,1.09,2.43,2.43v47.11c0,1.34-1.09,2.43-2.43,2.43Z"/><path class="cls-2" d="M97.63,293.78H50.53c-1.34,0-2.43-1.09-2.43-2.43v-47.11c0-1.34,1.09-2.43,2.43-2.43h47.11c1.34,0,2.43,1.09,2.43,2.43v47.11c0,1.29-1.09,2.43-2.43,2.43Z"/><path class="cls-2" d="M199.47,293.83h-47.11c-1.34,0-2.43-1.09-2.43-2.43v-47.11c0-1.34,1.09-2.43,2.43-2.43h47.11c1.34,0,2.43,1.09,2.43,2.43v47.11c0,1.34-1.09,2.43-2.43,2.43Z"/><path class="cls-2" d="M148.6,243h-47.11c-1.34,0-2.43-1.09-2.43-2.43v-47.11c0-1.34,1.09-2.43,2.43-2.43h47.11c1.34,0,2.43,1.09,2.43,2.43v47.11c.05,1.34-1.04,2.43-2.43,2.43Z"/></g></g></svg>