<?xml version="1.0" encoding="utf-8"?>
<!-- Generator: Adobe Illustrator 26.3.1, SVG Export Plug-In . SVG Version: 6.00 Build 0)  -->
<svg version="1.1" id="katman_1" xmlns="http://www.w3.org/2000/svg" xmlns:xlink="http://www.w3.org/1999/xlink" x="0px" y="0px"
	 viewBox="0 0 120 40" style="enable-background:new 0 0 120 40;" xml:space="preserve">
<path d="M6.6,0c1.9,0,3.8,0,5.7,0c0.8,0,0.9,0.2,0.9,0.9c0,3.8,0,7.5,0,11.3c0,0.1,0,0.2,0,0.3c0,0.5-0.3,0.7-0.7,0.7
	c-0.3,0-0.5,0-0.8,0c-3.5,0-7.1,0-10.6,0c-0.1,0-0.2,0-0.3,0c-0.6,0-0.8-0.3-0.8-0.8c0-0.4,0-0.7,0-1.1c0-3.5,0-7,0-10.4
	c0-0.2,0-0.3,0.1-0.5C0.2,0.1,0.5,0,0.8,0C2.7,0,4.7,0,6.6,0L6.6,0z"/>
<path d="M19.6,13c1.9,0,3.8,0,5.7,0c0.5,0,0.8,0.3,0.8,0.8c0,3.8,0,7.7,0,11.5c0,0.6-0.2,0.8-0.8,0.9c-0.6,0-1.3,0-1.9,0
	c-3.2,0-6.3,0-9.5,0c-0.1,0-0.2,0-0.3,0c-0.5-0.1-0.7-0.3-0.7-0.7c0-0.6,0-1.1,0-1.7c0-3.3,0-6.5,0-9.8c0-0.1,0-0.2,0-0.3
	c0-0.3,0.2-0.5,0.5-0.5c0.2,0,0.4,0,0.7,0C15.9,13,17.7,13,19.6,13L19.6,13L19.6,13z"/>
<path d="M32.4,25.9c1.9,0,3.8,0,5.7,0c0.7,0,0.9,0.2,0.9,0.9c0,3.1,0,6.3,0,9.4c0,0.7,0,1.4,0,2.1c0,0.6-0.2,0.8-0.8,0.8
	c-3.9,0-7.8,0-11.7,0c-0.5,0-0.8-0.2-0.8-0.7c0-3.9,0-7.8,0-11.7c0-0.5,0.2-0.8,0.8-0.8C28.5,25.9,30.4,25.9,32.4,25.9L32.4,25.9
	L32.4,25.9z"/>
<path d="M32.4,0c1.9,0,3.8,0,5.7,0C38.8,0,39,0.2,39,1c0,3.6,0,7.3,0,10.9c0,0.2,0,0.5,0,0.7c0,0.4-0.2,0.6-0.6,0.6
	c-0.1,0-0.2,0-0.3,0c-3.8,0-7.6,0-11.4,0c-0.5,0-0.9-0.3-0.9-0.9c0-3.8,0-7.7,0-11.5C25.8,0.3,26,0,26.6,0C28.5,0,30.5,0,32.4,0
	L32.4,0z"/>
<path d="M6.6,39c-1.9,0-3.9,0-5.8,0C0.3,39,0,38.8,0,38.2c0-3.3,0-6.6,0-9.9c0-0.6,0-1.1,0-1.7c0-0.6,0.2-0.8,0.8-0.8
	c3.7,0,7.4,0,11.1,0c0.2,0,0.5,0,0.7,0c0.3,0,0.5,0.2,0.6,0.5c0,0.1,0,0.3,0,0.4c0,3.8,0,7.6,0,11.4c0,0.1,0,0.3-0.1,0.4
	c-0.1,0.3-0.3,0.5-0.6,0.5c-0.1,0-0.3,0-0.4,0C10.3,39,8.5,39,6.6,39L6.6,39z"/>
<path d="M53.4,19.6c0.1,0,0.1,0.1,0.2,0.1c0.8,0.3,1.3,0.8,1.4,1.6c0.2,1,0,1.9-0.8,2.6c-0.4,0.4-0.9,0.5-1.4,0.6
	c-0.3,0.1-0.6,0.1-0.8,0.1c-1.2,0-2.5,0-3.7,0c-0.4,0-0.5-0.1-0.5-0.5c0-2.3,0-4.6,0-7c0-0.5,0-1.1,0-1.6c0-0.4,0.1-0.5,0.5-0.5
	c1.2,0,2.4,0,3.6,0c0.4,0,0.9,0.1,1.3,0.2c1.1,0.4,1.6,1.2,1.6,2.4c0,0.8-0.4,1.5-1.2,1.9C53.4,19.5,53.4,19.5,53.4,19.6
	C53.4,19.5,53.4,19.5,53.4,19.6L53.4,19.6z M50,20.3c-0.1,0.1-0.1,0.2-0.1,0.3c0,0.7,0,1.5,0,2.2c0,0.2,0.1,0.3,0.3,0.3
	c0.5,0,0.9,0,1.4,0c0.3,0,0.6-0.2,0.9-0.3c0.4-0.3,0.4-0.7,0.4-1.1c0-0.6-0.3-1.1-1-1.1C51.2,20.3,50.6,20.3,50,20.3z M49.9,17.7
	c0,0.3,0,0.6,0,0.9c0,0.3,0,0.4,0.3,0.4c0.5,0,0.9,0,1.4,0c0.9-0.1,1.4-1.2,0.8-1.9c-0.2-0.2-0.4-0.4-0.6-0.4c-0.5,0-1.1,0-1.6,0
	c-0.2,0-0.3,0.1-0.3,0.3C49.9,17.1,49.9,17.4,49.9,17.7L49.9,17.7z"/>
<path d="M57.6,4.8c0,1-0.2,1.9-0.8,2.8c-0.7,1.2-1.8,1.8-3.1,2.1c-1,0.2-2.1,0.2-3.1-0.2c-1.6-0.6-2.5-1.7-2.9-3.4
	c-0.2-1-0.2-1.9,0.1-2.9c0.6-1.8,1.8-2.8,3.6-3.1C52.8-0.1,54,0,55.2,0.6c1.1,0.6,1.9,1.5,2.2,2.8C57.5,3.8,57.5,4.3,57.6,4.8
	L57.6,4.8z M55.3,4.9c0-0.2,0-0.5,0-0.7c-0.1-1.3-1-2.3-2.3-2.4c-1.2-0.1-2.1,0.3-2.6,1.4c-0.5,1-0.5,2.1-0.1,3.2
	c0.4,1,1.1,1.6,2.1,1.7c0.9,0.1,1.7-0.2,2.3-0.9C55.1,6.5,55.3,5.7,55.3,4.9L55.3,4.9z"/>
<path d="M111.4,18.4c0.5-0.6,1.2-1,2-1c0.8,0,1.5,0.3,1.9,1.1c0.2,0,0.3-0.2,0.4-0.3c0.8-0.7,1.7-0.9,2.7-0.7
	c0.9,0.2,1.5,0.9,1.6,2.1c0.1,0.7,0,1.4,0,2.1c0,0.8,0,1.5,0,2.3c0,0.4,0,0.5-0.5,0.5c-0.5,0-0.9,0-1.4,0c0-0.2,0-0.3,0-0.4
	c0-1.1,0-2.3,0-3.4c0-0.2,0-0.4,0-0.6c-0.1-1.2-1-1.3-1.7-1c-0.5,0.2-0.7,0.7-0.7,1.2c0,1.2,0,2.3,0,3.5c0,0.1,0,0.2,0,0.3
	c0,0.2-0.1,0.3-0.3,0.3c-0.4,0-0.8,0-1.2,0c-0.4,0-0.4-0.1-0.4-0.4c0-1.3,0-2.5,0-3.8c0-0.3-0.1-0.5-0.2-0.8
	c-0.1-0.3-0.4-0.5-0.8-0.5c-0.9-0.1-1.4,0.4-1.5,1.3c0,0.5,0,1,0,1.5c0,0.7,0,1.5,0,2.2c0,0.5-0.1,0.5-0.5,0.5c-0.3,0-0.6,0-1,0
	c-0.4,0-0.5-0.1-0.5-0.5c0-1.7,0-3.5,0-5.2c0-0.3,0-0.6,0-0.9c0-0.3,0-0.4,0.4-0.4c0.4,0,0.8,0,1.2,0c0.3,0,0.4,0.1,0.4,0.4
	C111.3,18.1,111.3,18.2,111.4,18.4C111.3,18.3,111.3,18.4,111.4,18.4L111.4,18.4z"/>
<path d="M66.5,0.2c-0.1,0.2-0.2,0.3-0.3,0.4c-1,1.2-2.1,2.5-3.1,3.7c-0.3,0.3-0.3,0.3,0,0.7c1.1,1.4,2.2,2.8,3.3,4.2
	c0.1,0.1,0.1,0.2,0.2,0.4c-0.2,0-0.3,0.1-0.4,0.1c-0.6,0-1.2,0-1.8,0c-0.3,0-0.4-0.1-0.5-0.3c-0.6-0.8-1.1-1.5-1.7-2.3
	c-0.3-0.5-0.7-0.9-1-1.4c0-0.1-0.1-0.1-0.2-0.2c0,0.1,0,0.2,0,0.2c0,1.1,0,2.2,0,3.3c0,0.5-0.1,0.6-0.5,0.6c-0.4,0-0.8,0-1.2,0
	c-0.4,0-0.4-0.1-0.4-0.4c0-2.9,0-5.8,0-8.7c0-0.4,0-0.4,0.4-0.5c0.4,0,0.9,0,1.3,0c0.4,0,0.4,0.1,0.4,0.4c0,1.1,0,2.1,0,3.2
	c0,0.1,0,0.2,0,0.3c0.1-0.1,0.2-0.2,0.3-0.3c0.9-1.1,1.8-2.2,2.7-3.3c0.2-0.3,0.5-0.4,0.8-0.4c0.4,0,0.9,0,1.4,0
	C66.2,0.2,66.3,0.2,66.5,0.2L66.5,0.2z"/>
<path d="M71.6,6.4c-0.1,0.2-0.2,0.2-0.2,0.3c-0.5,0.8-0.9,1.7-1.4,2.5c-0.1,0.3-0.3,0.3-0.6,0.3c-0.5,0-1,0-1.4,0
	c-0.1,0-0.1,0-0.2,0c-0.3,0-0.4-0.2-0.2-0.4c0.3-0.6,0.7-1.2,1-1.7c0.5-0.8,1-1.6,1.5-2.4c0.1-0.2,0.1-0.4,0-0.6
	c-0.8-1.3-1.5-2.5-2.3-3.8c-0.1-0.1-0.1-0.3-0.2-0.4c0.1,0,0.2-0.1,0.3-0.1c0.6,0,1.2,0,1.8,0c0.2,0,0.3,0.1,0.4,0.3
	c0.4,0.8,0.9,1.5,1.3,2.3c0,0.1,0.1,0.2,0.2,0.3c0.1-0.1,0.2-0.2,0.2-0.2c0.4-0.8,0.9-1.5,1.3-2.3c0.1-0.3,0.3-0.3,0.6-0.3
	c0.5,0,1,0,1.5,0c0.1,0,0.3,0,0.5,0c-0.1,0.2-0.1,0.4-0.2,0.5c-0.7,1.2-1.4,2.4-2.2,3.6c-0.2,0.3-0.2,0.6,0,0.9
	c0.8,1.3,1.5,2.5,2.3,3.8c0.3,0.5,0.3,0.6-0.3,0.6c-0.5,0-0.9,0-1.4,0c-0.3,0-0.5-0.1-0.7-0.4c-0.5-0.9-0.9-1.7-1.4-2.5
	C71.8,6.6,71.7,6.6,71.6,6.4L71.6,6.4z"/>
<path d="M86.3,18.4v-3.9c0.2,0,0.3,0,0.5,0c0.3,0,0.7,0,1,0c0.5,0,0.5,0,0.5,0.5c0,0.3,0,0.7,0,1c0,2.7,0,5.4,0,8.1
	c0,0.1,0,0.1,0,0.2c0,0.3-0.1,0.3-0.3,0.3c-0.4,0-0.8,0-1.3,0c-0.3,0-0.3-0.1-0.3-0.4c0-0.2,0-0.4,0-0.6c-0.1,0.1-0.2,0.1-0.2,0.2
	c-0.5,0.7-1.3,1-2.1,1c-1.4-0.1-2.3-0.9-2.7-2.1c-0.3-1-0.3-2.1,0-3.1c0.4-1.3,1.6-2.1,2.8-2.1c0.6,0,1.2,0.1,1.6,0.5
	C85.9,18,86.1,18.2,86.3,18.4L86.3,18.4z M86.4,21c-0.1-0.4-0.1-0.8-0.3-1.2c-0.2-0.6-0.8-0.9-1.5-0.9c-0.7,0-1.2,0.3-1.4,0.9
	c-0.3,0.8-0.3,1.6-0.1,2.4c0.2,0.6,0.7,1,1.4,1c0.7,0,1.2-0.2,1.5-0.9C86.3,21.9,86.3,21.5,86.4,21z"/>
<path d="M52.1,36.5c0.1-0.2,0.1-0.2,0.2-0.3c0.4-1.3,0.8-2.6,1.2-3.9c0.3-0.9,0.6-1.8,0.8-2.7c0.1-0.2,0.2-0.3,0.4-0.3
	c0.5,0,0.9,0,1.4,0c0.3,0,0.4,0.1,0.3,0.4c-0.3,0.8-0.5,1.7-0.8,2.5c-0.7,2.1-1.4,4.1-2.1,6.2c-0.2,0.5-0.2,0.5-0.7,0.5
	c-0.5,0-1,0-1.5,0c-0.4,0-0.4,0-0.6-0.4c-0.4-1.3-0.9-2.5-1.3-3.8c-0.5-1.6-1.1-3.3-1.6-4.9c-0.1-0.3,0-0.4,0.3-0.4c0.5,0,1,0,1.5,0
	c0.3,0,0.4,0.1,0.5,0.3c0.2,0.7,0.4,1.3,0.6,2c0.4,1.2,0.8,2.5,1.1,3.7C51.9,35.7,52,36.1,52.1,36.5z"/>
<path d="M76.6,21.5c0,0.7,0,1.4,0,2.1c0,1.1-0.1,0.9-0.9,0.9c-0.2,0-0.4,0-0.6,0c-0.4,0-0.5,0-0.5-0.5c0-0.8,0-1.6,0-2.4
	c0-2.2,0-4.5,0-6.8c0-0.1,0-0.1,0-0.2c0-0.2,0.1-0.3,0.3-0.3c0.5,0,1,0,1.4,0c0.2,0,0.3,0.1,0.3,0.3c0,0.1,0,0.2,0,0.4
	c0,1.7,0,3.4,0,5c0,0,0,0.1,0.1,0.2c0.1-0.1,0.2-0.2,0.2-0.2c0.6-0.7,1.1-1.4,1.6-2.2c0.2-0.2,0.3-0.3,0.6-0.3c0.4,0,0.8,0,1.2,0
	c0.1,0,0.3,0,0.3,0.1c0,0.1,0,0.2-0.1,0.3c-0.7,0.8-1.3,1.7-2,2.5c-0.1,0.1-0.1,0.1-0.2,0.2c0.9,1.2,1.7,2.4,2.6,3.6
	c-0.1,0.2-0.2,0.2-0.4,0.2c-0.5,0-0.9,0-1.4,0c-0.2,0-0.4-0.1-0.5-0.3c-0.6-0.9-1.2-1.7-1.8-2.5C76.8,21.6,76.8,21.6,76.6,21.5
	C76.7,21.5,76.7,21.5,76.6,21.5L76.6,21.5z"/>
<path d="M90.8,35.9c-0.1,0.9,0.6,1.7,1.4,1.7c0.2,0,0.4,0,0.5,0c0.4,0,0.8-0.2,1-0.7c0.1-0.2,0.3-0.3,0.5-0.3c0.3,0,0.7,0,1,0
	c0.4,0,0.4,0.1,0.3,0.5c-0.3,0.9-0.9,1.4-1.8,1.7c-1.1,0.3-2.2,0.3-3.3-0.2c-0.9-0.4-1.4-1.1-1.6-2c-0.3-0.9-0.2-1.8,0.1-2.7
	c0.4-1,1.1-1.7,2.1-2.1c1-0.3,1.9-0.3,2.8,0.1c1,0.4,1.5,1.3,1.7,2.3c0.1,0.3,0.1,0.6,0.1,1c0,0.5-0.1,0.5-0.5,0.5c-1.3,0-2.7,0-4,0
	C91.2,35.8,91,35.9,90.8,35.9L90.8,35.9z M92.3,34.6c0.4,0,0.8,0,1.2,0c0.3,0,0.4-0.1,0.3-0.4c-0.1-0.5-0.3-0.8-0.8-1
	c-0.9-0.4-1.9,0.1-2.2,1.1c-0.1,0.2,0,0.3,0.3,0.3C91.5,34.6,91.9,34.6,92.3,34.6L92.3,34.6z"/>
<path d="M60.4,35.8c-0.7,0-1.4,0-2.1,0c-0.4,0-0.4,0-0.3,0.4c0.2,1.4,1.6,1.6,2.5,1.2c0.2-0.1,0.4-0.3,0.5-0.5
	c0.1-0.2,0.3-0.3,0.5-0.3c0.3,0,0.7,0,1.1,0c0.3,0,0.4,0.1,0.3,0.4c-0.2,0.8-0.7,1.3-1.4,1.6c-1.1,0.5-2.3,0.5-3.4,0.1
	c-1.3-0.5-1.9-1.5-2.1-2.8c-0.1-0.7,0-1.4,0.2-2.1c0.6-1.6,2.2-2.3,3.6-2.2c0.5,0,1,0.2,1.5,0.4c1,0.6,1.5,1.5,1.6,2.6
	c0,0.2,0,0.5,0,0.7c0,0.3-0.1,0.4-0.4,0.4c-0.1,0-0.2,0-0.3,0C61.6,35.8,61,35.8,60.4,35.8L60.4,35.8z M59.5,34.6
	C59.5,34.6,59.5,34.6,59.5,34.6c0.4,0,0.8,0,1.2,0c0.3,0,0.3-0.1,0.3-0.4c-0.1-0.7-0.7-1.2-1.5-1.2c-0.9,0-1.3,0.6-1.5,1.2
	c-0.1,0.2,0,0.3,0.3,0.3C58.7,34.6,59.1,34.6,59.5,34.6L59.5,34.6z"/>
<path d="M101.1,21.5h-4.9c-0.1,0.7,0.4,1.6,1.1,1.7c0.4,0.1,0.8,0.1,1.2,0c0.3-0.1,0.6-0.2,0.7-0.6c0.1-0.3,0.3-0.3,0.5-0.3
	c0.3,0,0.7,0,1.1,0c0.3,0,0.3,0.1,0.3,0.3c-0.1,0.5-0.3,0.8-0.7,1.2c-0.4,0.4-0.9,0.6-1.5,0.7c-1,0.2-2,0.2-2.9-0.3
	c-1.1-0.5-1.7-1.4-1.8-2.6c-0.1-0.6-0.1-1.2,0.1-1.8c0.5-1.7,1.9-2.5,3.6-2.5c1,0,1.8,0.3,2.5,1.1C101.1,19.4,101.3,20.3,101.1,21.5
	L101.1,21.5z M96.3,20.2c0.3,0,0.5,0,0.8,0c0.6,0,1.3,0,1.9,0c0.3,0,0.3-0.1,0.3-0.3c-0.1-0.7-0.6-1.2-1.3-1.2
	C97,18.7,96.2,19.4,96.3,20.2z"/>
<path d="M106.1,23.9c-0.1,0.1-0.2,0.1-0.2,0.2c-0.2,0.3-0.6,0.5-0.9,0.6c-0.7,0.1-1.4,0.2-2.1-0.1c-0.7-0.3-1.1-0.9-1.2-1.7
	c0-0.9,0.3-1.6,1.1-2c0.5-0.2,1-0.4,1.5-0.4c0.5,0,1,0,1.5-0.1c0.3,0,0.4-0.1,0.4-0.4c0-0.4-0.1-0.9-0.5-1.1c-0.5-0.2-1-0.2-1.4,0.1
	c-0.1,0.1-0.2,0.3-0.3,0.5c-0.1,0.2-0.2,0.2-0.4,0.2c-0.4,0-0.8,0-1.1,0c-0.3,0-0.4-0.1-0.3-0.4c0.2-0.8,0.7-1.4,1.4-1.7
	c1-0.4,2-0.4,3-0.1c1,0.3,1.6,1.1,1.6,2.2c0,1,0,2.1,0,3.1c0,0.4,0,0.9,0,1.3c0,0.3-0.1,0.4-0.4,0.4c-0.3,0-0.7,0-1,0
	c-0.4,0-0.5-0.1-0.5-0.5C106.1,24,106.1,24,106.1,23.9L106.1,23.9z M106,21.5c-0.3,0-0.7,0-1,0c-0.3,0-0.6,0.1-0.9,0.2
	c-0.4,0.1-0.5,0.5-0.5,0.9c0,0.4,0.3,0.6,0.7,0.6c0.2,0,0.5,0,0.7,0C105.9,23.1,106.3,22.4,106,21.5L106,21.5z"/>
<path d="M62.7,24.7c-0.7,0-1.4-0.1-2.1-0.5c-0.9-0.5-1.3-1.2-1.6-2.2c-0.2-0.8-0.1-1.5,0.1-2.3c0.4-1.2,1.3-2,2.6-2.2
	c1.2-0.2,2.3-0.1,3.3,0.7c0.6,0.4,0.9,1,1.1,1.7c0.3,0.9,0.2,1.9-0.2,2.7c-0.6,1.2-1.5,1.9-2.9,2C63,24.7,62.8,24.7,62.7,24.7
	L62.7,24.7z M64.3,21.2c0-0.6,0-1-0.3-1.5c-0.3-0.6-0.9-0.8-1.5-0.8c-0.6,0-1.1,0.3-1.4,1c-0.3,0.8-0.3,1.6,0,2.3
	c0.2,0.7,0.7,1,1.4,1c0.7,0,1.2-0.3,1.5-0.9C64.3,21.9,64.4,21.5,64.3,21.2L64.3,21.2z"/>
<path d="M81,37.9c-0.2,0.1-0.2,0.2-0.3,0.3c-0.4,0.5-1,0.8-1.7,0.8c-0.3,0-0.7,0-1-0.1c-0.8-0.2-1.3-0.7-1.5-1.5
	c-0.1-0.3-0.1-0.7-0.1-1c0-1.3,0-2.7,0-4c0-0.4,0.1-0.5,0.5-0.5c0.3,0,0.7,0,1,0c0.4,0,0.5,0.1,0.5,0.5c0,1.2,0,2.4,0,3.6
	c0,0.1,0,0.2,0,0.3c0,0.8,0.3,1.2,1,1.3c0.7,0.1,1.3-0.3,1.5-0.9c0.1-0.2,0.1-0.5,0.1-0.8c0-1.2,0-2.3,0-3.5c0-0.5,0.1-0.5,0.5-0.5
	c0.3,0,0.7,0,1,0c0.4,0,0.4,0.1,0.5,0.4c0,0.7,0,1.5,0,2.2c0,1.2,0,2.4,0,3.6c0,0.1,0,0.3,0,0.4c0,0.2-0.1,0.3-0.3,0.3
	c-0.5,0-1,0-1.4,0c-0.2,0-0.2-0.1-0.2-0.3C81,38.4,81,38.2,81,37.9L81,37.9z"/>
<path d="M65.8,32.8c0.1-0.1,0.2-0.2,0.3-0.2c0.6-0.8,2-1.1,3-0.6c0.7,0.3,1.2,0.9,1.3,1.7c0.1,0.4,0.1,0.8,0.1,1.1
	c0,1.2,0,2.5,0,3.7c0,0.4,0,0.5-0.5,0.5c-0.4,0-0.7,0-1.1,0c-0.3,0-0.4-0.1-0.4-0.4c0-1.2,0-2.4,0-3.6c0-0.4,0-0.8-0.3-1.1
	c-0.1-0.1-0.3-0.3-0.5-0.3c-1.1-0.3-1.9,0.3-1.9,1.5c0,0.9,0,1.7,0,2.6c0,0.3,0,0.7,0,1c0,0.3,0,0.4-0.4,0.4c-0.4,0-0.8,0-1.1,0
	c-0.4,0-0.4-0.1-0.4-0.5c0-0.9,0-1.9,0-2.8c0-1.1,0-2.1,0-3.2c0-0.5,0.1-0.5,0.5-0.5c0.3,0,0.6,0,1,0c0.4,0,0.5,0.1,0.5,0.5
	C65.8,32.5,65.8,32.6,65.8,32.8L65.8,32.8z"/>
<path d="M99.3,39c-0.6,0.1-1.1,0-1.7-0.3c-0.7-0.3-1.1-0.8-1.3-1.5c-0.1-0.5,0-0.6,0.4-0.6c0.3,0,0.6,0,0.9,0c0.2,0,0.4,0.1,0.5,0.3
	c0.3,0.7,1.2,0.9,1.8,0.6c0.3-0.1,0.4-0.3,0.4-0.6c0-0.3-0.1-0.5-0.4-0.6c-0.3-0.1-0.6-0.2-1-0.2c-0.5-0.1-1.1-0.2-1.6-0.4
	c-0.5-0.2-0.9-0.6-1-1.2c-0.2-1,0.2-2.1,1.4-2.5c1.1-0.4,2.2-0.3,3.2,0.3c0.5,0.3,0.7,0.8,0.9,1.3c0.1,0.3,0,0.4-0.3,0.4
	c-0.3,0-0.7,0-1,0c-0.2,0-0.4-0.1-0.5-0.3c-0.3-0.6-1.1-0.7-1.7-0.4c-0.4,0.3-0.4,0.8,0.1,1c0.2,0.1,0.5,0.1,0.7,0.2
	c0.5,0.1,1.1,0.2,1.6,0.4c0.9,0.3,1.3,0.9,1.3,1.8c0.1,1.4-0.9,2.2-2.3,2.4C99.8,39,99.6,39,99.3,39z"/>
<path d="M72.8,20.1c-0.1,0-0.1,0-0.2,0c-0.4,0-0.7,0-0.8-0.5c-0.1-0.5-0.7-0.7-1.3-0.7c-0.8,0-1.4,0.6-1.5,1.4
	c-0.1,0.5-0.1,1.1,0,1.6c0.1,0.7,0.7,1.2,1.4,1.3c0.7,0.1,1.3-0.3,1.6-1c0.1-0.2,0.2-0.3,0.5-0.3c0.3,0,0.6,0,0.9,0
	c0.4,0,0.5,0.1,0.4,0.5c-0.2,1-0.7,1.6-1.6,2c-1.1,0.5-2.2,0.5-3.2,0.1c-1.1-0.4-1.7-1.2-2-2.3c-0.2-1-0.2-2,0.3-2.9
	c0.7-1.3,1.8-1.8,3.2-1.9c0.7,0,1.3,0.1,1.9,0.4c0.7,0.4,1.1,1,1.3,1.8c0.1,0.4,0,0.4-0.4,0.5c-0.1,0-0.2,0-0.3,0
	C72.9,20.1,72.9,20.1,72.8,20.1L72.8,20.1z"/>
<path d="M72,31.7c0-0.3,0-0.6,0-1c0-0.4,0-0.4,0.4-0.4c0.4,0,0.7,0,1.1,0c0.3,0,0.4,0.1,0.4,0.4c0,0.3,0,0.5,0,0.8
	c0,0.2,0.1,0.3,0.3,0.3c0.3,0,0.5,0,0.8,0c0.3,0,0.4,0.1,0.4,0.4c0,0.2,0,0.5,0,0.7c0,0.2-0.1,0.3-0.3,0.3c-0.3,0-0.6,0-0.8,0
	c-0.3,0-0.3,0-0.3,0.3c0,1,0,2,0,3.1c0,0.6,0.3,0.8,0.9,0.8c0,0,0.1,0,0.1,0c0.6,0,0.6,0,0.6,0.5c0,0.2,0,0.4,0,0.6
	c0,0.2-0.1,0.3-0.3,0.4c-0.7,0.2-1.5,0.2-2.2-0.2c-0.6-0.3-0.9-0.8-1-1.4c0-0.7,0-1.3,0-2c0-0.6,0-1.2,0-1.8c0-0.3,0-0.3-0.4-0.4
	c-0.1,0-0.1,0-0.2,0c-0.2,0-0.3-0.1-0.3-0.3c0-0.2,0-0.5,0-0.7c0-0.3,0.1-0.3,0.4-0.4c0.1,0,0.3,0,0.4,0
	C71.9,31.8,71.9,31.8,72,31.7L72,31.7z"/>
<path d="M56,19.4c0-1.5,0-3.1,0-4.6c0-0.4,0-0.4,0.4-0.4c0.4,0,0.8,0,1.1,0c0.3,0,0.4,0,0.4,0.4c0,1.3,0,2.5,0,3.8
	c0,1.8,0,3.5,0,5.3c0,0.1,0,0.3,0,0.4c0,0.2-0.1,0.3-0.3,0.3c-0.4,0-0.8,0-1.3,0c-0.3,0-0.4-0.1-0.4-0.4c0-0.4,0-0.7,0-1.1
	C56,21.9,56,20.7,56,19.4C56,19.4,56,19.4,56,19.4L56,19.4z"/>
<path d="M86.3,32.9c0.1-0.1,0.2-0.2,0.2-0.3c0.4-0.5,0.9-0.7,1.5-0.8c0.3,0,0.4,0,0.4,0.3c0,0.4,0,0.8,0,1.1c0,0.2-0.1,0.3-0.3,0.3
	c-0.3,0-0.6,0.1-0.8,0.1c-0.5,0.1-0.9,0.5-1,1c-0.1,0.3-0.1,0.5-0.1,0.8c0,0.9,0,1.8,0,2.7c0,0.5,0,0.5-0.5,0.5c-0.4,0-0.7,0-1.1,0
	c-0.4,0-0.4-0.1-0.4-0.4c0-1.5,0-3.1,0-4.6c0-0.5,0-1,0-1.5c0-0.4,0.1-0.4,0.4-0.4c0.4,0,0.8,0,1.1,0c0.3,0,0.4,0.1,0.4,0.4
	C86.2,32.5,86.2,32.7,86.3,32.9C86.2,32.9,86.3,32.9,86.3,32.9L86.3,32.9z"/>
<path d="M91.6,18.6c0.1-0.1,0.2-0.3,0.3-0.4c0.4-0.5,1-0.7,1.5-0.8c0.2,0,0.3,0.1,0.3,0.2c0,0.4,0,0.9,0,1.3c0,0.1-0.1,0.2-0.2,0.3
	c-0.1,0.1-0.3,0.1-0.5,0.1c-1,0.1-1.5,0.7-1.5,1.7c0,0.9,0,1.8,0,2.7c0,0.1,0,0.2,0,0.4c0,0.5-0.1,0.5-0.5,0.5c-0.4,0-0.7,0-1.1,0
	c-0.3,0-0.4-0.1-0.4-0.4c0-0.5,0-1.1,0-1.6c0-1.5,0-3,0-4.5c0-0.1,0-0.1,0-0.2c0-0.4,0-0.4,0.4-0.4c0.4,0,0.7,0,1.1,0
	c0.4,0,0.5,0.1,0.5,0.5C91.6,18.2,91.6,18.4,91.6,18.6C91.6,18.6,91.6,18.6,91.6,18.6L91.6,18.6z"/>
</svg>
