<?xml version="1.0" encoding="utf-8"?>
<!-- Generator: Adobe Illustrator 26.3.1, SVG Export Plug-In . SVG Version: 6.00 Build 0)  -->
<svg version="1.1" id="katman_1" xmlns="http://www.w3.org/2000/svg" xmlns:xlink="http://www.w3.org/1999/xlink" x="0px" y="0px"
	 viewBox="0 0 300 100" style="enable-background:new 0 0 300 100;" xml:space="preserve">
<path d="M97,30.7c1.9,0,3.8,0,5.7,0c0.8,0,0.9,0.2,0.9,0.9c0,3.8,0,7.5,0,11.3c0,0.1,0,0.2,0,0.3c0,0.5-0.3,0.7-0.7,0.7
	c-0.3,0-0.5,0-0.8,0c-3.5,0-7.1,0-10.6,0c-0.1,0-0.2,0-0.3,0c-0.6,0-0.8-0.3-0.8-0.8c0-0.4,0-0.7,0-1.1c0-3.5,0-7,0-10.4
	c0-0.2,0-0.3,0.1-0.5c0.1-0.3,0.4-0.4,0.7-0.4C93.1,30.7,95.1,30.7,97,30.7L97,30.7z"/>
<path d="M110,43.7c1.9,0,3.8,0,5.7,0c0.5,0,0.8,0.3,0.8,0.8c0,3.8,0,7.7,0,11.5c0,0.6-0.2,0.8-0.8,0.9c-0.6,0-1.3,0-1.9,0
	c-3.2,0-6.3,0-9.5,0c-0.1,0-0.2,0-0.3,0c-0.5-0.1-0.7-0.3-0.7-0.7c0-0.6,0-1.1,0-1.7c0-3.3,0-6.5,0-9.8c0-0.1,0-0.2,0-0.3
	c0-0.3,0.2-0.5,0.5-0.5c0.2,0,0.4,0,0.7,0C106.4,43.7,108.2,43.7,110,43.7L110,43.7L110,43.7z"/>
<path d="M122.8,56.5c1.9,0,3.8,0,5.7,0c0.7,0,0.9,0.2,0.9,0.9c0,3.1,0,6.3,0,9.4c0,0.7,0,1.4,0,2.1c0,0.6-0.2,0.8-0.8,0.8
	c-3.9,0-7.8,0-11.7,0c-0.5,0-0.8-0.2-0.8-0.7c0-3.9,0-7.8,0-11.7c0-0.5,0.2-0.8,0.8-0.8C118.9,56.5,120.9,56.5,122.8,56.5
	L122.8,56.5L122.8,56.5z"/>
<path d="M122.8,30.7c1.9,0,3.8,0,5.7,0c0.7,0,0.9,0.2,0.9,0.9c0,3.6,0,7.3,0,10.9c0,0.2,0,0.5,0,0.7c0,0.4-0.2,0.6-0.6,0.6
	c-0.1,0-0.2,0-0.3,0c-3.8,0-7.6,0-11.4,0c-0.5,0-0.9-0.3-0.9-0.9c0-3.8,0-7.7,0-11.5c0-0.5,0.2-0.8,0.8-0.8
	C118.9,30.7,120.9,30.7,122.8,30.7L122.8,30.7z"/>
<path d="M97.1,69.7c-1.9,0-3.9,0-5.8,0c-0.5,0-0.8-0.3-0.8-0.8c0-3.3,0-6.6,0-9.9c0-0.6,0-1.1,0-1.7c0-0.6,0.2-0.8,0.8-0.8
	c3.7,0,7.4,0,11.1,0c0.2,0,0.5,0,0.7,0c0.3,0,0.5,0.2,0.6,0.5c0,0.1,0,0.3,0,0.4c0,3.8,0,7.6,0,11.4c0,0.1,0,0.3-0.1,0.4
	c-0.1,0.3-0.3,0.5-0.6,0.5c-0.1,0-0.3,0-0.4,0C100.7,69.7,98.9,69.7,97.1,69.7L97.1,69.7z"/>
<path d="M143.8,50.2c0.1,0,0.1,0.1,0.2,0.1c0.8,0.3,1.3,0.8,1.4,1.6c0.2,1,0,1.9-0.8,2.6c-0.4,0.4-0.9,0.5-1.4,0.6
	c-0.3,0.1-0.6,0.1-0.8,0.1c-1.2,0-2.5,0-3.7,0c-0.4,0-0.5-0.1-0.5-0.5c0-2.3,0-4.6,0-7c0-0.5,0-1.1,0-1.6c0-0.4,0.1-0.5,0.5-0.5
	c1.2,0,2.4,0,3.6,0c0.4,0,0.9,0.1,1.3,0.2c1.1,0.4,1.6,1.2,1.6,2.4c0,0.8-0.4,1.5-1.2,1.9C143.9,50.1,143.8,50.1,143.8,50.2
	C143.8,50.2,143.8,50.2,143.8,50.2L143.8,50.2z M140.4,51c-0.1,0.1-0.1,0.2-0.1,0.3c0,0.7,0,1.5,0,2.2c0,0.2,0.1,0.3,0.3,0.3
	c0.5,0,0.9,0,1.4,0c0.3,0,0.6-0.2,0.9-0.3c0.4-0.3,0.4-0.7,0.4-1.1c0-0.6-0.3-1.1-1-1.1C141.7,51,141,51,140.4,51z M140.3,48.3
	c0,0.3,0,0.6,0,0.9c0,0.3,0,0.4,0.3,0.4c0.5,0,0.9,0,1.4,0c0.9-0.1,1.4-1.2,0.8-1.9c-0.2-0.2-0.4-0.4-0.6-0.4c-0.5,0-1.1,0-1.6,0
	c-0.2,0-0.3,0.1-0.3,0.3C140.3,47.8,140.3,48.1,140.3,48.3L140.3,48.3z"/>
<path d="M148,35.5c0,1-0.2,1.9-0.8,2.8c-0.7,1.2-1.8,1.8-3.1,2.1c-1,0.2-2.1,0.2-3.1-0.2c-1.6-0.6-2.5-1.7-2.9-3.4
	c-0.2-1-0.2-1.9,0.1-2.9c0.6-1.8,1.8-2.8,3.6-3.1c1.2-0.2,2.4-0.1,3.6,0.5c1.1,0.6,1.9,1.5,2.2,2.8C147.9,34.5,147.9,35,148,35.5
	L148,35.5z M145.7,35.6c0-0.2,0-0.5,0-0.7c-0.1-1.3-1-2.3-2.3-2.4c-1.2-0.1-2.1,0.3-2.6,1.4c-0.5,1-0.5,2.1-0.1,3.2
	c0.4,1,1.1,1.6,2.1,1.7c0.9,0.1,1.7-0.2,2.3-0.9C145.5,37.1,145.7,36.4,145.7,35.6L145.7,35.6z"/>
<path d="M201.8,49c0.5-0.6,1.2-1,2-1c0.8,0,1.5,0.3,1.9,1.1c0.2,0,0.3-0.2,0.4-0.3c0.8-0.7,1.7-0.9,2.7-0.7c0.9,0.2,1.5,0.9,1.6,2.1
	c0.1,0.7,0,1.4,0,2.1c0,0.8,0,1.5,0,2.3c0,0.4,0,0.5-0.5,0.5c-0.5,0-0.9,0-1.4,0c0-0.2,0-0.3,0-0.4c0-1.1,0-2.3,0-3.4
	c0-0.2,0-0.4,0-0.6c-0.1-1.2-1-1.3-1.7-1c-0.5,0.2-0.7,0.7-0.7,1.2c0,1.2,0,2.3,0,3.5c0,0.1,0,0.2,0,0.3c0,0.2-0.1,0.3-0.3,0.3
	c-0.4,0-0.8,0-1.2,0c-0.4,0-0.4-0.1-0.4-0.4c0-1.3,0-2.5,0-3.8c0-0.3-0.1-0.5-0.2-0.8c-0.1-0.3-0.4-0.5-0.8-0.5
	c-0.9-0.1-1.4,0.4-1.5,1.3c0,0.5,0,1,0,1.5c0,0.7,0,1.5,0,2.2c0,0.5-0.1,0.5-0.5,0.5c-0.3,0-0.6,0-1,0c-0.4,0-0.5-0.1-0.5-0.5
	c0-1.7,0-3.5,0-5.2c0-0.3,0-0.6,0-0.9c0-0.3,0-0.4,0.4-0.4c0.4,0,0.8,0,1.2,0c0.3,0,0.4,0.1,0.4,0.4C201.7,48.7,201.7,48.9,201.8,49
	C201.7,49,201.7,49,201.8,49L201.8,49z"/>
<path d="M156.9,30.9c-0.1,0.2-0.2,0.3-0.3,0.4c-1,1.2-2.1,2.5-3.1,3.7c-0.3,0.3-0.3,0.3,0,0.7c1.1,1.4,2.2,2.8,3.3,4.2
	c0.1,0.1,0.1,0.2,0.2,0.4c-0.2,0-0.3,0.1-0.4,0.1c-0.6,0-1.2,0-1.8,0c-0.3,0-0.4-0.1-0.5-0.3c-0.6-0.8-1.1-1.5-1.7-2.3
	c-0.3-0.5-0.7-0.9-1-1.4c0-0.1-0.1-0.1-0.2-0.2c0,0.1,0,0.2,0,0.2c0,1.1,0,2.2,0,3.3c0,0.5-0.1,0.6-0.5,0.6c-0.4,0-0.8,0-1.2,0
	c-0.4,0-0.4-0.1-0.4-0.4c0-2.9,0-5.8,0-8.7c0-0.4,0-0.4,0.4-0.5c0.4,0,0.9,0,1.3,0c0.4,0,0.4,0.1,0.4,0.4c0,1.1,0,2.1,0,3.2
	c0,0.1,0,0.2,0,0.3c0.1-0.1,0.2-0.2,0.3-0.3c0.9-1.1,1.8-2.2,2.7-3.3c0.2-0.3,0.5-0.4,0.8-0.4c0.4,0,0.9,0,1.4,0
	C156.6,30.8,156.7,30.9,156.9,30.9L156.9,30.9z"/>
<path d="M162,37.1c-0.1,0.2-0.2,0.2-0.2,0.3c-0.5,0.8-0.9,1.7-1.4,2.5c-0.1,0.3-0.3,0.3-0.6,0.3c-0.5,0-1,0-1.4,0
	c-0.1,0-0.1,0-0.2,0c-0.3,0-0.4-0.2-0.2-0.4c0.3-0.6,0.7-1.2,1-1.7c0.5-0.8,1-1.6,1.5-2.4c0.1-0.2,0.1-0.4,0-0.6
	c-0.8-1.3-1.5-2.5-2.3-3.8c-0.1-0.1-0.1-0.3-0.2-0.4c0.1,0,0.2-0.1,0.3-0.1c0.6,0,1.2,0,1.8,0c0.2,0,0.3,0.1,0.4,0.3
	c0.4,0.8,0.9,1.5,1.3,2.3c0,0.1,0.1,0.2,0.2,0.3c0.1-0.1,0.2-0.2,0.2-0.2c0.4-0.8,0.9-1.5,1.3-2.3c0.1-0.3,0.3-0.3,0.6-0.3
	c0.5,0,1,0,1.5,0c0.1,0,0.3,0,0.5,0c-0.1,0.2-0.1,0.4-0.2,0.5c-0.7,1.2-1.4,2.4-2.2,3.6c-0.2,0.3-0.2,0.6,0,0.9
	c0.8,1.3,1.5,2.5,2.3,3.8c0.3,0.5,0.3,0.6-0.3,0.6c-0.5,0-0.9,0-1.4,0c-0.3,0-0.5-0.1-0.7-0.4c-0.5-0.9-0.9-1.7-1.4-2.5
	C162.2,37.3,162.1,37.2,162,37.1L162,37.1z"/>
<path d="M176.7,49v-3.9c0.2,0,0.3,0,0.5,0c0.3,0,0.7,0,1,0c0.5,0,0.5,0,0.5,0.5c0,0.3,0,0.7,0,1c0,2.7,0,5.4,0,8.1
	c0,0.1,0,0.1,0,0.2c0,0.3-0.1,0.3-0.3,0.3c-0.4,0-0.8,0-1.3,0c-0.3,0-0.3-0.1-0.3-0.4c0-0.2,0-0.4,0-0.6c-0.1,0.1-0.2,0.1-0.2,0.2
	c-0.5,0.7-1.3,1-2.1,1c-1.4-0.1-2.3-0.9-2.7-2.1c-0.3-1-0.3-2.1,0-3.1c0.4-1.3,1.6-2.1,2.8-2.1c0.6,0,1.2,0.1,1.6,0.5
	C176.3,48.7,176.5,48.8,176.7,49L176.7,49z M176.8,51.7c-0.1-0.4-0.1-0.8-0.3-1.2c-0.2-0.6-0.8-0.9-1.5-0.9c-0.7,0-1.2,0.3-1.4,0.9
	c-0.3,0.8-0.3,1.6-0.1,2.4c0.2,0.6,0.7,1,1.4,1c0.7,0,1.2-0.2,1.5-0.9C176.7,52.6,176.8,52.2,176.8,51.7z"/>
<path d="M142.6,67.2c0.1-0.2,0.1-0.2,0.2-0.3c0.4-1.3,0.8-2.6,1.2-3.9c0.3-0.9,0.6-1.8,0.8-2.7c0.1-0.2,0.2-0.3,0.4-0.3
	c0.5,0,0.9,0,1.4,0c0.3,0,0.4,0.1,0.3,0.4c-0.3,0.8-0.5,1.7-0.8,2.5c-0.7,2.1-1.4,4.1-2.1,6.2c-0.2,0.5-0.2,0.5-0.7,0.5
	c-0.5,0-1,0-1.5,0c-0.4,0-0.4,0-0.6-0.4c-0.4-1.3-0.9-2.5-1.3-3.8c-0.5-1.6-1.1-3.3-1.6-4.9c-0.1-0.3,0-0.4,0.3-0.4c0.5,0,1,0,1.5,0
	c0.3,0,0.4,0.1,0.5,0.3c0.2,0.7,0.4,1.3,0.6,2c0.4,1.2,0.8,2.5,1.1,3.7C142.3,66.4,142.4,66.7,142.6,67.2z"/>
<path d="M167,52.2c0,0.7,0,1.4,0,2.1c0,1.1-0.1,0.9-0.9,0.9c-0.2,0-0.4,0-0.6,0c-0.4,0-0.5,0-0.5-0.5c0-0.8,0-1.6,0-2.4
	c0-2.2,0-4.5,0-6.8c0-0.1,0-0.1,0-0.2c0-0.2,0.1-0.3,0.3-0.3c0.5,0,1,0,1.4,0c0.2,0,0.3,0.1,0.3,0.3c0,0.1,0,0.2,0,0.4
	c0,1.7,0,3.4,0,5c0,0,0,0.1,0.1,0.2c0.1-0.1,0.2-0.2,0.2-0.2c0.6-0.7,1.1-1.4,1.6-2.2c0.2-0.2,0.3-0.3,0.6-0.3c0.4,0,0.8,0,1.2,0
	c0.1,0,0.3,0,0.3,0.1c0,0.1,0,0.2-0.1,0.3c-0.7,0.8-1.3,1.7-2,2.5c-0.1,0.1-0.1,0.1-0.2,0.2c0.9,1.2,1.7,2.4,2.6,3.6
	c-0.1,0.2-0.2,0.2-0.4,0.2c-0.5,0-0.9,0-1.4,0c-0.2,0-0.4-0.1-0.5-0.3c-0.6-0.9-1.2-1.7-1.8-2.5C167.3,52.3,167.2,52.2,167,52.2
	C167.1,52.2,167.1,52.2,167,52.2L167,52.2z"/>
<path d="M181.3,66.5c-0.1,0.9,0.6,1.7,1.4,1.7c0.2,0,0.4,0,0.5,0c0.4,0,0.8-0.2,1-0.7c0.1-0.2,0.3-0.3,0.5-0.3c0.3,0,0.7,0,1,0
	c0.4,0,0.4,0.1,0.3,0.5c-0.3,0.9-0.9,1.4-1.8,1.7c-1.1,0.3-2.2,0.3-3.3-0.2c-0.9-0.4-1.4-1.1-1.6-2c-0.3-0.9-0.2-1.8,0.1-2.7
	c0.4-1,1.1-1.7,2.1-2.1c1-0.3,1.9-0.3,2.8,0.1c1,0.4,1.5,1.3,1.7,2.3c0.1,0.3,0.1,0.6,0.1,1c0,0.5-0.1,0.5-0.5,0.5c-1.3,0-2.7,0-4,0
	C181.6,66.5,181.4,66.5,181.3,66.5L181.3,66.5z M182.7,65.3c0.4,0,0.8,0,1.2,0c0.3,0,0.4-0.1,0.3-0.4c-0.1-0.5-0.3-0.8-0.8-1
	c-0.9-0.4-1.9,0.1-2.2,1.1c-0.1,0.2,0,0.3,0.3,0.3C181.9,65.3,182.3,65.3,182.7,65.3L182.7,65.3z"/>
<path d="M150.8,66.5c-0.7,0-1.4,0-2.1,0c-0.4,0-0.4,0-0.3,0.4c0.2,1.4,1.6,1.6,2.5,1.2c0.2-0.1,0.4-0.3,0.5-0.5
	c0.1-0.2,0.3-0.3,0.5-0.3c0.3,0,0.7,0,1.1,0c0.3,0,0.4,0.1,0.3,0.4c-0.2,0.8-0.7,1.3-1.4,1.6c-1.1,0.5-2.3,0.5-3.4,0.1
	c-1.3-0.5-1.9-1.5-2.1-2.8c-0.1-0.7,0-1.4,0.2-2.1c0.6-1.6,2.2-2.3,3.6-2.2c0.5,0,1,0.2,1.5,0.4c1,0.6,1.5,1.5,1.6,2.6
	c0,0.2,0,0.5,0,0.7c0,0.3-0.1,0.4-0.4,0.4c-0.1,0-0.2,0-0.3,0C152,66.5,151.4,66.5,150.8,66.5L150.8,66.5z M149.9,65.3
	C149.9,65.3,149.9,65.3,149.9,65.3c0.4,0,0.8,0,1.2,0c0.3,0,0.3-0.1,0.3-0.4c-0.1-0.7-0.7-1.2-1.5-1.2c-0.9,0-1.3,0.6-1.5,1.2
	c-0.1,0.2,0,0.3,0.3,0.3C149.1,65.3,149.5,65.3,149.9,65.3L149.9,65.3z"/>
<path d="M191.5,52.2h-4.9c-0.1,0.7,0.4,1.6,1.1,1.7c0.4,0.1,0.8,0.1,1.2,0c0.3-0.1,0.6-0.2,0.7-0.6c0.1-0.3,0.3-0.3,0.5-0.3
	c0.3,0,0.7,0,1.1,0c0.3,0,0.3,0.1,0.3,0.3c-0.1,0.5-0.3,0.8-0.7,1.2c-0.4,0.4-0.9,0.6-1.5,0.7c-1,0.2-2,0.2-2.9-0.3
	c-1.1-0.5-1.7-1.4-1.8-2.6c-0.1-0.6-0.1-1.2,0.1-1.8c0.5-1.7,1.9-2.5,3.6-2.5c1,0,1.8,0.3,2.5,1.1C191.5,50,191.7,51,191.5,52.2
	L191.5,52.2z M186.7,50.9c0.3,0,0.5,0,0.8,0c0.6,0,1.3,0,1.9,0c0.3,0,0.3-0.1,0.3-0.3c-0.1-0.7-0.6-1.2-1.3-1.2
	C187.4,49.3,186.6,50,186.7,50.9z"/>
<path d="M196.5,54.5c-0.1,0.1-0.2,0.1-0.2,0.2c-0.2,0.3-0.6,0.5-0.9,0.6c-0.7,0.1-1.4,0.2-2.1-0.1c-0.7-0.3-1.1-0.9-1.2-1.7
	c0-0.9,0.3-1.6,1.1-2c0.5-0.2,1-0.4,1.5-0.4c0.5,0,1,0,1.5-0.1c0.3,0,0.4-0.1,0.4-0.4c0-0.4-0.1-0.9-0.5-1.1c-0.5-0.2-1-0.2-1.4,0.1
	c-0.1,0.1-0.2,0.3-0.3,0.5c-0.1,0.2-0.2,0.2-0.4,0.2c-0.4,0-0.8,0-1.1,0c-0.3,0-0.4-0.1-0.3-0.4c0.2-0.8,0.7-1.4,1.4-1.7
	c1-0.4,2-0.4,3-0.1c1,0.3,1.6,1.1,1.6,2.2c0,1,0,2.1,0,3.1c0,0.4,0,0.9,0,1.3c0,0.3-0.1,0.4-0.4,0.4c-0.3,0-0.7,0-1,0
	c-0.4,0-0.5-0.1-0.5-0.5C196.5,54.7,196.5,54.7,196.5,54.5L196.5,54.5z M196.4,52.2c-0.3,0-0.7,0-1,0c-0.3,0-0.6,0.1-0.9,0.2
	c-0.4,0.1-0.5,0.5-0.5,0.9c0,0.4,0.3,0.6,0.7,0.6c0.2,0,0.5,0,0.7,0C196.3,53.8,196.7,53.1,196.4,52.2L196.4,52.2z"/>
<path d="M153.1,55.4c-0.7,0-1.4-0.1-2.1-0.5c-0.9-0.5-1.3-1.2-1.6-2.2c-0.2-0.8-0.1-1.5,0.1-2.3c0.4-1.2,1.3-2,2.6-2.2
	c1.2-0.2,2.3-0.1,3.3,0.7c0.6,0.4,0.9,1,1.1,1.7c0.3,0.9,0.2,1.9-0.2,2.7c-0.6,1.2-1.5,1.9-2.9,2C153.4,55.3,153.2,55.3,153.1,55.4
	L153.1,55.4z M154.8,51.8c0-0.6,0-1-0.3-1.5c-0.3-0.6-0.9-0.8-1.5-0.8c-0.6,0-1.1,0.3-1.4,1c-0.3,0.8-0.3,1.6,0,2.3
	c0.2,0.7,0.7,1,1.4,1c0.7,0,1.2-0.3,1.5-0.9C154.7,52.6,154.8,52.2,154.8,51.8L154.8,51.8z"/>
<path d="M171.4,68.6c-0.2,0.1-0.2,0.2-0.3,0.3c-0.4,0.5-1,0.8-1.7,0.8c-0.3,0-0.7,0-1-0.1c-0.8-0.2-1.3-0.7-1.5-1.5
	c-0.1-0.3-0.1-0.7-0.1-1c0-1.3,0-2.7,0-4c0-0.4,0.1-0.5,0.5-0.5c0.3,0,0.7,0,1,0c0.4,0,0.5,0.1,0.5,0.5c0,1.2,0,2.4,0,3.6
	c0,0.1,0,0.2,0,0.3c0,0.8,0.3,1.2,1,1.3c0.7,0.1,1.3-0.3,1.5-0.9c0.1-0.2,0.1-0.5,0.1-0.8c0-1.2,0-2.3,0-3.5c0-0.5,0.1-0.5,0.5-0.5
	c0.3,0,0.7,0,1,0c0.4,0,0.4,0.1,0.5,0.4c0,0.7,0,1.5,0,2.2c0,1.2,0,2.4,0,3.6c0,0.1,0,0.3,0,0.4c0,0.2-0.1,0.3-0.3,0.3
	c-0.5,0-1,0-1.4,0c-0.2,0-0.2-0.1-0.2-0.3C171.4,69.1,171.4,68.9,171.4,68.6L171.4,68.6z"/>
<path d="M156.2,63.5c0.1-0.1,0.2-0.2,0.3-0.2c0.6-0.8,2-1.1,3-0.6c0.7,0.3,1.2,0.9,1.3,1.7c0.1,0.4,0.1,0.8,0.1,1.1
	c0,1.2,0,2.5,0,3.7c0,0.4,0,0.5-0.5,0.5c-0.4,0-0.7,0-1.1,0c-0.3,0-0.4-0.1-0.4-0.4c0-1.2,0-2.4,0-3.6c0-0.4,0-0.8-0.3-1.1
	c-0.1-0.1-0.3-0.3-0.5-0.3c-1.1-0.3-1.9,0.3-1.9,1.5c0,0.9,0,1.7,0,2.6c0,0.3,0,0.7,0,1c0,0.3,0,0.4-0.4,0.4c-0.4,0-0.8,0-1.1,0
	c-0.4,0-0.4-0.1-0.4-0.5c0-0.9,0-1.9,0-2.8c0-1.1,0-2.1,0-3.2c0-0.5,0.1-0.5,0.5-0.5c0.3,0,0.6,0,1,0c0.4,0,0.5,0.1,0.5,0.5
	C156.2,63.2,156.2,63.3,156.2,63.5L156.2,63.5z"/>
<path d="M189.8,69.7c-0.6,0.1-1.1,0-1.7-0.3c-0.7-0.3-1.1-0.8-1.3-1.5c-0.1-0.5,0-0.6,0.4-0.6c0.3,0,0.6,0,0.9,0
	c0.2,0,0.4,0.1,0.5,0.3c0.3,0.7,1.2,0.9,1.8,0.6c0.3-0.1,0.4-0.3,0.4-0.6c0-0.3-0.1-0.5-0.4-0.6c-0.3-0.1-0.6-0.2-1-0.2
	c-0.5-0.1-1.1-0.2-1.6-0.4c-0.5-0.2-0.9-0.6-1-1.2c-0.2-1,0.2-2.1,1.4-2.5c1.1-0.4,2.2-0.3,3.2,0.3c0.5,0.3,0.7,0.8,0.9,1.3
	c0.1,0.3,0,0.4-0.3,0.4c-0.3,0-0.7,0-1,0c-0.2,0-0.4-0.1-0.5-0.3c-0.3-0.6-1.1-0.7-1.7-0.4c-0.4,0.3-0.4,0.8,0.1,1
	c0.2,0.1,0.5,0.1,0.7,0.2c0.5,0.1,1.1,0.2,1.6,0.4c0.9,0.3,1.3,0.9,1.3,1.8c0.1,1.4-0.9,2.2-2.3,2.4C190.2,69.7,190,69.7,189.8,69.7
	z"/>
<path d="M163.2,50.8c-0.1,0-0.1,0-0.2,0c-0.4,0-0.7,0-0.8-0.5c-0.1-0.5-0.7-0.7-1.3-0.7c-0.8,0-1.4,0.6-1.5,1.4
	c-0.1,0.5-0.1,1.1,0,1.6c0.1,0.7,0.7,1.2,1.4,1.3c0.7,0.1,1.3-0.3,1.6-1c0.1-0.2,0.2-0.3,0.5-0.3c0.3,0,0.6,0,0.9,0
	c0.4,0,0.5,0.1,0.4,0.5c-0.2,1-0.7,1.6-1.6,2c-1.1,0.5-2.2,0.5-3.2,0.1c-1.1-0.4-1.7-1.2-2-2.3c-0.2-1-0.2-2,0.3-2.9
	c0.7-1.3,1.8-1.8,3.2-1.9c0.7,0,1.3,0.1,1.9,0.4c0.7,0.4,1.1,1,1.3,1.8c0.1,0.4,0,0.4-0.4,0.5c-0.1,0-0.2,0-0.3,0
	C163.4,50.8,163.3,50.8,163.2,50.8L163.2,50.8z"/>
<path d="M162.4,62.4c0-0.3,0-0.6,0-1c0-0.4,0-0.4,0.4-0.4c0.4,0,0.7,0,1.1,0c0.3,0,0.4,0.1,0.4,0.4c0,0.3,0,0.5,0,0.8
	c0,0.2,0.1,0.3,0.3,0.3c0.3,0,0.5,0,0.8,0c0.3,0,0.4,0.1,0.4,0.4c0,0.2,0,0.5,0,0.7c0,0.2-0.1,0.3-0.3,0.3c-0.3,0-0.6,0-0.8,0
	c-0.3,0-0.3,0-0.3,0.3c0,1,0,2,0,3.1c0,0.6,0.3,0.8,0.9,0.8c0,0,0.1,0,0.1,0c0.6,0,0.6,0,0.6,0.5c0,0.2,0,0.4,0,0.6
	c0,0.2-0.1,0.3-0.3,0.4c-0.7,0.2-1.5,0.2-2.2-0.2c-0.6-0.3-0.9-0.8-1-1.4c0-0.7,0-1.3,0-2c0-0.6,0-1.2,0-1.8c0-0.3,0-0.3-0.4-0.4
	c-0.1,0-0.1,0-0.2,0c-0.2,0-0.3-0.1-0.3-0.3c0-0.2,0-0.5,0-0.7c0-0.3,0.1-0.3,0.4-0.4c0.1,0,0.3,0,0.4,0
	C162.3,62.5,162.4,62.5,162.4,62.4L162.4,62.4z"/>
<path d="M146.5,50.1c0-1.5,0-3.1,0-4.6c0-0.4,0-0.4,0.4-0.4c0.4,0,0.8,0,1.1,0c0.3,0,0.4,0,0.4,0.4c0,1.3,0,2.5,0,3.8
	c0,1.8,0,3.5,0,5.3c0,0.1,0,0.3,0,0.4c0,0.2-0.1,0.3-0.3,0.3c-0.4,0-0.8,0-1.3,0c-0.3,0-0.4-0.1-0.4-0.4c0-0.4,0-0.7,0-1.1
	C146.5,52.6,146.5,51.3,146.5,50.1C146.5,50.1,146.5,50.1,146.5,50.1L146.5,50.1z"/>
<path d="M176.7,63.6c0.1-0.1,0.2-0.2,0.2-0.3c0.4-0.5,0.9-0.7,1.5-0.8c0.3,0,0.4,0,0.4,0.3c0,0.4,0,0.8,0,1.1c0,0.2-0.1,0.3-0.3,0.3
	c-0.3,0-0.6,0.1-0.8,0.1c-0.5,0.1-0.9,0.5-1,1c-0.1,0.3-0.1,0.5-0.1,0.8c0,0.9,0,1.8,0,2.7c0,0.5,0,0.5-0.5,0.5c-0.4,0-0.7,0-1.1,0
	c-0.4,0-0.4-0.1-0.4-0.4c0-1.5,0-3.1,0-4.6c0-0.5,0-1,0-1.5c0-0.4,0.1-0.4,0.4-0.4c0.4,0,0.8,0,1.1,0c0.3,0,0.4,0.1,0.4,0.4
	C176.6,63.1,176.6,63.4,176.7,63.6C176.6,63.6,176.7,63.6,176.7,63.6L176.7,63.6z"/>
<path d="M182.1,49.3c0.1-0.1,0.2-0.3,0.3-0.4c0.4-0.5,1-0.7,1.5-0.8c0.2,0,0.3,0.1,0.3,0.2c0,0.4,0,0.9,0,1.3c0,0.1-0.1,0.2-0.2,0.3
	c-0.1,0.1-0.3,0.1-0.5,0.1c-1,0.1-1.5,0.7-1.5,1.7c0,0.9,0,1.8,0,2.7c0,0.1,0,0.2,0,0.4c0,0.5-0.1,0.5-0.5,0.5c-0.4,0-0.7,0-1.1,0
	c-0.3,0-0.4-0.1-0.4-0.4c0-0.5,0-1.1,0-1.6c0-1.5,0-3,0-4.5c0-0.1,0-0.1,0-0.2c0-0.4,0-0.4,0.4-0.4c0.4,0,0.7,0,1.1,0
	c0.4,0,0.5,0.1,0.5,0.5C182,48.9,182,49.1,182.1,49.3C182,49.3,182,49.3,182.1,49.3L182.1,49.3z"/>
</svg>
