<?xml version="1.0" encoding="utf-8"?>
<!-- Generator: Adobe Illustrator 26.3.1, SVG Export Plug-In . SVG Version: 6.00 Build 0)  -->
<svg version="1.1" id="katman_1" xmlns="http://www.w3.org/2000/svg" xmlns:xlink="http://www.w3.org/1999/xlink" x="0px" y="0px"
	 viewBox="0 0 1317 267" style="enable-background:new 0 0 1317 267;" xml:space="preserve">
<path d="M217.9,35.1l8,1l-0.5,69.2l-0.8,69.2l-7.5,1.2c-4,0.8,3.2,1.5,16.2,1.2c13,0,20.7-0.2,17-0.8l-7-0.8v-71.2v-71l-16.7,0.5
	C217.1,33.8,213.4,34.6,217.9,35.1z"/>
<path d="M610.3,35.1l8,1l-0.5,69.2l-0.8,69.2l-7.5,1.5c-4.2,1,3.2,1.8,16.2,1.8c13,0,20.5-0.8,16.2-1.8l-7.5-1.5l-0.8-23.8
	c-1-28.2,2-39.5,12.8-50.2c6-6,6.5-7.2,2.2-5c-3,1.5-7,5.2-8.8,7.7c-1.5,2.8-3.8,5-4.8,5c-1.2,0-2-17-2-37.5V33.3l-15.5,0.5
	C609.1,33.8,605.6,34.6,610.3,35.1z"/>
<path d="M864.6,35.6l7.5,1.5v68.7v68.7l-7.5,1.2c-4,0.8,3.2,1.5,16.2,1.5s20.5-0.8,16.2-1.5l-7.5-1.2l-0.8-70.7l-0.5-70.5l-15.8,0.2
	C861.3,33.8,859.1,34.3,864.6,35.6z"/>
<path d="M992.8,35.1l8,1v35.2v35.2l-5-6.5c-20.2-25.7-65-1.5-65,35.2c0,14.8,12.2,32.5,27.5,40.5c8,4.2,23.2,5,26.8,1.8
	c0.8-1-2.5-1.2-7-0.8c-20.5,2-27.2-8.5-27.2-42.8c0-26.7,4.5-38.2,16.8-41.5c12.2-3.5,26,4.2,30.2,17c5.3,15.5,2.8,49.2-4.2,59.5
	l-5.5,8l6.2-6.8l6.2-7l0.8,6.5c0.8,6,1.8,6.5,15.8,7c8.2,0.5,12,0.2,8.2-0.2l-7-1v-71.2v-71l-16.8,0.5
	C992.1,33.8,988.3,34.6,992.8,35.1z"/>
<path d="M33.3,134.6v98.7h12.7c7.8,0,12-1,11-2.5c-0.8-1.5-6-2.5-11.5-2.5h-9.7l0.5-94.5l0.8-94.2l11.2-1.5l11.2-1.5l-13-0.2
	l-13.2-0.5V134.6z"/>
<path d="M1267.8,37.6l10.5,1v95v94.7h-8.5c-4.8,0-9.5,1-10.2,2.5c-1,1.5,3.2,2.5,11,2.5h12.8v-98.7V35.8l-13,0.5
	C1257.6,36.6,1257.6,36.8,1267.8,37.6z"/>
<path d="M130.8,91.1c-3.5,1.2-8.8,5.5-11.8,9.2l-5.8,6.8v-8.2v-8l-15.5,0.2c-10.7,0.2-13.5,0.8-8.7,2l7,1.5v67.5v67.5l-8.2,1.5
	c-4.5,1,3,1.5,16.7,1.5c13.8,0,21.2-0.5,17-1l-8.2-1v-34v-33.8l7.2,7.8c4,4.2,8.3,8,9.5,8c16.2,2.5,29.5-2,41.2-14.5
	c12.8-13.5,15.8-33.8,7.2-50.2c-5.8-11.5-11.5-16.7-23.5-21.7C144.8,87.8,139.8,87.6,130.8,91.1z M157.1,98.6c4.5,4.2,5,8.2,5,36
	c0,28.8-0.5,31.5-5.5,36.5c-11.8,12-32.5,6.5-39.3-10.2c-5-13-5.2-39.5,0-52.2C124.1,91.6,144.8,86.3,157.1,98.6z"/>
<path d="M304.1,92.1c-16,7-21.2,25-7,25c7,0,7.5-0.5,6.8-9.2c-0.5-7,0.5-10,5-13c13-9.2,27-1,27,15.5c0,13.8-5.2,19.2-24.2,25.5
	c-21.8,7.2-28.2,13-28.2,25.5c0,13.5,9.5,18.8,32.8,17.5c3.8-0.2,9.2-3.2,12.5-6.5l5.5-5.8l5.5,6c3.8,4.8,7.8,6.2,14.8,6.2
	c5.2,0,10.5-1,12-2.5s0-2-4.2-1c-4.2,0.8-7.5,0-9-2.2c-1.2-2-2.2-17.5-2.2-34.7c0-35.2-2-40.5-16.5-46.5
	C323.8,87.6,314.3,87.6,304.1,92.1z M335.1,147.6c-2,20.8-8.2,28.8-21.5,27.8c-15.5-1.2-20.2-20.5-7.8-31.2c4.5-4,23.2-12.2,28.5-13
	C335.6,130.8,335.8,138.1,335.1,147.6z"/>
<path d="M422.6,90.8c-21.5,6.8-32.8,24.5-31.2,49c0.8,13.5,2,17,8.2,23.8c4.2,4.2,10.8,9.2,14.5,11.2c8.8,4.8,25.8,6,34.8,3
	c7.2-2.5,19.5-15.2,19.5-20.2c0-1.8-2.2,0.5-5,5c-2.5,4.2-7.2,9.2-10.2,10.8c-7.2,4-22.2,5-28.8,2c-13.8-6.2-19.8-37.5-12.5-63
	c3.8-12.5,5.2-14.7,13.2-18.2c6.5-2.8,11.2-3,16.8-1.5c7.2,2.2,7.8,3,7.2,14c-0.2,10.5,0.2,12,6,13.2c14.8,3.8,17.2-14,3.2-24.2
	C450.8,90.1,432.6,87.6,422.6,90.8z"/>
<path d="M527.3,91.8c-20.2,7.5-33.7,29.3-30.5,49.3c3,19.5,12.2,30.5,31,36.7c9,3,11,0.5,2.5-3.2c-8.2-3.5-14.5-18-14.5-33v-13
	l30.8-0.8l30.5-0.8l-0.8-7.5C574.3,98.3,549.1,84.1,527.3,91.8z M552.3,97.1c5,5,6.2,8.3,5.5,17l-0.8,10.5l-21,0.8l-20.8,0.8
	l1.8-9.5C521.1,93.6,539.1,83.8,552.3,97.1z"/>
<path d="M665.8,89.6c0,0.8,2.8,2.5,6.2,3.7c9.5,3.5,11.5,12.5,10.8,48.5l-0.8,32.7l-7.5,1.5c-4,0.8,3.2,1.2,16.2,1.2
	s20.5-0.8,16.2-1.5l-7.5-1.2l-1.2-35.5c-1-30-2-36-6-40.5C686.8,92.6,665.8,85.6,665.8,89.6z"/>
<path d="M766.1,94.8c-17.5,8.7-26.5,22.2-26.5,39.7c0,30.2,33.5,53.5,61.2,42c40.8-16.8,39.5-69.8-2.2-84.5
	C784.1,87.1,781.6,87.3,766.1,94.8z M796.8,94.3c10.8,4.5,15,16.2,15,41.5c-0.2,30.5-8.8,42.5-29.2,41.2
	c-17.5-1.2-24.2-13.2-24.2-43C758.3,98.8,772.6,84.1,796.8,94.3z"/>
<path d="M1087.1,93.1c-39.5,18.2-37.5,71,3.2,84.7c4.2,1.5,8,1.8,8,0.8c0-1.2-2.2-2.8-4.8-3.5c-8.5-2.2-15.2-16.5-15.2-32.5v-14.2
	h30.2h30.5l-1.5-10.2c-1.8-12.5-11.5-23.7-24-27.2C1101.3,87.6,1098.6,87.8,1087.1,93.1z M1113.6,95.6c4.5,3.5,5.8,7.2,5.8,16.7
	l0.2,12.2l-20.5,0.8c-19.5,0.8-20.8,0.5-20.8-4.5c0-8.2,6.5-21.5,12.8-26C1098.8,89.6,1106.3,89.8,1113.6,95.6z"/>
<path d="M1214.3,91.8c-4.2,2-10,6.8-13,10.5l-5.2,7.2l-0.2-9.5v-9.2l-15.5,0.2c-11.5,0.2-13.8,0.8-8.2,2l7.5,1.5v40v40l-7.5,1.5
	c-4,1,3.8,1.8,17.5,1.8c14.2-0.2,21.2-0.8,16.2-1.8l-8.8-1.5l0.2-30.2c0-26.8,0.8-31.2,5.8-39.2c5.5-9,14.8-13.7,20.2-10.5
	c1.5,1,2.2,5.7,2,10.7c-0.8,8.8-0.2,9.2,6.8,9.2c6.5,0,7.5-1,8.2-7.8C1241.6,93.8,1228.1,86.1,1214.3,91.8z"/>
<path d="M657.8,92.6c1.8,0.8,4,0.5,4.8-0.2c1-0.8-0.5-1.5-3.2-1.2C656.6,91.1,655.8,91.8,657.8,92.6z"/>
<path d="M569.8,162.8c-4.2,8.2-16.5,15-25.5,14c-3.2-0.2-6,0.5-6,1.5c0,3.2,17.8,0.5,24.2-3.8c5.2-3.5,15-18.8,12.2-18.8
	C574.1,155.8,571.8,159.1,569.8,162.8z"/>
<path d="M1128.3,166.1c-7.2,8.5-10.5,10.2-18,10.5c-5.2,0.2-9.5,1.2-9.5,2.5c0,3.2,16.8-0.2,24-4.8c5-3.2,15.8-18.8,13-18.5
	C1137.3,156.1,1133.1,160.6,1128.3,166.1z"/>
</svg>
