<?xml version="1.0" encoding="utf-8"?>
<!-- Generator: Adobe Illustrator 26.3.1, SVG Export Plug-In . SVG Version: 6.00 Build 0)  -->
<svg version="1.1" id="katman_1" xmlns="http://www.w3.org/2000/svg" xmlns:xlink="http://www.w3.org/1999/xlink" x="0px" y="0px"
	 viewBox="0 0 300 100" style="enable-background:new 0 0 300 100;" xml:space="preserve">
<path d="M88.1,36.4l1.1,0.1l-0.1,9.8L89,56.1l-1.1,0.2c-0.6,0.1,0.5,0.2,2.3,0.2c1.8,0,2.9,0,2.4-0.1l-1-0.1V46.1v-10l-2.4,0.1
	C87.9,36.2,87.4,36.3,88.1,36.4z"/>
<path d="M143.5,36.4l1.1,0.1l-0.1,9.8l-0.1,9.8l-1.1,0.2c-0.6,0.1,0.5,0.3,2.3,0.3c1.8,0,2.9-0.1,2.3-0.3l-1.1-0.2l-0.1-3.4
	c-0.1-4,0.3-5.6,1.8-7.1c0.8-0.8,0.9-1,0.3-0.7c-0.4,0.2-1,0.7-1.2,1.1c-0.2,0.4-0.5,0.7-0.7,0.7c-0.2,0-0.3-2.4-0.3-5.3v-5.3
	l-2.2,0.1C143.3,36.2,142.8,36.3,143.5,36.4z"/>
<path d="M179.4,36.4l1.1,0.2v9.7v9.7l-1.1,0.2c-0.6,0.1,0.5,0.2,2.3,0.2s2.9-0.1,2.3-0.2l-1.1-0.2l-0.1-10l-0.1-10l-2.2,0
	C178.9,36.2,178.6,36.3,179.4,36.4z"/>
<path d="M197.5,36.4l1.1,0.1v5v5l-0.7-0.9c-2.9-3.6-9.2-0.2-9.2,5c0,2.1,1.7,4.6,3.9,5.7c1.1,0.6,3.3,0.7,3.8,0.3
	c0.1-0.1-0.4-0.2-1-0.1c-2.9,0.3-3.8-1.2-3.8-6c0-3.8,0.6-5.4,2.4-5.9c1.7-0.5,3.7,0.6,4.3,2.4c0.7,2.2,0.4,6.9-0.6,8.4l-0.8,1.1
	l0.9-1l0.9-1l0.1,0.9c0.1,0.8,0.3,0.9,2.2,1c1.2,0.1,1.7,0,1.2,0l-1-0.1V46.1v-10l-2.4,0.1C197.4,36.2,196.8,36.3,197.5,36.4z"/>
<path d="M62,50.4v13.9h1.8c1.1,0,1.7-0.1,1.6-0.4c-0.1-0.2-0.8-0.4-1.6-0.4h-1.4l0.1-13.3L62.5,37l1.6-0.2l1.6-0.2l-1.8,0L62,36.5
	V50.4z"/>
<path d="M236.3,36.7l1.5,0.1v13.4v13.4h-1.2c-0.7,0-1.3,0.1-1.4,0.4c-0.1,0.2,0.5,0.4,1.6,0.4h1.8V50.4V36.5l-1.8,0.1
	C234.8,36.6,234.8,36.6,236.3,36.7z"/>
<path d="M75.8,44.3c-0.5,0.2-1.2,0.8-1.7,1.3l-0.8,1v-1.2v-1.1l-2.2,0c-1.5,0-1.9,0.1-1.2,0.3l1,0.2v9.5v9.5L69.7,64
	c-0.6,0.1,0.4,0.2,2.4,0.2c1.9,0,3-0.1,2.4-0.1L73.3,64v-4.8v-4.8l1,1.1c0.6,0.6,1.2,1.1,1.3,1.1c2.3,0.4,4.2-0.3,5.8-2
	c1.8-1.9,2.2-4.8,1-7.1c-0.8-1.6-1.6-2.4-3.3-3.1C77.7,43.8,77,43.8,75.8,44.3z M79.5,45.3c0.6,0.6,0.7,1.2,0.7,5.1
	c0,4.1-0.1,4.4-0.8,5.2c-1.7,1.7-4.6,0.9-5.5-1.4c-0.7-1.8-0.7-5.6,0-7.4C74.8,44.4,77.7,43.6,79.5,45.3z"/>
<path d="M100.2,44.4c-2.3,1-3,3.5-1,3.5c1,0,1.1-0.1,1-1.3c-0.1-1,0.1-1.4,0.7-1.8c1.8-1.3,3.8-0.1,3.8,2.2c0,1.9-0.7,2.7-3.4,3.6
	c-3.1,1-4,1.8-4,3.6c0,1.9,1.3,2.7,4.6,2.5c0.5,0,1.3-0.5,1.8-0.9l0.8-0.8l0.8,0.8c0.5,0.7,1.1,0.9,2.1,0.9c0.7,0,1.5-0.1,1.7-0.4
	c0.2-0.2,0-0.3-0.6-0.1c-0.6,0.1-1.1,0-1.3-0.3c-0.2-0.3-0.3-2.5-0.3-4.9c0-5-0.3-5.7-2.3-6.6C103,43.8,101.7,43.8,100.2,44.4z
	 M104.6,52.3c-0.3,2.9-1.2,4.1-3,3.9c-2.2-0.2-2.9-2.9-1.1-4.4c0.6-0.6,3.3-1.7,4-1.8C104.7,49.9,104.7,50.9,104.6,52.3z"/>
<path d="M117,44.2c-3,1-4.6,3.5-4.4,6.9c0.1,1.9,0.3,2.4,1.2,3.4c0.6,0.6,1.5,1.3,2,1.6c1.2,0.7,3.6,0.8,4.9,0.4
	c1-0.4,2.8-2.1,2.8-2.9c0-0.3-0.3,0.1-0.7,0.7c-0.4,0.6-1,1.3-1.4,1.5c-1,0.6-3.1,0.7-4.1,0.3c-1.9-0.9-2.8-5.3-1.8-8.9
	c0.5-1.8,0.7-2.1,1.9-2.6c0.9-0.4,1.6-0.4,2.4-0.2c1,0.3,1.1,0.4,1,2c0,1.5,0,1.7,0.8,1.9c2.1,0.5,2.4-2,0.5-3.4
	C120.9,44.1,118.4,43.8,117,44.2z"/>
<path d="M131.7,44.4c-2.9,1.1-4.8,4.1-4.3,7c0.4,2.8,1.7,4.3,4.4,5.2c1.3,0.4,1.6,0.1,0.4-0.5c-1.2-0.5-2-2.5-2-4.7v-1.8l4.3-0.1
	l4.3-0.1l-0.1-1.1C138.4,45.3,134.8,43.3,131.7,44.4z M135.3,45.1c0.7,0.7,0.9,1.2,0.8,2.4l-0.1,1.5l-3,0.1l-2.9,0.1l0.3-1.3
	C130.9,44.6,133.4,43.3,135.3,45.1z"/>
<path d="M151.3,44.1c0,0.1,0.4,0.4,0.9,0.5c1.3,0.5,1.6,1.8,1.5,6.8l-0.1,4.6l-1.1,0.2c-0.6,0.1,0.5,0.2,2.3,0.2
	c1.8,0,2.9-0.1,2.3-0.2l-1.1-0.2l-0.2-5c-0.1-4.2-0.3-5.1-0.8-5.7C154.3,44.5,151.3,43.5,151.3,44.1z"/>
<path d="M165.4,44.8c-2.5,1.2-3.7,3.1-3.7,5.6c0,4.3,4.7,7.6,8.6,5.9c5.8-2.4,5.6-9.9-0.3-11.9C168,43.7,167.6,43.7,165.4,44.8z
	 M169.8,44.7c1.5,0.6,2.1,2.3,2.1,5.9c0,4.3-1.2,6-4.1,5.8c-2.5-0.2-3.4-1.9-3.4-6.1C164.3,45.4,166.4,43.3,169.8,44.7z"/>
<path d="M210.8,44.6c-5.6,2.6-5.3,10,0.5,12c0.6,0.2,1.1,0.3,1.1,0.1c0-0.2-0.3-0.4-0.7-0.5c-1.2-0.3-2.1-2.3-2.1-4.6v-2h4.3h4.3
	l-0.2-1.4c-0.3-1.8-1.6-3.3-3.4-3.8C212.8,43.8,212.4,43.8,210.8,44.6z M214.5,44.9c0.6,0.5,0.8,1,0.8,2.4l0,1.7l-2.9,0.1
	c-2.8,0.1-2.9,0.1-2.9-0.6c0-1.2,0.9-3,1.8-3.7C212.4,44.1,213.5,44.1,214.5,44.9z"/>
<path d="M228.7,44.4c-0.6,0.3-1.4,1-1.8,1.5l-0.7,1l0-1.3v-1.3l-2.2,0c-1.6,0-1.9,0.1-1.2,0.3l1.1,0.2v5.6v5.6l-1.1,0.2
	c-0.6,0.1,0.5,0.3,2.5,0.3c2,0,3-0.1,2.3-0.3l-1.2-0.2l0-4.3c0-3.8,0.1-4.4,0.8-5.5c0.8-1.3,2.1-1.9,2.9-1.5
	c0.2,0.1,0.3,0.8,0.3,1.5c-0.1,1.2,0,1.3,1,1.3c0.9,0,1.1-0.1,1.2-1.1C232.6,44.7,230.7,43.6,228.7,44.4z"/>
<path d="M150.2,44.5c0.3,0.1,0.6,0.1,0.7,0c0.1-0.1-0.1-0.2-0.5-0.2C150,44.3,149.9,44.4,150.2,44.5z"/>
<path d="M137.7,54.4c-0.6,1.2-2.3,2.1-3.6,2c-0.5,0-0.8,0.1-0.8,0.2c0,0.5,2.5,0.1,3.4-0.5c0.7-0.5,2.1-2.7,1.7-2.7
	C138.3,53.4,138,53.9,137.7,54.4z"/>
<path d="M216.6,54.9c-1,1.2-1.5,1.4-2.5,1.5c-0.7,0-1.3,0.2-1.3,0.4c0,0.5,2.4,0,3.4-0.7c0.7-0.5,2.2-2.7,1.8-2.6
	C217.9,53.5,217.3,54.1,216.6,54.9z"/>
</svg>
