<?xml version="1.0" encoding="utf-8"?>
<!-- Generator: Adobe Illustrator 26.3.1, SVG Export Plug-In . SVG Version: 6.00 Build 0)  -->
<svg version="1.1" id="katman_1" xmlns="http://www.w3.org/2000/svg" xmlns:xlink="http://www.w3.org/1999/xlink" x="0px" y="0px"
	 viewBox="0 0 300 100" style="enable-background:new 0 0 300 100;" xml:space="preserve">
<style type="text/css">
	.st0{fill-rule:evenodd;clip-rule:evenodd;fill:#29A057;}
</style>
<path class="st0" d="M136.8,55.4h8c0.2,2.1,1.1,3.8,4.7,3.8c2.4,0,3.8-1.2,3.8-2.9c0-1.8-1.1-2.3-4.7-2.8c-8.3-1-11.1-3.4-11.1-9.3
	c0-5.2,4.3-9.1,11.4-9.1c7.1,0,11,2.9,11.6,9.1h-7.8c-0.3-2.1-1.5-3.1-3.8-3.1c-2.2,0-3.4,1-3.4,2.5c0,1.6,0.9,2.3,4.6,2.8
	c7.4,0.8,11.3,2.7,11.3,9c0,5.3-4.3,9.7-11.8,9.7C141.3,65.2,137.1,61.7,136.8,55.4z M110.7,52.7V35.5h8.4v16.9c0,4.1,1,6.1,4.6,6.1
	c3.5,0,4.6-1.9,4.6-6.2V35.4h8.5v17.2c0,8.4-5,12.4-13.1,12.4C115.4,65,110.7,60.9,110.7,52.7z M170.3,35.7h-9.1l9.7,29.1h9.6
	l9.6-29.1h-7.9l-6,20.4L170.3,35.7z"/>
</svg>
