<?xml version="1.0" encoding="UTF-8"?>
<svg id="katman_1" data-name="katman 1" xmlns="http://www.w3.org/2000/svg" width="300" height="100" viewBox="0 0 300 100">
  <defs>
    <style>
      .cls-1 {
        fill: #eb3448;
      }
    </style>
  </defs>
  <path d="M126.51,69.08v8.11h-1.23v-5.55l-2.29,5.55h-.85l-2.3-5.55v5.55h-1.23v-8.11h1.33l2.64,6.36,2.63-6.36h1.32Zm7.23,6.45h-3.15l-.54,1.66h-1.29l2.69-8.12h1.43l2.69,8.12h-1.3l-.54-1.66h0Zm-.35-1.09l-1.22-3.77-1.23,3.77h2.45Zm8.34,2.74l-1.73-3.24h-.94v3.24h-1.23v-8.11h2.59c.58,0,1.06,.11,1.46,.33,.4,.22,.7,.51,.9,.87,.2,.36,.3,.77,.3,1.23,0,.53-.15,1.01-.43,1.45-.28,.43-.72,.72-1.31,.87l1.86,3.36h-1.47Zm-2.67-4.31h1.36c.46,0,.81-.12,1.04-.37,.24-.25,.36-.58,.36-1s-.12-.75-.35-.98c-.23-.24-.58-.36-1.05-.36h-1.36v2.72h0Zm7.91-3.8v8.11h-1.23v-8.11h1.23Zm8.14,2.33c-.19-.4-.46-.71-.81-.91-.35-.21-.75-.32-1.2-.32-.5,0-.94,.12-1.33,.36-.39,.24-.69,.58-.92,1.03-.22,.44-.32,.96-.32,1.54s.11,1.1,.32,1.55c.22,.44,.53,.79,.92,1.03,.39,.24,.83,.36,1.33,.36,.67,0,1.21-.2,1.63-.61s.67-.95,.77-1.64h-2.82v-1.06h4.14v1.04c-.08,.63-.29,1.21-.63,1.74-.33,.53-.77,.95-1.31,1.27-.53,.31-1.13,.47-1.78,.47-.71,0-1.35-.18-1.94-.52-.58-.36-1.05-.85-1.4-1.48-.34-.63-.51-1.34-.51-2.14s.17-1.51,.51-2.14c.35-.63,.81-1.12,1.4-1.47,.59-.36,1.23-.54,1.94-.54,.8,0,1.51,.21,2.13,.64,.63,.42,1.08,1.02,1.36,1.8h-1.48Zm7.43,5.87c-.7,0-1.34-.18-1.94-.52-.58-.36-1.05-.85-1.4-1.48-.34-.64-.51-1.35-.51-2.15s.17-1.51,.51-2.14c.35-.63,.81-1.12,1.4-1.47,.59-.36,1.23-.54,1.94-.54s1.35,.18,1.94,.54c.59,.35,1.06,.84,1.4,1.47,.34,.63,.51,1.34,.51,2.14s-.17,1.51-.51,2.15c-.34,.63-.8,1.12-1.4,1.48-.58,.35-1.23,.52-1.94,.52Zm0-1.16c.5,0,.94-.12,1.33-.36,.39-.25,.69-.6,.91-1.05,.22-.46,.33-.99,.33-1.59s-.11-1.12-.33-1.57c-.22-.45-.52-.8-.91-1.04s-.83-.36-1.33-.36-.94,.12-1.33,.36c-.39,.24-.69,.59-.92,1.04-.22,.45-.32,.98-.32,1.57s.11,1.13,.32,1.59c.22,.45,.53,.8,.92,1.05,.39,.24,.83,.36,1.33,.36Zm7.36,0h2.54v1.07h-3.77v-8.11h1.23v7.03h0Zm7.11-7.03c.8,0,1.5,.17,2.1,.5,.61,.33,1.07,.8,1.4,1.42,.33,.61,.5,1.34,.5,2.16s-.17,1.54-.5,2.15c-.32,.61-.79,1.07-1.4,1.4-.6,.32-1.3,.48-2.1,.48h-2.45v-8.11h2.45Zm0,7.02c.88,0,1.55-.26,2.02-.77,.47-.51,.7-1.24,.7-2.17s-.23-1.67-.7-2.21c-.47-.53-1.14-.79-2.02-.79h-1.22v5.94h1.22Z"/>
  <path class="cls-1" d="M151.08,58.85c.81-.35,1.55-.85,2.22-1.48h0l.05-.05h0l.04-.05h0l.04-.05,.02-.02,.1-.1,.02-.02,.03-.03,.02-.02,.03-.03h.01c.6-.64,1.14-1.37,1.61-2.15l.32-.02c.28-.02,.55-.07,.8-.17-.19,.37-.4,.72-.63,1.07-.25,.39,.15,.87,.57,.69l5.47-2.22c.69-.28,1.19-.78,1.47-1.47,.33-.81,.49-1.69,.52-2.6h0v-.53c-.02-.87-.16-1.76-.38-2.65l.22-.24c.19-.21,.34-.44,.45-.68,.12,.39,.23,.79,.32,1.19,.1,.45,.72,.51,.9,.08l2.29-5.42c.29-.69,.29-1.39,0-2.08-.35-.81-.86-1.54-1.48-2.21h0l-.05-.05h0l-.04-.05h-.01l-.04-.05-.02-.02-.1-.1-.02-.02-.03-.03-.02-.02-.03-.03h-.01c-.63-.61-1.37-1.15-2.15-1.62l-.02-.32c-.02-.28-.07-.55-.16-.8,.37,.19,.72,.39,1.07,.62,.39,.25,.87-.14,.7-.57l-2.22-5.44c-.28-.69-.78-1.19-1.48-1.47-.82-.33-1.7-.49-2.62-.52h-.53c-.88,.02-1.77,.15-2.66,.38l-.24-.21c-.21-.19-.44-.34-.68-.45,.39-.12,.79-.23,1.2-.31,.46-.1,.51-.72,.09-.9l-5.44-2.28c-.69-.29-1.39-.29-2.09,0-.81,.35-1.55,.85-2.22,1.48h0l-.05,.05h0l-.04,.05h0l-.04,.05-.02,.02-.1,.1-.02,.02-.03,.03-.02,.02-.03,.03v.02c-.62,.63-1.15,1.36-1.62,2.14l-.32,.02c-.28,.02-.55,.07-.8,.17,.19-.37,.4-.72,.63-1.07,.25-.39-.15-.87-.57-.69l-5.47,2.22c-.69,.28-1.19,.78-1.47,1.47-.33,.81-.49,1.69-.52,2.6h0v.52c.02,.87,.16,1.76,.38,2.65l-.22,.24c-.19,.21-.34,.44-.45,.68-.12-.39-.23-.79-.32-1.19-.1-.45-.72-.51-.9-.08l-2.29,5.42c-.29,.69-.29,1.39,0,2.08,.35,.81,.86,1.54,1.48,2.21h0l.05,.05h0l.04,.05h.01l.04,.05,.02,.02,.1,.1,.02,.02,.03,.03,.02,.02,.03,.03h.01c.63,.61,1.37,1.15,2.15,1.62l.02,.32c.02,.28,.07,.55,.16,.8-.37-.19-.72-.39-1.07-.62-.39-.25-.87,.15-.7,.57l2.22,5.44c.28,.69,.78,1.19,1.48,1.47,.82,.33,1.7,.49,2.62,.52h.53c.88-.02,1.77-.15,2.66-.38l.24,.21c.21,.19,.44,.34,.69,.45-.39,.12-.79,.23-1.2,.32-.46,.1-.51,.72-.09,.9l5.44,2.28c.69,.29,1.4,.29,2.09,0h0Zm7.26-10.71v.14c-.02,1.08-.16,2.07-.44,2.93v.02l-.08,.21v.02l-.06,.14c-.17,.45-.38,.85-.63,1.22-.12,.18-.25,.36-.39,.52-.26,.3-.57,.48-.93,.55-.08,.02-.18,.03-.27,.04l-1.82,.1c-.43,.02-.81-.19-1.03-.56-.22-.38-.2-.83,.06-1.2l.02-.02s.01-.02,.02-.02l.11-.16v-.02l.09-.13v-.02l.05-.06,.02-.02,.02-.04s0-.02,.02-.02l.04-.06c.5-.88,.85-1.87,1.07-3.02,.02-.09,.03-.18,.05-.26l.02-.16v-.03s.02-.06,.02-.09c.08-.54,.13-1.12,.15-1.73,.02-.69,.56-1.25,1.25-1.3l.93-.06h.05c.27,0,.51,.09,.73,.29,.63,.58,.94,1.87,.96,2.54v.25h0Zm4.51-5.29l.04,.08c.2,.44,.34,.88,.43,1.31,.04,.21,.07,.42,.09,.63,.03,.39-.06,.74-.27,1.05-.05,.07-.1,.15-.16,.21l-1.22,1.35c-.29,.32-.71,.44-1.12,.33-.42-.12-.73-.45-.81-.88v-.05s0-.01-.01-.02v-.05s0-.02-.01-.02v-.05s-.01-.02-.02-.02l-.05-.2s0-.02,0-.03l-.04-.14v-.02l-.02-.07c-.27-.98-.73-1.92-1.39-2.88-.05-.08-.11-.15-.16-.22l-.09-.12-.02-.03-.05-.07c-.33-.44-.71-.88-1.13-1.33-.48-.5-.49-1.27-.04-1.8,0,0,.01-.01,.02-.02l.59-.68s.03-.02,.04-.04c.19-.19,.42-.29,.72-.31,.86-.04,1.99,.66,2.49,1.13l.08,.07,.02,.02,.19,.19c.76,.77,1.35,1.57,1.77,2.37v.02l.13,.25s0,.02,.01,.03h0Zm-6.14-10.23h.3c1.08,.02,2.08,.16,2.94,.43h.02l.21,.08h.02l.14,.06h0c.45,.17,.85,.38,1.21,.62,.18,.12,.36,.25,.52,.39,.3,.26,.48,.57,.56,.93,.02,.08,.03,.17,.04,.27l.1,1.81c.02,.43-.19,.81-.56,1.02-.38,.22-.83,.19-1.21-.06h-.02l-.03-.03-.04-.02h-.02l-.06-.05h0l-.04-.03-.03-.02-.11-.07-.02-.02-.07-.04h-.02l-.04-.03s-.02-.01-.02-.01l-.07-.04c-.89-.5-1.88-.85-3.03-1.06-.09-.02-.18-.03-.26-.05l-.16-.02s-.02,0-.03,0c-.03,0-.06,0-.09-.01-.54-.08-1.13-.13-1.74-.15-.69-.02-1.26-.55-1.3-1.23l-.07-.93v-.05c0-.27,.09-.5,.29-.72,.58-.63,1.87-.94,2.56-.95h.11Zm-8.14-2.3l.08-.08s0,0,.02-.01l.08-.08h.01l.09-.1c.78-.75,1.58-1.35,2.4-1.77l.25-.12s.02,0,.02-.01l.08-.04c.44-.2,.88-.34,1.31-.43,.21-.04,.42-.07,.63-.09,.4-.03,.74,.06,1.06,.27,.07,.05,.15,.1,.22,.16l1.36,1.21c.32,.29,.45,.7,.33,1.12-.12,.42-.45,.73-.89,.81h-.05l-.02,.02h-.04s-.02,0-.03,.01h-.04s-.02,.01-.03,.02l-.21,.05h-.02l-.13,.04h-.02l-.07,.02c-.98,.27-1.93,.72-2.88,1.37h-.02c-.08,.06-.15,.12-.22,.16h-.02l-.02,.02-.1,.07s-.02,0-.02,.02l-.07,.05c-.44,.33-.89,.7-1.33,1.12-.51,.47-1.28,.49-1.8,.04l-.7-.61s-.02-.03-.04-.04c-.19-.19-.3-.42-.31-.71-.04-.85,.66-1.98,1.13-2.48h0Zm-1.39,3.92l.71,.61c.42,.36,.94,.55,1.47,.55,.56,0,1.12-.21,1.56-.62,.42-.39,.84-.75,1.25-1.05,.2,.18,.43,.32,.68,.41,0,.09,0,.17,0,.26l.07,.93c.08,1.15,1.02,2.05,2.19,2.08,.57,.02,1.12,.06,1.63,.14,.02,.27,.08,.52,.19,.77-.07,.06-.13,.12-.19,.19l-.61,.7s-.01,.01-.02,.02c-.75,.87-.72,2.16,.08,3,.39,.42,.74,.83,1.05,1.24-.18,.2-.32,.43-.41,.67-.09,0-.18,0-.26,0l-.94,.07c-1.15,.08-2.05,1.02-2.09,2.18-.02,.57-.06,1.11-.14,1.62-.27,.02-.53,.08-.77,.19-.06-.07-.12-.13-.19-.19l-.7-.61s-.01,0-.02-.02c-.87-.75-2.17-.72-3.02,.08-.42,.39-.83,.74-1.25,1.05-.2-.18-.43-.32-.68-.41,0-.09,0-.17,0-.26l-.07-.93c-.08-1.15-1.02-2.05-2.19-2.08-.57-.02-1.12-.06-1.63-.14-.02-.27-.08-.52-.19-.77,.07-.06,.13-.12,.19-.19l.61-.7s.02-.02,.02-.02c.74-.87,.71-2.15-.08-2.99-.39-.42-.75-.83-1.05-1.24,.18-.2,.32-.43,.41-.67,.04,0,.08,0,.12,0,.05,0,.09,0,.14,0l.94-.07c1.15-.08,2.05-1.02,2.09-2.18,.02-.57,.06-1.11,.14-1.62,.27-.02,.53-.08,.77-.19,.06,.07,.12,.13,.19,.19h0Zm-5.92-.15v-.14c.02-1.08,.16-2.07,.44-2.93v-.02l.08-.2v-.03l.06-.14c.17-.45,.38-.85,.62-1.22,.12-.18,.25-.36,.39-.52,.26-.3,.57-.48,.93-.55,.08-.02,.18-.03,.27-.04l1.82-.1c.43-.02,.81,.19,1.03,.56,.22,.38,.2,.83-.06,1.2l-.02,.02s-.01,.02-.02,.02l-.03,.04v.02l-.05,.06h0l-.03,.05v.02l-.05,.06s0,.01-.01,.02l-.05,.08v.02l-.02,.02s0,.01-.01,.02l-.02,.04v.02l-.05,.06c-.5,.88-.85,1.87-1.07,3.02-.02,.09-.03,.18-.05,.27l-.02,.15s0,.02,0,.03c0,.03,0,.06-.01,.09-.08,.54-.13,1.12-.15,1.73-.02,.69-.56,1.25-1.24,1.3l-.94,.07h-.05c-.27,0-.51-.09-.73-.29-.63-.58-.94-1.87-.96-2.55v-.25h0Zm-4.5,5.3l-.02-.03h0l-.02-.05h0c-.2-.45-.34-.88-.42-1.31-.04-.21-.07-.42-.09-.63-.03-.39,.06-.74,.27-1.05,.05-.07,.1-.15,.16-.22l1.22-1.35c.29-.32,.71-.44,1.12-.33,.42,.12,.73,.45,.81,.88v.05s0,0,.01,.02v.05s0,.01,.01,.02v.05s.01,.02,.02,.02l.05,.2s0,.02,0,.03l.03,.13v.04l.03,.07c.27,.98,.73,1.92,1.38,2.88v.02c.06,.07,.11,.15,.16,.21l.09,.12,.02,.02,.05,.07c.33,.44,.71,.88,1.13,1.33,.48,.5,.49,1.27,.04,1.8l-.02,.02-.59,.68s-.03,.02-.04,.04c-.19,.19-.42,.29-.72,.31-.86,.03-1.99-.66-2.49-1.13l-.08-.08h-.01l-.19-.2c-.76-.77-1.35-1.57-1.77-2.38v-.02l-.05-.08h0l-.08-.17s0-.02-.01-.02h0Zm6.14,10.23h-.29c-1.08-.02-2.08-.16-2.94-.43h-.02l-.21-.08h-.02l-.14-.06c-.45-.17-.86-.38-1.22-.62-.18-.12-.36-.25-.52-.39-.3-.26-.48-.57-.56-.93-.02-.08-.03-.17-.04-.27l-.1-1.81c-.02-.43,.19-.81,.56-1.02,.38-.22,.83-.19,1.2,.05l.02,.02s.02,.02,.04,.02l.07,.05h.02l.03,.03h0l.05,.03,.02,.02,.11,.06,.02,.02,.07,.04h.02l.04,.03h.02l.07,.05c.89,.5,1.88,.85,3.03,1.06,.09,.02,.18,.03,.26,.05l.16,.02s.02,0,.03,0c.03,0,.06,0,.09,.01,.54,.08,1.13,.13,1.74,.15,.69,.02,1.26,.55,1.3,1.23l.07,.93v.05c0,.27-.09,.5-.29,.72-.58,.63-1.87,.94-2.56,.95h-.11Zm5.47,4.34h-.02l-.25,.13s-.02,0-.02,.01l-.03,.02h0l-.04,.02c-.44,.2-.88,.34-1.31,.43-.21,.04-.42,.07-.63,.09-.39,.03-.74-.06-1.06-.27-.07-.05-.15-.1-.22-.16l-1.36-1.21c-.32-.29-.45-.7-.33-1.12,.12-.42,.45-.73,.91-.81h.02s.02,0,.03-.01h.04s.02,0,.02,0h.06s.02-.02,.03-.02l.21-.05h.02l.14-.04h.02l.07-.02c.98-.27,1.93-.72,2.89-1.38,.08-.05,.15-.11,.23-.16l.12-.08s.02-.01,.03-.02l.07-.05c.44-.33,.89-.7,1.33-1.12,.51-.47,1.28-.49,1.8-.04,0,0,0,0,.02,.01l.69,.59h0s.02,.03,.04,.04c.19,.19,.3,.42,.31,.71,.04,.85-.66,1.98-1.14,2.48l-.08,.08s0,0-.01,.01l-.19,.19c-.78,.75-1.58,1.35-2.39,1.76h-.01Z"/>
</svg>