<?xml version="1.0" encoding="UTF-8"?><svg id="katman_1" xmlns="http://www.w3.org/2000/svg" viewBox="0 0 205.66 178.3"><defs><style>.cls-1{fill:#eb3448;}</style></defs><path d="M26.08,151.31v26.72h-4.06v-18.3l-7.55,18.3h-2.81l-7.59-18.3v18.3H0v-26.72H4.38l8.69,20.95,8.66-20.95h4.35Zm23.83,21.26h-10.37l-1.78,5.46h-4.24l8.87-26.76h4.7l8.87,26.76h-4.28l-1.78-5.46Zm-1.14-3.58l-4.03-12.42-4.06,12.42h8.09Zm27.48,9.03l-5.7-10.69h-3.1v10.69h-4.06v-26.72h8.55c1.9,0,3.5,.36,4.81,1.08,1.33,.72,2.32,1.68,2.96,2.88,.67,1.2,1,2.55,1,4.04,0,1.74-.48,3.33-1.43,4.77-.93,1.41-2.36,2.37-4.31,2.88l6.13,11.07h-4.85Zm-8.8-14.19h4.49c1.52,0,2.66-.41,3.42-1.23,.78-.82,1.18-1.92,1.18-3.31s-.38-2.46-1.14-3.23c-.76-.79-1.91-1.19-3.46-1.19h-4.49v8.96Zm26.07-12.53v26.72h-4.06v-26.72h4.06Zm26.82,7.69c-.64-1.33-1.53-2.33-2.67-3-1.14-.69-2.46-1.04-3.95-1.04-1.64,0-3.1,.4-4.38,1.19-1.28,.79-2.29,1.92-3.03,3.38-.71,1.46-1.07,3.15-1.07,5.07s.36,3.63,1.07,5.11c.74,1.46,1.75,2.59,3.03,3.38,1.28,.79,2.74,1.19,4.38,1.19,2.21,0,4-.67,5.38-2s2.22-3.14,2.53-5.42h-9.3v-3.5h13.65v3.42c-.26,2.08-.95,3.99-2.07,5.73-1.09,1.74-2.53,3.14-4.31,4.19-1.76,1.03-3.72,1.54-5.88,1.54-2.33,0-4.45-.58-6.38-1.73-1.92-1.18-3.46-2.81-4.6-4.88-1.12-2.08-1.67-4.42-1.67-7.04s.56-4.96,1.67-7.04c1.14-2.08,2.67-3.69,4.6-4.84,1.95-1.18,4.07-1.77,6.38-1.77,2.64,0,4.98,.7,7.02,2.11,2.07,1.38,3.56,3.36,4.49,5.92h-4.88Zm24.49,19.3c-2.3,0-4.43-.58-6.38-1.73-1.92-1.18-3.46-2.81-4.6-4.88-1.12-2.1-1.67-4.46-1.67-7.07s.56-4.96,1.67-7.04c1.14-2.08,2.67-3.69,4.6-4.84,1.95-1.18,4.07-1.77,6.38-1.77s4.45,.59,6.38,1.77c1.95,1.15,3.48,2.77,4.6,4.84,1.12,2.08,1.67,4.42,1.67,7.04s-.56,4.97-1.67,7.07c-1.12,2.08-2.65,3.7-4.6,4.88-1.92,1.15-4.05,1.73-6.38,1.73Zm0-3.81c1.64,0,3.1-.4,4.38-1.19,1.28-.82,2.28-1.97,2.99-3.46,.74-1.51,1.1-3.25,1.1-5.23s-.37-3.7-1.1-5.19c-.71-1.49-1.71-2.63-2.99-3.42-1.28-.79-2.74-1.19-4.38-1.19s-3.1,.4-4.38,1.19c-1.28,.79-2.29,1.93-3.03,3.42-.71,1.49-1.07,3.22-1.07,5.19s.36,3.72,1.07,5.23c.74,1.49,1.75,2.64,3.03,3.46,1.28,.79,2.74,1.19,4.38,1.19Zm24.27,0h8.37v3.54h-12.43v-26.72h4.06v23.18Zm23.42-23.18c2.64,0,4.94,.55,6.91,1.65,2,1.08,3.53,2.64,4.6,4.69,1.09,2.02,1.64,4.4,1.64,7.11s-.55,5.07-1.64,7.07c-1.07,2-2.6,3.54-4.6,4.61-1.97,1.05-4.28,1.58-6.91,1.58h-8.09v-26.72h8.09Zm0,23.14c2.9,0,5.12-.85,6.66-2.54,1.54-1.69,2.32-4.08,2.32-7.15s-.77-5.52-2.32-7.27c-1.54-1.74-3.76-2.61-6.66-2.61h-4.03v19.57h4.03Z"/><path class="cls-1" d="M107.06,117.58c2.67-1.14,5.11-2.81,7.3-4.87h0l.16-.15,.02-.02,.14-.13,.03-.04,.12-.12,.05-.05,.34-.34,.07-.07,.09-.1,.06-.06,.11-.11,.04-.04c1.99-2.08,3.76-4.48,5.31-7.05l1.06-.06c.93-.05,1.81-.24,2.64-.55-.62,1.21-1.31,2.37-2.06,3.52-.83,1.28,.48,2.86,1.89,2.29l18.02-7.3c2.29-.93,3.93-2.56,4.85-4.85,1.09-2.68,1.62-5.58,1.71-8.58h0v-1.74c-.07-2.87-.52-5.81-1.24-8.72l.71-.79c.62-.7,1.11-1.45,1.48-2.24,.41,1.29,.75,2.6,1.04,3.93,.32,1.49,2.37,1.69,2.96,.28l7.56-17.85c.96-2.27,.95-4.58-.01-6.84-1.14-2.66-2.83-5.09-4.89-7.27h0l-.15-.16-.02-.02-.13-.14-.04-.03-.12-.12-.05-.05-.34-.34-.08-.07-.09-.09-.06-.06-.11-.11-.04-.04c-2.09-1.98-4.5-3.74-7.08-5.29l-.06-1.05c-.05-.93-.24-1.81-.54-2.62,1.21,.62,2.38,1.3,3.52,2.04,1.28,.83,2.87-.47,2.3-1.89l-7.33-17.94c-.93-2.28-2.57-3.91-4.87-4.83-2.69-1.08-5.61-1.61-8.62-1.7h-1.74c-2.89,.07-5.84,.51-8.76,1.24l-.79-.7c-.7-.62-1.45-1.11-2.25-1.47,1.29-.41,2.61-.75,3.94-1.03,1.5-.32,1.69-2.36,.29-2.95L105.47,.71c-2.28-.95-4.59-.95-6.88,.01-2.67,1.14-5.11,2.81-7.3,4.87h0l-.16,.15-.02,.02-.14,.13-.03,.04-.12,.12-.05,.05-.34,.34-.07,.08-.1,.09-.06,.06-.11,.11-.04,.05c-1.99,2.08-3.76,4.47-5.31,7.04l-1.06,.06c-.93,.05-1.81,.24-2.64,.55,.62-1.21,1.31-2.37,2.06-3.52,.83-1.28-.48-2.86-1.89-2.29l-18.02,7.3c-2.29,.93-3.93,2.56-4.85,4.85-1.09,2.68-1.62,5.58-1.71,8.58h0v1.73c.07,2.87,.52,5.81,1.24,8.72l-.71,.79c-.62,.7-1.11,1.44-1.48,2.24-.41-1.29-.75-2.6-1.04-3.93-.32-1.49-2.37-1.69-2.96-.28l-7.56,17.85c-.96,2.27-.96,4.58,.01,6.85,1.14,2.66,2.83,5.09,4.89,7.27h0l.15,.16,.02,.02,.13,.14,.04,.03,.12,.12,.05,.05,.34,.34,.07,.07,.09,.1,.06,.06,.11,.11,.04,.04c2.09,1.98,4.5,3.74,7.08,5.29l.06,1.05c.05,.93,.24,1.81,.54,2.62-1.21-.62-2.38-1.3-3.52-2.04-1.28-.83-2.87,.48-2.3,1.89l7.33,17.94c.93,2.28,2.57,3.91,4.87,4.83,2.69,1.08,5.61,1.61,8.62,1.7h1.74c2.89-.07,5.84-.51,8.76-1.24l.79,.7c.7,.62,1.46,1.11,2.26,1.47-1.3,.41-2.61,.75-3.95,1.04-1.5,.32-1.69,2.36-.29,2.95l17.93,7.53c2.28,.96,4.6,.95,6.88-.01Zm23.92-35.26v.28s0,.08,0,.09v.09c-.05,3.56-.54,6.81-1.44,9.64l-.02,.07-.24,.7s-.02,.05-.03,.07l-.16,.45c-.56,1.48-1.26,2.81-2.06,4.01-.4,.6-.82,1.18-1.27,1.7-.86,.99-1.87,1.58-3.08,1.82-.28,.06-.58,.1-.88,.12l-6,.33c-1.41,.08-2.68-.61-3.38-1.83-.71-1.26-.65-2.73,.19-3.95l.05-.07s.04-.06,.06-.08l.35-.53s.03-.04,.04-.06l.26-.42s.03-.05,.03-.05l.12-.19s.04-.06,.05-.07l.07-.13s.03-.06,.05-.08l.12-.21c1.65-2.91,2.8-6.15,3.51-9.95,.05-.29,.11-.59,.15-.85l.08-.52s.01-.06,.02-.1c.01-.1,.03-.2,.04-.3,.26-1.78,.42-3.7,.48-5.7,.07-2.28,1.83-4.12,4.11-4.28l3.06-.21c.06,0,.12,0,.18,0,.88-.02,1.67,.29,2.39,.96,2.08,1.9,3.11,6.15,3.15,8.38v.38s0,.05,0,.07v.39h1.51l-1.51,.03Zm14.85-17.48l.12,.27c.66,1.45,1.13,2.89,1.42,4.31,.14,.69,.24,1.38,.29,2.06,.09,1.3-.2,2.44-.89,3.46-.16,.24-.34,.48-.54,.7l-4.01,4.46c-.95,1.06-2.33,1.46-3.69,1.08-1.4-.39-2.4-1.48-2.67-2.91l-.03-.15s0-.04-.01-.06l-.03-.15s0-.05-.01-.07l-.04-.17s0-.05-.01-.07l-.15-.66s-.02-.08-.02-.1l-.12-.47s-.01-.04-.02-.06l-.06-.23c-.9-3.22-2.39-6.32-4.58-9.5-.17-.25-.35-.5-.52-.73l-.3-.41s-.04-.06-.06-.09c-.06-.08-.12-.16-.18-.24-1.09-1.44-2.33-2.91-3.71-4.37-1.57-1.66-1.63-4.19-.13-5.92,.02-.02,.04-.04,.05-.06l1.96-2.24s.09-.08,.13-.12c.61-.63,1.38-.97,2.36-1.02,2.82-.12,6.56,2.16,8.19,3.73l.25,.24s.04,.04,.06,.06l.63,.62c2.49,2.55,4.46,5.19,5.83,7.82l.04,.08,.4,.81s.03,.05,.04,.09Zm-20.25-33.72s.06,0,.1,0h.38s.05,0,.07,0h.43c3.57,.05,6.84,.54,9.69,1.43,.01,0,.07,.02,.08,.03l.69,.23s.05,.02,.07,.03l.47,.17h.02c1.48,.56,2.8,1.25,3.99,2.04,.6,.4,1.18,.81,1.71,1.27,.99,.85,1.59,1.87,1.83,3.07,.06,.28,.1,.57,.12,.88l.33,5.97c.08,1.42-.61,2.67-1.84,3.37-1.26,.71-2.74,.64-3.98-.2l-.05-.03s-.06-.04-.09-.06l-.12-.08-.05-.04-.21-.13h-.02l-.14-.1s-.08-.05-.09-.06l-.36-.22s-.06-.04-.08-.05l-.22-.13s-.04-.03-.05-.03l-.13-.08s-.06-.04-.08-.04l-.22-.12c-2.92-1.65-6.18-2.79-9.99-3.5-.3-.05-.6-.11-.86-.15l-.52-.08s-.07-.01-.1-.02c-.1-.01-.2-.03-.3-.04-1.79-.25-3.71-.42-5.73-.48-2.29-.07-4.14-1.82-4.29-4.06l-.22-3.08c0-.06,0-.12,0-.18-.02-.88,.29-1.66,.96-2.38,1.91-2.07,6.17-3.1,8.43-3.13h.35Zm-26.81-7.57l.26-.26s.03-.03,.05-.04l.28-.28,.04-.04,.31-.3c2.56-2.48,5.21-4.44,7.92-5.84l.83-.41s.05-.02,.07-.04l.27-.12c1.46-.66,2.91-1.12,4.33-1.41,.7-.14,1.39-.24,2.07-.29,1.31-.09,2.45,.2,3.48,.88,.24,.16,.48,.33,.71,.54l4.47,3.99c1.06,.95,1.47,2.32,1.09,3.68-.39,1.39-1.49,2.39-2.93,2.66l-.15,.03s-.05,.01-.08,.02l-.12,.02s-.07,.01-.11,.02l-.13,.03s-.07,.01-.1,.02l-.68,.16s-.05,.01-.08,.02l-.44,.11s-.05,.01-.08,.02l-.24,.06c-3.24,.9-6.35,2.38-9.49,4.52l-.05,.03c-.25,.17-.51,.35-.71,.5l-.06,.04s-.04,.03-.06,.04l-.32,.24s-.05,.03-.07,.05c-.08,.06-.16,.12-.24,.18-1.45,1.08-2.92,2.32-4.39,3.69-1.67,1.56-4.21,1.63-5.94,.13l-2.31-2s-.08-.09-.13-.13c-.63-.61-.98-1.38-1.02-2.35-.12-2.81,2.17-6.53,3.74-8.16Zm-4.58,12.92l2.34,2.02c1.39,1.2,3.11,1.8,4.84,1.8,1.84,0,3.68-.68,5.13-2.03,1.39-1.3,2.78-2.47,4.11-3.46,.66,.58,1.41,1.04,2.23,1.36-.02,.29-.03,.57,0,.87l.22,3.08c.27,3.79,3.37,6.74,7.21,6.86,1.89,.06,3.69,.21,5.36,.45,.05,.88,.26,1.73,.61,2.53-.22,.19-.43,.39-.62,.61l-2.01,2.3s-.04,.04-.05,.06c-2.47,2.87-2.36,7.11,.26,9.89,1.29,1.37,2.45,2.74,3.47,4.09-.59,.65-1.05,1.41-1.36,2.22-.29-.02-.58-.03-.87,0l-3.09,.22c-3.8,.26-6.77,3.35-6.89,7.18-.06,1.88-.21,3.67-.45,5.34-.88,.05-1.74,.26-2.54,.61-.19-.22-.39-.42-.61-.62l-2.31-2s-.04-.03-.05-.05c-2.88-2.46-7.14-2.36-9.94,.25-1.38,1.29-2.75,2.44-4.11,3.46-.66-.58-1.41-1.04-2.23-1.36,.02-.29,.03-.57,0-.87l-.22-3.08c-.27-3.79-3.37-6.74-7.21-6.86-1.89-.06-3.69-.21-5.36-.45-.05-.88-.26-1.73-.61-2.53,.22-.19,.43-.39,.62-.61l2.01-2.3s.05-.05,.07-.08c2.45-2.86,2.34-7.1-.28-9.87-1.29-1.37-2.46-2.74-3.47-4.09,.59-.65,1.05-1.41,1.36-2.22,.14,0,.27,.02,.41,.02,.15,0,.3,0,.46-.02l3.09-.22c3.8-.27,6.77-3.35,6.89-7.18,.06-1.88,.21-3.67,.45-5.34,.88-.05,1.74-.26,2.54-.61,.19,.22,.39,.43,.61,.62Zm-19.52-.49v-.3s0-.07,0-.08v-.09c.05-3.56,.54-6.81,1.44-9.65l.03-.08,.22-.65s.03-.09,.04-.1l.16-.45c.56-1.48,1.26-2.81,2.05-4.01,.4-.6,.82-1.18,1.28-1.7,.86-.99,1.87-1.58,3.08-1.82,.28-.06,.58-.1,.88-.12l6-.33c1.42-.08,2.68,.61,3.38,1.83,.71,1.26,.65,2.73-.19,3.94l-.05,.08s-.04,.06-.06,.08l-.09,.13s-.02,.03-.03,.05l-.14,.21h0l-.11,.18-.04,.06-.13,.21s-.02,.04-.04,.06l-.16,.25s-.02,.04-.03,.05l-.04,.06s-.03,.04-.04,.07l-.08,.14s-.03,.05-.04,.07l-.12,.21c-1.65,2.91-2.8,6.15-3.51,9.95-.05,.29-.11,.59-.15,.88l-.07,.49s-.01,.07-.02,.1c-.01,.1-.03,.2-.04,.3-.25,1.79-.42,3.7-.48,5.7-.07,2.28-1.83,4.12-4.08,4.27l-3.09,.22c-.06,0-.12,0-.18,0-.88,.02-1.67-.29-2.39-.96-2.08-1.9-3.11-6.15-3.15-8.39v-.38s0-.05,0-.07v-.39h-1.51l1.51-.03Zm-14.84,17.49l-.05-.1-.02-.03-.06-.14-.02-.04c-.65-1.44-1.12-2.87-1.4-4.28-.14-.69-.24-1.38-.29-2.06-.09-1.3,.2-2.44,.89-3.46,.16-.24,.34-.48,.54-.71l4.01-4.46c.95-1.06,2.33-1.46,3.69-1.08,1.4,.39,2.4,1.48,2.67,2.9l.03,.16s0,.03,.01,.05l.03,.16s0,.04,.01,.06l.04,.18s0,.05,.01,.07l.15,.67s.02,.07,.02,.09l.11,.43s.02,.08,.03,.12l.06,.22c.9,3.22,2.39,6.32,4.56,9.48,0,.01,.02,.03,.04,.05,.17,.24,.33,.48,.49,.7l.3,.41s.04,.05,.06,.08c.06,.08,.12,.16,.18,.24,1.09,1.44,2.33,2.91,3.71,4.37,1.57,1.66,1.63,4.2,.13,5.92-.02,.02-.04,.05-.06,.07l-1.95,2.23s-.09,.08-.13,.13c-.61,.63-1.38,.97-2.36,1.02-2.84,.11-6.56-2.16-8.2-3.73l-.26-.25s-.03-.03-.04-.04l-.63-.63c-2.49-2.54-4.46-5.19-5.84-7.84l-.03-.06-.13-.25-.02-.04-.26-.53s-.02-.05-.04-.07Zm20.23,33.71s-.04,0-.07,0h-.15s-.04,0-.06,0h-.69c-3.57-.05-6.84-.54-9.69-1.43-.01,0-.07-.02-.08-.03l-.7-.23s-.04-.02-.07-.03l-.46-.16c-1.49-.56-2.83-1.25-4.03-2.04-.6-.4-1.18-.81-1.71-1.27-.99-.85-1.59-1.87-1.83-3.07-.06-.28-.1-.57-.12-.88l-.33-5.97c-.08-1.42,.61-2.67,1.84-3.36,1.26-.71,2.74-.64,3.95,.18l.08,.05s.08,.05,.12,.08l.22,.15,.06,.04,.09,.06h.01l.16,.11,.08,.05,.35,.21s.06,.04,.07,.05l.23,.14s.04,.02,.05,.03l.14,.08,.06,.04,.22,.12c2.92,1.65,6.18,2.79,9.99,3.5,.3,.05,.6,.11,.86,.15l.52,.08s.06,.01,.09,.02c.1,.01,.2,.03,.3,.04,1.79,.25,3.72,.42,5.73,.48,2.29,.07,4.14,1.82,4.29,4.06l.22,3.08c0,.06,0,.12,0,.18,.02,.88-.29,1.66-.96,2.38-1.91,2.07-6.17,3.09-8.43,3.13h-.37Zm18.02,14.31s-.06,.03-.07,.03l-.81,.4s-.05,.02-.08,.04l-.1,.05h-.03l-.14,.08c-1.45,.66-2.9,1.12-4.33,1.41-.7,.14-1.39,.24-2.07,.29-1.3,.09-2.45-.2-3.48-.88-.24-.16-.48-.33-.71-.54l-4.47-3.99c-1.06-.95-1.47-2.32-1.09-3.68,.39-1.39,1.49-2.39,2.99-2.67h.08s.06-.03,.1-.04l.12-.02s.05,0,.07-.01l.19-.04s.06-.01,.09-.02l.69-.16,.07-.02,.47-.12s.04-.01,.06-.02l.23-.06c3.24-.89,6.35-2.38,9.54-4.56,.25-.17,.5-.35,.75-.52l.38-.28s.06-.04,.1-.06c.08-.06,.16-.12,.24-.18,1.45-1.08,2.92-2.32,4.39-3.69,1.67-1.56,4.21-1.63,5.94-.13,.02,.02,.03,.03,.05,.04l2.26,1.96h0s.08,.09,.13,.13c.63,.61,.98,1.38,1.02,2.35,.12,2.81-2.17,6.54-3.75,8.17l-.25,.26s-.03,.02-.04,.04l-.63,.63c-2.56,2.48-5.21,4.44-7.87,5.81Z"/></svg>