<?xml version="1.0" encoding="UTF-8"?>
<svg id="katman_1" data-name="katman 1" xmlns="http://www.w3.org/2000/svg" width="300" height="100" viewBox="0 0 300 100">
  <defs>
    <style>
      .cls-1 {
        fill: #876e6e;
      }
    </style>
  </defs>
  <path class="cls-1" d="M104.33,38.55h-23.9v8.3h23.9v-8.3Z"/>
  <path class="cls-1" d="M91.63,48.45h-11.2v8.3h2.9v5.7h8.3v-14h0Z"/>
  <path class="cls-1" d="M93.23,56.75v5.7h8.2v-5.7h2.9v-8.3h-11.1v8.3Z"/>
  <path class="cls-1" d="M128.13,47.85v-3.5h-3.6v18.1h3.6v-8.4c0-5,2-5.9,3.9-6.2,.5-.1,1-.2,1.5-.2v-3.4c-2.6,0-4.4,1-5.4,3.6Z"/>
  <path class="cls-1" d="M139.53,44.35h-3.6v18.1h3.6v-18.1Z"/>
  <path class="cls-1" d="M139.73,37.45h-3.8v3.8h3.8v-3.8Z"/>
  <path class="cls-1" d="M118.83,56.85v-9.6h3.5v-2.9h-3.5v-5.8l-3.5,1.6v4.2h-2.8v2.9h2.8v10c0,3.1,1.5,5.3,5.3,5.3h1.8v-2.9h-1.2c-1.6-.1-2.4-1.1-2.4-2.8Z"/>
  <path class="cls-1" d="M213.93,43.95c-2.8,0-4.5,1.7-5.4,3.8v-10.3h-3.6v25h3.6v-8.7c0-4.6,2.1-6.8,4.7-6.8s3.6,1.5,3.6,4.6v10.9h3.6v-11.5c0-3.9-1.8-7-6.5-7Z"/>
  <path class="cls-1" d="M146.43,37.45h-3.6v25h3.6v-25Z"/>
  <path class="cls-1" d="M174.93,43.95c-5.2,0-9,4-9,9.4,0,5.7,3.6,9.6,9,9.6,4.2,0,7.3-2.1,8.3-5.8h-3.5c-.6,2-2.5,2.9-4.8,2.9-3.1,0-5.2-2.1-5.5-5.6h14.1v-.7c0-4.9-2.3-9.8-8.6-9.8Zm-5.4,7.8c.4-2.9,2.4-4.9,5.5-4.9s4.7,2.1,5,4.9h-10.5Z"/>
  <path class="cls-1" d="M194.53,59.95c-3.5,0-5.7-2.9-5.7-6.6s2.2-6.6,5.7-6.6c2.7,0,4,1.4,4.6,3.2h3.5c-.7-3.5-3.5-6.1-8.1-6.1-5.5,0-9.4,3.9-9.4,9.5s3.9,9.5,9.4,9.5c4.4,0,7.3-2.2,8.2-6.2h-3.5c-.7,2.2-2.3,3.3-4.7,3.3Z"/>
  <path class="cls-1" d="M161.63,56.85v-9.6h3.5v-2.9h-3.5v-5.8l-3.5,1.6v4.2h-2.8v2.9h2.8v10c0,3.1,1.5,5.3,5.3,5.3h1.8v-2.9h-1.2c-1.6-.1-2.4-1.1-2.4-2.8Z"/>
  <path class="cls-1" d="M153.03,44.35h-3.6v18.1h3.6v-18.1Z"/>
  <path class="cls-1" d="M153.23,37.45h-3.8v3.8h3.8v-3.8Z"/>
</svg>