<?xml version="1.0" encoding="utf-8"?>
<!-- Generator: Adobe Illustrator 26.3.1, SVG Export Plug-In . SVG Version: 6.00 Build 0)  -->
<svg version="1.1" id="katman_1" xmlns="http://www.w3.org/2000/svg" xmlns:xlink="http://www.w3.org/1999/xlink" x="0px" y="0px"
	 viewBox="0 0 300 100" style="enable-background:new 0 0 300 100;" xml:space="preserve">
<style type="text/css">
	.st0{fill:#2D2D2D;}
</style>
<path class="st0" d="M95.7,71.9c-1.7,0-3.2-1.2-3.3-3L92,66c-3.6-1-5.6-3.6-6.2-7.8l-3.2-24.6c-0.7-0.1-1.4-0.2-2.1-0.1
	c-1,0-2.1,0.1-3,0.4v37.3h-6.3v-30c0-4.1,1.8-6.9,5.2-8.1v-1.9c0-2.2,1.4-3.7,3.4-3.7c2,0,3.3,1.3,3.6,3.6l0.2,1.8
	c3.6,1,5.8,3.9,6.4,8.7l3,23.7c1.8,0.3,3.6,0.3,5.3,0l3-23.7c0.6-4.8,2.8-7.7,6.4-8.7l0.2-1.8c0.3-2.3,1.6-3.6,3.6-3.6
	c2,0,3.4,1.5,3.4,3.7V33c3.3,1.2,5.2,4.1,5.2,8.1v30h-6.3V33.8c-1-0.3-2-0.4-3-0.4c-0.7,0-1.4,0-2.1,0.1l-3.2,24.6
	c-0.5,4.1-2.7,6.8-6.2,7.8L99,68.9C98.9,70.6,97.4,72,95.7,71.9z M93.1,66.3l0.3,2.5c0.1,1.1,1.1,2,2.2,2c1.1,0.1,2.1-0.8,2.2-1.9
	c0,0,0,0,0-0.1l0.3-2.5C96.5,66.6,94.8,66.6,93.1,66.3z M114.9,70h4V41.1c0-3.5-1.4-5.8-4-6.9V70z M72.3,70h4.1V34.2
	c-2.6,1.1-4,3.5-4,6.9L72.3,70z M83.8,33.9L86.9,58c0.4,3.5,2.1,5.8,4.9,6.7l-2.9-23.3C88.4,37.4,86.7,34.9,83.8,33.9z M107.5,33.9
	c-2.9,1-4.6,3.5-5.1,7.6l-2.9,23.3c2.8-1,4.5-3.2,4.9-6.7L107.5,33.9z M77.5,32.6L77.5,32.6c1-0.2,2-0.4,3-0.4c0.6,0,1.3,0,1.9,0.1
	L82.3,31c-0.2-1.7-1.1-2.6-2.5-2.6s-2.3,1-2.3,2.6V32.6z M110.8,32.3c1,0,2,0.1,3,0.4v-1.6c0-1.6-0.9-2.6-2.3-2.6
	c-1.4,0-2.3,0.9-2.5,2.6l-0.2,1.4C109.5,32.3,110.1,32.3,110.8,32.3L110.8,32.3z"/>
<path class="st0" d="M137.4,71.1h-6.2V28h6.2V71.1z M132.4,70h3.9V29.2h-3.9V70z"/>
<path class="st0" d="M177.4,71.9c-2.7,0-3.3-2.4-3.5-3.2l-0.5-2c-4-0.7-6.4-3.3-7.5-7.9l-5.8-25.2c-0.7-0.1-1.3-0.1-2-0.1
	c-1.1,0-2.2,0.1-3.3,0.4v37.3h-6.3V41c0-3.9,1.8-6.6,5.2-7.9v-2c0-2.2,1.4-3.7,3.4-3.7c1.7,0,3,1.1,3.4,3l0.5,2.3
	c3.9,0.7,6.2,3.2,7.3,7.9l5.9,25.2c0.7,0.1,1.3,0.1,2,0.1c1.1,0,2.2-0.1,3.3-0.4V28h6.3v31.1c0,3.2-1.9,5.7-5.2,6.9v1.9
	C180.7,70.4,179.4,71.9,177.4,71.9z M174.6,66.8l0.4,1.6c0.4,1.7,1.1,2.4,2.4,2.4c1.4,0,2.3-1,2.3-2.7v-1.6
	c-1.1,0.2-2.2,0.4-3.3,0.4C175.8,66.8,175.2,66.8,174.6,66.8L174.6,66.8L174.6,66.8z M149.7,70h4V34.3c-2.7,1.2-4,3.4-4,6.7
	L149.7,70z M161.4,33.7l5.7,24.7c0.9,4,2.8,6.2,6.1,6.9l-5.8-24.7C166.4,36.6,164.5,34.5,161.4,33.7L161.4,33.7z M180.7,29.2v35.8
	c2.6-1.1,4-3.1,4-5.7v-30L180.7,29.2z M154.9,32.7L154.9,32.7c1.1-0.3,2.2-0.4,3.3-0.4c0.6,0,1.2,0,1.7,0.1v0l0,0l-0.4-1.8
	c-0.2-0.8-0.7-2.1-2.3-2.1s-2.3,1.4-2.3,2.6L154.9,32.7z"/>
<path class="st0" d="M229,71.1h-6.6l-3.2-12.8H201l-3.2,12.8h-6.6l8.5-31.2c1-3.6,3.2-6,6.5-7.1l0.6-2.4c0.4-1.3,1.1-3.1,3.3-3.1
	s3,1.8,3.3,3.1l0.6,2.5c3.3,1.1,5.5,3.5,6.5,7.1L229,71.1z M223.3,70h4.2l-8.1-29.8c-0.8-2.9-2.6-5-5.1-6l5,19.9h-18.4l5-19.9
	c-2.5,1.1-4.3,3.1-5.1,6L192.7,70h4.2l3.2-12.8h19.9L223.3,70z M202.4,53h15.5l-4.8-19.2c-1.9-0.5-4-0.5-5.9,0L202.4,53z
	 M207.4,32.5L207.4,32.5c1.7-0.3,3.6-0.3,5.3,0v0l0,0l-0.4-1.8c-0.4-1.6-1-2.3-2.2-2.3c-1.2,0-1.8,0.6-2.2,2.3L207.4,32.5
	L207.4,32.5z"/>
</svg>
