<?xml version="1.0" encoding="utf-8"?>
<!-- Generator: Adobe Illustrator 26.3.1, SVG Export Plug-In . SVG Version: 6.00 Build 0)  -->
<svg version="1.1" id="katman_1" xmlns="http://www.w3.org/2000/svg" xmlns:xlink="http://www.w3.org/1999/xlink" x="0px" y="0px"
	 viewBox="0 0 300 100" style="enable-background:new 0 0 300 100;" xml:space="preserve">
<style type="text/css">
	.st0{fill:#1868FF;}
</style>
<path class="st0" d="M73.9,26.7c1.2-0.6,3-0.6,4.1,0L90,33c0.7,0.4,1.1,0.9,1.2,1.5h0v31.6c0,0.6-0.4,1.2-1.2,1.6L78,74
	c-1.2,0.6-3,0.6-4.1,0l-12-6.3c-0.8-0.4-1.1-1-1.2-1.6c0-0.1,0-0.1,0-0.2l0-31.3c0,0,0-0.1,0-0.1l0-0.1l0,0c0.1-0.6,0.4-1.1,1.1-1.5
	L73.9,26.7z M89.3,52.1L78,58c-1.2,0.6-3,0.6-4.1,0l-11.2-5.9V66l11.2,5.9c0.6,0.3,1.3,0.7,1.9,0.7l0.1,0c0.7,0,1.3-0.3,2-0.7
	l11.4-6V52.1z M58.8,65.4c0,1.2,0.1,2,0.4,2.6c0.2,0.5,0.6,0.8,1.2,1.3l0,0c0.1,0.1,0.3,0.2,0.5,0.3l0.2,0.1l0.7,0.4l-1,1.6
	l-0.8-0.5L60,71.2c-0.2-0.1-0.4-0.3-0.6-0.4c-1.8-1.2-2.5-2.6-2.5-5.3l0-0.1H58.8z M75,43.6c-0.1,0-0.2,0.1-0.2,0.1l-12,6.3
	c0,0,0,0,0,0l0,0l0,0l0,0l12,6.3c0.1,0,0.2,0.1,0.2,0.1V43.6z M76.9,43.6v12.9c0.1,0,0.2-0.1,0.2-0.1l12-6.3c0,0,0,0,0,0l0,0l0,0
	l0,0l-12-6.3C77.1,43.7,77,43.7,76.9,43.6z M89.3,36.7l-10.7,5.6L89.3,48V36.7z M62.6,36.7V48l10.7-5.6L62.6,36.7z M77.1,28.3
	c-0.6-0.3-1.8-0.3-2.4,0l-12,6.3c0,0,0,0,0,0l0,0l0,0l0,0l12,6.3c0.6,0.3,1.8,0.3,2.4,0l12-6.3c0,0,0,0,0,0l0,0l0,0l0,0L77.1,28.3z
	 M91.1,29l0.8,0.5l0.1,0.1c0.2,0.1,0.4,0.3,0.6,0.4c1.8,1.2,2.5,2.6,2.5,5.3l0,0.1h-1.9c0-1.2-0.1-2-0.4-2.6
	c-0.2-0.5-0.6-0.8-1.2-1.3l0,0c-0.1-0.1-0.3-0.2-0.5-0.3L90.8,31l-0.7-0.4L91.1,29z"/>
<path class="st0" d="M114.2,64.8V47.1h4.9v-3.2h-4.9v-2.3c0-2.6,1.1-3.9,3.4-3.9c0.7,0,1.4,0.1,2.1,0.3v-3.4c-0.9-0.3-1.9-0.4-3-0.4
	c-2.1,0-3.8,0.6-5,1.8c-1.2,1.2-1.8,3-1.8,5.3v2.7h-4v3.2h4v17.6H114.2z M131.2,65.1c1.6,0,3-0.3,4.2-1c1.2-0.7,2.1-1.6,2.7-2.9v3.6
	h4.1V43.9h-4.1v3.4c-0.6-1.2-1.5-2.2-2.7-2.9c-1.2-0.7-2.6-1-4.2-1c-1.8,0-3.4,0.5-4.8,1.4c-1.4,0.9-2.5,2.2-3.3,3.9
	c-0.8,1.7-1.2,3.6-1.2,5.7c0,2.2,0.4,4,1.2,5.7c0.8,1.6,1.9,2.9,3.3,3.7C127.7,64.6,129.4,65.1,131.2,65.1z M132.2,61.8
	c-1.9,0-3.4-0.6-4.5-1.9c-1.1-1.3-1.6-3.1-1.6-5.5c0-2.4,0.5-4.2,1.6-5.6c1.1-1.3,2.5-2,4.4-2c1.9,0,3.4,0.6,4.4,1.9
	c1,1.3,1.6,3.1,1.6,5.6c0,2.4-0.5,4.2-1.6,5.5C135.5,61.1,134.1,61.8,132.2,61.8z M152.6,64.8V52.9c0-1.9,0.5-3.3,1.6-4.4
	c1.1-1.1,2.5-1.7,4.3-1.7c1.5,0,2.7,0.4,3.4,1.2c0.7,0.8,1.1,2.2,1.1,4v12.8h4.2v-13c0-5.6-2.5-8.4-7.5-8.4c-1.6,0-3,0.4-4.3,1.1
	c-1.3,0.7-2.2,1.7-2.9,3l-0.4-3.6h-3.9c0.2,1.7,0.3,3.7,0.3,5.9v15H152.6z M181.1,65.1c1.2,0,2.2-0.2,3.1-0.5v-3.4
	c-0.7,0.2-1.5,0.3-2.2,0.3c-1.1,0-2-0.3-2.6-0.9c-0.6-0.6-0.9-1.6-0.9-3V47.1h5.8v-3.2h-5.8v-6.7l-4.2,1.5v5.2h-4.1v3.2h4.1v10.8
	c0,2.3,0.6,4.1,1.8,5.3C177.2,64.5,178.9,65.1,181.1,65.1z M197.1,65.1c2,0,3.8-0.4,5.4-1.3c1.5-0.9,2.7-2.1,3.6-3.8
	c0.8-1.6,1.3-3.5,1.3-5.7c0-2.2-0.4-4.1-1.3-5.7c-0.8-1.6-2-2.9-3.6-3.8c-1.5-0.9-3.3-1.3-5.4-1.3c-2,0-3.8,0.4-5.4,1.3
	c-1.5,0.9-2.7,2.1-3.6,3.8c-0.8,1.6-1.3,3.6-1.3,5.7c0,2.2,0.4,4.1,1.3,5.7c0.8,1.6,2,2.9,3.6,3.8C193.2,64.6,195,65.1,197.1,65.1z
	 M197,61.8c-1.9,0-3.4-0.6-4.4-1.9c-1-1.3-1.6-3.1-1.6-5.6c0-2.4,0.5-4.3,1.6-5.6c1.1-1.3,2.5-1.9,4.4-1.9c1.9,0,3.3,0.6,4.4,1.9
	c1,1.3,1.6,3.1,1.6,5.6c0,2.5-0.5,4.3-1.5,5.6C200.5,61.1,199,61.8,197,61.8z M216.3,64.8V53c0-1.9,0.5-3.4,1.4-4.5
	c0.9-1.1,2.2-1.7,3.8-1.7c1.4,0,2.4,0.4,3,1.2c0.6,0.8,0.9,2.1,0.9,3.9v12.8h4.2V53c0-1.9,0.5-3.4,1.4-4.5c0.9-1.1,2.2-1.7,3.8-1.7
	c1.4,0,2.4,0.4,3,1.2c0.6,0.8,0.9,2.1,0.9,3.9v12.8h4.2v-13c0-5.6-2.3-8.4-7-8.4c-1.5,0-2.9,0.4-4.2,1.1c-1.2,0.7-2.2,1.7-2.8,2.9
	c-1-2.7-3.1-4-6.3-4c-1.5,0-2.8,0.3-4,1c-1.1,0.7-2,1.7-2.6,2.9l-0.4-3.5h-3.9c0.2,1.7,0.3,3.7,0.3,5.9v15H216.3z"/>
</svg>
