<?xml version="1.0" encoding="utf-8"?>
<!-- Generator: Adobe Illustrator 26.3.1, SVG Export Plug-In . SVG Version: 6.00 Build 0)  -->
<svg version="1.1" id="katman_1" xmlns="http://www.w3.org/2000/svg" xmlns:xlink="http://www.w3.org/1999/xlink" x="0px" y="0px"
	 viewBox="0 0 300 100" style="enable-background:new 0 0 300 100;" xml:space="preserve">
<style type="text/css">
	.st0{fill:#797396;}
</style>
<path class="st0" d="M149,55.6L149,55.6L149,55.6C149,55.5,149,55.6,149,55.6z M83.7,38.1c-6.6,2.8-11,9.4-11.3,16.8v1.3
	c0.3,7.4,4.7,13.9,11.3,16.8c6.8,2.9,14.7,1.3,19.9-4.1l20-20.7c3.4-3.5,8.7-4,12.7-1.3c4,2.7,5.5,8,3.7,12.6
	c-1.8,4.6-6.6,7.2-11.2,6.2c-4.7-1-8.1-5.2-8.1-10.2v-0.3l-7,7.2c3.2,8.5,11.8,13.4,20.4,11.7S149,64.6,149,55.6
	c0-7.6-4.4-14.5-11.3-17.4c-6.8-2.9-14.7-1.3-19.9,4.1L97.8,62.9c-3.9,4.1-10.3,4-14.2,0c-3.9-4.1-3.9-10.6,0-14.7
	c3.9-4.1,10.3-4.1,14.2,0c1,1.1,2.5,1.5,4,1.1c1.4-0.4,2.5-1.5,2.9-3c0.4-1.5,0-3-1-4.1c-3.5-3.6-8.2-5.5-12.9-5.5
	C88.4,36.7,86,37.1,83.7,38.1z M160,55.5c0-5.7,4.5-10.4,10.1-10.4c5.6,0,10.1,4.6,10.1,10.4c0,2.8-1.1,5.4-2.9,7.4
	c-1.9,1.9-4.4,3-7.1,3c0,0,0,0,0,0C164.5,65.9,160,61.3,160,55.5z M155.8,24.5c-0.7,0-1.4,0.2-2.1,0.6c-1.3,0.8-2.1,2.3-2,3.9v26.5
	c0,7.7,4.5,14.6,11.3,17.5s14.7,1.2,20-4.2l20-20.6c3.4-3.5,8.7-4,12.7-1.3c4,2.7,5.5,8,3.7,12.6c-1.8,4.6-6.5,7.2-11.2,6.2
	c-4.7-1-8.1-5.2-8.1-10.2v-0.3l-7,7.2c3.2,8.5,11.8,13.4,20.4,11.7c8.6-1.7,14.9-9.5,14.9-18.6c0-7.6-4.5-14.5-11.3-17.4
	c-6.8-2.9-14.7-1.3-19.9,4.1l-9.2,9.5c-1.2-6.1-5.3-11.3-10.9-13.6c-5.6-2.4-12-1.8-17.1,1.7V29c0.1-1.6-0.6-3.1-2-3.9
	c-0.6-0.4-1.3-0.6-2.1-0.6H155.8z"/>
</svg>
