<?xml version="1.0" encoding="utf-8"?>
<!-- Generator: Adobe Illustrator 26.3.1, SVG Export Plug-In . SVG Version: 6.00 Build 0)  -->
<svg version="1.1" id="katman_1" xmlns="http://www.w3.org/2000/svg" xmlns:xlink="http://www.w3.org/1999/xlink" x="0px" y="0px"
	 viewBox="0 0 300 100" style="enable-background:new 0 0 300 100;" xml:space="preserve">
<style type="text/css">
	.st0{fill-rule:evenodd;clip-rule:evenodd;fill:#31285E;fill-opacity:0.65;}
</style>
<path class="st0" d="M74.9,31.9c-8.4,0-14.5,6.3-14.5,14.5c0,8.1,6.1,14.5,14.5,14.5c5.1,0,9.6-2.6,12-6.6l-4.7-2.7
	c-1.3,2.4-4.1,3.9-7.2,3.9c-5.5,0-9-3.8-9-9.1c0-5.4,3.6-9.2,9-9.2c3.2,0,5.9,1.5,7.2,4l4.7-2.7C84.5,34.5,80,31.9,74.9,31.9z
	 M101.6,60.3l7.2-19.9h-5.5l-4.4,13.4l-5.2-13.4h-5.6l8.2,19.3c-1,2.7-2.4,3.9-5.2,3.8v4.8C96.1,68.5,99.5,66,101.6,60.3z
	 M150.6,48.5c-0.6-2.9-2.8-4-4.9-4c-2.7,0-4.6,1.5-5.2,4H150.6z M146.1,56.2c2,0,3.6-0.8,4.5-2l4.1,2.4c-1.9,2.7-4.9,4.3-8.7,4.3
	c-6.7,0-10.9-4.6-10.9-10.5c0-5.9,4.3-10.5,10.5-10.5c5.9,0,10.1,4.7,10.1,10.5c0,0.8-0.1,1.4-0.2,2.1h-15
	C141.2,55.1,143.4,56.2,146.1,56.2z M169.6,40v5.7c-2.7-0.3-6.1,0.9-6.1,5.1v9.5h-5.1V40.4h5.1v3.4C164.6,41.1,167.1,40,169.6,40z
	 M122.7,55.9c-3.1,0-5.5-2.3-5.5-5.6c0-3.3,2.3-5.6,5.5-5.6c3.2,0,5.5,2.3,5.5,5.6C128.2,53.7,125.9,55.9,122.7,55.9L122.7,55.9z
	 M123.6,39.8c-2.9,0-5,1.1-6.4,2.9V32.4H109v4.5h3.1v23.4h5.1v-2.3c1.4,1.8,3.5,2.9,6.4,2.9c5.3,0,9.7-4.6,9.7-10.5
	C133.4,44.4,129,39.8,123.6,39.8z M214.1,34.7h6.9l-9.7,12.8l9.8,12.8h-6.9l-6.3-8.2l-6.2,8.2h-6.9l9.7-12.7l-9.8-12.8l7,0l6.3,8.2
	L214.1,34.7z M178.8,52l6.3,8.2h6.9l-9.7-12.8l9.7-12.8h-6.9l-9.7,12.8L178.8,52z M237,43l-6.3-8.2h-6.9l9.7,12.8l-9.7,12.8h6.9
	l9.7-12.8L237,43z"/>
</svg>
