<?xml version="1.0" encoding="utf-8"?>
<!-- Generator: Adobe Illustrator 26.3.1, SVG Export Plug-In . SVG Version: 6.00 Build 0)  -->
<svg version="1.1" id="katman_1" xmlns="http://www.w3.org/2000/svg" xmlns:xlink="http://www.w3.org/1999/xlink" x="0px" y="0px"
	 viewBox="0 0 300 100" style="enable-background:new 0 0 300 100;" xml:space="preserve">
<path d="M59,20.4c0.2,0,0.4,0,0.6,0c17,0,33.9,0,50.9,0c0.2,0,0.3,0,0.6,0c-1.6,4.4-3.2,8.7-4.9,13.1c-6.6-3.3-13.2-6.6-19.9-9.9
	c0,12,0,23.9,0,35.8c-0.9,0-1.7,0-2.6,0c0-11.9,0-23.8,0-35.8c-6.7,3.3-13.3,6.7-19.9,10c-0.2-0.4-0.3-0.8-0.5-1.2
	c-1.5-3.8-2.9-7.6-4.3-11.5c0-0.1-0.1-0.2-0.2-0.3C59,20.6,59,20.5,59,20.4z M62.7,23.1c0.9,2.3,1.7,4.6,2.6,6.8
	c4.6-2.3,9.1-4.6,13.6-6.8c0,0,0,0,0-0.1C73.5,23.1,68.2,23.1,62.7,23.1z M107.3,23.1c-5.4,0-10.8,0-16.1,0v0
	c4.5,2.2,9,4.5,13.6,6.8C105.6,27.7,106.4,25.4,107.3,23.1z M223.6,20.1c0,7,0,14.1,0,21.2c0.8,0.1,1.6,0.2,2.5,0.3
	c0,0.3-0.1,0.6-0.1,0.9c-2.2,0-4.4,0-6.7,0c0-0.3-0.1-0.6-0.2-0.9c0.6-0.1,1.3-0.2,1.9-0.3c0-3.9,0-7.9,0-11.8c-2.2,0-4.4,0-6.7,0
	c0,4,0,7.9,0,11.8c0.9,0.1,1.8,0.1,2.7,0.2c0,0.4-0.1,0.7-0.2,1c-2.4,0-4.8,0-7.3,0c0-0.3-0.1-0.6-0.2-0.9c0.8-0.1,1.5-0.2,2.3-0.3
	c0-3.9,0-7.9,0-11.8c-0.9,0-1.8,0-2.7,0c-0.1-0.3,0-0.6,0.2-0.8c0.4-0.6,0.9-0.9,1.6-0.8c0.3,0,0.6,0,0.9,0c0-0.5,0.1-1.1,0.2-1.6
	c0.2-1.2,0.8-2.2,1.5-3.1c0.8-0.9,1.5-1.8,2.2-2.7c0.2-0.2,0.3-0.3,0.6-0.3c1.7,0,3.5,0,5.2-0.1c0.2,0,0.4,0,0.6-0.1
	C222.6,20.1,223.1,20.1,223.6,20.1z M221.1,22c-0.1,0-0.2,0-0.2,0c-1.1,0.5-2.2,0.6-3.5,0.5c-0.5,0-0.9,0-1.4,0
	c-0.2,0-0.3,0.1-0.4,0.2c-0.8,0.7-1.2,1.6-1.2,2.6c0,0.9,0,1.8,0,2.6c2.2,0,4.4,0,6.7,0C221.1,26,221.1,24,221.1,22z M91.5,46.6
	c0-0.9,0-1.7,0-2.6c2.6,0,5.2,0,7.8,0c0,9.5,0,19,0,28.5c-9.5,0-18.9,0-28.5,0c0-9.5,0-19,0-28.5c2.6,0,5.1,0,7.7,0
	c0,0.9,0,1.7,0,2.6c-1.7,0-3.4,0-5.2,0c0,7.8,0,15.5,0,23.3c7.8,0,15.5,0,23.3,0c0-7.8,0-15.5,0-23.3C95,46.6,93.2,46.6,91.5,46.6z
	 M117.2,42.5c0-0.3-0.1-0.6-0.2-1c0.5-0.1,1-0.2,1.5-0.2s1-0.2,1.5-0.2c0-0.2,0-0.3,0-0.4c0-6.1,0-12.2,0-18.4
	c0-0.4-0.1-0.5-0.5-0.5c-0.7-0.1-1.5-0.2-2.2-0.3c-0.1,0-0.2,0-0.3-0.1c0-0.3,0.1-0.6,0.2-0.9c0.7,0,1.4,0,2,0c2.9,0,5.8,0,8.7,0
	c1.9,0,3.7,0.4,5.4,1.4c2.1,1.2,3.4,3.1,4,5.4c0.7,2.7,0.6,5.4-0.2,8c-1,3.3-3.3,5.4-6.5,6.5c-1.9,0.7-3.9,0.8-5.9,0.8
	c-2.2-0.1-4.4,0-6.5,0C117.9,42.5,117.6,42.5,117.2,42.5z M122.9,21.9c0,6.3,0,12.6,0,18.9c1.1,0.1,2.2,0.1,3.3,0.3
	c2.8,0.3,5.7-1,7.2-4c1.6-3.2,1.7-6.5,0.7-9.8c-0.9-2.8-2.8-4.6-5.7-5.3C126.5,21.6,124.7,21.9,122.9,21.9z M166,42.5
	c-0.4-0.2-0.8-0.4-1.1-0.6c-0.8-0.5-1.2-1.6-1-2.6c0-0.1,0.2-0.2,0.3-0.3c0.9-0.6,1.8-1.3,2.8-2c-0.2-0.1-0.3-0.2-0.5-0.2
	c-3.6-1.6-3.2-5.5-1.3-7.3c1.2-1.2,2.8-1.9,4.4-2.2c1.6-0.2,3.1,0.3,4.3,1.4c0.1,0.1,0.2,0.2,0.3,0.2c0.5-0.5,1-1,1.6-1.5
	c0.1-0.1,0.3-0.2,0.5-0.2c0.5,0,1,0,1.5,0c0,0.8,0,1.5,0,2.3c-1,0-1.9-0.1-2.7,0.5c0.1,0.7,0.2,1.3,0.2,1.9c0,1.5-0.8,2.7-2,3.6
	c-1.2,0.9-2.5,1.3-3.9,1.7c-0.1,0-0.3,0-0.4,0c-0.5-0.2-0.9,0.1-1.2,0.5c-0.3,0.5-0.8,0.9-1.1,1.3c-0.3,0.4-0.3,0.9,0.2,1.2
	c0.2,0.1,0.5,0.2,0.8,0.2c1.9,0,3.8,0,5.7,0c0.6,0,1.2,0.1,1.8,0.2c1.8,0.5,2.7,2,2.1,3.8c-0.4,1.3-1.3,2.2-2.4,3
	c-1.6,1.2-3.3,1.9-5.1,2.4c-0.6,0.2-1.2,0-1.9,0c-1-0.1-2-0.3-3-0.8c-1.8-0.9-2.1-2.5-2-4c0-0.1,0.2-0.3,0.3-0.3
	c0.9-0.8,1.8-1.5,2.7-2.2C165.8,42.7,165.9,42.6,166,42.5z M169.5,48.5c1.3,0,2.5-0.4,3.5-1.2c0.8-0.6,1.3-1.3,1.5-2.3
	c0.3-1.2-0.2-1.8-1.3-2.1c-0.3-0.1-0.7-0.1-1-0.1c-1.6,0-3.2,0-4.8,0c-0.1,0-0.3,0-0.4,0.1c-0.5,0.7-1.1,1.4-1.6,2.1
	c-0.4,0.6-0.3,1.2,0.1,1.8c0.2,0.3,0.6,0.6,0.9,0.8C167.4,48.3,168.4,48.4,169.5,48.5z M166.3,32c0,0.4,0.1,0.8,0.2,1.1
	c0.4,1.9,1.7,3,3.6,2.9c1.1-0.1,2.1-0.7,2.4-1.8c0.4-1.6,0.1-3.2-1-4.5c-0.8-0.9-1.9-1.1-3-0.9c-1.1,0.2-1.7,1-1.9,2
	C166.4,31.2,166.4,31.6,166.3,32z M154.8,72c0,2,0,4.1,0,6.1c1.1,0.1,2.2,0.2,3.4,0.3c0,0.3-0.1,0.6-0.2,0.8c0,0.1-0.2,0.2-0.3,0.2
	c-1.2,0-2.4-0.1-3.6-0.1c-1.2,0-2.5,0-3.7,0.1c-0.1,0-0.2,0-0.3,0c0-0.3-0.1-0.6-0.2-1c0.8-0.1,1.5-0.2,2.3-0.3c0-6.2,0-12.5,0-18.8
	c-0.8,0.1-1.5,0.2-2.3,0.2c0-0.3-0.1-0.6-0.2-1c1.6-0.3,3.1-1.1,4.8-1.1c0,0.8,0.1,1.6,0.2,2.5c0.1-0.1,0.2-0.1,0.3-0.2
	c1.1-0.9,2.3-1.7,3.4-2.6c0.1-0.1,0.3-0.2,0.4-0.2c1.8,0,3.4,0.5,4.7,1.9c0.9,1,1.4,2.2,1.6,3.6c0.2,1.5,0.2,3-0.2,4.5
	c-0.6,2.3-2,3.9-4.2,4.8c-1,0.4-2.1,0.6-3.1,0.8c-0.9,0.2-1.7-0.2-2.4-0.5C154.9,72.2,154.8,72.1,154.8,72
	C154.8,72,154.8,72,154.8,72z M154.8,65.4c0,1.2,0,2.4,0,3.6c0,0.2,0.1,0.4,0.2,0.5c0.9,1.2,2.9,1.9,4.4,1.6
	c1.4-0.4,2.2-1.4,2.7-2.7c0.6-1.6,0.6-3.1,0.4-4.7c-0.2-1.1-0.4-2.2-1.1-3.1c-0.9-1.4-2.2-1.7-3.6-0.9c-1,0.5-1.9,1.2-2.8,1.9
	c-0.1,0.1-0.2,0.3-0.2,0.4C154.8,63,154.8,64.2,154.8,65.4z M136.6,56.1c-0.5,0-0.9,0-1.4,0c-0.2,0-0.3-0.1-0.4-0.3
	c-0.3-0.8-0.5-1.5-0.8-2.2c-0.1-0.3-0.3-0.5-0.5-0.7c-3.5-3-10.9-2.6-12.6,4.1c-0.9,3.5-0.6,7,1.4,10.2c1.8,2.7,4.3,4.1,7.6,4
	c1.4-0.1,2.5-0.7,3.5-1.6c0.3-0.3,0.5-0.8,0.7-1.2c0.3-0.6,0.7-1.3,1-1.9c0.1-0.1,0.3-0.2,0.4-0.3c0.4,0,0.9,0,1.4,0
	c-0.3,1.4-0.6,2.7-0.9,4c0,0.1-0.2,0.2-0.2,0.2c-2.2,1.1-4.5,1.9-7,2.3c-1.2,0.2-2.4,0-3.5-0.4c-4.5-1.2-7.5-4.9-7.9-9.5
	c-0.2-2.4,0-4.7,1.1-6.8c1.2-2.4,3.2-4,5.6-5c1.6-0.7,3.3-1.2,5.1-1.2c2.6,0,5,0.9,7.1,2.4c0.1,0.1,0.2,0.2,0.2,0.3
	C136.6,53.6,136.6,54.9,136.6,56.1z M198.7,41.5c0,0.3-0.1,0.6-0.2,0.9c-2.1,0-4.2,0-6.4,0c0-0.3-0.1-0.6-0.2-0.9
	c0.8-0.1,1.6-0.2,2.3-0.3c0-3.9,0-7.7,0-11.6c-0.8,0.1-1.5,0.2-2.2,0.2c0-0.3-0.1-0.6-0.2-0.9c0.8-0.4,3.9-1.2,4.7-1.1
	c0.1,0.8,0.1,1.7,0.2,2.6c0.2-0.1,0.3-0.2,0.4-0.3c1.3-0.9,2.6-1.7,3.9-2.6c0.2-0.1,0.4-0.2,0.6-0.2c0.5,0,1.1,0,1.6,0.1
	c1.6,0.3,2.4,1.2,2.6,2.9c0.1,0.6,0.1,1.2,0.1,1.7c0,2.9,0,5.8,0,8.7c0,0.3,0.1,0.5,0.4,0.5c0.7,0,1.4,0.2,2.2,0.2
	c0,0.3-0.1,0.6-0.2,0.9c-2.2,0-4.3,0-6.4,0c0-0.3-0.1-0.6-0.2-0.9c0.6-0.1,1.1-0.2,1.6-0.3c0-0.2,0-0.3,0-0.4c0-2.9,0-5.7,0-8.6
	c0-0.1,0-0.2,0-0.3c-0.1-2.2-1.6-2.6-3-2.2c-0.5,0.2-0.9,0.4-1.4,0.6c-0.7,0.4-1.3,0.8-2,1.3c-0.1,0.1-0.2,0.2-0.2,0.4c0,3,0,6,0,9
	c0,0.2,0.1,0.3,0.3,0.3C197.6,41.3,198.1,41.5,198.7,41.5z M237.2,29.1c-0.5-0.1-0.9-0.2-1.4-0.3c0-0.3,0.1-0.6,0.2-0.9
	c1.8,0,3.5,0,5.4,0c0,0.3,0.1,0.6,0.2,0.9c-0.6,0.1-1.1,0.2-1.6,0.2c-0.3,0-0.5,0.2-0.6,0.5c-1.6,4.1-3.1,8.2-4.8,12.3
	c-1.1,2.6-2.3,5.2-3.5,7.9c0,0.1-0.2,0.2-0.3,0.2c-1.1,0-2.2,0-3.2,0c0-0.9,0-1.9,0-2.8c0.5,0,1,0,1.5,0c0.7,0.1,1.1-0.2,1.4-0.8
	c0.8-1.3,1.6-2.5,2.3-3.8c0-0.1,0.1-0.2,0.2-0.3c-0.2,0.1-0.4,0.1-0.7,0.2c-0.3-0.8-0.6-1.6-1-2.5c-1.4-3.5-2.7-6.9-4-10.4
	c-0.1-0.3-0.3-0.4-0.6-0.4c-0.6-0.1-1.1-0.2-1.6-0.2c0-0.3,0.1-0.6,0.2-0.9c2.2,0,4.4,0,6.7,0c0,0.3,0.1,0.6,0.2,0.9
	c-0.8,0.1-1.4,0.2-2.2,0.3c0.5,1.4,0.9,2.7,1.4,4c0.6,1.6,1.1,3.1,1.6,4.6c0.3,0.7,0.4,1.5,0.5,2.2c0,0.2,0,0.3,0.2,0.5
	C234.7,36.7,235.9,32.9,237.2,29.1z M177.3,35.4c0-1.9,0.5-3.8,1.9-5.3c1.2-1.3,2.7-1.9,4.3-2.5c3.1-0.9,6.5,0.8,7.8,4
	c0.9,2.2,0.9,4.6-0.1,6.8c-0.9,2.3-2.8,3.5-5.1,4.2c-3.9,1.2-7.9-1.3-8.6-5.7C177.4,36.4,177.4,35.9,177.3,35.4z M189.3,35.1
	c0-0.3,0-0.8-0.1-1.3c-0.2-1.5-0.8-2.9-2-3.9c-1.7-1.6-5-1.9-6.4,1.4c-0.8,1.9-0.9,3.7-0.5,5.7c0.3,1.5,1,2.7,2.2,3.6
	c1.8,1.3,4.5,1.4,5.9-1.2C189,38.1,189.2,36.7,189.3,35.1z M150.7,70.6c0,0.3,0.1,0.6,0.1,1c-1.2,0.2-2.4,0.5-3.6,0.7
	c-0.3-0.8-0.6-1.6-0.9-2.4c-0.1,0.1-0.2,0.2-0.3,0.2c-1.1,0.8-2.2,1.6-3.2,2.3c-0.2,0.1-0.4,0.2-0.6,0.2c-1,0-2-0.3-2.8-0.9
	c-1.4-1.1-1.8-3.2-0.9-4.9c0.3-0.6,0.7-1,1.4-1.2c1.9-0.6,3.9-1.3,5.9-1.9c0.3-0.1,0.4-0.2,0.3-0.5c0-0.9,0-1.8-0.1-2.6
	c-0.2-1.3-0.8-1.8-2.2-1.6c-0.8,0.1-1.5,0.3-2.2,0.5c-0.2,0-0.3,0.2-0.3,0.4c-0.2,0.6-0.3,1.3-0.5,1.9c-0.8,0-1.5,0-2.3,0
	c0-0.7,0-1.4,0-2.1c0-0.1,0.1-0.2,0.2-0.2c1.7-0.8,3.3-1.6,5-2.3c0.1,0,0.2-0.1,0.3,0c0.6,0,1.3,0,1.9,0.2c1.6,0.3,2.4,1.1,2.6,2.7
	c0.1,0.8,0.2,1.5,0.2,2.2c0,2.1,0,4.3,0,6.4c0,0.6,0.1,1.3,0.4,1.8c0.1,0.1,0.3,0.2,0.4,0.2C149.8,70.6,150.2,70.6,150.7,70.6z
	 M146,64.8c-0.2,0.1-0.3,0.1-0.4,0.2c-1.4,0.6-2.7,1.2-4.1,1.7c-0.5,0.2-0.8,0.5-0.9,1c-0.2,0.6-0.2,1.1,0,1.6
	c0.2,0.8,0.8,1.3,1.7,1.3c0.5,0,1-0.1,1.4-0.3c0.8-0.4,1.5-0.9,2.2-1.4c0.1,0,0.2-0.2,0.2-0.3C146,67.3,146,66.1,146,64.8z
	 M195.7,70.6c-0.5,0-0.9,0-1.3,0c-0.3,0-0.4-0.1-0.5-0.3c-0.3-0.6-0.4-1.3-0.4-1.9c0-2.2,0-4.4,0-6.6c0-0.8-0.1-1.6-0.3-2.4
	c-0.2-0.8-0.5-1.4-1.2-1.8c-1-0.5-2.1-0.5-3.2-0.5c-0.1,0-0.1,0-0.2,0.1c-1.6,0.8-3.3,1.5-5,2.2c-0.1,0-0.2,0.2-0.2,0.2
	c0,0.7,0,1.4,0,2.1c0.8,0,1.4,0,2.2,0c0.1,0,0.2-0.2,0.2-0.2c0.2-0.6,0.3-1.2,0.5-1.8c0-0.1,0.2-0.3,0.2-0.3
	c0.9-0.2,1.7-0.5,2.6-0.5c1.1-0.1,1.7,0.5,1.9,1.6c0.1,0.9,0,1.8,0.1,2.7c0,0.3-0.1,0.3-0.3,0.4c-2,0.7-4,1.4-6,2
	c-0.7,0.2-1.1,0.6-1.4,1.2c-0.8,1.6-0.6,3.3,0.5,4.5c0.9,1,2.1,1.3,3.4,1.3c0.1,0,0.3-0.1,0.4-0.2c0.8-0.6,1.6-1.1,2.4-1.7
	c0.4-0.3,0.8-0.6,1.2-0.9c0.3,0.8,0.6,1.6,0.9,2.4c1.2-0.2,2.4-0.5,3.6-0.7C195.8,71.3,195.7,70.9,195.7,70.6z M191,68.5
	c0,0.1-0.1,0.2-0.2,0.2c-0.7,0.5-1.4,1-2.1,1.4c-0.6,0.4-1.3,0.6-2.1,0.3c-0.5-0.2-0.9-0.5-1.1-1c-0.3-0.7-0.3-1.4,0-2.1
	c0.2-0.4,0.4-0.7,0.8-0.9c1.4-0.6,2.8-1.2,4.2-1.7c0.1,0,0.2-0.1,0.4-0.2C191.1,66.1,191.1,67.3,191,68.5z M150.6,32
	c0-0.7,0-1.4,0-2c0-0.1,0.1-0.2,0.2-0.3c1.6-0.8,3.3-1.6,5-2.2c0.5-0.2,1.1,0,1.6,0c0.2,0,0.5,0,0.7,0.1c1.6,0.3,2.4,1.2,2.5,3.1
	c0.1,2.4,0.1,4.9,0.1,7.4c0,0.5,0,1.1,0.1,1.6c0,0.2,0,0.3,0.1,0.4c0.2,0.8,0.3,0.9,1.2,0.9c0.3,0,0.5,0,0.8,0c0,0.3,0.1,0.6,0.1,1
	c-1.2,0.2-2.4,0.5-3.6,0.7c-0.3-0.8-0.6-1.6-0.9-2.4c-0.2,0.1-0.3,0.2-0.4,0.3c-1.1,0.8-2.1,1.6-3.2,2.3c-0.1,0.1-0.3,0.2-0.4,0.2
	c-1.5,0-2.8-0.4-3.7-1.7c-0.9-1.3-0.9-2.7-0.2-4.2c0.3-0.6,0.7-0.9,1.3-1.2c2-0.6,4-1.3,5.9-1.9c0.3-0.1,0.4-0.2,0.4-0.5
	c0-0.8,0-1.6-0.1-2.4c-0.1-1.3-0.7-1.9-2-1.8c-0.8,0.1-1.6,0.3-2.4,0.5c-0.1,0-0.3,0.2-0.3,0.3c-0.2,0.6-0.3,1.2-0.5,1.7
	c0,0.1-0.2,0.2-0.3,0.2C152.1,32.1,151.4,32,150.6,32z M158.3,35.1c-0.2,0.1-0.3,0.1-0.5,0.2c-1.4,0.6-2.8,1.2-4.2,1.7
	c-0.3,0.2-0.6,0.3-0.7,0.7c-0.3,0.8-0.3,1.6,0,2.4c0.2,0.5,0.6,0.7,1.1,0.8c0.8,0.2,1.5,0,2.2-0.5c0.6-0.4,1.3-0.9,1.9-1.3
	c0.1-0.1,0.2-0.2,0.2-0.3C158.3,37.6,158.3,36.4,158.3,35.1z M201.3,71c0.9,0.1,1.6,0.2,2.5,0.3c0,0.3,0,0.6-0.1,0.8
	c0,0.1-0.2,0.2-0.4,0.2c-0.9,0-1.8-0.1-2.7-0.1c-1.2,0-2.4,0-3.5,0.1c-0.2,0-0.3,0-0.5,0c0-0.3-0.1-0.6-0.2-1
	c0.8-0.1,1.5-0.2,2.3-0.3c0-6.4,0-12.7,0-19.1c-0.8,0-1.5,0-2.2,0c0-0.3-0.1-0.6-0.2-1c1.6-0.4,3.2-1.1,5-1.1
	C201.3,56.9,201.3,63.9,201.3,71z M177.8,53.7c0,1.4,0,2.7,0,4.1c1.6,0,3.2,0,4.9,0c0,0.5,0,0.9,0,1.3c-1.6,0-3.2,0-4.8,0
	c0,0.2,0,0.3,0,0.5c0,2.9,0,5.8,0,8.7c0,0.3,0,0.5,0.1,0.8c0.1,0.8,0.6,1.3,1.5,1.4c0.7,0,1.4-0.2,2-0.5c0.2-0.1,0.4-0.2,0.6-0.3
	c0.2,0.3,0.3,0.6,0.5,0.9c-0.8,0.5-1.6,0.9-2.3,1.3c-0.2,0.1-0.3,0.2-0.5,0.3c-1.2,0.7-2.4,0.4-3.5-0.2c-0.6-0.3-0.7-1.1-0.8-1.7
	c0-0.5,0-1,0-1.5c0-3,0-6.1,0-9.2c0-0.2,0-0.3,0-0.5c-1,0-2,0-3,0c-0.1-0.3,0-0.6,0.2-0.8c0.5-0.6,1.1-0.9,1.9-0.8
	c0.3,0,0.7,0,1.1,0c0-0.6,0-1.1,0-1.6c0-0.2,0.1-0.5,0.2-0.6c0.4-0.5,0.8-0.9,1.2-1.4C177.2,53.6,177.2,53.6,177.8,53.7z
	 M143.7,27.7c0,1.3,0,2.6,0,3.9c0.5-0.6,1.1-1.2,1.6-1.8c0.6-0.7,1.2-1.4,1.9-2.1c0.1-0.1,0.3-0.2,0.5-0.2c0.7,0,1.4,0,2.1,0
	c0,0.9,0,1.9,0,2.8c-0.6,0-1.1,0-1.6,0c-0.4,0-0.8,0.1-1.1,0.3c-1.2,0.6-2.2,1.6-3,2.7c-0.1,0.1-0.1,0.2-0.1,0.3c0,2.4,0,4.9,0,7.3
	c0,0.1,0,0.1,0,0.2c1.1,0.1,2.2,0.2,3.2,0.3c0,0.4-0.1,0.8-0.2,1.1c-2.6,0-5.1,0-7.7,0c0-0.3-0.1-0.6-0.2-0.9c0.7-0.1,1.3-0.2,2-0.2
	c0.2,0,0.3-0.1,0.3-0.3c0-3.7,0-7.4,0-11.1c0-0.1,0-0.1,0-0.2c-0.8,0.1-1.5,0.2-2.3,0.2c0-0.3-0.1-0.6-0.2-1
	C140.5,28.5,142,27.8,143.7,27.7z M173.2,71.3c0,0.3-0.1,0.6-0.2,0.9c-0.8,0-1.5,0-2.2,0c-1.4,0-2.8,0-4.2,0c-0.6,0-0.6,0-0.7-0.6
	c0-0.1,0-0.3,0-0.4c0.8-0.1,1.5-0.2,2.3-0.3c0-3.8,0-7.7,0-11.6c-0.8,0-1.5,0.1-2.3,0.2c0-0.3-0.1-0.6-0.2-1c1.6-0.4,3.2-1.1,5-1.1
	c0,4.5,0,9,0,13.5C171.5,71.1,172.3,71.1,173.2,71.3z M169,55.5c-0.1,0-0.1,0-0.2,0c-0.7,0-0.9-0.2-1-0.8c-0.1-0.7-0.1-1.4,0.1-2.2
	c0-0.1,0.1-0.3,0.2-0.3c0.8,0,1.7-0.3,2.5,0c0.1,0,0.2,0.2,0.2,0.3c0.2,0.9,0.2,1.7-0.1,2.6c0,0.1-0.2,0.2-0.3,0.2
	C170,55.4,169.5,55.4,169,55.5z"/>
</svg>
