<?xml version="1.0" encoding="utf-8"?>
<!-- Generator: Adobe Illustrator 26.3.1, SVG Export Plug-In . SVG Version: 6.00 Build 0)  -->
<svg version="1.1" id="katman_1" xmlns="http://www.w3.org/2000/svg" xmlns:xlink="http://www.w3.org/1999/xlink" x="0px" y="0px"
	 viewBox="0 0 300 100" style="enable-background:new 0 0 300 100;" xml:space="preserve">
<style type="text/css">
	.st0{fill:#31285E;fill-opacity:0.65;}
</style>
<path class="st0" d="M125.9,62.8H124V45.8h1.9L125.9,62.8L125.9,62.8z M125.9,40.7c0.1,0.1,0.2,0.3,0.3,0.4c0.1,0.2,0.1,0.3,0.1,0.5
	c0,0.2,0,0.4-0.1,0.5c-0.1,0.2-0.2,0.3-0.3,0.4c-0.2,0.2-0.4,0.3-0.7,0.4c-0.3,0.1-0.5,0-0.8-0.1c-0.2-0.1-0.3-0.2-0.4-0.3
	c-0.1-0.1-0.2-0.3-0.3-0.4c-0.1-0.2-0.1-0.3-0.1-0.5c0-0.3,0.1-0.5,0.2-0.7c0.1-0.2,0.3-0.4,0.6-0.5c0.2-0.1,0.5-0.1,0.8-0.1
	C125.4,40.4,125.7,40.6,125.9,40.7L125.9,40.7z M131.5,51.9c0,0.5,0,0.9,0.1,1.4c0,0.4,0.2,0.7,0.3,1c0.2,0.3,0.4,0.6,0.7,0.7
	c0.4,0.2,0.9,0.3,1.3,0.3c0.5,0,0.9-0.1,1.3-0.3c0.3-0.2,0.6-0.4,0.7-0.7c0.2-0.3,0.3-0.7,0.3-1c0.1-0.5,0.1-0.9,0.1-1.4v-6.1h1.9
	v6.3c0.1,1.3-0.3,2.6-1,3.6c-0.7,0.9-1.8,1.3-3.3,1.3c-1.5,0-2.6-0.4-3.3-1.3c-0.7-1.1-1.1-2.3-1-3.6v-6.3h1.9V51.9L131.5,51.9z
	 M143.3,47L143.3,47c0.3-0.5,0.7-0.8,1.2-1.1c0.5-0.3,1-0.4,1.5-0.4c0.6,0,1.2,0.2,1.8,0.5c0.5,0.3,1,0.8,1.3,1.3
	c0.3-0.6,0.8-1.1,1.4-1.3c0.6-0.3,1.3-0.5,1.9-0.5c0.6,0,1.2,0.1,1.7,0.4c0.4,0.2,0.8,0.6,1.1,1c0.3,0.4,0.5,0.9,0.6,1.5
	c0.1,0.6,0.2,1.2,0.2,1.7v6.6h-1.8v-6.3c0-0.4,0-0.8-0.1-1.2c0-0.3-0.1-0.7-0.2-1c-0.1-0.3-0.3-0.6-0.6-0.7
	c-0.3-0.2-0.7-0.3-1.1-0.3c-0.4,0-0.9,0.1-1.3,0.3c-0.3,0.2-0.6,0.5-0.7,0.9c-0.2,0.4-0.3,0.8-0.3,1.2c-0.1,0.5-0.1,0.9-0.1,1.4v5.8
	h-1.8v-6.2c0-0.4,0-0.8-0.1-1.2c0-0.4-0.1-0.7-0.3-1c-0.1-0.3-0.3-0.6-0.6-0.8c-0.3-0.2-0.7-0.3-1-0.3c-0.5,0-0.9,0.1-1.3,0.4
	c-0.3,0.2-0.6,0.5-0.7,0.9c-0.2,0.4-0.3,0.8-0.3,1.2c-0.1,0.5-0.1,0.9-0.1,1.4v5.6h-1.9V45.8h1.9L143.3,47L143.3,47z M163.2,47.5
	c-0.4,0.2-0.8,0.5-1.1,0.9c-0.7,0.8-1,1.7-1,2.7c0,1.1,0.3,2.1,1,2.9c0.3,0.4,0.7,0.7,1.2,0.9c0.5,0.2,1,0.3,1.5,0.3
	c0.5,0,1-0.1,1.5-0.3c0.5-0.2,0.9-0.5,1.2-0.9c0.7-0.8,1-1.9,1-2.9c0-1-0.3-2-1-2.8c-0.5-0.5-1.2-0.9-1.9-1.1
	C164.6,47.1,163.9,47.2,163.2,47.5L163.2,47.5z M161.1,47.3L161.1,47.3c0.5-0.6,1-1.1,1.7-1.4c0.7-0.3,1.4-0.5,2.1-0.5
	c0.7,0,1.4,0.1,2.1,0.4c0.7,0.3,1.2,0.7,1.7,1.3c0.5,0.5,0.8,1.2,1.1,1.9c0.3,0.7,0.4,1.4,0.4,2.2c0,0.8-0.1,1.5-0.4,2.2
	c-0.2,0.7-0.6,1.3-1.1,1.8c-0.5,0.5-1,1-1.7,1.2c-0.7,0.3-1.4,0.5-2.2,0.4c-0.7,0-1.5-0.2-2.1-0.5c-0.7-0.3-1.2-0.8-1.7-1.4h0v7.7
	h-1.9V45.8h1.9L161.1,47.3L161.1,47.3z"/>
<path class="st0" d="M175.9,56.7h-1.9v-9.2h-1.1v-1.7h1.1v-3.9h1.9v3.9h2v1.7h-2V56.7L175.9,56.7z M182.5,47L182.5,47
	c0.3-0.4,0.7-0.8,1.1-1.1c0.4-0.3,0.9-0.4,1.3-0.4c0.6,0,1.2,0.2,1.7,0.5l-0.9,1.7l-0.1-0.1c-0.2-0.1-0.3-0.2-0.5-0.3
	c-0.2-0.1-0.3-0.1-0.5-0.1c-0.4,0-0.8,0.1-1.2,0.4c-0.3,0.3-0.5,0.6-0.7,1c-0.1,0.4-0.2,0.8-0.3,1.3c0,0.5-0.1,0.9-0.1,1.4v5.5h-1.9
	V45.8h1.9L182.5,47L182.5,47z M191.7,47.5c-0.4,0.2-0.8,0.5-1.1,0.9c-0.7,0.8-1,1.7-1,2.7c0,1.1,0.3,2.1,1,2.9
	c0.3,0.4,0.7,0.7,1.2,0.9c0.5,0.2,1,0.3,1.5,0.3c0.5,0,1-0.1,1.5-0.3c0.5-0.2,0.9-0.5,1.2-0.9c0.7-0.8,1-1.9,1-2.9c0-1-0.3-2-1-2.8
	c-0.5-0.5-1.2-0.9-1.9-1.1C193.1,47.1,192.4,47.2,191.7,47.5L191.7,47.5z M198.6,56.7h-1.9v-1.5h0c-0.4,0.6-1,1.1-1.7,1.4
	c-0.7,0.3-1.4,0.5-2.1,0.4c-0.7,0-1.5-0.1-2.1-0.5c-0.6-0.3-1.2-0.7-1.7-1.3c-0.5-0.5-0.8-1.2-1.1-1.8c-0.2-0.7-0.4-1.4-0.4-2.2
	c0-0.8,0.1-1.5,0.4-2.2c0.2-0.7,0.6-1.3,1-1.8c0.5-0.5,1-1,1.7-1.3c0.7-0.3,1.4-0.5,2.2-0.5c0.7,0,1.4,0.2,2.1,0.5
	c0.7,0.3,1.2,0.8,1.7,1.4h0v-1.6h1.9L198.6,56.7L198.6,56.7z M205.1,47.5c-0.4,0.2-0.8,0.5-1.1,0.9c-0.7,0.8-1,1.7-1,2.7
	c0,1.1,0.3,2.1,1,2.9c0.3,0.4,0.7,0.7,1.2,0.9c0.5,0.2,1,0.3,1.5,0.3c0.5,0,1-0.1,1.5-0.3s0.9-0.5,1.2-0.9c0.7-0.8,1-1.9,1-2.9
	c0-1-0.3-2-1-2.8c-0.5-0.5-1.2-0.9-1.9-1.1C206.6,47.1,205.8,47.2,205.1,47.5z M210.2,55.2L210.2,55.2c-0.5,0.6-1,1-1.7,1.3
	c-0.7,0.3-1.4,0.5-2.1,0.5c-0.7,0-1.5-0.1-2.1-0.5c-0.6-0.3-1.2-0.7-1.7-1.3c-0.5-0.5-0.8-1.2-1.1-1.8c-0.3-0.7-0.4-1.4-0.4-2.2
	c0-0.8,0.1-1.5,0.4-2.2c0.2-0.7,0.6-1.3,1-1.8c0.5-0.5,1-1,1.7-1.3c0.7-0.3,1.4-0.5,2.2-0.5c0.7,0,1.5,0.2,2.1,0.5
	c0.6,0.3,1.2,0.8,1.6,1.4h0v-9.8h1.9v19.2h-1.9V55.2L210.2,55.2z M217.1,56.7h-1.9V45.8h1.9V56.7z M217.1,40.7
	c0.1,0.1,0.2,0.3,0.3,0.4c0.1,0.2,0.1,0.3,0.1,0.5c0,0.2,0,0.4-0.1,0.5c-0.1,0.2-0.2,0.3-0.3,0.4c-0.1,0.1-0.3,0.2-0.4,0.3
	c-0.2,0.1-0.3,0.1-0.5,0.1c-0.2,0-0.3,0-0.5-0.1c-0.2-0.1-0.3-0.2-0.4-0.3c-0.1-0.1-0.2-0.3-0.3-0.4c-0.1-0.2-0.1-0.3-0.1-0.5
	c0-0.3,0.1-0.5,0.2-0.7s0.3-0.4,0.6-0.5c0.2-0.1,0.5-0.1,0.8-0.1C216.7,40.4,216.9,40.6,217.1,40.7L217.1,40.7z M222.6,47.1
	L222.6,47.1c0.4-0.5,0.9-0.9,1.4-1.2c0.5-0.3,1.2-0.4,1.8-0.4c0.6,0,1.3,0.1,1.8,0.4c0.5,0.2,0.9,0.6,1.1,1c0.3,0.5,0.5,1,0.6,1.5
	c0.1,0.6,0.2,1.2,0.2,1.9v6.5h-1.9v-6.1c0-0.5,0-0.9-0.1-1.3c0-0.4-0.1-0.7-0.3-1c-0.1-0.3-0.4-0.6-0.7-0.7
	c-0.4-0.2-0.8-0.3-1.2-0.3c-0.5,0-1,0.1-1.5,0.4c-0.4,0.2-0.7,0.6-0.8,1c-0.2,0.4-0.3,0.9-0.3,1.3c-0.1,0.5-0.1,1.1-0.1,1.6v5.2
	h-1.9V45.8h1.9L222.6,47.1L222.6,47.1L222.6,47.1z M236.1,47.5c-0.4,0.2-0.8,0.5-1.1,0.9c-0.7,0.8-1,1.7-1,2.7c0,1.1,0.3,2.1,1,2.9
	c0.3,0.4,0.7,0.7,1.2,0.9c0.5,0.2,1,0.3,1.5,0.3c0.5,0,1-0.1,1.5-0.3c0.5-0.2,0.9-0.5,1.2-0.9c0.7-0.8,1-1.9,1-2.9c0-1-0.3-2-1-2.8
	c-0.3-0.4-0.8-0.7-1.2-0.9c-0.5-0.2-1-0.3-1.5-0.3C237,47.2,236.5,47.3,236.1,47.5L236.1,47.5L236.1,47.5z M243,56.2
	c0,0.9,0,1.8-0.2,2.7c-0.2,0.8-0.5,1.5-1,2c-0.5,0.6-1.1,1.1-1.8,1.4c-0.8,0.3-1.6,0.5-2.4,0.5c-1.4,0.1-2.8-0.4-3.8-1.4
	c-0.5-0.5-0.9-1-1.2-1.7c-0.3-0.6-0.4-1.3-0.4-2h1.9c0,0.4,0.1,0.9,0.2,1.3c0.2,0.4,0.4,0.8,0.8,1.1c0.7,0.6,1.6,0.9,2.5,0.9
	c0.6,0,1.2-0.1,1.7-0.4c0.4-0.2,0.8-0.6,1.1-1c0.3-0.4,0.4-0.9,0.5-1.4c0.1-0.6,0.2-1.2,0.2-1.8v-1.3h0c-0.4,0.6-1,1-1.7,1.3
	c-0.7,0.3-1.4,0.5-2.1,0.5c-0.7,0-1.4-0.1-2.1-0.4c-0.7-0.3-1.2-0.7-1.7-1.3c-0.5-0.5-0.8-1.2-1.1-1.8c-0.5-1.4-0.5-3,0-4.4
	c0.2-0.7,0.6-1.3,1.1-1.9c0.5-0.6,1.1-1,1.7-1.3c0.7-0.3,1.4-0.5,2.1-0.4c0.7,0,1.5,0.2,2.1,0.5c0.6,0.3,1.2,0.8,1.6,1.4h0v-1.6h1.9
	L243,56.2L243,56.2z"/>
<path class="st0" d="M90.7,40.4c-2.1-2.1-4.9-3.4-7.9-3.7c-3-0.3-6,0.5-8.5,2.1c-2.5,1.7-4.3,4.2-5.2,7c-0.9,2.9-0.7,6,0.4,8.7
	c1.2,2.8,3.2,5.1,5.9,6.5c2.7,1.4,5.7,1.9,8.7,1.3c2.9-0.6,5.6-2.2,7.5-4.5c1.9-2.3,2.9-5.2,2.9-8.2C94.5,46.2,93.2,42.9,90.7,40.4
	L90.7,40.4z M89.5,57.6c-2.1,2.1-5,3.3-8,3.3c-3,0-5.9-1.2-8-3.3c-1.6-1.6-2.7-3.6-3.1-5.8c-0.4-2.2-0.2-4.5,0.6-6.6
	c0.9-2.1,2.3-3.9,4.2-5.1c1.9-1.3,4.1-1.9,6.3-1.9c2.2,0,4.4,0.7,6.3,1.9c1.9,1.2,3.3,3,4.2,5.1c0.9,2.1,1.1,4.4,0.6,6.6
	C92.2,54,91.1,56,89.5,57.6z"/>
<path class="st0" d="M80,58.7c-1.4-0.2-2.7-0.8-3.9-1.6c-1.5-1.2-2.6-2.8-3.2-4.6c-0.2-0.6-0.4-1.2-0.6-1.9
	c-0.1-0.2-0.1-0.4-0.1-0.6c0-0.1,0-0.1,0-0.1v0l-1,0.1c0.2,1.6,0.8,3.2,1.5,4.6c0.7,1.3,1.6,2.4,2.8,3.3c1.4,1.1,3.1,1.8,4.9,1.9
	l0.6,0.1V40h-1L80,58.7z M91.1,49.1H83V40h-1v19.9l0.6-0.1c1.3-0.2,2.6-0.6,3.8-1.3c1.2-0.6,2.2-1.5,3-2.5c1.1-1.3,1.9-2.9,2.3-4.5
	l-1-0.3c-0.4,1.5-1.1,2.9-2.1,4.1c-1.4,1.7-3.4,2.9-5.5,3.3v-8.5h8.2V49.1z"/>
<path class="st0" d="M103.7,50.1h-1.6c0,4.8-1.6,9.4-4.7,13.1c-3,3.7-7.2,6.2-11.9,7.2c-4.7,0.9-9.5,0.2-13.7-2
	c-4.2-2.2-7.5-5.9-9.3-10.3c-1.8-4.4-2.1-9.3-0.7-13.9c1.4-4.6,4.3-8.5,8.3-11.2c4-2.7,8.7-3.9,13.5-3.4c4.7,0.5,9.2,2.6,12.6,5.9
	c1.9,1.9,3.4,4.2,4.5,6.7c1,2.5,1.6,5.2,1.6,7.9h3.1c0-5.5-1.9-10.8-5.4-15.1c-3.5-4.3-8.3-7.2-13.7-8.2c-5.4-1.1-11-0.3-15.8,2.3
	c-4.8,2.6-8.6,6.8-10.8,11.8c-2.1,5.1-2.4,10.7-0.8,16c1.6,5.3,5,9.8,9.5,12.9c4.6,3.1,10,4.4,15.5,3.9c5.5-0.5,10.6-2.9,14.5-6.8
	c2.2-2.2,4-4.8,5.2-7.7c1.2-2.9,1.8-6,1.8-9.1H103.7L103.7,50.1z"/>
</svg>
