<?xml version="1.0" encoding="utf-8"?>
<!-- Generator: Adobe Illustrator 26.3.1, SVG Export Plug-In . SVG Version: 6.00 Build 0)  -->
<svg version="1.1" id="katman_1" xmlns="http://www.w3.org/2000/svg" xmlns:xlink="http://www.w3.org/1999/xlink" x="0px" y="0px"
	 viewBox="0 0 300 100" style="enable-background:new 0 0 300 100;" xml:space="preserve">
<g id="图层_2">
	<g id="图层_1-2">
		<polygon points="109.4,27.6 107.4,31 105.4,34.4 103.5,37.8 105.4,41.2 107.4,44.5 109.4,47.9 117.8,62.6 119.8,66 121.7,69.4 
			117.8,69.4 106.7,50.2 105.4,47.9 103.5,44.5 101.5,41.2 99.6,37.8 97.6,34.4 95.6,31 93.7,27.6 91.7,31 89.8,34.4 87.8,37.8 
			85.8,41.2 83.9,44.5 80.6,50.2 67.6,72.8 71.5,72.8 75.4,72.8 79.4,72.8 81.3,69.4 83.3,66 85.2,62.6 89.8,54.7 91.7,51.3 
			93.7,47.9 95.6,51.3 97.6,54.7 99.6,58.1 102.1,62.6 104.1,66 106,69.4 102.1,69.4 100.2,66 98.2,62.6 97.6,61.5 96.3,59.2 
			95.6,58.1 93.7,54.7 91.1,59.2 89.2,62.6 87.2,66 85.2,69.4 83.3,72.8 87.2,72.8 89.2,69.4 91.1,66 93.1,62.6 93.7,61.5 
			94.3,62.6 95.6,64.9 96.3,66 98.2,69.4 100.2,72.8 104.1,72.8 108,72.8 111.9,72.8 110,69.4 108,66 101.5,54.7 99.6,51.3 
			97.6,47.9 95.6,44.5 93.7,41.2 91.7,44.5 89.8,47.9 87.8,51.3 79.4,66 77.4,69.4 73.5,69.4 85.8,47.9 87.8,44.5 89.8,41.2 
			91.7,37.8 93.7,34.4 95.6,37.8 97.6,41.2 99.6,44.5 101.5,47.9 103.5,51.3 113.9,69.4 115.8,72.8 119.8,72.8 127.6,72.8 
			125.7,69.4 123.7,66 109.4,41.2 107.4,37.8 109.4,34.4 129.6,69.4 131.5,72.8 135.5,72.8 122.4,50.2 		"/>
		<polygon points="152.4,64.1 149.4,71.7 146.4,64.1 145.7,64.1 149,72.6 149.8,72.6 153.2,64.1 		"/>
		<polygon points="158.4,64.1 158.4,72.6 164.6,72.6 164.6,72 159.1,72 159.1,68.5 164,68.5 164,67.9 159.1,67.9 159.1,64.6 
			164.5,64.6 164.5,64.1 		"/>
		<polygon points="175.8,64.1 175.8,71.6 170.6,64.1 169.8,64.1 169.8,72.6 170.5,72.6 170.5,65.1 175.6,72.6 176.5,72.6 
			176.5,64.1 		"/>
		<path d="M197.7,69.7c0,0.4-0.1,0.7-0.2,1.1c-0.1,0.3-0.3,0.6-0.5,0.8c-0.2,0.2-0.5,0.3-0.8,0.4c-0.4,0.1-0.7,0.1-1.1,0.1
			c-0.4,0-0.7,0-1.1-0.2c-0.3-0.1-0.6-0.2-0.8-0.4c-0.2-0.2-0.4-0.5-0.5-0.8c-0.1-0.3-0.2-0.7-0.2-1.1v-5.6h-0.7v5.6
			c0,0.5,0.1,0.9,0.2,1.3c0.1,0.4,0.4,0.7,0.6,1c0.3,0.3,0.6,0.5,1,0.6c0.4,0.1,0.9,0.2,1.4,0.2c0.5,0,0.9-0.1,1.4-0.2
			c0.4-0.1,0.7-0.3,1-0.6c0.3-0.3,0.5-0.6,0.7-1c0.2-0.4,0.2-0.9,0.2-1.3v-5.6h-0.7L197.7,69.7z"/>
		<path d="M209.3,70.7c-0.2-0.3-0.4-0.6-0.6-1s-0.4-0.6-0.6-0.9c0.3,0,0.6-0.2,0.8-0.3c0.2-0.1,0.4-0.3,0.6-0.5
			c0.2-0.2,0.3-0.4,0.4-0.7c0.1-0.3,0.1-0.5,0.1-0.8c0-0.3-0.1-0.7-0.2-1c-0.1-0.3-0.3-0.6-0.5-0.8c-0.2-0.2-0.5-0.4-0.8-0.5
			c-0.3-0.1-0.7-0.2-1-0.2h-3.9v8.5h0.7v-3.6h3c0.2,0.3,0.5,0.6,0.6,0.9c0.2,0.3,0.4,0.6,0.6,0.9l0.5,0.9c0.2,0.3,0.4,0.6,0.6,0.9
			h0.7c-0.2-0.3-0.4-0.6-0.6-0.9L209.3,70.7 M207.5,68.3h-3.2v-3.6h3.2c0.3,0,0.5,0,0.7,0.2c0.2,0.1,0.4,0.2,0.6,0.4
			c0.2,0.2,0.3,0.4,0.4,0.6c0.2,0.5,0.2,1,0,1.4c-0.2,0.4-0.5,0.8-0.9,1C208,68.3,207.8,68.3,207.5,68.3"/>
		<polygon points="215.9,68.5 220.8,68.5 220.8,67.9 215.9,67.9 215.9,64.6 221.3,64.6 221.3,64.1 215.2,64.1 215.2,72.6 
			221.4,72.6 221.4,72 215.9,72 		"/>
		<path d="M233.1,69.6c-0.1-0.2-0.3-0.4-0.4-0.6c-0.2-0.2-0.4-0.3-0.6-0.4c-0.3-0.1-0.5-0.2-0.8-0.3c-0.3-0.1-0.6-0.2-0.9-0.3
			l-0.8-0.2c-0.3-0.1-0.5-0.2-0.8-0.3c-0.2-0.1-0.4-0.2-0.6-0.3c-0.2-0.1-0.3-0.3-0.4-0.4c-0.1-0.2-0.2-0.4-0.2-0.6
			c0-0.4,0.1-0.7,0.4-1c0.1-0.1,0.3-0.2,0.4-0.3c0.2-0.1,0.3-0.1,0.5-0.2c0.2-0.1,0.4-0.1,0.5-0.1h0.5c0.3,0,0.6,0,0.9,0.1
			c0.3,0.1,0.5,0.2,0.7,0.3c0.2,0.1,0.4,0.3,0.5,0.6c0.2,0.3,0.2,0.5,0.3,0.8l0.7-0.1c0-0.4-0.1-0.7-0.3-1c-0.2-0.3-0.4-0.5-0.7-0.7
			c-0.3-0.2-0.6-0.3-1-0.4c-0.4-0.1-0.8-0.1-1.1-0.1c-0.3,0-0.5,0-0.8,0c-0.2,0-0.5,0.1-0.7,0.2c-0.2,0.1-0.4,0.2-0.6,0.3
			c-0.4,0.2-0.7,0.6-0.8,1c-0.1,0.2-0.1,0.5-0.1,0.8c0,0.3,0.1,0.5,0.2,0.8c0.1,0.2,0.3,0.4,0.4,0.5c0.2,0.2,0.4,0.3,0.6,0.4
			c0.3,0.1,0.5,0.2,0.8,0.3l0.8,0.2l0.9,0.2c0.3,0.1,0.5,0.2,0.8,0.3c0.2,0.1,0.4,0.2,0.6,0.3c0.2,0.1,0.3,0.3,0.4,0.5
			c0.1,0.2,0.2,0.4,0.1,0.6c0,0.2,0,0.4-0.1,0.6c-0.1,0.2-0.2,0.3-0.3,0.5c-0.1,0.1-0.3,0.2-0.4,0.3c-0.2,0.1-0.3,0.2-0.5,0.2
			c-0.2,0.1-0.4,0.1-0.6,0.1c-0.2,0-0.4,0-0.6,0c-0.4,0-0.7,0-1.1-0.1c-0.3-0.1-0.6-0.2-0.9-0.4c-0.3-0.2-0.5-0.4-0.6-0.7
			c-0.2-0.3-0.3-0.6-0.4-1l-0.6,0.1c0,0.4,0.2,0.8,0.4,1.2c0.2,0.3,0.4,0.6,0.8,0.8c0.3,0.2,0.7,0.4,1.1,0.5
			c0.4,0.1,0.9,0.1,1.3,0.1c0.3,0,0.5,0,0.8,0c0.2,0,0.5-0.1,0.7-0.2c0.2-0.1,0.4-0.2,0.6-0.3c0.2-0.1,0.4-0.3,0.5-0.5
			c0.2-0.2,0.3-0.4,0.3-0.6c0.1-0.3,0.1-0.5,0.1-0.8C233.3,70.1,233.2,69.9,233.1,69.6"/>
		<polygon points="181.4,64.7 184.3,64.7 184.3,72.6 185,72.6 185,64.7 188,64.7 188,64.1 181.4,64.1 		"/>
		<path d="M199.9,40.7h-14.6c-0.1,0-0.2,0.1-0.3,0.2l-1.9,3.1c-0.1,0.1,0,0.2,0.1,0.2h10.5c0.1,0,0.1,0.1,0.1,0.2l-8.5,13.9
			c-0.1,0.1,0,0.2,0.1,0.2h3.7c0.1,0,0.2-0.1,0.3-0.2L200,40.9C200,40.8,200,40.7,199.9,40.7z"/>
		<path d="M166.7,40.7c-0.1,0-0.2,0.1-0.2,0.2V44c0,0.1,0.1,0.2,0.2,0.2h8.3c0.1,0,0.2,0.1,0.1,0.2l-8.5,13.9c0,0.1,0,0.2,0.1,0.2
			h3.7c0.1,0,0.2-0.1,0.3-0.2l8.5-13.9l0.1-0.2l0.1-0.2l1.9-3.1c0.1-0.1,0-0.2-0.1-0.2L166.7,40.7z"/>
		<path d="M163.2,40.9l-8.5,7.7c0,0-0.1,0-0.1,0c-0.1,0-0.1,0-0.2,0l-8.5-7.7c-0.1-0.1-0.2,0-0.2,0.1v17.3c0,0.1,0.1,0.2,0.2,0.2
			h3.1c0.1,0,0.2-0.1,0.2-0.2V49c0-0.1,0.1-0.1,0.2-0.1l5,4.5c0,0,0.1,0.1,0.1,0.1c0.1,0,0.1,0,0.2-0.1l5-4.5c0.1-0.1,0.1,0,0.1,0.1
			v9.2c0,0.1,0.1,0.2,0.2,0.2h3.1c0.1,0,0.2-0.1,0.2-0.2L163.2,40.9C163.3,40.8,163.2,40.8,163.2,40.9z"/>
	</g>
</g>
</svg>
