<?xml version="1.0" encoding="utf-8"?>
<!-- Generator: Adobe Illustrator 26.3.1, SVG Export Plug-In . SVG Version: 6.00 Build 0)  -->
<svg version="1.1" id="katman_1" xmlns="http://www.w3.org/2000/svg" xmlns:xlink="http://www.w3.org/1999/xlink" x="0px" y="0px"
	 viewBox="0 0 300 100" style="enable-background:new 0 0 300 100;" xml:space="preserve">
<style type="text/css">
	.st0{fill:#31285E;fill-opacity:0.65;}
</style>
<path class="st0" d="M258,61.4c-5.2,0-10.5,0-15.7,0c0-0.1,0-0.2-0.1-0.2c0.2-0.1,0.5-0.2,0.7-0.2c1.6,0.2,2.3-1,2.3-2.4
	c0-5,0-10.1,0-15.1c0-0.9-0.1-1.7-1.1-2.1c-0.5-0.2-1-0.2-1.6-0.4c-0.1,0-0.2-0.1-0.3-0.2c3.1,0,6.1,0,9.2,0c0,0.1,0,0.1,0.1,0.2
	c-0.2,0.1-0.4,0.2-0.6,0.2c-0.5,0.1-1,0.1-1.5,0.2c-1,0.3-1.3,1.2-1.3,2.1c0,5,0,10,0,15c0,1.1,0.6,1.7,1.7,1.6c1-0.1,2,0,3.1,0
	c1.9,0.1,3.7,0,5.1-1.3C258,59.6,258,60.5,258,61.4z"/>
<path class="st0" d="M198.4,40.8c0.1,0,0.2,0,0.3,0c3.6,0,7.2-0.1,10.8,0.1c1.9,0.1,3.7,0.6,5.1,2c2.4,2.4,1.7,6.1-1.4,7.6
	c-0.2,0.1-0.5,0.2-0.8,0.4c0.8,0.3,1.5,0.6,2.2,1c1.4,0.8,2.2,2,2.2,3.7c0,2.8-1.4,4.7-4.1,5.4c-1.1,0.3-2.2,0.5-3.3,0.5
	c-3.5,0.1-6.9,0-10.4,0c-0.3,0-0.5,0-0.8,0c0-0.1,0-0.1,0-0.2c0.2-0.1,0.5-0.2,0.7-0.2c2,0.1,2.3-1,2.3-2.4c0.1-5,0.1-10,0-15
	c0-0.6-0.1-1.4-0.6-1.9c-0.6-0.6-1.3-0.4-2-0.6c-0.1-0.1-0.3-0.1-0.4-0.1C198.4,40.9,198.4,40.8,198.4,40.8z M204.3,55.7
	c0,1,0,2,0,2.9c0,0.4-0.1,0.9,0.1,1.3c0.1,0.2,0.7,0.2,1,0.2c1.8,0.4,3.6,0.4,5.4-0.3c1.5-0.6,2.4-1.6,2.6-3.2
	c0.3-1.9-0.4-3.4-2.2-4.4c-2-1.2-4.2-1-6.4-1c-0.4,0-0.6,0.2-0.6,0.7C204.4,53.2,204.3,54.4,204.3,55.7z M204.4,42.1
	c0,0.2,0,0.4,0,0.6c0,2.2,0,4.4,0,6.5c0,0.6,0.3,0.9,0.8,0.9c1.3,0,2.5,0.1,3.8,0c0.7-0.1,1.5-0.4,2.2-0.7c1.7-0.8,2.4-3.4,1.4-5.1
	c-0.9-1.6-2.4-2.4-4.1-2.5C207.1,41.7,205.8,41.6,204.4,42.1z"/>
<path class="st0" d="M196.6,50.9c0.1,3.1-0.9,5.8-3,7.9c-1.5,1.5-3.2,2.5-5.4,2.9c-2.2,0.4-4.2,0.1-6.2-0.8
	c-2.3-1.1-3.9-2.9-4.9-5.3c-0.8-2-1-4.1-0.7-6.1c0.5-3.9,2.6-6.7,6.1-8.4c1.6-0.7,3.3-1,5-0.8c3.6,0.5,6.3,2.4,7.9,5.7
	C196.3,47.5,196.7,49.2,196.6,50.9z M193.3,51.3c-0.1-1.1-0.2-2.2-0.4-3.3c-0.2-1.1-0.5-2.3-1-3.3c-0.8-1.7-2.1-2.8-3.9-3.2
	c-2-0.4-3.8-0.1-5.3,1.3c-1.9,1.7-2.5,4-2.7,6.4c-0.3,2.6,0,5.2,1,7.7c0.5,1.2,1.2,2.2,2.3,3c1.6,1.1,3.3,1.3,5.1,0.7
	c2-0.6,3.3-2,4.1-3.9C193,55,193.3,53.2,193.3,51.3z"/>
<path class="st0" d="M147.5,50.2c2.7,0,5.3,0,8.1,0c-0.3,0.2-0.4,0.4-0.5,0.4c-1.5,0.3-1.9,0.8-1.9,2.4c0,2.1,0,4.3,0,6.4
	c0,0.5-0.1,0.7-0.6,0.9c-2.4,1.2-4.9,1.6-7.6,1.5c-3.9-0.2-7.2-1.8-9.2-5.4c-1.2-2.1-1.5-4.4-1.2-6.7c0.4-3,1.9-5.4,4.2-7.3
	c1.4-1.1,3-1.9,4.9-2c0.7,0,1.4-0.2,2.1-0.2c1.5,0,2.8,0.4,4.2,0.9c0.4,0.2,0.9,0.3,1.4,0.4c0.5,0.1,0.7-0.2,0.8-0.7
	c0-0.2,0.1-0.5,0.2-0.7c0.1,0,0.2,0,0.3,0.1c0.1,1.2,0.2,2.5,0.3,3.7c0.1,0.6,0.1,1.3,0.2,1.9c0,0.2,0,0.3,0,0.5
	c0,0.1-0.1,0.2-0.2,0.4c-0.1-0.1-0.2-0.2-0.3-0.3c-0.4-0.8-0.7-1.6-1.2-2.3c-0.9-1.4-2.2-2.2-3.9-2.6c-2-0.5-3.9-0.2-5.7,0.8
	c-1.6,0.9-2.5,2.4-3.2,4.1c-0.7,1.7-0.9,3.5-0.7,5.3c0.3,3.2,1.3,6,4.1,7.9c1.5,1,3.2,1.4,5,1.1c1-0.1,1.9-0.6,2.8-0.9
	c0.2-0.1,0.4-0.4,0.4-0.6c0-2.3,0-4.5,0-6.8c0-1.1-0.8-1.8-1.9-1.9C148.1,50.6,147.6,50.8,147.5,50.2z"/>
<path class="st0" d="M114.8,40.9c0.2,0,0.4-0.1,0.6-0.1c1.5,0,3,0,4.4,0c1.1,0,2.1,0.2,3.1,0.4c0.1,0,0.2,0,0.3,0
	c1.5-0.3,2.8,0.3,4,1.2c1.3,0.9,1.8,2.2,1.8,3.7c0,1.8-1.3,3.8-3.2,4.3c-0.5,0.2-1.1,0.4-1.6,0.6c-0.4,0.2-0.5,0.4-0.2,0.9
	c1.6,2.1,3.1,4.3,4.7,6.5c0.7,1,1.6,1.9,2.8,2.4c0.1,0,0.2,0.2,0.4,0.4c-0.4,0-0.6,0.1-0.8,0.1c-0.6,0-1.2-0.1-1.8,0
	c-0.9,0.1-1.5-0.2-2.1-1c-1.2-1.8-2.5-3.4-3.7-5.2c-0.7-1-1.5-2.1-2.3-3.1c-0.3-0.4-1.6-0.6-2.3-0.4c-0.6,0.2-0.7,0.8-0.7,1.3
	c0,1.3,0.1,2.7,0,4c-0.1,1.1,0.2,2.2,0.5,3.2c0.1,0.3,0.4,0.6,0.7,1c-1.5,0-3,0-4.4,0c0.2-0.5,0.5-1,0.7-1.4
	c0.1-0.3,0.2-0.5,0.2-0.8c0-5.1,0-10.2,0-15.3c0-1-0.2-2-1.4-2.4C114.7,41,114.8,40.9,114.8,40.9z M118.4,46.5c0,1.2,0,2.3,0,3.5
	c0,0.8,0.2,1,1,1.1c0.3,0,0.6,0.1,0.9,0.1c0.3,0,0.6,0,0.9-0.1c0.2,0,0.4-0.3,0.5-0.2c1,0.1,1.7-0.5,2.4-1c0.9-0.6,1.5-1.6,1.7-2.5
	c0.2-0.9-0.1-1.9-0.3-2.9c-0.4-1.7-1.8-2.5-3.4-2.8c-0.7-0.1-1.4,0.1-2,0.1c-1.1-0.1-1.7,0.4-1.7,1.5
	C118.4,44.2,118.4,45.3,118.4,46.5z"/>
<path class="st0" d="M89.6,41.3c0,0.8,0,1.6,0.1,2.4c0,0.7,0.2,1.3,0.3,2c0,0.1,0,0.3-0.1,0.5c-0.2-0.4-0.4-0.9-0.6-1.3
	c-0.9-2-2.5-3.3-4.6-3.6c-2.6-0.4-5.3-0.2-7.2,2.1c-1.3,1.5-2,3.1-2.3,5.1c-0.2,1-0.4,1.9-0.4,2.9c0,0.4,0.1,0.7,0.2,1.1
	c0.2,0.6,0.4,1.3,0.5,1.9c0.7,2.9,2.4,5,5.1,6.2c0.9,0.4,1.9,0.2,2.9,0.3c1.3,0.2,2.4-0.4,3.5-0.8c0.6-0.2,0.9-0.7,0.9-1.3
	c0-1.9,0.1-3.7,0-5.6c-0.1-1.3-0.6-2.3-2-2.7c0.3-0.3,5.3-0.4,6-0.1c-0.3,0.1-0.6,0.2-0.8,0.4c-0.8,0.5-0.8,1.4-0.9,2.2
	c-0.1,2-0.1,4.1,0,6.1c0,0.6-0.2,1-0.8,1.2c-1.3,0.4-2.6,0.9-3.9,1.2c-0.4,0.1-0.9-0.1-1.3-0.1c-1,0-2,0.2-3,0.1
	c-0.8,0-1.7-0.2-2.5-0.5c-0.9-0.3-1.7-0.7-2.5-1.2c-1.3-0.9-2.4-2-3.1-3.4c-0.4-0.9-0.9-1.9-1.1-2.8c-0.2-1-0.2-2.1-0.1-3.1
	c0.1-0.9,0.3-1.8,0.5-2.6c0.1-0.4,0.3-0.7,0.5-1c0.1-0.3,0.2-0.7,0.4-0.9c1.2-2,2.8-3.7,5-4.5c0.9-0.3,1.8-0.5,2.8-0.6
	c1.2-0.1,2.4-0.2,3.6-0.1c0.9,0.1,1.8,0.5,2.6,0.8c0.7,0.3,1.4,0.6,2.1-0.2C89.5,41.3,89.5,41.3,89.6,41.3z"/>
<path class="st0" d="M241.2,61.3c-2.8,0-5.5,0-8.2,0c0-0.1,0-0.1-0.1-0.2c0.2-0.1,0.5-0.2,0.7-0.2c1.3-0.1,1.6-1,1.3-2
	c-0.4-1.4-1-2.7-1.6-4.1c-0.1-0.2-0.4-0.3-0.6-0.3c-2.4,0-4.7,0-7.1,0c-0.4,0-0.6,0.2-0.7,0.5c-0.5,1.3-1.1,2.6-1.6,4
	c-0.3,0.9,0.3,1.8,1.3,1.9c0.3,0,0.8-0.1,1,0.4c-2.2,0-4.3,0-6.3,0c-0.1-0.1-0.1-0.2-0.2-0.2c0.2-0.1,0.3-0.2,0.5-0.2
	c1.3-0.1,1.9-1.1,2.4-2.2c0.8-1.8,1.6-3.7,2.4-5.5c1.2-2.8,2.4-5.5,3.6-8.3c0.6-1.5,1.2-2.9,1.9-4.4c0.1-0.2,0.3-0.3,0.4-0.3
	c0.1,0,0.3,0.2,0.4,0.3c0.7,1.6,1.4,3.2,2,4.8c0.9,2.1,1.7,4.2,2.6,6.3c0.9,2.2,1.8,4.4,2.7,6.6c0.4,1,0.9,2.1,2,2.5
	c0.3,0.1,0.6,0.1,0.9,0.2C240.9,61,241,61.1,241.2,61.3z M229.2,53.5c1,0,2,0,2.9,0c0.5,0,0.6-0.2,0.4-0.7c-1-2.4-2-4.8-3-7.2
	c-0.1-0.1-0.2-0.2-0.3-0.3c-0.1,0.1-0.2,0.2-0.3,0.3c-0.3,0.7-0.6,1.5-1,2.2c-0.7,1.7-1.4,3.3-2.2,5c-0.2,0.6-0.1,0.7,0.5,0.7
	C227.3,53.5,228.2,53.5,229.2,53.5z"/>
<path class="st0" d="M156.6,61.1c0.3-0.1,0.6-0.2,0.8-0.2c1.5,0.1,2.2-0.9,2.2-2.2c0-5,0-10.1,0-15.1c0-1.8-0.6-2.4-2.5-2.6
	c-0.2,0-0.4,0-0.5-0.2c3.1,0,6.2,0,9.3,0c0,0.1,0,0.1,0,0.2c-0.3,0.1-0.5,0.2-0.8,0.2c-0.4,0.1-0.9,0-1.3,0.2
	c-0.9,0.3-1.3,1.1-1.3,2c0,5.1,0,10.1,0,15.2c0,1,0.5,1.5,1.6,1.5c1.6,0,3.2,0,4.8,0c2,0,3.5-0.9,4.5-2.7c0.2-0.4,0.4-0.8,0.7-1.2
	c0.1-0.1,0.2-0.2,0.5-0.2c-0.5,1.6-1,3.3-1.5,4.9c-0.1,0.3-0.3,0.5-0.7,0.5c-5,0-10.1,0-15.1,0c-0.2,0-0.3,0-0.5,0
	C156.6,61.2,156.6,61.2,156.6,61.1z"/>
<path class="st0" d="M107.3,48.7c0.5,0.5,0.5,3,0,3.6c-0.6-1.1-1.6-1.4-2.8-1.5c-1.3-0.1-2.6-0.2-4-0.2c-0.9,0-1.1,0.1-1.1,1.1
	c0,1.8,0,3.5,0,5.3c0,0.5-0.1,0.9-0.2,1.4c-0.2,1.1,0.6,2.1,1.7,2.1c1.7,0,3.4,0.1,5.1,0c1.9-0.1,3.2-1.2,4.1-2.8
	c0.1-0.2,0.3-0.4,0.4-0.8c0.1,0.2,0.2,0.3,0.2,0.4c-0.3,1.1-0.7,2.1-1.1,3.1c-0.1,0.2-0.5,0.5-0.8,0.5c-4.2,0-8.4,0-12.5,0
	c-0.2,0-0.3-0.1-0.6-0.1c1.4-1.2,1.1-2.6,1.1-4c0-4.3,0-8.6,0-12.9c0-1.2,0.1-2.4-1.4-3c0-0.1,0.1-0.1,0.1-0.2
	c0.2,0,0.4-0.1,0.6-0.1c4.1,0,8.1,0,12.2,0c0.5,0,0.8,0.2,0.9,0.7c0.1,0.9,0.2,1.7,0.3,2.6c0,0.2-0.1,0.5-0.1,0.7
	c-0.1,0-0.1,0-0.2,0c-0.1-0.3-0.2-0.7-0.3-1c-0.1-1-0.9-1.5-1.6-2c-0.3-0.2-0.9-0.2-1.3-0.3c-1.8-0.1-3.6-0.2-5.4-0.3
	c-1.2,0-1.3,0.1-1.3,1.3c0,2.3,0,4.6,0,6.9c0,0.6,0.2,0.8,0.8,0.8c1.4,0,2.8,0,4.2,0C105.7,50.2,106.7,49.9,107.3,48.7z"/>
<path class="st0" d="M42.1,44c0-0.4,0-0.8,0-1.2c0-2.5,0.2-2,2-2c4.6,0,9.1,0,13.7,0c0.9,0,1,0.1,1,1c0.1,0.6,0.2,1.3,0.2,1.9
	c0,0.2-0.1,0.4-0.2,0.8c-0.5-1.2-1.1-2-2.1-2.3c-1.4-0.5-2.8-0.8-4.3-0.6c-0.5,0.1-0.7,0.3-0.7,0.8c0,0.1,0,0.2,0,0.3
	c0,5.2,0,10.5,0,15.7c0,1,0.2,2,1,2.8c-1.6,0-3,0-4.5,0c0.2-0.5,0.4-1,0.7-1.4c0.5-0.7,0.4-1.5,0.4-2.3c0-4.7,0-9.5,0-14.2
	c0-1.3-0.3-1.6-1.6-1.6c-1.2,0.1-2.3,0.2-3.4,0.5c-0.6,0.2-1.1,0.8-1.6,1.3c-0.2,0.2-0.3,0.5-0.4,0.7C42.3,44,42.2,44,42.1,44z"/>
<path class="st0" d="M67.4,61c-1.5,0-2.9,0-4.4,0c0-0.1,0-0.2,0-0.2c0.8-0.7,0.8-1.5,0.8-2.5c-0.1-4.9,0-9.8,0-14.6
	c0-0.3,0.1-0.6,0.1-1c0-0.2-0.1-0.5-0.2-0.6c-0.4-0.4-0.8-0.8-1.3-1.2c1.9,0,3.6,0,5.4,0c0,0,0,0.1,0,0.1c-0.1,0.1-0.2,0.1-0.3,0.2
	c-0.6,0.4-1,0.9-1,1.7c-0.1,4.6-0.1,9.2-0.2,13.8c0,1,0.1,2,0.2,2.9C66.7,60.1,67.1,60.5,67.4,61z"/>
</svg>
