<?xml version="1.0" encoding="utf-8"?>
<!-- Generator: Adobe Illustrator 26.3.1, SVG Export Plug-In . SVG Version: 6.00 Build 0)  -->
<svg version="1.1" id="Layer_1" xmlns="http://www.w3.org/2000/svg" xmlns:xlink="http://www.w3.org/1999/xlink" x="0px" y="0px"
	 viewBox="0 0 595.3 126.9" style="enable-background:new 0 0 595.3 126.9;" xml:space="preserve">
<style type="text/css">
	.st0{display:none;fill:#FF0420;}
	.st1{display:none;fill:#FFFFFF;}
	.st2{display:none;fill:url(#SVGID_1_);}
	.st3{display:none;fill:url(#SVGID_00000119099440193055150260000017482754219644107404_);}
	.st4{display:none;fill-rule:evenodd;clip-rule:evenodd;fill:#FFFFFF;}
	.st5{display:none;fill:url(#SVGID_00000142869423059359878430000002735858813517292682_);}
	.st6{display:none;fill:url(#SVGID_00000014610787041383368650000013425848819845835912_);}
	.st7{display:none;fill:url(#SVGID_00000164506799908429879060000007854228191377442692_);}
	.st8{display:none;fill:url(#SVGID_00000072252655025744233570000007968034865902746529_);}
	.st9{display:none;fill:none;stroke:#2D2D3D;stroke-width:2;}
	.st10{display:none;}
	.st11{display:inline;fill:#01FFC8;}
	.st12{display:inline;fill:none;stroke:#01FFC8;stroke-width:0.9306;}
	.st13{display:none;enable-background:new    ;}
	.st14{font-family:'FONTSPRINGDEMO-BiennaleBoldRegular';}
	.st15{font-size:42.9327px;}
	.st16{fill:#FDFDFD;}
	.st17{fill:#2F1F49;}
	.st18{fill:#FEFEFE;}
	.st19{fill:#2E1E49;}
</style>
<path class="st0" d="M124.7,76.1c-3,0-5.4-0.7-7.3-2.1s-2.8-3.5-2.8-6.1c0-0.6,0.1-1.2,0.2-2c0.3-1.8,0.8-4,1.4-6.5
	c1.7-6.9,6.1-10.4,13.2-10.4c1.9,0,3.7,0.3,5.2,1c1.5,0.6,2.7,1.6,3.6,2.9c0.9,1.2,1.3,2.8,1.3,4.5c0,0.5-0.1,1.2-0.2,2
	c-0.4,2.2-0.8,4.4-1.4,6.5c-0.9,3.4-2.4,6-4.6,7.7C131.2,75.2,128.3,76.1,124.7,76.1L124.7,76.1z M125.2,70.6c1.4,0,2.6-0.4,3.6-1.2
	c1-0.8,1.7-2.1,2.1-3.8c0.6-2.4,1-4.4,1.3-6.2c0.1-0.5,0.1-1.1,0.1-1.6c0-2.3-1.2-3.4-3.6-3.4c-1.4,0-2.6,0.4-3.6,1.2
	s-1.7,2.1-2.1,3.8s-0.9,3.7-1.4,6.2c-0.1,0.5-0.2,1-0.2,1.6C121.6,69.5,122.8,70.6,125.2,70.6L125.2,70.6L125.2,70.6z"/>
<path class="st0" d="M143.2,75.7c-0.3,0-0.5-0.1-0.6-0.3c-0.1-0.2-0.2-0.4-0.1-0.7l5.2-24.5c0.1-0.3,0.2-0.5,0.4-0.7
	s0.5-0.3,0.7-0.3h10c2.8,0,5,0.6,6.7,1.7c1.7,1.2,2.6,2.8,2.6,5c0,0.6-0.1,1.3-0.2,2c-0.6,2.9-1.9,5-3.8,6.4
	c-1.9,1.4-4.5,2.1-7.8,2.1h-5.1l-1.7,8.2c-0.1,0.3-0.2,0.5-0.4,0.7s-0.5,0.3-0.7,0.3L143.2,75.7L143.2,75.7z M156.6,61.3
	c1.1,0,2-0.3,2.8-0.9c0.8-0.6,1.3-1.4,1.6-2.5c0.1-0.4,0.1-0.8,0.1-1.1c0-0.7-0.2-1.3-0.6-1.7c-0.4-0.4-1.1-0.6-2.2-0.6h-4.5
	l-1.4,6.7L156.6,61.3L156.6,61.3z"/>
<path class="st0" d="M176.6,75.7c-0.3,0-0.5-0.1-0.6-0.3c-0.1-0.2-0.2-0.4-0.1-0.7l4.2-19.5h-6.7c-0.3,0-0.5-0.1-0.6-0.3
	s-0.2-0.4-0.1-0.7l0.9-4c0.1-0.3,0.2-0.5,0.4-0.7s0.5-0.3,0.7-0.3H195c0.3,0,0.5,0.1,0.6,0.3s0.1,0.3,0.1,0.5c0,0.1,0,0.2,0,0.2
	l-0.9,4c-0.1,0.3-0.2,0.5-0.4,0.7s-0.4,0.3-0.7,0.3H187l-4.2,19.5c-0.1,0.3-0.2,0.5-0.4,0.7s-0.5,0.3-0.7,0.3H176.6z"/>
<path class="st0" d="M196.5,75.7c-0.3,0-0.5-0.1-0.6-0.3c-0.1-0.2-0.2-0.4-0.1-0.7l5.2-24.5c0.1-0.3,0.2-0.5,0.4-0.7
	s0.5-0.3,0.7-0.3h5.1c0.3,0,0.5,0.1,0.6,0.3s0.1,0.3,0.1,0.5c0,0.1,0,0.2,0,0.2l-5.2,24.5c-0.1,0.3-0.2,0.5-0.4,0.7
	s-0.5,0.3-0.7,0.3H196.5z"/>
<path class="st0" d="M210.8,75.7c-0.3,0-0.5-0.1-0.6-0.3c-0.1-0.2-0.2-0.4-0.1-0.7l5.2-24.5c0.1-0.3,0.2-0.5,0.4-0.7
	s0.5-0.3,0.8-0.3h4.1c0.6,0,1,0.3,1.2,0.8l4.1,11.9L235,50c0.1-0.2,0.3-0.4,0.5-0.6c0.2-0.2,0.6-0.3,0.9-0.3h4.1
	c0.3,0,0.5,0.1,0.6,0.3s0.1,0.3,0.1,0.5c0,0.1,0,0.2,0,0.2L236,74.8c-0.1,0.3-0.2,0.5-0.4,0.7s-0.5,0.3-0.7,0.3h-4.6
	c-0.3,0-0.5-0.1-0.6-0.3c-0.1-0.2-0.2-0.4-0.1-0.7l2.9-13.9l-5.8,7.6c-0.2,0.3-0.5,0.5-0.7,0.6s-0.5,0.2-0.8,0.2h-2
	c-0.5,0-0.9-0.3-1.1-0.9l-2.7-8l-3,14.2c-0.1,0.3-0.2,0.5-0.4,0.7s-0.5,0.3-0.7,0.3L210.8,75.7L210.8,75.7z"/>
<path class="st0" d="M244.1,75.7c-0.3,0-0.5-0.1-0.6-0.3c-0.1-0.2-0.2-0.4-0.1-0.7l5.2-24.5c0.1-0.3,0.2-0.5,0.4-0.7
	s0.5-0.3,0.7-0.3h5.1c0.3,0,0.5,0.1,0.6,0.3s0.1,0.3,0.1,0.5c0,0.1,0,0.2,0,0.2l-5.2,24.5c-0.1,0.3-0.2,0.5-0.4,0.7
	s-0.5,0.3-0.7,0.3H244.1z"/>
<path class="st0" d="M267.7,76.1c-2.2,0-4.1-0.3-5.7-0.9s-2.7-1.4-3.5-2.4s-1.2-2.1-1.2-3.3c0-0.2,0-0.5,0.1-0.9
	c0-0.2,0.1-0.4,0.3-0.6c0.2-0.2,0.4-0.2,0.6-0.2h4.8c0.3,0,0.5,0.1,0.7,0.2s0.4,0.3,0.5,0.5c0.2,0.7,0.6,1.2,1.2,1.6
	s1.5,0.6,2.7,0.6c1.4,0,2.6-0.2,3.5-0.7c0.9-0.4,1.4-1.1,1.6-1.8c0-0.1,0-0.2,0-0.4c0-0.6-0.4-1.1-1.2-1.5c-0.8-0.4-2.2-0.8-4.3-1.3
	c-2.4-0.5-4.3-1.3-5.5-2.4c-1.2-1.1-1.9-2.5-1.9-4.2c0-0.6,0.1-1.2,0.2-1.8c0.5-2.3,1.7-4.2,3.7-5.5s4.6-2,7.8-2
	c1.9,0,3.6,0.3,5.1,1s2.6,1.5,3.4,2.6c0.8,1,1.2,2.1,1.2,3.1c0,0.3,0,0.5,0,0.6c0,0.2-0.2,0.4-0.3,0.6c-0.1,0.2-0.3,0.2-0.6,0.2h-5
	c-0.5,0-0.9-0.2-1.1-0.6c0-0.6-0.3-1.1-0.9-1.5s-1.3-0.6-2.3-0.6c-1.1,0-2,0.2-2.8,0.6c-0.7,0.4-1.1,1-1.3,1.8c0,0.1,0,0.3,0,0.5
	c0,0.6,0.4,1.1,1,1.5c0.7,0.4,2,0.8,3.8,1.2c2.8,0.5,4.9,1.3,6.1,2.4c1.3,1,2,2.4,2,4.1c0,0.6-0.1,1.2-0.2,1.9
	c-0.5,2.6-1.9,4.5-4,5.8C274.1,75.4,271.2,76.1,267.7,76.1L267.7,76.1L267.7,76.1z"/>
<path class="st0" d="M285.4,75.7c-0.3,0-0.5-0.1-0.6-0.3c-0.1-0.2-0.2-0.4-0.1-0.7l5.2-24.5c0-0.3,0.2-0.5,0.4-0.7
	c0.2-0.2,0.5-0.3,0.8-0.3h4.1c0.6,0,1,0.3,1.2,0.8l4.1,11.9l9.1-11.9c0.1-0.2,0.3-0.4,0.5-0.6c0.2-0.2,0.5-0.3,0.9-0.3h4.1
	c0.3,0,0.5,0.1,0.6,0.3s0.1,0.3,0.1,0.5c0,0.1,0,0.2,0,0.2l-5.2,24.5c0,0.3-0.2,0.5-0.4,0.7c-0.2,0.2-0.5,0.3-0.7,0.3h-4.6
	c-0.3,0-0.5-0.1-0.6-0.3c-0.1-0.2-0.2-0.4-0.1-0.7l2.9-13.9l-5.8,7.6c-0.2,0.3-0.5,0.5-0.7,0.6s-0.5,0.2-0.8,0.2h-2
	c-0.5,0-0.9-0.3-1.1-0.9l-2.7-8l-3,14.2c0,0.3-0.2,0.5-0.4,0.7c-0.2,0.2-0.5,0.3-0.7,0.3L285.4,75.7L285.4,75.7z"/>
<path class="st1" d="M297.4,43.2l-26.2,37.5h8l26.3-37.5C305.5,43.2,297.4,43.2,297.4,43.2z"/>
<linearGradient id="SVGID_1_" gradientUnits="userSpaceOnUse" x1="277.4082" y1="20.267" x2="288.4418" y2="33.5871" gradientTransform="matrix(1 0 0 1 0 26)">
	<stop  offset="0" style="stop-color:#FFFFFF"/>
	<stop  offset="1" style="stop-color:#FFFFFF;stop-opacity:0.55"/>
</linearGradient>
<path class="st2" d="M280.1,43.2l7.7,11.1l-4,6l-11.9-17.1C271.9,43.2,280.1,43.2,280.1,43.2z"/>
<linearGradient id="SVGID_00000041265970687450091020000006532806418913096628_" gradientUnits="userSpaceOnUse" x1="300.3466" y1="51.6771" x2="286.7903" y2="33.4018" gradientTransform="matrix(1 0 0 1 0 26)">
	<stop  offset="0" style="stop-color:#6966FF"/>
	<stop  offset="1" style="stop-color:#6966FF;stop-opacity:0.36"/>
</linearGradient>
<path style="display:none;fill:url(#SVGID_00000041265970687450091020000006532806418913096628_);" d="M298.2,80.8l-8.5-12.2l4-5.9
	l12.6,18.1H298.2z"/>
<path class="st4" d="M261.8,43.2h7v37.5h-7v-1.4c-2,1.1-4.4,1.7-6.8,1.7c-7.9,0-14.3-6.4-14.3-14.2s6.4-14.2,14.3-14.2
	c2.5,0,4.8,0.6,6.8,1.7V43.2z M254.9,74.9c4.5,0,8.1-3.6,8.1-8s-3.6-8-8.1-8s-8.1,3.6-8.1,8C246.8,71.3,250.4,74.9,254.9,74.9z"/>
<path class="st1" d="M241.4,43.2l-26.2,37.5h8.2l26.1-37.5C249.5,43.2,241.4,43.2,241.4,43.2z"/>
<linearGradient id="SVGID_00000130609233872809956080000012148525161105822639_" gradientUnits="userSpaceOnUse" x1="220.6387" y1="20.4613" x2="232.0768" y2="34.448" gradientTransform="matrix(1 0 0 1 0 26)">
	<stop  offset="0" style="stop-color:#FFFFFF"/>
	<stop  offset="1" style="stop-color:#FFFFFF;stop-opacity:0.55"/>
</linearGradient>
<path style="display:none;fill:url(#SVGID_00000130609233872809956080000012148525161105822639_);" d="M223.4,43.2l8.2,11.4
	l-4.5,6.4l-12.2-17.8H223.4z"/>
<path class="st4" d="M205.8,43.2h7v37.5h-7v-1.4c-2,1.1-4.4,1.7-6.8,1.7c-7.9,0-14.3-6.4-14.3-14.2s6.4-14.2,14.3-14.2
	c2.5,0,4.8,0.6,6.8,1.7V43.2z M198.9,74.9c4.5,0,8.1-3.6,8.1-8s-3.6-8-8.1-8s-8.1,3.6-8.1,8C190.8,71.3,194.5,74.9,198.9,74.9z"/>
<linearGradient id="SVGID_00000068675672904052876890000009879114367775702710_" gradientUnits="userSpaceOnUse" x1="157.39" y1="8.4349" x2="147.7309" y2="48.5905" gradientTransform="matrix(1 0 0 1 0 26)">
	<stop  offset="0" style="stop-color:#2C2C3D"/>
	<stop  offset="1" style="stop-color:#1A1A27"/>
</linearGradient>
<path style="display:none;fill:url(#SVGID_00000068675672904052876890000009879114367775702710_);" d="M139.4,41.4h23.2
	c4.4,0,8,3.6,8,8v23.2c0,4.4-3.6,8-8,8h-23.2c-4.4,0-8-3.6-8-8V49.4C131.4,45,135,41.4,139.4,41.4z"/>
<path class="st1" d="M156.2,50.5L140.9,72h4.7L161,50.5H156.2z"/>
<linearGradient id="SVGID_00000026127417743103995490000005618721264870397883_" gradientUnits="userSpaceOnUse" x1="144.5832" y1="26.1852" x2="150.8789" y2="33.9196" gradientTransform="matrix(1 0 0 1 0 26)">
	<stop  offset="0" style="stop-color:#FFFFFF"/>
	<stop  offset="1" style="stop-color:#FFFFFF;stop-opacity:0.55"/>
</linearGradient>
<path style="display:none;fill:url(#SVGID_00000026127417743103995490000005618721264870397883_);" d="M146.1,50.5l4.5,6.3l-2.3,3.5
	l-6.9-9.8H146.1z"/>
<linearGradient id="SVGID_00000054948960749469682850000010034486473675156908_" gradientUnits="userSpaceOnUse" x1="157.7907" y1="44.2856" x2="150.0696" y2="33.6931" gradientTransform="matrix(1 0 0 1 0 26)">
	<stop  offset="0" style="stop-color:#6966FF"/>
	<stop  offset="1" style="stop-color:#6966FF;stop-opacity:0.36"/>
</linearGradient>
<path style="display:none;fill:url(#SVGID_00000054948960749469682850000010034486473675156908_);" d="M156.6,72l-5-7l2.3-3.4
	l7.3,10.4H156.6z"/>
<path class="st9" d="M139.4,41.4h23.2c4.4,0,8,3.6,8,8v23.2c0,4.4-3.6,8-8,8h-23.2c-4.4,0-8-3.6-8-8V49.4
	C131.4,45,135,41.4,139.4,41.4z"/>
<g class="st10">
	<path class="st11" d="M183.1,43.2c0.5,0,1,0.3,1.2,0.7c0.2,0.5,0.2,1-0.1,1.4l-22.3,27.9c-0.2,0.2-0.3,0.3-0.5,0.4
		c-0.4,0.2-0.8,0.2-1.2,0c-0.5-0.3-0.9-0.9-0.7-1.5l4-15.4L147,56.8c-0.5,0-1-0.3-1.2-0.7s-0.2-1,0.1-1.4l22.3-27.9
		c0.4-0.5,1-0.7,1.6-0.4c0.6,0.2,0.9,0.9,0.7,1.5l-4,15.4L183.1,43.2z"/>
</g>
<g class="st10">
	<path class="st12" d="M183.1,43.9c0.5,0,4.5,2.1,4.7,2.6s0.2,1-0.1,1.4l-22.5,28.2c-0.2,0.2-0.3,0.3-0.5,0.4
		c-0.4,0.2-0.8,0.2-1.2,0c-0.5-0.3-3.9-3-3.7-3.6l7.3-11.8h-15.8c-0.5,0-5.5-4.8-5.3-5.2c10.6-13.5,18.1-23.1,22.6-28.7
		c0.7-0.9,4.1,1.4,4.6,1.7c0.6,0.2,0.9,0.9,0.7,1.5L170,45.8L183.1,43.9z"/>
</g>
<text transform="matrix(1 0 0 1 198.8495 67.3554)" class="st13 st14 st15">Fuel Network</text>
<g>
	<g>
		<path class="st16" d="M129.4,92.3c-9,0-17.9,0-26.9,0c0-18.6,0-37.1,0-55.7c0-0.2,0-0.4,0.3-0.3c0,0,0.1,0,0.1,0
			c72.3,0,144.6,0,216.9,0c0.4,0,0.4,0.1,0.4,0.4c0,18.4,0,36.8,0,55.2c0,0.3-0.1,0.4-0.4,0.4c-62.8,0-125.5,0-188.3,0
			c0-0.2,0.2-0.2,0.3-0.2c1.9-0.3,3.5-1.3,4.9-2.7c6.4-6.4,12.8-12.8,19.2-19.2c1.3-1.3,2.2-2.9,2.4-4.8c0.2-2.3-0.3-4.3-1.8-6.1
			c-0.4-0.5-0.8-0.9-1.3-1.3c-6.3-6.3-12.6-12.5-18.9-18.8c-1.3-1.3-2.9-2.2-4.8-2.5c-2.3-0.3-4.4,0.2-6.2,1.7
			c-0.5,0.4-0.9,0.8-1.3,1.3c-6.3,6.3-12.7,12.7-19,19c-1.7,1.7-2.6,3.7-2.5,6.1c0.1,1.8,0.7,3.3,1.8,4.7c0.4,0.5,0.8,0.9,1.2,1.3
			c6.3,6.3,12.7,12.6,19,19c1.2,1.2,2.6,2.1,4.4,2.4C129.1,92,129.3,92,129.4,92.3z"/>
		<path class="st17" d="M129.4,92.3c-0.3-0.2-0.6-0.2-0.9-0.3c-1.4-0.4-2.6-1.1-3.6-2.1c-6.7-6.7-13.3-13.3-20-20
			c-3.1-3.1-3.1-8.2,0-11.3c6.7-6.6,13.3-13.3,20-19.9c3.2-3.1,8.2-3.2,11.4,0c6.7,6.6,13.3,13.3,20,19.9c3.2,3.2,3.1,8.2-0.1,11.4
			c-6.6,6.6-13.3,13.3-19.9,19.9c-1.3,1.3-2.8,2-4.6,2.3c-0.1,0-0.1,0-0.1,0.1C130.8,92.3,130.1,92.3,129.4,92.3z"/>
		<path class="st17" d="M208.9,85.4c-0.2,0-0.3,0-0.5,0c-2.2,0-4.4,0-6.7,0c-0.3,0-0.5-0.1-0.6-0.4c-1.1-2.9-2.2-5.8-3.3-8.8
			c-0.1-0.4-0.3-0.5-0.7-0.5c-5.7,0-11.5,0-17.2,0c-0.4,0-0.5,0.1-0.6,0.4c-1.1,2.9-2.2,5.9-3.3,8.8c-0.1,0.2-0.2,0.4-0.5,0.4
			c-2.3,0-4.6,0-6.9,0c-0.1,0-0.1,0-0.2,0c0.4-1,0.7-2,1.1-2.9c4.9-12.9,9.8-25.8,14.7-38.8c0.1-0.3,0.2-0.4,0.6-0.4
			c2.6,0,5.1,0,7.7,0c0.3,0,0.5,0.1,0.6,0.4c5.2,13.7,10.4,27.5,15.6,41.2C208.7,85,208.8,85.2,208.9,85.4z"/>
		<path class="st17" d="M277.9,71.6c-3.4,0-6.9,0-10.3,0c-0.4,0-0.5,0.1-0.4,0.5c0.4,2.7,1.4,5,3.6,6.7c3.2,2.3,8.2,1.7,10.5-1.3
			c0.5-0.6,0.8-1.2,1-2c0.1-0.2,0.2-0.3,0.4-0.2c1.8,0.7,3.6,1.4,5.4,2.1c0.3,0.1,0.3,0.2,0.2,0.5c-2,4.5-5.4,7.2-10.3,8
			c-3.5,0.6-6.8,0.2-10-1.4c-3.8-2-6.1-5.2-7.1-9.2c-1.2-4.4-0.9-8.7,1-12.9c2.6-5.5,8.2-8.8,14.3-8.2c3.2,0.3,6,1.4,8.3,3.8
			c1.8,1.9,2.9,4.2,3.5,6.7c0.6,2.2,0.5,4.5,0.5,6.8c0,0.2-0.1,0.3-0.3,0.3c-0.1,0-0.2,0-0.3,0C284.7,71.6,281.3,71.6,277.9,71.6z"
			/>
		<path class="st17" d="M228,60.7c-0.2-0.1-0.4-0.1-0.5-0.1c-5.1,0-10.1,0-15.2,0c-0.4,0-0.5-0.1-0.5-0.5c0-1.7,0-3.4,0-5.1
			c0-0.3,0.1-0.4,0.4-0.4c8,0,15.9,0,23.9,0c0.3,0,0.4,0.1,0.4,0.4c0,1.5,0,3.1,0,4.6c0,0.2-0.1,0.4-0.2,0.6
			c-5.2,6.3-10.4,12.6-15.6,18.9c0,0.1-0.1,0.1-0.2,0.2c0.2,0.1,0.3,0.1,0.5,0.1c5.1,0,10.2,0,15.2,0c0.4,0,0.5,0.1,0.5,0.5
			c0,1.7,0,3.4,0,5.1c0,0.3-0.1,0.4-0.4,0.4c-8.1,0-16.3,0-24.4,0c-0.3,0-0.4-0.1-0.4-0.4c0-1.5,0-3,0-4.5c0-0.3,0.1-0.5,0.3-0.7
			c5.1-6,10.2-12,15.3-18C227.3,61.4,227.6,61,228,60.7z"/>
		<path class="st17" d="M314.1,74.1c2,1,3.9,2,5.9,3c0.2,0.1,0.1,0.3,0.1,0.4c-1.1,3-3,5.3-5.9,6.9c-2,1.1-4.2,1.6-6.5,1.7
			c-3.7,0.1-7.1-0.8-10.1-3.2c-2.8-2.2-4.4-5.1-5.1-8.6c-0.9-4-0.7-7.9,1-11.6c2.2-4.9,6-7.7,11.3-8.5c3.6-0.5,7,0,10.1,2
			c2.4,1.5,4,3.6,5,6.3c0.1,0.3,0,0.4-0.2,0.5c-1.8,1-3.6,1.9-5.4,2.9c-0.3,0.1-0.3,0.1-0.4-0.2c-0.5-1.8-1.4-3.3-3-4.4
			c-3.2-2.2-7.9-1.2-10.2,2.1c-1.2,1.8-1.7,3.8-1.7,5.8c-0.1,2.6,0.2,5.1,1.6,7.3c2.5,4,7.9,4.3,10.7,2c1.3-1.1,2.1-2.5,2.6-4.1
			C314.1,74.3,314.1,74.2,314.1,74.1z"/>
		<path class="st17" d="M243.7,69.9c0-2.9,0-5.9,0-8.8c0-0.4-0.1-0.5-0.5-0.5c-1.2,0-2.3,0-3.5,0c-0.3,0-0.4-0.1-0.4-0.4
			c0-1.8,0-3.5,0-5.3c0-0.3,0.1-0.4,0.4-0.4c1.2,0,2.3,0,3.5,0c0.4,0,0.5-0.1,0.5-0.5c0-2.7,0-5.4,0-8.1c0-0.4,0.1-0.4,0.4-0.4
			c2,0,4,0,6,0c0.4,0,0.5,0.1,0.5,0.5c0,2.7,0,5.4,0,8.1c0,0.4,0.1,0.4,0.4,0.4c1.9,0,3.7,0,5.6,0c0.3,0,0.5,0.1,0.5,0.4
			c0,1.7,0,3.4,0,5.2c0,0.3-0.1,0.4-0.4,0.4c-1.9,0-3.7,0-5.6,0c-0.4,0-0.4,0.1-0.4,0.5c0,5.1,0,10.3,0,15.4c0,0.2,0,0.4,0,0.6
			c0.2,1.6,1,2.3,2.6,2.4c1.3,0.1,2.5,0.1,3.8-0.1c0.6-0.1,0.6-0.1,0.6,0.5c0,1.7,0,3.4,0,5c0,0.2,0.1,0.4-0.3,0.4
			c-3,0.4-5.9,0.6-8.9-0.1c-2.7-0.7-4.1-2.5-4.6-5.1c-0.1-0.8-0.2-1.6-0.2-2.5C243.7,75.1,243.7,72.5,243.7,69.9z"/>
		<path class="st18" d="M130.8,85.3c-0.9,0-1.4-0.3-1.8-0.7c-4.4-4.4-8.8-8.7-13.1-13.1c-1.9-1.9-3.8-3.8-5.7-5.7c-1-1-1-2.1,0-3.1
			c6.3-6.3,12.6-12.6,18.9-18.8c0.9-0.9,2.1-0.9,3.1,0c6.3,6.3,12.6,12.5,18.8,18.8c0.9,0.9,1,2.1,0,3c-6.3,6.3-12.6,12.6-18.9,18.8
			C131.6,85.1,131.1,85.4,130.8,85.3z"/>
		<path class="st18" d="M188.5,51.7c2.2,5.9,4.4,11.7,6.7,17.5c-4.4,0-8.8,0-13.2,0C184.1,63.3,186.3,57.5,188.5,51.7z"/>
		<path class="st18" d="M274.5,66.3c-2.2,0-4.4,0-6.6,0c-0.5,0-0.5,0-0.3-0.5c0.7-2.2,1.9-4.1,4.1-5.1c2.1-1,4.3-1,6.5-0.1
			c2.3,1,3.2,2.9,3.4,5.3c0,0.4-0.2,0.3-0.4,0.3C279,66.3,276.7,66.3,274.5,66.3z"/>
		<path class="st17" d="M130.5,52c0.3,0,0.4,0.2,0.6,0.3c2.2,2.2,4.5,4.5,6.7,6.7c1.6,1.6,3.1,3.1,4.7,4.7c0.5,0.5,0.5,0.7,0,1.1
			c-3.8,3.8-7.6,7.6-11.4,11.4c-0.5,0.5-0.6,0.5-1.1,0c-3.8-3.8-7.6-7.6-11.4-11.4c-0.5-0.5-0.5-0.7,0-1.1
			c3.8-3.8,7.6-7.6,11.4-11.4C130.1,52.2,130.3,52,130.5,52z"/>
	</g>
</g>
<g>
	<g>
		<path class="st19" d="M357.6,61.2h-6.9v22h-6.9v-22h-6.9V55h20.9L357.6,61.2L357.6,61.2L357.6,61.2z"/>
		<path class="st19" d="M381.8,73.3c0,3-1,5.3-3.1,7.3c-2.1,2-4.6,2.8-7.7,2.8s-5.5-0.8-7.6-2.7c-2.1-2-3.1-4.4-3.1-7.3v-9.8h6.9
			v9.6c0,1.3,0.3,2.3,0.9,3c0.6,0.7,1.6,1,2.7,1c1.2,0,2.1-0.4,2.7-1c0.6-0.7,1-1.8,1-3v-9.6h6.9L381.8,73.3
			C381.9,73.3,381.8,73.3,381.8,73.3z"/>
		<path class="st19" d="M407.2,83.3h-8.1l-5-10.5h-2.3v10.5h-6.9V55h11.1c2.9,0,5.3,0.9,7.1,2.8c1.7,1.7,2.4,3.8,2.4,6.3
			c0,3.5-1.6,5.9-4.6,7.3C401,71.4,407.2,83.3,407.2,83.3z M398.7,64.1c0-0.7-0.3-1.4-0.8-2s-1.3-0.8-2.2-0.8h-3.9v5.7h3.9
			c0.8,0,1.6-0.3,2.2-0.8C398.4,65.6,398.7,64.8,398.7,64.1z"/>
		<path class="st19" d="M433.9,83.3h-8.2l-6.5-11.5l-2.3,2.7v8.8h-6.8V55h6.8v10l8.2-10h8.5l-9.6,11.4L433.9,83.3L433.9,83.3
			L433.9,83.3z"/>
		<path class="st19" d="M443.8,83.3h-6.9V63.5h6.9V83.3z"/>
		<path class="st19" d="M443.8,61.3h-6.9V55h6.9V61.3z"/>
		<path class="st19" d="M381.8,61.3h-6.9V55h6.9V61.3z"/>
		<path class="st19" d="M367.3,61.3h-6.9V55h6.9V61.3z"/>
		<path class="st19" d="M470.7,55l-8.5,16.8v11.4h-6.9V71.8L446.8,55h7.6l4.4,10.2l4.4-10.2H470.7L470.7,55z"/>
		<path class="st19" d="M492.8,83.3h-19.2V55h19.2v6.2h-12.3v4.7h10.5v6.2h-10.5v5h12.3V83.3L492.8,83.3L492.8,83.3z"/>
	</g>
	<rect x="330.4" y="53.4" class="st19" width="1" height="31.7"/>
</g>
</svg>
