<?xml version="1.0" encoding="utf-8"?>
<!-- Generator: Adobe Illustrator 26.3.1, SVG Export Plug-In . SVG Version: 6.00 Build 0)  -->
<svg version="1.1" id="Layer_1" xmlns="http://www.w3.org/2000/svg" xmlns:xlink="http://www.w3.org/1999/xlink" x="0px" y="0px"
	 viewBox="0 0 595.3 126.9" style="enable-background:new 0 0 595.3 126.9;" xml:space="preserve">
<style type="text/css">
	.st0{fill:#6864FA;}
	.st1{display:none;fill:#FF0420;}
	.st2{fill:#FFFFFF;}
	.st3{fill:url(#SVGID_1_);}
	.st4{fill:url(#SVGID_00000177472090991443545080000015561838479930519984_);}
	.st5{fill-rule:evenodd;clip-rule:evenodd;fill:#FFFFFF;}
	.st6{fill:url(#SVGID_00000006683420841327136230000006691712199390922415_);}
	.st7{fill:url(#SVGID_00000050627944478749385420000013965781916358121391_);}
	.st8{fill:url(#SVGID_00000051381934688785425180000008333569734114822293_);}
	.st9{fill:url(#SVGID_00000040555059433028577670000011316819339388173234_);}
	.st10{fill:none;stroke:#2D2D3D;stroke-width:2;}
</style>
<g>
	<g>
		<path class="st0" d="M346.8,55h-6.6v21h-6.6V55h-6.6v-5.9h19.9L346.8,55L346.8,55L346.8,55z"/>
		<path class="st0" d="M369.9,66.6c0,2.9-1,5.1-3,7s-4.4,2.7-7.3,2.7s-5.2-0.8-7.2-2.6c-2-1.9-3-4.2-3-7v-9.3h6.6v9.2
			c0,1.2,0.3,2.2,0.9,2.9s1.5,1,2.6,1s2-0.4,2.6-1c0.6-0.7,1-1.7,1-2.9v-9.2h6.6L369.9,66.6C370,66.6,369.9,66.6,369.9,66.6z"/>
		<path class="st0" d="M394.1,76.1h-7.7l-4.8-10h-2.2v10h-6.6v-27h10.6c2.8,0,5.1,0.9,6.8,2.7c1.6,1.6,2.3,3.6,2.3,6
			c0,3.3-1.5,5.6-4.4,7C388.2,64.8,394.1,76.1,394.1,76.1z M386,57.8c0-0.7-0.3-1.3-0.8-1.9s-1.2-0.8-2.1-0.8h-3.7v5.4h3.7
			c0.8,0,1.5-0.3,2.1-0.8C385.7,59.2,386,58.5,386,57.8z"/>
		<path class="st0" d="M419.6,76.1h-7.8l-6.2-11l-2.2,2.6v8.4h-6.5v-27h6.5v9.5l7.8-9.5h8.1L410.1,60L419.6,76.1L419.6,76.1
			L419.6,76.1z"/>
		<path class="st0" d="M429,76.1h-6.6V57.2h6.6V76.1z"/>
		<path class="st0" d="M429,55.1h-6.6v-6h6.6V55.1z"/>
		<path class="st0" d="M369.9,55.1h-6.6v-6h6.6V55.1z"/>
		<path class="st0" d="M356.1,55.1h-6.6v-6h6.6V55.1z"/>
		<path class="st0" d="M454.7,49.1l-8.1,16V76h-6.6V65.1l-8.1-16h7.2l4.2,9.7l4.2-9.7L454.7,49.1L454.7,49.1z"/>
		<path class="st0" d="M475.8,76.1h-18.3v-27h18.3V55h-11.7v4.5h10v5.9h-10v4.8h11.7V76.1L475.8,76.1L475.8,76.1z"/>
	</g>
	<rect x="320.9" y="47.6" class="st0" width="1" height="30.2"/>
</g>
<path class="st1" d="M124.7,76.1c-3,0-5.4-0.7-7.3-2.1c-1.9-1.4-2.8-3.5-2.8-6.1c0-0.6,0.1-1.2,0.2-2c0.3-1.8,0.8-4,1.4-6.5
	c1.7-6.9,6.1-10.4,13.2-10.4c1.9,0,3.7,0.3,5.2,1c1.5,0.6,2.7,1.6,3.6,2.9c0.9,1.2,1.3,2.8,1.3,4.5c0,0.5-0.1,1.2-0.2,2
	c-0.4,2.2-0.8,4.4-1.4,6.5c-0.9,3.4-2.4,6-4.6,7.7C131.2,75.2,128.3,76.1,124.7,76.1C124.7,76.1,124.7,76.1,124.7,76.1z M125.2,70.6
	c1.4,0,2.6-0.4,3.6-1.2c1-0.8,1.7-2.1,2.1-3.8c0.6-2.4,1-4.4,1.3-6.2c0.1-0.5,0.1-1.1,0.1-1.6c0-2.3-1.2-3.4-3.6-3.4
	c-1.4,0-2.6,0.4-3.6,1.2c-1,0.8-1.7,2.1-2.1,3.8c-0.4,1.7-0.9,3.7-1.4,6.2c-0.1,0.5-0.2,1-0.2,1.6C121.6,69.5,122.8,70.6,125.2,70.6
	L125.2,70.6L125.2,70.6z"/>
<path class="st1" d="M143.2,75.7c-0.3,0-0.5-0.1-0.6-0.3c-0.1-0.2-0.2-0.4-0.1-0.7l5.2-24.5c0.1-0.3,0.2-0.5,0.4-0.7
	c0.2-0.2,0.5-0.3,0.7-0.3h10c2.8,0,5,0.6,6.7,1.7c1.7,1.2,2.6,2.8,2.6,5c0,0.6-0.1,1.3-0.2,2c-0.6,2.9-1.9,5-3.8,6.4
	c-1.9,1.4-4.5,2.1-7.8,2.1h-5.1l-1.7,8.2c-0.1,0.3-0.2,0.5-0.4,0.7c-0.2,0.2-0.5,0.3-0.7,0.3L143.2,75.7L143.2,75.7z M156.6,61.3
	c1.1,0,2-0.3,2.8-0.9c0.8-0.6,1.3-1.4,1.6-2.5c0.1-0.4,0.1-0.8,0.1-1.1c0-0.7-0.2-1.3-0.6-1.7c-0.4-0.4-1.1-0.6-2.2-0.6h-4.5
	l-1.4,6.7H156.6L156.6,61.3z"/>
<path class="st1" d="M176.6,75.7c-0.3,0-0.5-0.1-0.6-0.3c-0.1-0.2-0.2-0.4-0.1-0.7l4.2-19.5h-6.7c-0.3,0-0.5-0.1-0.6-0.3
	c-0.1-0.2-0.2-0.4-0.1-0.7l0.9-4c0.1-0.3,0.2-0.5,0.4-0.7c0.2-0.2,0.5-0.3,0.7-0.3h20.3c0.3,0,0.5,0.1,0.6,0.3
	c0.1,0.2,0.1,0.3,0.1,0.5c0,0.1,0,0.2,0,0.2l-0.9,4c-0.1,0.3-0.2,0.5-0.4,0.7c-0.2,0.2-0.4,0.3-0.7,0.3h-6.7l-4.2,19.5
	c-0.1,0.3-0.2,0.5-0.4,0.7c-0.2,0.2-0.5,0.3-0.7,0.3H176.6z"/>
<path class="st1" d="M196.5,75.7c-0.3,0-0.5-0.1-0.6-0.3c-0.1-0.2-0.2-0.4-0.1-0.7l5.2-24.5c0.1-0.3,0.2-0.5,0.4-0.7
	c0.2-0.2,0.5-0.3,0.7-0.3h5.1c0.3,0,0.5,0.1,0.6,0.3c0.1,0.2,0.1,0.3,0.1,0.5c0,0.1,0,0.2,0,0.2l-5.2,24.5c-0.1,0.3-0.2,0.5-0.4,0.7
	c-0.2,0.2-0.5,0.3-0.7,0.3H196.5z"/>
<path class="st1" d="M210.8,75.7c-0.3,0-0.5-0.1-0.6-0.3c-0.1-0.2-0.2-0.4-0.1-0.7l5.2-24.5c0.1-0.3,0.2-0.5,0.4-0.7
	c0.2-0.2,0.5-0.3,0.8-0.3h4.1c0.6,0,1,0.3,1.2,0.8l4.1,11.9l9.1-11.9c0.1-0.2,0.3-0.4,0.5-0.6c0.2-0.2,0.6-0.3,0.9-0.3h4.1
	c0.3,0,0.5,0.1,0.6,0.3c0.1,0.2,0.1,0.3,0.1,0.5c0,0.1,0,0.2,0,0.2L236,74.8c-0.1,0.3-0.2,0.5-0.4,0.7c-0.2,0.2-0.5,0.3-0.7,0.3
	h-4.6c-0.3,0-0.5-0.1-0.6-0.3c-0.1-0.2-0.2-0.4-0.1-0.7l2.9-13.9l-5.8,7.6c-0.2,0.3-0.5,0.5-0.7,0.6s-0.5,0.2-0.8,0.2h-2
	c-0.5,0-0.9-0.3-1.1-0.9l-2.7-8l-3,14.2c-0.1,0.3-0.2,0.5-0.4,0.7c-0.2,0.2-0.5,0.3-0.7,0.3L210.8,75.7L210.8,75.7z"/>
<path class="st1" d="M244.1,75.7c-0.3,0-0.5-0.1-0.6-0.3c-0.1-0.2-0.2-0.4-0.1-0.7l5.2-24.5c0.1-0.3,0.2-0.5,0.4-0.7
	c0.2-0.2,0.5-0.3,0.7-0.3h5.1c0.3,0,0.5,0.1,0.6,0.3c0.1,0.2,0.1,0.3,0.1,0.5c0,0.1,0,0.2,0,0.2l-5.2,24.5c-0.1,0.3-0.2,0.5-0.4,0.7
	c-0.2,0.2-0.5,0.3-0.7,0.3H244.1z"/>
<path class="st1" d="M267.7,76.1c-2.2,0-4.1-0.3-5.7-0.9c-1.6-0.6-2.7-1.4-3.5-2.4c-0.8-1-1.2-2.1-1.2-3.3c0-0.2,0-0.5,0.1-0.9
	c0-0.2,0.1-0.4,0.3-0.6c0.2-0.2,0.4-0.2,0.6-0.2h4.8c0.3,0,0.5,0.1,0.7,0.2c0.2,0.1,0.4,0.3,0.5,0.5c0.2,0.7,0.6,1.2,1.2,1.6
	c0.6,0.4,1.5,0.6,2.7,0.6c1.4,0,2.6-0.2,3.5-0.7c0.9-0.4,1.4-1.1,1.6-1.8c0-0.1,0-0.2,0-0.4c0-0.6-0.4-1.1-1.2-1.5
	c-0.8-0.4-2.2-0.8-4.3-1.3c-2.4-0.5-4.3-1.3-5.5-2.4c-1.2-1.1-1.9-2.5-1.9-4.2c0-0.6,0.1-1.2,0.2-1.8c0.5-2.3,1.7-4.2,3.7-5.5
	c2-1.3,4.6-2,7.8-2c1.9,0,3.6,0.3,5.1,1c1.5,0.7,2.6,1.5,3.4,2.6c0.8,1,1.2,2.1,1.2,3.1c0,0.3,0,0.5,0,0.6c0,0.2-0.2,0.4-0.3,0.6
	c-0.1,0.2-0.3,0.2-0.6,0.2h-5c-0.5,0-0.9-0.2-1.1-0.6c0-0.6-0.3-1.1-0.9-1.5c-0.6-0.4-1.3-0.6-2.3-0.6c-1.1,0-2,0.2-2.8,0.6
	c-0.7,0.4-1.1,1-1.3,1.8c0,0.1,0,0.3,0,0.5c0,0.6,0.4,1.1,1,1.5c0.7,0.4,2,0.8,3.8,1.2c2.8,0.5,4.9,1.3,6.1,2.4c1.3,1,2,2.4,2,4.1
	c0,0.6-0.1,1.2-0.2,1.9c-0.5,2.6-1.9,4.5-4,5.8C274.1,75.4,271.2,76.1,267.7,76.1L267.7,76.1L267.7,76.1z"/>
<path class="st1" d="M285.4,75.7c-0.3,0-0.5-0.1-0.6-0.3c-0.1-0.2-0.2-0.4-0.1-0.7l5.2-24.5c0-0.3,0.2-0.5,0.4-0.7
	c0.2-0.2,0.5-0.3,0.8-0.3h4.1c0.6,0,1,0.3,1.2,0.8l4.1,11.9l9.1-11.9c0.1-0.2,0.3-0.4,0.5-0.6c0.2-0.2,0.5-0.3,0.9-0.3h4.1
	c0.3,0,0.5,0.1,0.6,0.3c0.1,0.2,0.1,0.3,0.1,0.5c0,0.1,0,0.2,0,0.2l-5.2,24.5c0,0.3-0.2,0.5-0.4,0.7c-0.2,0.2-0.5,0.3-0.7,0.3h-4.6
	c-0.3,0-0.5-0.1-0.6-0.3c-0.1-0.2-0.2-0.4-0.1-0.7l2.9-13.9l-5.8,7.6c-0.2,0.3-0.5,0.5-0.7,0.6s-0.5,0.2-0.8,0.2h-2
	c-0.5,0-0.9-0.3-1.1-0.9l-2.7-8l-3,14.2c0,0.3-0.2,0.5-0.4,0.7c-0.2,0.2-0.5,0.3-0.7,0.3L285.4,75.7L285.4,75.7z"/>
<path class="st2" d="M297.4,43.2l-26.2,37.5h8l26.3-37.5H297.4z"/>
<linearGradient id="SVGID_1_" gradientUnits="userSpaceOnUse" x1="277.3654" y1="79.6975" x2="288.399" y2="66.3774" gradientTransform="matrix(1 0 0 -1 0 126)">
	<stop  offset="0" style="stop-color:#FFFFFF"/>
	<stop  offset="1" style="stop-color:#FFFFFF;stop-opacity:0.55"/>
</linearGradient>
<path class="st3" d="M280.1,43.2l7.7,11.1l-4,6l-11.9-17.1H280.1z"/>
<linearGradient id="SVGID_00000036932560740460777510000017287714235556357505_" gradientUnits="userSpaceOnUse" x1="300.3256" y1="48.3073" x2="286.7693" y2="66.5826" gradientTransform="matrix(1 0 0 -1 0 126)">
	<stop  offset="0" style="stop-color:#6966FF"/>
	<stop  offset="1" style="stop-color:#6966FF;stop-opacity:0.36"/>
</linearGradient>
<path style="fill:url(#SVGID_00000036932560740460777510000017287714235556357505_);" d="M298.2,80.8l-8.5-12.2l4-5.9l12.6,18.1
	H298.2z"/>
<path class="st5" d="M261.8,43.2h7v37.5h-7v-1.4c-2,1.1-4.4,1.7-6.8,1.7c-7.9,0-14.3-6.4-14.3-14.2s6.4-14.2,14.3-14.2
	c2.5,0,4.8,0.6,6.8,1.7V43.2z M254.9,74.9c4.5,0,8.1-3.6,8.1-8c0-4.4-3.6-8-8.1-8c-4.5,0-8.1,3.6-8.1,8
	C246.8,71.3,250.4,74.9,254.9,74.9z"/>
<path class="st2" d="M241.4,43.2l-26.2,37.5h8.2l26.1-37.5H241.4z"/>
<linearGradient id="SVGID_00000128473526223964870370000012833576922159717525_" gradientUnits="userSpaceOnUse" x1="220.6426" y1="79.5419" x2="232.0807" y2="65.5552" gradientTransform="matrix(1 0 0 -1 0 126)">
	<stop  offset="0" style="stop-color:#FFFFFF"/>
	<stop  offset="1" style="stop-color:#FFFFFF;stop-opacity:0.55"/>
</linearGradient>
<path style="fill:url(#SVGID_00000128473526223964870370000012833576922159717525_);" d="M223.4,43.2l8.2,11.4l-4.5,6.4l-12.2-17.8
	H223.4z"/>
<path class="st5" d="M205.8,43.2h7v37.5h-7v-1.4c-2,1.1-4.4,1.7-6.8,1.7c-7.9,0-14.3-6.4-14.3-14.2s6.4-14.2,14.3-14.2
	c2.5,0,4.8,0.6,6.8,1.7V43.2z M198.9,74.9c4.5,0,8.1-3.6,8.1-8c0-4.4-3.6-8-8.1-8s-8.1,3.6-8.1,8C190.8,71.3,194.5,74.9,198.9,74.9z
	"/>
<linearGradient id="SVGID_00000119115063639194773720000014892855289672681103_" gradientUnits="userSpaceOnUse" x1="157.413" y1="91.5596" x2="147.7539" y2="51.404" gradientTransform="matrix(1 0 0 -1 0 126)">
	<stop  offset="0" style="stop-color:#2C2C3D"/>
	<stop  offset="1" style="stop-color:#1A1A27"/>
</linearGradient>
<path style="fill:url(#SVGID_00000119115063639194773720000014892855289672681103_);" d="M139.4,41.4h23.2c4.4,0,8,3.6,8,8v23.2
	c0,4.4-3.6,8-8,8h-23.2c-4.4,0-8-3.6-8-8V49.4C131.4,45,135,41.4,139.4,41.4z"/>
<path class="st2" d="M156.2,50.5L140.9,72h4.7L161,50.5H156.2z"/>
<linearGradient id="SVGID_00000105424602680443515250000006782466118154633607_" gradientUnits="userSpaceOnUse" x1="144.584" y1="73.8154" x2="150.8797" y2="66.081" gradientTransform="matrix(1 0 0 -1 0 126)">
	<stop  offset="0" style="stop-color:#FFFFFF"/>
	<stop  offset="1" style="stop-color:#FFFFFF;stop-opacity:0.55"/>
</linearGradient>
<path style="fill:url(#SVGID_00000105424602680443515250000006782466118154633607_);" d="M146.1,50.5l4.5,6.3l-2.3,3.5l-6.9-9.8
	H146.1z"/>
<linearGradient id="SVGID_00000061451933534506034940000015866440027409265329_" gradientUnits="userSpaceOnUse" x1="157.8487" y1="55.7567" x2="150.1276" y2="66.3492" gradientTransform="matrix(1 0 0 -1 0 126)">
	<stop  offset="0" style="stop-color:#6966FF"/>
	<stop  offset="1" style="stop-color:#6966FF;stop-opacity:0.36"/>
</linearGradient>
<path style="fill:url(#SVGID_00000061451933534506034940000015866440027409265329_);" d="M156.6,72l-5-7l2.3-3.4l7.3,10.4H156.6z"/>
<path class="st10" d="M139.4,41.4h23.2c4.4,0,8,3.6,8,8v23.2c0,4.4-3.6,8-8,8h-23.2c-4.4,0-8-3.6-8-8V49.4
	C131.4,45,135,41.4,139.4,41.4z"/>
</svg>
