<?xml version="1.0" encoding="utf-8"?>
<!-- Generator: Adobe Illustrator 26.3.1, SVG Export Plug-In . SVG Version: 6.00 Build 0)  -->
<svg version="1.1" id="Layer_1" xmlns="http://www.w3.org/2000/svg" xmlns:xlink="http://www.w3.org/1999/xlink" x="0px" y="0px"
	 viewBox="0 0 595.3 126.9" style="enable-background:new 0 0 595.3 126.9;" xml:space="preserve">
<style type="text/css">
	.st0{display:none;fill:#FF0420;}
	.st1{fill:#FFFFFF;}
	.st2{fill:url(#SVGID_1_);}
	.st3{fill:url(#SVGID_00000088095559036194191220000013747909104115582143_);}
	.st4{fill-rule:evenodd;clip-rule:evenodd;fill:#FFFFFF;}
	.st5{fill:url(#SVGID_00000003805016376407019580000003413855856596948363_);}
	.st6{fill:url(#SVGID_00000093894735844531103190000001786200911100130193_);}
	.st7{fill:url(#SVGID_00000100348523402089242270000000058074956472602801_);}
	.st8{fill:url(#SVGID_00000081643731809873793420000014892549754168399796_);}
	.st9{fill:none;stroke:#2D2D3D;stroke-width:2;}
</style>
<g>
	<g>
		<path d="M345.7,52.9h-6.6v21h-6.6v-21h-6.6V47h19.9L345.7,52.9L345.7,52.9L345.7,52.9z"/>
		<path d="M368.9,64.4c0,2.9-1,5.1-3,7s-4.4,2.7-7.3,2.7s-5.2-0.8-7.2-2.6c-2-1.9-3-4.2-3-7v-9.3h6.6v9.2c0,1.2,0.3,2.2,0.9,2.9
			s1.5,1,2.6,1s2-0.4,2.6-1c0.6-0.7,1-1.7,1-2.9v-9.2h6.6L368.9,64.4C368.9,64.4,368.9,64.4,368.9,64.4z"/>
		<path d="M393,74h-7.7l-4.8-10h-2.2v10h-6.6V47h10.6c2.8,0,5.1,0.9,6.8,2.7c1.6,1.6,2.3,3.6,2.3,6c0,3.3-1.5,5.6-4.4,7
			C387.1,62.7,393,74,393,74z M385,55.7c0-0.7-0.3-1.3-0.8-1.9s-1.2-0.8-2.1-0.8h-3.7v5.4h3.7c0.8,0,1.5-0.3,2.1-0.8
			C384.7,57.1,385,56.4,385,55.7z"/>
		<path d="M418.5,74h-7.8l-6.2-11l-2.2,2.6V74h-6.5V47h6.5v9.5l7.8-9.5h8.1l-9.2,10.9L418.5,74L418.5,74L418.5,74z"/>
		<path d="M428,74h-6.6V55.1h6.6V74z"/>
		<path d="M428,52.9h-6.6v-6h6.6V52.9z"/>
		<path d="M368.9,52.9h-6.6v-6h6.6V52.9z"/>
		<path d="M355.1,52.9h-6.6v-6h6.6V52.9z"/>
		<path d="M453.7,47l-8.1,16v10.9h-6.6V62.9l-8.1-16h7.2l4.2,9.7l4.2-9.7L453.7,47L453.7,47z"/>
		<path d="M474.8,74h-18.3V47h18.3v5.9h-11.7v4.5h10v5.9h-10V68h11.7V74L474.8,74L474.8,74z"/>
	</g>
	<rect x="319.8" y="45.5" width="1" height="30.2"/>
</g>
<path class="st0" d="M124.7,76.1c-3,0-5.4-0.7-7.3-2.1c-1.9-1.4-2.8-3.5-2.8-6.1c0-0.6,0.1-1.2,0.2-2c0.3-1.8,0.8-4,1.4-6.5
	c1.7-6.9,6.1-10.4,13.2-10.4c1.9,0,3.7,0.3,5.2,1c1.5,0.6,2.7,1.6,3.6,2.9c0.9,1.2,1.3,2.8,1.3,4.5c0,0.5-0.1,1.2-0.2,2
	c-0.4,2.2-0.8,4.4-1.4,6.5c-0.9,3.4-2.4,6-4.6,7.7C131.2,75.2,128.3,76.1,124.7,76.1C124.7,76.1,124.7,76.1,124.7,76.1z M125.2,70.6
	c1.4,0,2.6-0.4,3.6-1.2c1-0.8,1.7-2.1,2.1-3.8c0.6-2.4,1-4.4,1.3-6.2c0.1-0.5,0.1-1.1,0.1-1.6c0-2.3-1.2-3.4-3.6-3.4
	c-1.4,0-2.6,0.4-3.6,1.2c-1,0.8-1.7,2.1-2.1,3.8c-0.4,1.7-0.9,3.7-1.4,6.2c-0.1,0.5-0.2,1-0.2,1.6C121.6,69.5,122.8,70.6,125.2,70.6
	L125.2,70.6L125.2,70.6z"/>
<path class="st0" d="M143.2,75.7c-0.3,0-0.5-0.1-0.6-0.3c-0.1-0.2-0.2-0.4-0.1-0.7l5.2-24.5c0.1-0.3,0.2-0.5,0.4-0.7
	c0.2-0.2,0.5-0.3,0.7-0.3h10c2.8,0,5,0.6,6.7,1.7c1.7,1.2,2.6,2.8,2.6,5c0,0.6-0.1,1.3-0.2,2c-0.6,2.9-1.9,5-3.8,6.4
	c-1.9,1.4-4.5,2.1-7.8,2.1h-5.1l-1.7,8.2c-0.1,0.3-0.2,0.5-0.4,0.7c-0.2,0.2-0.5,0.3-0.7,0.3L143.2,75.7L143.2,75.7z M156.6,61.3
	c1.1,0,2-0.3,2.8-0.9c0.8-0.6,1.3-1.4,1.6-2.5c0.1-0.4,0.1-0.8,0.1-1.1c0-0.7-0.2-1.3-0.6-1.7c-0.4-0.4-1.1-0.6-2.2-0.6h-4.5
	l-1.4,6.7H156.6L156.6,61.3z"/>
<path class="st0" d="M176.6,75.7c-0.3,0-0.5-0.1-0.6-0.3c-0.1-0.2-0.2-0.4-0.1-0.7l4.2-19.5h-6.7c-0.3,0-0.5-0.1-0.6-0.3
	c-0.1-0.2-0.2-0.4-0.1-0.7l0.9-4c0.1-0.3,0.2-0.5,0.4-0.7c0.2-0.2,0.5-0.3,0.7-0.3h20.3c0.3,0,0.5,0.1,0.6,0.3
	c0.1,0.2,0.1,0.3,0.1,0.5c0,0.1,0,0.2,0,0.2l-0.9,4c-0.1,0.3-0.2,0.5-0.4,0.7c-0.2,0.2-0.4,0.3-0.7,0.3h-6.7l-4.2,19.5
	c-0.1,0.3-0.2,0.5-0.4,0.7c-0.2,0.2-0.5,0.3-0.7,0.3H176.6z"/>
<path class="st0" d="M196.5,75.7c-0.3,0-0.5-0.1-0.6-0.3c-0.1-0.2-0.2-0.4-0.1-0.7l5.2-24.5c0.1-0.3,0.2-0.5,0.4-0.7
	c0.2-0.2,0.5-0.3,0.7-0.3h5.1c0.3,0,0.5,0.1,0.6,0.3c0.1,0.2,0.1,0.3,0.1,0.5c0,0.1,0,0.2,0,0.2l-5.2,24.5c-0.1,0.3-0.2,0.5-0.4,0.7
	c-0.2,0.2-0.5,0.3-0.7,0.3H196.5z"/>
<path class="st0" d="M210.8,75.7c-0.3,0-0.5-0.1-0.6-0.3c-0.1-0.2-0.2-0.4-0.1-0.7l5.2-24.5c0.1-0.3,0.2-0.5,0.4-0.7
	c0.2-0.2,0.5-0.3,0.8-0.3h4.1c0.6,0,1,0.3,1.2,0.8l4.1,11.9l9.1-11.9c0.1-0.2,0.3-0.4,0.5-0.6c0.2-0.2,0.6-0.3,0.9-0.3h4.1
	c0.3,0,0.5,0.1,0.6,0.3c0.1,0.2,0.1,0.3,0.1,0.5c0,0.1,0,0.2,0,0.2L236,74.8c-0.1,0.3-0.2,0.5-0.4,0.7c-0.2,0.2-0.5,0.3-0.7,0.3
	h-4.6c-0.3,0-0.5-0.1-0.6-0.3c-0.1-0.2-0.2-0.4-0.1-0.7l2.9-13.9l-5.8,7.6c-0.2,0.3-0.5,0.5-0.7,0.6s-0.5,0.2-0.8,0.2h-2
	c-0.5,0-0.9-0.3-1.1-0.9l-2.7-8l-3,14.2c-0.1,0.3-0.2,0.5-0.4,0.7c-0.2,0.2-0.5,0.3-0.7,0.3L210.8,75.7L210.8,75.7z"/>
<path class="st0" d="M244.1,75.7c-0.3,0-0.5-0.1-0.6-0.3c-0.1-0.2-0.2-0.4-0.1-0.7l5.2-24.5c0.1-0.3,0.2-0.5,0.4-0.7
	c0.2-0.2,0.5-0.3,0.7-0.3h5.1c0.3,0,0.5,0.1,0.6,0.3c0.1,0.2,0.1,0.3,0.1,0.5c0,0.1,0,0.2,0,0.2l-5.2,24.5c-0.1,0.3-0.2,0.5-0.4,0.7
	c-0.2,0.2-0.5,0.3-0.7,0.3H244.1z"/>
<path class="st0" d="M267.7,76.1c-2.2,0-4.1-0.3-5.7-0.9c-1.6-0.6-2.7-1.4-3.5-2.4c-0.8-1-1.2-2.1-1.2-3.3c0-0.2,0-0.5,0.1-0.9
	c0-0.2,0.1-0.4,0.3-0.6c0.2-0.2,0.4-0.2,0.6-0.2h4.8c0.3,0,0.5,0.1,0.7,0.2c0.2,0.1,0.4,0.3,0.5,0.5c0.2,0.7,0.6,1.2,1.2,1.6
	c0.6,0.4,1.5,0.6,2.7,0.6c1.4,0,2.6-0.2,3.5-0.7c0.9-0.4,1.4-1.1,1.6-1.8c0-0.1,0-0.2,0-0.4c0-0.6-0.4-1.1-1.2-1.5
	c-0.8-0.4-2.2-0.8-4.3-1.3c-2.4-0.5-4.3-1.3-5.5-2.4c-1.2-1.1-1.9-2.5-1.9-4.2c0-0.6,0.1-1.2,0.2-1.8c0.5-2.3,1.7-4.2,3.7-5.5
	c2-1.3,4.6-2,7.8-2c1.9,0,3.6,0.3,5.1,1c1.5,0.7,2.6,1.5,3.4,2.6c0.8,1,1.2,2.1,1.2,3.1c0,0.3,0,0.5,0,0.6c0,0.2-0.2,0.4-0.3,0.6
	c-0.1,0.2-0.3,0.2-0.6,0.2h-5c-0.5,0-0.9-0.2-1.1-0.6c0-0.6-0.3-1.1-0.9-1.5c-0.6-0.4-1.3-0.6-2.3-0.6c-1.1,0-2,0.2-2.8,0.6
	c-0.7,0.4-1.1,1-1.3,1.8c0,0.1,0,0.3,0,0.5c0,0.6,0.4,1.1,1,1.5c0.7,0.4,2,0.8,3.8,1.2c2.8,0.5,4.9,1.3,6.1,2.4c1.3,1,2,2.4,2,4.1
	c0,0.6-0.1,1.2-0.2,1.9c-0.5,2.6-1.9,4.5-4,5.8C274.1,75.4,271.2,76.1,267.7,76.1L267.7,76.1L267.7,76.1z"/>
<path class="st0" d="M285.4,75.7c-0.3,0-0.5-0.1-0.6-0.3c-0.1-0.2-0.2-0.4-0.1-0.7l5.2-24.5c0-0.3,0.2-0.5,0.4-0.7
	c0.2-0.2,0.5-0.3,0.8-0.3h4.1c0.6,0,1,0.3,1.2,0.8l4.1,11.9l9.1-11.9c0.1-0.2,0.3-0.4,0.5-0.6c0.2-0.2,0.5-0.3,0.9-0.3h4.1
	c0.3,0,0.5,0.1,0.6,0.3c0.1,0.2,0.1,0.3,0.1,0.5c0,0.1,0,0.2,0,0.2l-5.2,24.5c0,0.3-0.2,0.5-0.4,0.7c-0.2,0.2-0.5,0.3-0.7,0.3h-4.6
	c-0.3,0-0.5-0.1-0.6-0.3c-0.1-0.2-0.2-0.4-0.1-0.7l2.9-13.9l-5.8,7.6c-0.2,0.3-0.5,0.5-0.7,0.6s-0.5,0.2-0.8,0.2h-2
	c-0.5,0-0.9-0.3-1.1-0.9l-2.7-8l-3,14.2c0,0.3-0.2,0.5-0.4,0.7c-0.2,0.2-0.5,0.3-0.7,0.3L285.4,75.7L285.4,75.7z"/>
<path class="st1" d="M292.1,42.8L267.5,78h7.5l24.7-35.2H292.1z"/>
<linearGradient id="SVGID_1_" gradientUnits="userSpaceOnUse" x1="273.3174" y1="80.32" x2="283.6627" y2="67.8308" gradientTransform="matrix(1 0 0 -1 0 126)">
	<stop  offset="0" style="stop-color:#FFFFFF"/>
	<stop  offset="1" style="stop-color:#FFFFFF;stop-opacity:0.55"/>
</linearGradient>
<path class="st2" d="M275.9,42.8l7.2,10.4l-3.8,5.7l-11.2-16H275.9z"/>
<linearGradient id="SVGID_00000044175271341093333450000014178411910704387761_" gradientUnits="userSpaceOnUse" x1="294.8452" y1="50.888" x2="282.1346" y2="68.0232" gradientTransform="matrix(1 0 0 -1 0 126)">
	<stop  offset="0" style="stop-color:#6966FF"/>
	<stop  offset="1" style="stop-color:#6966FF;stop-opacity:0.36"/>
</linearGradient>
<path style="fill:url(#SVGID_00000044175271341093333450000014178411910704387761_);" d="M292.8,78l-8-11.5l3.8-5.5l11.8,17H292.8z"
	/>
<path class="st4" d="M258.7,42.8h6.6V78h-6.6v-1.3c-1.9,1-4.1,1.6-6.4,1.6c-7.4,0-13.4-6-13.4-13.3s6-13.3,13.4-13.3
	c2.3,0,4.5,0.6,6.4,1.6V42.8z M252.2,72.5c4.2,0,7.6-3.4,7.6-7.5s-3.4-7.5-7.6-7.5c-4.2,0-7.6,3.4-7.6,7.5S248.1,72.5,252.2,72.5z"
	/>
<path class="st1" d="M239.6,42.8L215.1,78h7.7l24.5-35.2H239.6z"/>
<linearGradient id="SVGID_00000103225638967015712690000009999981667876574910_" gradientUnits="userSpaceOnUse" x1="220.1331" y1="80.1741" x2="230.8576" y2="67.06" gradientTransform="matrix(1 0 0 -1 0 126)">
	<stop  offset="0" style="stop-color:#FFFFFF"/>
	<stop  offset="1" style="stop-color:#FFFFFF;stop-opacity:0.55"/>
</linearGradient>
<path style="fill:url(#SVGID_00000103225638967015712690000009999981667876574910_);" d="M222.8,42.8l7.7,10.7l-4.2,6l-11.5-16.7
	H222.8z"/>
<path class="st4" d="M206.3,42.8h6.6V78h-6.6v-1.3c-1.9,1-4.1,1.6-6.4,1.6c-7.4,0-13.4-6-13.4-13.3s6-13.3,13.4-13.3
	c2.3,0,4.5,0.6,6.4,1.6V42.8z M199.8,72.5c4.2,0,7.6-3.4,7.6-7.5s-3.4-7.5-7.6-7.5c-4.2,0-7.6,3.4-7.6,7.5S195.6,72.5,199.8,72.5z"
	/>
<linearGradient id="SVGID_00000070839677100796184060000004809293700965224089_" gradientUnits="userSpaceOnUse" x1="165.9526" y1="89.5016" x2="157.2019" y2="53.122" gradientTransform="matrix(1 0 0 -1 0 126)">
	<stop  offset="0" style="stop-color:#2C2C3D"/>
	<stop  offset="1" style="stop-color:#1A1A27"/>
</linearGradient>
<path style="fill:url(#SVGID_00000070839677100796184060000004809293700965224089_);" d="M149.6,42.8h21c4,0,7.3,3.3,7.3,7.3v21
	c0,4-3.3,7.3-7.3,7.3h-21c-4,0-7.3-3.3-7.3-7.3V50C142.4,46,145.6,42.8,149.6,42.8z"/>
<path class="st1" d="M164.8,51L151,70.5h4.2L169.2,51H164.8z"/>
<linearGradient id="SVGID_00000107558764017835916720000015361087067827050631_" gradientUnits="userSpaceOnUse" x1="154.33" y1="73.4259" x2="160.0337" y2="66.4188" gradientTransform="matrix(1 0 0 -1 0 126)">
	<stop  offset="0" style="stop-color:#FFFFFF"/>
	<stop  offset="1" style="stop-color:#FFFFFF;stop-opacity:0.55"/>
</linearGradient>
<path style="fill:url(#SVGID_00000107558764017835916720000015361087067827050631_);" d="M155.7,51l4.1,5.7l-2.1,3.1l-6.3-8.9H155.7
	z"/>
<linearGradient id="SVGID_00000015339094567470253590000012170459807910184586_" gradientUnits="userSpaceOnUse" x1="166.3474" y1="57.0653" x2="159.3524" y2="66.6618" gradientTransform="matrix(1 0 0 -1 0 126)">
	<stop  offset="0" style="stop-color:#6966FF"/>
	<stop  offset="1" style="stop-color:#6966FF;stop-opacity:0.36"/>
</linearGradient>
<path style="fill:url(#SVGID_00000015339094567470253590000012170459807910184586_);" d="M165.3,70.5l-4.5-6.3l2.1-3l6.6,9.4H165.3z
	"/>
<path class="st9" d="M149.6,42.8h21c4,0,7.3,3.3,7.3,7.3v21c0,4-3.3,7.3-7.3,7.3h-21c-4,0-7.3-3.3-7.3-7.3V50
	C142.4,46,145.6,42.8,149.6,42.8z"/>
</svg>
