<?xml version="1.0" encoding="utf-8"?>
<!-- Generator: Adobe Illustrator 26.3.1, SVG Export Plug-In . SVG Version: 6.00 Build 0)  -->
<svg version="1.1" id="Layer_1" xmlns="http://www.w3.org/2000/svg" xmlns:xlink="http://www.w3.org/1999/xlink" x="0px" y="0px"
	 viewBox="0 0 595.3 126.9" style="enable-background:new 0 0 595.3 126.9;" xml:space="preserve">
<style type="text/css">
	.st0{display:none;}
	.st1{display:inline;}
	.st2{fill:#212178;}
	.st3{display:inline;fill:#212178;}
	.st4{fill:#FFFFFF;}
	.st5{display:inline;fill:#FFFFFF;}
	.st6{fill:#6864FA;}
	.st7{fill:url(#SVGID_1_);}
	.st8{fill:url(#SVGID_00000142856533184500489490000010698526464679324307_);}
	.st9{fill-rule:evenodd;clip-rule:evenodd;fill:#FFFFFF;}
	.st10{fill:url(#SVGID_00000060021206523814819460000003593872310565053109_);}
</style>
<g class="st0">
	<g id="StarkNet-logo-white" class="st1">
		<g id="starknet-logo" transform="translate(4.000000, 5.000000)">
			<g id="Group-16">
				<path id="Fill-14" class="st2" d="M120.3,61.9c-1-0.7-2.9-1.5-5.7-2.6c-2.8-1-4.7-2-5.7-2.8c-1.1-0.8-1.6-2-1.6-3.4
					s0.5-2.6,1.6-3.4s2.5-1.3,4.3-1.3s3.2,0.5,4.3,1.4s1.7,2.3,1.7,4.1h4.3c0-3-1-5.4-3-7.1c-2-1.7-4.4-2.6-7.3-2.6
					c-2.8,0-5.2,0.8-7.2,2.4s-3,3.7-3,6.4c0,2.1,0.5,3.7,1.5,5c0.5,0.7,1.1,1.2,1.6,1.6c0.5,0.5,1.6,1.1,3.2,1.8s3,1.3,4.1,1.6
					c2.2,0.9,3.9,1.7,5.1,2.5c1.1,0.8,1.7,1.9,1.7,3.4s-0.6,2.6-1.8,3.5c-1.2,0.9-2.8,1.3-4.8,1.3s-3.8-0.5-5.1-1.6
					c-1.3-1-1.9-2.5-1.9-4.4h-4.3c0,3.2,1.1,5.7,3.3,7.5c2.2,1.8,4.9,2.7,8,2.7s5.7-0.8,7.8-2.5s3.1-3.9,3.1-6.7
					C124.4,65.9,123.1,63.6,120.3,61.9"/>
			</g>
			<polygon id="Fill-17" class="st2" points="149,44.5 127.7,44.5 127.7,48.5 136.2,48.5 136.2,76.7 140.4,76.7 140.4,48.5 
				149,48.5 			"/>
			<path id="Fill-18" class="st2" d="M159.7,44.5l-11.8,32.2h4.5c0,0,1.1-3.6,2.1-5.1c4.1-6.4,10.8-7.1,12.9-7.1l4.3,12.1h4.5
				l-11.8-32.2L159.7,44.5L159.7,44.5z M157.1,63.5l5-14l3.9,11C163.8,60.6,160.5,61.3,157.1,63.5L157.1,63.5z"/>
			<polygon id="Fill-20" class="st2" points="232.1,44.5 226.8,44.5 213.3,59 213.3,44.5 209,44.5 209,76.7 213.3,76.7 213.3,61.2 
				227.2,76.7 232.5,76.7 217.8,60.2 			"/>
			<polygon id="Fill-21" class="st2" points="253.5,64.3 241.1,44.5 236.3,44.5 236.3,76.7 242.6,76.7 242.6,56.7 255,76.7 
				259.8,76.7 259.8,44.5 253.5,44.5 			"/>
			<polygon id="Fill-22" class="st2" points="270.5,63.4 281.9,63.4 281.9,57.4 270.5,57.4 270.5,50.5 283,50.5 283,44.5 
				264.1,44.5 264.1,76.7 283.2,76.7 283.2,70.6 270.5,70.6 			"/>
			<polygon id="Fill-23" class="st2" points="286,44.5 286,50.5 293.7,50.5 293.7,76.7 300,76.7 300,50.5 307.8,50.5 307.8,44.5 			
				"/>
			<path id="Fill-24" class="st2" d="M197.1,65.1c-0.7-0.6-1.3-1.1-2-1.6c2.1-0.3,4.4-1.4,5.9-3.3c1.3-1.7,1.9-3.6,1.9-5.8
				c0-2.8-1-5.1-3-7.1c-2-2-4.4-2.9-7.2-2.9h-12v32.2h4.4V64.5c2.4,0.1,5.9,0.6,9.2,3.6c3.1,2.8,5.3,6.3,6.4,8.6h4.6
				C204.2,74.2,201.5,69.1,197.1,65.1L197.1,65.1z M192.6,48.5c1.6,0,3,0.6,4.1,1.7s1.7,2.6,1.7,4.2s-0.6,3.1-1.7,4.2
				c-2.1,2.1-6.9,1.7-11.6,1.7c0,0-0.1,0-0.1,0V48.5L192.6,48.5L192.6,48.5z"/>
		</g>
	</g>
	<g class="st1">
		<path class="st2" d="M351.8,57.5h-7.1v22.5h-7.1V57.5h-7.1v-6.3h21.3L351.8,57.5L351.8,57.5z"/>
		<path class="st2" d="M376.6,69.9c0,3.1-1.1,5.5-3.2,7.5s-4.7,2.9-7.8,2.9c-3.1,0-5.6-0.9-7.7-2.8c-2.1-2-3.2-4.5-3.2-7.5v-10h7.1
			v9.9c0,1.3,0.3,2.3,1,3.1s1.6,1.1,2.8,1.1c1.2,0,2.1-0.4,2.8-1.1c0.7-0.7,1.1-1.8,1.1-3.1v-9.8h7.1L376.6,69.9L376.6,69.9z"/>
		<path class="st2" d="M402.4,80.1h-8.2l-5.1-10.7h-2.4v10.7h-7.1V51.2H391c3,0,5.5,1,7.3,2.9c1.7,1.7,2.5,3.9,2.5,6.4
			c0,3.5-1.6,6-4.7,7.5L402.4,80.1z M393.8,60.5c0-0.7-0.3-1.4-0.9-2c-0.6-0.6-1.3-0.9-2.2-0.9h-4v5.8h4c0.9,0,1.6-0.3,2.2-0.8
			C393.5,62,393.8,61.3,393.8,60.5z"/>
		<path class="st2" d="M429.7,80.1h-8.3l-6.6-11.8l-2.4,2.8v9h-7V51.2h7v10.2l8.3-10.2h8.7l-9.8,11.7L429.7,80.1z"/>
		<path class="st2" d="M439.8,80.1h-7.1V59.9h7.1V80.1z"/>
		<path class="st2" d="M439.8,57.6h-7.1v-6.4h7.1V57.6z"/>
		<path class="st2" d="M376.6,57.6h-7.1v-6.4h7.1V57.6z"/>
		<path class="st2" d="M361.8,57.6h-7.1v-6.4h7.1V57.6z"/>
		<path class="st2" d="M467.3,51.2l-8.7,17.1V80h-7.1V68.3l-8.7-17.1h7.7l4.5,10.4l4.5-10.4C459.6,51.2,467.3,51.2,467.3,51.2z"/>
		<path class="st2" d="M489.9,80.1h-19.6V51.2h19.6v6.3h-12.5v4.8h10.7v6.3h-10.7v5.1h12.5V80.1z"/>
	</g>
	<rect x="320.6" y="47.6" class="st3" width="1.1" height="36"/>
</g>
<g class="st0">
	<g id="StarkNet-logo-white_00000116199205816580677430000005706419240488844192_" class="st1">
		<g id="starknet-logo_00000159463139328393196310000009755537747185328517_" transform="translate(4.000000, 5.000000)">
			<g id="Group-16_00000096019979376153598690000015896277860107650745_">
				<path id="Fill-14_00000132058409076773994860000005282490996404374936_" class="st4" d="M120.3-85.2c-1-0.7-2.9-1.5-5.7-2.6
					c-2.8-1-4.7-2-5.7-2.8c-1.1-0.8-1.6-2-1.6-3.4c0-1.4,0.5-2.6,1.6-3.4c1.1-0.8,2.5-1.3,4.3-1.3s3.2,0.5,4.3,1.4s1.7,2.3,1.7,4.1
					h4.3c0-3-1-5.4-3-7.1c-2-1.7-4.4-2.6-7.3-2.6c-2.8,0-5.2,0.8-7.2,2.4s-3,3.7-3,6.4c0,2.1,0.5,3.7,1.5,5c0.5,0.7,1.1,1.2,1.6,1.6
					c0.5,0.4,1.6,1.1,3.2,1.8s3,1.3,4.1,1.6c2.2,0.9,3.9,1.7,5.1,2.5c1.1,0.8,1.7,1.9,1.7,3.4s-0.6,2.6-1.8,3.5
					c-1.2,0.9-2.8,1.3-4.8,1.3s-3.8-0.5-5.1-1.6c-1.3-1-1.9-2.5-1.9-4.4h-4.3c0,3.2,1.1,5.7,3.3,7.5c2.2,1.8,4.9,2.7,8,2.7
					s5.7-0.8,7.8-2.5s3.1-3.9,3.1-6.7C124.4-81.2,123.1-83.4,120.3-85.2"/>
			</g>
			<polygon id="Fill-17_00000049921433382710659730000018187160448283388295_" class="st4" points="149,-102.6 127.7,-102.6 
				127.7,-98.5 136.2,-98.5 136.2,-70.4 140.4,-70.4 140.4,-98.5 149,-98.5 			"/>
			<path id="Fill-18_00000119828211190817875310000011109783836405353104_" class="st4" d="M159.7-102.6l-11.8,32.2h4.5
				c0,0,1.1-3.6,2.1-5.1c4.1-6.4,10.8-7.1,12.9-7.1l4.3,12.1h4.5l-11.8-32.2L159.7-102.6L159.7-102.6z M157.1-83.6l5-14l3.9,10.9
				C163.8-86.4,160.5-85.8,157.1-83.6L157.1-83.6z"/>
			<polygon id="Fill-20_00000163776750373682199470000013205363530031651233_" class="st4" points="232.1,-102.6 226.8,-102.6 
				213.3,-88 213.3,-102.6 209,-102.6 209,-70.4 213.3,-70.4 213.3,-85.8 227.2,-70.4 232.5,-70.4 217.8,-86.9 			"/>
			<polygon id="Fill-21_00000014628285318751405600000014510380358013974201_" class="st4" points="253.5,-82.7 241.1,-102.6 
				236.3,-102.6 236.3,-70.4 242.6,-70.4 242.6,-90.3 255,-70.4 259.8,-70.4 259.8,-102.6 253.5,-102.6 			"/>
			<polygon id="Fill-22_00000085936794179920380650000002247346009044265146_" class="st4" points="270.5,-83.7 281.9,-83.7 
				281.9,-89.6 270.5,-89.6 270.5,-96.5 283,-96.5 283,-102.6 264.1,-102.6 264.1,-70.4 283.2,-70.4 283.2,-76.5 270.5,-76.5 			"/>
			<polygon id="Fill-23_00000116213595971704409240000008946250815333125516_" class="st4" points="286,-102.6 286,-96.5 
				293.7,-96.5 293.7,-70.4 300,-70.4 300,-96.5 307.8,-96.5 307.8,-102.6 			"/>
			<path id="Fill-24_00000108280538345197274900000005987241837572348296_" class="st4" d="M197.1-82c-0.7-0.6-1.3-1.1-2-1.6
				c2.1-0.3,4.4-1.4,5.9-3.3c1.3-1.7,1.9-3.6,1.9-5.8c0-2.8-1-5.1-3-7.1c-2-1.9-4.4-2.9-7.2-2.9h-12v32.2h4.4v-12.1
				c2.4,0.1,5.9,0.6,9.2,3.6c3.1,2.8,5.3,6.3,6.4,8.6h4.6C204.2-72.8,201.5-78,197.1-82L197.1-82z M192.6-98.6c1.6,0,3,0.6,4.1,1.7
				c1.1,1.2,1.7,2.6,1.7,4.2s-0.6,3.1-1.7,4.2c-2.1,2.1-6.9,1.7-11.6,1.7c0,0-0.1,0-0.1,0v-11.9L192.6-98.6L192.6-98.6z"/>
		</g>
	</g>
	<g class="st1">
		<path class="st4" d="M351.8-89.5h-7.1V-67h-7.1v-22.5h-7.1v-6.3h21.3L351.8-89.5L351.8-89.5z"/>
		<path class="st4" d="M376.6-77.1c0,3.1-1.1,5.5-3.2,7.5s-4.7,2.9-7.8,2.9c-3.1,0-5.6-0.9-7.7-2.8c-2.1-2-3.2-4.5-3.2-7.5v-10h7.1
			v9.8c0,1.3,0.3,2.3,1,3.1s1.6,1.1,2.8,1.1c1.2,0,2.1-0.4,2.8-1.1c0.7-0.7,1.1-1.8,1.1-3.1v-9.8h7.1L376.6-77.1L376.6-77.1z"/>
		<path class="st4" d="M402.4-67h-8.2l-5.1-10.7h-2.4V-67h-7.1v-28.8H391c3,0,5.5,1,7.3,2.9c1.7,1.7,2.5,3.9,2.5,6.4
			c0,3.5-1.6,6-4.7,7.5L402.4-67z M393.8-86.6c0-0.7-0.3-1.4-0.9-2c-0.6-0.6-1.3-0.9-2.2-0.9h-4v5.8h4c0.9,0,1.6-0.3,2.2-0.8
			C393.5-85.1,393.8-85.8,393.8-86.6z"/>
		<path class="st4" d="M429.7-67h-8.3l-6.6-11.8l-2.4,2.8v9h-7v-28.8h7v10.2l8.3-10.2h8.7l-9.8,11.7L429.7-67z"/>
		<path class="st4" d="M439.8-67h-7.1v-20.1h7.1V-67z"/>
		<path class="st4" d="M439.8-89.5h-7.1v-6.4h7.1V-89.5z"/>
		<path class="st4" d="M376.6-89.5h-7.1v-6.4h7.1V-89.5z"/>
		<path class="st4" d="M361.8-89.5h-7.1v-6.4h7.1V-89.5z"/>
		<path class="st4" d="M467.3-95.8l-8.7,17.1V-67h-7.1v-11.7l-8.7-17.1h7.7l4.5,10.4l4.5-10.4C459.6-95.8,467.3-95.8,467.3-95.8z"/>
		<path class="st4" d="M489.9-67h-19.6v-28.8h19.6v6.3h-12.5v4.8h10.7v6.3h-10.7v5.1h12.5V-67z"/>
	</g>
	<rect x="320.6" y="-99.5" class="st5" width="1.1" height="36"/>
</g>
<g class="st0">
	<g id="StarkNet-logo-white_00000177471325785734572710000015513314579672194996_" class="st1">
		<g id="starknet-logo_00000078017081119162607130000002527621857773893520_" transform="translate(4.000000, 5.000000)">
			<g id="Group-16_00000057114311182801186690000005875787913749640383_">
				<path id="Fill-14_00000100346314938209248720000009227158444489395889_" d="M120.3-226.4c-1-0.7-2.9-1.5-5.7-2.6
					c-2.8-1-4.7-2-5.7-2.8c-1.1-0.8-1.6-2-1.6-3.4s0.5-2.6,1.6-3.4s2.5-1.3,4.3-1.3s3.2,0.5,4.3,1.4s1.7,2.3,1.7,4.1h4.3
					c0-3-1-5.4-3-7.1c-2-1.7-4.4-2.6-7.3-2.6c-2.8,0-5.2,0.8-7.2,2.4s-3,3.7-3,6.4c0,2.1,0.5,3.7,1.5,5c0.5,0.6,1.1,1.2,1.6,1.6
					c0.5,0.4,1.6,1.1,3.2,1.8s3,1.3,4.1,1.6c2.2,0.9,3.9,1.7,5.1,2.5c1.1,0.8,1.7,1.9,1.7,3.4s-0.6,2.6-1.8,3.5
					c-1.2,0.9-2.8,1.3-4.8,1.3s-3.8-0.5-5.1-1.6s-1.9-2.5-1.9-4.4h-4.3c0,3.2,1.1,5.7,3.3,7.5c2.2,1.8,4.9,2.7,8,2.7
					s5.7-0.8,7.8-2.5s3.1-3.9,3.1-6.7C124.4-222.3,123.1-224.6,120.3-226.4"/>
			</g>
			<polygon id="Fill-17_00000115491877069958892600000017274965264727312012_" points="149,-243.8 127.7,-243.8 127.7,-239.7 
				136.2,-239.7 136.2,-211.6 140.4,-211.6 140.4,-239.7 149,-239.7 			"/>
			<path id="Fill-18_00000160877699714525897530000014503760386858652090_" d="M159.7-243.8l-11.8,32.2h4.5c0,0,1.1-3.6,2.1-5.1
				c4.1-6.4,10.8-7.1,12.9-7.1l4.3,12.1h4.5l-11.8-32.2L159.7-243.8L159.7-243.8z M157.1-224.8l5-14l3.9,10.9
				C163.8-227.6,160.5-227,157.1-224.8L157.1-224.8z"/>
			<polygon id="Fill-20_00000121985895138196805610000005448742011625233555_" points="232.1,-243.8 226.8,-243.8 213.3,-229.2 
				213.3,-243.8 209,-243.8 209,-211.6 213.3,-211.6 213.3,-227 227.2,-211.6 232.5,-211.6 217.8,-228.1 			"/>
			<polygon id="Fill-21_00000031898996026058375380000006430449055382562479_" points="253.5,-223.9 241.1,-243.8 236.3,-243.8 
				236.3,-211.6 242.6,-211.6 242.6,-231.5 255,-211.6 259.8,-211.6 259.8,-243.8 253.5,-243.8 			"/>
			<polygon id="Fill-22_00000015355036271669448570000004237860309378502815_" points="270.5,-224.9 281.9,-224.9 281.9,-230.8 
				270.5,-230.8 270.5,-237.7 283,-237.7 283,-243.8 264.1,-243.8 264.1,-211.6 283.2,-211.6 283.2,-217.6 270.5,-217.6 			"/>
			<polygon id="Fill-23_00000016035285826376464150000010949331628793113234_" points="286,-243.8 286,-237.7 293.7,-237.7 
				293.7,-211.6 300,-211.6 300,-237.7 307.8,-237.7 307.8,-243.8 			"/>
			<path id="Fill-24_00000095298329928911343590000002345069656525674370_" d="M197.1-223.2c-0.7-0.6-1.3-1.1-2-1.6
				c2.1-0.3,4.4-1.4,5.9-3.3c1.3-1.7,1.9-3.6,1.9-5.8c0-2.8-1-5.1-3-7.1c-2-1.9-4.4-2.9-7.2-2.9h-12v32.2h4.4v-12.1
				c2.4,0.1,5.9,0.6,9.2,3.6c3.1,2.8,5.3,6.4,6.4,8.6h4.6C204.2-214,201.5-219.1,197.1-223.2L197.1-223.2z M192.6-239.8
				c1.6,0,3,0.6,4.1,1.7s1.7,2.6,1.7,4.2s-0.6,3.1-1.7,4.2c-2.1,2.1-6.9,1.7-11.6,1.7c0,0-0.1,0-0.1,0v-11.9L192.6-239.8
				L192.6-239.8z"/>
		</g>
	</g>
	<g class="st1">
		<path d="M351.8-230.7h-7.1v22.5h-7.1v-22.5h-7.1v-6.3h21.3L351.8-230.7L351.8-230.7z"/>
		<path d="M376.6-218.3c0,3.1-1.1,5.5-3.2,7.5c-2.1,1.9-4.7,2.9-7.8,2.9c-3.1,0-5.6-0.9-7.7-2.8c-2.1-2-3.2-4.5-3.2-7.5v-10h7.1v9.9
			c0,1.3,0.3,2.3,1,3.1s1.6,1.1,2.8,1.1c1.2,0,2.1-0.4,2.8-1.1c0.7-0.7,1.1-1.8,1.1-3.1v-9.9h7.1L376.6-218.3L376.6-218.3z"/>
		<path d="M402.4-208.2h-8.2l-5.1-10.7h-2.4v10.7h-7.1V-237H391c3,0,5.5,1,7.3,2.9c1.7,1.7,2.5,3.9,2.5,6.4c0,3.5-1.6,6-4.7,7.5
			L402.4-208.2z M393.8-227.8c0-0.7-0.3-1.4-0.9-2c-0.6-0.6-1.3-0.9-2.2-0.9h-4v5.8h4c0.9,0,1.6-0.3,2.2-0.9
			C393.5-226.2,393.8-226.9,393.8-227.8z"/>
		<path d="M429.7-208.2h-8.3l-6.6-11.8l-2.4,2.8v9h-7V-237h7v10.2l8.3-10.2h8.7l-9.8,11.7L429.7-208.2z"/>
		<path d="M439.8-208.2h-7.1v-20.1h7.1V-208.2z"/>
		<path d="M439.8-230.7h-7.1v-6.4h7.1V-230.7z"/>
		<path d="M376.6-230.7h-7.1v-6.4h7.1V-230.7z"/>
		<path d="M361.8-230.7h-7.1v-6.4h7.1V-230.7z"/>
		<path d="M467.3-237l-8.7,17.1v11.7h-7.1v-11.7l-8.7-17.1h7.7l4.5,10.4l4.5-10.4H467.3z"/>
		<path d="M489.9-208.2h-19.6V-237h19.6v6.3h-12.5v4.8h10.7v6.3h-10.7v5.1h12.5V-208.2z"/>
	</g>
	<rect x="320.6" y="-240.7" class="st1" width="1.1" height="36"/>
</g>
<g>
	<g>
		<path class="st6" d="M323.1,55.4h-6.9v22h-6.9v-22h-6.9v-6.2h20.9L323.1,55.4L323.1,55.4L323.1,55.4z"/>
		<path class="st6" d="M347.3,67.6c0,3-1,5.3-3.1,7.3c-2.1,2-4.6,2.8-7.7,2.8s-5.5-0.8-7.6-2.7c-2.1-2-3.1-4.4-3.1-7.3v-9.8h6.9v9.6
			c0,1.3,0.3,2.3,0.9,3c0.6,0.7,1.6,1,2.7,1c1.2,0,2.1-0.4,2.7-1c0.6-0.7,1-1.8,1-3v-9.6h6.9L347.3,67.6
			C347.4,67.6,347.3,67.6,347.3,67.6z"/>
		<path class="st6" d="M372.7,77.5h-8.1l-5-10.5h-2.3v10.5h-6.9V49.2h11.1c2.9,0,5.3,0.9,7.1,2.8c1.7,1.7,2.4,3.8,2.4,6.3
			c0,3.5-1.6,5.9-4.6,7.3C366.5,65.7,372.7,77.5,372.7,77.5z M364.2,58.3c0-0.7-0.3-1.4-0.8-2s-1.3-0.8-2.2-0.8h-3.9v5.7h3.9
			c0.8,0,1.6-0.3,2.2-0.8C363.9,59.8,364.2,59.1,364.2,58.3z"/>
		<path class="st6" d="M399.4,77.5h-8.2L384.7,66l-2.3,2.7v8.8h-6.8V49.2h6.8v10l8.2-10h8.5l-9.6,11.4L399.4,77.5L399.4,77.5
			L399.4,77.5z"/>
		<path class="st6" d="M409.3,77.5h-6.9V57.7h6.9V77.5z"/>
		<path class="st6" d="M409.3,55.5h-6.9v-6.3h6.9V55.5z"/>
		<path class="st6" d="M347.3,55.5h-6.9v-6.3h6.9V55.5z"/>
		<path class="st6" d="M332.8,55.5h-6.9v-6.3h6.9V55.5z"/>
		<path class="st6" d="M436.2,49.2L427.7,66v11.4h-6.9V66l-8.5-16.8h7.6l4.4,10.2l4.4-10.2H436.2L436.2,49.2z"/>
		<path class="st6" d="M458.4,77.5h-19.2V49.2h19.2v6.2h-12.3v4.7h10.5v6.2h-10.5v5h12.3V77.5L458.4,77.5L458.4,77.5z"/>
	</g>
	<rect x="295.9" y="47.6" class="st6" width="1" height="31.7"/>
</g>
<path class="st4" d="M264.1,42.5L235,84.1h8.9l29.2-41.6C273.1,42.5,264.1,42.5,264.1,42.5z"/>
<linearGradient id="SVGID_1_" gradientUnits="userSpaceOnUse" x1="241.9333" y1="19.8989" x2="254.177" y2="34.6799" gradientTransform="matrix(1 0 0 1 0 26)">
	<stop  offset="0" style="stop-color:#FFFFFF"/>
	<stop  offset="1" style="stop-color:#FFFFFF;stop-opacity:0.55"/>
</linearGradient>
<path class="st7" d="M244.9,42.5l8.5,12.3l-4.4,6.7l-13.2-19C235.8,42.5,244.9,42.5,244.9,42.5z"/>
<linearGradient id="SVGID_00000039102578759953432730000005904345612361305272_" gradientUnits="userSpaceOnUse" x1="267.3875" y1="54.754" x2="252.3444" y2="34.4743" gradientTransform="matrix(1 0 0 1 0 26)">
	<stop  offset="0" style="stop-color:#6966FF"/>
	<stop  offset="1" style="stop-color:#6966FF;stop-opacity:0.36"/>
</linearGradient>
<path style="fill:url(#SVGID_00000039102578759953432730000005904345612361305272_);" d="M265,84.2l-9.4-13.5l4.4-6.5l14,20.1H265z"
	/>
<path class="st9" d="M224.6,42.5h7.8v41.6h-7.8v-1.6c-2.2,1.2-4.9,1.9-7.5,1.9c-8.8,0-15.9-7.1-15.9-15.8s7.1-15.8,15.9-15.8
	c2.8,0,5.3,0.7,7.5,1.9V42.5z M217,77.7c5,0,9-4,9-8.9s-4-8.9-9-8.9c-5,0-9,4-9,8.9C208,73.7,212,77.7,217,77.7z"/>
<path class="st4" d="M202,42.5l-29.1,41.6h9.1l29-41.6C211,42.5,202,42.5,202,42.5z"/>
<linearGradient id="SVGID_00000088829045746606128150000004515123856703992720_" gradientUnits="userSpaceOnUse" x1="178.9373" y1="20.1144" x2="191.63" y2="35.6352" gradientTransform="matrix(1 0 0 1 0 26)">
	<stop  offset="0" style="stop-color:#FFFFFF"/>
	<stop  offset="1" style="stop-color:#FFFFFF;stop-opacity:0.55"/>
</linearGradient>
<path style="fill:url(#SVGID_00000088829045746606128150000004515123856703992720_);" d="M182,42.5l9.1,12.7l-5,7.1l-13.5-19.8H182z
	"/>
<path class="st9" d="M162.5,42.5h7.8v41.6h-7.8v-1.6c-2.2,1.2-4.9,1.9-7.5,1.9c-8.8,0-15.9-7.1-15.9-15.8s7.1-15.8,15.9-15.8
	c2.8,0,5.3,0.7,7.5,1.9V42.5z M154.8,77.7c5,0,9-4,9-8.9s-4-8.9-9-8.9c-5,0-9,4-9,8.9C145.8,73.7,149.9,77.7,154.8,77.7z"/>
</svg>
