<?xml version="1.0" encoding="utf-8"?>
<!-- Generator: Adobe Illustrator 26.3.1, SVG Export Plug-In . SVG Version: 6.00 Build 0)  -->
<svg version="1.1" id="Layer_1" xmlns="http://www.w3.org/2000/svg" xmlns:xlink="http://www.w3.org/1999/xlink" x="0px" y="0px"
	 viewBox="0 0 595.3 126.9" style="enable-background:new 0 0 595.3 126.9;" xml:space="preserve">
<style type="text/css">
	.st0{display:none;fill:#FFFFFF;}
	.st1{fill:#09FFC8;}
	.st2{fill:#090817;}
	.st3{fill:#0A0917;}
	.st4{fill:#0B0918;}
	.st5{fill:#0B0A19;}
	.st6{fill:#0C0918;}
	.st7{fill:#D2CDD0;}
	.st8{fill:#929EA4;}
	.st9{fill:#FFFFFF;}
	.st10{fill:#FEFEFE;}
</style>
<g>
	<path class="st0" d="M461.3,151.3c-109,0-217.9,0-326.9,0c0-58.6,0-117.4,0-176c109,0,217.9,0,326.9,0
		C461.3,33.9,461.3,92.7,461.3,151.3z"/>
	<path class="st1" d="M220.2,83.4c-0.3-0.1-0.6,0-0.8,0c-6.8,0-13.6,0-20.4,0c-0.8,0-1.5-0.2-2.2-0.7c-1.3-0.9-2.4-2-3.6-3.1
		c-1.8-1.7-3.6-3.3-5.2-5.2c-0.5-0.5-0.8-1-1.2-1.6c-0.3-0.6-0.5-1.3,0-1.8c0-0.1,0.1-0.1,0.1-0.2c0.1-0.8,0.6-1.5,1.2-2.1
		c8.8-11,17.5-21.8,26.2-32.8c5.9-7.4,11.8-14.9,17.7-22.3c0.5-0.6,0.8-1,1.5-1.3c0.7-0.2,1.3-0.2,2-0.1c2.4,0.7,4.5,1.8,6.6,3.1
		c0.5,0.3,1,0.6,1.5,0.9c1.5,0.9,2.3,2.5,1.8,4.3c-0.8,3.3-1.7,6.7-2.5,9.9c-1.3,5-2.7,9.9-3.9,14.9c0,0.1,0,0.2-0.1,0.2
		c-0.1,0.6-0.1,0.6,0.5,0.6c7,0,14.2,0,21.2,0c0.6,0,1.2,0,1.7,0c0.7,0,1.3,0.1,1.8,0.6c0.2,0.1,0.5,0.2,0.7,0.3
		c2.2,1,4.4,2.2,6.5,3.6c0.2,0.1,0.5,0.3,0.7,0.5c1.7,1.2,2.1,3.3,0.8,5.1c-0.5,0.6-0.9,1.3-1.5,1.8c-10,12.5-20,25-30,37.5
		c-4.6,5.7-9.1,11.4-13.7,17.1c-0.2,0.3-0.5,0.7-0.8,0.9c-1.4,1.2-3.2,1.3-4.7,0.3c-1-0.6-1.8-1.4-2.8-2.1c-1.3-1-2.5-2.2-3.6-3.3
		c-0.5-0.5-0.8-0.9-1-1.5c-0.3-0.6-0.5-1.2,0-1.8c0.2-0.2,0.2-0.6,0.2-0.9c1.7-6.8,3.6-13.6,5.3-20.4
		C220.2,83.7,220.3,83.6,220.2,83.4z"/>
	<path class="st2" d="M302.9,47.8c-0.2,1.2-0.5,2.3-0.7,3.3c-0.1,0.3-0.1,0.9-0.3,1.2c-0.3,0.2-0.8,0.1-1.3,0.1c-3.7,0-7.5,0-11.2,0
		c-0.1,0-0.2,0-0.5,0c-0.3-0.1-0.5,0.1-0.6,0.5c-0.3,1.8-0.7,3.7-1.2,5.7c0.8,0,1.5,0,2.3,0c0.8,0,1.5,0,2.3,0c0.8,0,1.6,0,2.4,0
		c0.8,0,1.5,0,2.3,0c0.8,0,1.5,0,2.3,0c0.1,0.1,0.1,0.3,0.1,0.5c-0.2,1.3-0.5,2.4-0.8,3.7c-0.1,0.6-0.1,0.6-0.7,0.6
		c-3.5,0-6.9,0-10.4,0c-0.1,0-0.2,0-0.5,0c-0.3,0-0.5,0.1-0.6,0.5c-0.7,3.5-1.4,7-2.2,10.5c-0.1,0.6-0.1,0.6-0.7,0.6
		c-1.5,0-2.9,0-4.4,0c-0.1,0-0.3,0-0.5,0c0-0.6,0.1-1.2,0.2-1.7c1.7-8.3,3.3-16.5,5.1-24.8c0.1-0.5,0.1-0.5,0.6-0.5c6,0,12,0,18,0
		C302.7,47.8,302.8,47.8,302.9,47.8z"/>
	<path class="st2" d="M337.6,69.2c0,0.1,0,0.2-0.1,0.3c-2.3,4.2-5.8,6.1-10.4,6.1c-0.9,0-1.8-0.2-2.8-0.6c-2.8-1.2-4.4-3.2-4.6-6.1
		c-0.3-3.8,0.7-7.4,3-10.5c1.8-2.5,4.5-3.8,7.6-3.9c1.4-0.1,2.8,0,4.2,0.6c2.7,1,4.4,3.5,4.5,6.3c0,1.5-0.1,3-0.5,4.4
		c-0.1,0.6-0.1,0.6-0.8,0.6c-4,0-8,0-12,0c-0.8,0-0.8,0-0.9,0.8c0,0.5-0.1,0.9,0,1.4c0.3,2.2,2.1,3,3.8,2.9c1.5-0.1,2.8-0.7,3.7-2.1
		c0.1-0.2,0.2-0.2,0.5-0.2C334.4,69.2,335.9,69.2,337.6,69.2L337.6,69.2z"/>
	<path class="st2" d="M310.7,72.6c-0.5,0.5-0.8,0.9-1.4,1.3c-2.1,1.6-4.4,2.1-6.9,1.5c-2.2-0.6-3.5-2.3-3.6-4.5
		c0-1.3,0.2-2.4,0.5-3.6c0.8-3.9,1.6-8,2.4-11.9c0.1-0.6,0.1-0.6,0.7-0.6c1.5,0,3,0,4.5,0c0,0.7-0.2,1.4-0.3,2
		c-0.7,3.3-1.4,6.8-2.1,10.2c-0.1,0.6-0.2,1.2-0.2,1.7c0,2,1.2,3,3.1,2.9c1.3-0.1,2.3-0.7,3.1-1.7c0.8-1,1.3-2.2,1.5-3.5
		c0.7-3.7,1.5-7.3,2.2-11c0.1-0.6,0.1-0.6,0.7-0.6c1.5,0,3,0,4.6,0c0,0.7-0.2,1.4-0.3,2.1c-1.2,5.8-2.3,11.4-3.5,17.2
		c0,0.1-0.1,0.2-0.1,0.3c0,0.2-0.1,0.3-0.3,0.3c-1.6,0-3.2,0-4.8,0c0-0.7,0.2-1.4,0.3-2C310.9,72.6,310.9,72.5,310.7,72.6z"/>
	<path class="st2" d="M350.1,47.8c-0.2,0.9-0.3,1.7-0.5,2.7c-1.6,7.8-3.2,15.7-4.8,23.5c-0.2,0.9-0.2,0.9-1,0.9c-1.4,0-2.8,0-4.2,0
		c-0.1-0.3,0.1-0.7,0.1-1c1.4-6.9,2.8-13.9,4.3-20.8c0.3-1.6,0.7-3.1,0.9-4.7c0-0.2,0.1-0.5,0.5-0.5
		C346.8,47.8,348.4,47.8,350.1,47.8z"/>
	<path class="st2" d="M408.4,71.7c0,0.5-0.2,0.7-0.3,1c-1,1.7-3,2.8-5.2,2.3c-1.8-0.3-3-2-2.9-3.8c0.1-1.5,0.5-2.9,1.2-4.2
		c0.9-1.6,2.3-2.5,4.2-2.7c0.9-0.1,1.8,0.1,2.7,0.6c1,0.7,1.5,1.6,1.5,2.8c0,0.7-0.1,1.4-0.2,2.1c0,0.2-0.2,0.3-0.5,0.3
		c-0.6,0-1.2,0-1.6,0c-1.6,0-3.2,0-4.8,0c-0.6,0-0.6,0-0.6,0.6c0,0.5,0,0.9,0.1,1.3c0.3,1,1.3,1.6,2.4,1.5c1-0.1,1.8-0.6,2.4-1.4
		c0.3-0.5,0.6-0.7,1.2-0.6C407.9,71.7,408.1,71.7,408.4,71.7z"/>
	<path class="st2" d="M381,68.5c1.4-1.2,2.8-2.3,4.2-3.5c0.3-0.3,0.7-0.5,1.2-0.5c0.3,0,0.8,0,1.2,0c0.1,0.2-0.1,0.2-0.2,0.3
		c-1.2,0.9-2.3,1.8-3.3,2.8c-0.2,0.2-0.3,0.5-0.2,0.7c0.8,1.7,1.5,3.6,2.2,5.3c0.1,0.2,0.2,0.5,0.2,0.7c-0.1,0.1-0.1,0.1-0.2,0.1
		c-0.6,0-1.2,0.2-1.5-0.1c-0.3-0.2-0.5-0.9-0.6-1.4c-0.6-1.4-1-2.7-1.6-4.2c-0.7,0.6-1.3,1-2,1.6c-0.1,0.1-0.1,0.3-0.1,0.5
		c-0.2,1-0.5,2-0.6,3c-0.1,0.3-0.2,0.5-0.6,0.5s-0.7,0-1.2,0c0.2-1.2,0.5-2.3,0.7-3.5c0.7-3.2,1.4-6.6,2-9.8
		c0.1-0.6,0.1-0.6,0.8-0.6c0.2,0,0.5,0,0.8,0c0,0,0.1,0,0.1,0.1c-0.2,1.2-0.5,2.2-0.7,3.3c-0.2,1.3-0.5,2.7-0.8,3.9
		C380.7,68.3,380.7,68.6,381,68.5z"/>
	<path class="st2" d="M394.8,72.3c0.2-0.1,0.2-0.3,0.3-0.6c1.3-2.2,2.4-4.3,3.6-6.5c0.2-0.3,0.5-0.6,0.9-0.6c0.3,0,0.6,0,0.9,0
		c0.1,0.2,0,0.3-0.1,0.5c-2.2,3.8-4.4,7.7-6.6,11.5c-0.2,0.5-0.5,0.8-0.8,1.2c-0.8,0.8-1.7,1-2.8,0.9c-0.5,0-0.5-0.1-0.3-0.6
		c0-0.1,0-0.2,0-0.3c0.1-0.7,0.1-0.7,0.8-0.6c0.7,0.1,1.3-0.2,1.6-0.8c0.2-0.3,0.5-0.7,0.7-1c0.3-0.5,0.3-0.8,0.3-1.4
		c-0.5-2.9-0.8-5.7-1.2-8.5c-0.1-1-0.2-0.8,0.7-0.8c1,0,0.8-0.1,1,0.9c0.2,2.1,0.5,4.2,0.7,6.2C394.6,71.9,394.6,72.2,394.8,72.3z"
		/>
	<path class="st2" d="M365.7,64.8c-0.2,0.9-0.3,1.8-0.6,2.8c-0.2,1.4-0.6,2.8-0.8,4.2c-0.2,1.3,0.3,2.1,1.7,2.1
		c0.9,0,1.7-0.5,2.3-1.2s0.8-1.4,1-2.2c0.3-1.7,0.7-3.3,1-5.1c0.1-0.6,0.1-0.6,0.7-0.6c0.2,0,0.6,0,0.8,0c0,0,0.1,0,0.2,0
		c0,0.7-0.2,1.4-0.3,2.1c-0.5,2.4-1,4.8-1.5,7.3c-0.1,0.5-0.1,0.5-0.6,0.5c-0.3,0-0.6,0-0.9,0c-0.1-0.3,0.1-0.6,0.1-0.8
		c-0.1,0-0.2,0.1-0.3,0.2c-1.2,0.9-2.4,1.3-3.8,1c-1.5-0.1-2.3-1.2-2.1-2.7c0.5-2.4,1-4.8,1.5-7.3c0.1-0.3,0.2-0.5,0.6-0.5
		C364.9,64.8,365.3,64.7,365.7,64.8z"/>
	<path class="st2" d="M355.3,74.6c0.2-1.2,0.5-2.2,0.7-3.3c0.6-2.8,1.2-5.5,1.7-8.3c0,0,0,0,0-0.1c0.1-0.6,0.1-0.6-0.5-0.6
		c-1.2,0-2.2,0-3.3,0c-0.2,0-0.3,0-0.6,0c-0.1-0.5,0.1-0.8,0.1-1.3c0-0.2,0.1-0.2,0.3-0.2c0.1,0,0.2,0,0.2,0c3.3,0,6.6,0,9.9,0
		c0.1,0,0.2,0,0.3,0c0,0.1,0,0.1,0,0.1c-0.1,0.5,0,1-0.3,1.3c-0.3,0.3-0.9,0.1-1.4,0.1c-0.9,0-1.7,0-2.7,0c-0.6,0-0.6,0-0.7,0.5
		c-0.6,2.7-1.2,5.4-1.6,8.1c-0.2,1.2-0.5,2.2-0.7,3.3c-0.1,0.3-0.2,0.5-0.6,0.5C356.3,74.7,355.8,74.7,355.3,74.6z"/>
	<path class="st2" d="M372.2,74.7c0.3-1.8,0.7-3.7,1.2-5.5c0.2-1.3,0.6-2.7,0.8-3.9c0.1-0.6,0.1-0.6,0.7-0.6c0.8,0,0.9-0.2,0.7,0.8
		c0,0.1,0,0.3-0.1,0.6c0.3-0.1,0.5-0.5,0.7-0.6c0.6-0.6,1.3-0.9,2.1-1c0.2,0,0.5,0,0.6,0c0.2,0,0.2,0.1,0.2,0.3c0,0.1,0,0.1,0,0.2
		c-0.1,0.3-0.1,0.7-0.2,1c-0.2,0.3-0.6,0.1-0.9,0.2c-1.2,0.2-2,0.8-2.5,2c-0.3,0.8-0.5,1.6-0.7,2.5c-0.2,1.2-0.5,2.4-0.7,3.6
		c-0.1,0.5-0.1,0.5-0.6,0.5C373,74.7,372.6,74.7,372.2,74.7z"/>
	<path class="st3" d="M390.7,64.8c-0.2,0.9-0.3,1.8-0.6,2.8c-0.5,2.2-0.9,4.4-1.4,6.6c-0.1,0.6-0.1,0.6-0.7,0.6c-0.3,0-0.6,0-0.9,0
		c0-0.7,0.2-1.4,0.3-2.1c0.5-2.4,0.9-4.8,1.5-7.3c0-0.1,0.1-0.2,0.1-0.3c0-0.2,0.1-0.3,0.3-0.3C389.8,64.7,390.2,64.7,390.7,64.8z"
		/>
	<path class="st4" d="M365.7,63.3c0.1-0.6,0.2-1.2,0.3-1.6c0-0.2,0.1-0.3,0.3-0.3c0.6,0,1,0,1.6,0c0,0.7-0.2,1.2-0.3,1.7
		c0,0.2-0.1,0.2-0.2,0.2C366.9,63.3,366.3,63.3,365.7,63.3z"/>
	<path class="st5" d="M371.3,61.3c0,0.1,0,0.2,0,0.2c-0.1,0.6-0.1,1.2-0.5,1.7c-0.6,0-1.3,0-1.8,0c0-0.6,0.2-1.2,0.3-1.7
		c0-0.2,0.2-0.2,0.3-0.2C370.2,61.3,370.8,61.3,371.3,61.3z"/>
	<path class="st6" d="M389.5,62.7c0.1-0.6,0.2-1.2,0.3-1.6c0-0.2,0.1-0.3,0.5-0.3c0.5,0,0.8,0,1.3,0c0,0.6-0.2,1.2-0.3,1.6
		c0,0.2-0.1,0.3-0.3,0.3C390.4,62.7,390,62.7,389.5,62.7z"/>
	<path class="st7" d="M381,68.5c0,0.1-0.1,0.2-0.2,0.2c-0.1,0-0.1-0.2,0-0.2c0-0.1,0.1-0.1,0.1-0.2C380.8,68.3,380.8,68.5,381,68.5z
		"/>
	<path class="st8" d="M310.7,72.6c0-0.1,0.1-0.2,0.2-0.2c0.1,0.1,0,0.2-0.1,0.3C310.8,72.7,310.8,72.6,310.7,72.6z"/>
	<path class="st9" d="M218.3,107.6c0.7-0.2,1.2-0.8,1.5-1.4c9.5-11.8,18.9-23.7,28.4-35.4c5.3-6.6,10.6-13.3,15.9-19.9
		c0.1-0.1,0.2-0.3,0.3-0.5c0.5-0.6,0.5-0.6,1-0.2c1.6,0.8,3.2,1.7,4.7,2.7c0.9,0.7,1,1.3,0.3,2.2c-2,2.5-4,5-6,7.5
		c-8.1,10.2-16.2,20.3-24.4,30.5c-4.8,6.1-9.7,12.1-14.5,18.2c-0.1,0.1-0.2,0.3-0.3,0.5c-0.6,0.6-1.3,0.7-2.1,0.2
		c-0.5-0.3-0.9-0.7-1.4-1c-1.2-0.9-2.2-1.8-3.2-2.9C218.5,107.8,218.4,107.8,218.3,107.6z"/>
	<path class="st9" d="M229.1,46.2c2.7-10.3,5.3-20.5,8.1-30.7c0.2,0,0.3,0.1,0.6,0.1c1.6,0.8,3.1,1.8,4.7,2.7
		c0.6,0.3,0.8,0.9,0.6,1.7c-0.6,2.2-1.2,4.4-1.7,6.5c-1.6,6.3-3.3,12.6-5,18.9c-0.2,0.8-0.2,0.8-1.2,0.8c-1.7,0-3.6,0-5.3,0
		C229.6,46.2,229.4,46.3,229.1,46.2z"/>
	<path class="st9" d="M222.9,73.4c-0.5,1.7-0.9,3.5-1.4,5.1c-0.1,0.7-0.3,1.3-0.5,2c-0.1,0.2-0.2,0.5-0.5,0.3c-0.1,0-0.2,0-0.3,0
		c-7,0-14.1,0-21.1,0c-0.5,0-0.8-0.1-1-0.3c-2.7-2.1-5-4.4-7.3-6.8v-0.1l0,0c0.1,0,0.2,0,0.5,0C201.8,73.5,212.3,73.4,222.9,73.4z"
		/>
	<path class="st9" d="M325.7,62.9c0.2-2.3,2.3-4.3,4.5-4.3c0.5,0,0.9,0,1.4,0.1c0.9,0.2,1.5,0.7,1.7,1.6c0.2,0.8,0.2,1.6,0.3,2.3
		c0,0.2-0.1,0.3-0.3,0.3c-0.1,0-0.2,0-0.5,0c-2.2,0-4.4,0-6.7,0C326.1,62.9,325.9,63,325.7,62.9z"/>
	<path class="st10" d="M402,68.8c0.3-1.7,1.8-3,3.5-3c1.4,0,2.4,1.3,2.1,2.7c0,0.2-0.1,0.3-0.3,0.3C405.4,68.8,403.8,68.8,402,68.8z
		"/>
</g>
</svg>
