<?xml version="1.0" encoding="utf-8"?>
<!-- Generator: Adobe Illustrator 26.3.1, SVG Export Plug-In . SVG Version: 6.00 Build 0)  -->
<svg version="1.1" id="Layer_1" xmlns="http://www.w3.org/2000/svg" xmlns:xlink="http://www.w3.org/1999/xlink" x="0px" y="0px"
	 viewBox="0 0 595.3 126.9" style="enable-background:new 0 0 595.3 126.9;" xml:space="preserve">
<style type="text/css">
	.st0{fill:#01FEC9;stroke:#000000;stroke-width:0.5;stroke-miterlimit:10;}
	.st1{display:none;fill:#FF0420;}
	.st2{display:none;fill:#FFFFFF;}
	.st3{display:none;fill:url(#SVGID_1_);}
	.st4{display:none;fill:url(#SVGID_00000109019061951051797920000005899493782612233378_);}
	.st5{display:none;fill-rule:evenodd;clip-rule:evenodd;fill:#FFFFFF;}
	.st6{display:none;fill:url(#SVGID_00000093169086536863636030000002004852799139003270_);}
	.st7{display:none;fill:url(#SVGID_00000005983671241520189970000010378974381405783208_);}
	.st8{display:none;fill:url(#SVGID_00000125579320263522378570000017818065926209284022_);}
	.st9{display:none;fill:url(#SVGID_00000120548190909389835880000012282122989796576436_);}
	.st10{display:none;fill:none;stroke:#2D2D3D;stroke-width:2;}
	.st11{fill:#01FFC8;stroke:#000000;stroke-width:0.25;}
	.st12{fill:none;stroke:#01FFC8;stroke-width:0.9306;}
	.st13{stroke:#000000;stroke-width:0.5;stroke-miterlimit:10;}
	.st14{font-family:'FONTSPRINGDEMO-BiennaleBoldRegular';}
	.st15{font-size:42.9327px;}
</style>
<g>
	<g>
		<path class="st0" d="M261.3,83.8h-5.2v16.6h-5.2V83.8h-5.2v-4.7h15.7L261.3,83.8L261.3,83.8L261.3,83.8z"/>
		<path class="st0" d="M279.7,93c0,2.3-0.8,4.1-2.4,5.5c-1.5,1.5-3.5,2.1-5.8,2.1s-4.1-0.7-5.7-2.1c-1.5-1.5-2.4-3.3-2.4-5.5v-7.4
			h5.2V93c0,1,0.2,1.7,0.7,2.3c0.5,0.6,1.2,0.8,2.1,0.8s1.5-0.3,2.1-0.8c0.5-0.5,0.8-1.3,0.8-2.3v-7.2h5.2L279.7,93L279.7,93z"/>
		<path class="st0" d="M298.7,100.5h-6.1l-3.8-7.9H287v7.9h-5.2V79.2h8.4c2.2,0,4.1,0.7,5.4,2.1c1.3,1.3,1.8,2.9,1.8,4.7
			c0,2.6-1.2,4.4-3.5,5.5C294.1,91.6,298.7,100.5,298.7,100.5z M292.4,86c0-0.5-0.2-1-0.7-1.5c-0.4-0.4-1-0.7-1.6-0.7h-3v4.3h3
			c0.7,0,1.2-0.2,1.6-0.6C292.1,87.1,292.4,86.6,292.4,86z"/>
		<path class="st0" d="M318.9,100.5h-6.1l-4.9-8.7l-1.8,2.1v6.6h-5.2V79.2h5.2v7.5l6.1-7.5h6.4l-7.2,8.6L318.9,100.5L318.9,100.5
			L318.9,100.5z"/>
		<path class="st0" d="M326.4,100.5h-5.2V85.6h5.2V100.5z"/>
		<path class="st0" d="M326.4,83.9h-5.2v-4.7h5.2V83.9z"/>
		<path class="st0" d="M279.7,83.9h-5.2v-4.7h5.2V83.9z"/>
		<path class="st0" d="M268.7,83.9h-5.2v-4.7h5.2V83.9z"/>
		<path class="st0" d="M346.7,79.2l-6.4,12.6v8.6H335v-8.6l-6.4-12.6h5.7l3.3,7.7l3.3-7.7H346.7L346.7,79.2z"/>
		<path class="st0" d="M363.4,100.5h-14.5V79.2h14.5v4.7h-9.2v3.5h7.9V92h-7.9v3.8h9.2V100.5L363.4,100.5L363.4,100.5z"/>
	</g>
</g>
<path class="st1" d="M124.7,76.1c-3,0-5.4-0.7-7.3-2.1s-2.8-3.5-2.8-6.1c0-0.6,0.1-1.2,0.2-2c0.3-1.8,0.8-4,1.4-6.5
	c1.7-6.9,6.1-10.4,13.2-10.4c1.9,0,3.7,0.3,5.2,1c1.5,0.6,2.7,1.6,3.6,2.9c0.9,1.2,1.3,2.8,1.3,4.5c0,0.5-0.1,1.2-0.2,2
	c-0.4,2.2-0.8,4.4-1.4,6.5c-0.9,3.4-2.4,6-4.6,7.7C131.2,75.2,128.3,76.1,124.7,76.1L124.7,76.1z M125.2,70.6c1.4,0,2.6-0.4,3.6-1.2
	c1-0.8,1.7-2.1,2.1-3.8c0.6-2.4,1-4.4,1.3-6.2c0.1-0.5,0.1-1.1,0.1-1.6c0-2.3-1.2-3.4-3.6-3.4c-1.4,0-2.6,0.4-3.6,1.2
	s-1.7,2.1-2.1,3.8s-0.9,3.7-1.4,6.2c-0.1,0.5-0.2,1-0.2,1.6C121.6,69.5,122.8,70.6,125.2,70.6L125.2,70.6L125.2,70.6z"/>
<path class="st1" d="M143.2,75.7c-0.3,0-0.5-0.1-0.6-0.3c-0.1-0.2-0.2-0.4-0.1-0.7l5.2-24.5c0.1-0.3,0.2-0.5,0.4-0.7
	s0.5-0.3,0.7-0.3h10c2.8,0,5,0.6,6.7,1.7c1.7,1.2,2.6,2.8,2.6,5c0,0.6-0.1,1.3-0.2,2c-0.6,2.9-1.9,5-3.8,6.4
	c-1.9,1.4-4.5,2.1-7.8,2.1h-5.1l-1.7,8.2c-0.1,0.3-0.2,0.5-0.4,0.7s-0.5,0.3-0.7,0.3L143.2,75.7L143.2,75.7z M156.6,61.3
	c1.1,0,2-0.3,2.8-0.9c0.8-0.6,1.3-1.4,1.6-2.5c0.1-0.4,0.1-0.8,0.1-1.1c0-0.7-0.2-1.3-0.6-1.7c-0.4-0.4-1.1-0.6-2.2-0.6h-4.5
	l-1.4,6.7L156.6,61.3L156.6,61.3z"/>
<path class="st1" d="M176.6,75.7c-0.3,0-0.5-0.1-0.6-0.3c-0.1-0.2-0.2-0.4-0.1-0.7l4.2-19.5h-6.7c-0.3,0-0.5-0.1-0.6-0.3
	s-0.2-0.4-0.1-0.7l0.9-4c0.1-0.3,0.2-0.5,0.4-0.7s0.5-0.3,0.7-0.3H195c0.3,0,0.5,0.1,0.6,0.3s0.1,0.3,0.1,0.5c0,0.1,0,0.2,0,0.2
	l-0.9,4c-0.1,0.3-0.2,0.5-0.4,0.7s-0.4,0.3-0.7,0.3H187l-4.2,19.5c-0.1,0.3-0.2,0.5-0.4,0.7s-0.5,0.3-0.7,0.3H176.6z"/>
<path class="st1" d="M196.5,75.7c-0.3,0-0.5-0.1-0.6-0.3c-0.1-0.2-0.2-0.4-0.1-0.7l5.2-24.5c0.1-0.3,0.2-0.5,0.4-0.7
	s0.5-0.3,0.7-0.3h5.1c0.3,0,0.5,0.1,0.6,0.3s0.1,0.3,0.1,0.5c0,0.1,0,0.2,0,0.2l-5.2,24.5c-0.1,0.3-0.2,0.5-0.4,0.7
	s-0.5,0.3-0.7,0.3H196.5z"/>
<path class="st1" d="M210.8,75.7c-0.3,0-0.5-0.1-0.6-0.3c-0.1-0.2-0.2-0.4-0.1-0.7l5.2-24.5c0.1-0.3,0.2-0.5,0.4-0.7
	s0.5-0.3,0.8-0.3h4.1c0.6,0,1,0.3,1.2,0.8l4.1,11.9L235,50c0.1-0.2,0.3-0.4,0.5-0.6c0.2-0.2,0.6-0.3,0.9-0.3h4.1
	c0.3,0,0.5,0.1,0.6,0.3s0.1,0.3,0.1,0.5c0,0.1,0,0.2,0,0.2L236,74.8c-0.1,0.3-0.2,0.5-0.4,0.7s-0.5,0.3-0.7,0.3h-4.6
	c-0.3,0-0.5-0.1-0.6-0.3c-0.1-0.2-0.2-0.4-0.1-0.7l2.9-13.9l-5.8,7.6c-0.2,0.3-0.5,0.5-0.7,0.6s-0.5,0.2-0.8,0.2h-2
	c-0.5,0-0.9-0.3-1.1-0.9l-2.7-8l-3,14.2c-0.1,0.3-0.2,0.5-0.4,0.7s-0.5,0.3-0.7,0.3L210.8,75.7L210.8,75.7z"/>
<path class="st1" d="M244.1,75.7c-0.3,0-0.5-0.1-0.6-0.3c-0.1-0.2-0.2-0.4-0.1-0.7l5.2-24.5c0.1-0.3,0.2-0.5,0.4-0.7
	s0.5-0.3,0.7-0.3h5.1c0.3,0,0.5,0.1,0.6,0.3s0.1,0.3,0.1,0.5c0,0.1,0,0.2,0,0.2l-5.2,24.5c-0.1,0.3-0.2,0.5-0.4,0.7
	s-0.5,0.3-0.7,0.3H244.1z"/>
<path class="st1" d="M267.7,76.1c-2.2,0-4.1-0.3-5.7-0.9s-2.7-1.4-3.5-2.4s-1.2-2.1-1.2-3.3c0-0.2,0-0.5,0.1-0.9
	c0-0.2,0.1-0.4,0.3-0.6c0.2-0.2,0.4-0.2,0.6-0.2h4.8c0.3,0,0.5,0.1,0.7,0.2s0.4,0.3,0.5,0.5c0.2,0.7,0.6,1.2,1.2,1.6
	s1.5,0.6,2.7,0.6c1.4,0,2.6-0.2,3.5-0.7c0.9-0.4,1.4-1.1,1.6-1.8c0-0.1,0-0.2,0-0.4c0-0.6-0.4-1.1-1.2-1.5c-0.8-0.4-2.2-0.8-4.3-1.3
	c-2.4-0.5-4.3-1.3-5.5-2.4c-1.2-1.1-1.9-2.5-1.9-4.2c0-0.6,0.1-1.2,0.2-1.8c0.5-2.3,1.7-4.2,3.7-5.5s4.6-2,7.8-2
	c1.9,0,3.6,0.3,5.1,1s2.6,1.5,3.4,2.6c0.8,1,1.2,2.1,1.2,3.1c0,0.3,0,0.5,0,0.6c0,0.2-0.2,0.4-0.3,0.6c-0.1,0.2-0.3,0.2-0.6,0.2h-5
	c-0.5,0-0.9-0.2-1.1-0.6c0-0.6-0.3-1.1-0.9-1.5s-1.3-0.6-2.3-0.6c-1.1,0-2,0.2-2.8,0.6c-0.7,0.4-1.1,1-1.3,1.8c0,0.1,0,0.3,0,0.5
	c0,0.6,0.4,1.1,1,1.5c0.7,0.4,2,0.8,3.8,1.2c2.8,0.5,4.9,1.3,6.1,2.4c1.3,1,2,2.4,2,4.1c0,0.6-0.1,1.2-0.2,1.9
	c-0.5,2.6-1.9,4.5-4,5.8C274.1,75.4,271.2,76.1,267.7,76.1L267.7,76.1L267.7,76.1z"/>
<path class="st1" d="M285.4,75.7c-0.3,0-0.5-0.1-0.6-0.3c-0.1-0.2-0.2-0.4-0.1-0.7l5.2-24.5c0-0.3,0.2-0.5,0.4-0.7
	c0.2-0.2,0.5-0.3,0.8-0.3h4.1c0.6,0,1,0.3,1.2,0.8l4.1,11.9l9.1-11.9c0.1-0.2,0.3-0.4,0.5-0.6c0.2-0.2,0.5-0.3,0.9-0.3h4.1
	c0.3,0,0.5,0.1,0.6,0.3s0.1,0.3,0.1,0.5c0,0.1,0,0.2,0,0.2l-5.2,24.5c0,0.3-0.2,0.5-0.4,0.7c-0.2,0.2-0.5,0.3-0.7,0.3h-4.6
	c-0.3,0-0.5-0.1-0.6-0.3c-0.1-0.2-0.2-0.4-0.1-0.7l2.9-13.9l-5.8,7.6c-0.2,0.3-0.5,0.5-0.7,0.6s-0.5,0.2-0.8,0.2h-2
	c-0.5,0-0.9-0.3-1.1-0.9l-2.7-8l-3,14.2c0,0.3-0.2,0.5-0.4,0.7c-0.2,0.2-0.5,0.3-0.7,0.3L285.4,75.7L285.4,75.7z"/>
<path class="st2" d="M297.4,43.2l-26.2,37.5h8l26.3-37.5C305.5,43.2,297.4,43.2,297.4,43.2z"/>
<linearGradient id="SVGID_1_" gradientUnits="userSpaceOnUse" x1="277.4082" y1="20.267" x2="288.4418" y2="33.5871" gradientTransform="matrix(1 0 0 1 0 26)">
	<stop  offset="0" style="stop-color:#FFFFFF"/>
	<stop  offset="1" style="stop-color:#FFFFFF;stop-opacity:0.55"/>
</linearGradient>
<path class="st3" d="M280.1,43.2l7.7,11.1l-4,6l-11.9-17.1C271.9,43.2,280.1,43.2,280.1,43.2z"/>
<linearGradient id="SVGID_00000010292506251866194540000002421784727203799429_" gradientUnits="userSpaceOnUse" x1="300.3466" y1="51.6771" x2="286.7903" y2="33.4018" gradientTransform="matrix(1 0 0 1 0 26)">
	<stop  offset="0" style="stop-color:#6966FF"/>
	<stop  offset="1" style="stop-color:#6966FF;stop-opacity:0.36"/>
</linearGradient>
<path style="display:none;fill:url(#SVGID_00000010292506251866194540000002421784727203799429_);" d="M298.2,80.8l-8.5-12.2l4-5.9
	l12.6,18.1H298.2z"/>
<path class="st5" d="M261.8,43.2h7v37.5h-7v-1.4c-2,1.1-4.4,1.7-6.8,1.7c-7.9,0-14.3-6.4-14.3-14.2s6.4-14.2,14.3-14.2
	c2.5,0,4.8,0.6,6.8,1.7V43.2z M254.9,74.9c4.5,0,8.1-3.6,8.1-8s-3.6-8-8.1-8s-8.1,3.6-8.1,8C246.8,71.3,250.4,74.9,254.9,74.9z"/>
<path class="st2" d="M241.4,43.2l-26.2,37.5h8.2l26.1-37.5C249.5,43.2,241.4,43.2,241.4,43.2z"/>
<linearGradient id="SVGID_00000093878187001879915680000009782397107324900521_" gradientUnits="userSpaceOnUse" x1="220.6387" y1="20.4613" x2="232.0768" y2="34.448" gradientTransform="matrix(1 0 0 1 0 26)">
	<stop  offset="0" style="stop-color:#FFFFFF"/>
	<stop  offset="1" style="stop-color:#FFFFFF;stop-opacity:0.55"/>
</linearGradient>
<path style="display:none;fill:url(#SVGID_00000093878187001879915680000009782397107324900521_);" d="M223.4,43.2l8.2,11.4
	l-4.5,6.4l-12.2-17.8H223.4z"/>
<path class="st5" d="M205.8,43.2h7v37.5h-7v-1.4c-2,1.1-4.4,1.7-6.8,1.7c-7.9,0-14.3-6.4-14.3-14.2s6.4-14.2,14.3-14.2
	c2.5,0,4.8,0.6,6.8,1.7V43.2z M198.9,74.9c4.5,0,8.1-3.6,8.1-8s-3.6-8-8.1-8s-8.1,3.6-8.1,8C190.8,71.3,194.5,74.9,198.9,74.9z"/>
<linearGradient id="SVGID_00000124881569288680538430000012069399941545754755_" gradientUnits="userSpaceOnUse" x1="157.39" y1="8.4349" x2="147.7309" y2="48.5905" gradientTransform="matrix(1 0 0 1 0 26)">
	<stop  offset="0" style="stop-color:#2C2C3D"/>
	<stop  offset="1" style="stop-color:#1A1A27"/>
</linearGradient>
<path style="display:none;fill:url(#SVGID_00000124881569288680538430000012069399941545754755_);" d="M139.4,41.4h23.2
	c4.4,0,8,3.6,8,8v23.2c0,4.4-3.6,8-8,8h-23.2c-4.4,0-8-3.6-8-8V49.4C131.4,45,135,41.4,139.4,41.4z"/>
<path class="st2" d="M156.2,50.5L140.9,72h4.7L161,50.5H156.2z"/>
<linearGradient id="SVGID_00000137819983212667138400000004881702792438695045_" gradientUnits="userSpaceOnUse" x1="144.5832" y1="26.1852" x2="150.8789" y2="33.9196" gradientTransform="matrix(1 0 0 1 0 26)">
	<stop  offset="0" style="stop-color:#FFFFFF"/>
	<stop  offset="1" style="stop-color:#FFFFFF;stop-opacity:0.55"/>
</linearGradient>
<path style="display:none;fill:url(#SVGID_00000137819983212667138400000004881702792438695045_);" d="M146.1,50.5l4.5,6.3l-2.3,3.5
	l-6.9-9.8H146.1z"/>
<linearGradient id="SVGID_00000149375351435356485490000009208974451317775507_" gradientUnits="userSpaceOnUse" x1="157.7907" y1="44.2856" x2="150.0696" y2="33.6931" gradientTransform="matrix(1 0 0 1 0 26)">
	<stop  offset="0" style="stop-color:#6966FF"/>
	<stop  offset="1" style="stop-color:#6966FF;stop-opacity:0.36"/>
</linearGradient>
<path style="display:none;fill:url(#SVGID_00000149375351435356485490000009208974451317775507_);" d="M156.6,72l-5-7l2.3-3.4
	l7.3,10.4H156.6z"/>
<path class="st10" d="M139.4,41.4h23.2c4.4,0,8,3.6,8,8v23.2c0,4.4-3.6,8-8,8h-23.2c-4.4,0-8-3.6-8-8V49.4
	C131.4,45,135,41.4,139.4,41.4z"/>
<g>
	<path class="st11" d="M183.1,43.2c0.5,0,1,0.3,1.2,0.7c0.2,0.5,0.2,1-0.1,1.4l-22.3,27.9c-0.2,0.2-0.3,0.3-0.5,0.4
		c-0.4,0.2-0.8,0.2-1.2,0c-0.5-0.3-0.9-0.9-0.7-1.5l4-15.4L147,56.8c-0.5,0-1-0.3-1.2-0.7s-0.2-1,0.1-1.4l22.3-27.9
		c0.4-0.5,1-0.7,1.6-0.4c0.6,0.2,0.9,0.9,0.7,1.5l-4,15.4L183.1,43.2z"/>
</g>
<g>
	<path class="st12" d="M183.1,43.9c0.5,0,4.5,2.1,4.7,2.6s0.2,1-0.1,1.4l-22.5,28.2c-0.2,0.2-0.3,0.3-0.5,0.4
		c-0.4,0.2-0.8,0.2-1.2,0c-0.5-0.3-3.9-3-3.7-3.6l7.3-11.8h-15.8c-0.5,0-5.5-4.8-5.3-5.2c10.6-13.5,18.1-23.1,22.6-28.7
		c0.7-0.9,4.1,1.4,4.6,1.7c0.6,0.2,0.9,0.9,0.7,1.5L170,45.8L183.1,43.9z"/>
</g>
<text transform="matrix(1 0 0 1 198.8495 67.3554)" class="st13 st14 st15">Fuel Network</text>
</svg>
