<?xml version="1.0" encoding="utf-8"?>
<!-- Generator: Adobe Illustrator 26.3.1, SVG Export Plug-In . SVG Version: 6.00 Build 0)  -->
<svg version="1.1" id="Layer_1" xmlns="http://www.w3.org/2000/svg" xmlns:xlink="http://www.w3.org/1999/xlink" x="0px" y="0px"
	 viewBox="0 0 595.3 126.9" style="enable-background:new 0 0 595.3 126.9;" xml:space="preserve">
<style type="text/css">
	.st0{display:none;fill:#FFFFFF;}
	.st1{fill:#09FFC8;}
	.st2{fill:#090817;}
	.st3{fill:#0A0917;}
	.st4{fill:#0B0918;}
	.st5{fill:#0B0A19;}
	.st6{fill:#0C0918;}
	.st7{fill:#D2CDD0;}
	.st8{fill:#929EA4;}
	.st9{fill:#FFFFFF;}
	.st10{fill:#FEFEFE;}
</style>
<g>
	<path class="st0" d="M439.3,139.7c-94.4,0-188.8,0-283.2,0c0-50.8,0-101.7,0-152.5c94.4,0,188.8,0,283.2,0
		C439.3,38,439.3,88.9,439.3,139.7z"/>
	<path class="st1" d="M230.4,80.8c-0.3-0.1-0.5,0-0.7,0c-5.9,0-11.8,0-17.7,0c-0.7,0-1.3-0.2-1.9-0.6c-1.1-0.8-2.1-1.7-3.1-2.7
		c-1.6-1.5-3.1-2.9-4.5-4.5c-0.4-0.4-0.7-0.9-1-1.4c-0.3-0.5-0.4-1.1,0-1.6c0-0.1,0.1-0.1,0.1-0.2c0.1-0.7,0.5-1.3,1-1.8
		c7.6-9.5,15.2-18.9,22.7-28.4c5.1-6.4,10.2-12.9,15.3-19.3c0.4-0.5,0.7-0.9,1.3-1.1c0.6-0.2,1.1-0.2,1.7-0.1
		c2.1,0.6,3.9,1.6,5.7,2.7c0.4,0.3,0.9,0.5,1.3,0.8c1.3,0.8,2,2.2,1.6,3.7c-0.7,2.9-1.5,5.8-2.2,8.6c-1.1,4.3-2.3,8.6-3.4,12.9
		c0,0.1,0,0.2-0.1,0.2c-0.1,0.5-0.1,0.5,0.4,0.5c6.1,0,12.3,0,18.4,0c0.5,0,1,0,1.5,0c0.6,0,1.1,0.1,1.6,0.5
		c0.2,0.1,0.4,0.2,0.6,0.3c1.9,0.9,3.8,1.9,5.6,3.1c0.2,0.1,0.4,0.3,0.6,0.4c1.5,1,1.8,2.9,0.7,4.4c-0.4,0.5-0.8,1.1-1.3,1.6
		c-8.7,10.8-17.3,21.7-26,32.5c-4,4.9-7.9,9.9-11.9,14.8c-0.2,0.3-0.4,0.6-0.7,0.8c-1.2,1-2.8,1.1-4.1,0.3c-0.9-0.5-1.6-1.2-2.4-1.8
		c-1.1-0.9-2.2-1.9-3.1-2.9c-0.4-0.4-0.7-0.8-0.9-1.3c-0.3-0.5-0.4-1,0-1.6c0.2-0.2,0.2-0.5,0.2-0.8c1.5-5.9,3.1-11.8,4.6-17.7
		C230.4,81.1,230.5,81,230.4,80.8z"/>
	<path class="st2" d="M302.1,50c-0.2,1-0.4,2-0.6,2.9c-0.1,0.3-0.1,0.8-0.3,1c-0.3,0.2-0.7,0.1-1.1,0.1c-3.2,0-6.5,0-9.7,0
		c-0.1,0-0.2,0-0.4,0c-0.3-0.1-0.4,0.1-0.5,0.4c-0.3,1.6-0.6,3.2-1,4.9c0.7,0,1.3,0,2,0c0.7,0,1.3,0,2,0c0.7,0,1.4,0,2.1,0
		c0.7,0,1.3,0,2,0c0.7,0,1.3,0,2,0c0.1,0.1,0.1,0.3,0.1,0.4c-0.2,1.1-0.4,2.1-0.7,3.2c-0.1,0.5-0.1,0.5-0.6,0.5c-3,0-6,0-9,0
		c-0.1,0-0.2,0-0.4,0c-0.3,0-0.4,0.1-0.5,0.4c-0.6,3-1.2,6.1-1.9,9.1c-0.1,0.5-0.1,0.5-0.6,0.5c-1.3,0-2.5,0-3.8,0
		c-0.1,0-0.3,0-0.4,0c0-0.5,0.1-1,0.2-1.5c1.5-7.2,2.9-14.3,4.4-21.5c0.1-0.4,0.1-0.4,0.5-0.4c5.2,0,10.4,0,15.6,0
		C301.9,50,302,50,302.1,50z"/>
	<path class="st2" d="M332.1,68.5c0,0.1,0,0.2-0.1,0.3c-2,3.6-5,5.3-9,5.3c-0.8,0-1.6-0.2-2.4-0.5c-2.4-1-3.8-2.8-4-5.3
		c-0.3-3.3,0.6-6.4,2.6-9.1c1.6-2.2,3.9-3.3,6.6-3.4c1.2-0.1,2.4,0,3.6,0.5c2.3,0.9,3.8,3,3.9,5.5c0,1.3-0.1,2.6-0.4,3.8
		c-0.1,0.5-0.1,0.5-0.7,0.5c-3.5,0-6.9,0-10.4,0c-0.7,0-0.7,0-0.8,0.7c0,0.4-0.1,0.8,0,1.2c0.3,1.9,1.8,2.6,3.3,2.5
		c1.3-0.1,2.4-0.6,3.2-1.8c0.1-0.2,0.2-0.2,0.4-0.2C329.4,68.5,330.7,68.5,332.1,68.5C332.1,68.5,332.1,68.5,332.1,68.5z"/>
	<path class="st2" d="M308.8,71.5c-0.4,0.4-0.7,0.8-1.2,1.1c-1.8,1.4-3.8,1.8-6,1.3c-1.9-0.5-3-2-3.1-3.9c0-1.1,0.2-2.1,0.4-3.1
		c0.7-3.4,1.4-6.9,2.1-10.3c0.1-0.5,0.1-0.5,0.6-0.5c1.3,0,2.6,0,3.9,0c0,0.6-0.2,1.2-0.3,1.7c-0.6,2.9-1.2,5.9-1.8,8.8
		c-0.1,0.5-0.2,1-0.2,1.5c0,1.7,1,2.6,2.7,2.5c1.1-0.1,2-0.6,2.7-1.5c0.7-0.9,1.1-1.9,1.3-3c0.6-3.2,1.3-6.3,1.9-9.5
		c0.1-0.5,0.1-0.5,0.6-0.5c1.3,0,2.6,0,4,0c0,0.6-0.2,1.2-0.3,1.8c-1,5-2,9.9-3,14.9c0,0.1-0.1,0.2-0.1,0.3c0,0.2-0.1,0.3-0.3,0.3
		c-1.4,0-2.8,0-4.2,0c0-0.6,0.2-1.2,0.3-1.7C309,71.5,309,71.4,308.8,71.5z"/>
	<path class="st2" d="M343,50c-0.2,0.8-0.3,1.5-0.4,2.3c-1.4,6.8-2.8,13.6-4.2,20.4c-0.2,0.8-0.2,0.8-0.9,0.8c-1.2,0-2.4,0-3.6,0
		c-0.1-0.3,0.1-0.6,0.1-0.9c1.2-6,2.4-12,3.7-18c0.3-1.4,0.6-2.7,0.8-4.1c0-0.2,0.1-0.4,0.4-0.4C340.1,50,341.5,50,343,50z"/>
	<path class="st2" d="M393.5,70.7c0,0.4-0.2,0.6-0.3,0.9c-0.9,1.5-2.6,2.4-4.5,2c-1.6-0.3-2.6-1.7-2.5-3.3c0.1-1.3,0.4-2.5,1-3.6
		c0.8-1.4,2-2.2,3.6-2.3c0.8-0.1,1.6,0.1,2.3,0.5c0.9,0.6,1.3,1.4,1.3,2.4c0,0.6-0.1,1.2-0.2,1.8c0,0.2-0.2,0.3-0.4,0.3
		c-0.5,0-1,0-1.4,0c-1.4,0-2.8,0-4.2,0c-0.5,0-0.5,0-0.5,0.5c0,0.4,0,0.8,0.1,1.1c0.3,0.9,1.1,1.4,2.1,1.3c0.9-0.1,1.6-0.5,2.1-1.2
		c0.3-0.4,0.5-0.6,1-0.5C393,70.7,393.2,70.7,393.5,70.7z"/>
	<path class="st2" d="M369.7,67.9c1.2-1,2.4-2,3.6-3c0.3-0.3,0.6-0.4,1-0.4c0.3,0,0.7,0,1,0c0.1,0.2-0.1,0.2-0.2,0.3
		c-1,0.8-2,1.6-2.9,2.4c-0.2,0.2-0.3,0.4-0.2,0.6c0.7,1.5,1.3,3.1,1.9,4.6c0.1,0.2,0.2,0.4,0.2,0.6c-0.1,0.1-0.1,0.1-0.2,0.1
		c-0.5,0-1,0.2-1.3-0.1c-0.3-0.2-0.4-0.8-0.5-1.2c-0.5-1.2-0.9-2.3-1.4-3.6c-0.6,0.5-1.1,0.9-1.7,1.4c-0.1,0.1-0.1,0.3-0.1,0.4
		c-0.2,0.9-0.4,1.7-0.5,2.6c-0.1,0.3-0.2,0.4-0.5,0.4c-0.3,0-0.6,0-1,0c0.2-1,0.4-2,0.6-3c0.6-2.8,1.2-5.7,1.7-8.5
		c0.1-0.5,0.1-0.5,0.7-0.5c0.2,0,0.4,0,0.7,0c0,0,0.1,0,0.1,0.1c-0.2,1-0.4,1.9-0.6,2.9c-0.2,1.1-0.4,2.3-0.7,3.4
		C369.5,67.8,369.5,68,369.7,67.9z"/>
	<path class="st2" d="M381.7,71.2c0.2-0.1,0.2-0.3,0.3-0.5c1.1-1.9,2.1-3.7,3.1-5.6c0.2-0.3,0.4-0.5,0.8-0.5c0.3,0,0.5,0,0.8,0
		c0.1,0.2,0,0.3-0.1,0.4c-1.9,3.3-3.8,6.7-5.7,10c-0.2,0.4-0.4,0.7-0.7,1c-0.7,0.7-1.5,0.9-2.4,0.8c-0.4,0-0.4-0.1-0.3-0.5
		c0-0.1,0-0.2,0-0.3c0.1-0.6,0.1-0.6,0.7-0.5c0.6,0.1,1.1-0.2,1.4-0.7c0.2-0.3,0.4-0.6,0.6-0.9c0.3-0.4,0.3-0.7,0.3-1.2
		c-0.4-2.5-0.7-4.9-1-7.4c-0.1-0.9-0.2-0.7,0.6-0.7c0.9,0,0.7-0.1,0.9,0.8c0.2,1.8,0.4,3.6,0.6,5.4
		C381.5,70.9,381.5,71.1,381.7,71.2z"/>
	<path class="st2" d="M356.5,64.7c-0.2,0.8-0.3,1.6-0.5,2.4c-0.2,1.2-0.5,2.4-0.7,3.6c-0.2,1.1,0.3,1.8,1.5,1.8c0.8,0,1.5-0.4,2-1
		c0.5-0.6,0.7-1.2,0.9-1.9c0.3-1.5,0.6-2.9,0.9-4.4c0.1-0.5,0.1-0.5,0.6-0.5c0.2,0,0.5,0,0.7,0c0,0,0.1,0,0.2,0
		c0,0.6-0.2,1.2-0.3,1.8c-0.4,2.1-0.9,4.2-1.3,6.3c-0.1,0.4-0.1,0.4-0.5,0.4c-0.3,0-0.5,0-0.8,0c-0.1-0.3,0.1-0.5,0.1-0.7
		c-0.1,0-0.2,0.1-0.3,0.2c-1,0.8-2.1,1.1-3.3,0.9c-1.3-0.1-2-1-1.8-2.3c0.4-2.1,0.9-4.2,1.3-6.3c0.1-0.3,0.2-0.4,0.5-0.4
		C355.8,64.7,356.1,64.6,356.5,64.7z"/>
	<path class="st2" d="M347.5,73.2c0.2-1,0.4-1.9,0.6-2.9c0.5-2.4,1-4.8,1.5-7.2c0,0,0,0,0-0.1c0.1-0.5,0.1-0.5-0.4-0.5
		c-1,0-1.9,0-2.9,0c-0.2,0-0.3,0-0.5,0c-0.1-0.4,0.1-0.7,0.1-1.1c0-0.2,0.1-0.2,0.3-0.2c0.1,0,0.2,0,0.2,0c2.9,0,5.7,0,8.6,0
		c0.1,0,0.2,0,0.3,0c0,0.1,0,0.1,0,0.1c-0.1,0.4,0,0.9-0.3,1.1c-0.3,0.3-0.8,0.1-1.2,0.1c-0.8,0-1.5,0-2.3,0c-0.5,0-0.5,0-0.6,0.4
		c-0.5,2.3-1,4.7-1.4,7c-0.2,1-0.4,1.9-0.6,2.9c-0.1,0.3-0.2,0.4-0.5,0.4C348.3,73.3,347.9,73.3,347.5,73.2z"/>
	<path class="st2" d="M362.1,73.3c0.3-1.6,0.6-3.2,1-4.8c0.2-1.1,0.5-2.3,0.7-3.4c0.1-0.5,0.1-0.5,0.6-0.5c0.7,0,0.8-0.2,0.6,0.7
		c0,0.1,0,0.3-0.1,0.5c0.3-0.1,0.4-0.4,0.6-0.5c0.5-0.5,1.1-0.8,1.8-0.9c0.2,0,0.4,0,0.5,0c0.2,0,0.2,0.1,0.2,0.3c0,0.1,0,0.1,0,0.2
		c-0.1,0.3-0.1,0.6-0.2,0.9c-0.2,0.3-0.5,0.1-0.8,0.2c-1,0.2-1.7,0.7-2.2,1.7c-0.3,0.7-0.4,1.4-0.6,2.2c-0.2,1-0.4,2.1-0.6,3.1
		c-0.1,0.4-0.1,0.4-0.5,0.4C362.8,73.3,362.5,73.3,362.1,73.3z"/>
	<path class="st3" d="M378.1,64.7c-0.2,0.8-0.3,1.6-0.5,2.4c-0.4,1.9-0.8,3.8-1.2,5.7c-0.1,0.5-0.1,0.5-0.6,0.5c-0.3,0-0.5,0-0.8,0
		c0-0.6,0.2-1.2,0.3-1.8c0.4-2.1,0.8-4.2,1.3-6.3c0-0.1,0.1-0.2,0.1-0.3c0-0.2,0.1-0.3,0.3-0.3C377.4,64.6,377.7,64.6,378.1,64.7z"
		/>
	<path class="st4" d="M356.5,63.4c0.1-0.5,0.2-1,0.3-1.4c0-0.2,0.1-0.3,0.3-0.3c0.5,0,0.9,0,1.4,0c0,0.6-0.2,1-0.3,1.5
		c0,0.2-0.1,0.2-0.2,0.2C357.5,63.4,357,63.4,356.5,63.4z"/>
	<path class="st5" d="M361.3,61.7c0,0.1,0,0.2,0,0.2c-0.1,0.5-0.1,1-0.4,1.5c-0.5,0-1.1,0-1.6,0c0-0.5,0.2-1,0.3-1.5
		c0-0.2,0.2-0.2,0.3-0.2C360.4,61.7,360.9,61.7,361.3,61.7z"/>
	<path class="st6" d="M377.1,62.9c0.1-0.5,0.2-1,0.3-1.4c0-0.2,0.1-0.3,0.4-0.3c0.4,0,0.7,0,1.1,0c0,0.5-0.2,1-0.3,1.4
		c0,0.2-0.1,0.3-0.3,0.3C377.9,62.9,377.5,62.9,377.1,62.9z"/>
	<path class="st7" d="M369.7,67.9c0,0.1-0.1,0.2-0.2,0.2c-0.1,0-0.1-0.2,0-0.2c0-0.1,0.1-0.1,0.1-0.2
		C369.6,67.8,369.6,67.9,369.7,67.9z"/>
	<path class="st8" d="M308.8,71.5c0-0.1,0.1-0.2,0.2-0.2c0.1,0.1,0,0.2-0.1,0.3C308.9,71.6,308.9,71.5,308.8,71.5z"/>
	<path class="st9" d="M228.8,101.8c0.6-0.2,1-0.7,1.3-1.2c8.2-10.2,16.4-20.5,24.6-30.7c4.6-5.7,9.2-11.5,13.8-17.2
		c0.1-0.1,0.2-0.3,0.3-0.4c0.4-0.5,0.4-0.5,0.9-0.2c1.4,0.7,2.8,1.5,4.1,2.3c0.8,0.6,0.9,1.1,0.3,1.9c-1.7,2.2-3.5,4.3-5.2,6.5
		c-7,8.8-14,17.6-21.1,26.4c-4.2,5.3-8.4,10.5-12.6,15.8c-0.1,0.1-0.2,0.3-0.3,0.4c-0.5,0.5-1.1,0.6-1.8,0.2
		c-0.4-0.3-0.8-0.6-1.2-0.9c-1-0.8-1.9-1.6-2.8-2.5C229,102,228.9,102,228.8,101.8z"/>
	<path class="st9" d="M238.1,48.6c2.3-8.9,4.6-17.8,7-26.6c0.2,0,0.3,0.1,0.5,0.1c1.4,0.7,2.7,1.6,4.1,2.3c0.5,0.3,0.7,0.8,0.5,1.5
		c-0.5,1.9-1,3.8-1.5,5.6c-1.4,5.5-2.9,10.9-4.3,16.4c-0.2,0.7-0.2,0.7-1,0.7c-1.5,0-3.1,0-4.6,0C238.6,48.6,238.4,48.7,238.1,48.6z
		"/>
	<path class="st9" d="M232.8,72.2c-0.4,1.5-0.8,3-1.2,4.4c-0.1,0.6-0.3,1.1-0.4,1.7c-0.1,0.2-0.2,0.4-0.4,0.3c-0.1,0-0.2,0-0.3,0
		c-6.1,0-12.2,0-18.3,0c-0.4,0-0.7-0.1-0.9-0.3c-2.3-1.8-4.3-3.8-6.3-5.9c0,0,0-0.1,0-0.1c0,0,0,0,0,0c0.1,0,0.2,0,0.4,0
		C214.5,72.3,223.6,72.2,232.8,72.2z"/>
	<path class="st9" d="M321.8,63.1c0.2-2,2-3.7,3.9-3.7c0.4,0,0.8,0,1.2,0.1c0.8,0.2,1.3,0.6,1.5,1.4c0.2,0.7,0.2,1.4,0.3,2
		c0,0.2-0.1,0.3-0.3,0.3c-0.1,0-0.2,0-0.4,0c-1.9,0-3.8,0-5.8,0C322.2,63.1,322,63.2,321.8,63.1z"/>
	<path class="st10" d="M387.9,68.2c0.3-1.5,1.6-2.6,3-2.6c1.2,0,2.1,1.1,1.8,2.3c0,0.2-0.1,0.3-0.3,0.3
		C390.9,68.2,389.5,68.2,387.9,68.2z"/>
</g>
</svg>
