<?xml version="1.0" encoding="utf-8"?>
<!-- Generator: Adobe Illustrator 26.3.1, SVG Export Plug-In . SVG Version: 6.00 Build 0)  -->
<svg version="1.1" id="Layer_1" xmlns="http://www.w3.org/2000/svg" xmlns:xlink="http://www.w3.org/1999/xlink" x="0px" y="0px"
	 viewBox="0 0 595.3 126.9" style="enable-background:new 0 0 595.3 126.9;" xml:space="preserve">
<style type="text/css">
	.st0{fill:#92D7F3;}
	.st1{display:none;fill:#FF0420;}
	.st2{display:none;fill:#FFFFFF;}
	.st3{display:none;fill:url(#SVGID_1_);}
	.st4{display:none;fill:url(#SVGID_00000109731826539261129730000004593364260297252270_);}
	.st5{display:none;fill-rule:evenodd;clip-rule:evenodd;fill:#FFFFFF;}
	.st6{display:none;fill:url(#SVGID_00000057133086746464462540000016225315577076978106_);}
	.st7{display:none;fill:url(#SVGID_00000057841819452137876340000003462459787326824617_);}
	.st8{display:none;fill:url(#SVGID_00000155134059818234973710000017297733077517153416_);}
	.st9{display:none;fill:url(#SVGID_00000148626757639986438850000002521624018508676262_);}
	.st10{display:none;fill:none;stroke:#2D2D3D;stroke-width:2;}
	.st11{fill:#FFFFFF;filter:url(#Adobe_OpacityMaskFilter);}
	.st12{display:none;mask:url(#mask0_3304_12783_00000046331696515556514970000000774692186758394779_);}
	.st13{display:inline;fill:#01FFC8;}
	.st14{fill:#FFFFFF;filter:url(#Adobe_OpacityMaskFilter_00000067236765503438771150000008445189798923429520_);}
	.st15{display:none;mask:url(#mask1_3304_12783_00000123410977948096695220000017381480337045500050_);}
	.st16{display:inline;fill:none;stroke:#01FFC8;stroke-width:0.9306;}
	.st17{display:none;}
	.st18{font-family:'FONTSPRINGDEMO-BiennaleBoldRegular';}
	.st19{font-size:42.9327px;}
</style>
<g>
	<g>
		<path class="st0" d="M271.9,88.1h-5.2v16.6h-5.2V88.1h-5.2v-4.7h15.7L271.9,88.1L271.9,88.1L271.9,88.1z"/>
		<path class="st0" d="M290.2,97.3c0,2.3-0.8,4.1-2.4,5.5s-3.5,2.1-5.8,2.1c-2.3,0-4.1-0.7-5.7-2.1c-1.5-1.5-2.4-3.3-2.4-5.5v-7.4
			h5.2v7.3c0,1,0.2,1.7,0.7,2.3c0.5,0.6,1.2,0.8,2.1,0.8c0.9,0,1.5-0.3,2.1-0.8c0.5-0.5,0.8-1.3,0.8-2.3V90h5.2L290.2,97.3
			C290.2,97.3,290.2,97.3,290.2,97.3z"/>
		<path class="st0" d="M309.2,104.8h-6.1l-3.8-7.9h-1.8v7.9h-5.2V83.4h8.4c2.2,0,4.1,0.7,5.4,2.1c1.3,1.3,1.8,2.9,1.8,4.7
			c0,2.6-1.2,4.4-3.5,5.5C304.6,95.8,309.2,104.8,309.2,104.8z M302.9,90.3c0-0.5-0.2-1-0.7-1.5c-0.4-0.4-1-0.7-1.6-0.7h-3v4.3h3
			c0.7,0,1.2-0.2,1.6-0.6C302.7,91.4,302.9,90.9,302.9,90.3z"/>
		<path class="st0" d="M329.4,104.8h-6.1l-4.9-8.7l-1.8,2.1v6.6h-5.2V83.4h5.2V91l6.1-7.5h6.4l-7.2,8.6L329.4,104.8L329.4,104.8
			L329.4,104.8z"/>
		<path class="st0" d="M336.9,104.8h-5.2V89.9h5.2V104.8z"/>
		<path class="st0" d="M336.9,88.2h-5.2v-4.7h5.2V88.2z"/>
		<path class="st0" d="M290.2,88.2h-5.2v-4.7h5.2V88.2z"/>
		<path class="st0" d="M279.3,88.2H274v-4.7h5.2V88.2z"/>
		<path class="st0" d="M357.2,83.4l-6.4,12.6v8.6h-5.2v-8.6l-6.4-12.6h5.7l3.3,7.7l3.3-7.7H357.2L357.2,83.4z"/>
		<path class="st0" d="M373.9,104.8h-14.5V83.4h14.5v4.7h-9.2v3.5h7.9v4.7h-7.9v3.8h9.2V104.8L373.9,104.8L373.9,104.8z"/>
	</g>
</g>
<path class="st1" d="M124.7,76.1c-3,0-5.4-0.7-7.3-2.1c-1.9-1.4-2.8-3.5-2.8-6.1c0-0.6,0.1-1.2,0.2-2c0.3-1.8,0.8-4,1.4-6.5
	c1.7-6.9,6.1-10.4,13.2-10.4c1.9,0,3.7,0.3,5.2,1c1.5,0.6,2.7,1.6,3.6,2.9c0.9,1.2,1.3,2.8,1.3,4.5c0,0.5-0.1,1.2-0.2,2
	c-0.4,2.2-0.8,4.4-1.4,6.5c-0.9,3.4-2.4,6-4.6,7.7C131.2,75.2,128.3,76.1,124.7,76.1C124.7,76.1,124.7,76.1,124.7,76.1z M125.2,70.6
	c1.4,0,2.6-0.4,3.6-1.2c1-0.8,1.7-2.1,2.1-3.8c0.6-2.4,1-4.4,1.3-6.2c0.1-0.5,0.1-1.1,0.1-1.6c0-2.3-1.2-3.4-3.6-3.4
	c-1.4,0-2.6,0.4-3.6,1.2c-1,0.8-1.7,2.1-2.1,3.8c-0.4,1.7-0.9,3.7-1.4,6.2c-0.1,0.5-0.2,1-0.2,1.6C121.6,69.5,122.8,70.6,125.2,70.6
	L125.2,70.6L125.2,70.6z"/>
<path class="st1" d="M143.2,75.7c-0.3,0-0.5-0.1-0.6-0.3c-0.1-0.2-0.2-0.4-0.1-0.7l5.2-24.5c0.1-0.3,0.2-0.5,0.4-0.7
	c0.2-0.2,0.5-0.3,0.7-0.3h10c2.8,0,5,0.6,6.7,1.7c1.7,1.2,2.6,2.8,2.6,5c0,0.6-0.1,1.3-0.2,2c-0.6,2.9-1.9,5-3.8,6.4
	c-1.9,1.4-4.5,2.1-7.8,2.1h-5.1l-1.7,8.2c-0.1,0.3-0.2,0.5-0.4,0.7c-0.2,0.2-0.5,0.3-0.7,0.3L143.2,75.7L143.2,75.7z M156.6,61.3
	c1.1,0,2-0.3,2.8-0.9c0.8-0.6,1.3-1.4,1.6-2.5c0.1-0.4,0.1-0.8,0.1-1.1c0-0.7-0.2-1.3-0.6-1.7c-0.4-0.4-1.1-0.6-2.2-0.6h-4.5
	l-1.4,6.7H156.6L156.6,61.3z"/>
<path class="st1" d="M176.6,75.7c-0.3,0-0.5-0.1-0.6-0.3c-0.1-0.2-0.2-0.4-0.1-0.7l4.2-19.5h-6.7c-0.3,0-0.5-0.1-0.6-0.3
	c-0.1-0.2-0.2-0.4-0.1-0.7l0.9-4c0.1-0.3,0.2-0.5,0.4-0.7c0.2-0.2,0.5-0.3,0.7-0.3h20.3c0.3,0,0.5,0.1,0.6,0.3
	c0.1,0.2,0.1,0.3,0.1,0.5c0,0.1,0,0.2,0,0.2l-0.9,4c-0.1,0.3-0.2,0.5-0.4,0.7c-0.2,0.2-0.4,0.3-0.7,0.3h-6.7l-4.2,19.5
	c-0.1,0.3-0.2,0.5-0.4,0.7c-0.2,0.2-0.5,0.3-0.7,0.3H176.6z"/>
<path class="st1" d="M196.5,75.7c-0.3,0-0.5-0.1-0.6-0.3c-0.1-0.2-0.2-0.4-0.1-0.7l5.2-24.5c0.1-0.3,0.2-0.5,0.4-0.7
	c0.2-0.2,0.5-0.3,0.7-0.3h5.1c0.3,0,0.5,0.1,0.6,0.3c0.1,0.2,0.1,0.3,0.1,0.5c0,0.1,0,0.2,0,0.2l-5.2,24.5c-0.1,0.3-0.2,0.5-0.4,0.7
	c-0.2,0.2-0.5,0.3-0.7,0.3H196.5z"/>
<path class="st1" d="M210.8,75.7c-0.3,0-0.5-0.1-0.6-0.3c-0.1-0.2-0.2-0.4-0.1-0.7l5.2-24.5c0.1-0.3,0.2-0.5,0.4-0.7
	c0.2-0.2,0.5-0.3,0.8-0.3h4.1c0.6,0,1,0.3,1.2,0.8l4.1,11.9l9.1-11.9c0.1-0.2,0.3-0.4,0.5-0.6c0.2-0.2,0.6-0.3,0.9-0.3h4.1
	c0.3,0,0.5,0.1,0.6,0.3c0.1,0.2,0.1,0.3,0.1,0.5c0,0.1,0,0.2,0,0.2L236,74.8c-0.1,0.3-0.2,0.5-0.4,0.7c-0.2,0.2-0.5,0.3-0.7,0.3
	h-4.6c-0.3,0-0.5-0.1-0.6-0.3c-0.1-0.2-0.2-0.4-0.1-0.7l2.9-13.9l-5.8,7.6c-0.2,0.3-0.5,0.5-0.7,0.6s-0.5,0.2-0.8,0.2h-2
	c-0.5,0-0.9-0.3-1.1-0.9l-2.7-8l-3,14.2c-0.1,0.3-0.2,0.5-0.4,0.7c-0.2,0.2-0.5,0.3-0.7,0.3L210.8,75.7L210.8,75.7z"/>
<path class="st1" d="M244.1,75.7c-0.3,0-0.5-0.1-0.6-0.3c-0.1-0.2-0.2-0.4-0.1-0.7l5.2-24.5c0.1-0.3,0.2-0.5,0.4-0.7
	c0.2-0.2,0.5-0.3,0.7-0.3h5.1c0.3,0,0.5,0.1,0.6,0.3c0.1,0.2,0.1,0.3,0.1,0.5c0,0.1,0,0.2,0,0.2l-5.2,24.5c-0.1,0.3-0.2,0.5-0.4,0.7
	c-0.2,0.2-0.5,0.3-0.7,0.3H244.1z"/>
<path class="st1" d="M267.7,76.1c-2.2,0-4.1-0.3-5.7-0.9c-1.6-0.6-2.7-1.4-3.5-2.4c-0.8-1-1.2-2.1-1.2-3.3c0-0.2,0-0.5,0.1-0.9
	c0-0.2,0.1-0.4,0.3-0.6c0.2-0.2,0.4-0.2,0.6-0.2h4.8c0.3,0,0.5,0.1,0.7,0.2c0.2,0.1,0.4,0.3,0.5,0.5c0.2,0.7,0.6,1.2,1.2,1.6
	c0.6,0.4,1.5,0.6,2.7,0.6c1.4,0,2.6-0.2,3.5-0.7c0.9-0.4,1.4-1.1,1.6-1.8c0-0.1,0-0.2,0-0.4c0-0.6-0.4-1.1-1.2-1.5
	c-0.8-0.4-2.2-0.8-4.3-1.3c-2.4-0.5-4.3-1.3-5.5-2.4c-1.2-1.1-1.9-2.5-1.9-4.2c0-0.6,0.1-1.2,0.2-1.8c0.5-2.3,1.7-4.2,3.7-5.5
	c2-1.3,4.6-2,7.8-2c1.9,0,3.6,0.3,5.1,1c1.5,0.7,2.6,1.5,3.4,2.6c0.8,1,1.2,2.1,1.2,3.1c0,0.3,0,0.5,0,0.6c0,0.2-0.2,0.4-0.3,0.6
	c-0.1,0.2-0.3,0.2-0.6,0.2h-5c-0.5,0-0.9-0.2-1.1-0.6c0-0.6-0.3-1.1-0.9-1.5c-0.6-0.4-1.3-0.6-2.3-0.6c-1.1,0-2,0.2-2.8,0.6
	c-0.7,0.4-1.1,1-1.3,1.8c0,0.1,0,0.3,0,0.5c0,0.6,0.4,1.1,1,1.5c0.7,0.4,2,0.8,3.8,1.2c2.8,0.5,4.9,1.3,6.1,2.4c1.3,1,2,2.4,2,4.1
	c0,0.6-0.1,1.2-0.2,1.9c-0.5,2.6-1.9,4.5-4,5.8C274.1,75.4,271.2,76.1,267.7,76.1L267.7,76.1L267.7,76.1z"/>
<path class="st1" d="M285.4,75.7c-0.3,0-0.5-0.1-0.6-0.3c-0.1-0.2-0.2-0.4-0.1-0.7l5.2-24.5c0-0.3,0.2-0.5,0.4-0.7
	c0.2-0.2,0.5-0.3,0.8-0.3h4.1c0.6,0,1,0.3,1.2,0.8l4.1,11.9l9.1-11.9c0.1-0.2,0.3-0.4,0.5-0.6c0.2-0.2,0.5-0.3,0.9-0.3h4.1
	c0.3,0,0.5,0.1,0.6,0.3c0.1,0.2,0.1,0.3,0.1,0.5c0,0.1,0,0.2,0,0.2l-5.2,24.5c0,0.3-0.2,0.5-0.4,0.7c-0.2,0.2-0.5,0.3-0.7,0.3h-4.6
	c-0.3,0-0.5-0.1-0.6-0.3c-0.1-0.2-0.2-0.4-0.1-0.7l2.9-13.9l-5.8,7.6c-0.2,0.3-0.5,0.5-0.7,0.6s-0.5,0.2-0.8,0.2h-2
	c-0.5,0-0.9-0.3-1.1-0.9l-2.7-8l-3,14.2c0,0.3-0.2,0.5-0.4,0.7c-0.2,0.2-0.5,0.3-0.7,0.3L285.4,75.7L285.4,75.7z"/>
<path class="st2" d="M297.4,43.2l-26.2,37.5h8l26.3-37.5H297.4z"/>
<linearGradient id="SVGID_1_" gradientUnits="userSpaceOnUse" x1="277.3654" y1="79.6975" x2="288.399" y2="66.3774" gradientTransform="matrix(1 0 0 -1 0 126)">
	<stop  offset="0" style="stop-color:#FFFFFF"/>
	<stop  offset="1" style="stop-color:#FFFFFF;stop-opacity:0.55"/>
</linearGradient>
<path class="st3" d="M280.1,43.2l7.7,11.1l-4,6l-11.9-17.1H280.1z"/>
<linearGradient id="SVGID_00000041273924879020449220000014355693307528581567_" gradientUnits="userSpaceOnUse" x1="300.3256" y1="48.3073" x2="286.7693" y2="66.5826" gradientTransform="matrix(1 0 0 -1 0 126)">
	<stop  offset="0" style="stop-color:#6966FF"/>
	<stop  offset="1" style="stop-color:#6966FF;stop-opacity:0.36"/>
</linearGradient>
<path style="display:none;fill:url(#SVGID_00000041273924879020449220000014355693307528581567_);" d="M298.2,80.8l-8.5-12.2l4-5.9
	l12.6,18.1H298.2z"/>
<path class="st5" d="M261.8,43.2h7v37.5h-7v-1.4c-2,1.1-4.4,1.7-6.8,1.7c-7.9,0-14.3-6.4-14.3-14.2s6.4-14.2,14.3-14.2
	c2.5,0,4.8,0.6,6.8,1.7V43.2z M254.9,74.9c4.5,0,8.1-3.6,8.1-8c0-4.4-3.6-8-8.1-8c-4.5,0-8.1,3.6-8.1,8
	C246.8,71.3,250.4,74.9,254.9,74.9z"/>
<path class="st2" d="M241.4,43.2l-26.2,37.5h8.2l26.1-37.5H241.4z"/>
<linearGradient id="SVGID_00000102511215262356700030000009065470727813837706_" gradientUnits="userSpaceOnUse" x1="220.6426" y1="79.5419" x2="232.0807" y2="65.5552" gradientTransform="matrix(1 0 0 -1 0 126)">
	<stop  offset="0" style="stop-color:#FFFFFF"/>
	<stop  offset="1" style="stop-color:#FFFFFF;stop-opacity:0.55"/>
</linearGradient>
<path style="display:none;fill:url(#SVGID_00000102511215262356700030000009065470727813837706_);" d="M223.4,43.2l8.2,11.4
	l-4.5,6.4l-12.2-17.8H223.4z"/>
<path class="st5" d="M205.8,43.2h7v37.5h-7v-1.4c-2,1.1-4.4,1.7-6.8,1.7c-7.9,0-14.3-6.4-14.3-14.2s6.4-14.2,14.3-14.2
	c2.5,0,4.8,0.6,6.8,1.7V43.2z M198.9,74.9c4.5,0,8.1-3.6,8.1-8c0-4.4-3.6-8-8.1-8s-8.1,3.6-8.1,8C190.8,71.3,194.5,74.9,198.9,74.9z
	"/>
<linearGradient id="SVGID_00000090282218865715370900000015312256982890989750_" gradientUnits="userSpaceOnUse" x1="157.413" y1="91.5596" x2="147.7539" y2="51.404" gradientTransform="matrix(1 0 0 -1 0 126)">
	<stop  offset="0" style="stop-color:#2C2C3D"/>
	<stop  offset="1" style="stop-color:#1A1A27"/>
</linearGradient>
<path style="display:none;fill:url(#SVGID_00000090282218865715370900000015312256982890989750_);" d="M139.4,41.4h23.2
	c4.4,0,8,3.6,8,8v23.2c0,4.4-3.6,8-8,8h-23.2c-4.4,0-8-3.6-8-8V49.4C131.4,45,135,41.4,139.4,41.4z"/>
<path class="st2" d="M156.2,50.5L140.9,72h4.7L161,50.5H156.2z"/>
<linearGradient id="SVGID_00000036947836636482226410000013111291333049450686_" gradientUnits="userSpaceOnUse" x1="144.584" y1="73.8154" x2="150.8797" y2="66.081" gradientTransform="matrix(1 0 0 -1 0 126)">
	<stop  offset="0" style="stop-color:#FFFFFF"/>
	<stop  offset="1" style="stop-color:#FFFFFF;stop-opacity:0.55"/>
</linearGradient>
<path style="display:none;fill:url(#SVGID_00000036947836636482226410000013111291333049450686_);" d="M146.1,50.5l4.5,6.3l-2.3,3.5
	l-6.9-9.8H146.1z"/>
<linearGradient id="SVGID_00000178883074948326542550000008606120071532143234_" gradientUnits="userSpaceOnUse" x1="157.8487" y1="55.7567" x2="150.1276" y2="66.3492" gradientTransform="matrix(1 0 0 -1 0 126)">
	<stop  offset="0" style="stop-color:#6966FF"/>
	<stop  offset="1" style="stop-color:#6966FF;stop-opacity:0.36"/>
</linearGradient>
<path style="display:none;fill:url(#SVGID_00000178883074948326542550000008606120071532143234_);" d="M156.6,72l-5-7l2.3-3.4
	l7.3,10.4H156.6z"/>
<path class="st10" d="M139.4,41.4h23.2c4.4,0,8,3.6,8,8v23.2c0,4.4-3.6,8-8,8h-23.2c-4.4,0-8-3.6-8-8V49.4
	C131.4,45,135,41.4,139.4,41.4z"/>
<defs>
	<filter id="Adobe_OpacityMaskFilter" filterUnits="userSpaceOnUse" x="145.6" y="26.3" width="38.7" height="47.5">
		<feColorMatrix  type="matrix" values="1 0 0 0 0  0 1 0 0 0  0 0 1 0 0  0 0 0 1 0"/>
	</filter>
</defs>
<mask maskUnits="userSpaceOnUse" x="145.6" y="26.3" width="38.7" height="47.5" id="mask0_3304_12783_00000046331696515556514970000000774692186758394779_">
	<path class="st11" d="M183,43.4c0.5,0,1,0.3,1.2,0.7c0.2,0.5,0.2,1-0.1,1.4l-22.5,28.2c-0.2,0.2-0.3,0.3-0.5,0.4
		c-0.4,0.2-0.8,0.2-1.2,0c-0.5-0.3-0.9-0.9-0.7-1.5l4.1-15.5l-16.7,0.1c-0.5,0-1-0.3-1.2-0.7s-0.2-1,0.1-1.4l22.5-28.1
		c0.4-0.5,1-0.7,1.6-0.4c0.6,0.2,0.9,0.9,0.7,1.5l-4.1,15.5L183,43.4z"/>
</mask>
<g class="st12">
	<path class="st13" d="M183.1,43.2c0.5,0,1,0.3,1.2,0.7c0.2,0.5,0.2,1-0.1,1.4l-22.3,27.9c-0.2,0.2-0.3,0.3-0.5,0.4
		c-0.4,0.2-0.8,0.2-1.2,0c-0.5-0.3-0.9-0.9-0.7-1.5l4-15.4l-16.5,0.1c-0.5,0-1-0.3-1.2-0.7c-0.2-0.4-0.2-1,0.1-1.4l22.3-27.9
		c0.4-0.5,1-0.7,1.6-0.4c0.6,0.2,0.9,0.9,0.7,1.5l-4,15.4L183.1,43.2z"/>
</g>
<defs>
	
		<filter id="Adobe_OpacityMaskFilter_00000102506971731829838380000007612908986346982569_" filterUnits="userSpaceOnUse" x="145.6" y="26.5" width="42.9" height="50.6">
		<feColorMatrix  type="matrix" values="1 0 0 0 0  0 1 0 0 0  0 0 1 0 0  0 0 0 1 0"/>
	</filter>
</defs>
<mask maskUnits="userSpaceOnUse" x="145.6" y="26.5" width="42.9" height="50.6" id="mask1_3304_12783_00000123410977948096695220000017381480337045500050_">
	<path style="fill:#FFFFFF;filter:url(#Adobe_OpacityMaskFilter_00000102506971731829838380000007612908986346982569_);" d="
		M183.1,43.9c0.5,0,4.5,2.1,4.7,2.6c0.2,0.5,0.2,1-0.1,1.4l-22.5,28.2c-0.2,0.2-0.3,0.3-0.5,0.4c-0.4,0.2-0.8,0.2-1.2,0
		c-0.5-0.3-3.9-3-3.7-3.6l7.3-11.8h-15.8c-0.5,0-5.5-4.8-5.3-5.2c10.6-13.5,18.1-23.1,22.6-28.7c0.7-0.9,4.1,1.4,4.6,1.7
		c0.6,0.2,0.9,0.9,0.7,1.5L170,45.8L183.1,43.9z"/>
</mask>
<g class="st15">
	<path class="st16" d="M183.1,43.9c0.5,0,4.5,2.1,4.7,2.6c0.2,0.5,0.2,1-0.1,1.4l-22.5,28.2c-0.2,0.2-0.3,0.3-0.5,0.4
		c-0.4,0.2-0.8,0.2-1.2,0c-0.5-0.3-3.9-3-3.7-3.6l7.3-11.8h-15.8c-0.5,0-5.5-4.8-5.3-5.2c10.6-13.5,18.1-23.1,22.6-28.7
		c0.7-0.9,4.1,1.4,4.6,1.7c0.6,0.2,0.9,0.9,0.7,1.5L170,45.8L183.1,43.9z"/>
</g>
<text transform="matrix(1 0 0 1 198.8495 67.3554)" class="st17 st18 st19">Fuel Network</text>
<g transform="matrix(1,0,0,1,-535.274,-434.524)">
	<g id="Layer-1">
		<path d="M735.3,508.8c0,0-7.7-9-10.3-12c-0.3-0.3-0.4-0.8-0.3-1.2c0.1-0.2,0.3-0.5,0.4-0.7l1.2-1.3l13.2,15.3H735.3z M727.1,508.8
			l-9.6-11.2L717,497c-0.5-0.5-0.4-1.3,0-1.8l17.9-20.8h4.4l-18,20.5c-0.5,0.5-0.5,1.3,0,1.8l10.4,12H727.1z M715.9,492.4
			c-3.7,4.3-14.1,16.4-14.1,16.4h-4.6l14.1-16.4c0.5-0.5,0.5-1.3,0-1.8l-14-16.2h4.4l14.1,16.4C716.3,491.2,716.3,491.9,715.9,492.4
			 M715.8,501.7l-1.4,1.6l-4.7,5.5h-4.3l9.1-10.6c0,0,1,1.2,1.4,1.6C716.2,500.4,716.2,501.2,715.8,501.7 M709.6,474.4
			c0,0,7.6,9.1,10.3,11.9c0.4,0.4,0.4,1,0,1.5c-1.5,1.7-1.5,1.7-1.5,1.7l-13.1-15.1H709.6z M721,481.5l1.4-1.6l4.7-5.5h4.3
			l-9.1,10.6c0,0-1-1.2-1.4-1.6C720.5,482.8,720.5,482,721,481.5 M718.1,456.5c-19.4,0-35.2,15.8-35.2,35.2
			c0,19.4,15.8,35.2,35.2,35.2c19.4,0,35.2-15.8,35.2-35.2C753.3,472.3,737.5,456.5,718.1,456.5"/>
		<rect x="772.1" y="477.2" width="5.4" height="28.2"/>
		<path d="M805.9,484.8c-2.7,0-5.2,1.1-6.6,3.5c-1.1-2.3-3.3-3.5-6.1-3.5c-2.4,0-4.7,1.1-6,3.2v-2.8h-5.2v20.1h5.2v-11.2
			c0-2.8,1.9-4.9,4.3-4.9h0.3c2.1,0,3.1,1.4,3.1,4v12.1h5.2v-11.2c0-2.8,1.9-4.9,4.3-4.9h0.3c2.1,0,3.1,1.4,3.1,4v12.1h5.2v-12.7
			c0-2.4-0.6-4.3-1.7-5.7C810.2,485.5,808.4,484.8,805.9,484.8"/>
		<path d="M840.7,484.8c-2.7,0-5.2,1.1-6.6,3.5c-1.1-2.3-3.3-3.5-6.1-3.5c-2.4,0-4.7,1.1-6,3.2v-2.8h-5.2v20.1h5.2v-11.2
			c0-2.8,1.9-4.9,4.3-4.9h0.3c2.1,0,3.1,1.4,3.1,4v12.1h5.2v-11.2c0-2.8,1.9-4.9,4.3-4.9h0.3c2.1,0,3.1,1.4,3.1,4v12.1h5.2v-12.7
			c0-2.4-0.6-4.3-1.7-5.7C845,485.5,843.2,484.8,840.7,484.8"/>
		<path d="M880.2,498.7v-9.2h4.5v-4.2h-4.5v-6.5H875v6.5h-5.9H864h-0.2v11.2c0,2.8-1.9,5.1-4.1,5.1h-0.3c-1.9,0-3-1.4-3-4v-12.3
			h-5.2v12.9c0,2.3,0.6,4.2,1.7,5.6c1.1,1.4,2.8,2.1,5.1,2.1c2.5,0,4.6-1.3,5.9-3.3v2.9h5.2v-15.9h5.9v10.7c0,3.4,1.8,5.2,5.2,5.2
			h5.1v-4.4h-2.9C880.6,500.9,880.2,500.5,880.2,498.7"/>
		<path d="M898.9,497.1c0,2.5-2.1,4.4-4.5,4.4h-0.3c-1.4,0-2.5-0.8-2.5-2c0-0.8,0.3-1.3,0.9-1.7c0.6-0.4,1.3-0.6,2-0.7l4.4-0.5
			V497.1z M904,492.1c0-4.6-3.4-7.2-8.4-7.2c-4.9,0-8.2,2.8-8.7,6.6h5.2c0.1-1.2,1.4-2.4,3.2-2.4h0.3c1.9,0,3.2,1.4,3.2,3.2v0.5
			l-5.1,0.5c-2.2,0.2-3.9,0.8-5.3,1.9c-1.4,1.1-2.1,2.7-2.1,4.7c-0.1,3.5,3,5.9,6.6,5.9c2.6,0,4.7-1.1,5.9-2.8
			c0,1.1,0.1,1.9,0.2,2.5h4.9c-0.1-0.9-0.2-2.4-0.2-4.4V492.1z"/>
		<path d="M917.7,501.5h-0.3c-2.4,0.1-4.6-2.5-4.6-6.2c0-3.7,2.2-6.3,4.6-6.2h0.3c2.6,0,4.6,2.4,4.6,6.2S920.3,501.5,917.7,501.5
			 M918.6,484.8c-2.7,0-4.9,1.5-5.8,3v-10.7h-5.2v28.2h5.2v-2.6c0.9,1.5,3.1,3,5.8,3c5.6,0.1,9-4.9,8.9-10.4
			C927.6,489.8,924.2,484.7,918.6,484.8"/>
		<rect x="930.2" y="477.2" width="5.2" height="28.2"/>
		<path d="M943.1,492.9c0.1-2.4,1.9-3.8,4.1-3.8h0.3c2.2,0,4,1.5,4.1,3.8H943.1z M947.6,484.8c-5.9-0.1-9.6,4.4-9.6,10.4
			c-0.1,6.4,4.5,10.5,9.6,10.4c4.9,0,8.1-2.7,9.1-6.8h-5.2c-0.4,1.5-1.6,2.5-3.5,2.5h-0.3c-2.2,0-4.3-1.9-4.5-4.6h13.6
			c0.1-0.9,0.1-1.5,0.1-1.9C956.8,489.2,953.5,484.8,947.6,484.8"/>
		<path d="M976.6,505.4l-6.4-9.7l-6.5,9.7h-6l9.5-14.1l-8.9-13.4h6.3l5.8,8.8l5.9-8.8h6l-8.9,13.3l9.5,14.3H976.6z"/>
	</g>
</g>
</svg>
