<?xml version="1.0" encoding="UTF-8"?>
<svg id="Layer_1" data-name="Layer 1" xmlns="http://www.w3.org/2000/svg" viewBox="0 0 595.28 126.94">
  <defs>
    <style>
      .cls-1 {
        fill: #ff0420;
      }

      .cls-2 {
        fill: #51051b;
      }
    </style>
  </defs>
  <g>
    <g>
      <path class="cls-2" d="M350.43,54.79h-6.64v21.03h-6.64v-21.03h-6.64v-5.89h19.91v5.89h0Z"/>
      <path class="cls-2" d="M373.61,66.38c0,2.9-1.03,5.14-2.99,7.01s-4.39,2.71-7.29,2.71-5.23-.84-7.2-2.62c-1.96-1.87-2.99-4.21-2.99-7.01v-9.34h6.64v9.25c0,1.21,.28,2.15,.93,2.9s1.5,1.03,2.62,1.03,1.96-.37,2.62-1.03c.65-.65,1.03-1.68,1.03-2.9v-9.16h6.64v9.16h-.01Z"/>
      <path class="cls-2" d="M397.72,75.91h-7.66l-4.77-10h-2.24v10h-6.64v-27.01h10.65c2.8,0,5.14,.93,6.82,2.71,1.59,1.59,2.34,3.64,2.34,5.98,0,3.27-1.5,5.61-4.39,7.01l5.89,11.31Zm-8.04-18.32c0-.65-.28-1.31-.84-1.87s-1.21-.84-2.06-.84h-3.74v5.42h3.74c.84,0,1.5-.28,2.06-.75,.56-.56,.84-1.21,.84-1.96Z"/>
      <path class="cls-2" d="M423.24,75.91h-7.76l-6.17-11.03-2.24,2.62v8.41h-6.54v-27.01h6.54v9.54l7.76-9.53h8.13l-9.16,10.93,9.44,16.08h0Z"/>
      <path class="cls-2" d="M432.68,75.91h-6.64v-18.88h6.64v18.88Z"/>
      <path class="cls-2" d="M432.68,54.88h-6.64v-5.98h6.64v5.98Z"/>
      <path class="cls-2" d="M373.61,54.88h-6.64v-5.98h6.64v5.98Z"/>
      <path class="cls-2" d="M359.78,54.88h-6.64v-5.98h6.64v5.98Z"/>
      <path class="cls-2" d="M458.38,48.9l-8.13,15.98v10.93h-6.64v-10.93l-8.13-15.98h7.2l4.21,9.72,4.21-9.72h7.28Z"/>
      <path class="cls-2" d="M479.5,75.91h-18.32v-27.01h18.32v5.89h-11.68v4.49h10v5.89h-10v4.77h11.68v5.98h0Z"/>
    </g>
    <rect class="cls-2" x="324.54" y="47.4" width="1.03" height="30.2"/>
  </g>
  <path class="cls-1" d="M124.66,76.06c-2.99,0-5.43-.7-7.34-2.11-1.88-1.43-2.82-3.46-2.82-6.1,0-.55,.06-1.23,.19-2.03,.33-1.81,.79-3.98,1.39-6.51,1.7-6.91,6.1-10.36,13.21-10.36,1.93,0,3.66,.33,5.2,.98,1.53,.63,2.74,1.58,3.61,2.86,.88,1.25,1.32,2.76,1.32,4.52,0,.53-.06,1.19-.19,2-.38,2.23-.83,4.4-1.36,6.51-.88,3.44-2.4,6.01-4.56,7.72-2.16,1.68-5.04,2.52-8.66,2.52h.01Zm.53-5.42c1.41,0,2.6-.41,3.58-1.24,1-.83,1.72-2.1,2.15-3.8,.58-2.36,1.02-4.42,1.32-6.17,.1-.53,.15-1.07,.15-1.62,0-2.28-1.19-3.43-3.58-3.43-1.41,0-2.61,.41-3.61,1.24-.98,.83-1.68,2.1-2.11,3.8-.45,1.68-.9,3.74-1.36,6.17-.1,.5-.15,1.03-.15,1.58,0,2.31,1.2,3.46,3.61,3.46h0Z"/>
  <path class="cls-1" d="M143.23,75.68c-.28,0-.49-.09-.64-.26-.13-.2-.16-.43-.11-.68l5.2-24.47c.05-.28,.19-.5,.41-.68,.23-.18,.46-.26,.72-.26h10.01c2.79,0,5.02,.58,6.7,1.73,1.71,1.15,2.56,2.82,2.56,5.01,0,.63-.08,1.28-.23,1.96-.63,2.89-1.9,5.02-3.8,6.4-1.88,1.38-4.47,2.07-7.76,2.07h-5.08l-1.73,8.25c-.05,.28-.19,.5-.41,.68-.23,.18-.46,.26-.72,.26h-5.12Zm13.33-14.39c1.05,0,1.97-.29,2.75-.87,.8-.58,1.33-1.41,1.58-2.48,.08-.43,.11-.8,.11-1.13,0-.73-.21-1.28-.64-1.66-.43-.4-1.15-.6-2.18-.6h-4.52l-1.43,6.74h4.33Z"/>
  <path class="cls-1" d="M176.56,75.68c-.28,0-.49-.09-.64-.26-.15-.2-.2-.43-.15-.68l4.18-19.5h-6.7c-.28,0-.49-.09-.64-.26-.13-.2-.16-.43-.11-.68l.87-4.03c.05-.28,.19-.5,.41-.68,.23-.18,.46-.26,.72-.26h20.26c.28,0,.49,.09,.64,.26,.1,.15,.15,.3,.15,.45,0,.08-.01,.15-.04,.23l-.87,4.03c-.05,.28-.19,.5-.41,.68-.2,.18-.44,.26-.72,.26h-6.66l-4.18,19.5c-.05,.28-.19,.5-.41,.68-.23,.18-.46,.26-.72,.26h-4.98Z"/>
  <path class="cls-1" d="M196.5,75.68c-.28,0-.49-.09-.64-.26-.15-.2-.2-.43-.15-.68l5.23-24.47c.05-.28,.19-.5,.41-.68,.23-.18,.46-.26,.72-.26h5.08c.28,0,.49,.09,.64,.26,.1,.15,.15,.3,.15,.45,0,.08-.01,.15-.04,.23l-5.2,24.47c-.05,.28-.19,.5-.41,.68-.23,.18-.46,.26-.72,.26h-5.07Z"/>
  <path class="cls-1" d="M210.84,75.68c-.28,0-.49-.09-.64-.26-.15-.18-.2-.4-.15-.68l5.2-24.47c.05-.28,.19-.5,.41-.68,.23-.18,.48-.26,.75-.26h4.07c.6,0,.99,.28,1.17,.83l4.1,11.86,9.15-11.86c.13-.2,.3-.39,.53-.56,.25-.18,.55-.26,.9-.26h4.1c.28,0,.49,.09,.64,.26,.1,.15,.15,.3,.15,.45,0,.08-.01,.15-.04,.23l-5.2,24.47c-.05,.28-.19,.5-.41,.68-.23,.18-.46,.26-.72,.26h-4.56c-.28,0-.49-.09-.64-.26-.13-.2-.16-.43-.11-.68l2.94-13.89-5.76,7.64c-.25,.28-.49,.49-.72,.64s-.49,.23-.79,.23h-1.96c-.53,0-.89-.29-1.09-.87l-2.67-7.98-3.01,14.23c-.05,.28-.19,.5-.41,.68-.23,.18-.46,.26-.72,.26h-4.51Z"/>
  <path class="cls-1" d="M244.07,75.68c-.28,0-.49-.09-.64-.26-.15-.2-.2-.43-.15-.68l5.23-24.47c.05-.28,.19-.5,.41-.68,.23-.18,.46-.26,.72-.26h5.08c.28,0,.49,.09,.64,.26,.1,.15,.15,.3,.15,.45,0,.08,0,.15-.04,.23l-5.2,24.47c-.05,.28-.19,.5-.41,.68-.23,.18-.46,.26-.72,.26h-5.07Z"/>
  <path class="cls-1" d="M267.7,76.06c-2.21,0-4.1-.3-5.69-.9-1.56-.6-2.74-1.41-3.54-2.41-.78-1-1.17-2.12-1.17-3.35,0-.2,.03-.5,.08-.9,.05-.23,.15-.41,.3-.56,.18-.15,.38-.23,.6-.23h4.82c.3,0,.53,.05,.68,.15,.18,.1,.35,.28,.53,.53,.18,.65,.58,1.19,1.21,1.62,.65,.43,1.54,.64,2.67,.64,1.43,0,2.59-.23,3.46-.68,.88-.45,1.41-1.07,1.58-1.84,.03-.1,.04-.25,.04-.45,0-.63-.39-1.12-1.17-1.47-.78-.38-2.21-.82-4.29-1.32-2.43-.53-4.28-1.32-5.53-2.37-1.25-1.08-1.88-2.48-1.88-4.22,0-.6,.08-1.22,.23-1.84,.5-2.33,1.74-4.17,3.73-5.5,2.01-1.33,4.59-2,7.76-2,1.91,0,3.6,.34,5.08,1.02,1.48,.68,2.62,1.54,3.43,2.6,.83,1.03,1.24,2.06,1.24,3.09,0,.3,0,.51-.04,.64-.05,.23-.16,.41-.34,.56-.15,.15-.34,.23-.57,.23h-5.04c-.55,0-.93-.21-1.13-.64-.03-.58-.33-1.07-.9-1.47-.58-.4-1.33-.6-2.26-.6-1.1,0-2.02,.2-2.75,.6-.7,.4-1.14,.99-1.32,1.77-.03,.13-.04,.29-.04,.49,0,.6,.35,1.1,1.05,1.51,.73,.38,2,.77,3.8,1.17,2.81,.55,4.86,1.34,6.14,2.37,1.3,1.03,1.96,2.4,1.96,4.1,0,.58-.08,1.2-.23,1.88-.55,2.56-1.9,4.51-4.03,5.84-2.11,1.31-4.93,1.96-8.47,1.96v-.02Z"/>
  <path class="cls-1" d="M285.42,75.68c-.28,0-.49-.09-.64-.26-.15-.18-.2-.4-.15-.68l5.2-24.47c.05-.28,.19-.5,.41-.68,.23-.18,.48-.26,.75-.26h4.07c.6,0,.99,.28,1.17,.83l4.1,11.86,9.15-11.86c.13-.2,.3-.39,.53-.56,.25-.18,.55-.26,.9-.26h4.1c.28,0,.49,.09,.64,.26,.1,.15,.15,.3,.15,.45,0,.08,0,.15-.04,.23l-5.2,24.47c-.05,.28-.19,.5-.41,.68-.23,.18-.46,.26-.72,.26h-4.56c-.28,0-.49-.09-.64-.26-.13-.2-.16-.43-.11-.68l2.94-13.89-5.76,7.64c-.25,.28-.49,.49-.72,.64s-.49,.23-.79,.23h-1.96c-.53,0-.89-.29-1.09-.87l-2.67-7.98-3.01,14.23c-.05,.28-.19,.5-.41,.68-.23,.18-.46,.26-.72,.26h-4.51Z"/>
</svg>