<?xml version="1.0" encoding="UTF-8"?><svg id="Layer_1" xmlns="http://www.w3.org/2000/svg" viewBox="0 0 390.55 34.58"><defs><style>.cls-1{fill:#ff0420;}.cls-2{fill:#51051b;}</style></defs><g><g><path class="cls-2" d="M252.45,7.91h-7.1V30.41h-7.1V7.91h-7.1V1.61h21.3V7.91h0Z"/><path class="cls-2" d="M277.25,20.31c0,3.1-1.1,5.5-3.2,7.5s-4.7,2.9-7.8,2.9-5.6-.9-7.7-2.8c-2.1-2-3.2-4.5-3.2-7.5V10.41h7.1v9.9c0,1.3,.3,2.3,1,3.1s1.6,1.1,2.8,1.1,2.1-.4,2.8-1.1c.7-.7,1.1-1.8,1.1-3.1V10.51h7.1v9.8h0Z"/><path class="cls-2" d="M303.05,30.51h-8.2l-5.1-10.7h-2.4v10.7h-7.1V1.61h11.4c3,0,5.5,1,7.3,2.9,1.7,1.7,2.5,3.9,2.5,6.4,0,3.5-1.6,6-4.7,7.5l6.3,12.1Zm-8.6-19.6c0-.7-.3-1.4-.9-2s-1.3-.9-2.2-.9h-4v5.8h4c.9,0,1.6-.3,2.2-.8,.6-.6,.9-1.3,.9-2.1Z"/><path class="cls-2" d="M330.35,30.51h-8.3l-6.6-11.8-2.4,2.8v9h-7V1.61h7V11.81l8.3-10.2h8.7l-9.8,11.7,10.1,17.2Z"/><path class="cls-2" d="M340.45,30.51h-7.1V10.31h7.1V30.51Z"/><path class="cls-2" d="M340.45,8.01h-7.1V1.61h7.1v6.4Z"/><path class="cls-2" d="M277.25,8.01h-7.1V1.61h7.1v6.4Z"/><path class="cls-2" d="M262.45,8.01h-7.1V1.61h7.1v6.4Z"/><path class="cls-2" d="M367.95,1.61l-8.7,17.1v11.7h-7.1v-11.7l-8.7-17.1h7.7l4.5,10.4,4.5-10.4c.1,0,7.8,0,7.8,0Z"/><path class="cls-2" d="M390.55,30.51h-19.6V1.61h19.6V7.91h-12.5v4.8h10.7v6.3h-10.7v5.1h12.5v6.4Z"/></g><rect class="cls-2" x="224.75" width="1.1" height="32.32"/></g><path class="cls-1" d="M10.88,30.66c-3.2,0-5.81-.75-7.86-2.26-2.01-1.53-3.02-3.71-3.02-6.53,0-.59,.07-1.32,.2-2.18,.35-1.93,.85-4.26,1.49-6.97C3.52,5.35,8.23,1.66,15.83,1.66c2.07,0,3.92,.35,5.56,1.05,1.64,.67,2.93,1.69,3.87,3.06,.94,1.34,1.41,2.95,1.41,4.83,0,.56-.07,1.28-.2,2.14-.4,2.39-.89,4.71-1.45,6.97-.94,3.68-2.56,6.43-4.87,8.26-2.31,1.8-5.4,2.7-9.27,2.7Zm.56-5.8c1.5,0,2.78-.44,3.83-1.33,1.07-.89,1.84-2.24,2.3-4.07,.62-2.52,1.09-4.73,1.41-6.61,.11-.56,.16-1.14,.16-1.73,0-2.44-1.28-3.67-3.83-3.67-1.5,0-2.79,.44-3.87,1.33-1.05,.89-1.8,2.24-2.26,4.07-.48,1.8-.97,4-1.45,6.61-.11,.54-.16,1.1-.16,1.69,0,2.47,1.29,3.71,3.87,3.71Z"/><path class="cls-1" d="M30.75,30.26c-.3,0-.52-.09-.68-.28-.13-.21-.17-.46-.12-.73L35.51,3.07c.05-.3,.2-.54,.44-.73,.24-.19,.5-.28,.77-.28h10.72c2.98,0,5.37,.62,7.17,1.85,1.83,1.24,2.74,3.02,2.74,5.36,0,.67-.08,1.37-.24,2.09-.67,3.09-2.03,5.37-4.07,6.85-2.01,1.48-4.78,2.22-8.3,2.22h-5.44l-1.85,8.82c-.05,.3-.2,.54-.44,.73-.24,.19-.5,.28-.77,.28h-5.48Zm14.26-15.39c1.13,0,2.11-.31,2.94-.93,.86-.62,1.42-1.5,1.69-2.66,.08-.46,.12-.86,.12-1.21,0-.78-.23-1.37-.68-1.77-.46-.43-1.24-.64-2.34-.64h-4.83l-1.53,7.21h4.63Z"/><path class="cls-1" d="M66.42,30.26c-.3,0-.52-.09-.68-.28-.16-.21-.21-.46-.16-.73l4.47-20.87h-7.17c-.3,0-.52-.09-.68-.28-.13-.21-.17-.46-.12-.73l.93-4.31c.05-.3,.2-.54,.44-.73,.24-.19,.5-.28,.77-.28h21.67c.3,0,.52,.09,.68,.28,.11,.16,.16,.32,.16,.48,0,.08-.01,.16-.04,.24l-.93,4.31c-.05,.3-.2,.54-.44,.73-.21,.19-.47,.28-.77,.28h-7.13l-4.47,20.87c-.05,.3-.2,.54-.44,.73-.24,.19-.5,.28-.77,.28h-5.32Z"/><path class="cls-1" d="M87.75,30.26c-.3,0-.52-.09-.68-.28-.16-.21-.21-.46-.16-.73l5.6-26.18c.05-.3,.2-.54,.44-.73,.24-.19,.5-.28,.77-.28h5.44c.3,0,.52,.09,.68,.28,.11,.16,.16,.32,.16,.48,0,.08-.01,.16-.04,.24l-5.56,26.18c-.05,.3-.2,.54-.44,.73-.24,.19-.5,.28-.77,.28h-5.44Z"/><path class="cls-1" d="M103.09,30.26c-.3,0-.52-.09-.68-.28-.16-.19-.21-.43-.16-.73l5.56-26.18c.05-.3,.2-.54,.44-.73,.24-.19,.51-.28,.81-.28h4.35c.64,0,1.06,.3,1.25,.89l4.39,12.69,9.79-12.69c.13-.21,.32-.42,.56-.6,.27-.19,.59-.28,.97-.28h4.39c.3,0,.52,.09,.68,.28,.11,.16,.16,.32,.16,.48,0,.08-.01,.16-.04,.24l-5.56,26.18c-.05,.3-.2,.54-.44,.73-.24,.19-.5,.28-.77,.28h-4.87c-.3,0-.52-.09-.68-.28-.13-.21-.17-.46-.12-.73l3.14-14.86-6.16,8.18c-.27,.3-.52,.52-.77,.68-.24,.16-.52,.24-.85,.24h-2.09c-.56,0-.95-.31-1.17-.93l-2.86-8.54-3.22,15.23c-.05,.3-.2,.54-.44,.73-.24,.19-.5,.28-.77,.28h-4.83Z"/><path class="cls-1" d="M138.64,30.26c-.3,0-.52-.09-.68-.28-.16-.21-.21-.46-.16-.73l5.6-26.18c.05-.3,.2-.54,.44-.73,.24-.19,.5-.28,.77-.28h5.44c.3,0,.52,.09,.68,.28,.11,.16,.16,.32,.16,.48,0,.08-.01,.16-.04,.24l-5.56,26.18c-.05,.3-.2,.54-.44,.73-.24,.19-.5,.28-.77,.28h-5.44Z"/><path class="cls-1" d="M163.93,30.66c-2.36,0-4.39-.32-6.08-.97-1.67-.64-2.93-1.5-3.79-2.58-.83-1.07-1.25-2.27-1.25-3.59,0-.21,.03-.54,.08-.97,.05-.24,.16-.44,.32-.6,.19-.16,.4-.24,.64-.24h5.16c.32,0,.56,.05,.73,.16,.19,.11,.38,.3,.56,.56,.19,.7,.62,1.28,1.29,1.73,.7,.46,1.65,.68,2.86,.68,1.53,0,2.77-.24,3.71-.73,.94-.48,1.5-1.14,1.69-1.97,.03-.11,.04-.27,.04-.48,0-.67-.41-1.2-1.25-1.57-.83-.4-2.36-.87-4.59-1.41-2.6-.56-4.58-1.41-5.92-2.54-1.34-1.15-2.01-2.66-2.01-4.51,0-.64,.08-1.3,.24-1.97,.54-2.5,1.87-4.46,3.99-5.88,2.15-1.42,4.91-2.13,8.3-2.13,2.04,0,3.85,.36,5.44,1.09,1.58,.73,2.81,1.65,3.67,2.78,.89,1.1,1.33,2.2,1.33,3.3,0,.32-.01,.55-.04,.68-.05,.24-.17,.44-.36,.6-.16,.16-.36,.24-.6,.24h-5.4c-.59,0-.99-.23-1.21-.68-.03-.62-.35-1.14-.97-1.57-.62-.43-1.42-.64-2.42-.64-1.18,0-2.16,.21-2.94,.64-.75,.43-1.22,1.06-1.41,1.89-.03,.13-.04,.31-.04,.52,0,.64,.38,1.18,1.13,1.61,.78,.4,2.14,.82,4.07,1.25,3.01,.59,5.2,1.44,6.57,2.54,1.4,1.1,2.09,2.56,2.09,4.39,0,.62-.08,1.29-.24,2.01-.59,2.74-2.03,4.82-4.31,6.24-2.25,1.4-5.28,2.09-9.06,2.09Z"/><path class="cls-1" d="M182.89,30.26c-.3,0-.52-.09-.68-.28-.16-.19-.22-.43-.16-.73l5.56-26.18c.05-.3,.2-.54,.44-.73,.24-.19,.51-.28,.81-.28h4.35c.64,0,1.06,.3,1.25,.89l4.39,12.69,9.79-12.69c.13-.21,.32-.42,.56-.6,.27-.19,.59-.28,.97-.28h4.39c.3,0,.52,.09,.68,.28,.11,.16,.16,.32,.16,.48,0,.08-.01,.16-.04,.24l-5.56,26.18c-.05,.3-.2,.54-.44,.73-.24,.19-.5,.28-.77,.28h-4.87c-.3,0-.52-.09-.68-.28-.13-.21-.18-.46-.12-.73l3.14-14.86-6.16,8.18c-.27,.3-.52,.52-.77,.68-.24,.16-.52,.24-.85,.24h-2.1c-.56,0-.95-.31-1.17-.93l-2.86-8.54-3.22,15.23c-.05,.3-.2,.54-.44,.73-.24,.19-.5,.28-.77,.28h-4.83Z"/></svg>