<?xml version="1.0" encoding="UTF-8"?><svg id="Layer_1" xmlns="http://www.w3.org/2000/svg" viewBox="0 0 595.28 126.94"><defs><style>.cls-1{fill:#ff0420;}.cls-2{fill:#f7f7f7;font-family:Arial-BoldMT, Arial;font-size:27.79px;isolation:isolate;}</style></defs><path class="cls-1" d="M177.67,72c-2.23,0-4.05-.52-5.47-1.57-1.4-1.07-2.1-2.58-2.1-4.54,0-.41,.05-.92,.14-1.51,.24-1.35,.59-2.96,1.04-4.85,1.27-5.14,4.55-7.71,9.85-7.71,1.44,0,2.73,.24,3.87,.73,1.14,.47,2.04,1.18,2.69,2.13,.65,.94,.98,2.06,.98,3.37,0,.39-.05,.89-.14,1.49-.28,1.66-.62,3.28-1.01,4.85-.65,2.56-1.79,4.48-3.39,5.75-1.61,1.25-3.76,1.88-6.45,1.88Zm.39-4.04c1.05,0,1.94-.31,2.66-.93,.75-.62,1.28-1.56,1.6-2.83,.43-1.76,.76-3.29,.98-4.6,.07-.39,.11-.79,.11-1.21,0-1.7-.89-2.55-2.66-2.55-1.05,0-1.94,.31-2.69,.93-.73,.62-1.25,1.56-1.57,2.83-.34,1.25-.67,2.79-1.01,4.6-.07,.37-.11,.77-.11,1.18,0,1.72,.9,2.58,2.69,2.58Z"/><path class="cls-1" d="M191.52,71.72c-.21,0-.36-.07-.48-.2-.09-.15-.12-.32-.08-.5l3.87-18.23c.04-.21,.14-.37,.31-.5,.17-.13,.35-.2,.53-.2h7.46c2.08,0,3.74,.43,4.99,1.29,1.27,.86,1.91,2.1,1.91,3.73,0,.47-.06,.95-.17,1.46-.47,2.15-1.41,3.74-2.83,4.77-1.4,1.03-3.33,1.54-5.78,1.54h-3.79l-1.29,6.14c-.04,.21-.14,.37-.31,.5-.17,.13-.35,.2-.53,.2h-3.82Zm9.93-10.72c.79,0,1.47-.22,2.05-.65,.6-.43,.99-1.05,1.18-1.85,.06-.32,.08-.6,.08-.84,0-.54-.16-.95-.48-1.23-.32-.3-.86-.45-1.63-.45h-3.37l-1.07,5.02h3.23Z"/><path class="cls-1" d="M216.35,71.72c-.21,0-.36-.07-.48-.2-.11-.15-.15-.32-.11-.5l3.11-14.53h-4.99c-.21,0-.36-.07-.48-.2-.09-.15-.12-.32-.08-.5l.65-3c.04-.21,.14-.37,.31-.5,.17-.13,.35-.2,.53-.2h15.09c.21,0,.36,.07,.48,.2,.07,.11,.11,.22,.11,.34,0,.06,0,.11-.03,.17l-.65,3c-.04,.21-.14,.37-.31,.5-.15,.13-.33,.2-.53,.2h-4.97l-3.11,14.53c-.04,.21-.14,.37-.31,.5-.17,.13-.35,.2-.53,.2h-3.7Z"/><path class="cls-1" d="M231.2,71.72c-.21,0-.36-.07-.48-.2-.11-.15-.15-.32-.11-.5l3.9-18.23c.04-.21,.14-.37,.31-.5,.17-.13,.35-.2,.53-.2h3.79c.21,0,.36,.07,.48,.2,.07,.11,.11,.22,.11,.34,0,.06,0,.11-.03,.17l-3.87,18.23c-.04,.21-.14,.37-.31,.5-.17,.13-.35,.2-.53,.2h-3.79Z"/><path class="cls-1" d="M241.89,71.72c-.21,0-.36-.07-.48-.2-.11-.13-.15-.3-.11-.5l3.87-18.23c.04-.21,.14-.37,.31-.5,.17-.13,.36-.2,.56-.2h3.03c.45,0,.74,.21,.87,.62l3.06,8.84,6.82-8.84c.09-.15,.22-.29,.39-.42,.19-.13,.41-.2,.67-.2h3.06c.21,0,.36,.07,.48,.2,.07,.11,.11,.22,.11,.34,0,.06,0,.11-.03,.17l-3.87,18.23c-.04,.21-.14,.37-.31,.5-.17,.13-.35,.2-.53,.2h-3.39c-.21,0-.36-.07-.48-.2-.09-.15-.12-.32-.08-.5l2.19-10.35-4.29,5.69c-.19,.21-.36,.36-.53,.48-.17,.11-.36,.17-.59,.17h-1.46c-.39,0-.66-.22-.81-.65l-1.99-5.95-2.24,10.6c-.04,.21-.14,.37-.31,.5-.17,.13-.35,.2-.53,.2h-3.37Z"/><path class="cls-1" d="M266.65,71.72c-.21,0-.36-.07-.48-.2-.11-.15-.15-.32-.11-.5l3.9-18.23c.04-.21,.14-.37,.31-.5,.17-.13,.35-.2,.53-.2h3.79c.21,0,.36,.07,.48,.2,.08,.11,.11,.22,.11,.34,0,.06,0,.11-.03,.17l-3.87,18.23c-.04,.21-.14,.37-.31,.5-.17,.13-.35,.2-.53,.2h-3.79Z"/><path class="cls-1" d="M284.26,72c-1.65,0-3.06-.22-4.24-.67-1.16-.45-2.04-1.05-2.64-1.8-.58-.75-.87-1.58-.87-2.5,0-.15,.02-.37,.06-.67,.04-.17,.11-.31,.22-.42,.13-.11,.28-.17,.45-.17h3.59c.22,0,.39,.04,.5,.11,.13,.07,.26,.21,.39,.39,.13,.49,.43,.89,.9,1.21,.49,.32,1.15,.48,1.99,.48,1.07,0,1.93-.17,2.58-.5,.66-.34,1.05-.79,1.18-1.37,.02-.07,.03-.19,.03-.34,0-.47-.29-.83-.87-1.09-.58-.28-1.65-.61-3.2-.98-1.81-.39-3.19-.98-4.12-1.77-.94-.8-1.4-1.85-1.4-3.14,0-.45,.06-.91,.17-1.37,.37-1.74,1.3-3.1,2.78-4.1,1.5-.99,3.42-1.49,5.78-1.49,1.42,0,2.68,.25,3.79,.76,1.1,.5,1.95,1.15,2.55,1.94,.62,.77,.93,1.53,.93,2.3,0,.22,0,.38-.03,.48-.04,.17-.12,.31-.25,.42-.11,.11-.25,.17-.42,.17h-3.76c-.41,0-.69-.16-.84-.48-.02-.43-.24-.79-.67-1.09-.43-.3-.99-.45-1.68-.45-.82,0-1.5,.15-2.05,.45-.52,.3-.85,.74-.98,1.32-.02,.09-.03,.22-.03,.36,0,.45,.26,.82,.79,1.12,.54,.28,1.49,.57,2.83,.87,2.1,.41,3.62,1,4.57,1.77,.97,.77,1.46,1.79,1.46,3.06,0,.43-.06,.9-.17,1.4-.41,1.91-1.41,3.36-3,4.35-1.57,.97-3.67,1.46-6.31,1.46Z"/><path class="cls-1" d="M297.46,71.72c-.21,0-.36-.07-.48-.2-.11-.13-.15-.3-.11-.5l3.87-18.23c.04-.21,.14-.37,.31-.5,.17-.13,.35-.2,.56-.2h3.03c.45,0,.74,.21,.87,.62l3.06,8.84,6.82-8.84c.09-.15,.22-.29,.39-.42,.19-.13,.41-.2,.67-.2h3.06c.21,0,.37,.07,.48,.2,.07,.11,.11,.22,.11,.34,0,.06,0,.11-.03,.17l-3.87,18.23c-.04,.21-.14,.37-.31,.5-.17,.13-.35,.2-.53,.2h-3.39c-.21,0-.37-.07-.48-.2-.09-.15-.12-.32-.08-.5l2.19-10.35-4.29,5.69c-.19,.21-.36,.36-.53,.48-.17,.11-.37,.17-.59,.17h-1.46c-.39,0-.66-.22-.81-.65l-1.99-5.95-2.24,10.6c-.04,.21-.14,.37-.31,.5-.17,.13-.35,.2-.53,.2h-3.37Z"/><text class="cls-2" transform="translate(330.74 71.23) scale(.96 1)"><tspan x="0" y="0">TÜRKİYE</tspan></text></svg>