<?xml version="1.0" encoding="UTF-8"?><svg id="Layer_1" xmlns="http://www.w3.org/2000/svg" viewBox="0 0 595.28 126.94"><defs><style>.cls-1{fill:#212178;}</style></defs><g id="StarkNet-logo-white"><g id="starknet-logo" transform="translate(4.000000, 5.000000)"><g id="Group-16"><path id="Fill-14" class="cls-1" d="M124.33,66.88c-1.04-.68-2.94-1.54-5.68-2.57-2.75-1.03-4.65-1.96-5.72-2.79-1.07-.82-1.6-1.96-1.6-3.41s.54-2.59,1.62-3.43,2.51-1.26,4.28-1.26,3.21,.48,4.32,1.44,1.67,2.32,1.67,4.09h4.33c0-3.04-1.01-5.41-3.02-7.13-2.01-1.71-4.43-2.57-7.27-2.57s-5.24,.8-7.22,2.39-2.97,3.73-2.97,6.42c0,2.08,.51,3.74,1.54,4.96,.54,.65,1.07,1.2,1.56,1.64,.5,.45,1.55,1.06,3.15,1.84s2.96,1.3,4.08,1.57c2.15,.92,3.92,1.68,5.05,2.49,1.13,.82,1.69,1.94,1.69,3.37s-.59,2.58-1.76,3.46c-1.17,.88-2.79,1.31-4.85,1.31s-3.75-.52-5.05-1.55c-1.3-1.03-1.95-2.51-1.95-4.43h-4.31c0,3.22,1.11,5.73,3.32,7.52,2.21,1.8,4.89,2.7,8.02,2.7s5.73-.82,7.8-2.47,3.1-3.89,3.07-6.73c0-2.83-1.38-5.12-4.1-6.86"/></g><polygon id="Fill-17" class="cls-1" points="153.01 49.46 131.72 49.46 131.72 53.52 140.24 53.52 140.24 81.66 144.44 81.66 144.44 53.52 153.01 53.52 153.01 49.46"/><path id="Fill-18" class="cls-1" d="M163.7,49.46l-11.78,32.2h4.52s1.15-3.58,2.08-5.05c4.05-6.36,10.78-7.14,12.94-7.08l4.31,12.12h4.52l-11.8-32.2h-4.79Zm-2.57,19.02l4.97-13.98,3.9,10.95c-2.22,.17-5.46,.84-8.87,3.03h0Z"/><polygon id="Fill-20" class="cls-1" points="236.05 49.46 230.78 49.46 217.31 64.05 217.31 49.46 213.03 49.46 213.03 81.66 217.31 81.66 217.31 66.21 231.25 81.66 236.5 81.66 221.79 65.15 236.05 49.46"/><polygon id="Fill-21" class="cls-1" points="257.53 69.33 245.1 49.46 240.32 49.46 240.32 81.66 246.61 81.66 246.61 61.74 259 81.66 263.78 81.66 263.78 49.46 257.53 49.46 257.53 69.33"/><polygon id="Fill-22" class="cls-1" points="274.51 68.36 285.88 68.36 285.88 62.44 274.51 62.44 274.51 55.54 287.02 55.54 287.02 49.46 268.15 49.46 268.15 81.66 287.25 81.66 287.25 75.59 274.51 75.59 274.51 68.36"/><polygon id="Fill-23" class="cls-1" points="289.98 49.46 289.98 55.54 297.7 55.54 297.7 81.66 304.04 81.66 304.04 55.54 311.8 55.54 311.8 49.46 289.98 49.46"/><path id="Fill-24" class="cls-1" d="M201.06,70.06c-.66-.6-1.34-1.12-2.01-1.58,2.12-.31,4.4-1.44,5.88-3.28,1.34-1.68,1.93-3.64,1.93-5.75,0-2.77-1-5.13-3-7.07-2-1.95-4.41-2.92-7.22-2.92h-11.97v32.2h4.36v-12.15c2.38,.05,5.93,.64,9.18,3.59,3.12,2.83,5.28,6.35,6.39,8.55h4.63c-.98-2.43-3.72-7.56-8.17-11.59h0Zm-4.43-16.58c1.62,0,3,.58,4.15,1.74s1.72,2.57,1.72,4.22-.56,3.09-1.72,4.25c-2.08,2.08-6.87,1.66-11.63,1.68h-.13v-11.9h7.61Z"/></g></g><g><path class="cls-1" d="M351.76,57.53h-7.09v22.52h-7.09v-22.52h-7.09v-6.32h21.26v6.32h0Z"/><path class="cls-1" d="M376.61,69.92c0,3.05-1.07,5.54-3.2,7.47s-4.72,2.9-7.78,2.9-5.64-.94-7.69-2.83c-2.13-1.97-3.2-4.48-3.2-7.53v-10.02h7.09v9.85c0,1.3,.33,2.32,.99,3.08s1.6,1.13,2.81,1.13,2.1-.37,2.81-1.11c.72-.74,1.07-1.77,1.07-3.1v-9.85h7.09v10.01h.01Z"/><path class="cls-1" d="M402.39,80.05h-8.22l-5.1-10.73h-2.39v10.73h-7.09v-28.84h11.42c3.05,0,5.49,.96,7.33,2.88,1.67,1.73,2.51,3.86,2.51,6.4,0,3.46-1.57,5.97-4.7,7.53l6.24,12.03Zm-8.62-19.56c0-.73-.29-1.4-.87-2-.58-.61-1.32-.91-2.21-.91h-4.01v5.83h4.01c.86,0,1.59-.28,2.19-.85,.59-.58,.89-1.26,.89-2.07Z"/><path class="cls-1" d="M429.72,80.05h-8.26l-6.64-11.83-2.43,2.79v9.03h-7.01v-28.83h7.01v10.21l8.34-10.21h8.67l-9.84,11.66,10.16,17.18Z"/><path class="cls-1" d="M439.82,80.05h-7.09v-20.14h7.09v20.14Z"/><path class="cls-1" d="M439.82,57.57h-7.09v-6.36h7.09v6.36Z"/><path class="cls-1" d="M376.61,57.57h-7.09v-6.36h7.09v6.36Z"/><path class="cls-1" d="M361.83,57.57h-7.09v-6.36h7.09v6.36Z"/><path class="cls-1" d="M467.3,51.21l-8.71,17.09v11.74h-7.09v-11.74l-8.71-17.09h7.74l4.54,10.37,4.5-10.37h7.73Z"/><path class="cls-1" d="M489.89,80.05h-19.6v-28.84h19.6v6.32h-12.51v4.82h10.69v6.32h-10.69v5.06h12.51v6.32Z"/></g><rect class="cls-1" x="320.57" y="47.56" width="1.15" height="35.99"/></svg>