<?xml version="1.0" encoding="utf-8"?>
<!-- Generator: Adobe Illustrator 26.3.1, SVG Export Plug-In . SVG Version: 6.00 Build 0)  -->
<svg version="1.1" id="Layer_1" xmlns="http://www.w3.org/2000/svg" xmlns:xlink="http://www.w3.org/1999/xlink" x="0px" y="0px"
	 viewBox="0 0 595.3 126.9" style="enable-background:new 0 0 595.3 126.9;" xml:space="preserve">
<style type="text/css">
	.st0{fill:#212178;}
</style>
<g>
	<g id="StarkNet-logo-white">
		<g id="starknet-logo" transform="translate(4.000000, 5.000000)">
			<g id="Group-16">
				<path id="Fill-14" class="st0" d="M120.3,61.9c-1-0.7-2.9-1.5-5.7-2.6c-2.8-1-4.7-2-5.7-2.8c-1.1-0.8-1.6-2-1.6-3.4
					s0.5-2.6,1.6-3.4s2.5-1.3,4.3-1.3s3.2,0.5,4.3,1.4s1.7,2.3,1.7,4.1h4.3c0-3-1-5.4-3-7.1c-2-1.7-4.4-2.6-7.3-2.6
					c-2.8,0-5.2,0.8-7.2,2.4s-3,3.7-3,6.4c0,2.1,0.5,3.7,1.5,5c0.5,0.7,1.1,1.2,1.6,1.6c0.5,0.5,1.6,1.1,3.2,1.8s3,1.3,4.1,1.6
					c2.2,0.9,3.9,1.7,5.1,2.5c1.1,0.8,1.7,1.9,1.7,3.4s-0.6,2.6-1.8,3.5c-1.2,0.9-2.8,1.3-4.8,1.3s-3.8-0.5-5.1-1.6
					c-1.3-1-1.9-2.5-1.9-4.4h-4.3c0,3.2,1.1,5.7,3.3,7.5c2.2,1.8,4.9,2.7,8,2.7s5.7-0.8,7.8-2.5s3.1-3.9,3.1-6.7
					C124.4,65.9,123.1,63.6,120.3,61.9"/>
			</g>
			<polygon id="Fill-17" class="st0" points="149,44.5 127.7,44.5 127.7,48.5 136.2,48.5 136.2,76.7 140.4,76.7 140.4,48.5 
				149,48.5 			"/>
			<path id="Fill-18" class="st0" d="M159.7,44.5l-11.8,32.2h4.5c0,0,1.1-3.6,2.1-5.1c4.1-6.4,10.8-7.1,12.9-7.1l4.3,12.1h4.5
				l-11.8-32.2L159.7,44.5L159.7,44.5z M157.1,63.5l5-14l3.9,11C163.8,60.6,160.5,61.3,157.1,63.5L157.1,63.5z"/>
			<polygon id="Fill-20" class="st0" points="232.1,44.5 226.8,44.5 213.3,59 213.3,44.5 209,44.5 209,76.7 213.3,76.7 213.3,61.2 
				227.2,76.7 232.5,76.7 217.8,60.2 			"/>
			<polygon id="Fill-21" class="st0" points="253.5,64.3 241.1,44.5 236.3,44.5 236.3,76.7 242.6,76.7 242.6,56.7 255,76.7 
				259.8,76.7 259.8,44.5 253.5,44.5 			"/>
			<polygon id="Fill-22" class="st0" points="270.5,63.4 281.9,63.4 281.9,57.4 270.5,57.4 270.5,50.5 283,50.5 283,44.5 
				264.1,44.5 264.1,76.7 283.2,76.7 283.2,70.6 270.5,70.6 			"/>
			<polygon id="Fill-23" class="st0" points="286,44.5 286,50.5 293.7,50.5 293.7,76.7 300,76.7 300,50.5 307.8,50.5 307.8,44.5 			
				"/>
			<path id="Fill-24" class="st0" d="M197.1,65.1c-0.7-0.6-1.3-1.1-2-1.6c2.1-0.3,4.4-1.4,5.9-3.3c1.3-1.7,1.9-3.6,1.9-5.8
				c0-2.8-1-5.1-3-7.1c-2-2-4.4-2.9-7.2-2.9h-12v32.2h4.4V64.5c2.4,0.1,5.9,0.6,9.2,3.6c3.1,2.8,5.3,6.3,6.4,8.6h4.6
				C204.2,74.2,201.5,69.1,197.1,65.1L197.1,65.1z M192.6,48.5c1.6,0,3,0.6,4.1,1.7s1.7,2.6,1.7,4.2s-0.6,3.1-1.7,4.2
				c-2.1,2.1-6.9,1.7-11.6,1.7c0,0-0.1,0-0.1,0V48.5L192.6,48.5L192.6,48.5z"/>
		</g>
	</g>
	<g>
		<path class="st0" d="M351.8,57.5h-7.1v22.5h-7.1V57.5h-7.1v-6.3h21.3L351.8,57.5L351.8,57.5z"/>
		<path class="st0" d="M376.6,69.9c0,3.1-1.1,5.5-3.2,7.5s-4.7,2.9-7.8,2.9c-3.1,0-5.6-0.9-7.7-2.8c-2.1-2-3.2-4.5-3.2-7.5v-10h7.1
			v9.9c0,1.3,0.3,2.3,1,3.1s1.6,1.1,2.8,1.1c1.2,0,2.1-0.4,2.8-1.1c0.7-0.7,1.1-1.8,1.1-3.1v-9.8h7.1L376.6,69.9L376.6,69.9z"/>
		<path class="st0" d="M402.4,80.1h-8.2l-5.1-10.7h-2.4v10.7h-7.1V51.2H391c3,0,5.5,1,7.3,2.9c1.7,1.7,2.5,3.9,2.5,6.4
			c0,3.5-1.6,6-4.7,7.5L402.4,80.1z M393.8,60.5c0-0.7-0.3-1.4-0.9-2c-0.6-0.6-1.3-0.9-2.2-0.9h-4v5.8h4c0.9,0,1.6-0.3,2.2-0.8
			C393.5,62,393.8,61.3,393.8,60.5z"/>
		<path class="st0" d="M429.7,80.1h-8.3l-6.6-11.8l-2.4,2.8v9h-7V51.2h7v10.2l8.3-10.2h8.7l-9.8,11.7L429.7,80.1z"/>
		<path class="st0" d="M439.8,80.1h-7.1V59.9h7.1V80.1z"/>
		<path class="st0" d="M439.8,57.6h-7.1v-6.4h7.1V57.6z"/>
		<path class="st0" d="M376.6,57.6h-7.1v-6.4h7.1V57.6z"/>
		<path class="st0" d="M361.8,57.6h-7.1v-6.4h7.1V57.6z"/>
		<path class="st0" d="M467.3,51.2l-8.7,17.1V80h-7.1V68.3l-8.7-17.1h7.7l4.5,10.4l4.5-10.4C459.6,51.2,467.3,51.2,467.3,51.2z"/>
		<path class="st0" d="M489.9,80.1h-19.6V51.2h19.6v6.3h-12.5v4.8h10.7v6.3h-10.7v5.1h12.5V80.1z"/>
	</g>
	<rect x="320.6" y="47.6" class="st0" width="1.1" height="36"/>
</g>
</svg>
