<?xml version="1.0" encoding="utf-8"?>
<!-- Generator: Adobe Illustrator 26.3.1, SVG Export Plug-In . SVG Version: 6.00 Build 0)  -->
<svg version="1.1" id="Layer_1" xmlns="http://www.w3.org/2000/svg" xmlns:xlink="http://www.w3.org/1999/xlink" x="0px" y="0px"
	 viewBox="0 0 595.3 126.9" style="enable-background:new 0 0 595.3 126.9;" xml:space="preserve">
<style type="text/css">
	.st0{display:none;}
	.st1{display:inline;}
	.st2{fill:#2E1E49;}
	.st3{display:inline;fill:#2E1E49;}
	.st4{fill-rule:evenodd;clip-rule:evenodd;fill:#29296E;}
	.st5{fill-rule:evenodd;clip-rule:evenodd;fill:#FAFAFA;}
	.st6{fill-rule:evenodd;clip-rule:evenodd;fill:#FF4F0A;}
	.st7{fill:#26296E;}
</style>
<g class="st0">
	<g class="st1">
		<path class="st2" d="M348.5,59h-6.9v22h-6.9V59h-6.9v-6.2h20.9L348.5,59L348.5,59L348.5,59z"/>
		<path class="st2" d="M372.7,71.2c0,3-1,5.3-3.1,7.3s-4.6,2.8-7.7,2.8s-5.5-0.8-7.5-2.7c-2.1-2-3.1-4.4-3.1-7.3v-9.8h6.9v9.7
			c0,1.3,0.3,2.3,0.9,3s1.6,1.1,2.7,1.1s2.1-0.4,2.7-1.1c0.6-0.7,1-1.8,1-3v-9.7h6.9L372.7,71.2C372.8,71.2,372.7,71.2,372.7,71.2
			L372.7,71.2z"/>
		<path class="st2" d="M398.1,81.2H390l-5-10.5h-2.3v10.5h-6.9V52.8h11.1c2.9,0,5.4,0.9,7.1,2.8c1.7,1.7,2.4,3.8,2.4,6.3
			c0,3.5-1.6,5.9-4.6,7.3C391.9,69.3,398.1,81.2,398.1,81.2L398.1,81.2z M389.6,62c0-0.7-0.3-1.4-0.8-2s-1.3-0.8-2.2-0.8h-3.9v5.7
			h3.9c0.8,0,1.6-0.3,2.2-0.8C389.3,63.4,389.6,62.7,389.6,62z"/>
		<path class="st2" d="M424.8,81.2h-8.2l-6.5-11.5l-2.3,2.7v8.8H401V52.8h6.8v10l8.2-10h8.5l-9.6,11.4L424.8,81.2L424.8,81.2
			L424.8,81.2z"/>
		<path class="st2" d="M434.7,81.2h-6.9V61.3h6.9V81.2z"/>
		<path class="st2" d="M434.7,59.1h-6.9v-6.3h6.9V59.1z"/>
		<path class="st2" d="M372.7,59.1h-6.9v-6.3h6.9V59.1z"/>
		<path class="st2" d="M358.2,59.1h-6.9v-6.3h6.9V59.1z"/>
		<path class="st2" d="M461.6,52.8l-8.5,16.8v11.4h-6.9V69.6l-8.5-16.8h7.5l4.4,10.2l4.4-10.2H461.6L461.6,52.8z"/>
		<path class="st2" d="M483.8,81.2h-19.2V52.8h19.2V59h-12.3v4.7H482v6.2h-10.5v5h12.3V81.2L483.8,81.2z"/>
	</g>
	<rect x="321.3" y="51.3" class="st3" width="1" height="31.7"/>
</g>
<image style="display:none;overflow:visible;enable-background:new    ;" width="2420" height="623" xlink:href="930ED5A4F76AAA5A.png"  transform="matrix(8.000000e-02 0 0 8.000000e-02 111.55 37.92)">
</image>
<g id="New-design-2021">
	<g id="Product-STARKNET-_x7C_-current-colors" transform="translate(-127.000000, -467.000000)">
		<g id="Group-26" transform="translate(127.000000, 467.000000)">
			<g id="Group-16" transform="translate(0.000000, 0.718600)">
				<g id="Group-3">
					<path id="Fill-1" class="st4" d="M149.5,62.7c0,13.3-10.8,24.2-24.1,24.2S101.2,76,101.2,62.7s10.8-24.1,24.2-24.1
						C138.7,38.6,149.5,49.4,149.5,62.7"/>
				</g>
				<path id="Fill-4" class="st5" d="M136.6,56.3l-0.6-1.9c-0.1-0.4-0.4-0.7-0.8-0.8l-1.9-0.6c-0.3-0.1-0.3-0.4,0-0.6l1.9-0.6
					c0.4-0.1,0.7-0.4,0.8-0.8l0.6-1.9c0.1-0.3,0.4-0.3,0.6,0l0.6,1.9c0.1,0.4,0.4,0.7,0.8,0.8l1.9,0.6c0.3,0.1,0.3,0.4,0,0.6
					l-1.9,0.6c-0.4,0.1-0.7,0.4-0.8,0.8l-0.6,1.9C137.1,56.6,136.6,56.6,136.6,56.3"/>
				<path id="Fill-6" class="st6" d="M103.4,62.3c0.6-1.1,1.7-2,2.9-2.5c1.2-0.5,2.5-0.9,3.8-0.9c2.6-0.2,5.1,0.2,7.4,0.9
					c1.2,0.4,2.3,0.9,3.4,1.4c0.5,0.3,1.1,0.6,1.6,0.9l1.4,0.9c1.6,0.9,3.1,1.8,4.5,2.5c1.4,0.6,2.7,1.1,3.9,1.4
					c1.2,0.2,2.4,0.2,4-0.1c1.5-0.4,3.2-1.1,5-2c1.8-0.9,3.6-2.1,5.7-3.2c-0.2,2.4-0.9,4.6-1.9,6.7s-2.6,4.2-4.7,5.9
					c-2.1,1.7-5.1,2.9-8.1,3.1c-3,0.2-5.9-0.4-8.3-1.4c-2.4-1-4.5-2.4-6.4-3.8c-0.5-0.4-0.8-0.6-1.1-0.9l-1.1-1.1
					c-0.7-0.6-1.4-1.2-2.1-1.8c-1.4-1.1-2.8-2.4-4.4-3.4c-0.8-0.5-1.6-1-2.5-1.4c-0.4-0.2-0.9-0.4-1.4-0.6
					C104.5,62.5,104,62.3,103.4,62.3"/>
				<path id="Fill-8" class="st5" d="M103.4,62.3c0.3-2.4,1.4-4.7,3.3-6.6c1.8-1.9,4.6-3.4,7.8-3.6c1.6-0.1,3.1,0.1,4.6,0.5
					s2.8,1,4,1.6c0.6,0.4,1.1,0.7,1.7,1.1l1.5,1.1l2.4,1.9c1.5,1.2,3,2.4,4.4,3.3c1.4,0.9,2.5,1.6,3.6,2c1.1,0.4,2.5,0.6,4.4,0.1
					c0.9-0.2,1.9-0.6,2.9-1c1-0.4,2.1-0.9,3.2-1.4c-0.1,1.2-0.4,2.4-0.9,3.6c-0.4,1.1-1.1,2.3-1.9,3.4c-0.4,0.5-0.9,1-1.4,1.5
					c-0.6,0.5-1.1,0.9-1.8,1.3c-1.3,0.8-2.9,1.3-4.4,1.5c-1.6,0.2-3.2,0.1-4.6-0.2c-1.4-0.3-2.8-0.8-4-1.4c-2.6-1.1-4.6-2.5-6.4-4
					c-0.9-0.8-1.8-1.6-2.6-2.4l-0.9-0.9c-0.3-0.3-0.6-0.6-0.9-0.8c-1.1-1-2.2-1.8-3.4-2.3c-1.1-0.5-2.6-0.7-4.5-0.4
					C107.5,60.4,105.5,61.2,103.4,62.3"/>
				<path id="Fill-10" class="st5" d="M113,74.9c0,0.7-0.6,1.3-1.3,1.3s-1.3-0.6-1.3-1.3s0.6-1.3,1.3-1.3S113,74.2,113,74.9"/>
				<path id="Fill-12" class="st5" d="M113,74.9c0,0.7-0.6,1.3-1.3,1.3s-1.3-0.6-1.3-1.3s0.6-1.3,1.3-1.3S113,74.2,113,74.9"/>
			</g>
		</g>
	</g>
</g>
<g>
	<g id="StarkNet-logo-white_00000175287793302780667750000010630279033215856047_">
		<g id="starknet-logo_00000056410596055946650400000015271721309007671222_" transform="translate(4.000000, 5.000000)">
			<g id="Group-16_00000031181572345788356750000015991939030020178561_">
				<path id="Fill-14_00000077290886051805308610000014551560411252669606_" class="st7" d="M181.5,59.1c-0.9-0.6-2.5-1.3-4.8-2.1
					c-2.3-0.9-3.9-1.6-4.9-2.4c-0.9-0.7-1.4-1.6-1.4-2.9c0-1.2,0.4-2.2,1.4-2.9c0.9-0.7,2.1-1.1,3.6-1.1s2.7,0.4,3.6,1.2
					c0.9,0.8,1.4,1.9,1.4,3.4h3.6c0-2.6-0.9-4.6-2.6-6c-1.7-1.4-3.7-2.1-6.1-2.1c-2.4,0-4.4,0.6-6.1,2s-2.5,3.1-2.5,5.4
					c0,1.8,0.4,3.1,1.3,4.2c0.4,0.6,0.9,1,1.4,1.4c0.4,0.4,1.3,0.9,2.6,1.6s2.5,1.1,3.4,1.4c1.8,0.8,3.3,1.4,4.3,2.1
					c0.9,0.7,1.4,1.6,1.4,2.9s-0.5,2.2-1.5,2.9c-1,0.7-2.4,1.1-4.1,1.1s-3.1-0.4-4.3-1.3c-1.1-0.9-1.6-2.1-1.6-3.7h-3.6
					c0,2.7,0.9,4.9,2.8,6.4c1.9,1.5,4.1,2.3,6.8,2.3s4.9-0.7,6.6-2.1c1.8-1.4,2.6-3.3,2.6-5.7C185,62.5,183.9,60.6,181.5,59.1"/>
			</g>
			<polygon id="Fill-17_00000029735179784866493200000018366159364899632040_" class="st7" points="205.8,44.4 187.8,44.4 
				187.8,47.8 195,47.8 195,71.6 198.5,71.6 198.5,47.8 205.8,47.8 			"/>
			<path id="Fill-18_00000031902827673581214160000000651079710414938549_" class="st7" d="M214.8,44.4l-9.9,27.2h3.8
				c0,0,1-3,1.8-4.3c3.4-5.4,9.1-6,10.9-6l3.6,10.2h3.8l-10-27.2L214.8,44.4L214.8,44.4z M212.6,60.5l4.2-11.8l3.3,9.3
				C218.2,58,215.5,58.6,212.6,60.5L212.6,60.5z"/>
			<polygon id="Fill-20_00000155842966986575120410000016716188278670162871_" class="st7" points="275.8,44.4 271.4,44.4 260,56.8 
				260,44.4 256.4,44.4 256.4,71.6 260,71.6 260,58.5 271.8,71.6 276.2,71.6 263.8,57.7 			"/>
			<polygon id="Fill-21_00000109019357237114902450000002353469113352203962_" class="st7" points="294,61.2 283.5,44.4 279.5,44.4 
				279.5,71.6 284.8,71.6 284.8,54.8 295.3,71.6 299.3,71.6 299.3,44.4 294,44.4 			"/>
			<polygon id="Fill-22_00000005970337788096974700000016182020770061304222_" class="st7" points="308.3,60.4 317.9,60.4 
				317.9,55.4 308.3,55.4 308.3,49.6 318.9,49.6 318.9,44.4 303,44.4 303,71.6 319.1,71.6 319.1,66.5 308.3,66.5 			"/>
			<polygon id="Fill-23_00000016777872372960060240000001159488318479127982_" class="st7" points="321.4,44.4 321.4,49.6 
				327.9,49.6 327.9,71.6 333.3,71.6 333.3,49.6 339.8,49.6 339.8,44.4 			"/>
			<path id="Fill-24_00000065776996940739499760000017354127138568701862_" class="st7" d="M246.3,61.8c-0.6-0.5-1.1-0.9-1.7-1.4
				c1.8-0.3,3.7-1.2,5-2.8c1.1-1.4,1.6-3.1,1.6-4.9c0-2.4-0.9-4.4-2.6-6c-1.7-1.6-3.7-2.5-6.1-2.5h-10.1v27.2h3.7V61.3
				c2,0.1,5,0.6,7.8,3c2.6,2.4,4.4,5.4,5.4,7.2h3.9C252.4,69.5,250.1,65.3,246.3,61.8L246.3,61.8z M242.6,47.8
				c1.4,0,2.6,0.5,3.5,1.5c1,1,1.4,2.1,1.4,3.6c0,1.4-0.5,2.6-1.4,3.6c-1.8,1.8-5.8,1.4-9.8,1.4c-0.1,0-0.1,0-0.1,0V47.8H242.6z"/>
		</g>
	</g>
	<g>
		<path class="st7" d="M377.5,56.3h-6v19h-6v-19h-6v-5.4h18V56.3L377.5,56.3z"/>
		<path class="st7" d="M398.5,66.7c0,2.6-0.9,4.7-2.7,6.3c-1.8,1.6-4,2.4-6.6,2.4s-4.8-0.8-6.5-2.4c-1.8-1.6-2.7-3.8-2.7-6.4v-8.3h6
			v8.3c0,1.1,0.3,1.9,0.9,2.6c0.6,0.6,1.4,0.9,2.4,0.9s1.8-0.3,2.4-0.9s0.9-1.5,0.9-2.6v-8.3h6L398.5,66.7L398.5,66.7z"/>
		<path class="st7" d="M420.3,75.2h-6.9l-4.3-9.1h-2v9.1h-6V50.9h9.6c2.6,0,4.6,0.8,6.2,2.4c1.4,1.4,2.1,3.3,2.1,5.4
			c0,2.9-1.4,5.1-4,6.4L420.3,75.2z M413,58.8c0-0.6-0.2-1.2-0.7-1.7c-0.5-0.5-1.1-0.8-1.9-0.8h-3.4v4.9h3.4c0.7,0,1.4-0.2,1.9-0.7
			C412.8,60,413,59.4,413,58.8z"/>
		<path class="st7" d="M443.3,75.2h-7l-5.6-10l-2.1,2.4v7.6h-5.9V50.9h5.9v8.6l7.1-8.6h7.3l-8.3,9.8L443.3,75.2z"/>
		<path class="st7" d="M451.9,75.2h-6v-17h6V75.2z"/>
		<path class="st7" d="M451.9,56.3h-6v-5.4h6V56.3z"/>
		<path class="st7" d="M398.5,56.3h-6v-5.4h6V56.3z"/>
		<path class="st7" d="M386,56.3h-6v-5.4h6V56.3z"/>
		<path class="st7" d="M475.1,50.9l-7.3,14.4v9.9h-6v-9.9l-7.3-14.4h6.6l3.9,8.8l3.8-8.8H475.1z"/>
		<path class="st7" d="M494.1,75.2h-16.6V50.9h16.6v5.4h-10.6v4.1h9v5.4h-9V70h10.6V75.2z"/>
	</g>
	<rect x="351.2" y="47.8" class="st7" width="1" height="30.4"/>
</g>
</svg>
