<?xml version="1.0" encoding="utf-8"?>
<!-- Generator: Adobe Illustrator 27.0.1, SVG Export Plug-In . SVG Version: 6.00 Build 0)  -->
<svg version="1.1" id="Layer_1" xmlns="http://www.w3.org/2000/svg" xmlns:xlink="http://www.w3.org/1999/xlink" x="0px" y="0px"
	 viewBox="0 0 595.28 126.94" style="enable-background:new 0 0 595.28 126.94;" xml:space="preserve">
<style type="text/css">
	.st0{fill:#212178;}
	.st1{fill:#FFFFFF;}
</style>
<g>
	<g id="StarkNet-logo-white">
		<g id="starknet-logo" transform="translate(4.000000, 5.000000)">
			<g id="Group-16">
				<path id="Fill-14" class="st0" d="M120.33,61.88c-1.04-0.68-2.94-1.54-5.68-2.57c-2.75-1.03-4.65-1.96-5.72-2.79
					c-1.07-0.82-1.6-1.96-1.6-3.41s0.54-2.59,1.62-3.43c1.08-0.84,2.51-1.26,4.28-1.26c1.77,0,3.21,0.48,4.32,1.44
					c1.11,0.96,1.67,2.32,1.67,4.09h4.33c0-3.04-1.01-5.41-3.02-7.13c-2.01-1.71-4.43-2.57-7.27-2.57c-2.83,0-5.24,0.8-7.22,2.39
					c-1.98,1.59-2.97,3.73-2.97,6.42c0,2.08,0.51,3.74,1.54,4.96c0.54,0.65,1.07,1.2,1.56,1.64c0.5,0.45,1.55,1.06,3.15,1.84
					c1.6,0.78,2.96,1.3,4.08,1.57c2.15,0.92,3.92,1.68,5.05,2.49c1.13,0.82,1.69,1.94,1.69,3.37c0,1.43-0.59,2.58-1.76,3.46
					c-1.17,0.88-2.79,1.31-4.85,1.31c-2.06,0-3.75-0.52-5.05-1.55c-1.3-1.03-1.95-2.51-1.95-4.43h-4.31c0,3.22,1.11,5.73,3.32,7.52
					c2.21,1.8,4.89,2.7,8.02,2.7c3.13,0,5.73-0.82,7.8-2.47c2.07-1.65,3.1-3.89,3.07-6.73C124.43,65.91,123.05,63.62,120.33,61.88"
					/>
			</g>
			<polygon id="Fill-17" class="st0" points="149.01,44.46 127.72,44.46 127.72,48.52 136.24,48.52 136.24,76.66 140.44,76.66 
				140.44,48.52 149.01,48.52 			"/>
			<path id="Fill-18" class="st0" d="M159.7,44.46l-11.78,32.2h4.52c0,0,1.15-3.58,2.08-5.05c4.05-6.36,10.78-7.14,12.94-7.08
				l4.31,12.12h4.52l-11.8-32.2H159.7z M157.13,63.47l4.97-13.98l3.9,10.95C163.78,60.61,160.54,61.28,157.13,63.47L157.13,63.47z"
				/>
			<polygon id="Fill-20" class="st0" points="232.05,44.46 226.78,44.46 213.31,59.05 213.31,44.46 209.03,44.46 209.03,76.66 
				213.31,76.66 213.31,61.21 227.25,76.66 232.5,76.66 217.79,60.15 			"/>
			<polygon id="Fill-21" class="st0" points="253.53,64.33 241.1,44.46 236.32,44.46 236.32,76.66 242.61,76.66 242.61,56.74 
				255,76.66 259.78,76.66 259.78,44.46 253.53,44.46 			"/>
			<polygon id="Fill-22" class="st0" points="270.51,63.36 281.88,63.36 281.88,57.44 270.51,57.44 270.51,50.54 283.02,50.54 
				283.02,44.46 264.15,44.46 264.15,76.66 283.25,76.66 283.25,70.59 270.51,70.59 			"/>
			<polygon id="Fill-23" class="st0" points="285.98,44.46 285.98,50.54 293.7,50.54 293.7,76.66 300.04,76.66 300.04,50.54 
				307.8,50.54 307.8,44.46 			"/>
			<path id="Fill-24" class="st0" d="M197.06,65.06c-0.66-0.6-1.34-1.12-2.01-1.58c2.12-0.31,4.4-1.44,5.88-3.28
				c1.34-1.68,1.93-3.64,1.93-5.75c0-2.77-1-5.13-3-7.07c-2-1.95-4.41-2.92-7.22-2.92h-11.97v32.2h4.36V64.51
				c2.38,0.05,5.93,0.64,9.18,3.59c3.12,2.83,5.28,6.35,6.39,8.55h4.63C204.25,74.22,201.51,69.09,197.06,65.06L197.06,65.06z
				 M192.63,48.48c1.62,0,3,0.58,4.15,1.74c1.15,1.16,1.72,2.57,1.72,4.22c0,1.65-0.56,3.09-1.72,4.25
				c-2.08,2.08-6.87,1.66-11.63,1.68c-0.04,0-0.09,0-0.13,0v-11.9H192.63z"/>
		</g>
	</g>
	<g>
		<path class="st0" d="M351.76,57.53h-7.09v22.52h-7.09V57.53h-7.09v-6.32h21.26V57.53z"/>
		<path class="st0" d="M376.61,69.92c0,3.05-1.07,5.54-3.2,7.47c-2.13,1.93-4.72,2.9-7.78,2.9c-3.08,0-5.64-0.94-7.69-2.83
			c-2.13-1.97-3.2-4.48-3.2-7.53V59.91h7.09v9.85c0,1.3,0.33,2.32,0.99,3.08c0.66,0.76,1.6,1.13,2.81,1.13
			c1.16,0,2.1-0.37,2.81-1.11c0.72-0.74,1.07-1.77,1.07-3.1v-9.85h7.09V69.92z"/>
		<path class="st0" d="M402.39,80.05h-8.22l-5.1-10.73h-2.39v10.73h-7.09V51.21h11.42c3.05,0,5.49,0.96,7.33,2.88
			c1.67,1.73,2.51,3.86,2.51,6.4c0,3.46-1.57,5.97-4.7,7.53L402.39,80.05z M393.77,60.49c0-0.73-0.29-1.4-0.87-2
			c-0.58-0.61-1.32-0.91-2.21-0.91h-4.01v5.83h4.01c0.86,0,1.59-0.28,2.19-0.85C393.47,61.98,393.77,61.3,393.77,60.49z"/>
		<path class="st0" d="M429.72,80.05h-8.26l-6.64-11.83l-2.43,2.79v9.03h-7.01V51.21h7.01v10.21l8.34-10.21h8.67l-9.84,11.66
			L429.72,80.05z"/>
		<path class="st0" d="M439.82,80.05h-7.09V59.91h7.09V80.05z"/>
		<path class="st0" d="M439.82,57.57h-7.09v-6.36h7.09V57.57z"/>
		<path class="st0" d="M376.61,57.57h-7.09v-6.36h7.09V57.57z"/>
		<path class="st0" d="M361.83,57.57h-7.09v-6.36h7.09V57.57z"/>
		<path class="st0" d="M467.3,51.21l-8.71,17.09v11.74h-7.09V68.3l-8.71-17.09h7.74l4.54,10.37l4.5-10.37H467.3z"/>
		<path class="st0" d="M489.89,80.05h-19.6V51.21h19.6v6.32h-12.51v4.82h10.69v6.32h-10.69v5.06h12.51V80.05z"/>
	</g>
	<rect x="320.57" y="47.56" class="st0" width="1.15" height="35.99"/>
</g>
<g>
	<g id="StarkNet-logo-white_00000116199205816580677430000005706419240488844192_">
		<g id="starknet-logo_00000159463139328393196310000009755537747185328517_" transform="translate(4.000000, 5.000000)">
			<g id="Group-16_00000096019979376153598690000015896277860107650745_">
				<path id="Fill-14_00000132058409076773994860000005282490996404374936_" class="st1" d="M120.33-85.17
					c-1.04-0.68-2.94-1.54-5.68-2.57c-2.75-1.03-4.65-1.96-5.72-2.79c-1.07-0.82-1.6-1.96-1.6-3.41c0-1.45,0.54-2.59,1.62-3.43
					c1.08-0.84,2.51-1.26,4.28-1.26c1.77,0,3.21,0.48,4.32,1.44c1.11,0.96,1.67,2.32,1.67,4.09h4.33c0-3.04-1.01-5.41-3.02-7.13
					c-2.01-1.71-4.43-2.57-7.27-2.57c-2.83,0-5.24,0.8-7.22,2.39c-1.98,1.59-2.97,3.73-2.97,6.42c0,2.08,0.51,3.74,1.54,4.96
					c0.54,0.65,1.07,1.2,1.56,1.64c0.5,0.45,1.55,1.06,3.15,1.84c1.6,0.78,2.96,1.3,4.08,1.57c2.15,0.92,3.92,1.68,5.05,2.49
					c1.13,0.82,1.69,1.94,1.69,3.37c0,1.43-0.59,2.58-1.76,3.46c-1.17,0.88-2.79,1.31-4.85,1.31c-2.06,0-3.75-0.52-5.05-1.55
					c-1.3-1.03-1.95-2.51-1.95-4.43h-4.31c0,3.22,1.11,5.73,3.32,7.52c2.21,1.8,4.89,2.7,8.02,2.7c3.13,0,5.73-0.82,7.8-2.47
					c2.07-1.65,3.1-3.89,3.07-6.73C124.43-81.15,123.05-83.44,120.33-85.17"/>
			</g>
			<polygon id="Fill-17_00000049921433382710659730000018187160448283388295_" class="st1" points="149.01,-102.6 127.72,-102.6 
				127.72,-98.54 136.24,-98.54 136.24,-70.4 140.44,-70.4 140.44,-98.54 149.01,-98.54 			"/>
			<path id="Fill-18_00000119828211190817875310000011109783836405353104_" class="st1" d="M159.7-102.6l-11.78,32.2h4.52
				c0,0,1.15-3.58,2.08-5.05c4.05-6.36,10.78-7.14,12.94-7.08l4.31,12.12h4.52l-11.8-32.2H159.7z M157.13-83.59l4.97-13.98
				l3.9,10.95C163.78-86.45,160.54-85.78,157.13-83.59L157.13-83.59z"/>
			<polygon id="Fill-20_00000163776750373682199470000013205363530031651233_" class="st1" points="232.05,-102.6 226.78,-102.6 
				213.31,-88.01 213.31,-102.6 209.03,-102.6 209.03,-70.4 213.31,-70.4 213.31,-85.85 227.25,-70.4 232.5,-70.4 217.79,-86.91 			
				"/>
			<polygon id="Fill-21_00000014628285318751405600000014510380358013974201_" class="st1" points="253.53,-82.73 241.1,-102.6 
				236.32,-102.6 236.32,-70.4 242.61,-70.4 242.61,-90.32 255,-70.4 259.78,-70.4 259.78,-102.6 253.53,-102.6 			"/>
			<polygon id="Fill-22_00000085936794179920380650000002247346009044265146_" class="st1" points="270.51,-83.69 281.88,-83.69 
				281.88,-89.62 270.51,-89.62 270.51,-96.52 283.02,-96.52 283.02,-102.6 264.15,-102.6 264.15,-70.4 283.25,-70.4 283.25,-76.46 
				270.51,-76.46 			"/>
			<polygon id="Fill-23_00000116213595971704409240000008946250815333125516_" class="st1" points="285.98,-102.6 285.98,-96.51 
				293.7,-96.51 293.7,-70.4 300.04,-70.4 300.04,-96.51 307.8,-96.51 307.8,-102.6 			"/>
			<path id="Fill-24_00000108280538345197274900000005987241837572348296_" class="st1" d="M197.06-81.99
				c-0.66-0.6-1.34-1.12-2.01-1.58c2.12-0.31,4.4-1.44,5.88-3.28c1.34-1.68,1.93-3.64,1.93-5.75c0-2.77-1-5.13-3-7.07
				c-2-1.95-4.41-2.92-7.22-2.92h-11.97v32.2h4.36v-12.14c2.38,0.05,5.93,0.64,9.18,3.59c3.12,2.83,5.28,6.35,6.39,8.55h4.63
				C204.25-72.84,201.51-77.97,197.06-81.99L197.06-81.99z M192.63-98.58c1.62,0,3,0.58,4.15,1.74c1.15,1.16,1.72,2.57,1.72,4.22
				c0,1.65-0.56,3.09-1.72,4.25c-2.08,2.08-6.87,1.66-11.63,1.68c-0.04,0-0.09,0-0.13,0v-11.9H192.63z"/>
		</g>
	</g>
	<g>
		<path class="st1" d="M351.76-89.53h-7.09v22.52h-7.09v-22.52h-7.09v-6.32h21.26V-89.53z"/>
		<path class="st1" d="M376.61-77.14c0,3.05-1.07,5.54-3.2,7.47c-2.13,1.93-4.72,2.9-7.78,2.9c-3.08,0-5.64-0.94-7.69-2.83
			c-2.13-1.97-3.2-4.48-3.2-7.53v-10.02h7.09v9.85c0,1.3,0.33,2.32,0.99,3.08c0.66,0.76,1.6,1.13,2.81,1.13
			c1.16,0,2.1-0.37,2.81-1.11c0.72-0.74,1.07-1.77,1.07-3.1v-9.85h7.09V-77.14z"/>
		<path class="st1" d="M402.39-67.01h-8.22l-5.1-10.73h-2.39v10.73h-7.09v-28.83h11.42c3.05,0,5.49,0.96,7.33,2.88
			c1.67,1.73,2.51,3.86,2.51,6.4c0,3.46-1.57,5.97-4.7,7.53L402.39-67.01z M393.77-86.57c0-0.73-0.29-1.4-0.87-2
			c-0.58-0.61-1.32-0.91-2.21-0.91h-4.01v5.83h4.01c0.86,0,1.59-0.28,2.19-0.85C393.47-85.07,393.77-85.76,393.77-86.57z"/>
		<path class="st1" d="M429.72-67.01h-8.26l-6.64-11.83l-2.43,2.79v9.03h-7.01v-28.83h7.01v10.21l8.34-10.21h8.67l-9.84,11.66
			L429.72-67.01z"/>
		<path class="st1" d="M439.82-67.01h-7.09v-20.14h7.09V-67.01z"/>
		<path class="st1" d="M439.82-89.49h-7.09v-6.36h7.09V-89.49z"/>
		<path class="st1" d="M376.61-89.49h-7.09v-6.36h7.09V-89.49z"/>
		<path class="st1" d="M361.83-89.49h-7.09v-6.36h7.09V-89.49z"/>
		<path class="st1" d="M467.3-95.85l-8.71,17.09v11.74h-7.09v-11.74l-8.71-17.09h7.74l4.54,10.37l4.5-10.37H467.3z"/>
		<path class="st1" d="M489.89-67.01h-19.6v-28.83h19.6v6.32h-12.51v4.82h10.69v6.32h-10.69v5.06h12.51V-67.01z"/>
	</g>
	<rect x="320.57" y="-99.5" class="st1" width="1.15" height="35.99"/>
</g>
<g>
	<g id="StarkNet-logo-white_00000177471325785734572710000015513314579672194996_">
		<g id="starknet-logo_00000078017081119162607130000002527621857773893520_" transform="translate(4.000000, 5.000000)">
			<g id="Group-16_00000057114311182801186690000005875787913749640383_">
				<path id="Fill-14_00000100346314938209248720000009227158444489395889_" d="M120.33-226.35c-1.04-0.68-2.94-1.54-5.68-2.57
					c-2.75-1.03-4.65-1.96-5.72-2.79c-1.07-0.82-1.6-1.96-1.6-3.41s0.54-2.59,1.62-3.43c1.08-0.84,2.51-1.26,4.28-1.26
					c1.77,0,3.21,0.48,4.32,1.44c1.11,0.96,1.67,2.32,1.67,4.09h4.33c0-3.04-1.01-5.41-3.02-7.13c-2.01-1.71-4.43-2.57-7.27-2.57
					c-2.83,0-5.24,0.8-7.22,2.39c-1.98,1.59-2.97,3.73-2.97,6.42c0,2.08,0.51,3.74,1.54,4.96c0.54,0.65,1.07,1.2,1.56,1.64
					c0.5,0.45,1.55,1.06,3.15,1.84c1.6,0.78,2.96,1.3,4.08,1.57c2.15,0.92,3.92,1.68,5.05,2.49c1.13,0.82,1.69,1.94,1.69,3.37
					c0,1.43-0.59,2.58-1.76,3.46c-1.17,0.88-2.79,1.31-4.85,1.31c-2.06,0-3.75-0.52-5.05-1.55c-1.3-1.03-1.95-2.51-1.95-4.43h-4.31
					c0,3.22,1.11,5.73,3.32,7.52c2.21,1.8,4.89,2.7,8.02,2.7c3.13,0,5.73-0.82,7.8-2.47c2.07-1.65,3.1-3.89,3.07-6.73
					C124.43-222.32,123.05-224.61,120.33-226.35"/>
			</g>
			<polygon id="Fill-17_00000115491877069958892600000017274965264727312012_" points="149.01,-243.78 127.72,-243.78 
				127.72,-239.71 136.24,-239.71 136.24,-211.58 140.44,-211.58 140.44,-239.71 149.01,-239.71 			"/>
			<path id="Fill-18_00000160877699714525897530000014503760386858652090_" d="M159.7-243.78l-11.78,32.2h4.52
				c0,0,1.15-3.58,2.08-5.05c4.05-6.36,10.78-7.14,12.94-7.08l4.31,12.12h4.52l-11.8-32.2H159.7z M157.13-224.77l4.97-13.98
				l3.9,10.95C163.78-227.63,160.54-226.96,157.13-224.77L157.13-224.77z"/>
			<polygon id="Fill-20_00000121985895138196805610000005448742011625233555_" points="232.05,-243.78 226.78,-243.78 
				213.31,-229.18 213.31,-243.78 209.03,-243.78 209.03,-211.58 213.31,-211.58 213.31,-227.03 227.25,-211.58 232.5,-211.58 
				217.79,-228.08 			"/>
			<polygon id="Fill-21_00000031898996026058375380000006430449055382562479_" points="253.53,-223.91 241.1,-243.78 
				236.32,-243.78 236.32,-211.58 242.61,-211.58 242.61,-231.49 255,-211.58 259.78,-211.58 259.78,-243.78 253.53,-243.78 			"/>
			<polygon id="Fill-22_00000015355036271669448570000004237860309378502815_" points="270.51,-224.87 281.88,-224.87 
				281.88,-230.8 270.51,-230.8 270.51,-237.69 283.02,-237.69 283.02,-243.78 264.15,-243.78 264.15,-211.58 283.25,-211.58 
				283.25,-217.64 270.51,-217.64 			"/>
			<polygon id="Fill-23_00000016035285826376464150000010949331628793113234_" points="285.98,-243.78 285.98,-237.69 
				293.7,-237.69 293.7,-211.58 300.04,-211.58 300.04,-237.69 307.8,-237.69 307.8,-243.78 			"/>
			<path id="Fill-24_00000095298329928911343590000002345069656525674370_" d="M197.06-223.17c-0.66-0.6-1.34-1.12-2.01-1.58
				c2.12-0.31,4.4-1.44,5.88-3.28c1.34-1.68,1.93-3.64,1.93-5.75c0-2.77-1-5.13-3-7.07c-2-1.95-4.41-2.92-7.22-2.92h-11.97v32.2
				h4.36v-12.14c2.38,0.05,5.93,0.64,9.18,3.59c3.12,2.83,5.28,6.35,6.39,8.55h4.63C204.25-214.02,201.51-219.15,197.06-223.17
				L197.06-223.17z M192.63-239.76c1.62,0,3,0.58,4.15,1.74c1.15,1.16,1.72,2.57,1.72,4.22c0,1.65-0.56,3.09-1.72,4.25
				c-2.08,2.08-6.87,1.66-11.63,1.68c-0.04,0-0.09,0-0.13,0v-11.9H192.63z"/>
		</g>
	</g>
	<g>
		<path d="M351.76-230.71h-7.09v22.52h-7.09v-22.52h-7.09v-6.32h21.26V-230.71z"/>
		<path d="M376.61-218.31c0,3.05-1.07,5.54-3.2,7.47c-2.13,1.93-4.72,2.9-7.78,2.9c-3.08,0-5.64-0.94-7.69-2.83
			c-2.13-1.97-3.2-4.48-3.2-7.53v-10.02h7.09v9.85c0,1.3,0.33,2.32,0.99,3.08c0.66,0.76,1.6,1.13,2.81,1.13
			c1.16,0,2.1-0.37,2.81-1.11c0.72-0.74,1.07-1.77,1.07-3.1v-9.85h7.09V-218.31z"/>
		<path d="M402.39-208.19h-8.22l-5.1-10.73h-2.39v10.73h-7.09v-28.83h11.42c3.05,0,5.49,0.96,7.33,2.88
			c1.67,1.73,2.51,3.86,2.51,6.4c0,3.46-1.57,5.97-4.7,7.53L402.39-208.19z M393.77-227.75c0-0.73-0.29-1.4-0.87-2
			c-0.58-0.61-1.32-0.91-2.21-0.91h-4.01v5.83h4.01c0.86,0,1.59-0.28,2.19-0.85C393.47-226.25,393.77-226.94,393.77-227.75z"/>
		<path d="M429.72-208.19h-8.26l-6.64-11.83l-2.43,2.79v9.03h-7.01v-28.83h7.01v10.21l8.34-10.21h8.67l-9.84,11.66L429.72-208.19z"
			/>
		<path d="M439.82-208.19h-7.09v-20.14h7.09V-208.19z"/>
		<path d="M439.82-230.67h-7.09v-6.36h7.09V-230.67z"/>
		<path d="M376.61-230.67h-7.09v-6.36h7.09V-230.67z"/>
		<path d="M361.83-230.67h-7.09v-6.36h7.09V-230.67z"/>
		<path d="M467.3-237.02l-8.71,17.09v11.74h-7.09v-11.74l-8.71-17.09h7.74l4.54,10.37l4.5-10.37H467.3z"/>
		<path d="M489.89-208.19h-19.6v-28.83h19.6v6.32h-12.51v4.82h10.69v6.32h-10.69v5.06h12.51V-208.19z"/>
	</g>
	<rect x="320.57" y="-240.67" width="1.15" height="35.99"/>
</g>
</svg>
