<?xml version="1.0" encoding="utf-8"?>
<!-- Generator: Adobe Illustrator 26.3.1, SVG Export Plug-In . SVG Version: 6.00 Build 0)  -->
<svg version="1.1" id="Layer_1" xmlns="http://www.w3.org/2000/svg" xmlns:xlink="http://www.w3.org/1999/xlink" x="0px" y="0px"
	 viewBox="0 0 595.3 126.9" style="enable-background:new 0 0 595.3 126.9;" xml:space="preserve">
<style type="text/css">
	.st0{display:none;}
	.st1{display:inline;}
	.st2{fill:#2E1E49;}
	.st3{display:inline;fill:#2E1E49;}
</style>
<g class="st0">
	<g class="st1">
		<path class="st2" d="M348.5,59h-6.9v22h-6.9V59h-6.9v-6.2h20.9L348.5,59L348.5,59L348.5,59z"/>
		<path class="st2" d="M372.7,71.2c0,3-1,5.3-3.1,7.3s-4.6,2.8-7.7,2.8s-5.5-0.8-7.5-2.7c-2.1-2-3.1-4.4-3.1-7.3v-9.8h6.9v9.7
			c0,1.3,0.3,2.3,0.9,3s1.6,1.1,2.7,1.1s2.1-0.4,2.7-1.1c0.6-0.7,1-1.8,1-3v-9.7h6.9L372.7,71.2C372.8,71.2,372.7,71.2,372.7,71.2
			L372.7,71.2z"/>
		<path class="st2" d="M398.1,81.2H390l-5-10.5h-2.3v10.5h-6.9V52.8h11.1c2.9,0,5.4,0.9,7.1,2.8c1.7,1.7,2.4,3.8,2.4,6.3
			c0,3.5-1.6,5.9-4.6,7.3C391.9,69.3,398.1,81.2,398.1,81.2L398.1,81.2z M389.6,62c0-0.7-0.3-1.4-0.8-2s-1.3-0.8-2.2-0.8h-3.9v5.7
			h3.9c0.8,0,1.6-0.3,2.2-0.8C389.3,63.4,389.6,62.7,389.6,62z"/>
		<path class="st2" d="M424.8,81.2h-8.2l-6.5-11.5l-2.3,2.7v8.8H401V52.8h6.8v10l8.2-10h8.5l-9.6,11.4L424.8,81.2L424.8,81.2
			L424.8,81.2z"/>
		<path class="st2" d="M434.7,81.2h-6.9V61.3h6.9V81.2z"/>
		<path class="st2" d="M434.7,59.1h-6.9v-6.3h6.9V59.1z"/>
		<path class="st2" d="M372.7,59.1h-6.9v-6.3h6.9V59.1z"/>
		<path class="st2" d="M358.2,59.1h-6.9v-6.3h6.9V59.1z"/>
		<path class="st2" d="M461.6,52.8l-8.5,16.8v11.4h-6.9V69.6l-8.5-16.8h7.5l4.4,10.2l4.4-10.2H461.6L461.6,52.8z"/>
		<path class="st2" d="M483.8,81.2h-19.2V52.8h19.2V59h-12.3v4.7H482v6.2h-10.5v5h12.3V81.2L483.8,81.2z"/>
	</g>
	<rect x="321.3" y="51.3" class="st3" width="1" height="31.7"/>
</g>
<image style="display:none;overflow:visible;enable-background:new    ;" width="2420" height="623" xlink:href="2FDC0248176C90E7.png"  transform="matrix(8.000000e-02 0 0 8.000000e-02 111.55 37.92)">
</image>
<image style="overflow:visible;enable-background:new    ;" width="3200" height="1483" xlink:href="2FDC0248176C90E5.png"  transform="matrix(6.674608e-02 0 0 6.674608e-02 190.8563 13.9578)">
</image>
</svg>
