<?xml version="1.0" encoding="utf-8"?>
<!-- Generator: Adobe Illustrator 26.0.3, SVG Export Plug-In . SVG Version: 6.00 Build 0)  -->
<svg version="1.0" id="katman_1" xmlns="http://www.w3.org/2000/svg" xmlns:xlink="http://www.w3.org/1999/xlink" x="0px" y="0px"
	 viewBox="0 0 600 450" style="enable-background:new 0 0 600 450;" xml:space="preserve">
<style type="text/css">
	.st0{fill-rule:evenodd;clip-rule:evenodd;fill:#010202;}
</style>
<g>
	<path class="st0" d="M293,235.1c14.7,0.4,27.9-12.1,28.3-26.9c0.4-15.7-11.6-27.8-25.8-28.8c-16.7-1.3-29.7,11.5-30.3,26.4
		C264.5,221.9,276.7,234.6,293,235.1 M324.4,207.2c0,17.4-13.9,31.1-31.4,31c-17.1,0-30.9-13.9-31-31c0-17.3,13.9-31.2,31.3-31.2
		c17.1,0,31,13.8,31.1,30.9C324.4,207,324.4,207.1,324.4,207.2 M176.5,258.3c-2,4.4-4,8.9-6.1,13.3c-0.3,0.7-1.3,1.6-1.9,1.6
		c-0.8-0.1-1.8-0.9-2.2-1.6c-1.6-3.3-3-6.8-4.6-10.2c-0.5-1.1-1-2.2-2-3.2c0,4.2,0.1,8.5,0,12.7c0,0.8-0.4,2-1,2.3
		c-1.5,0.8-2.5-0.1-2.5-2c0-6.9,0-13.7,0-20.6c0-0.7,0.6-1.9,1.1-2.1c1.2-0.3,2.5-0.4,3.2,1.3c2.4,5.8,5.1,11.5,7.8,17.7
		c0.8-1.8,1.6-3.3,2.2-4.8c1.9-4.3,3.8-8.5,5.6-12.8c0.6-1.4,1.7-2,2.9-1.5c0.6,0.3,1.3,1.5,1.3,2.2c0.1,6.6,0.1,13.2,0,19.9
		c0,2.7-0.4,2.9-3.5,2.3v-14.6L176.5,258.3 M458,260.2c2.6-0.1,4.9-0.1,7.2-0.5c2.3-0.4,3.1-2,3-4.5c-0.1-2.2-1.6-3.2-3.4-3.4
		c-2.2-0.2-4.4-0.1-6.8-0.1L458,260.2L458,260.2z M467.3,262.9c1.4,2.7,2.9,5.2,4.1,7.7c0.3,0.7,0.1,1.7,0.1,2.5
		c-1.1-0.3-2.7-0.2-3.2-0.9c-1.3-1.7-2.3-3.7-3.1-5.7c-1-2.4-2.4-3.6-5.1-3.1c-0.6,0.1-1.2,0-2.2,0c0,2.6,0,5.2,0,7.7
		c0,1.1,0.1,2.1-1.6,2.1c-1.7,0-2-0.9-2-2.2c0-6.9,0-13.8,0-20.8c0-1.5,0.7-2,2.2-2c2.3,0.1,4.7,0,7,0c4.2,0.1,7.2,1.8,8,4.7
		C472.7,257.4,471.5,260.1,467.3,262.9L467.3,262.9z M307.5,260.1c2.3,0,4.4,0.1,6.6,0c2.2-0.2,3.7-2.1,3.7-4.3
		c0-2.1-1.3-3.7-3.6-3.9c-2.2-0.2-4.4,0-6.7,0V260.1L307.5,260.1z M316.9,262.8c1.4,2.7,2.8,5.1,3.9,7.7c0.3,0.8,0.3,2.5,0.1,2.6
		c-1.2,0.4-2.6,0.6-3.3-1c-0.9-2-2.2-3.8-3.1-5.8c-0.9-2.2-2.1-3.2-4.6-2.8c-0.7,0.1-1.5,0-2.5,0c0,2.8,0,5.3,0,7.9c0,1.1,0,2-1.6,2
		c-1.5,0-1.9-0.6-1.9-1.9c0-7,0-14,0.1-21c0-0.6,0.7-1.8,1.1-1.8c3.4-0.1,6.9-0.2,10.3,0.1c3.2,0.3,5.4,2.3,6,5.4
		c0.7,3.5-0.6,6.4-3.7,8.4C317.4,262.6,317.2,262.6,316.9,262.8L316.9,262.8z M227.9,251.8v18c4.1,0,8.6,1,11.1-3.1
		c2.2-3.5,2.2-7.7,0.2-11.4C236.7,250.9,232.2,251.8,227.9,251.8 M224.2,260.6c0-3.3,0-6.7,0-10c0-1.5,0.4-2.3,2.1-2.2
		c3.3,0.2,6.6,0,9.7,0.5c4.1,0.7,6.7,3.4,7.6,7.5c1,4.8,0.9,9.4-2.6,13.3c-2.1,2.4-4.9,3.2-7.9,3.4c-2.3,0.1-4.7,0-7,0.1
		c-1.5,0.1-1.9-0.6-1.9-2C224.2,267.8,224.2,264.2,224.2,260.6 M377,256.2c-1.2-4.4-4.2-6-8-4.4c-1.6,0.7-2.7,2.1-2.2,3.6
		c0.3,1.1,1.5,2.3,2.6,2.7c1.7,0.7,3.6,0.7,5.5,1c3.5,0.6,5.6,2.5,6.1,5.5c0.5,3.2-0.8,6-3.7,7.7c-4,2.4-10.2,1.6-13.1-1.8
		c-0.8-1-1.4-2.2-1.8-3.4c-0.2-0.7,0.2-2,0.7-2.2c1.1-0.4,2.2-0.3,2.8,1.2c1.6,3.9,4.6,5.2,8.6,3.8c2-0.7,2.8-2.1,2.8-4.1
		c0-2-1.3-2.7-2.9-3c-2.3-0.5-4.6-0.9-6.8-1.5c-2.4-0.7-4.1-2.2-4.4-4.8c-0.4-3,0.3-5.5,3.1-7.2c5-2.9,11.9-1.2,13.6,3.5
		C380.8,255.7,380,256.6,377,256.2 M397.4,251.8v7c3.2,0,6.3,0,9.5,0c1.1,0,2.2-0.2,2.2,1.6c0,1.8-0.9,1.8-2.2,1.8
		c-3.1,0-6.2,0-9.4,0v7.8c3.2,0,6.3,0,9.5,0c0.7,0,1.5-0.2,2.1,0.1c0.6,0.3,1.3,1.1,1.3,1.8c0,0.5-0.9,1.4-1.4,1.4
		c-4.6,0.1-9.2,0.1-13.8,0c-0.6,0-1.5-1.1-1.5-1.8c-0.1-7.2-0.1-14.3,0-21.5c0-0.5,0.9-1.4,1.5-1.4c4.5-0.1,9.1-0.1,13.6,0
		c0.5,0,1.5,1.1,1.4,1.5c-0.1,0.7-0.9,1.7-1.5,1.7C405,251.8,401.3,251.8,397.4,251.8 M198.6,251.8v7c3.1,0,6.2,0,9.2,0
		c1.4,0,2.5,0.2,2.4,2c0,1.8-1.4,1.4-2.4,1.4c-3,0.1-6.1,0-9.2,0v7.8c3.4,0,6.9,0,10.4,0c0.7,0,1.7,0.2,2.1,0.6c0.9,1,0,2.7-1.4,2.7
		c-4.5,0-8.9,0-13.4,0c-1.2,0-1.6-0.5-1.6-1.7c0-7.2,0-14.3,0-21.5c0-1.4,0.6-1.7,1.8-1.7c4.3,0,8.6,0,12.9,0c1.3,0,1.9,0.4,1.9,1.7
		c0,1.4-0.7,1.7-1.9,1.7C205.8,251.7,202.3,251.8,198.6,251.8 M520.4,262.3v8.6c0,1.3-0.1,2.5-2,2.4c-2-0.1-1.5-1.4-1.6-2.5
		c0-6.7,0-13.4,0-20.1c0-1.2-0.2-2.4,1.7-2.4c1.9,0,1.9,1.2,1.9,2.5v7.8H532c0-2.7,0-5.4,0-8.1c0-1.2,0-2.2,1.6-2.2
		c1.5,0,2.1,0.6,2.1,2.1c0,6.9,0,13.7,0,20.6c0,1.3-0.3,2.3-2,2.2c-1.7-0.1-1.8-1.2-1.8-2.4c0-2.8,0-5.6,0-8.6
		C532,262.3,520.4,262.3,520.4,262.3z M338.1,251.8v7c3.2,0,6.4,0,9.5,0c1.3,0,2.1,0.3,2.2,1.7c0,1.5-0.9,1.7-2.2,1.7
		c-3.1,0-6.2,0-9.5,0v7.8c3.6,0,7.1,0,10.7,0c0.7,0,1.9,0.4,2,0.9c0.4,1.2,0.4,2.5-1.6,2.5c-4.4-0.1-8.8,0-13.1,0
		c-1.2,0-1.7-0.4-1.7-1.6c0-7.2,0-14.3,0-21.5c0-1.3,0.6-1.8,1.8-1.8c4.3,0,8.6,0,12.9,0c1.2,0,1.9,0.4,1.9,1.7
		c0,1.4-0.7,1.7-1.9,1.7C345.5,251.7,341.9,251.8,338.1,251.8 M264.7,254l-2.9,7.7h5.9L264.7,254 M256.6,273.2
		c-2.8,0.1-2.6-1.2-2.2-2.4c1.7-4.7,3.6-9.4,5.4-14.1c0.9-2.2,1.8-4.4,2.6-6.7c0.4-1.3,1.2-1.9,2.4-1.5c0.8,0.2,1.9,0.8,2.1,1.5
		c2.7,6.8,5.3,13.7,7.9,20.6c0.3,0.9,1.1,2.2-0.6,2.6c-1.2,0.3-2.6,0.4-2.8-1.4c-0.1-0.4-0.3-0.7-0.5-1.1c-0.7-1.8-1.1-4.6-2.3-5.1
		c-2.2-0.9-4.9-0.4-7.4-0.3c-0.5,0-1.1,0.7-1.3,1.2c-0.7,1.7-1.2,3.5-2,5.2C257.6,272.5,256.9,273,256.6,273.2 M134,253.9l-2.9,7.9
		h5.8L134,253.9 M138.2,265.4c-0.5,0-0.8-0.1-1.2-0.1c-2.3,0-5.1-0.7-6.9,0.3c-1.5,0.9-1.9,3.8-2.8,5.8c-0.3,0.6-0.5,1.4-0.9,1.5
		c-0.7,0.3-1.7,0.3-2.5,0.1c-0.3-0.1-0.4-1.4-0.2-2c2.6-7,5.3-14,8-21c0.3-0.7,1.5-1.5,2.2-1.5c0.8,0.1,2.1,0.8,2.4,1.6
		c2.8,7,5.4,14,8,21c0.2,0.6-0.3,1.4-0.5,2.1c-1-0.4-2.5-0.5-2.9-1.2C139.8,270,139.1,267.6,138.2,265.4 M431.9,253.9l-2.9,7.8h5.9
		L431.9,253.9 M427.6,265.3c-0.8,2-1.7,3.9-2.3,5.9c-0.7,2.3-2.1,2.4-4.3,1.6c0.8-2.2,1.5-4.3,2.3-6.3c2.1-5.4,4.1-10.9,6.3-16.2
		c0.3-0.8,1.3-1.5,2.2-1.8c1.3-0.4,2,0.3,2.5,1.7c2.5,6.8,5.1,13.6,7.6,20.5c0.3,0.7,0.1,2.3-0.3,2.5c-1.3,0.5-2.6,0.3-3.1-1.4
		c-0.5-1.6-1.3-3.2-1.8-4.8c-0.3-1.1-0.8-1.6-2.1-1.6C432.4,265.4,430,265.3,427.6,265.3 M78.5,261.8c-1-2.5-1.9-4.9-3-7.9l-3,7.9
		C72.5,261.8,78.5,261.8,78.5,261.8z M71.1,265.3c-0.8,2.2-1.5,4.2-2.3,6.2c-0.5,1.4-1.4,2.1-2.9,1.7c-1.7-0.6-0.9-2-0.5-2.9
		c2.4-6.5,4.9-13,7.4-19.5c0.5-1.2,0.8-2.4,2.7-2.4c1.8,0,2.1,1.2,2.5,2.5c2.4,6.5,4.9,12.9,7.3,19.4c0.3,0.9,0.3,2.7-0.2,2.9
		c-1.4,0.7-2.6,0.1-3.1-1.6c-0.6-2.1-1.1-4.8-2.6-5.8c-1.5-1-4.2-0.3-6.4-0.3C72.5,265.3,72,265.3,71.1,265.3z M483.4,260.9
		c0.1-4.2,1.1-7.9,4.6-10.8c4.5-3.7,13.7-2.4,15.3,3.1c0.3,1,0.3,2.8-0.2,3.2c-1.5,0.9-2.4,0-3-1.7c-1.6-4.2-7.5-4.6-10.8-0.9
		c-3.2,3.5-2.8,11.6,0.7,14.8c3.4,3.2,8.5,2.2,10.3-2.1c0.6-1.4,1.5-1.9,2.7-1.3c0.5,0.3,0.8,1.7,0.6,2.4c-0.8,3.1-3,4.9-6,5.6
		C489,275.3,483.3,270.2,483.4,260.9 M101.4,269.9c3.6,0,6.9,0,10.1,0c1.2,0,2.1,0.1,2.1,1.7c0,1.6-0.9,1.7-2.1,1.7
		c-3.9,0-7.8-0.1-11.7,0c-1.4,0-2-0.6-2-1.9c0-7.1,0-14.2,0-21.2c0-1.4,0.8-1.8,2.1-1.8c1.5,0,1.5,1,1.5,2.1c0,5.5,0,11,0,16.6
		V269.9z"/>
	<path class="st0" d="M302.2,211.5l-9-15.9c-1.9,3.2-3.6,6.2-5.3,9.1c-1.5,2.7-3,5.4-4.6,8.1c-0.3,0.5-0.5,1.2-0.9,1.3
		c-0.9,0.3-1.8,0.4-2.8,0.5c-0.1-0.8-0.4-1.7-0.1-2.3c3.8-6.9,7.6-13.7,11.6-20.5c0.7-1.2,2.2-1.6,3.4-0.9c0.4,0.2,0.7,0.6,0.9,0.9
		c3.9,6.7,7.7,13.5,11.5,20.2c1.1,2,0.6,2.7-1.7,2.7c-5.1,0-10.3,0-15.5-0.1c-0.9,0-2.5-0.7-2.5-1.1c0-1.6,1-2.4,2.8-2.3
		C294,211.6,297.9,211.5,302.2,211.5 M293,223.3c-4,0-7.9,0-11.9,0c-1.3,0-2.3-0.2-2.4-1.8c-0.1-2,1.3-1.6,2.4-1.6c8,0,16,0,24.1,0
		c1.2,0,2.4,0,2.4,1.7c0,1.7-1.1,1.7-2.4,1.7C301.1,223.2,297,223.3,293,223.3"/>
</g>
</svg>
