<?xml version="1.0" encoding="utf-8"?>
<!-- Generator: Adobe Illustrator 19.0.0, SVG Export Plug-In . SVG Version: 6.00 Build 0)  -->
<svg version="1.1" id="layer" xmlns="http://www.w3.org/2000/svg" xmlns:xlink="http://www.w3.org/1999/xlink" x="0px" y="0px"
	 viewBox="-153 -46 652 652" style="enable-background:new -153 -46 652 652;" xml:space="preserve">
<style type="text/css">
	.st0{fill:#F7F5F4;}
	.st1{fill:#E52823;}
	.st2{fill:#1C2156;}
	.st3{fill:#1CA6DF;}
	.st4{fill:#ABCAE9;}
</style>
<polygon class="st0" points="-131.8,289.1 -99.6,273 -131.8,257 "/>
<polygon class="st1" points="-131.8,289.1 -131.8,321.2 -67.5,289.1 -99.6,273 "/>
<polygon class="st2" points="-131.8,321.2 -35.3,321.2 -35.3,305.2 -67.5,289.1 "/>
<polygon class="st3" points="-131.8,224.8 -131.8,257 -99.6,273 -67.5,257 "/>
<polygon class="st2" points="-131.8,224.8 -67.5,257 -35.3,240.9 -35.3,224.8 "/>
<polygon class="st4" points="-67.5,257 -99.6,273 -67.5,289.1 -35.3,305.2 -35.3,273 -35.3,240.9 "/>
<path class="st2" d="M425.6,283.1c-2.7,0-5.5,0.2-8.2,0.5c-5,0.8-7.7,3.3-7.7,7.7c0,3.8,2.5,5.9,6.2,5.9c5.2,0,9.7-3.5,9.7-10.2
	V283.1z M412.4,306c-9.2,0-15.1-5.7-15.1-14.6c0-8,5.2-12.9,13.6-14.9c4.9-0.8,9.7-1.3,14.6-1.2c0-6.9-2.8-9.2-9.9-9.2
	c-4.5,0.2-9,1.2-13.2,3.2v-9.5c4.7-2,9.7-2.8,14.9-2.8c14.9,0,20.4,6.7,20.4,19.6v18.9h5.9v9.5h-16.7l-1-4.9h-0.2
	C422.2,304,417.4,306.2,412.4,306 M262.1,283.1c-2.7,0-5.5,0.2-8.2,0.5c-5,0.8-7.7,3.3-7.7,7.7c0,3.8,2.5,5.9,6.2,5.9
	c5.2,0,9.7-3.5,9.7-10.2V283.1z M248.8,306c-9.2,0-15.1-5.7-15.1-14.6c0-8,5.2-12.9,13.6-14.9c4.9-0.8,9.7-1.3,14.6-1.2
	c0-6.9-2.8-9.2-9.9-9.2c-4.5,0.2-9,1.2-13.2,3.2v-9.5c4.7-2,9.7-2.8,14.7-2.8c14.9,0,20.4,6.7,20.4,19.6v18.9h5.9v9.5h-16.7
	l-0.8-4.9h-0.2C258.9,304,254,306.2,248.8,306 M77.1,283.1c-2.7,0-5.5,0.2-8.2,0.5c-5,0.8-7.7,3.3-7.7,7.7c0,3.8,2.5,5.9,6.2,5.9
	c5.2,0,9.7-3.5,9.7-10.2V283.1z M63.9,306c-9.2,0-15.1-5.7-15.1-14.6c0-8,5.2-12.9,13.7-14.9c4.9-0.8,9.7-1.3,14.6-1.2
	c0-6.9-2.8-9.2-9.9-9.2c-4.5,0.2-9,1.2-13.1,3.2v-9.5c4.7-2,9.7-2.8,14.7-2.8c14.9,0,20.4,6.7,20.4,19.6v18.9h5.9v9.5H78.5l-1-4.9
	h-0.2C73.9,304,69.1,306.2,63.9,306 M321.1,281.4c0-8.7-4.4-14.6-11-14.6s-10.9,5.9-10.9,14.6c0,8.7,4.2,14.7,10.7,14.7
	C316.6,296,321.1,290.1,321.1,281.4 M333.7,281.4c0,14.6-8.4,24.8-20.4,24.8c-7.2,0-11.5-2.8-13.6-5.9h-0.2v19.7l-12.2,5v-57.7h-6.2
	v-9.5h17.4l0.8,6.2h0.2c1.5-2.5,5.2-7,13.7-7C325.8,257,333.7,266.5,333.7,281.4 M156.1,257c-5.9-0.3-11.5,2.3-15.2,7h-0.2l-0.8-6.2
	h-18.1v9.5h6.7V305h12.2v-21.8c0-11.7,6.2-15.9,11.5-15.9c5,0,7.4,3.2,7.4,10.4V305h12.2v-30.1C171.8,263,166.3,257,156.1,257
	 M211.7,294.8c-12.6,0-19.9-8.4-19.9-21.9c0-13.2,7.4-22.1,18.7-22.1c2.8,0,5.5,0.3,8.2,1v13.4l10.9-4.5v-15.7
	c-5.5-3.2-11.9-4.9-18.4-4.7c-19.2,0-32.3,11.9-32.3,33c0,20.1,11.7,33,32.3,33c6.5,0,13.1-1.7,18.7-4.7l-2.7-10.2
	C222.6,293.6,217.2,294.8,211.7,294.8 M462.2,295.5v-58.2l-12.2,5V305h18.2v-9.5H462.2z M32.3,285.9c0-6-4.5-9.4-12.1-9.4H8.5v18.9
	h11.9C28.8,295.3,32.3,291.4,32.3,285.9 M8.5,267h9.9c7,0,10.4-3.3,10.4-8c0-5.5-3.3-8.2-9.7-8.2H8.5C8.5,250.8,8.5,267,8.5,267z
	 M45.3,286.6c0,12.2-9.7,18.4-24.1,18.4H-3.9v-54.4h-7.9v-9.5H19c8.2,0,12.6,1.2,15.7,3.2c4.4,2.7,6.9,7.5,6.7,12.6
	c0,6.7-4.2,11.9-10.9,13.6v0.2C39.6,272.4,45.2,278.4,45.3,286.6 M337,267.3h6.7V305h12.2v-47.2H337V267.3z M343.7,249.6h12.2V238
	h-12.2V249.6z M96.2,267.3h6.7V305h12.2v-47.2H96.2V267.3z M102.9,249.6h12.2V238h-12.2V249.6z M381.6,257.8h12.4v9.5h-12.4v20.8
	c0,5.2,1.2,8.2,6.2,8.2c1.8-0.2,3.7-0.3,5.5-0.8v9.2c-3.2,0.8-6.4,1.2-9.5,1.3c-9.5,0-14.4-4.7-14.4-14.7v-23.9h-6.7v-9.5h6.7v-8
	l12.2-5L381.6,257.8z"/>
</svg>
