<?xml version="1.0" encoding="utf-8"?>
<!-- Generator: Adobe Illustrator 26.3.1, SVG Export Plug-In . SVG Version: 6.00 Build 0)  -->
<svg version="1.1" id="katman_1" xmlns="http://www.w3.org/2000/svg" xmlns:xlink="http://www.w3.org/1999/xlink" x="0px" y="0px"
	 viewBox="0 0 300 100" style="enable-background:new 0 0 300 100;" xml:space="preserve">
<style type="text/css">
	.st0{fill:#292E35;}
	.st1{fill:#4178B7;}
	.st2{opacity:0.9;fill:#4178B7;enable-background:new    ;}
	.st3{opacity:0.8;fill:#4178B7;enable-background:new    ;}
	.st4{opacity:0.7;fill:#4178B7;enable-background:new    ;}
	.st5{opacity:0.6;fill:#4178B7;enable-background:new    ;}
	.st6{opacity:0.5;fill:#4178B7;enable-background:new    ;}
	.st7{opacity:0.4;fill:#4178B7;enable-background:new    ;}
	.st8{fill:none;}
</style>
<path class="st0" d="M128,40.9h3.3c0.8,0,1.4,0.2,1.8,0.6c0.2,0.2,0.4,0.6,0.4,1c0,0.8-0.4,1.2-1,1.4c0.8,0.2,1.2,0.7,1.2,1.5
	c0,1.1-0.9,1.8-2.4,1.8H128V40.9z M130.8,43.4c0.5,0,0.8-0.2,0.8-0.5c0-0.4-0.3-0.5-0.8-0.5h-1.1v1.1L130.8,43.4L130.8,43.4z
	 M131,45.8c0.5,0,0.8-0.2,0.8-0.6c0-0.4-0.3-0.6-0.9-0.6h-1.4v1.2H131z M137.8,40.9h1.8v4.9h3.1v1.5h-4.9V40.9z M146.1,44.1
	c0-1.8,1.5-3.4,3.4-3.4s3.4,1.5,3.4,3.3c0,1.8-1.5,3.3-3.4,3.3C147.6,47.4,146.1,45.9,146.1,44.1z M151.2,44.1
	c0-0.9-0.7-1.8-1.7-1.8c-0.9,0-1.6,0.8-1.6,1.7s0.7,1.7,1.7,1.7C150.5,45.8,151.2,45,151.2,44.1z M157,44.1c0-1.9,1.4-3.4,3.4-3.4
	c1.3,0,2.1,0.5,2.7,1.4l-1.4,1c-0.4-0.5-0.8-0.8-1.4-0.8c-0.9,0-1.5,0.8-1.5,1.7c0,0.9,0.7,1.7,1.5,1.7c0.7,0,1.1-0.3,1.4-0.8
	l1.4,0.9c-0.6,0.8-1.4,1.4-2.8,1.4C158.5,47.4,157,46,157,44.1z M167.2,40.9h1.8v2.6l2.2-2.6h2.1l-2.4,2.8l2.5,3.7h-2.1l-1.6-2.4
	l-0.7,0.7v1.7h-1.8L167.2,40.9L167.2,40.9z M176.5,44.1c0-1.9,1.4-3.4,3.4-3.4c1.3,0,2.1,0.5,2.7,1.4l-1.4,1
	c-0.4-0.5-0.8-0.8-1.4-0.8c-0.9,0-1.5,0.8-1.5,1.7c0,0.9,0.7,1.7,1.5,1.7c0.7,0,1.1-0.3,1.4-0.8l1.4,0.9c-0.6,0.8-1.4,1.4-2.8,1.4
	C177.9,47.4,176.5,46,176.5,44.1z M186.6,40.9h1.8v2.4h2.2v-2.4h1.8v6.4h-1.8v-2.4h-2.2v2.4h-1.8V40.9z M199.1,40.8h1.7l2.7,6.4
	h-1.9l-0.5-1.1h-2.5l-0.5,1.1h-1.9L199.1,40.8z M200.6,44.7l-0.7-1.8l-0.7,1.8H200.6z M207.4,40.9h1.8v6.4h-1.8V40.9z M213.7,40.9
	h1.7l2.7,3.4v-3.4h1.8v6.4h-1.5l-2.7-3.5v3.5h-1.8L213.7,40.9L213.7,40.9z M128,56.2c0-1.8,1.4-3.3,3.3-3.3c1.2,0,1.8,0.4,2.5,1
	l-0.5,0.5c-0.6-0.5-1.2-0.9-2-0.9c-1.4,0-2.5,1.1-2.5,2.6s1.1,2.7,2.5,2.7c0.9,0,1.5-0.4,2.1-0.9l0.5,0.5c-0.7,0.7-1.4,1.1-2.5,1.1
	C129.4,59.5,128,58,128,56.2z M140.7,52.9h0.7l2.9,6.4h-0.8l-0.8-1.7h-3.5l-0.8,1.7h-0.8L140.7,52.9L140.7,52.9z M142.5,57l-1.5-3.3
	l-1.5,3.3H142.5z M148.8,53h2.4c1.4,0,2.4,0.8,2.4,2c0,1.4-1.1,2.1-2.5,2.1h-1.5v2.2h-0.7L148.8,53L148.8,53z M151.1,56.5
	c1.1,0,1.8-0.6,1.8-1.4c0-0.9-0.7-1.4-1.7-1.4h-1.6v2.8L151.1,56.5L151.1,56.5z M158.3,53h0.7v6.4h-0.7V53z M165.9,53.7h-2.1V53h5
	v0.7h-2.1v5.7h-0.7L165.9,53.7L165.9,53.7z M175,52.9h0.7l2.9,6.4h-0.8l-0.8-1.7h-3.5l-0.8,1.7H172L175,52.9z M176.7,57l-1.5-3.3
	l-1.5,3.3H176.7z M183.1,53h0.7v5.7h3.6v0.7h-4.3V53z"/>
<g>
	<circle class="st1" cx="103.3" cy="53.9" r="1.4"/>
	<circle class="st2" cx="105.7" cy="56.7" r="1.3"/>
	<circle class="st3" cx="107.7" cy="59.4" r="1.2"/>
	<circle class="st4" cx="109.3" cy="62.1" r="0.9"/>
	<circle class="st5" cx="110.5" cy="64.7" r="0.8"/>
	<circle class="st6" cx="111.3" cy="67.2" r="0.7"/>
	<circle class="st7" cx="111.8" cy="69.6" r="0.5"/>
	<circle class="st1" cx="103.7" cy="49.1" r="1.4"/>
	<circle class="st2" cx="107.1" cy="47.7" r="1.3"/>
	<circle class="st3" cx="110.3" cy="46.6" r="1.2"/>
	<circle class="st4" cx="113.3" cy="46" r="0.9"/>
	<circle class="st5" cx="116.1" cy="45.6" r="0.8"/>
	<circle class="st6" cx="118.8" cy="45.6" r="0.7"/>
	<circle class="st7" cx="121.2" cy="45.8" r="0.5"/>
	<circle class="st1" cx="99.2" cy="47.3" r="1.4"/>
	<circle class="st2" cx="99" cy="43.5" r="1.3"/>
	<circle class="st3" cx="98.9" cy="40.2" r="1.2"/>
	<circle class="st4" cx="99.2" cy="37.1" r="0.9"/>
	<circle class="st5" cx="99.7" cy="34.4" r="0.8"/>
	<circle class="st6" cx="100.5" cy="31.8" r="0.7"/>
	<circle class="st7" cx="101.5" cy="29.6" r="0.5"/>
	<circle class="st1" cx="96.1" cy="51" r="1.4"/>
	<circle class="st2" cx="92.5" cy="50" r="1.3"/>
	<circle class="st3" cx="89.3" cy="49" r="1.2"/>
	<circle class="st4" cx="86.5" cy="47.8" r="0.9"/>
	<circle class="st5" cx="83.9" cy="46.4" r="0.8"/>
	<circle class="st6" cx="81.8" cy="44.9" r="0.7"/>
	<circle class="st7" cx="80" cy="43.3" r="0.5"/>
	<circle class="st1" cx="98.6" cy="55.1" r="1.4"/>
	<circle class="st2" cx="96.7" cy="58.2" r="1.3"/>
	<circle class="st3" cx="94.7" cy="61" r="1.2"/>
	<circle class="st4" cx="92.6" cy="63.2" r="0.9"/>
	<circle class="st5" cx="90.6" cy="65.2" r="0.8"/>
	<circle class="st6" cx="88.5" cy="66.8" r="0.7"/>
	<circle class="st7" cx="86.4" cy="68" r="0.5"/>
</g>
<path class="st8" d="M64.4,15.1h170.3V85H64.4V15.1z"/>
</svg>
