<?xml version="1.0" encoding="UTF-8"?>
<svg id="katman_1" data-name="katman 1" xmlns="http://www.w3.org/2000/svg" viewBox="0 0 300 100">
  <defs>
    <style>
      .cls-1 {
        fill: #f8fafc;
      }

      .cls-2 {
        fill: #7c92ac;
      }

      .cls-3 {
        fill: #2364af;
      }

      .cls-4 {
        fill: #2162af;
      }

      .cls-5 {
        fill: #2163af;
      }

      .cls-6 {
        fill: #2263af;
      }

      .cls-7 {
        fill: #5c7ba0;
      }

      .cls-8 {
        fill: #5a7a9f;
      }

      .cls-9 {
        fill: #567ba6;
      }

      .cls-10 {
        fill: #5d7ca0;
      }

      .cls-11 {
        fill: #5e7da1;
      }

      .cls-12 {
        fill: #2666b0;
      }
    </style>
  </defs>
  <path id="Path_401" data-name="Path 401" class="cls-6" d="M66.33,40.9c.35,0,.56-.26,.81-.42,3.68-2.42,7.36-4.84,11.04-7.26,.2-.13,.38-.43,.65-.26,.2,.13,.09,.42,.09,.64,0,3.49,0,6.97,.02,10.46,.03,.45-.2,.89-.61,1.1-1.7,1.09-3.36,2.23-5.07,3.31-.43,.22-.68,.68-.64,1.16,.03,3.52,0,7.03,.03,10.54,.05,.48-.19,.94-.62,1.17-1.92,1.22-3.81,2.49-5.7,3.74v-24.18Z"/>
  <path id="Path_402" data-name="Path 402" class="cls-10" d="M114.59,66.79c-.33-.34-.82-.35-1.21-.56-3.01-1.65-3.62-6.47-1.15-9.13,1.98-2,5.21-2.02,7.21-.05l.05,.05s.08,.08,.11,.13c.38,.52,1.06,1.12,.82,1.66s-1.17,.57-1.78,.84c-.34,.15-.36-.16-.45-.35-.42-1.24-1.74-1.94-3.01-1.6-1.19,.33-2.01,1.42-2.01,2.65-.08,.68-.07,1.36,.05,2.03,.2,1.13,1.1,2,2.23,2.16,1.17,.2,2.31-.45,2.73-1.56,.17-.38,.35-.47,.7-.31,.18,.08,.37,.16,.55,.23,1.28,.5,1.26,.49,.57,1.65-.72,1.06-1.79,1.82-3.03,2.16h-2.39Z"/>
  <path id="Path_403" data-name="Path 403" class="cls-5" d="M143.89,40.33v3.61c0,1.9-.01,3.8,0,5.7,0,.48-.14,.66-.63,.63-.65-.04-1.31-.04-1.96,0-.47,.03-.57-.17-.57-.6,.01-4.71,.01-9.41,0-14.12,0-.44,.13-.64,.58-.58,.03,0,.06,0,.09,0q2.85-.08,4.44,2.29c1.56,2.33,3.1,4.67,4.66,7.01,.13,.28,.35,.51,.63,.65v-4.35c0-1.64,.02-3.29-.01-4.93,0-.52,.16-.71,.69-.67,.79,.06,1.81-.32,2.31,.14s.16,1.5,.16,2.28c.02,4.03,0,8.06,.02,12.08,0,.63-.18,.72-.79,.82-2.16,.36-3.4-.55-4.44-2.39-1.42-2.51-3.15-4.85-4.74-7.26-.08-.13-.11-.33-.43-.32Z"/>
  <path id="Path_404" data-name="Path 404" class="cls-6" d="M170.03,42c2.11,1.18,2.43,2.92,1.96,5.03-.53,1.9-2.26,3.23-4.23,3.23-2.36,.06-4.73,.02-7.09,.05-.45,0-.58-.14-.58-.58,.01-4.71,.02-9.41,0-14.12,0-.33-.02-.61,.46-.6,2.42,.06,4.85-.13,7.26,.1,2.09,.26,3.67,2.01,3.73,4.12-.03,1.11-.59,2.15-1.52,2.77Zm-4.74,5.33c.54,0,1.08,.03,1.62,0,1.02-.04,1.81-.89,1.78-1.91,0-1.01-.81-1.82-1.81-1.83,0,0-.02,0-.03,0-.65-.02-1.31,0-1.96,0q-1.67,0-1.67,1.7,0,2.05,2.08,2.04h0Zm-.01-9.32q-2.07-.02-2.07,2.05c0,.23,.01,.45,0,.68-.02,.32,.13,.46,.45,.46,1.05,0,2.11,.03,3.16-.02,.83-.1,1.45-.8,1.44-1.64-.03-.8-.65-1.45-1.45-1.52-.51-.04-1.02-.01-1.54-.01h0Z"/>
  <path id="Path_405" data-name="Path 405" class="cls-9" d="M81.73,32.87c2.68,.35,5.31,.97,7.97,1.47,4,.75,7.99,1.52,11.98,2.32,1.47,.29,1.21,.02,1.22,1.48,.02,3.35,.01,6.69,0,10.04,0,.24,.3,.86-.46,.62-.06-.19-.18-.36-.35-.46-5.73-4.3-11.47-8.6-17.18-12.92-1.14-.73-2.21-1.58-3.17-2.53Z"/>
  <path id="Path_406" data-name="Path 406" class="cls-2" d="M75.57,49.08c1.93,.18,3.8,.67,5.7,1.02,4.86,.91,9.71,1.88,14.57,2.8,.57,.11,.79,.28,.79,.91-.04,3.52-.02,7.03-.01,10.55,0,.49,0,.9-.67,.56,0-.33-.24-.49-.47-.66-1.58-1.19-3.15-2.39-4.73-3.57-4.07-3.05-8.16-6.07-12.2-9.14-1.1-.68-2.09-1.51-2.97-2.46Z"/>
  <path id="Path_407" data-name="Path 407" class="cls-8" d="M75.57,49.08c.87,.95,1.87,1.78,2.96,2.46,4.04,3.08,8.14,6.1,12.2,9.14,1.58,1.18,3.16,2.38,4.73,3.57,.23,.17,.47,.33,.47,.66-3.01-.57-6.02-1.13-9.03-1.71-3.74-.72-7.47-1.45-11.2-2.16-.42-.08-.64-.17-.64-.67,.03-3.76,.03-7.53,.04-11.29l.2-.07,.27,.06Z"/>
  <path id="Path_408" data-name="Path 408" class="cls-4" d="M81.73,32.87c.97,.95,2.03,1.8,3.17,2.53,5.71,4.33,11.45,8.62,17.18,12.92,.17,.11,.3,.27,.35,.46-3.82-.73-7.65-1.45-11.47-2.18-2.98-.57-5.97-1.17-8.96-1.73-.42-.08-.63-.18-.63-.67,.03-3.77,.03-7.54,.04-11.31l.23-.06s.07,0,.09,.03Z"/>
  <path id="Path_409" data-name="Path 409" class="cls-3" d="M200.35,50.65c-2.36,.07-4.64-.85-6.3-2.52-.42-.4-.4-.62,.07-.95,.65-.45,1.2-1.18,1.91-1.39,.75-.22,1.21,.74,1.87,1.08,1.17,.6,2.5,.83,3.81,.65,.81-.09,1.47-.71,1.61-1.52,.02-.87-.63-1.6-1.49-1.68-1.05-.24-2.11-.46-3.16-.7-1.83-.29-3.26-1.75-3.5-3.59-.26-1.95,.77-3.85,2.55-4.69,3.06-1.3,6.59-.75,9.1,1.42,.3,.29,.35,.48-.02,.71-.07,.05-.13,.11-.18,.18-.98,1.11-1.91,1.9-3.44,.6-.91-.57-2.02-.72-3.05-.42-.74,.05-1.33,.63-1.4,1.37-.02,.72,.53,1.32,1.24,1.38,1.11,.24,2.22,.5,3.31,.82,2.12,.41,3.64,2.3,3.59,4.47-.06,2.18-1.65,4.03-3.8,4.42-.88,.24-1.8,.36-2.71,.36Z"/>
  <path id="Path_410" data-name="Path 410" class="cls-6" d="M224.6,42.74c0,2.3-.01,4.6,.01,6.89,0,.51-.12,.72-.66,.69-.63-.04-1.25-.04-1.88,0-.52,.03-.69-.14-.68-.67,.03-1.67-.02-3.35,.03-5.02,.02-.65-.19-.81-.82-.8-1.54,.04-3.08,.04-4.62,0-.58-.01-.73,.19-.72,.73,.03,1.64-.02,3.29,.02,4.94,.01,.6-.11,.9-.79,.82-.76-.09-1.75,.31-2.22-.15s-.15-1.45-.15-2.21c-.01-4.03,0-8.06-.02-12.09,0-.63,.14-.86,.8-.8,.6,.05,1.2,.05,1.79,0,.45-.02,.59,.14,.58,.58-.02,1.47,.03,2.95-.02,4.42-.02,.65,.19,.82,.82,.8,1.57-.04,3.14-.03,4.7,0,.49,0,.64-.15,.63-.63-.03-1.5,.01-3.01-.02-4.51-.01-.53,.17-.7,.68-.67,.63,.04,1.25,.04,1.88,0,.55-.04,.67,.18,.66,.68-.02,2.33-.01,4.65-.01,6.98Z"/>
  <path id="Path_411" data-name="Path 411" class="cls-12" d="M124.89,42.65c0-2.3,.02-4.59-.01-6.89,0-.6,.18-.77,.77-.76,2.85,.03,5.7,.04,8.54,0,.67,0,.83,.22,.78,.83-.06,.7,.22,1.63-.14,2.05-.42,.49-1.39,.15-2.11,.17-1.34,.03-2.68,.03-4.02,0-.49,0-.66,.15-.62,.63,.07,.78-.32,1.79,.15,2.3,.45,.48,1.46,.13,2.21,.14,1.08,.03,2.16,.03,3.25,0,.47-.01,.63,.13,.65,.62,.09,2.24,.1,2.24-2.16,2.24-1.17,0-2.34,.02-3.5,0-.49-.01-.64,.15-.62,.63,.04,.68,.04,1.36,0,2.04-.03,.55,.2,.66,.7,.65,2.03-.02,4.05,.01,6.07-.02,.59,0,.77,.16,.77,.76,0,2.29,.02,2.29-2.3,2.29s-4.79,0-7.18,0c-1.45,0-1.23,.2-1.24-1.28-.01-2.14,0-4.27,0-6.39Z"/>
  <path id="Path_412" data-name="Path 412" class="cls-6" d="M189.38,40.35c0,1.31-.06,2.61,.01,3.91,.05,3.38-2.58,6.18-5.95,6.35-3.45,.25-6.44-2.33-6.7-5.78v-.08c-.15-3.05-.03-6.12-.04-9.19,0-.39,.15-.48,.51-.47,.68,.02,1.37,.04,2.05,0,.55-.04,.66,.18,.66,.68-.01,2.84,0,5.67,.01,8.51-.04,1.29,.74,2.47,1.96,2.92,1.16,.52,2.51,.25,3.39-.66,.72-.71,1.08-1.7,.99-2.71,.01-2.67,.02-5.33-.01-8,0-.6,.16-.81,.76-.74,.76,.08,1.75-.31,2.22,.15s.12,1.45,.14,2.21c.02,.96,0,1.93,0,2.89Z"/>
  <path id="Path_413" data-name="Path 413" class="cls-12" d="M110.67,42.62c0-2.3,.02-4.6-.01-6.89,0-.56,.15-.73,.72-.73,2.91,.03,5.81,.03,8.72,0,.6,0,.73,.22,.69,.74-.06,.73,.29,1.67-.14,2.14s-1.4,.14-2.12,.16c-1.34,.03-2.68,.03-4.02,0-.48,0-.68,.13-.64,.62,.07,.79-.32,1.78,.15,2.3,.45,.48,1.45,.13,2.21,.15,1.05,.03,2.11,.04,3.16,0,.58-.02,.71,.19,.71,.73,.01,2.16,.03,2.16-2.16,2.16-1.14,0-2.28,.03-3.42,0-.53-.02-.68,.16-.67,.68,.03,1.64,0,3.29,.02,4.93,0,.55-.15,.76-.72,.72-.79-.06-1.82,.24-2.32-.15-.53-.42-.15-1.49-.16-2.27-.03-1.76,0-3.52,0-5.28Z"/>
  <path id="Path_414" data-name="Path 414" class="cls-11" d="M136.32,55.86c.2,.01,.4,.01,.6,0,.6-.08,.9,.13,1.09,.74,.99,3.07,2.01,6.13,3.08,9.18,.26,.75,.04,.89-.64,.81-.14-.02-.29-.02-.43,0-.56,.22-1.19-.06-1.41-.62-.06-.15-.08-.32-.07-.48-.06-.67-.45-.86-1.1-.82-.83,.05-1.65,.05-2.48,0-.54-.03-.75,.19-.89,.67-.12,.42-.08,1.06-.52,1.18-.64,.13-1.3,.14-1.95,.04-.49-.06-.17-.45-.1-.67,.61-1.86,1.23-3.71,1.85-5.57,.34-1.02,.68-2.04,1.02-3.07q.46-1.41,1.95-1.41Zm.09,2.65l-.19-.02c-.24,.74-.47,1.49-.72,2.23-.72,2.18-.66,2.24,1.73,2.03,.42-.04,.45-.16,.34-.52-.4-1.23-.77-2.48-1.16-3.72h0Z"/>
  <path id="Path_415" data-name="Path 415" class="cls-11" d="M204.95,66.55c.25-.79,.47-1.54,.72-2.29,.85-2.58,1.73-5.15,2.56-7.74,.09-.45,.52-.76,.97-.68,2.2,0,2.2-.01,2.88,2.04,.88,2.63,1.73,5.27,2.63,7.89,.22,.63,.17,.92-.57,.82-.11-.02-.23-.02-.34,0-.63,.24-1.33-.07-1.57-.7-.06-.16-.09-.33-.08-.51-.07-.56-.39-.73-.93-.71-.91,.04-1.82,.02-2.73,0-.31-.05-.62,.14-.69,.45-.55,1.48-.57,1.47-2.16,1.45-.2,0-.39-.02-.68-.04Zm5-8.36c-.48,1.52-.9,2.86-1.33,4.2-.12,.39,.16,.34,.38,.35,.6,0,1.19,0,1.79,0,.45,.01,.53-.17,.4-.57-.4-1.26-.79-2.52-1.24-3.99h0Z"/>
  <path id="Path_416" data-name="Path 416" class="cls-12" d="M233.51,42.74c0,2.3-.02,4.59,.01,6.88,0,.57-.17,.74-.72,.7-.79-.07-1.81,.32-2.31-.15s-.15-1.51-.16-2.29c-.02-3.97,0-7.93-.02-11.9,0-.68,.12-1.01,.87-.91s1.76-.32,2.2,.18c.37,.43,.13,1.4,.13,2.13,0,1.79,0,3.57,0,5.36Z"/>
  <path id="Path_417" data-name="Path 417" class="cls-7" d="M152.93,61.13c0-1.53,.02-3.06-.01-4.59-.01-.56,.17-.74,.73-.72,1.25,.04,2.5,0,3.76,.01,1.89-.06,3.48,1.42,3.54,3.31,0,.1,0,.21,0,.31-.12,1.98-1.81,3.48-3.79,3.37-.03,0-.06,0-.09,0q-1.92-.13-1.92,1.8v.34c0,1.65,0,1.63-1.67,1.55-.47-.02-.57-.2-.56-.62,.02-1.59,0-3.17,0-4.76Zm3.48-.36v.04c.42,0,.85-.05,1.27-.13,.61-.14,1.04-.68,1.04-1.3,.08-.59-.25-1.16-.8-1.38-.82-.34-1.74-.37-2.58-.07-.46,.18-.12,1.09-.17,1.67-.02,.22,0,.45,0,.68-.03,.36,.12,.53,.49,.51,.26-.01,.52,0,.77,0h0Z"/>
  <path id="Path_418" data-name="Path 418" class="cls-7" d="M191.6,62.18c0,1.22-.03,2.44,.01,3.65,.01,.54-.12,.74-.7,.74-1.54,0-1.54,.03-1.54-1.51,0-2.12-.02-4.25,.01-6.37,0-.57-.11-.85-.74-.77-.31,.02-.63,.03-.94,0-1.44,0-1.64-.26-1.39-1.73,.06-.34,.24-.41,.52-.41h7.34c.37,0,.46,.18,.48,.52,.12,1.62,.13,1.62-1.49,1.62s-1.57,0-1.57,1.54v2.72Z"/>
  <path id="Path_419" data-name="Path 419" class="cls-11" d="M226.53,61.19c0-1.53,.02-3.06,0-4.6,0-.52,.09-.75,.7-.75,1.58,0,1.58-.03,1.58,1.56,0,2.1,.02,4.2-.01,6.3,0,.57,.18,.73,.73,.71,1.11-.04,2.23,.02,3.33-.02,.54-.02,.66,.17,.67,.68,0,1.5,.03,1.5-1.47,1.5s-3.08-.03-4.62,.01c-.69,.02-.95-.14-.92-.88,.06-1.51,.01-3.01,.01-4.51Z"/>
  <path id="Path_420" data-name="Path 420" class="cls-11" d="M174.85,61.17c0,1.56-.03,3.12,.01,4.67,.02,.6-.16,.77-.77,.77-1.47-.02-1.48,.01-1.48-1.49,0-2.83,.02-5.67-.01-8.5,0-.6,.18-.76,.77-.76,1.47,.02,1.47,0,1.47,1.48v3.83Z"/>
  <path id="Path_421" data-name="Path 421" class="cls-9" d="M81.64,32.84l-.23,.06c.03-.21,.13-.14,.23-.06Z"/>
  <path id="Path_422" data-name="Path 422" class="cls-2" d="M75.31,49.02l-.2,.07c0-.2,.1-.14,.2-.07Z"/>
  <path id="Path_423" data-name="Path 423" class="cls-1" d="M156.41,60.77c-.25,0-.51,0-.77,0-.37,.02-.52-.15-.49-.51,.02-.22-.02-.45,0-.68,.06-.58-.29-1.48,.17-1.67,.84-.3,1.76-.27,2.58,.07,.55,.23,.88,.79,.8,1.38,0,.62-.43,1.16-1.04,1.3-.42,.08-.84,.12-1.27,.13v-.03Z"/>
</svg>