<?xml version="1.0" encoding="utf-8"?>
<!-- Generator: Adobe Illustrator 19.2.1, SVG Export Plug-In . SVG Version: 6.00 Build 0)  -->
<svg version="1.1" id="layer" xmlns="http://www.w3.org/2000/svg" xmlns:xlink="http://www.w3.org/1999/xlink" x="0px" y="0px"
	 viewBox="0 0 652 652" style="enable-background:new 0 0 652 652;" xml:space="preserve">
<style type="text/css">
	.st0{fill:#CFA863;}
</style>
<path d="M652.8,391.4v-11.1h25.5v90.1h-12.6v-79H652.8z M571.2,391.4v-11.1h25.5v90.1h-12.6v-79H571.2z M440.1,470.5v-81.6h5.3
	l52.8,61v-61h10.1v81.6h-5.2l-53-61v61H440.1z M327.5,470.5v-81.6h64.1v9.4h-54v23.9h32.6v9.4h-32.6v29.5h57.3v9.4L327.5,470.5
	L327.5,470.5z M246.9,470.5h-6.3l-39.2-81.6h11l31.4,65.4l31.4-65.4h11.2L246.9,470.5z M91,470.5l39.9-81.6h8.4l40.4,81.6h-11
	l-11.1-21.9h-45l-10.8,21.9H91z M117.2,439h35.9l-18-36.1L117.2,439z M-35.3,470.5v-81.6h9.4L7,438.8L40,388.9h9.2v81.6h-10v-63.7
	L7,455l-32.3-48.2v63.7H-35.3z M542.8,570.2v-29.3h3.6v25.9h19.1v3.4H542.8z M456.1,570.2l14.3-29.3h3l14.5,29.3h-4l-4-7.9h-16.2
	l-3.9,7.9H456.1z M465.5,558.9h12.9l-6.5-13L465.5,558.9z M395.5,570.2v-25.9h-12.3v-3.4h28.3v3.4h-12.3v25.9H395.5z M327.5,570.2
	v-29.5h3.7v29.5H327.5z M245.1,570.2v-29.3h16.8c2.9,0,5.1,0.7,6.7,2.1c1.6,1.4,2.4,3.3,2.4,5.8c0,2.5-0.8,4.6-2.4,6.2
	c-1.6,1.6-3.7,2.4-6.3,2.4h-13.6v12.8H245.1z M248.8,554h12.9c1.8,0,3.2-0.4,4.2-1.2c1-0.8,1.4-2,1.4-3.6c0-1.5-0.5-2.7-1.4-3.6
	c-1-0.8-2.3-1.3-4-1.3h-13.1V554z M158.6,570.2l14.3-29.3h3l14.5,29.3h-4l-4-7.9h-16.2l-3.9,7.9H158.6z M168,558.9h12.9l-6.5-13
	L168,558.9z M103.1,560.9l2.9,2.2c-1.3,2.5-3.2,4.5-5.5,5.9c-2.3,1.4-5,2.1-7.9,2.1c-4.4,0-8-1.4-10.8-4.4c-2.9-2.9-4.3-6.6-4.3-11
	c0-4.5,1.4-8.1,4.3-11c2.9-2.9,6.5-4.4,10.8-4.4c2.7,0,5.2,0.6,7.4,1.8c2.2,1.2,4,2.9,5.4,5.1l-3.1,2.2c-0.9-1.8-2.2-3.1-4-4.1
	c-1.7-1-3.7-1.5-5.8-1.5c-3.3,0-6,1.1-8.1,3.4c-2.2,2.3-3.2,5.1-3.2,8.5c0,3.5,1.1,6.3,3.2,8.5c2.2,2.2,4.9,3.4,8.1,3.4
	c2.3,0,4.3-0.6,6.1-1.7C100.5,564.8,102,563.1,103.1,560.9z"/>
<path class="st0" d="M406.7,183.6c0,5.7,0,69.3-0.3,73.3c-0.5,16.7-1.1,17.6-18,17.6h-12c-2.1,0-3.7,0.3-3.7,1.9v7.9
	c0,1.9,0.8,2.5,2.1,2.5c1.3,0,38.1-1,40.5-1c2.3,0,37.9,1,40.3,1c1.8,0,2.4-0.6,2.4-2.5v-7.2c0-1.6-0.8-2.5-2.6-2.5h-9.4
	c-17,0-18-2.2-18.3-18.6c0-4.1-0.3-70.8-0.3-74.6v-13.2c0-40.6,0.8-90,0.8-92.8c0-2.5-0.3-4.4-1.8-4.4c-1.3,0-2.4,1-3.7,1.9
	l-54.1,37.5c-1.8,1.3-2.1,2.5-1.6,3.8l2.1,5.7c0.5,1.3,1.6,1.3,2.6,1l18.3-7.2c4.2-1.6,8.1-2.5,10.5-2.5c5,0,6,6.9,6.3,17.6
	c0.3,24.9,0,39.6,0,43.7L406.7,183.6L406.7,183.6z M236.3,183.6c0,5.7,0,69.3,0.3,73.3c0.5,16.7,1.1,17.6,18,17.6h12
	c2.1,0,3.7,0.3,3.7,1.9v7.9c0,1.9-0.8,2.5-2.1,2.5c-1.3,0-38.1-1-40.5-1c-2.3,0-37.9,1-40.3,1c-1.8,0-2.3-0.6-2.3-2.5v-7.2
	c0-1.6,0.8-2.5,2.6-2.5h9.4c17,0,18-2.2,18.3-18.6c0-4.1,0.3-70.8,0.3-74.6v-13.2c0-40.6-0.8-90-0.8-92.8c0-2.5,0.3-4.4,1.8-4.4
	c1.3,0,2.3,1,3.7,1.9l54.1,37.5c1.8,1.3,2.1,2.5,1.6,3.8l-2.1,5.7c-0.5,1.3-1.6,1.3-2.6,1l-18.3-7.2c-4.2-1.6-8.1-2.5-10.5-2.5
	c-5,0-6,6.9-6.3,17.6c-0.3,24.9,0,39.6,0,43.7V183.6z"/>
</svg>
