<?xml version="1.0" encoding="utf-8"?>
<!-- Generator: Adobe Illustrator 26.3.1, SVG Export Plug-In . SVG Version: 6.00 Build 0)  -->
<svg version="1.1" id="layer" xmlns="http://www.w3.org/2000/svg" xmlns:xlink="http://www.w3.org/1999/xlink" x="0px" y="0px"
	 viewBox="0 0 652 652" style="enable-background:new 0 0 652 652;" xml:space="preserve">
<style type="text/css">
	.st0{fill:#CFA863;}
</style>
<path d="M536.5,393v-7.1h16.2v57.9h-8V393H536.5z M484.6,393v-7.1h16.2v57.9h-8V393H484.6z M401.3,443.8v-52.5h3.4l33.5,39.2v-39.2
	h6.4v52.5h-3.3l-33.7-39.2v39.2H401.3z M329.8,443.8v-52.5h40.7v6h-34.3v15.4h20.7v6h-20.7v19h36.4v6H329.8L329.8,443.8z
	 M278.6,443.8h-4l-24.9-52.5h7l19.9,42.1l19.9-42.1h7.1L278.6,443.8z M179.6,443.8l25.3-52.5h5.3l25.7,52.5h-7l-7.1-14.1h-28.6
	l-6.9,14.1H179.6z M196.2,423.6H219l-11.4-23.2L196.2,423.6z M99.3,443.8v-52.5h6l20.9,32.1l21-32.1h5.8v52.5h-6.4v-41l-20.5,31
	l-20.5-31v41H99.3z M466.6,508v-18.8h2.3v16.7H481v2.2L466.6,508L466.6,508z M411.5,508l9.1-18.8h1.9l9.2,18.8h-2.5l-2.5-5.1h-10.3
	l-2.5,5.1H411.5z M417.5,500.7h8.2l-4.1-8.4L417.5,500.7z M373,508v-16.7h-7.8v-2.2h18v2.2h-7.8V508H373z M329.8,508v-19h2.4v19
	H329.8z M277.5,508v-18.8h10.7c1.8,0,3.2,0.5,4.3,1.4c1,0.9,1.5,2.1,1.5,3.7s-0.5,3-1.5,4c-1,1-2.4,1.5-4,1.5h-8.6v8.2H277.5z
	 M279.8,497.5h8.2c1.1,0,2-0.3,2.7-0.8s0.9-1.3,0.9-2.3c0-1-0.3-1.7-0.9-2.3c-0.6-0.5-1.5-0.8-2.5-0.8h-8.3L279.8,497.5L279.8,497.5
	z M222.5,508l9.1-18.8h1.9l9.2,18.8h-2.5l-2.5-5.1h-10.3l-2.5,5.1H222.5z M228.5,500.7h8.2l-4.1-8.4L228.5,500.7z M187.3,502
	l1.8,1.4c-0.8,1.6-2,2.9-3.5,3.8s-3.2,1.4-5,1.4c-2.8,0-5.1-0.9-6.9-2.8c-1.8-1.9-2.7-4.2-2.7-7.1c0-2.9,0.9-5.2,2.7-7.1
	s4.1-2.8,6.9-2.8c1.7,0,3.3,0.4,4.7,1.2s2.5,1.9,3.4,3.3l-2,1.4c-0.6-1.2-1.4-2-2.5-2.6c-1.1-0.6-2.4-1-3.7-1
	c-2.1,0-3.8,0.7-5.1,2.2c-1.4,1.5-2,3.3-2,5.5c0,2.3,0.7,4.1,2,5.5c1.4,1.4,3.1,2.2,5.1,2.2c1.5,0,2.7-0.4,3.9-1.1
	C185.6,504.5,186.6,503.4,187.3,502z"/>
<path class="st0" d="M406.7,183.6c0,5.7,0,69.3-0.3,73.3c-0.5,16.7-1.1,17.6-18,17.6h-12c-2.1,0-3.7,0.3-3.7,1.9v7.9
	c0,1.9,0.8,2.5,2.1,2.5c1.3,0,38.1-1,40.5-1c2.3,0,37.9,1,40.3,1c1.8,0,2.4-0.6,2.4-2.5v-7.2c0-1.6-0.8-2.5-2.6-2.5H446
	c-17,0-18-2.2-18.3-18.6c0-4.1-0.3-70.8-0.3-74.6v-13.2c0-40.6,0.8-90,0.8-92.8c0-2.5-0.3-4.4-1.8-4.4c-1.3,0-2.4,1-3.7,1.9
	l-54.1,37.5c-1.8,1.3-2.1,2.5-1.6,3.8l2.1,5.7c0.5,1.3,1.6,1.3,2.6,1l18.3-7.2c4.2-1.6,8.1-2.5,10.5-2.5c5,0,6,6.9,6.3,17.6
	c0.3,24.9,0,39.6,0,43.7L406.7,183.6L406.7,183.6z M236.3,183.6c0,5.7,0,69.3,0.3,73.3c0.5,16.7,1.1,17.6,18,17.6h12
	c2.1,0,3.7,0.3,3.7,1.9v7.9c0,1.9-0.8,2.5-2.1,2.5c-1.3,0-38.1-1-40.5-1c-2.3,0-37.9,1-40.3,1c-1.8,0-2.3-0.6-2.3-2.5v-7.2
	c0-1.6,0.8-2.5,2.6-2.5h9.4c17,0,18-2.2,18.3-18.6c0-4.1,0.3-70.8,0.3-74.6v-13.2c0-40.6-0.8-90-0.8-92.8c0-2.5,0.3-4.4,1.8-4.4
	c1.3,0,2.3,1,3.7,1.9l54.1,37.5c1.8,1.3,2.1,2.5,1.6,3.8l-2.1,5.7c-0.5,1.3-1.6,1.3-2.6,1l-18.3-7.2c-4.2-1.6-8.1-2.5-10.5-2.5
	c-5,0-6,6.9-6.3,17.6c-0.3,24.9,0,39.6,0,43.7L236.3,183.6L236.3,183.6z"/>
</svg>
