<?xml version="1.0" encoding="utf-8"?>
<!-- Generator: Adobe Illustrator 26.3.1, SVG Export Plug-In . SVG Version: 6.00 Build 0)  -->
<svg version="1.1" id="katman_1" xmlns="http://www.w3.org/2000/svg" xmlns:xlink="http://www.w3.org/1999/xlink" x="0px" y="0px"
	 viewBox="0 0 300 100" style="enable-background:new 0 0 300 100;" xml:space="preserve">
<style type="text/css">
	.st0{fill:#CFA863;}
</style>
<path d="M180.6,65.5v-1h2.4v8.5h-1.2v-7.4H180.6z M173,65.5v-1h2.4v8.5h-1.2v-7.4H173z M160.9,72.9v-7.7h0.5l4.9,5.7v-5.7h0.9v7.7
	h-0.5l-4.9-5.7v5.7H160.9z M150.4,72.9v-7.7h5.9v0.9h-5v2.3h3v0.9h-3V72h5.3v0.9L150.4,72.9L150.4,72.9z M142.9,72.9h-0.6l-3.6-7.7
	h1l2.9,6.2l2.9-6.2h1L142.9,72.9z M128.5,72.9l3.7-7.7h0.8l3.8,7.7h-1l-1-2.1h-4.2l-1,2.1H128.5z M130.9,69.9h3.3l-1.7-3.4
	L130.9,69.9z M116.7,72.9v-7.7h0.9l3.1,4.7l3.1-4.7h0.8v7.7h-0.9v-6l-3,4.5l-3-4.5v6H116.7z M170.4,82.3v-2.7h0.3V82h1.8v0.3
	L170.4,82.3L170.4,82.3z M162.4,82.3l1.3-2.7h0.3l1.3,2.7h-0.4l-0.4-0.7h-1.5l-0.4,0.7H162.4z M163.2,81.2h1.2l-0.6-1.2L163.2,81.2z
	 M156.7,82.3v-2.4h-1.1v-0.3h2.6v0.3h-1.1v2.4H156.7z M150.4,82.3v-2.8h0.4v2.8H150.4z M142.8,82.3v-2.7h1.6c0.3,0,0.5,0.1,0.6,0.2
	c0.1,0.1,0.2,0.3,0.2,0.5s-0.1,0.4-0.2,0.6c-0.1,0.1-0.4,0.2-0.6,0.2h-1.3v1.2H142.8L142.8,82.3z M143.1,80.7h1.2
	c0.2,0,0.3,0,0.4-0.1c0.1-0.1,0.1-0.2,0.1-0.3c0-0.1,0-0.2-0.1-0.3c-0.1-0.1-0.2-0.1-0.4-0.1h-1.2L143.1,80.7L143.1,80.7z
	 M134.7,82.3l1.3-2.7h0.3l1.3,2.7h-0.4l-0.4-0.7h-1.5l-0.4,0.7H134.7z M135.6,81.2h1.2l-0.6-1.2L135.6,81.2z M129.6,81.4l0.3,0.2
	c-0.1,0.2-0.3,0.4-0.5,0.6c-0.2,0.1-0.5,0.2-0.7,0.2c-0.4,0-0.7-0.1-1-0.4c-0.3-0.3-0.4-0.6-0.4-1s0.1-0.8,0.4-1
	c0.3-0.3,0.6-0.4,1-0.4c0.2,0,0.5,0.1,0.7,0.2c0.2,0.1,0.4,0.3,0.5,0.5l-0.3,0.2c-0.1-0.2-0.2-0.3-0.4-0.4c-0.2-0.1-0.4-0.1-0.5-0.1
	c-0.3,0-0.6,0.1-0.7,0.3c-0.2,0.2-0.3,0.5-0.3,0.8c0,0.3,0.1,0.6,0.3,0.8c0.2,0.2,0.5,0.3,0.7,0.3c0.2,0,0.4-0.1,0.6-0.2
	C129.3,81.8,129.5,81.6,129.6,81.4z"/>
<path class="st0" d="M161.7,34.9c0,0.8,0,10.1,0,10.7c-0.1,2.4-0.2,2.6-2.6,2.6h-1.8c-0.3,0-0.5,0-0.5,0.3v1.2
	c0,0.3,0.1,0.4,0.3,0.4c0.2,0,5.6-0.1,5.9-0.1c0.3,0,5.5,0.1,5.9,0.1c0.3,0,0.4-0.1,0.4-0.4v-1.1c0-0.2-0.1-0.4-0.4-0.4h-1.4
	c-2.5,0-2.6-0.3-2.7-2.7c0-0.6,0-10.3,0-10.9v-1.9c0-5.9,0.1-13.2,0.1-13.6c0-0.4,0-0.6-0.3-0.6c-0.2,0-0.4,0.1-0.5,0.3l-7.9,5.5
	c-0.3,0.2-0.3,0.4-0.2,0.6l0.3,0.8c0.1,0.2,0.2,0.2,0.4,0.1l2.7-1.1c0.6-0.2,1.2-0.4,1.5-0.4c0.7,0,0.9,1,0.9,2.6c0,3.6,0,5.8,0,6.4
	L161.7,34.9L161.7,34.9z M136.8,34.9c0,0.8,0,10.1,0,10.7c0.1,2.4,0.2,2.6,2.6,2.6h1.8c0.3,0,0.5,0,0.5,0.3v1.2
	c0,0.3-0.1,0.4-0.3,0.4s-5.6-0.1-5.9-0.1c-0.3,0-5.5,0.1-5.9,0.1c-0.3,0-0.3-0.1-0.3-0.4v-1.1c0-0.2,0.1-0.4,0.4-0.4h1.4
	c2.5,0,2.6-0.3,2.7-2.7c0-0.6,0-10.3,0-10.9v-1.9c0-5.9-0.1-13.2-0.1-13.6c0-0.4,0-0.6,0.3-0.6c0.2,0,0.3,0.1,0.5,0.3l7.9,5.5
	c0.3,0.2,0.3,0.4,0.2,0.6l-0.3,0.8c-0.1,0.2-0.2,0.2-0.4,0.1l-2.7-1.1c-0.6-0.2-1.2-0.4-1.5-0.4c-0.7,0-0.9,1-0.9,2.6
	c0,3.6,0,5.8,0,6.4V34.9L136.8,34.9z"/>
</svg>
