<svg width="156" height="17" viewBox="0 0 156 17" fill="none" xmlns="http://www.w3.org/2000/svg">
<path d="M29.899 17.0005H31.8223V2.18831H38.5761V0.246094H23.1562V2.18831H29.899V17.0005Z" fill="#0C0D0E"/>
<path d="M58.9832 11.5869C60.0112 11.1962 60.8291 10.5376 61.3929 9.63349C61.9677 8.72935 62.2661 7.56848 62.2661 6.19554C62.2661 5.26907 62.1335 4.42075 61.8571 3.68405C61.5918 2.9585 61.216 2.34458 60.7186 1.83112C60.2322 1.32883 59.6132 0.938149 58.9058 0.659094C58.1763 0.38004 57.3362 0.246094 56.3966 0.246094H44.2266V17.0005H46.1278V2.19948H56.3966C57.6236 2.19948 58.5963 2.5455 59.3037 3.21523C60.0222 3.89613 60.3759 4.92305 60.3759 6.25135C60.3759 7.56848 60.0333 8.60657 59.359 9.33211C58.6737 10.0688 57.6788 10.4483 56.3856 10.4483H49.5655V12.0222H55.8882L60.387 17.0117H63.1172L58.1431 11.9106L58.9832 11.5869Z" fill="#0C0D0E"/>
<path d="M80.1062 0.726098C79.9625 0.48053 79.8078 0.279611 79.6309 0.156827C79.4983 0.0563675 79.3325 0.0117188 79.1225 0.0117188C78.9014 0.0117188 78.7356 0.0563675 78.5919 0.167989C78.415 0.301935 78.2603 0.491693 78.1166 0.726098L68.4336 17.0117H70.6001L79.0009 2.66832L83.7871 10.7386H77.166L76.1048 12.4799H84.7819L87.4459 17.0006H89.8113L80.1062 0.726098Z" fill="#0C0D0E"/>
<path d="M98.3247 17.0005H100.259V2.18831H107.002V0.246094H91.582V2.18831H98.3247V17.0005Z" fill="#0C0D0E"/>
<path d="M129.956 2.51146C129.249 1.79708 128.397 1.23897 127.403 0.837133C126.408 0.435294 125.291 0.234375 124.087 0.234375H119.765C118.604 0.234375 117.521 0.435294 116.548 0.82597C115.575 1.21665 114.724 1.76359 114.006 2.47797C113.298 3.18119 112.734 4.05184 112.336 5.04527C111.939 6.04987 111.729 7.18841 111.729 8.42741C111.729 9.64409 111.927 10.7938 112.336 11.843C112.734 12.8811 113.309 13.7964 114.017 14.5443C114.735 15.3033 115.586 15.9061 116.57 16.3414C117.543 16.7767 118.615 16.9888 119.765 16.9888H124.087C125.269 16.9888 126.364 16.7656 127.347 16.3302C128.331 15.8949 129.193 15.2922 129.912 14.5331C130.63 13.7741 131.194 12.87 131.592 11.8319C131.99 10.7826 132.2 9.64409 132.2 8.41625C132.2 7.19957 132.001 6.07219 131.603 5.0676C131.216 4.09649 130.663 3.22584 129.956 2.51146ZM129.823 11.1398C129.514 11.9323 129.083 12.6244 128.541 13.2048C127.988 13.7741 127.325 14.2317 126.574 14.5554C125.822 14.8792 124.982 15.0466 124.098 15.0466H119.776C118.902 15.0466 118.073 14.8792 117.333 14.5554C116.592 14.2317 115.94 13.7741 115.398 13.1937C114.857 12.6244 114.426 11.9323 114.127 11.1398C113.829 10.3473 113.674 9.48782 113.674 8.58368C113.674 7.65722 113.829 6.79774 114.127 6.01638C114.426 5.23503 114.857 4.5653 115.398 3.99603C115.94 3.42676 116.592 2.98027 117.344 2.66773C118.095 2.35519 118.913 2.18776 119.787 2.18776H124.109C124.993 2.18776 125.833 2.34403 126.585 2.66773C127.336 2.98027 128 3.42676 128.552 3.99603C129.105 4.5653 129.536 5.24619 129.845 6.03871C130.144 6.82006 130.299 7.67955 130.299 8.58368C130.277 9.49898 130.133 10.3585 129.823 11.1398Z" fill="#0C0D0E"/>
<path d="M154.794 8.69586C153.977 7.948 152.716 7.56848 151.069 7.56848H142.934C142.094 7.56848 141.42 7.32291 140.9 6.84294C140.381 6.3518 140.115 5.84951 140.115 4.99002C140.115 4.14169 140.369 3.44964 140.878 2.94734C141.386 2.44504 142.083 2.19947 142.956 2.19947H155.126V0.246094H142.956C142.149 0.246094 141.431 0.357716 140.812 0.592121C140.204 0.815365 139.695 1.12791 139.286 1.51858C138.888 1.8981 138.579 2.36691 138.38 2.89153C138.17 3.43848 138.07 4.04123 138.07 4.68864C138.07 5.34721 138.181 6.15089 138.402 6.69783C138.623 7.24478 138.932 7.71359 139.341 8.11543C139.75 8.50611 140.248 8.81865 140.845 9.04189C141.453 9.2763 142.138 9.38792 142.901 9.38792H151.058C152.031 9.38792 152.805 9.63348 153.358 10.1135C153.943 10.6158 154.242 11.3525 154.242 12.3012C154.242 13.1719 153.954 13.7077 153.391 14.2546C152.827 14.7904 152.053 15.0583 151.069 15.0583H138.336V17.0005H151.069C151.921 17.0005 152.672 16.8777 153.291 16.6433C153.899 16.4089 154.408 16.0852 154.806 15.6834C155.203 15.2815 155.502 14.7904 155.701 14.2323C155.9 13.663 156.01 13.0156 156.01 12.3347C155.999 10.772 155.59 9.43257 154.794 8.69586Z" fill="#0C0D0E"/>
<path d="M16.7242 8.69642C15.9062 7.94855 14.6461 7.56904 12.9991 7.56904H4.8636C4.02352 7.56904 3.34925 7.32347 2.82973 6.8435C2.31021 6.35236 2.04492 5.85006 2.04492 4.99058C2.04492 4.14225 2.29916 3.4502 2.80762 2.9479C3.31609 2.4456 4.01247 2.20003 4.88571 2.20003H17.0558V0.257812H4.88571C4.07879 0.257812 3.36031 0.369434 2.7413 0.60384C2.13335 0.827084 1.62489 1.13962 1.2159 1.5303C0.817969 1.89865 0.519521 2.3563 0.309502 2.89209C0.110536 3.43903 0 4.04179 0 4.6892C0 5.34777 0.110536 6.15144 0.331609 6.69839C0.552682 7.24534 0.862184 7.71415 1.27117 8.11599C1.68015 8.50666 2.17757 8.8192 2.77446 9.04245C3.38241 9.27685 4.06774 9.38847 4.83044 9.38847H12.988C13.9607 9.38847 14.7345 9.63404 15.2872 10.114C15.873 10.6163 16.1715 11.353 16.1715 12.3018C16.1715 13.1725 15.8841 13.7082 15.3203 14.2552C14.7566 14.791 13.9829 15.0589 12.9991 15.0589H0.265287V17.0011H12.9991C13.8502 17.0011 14.6019 16.8783 15.2209 16.6439C15.8288 16.4095 16.3373 16.0858 16.7352 15.6839C17.1331 15.2821 17.4316 14.791 17.6306 14.2329C17.8295 13.6636 17.9401 13.0162 17.9401 12.3353C17.929 10.7726 17.52 9.43312 16.7242 8.69642Z" fill="#0C0D0E"/>
</svg>
