<?xml version="1.0" encoding="utf-8"?>
<!-- Generator: Adobe Illustrator 26.3.1, SVG Export Plug-In . SVG Version: 6.00 Build 0)  -->
<svg version="1.1" id="katman_1" xmlns="http://www.w3.org/2000/svg" xmlns:xlink="http://www.w3.org/1999/xlink" x="0px" y="0px"
	 viewBox="0 0 300 100" style="enable-background:new 0 0 300 100;" xml:space="preserve">
<style type="text/css">
	.st0{fill:#0C0D0E;}
</style>
<path class="st0" d="M102.3,58.7h1.9V43.9h6.8v-1.9H95.6v1.9h6.7V58.7z"/>
<path class="st0" d="M131.4,53.3c1-0.4,1.8-1,2.4-2c0.6-0.9,0.9-2.1,0.9-3.4c0-0.9-0.1-1.8-0.4-2.5c-0.3-0.7-0.6-1.3-1.1-1.9
	c-0.5-0.5-1.1-0.9-1.8-1.2c-0.7-0.3-1.6-0.4-2.5-0.4h-12.2v16.8h1.9V43.9h10.3c1.2,0,2.2,0.3,2.9,1c0.7,0.7,1.1,1.7,1.1,3
	c0,1.3-0.3,2.4-1,3.1c-0.7,0.7-1.7,1.1-3,1.1H122v1.6h6.3l4.5,5h2.7l-5-5.1L131.4,53.3z"/>
<path class="st0" d="M152.5,42.4c-0.1-0.2-0.3-0.4-0.5-0.6c-0.1-0.1-0.3-0.1-0.5-0.1c-0.2,0-0.4,0-0.5,0.2c-0.2,0.1-0.3,0.3-0.5,0.6
	l-9.7,16.3h2.2l8.4-14.3l4.8,8.1h-6.6l-1.1,1.7h8.7l2.7,4.5h2.4L152.5,42.4z"/>
<path class="st0" d="M170.7,58.7h1.9V43.9h6.7v-1.9H164v1.9h6.7V58.7z"/>
<path class="st0" d="M202.4,44.2c-0.7-0.7-1.6-1.3-2.6-1.7c-1-0.4-2.1-0.6-3.3-0.6h-4.3c-1.2,0-2.2,0.2-3.2,0.6s-1.8,0.9-2.5,1.7
	c-0.7,0.7-1.3,1.6-1.7,2.6c-0.4,1-0.6,2.1-0.6,3.4c0,1.2,0.2,2.4,0.6,3.4c0.4,1,1,2,1.7,2.7c0.7,0.8,1.6,1.4,2.6,1.8
	c1,0.4,2,0.6,3.2,0.6h4.3c1.2,0,2.3-0.2,3.3-0.7c1-0.4,1.8-1,2.6-1.8c0.7-0.8,1.3-1.7,1.7-2.7c0.4-1,0.6-2.2,0.6-3.4
	c0-1.2-0.2-2.3-0.6-3.3C203.6,45.8,203.1,44.9,202.4,44.2z M202.2,52.8c-0.3,0.8-0.7,1.5-1.3,2.1c-0.6,0.6-1.2,1-2,1.4
	c-0.8,0.3-1.6,0.5-2.5,0.5h-4.3c-0.9,0-1.7-0.2-2.4-0.5c-0.7-0.3-1.4-0.8-1.9-1.4c-0.5-0.6-1-1.3-1.3-2.1c-0.3-0.8-0.5-1.7-0.5-2.6
	c0-0.9,0.2-1.8,0.5-2.6c0.3-0.8,0.7-1.5,1.3-2c0.5-0.6,1.2-1,1.9-1.3c0.8-0.3,1.6-0.5,2.4-0.5h4.3c0.9,0,1.7,0.2,2.5,0.5
	c0.8,0.3,1.4,0.8,2,1.3c0.6,0.6,1,1.3,1.3,2c0.3,0.8,0.5,1.6,0.5,2.5C202.7,51.2,202.6,52,202.2,52.8z"/>
<path class="st0" d="M227.2,50.4c-0.8-0.7-2.1-1.1-3.7-1.1h-8.1c-0.8,0-1.5-0.2-2-0.7c-0.5-0.5-0.8-1-0.8-1.9c0-0.8,0.3-1.5,0.8-2
	c0.5-0.5,1.2-0.7,2.1-0.7h12.2v-2h-12.2c-0.8,0-1.5,0.1-2.1,0.3c-0.6,0.2-1.1,0.5-1.5,0.9c-0.4,0.4-0.7,0.8-0.9,1.4
	c-0.2,0.5-0.3,1.1-0.3,1.8c0,0.7,0.1,1.5,0.3,2c0.2,0.5,0.5,1,0.9,1.4c0.4,0.4,0.9,0.7,1.5,0.9c0.6,0.2,1.3,0.3,2.1,0.3h8.2
	c1,0,1.7,0.2,2.3,0.7c0.6,0.5,0.9,1.2,0.9,2.2c0,0.9-0.3,1.4-0.9,2c-0.6,0.5-1.3,0.8-2.3,0.8h-12.7v1.9h12.7c0.9,0,1.6-0.1,2.2-0.4
	c0.6-0.2,1.1-0.6,1.5-1c0.4-0.4,0.7-0.9,0.9-1.5c0.2-0.6,0.3-1.2,0.3-1.9C228.4,52.5,228,51.1,227.2,50.4z"/>
<path class="st0" d="M89.1,50.4c-0.8-0.7-2.1-1.1-3.7-1.1h-8.1c-0.8,0-1.5-0.2-2-0.7c-0.5-0.5-0.8-1-0.8-1.9c0-0.8,0.3-1.5,0.8-2
	c0.5-0.5,1.2-0.7,2.1-0.7h12.2v-1.9H77.3c-0.8,0-1.5,0.1-2.1,0.3c-0.6,0.2-1.1,0.5-1.5,0.9c-0.4,0.4-0.7,0.8-0.9,1.4
	c-0.2,0.5-0.3,1.1-0.3,1.8c0,0.7,0.1,1.5,0.3,2c0.2,0.5,0.5,1,0.9,1.4c0.4,0.4,0.9,0.7,1.5,0.9c0.6,0.2,1.3,0.3,2.1,0.3h8.2
	c1,0,1.7,0.2,2.3,0.7c0.6,0.5,0.9,1.2,0.9,2.2c0,0.9-0.3,1.4-0.9,2c-0.6,0.5-1.3,0.8-2.3,0.8H72.7v1.9h12.7c0.9,0,1.6-0.1,2.2-0.4
	c0.6-0.2,1.1-0.6,1.5-1c0.4-0.4,0.7-0.9,0.9-1.5c0.2-0.6,0.3-1.2,0.3-1.9C90.4,52.5,89.9,51.1,89.1,50.4z"/>
</svg>
