<?xml version="1.0" encoding="utf-8"?>
<!-- Generator: Adobe Illustrator 26.3.1, SVG Export Plug-In . SVG Version: 6.00 Build 0)  -->
<svg version="1.1" id="katman_1" xmlns="http://www.w3.org/2000/svg" xmlns:xlink="http://www.w3.org/1999/xlink" x="0px" y="0px"
	 viewBox="0 0 300 100" style="enable-background:new 0 0 300 100;" xml:space="preserve">
<style type="text/css">
	.st0{fill:#1D1D1B;}
	.st1{fill:#ED6D1E;}
	.st2{fill:#ED6D1F;}
</style>
<path class="st0" d="M100.4,64.6c-8.2,0-14.9-6.7-14.9-15s6.7-15.1,14.9-15.1s14.9,6.7,14.9,15S108.6,64.6,100.4,64.6L100.4,64.6z
	 M100.4,36.8c-7,0-12.6,5.7-12.6,12.8s5.7,12.8,12.6,12.8c7,0,12.6-5.7,12.6-12.8S107.3,36.8,100.4,36.8L100.4,36.8z"/>
<path class="st0" d="M100.4,65c-8.4,0-15.3-6.9-15.3-15.4s6.8-15.4,15.3-15.4s15.3,6.9,15.3,15.4S108.8,65,100.4,65L100.4,65z
	 M100.4,34.9c-8,0-14.5,6.6-14.5,14.7s6.5,14.7,14.5,14.7s14.5-6.6,14.5-14.7S108.4,34.9,100.4,34.9z M100.4,62.7
	c-7.2,0-13-5.9-13-13.1s5.8-13.1,13-13.1s13,5.9,13,13.1S107.6,62.7,100.4,62.7L100.4,62.7z M100.4,37.2c-6.8,0-12.2,5.6-12.2,12.4
	S93.6,62,100.4,62c6.8,0,12.2-5.6,12.2-12.4S107.1,37.2,100.4,37.2L100.4,37.2z"/>
<path class="st0" d="M89.1,62.1c0.7,0.6,1.5,1.2,2.3,1.7c-1.5,0.5-3.1,0.8-4.7,0.8c-8.2,0-14.9-6.7-14.9-15s6.7-15.1,14.9-15.1
	c1.6,0,3.2,0.3,4.7,0.8c-0.8,0.5-1.6,1.1-2.3,1.7c-0.8-0.2-1.6-0.2-2.4-0.2c-7,0-12.6,5.7-12.6,12.8s5.7,12.8,12.6,12.8
	C87.5,62.3,88.3,62.3,89.1,62.1L89.1,62.1z"/>
<path class="st0" d="M86.7,65c-8.4,0-15.3-6.9-15.3-15.4s6.8-15.4,15.3-15.4c1.6,0,3.3,0.3,4.8,0.8l0.8,0.3l-0.7,0.4
	c-0.8,0.5-1.5,1.1-2.2,1.7l-0.1,0.1l-0.2,0c-0.8-0.2-1.6-0.2-2.4-0.2c-6.8,0-12.2,5.6-12.2,12.4S79.9,62,86.7,62
	c0.8,0,1.6-0.1,2.4-0.2l0.2,0l0.1,0.1c0.7,0.7,1.4,1.2,2.2,1.7l0.7,0.4l-0.8,0.3C90,64.7,88.3,65,86.7,65L86.7,65z M86.7,34.9
	c-8,0-14.5,6.6-14.5,14.7s6.5,14.7,14.5,14.7c1.3,0,2.6-0.2,3.8-0.5c-0.5-0.4-1-0.8-1.5-1.2c-0.8,0.1-1.6,0.2-2.3,0.2
	c-7.2,0-13-5.9-13-13.1s5.8-13.1,13-13.1c0.8,0,1.6,0.1,2.3,0.2c0.5-0.4,1-0.8,1.5-1.2C89.3,35.1,88,34.9,86.7,34.9z"/>
<path class="st1" d="M101.6,49.6c0,4-1.6,7.7-4.2,10.4c-0.8-0.2-1.5-0.6-2.3-1c2.6-2.3,4.2-5.7,4.2-9.5c0-3.8-1.6-7.1-4.2-9.5
	c0.7-0.4,1.5-0.7,2.3-1C100,41.9,101.6,45.5,101.6,49.6L101.6,49.6z"/>
<path class="st2" d="M97.5,60.4l-0.2-0.1c-0.8-0.2-1.6-0.6-2.3-1l-0.5-0.3l0.4-0.4c2.6-2.4,4.1-5.7,4.1-9.2s-1.5-6.9-4.1-9.2
	L94.5,40l0.5-0.3c0.8-0.4,1.5-0.8,2.3-1l0.2-0.1l0.2,0.2c2.8,2.9,4.3,6.7,4.3,10.7c0,4-1.5,7.8-4.3,10.7L97.5,60.4L97.5,60.4z
	 M95.8,59c0.5,0.2,1,0.5,1.5,0.6c2.5-2.7,3.9-6.3,3.9-10c0-3.7-1.4-7.3-3.9-10c-0.5,0.2-1,0.4-1.5,0.6c2.5,2.5,3.9,5.9,3.9,9.4
	S98.2,56.5,95.8,59z"/>
<path class="st0" d="M149.4,36.5c-0.1,1.3-0.2,2.5-0.2,3.6c0,1.2,0,2,0,2.7c0,0.5,0,1.1,0,1.6c0,0.5,0,0.9,0.1,1.3h-0.9
	c-0.4-2.1-0.9-3.7-1.5-4.9c-0.6-1.2-1.3-2.1-2.1-2.6c-0.8-0.5-1.8-0.8-3-0.8H141v21.1c0,1,0.1,1.7,0.3,2.2c0.2,0.5,0.6,0.8,1.2,1
	c0.6,0.1,1.4,0.2,2.5,0.3v0.7c-0.8,0-1.8,0-3.1-0.1c-1.3,0-2.6,0-4,0c-1.4,0-2.6,0-3.8,0c-1.2,0-2.2,0-2.9,0.1v-0.7
	c1.1,0,1.9-0.1,2.5-0.3c0.6-0.2,0.9-0.5,1.1-1c0.2-0.5,0.3-1.2,0.3-2.2V37.3h-0.8c-1.1,0-2.1,0.3-3,0.8c-0.8,0.5-1.6,1.3-2.1,2.6
	c-0.6,1.2-1.1,2.8-1.6,4.9h-0.9c0-0.3,0.1-0.8,0.1-1.3c0-0.5,0-1,0-1.6c0-0.6,0-1.5-0.1-2.7c0-1.2-0.1-2.4-0.2-3.6
	c1.1,0,2.4,0,3.7,0.1c1.4,0,2.7,0,4.1,0s2.6,0,3.7,0c1.1,0,2.3,0,3.7,0c1.4,0,2.7,0,4.1,0C147.1,36.5,148.3,36.5,149.4,36.5z"/>
<path class="st0" d="M152.4,36.5c0.6,0,1.4,0,2.5,0.1c1.1,0,2.1,0,3.1,0c1.2,0,2.3,0,3.4,0c1.1,0,1.9,0,2.4,0c3.4,0,6,0.6,7.7,1.7
	c1.7,1.1,2.6,2.7,2.6,4.7c0,0.8-0.2,1.7-0.5,2.6c-0.3,0.8-0.9,1.6-1.8,2.4c-0.8,0.7-1.9,1.3-3.4,1.7c-1.4,0.4-3.2,0.6-5.4,0.6h-3.6
	v-0.7h3.2c1.5,0,2.6-0.3,3.3-0.8c0.8-0.6,1.3-1.3,1.6-2.2c0.3-0.9,0.4-2,0.4-3.1c0-1.9-0.3-3.5-1-4.5c-0.7-1.1-1.9-1.6-3.6-1.6
	c-1,0-1.6,0.2-1.9,0.6c-0.3,0.4-0.4,1.3-0.4,2.6v18.4c0,0.9,0.1,1.6,0.2,2c0.1,0.4,0.4,0.7,0.8,0.9c0.4,0.1,1,0.2,1.8,0.3v0.7
	c-0.7,0-1.5-0.1-2.5-0.1c-1,0-2,0-3.1,0c-1.2,0-2.3,0-3.4,0c-1,0-1.9,0-2.5,0.1v-0.7c0.8,0,1.4-0.1,1.8-0.3c0.4-0.1,0.7-0.4,0.8-0.9
	c0.1-0.4,0.2-1.1,0.2-2V40.4c0-0.9-0.1-1.6-0.2-2c-0.1-0.4-0.4-0.7-0.8-0.9c-0.4-0.2-1-0.3-1.7-0.3V36.5z M159.4,49.6
	c1.1,0,2,0.1,2.7,0.1c0.8,0.1,1.5,0.1,2.1,0.2c0.6,0,1.1,0.1,1.6,0.1c2.2,0.2,3.9,0.7,5,1.4c1.1,0.8,1.8,1.9,2.1,3.4l0.9,3.8
	c0.2,1,0.5,1.7,0.7,2.1c0.2,0.4,0.6,0.6,1.1,0.6c0.3,0,0.6-0.1,0.8-0.2c0.2-0.1,0.5-0.4,0.7-0.6l0.5,0.4c-0.7,0.8-1.4,1.3-2.1,1.6
	c-0.8,0.3-1.7,0.5-2.8,0.5c-1.3,0-2.4-0.3-3.3-0.9c-0.9-0.6-1.4-1.6-1.7-3.1l-0.7-3.7c-0.2-1-0.4-1.9-0.6-2.7
	c-0.2-0.8-0.6-1.4-1-1.8c-0.4-0.5-1-0.7-1.8-0.7h-4L159.4,49.6z"/>
<path class="st0" d="M192.5,36c1.7,0,3,0.2,4.1,0.7c1.1,0.5,2,1,2.8,1.7c0.3,0.2,0.5,0.3,0.7,0.3c0.5,0,0.8-0.7,0.9-2.2h0.9
	c0,1-0.1,2.1-0.1,3.5c0,1.4,0,3.2,0,5.4h-0.9c-0.2-1.5-0.4-2.8-0.8-3.8c-0.3-1.1-1-2.1-2-2.8c-0.6-0.6-1.3-1-2.2-1.3
	c-0.9-0.3-1.7-0.5-2.6-0.5c-1.4,0-2.5,0.4-3.5,1.1c-1,0.7-1.8,1.6-2.4,2.8c-0.6,1.2-1.1,2.6-1.4,4.1c-0.3,1.5-0.4,3.1-0.4,4.7
	c0,4.4,0.6,7.7,1.8,9.7c1.2,2,3,3.1,5.3,3.1c0.6,0,1.1-0.1,1.6-0.2c0.4-0.1,0.8-0.3,1.1-0.5c0.3-0.2,0.6-0.5,0.7-0.8
	c0.1-0.3,0.2-0.7,0.2-1.1v-3.6c0-1.1-0.1-2-0.3-2.5c-0.2-0.6-0.5-0.9-1.1-1.1c-0.5-0.2-1.3-0.3-2.4-0.3v-0.7c0.5,0,1.1,0,1.9,0.1
	c0.7,0,1.5,0,2.3,0c0.8,0,1.5,0,2.2,0c1,0,2,0,2.8,0c0.9,0,1.6,0,2.1-0.1v0.7c-0.7,0-1.1,0.2-1.4,0.6c-0.2,0.3-0.3,1.2-0.3,2.6v7.3
	h-0.7c0-0.4-0.1-0.9-0.3-1.4c-0.1-0.5-0.4-0.7-0.8-0.7c-0.2,0-0.4,0-0.7,0.1c-0.3,0.1-0.7,0.3-1.3,0.6c-0.9,0.5-1.9,1-2.9,1.3
	c-1,0.3-2.1,0.5-3.2,0.5c-4.3,0-7.6-1.2-9.8-3.5c-2.2-2.3-3.4-5.6-3.4-9.8c0-2.8,0.6-5.3,1.7-7.3c1.2-2.1,2.7-3.7,4.7-4.8
	C187.5,36.5,189.9,36,192.5,36z"/>
<path class="st0" d="M220.1,36c1.6,0,3,0.2,4,0.7c1.1,0.5,2,1,2.8,1.7c0.5,0.4,0.9,0.4,1.1,0.1c0.3-0.3,0.5-1,0.6-2h0.9
	c0,1-0.1,2.1-0.1,3.5c0,1.4,0,3.2,0,5.4h-0.9c-0.1-1.1-0.3-2.1-0.5-2.9c-0.2-0.8-0.5-1.5-0.8-2.1c-0.3-0.6-0.8-1.2-1.5-1.7
	c-0.6-0.6-1.3-1.1-2.1-1.4c-0.8-0.3-1.7-0.4-2.6-0.4c-1.3,0-2.5,0.4-3.4,1.1c-0.9,0.7-1.7,1.6-2.3,2.8c-0.6,1.2-1,2.6-1.3,4.1
	c-0.3,1.5-0.4,3.1-0.4,4.7c0,1.7,0.1,3.2,0.4,4.8c0.3,1.5,0.7,2.8,1.3,4c0.6,1.2,1.4,2.1,2.4,2.8s2.1,1,3.4,1c0.8,0,1.6-0.1,2.4-0.4
	c0.8-0.3,1.6-0.8,2.1-1.4c1-0.7,1.6-1.7,2-2.7c0.3-1.1,0.6-2.6,0.8-4.4h0.9c0,2.3,0,4.2,0,5.7c0,1.4,0.1,2.6,0.1,3.6h-0.9
	c-0.1-1.1-0.3-1.7-0.5-2c-0.2-0.3-0.6-0.2-1.1,0.1c-0.9,0.6-1.9,1.2-2.9,1.7c-1,0.5-2.3,0.7-3.9,0.7c-2.6,0-4.9-0.5-6.9-1.6
	c-1.9-1.1-3.5-2.6-4.6-4.6c-1.1-2-1.6-4.4-1.6-7.2c0-2.8,0.6-5.2,1.7-7.3c1.1-2.1,2.7-3.7,4.6-4.8C215.3,36.5,217.6,36,220.1,36z"/>
</svg>
