<svg width="400" height="79" viewBox="0 0 400 79" fill="none" xmlns="http://www.w3.org/2000/svg">
<path d="M73.2933 77.131C52.5372 77.131 35.6466 60.0456 35.6466 39.0501C35.6466 18.0546 52.5372 0.952251 73.2933 0.952251C94.0494 0.952251 110.94 18.0376 110.94 39.0331C110.94 60.0286 94.0494 77.114 73.2933 77.114V77.131ZM73.2933 6.73239C55.68 6.73239 41.344 21.2337 41.344 39.0501C41.344 56.8665 55.68 71.3679 73.2933 71.3679C90.9065 71.3679 105.243 56.8665 105.243 39.0501C105.243 21.2337 90.9233 6.71538 73.2933 6.71538V6.73239Z" fill="#1D1D1B"/>
<path d="M73.2936 78.0828C52.0165 78.0828 34.689 60.5724 34.689 39.0329C34.689 17.4934 52.0165 0 73.2936 0C94.5707 0 111.898 17.5104 111.898 39.0499C111.898 60.5894 94.5875 78.0998 73.2936 78.0998V78.0828ZM73.2936 1.92104C53.0585 1.92104 36.5881 18.5814 36.5881 39.0499C36.5881 59.5184 53.0585 76.1788 73.2936 76.1788C93.5287 76.1788 109.999 59.5184 109.999 39.0499C109.999 18.5814 93.5287 1.92104 73.2936 1.92104ZM73.2936 72.3197C55.1425 72.3197 40.3864 57.3933 40.3864 39.0329C40.3864 20.6725 55.1593 5.76313 73.2936 5.76313C91.4279 5.76313 106.201 20.6895 106.201 39.0499C106.201 57.4103 91.4447 72.3367 73.2936 72.3367V72.3197ZM73.2936 7.66718C56.2014 7.66718 42.2855 21.7435 42.2855 39.0329C42.2855 56.3223 56.2014 70.3986 73.2936 70.3986C90.3859 70.3986 104.302 56.3223 104.302 39.0329C104.302 21.7435 90.3859 7.68418 73.2936 7.68418V7.66718Z" fill="#1D1D1B"/>
<path d="M44.8075 70.7567C46.5722 72.3888 48.4881 73.8848 50.5217 75.1768C46.7907 76.4519 42.7571 77.1319 38.6059 77.1319C17.833 77.1319 0.942383 60.0465 0.942383 39.051C0.942383 18.0555 17.833 0.953125 38.6059 0.953125C42.7571 0.953125 46.7907 1.65014 50.5217 2.90817C48.4881 4.2002 46.5722 5.69624 44.8075 7.32827C42.7907 6.92026 40.7235 6.71626 38.6059 6.71626C20.9758 6.71626 6.6398 21.2176 6.6398 39.051C6.6398 56.8844 20.959 71.3688 38.5891 71.3688C40.7067 71.3688 42.7907 71.1647 44.7907 70.7567H44.8075Z" fill="#1D1D1B"/>
<path d="M38.6047 78.0828C17.3107 78.0828 0 60.5724 0 39.0499C0 17.5274 17.3107 0 38.6047 0C42.7727 0 46.8903 0.680016 50.823 2.00605L52.7222 2.65206L51.0247 3.72309C49.1087 4.94711 47.2264 6.39215 45.4449 8.04118L45.092 8.36419L44.6214 8.26219C42.6382 7.87118 40.6214 7.66718 38.6047 7.66718C21.4956 7.68418 7.59656 21.7435 7.59656 39.0499C7.59656 56.3563 21.5124 70.4156 38.6047 70.4156C40.6214 70.4156 42.655 70.2116 44.6214 69.8206L45.092 69.7186L45.4449 70.0416C47.2264 71.6907 49.0919 73.1357 51.0247 74.3427L52.7222 75.4137L50.823 76.0597C46.8903 77.3858 42.7895 78.0658 38.6047 78.0658V78.0828ZM38.6047 1.92104C18.3528 1.92104 1.89914 18.5814 1.89914 39.0499C1.89914 59.5184 18.3696 76.1787 38.6047 76.1787C41.9155 76.1787 45.176 75.7367 48.3188 74.8527C47.0247 73.9347 45.7474 72.8977 44.5206 71.7926C42.571 72.1497 40.5878 72.3367 38.6047 72.3367C20.4536 72.3367 5.69742 57.4103 5.69742 39.0499C5.69742 20.6895 20.4536 5.76313 38.6047 5.76313C40.5878 5.76313 42.571 5.95014 44.5206 6.30714C45.7474 5.20212 47.0247 4.1821 48.3188 3.24707C45.1592 2.36305 41.8987 1.92104 38.6047 1.92104Z" fill="#1D1D1B"/>
<path d="M76.2517 39.0521C76.2517 49.3033 72.2349 58.6365 65.6803 65.4707C63.6636 64.8927 61.7644 64.0767 59.9829 63.0566C66.4702 57.1235 70.5542 48.5723 70.5542 39.0691C70.5542 29.5659 66.4702 20.9807 59.9829 15.0815C61.7644 14.0615 63.6636 13.2455 65.6803 12.6675C72.2349 19.5016 76.2517 28.8349 76.2517 39.0861V39.0521Z" fill="#ED6D1E"/>
<path d="M65.965 66.5409L65.4272 66.3879C63.4272 65.8099 61.4272 64.9768 59.5281 63.8888L58.3853 63.2428L59.36 62.3418C65.881 56.3916 69.612 47.8914 69.612 39.0682C69.612 30.245 65.881 21.7278 59.36 15.7947L58.3853 14.8937L59.5281 14.2307C61.4272 13.1426 63.4104 12.2926 65.4272 11.7316L65.965 11.5786L66.3516 11.9866C73.3431 19.2798 77.1918 28.902 77.1918 39.0682C77.1918 49.2345 73.3431 58.8567 66.3516 66.1499L65.965 66.5579V66.5409ZM61.5953 62.8178C62.839 63.4468 64.1163 63.9738 65.3936 64.3648C71.7801 57.4797 75.2926 48.5205 75.2926 39.0342C75.2926 29.548 71.7801 20.5888 65.3936 13.7037C64.1163 14.1117 62.839 14.6217 61.5953 15.2507C67.8978 21.4898 71.4944 30.075 71.4944 39.0342C71.4944 47.9934 67.8978 56.5446 61.5953 62.8178Z" fill="#ED6D1F"/>
<path d="M197.453 5.89613C197.203 9.0804 197.015 12.1398 196.891 15.0743C196.828 18.0088 196.797 20.2565 196.797 21.8175C196.797 23.1911 196.828 24.5022 196.891 25.751C196.953 26.9997 197.015 28.0611 197.078 28.9352H194.924C193.925 23.6906 192.645 19.5385 191.084 16.4791C189.586 13.4197 187.775 11.2657 185.652 10.0169C183.529 8.70577 181.032 8.05019 178.16 8.05019H176.006V61.5271C176.006 64.0246 176.255 65.8977 176.755 67.1464C177.317 68.3951 178.316 69.238 179.752 69.6751C181.188 70.0497 183.279 70.2682 186.027 70.3307V72.2038C184.091 72.1413 181.5 72.0789 178.253 72.0165C175.069 71.954 171.729 71.9228 168.232 71.9228C164.798 71.9228 161.551 71.954 158.492 72.0165C155.433 72.0789 152.966 72.1413 151.093 72.2038V70.3307C153.903 70.2682 156.026 70.0497 157.462 69.6751C158.898 69.238 159.866 68.3951 160.365 67.1464C160.865 65.8977 161.114 64.0246 161.114 61.5271V8.05019H159.054C156.182 8.05019 153.684 8.70577 151.562 10.0169C149.439 11.2657 147.628 13.4197 146.13 16.4791C144.631 19.4761 143.32 23.6281 142.196 28.9352H140.042C140.167 28.0611 140.229 26.9997 140.229 25.751C140.292 24.5022 140.323 23.1911 140.323 21.8175C140.323 20.2565 140.261 18.0088 140.136 15.0743C140.073 12.1398 139.917 9.0804 139.667 5.89613C142.54 5.95857 145.661 6.021 149.033 6.08344C152.467 6.14587 155.901 6.1771 159.335 6.1771C162.769 6.1771 165.86 6.1771 168.607 6.1771C171.416 6.1771 174.507 6.1771 177.879 6.1771C181.313 6.1771 184.747 6.14587 188.181 6.08344C191.615 6.021 194.705 5.95857 197.453 5.89613Z" fill="#1D1D1B"/>
<path d="M204.942 5.89613C206.503 5.95857 208.595 6.021 211.217 6.08344C213.902 6.14587 216.555 6.1771 219.178 6.1771C222.174 6.1771 225.078 6.14587 227.887 6.08344C230.697 6.021 232.695 5.98979 233.881 5.98979C242.56 5.98979 249.053 7.42583 253.362 10.2979C257.67 13.1076 259.824 17.1035 259.824 22.2857C259.824 24.4086 259.387 26.5626 258.513 28.7479C257.638 30.8708 256.14 32.8687 254.017 34.7418C251.957 36.5525 249.116 38.0197 245.495 39.1436C241.873 40.205 237.315 40.7357 231.821 40.7357H222.83V38.8626H230.884C234.568 38.8626 237.347 38.1758 239.22 36.8022C241.155 35.3662 242.466 33.4931 243.153 31.1829C243.902 28.8104 244.277 26.188 244.277 23.3159C244.277 18.3834 243.403 14.5748 241.655 11.89C239.906 9.14283 236.91 7.76923 232.664 7.76923C230.229 7.76923 228.637 8.29994 227.887 9.36136C227.201 10.4228 226.857 12.5768 226.857 15.8235V62.2764C226.857 64.5241 227.013 66.2099 227.326 67.3337C227.7 68.4576 228.387 69.2068 229.386 69.5814C230.385 69.9561 231.883 70.2058 233.881 70.3307V72.2038C232.196 72.0789 230.073 72.0165 227.513 72.0165C224.953 71.954 222.362 71.9228 219.739 71.9228C216.743 71.9228 213.902 71.954 211.217 72.0165C208.595 72.0165 206.503 72.0789 204.942 72.2038V70.3307C206.94 70.2058 208.438 69.9561 209.437 69.5814C210.436 69.2068 211.092 68.4576 211.404 67.3337C211.779 66.2099 211.966 64.5241 211.966 62.2764V15.8235C211.966 13.5134 211.779 11.8276 211.404 10.7662C211.092 9.64232 210.405 8.89309 209.344 8.51847C208.345 8.08141 206.878 7.83167 204.942 7.76923V5.89613ZM222.643 39.1436C225.328 39.206 227.638 39.3309 229.573 39.5182C231.571 39.7055 233.319 39.8928 234.818 40.0802C236.316 40.205 237.659 40.2987 238.845 40.3611C244.527 40.8606 248.71 42.0781 251.395 44.0137C254.142 45.9492 255.921 48.8525 256.733 52.7236L258.887 62.37C259.449 64.8675 260.042 66.6157 260.667 67.6147C261.291 68.6137 262.196 69.1132 263.383 69.1132C264.194 69.0507 264.85 68.8634 265.349 68.5512C265.911 68.1766 266.504 67.6459 267.129 66.9591L268.44 68.083C266.754 70.0185 264.944 71.3921 263.008 72.2038C261.072 73.0779 258.731 73.5149 255.984 73.5149C252.612 73.5149 249.834 72.7969 247.649 71.3609C245.463 69.9248 244.027 67.2713 243.34 63.4002L241.655 54.0347C241.218 51.4124 240.687 49.1335 240.063 47.1979C239.438 45.2 238.564 43.639 237.44 42.5152C236.379 41.3289 234.88 40.7357 232.945 40.7357H222.83L222.643 39.1436Z" fill="#1D1D1B"/>
<path d="M306.406 4.58496C310.652 4.58496 314.117 5.17811 316.802 6.36441C319.487 7.5507 321.89 8.98674 324.013 10.6725C324.762 11.2345 325.387 11.5154 325.886 11.5154C327.073 11.5154 327.853 9.64233 328.228 5.89613H330.382C330.257 8.33116 330.163 11.2969 330.101 14.7933C330.038 18.2274 330.007 22.8164 330.007 28.5606H327.853C327.416 24.8144 326.729 21.5677 325.793 18.8205C324.919 16.0109 323.264 13.607 320.829 11.6091C319.33 10.173 317.457 9.04918 315.21 8.2375C313.024 7.42583 310.808 7.01999 308.56 7.01999C305.126 7.01999 302.192 7.92532 299.757 9.73598C297.322 11.4842 295.324 13.888 293.763 16.9474C292.202 20.0068 291.047 23.472 290.297 27.3431C289.548 31.1517 289.174 35.1164 289.174 39.2373C289.174 50.4758 290.703 58.6863 293.763 63.8685C296.884 69.0507 301.349 71.6418 307.155 71.6418C308.654 71.6418 309.965 71.4545 311.089 71.0799C312.213 70.7053 313.118 70.2682 313.805 69.7687C314.679 69.1444 315.272 68.4888 315.584 67.802C315.896 67.0527 316.053 66.085 316.053 64.8987V55.7205C316.053 52.8484 315.803 50.7256 315.303 49.352C314.866 47.9159 313.961 46.9482 312.587 46.4487C311.214 45.9492 309.216 45.6682 306.593 45.6058V43.7327C307.905 43.7951 309.465 43.8576 311.276 43.92C313.149 43.92 315.085 43.9512 317.083 44.0137C319.081 44.0137 320.923 44.0137 322.608 44.0137C325.231 44.0137 327.634 43.9824 329.82 43.92C332.005 43.8576 333.784 43.7951 335.158 43.7327V45.6058C333.41 45.7307 332.255 46.2302 331.693 47.1043C331.193 47.9784 330.944 50.1637 330.944 53.6601V72.2038H329.071C329.008 71.1423 328.758 69.9873 328.321 68.7385C327.947 67.4898 327.291 66.8654 326.355 66.8654C325.917 66.8654 325.324 66.9903 324.575 67.2401C323.888 67.4274 322.796 67.9581 321.297 68.8322C318.987 70.1434 316.552 71.2672 313.992 72.2038C311.432 73.0779 308.747 73.5149 305.938 73.5149C295.011 73.5149 286.707 70.5492 281.026 64.6177C275.344 58.6862 272.503 50.4134 272.503 39.7992C272.503 32.6814 273.939 26.5002 276.811 21.2555C279.746 16.0109 283.742 11.9213 288.799 8.98674C293.919 6.05222 299.788 4.58496 306.406 4.58496Z" fill="#1D1D1B"/>
<path d="M376.399 4.58496C380.52 4.58496 383.892 5.20933 386.514 6.45806C389.199 7.64436 391.571 9.04918 393.632 10.6725C394.88 11.6091 395.817 11.734 396.441 11.0471C397.128 10.2979 397.596 8.5809 397.846 5.89613H400C399.875 8.33116 399.782 11.2969 399.719 14.7933C399.657 18.2274 399.626 22.8164 399.626 28.5606H397.471C397.159 25.6885 396.753 23.2535 396.254 21.2555C395.754 19.1951 395.068 17.3845 394.194 15.8235C393.319 14.2626 392.071 12.8578 390.447 11.6091C388.886 10.0482 387.076 8.89309 385.015 8.14385C382.955 7.39461 380.801 7.01999 378.553 7.01999C375.182 7.01999 372.31 7.92532 369.937 9.73598C367.564 11.4842 365.629 13.888 364.13 16.9474C362.694 20.0068 361.633 23.472 360.946 27.3431C360.259 31.1517 359.916 35.1164 359.916 39.2373C359.916 43.4205 360.259 47.4477 360.946 51.3187C361.695 55.1274 362.819 58.5302 364.318 61.5271C365.879 64.5241 367.877 66.8967 370.312 68.6449C372.747 70.3931 375.619 71.2672 378.928 71.2672C380.988 71.2672 383.049 70.8926 385.109 70.1434C387.232 69.3317 389.043 68.1766 390.541 66.6781C392.976 64.805 394.631 62.4949 395.505 59.7477C396.379 56.938 397.034 53.223 397.471 48.6027H399.626C399.626 54.5342 399.657 59.3418 399.719 63.0256C399.782 66.6469 399.875 69.7063 400 72.2038H397.846C397.596 69.519 397.159 67.8332 396.535 67.1464C395.973 66.4596 395.005 66.5533 393.632 67.4274C391.321 69.0507 388.855 70.4868 386.233 71.7355C383.673 72.9218 380.364 73.5149 376.305 73.5149C369.687 73.5149 363.881 72.1725 358.886 69.4878C353.953 66.803 350.113 62.9319 347.366 57.8746C344.619 52.8172 343.245 46.7296 343.245 39.6119C343.245 32.619 344.65 26.5002 347.46 21.2555C350.332 16.0109 354.234 11.9213 359.167 8.98674C364.162 6.05222 369.906 4.58496 376.399 4.58496Z" fill="#1D1D1B"/>
</svg>
