<?xml version="1.0" encoding="utf-8"?>
<!-- Generator: Adobe Illustrator 26.3.1, SVG Export Plug-In . SVG Version: 6.00 Build 0)  -->
<svg version="1.1" id="katman_1" xmlns="http://www.w3.org/2000/svg" xmlns:xlink="http://www.w3.org/1999/xlink" x="0px" y="0px"
	 viewBox="0 0 300 100" style="enable-background:new 0 0 300 100;" xml:space="preserve">
<style type="text/css">
	.st0{fill-rule:evenodd;clip-rule:evenodd;fill:#9494A3;}
	.st1{fill-rule:evenodd;clip-rule:evenodd;fill:#2B4ADF;}
</style>
<path class="st0" d="M232.5,54.2c0.8,0,1.5,0.2,2.1,0.7l0,0l0.7-0.8c-0.8-0.7-1.8-1-2.9-1c-0.5,0-1,0.1-1.5,0.2
	c-0.4,0.1-0.8,0.4-1.1,0.7c-0.3,0.4-0.5,0.8-0.5,1.3c0,0.3,0.1,0.7,0.2,1c0.2,0.3,0.4,0.5,0.7,0.6c0.3,0.1,0.6,0.3,0.9,0.4
	c0.4,0.1,0.7,0.2,1.1,0.2c0.5,0,1.1,0.2,1.6,0.4c0.2,0.1,0.3,0.2,0.4,0.3c0.1,0.1,0.1,0.3,0.1,0.5c0,0.2,0,0.4-0.2,0.5
	c-0.1,0.2-0.3,0.3-0.4,0.4c-0.4,0.2-0.9,0.3-1.3,0.3c-0.5,0-1-0.1-1.5-0.3c-0.5-0.2-0.9-0.5-1.2-0.9l-0.7,0.9
	c0.4,0.5,0.9,0.9,1.5,1.1c0.6,0.2,1.2,0.4,1.9,0.3c0.8,0,1.6-0.2,2.3-0.6c0.3-0.2,0.5-0.4,0.7-0.7c0.2-0.3,0.2-0.6,0.2-1
	c0-0.3-0.1-0.6-0.2-0.9c-0.1-0.2-0.3-0.5-0.5-0.6c-0.2-0.2-0.5-0.3-0.8-0.4c-0.3-0.1-0.6-0.2-0.8-0.2c-0.2,0-0.5-0.1-0.9-0.1
	c-1.2-0.1-1.9-0.5-1.9-1.1c0-0.2,0-0.3,0.1-0.5c0.1-0.1,0.2-0.3,0.4-0.3C231.6,54.3,232,54.2,232.5,54.2z M227.4,59.6L227.4,59.6
	l-0.8-0.8c-0.3,0.3-0.6,0.6-1,0.7c-0.4,0.2-0.9,0.3-1.4,0.3c-0.7,0-1.3-0.2-1.9-0.6c-0.3-0.2-0.5-0.4-0.6-0.7
	c-0.2-0.3-0.2-0.6-0.3-0.9h6.5c0.1-0.6,0.1-1.2-0.1-1.7c-0.2-0.6-0.4-1.1-0.8-1.5c-0.4-0.4-0.8-0.7-1.3-0.9c-0.5-0.2-1-0.3-1.6-0.3
	c-0.5,0-1,0.1-1.5,0.3c-0.5,0.2-0.9,0.5-1.3,0.8c-0.4,0.4-0.7,0.8-0.8,1.3c-0.2,0.5-0.3,1-0.3,1.5c0,0.5,0.1,1.1,0.3,1.5
	c0.2,0.5,0.5,0.9,0.9,1.3c0.4,0.4,0.8,0.6,1.3,0.8c0.5,0.2,1,0.3,1.6,0.2c0.6,0,1.3-0.1,1.8-0.3C226.5,60.4,227,60,227.4,59.6
	L227.4,59.6L227.4,59.6z M226.6,56.5c0-0.3-0.1-0.6-0.2-0.9c-0.1-0.3-0.3-0.5-0.5-0.8c-0.5-0.4-1.2-0.6-1.8-0.6
	c-0.6,0-1.3,0.2-1.8,0.6c-0.5,0.4-0.8,1-0.9,1.6L226.6,56.5L226.6,56.5z M215.3,53.2L215.3,53.2l-1.2,0v7.5h1.3v-4.2
	c0-0.3,0-0.6,0.2-0.9c0.1-0.3,0.3-0.5,0.5-0.7c0.4-0.4,1-0.6,1.6-0.6c0.5,0,0.9,0.1,1.3,0.4l0.6-1.1c-0.5-0.4-1.1-0.6-1.8-0.6
	c-0.5,0-0.9,0.1-1.4,0.3c-0.4,0.2-0.8,0.6-1,1L215.3,53.2L215.3,53.2L215.3,53.2z M186.5,59.6L186.5,59.6L186.5,59.6L186.5,59.6z
	 M186.5,59.6c-0.4,0.5-0.9,0.8-1.4,1c-0.6,0.2-1.2,0.3-1.8,0.3c-0.5,0-1.1-0.1-1.6-0.2c-0.5-0.2-1-0.5-1.3-0.8
	c-0.4-0.4-0.7-0.8-0.9-1.3c-0.2-0.5-0.3-1-0.3-1.5c0-0.5,0.1-1,0.3-1.5c0.2-0.5,0.5-0.9,0.8-1.3c0.4-0.4,0.8-0.7,1.3-0.8
	c0.5-0.2,1-0.3,1.5-0.3c0.5,0,1.1,0.1,1.6,0.3c0.5,0.2,1,0.5,1.3,0.9c0.4,0.4,0.7,1,0.8,1.5c0.1,0.6,0.2,1.2,0.1,1.7h-6.5
	c0,0.3,0.1,0.6,0.3,0.9c0.2,0.3,0.4,0.5,0.6,0.7c0.5,0.4,1.2,0.6,1.9,0.6c0.5,0,0.9-0.1,1.4-0.3c0.4-0.1,0.8-0.4,1.1-0.7L186.5,59.6
	z M185.6,55.5c0.1,0.3,0.2,0.6,0.2,0.9v0h-5.3c0.1-0.6,0.4-1.2,0.9-1.6c0.5-0.4,1.1-0.6,1.8-0.6c0.7,0,1.3,0.2,1.8,0.6
	C185.2,55,185.4,55.3,185.6,55.5z M173.9,59.2l-3.7-9.1h-1.5l4.5,10.7h1.4l4.4-10.7h-1.5L173.9,59.2z M190.1,53.2h-1.2v7.6h1.2v-4
	c0-0.6,0.2-1.3,0.7-1.7c0.2-0.2,0.5-0.4,0.8-0.5c0.3-0.1,0.6-0.2,0.9-0.2c0.3,0,0.6,0,0.9,0.1c0.3,0.1,0.6,0.3,0.8,0.5
	c0.2,0.2,0.4,0.5,0.5,0.8c0.1,0.3,0.2,0.6,0.1,0.9v4.2h1.3v-4.2c0-0.5,0-0.9-0.2-1.4s-0.4-0.8-0.7-1.2c-0.3-0.3-0.7-0.6-1.1-0.7
	c-0.4-0.2-0.9-0.2-1.3-0.2c-0.5,0-1,0.1-1.5,0.3c-0.5,0.2-0.8,0.6-1.1,1L190.1,53.2z M200.4,53.2h2.3v1.1h-2.3v4
	c0,1,0.4,1.4,1.2,1.4c0.4,0,0.7-0.1,1.1-0.3l0.4,1c-0.5,0.2-1,0.3-1.5,0.4c-1.6,0-2.4-0.8-2.4-2.6v-4h-1.5v-1.1h1.5v-2.1l1.3-0.1
	L200.4,53.2z M210.4,59.6l0.1,1.2h1.2v-7.5h-1.3v4c0,0.6-0.2,1.3-0.6,1.7c-0.2,0.2-0.5,0.4-0.8,0.5c-0.3,0.1-0.6,0.2-0.9,0.2
	c-0.3,0-0.6,0-0.9-0.1c-0.3-0.1-0.6-0.3-0.8-0.5c-0.2-0.2-0.4-0.5-0.5-0.8c-0.1-0.3-0.1-0.6-0.1-0.9v-4.2h-1.3v4.2
	c0,0.5,0,0.9,0.2,1.4c0.2,0.4,0.4,0.8,0.7,1.2c0.3,0.3,0.7,0.6,1.1,0.7c0.4,0.2,0.9,0.2,1.3,0.2c0.5,0,1-0.1,1.5-0.3
	C209.7,60.3,210.1,60,210.4,59.6z"/>
<path class="st1" d="M156.6,50.1l-9.1-11.4h-5v21.8l6.3,0l0-11.4l9.2,11.4h5V38.7h-6.3V50.1z M136.2,38.7v21.9h-6.3V38.7H136.2z
	 M125,38.7h-7.3l-4.3,5.9l-4.3-5.9l-7.3,0l8,10.8l-8.1,11h7.3l4.5-6.1l4.5,6.1h7.3l-8.1-11L125,38.7z M96.9,60.5V38.7h-6.3v21.9
	H96.9z M82.5,48.9l-0.2,0.1l0.2,0.1c0.3,0.2,3.3,1.7,3.3,5.2c0,3.6-2.8,6.2-6.7,6.2H65.4V38.7h13.2c3.7,0,6.4,2.5,6.4,5.9
	c0,0.9-0.3,1.7-0.7,2.5C83.8,47.8,83.2,48.5,82.5,48.9z M77,43.3h-5.2v3.8H77c1.6,0,2.2-1,2.2-1.9C79.1,44,78.3,43.3,77,43.3z
	 M71.8,56H77v0c1.4,0,2.4-0.9,2.4-2.2c0-1.3-1-2.2-2.4-2.2h-5.2V56z"/>
</svg>
