<?xml version="1.0" encoding="utf-8"?>
<!-- Generator: Adobe Illustrator 26.3.1, SVG Export Plug-In . SVG Version: 6.00 Build 0)  -->
<svg version="1.1" id="katman_1" xmlns="http://www.w3.org/2000/svg" xmlns:xlink="http://www.w3.org/1999/xlink" x="0px" y="0px"
	 viewBox="0 0 300 100" style="enable-background:new 0 0 300 100;" xml:space="preserve">
<path d="M147.2,57.3c-0.1,0-0.3,0.1-0.3,0.2c-0.1,0.2-0.2,0.4-0.2,0.6c-0.3,1.5-0.9,2.9-1.6,4.2c-0.6,1.2-1.4,2.4-2.3,3.4
	c-1.1,1.2-2.6,2.1-4.2,2.6c-0.9,0.3-1.8,0.5-2.8,0.5c-3.6,0-7.3,0-10.9,0c-0.1,0-0.3,0-0.5,0V30.8c0-0.1,0.1-0.3,0.2-0.3
	c0,0,0,0,0.1,0h6v-0.8h-18.3v0.8h6.3v38.2h-6.2v0.8h34.9V57.7C147.5,57.5,147.3,57.3,147.2,57.3C147.2,57.3,147.2,57.3,147.2,57.3z"
	/>
<rect x="154.5" y="19.4" width="1.3" height="60.3"/>
<path d="M187.4,45.1c-0.1-0.5-0.2-0.9-0.3-1.4c-0.6-2.2-1.6-4.2-2.9-6c-0.8-1.1-1.7-2-2.7-2.9c-0.9-0.8-1.9-1.5-3-2.1
	c-1.2-0.7-2.4-1.2-3.7-1.6c-1.1-0.4-2.2-0.7-3.4-0.9c-0.9-0.1-1.8-0.3-2.7-0.3c-0.6,0-1.2-0.1-1.8-0.1c-1,0-2-0.1-3-0.1
	c-0.6,0-1.3,0-1.8,0.1c-0.6,0-1.1,0-1.6,0.1c0.1,0.7,0.1,0.8,0.8,0.8c0.8,0,1.5-0.1,2.3-0.1c1.7,0,3.5,0,5.2,0.3
	c0.8,0.2,1.6,0.3,2.4,0.5c1,0.3,1.9,0.7,2.9,1.2c1.1,0.6,2,1.3,2.9,2.2c1.2,1.3,2.2,2.8,2.9,4.5c0.7,1.8,1.2,3.7,1.4,5.7
	c0,0.2,0,0.7,0,0.7c0.2,2.6,0.3,5.2,0.1,7.8c0,0,0,0.3,0,0.4c-0.1,1-0.3,2.1-0.5,3.1c-0.3,1.3-0.7,2.6-1.2,3.8
	c-0.4,0.8-0.8,1.6-1.2,2.4c-1.5,2.8-4.1,4.8-7.2,5.5c-1.3,0.3-2.7,0.5-4,0.6c-1.3,0.1-2.6,0-3.9,0h-2.3c-0.2,0.5-0.2,0.6,0.4,0.7
	c0.4,0.1,0.7,0.1,1.1,0.1c2.4,0,4.9,0.1,7.3-0.1c1.2-0.1,2.3-0.3,3.4-0.5c1.5-0.3,2.9-0.9,4.2-1.6c1.1-0.6,2.1-1.2,3.1-1.9
	c1.5-1,2.8-2.3,3.8-3.8c0.9-1.2,1.7-2.6,2.3-3.9c0.5-1.3,0.9-2.7,1.2-4.2c0-0.1,0-0.3,0-0.4c0.3-2.6,0.2-5.2-0.2-7.8
	C187.5,45.4,187.4,45.2,187.4,45.1z"/>
</svg>
