<?xml version="1.0" encoding="UTF-8"?>
<svg id="katman_1" data-name="katman 1" xmlns="http://www.w3.org/2000/svg" viewBox="0 0 300 100">
  <defs>
    <style>
      .cls-1 {
        fill: #d6c07c;
      }
    </style>
  </defs>
  <g id="Group_151" data-name="Group 151">
    <path id="Path_526" data-name="Path 526" class="cls-1" d="M111.59,70.64h-.3c-.48-.1-.97-.17-1.45-.29-1.89-.37-3.76-.86-5.59-1.46-3.47-1.35-5.66-4.11-7.41-7.27v-1.2l5.51-2.75c2,4.11,5.08,6.35,9.71,6.03,3.04-.22,5.09-1.71,5.6-4.09,.54-2.48-.63-4.57-3.41-6-.97-.5-2-.89-3.01-1.33-2.65-1.01-5.26-2.15-7.8-3.42-3.96-2.2-5.73-5.82-5.36-10.3,.35-4.19,2.82-6.98,6.58-8.59,1.58-.58,3.18-1.06,4.82-1.45h3.01c2.79,.61,5.59,1.25,7.73,3.29,1.54,1.47,2.9,3.12,4.5,4.86l-5.37,3.19c-1.28-1.13-2.35-2.2-3.55-3.1-2.11-1.72-5-2.11-7.49-1.02-2.25,.79-3.43,3.25-2.64,5.5,.3,.86,.87,1.61,1.63,2.12,.88,.57,1.81,1.06,2.78,1.44,3.61,1.69,7.52,2.92,10.77,5.13,6.89,4.68,6.13,14.28-1.15,18.37-2.1,1.3-4.47,2.1-6.93,2.34"/>
    <path id="Path_527" data-name="Path 527" class="cls-1" d="M138.76,69.53h-7.53V29.24c1.78,0,3.56-.07,5.33,.05,.46,.04,.94,.68,1.29,1.13,6.4,8.1,12.79,16.21,19.17,24.33,.21,.27,.46,.51,.92,1.02V29.34h7.44v40.27c-1.68,0-3.37,.06-5.06-.04-.43-.03-.92-.52-1.23-.92-6.4-8.04-12.79-16.08-19.16-24.14-.31-.39-.63-.78-1.16-1.43v26.46Z"/>
    <path id="Path_528" data-name="Path 528" class="cls-1" d="M190.91,35.61h-7.63c-3.26,0-6.52-.03-9.78,.02-.96,.01-1.37-.25-1.31-1.27,.07-1.35,.04-2.71,0-4.06-.02-.74,.19-1.1,1.01-1.1,9.68,.02,19.36,.04,29.04,.04,.08,0,.17,.08,.44,.23-6.48,11.13-12.96,22.25-19.56,33.58h19.87v6.48h-31.79c6.59-11.35,13.08-22.51,19.71-33.91Z"/>
  </g>
</svg>