<?xml version="1.0" encoding="UTF-8"?>
<svg id="katman_1" data-name="katman 1" xmlns="http://www.w3.org/2000/svg" viewBox="0 0 300 100">
  <defs>
    <style>
      .cls-1 {
        fill: #32329f;
      }
    </style>
  </defs>
  <path id="Logo" class="cls-1" d="M87.66,66.75l-7.79-6.29c-.75,.65-1.74,1.04-2.81,1.04-2.36,0-4.31-1.92-4.31-4.31s1.92-4.31,4.31-4.31,4.31,1.92,4.31,4.31c0,.75-.18,1.45-.55,2.08l6.83,5.51v-9.04l-10.42-8.78c-.55,.39-1.2,.62-1.9,.62-1.79,0-3.22-1.45-3.22-3.22s1.45-3.22,3.22-3.22,3.22,1.45,3.22,3.22c0,.52-.13,1.01-.34,1.45l9.46,7.98v-11.59l-5.4-4.55c-.31,.18-.68,.26-1.04,.26-1.2,0-2.16-.96-2.16-2.16s.96-2.16,2.16-2.16,2.16,.96,2.16,2.16c0,.26-.05,.49-.13,.73l4.42,3.74v-8.08c-1.48-.34-2.57-1.66-2.57-3.25,0-1.84,1.51-3.35,3.35-3.35s3.35,1.51,3.35,3.35c0,1.58-1.09,2.91-2.57,3.25v8.08l4.42-3.74c-.08-.23-.13-.47-.13-.73,0-1.2,.96-2.16,2.16-2.16s2.16,.96,2.16,2.16-.96,2.16-2.16,2.16c-.39,0-.73-.1-1.04-.29l-5.4,4.57v11.59l9.46-7.98c-.21-.44-.34-.94-.34-1.45,0-1.79,1.45-3.22,3.22-3.22s3.22,1.45,3.22,3.22-1.45,3.22-3.22,3.22c-.7,0-1.38-.23-1.9-.62l-10.44,8.81v9.02l6.83-5.51c-.34-.62-.52-1.33-.52-2.08,0-2.36,1.92-4.31,4.31-4.31s4.31,1.92,4.31,4.31-1.92,4.31-4.31,4.31c-1.09,0-2.05-.39-2.83-1.07l-7.79,6.29v7.48h-1.51v-7.46h-.08Zm47.21-5.25l-3.09-8.5h-10.55l-3.09,8.5h-3.72l9.98-25.7h4.29l9.9,25.7h-3.72Zm-12.6-11.3h8.5l-4.18-11.48h-.1l-4.21,11.48Zm18.32,11.3v-18.6h3.25v18.6h-3.25Zm17.75-15.69c-4.11-.44-6.73,2.16-6.73,7.4v8.29h-3.25v-18.6h3.07v4.65h.08c1.04-3.64,3.72-5.07,6.83-4.78v3.04h0Zm20.5-10v2.88h-8.52v22.84h-3.43v-22.84h-8.52v-2.88h20.47Zm9.41,10c-4.11-.44-6.73,2.16-6.73,7.4v8.29h-3.25v-18.6h3.07v4.65h.08c1.04-3.64,3.72-5.07,6.83-4.78v3.04h0Zm10.65-3.35c6.81,0,8.86,6.16,8.68,10.65h-14.73c.31,4.11,2.31,6.13,6.16,6.13,2.55,0,4.55-1.2,5.07-3.64h3.17c-.83,4.13-4.03,6.34-8.24,6.34-6.13,0-9.22-4.13-9.41-9.79,0-5.61,4.05-9.69,9.3-9.69Zm-5.95,7.95h11.35c-.18-2.91-2.23-5.3-5.4-5.3-3.04,.03-5.38,2.13-5.95,5.3Zm26.37-7.95c6.81,0,8.86,6.16,8.68,10.65h-14.73c.31,4.11,2.31,6.13,6.16,6.13,2.55,0,4.55-1.2,5.07-3.64h3.17c-.83,4.13-4.03,6.34-8.24,6.34-6.13,0-9.22-4.13-9.41-9.79,0-5.61,4.03-9.69,9.3-9.69Zm-5.95,7.95h11.35c-.18-2.91-2.23-5.3-5.4-5.3-3.04,.03-5.38,2.13-5.95,5.3Zm-68.95-12.76c0,1.22-.99,2.18-2.18,2.18s-2.18-.99-2.18-2.18,.99-2.18,2.18-2.18,2.18,.96,2.18,2.18Z"/>
</svg>