<?xml version="1.0" encoding="UTF-8"?>
<svg id="katman_1" data-name="katman 1" xmlns="http://www.w3.org/2000/svg" viewBox="0 0 300 100">
  <defs>
    <style>
      .cls-1 {
        fill: #010202;
        fill-rule: evenodd;
      }
    </style>
  </defs>
  <path class="cls-1" d="M146.45,54.73c7.12,.19,13.51-5.86,13.71-13.03,.19-7.6-5.62-13.46-12.5-13.95-8.09-.63-14.39,5.57-14.68,12.79-.34,7.8,5.57,13.95,13.46,14.19m15.21-13.51c0,8.43-6.73,15.06-15.21,15.01-8.28,0-14.97-6.73-15.01-15.01,0-8.38,6.73-15.11,15.16-15.11s15.01,6.68,15.06,14.97v.15m-71.63,24.75c-.97,2.13-1.94,4.31-2.95,6.44-.15,.34-.63,.77-.92,.77-.39-.05-.87-.44-1.07-.77-.77-1.6-1.45-3.29-2.23-4.94-.24-.53-.48-1.07-.97-1.55,0,2.03,.05,4.12,0,6.15,0,.39-.19,.97-.48,1.11-.73,.39-1.21-.05-1.21-.97v-9.98c0-.34,.29-.92,.53-1.02,.58-.15,1.21-.19,1.55,.63,1.16,2.81,2.47,5.57,3.78,8.57,.39-.87,.77-1.6,1.07-2.32,.92-2.08,1.84-4.12,2.71-6.2,.29-.68,.82-.97,1.4-.73,.29,.15,.63,.73,.63,1.07,.05,3.2,.05,6.39,0,9.64,0,1.31-.19,1.4-1.7,1.11v-7.07l-.15,.05m136.34,.92c1.26-.05,2.37-.05,3.49-.24,1.11-.19,1.5-.97,1.45-2.18-.05-1.07-.77-1.55-1.65-1.65-1.07-.1-2.13-.05-3.29-.05v4.12h0Zm4.5,1.31c.68,1.31,1.4,2.52,1.99,3.73,.15,.34,.05,.82,.05,1.21-.53-.15-1.31-.1-1.55-.44-.63-.82-1.11-1.79-1.5-2.76-.48-1.16-1.16-1.74-2.47-1.5-.29,.05-.58,0-1.07,0v3.73c0,.53,.05,1.02-.77,1.02s-.97-.44-.97-1.07v-10.07c0-.73,.34-.97,1.07-.97,1.11,.05,2.28,0,3.39,0,2.03,.05,3.49,.87,3.87,2.28,.58,2.18,0,3.49-2.03,4.84h0Zm-77.4-1.36c1.11,0,2.13,.05,3.2,0,1.07-.1,1.79-1.02,1.79-2.08s-.63-1.79-1.74-1.89c-1.07-.1-2.13,0-3.25,0v3.97h0Zm4.55,1.31c.68,1.31,1.36,2.47,1.89,3.73,.15,.39,.15,1.21,.05,1.26-.58,.19-1.26,.29-1.6-.48-.44-.97-1.07-1.84-1.5-2.81-.44-1.07-1.02-1.55-2.23-1.36-.34,.05-.73,0-1.21,0v3.83c0,.53,0,.97-.77,.97-.73,0-.92-.29-.92-.92,0-3.39,0-6.78,.05-10.17,0-.29,.34-.87,.53-.87,1.65-.05,3.34-.1,4.99,.05,1.55,.15,2.62,1.11,2.91,2.62,.34,1.7-.29,3.1-1.79,4.07-.15,0-.24,0-.39,.1h0Zm-43.11-5.33v8.72c1.99,0,4.17,.48,5.38-1.5,1.07-1.7,1.07-3.73,.1-5.52-1.21-2.13-3.39-1.7-5.47-1.7m-1.79,4.26v-4.84c0-.73,.19-1.11,1.02-1.07,1.6,.1,3.2,0,4.7,.24,1.99,.34,3.25,1.65,3.68,3.63,.48,2.32,.44,4.55-1.26,6.44-1.02,1.16-2.37,1.55-3.83,1.65-1.11,.05-2.28,0-3.39,.05-.73,.05-.92-.29-.92-.97,0-1.65,0-3.39,0-5.13m74.01-2.13c-.58-2.13-2.03-2.91-3.87-2.13-.77,.34-1.31,1.02-1.07,1.74,.15,.53,.73,1.11,1.26,1.31,.82,.34,1.74,.34,2.66,.48,1.7,.29,2.71,1.21,2.95,2.66,.24,1.55-.39,2.91-1.79,3.73-1.94,1.16-4.94,.77-6.34-.87-.39-.48-.68-1.07-.87-1.65-.1-.34,.1-.97,.34-1.07,.53-.19,1.07-.15,1.36,.58,.77,1.89,2.23,2.52,4.17,1.84,.97-.34,1.36-1.02,1.36-1.99s-.63-1.31-1.4-1.45c-1.11-.24-2.23-.44-3.29-.73-1.16-.34-1.99-1.07-2.13-2.32-.19-1.45,.15-2.66,1.5-3.49,2.42-1.4,5.76-.58,6.59,1.7,.44,1.4,.05,1.84-1.4,1.65m9.88-2.13v3.39h4.6c.53,0,1.07-.1,1.07,.77s-.44,.87-1.07,.87h-4.55v3.78h4.6c.34,0,.73-.1,1.02,.05,.29,.15,.63,.53,.63,.87,0,.24-.44,.68-.68,.68-2.23,.05-4.46,.05-6.68,0-.29,0-.73-.53-.73-.87-.05-3.49-.05-6.93,0-10.41,0-.24,.44-.68,.73-.68,2.18-.05,4.41-.05,6.59,0,.24,0,.73,.53,.68,.73-.05,.34-.44,.82-.73,.82-1.79,0-3.58,0-5.47,0m-96.29,0v3.39h4.46c.68,0,1.21,.1,1.16,.97,0,.87-.68,.68-1.16,.68-1.45,.05-2.95,0-4.46,0v3.78h5.04c.34,0,.82,.1,1.02,.29,.44,.48,0,1.31-.68,1.31h-6.49c-.58,0-.77-.24-.77-.82v-10.41c0-.68,.29-.82,.87-.82h6.25c.63,0,.92,.19,.92,.82,0,.68-.34,.82-.92,.82-1.74-.05-3.44,0-5.23,0m155.86,5.09v4.17c0,.63-.05,1.21-.97,1.16-.97-.05-.73-.68-.77-1.21v-9.74c0-.58-.1-1.16,.82-1.16s.92,.58,.92,1.21v3.78h5.62v-3.92c0-.58,0-1.07,.77-1.07,.73,0,1.02,.29,1.02,1.02v9.98c0,.63-.15,1.11-.97,1.07-.82-.05-.87-.58-.87-1.16v-4.17s-5.57,.05-5.57,.05Zm-88.3-5.09v3.39h4.6c.63,0,1.02,.15,1.07,.82,0,.73-.44,.82-1.07,.82h-4.6v3.78h5.18c.34,0,.92,.19,.97,.44,.19,.58,.19,1.21-.77,1.21-2.13-.05-4.26,0-6.34,0-.58,0-.82-.19-.82-.77v-10.41c0-.63,.29-.87,.87-.87h6.25c.58,0,.92,.19,.92,.82,0,.68-.34,.82-.92,.82-1.74-.1-3.49-.05-5.33-.05m-35.55,1.07l-1.4,3.73h2.86l-1.45-3.73m-3.92,9.3c-1.36,.05-1.26-.58-1.07-1.16,.82-2.28,1.74-4.55,2.62-6.83,.44-1.07,.87-2.13,1.26-3.25,.19-.63,.58-.92,1.16-.73,.39,.1,.92,.39,1.02,.73,1.31,3.29,2.57,6.64,3.83,9.98,.15,.44,.53,1.07-.29,1.26-.58,.15-1.26,.19-1.36-.68-.05-.19-.15-.34-.24-.53-.34-.87-.53-2.23-1.11-2.47-1.07-.44-2.37-.19-3.58-.15-.24,0-.53,.34-.63,.58-.34,.82-.58,1.7-.97,2.52-.15,.39-.48,.63-.63,.73m-59.38-9.35l-1.4,3.83h2.81l-1.4-3.83m2.03,5.57c-.24,0-.39-.05-.58-.05-1.11,0-2.47-.34-3.34,.15-.73,.44-.92,1.84-1.36,2.81-.15,.29-.24,.68-.44,.73-.34,.15-.82,.15-1.21,.05-.15-.05-.19-.68-.1-.97,1.26-3.39,2.57-6.78,3.87-10.17,.15-.34,.73-.73,1.07-.73,.39,.05,1.02,.39,1.16,.77,1.36,3.39,2.62,6.78,3.87,10.17,.1,.29-.15,.68-.24,1.02-.48-.19-1.21-.24-1.4-.58-.53-.97-.87-2.13-1.31-3.2m142.25-5.57l-1.4,3.78h2.86l-1.45-3.78m-2.08,5.52c-.39,.97-.82,1.89-1.11,2.86-.34,1.11-1.02,1.16-2.08,.77,.39-1.07,.73-2.08,1.11-3.05,1.02-2.62,1.99-5.28,3.05-7.85,.15-.39,.63-.73,1.07-.87,.63-.19,.97,.15,1.21,.82,1.21,3.29,2.47,6.59,3.68,9.93,.15,.34,.05,1.11-.15,1.21-.63,.24-1.26,.15-1.5-.68-.24-.77-.63-1.55-.87-2.32-.15-.53-.39-.77-1.02-.77-1.07,0-2.23-.05-3.39-.05m-169.08-1.7c-.48-1.21-.92-2.37-1.45-3.83l-1.45,3.83h2.91Zm-3.58,1.7c-.39,1.07-.73,2.03-1.11,3-.24,.68-.68,1.02-1.4,.82-.82-.29-.44-.97-.24-1.4,1.16-3.15,2.37-6.3,3.58-9.44,.24-.58,.39-1.16,1.31-1.16,.87,0,1.02,.58,1.21,1.21,1.16,3.15,2.37,6.25,3.54,9.4,.15,.44,.15,1.31-.1,1.4-.68,.34-1.26,.05-1.5-.77-.29-1.02-.53-2.32-1.26-2.81s-2.03-.15-3.1-.15c-.24-.1-.48-.1-.92-.1Zm199.69-2.13c.05-2.03,.53-3.83,2.23-5.23,2.18-1.79,6.64-1.16,7.41,1.5,.15,.48,.15,1.36-.1,1.55-.73,.44-1.16,0-1.45-.82-.77-2.03-3.63-2.23-5.23-.44-1.55,1.7-1.36,5.62,.34,7.17,1.65,1.55,4.12,1.07,4.99-1.02,.29-.68,.73-.92,1.31-.63,.24,.15,.39,.82,.29,1.16-.39,1.5-1.45,2.37-2.91,2.71-4.17,1.02-6.93-1.45-6.88-5.96m-185.02,4.36h4.89c.58,0,1.02,.05,1.02,.82s-.44,.82-1.02,.82c-1.89,0-3.78-.05-5.67,0-.68,0-.97-.29-.97-.92v-10.27c0-.68,.39-.87,1.02-.87,.73,0,.73,.48,.73,1.02v9.4Z"/>
  <path class="cls-1" d="M150.91,43.3l-4.36-7.7c-.92,1.55-1.74,3-2.57,4.41-.73,1.31-1.45,2.62-2.23,3.92-.15,.24-.24,.58-.44,.63-.44,.15-.87,.19-1.36,.24-.05-.39-.19-.82-.05-1.11,1.84-3.34,3.68-6.64,5.62-9.93,.34-.58,1.07-.77,1.65-.44,.19,.1,.34,.29,.44,.44,1.89,3.25,3.73,6.54,5.57,9.78,.53,.97,.29,1.31-.82,1.31-2.47,0-4.99,0-7.51-.05-.44,0-1.21-.34-1.21-.53,0-.77,.48-1.16,1.36-1.11,1.94,.19,3.83,.15,5.91,.15m-4.46,5.72h-5.76c-.63,0-1.11-.1-1.16-.87-.05-.97,.63-.77,1.16-.77h11.67c.58,0,1.16,0,1.16,.82s-.53,.82-1.16,.82c-1.99-.05-3.97,0-5.91,0"/>
</svg>