<?xml version="1.0" encoding="UTF-8"?>
<svg id="katman_1" data-name="katman 1" xmlns="http://www.w3.org/2000/svg" viewBox="0 0 300 100">
  <defs>
    <style>
      .cls-1 {
        fill: #12acec;
        fill-rule: evenodd;
      }
    </style>
  </defs>
  <g id="Shape_3_copy" data-name="Shape 3 copy">
    <path class="cls-1" d="M154.32,40.59l-.02-.02,.02,.02Zm34.14-3.03s.02,0,0,0h0Zm-60.8-14.6l2.87-.26c.54-.05,.91-.43,.91-.96v-1.31c0-.42-.28-.82-.91-.76l-2.87,.26c-.63,.06-.91,.51-.91,.93v1.31c0,.52,.36,.84,.91,.79Zm53.57,11.23c1.01,.77,2.24,1.1,3.68,.97,1.99-.18,3.49-.51,4.61-1.01,.39-.18,.61-.5,.61-.89v-1.13c0-.74-.61-.91-1.05-.76-1.05,.35-2.42,.6-4.17,.75-.48,.04-.89-.09-1.22-.39-.33-.31-.5-.69-.5-1.15v-5.46c0-.46,.17-.88,.5-1.24,.33-.36,.74-.57,1.22-.61,1.75-.16,3.15-.16,4.17,0,.5,.08,1.06-.22,1.06-.95v-1.13c0-.37-.2-.65-.58-.79-1.11-.29-2.63-.35-4.64-.17-1.43,.13-2.68,.69-3.71,1.67-1.01,.96-1.54,2.18-1.54,3.54v5.46c0,1.38,.53,2.49,1.57,3.29h0Zm-46.24,5.49l1.71-.16c.54-.05,.91-.43,.91-.96v-9.34c0-.44,.17-.86,.5-1.24,.33-.36,.74-.57,1.22-.61l2.31-.21c.46-.04,.86,.09,1.19,.42,.33,.31,.5,.69,.5,1.13v9.35c0,.52,.37,.84,.91,.79l1.74-.16c.09,0,.17-.03,.25-.08,.52-.28,.63-.63,.63-.88v-9.34c0-.44,.17-.86,.5-1.24,.33-.36,.74-.57,1.22-.61l2.3-.21c.47-.04,.87,.09,1.22,.41,.33,.31,.5,.69,.5,1.13v9.35c0,.52,.37,.84,.91,.79l1.71-.15c.54-.05,.91-.43,.91-.96v-9.35c0-1.39-.53-2.49-1.57-3.26-1.01-.78-2.25-1.1-3.68-.97l-2.3,.21c-1.36,.12-2.53,.61-3.49,1.45-.95-.67-2.12-.95-3.46-.83l-2.31,.21c-1.42,.13-2.67,.68-3.71,1.64-1.01,.96-1.54,2.18-1.54,3.54v9.35c0,.52,.36,.84,.91,.79h0Zm19.37,.94c.16,.15,.32,.35,.49,.59,.17,.24,.34,.5,.51,.76l6.31,9.02v-9.62c0-.63,.13-1.11,.4-1.44l.02-.02-7.77,.69s.03,.02,.04,.03h0Zm-24.4-15.42l-1.74,.16c-.63,.06-.91,.51-.91,.93v13.21c0,.52,.37,.84,.91,.79l1.74-.16c.54-.05,.91-.43,.91-.96v-13.2c0-.42-.28-.82-.91-.77Zm27.94-1.41c.2-.11,.37-.26,.51-.44l3.47,3.57-2.07,.7c-.07-.2-.18-.38-.36-.52-.51-.39-1.28-.27-1.72,.28-.44,.55-.38,1.31,.13,1.71,.51,.39,1.28,.27,1.72-.28,.12-.15,.2-.32,.25-.49l2.07,.97v.12c0,4.44,3.6,7.71,8.04,7.31s8.04-4.33,8.04-8.77-3.6-7.71-8.04-7.31c-1.66,.15-3.21,.8-4.5,1.78l-1.75-1.21c.13-.2,.21-.43,.23-.68,.03-.72-.52-1.28-1.24-1.25-.72,.03-1.32,.64-1.36,1.36-.03,.72,.52,1.28,1.23,1.25,.2,0,.38-.06,.55-.15l.38,2.4-4.74-1.61c.03-.26,0-.53-.12-.78-.34-.71-1.22-.96-1.97-.55-.74,.41-1.07,1.32-.73,2.03,.34,.71,1.22,.96,1.97,.55h0Zm13.82,7.65c.59-.05,1.07,.38,1.07,.97s-.48,1.11-1.07,1.16-1.07-.38-1.07-.97,.48-1.11,1.07-1.16Zm-3.71,.34c.59-.05,1.07,.38,1.07,.97s-.48,1.11-1.07,1.16-1.07-.38-1.07-.97,.48-1.11,1.07-1.16Zm8.16,6.88h0Zm-2.44,2.71l-2.16,.18v10.98l2.49-.21c.54-.05,.97-.09,1.28-.15,.31-.05,.63-.15,.96-.3,.33-.14,.62-.33,.86-.57,1.1-1.02,1.65-2.66,1.65-4.93,0-1.6-.24-2.77-.72-3.53-.48-.75-1.08-1.21-1.78-1.37-.71-.16-1.56-.2-2.56-.11h-.02Zm-35.06,10.16l4.84-.4-2.44-6.48-2.4,6.87h0Zm58.09-11.1c-.16,0-.16,.11-.16,.11v.04c0,.39-.14,.75-.41,1.09-.28,.34-.62,.52-1.03,.55-.38,.03-.66-.04-.86-.21-.2-.17-.41-.46-.64-.87-.29-.59-.65-1.03-1.06-1.34-.41-.31-1.08-.42-1.99-.35-.85,.07-1.53,.31-2.05,.73-.52,.41-.78,.88-.78,1.41,0,.32,.09,.6,.27,.82s.42,.4,.73,.55c.31,.14,.62,.25,.94,.32s.84,.17,1.57,.29c.91,.14,1.74,.31,2.48,.5,.74,.2,1.37,.46,1.89,.78,.52,.33,.92,.76,1.21,1.3,.02,.03,.03,.06,.05,.09v-5.69s-.02-.11-.15-.11h-.01Zm-27.22-1.22c-.07,.02-.13,.04-.19,.07l.19-.02v-.05Zm6.65-.54h0Zm18.15,14.21c-.97,.52-2.12,.84-3.46,.95-1.6,.13-2.92-.06-3.95-.58-.74-.37-1.33-.9-1.79-1.59s-.69-1.37-.69-2.06c0-.4,.14-.75,.41-1.06,.28-.31,.63-.48,1.05-.51,.35-.03,.64,.06,.88,.26s.44,.51,.61,.93c.21,.5,.43,.91,.67,1.24s.58,.58,1.01,.77,1.01,.25,1.71,.2c.97-.08,1.76-.37,2.37-.87,.61-.5,.91-1.09,.91-1.77,0-.54-.16-.96-.49-1.27-.33-.31-.75-.53-1.27-.66s-1.21-.26-2.08-.39c-1.16-.18-2.14-.41-2.92-.71s-1.41-.74-1.87-1.34c-.46-.59-.69-1.35-.69-2.29s.24-1.7,.73-2.43c.49-.73,1.19-1.32,2.11-1.77,.26-.13,.53-.24,.81-.33l-12.21,1.08c.45,.01,.86,.05,1.24,.12,.8,.14,1.52,.47,2.16,.98,1.69,1.3,2.53,3.43,2.53,6.37,0,.97-.08,1.86-.25,2.68s-.43,1.56-.78,2.23c-.35,.67-.81,1.29-1.36,1.84-.43,.43-.91,.78-1.42,1.06-.52,.28-1.07,.49-1.66,.63-.59,.14-1.26,.25-2,.31l-4.27,.35c-.6,.05-1.05,0-1.35-.16-.3-.16-.5-.39-.59-.71s-.14-.74-.14-1.26v-11.86c0-.71,.16-1.23,.48-1.57,.15-.17,.35-.3,.6-.4l-5.13,.45,.03,.03c.27,.29,.41,.75,.41,1.37v12.73c0,1.42-.59,2.18-1.77,2.28-.29,.02-.56,0-.8-.06-.24-.07-.46-.18-.66-.35-.21-.17-.4-.37-.57-.6-.18-.23-.35-.47-.53-.71l-6.15-8.92v9.48c0,.62-.14,1.1-.43,1.44s-.66,.53-1.1,.57c-.46,.04-.84-.09-1.12-.39s-.42-.75-.42-1.36v-12.48c0-.53,.06-.95,.18-1.26,.1-.25,.25-.46,.44-.66l-9.09,.8c.12,.1,.23,.21,.32,.34,.19,.26,.35,.54,.47,.84,.13,.3,.29,.71,.49,1.21l4.23,10.09c.33,.77,.5,1.33,.5,1.69s-.16,.73-.47,1.07-.69,.53-1.13,.56c-.26,.02-.48,0-.66-.08s-.34-.19-.46-.34c-.13-.15-.26-.38-.4-.7-.14-.32-.27-.59-.37-.84l-.77-1.97-6.58,.54-.77,2.14c-.3,.83-.56,1.4-.77,1.7s-.56,.47-1.05,.51c-.41,.03-.78-.09-1.09-.36-.32-.28-.47-.6-.47-.99,0-.22,.04-.45,.11-.69,.07-.24,.2-.58,.36-1.01l4.14-10.85c.12-.31,.26-.69,.43-1.12,.17-.44,.34-.8,.53-1.1,.09-.14,.19-.27,.3-.38l-10.63,.94c.09,.03,.18,.05,.26,.09,.51,.17,.96,.44,1.35,.8,.39,.37,.69,.8,.89,1.31s.3,1.06,.3,1.65c0,1.21-.34,2.2-1.02,2.98-.68,.78-1.71,1.37-3.1,1.79,.58,.26,1.14,.67,1.67,1.23s1,1.16,1.42,1.81,.74,1.23,.97,1.76,.35,.9,.35,1.1-.07,.43-.2,.65c-.14,.22-.32,.4-.56,.54s-.51,.22-.82,.25c-.37,.03-.68-.03-.93-.18s-.47-.35-.65-.6-.43-.62-.73-1.11l-1.31-2.08c-.47-.76-.89-1.34-1.26-1.73s-.75-.64-1.13-.77c-.38-.12-.87-.16-1.45-.11l-1.15,.09v5.2c0,.68-.15,1.2-.45,1.55-.3,.35-.7,.54-1.18,.58-.52,.04-.93-.09-1.21-.41-.29-.31-.43-.8-.43-1.45v-12.45c0-.71,.16-1.23,.47-1.57l.06-.06-6.48,.57c.16,.06,.31,.12,.45,.2,.38,.2,.72,.46,1.02,.78,.29,.33,.52,.69,.67,1.1s.23,.85,.23,1.32c0,1.62-.81,2.87-2.43,3.75,2.13,.5,3.19,1.73,3.19,3.69,0,.91-.23,1.74-.7,2.5-.46,.76-1.09,1.35-1.88,1.76-.49,.25-1.06,.44-1.7,.58-.64,.14-1.39,.24-2.24,.31l-4.95,.41c-.71,.06-1.22-.06-1.53-.35-.03-.03-.06-.06-.08-.09v.64s.06,.12,.18,.15c4.06,1.06,75.26,19.72,75.26,19.72l18.86-29.7v-.91c-.1,.25-.22,.49-.37,.72-.5,.82-1.24,1.49-2.21,2.01h-.04Zm2.61-2.79l-.02,.05,.02-.05Zm6.29-30.19c-1.01-.78-2.25-1.1-3.68-.97-1.8,.16-3.15,.4-4.04,.71-.64,.24-.71,.72-.71,.91v1.18c0,.23,.06,.42,.18,.56,.15,.18,.38,.27,.64,.24,.04,0,.15-.02,.19-.03,.69-.21,1.95-.4,3.74-.56,.46-.04,.86,.09,1.19,.42,.33,.31,.5,.69,.5,1.13v.78l-4,.36c-1.44,.13-2.68,.69-3.71,1.67-1.02,.97-1.54,2.16-1.54,3.52s.53,2.49,1.57,3.29c1.01,.77,2.24,1.1,3.68,.97l6.65-.6c.52-.05,.88-.44,.88-.96v-9.36c0-1.36-.53-2.49-1.54-3.26Zm-1.99,10.77l-4,.36c-.48,.04-.89-.09-1.22-.39-.33-.31-.5-.69-.5-1.15s.17-.85,.5-1.22c.33-.36,.74-.57,1.22-.61l4-.36v3.37h0Zm-79.45,19.31l2.94-.24c.79-.07,1.45-.19,1.99-.37,.54-.18,.95-.45,1.23-.8,.28-.35,.43-.81,.43-1.39,0-.45-.11-.83-.34-1.16-.23-.32-.54-.55-.95-.69-.38-.13-1.14-.15-2.26-.06l-3.03,.25v4.45h0Zm-10.28,3.5c-.57-.32-1.43-.43-2.57-.34l-3.41,.28v4.72l3.52-.29c2.22-.18,3.32-1.07,3.32-2.67,0-.82-.29-1.39-.86-1.71h0Zm.71-11.69l1.71-.16c.54-.05,.91-.43,.91-.96v-9.34c0-.44,.17-.86,.5-1.24,.33-.36,.74-.57,1.22-.61l2.31-.21c.46-.04,.86,.09,1.19,.42,.33,.31,.5,.69,.5,1.13v9.35c0,.52,.37,.84,.91,.79l1.74-.16c.52-.05,.88-.44,.88-.96v-9.35c0-1.39-.53-2.49-1.57-3.26-1.01-.78-2.23-1.1-3.65-.97l-2.31,.21c-1.42,.13-2.67,.68-3.71,1.64-1.01,.96-1.54,2.18-1.54,3.54v9.35c0,.52,.37,.84,.91,.79Zm.35,2.53h0Zm-7.04,6.76l3-.25c.82-.07,1.45-.2,1.89-.39,.45-.19,.79-.51,1.02-.97,.18-.32,.28-.68,.28-1.06,0-.82-.29-1.34-.87-1.56-.58-.22-1.47-.28-2.66-.18l-2.66,.22v4.18h0Zm2.55-9.78v-9.35c0-1.36-.53-2.49-1.54-3.26-1.01-.78-2.25-1.1-3.68-.97-1.8,.16-3.15,.4-4.04,.71-.64,.24-.71,.72-.71,.91v1.18c0,.23,.06,.42,.18,.56,.15,.18,.38,.27,.64,.24,.04,0,.15-.02,.19-.03,.69-.21,1.95-.4,3.74-.56,.46-.04,.86,.09,1.19,.42,.33,.31,.5,.69,.5,1.13v.78l-4,.36c-1.44,.13-2.68,.69-3.71,1.67-1.02,.97-1.54,2.16-1.54,3.52s.53,2.49,1.57,3.29c1.01,.77,2.24,1.1,3.68,.97l6.65-.6c.52-.05,.88-.44,.88-.96h0Zm-3.53-1.85l-4,.36c-.48,.04-.89-.09-1.22-.39-.33-.31-.5-.69-.5-1.15s.17-.85,.5-1.22c.33-.36,.74-.57,1.22-.61l4-.36v3.37Z"/>
  </g>
</svg>