<?xml version="1.0" encoding="UTF-8"?>
<svg id="katman_1" data-name="katman 1" xmlns="http://www.w3.org/2000/svg" viewBox="0 0 300 100">
  <path d="M174.14,30.1c0,4.05-1.61,7.94-4.47,10.8-2.86,2.87-6.74,4.48-10.8,4.49h-.02v-6.54c1.15,0,2.28-.23,3.34-.67,1.06-.44,2.02-1.08,2.84-1.9,.81-.81,1.46-1.78,1.89-2.84,.44-1.06,.67-2.2,.67-3.35h6.55Z"/>
  <path d="M138.7,63.51c3.22,.27,5.99-.58,8.1-3.1,1.38-1.65,2.04-3.57,1.98-5.72-.07-2.62-1.14-4.78-3.14-6.46-2-1.69-4.36-2.14-6.94-1.96v-6.51c4.78-.52,10.43,1.5,13.92,6.45,3.52,4.97,3.65,11.77,.27,16.96-1.51,2.34-3.64,4.21-6.14,5.43-2.51,1.21-5.29,1.71-8.07,1.45v-6.54h.02Z"/>
  <path d="M167.64,50.97h6.48v19.14h-6.48v-19.14Z"/>
  <path d="M133.21,49.25h-6.5V30.1h6.5v19.15Z"/>
</svg>