<?xml version="1.0" encoding="UTF-8"?>
<svg id="katman_1" data-name="katman 1" xmlns="http://www.w3.org/2000/svg" viewBox="0 0 300 100">
  <path id="Path_69361" data-name="Path 69361" d="M66.16,59.42c-1.09,2.63-3.72,4.29-6.56,4.13-5.67,0-8.61-4.41-8.61-10.03s2.95-10.02,8.61-10.02c2.85-.16,5.48,1.5,6.56,4.13v-11.81h5.17v27.24h-5.17v-3.64Zm0-6.26c0-3.46-2.07-5.62-5.06-5.62-3.24,0-4.93,2.38-4.93,6s1.68,5.97,4.93,5.97c2.95,0,5.06-2.12,5.06-5.62v-.73Z"/>
  <path id="Path_69362" data-name="Path 69362" d="M92.8,56.82c-1.03,4.24-4.29,6.75-9.17,6.75-5.88,0-10.12-3.76-10.12-9.78s4.28-10.33,9.98-10.33c6.2,0,9.43,4.32,9.43,9.51v1.89h-14.31c.13,2.74,2.43,4.87,5.17,4.8,2.55,0,4.07-1.03,4.8-3.24l4.22,.41Zm-4.93-5.23c-.18-2.2-1.52-4.32-4.41-4.32s-4.28,1.94-4.75,4.32h9.17Z"/>
  <path id="Path_69363" data-name="Path 69363" d="M104.3,43.49c5.66,0,8.77,3.71,9.21,8.27l-4.37,.3c-.39-2.85-1.98-4.63-4.84-4.63s-4.85,2.12-4.85,6.1,1.98,6.06,4.85,6.06,4.44-1.82,4.84-4.71l4.37,.39c-.43,4.58-3.55,8.27-9.21,8.27s-10.08-3.98-10.08-10.03,4.2-10.01,10.08-10.01Z"/>
  <path id="Path_69364" data-name="Path 69364" d="M120.82,35.81v27.24h-5.17v-27.24h5.17Z"/>
  <path id="Path_69365" data-name="Path 69365" d="M140.62,58.43c0,1.03,.52,1.47,1.34,1.47,.55,0,1.1-.14,1.59-.38v2.77c-1.01,.82-2.28,1.25-3.58,1.21-2,.08-3.73-1.36-4.02-3.34-1.08,2.21-3.68,3.38-6.49,3.38-3.97,0-6.4-1.99-6.4-5.28,0-3.63,2.95-5.17,7.23-6l5.23-1.03v-.43c0-2.12-1.12-3.42-3.33-3.42-1.88-.08-3.51,1.29-3.76,3.15l-4.71-.42c.65-3.9,3.64-6.61,8.69-6.61s8.17,2.33,8.17,7.35l.03,7.59Zm-5.06-4.13l-3.59,.77c-2.24,.48-3.84,.87-3.84,2.77,0,1.29,1.03,2.07,2.64,2.07,2.65,0,4.8-2.13,4.81-4.78,0-.13,0-.26-.01-.39v-.44Z"/>
  <path id="Path_69366" data-name="Path 69366" d="M157.74,49.08c-.94-.56-2.01-.84-3.1-.82-2.68,0-4.5,1.9-4.5,5.36v9.42h-5.16v-19.06h5.17v3.64c.7-2.38,2.84-4.04,5.32-4.14,.95-.05,1.9,.22,2.68,.77l-.4,4.82Z"/>
  <path id="Path_69367" data-name="Path 69367" d="M175.64,58.43c0,1.03,.52,1.47,1.34,1.47,.55,0,1.1-.14,1.59-.38v2.77c-1.01,.82-2.28,1.25-3.58,1.21-2,.08-3.73-1.36-4.02-3.34-1.08,2.21-3.68,3.38-6.49,3.38-3.98,0-6.4-1.99-6.4-5.28,0-3.63,2.95-5.17,7.23-6l5.23-1.03v-.43c0-2.12-1.12-3.42-3.33-3.42-1.88-.08-3.51,1.29-3.76,3.15l-4.71-.42c.65-3.9,3.64-6.61,8.69-6.61s8.17,2.33,8.17,7.35l.03,7.59Zm-5.06-4.13l-3.59,.77c-2.25,.48-3.84,.87-3.84,2.77,0,1.29,1.03,2.07,2.64,2.07,2.65,0,4.81-2.15,4.81-4.8,0-.12,0-.24-.01-.37v-.44Z"/>
  <path id="Path_69368" data-name="Path 69368" d="M180.39,47.63h-2.73v-3.1l1.3-.22c1.86-.3,2.38-1.25,2.81-3.03l.6-2.59h3.16v5.28h5.17v3.66h-5.17v9.42c0,1.64,.73,2.38,2.29,2.38,1.13-.07,2.23-.37,3.23-.9v3.41c-1.51,1.14-3.38,1.72-5.27,1.64-2.93,0-5.4-1.29-5.4-5.36v-10.59Z"/>
  <path id="Path_69369" data-name="Path 69369" d="M192.84,35.81h5.32v5.05h-5.32v-5.05Zm5.27,8.17v19.07h-5.17v-19.07h5.17Z"/>
  <path id="Path_69370" data-name="Path 69370" d="M210.31,63.57c-5.55-.01-10.05-4.52-10.03-10.08s4.52-10.05,10.08-10.03c5.55,.01,10.05,4.52,10.03,10.08,.25,5.3-3.85,9.79-9.14,10.04-.31,.01-.62,.01-.93,0Zm0-3.94c3.2,0,4.85-2.5,4.85-6.1s-1.64-6.14-4.85-6.14-4.8,2.51-4.8,6.14,1.64,6.1,4.79,6.1h0Z"/>
  <path id="Path_69371" data-name="Path 69371" d="M227.77,63.05h-5.17v-19.06h5.17v3.1c1.18-2.31,3.6-3.73,6.2-3.63,5.11,0,6.96,3.45,6.96,7.69v11.89h-5.17v-10.85c0-2.95-1.17-4.63-3.71-4.63s-4.29,2.07-4.29,5.27v10.22Z"/>
  <path id="Path_69372" data-name="Path 69372" d="M243.29,57.26h5.8v5.8h-5.8v-5.8Z"/>
</svg>