<?xml version="1.0" encoding="UTF-8"?>
<svg id="katman_1" data-name="katman 1" xmlns="http://www.w3.org/2000/svg" xmlns:xlink="http://www.w3.org/1999/xlink" viewBox="0 0 300 100">
  <defs>
    <style>
      .cls-1 {
        fill: none;
      }

      .cls-2 {
        clip-path: url(#clippath);
      }

      .cls-3 {
        fill: #282828;
      }
    </style>
    <clipPath id="clippath">
      <rect class="cls-1" x="43.93" y="40.51" width="213" height="19.37"/>
    </clipPath>
  </defs>
  <g class="cls-2">
    <g>
      <path class="cls-3" d="M46.05,51.7v7.48h-1.7v-18.01h10.77v1.54h-9.07v8.99Z"/>
      <path class="cls-3" d="M46.24,59.38h-2.08v-18.41h11.15v1.93h-9.07v16.48Zm-1.7-.39h1.32v-16.47h9.03v-1.16h-10.34v17.63h-.01Z"/>
      <path class="cls-3" d="M57.01,59.18h-1.74l7.6-18.44h.12l7.6,18.44h-1.77l-1.23-3.12h-9.31l-1.27,3.12Zm5.94-14.66l-4.05,9.99h8.06l-4.01-9.99Z"/>
      <path class="cls-3" d="M70.9,59.38h-2.2l-1.23-3.12h-9.03l-1.27,3.12h-2.16l7.75-18.83h.39l7.75,18.83Zm-1.93-.39h1.35l-7.37-17.9-7.37,17.9h1.31l1.27-3.12h9.57l1.23,3.12h0Zm-1.74-4.28h-8.6l4.32-10.69,4.28,10.69Zm-8.02-.39h7.48l-3.7-9.26-3.78,9.26Z"/>
      <path class="cls-3" d="M56.82,59.18h-1.74l7.56-18.44h.12l7.6,18.44h-1.74l-1.23-3.12h-9.3l-1.27,3.12Zm5.94-14.66l-4.05,9.99h8.06l-4.01-9.99Z"/>
      <path class="cls-3" d="M70.7,59.38h-2.2l-1.23-3.12h-9.07l-1.27,3.12h-2.16l7.76-18.83h.39l7.79,18.83h0Zm-1.97-.39h1.35l-7.36-17.9-7.33,17.9h1.27l1.27-3.12h9.57l1.23,3.12Zm-1.7-4.28h-8.63l4.36-10.69,4.28,10.69h-.01Zm-8.06-.39h7.48l-3.7-9.26-3.78,9.26Z"/>
      <path class="cls-3" d="M73.56,41.17h5.86c3.4,0,5.05,1.97,5.05,4.44,0,1.74-.85,2.93-2.31,3.59,2.28,.62,3.74,2.31,3.74,4.75,0,2.93-1.89,5.25-5.79,5.25h-6.56v-18.03h.01Zm6.06,7.45c2.28,0,3.16-1.23,3.16-3.01,0-1.66-.96-2.93-3.43-2.93h-4.09v5.94h4.36Zm.35,9.03c3.01,0,4.21-1.62,4.21-3.74s-1.35-3.82-4.28-3.82h-4.63v7.56h4.7Z"/>
      <path class="cls-3" d="M80.12,59.38h-6.75v-18.41h6.06c3.86,0,5.25,2.39,5.25,4.63,0,1.58-.69,2.82-1.97,3.55,2.16,.73,3.4,2.51,3.4,4.78,0,2.62-1.54,5.44-5.98,5.44h-.01Zm-6.37-.38h6.37c3.47,0,5.59-1.93,5.59-5.05,0-2.24-1.35-3.94-3.59-4.55l-.54-.15,.54-.23c1.43-.66,2.2-1.85,2.2-3.43,0-2.62-1.85-4.24-4.86-4.24h-5.71v17.65Zm6.21-1.16h-4.9v-7.95h4.82c2.78,0,4.48,1.5,4.48,4.01s-1.58,3.94-4.4,3.94Zm-4.51-.39h4.48c2.58,0,4.01-1.27,4.01-3.55s-1.47-3.63-4.05-3.63h-4.44v7.18Zm4.17-8.64h-4.55v-6.28h4.24c2.31,0,3.63,1.12,3.63,3.12,.04,2.04-1.16,3.16-3.32,3.16Zm-4.17-.39h4.17c1.97,0,2.97-.93,2.97-2.78,0-1.74-1.16-2.7-3.24-2.7h-3.86v5.49h-.04Z"/>
      <path class="cls-3" d="M73.56,41.17h5.86c3.4,0,5.05,1.97,5.05,4.44,0,1.74-.85,2.93-2.31,3.59,2.28,.62,3.74,2.31,3.74,4.75,0,2.93-1.89,5.25-5.79,5.25h-6.56v-18.03h.01Zm6.06,7.45c2.28,0,3.16-1.23,3.16-3.01,0-1.66-.96-2.93-3.43-2.93h-4.09v5.94h4.36Zm.35,9.03c3.01,0,4.21-1.62,4.21-3.74s-1.35-3.82-4.28-3.82h-4.63v7.56h4.7Z"/>
      <path class="cls-3" d="M80.12,59.38h-6.75v-18.41h6.06c3.86,0,5.25,2.39,5.25,4.63,0,1.58-.69,2.82-1.97,3.55,2.16,.73,3.4,2.51,3.4,4.78,0,2.62-1.54,5.44-5.98,5.44h-.01Zm-6.37-.38h6.37c3.47,0,5.59-1.93,5.59-5.05,0-2.24-1.35-3.94-3.59-4.55l-.54-.15,.54-.23c1.43-.66,2.2-1.85,2.2-3.43,0-2.62-1.85-4.24-4.86-4.24h-5.71v17.65Zm6.21-1.16h-4.9v-7.95h4.82c2.78,0,4.48,1.5,4.48,4.01s-1.58,3.94-4.4,3.94Zm-4.51-.39h4.48c2.58,0,4.01-1.27,4.01-3.55s-1.47-3.63-4.05-3.63h-4.44v7.18Zm4.17-8.64h-4.55v-6.28h4.24c2.31,0,3.63,1.12,3.63,3.12,.04,2.04-1.16,3.16-3.32,3.16Zm-4.17-.39h4.17c1.97,0,2.97-.93,2.97-2.78,0-1.74-1.16-2.7-3.24-2.7h-3.86v5.49h-.04Z"/>
      <path class="cls-3" d="M101.03,59.18h-2.08l-3.59-4.59c-.46,.08-.96,.12-1.47,.12h-2.2v4.51h-1.74v-18.05h3.94c4.9,0,7.45,2.89,7.45,6.79,0,2.89-1.43,5.25-4.21,6.21l3.9,5.02h0Zm-7.29-6.03c4.09,0,5.75-2.2,5.75-5.21s-1.66-5.25-5.75-5.25h-2.08v10.47h2.08Z"/>
      <path class="cls-3" d="M101.41,59.38h-2.58l-3.59-4.59c-.42,.08-.85,.08-1.39,.08h-2.01v4.51h-2.12v-18.41h4.13c4.71,0,7.64,2.66,7.64,6.98,0,3.01-1.5,5.29-4.09,6.33l4.01,5.09h0Zm-2.39-.38h1.58l-3.86-4.9,.27-.08c2.58-.93,4.09-3.12,4.09-6.06,0-4.05-2.78-6.6-7.25-6.6h-3.74v17.64h1.31v-4.51h2.39c.58,0,1.04-.04,1.47-.12h.12l3.63,4.63h-.01Zm-5.29-5.63h-2.28v-10.84h2.28c3.82,0,5.94,1.93,5.94,5.44,.04,3.47-2.08,5.4-5.94,5.4Zm-1.89-.39h1.89c4.59,0,5.56-2.74,5.56-5.02,0-3.24-1.97-5.05-5.56-5.05h-1.89v10.07Z"/>
      <path class="cls-3" d="M101.03,59.18h-2.08l-3.59-4.59c-.46,.08-.96,.12-1.47,.12h-2.2v4.51h-1.74v-18.05h3.94c4.9,0,7.45,2.89,7.45,6.79,0,2.89-1.43,5.25-4.21,6.21l3.9,5.02h0Zm-7.29-6.03c4.09,0,5.75-2.2,5.75-5.21s-1.66-5.25-5.75-5.25h-2.08v10.47h2.08Z"/>
      <path class="cls-3" d="M101.41,59.38h-2.58l-3.59-4.59c-.42,.08-.85,.08-1.39,.08h-2.01v4.51h-2.12v-18.41h4.13c4.71,0,7.64,2.66,7.64,6.98,0,3.01-1.5,5.29-4.09,6.33l4.01,5.09h0Zm-2.39-.38h1.58l-3.86-4.9,.27-.08c2.58-.93,4.09-3.12,4.09-6.06,0-4.05-2.78-6.6-7.25-6.6h-3.74v17.64h1.31v-4.51h2.39c.58,0,1.04-.04,1.47-.12h.12l3.63,4.63h-.01Zm-5.29-5.63h-2.28v-10.84h2.28c3.82,0,5.94,1.93,5.94,5.44,.04,3.47-2.08,5.4-5.94,5.4Zm-1.89-.39h1.89c4.59,0,5.56-2.74,5.56-5.02,0-3.24-1.97-5.05-5.56-5.05h-1.89v10.07Z"/>
      <path class="cls-3" d="M107.16,41.17h-1.74v18.01h1.74v-18.01Z"/>
      <path class="cls-3" d="M107.39,59.38h-2.12v-18.41h2.12v18.41Zm-1.77-.39h1.35v-17.63h-1.35v17.63Z"/>
      <path class="cls-3" d="M107.16,41.17h-1.74v18.01h1.74v-18.01Z"/>
      <path class="cls-3" d="M107.39,59.38h-2.12v-18.41h2.12v18.41Zm-1.77-.39h1.35v-17.63h-1.35v17.63Z"/>
      <path class="cls-3" d="M110.87,50.16c0-5.36,4.01-9.22,9.1-9.22,3.05,0,5.44,1.23,7.06,3.36l-1.31,.96c-1.35-1.74-3.24-2.74-5.79-2.74-4.17,0-7.29,3.28-7.29,7.64s3.16,7.64,7.41,7.64c2.58,0,4.71-1.08,6.13-3.01l1.35,.96c-1.77,2.31-4.28,3.59-7.52,3.59-5.13,.04-9.14-3.82-9.14-9.18Z"/>
      <path class="cls-3" d="M120.05,59.57c-2.58,0-4.98-.96-6.71-2.7s-2.66-4.13-2.66-6.71c0-5.36,4.01-9.41,9.3-9.41,3.01,0,5.52,1.2,7.21,3.43l.12,.15-1.66,1.2-.12-.15c-1.39-1.77-3.28-2.66-5.63-2.66-4.05,0-7.1,3.2-7.1,7.45s3.05,7.45,7.21,7.45c2.47,0,4.51-1,5.98-2.93l.12-.15,1.66,1.2-.12,.15c-1.77,2.47-4.36,3.7-7.6,3.7v-.02Zm-.08-18.44c-5.05,0-8.91,3.9-8.91,9.03,0,2.51,.89,4.78,2.55,6.44s3.94,2.58,6.44,2.58c3.05,0,5.48-1.12,7.25-3.36l-1.04-.73c-1.5,1.93-3.63,2.93-6.17,2.93-4.4,0-7.6-3.32-7.6-7.83s3.2-7.83,7.48-7.83c2.43,0,4.36,.89,5.83,2.7l1-.73c-1.66-2.12-4.01-3.2-6.83-3.2h0Z"/>
      <path class="cls-3" d="M110.87,50.16c0-5.36,4.01-9.22,9.1-9.22,3.05,0,5.44,1.23,7.06,3.36l-1.31,.96c-1.35-1.74-3.24-2.74-5.79-2.74-4.17,0-7.29,3.28-7.29,7.64s3.16,7.64,7.41,7.64c2.58,0,4.71-1.08,6.13-3.01l1.35,.96c-1.77,2.31-4.28,3.59-7.52,3.59-5.13,.04-9.14-3.82-9.14-9.18Z"/>
      <path class="cls-3" d="M120.05,59.57c-2.58,0-4.98-.96-6.71-2.7s-2.66-4.13-2.66-6.71c0-5.36,4.01-9.41,9.3-9.41,3.01,0,5.52,1.2,7.21,3.43l.12,.15-1.66,1.2-.12-.15c-1.39-1.77-3.28-2.66-5.63-2.66-4.05,0-7.1,3.2-7.1,7.45s3.05,7.45,7.21,7.45c2.47,0,4.51-1,5.98-2.93l.12-.15,1.66,1.2-.12,.15c-1.77,2.47-4.36,3.7-7.6,3.7v-.02Zm-.08-18.44c-5.05,0-8.91,3.9-8.91,9.03,0,2.51,.89,4.78,2.55,6.44s3.94,2.58,6.44,2.58c3.05,0,5.48-1.12,7.25-3.36l-1.04-.73c-1.5,1.93-3.63,2.93-6.17,2.93-4.4,0-7.6-3.32-7.6-7.83s3.2-7.83,7.48-7.83c2.43,0,4.36,.89,5.83,2.7l1-.73c-1.66-2.12-4.01-3.2-6.83-3.2h0Z"/>
      <path class="cls-3" d="M55.08,41.17h-1.58v3.94h1.58v-3.94Z"/>
      <path class="cls-3" d="M55.31,45.29h-2.01v-4.32h2.01v4.32Zm-1.62-.39h1.2v-3.54h-1.2v3.55h0Z"/>
      <path class="cls-3" d="M45.97,50.16h5.02v1.5h-5.02"/>
      <path class="cls-3" d="M51.18,51.89h-5.21v-.42h4.83v-1.12h-4.83v-.39h5.21v1.93Z"/>
      <path class="cls-3" d="M55.08,40.97h-11.15v18.4h2.12v-7.48h4.9v-1.93h-4.9v-7.06h7.06v2.39h1.97v-4.32Z"/>
      <path class="cls-3" d="M167.15,42.75v16.66h-.77v-18.9h.12l12.92,17.13v-16.67h.77v18.91h-.12l-12.92-17.13Z"/>
      <path class="cls-3" d="M189.45,41.74h-5.9v-.77h12.69v.77h-5.9v17.67h-.85v-17.67h-.04Z"/>
      <path class="cls-3" d="M199.45,53.32v-12.35h.85v12.27c0,3.63,2.16,5.63,5.21,5.63s5.25-1.97,5.25-5.63v-12.27h.85v12.39c0,4.09-2.66,6.29-6.13,6.29s-6.02-2.2-6.02-6.33h-.01Z"/>
      <path class="cls-3" d="M227.11,59.41h-1.08l-4.13-4.9c-.5,.04-1.04,.12-1.58,.12h-2.59v4.78h-.85v-18.44h3.47c4.94,0,7.37,3.05,7.37,6.83,0,3.05-1.62,5.63-4.86,6.52l4.24,5.09h.01Zm-6.91-5.56c4.71,0,6.64-2.7,6.64-6.06s-1.97-6.06-6.64-6.06h-2.51v12.13h2.51Z"/>
      <path class="cls-3" d="M232.89,52.97v5.67h10.15v.77h-10.99v-18.44h10.65v.77h-9.76v10.5l-.04,.73h0Zm0-1.85h7.1v.77h-7.1"/>
      <path class="cls-3" d="M152.11,52.97v5.67h10.15v.77h-11v-18.44h10.65v.77h-9.76v10.5l-.04,.73Zm0-1.85h7.1v.77h-7.1"/>
      <path class="cls-3" d="M246.13,55.63c1.04,2.01,2.97,3.24,5.32,3.24,2.97,0,4.63-1.54,4.63-3.82s-1.2-3.43-3.9-4.75l-1.7-.81c-2.59-1.27-4.01-2.28-4.01-4.63,0-2.47,1.97-4.05,4.44-4.05,2.24,0,3.7,.81,4.82,2.58l-.66,.39c-.96-1.5-2.24-2.24-4.17-2.24-2.12,0-3.59,1.43-3.59,3.32,0,2.01,1.12,2.74,3.55,3.94l1.66,.81c3.09,1.5,4.4,2.97,4.4,5.44,0,2.74-2.04,4.63-5.48,4.63-2.89,0-4.94-1.47-6.06-3.59l.73-.46h.02Z"/>
      <path class="cls-3" d="M147.05,40.97h-4.13v.77h3.43l-6.37,16.17-6.39-16.17h3.43v-.77h-4.63l7.48,18.9h.12l7.53-18.9h-.47Z"/>
    </g>
  </g>
</svg>