<?xml version="1.0" encoding="UTF-8"?>
<svg id="katman_1" data-name="katman 1" xmlns="http://www.w3.org/2000/svg" viewBox="0 0 300 100">
  <defs>
    <style>
      .cls-1 {
        fill: #fd0000;
      }

      .cls-2 {
        fill: red;
      }

      .cls-3 {
        fill: none;
        stroke: red;
      }
    </style>
  </defs>
  <g id="layer1" transform="translate(-81.145616,-438.12442)">
    <path id="text2396" d="M70.2,44.48h-9.89v-3.07c0-1.94-.08-3.14-.27-3.65s-.62-.74-1.36-.74c-.62,0-1.01,.19-1.24,.62s-.31,1.47-.31,3.22v16.22c0,1.51,.12,2.52,.31,2.99,.23,.47,.66,.74,1.32,.74,.74,0,1.2-.27,1.47-.81,.27-.54,.39-1.59,.39-3.18v-4h-1.98v-5.12h11.6v18.16h-6.25l-.93-2.41c-.66,1.05-1.51,1.82-2.56,2.37-1.01,.5-2.25,.78-3.65,.78-1.67,0-3.22-.35-4.66-1.09-1.44-.7-2.56-1.59-3.3-2.68-.74-1.05-1.2-2.17-1.4-3.34s-.27-2.91-.27-5.24v-10.05c0-3.22,.19-5.59,.58-7.02,.39-1.47,1.51-2.79,3.38-4.04,1.86-1.2,4.27-1.82,7.22-1.82s5.32,.54,7.22,1.59c1.9,1.05,3.14,2.33,3.73,3.76,.58,1.47,.85,3.57,.85,6.32v1.47h0Zm11.21,4.38h-8.92v-1.86c0-2.13,.27-3.8,.85-4.97,.54-1.16,1.67-2.17,3.34-3.07s3.84-1.32,6.52-1.32c3.22,0,6.05,.5,7.68,1.51s2.6,2.25,2.95,3.73c.31,1.47,.5,4.5,.5,9.08v13.93h-9.66v-2.48c-.58,.97-1.32,1.75-2.25,2.21-.93,.5-2.02,.74-3.26,.74-1.67,0-3.18-.43-4.58-1.24s-2.1-2.64-2.1-5.43v-2.29c0-2.06,.35-3.49,1.09-4.23,.74-.74,2.56-1.63,5.47-2.64,3.1-1.09,4.77-1.82,5.01-2.21,.23-.39,.31-1.13,.31-2.29,0-1.44-.12-2.41-.35-2.83-.23-.43-.66-.66-1.2-.66-.66,0-1.05,.19-1.2,.54-.16,.39-.23,1.32-.23,2.87v2.91h.04Zm3.03,3.8c-1.51,.97-2.41,1.82-2.64,2.48-.23,.66-.35,1.63-.35,2.87,0,1.44,.12,2.37,.31,2.79,.19,.43,.62,.62,1.24,.62,.58,0,.97-.16,1.16-.5,.19-.31,.27-1.2,.27-2.56v-5.7h0Zm22.16-14.55l-.16,2.64c.74-1.05,1.63-1.82,2.64-2.37,1.01-.5,2.17-.78,3.49-.78,2.52,0,4.54,1.05,5.98,3.14,.81-1.05,1.71-1.82,2.72-2.37,1.01-.5,2.13-.78,3.34-.78,1.63,0,2.95,.35,4,1.05,1.05,.7,1.75,1.55,2.02,2.56,.31,1.01,.47,2.64,.47,4.93v19.71h-9.2v-18.08c0-2.37-.08-3.84-.27-4.38-.19-.58-.58-.85-1.24-.85s-1.13,.27-1.32,.85c-.19,.54-.31,2.02-.31,4.42v18.08h-9.2v-17.62c0-2.72-.08-4.35-.23-4.89-.16-.54-.54-.81-1.24-.81-.43,0-.78,.16-1.09,.43s-.47,.62-.5,1.05-.04,1.28-.04,2.64v19.21h-9.51v-27.71l9.66-.08h0Zm49.24,14.36h-12.3v6.01c0,1.24,.12,2.06,.31,2.41s.58,.54,1.16,.54c.74,0,1.2-.23,1.44-.74,.23-.47,.35-1.4,.35-2.79v-3.65h9v2.06c0,1.71-.12,3.03-.35,3.96-.23,.93-.81,1.9-1.71,2.95-.89,1.05-2.02,1.82-3.41,2.37-1.36,.5-3.1,.78-5.16,.78s-3.76-.27-5.32-.78-2.72-1.2-3.57-2.13-1.44-1.9-1.78-2.95c-.31-1.09-.5-2.64-.5-4.7v-8.07c0-2.41,.35-4.35,1.09-5.74,.74-1.4,1.94-2.48,3.61-3.22s3.61-1.13,5.78-1.13c2.68,0,4.85,.47,6.6,1.36s2.95,2.1,3.65,3.57c.7,1.47,1.05,3.57,1.05,6.25l.08,3.65h0Zm-9.51-4.5v-2.02c0-1.44-.08-2.37-.27-2.79-.16-.43-.54-.62-1.05-.62-.66,0-1.05,.19-1.2,.54s-.23,1.32-.23,2.87v2.02h2.76Z"/>
    <path id="path2405" class="cls-1" d="M180.21,41.49h-9.2v-2.52c0-1.16-.12-1.9-.35-2.25-.23-.31-.62-.47-1.16-.47-.58,0-1.05,.23-1.36,.66s-.47,1.09-.47,1.98c0,1.13,.16,1.98,.5,2.56,.31,.58,1.28,1.24,2.79,2.06,4.38,2.33,7.18,4.23,8.3,5.74,1.13,1.47,1.71,3.88,1.71,7.22,0,2.41-.31,4.19-.97,5.32-.62,1.13-1.86,2.1-3.69,2.87s-3.92,1.16-6.36,1.16c-2.64,0-4.89-.43-6.79-1.32-1.86-.89-3.1-2.02-3.69-3.41s-.85-3.34-.85-5.86v-2.21h9.2v4.11c0,1.28,.12,2.1,.39,2.44,.27,.35,.7,.54,1.36,.54s1.16-.23,1.47-.7,.47-1.13,.47-2.06c0-1.98-.31-3.3-.93-3.92s-2.17-1.63-4.62-3.07c-2.44-1.44-4.38-2.48-5.2-3.14s-1.47-1.55-1.98-2.72c-.54-1.16-.78-2.64-.78-4.42,0-2.6,.39-4.89,1.13-6.09s1.94-2.13,3.61-2.79,3.96-1.01,6.32-1.01c2.56,0,4.77,.39,6.56,1.13,1.82,.74,3.03,1.67,3.61,2.79,.58,1.13,.89,3.45,.89,6.13l.08,1.24h0Zm14.09-7.84v3.34h2.68v4.38h-2.68v15.87c0,1.82,.12,2.83,.31,3.07,.19,.19,.7,.31,2.25,.31v4.46h-3.84c-2.17,0-3.73-.08-4.62-.23-.93-.16-1.75-.54-2.44-1.13s-1.13-1.24-1.32-1.98c-.16-.74-.27-2.48-.27-5.24v-15.09h-2.06v-4.38h2.06v-3.34l9.93-.04h0Zm26.46,13.43v6.79c0,2.48-.16,4.31-.43,5.47-.27,1.16-.89,2.25-1.82,3.26-.93,1.01-2.1,1.75-3.57,2.25-1.44,.47-3.1,.74-5.01,.74-2.1,0-3.88-.19-5.32-.62-1.47-.43-2.6-1.05-3.41-1.86s-1.4-1.82-1.75-3.03c-.35-1.16-.5-2.95-.5-5.28v-7.1c0-2.56,.31-4.58,.93-6.05,.62-1.44,1.75-2.6,3.38-3.49s3.73-1.32,6.25-1.32c2.13,0,3.96,.27,5.47,.85,1.51,.58,2.72,1.28,3.53,2.21,.81,.89,1.4,1.82,1.71,2.79,.39,.97,.54,2.44,.54,4.38h0Zm-9.51-2.1c0-1.44-.08-2.33-.27-2.68-.16-.39-.54-.54-1.09-.54-.58,0-.93,.19-1.13,.54-.19,.39-.27,1.28-.27,2.68v12.49c0,1.32,.08,2.17,.27,2.56s.54,.58,1.09,.58c.58,0,.93-.19,1.13-.54s.27-1.13,.27-2.33v-12.77h0Zm21.81-7.64l-.16,2.44c.85-.97,1.78-1.75,2.79-2.21,1.01-.5,2.13-.74,3.34-.74,5.63-.19,7.61,2.87,7.68,8.15v11.68c0,2.52-.16,4.31-.5,5.39-1.86,3.73-6.98,4.31-10.55,2.76-1.01-.5-1.9-1.2-2.76-2.17v6.36h-9.51v-31.66h9.66Zm2.68,8.07c0-1.71-.08-2.76-.19-3.1-.16-.35-.54-.54-1.16-.54s-1.05,.19-1.2,.62c-.19,.43-.27,1.44-.27,3.03v11.49c0,1.67,.08,2.72,.27,3.14,.19,.43,.58,.62,1.2,.62s1.01-.19,1.13-.58c.16-.39,.23-1.32,.23-2.79v-11.87Z"/>
    <path id="text2407" class="cls-2" d="M249.86,37.22v-2.48h1.13c.23,0,.39,.04,.5,.08s.19,.12,.27,.23,.12,.23,.12,.39c0,.19-.04,.31-.16,.47-.12,.12-.31,.19-.54,.23,.08,.04,.16,.08,.19,.12,.12,.08,.19,.19,.27,.35l.43,.7h-.43l-.35-.5c-.12-.16-.19-.27-.23-.35-.08-.08-.12-.16-.16-.16-.04-.04-.12-.04-.16-.08h-.58v1.13l-.31-.12h0Zm.35-1.4h.7c.16,0,.27,0,.35-.04s.16-.08,.19-.16c.04-.08,.08-.16,.08-.23,0-.12-.04-.23-.12-.31-.08-.08-.23-.12-.43-.12h-.81v.85h.04Z"/>
    <path id="path2411" class="cls-3" d="M252.85,35.98c0,1.13-.89,2.02-2.02,2.02s-2.02-.89-2.02-2.02,.89-2.02,2.02-2.02,2.02,.89,2.02,2.02Z"/>
  </g>
</svg>