<?xml version="1.0" encoding="UTF-8"?>
<svg id="katman_1" data-name="katman 1" xmlns="http://www.w3.org/2000/svg" viewBox="0 0 300 100">
  <defs>
    <style>
      .cls-1 {
        fill: #fd0000;
      }

      .cls-2 {
        fill: red;
      }

      .cls-3 {
        fill: none;
        stroke: red;
        stroke-miterlimit: 3.52;
        stroke-width: .88px;
      }
    </style>
  </defs>
  <g id="layer1" transform="translate(-81.145616,-438.12442)">
    <path id="text2396" d="M89.09,45.86h-8.12v-2.52c0-1.59-.08-2.58-.23-2.98-.15-.4-.52-.6-1.1-.6-.5,0-.84,.17-1.02,.51-.18,.34-.27,1.22-.27,2.64v13.32c0,1.25,.09,2.07,.27,2.46,.18,.39,.54,.59,1.08,.59,.59,0,.99-.22,1.21-.67,.21-.45,.32-1.31,.32-2.61v-3.29h-1.64v-4.22h9.51v14.9h-5.11l-.75-1.99c-.55,.86-1.25,1.5-2.09,1.93-.84,.43-1.84,.64-2.98,.64-1.36,0-2.64-.29-3.83-.88-1.19-.59-2.09-1.32-2.71-2.19-.62-.87-1-1.78-1.16-2.73-.15-.95-.23-2.39-.23-4.29v-8.25c0-2.65,.16-4.58,.48-5.78,.32-1.2,1.24-2.3,2.77-3.3,1.52-1,3.49-1.5,5.91-1.5,2.38,0,4.35,.43,5.92,1.3,1.57,.87,2.59,1.9,3.07,3.09,.48,1.19,.71,2.93,.71,5.2v1.2h0Zm9.22,3.6h-7.31v-1.53c0-1.76,.23-3.12,.68-4.07,.46-.95,1.37-1.8,2.75-2.53,1.38-.73,3.16-1.1,5.36-1.1,2.64,0,4.96,.41,6.3,1.24,1.34,.83,2.14,1.85,2.41,3.05,.27,1.21,.41,3.69,.41,7.45v11.42h-7.92v-2.02c-.48,.81-1.09,1.42-1.84,1.83-.75,.41-1.65,.61-2.69,.61-1.36,0-2.61-.34-3.75-1.02s-1.71-2.17-1.71-4.47v-1.87c0-1.7,.3-2.86,.91-3.48,.6-.62,2.1-1.34,4.49-2.16,2.56-.89,3.93-1.49,4.11-1.8,.18-.31,.27-.94,.27-1.89,0-1.19-.1-1.96-.3-2.32-.2-.36-.53-.54-.99-.54-.53,0-.86,.15-.98,.45-.13,.3-.19,1.09-.19,2.36v2.38Zm2.47,3.12c-1.25,.81-1.97,1.49-2.17,2.04-.2,.55-.3,1.34-.3,2.37,0,1.18,.09,1.94,.26,2.28,.17,.34,.52,.51,1.03,.51s.81-.13,.95-.4c.15-.27,.22-.97,.22-2.12v-4.68h0Zm18.17-11.93l-.14,2.16c.6-.86,1.32-1.5,2.16-1.93,.84-.43,1.79-.64,2.85-.64,2.08,0,3.72,.86,4.92,2.57,.66-.86,1.4-1.5,2.22-1.93,.82-.43,1.74-.64,2.74-.64,1.32,0,2.42,.29,3.29,.86,.87,.57,1.42,1.27,1.67,2.1,.24,.83,.37,2.17,.37,4.04v16.17h-7.56v-14.83c0-1.94-.07-3.15-.22-3.61-.15-.46-.49-.69-1.03-.69-.55,0-.91,.23-1.07,.69-.16,.46-.24,1.66-.24,3.62v14.83h-7.56v-14.45c0-2.23-.06-3.57-.18-4.01-.12-.45-.46-.67-1.01-.67-.35,0-.64,.12-.89,.35-.24,.23-.38,.52-.41,.86-.03,.34-.04,1.05-.04,2.15v15.77h-7.81v-22.75h7.95Zm40.43,11.78h-10.09v4.92c0,1.03,.08,1.69,.25,1.99,.17,.3,.49,.45,.96,.45,.59,0,.99-.2,1.19-.59,.2-.39,.3-1.16,.3-2.29v-3h7.39v1.68c0,1.41-.1,2.49-.3,3.24-.2,.75-.67,1.56-1.4,2.42-.73,.86-1.66,1.5-2.79,1.93-1.13,.43-2.54,.64-4.23,.64s-3.1-.21-4.36-.63-2.24-1-2.94-1.74-1.19-1.55-1.46-2.43c-.27-.89-.41-2.17-.41-3.87v-6.63c0-1.99,.3-3.56,.91-4.71,.6-1.15,1.59-2.03,2.97-2.64,1.38-.61,2.96-.92,4.75-.92,2.19,0,3.99,.37,5.41,1.11,1.42,.74,2.42,1.71,2.99,2.93,.57,1.22,.86,2.93,.86,5.13v3.02h0Zm-7.81-3.7v-1.66c0-1.18-.07-1.94-.21-2.28-.14-.34-.43-.51-.87-.51-.54,0-.87,.15-1,.44-.13,.29-.19,1.08-.19,2.36v1.66h2.28Z"/>
    <path id="path2405" class="cls-1" d="M179.38,43.41h-7.54v-2.06c0-.96-.1-1.57-.29-1.83-.19-.26-.51-.39-.96-.39-.49,0-.86,.18-1.11,.53-.25,.35-.38,.89-.38,1.61,0,.93,.14,1.62,.42,2.09,.27,.47,1.04,1.03,2.3,1.7,3.61,1.91,5.89,3.47,6.83,4.7,.94,1.22,1.41,3.19,1.41,5.91,0,1.98-.26,3.43-.78,4.37-.52,.94-1.53,1.72-3.02,2.36-1.49,.63-3.23,.95-5.21,.95-2.17,0-4.03-.37-5.56-1.1-1.54-.73-2.54-1.66-3.02-2.79-.48-1.13-.71-2.74-.71-4.82v-1.82h7.54v3.38c0,1.04,.11,1.71,.32,2.01,.21,.3,.59,.45,1.13,.45s.94-.19,1.21-.57c.26-.38,.4-.94,.4-1.68,0-1.63-.25-2.7-.75-3.21-.51-.5-1.78-1.34-3.8-2.52-2.02-1.19-3.61-2.05-4.27-2.59s-1.2-1.28-1.63-2.23c-.43-.95-.65-2.16-.65-3.63,0-2.13,.31-4.02,.92-5,.61-.98,1.6-1.75,2.96-2.31,1.36-.55,3.26-.83,5.19-.83,2.11,0,3.91,.3,5.39,.91,1.49,.61,2.47,1.37,2.95,2.29,.48,.92,.72,2.82,.72,5.03v1.1h0Zm11.56-6.43v2.74h2.19v3.6h-2.19v13.02c0,1.5,.09,2.33,.26,2.5,.17,.17,.56,.26,1.83,.26v3.67h-3.14c-1.77,0-3.04-.07-3.8-.2-.76-.13-1.43-.43-2.01-.91s-.94-1.02-1.08-1.63c-.14-.61-.21-2.05-.21-4.31v-12.4h-1.68v-3.6h1.68v-2.74h8.15Zm21.7,11.02v5.57c0,2.05-.12,3.55-.35,4.5-.23,.95-.73,1.85-1.49,2.67-.76,.83-1.73,1.44-2.92,1.83-1.19,.39-2.56,.59-4.1,.59-1.72,0-3.18-.17-4.38-.51-1.2-.34-2.12-.85-2.79-1.53s-1.13-1.5-1.42-2.47c-.28-.97-.42-2.41-.42-4.35v-5.83c0-2.11,.26-3.77,.77-4.95,.51-1.19,1.44-2.14,2.78-2.86,1.34-.72,3.05-1.08,5.13-1.08,1.75,0,3.25,.23,4.5,.69,1.25,.46,2.22,1.07,2.9,1.81,.68,.74,1.15,1.51,1.4,2.3,.25,.79,.38,1.99,.38,3.6h0Zm-7.79-1.71c0-1.17-.07-1.9-.21-2.2-.14-.3-.44-.45-.91-.45-.46,0-.77,.15-.93,.45-.15,.3-.23,1.04-.23,2.2v10.27c0,1.07,.08,1.77,.23,2.1,.15,.33,.46,.49,.91,.49s.77-.15,.92-.45c.15-.3,.22-.94,.22-1.92v-10.49h0Zm17.88-6.27l-.14,2.01c.69-.81,1.46-1.42,2.3-1.82,.84-.4,1.75-.6,2.74-.6,4.62-.17,6.24,2.36,6.29,6.7v9.58c0,2.07-.14,3.54-.41,4.41-1.53,3.05-5.72,3.53-8.66,2.27-.82-.4-1.58-.99-2.26-1.78v5.21h-7.79v-25.99h7.93Zm2.22,6.62c0-1.41-.06-2.26-.17-2.55-.12-.3-.44-.45-.96-.45-.51,0-.85,.17-.99,.51-.15,.34-.22,1.17-.22,2.49v9.43c0,1.37,.08,2.23,.23,2.57,.15,.34,.49,.51,1,.51s.81-.16,.94-.47c.12-.31,.18-1.08,.18-2.29v-9.75Z"/>
    <path id="text2407" class="cls-2" d="M236.54,39.92v-2.07h.92c.18,0,.32,.02,.42,.06,.1,.04,.17,.1,.23,.2s.09,.2,.09,.31c0,.15-.05,.27-.14,.37-.09,.1-.24,.16-.44,.19,.07,.03,.13,.07,.16,.1,.08,.07,.16,.16,.23,.27l.36,.56h-.34l-.27-.43c-.08-.12-.15-.22-.2-.28-.05-.07-.1-.11-.14-.14-.04-.03-.08-.04-.12-.05-.03,0-.08,0-.15,0h-.32v.92h-.27Zm.27-1.15h.59c.12,0,.22-.01,.29-.04,.07-.03,.12-.07,.16-.12,.04-.06,.05-.12,.05-.19,0-.1-.04-.18-.11-.24-.07-.06-.18-.09-.34-.09h-.65v.68Z"/>
    <path id="path2411" class="cls-3" d="M238.99,38.89c0,.92-.75,1.67-1.67,1.67s-1.67-.75-1.67-1.67,.75-1.67,1.67-1.67,1.67,.75,1.67,1.67Z"/>
  </g>
</svg>