<?xml version="1.0" encoding="UTF-8"?>
<svg id="katman_1" data-name="katman 1" xmlns="http://www.w3.org/2000/svg" xmlns:xlink="http://www.w3.org/1999/xlink" viewBox="0 0 300 100">
  <defs>
    <style>
      .cls-1 {
        mask: url(#mask-11);
      }

      .cls-2 {
        mask: url(#mask-10);
      }

      .cls-3 {
        mask: url(#mask);
      }

      .cls-4 {
        fill: #fff;
      }

      .cls-4, .cls-5 {
        fill-rule: evenodd;
      }

      .cls-5 {
        fill: #ee742b;
      }

      .cls-6 {
        mask: url(#mask-3);
      }

      .cls-7 {
        mask: url(#mask-2);
      }

      .cls-8 {
        mask: url(#mask-5);
      }

      .cls-9 {
        mask: url(#mask-4);
      }

      .cls-10 {
        mask: url(#mask-1);
      }

      .cls-11 {
        mask: url(#mask-7);
      }

      .cls-12 {
        mask: url(#mask-6);
      }

      .cls-13 {
        mask: url(#mask-8);
      }

      .cls-14 {
        mask: url(#mask-9);
      }
    </style>
    <mask id="mask" x="107.51" y="7.79" width="84.49" height="83.8" maskUnits="userSpaceOnUse">
      <g id="liberty-logo-orange-b">
        <polygon id="liberty-logo-orange-a" class="cls-4" points="107.51 7.79 192 7.79 192 91.58 107.51 91.58 107.51 7.79"/>
      </g>
    </mask>
    <mask id="mask-1" x="107.51" y="7.79" width="84.49" height="83.8" maskUnits="userSpaceOnUse">
      <g id="liberty-logo-orange-d">
        <polygon id="liberty-logo-orange-c" class="cls-4" points="107.51 91.58 192 91.58 192 7.79 107.51 7.79 107.51 91.58"/>
      </g>
    </mask>
    <mask id="mask-2" x="107.51" y="7.79" width="84.49" height="83.8" maskUnits="userSpaceOnUse">
      <g id="liberty-logo-orange-d-2" data-name="liberty-logo-orange-d">
        <polygon id="liberty-logo-orange-c-2" data-name="liberty-logo-orange-c" class="cls-4" points="107.51 91.58 192 91.58 192 7.79 107.51 7.79 107.51 91.58"/>
      </g>
    </mask>
    <mask id="mask-3" x="107.51" y="7.79" width="84.49" height="83.8" maskUnits="userSpaceOnUse">
      <g id="liberty-logo-orange-d-3" data-name="liberty-logo-orange-d">
        <polygon id="liberty-logo-orange-c-3" data-name="liberty-logo-orange-c" class="cls-4" points="107.51 91.58 192 91.58 192 7.79 107.51 7.79 107.51 91.58"/>
      </g>
    </mask>
    <mask id="mask-4" x="107.51" y="7.79" width="84.49" height="83.8" maskUnits="userSpaceOnUse">
      <g id="liberty-logo-orange-d-4" data-name="liberty-logo-orange-d">
        <polygon id="liberty-logo-orange-c-4" data-name="liberty-logo-orange-c" class="cls-4" points="107.51 91.58 192 91.58 192 7.79 107.51 7.79 107.51 91.58"/>
      </g>
    </mask>
    <mask id="mask-5" x="107.51" y="7.79" width="84.49" height="83.8" maskUnits="userSpaceOnUse">
      <g id="liberty-logo-orange-d-5" data-name="liberty-logo-orange-d">
        <polygon id="liberty-logo-orange-c-5" data-name="liberty-logo-orange-c" class="cls-4" points="107.51 91.58 192 91.58 192 7.79 107.51 7.79 107.51 91.58"/>
      </g>
    </mask>
    <mask id="mask-6" x="107.51" y="7.79" width="84.49" height="83.8" maskUnits="userSpaceOnUse">
      <g id="liberty-logo-orange-d-6" data-name="liberty-logo-orange-d">
        <polygon id="liberty-logo-orange-c-6" data-name="liberty-logo-orange-c" class="cls-4" points="107.51 91.58 192 91.58 192 7.79 107.51 7.79 107.51 91.58"/>
      </g>
    </mask>
    <mask id="mask-7" x="107.51" y="7.79" width="84.49" height="83.8" maskUnits="userSpaceOnUse">
      <g id="liberty-logo-orange-d-7" data-name="liberty-logo-orange-d">
        <polygon id="liberty-logo-orange-c-7" data-name="liberty-logo-orange-c" class="cls-4" points="107.51 91.58 192 91.58 192 7.79 107.51 7.79 107.51 91.58"/>
      </g>
    </mask>
    <mask id="mask-8" x="107.51" y="7.79" width="84.49" height="83.8" maskUnits="userSpaceOnUse">
      <g id="liberty-logo-orange-d-8" data-name="liberty-logo-orange-d">
        <polygon id="liberty-logo-orange-c-8" data-name="liberty-logo-orange-c" class="cls-4" points="107.51 91.58 192 91.58 192 7.79 107.51 7.79 107.51 91.58"/>
      </g>
    </mask>
    <mask id="mask-9" x="107.51" y="7.79" width="84.49" height="83.8" maskUnits="userSpaceOnUse">
      <g id="liberty-logo-orange-d-9" data-name="liberty-logo-orange-d">
        <polygon id="liberty-logo-orange-c-9" data-name="liberty-logo-orange-c" class="cls-4" points="107.51 91.58 192 91.58 192 7.79 107.51 7.79 107.51 91.58"/>
      </g>
    </mask>
    <mask id="mask-10" x="107.51" y="7.79" width="84.49" height="83.8" maskUnits="userSpaceOnUse">
      <g id="liberty-logo-orange-d-10" data-name="liberty-logo-orange-d">
        <polygon id="liberty-logo-orange-c-10" data-name="liberty-logo-orange-c" class="cls-4" points="107.51 91.58 192 91.58 192 7.79 107.51 7.79 107.51 91.58"/>
      </g>
    </mask>
    <mask id="mask-11" x="107.51" y="7.79" width="84.49" height="83.8" maskUnits="userSpaceOnUse">
      <g id="liberty-logo-orange-d-11" data-name="liberty-logo-orange-d">
        <polygon id="liberty-logo-orange-c-11" data-name="liberty-logo-orange-c" class="cls-4" points="107.51 91.58 192 91.58 192 7.79 107.51 7.79 107.51 91.58"/>
      </g>
    </mask>
  </defs>
  <g transform="translate(0 .168)">
    <g class="cls-3">
      <path class="cls-5" d="M149.76,91.58c23.33,0,42.24-18.76,42.24-41.9S173.09,7.79,149.76,7.79s-42.24,18.76-42.24,41.9,18.91,41.9,42.24,41.9"/>
    </g>
  </g>
  <polygon class="cls-4" points="128.12 57.72 129.65 57.72 129.65 64.14 132.82 64.14 132.82 65.46 128.12 65.46 128.12 57.72"/>
  <g class="cls-10">
    <polygon class="cls-4" points="134.1 65.46 135.62 65.46 135.62 57.72 134.1 57.72 134.1 65.46"/>
  </g>
  <g class="cls-7">
    <path class="cls-4" d="M137.52,57.81c.74-.11,1.74-.2,2.45-.2,1.77,0,2.97,.6,2.97,2.1,0,.91-.45,1.42-1.1,1.66v.05c.88,.28,1.28,.85,1.28,1.85,0,1.69-1.17,2.32-3.14,2.32-.68,0-1.71-.07-2.46-.18v-7.59Zm2.69,3.1c.76,0,1.17-.25,1.17-.99,0-.84-.56-1-1.43-1-.24,0-.56,.01-.91,.05v1.93h1.16Zm-.21,3.36c.96,0,1.56-.17,1.56-1.08,0-.79-.46-1.08-1.3-1.08h-1.22v2.11c.38,.04,.7,.05,.96,.05Z"/>
  </g>
  <g class="cls-6">
    <polygon class="cls-4" points="144.69 57.72 149.44 57.72 149.44 59.05 146.22 59.05 146.22 60.85 148.95 60.85 148.95 62.14 146.22 62.14 146.22 64.14 149.44 64.14 149.44 65.46 144.69 65.46 144.69 57.72"/>
  </g>
  <g class="cls-9">
    <path class="cls-4" d="M151.04,57.83c.61-.1,1.68-.22,2.48-.22,1.74,0,3.02,.58,3.02,2.4,0,1.25-.59,1.92-1.44,2.23,.46,.95,1.14,2.13,1.77,3.18v.02h-1.81c-.54-.97-1.1-2.05-1.54-2.97-.36,0-.69-.02-.96-.06v3.03h-1.53v-7.63Zm2.43,3.48c.97,0,1.51-.25,1.51-1.2s-.54-1.19-1.49-1.19c-.29,0-.67,.02-.93,.05v2.29c.29,.04,.7,.05,.91,.05Z"/>
  </g>
  <g class="cls-8">
    <polygon class="cls-4" points="159.8 59.05 157.62 59.05 157.62 57.72 163.51 57.72 163.51 59.05 161.33 59.05 161.33 65.46 159.8 65.46 159.8 59.05"/>
  </g>
  <g class="cls-12">
    <path class="cls-4" d="M167.18,62.57c-.98-1.55-1.89-3.12-2.69-4.84h1.66c.55,1.19,1.15,2.33,1.79,3.42h.05c.64-1.09,1.25-2.24,1.79-3.42h1.6c-.8,1.72-1.7,3.29-2.68,4.84v2.9h-1.53v-2.9Zm-33.69,8.25c0-1.86,.73-3,2.82-3,.53,0,1.09,.07,1.58,.17l-.15,.98c-.42-.07-1.01-.15-1.43-.15-1.38,0-1.64,.8-1.64,1.98s.26,2.07,1.44,2.07c.23,0,.58-.04,.83-.11v-2.05h1.16v2.73c-.55,.27-1.3,.44-2.01,.44-1.88,0-2.6-1.23-2.6-3.07"/>
  </g>
  <g class="cls-11">
    <polygon class="cls-4" points="139.5 67.9 140.66 67.9 140.66 72.79 143.08 72.79 143.08 73.79 139.5 73.79 139.5 67.9"/>
  </g>
  <g class="cls-13">
    <path class="cls-4" d="M146.42,67.81c1.9,0,2.59,1.09,2.59,3.04s-.69,3.04-2.59,3.04-2.59-1.09-2.59-3.04,.69-3.04,2.59-3.04m0,5.07c1.14,0,1.41-.71,1.41-2.03s-.27-2.03-1.41-2.03-1.41,.71-1.41,2.03,.27,2.03,1.41,2.03m3.87-4.91c.56-.08,1.33-.16,1.86-.16,1.35,0,2.26,.46,2.26,1.6,0,.69-.34,1.08-.84,1.26v.04c.67,.21,.98,.65,.98,1.41,0,1.29-.89,1.76-2.39,1.76-.52,0-1.3-.06-1.87-.14v-5.78Zm2.05,2.36c.58,0,.89-.19,.89-.75,0-.64-.42-.76-1.09-.76-.18,0-.42,0-.69,.04v1.47h.89Zm-.16,2.56c.73,0,1.19-.13,1.19-.82,0-.6-.35-.82-.99-.82h-.93v1.61c.29,.03,.53,.04,.73,.04Zm4.9-4.98h1.53c.65,1.76,1.3,3.91,1.82,5.89h-1.19l-.32-1.26h-2.16l-.32,1.26h-1.17c.52-1.98,1.17-4.13,1.82-5.89Zm1.56,3.64c-.25-.91-.53-1.8-.78-2.59h-.04c-.26,.79-.53,1.68-.79,2.59h1.61Z"/>
  </g>
  <g class="cls-14">
    <polygon class="cls-4" points="161.45 67.9 162.61 67.9 162.61 72.79 165.03 72.79 165.03 73.79 161.45 73.79 161.45 67.9"/>
  </g>
  <g class="cls-2">
    <path class="cls-4" d="M140.1,41.21c-.68-3.32-.17-7.95,2.03-8.75-.1-1.14-.09-2.5-.06-3.62,.03-1.21,.11-2.11-.3-2.05-.49,.07-2.1,3.3-2.45,7.45-.13,1.5-.02,3,.2,4.36,.15,.88,.34,1.75,.58,2.61m19.18,0c.24-.86,.43-1.73,.58-2.61,.22-1.37,.33-2.86,.2-4.36-.35-4.15-1.96-7.39-2.45-7.45-.41-.06-.33,.84-.3,2.05,.03,1.13,.04,2.49-.06,3.62,2.2,.81,2.71,5.43,2.03,8.75m-13.99-6.49c1.28,3.05,2.05,6.36,2.25,7.11,.22-.31,1.09-1.1,2.15-1.1s1.91,.79,2.13,1.1c.2-.74,.97-4.06,2.25-7.11-.06-.57-.37-2.27-.5-2.88-.25-1.15-1.42-6.35-3.88-6.35s-3.65,5.2-3.9,6.35c-.13,.61-.44,2.31-.5,2.88m-.56-.98c.42-2.49,.84-3.97,1.36-5.35-.98,.17-2.11,2.45-2.46,4.2,.55,.36,1.08,1.11,1.11,1.15m11.03-1.15c-.35-1.75-1.48-4.03-2.46-4.2,.52,1.37,.94,2.86,1.36,5.35,.03-.04,.55-.79,1.11-1.15"/>
  </g>
  <g class="cls-1">
    <path class="cls-4" d="M158.7,46.84s-.1,.06-.1,.02c0-.02,.12-.12,.12-.12,2.68-2.11,3.77-6.11,3.31-6.47-.25-.08-.69,.89-1.32,2.07-.49,.9-.95,1.48-.95,1.48,0,0-.04,.06-.07,.05-.02,0,.01-.07,.01-.07,1.93-3.95,2.14-6.73,2.21-8.01,.15-2.88-.37-3.02-.58-2.08-.25,1.09-.53,2.49-.75,3.87-.59,3.8-2.23,7.59-3.53,9.66-.19,.3-.36,.28-.4,.22-.03-.05-.01-.12,.11-.34,3.74-6.86,2.15-13.77-.06-13.85-2.13-.08-4.16,8.23-4.39,9.14,1.43,2.43,1.77,5.79,1.67,6.64,0,.07-.07,.13-.14,.13-.08,0-.15-.06-.15-.14h0c0-1.55-1.18-7.44-3.97-7.44s-3.97,5.89-3.97,7.44h0c0,.08-.07,.14-.15,.14-.07,0-.13-.06-.14-.13-.1-.85,.24-4.21,1.67-6.64-.24-.91-2.27-9.21-4.39-9.14-2.21,.08-3.8,6.99-.06,13.85,.12,.22,.14,.29,.11,.34-.04,.06-.2,.08-.4-.22-1.3-2.07-2.95-5.85-3.53-9.66-.21-1.38-.5-2.78-.75-3.87-.21-.94-.73-.8-.58,2.08,.07,1.28,.28,4.06,2.21,8.01,0,0,.03,.06,.01,.07-.02,0-.07-.05-.07-.05,0,0-.47-.58-.95-1.48-.64-1.18-1.08-2.15-1.32-2.07-.47,.36,.62,4.36,3.3,6.47,0,0,.12,.1,.12,.12,0,.04-.1-.02-.1-.02-1.04-.64-2.45-2.07-2.68-1.56-.17,.59,2,3.11,5.48,4.37,0,0,.24,.08,.24,.13s-.15,0-.15,0c-.5-.15-2.12-.77-2.54-.71-.45,.06-.19,.38,.24,.75,.42,.37,2.38,1.53,5.07,1.72,.02,.24,.96,1.08,3.33,1.08s3.32-.84,3.34-1.08c2.69-.19,4.65-1.35,5.07-1.72,.43-.37,.69-.69,.24-.75-.42-.06-2.05,.56-2.54,.71,0,0-.15,.04-.15,0,0-.05,.24-.13,.24-.13,3.48-1.26,5.64-3.78,5.48-4.37-.23-.51-1.63,.92-2.68,1.56"/>
  </g>
</svg>