<?xml version="1.0" encoding="UTF-8"?>
<svg id="katman_1" data-name="katman 1" xmlns="http://www.w3.org/2000/svg" viewBox="0 0 300 100">
  <defs>
    <style>
      .cls-1 {
        fill: #0332af;
        fill-rule: evenodd;
      }
    </style>
  </defs>
  <path id="path1551" class="cls-1" d="M118.11,69.31v7.42h3.8c2.04,0,3.71-1.67,3.71-3.71s-1.67-3.71-3.71-3.71h-3.8Zm25.96-.09c-2.13,0-3.8,1.67-3.8,3.8s1.67,3.8,3.8,3.8,3.8-1.67,3.8-3.8-1.67-3.8-3.8-3.8m35.79-1.76c1.67,0,2.97,.46,4.08,1.58l.18,.19-1.2,1.39-.28-.28c-.83-.83-1.67-1.21-2.78-1.21s-1.85,.46-1.85,1.21c0,.56,.18,1.02,2.22,1.48,1.3,.37,2.32,.65,3.06,1.21,.74,.56,1.11,1.3,1.3,2.6,0,1.95-1.76,3.25-4.36,3.25-1.85,0-3.43-.74-4.36-1.95l-.18-.28,1.3-1.21,.18,.28c.84,.93,1.76,1.39,2.97,1.39,1.02,0,2.32-.28,2.32-1.48,0-.84-.37-1.3-2.6-1.76-2.41-.65-3.8-1.3-3.8-3.34,0-1.86,1.58-3.06,3.8-3.06m-17.25,0h1.85v5.94c0,1.95,1.58,3.52,3.52,3.52s3.52-1.58,3.52-3.52v-5.94h1.85v5.94c0,2.97-2.41,5.38-5.38,5.38s-5.38-2.41-5.38-5.38v-5.94h.02Zm-6.86,0c1.67,0,2.97,.46,4.08,1.58l.18,.19-1.2,1.39-.28-.28c-.83-.83-1.67-1.21-2.78-1.21s-1.85,.46-1.85,1.21c0,.56,.18,1.02,2.22,1.48,1.3,.37,2.32,.65,3.06,1.21,.83,.56,1.11,1.3,1.3,2.6,0,1.95-1.76,3.25-4.36,3.25-1.85,0-3.43-.74-4.36-1.95l-.18-.28,1.3-1.21,.18,.28c.84,.93,1.76,1.39,2.97,1.39,1.02,0,2.32-.28,2.32-1.48,0-.84-.37-1.3-2.6-1.76-2.41-.65-3.8-1.3-3.8-3.34,0-1.86,1.58-3.06,3.8-3.06m-39.49-.03h5.66c3.06,0,5.56,2.6,5.56,5.66s-2.5,5.57-5.56,5.57h-3.81v5.29h-1.85v-16.51h0Zm27.82-.1c3.15,0,5.75,2.6,5.66,5.66,0,3.16-2.5,5.66-5.66,5.66s-5.66-2.5-5.66-5.66,2.5-5.66,5.66-5.66m-8.81,0c.28,0,.56,.09,.74,.09s.46,0,.74,.09v1.95c-.46-.19-.93-.28-1.39-.28-2.04,0-3.8,1.39-3.8,3.8v5.57h-1.85v-5.66c0-3.25,2.5-5.57,5.56-5.57m34.95-41.56s.09-.09,.09,0v10.67c0,2.23-.83,4.17-2.13,5.84-.65,.84-1.39,1.58-2.32,2.23l-.18,.18c-2.69-1.95-5.47-3.99-8.16-5.94,.28-.18,.46-.37,.74-.56,2.5-1.86,5.1-3.62,7.6-5.48,1.86-1.39,3.15-3.06,3.9-5.29,.18-.46,.28-.93,.37-1.39,0-.09,0-.19,.09-.28m-40.14-1.37c.74,.56,1.48,1.11,2.13,1.58,3.62,2.69,7.32,5.38,10.94,7.98,4.17,3.06,8.44,6.12,12.61,9.28,2.97,2.13,8.99,6.59,8.99,6.59l3.9-2.78v11.88l-3.9,2.78-34.67-25.52v-11.79Zm21.14-7.79c1.39-.18,2.87-.18,4.26,0,1.48,.19,2.88,.56,4.17,1.21,.84,.37,1.67,.93,2.32,1.48,1.3,1.11,2.23,2.41,2.5,4.08,.37,1.76,0,3.25-1.02,4.73-.65,.93-1.39,1.67-2.32,2.23l-.09,.09-.09-.09c-2.78-1.76-5.75-2.32-8.99-2.04-1.76,.19-3.43,.56-4.91,1.39-.28,.19-.65,.37-.93,.56-.09,0-.18,.09-.18,.09l-7.98-5.94c.28-.18,.56-.46,.93-.65,2.23-1.58,4.45-3.25,6.58-4.82,1.76-1.3,3.71-2.04,5.75-2.32"/>
</svg>