<?xml version="1.0" encoding="UTF-8"?>
<svg id="katman_1" data-name="katman 1" xmlns="http://www.w3.org/2000/svg" viewBox="0 0 300 100">
  <path d="M92.53,56.35c0,1,.1,1.3,1.1,1.4l1.6,.1v.9h-8.7v-.9l1.5-.1c.9-.1,1.1-.4,1.1-1.4v-13.8h-1.2c-2.5,0-2.8,.9-3.6,3.5h-.9v-4.6h14.9v4.7h-.9c-.7-2.7-1.1-3.6-3.5-3.6h-1.4v13.8Z"/>
  <path d="M104.33,43.85c0-1.3-.2-1.4-2.1-1.5v-.9h13.2v4.5h-.9c-.7-2.5-1.1-3.4-3.7-3.4h-2.2c-.7,0-.9,.2-.9,.9v5.7h2.9c1.7,0,2-.5,2.3-2.3h.9v5.7h-.9c-.3-1.8-.6-2.2-2.3-2.2h-2.9v5.4c0,1.6,.2,1.9,3,1.9,3,0,3.9-1,4.7-3.8h.8l-.1,4.9h-13.8v-.9c1.9-.1,2-.2,2-1.5v-12.5Z"/>
  <path d="M120.33,58.75v-.9c1.3-.1,1.7,0,1.9-1.4,.1-.9,.1-1.8,.1-3.7v-8.9c0-1.3-.2-1.4-2-1.5v-.9h6.3c1.3,3.4,3.6,9.3,4.7,12.1h.1c1.4-3.7,3.5-8.5,4.8-12.1h6v.9c-1.9,0-2.2,.1-2.2,1.4v12.5c0,1.3,.2,1.5,2.1,1.6v.9h-7.4v-.9c1.9-.1,2-.2,2-1.5v-12.5h-.1c-1.5,3.9-4.7,11.9-5.7,14.7h-1.3c-1.6-4.4-4.6-11.3-5.9-14.7v9c0,1.9,0,2.9,.1,3.7,.2,1.5,1,1.2,2.4,1.3v.9h-5.9Z"/>
  <path d="M154.73,58.75v-.9h1.4c.6-.1,.7-.3,.5-.9-.4-1.4-1.2-3.5-1.5-4.5h-5c-.5,1.5-1,3.2-1.3,4.3-.2,.5-.1,.9,.5,1h1.5v.9h-5.8v-.9c1.5-.1,1.6-.1,2.1-1.4,1.5-3.6,3.8-10.4,5.4-15.1h2.7c1.4,4.3,4,11.8,5.1,15.3,.3,1.1,.7,1.2,2.1,1.2v.9h-7.7v.1Zm-2.1-14.3h0c-.6,1.8-1.6,4.7-2.2,6.9h4.3c-.6-1.7-1.5-5.2-2.1-6.9Z"/>
  <path d="M175.53,46.15c-.6-2.8-2.1-4-3.8-4s-2.7,1.2-2.7,2.8c0,1.9,1.8,2.7,3.7,3.6,2.5,1.1,4.8,2.1,4.8,5.4,0,2.6-1.6,5.4-6.5,5.4-1.7,0-4-.3-5.2-1.5l-.3-4.5h.9c.9,3.1,2.6,4.8,4.7,4.8,1.8,0,3.2-1,3.2-2.9,0-1.7-1.2-2.8-3.4-3.7-2.8-1.2-5.2-2.5-5.2-5.3,0-3.1,2.1-5.2,6.1-5.2,1.6,0,3.5,.4,4.7,1.1v4h-1Z"/>
  <path d="M184.43,43.85c0-1.3-.2-1.4-2-1.5v-.9h13.3v4.5h-.9c-.7-2.5-1.1-3.4-3.8-3.4h-1.9c-.7,0-.9,.2-.9,.9v5.7h2.5c1.7,0,2-.5,2.3-2.3h.9v5.9h-.9c-.3-1.8-.6-2.4-2.3-2.4h-2.5v5.4c0,1.6,.2,1.9,3,1.9,3,0,3.7-1.2,4.5-4h.9l-.4,5.1h-13.9v-.9c1.9-.1,2-.2,2-1.5v-12.5h.1Z"/>
  <path d="M202.73,43.85c0-1.3-.2-1.4-2-1.5v-.9h7.6v.9c-1.9,.1-2,.2-2,1.5v12.5c0,1.3,.2,1.4,2.1,1.5v.9h-7.6v-.9c1.9-.1,2-.2,2-1.5v-12.5h-.1Zm9.2-1.4l-1.1-.1v-.9h6.6v.9c-1.7,.1-2.4,.5-3.4,1.2-1.7,1.4-3.1,2.8-5,4.8,1.5,2.4,3.8,5.7,6,8.1,.7,.8,1.6,1.4,2.3,1.6l-.1,.9-1.7-.1c-2.8-.1-3.9-.9-5.6-3.1-1.4-1.8-4-6-4-6,2-2,4.7-4.9,6-6.6,.4-.4,.4-.7,0-.7Z"/>
</svg>