<?xml version="1.0" encoding="utf-8"?>
<!-- Generator: Adobe Illustrator 26.3.1, SVG Export Plug-In . SVG Version: 6.00 Build 0)  -->
<svg version="1.1" id="katman_1" xmlns="http://www.w3.org/2000/svg" xmlns:xlink="http://www.w3.org/1999/xlink" x="0px" y="0px"
	 viewBox="0 0 140 16" style="enable-background:new 0 0 140 16;" xml:space="preserve">
<style type="text/css">
	.st0{fill:#424775;}
	.st1{fill-rule:evenodd;clip-rule:evenodd;fill:#424775;}
	.st2{fill-rule:evenodd;clip-rule:evenodd;fill:#B1B8C7;}
</style>
<path class="st0" d="M1.5,5.9L0.8,6.6C0.6,6.8,0.4,7,0.3,7.3S0.2,7.8,0.2,8c0,0.3,0.1,0.5,0.2,0.8s0.3,0.5,0.5,0.7l5.7,5.7
	c0.1,0.1,0.3,0.3,0.5,0.4v-7L1.5,5.9z"/>
<path class="st0" d="M14.4,5.9l0.7,0.7c0.2,0.2,0.4,0.4,0.5,0.7c0.1,0.3,0.2,0.5,0.2,0.8c0,0.3-0.1,0.5-0.2,0.8
	c-0.1,0.3-0.3,0.5-0.5,0.7l-5.7,5.7c-0.1,0.1-0.3,0.3-0.5,0.4V8.6L14.4,5.9z"/>
<path class="st0" d="M13,4.5L9.4,0.9C9.2,0.7,9,0.6,8.8,0.5C8.5,0.4,8.2,0.3,8,0.3c-0.3,0-0.5,0.1-0.8,0.2C7,0.6,6.7,0.7,6.5,0.9
	L2.9,4.5l5,2.5L13,4.5z"/>
<path class="st1" d="M90.6,2.8c0-0.3,0-0.5,0.2-0.7c0.1-0.2,0.3-0.4,0.6-0.5c0.2-0.1,0.5-0.2,0.8-0.1c0.3,0,0.5,0.2,0.7,0.3
	c0.2,0.2,0.3,0.4,0.4,0.7s0,0.5-0.1,0.8s-0.3,0.4-0.5,0.6C92.5,4,92.2,4.1,92,4.1s-0.3,0-0.5-0.1s-0.3-0.2-0.4-0.3s-0.2-0.3-0.3-0.4
	C90.7,3.1,90.7,3,90.6,2.8z M90.7,5.1h2.4v8.6h-2.4V5.1z M26.2,2.2h-4.7v11.5h5c2.6,0,4-1.3,4-3.2c0-0.7-0.2-1.4-0.7-1.9
	s-1.2-0.8-1.9-0.9v0c0.6-0.1,1.1-0.4,1.5-0.8s0.6-1,0.6-1.6C30,3.5,28.7,2.2,26.2,2.2z M27.5,5.6c0,0.9-0.8,1.5-1.7,1.5h-1.9V4.2
	h1.9C26.9,4.2,27.5,4.7,27.5,5.6z M27.9,10.3c0,0.9-0.5,1.4-1.9,1.4h-2v-3h2c0.2,0,0.5,0,0.7,0c0.2,0.1,0.5,0.2,0.6,0.3
	c0.2,0.2,0.3,0.4,0.4,0.5C27.8,9.9,27.9,10.1,27.9,10.3z M31.7,13.8h2.5V2.3h-2.4v11.5H31.7z M35.4,9.5c0-2.7,1.6-4.4,4.3-4.4
	C42.4,5,44,6.8,44,9.5s-1.6,4.4-4.3,4.4C37.1,13.9,35.4,12.2,35.4,9.5z M41.5,9.5c0-1.5-0.6-2.6-1.8-2.6S37.9,8,37.9,9.5
	s0.6,2.6,1.8,2.6S41.5,11,41.5,9.5z M49.2,5c-2.7,0-4.3,1.8-4.3,4.4s1.6,4.4,4.3,4.4c2.3,0,3.8-1.3,3.9-3.3h-2.3
	c0,0.4-0.2,0.8-0.5,1C50,11.9,49.6,12,49.2,12c-1.1,0-1.9-1-1.9-2.6s0.7-2.6,1.9-2.6c0.4,0,0.8,0.1,1.1,0.4s0.5,0.6,0.5,1h2.3
	C53,6.3,51.5,5,49.2,5z M54.4,2.2h2.4v6.1h0.1L59.7,5h2.8l-3.2,3.7l3.4,4.9h-2.8l-2.4-3.5L56.8,11v2.8h-2.4L54.4,2.2L54.4,2.2z
	 M66.9,5c-2.7,0-4.3,1.8-4.3,4.4s1.6,4.4,4.3,4.4c2.3,0,3.8-1.3,3.9-3.3h-2.3c0,0.4-0.2,0.8-0.5,1c-0.3,0.3-0.7,0.4-1.1,0.4
	c-1.1,0-1.9-1-1.9-2.6s0.7-2.6,1.9-2.6c0.4,0,0.8,0.1,1.1,0.4c0.3,0.3,0.5,0.6,0.5,1h2.3C70.7,6.3,69.2,5,66.9,5z M74.5,13.8h-2.4
	V2.2h2.4v4.4h0.1c0.2-0.5,0.5-1,1-1.2s1-0.4,1.6-0.4c1.8,0,3,1.2,3,3.3v5.5h-2.4V8.7c0-0.2,0-0.4-0.1-0.6c-0.1-0.2-0.2-0.4-0.3-0.6
	c-0.2-0.2-0.3-0.3-0.5-0.4C76.6,7,76.4,6.9,76.1,7c-0.2,0-0.5,0-0.7,0.1S75,7.3,74.8,7.5c-0.2,0.2-0.3,0.4-0.4,0.6
	c-0.1,0.2-0.1,0.4-0.1,0.7L74.5,13.8L74.5,13.8z M84.6,8.7c-1.7,0.2-3.3,0.7-3.3,2.7c0,1.7,1.2,2.6,2.9,2.6c0.5,0,1-0.1,1.5-0.3
	c0.5-0.3,0.8-0.6,1.1-1.1h0.1v1.2h2.3V7.9c0-2-1.8-2.9-3.7-2.9c-2.1,0-3.5,1-3.8,2.6l2.2,0.2C84,7.4,84.2,7.2,84.5,7
	s0.6-0.3,0.9-0.2c0.8,0,1.3,0.4,1.3,1.1C86.7,8.5,86.2,8.5,84.6,8.7z M86.7,9.7v1c0,0.2-0.1,0.4-0.2,0.6s-0.2,0.4-0.4,0.5
	c-0.2,0.2-0.4,0.3-0.6,0.3c-0.2,0.1-0.5,0.1-0.6,0.1c-0.7,0-1.3-0.4-1.3-1s0.5-1,1.4-1.1C85.6,10,86.2,9.9,86.7,9.7z M94.7,13.8h2.5
	v-5c0-0.2,0-0.4,0.1-0.7c0.1-0.2,0.2-0.4,0.4-0.6c0.2-0.2,0.4-0.3,0.5-0.4C98.4,7,98.6,7,98.8,7c0.2,0,0.5,0,0.6,0.1
	c0.2,0.1,0.4,0.2,0.5,0.4c0.2,0.2,0.3,0.4,0.3,0.5c0.1,0.2,0.1,0.4,0.1,0.6v5.1h2.4V8.3c0-2-1.2-3.3-3-3.3c-0.5,0-1.1,0.1-1.6,0.4
	s-0.8,0.7-1,1.2H97V5.1h-2.3L94.7,13.8L94.7,13.8z"/>
<path class="st2" d="M129.5,5.1h-2.3v8.6h2.4V8.6c0-0.2,0-0.4,0.1-0.6c0.1-0.2,0.2-0.4,0.3-0.5c0.1-0.2,0.3-0.3,0.5-0.4
	C130.6,7,130.8,7,131,7s0.4,0,0.6,0.1c0.2,0.1,0.3,0.2,0.5,0.3c0.1,0.1,0.2,0.3,0.3,0.4c0.1,0.2,0.1,0.4,0.1,0.5v5.4h2.4V8.5
	c0-0.2,0-0.4,0.1-0.6c0.1-0.2,0.2-0.4,0.3-0.5s0.3-0.3,0.5-0.3c0-0.1,0.2-0.1,0.4-0.1s0.4,0,0.5,0.1c0.2,0.1,0.3,0.2,0.5,0.3
	c0.1,0.1,0.2,0.3,0.3,0.5c0.1,0.2,0.1,0.4,0.1,0.5v5.3h2.4V8c0-0.6-0.2-1.2-0.6-1.8s-0.9-0.9-1.6-1c-0.6-0.2-1.3-0.1-1.9,0.2
	s-1.1,0.7-1.4,1.3h-0.1c-0.2-0.5-0.5-0.9-0.9-1.2c-0.4-0.3-1-0.4-1.5-0.4s-1.1,0.1-1.5,0.4c-0.5,0.3-0.8,0.7-0.9,1.2h-0.1V5.1
	L129.5,5.1z M112.5,5c-2.7,0-4.3,1.8-4.3,4.4s1.6,4.4,4.3,4.4c2.3,0,3.8-1.3,3.9-3.3h-2.3c0,0.4-0.2,0.8-0.5,1
	c-0.3,0.3-0.7,0.4-1.1,0.4c-1.1,0-1.9-1-1.9-2.6s0.7-2.6,1.9-2.6c0.4,0,0.8,0.1,1.1,0.4c0.3,0.3,0.5,0.6,0.5,1h2.2
	C116.3,6.3,114.8,5,112.5,5z M104.8,11.6c-0.3,0.3-0.4,0.6-0.4,0.9c0,0.2,0,0.4,0.1,0.5c0.1,0.2,0.2,0.3,0.3,0.4
	c0.1,0.1,0.3,0.2,0.5,0.3s0.4,0.1,0.5,0.1c0.4,0,0.7-0.1,1-0.4c0.3-0.3,0.4-0.6,0.4-1s-0.1-0.7-0.4-1s-0.6-0.4-1-0.4
	C105.4,11.2,105.1,11.4,104.8,11.6z M117.3,9.5c0-2.7,1.6-4.4,4.3-4.4c2.7,0,4.3,1.8,4.3,4.4c0,2.7-1.6,4.4-4.3,4.4
	C119,13.9,117.3,12.2,117.3,9.5z M123.4,9.5c0-1.5-0.6-2.6-1.8-2.6c-1.2,0-1.8,1.1-1.8,2.6s0.6,2.6,1.8,2.6S123.4,11,123.4,9.5z"/>
</svg>
