<svg xmlns="http://www.w3.org/2000/svg" width="140" height="16" viewBox="0 0 140 16" fill="none"><path d="M1.48579 5.8877L0.774459 6.59169C0.580459 6.78369 0.418792 7.00769 0.321792 7.26369C0.224792 7.51969 0.160126 7.77569 0.160126 8.03169C0.160126 8.28769 0.224792 8.57569 0.321792 8.79969C0.418792 9.05569 0.580459 9.27969 0.774459 9.47169L6.46512 15.1677C6.59446 15.2957 6.75612 15.4237 6.91779 15.5197V8.60769L1.48579 5.8877Z" fill="white"></path><path d="M14.3546 5.8877L15.0659 6.59169C15.2599 6.78369 15.4216 7.00769 15.5186 7.26369C15.6156 7.51969 15.6803 7.77569 15.6803 8.03169C15.6803 8.28769 15.6156 8.57569 15.5186 8.79969C15.4216 9.05569 15.2599 9.27969 15.0659 9.47169L9.37527 15.1677C9.24594 15.2957 9.08427 15.4237 8.92261 15.5197V8.60769L14.3546 5.8877Z" fill="white"></path><path d="M12.9966 4.47983L9.43994 0.927825C9.24593 0.735825 9.0196 0.575824 8.76094 0.479824C8.50227 0.383824 8.2436 0.319824 7.98493 0.319824C7.72627 0.319824 7.43527 0.383824 7.20894 0.479824C6.95027 0.575824 6.72393 0.735825 6.52993 0.927825L2.9086 4.47983L7.92027 6.94382L12.9966 4.47983Z" fill="white"></path><path fill-rule="evenodd" clip-rule="evenodd" d="M90.6287 2.81605C90.6287 2.56005 90.661 2.30405 90.8227 2.08005C90.952 1.85605 91.146 1.66405 91.4047 1.56805C91.631 1.47205 91.922 1.40805 92.1807 1.47205C92.4393 1.50405 92.6657 1.63205 92.8597 1.79205C93.0537 1.98405 93.183 2.20805 93.2477 2.46405C93.3123 2.72005 93.28 2.97605 93.183 3.23205C93.086 3.48805 92.9243 3.68005 92.698 3.84005C92.4717 4.00005 92.213 4.06405 91.9543 4.06405C91.7927 4.06405 91.631 4.03205 91.4693 3.96805C91.3077 3.90405 91.1783 3.80805 91.049 3.71205C90.9197 3.58405 90.8227 3.45605 90.758 3.32805C90.6933 3.13605 90.661 2.97605 90.6287 2.81605ZM90.7257 5.12005H93.1507V13.76H90.7257V5.12005ZM26.156 2.24005H21.5V13.76H26.4793C29.0983 13.76 30.4887 12.416 30.4887 10.56C30.521 9.85605 30.2623 9.15205 29.7773 8.64005C29.2923 8.12805 28.6133 7.80805 27.902 7.77605V7.68005C28.484 7.58405 29.0337 7.29605 29.4217 6.84805C29.8097 6.40005 30.0037 5.82405 30.0037 5.21605C30.036 3.48805 28.7427 2.24005 26.156 2.24005ZM27.5463 5.60005C27.5463 6.49605 26.7703 7.07205 25.8003 7.07205L23.925 7.10405V4.22405H25.8327C26.932 4.19205 27.5463 4.67205 27.5463 5.60005ZM27.902 10.3361C27.902 11.2001 27.3523 11.7761 25.962 11.7761H23.925V8.73605H25.962C26.1883 8.70405 26.447 8.70405 26.6733 8.76805C26.8997 8.83205 27.126 8.96005 27.2877 9.08805C27.4817 9.24805 27.611 9.44005 27.708 9.63205C27.8373 9.85605 27.902 10.0801 27.902 10.3361ZM31.685 13.76H34.1423L34.11 2.24005H31.685V13.76ZM35.4033 9.47205C35.4033 6.78405 37.0523 5.02405 39.7037 5.02405C42.355 5.02405 44.004 6.81605 44.004 9.47205C44.004 12.16 42.355 13.92 39.7037 13.92C37.0523 13.92 35.4033 12.16 35.4033 9.47205ZM41.5467 9.47205C41.5467 7.96805 40.9 6.84805 39.736 6.84805C38.5397 6.84805 37.893 7.96805 37.893 9.47205C37.893 10.976 38.5073 12.0961 39.736 12.0961C40.9323 12.0961 41.5467 10.976 41.5467 9.47205ZM49.2097 5.02405C46.5583 5.02405 44.9093 6.84805 44.9093 9.47205C44.9093 12.096 46.526 13.92 49.2097 13.92C51.5053 13.92 52.9603 12.576 53.0897 10.592H50.794C50.7617 10.976 50.6 11.3601 50.309 11.6161C50.018 11.8721 49.63 12.032 49.242 12.032C48.1103 12.032 47.3667 11.04 47.3667 9.44005C47.3667 7.84005 48.1103 6.88005 49.242 6.88005C49.63 6.88005 50.018 7.00805 50.309 7.29605C50.6 7.55205 50.794 7.93605 50.794 8.32005H53.0897C52.9927 6.33605 51.473 5.02405 49.2097 5.02405ZM54.3507 2.24005H56.7757V8.38405H56.905L59.718 5.12005H62.4987L59.2653 8.86405L62.6603 13.76H59.815L57.4223 10.272L56.7757 11.008V13.76H54.3507V2.24005V2.24005ZM66.9283 5.02405C64.277 5.02405 62.628 6.84805 62.628 9.47205C62.628 12.096 64.2447 13.92 66.9283 13.92C69.224 13.92 70.679 12.576 70.8083 10.592H68.545C68.5127 10.976 68.351 11.3601 68.0277 11.6161C67.7367 11.8721 67.3487 12.032 66.9283 12.032C65.7967 12.032 65.053 11.04 65.053 9.44005C65.053 7.84005 65.7967 6.88005 66.9283 6.88005C67.3163 6.88005 67.7043 7.00805 68.0277 7.29605C68.3187 7.55205 68.5127 7.93605 68.545 8.32005H70.8083C70.7437 6.33605 69.1917 5.02405 66.9283 5.02405ZM74.4943 13.76H72.0693V2.24005H74.4297V6.65605H74.5267C74.7207 6.14405 75.0763 5.69605 75.5613 5.40805C76.0463 5.12005 76.596 4.96005 77.1457 5.02405C78.9563 5.02405 80.1527 6.24005 80.1527 8.28805V13.76H77.7277V8.67205C77.76 8.44805 77.7277 8.22405 77.663 8.03205C77.5983 7.80805 77.5013 7.64805 77.3397 7.45605C77.178 7.29605 77.0163 7.16805 76.79 7.07205C76.596 6.97605 76.3697 6.94405 76.1433 6.97605C75.917 6.97605 75.6907 7.00805 75.4643 7.10405C75.238 7.20005 75.044 7.32805 74.8823 7.48805C74.7207 7.64805 74.5913 7.84005 74.5267 8.06405C74.462 8.28805 74.4297 8.51205 74.462 8.73605V13.76H74.4943ZM84.6147 8.70405C82.901 8.86405 81.349 9.44005 81.349 11.36C81.349 13.056 82.5777 13.92 84.259 13.92C84.7763 13.952 85.2937 13.856 85.7463 13.6C86.199 13.344 86.587 12.992 86.8133 12.544H86.878V13.76H89.1737V7.93605C89.1737 5.88805 87.3953 4.99205 85.4553 4.99205C83.3537 4.99205 81.9957 5.98405 81.64 7.55205L83.871 7.74405C83.968 7.42405 84.1943 7.16805 84.4853 7.00805C84.7763 6.84805 85.0997 6.75205 85.423 6.78405C86.2313 6.78405 86.7163 7.20005 86.7163 7.90405C86.7487 8.48005 86.1667 8.54405 84.6147 8.70405ZM86.7487 9.72805V10.688C86.7487 10.912 86.684 11.136 86.587 11.328C86.49 11.52 86.3607 11.712 86.1667 11.84C86.005 12 85.811 12.096 85.5847 12.16C85.3583 12.224 85.132 12.256 84.938 12.224C84.1943 12.224 83.6447 11.872 83.6447 11.2C83.6447 10.528 84.1943 10.176 85.0673 10.08C85.6493 10.048 86.2313 9.92005 86.7487 9.72805ZM94.735 13.76H97.1923L97.16 8.76805C97.1277 8.54405 97.16 8.32005 97.2247 8.09605C97.2893 7.87205 97.4187 7.68005 97.5803 7.52005C97.742 7.36005 97.936 7.23205 98.13 7.13605C98.3563 7.04005 98.5827 7.00805 98.809 7.00805C99.0353 7.00805 99.2617 7.04005 99.4557 7.10405C99.6497 7.20005 99.8437 7.32805 99.973 7.48805C100.135 7.64805 100.232 7.84005 100.296 8.03205C100.361 8.22405 100.393 8.44805 100.361 8.67205V13.76H102.786V8.25605C102.786 6.24005 101.59 4.99205 99.779 4.99205C99.2293 4.96005 98.6797 5.08805 98.1947 5.40805C97.7097 5.69605 97.354 6.14405 97.16 6.65605H97.063V5.12005H94.7673V13.76H94.735Z" fill="white"></path><path fill-rule="evenodd" clip-rule="evenodd" d="M129.461 5.11983H127.166V13.7598H129.591V8.57583C129.558 8.38383 129.591 8.19183 129.655 7.99983C129.72 7.80783 129.817 7.64783 129.946 7.48783C130.076 7.32783 130.237 7.23183 130.431 7.13583C130.625 7.03983 130.819 7.00783 131.013 7.00783C131.207 7.00783 131.369 7.03983 131.563 7.10383C131.725 7.16783 131.886 7.26383 132.016 7.39183C132.145 7.51983 132.242 7.67983 132.307 7.83983C132.371 7.99983 132.371 8.19183 132.371 8.38383V13.7598H134.732V8.47983C134.699 8.28783 134.732 8.09583 134.796 7.90383C134.861 7.71183 134.958 7.55183 135.087 7.42383C135.217 7.29583 135.378 7.16783 135.572 7.10383C135.766 7.03983 135.96 7.00783 136.154 7.00783C136.348 7.00783 136.542 7.03983 136.704 7.10383C136.866 7.16783 137.027 7.29583 137.157 7.42383C137.286 7.55183 137.383 7.71183 137.448 7.90383C137.512 8.09583 137.512 8.25583 137.512 8.44783V13.7598H139.937V7.99983C139.97 7.35983 139.743 6.75183 139.355 6.23983C138.967 5.72783 138.418 5.37583 137.803 5.21583C137.189 5.05583 136.51 5.11983 135.928 5.37583C135.346 5.63183 134.861 6.07983 134.57 6.65583H134.441C134.279 6.14383 133.988 5.72783 133.535 5.40783C133.115 5.11983 132.565 4.95983 132.048 4.99183C131.531 4.95983 130.981 5.11983 130.561 5.40783C130.108 5.69583 129.785 6.14383 129.623 6.62383H129.526V5.11983H129.461ZM112.486 5.02383C109.835 5.02383 108.218 6.84783 108.218 9.47183C108.218 12.0958 109.803 13.9198 112.551 13.9198C114.847 13.9198 116.334 12.5758 116.431 10.5918H114.168C114.135 10.9758 113.974 11.3598 113.65 11.6158C113.359 11.8718 112.971 12.0318 112.551 12.0318C111.419 12.0318 110.676 11.0398 110.676 9.43983C110.676 7.83983 111.419 6.87983 112.551 6.87983C112.939 6.87983 113.327 7.00783 113.65 7.29583C113.941 7.55183 114.135 7.93583 114.168 8.31983H116.399C116.302 6.33583 114.782 5.02383 112.486 5.02383ZM104.823 11.6158C104.565 11.8718 104.435 12.1918 104.435 12.5438C104.435 12.7358 104.468 12.8958 104.532 13.0558C104.597 13.2158 104.694 13.3758 104.823 13.5038C104.953 13.6318 105.114 13.7278 105.276 13.7918C105.438 13.8558 105.632 13.8878 105.793 13.8878C106.149 13.8878 106.505 13.7598 106.763 13.5038C107.022 13.2478 107.151 12.8958 107.151 12.5438C107.151 12.1918 107.022 11.8398 106.763 11.5838C106.505 11.3278 106.149 11.1998 105.793 11.1998C105.438 11.2318 105.082 11.3598 104.823 11.6158ZM117.304 9.47183C117.304 6.78383 118.953 5.02383 121.604 5.02383C124.256 5.02383 125.905 6.81583 125.905 9.47183C125.905 12.1598 124.256 13.9198 121.604 13.9198C118.953 13.9198 117.304 12.1598 117.304 9.47183ZM123.415 9.47183C123.415 7.96783 122.768 6.84783 121.604 6.84783C120.408 6.84783 119.761 7.96783 119.761 9.47183C119.761 10.9758 120.408 12.0958 121.604 12.0958C122.833 12.0958 123.415 10.9758 123.415 9.47183Z" fill="#B1B8C7"></path></svg>