<?xml version="1.0" encoding="utf-8"?>
<!-- Generator: Adobe Illustrator 26.3.1, SVG Export Plug-In . SVG Version: 6.00 Build 0)  -->
<svg version="1.1" id="katman_1" xmlns="http://www.w3.org/2000/svg" xmlns:xlink="http://www.w3.org/1999/xlink" x="0px" y="0px"
	 viewBox="0 0 300 100" style="enable-background:new 0 0 300 100;" xml:space="preserve">
<style type="text/css">
	.st0{fill:#424775;}
	.st1{fill-rule:evenodd;clip-rule:evenodd;fill:#424775;}
	.st2{fill-rule:evenodd;clip-rule:evenodd;fill:#B1B8C7;}
</style>
<path class="st0" d="M81.8,48.1l-0.7,0.7c-0.2,0.2-0.4,0.4-0.5,0.7c-0.1,0.3-0.1,0.5-0.1,0.7c0,0.3,0.1,0.5,0.2,0.8
	c0.1,0.3,0.3,0.5,0.5,0.7l5.7,5.7c0.1,0.1,0.3,0.3,0.5,0.4v-7L81.8,48.1z"/>
<path class="st0" d="M94.7,48.1l0.7,0.7c0.2,0.2,0.4,0.4,0.5,0.7c0.1,0.3,0.2,0.5,0.2,0.8c0,0.3-0.1,0.5-0.2,0.8s-0.3,0.5-0.5,0.7
	l-5.7,5.7c-0.1,0.1-0.3,0.3-0.5,0.4v-7.1L94.7,48.1z"/>
<path class="st0" d="M93.3,46.7l-3.6-3.6c-0.2-0.2-0.4-0.3-0.6-0.4c-0.3-0.1-0.6-0.2-0.8-0.2c-0.3,0-0.5,0.1-0.8,0.2
	c-0.2,0.1-0.5,0.2-0.7,0.4l-3.6,3.6l5,2.5L93.3,46.7z"/>
<path class="st1" d="M170.9,45c0-0.3,0-0.5,0.2-0.7c0.1-0.2,0.3-0.4,0.6-0.5c0.2-0.1,0.5-0.2,0.8-0.1c0.3,0,0.5,0.2,0.7,0.3
	c0.2,0.2,0.3,0.4,0.4,0.7c0.1,0.3,0,0.5-0.1,0.8c-0.1,0.3-0.3,0.4-0.5,0.6c-0.2,0.1-0.5,0.2-0.7,0.2s-0.3,0-0.5-0.1
	c-0.2-0.1-0.3-0.2-0.4-0.3c-0.1-0.1-0.2-0.3-0.3-0.4C171,45.3,171,45.2,170.9,45z M171,47.3h2.4v8.6H171V47.3z M106.5,44.4h-4.7
	v11.5h5c2.6,0,4-1.3,4-3.2c0-0.7-0.2-1.4-0.7-1.9s-1.2-0.8-1.9-0.9l0,0c0.6-0.1,1.1-0.4,1.5-0.8s0.6-1,0.6-1.6
	C110.3,45.7,109,44.4,106.5,44.4z M107.8,47.8c0,0.9-0.8,1.5-1.7,1.5h-1.9v-2.9h1.9C107.2,46.4,107.8,46.9,107.8,47.8z M108.2,52.5
	c0,0.9-0.5,1.4-1.9,1.4h-2v-3h2c0.2,0,0.5,0,0.7,0c0.2,0.1,0.5,0.2,0.6,0.3c0.2,0.2,0.3,0.4,0.4,0.5
	C108.1,52.1,108.2,52.3,108.2,52.5z M112,56h2.5V44.5h-2.4L112,56L112,56z M115.7,51.7c0-2.7,1.6-4.4,4.3-4.4
	c2.7-0.1,4.3,1.7,4.3,4.4c0,2.7-1.6,4.4-4.3,4.4C117.4,56.1,115.7,54.4,115.7,51.7z M121.8,51.7c0-1.5-0.6-2.6-1.8-2.6
	c-1.2,0-1.8,1.1-1.8,2.6s0.6,2.6,1.8,2.6C121.2,54.3,121.8,53.2,121.8,51.7z M129.5,47.2c-2.7,0-4.3,1.8-4.3,4.4s1.6,4.4,4.3,4.4
	c2.3,0,3.8-1.3,3.9-3.3h-2.3c0,0.4-0.2,0.8-0.5,1c-0.3,0.4-0.7,0.5-1.1,0.5c-1.1,0-1.9-1-1.9-2.6c0-1.6,0.7-2.6,1.9-2.6
	c0.4,0,0.8,0.1,1.1,0.4c0.3,0.3,0.5,0.6,0.5,1h2.3C133.3,48.5,131.8,47.2,129.5,47.2z M134.7,44.4h2.4v6.1h0.1l2.8-3.3h2.8l-3.2,3.7
	l3.4,4.9h-2.8l-2.4-3.5l-0.7,0.9V56h-2.4V44.4L134.7,44.4z M147.2,47.2c-2.7,0-4.3,1.8-4.3,4.4s1.6,4.4,4.3,4.4
	c2.3,0,3.8-1.3,3.9-3.3h-2.3c0,0.4-0.2,0.8-0.5,1c-0.3,0.3-0.7,0.4-1.1,0.4c-1.1,0-1.9-1-1.9-2.6c0-1.6,0.7-2.6,1.9-2.6
	c0.4,0,0.8,0.1,1.1,0.4c0.3,0.3,0.5,0.6,0.5,1h2.3C151,48.5,149.5,47.2,147.2,47.2z M154.8,56h-2.4V44.4h2.4v4.4h0.1
	c0.2-0.5,0.5-1,1-1.2s1-0.4,1.6-0.4c1.8,0,3,1.2,3,3.3V56h-2.4v-5.1c0-0.2,0-0.4-0.1-0.6c-0.1-0.2-0.2-0.4-0.3-0.6
	c-0.2-0.2-0.3-0.3-0.5-0.4c-0.3-0.1-0.5-0.2-0.8-0.1c-0.2,0-0.5,0-0.7,0.1c-0.2,0.1-0.4,0.2-0.6,0.4c-0.2,0.2-0.3,0.4-0.4,0.6
	c-0.1,0.2-0.1,0.4-0.1,0.7L154.8,56L154.8,56z M164.9,50.9c-1.7,0.2-3.3,0.7-3.3,2.7c0,1.7,1.2,2.6,2.9,2.6c0.5,0,1-0.1,1.5-0.3
	c0.5-0.3,0.8-0.6,1.1-1.1h0.1V56h2.3v-5.9c0-2-1.8-2.9-3.7-2.9c-2.1,0-3.5,1-3.8,2.6l2.2,0.2c0.1-0.4,0.3-0.6,0.6-0.8
	c0.3-0.2,0.6-0.3,0.9-0.2c0.8,0,1.3,0.4,1.3,1.1C167,50.7,166.5,50.7,164.9,50.9z M167,51.9v1c0,0.2-0.1,0.4-0.2,0.6
	c-0.1,0.2-0.2,0.4-0.4,0.5c-0.2,0.2-0.4,0.3-0.6,0.3c-0.2,0.1-0.5,0.1-0.6,0.1c-0.7,0-1.3-0.4-1.3-1c0-0.6,0.5-1,1.4-1.1
	C165.9,52.2,166.5,52.1,167,51.9z M175,56h2.5v-5c0-0.2,0-0.4,0.1-0.7c0.1-0.2,0.2-0.4,0.4-0.6c0.2-0.2,0.4-0.3,0.5-0.4
	c0.2-0.1,0.4-0.1,0.6-0.1c0.2,0,0.5,0,0.6,0.1c0.2,0.1,0.4,0.2,0.5,0.4c0.2,0.2,0.3,0.4,0.3,0.5c0.1,0.2,0.1,0.4,0.1,0.6v5.1h2.4
	v-5.4c0-2-1.2-3.3-3-3.3c-0.5,0-1.1,0.1-1.6,0.4s-0.8,0.7-1,1.2h-0.1v-1.5H175V56L175,56z"/>
<path class="st2" d="M209.8,47.3h-2.3v8.6h2.4v-5.1c0-0.2,0-0.4,0.1-0.6c0.1-0.2,0.2-0.4,0.3-0.5c0.1-0.2,0.3-0.3,0.5-0.4
	c0.1-0.1,0.3-0.1,0.5-0.1s0.4,0,0.6,0.1c0.2,0.1,0.3,0.2,0.5,0.3c0.1,0.1,0.2,0.3,0.3,0.4c0.1,0.2,0.1,0.4,0.1,0.5v5.4h2.4v-5.2
	c0-0.2,0-0.4,0.1-0.6s0.2-0.4,0.3-0.5s0.3-0.3,0.5-0.3c0-0.1,0.2-0.1,0.4-0.1s0.4,0,0.5,0.1c0.2,0.1,0.3,0.2,0.5,0.3
	c0.1,0.1,0.2,0.3,0.3,0.5s0.1,0.4,0.1,0.5v5.3h2.4v-5.7c0-0.6-0.2-1.2-0.6-1.8c-0.4-0.6-0.9-0.9-1.6-1c-0.6-0.2-1.3-0.1-1.9,0.2
	s-1.1,0.7-1.4,1.3h-0.1c-0.2-0.5-0.5-0.9-0.9-1.2s-1-0.4-1.5-0.4s-1.1,0.1-1.5,0.4c-0.5,0.3-0.8,0.7-0.9,1.2h-0.1L209.8,47.3
	L209.8,47.3z M192.8,47.2c-2.7,0-4.3,1.8-4.3,4.4s1.6,4.4,4.3,4.4c2.3,0,3.8-1.3,3.9-3.3h-2.3c0,0.4-0.2,0.8-0.5,1
	c-0.3,0.3-0.7,0.4-1.1,0.4c-1.1,0-1.9-1-1.9-2.6c0-1.6,0.7-2.6,1.9-2.6c0.4,0,0.8,0.1,1.1,0.4c0.3,0.3,0.5,0.6,0.5,1h2.2
	C196.6,48.5,195.1,47.2,192.8,47.2z M185.1,53.8c-0.3,0.3-0.4,0.6-0.4,0.9c0,0.2,0,0.4,0.1,0.5c0.1,0.2,0.2,0.3,0.3,0.4
	c0.1,0.1,0.3,0.2,0.5,0.3c0.2,0.1,0.4,0.1,0.5,0.1c0.4,0,0.7-0.1,1-0.4s0.4-0.6,0.4-1c0-0.4-0.1-0.7-0.4-1s-0.6-0.4-1-0.4
	C185.7,53.4,185.4,53.6,185.1,53.8z M197.6,51.7c0-2.7,1.6-4.4,4.3-4.4c2.7,0,4.3,1.8,4.3,4.4c0,2.7-1.6,4.4-4.3,4.4
	C199.3,56.1,197.6,54.4,197.6,51.7z M203.7,51.7c0-1.5-0.6-2.6-1.8-2.6c-1.2,0-1.8,1.1-1.8,2.6s0.6,2.6,1.8,2.6
	C203.1,54.3,203.7,53.2,203.7,51.7z"/>
</svg>
