<?xml version="1.0" encoding="UTF-8"?>
<svg id="katman_1" data-name="katman 1" xmlns="http://www.w3.org/2000/svg" viewBox="0 0 300 100">
  <defs>
    <style>
      .cls-1 {
        fill: #020101;
      }

      .cls-2 {
        fill: #e45449;
      }
    </style>
  </defs>
  <path id="Path_1788" data-name="Path 1788" class="cls-1" d="M117.18,48.06c-1.36,0-2.46-1.09-2.47-2.45,0-1.36,1.09-2.46,2.45-2.47h.01c1.34-.06,2.48,.99,2.53,2.33h0v.11c0,1.37-1.12,2.48-2.49,2.47h-.05Z"/>
  <path id="Path_1789" data-name="Path 1789" class="cls-1" d="M231.89,63.26c-3,0-5.3-2.8-5.3-6.39-.1-4.02,3.07-7.37,7.1-7.48h.24c.9,.01,1.79,.21,2.61,.58l.1,.05v-2.93c0-1.36-.16-1.45-.86-1.62l-.21-.05-.91-.26,6.19-2.01v16.52c0,1.48,.2,1.85,1.1,2.11l.55,.14-.17,.39-5.68,.94v-2.79l-.13,.16c-1.07,1.52-2.76,2.49-4.62,2.64Zm2.23-13.08c-2.03,0-3.02,1.79-3.02,5.46,0,3.22,1.21,5.22,3.11,5.22,1.3-.01,2.36-1.04,2.42-2.33v-5.84c0-1.38-1.12-2.51-2.5-2.51h0Z"/>
  <path id="Path_1790" data-name="Path 1790" class="cls-1" d="M113.56,62.81l.07-.38,.97-.15c.38-.03,.67-.34,.66-.72v-8.1c0-1.53-.7-1.91-1.31-2.08l-.36-.09,5.86-1.91v12.16c-.01,.36,.25,.68,.6,.74l1.01,.16,.07,.38h-7.57Z"/>
  <path id="Path_1791" data-name="Path 1791" class="cls-1" d="M179.05,70l.07-.38,.97-.15c.38-.03,.67-.34,.66-.72v-15.16c.09-.86-.34-1.69-1.1-2.11l-.6-.15,5.9-1.95v2.8l.13-.16c1.3-1.65,2.91-2.64,4.5-2.64,3,0,5.05,3.09,5.05,6.67,.13,3.85-2.88,7.07-6.72,7.2h0c-.17,0-.34,0-.52,0-.81,.02-1.62-.13-2.36-.45l-.1-.05v5.99c0,.38,.29,.7,.67,.72l.96,.15,.07,.38h-7.56Zm8.28-18.29c-1.29,.05-2.34,1.08-2.41,2.37v6.05c0,1.26,1.01,2.29,2.27,2.32,1.38,0,3.14-1.11,3.14-5.8,0-3.22-1.08-4.95-3-4.95h0Z"/>
  <path id="Path_1792" data-name="Path 1792" class="cls-1" d="M148.05,61.57v-7.33c-.01-1.27-1.05-2.3-2.33-2.28h-.04c-1.2,.03-2.17,1-2.2,2.2v7.4c0,.35,.25,.66,.6,.71l1.01,.16,.07,.38h-7.31l.07-.38,.74-.16c.35-.06,.6-.35,.6-.7v-14.65c0-.69-.42-1.31-1.06-1.57l-.66-.26,5.98-1.95v8.96l.13-.2c1.1-1.51,2.82-2.44,4.69-2.51,1.03,.02,2.02,.44,2.76,1.16,.77,.95,1.17,2.16,1.11,3.39l.03,7.63c0,.35,.25,.66,.6,.71l1.01,.16,.07,.38h-7.3l.07-.38,.74-.16c.35-.06,.6-.35,.61-.7"/>
  <path id="Path_1793" data-name="Path 1793" class="cls-1" d="M97.56,44.39c0-.38-.29-.69-.66-.72l-.97-.15-.07-.38h8.3l-.07,.38-.97,.15c-.38,.03-.67,.34-.66,.72v16.97c0,.8,1.05,.68,1.05,.68,2.99,0,4.85-1.12,6.85-5.49l.33-.72h.94l-.84,6.98h-14.93l.07-.38,.97-.15c.38-.03,.66-.34,.66-.72v-17.17Z"/>
  <path id="Path_1794" data-name="Path 1794" class="cls-1" d="M160.83,63.26c-2.11-.02-3.8-1.74-3.79-3.85v-7.75h-2.97l1.85-1.81h.62c.27,0,.49-.22,.5-.49v-1.62l3.92-1.3v3.42h3.77l-1.72,1.81h-2.03v7.28c-.13,1.27,.8,2.4,2.06,2.53h0c.05,0,.1,0,.16,.01,.38,0,.76-.09,1.1-.27l.05-.02,.37,.43c-1.03,1.04-2.43,1.63-3.89,1.63Z"/>
  <path id="Path_1795" data-name="Path 1795" class="cls-1" d="M201.46,54.94l8.07,.12c.03-.25,.04-1.06,.02-1.33-.09-2.04-1.51-4.34-5.22-4.34-3.93-.13-7.22,2.94-7.35,6.87h0c0,.13,0,.25,0,.38-.15,3.51,2.58,6.48,6.09,6.63,.1,0,.2,0,.3,0,2.68,.17,5.17-1.43,6.12-3.95l-.3-.26c-.74,1.16-2.04,1.84-3.42,1.81-2.61,0-4.32-2.11-4.35-5.4,0-.18,0-.36,.03-.53h0Zm0-1.01c.21-2.54,1.08-3.7,2.46-3.7,.38,0,.75,.14,1.01,.42,.58,.58,.85,1.51,.82,3.26v.07l-4.31,.03v-.08Z"/>
  <path id="Path_1796" data-name="Path 1796" class="cls-1" d="M216.11,54.94l8.07,.12c.03-.25,.04-1.06,.02-1.33-.09-2.04-1.51-4.34-5.22-4.34-3.93-.13-7.22,2.94-7.35,6.86h0c0,.13,0,.25,0,.38-.15,3.51,2.58,6.48,6.09,6.63,.1,0,.2,0,.3,0,2.69,.17,5.17-1.43,6.13-3.95l-.3-.26c-.74,1.18-2.04,1.88-3.43,1.85-2.61,0-4.32-2.11-4.35-5.4,0-.19,.02-.38,.04-.57h0Zm0-1.01c.21-2.54,1.08-3.7,2.46-3.7,.38,0,.75,.14,1.01,.42,.58,.58,.85,1.51,.83,3.26v.07l-4.31,.03v-.08Z"/>
  <path id="Path_1797" data-name="Path 1797" class="cls-1" d="M173.23,54.53c-1.78-.68-3.13-1.21-3.13-2.53-.04-1.02,.76-1.88,1.79-1.92,.09,0,.18,0,.27,.01,.6,0,1.18,.16,1.69,.48l2.25,3.28,.77-.03-.15-4.43-1.45,.47c-1-.31-2.04-.47-3.09-.47-3.21,0-5.35,1.69-5.35,4.34,0,2.43,1.84,3.36,4.1,4.22,1.66,.65,3.21,1.12,3.21,2.8,0,.95-.91,1.89-2.38,1.89-1.54,0-2.35-.77-3.35-2.26l-.83-1.72-.79,.19-.28,3.49c1.66,.59,3.41,.89,5.18,.9,3.98,0,5.79-2.11,5.79-4.43,0-2.59-2.2-3.46-4.24-4.29Z"/>
  <path id="Path_1798" data-name="Path 1798" class="cls-1" d="M132.02,60.29h-4.72c-.58-.04-1.04-.52-1.05-1.11-.02-.62,.46-1.14,1.08-1.17h.04c.06,0,.13,0,.19,0,.45,.08,.9,.12,1.36,.12,3.58,0,6.01-1.87,6.01-4.5,.06-.67-.15-1.34-.58-1.85l1.65-1.51-.4-1.16-2.81,1.16c-1.13-.59-2.39-.89-3.67-.88-3.49,0-5.87,2.25-5.87,4.61-.06,1.77,1.13,3.34,2.85,3.76v.03c-1.75,.5-3.35,1.69-3.35,3.29,0,1.42,1.42,2.7,3.17,2.9-1.78,.68-3.52,1.48-3.52,3.05,0,1.99,1.89,2.96,5.73,2.96,4.89,0,8.35-2.72,8.35-5.9,.01-2.37-1.82-3.81-4.46-3.81Zm-4.31-9.23c.27-.51,.8-.83,1.37-.83,1.11,0,1.81,.95,1.81,3.66s-.52,3.62-1.81,3.62c-1.09,0-1.72-1.08-1.72-3.65-.07-.94,.05-1.89,.34-2.79h0Zm.81,17.93c-1.87,0-2.96-1.1-2.96-2.7,.15-1.28,1.23-2.24,2.51-2.26h2.52c2.11,.15,3.11,.6,3.11,2.11,0,1.68-2.78,2.85-5.17,2.85h-.01Z"/>
  <path id="Path_1799" data-name="Path 1799" class="cls-2" d="M81.11,52.98h-9.84v-9.84l-9.84-9.84v29.52h29.52l-9.84-9.84Z"/>
</svg>