<?xml version="1.0" encoding="UTF-8"?>
<svg id="katman_1" data-name="katman 1" xmlns="http://www.w3.org/2000/svg" viewBox="0 0 300 100">
  <defs>
    <style>
      .cls-1 {
        fill: #2666b0;
      }
    </style>
  </defs>
  <path id="Path_464" data-name="Path 464" class="cls-1" d="M73.18,52.25c2.5-5.8,5.1-11.7,7.6-17.5,.2-.6,.7-1,1.3-.9h9.6c.6,0,1,.1,1.3,.7,4.5,10.5,8.9,21,13.4,31.5,0,.2,.1,.3,.1,.5h-5.6c-.9,0-.9-.6-1.1-1.1-3.5-8.3-7.1-16.6-10.5-24.9-.2-1-1.2-1.6-2.1-1.4-1.1,.1-2.2-.2-2.8,1.4-1.4,3.9-3.2,7.8-4.8,11.6l-6.4,.1m1.6,5.7h-4.2c-1.3,2.8-2.5,5.7-3.8,8.6h5.8c.5,.1,1-.2,1.1-.7,1.1-2.6,2.2-5.3,3.3-7.9h-2.2m64.5-14.7c1.2-2.9,2.5-5.8,3.7-8.7,.1-.3,.3-.5,.6-.4h4.7c.3,0,.5,0,.6,.4,2.1,5.2,4.3,10.4,6.5,15.5v.2h-2.7c-.4,0-.4-.3-.6-.6-1.7-4.1-3.4-8.2-5.1-12.3-.2-.5-.5-.7-1-.7-.6,.1-1.1-.1-1.4,.7-.7,2-1.5,3.8-2.3,5.7-1,.3-2,.3-3,.2m48,.1c1.2-2.9,2.5-5.8,3.7-8.7,.1-.3,.3-.5,.6-.4h4.7c.3,0,.5,0,.6,.4,2.1,5.2,4.3,10.4,6.5,15.5v.2h-2.7c-.4,0-.4-.3-.6-.6-1.7-4.1-3.4-8.2-5.1-12.3-.2-.5-.5-.7-1-.7-.6,.1-1.1-.1-1.4,.7-.7,2-1.5,3.8-2.3,5.7-1,.2-2,.2-3,.2m-61.6-.5c.6,0,1.2,0,1.8-.2,.3-.2,.5-.5,.5-.9v-4.4c0-.4-.2-.7-.5-.9-.6-.2-1.2-.3-1.8-.2h-4.7v6.6h4.7Zm-4.8,7.5h-3.2v-16.3h7.9c1.1-.1,2.3,.1,3.4,.5,.8,.3,1.4,1,1.8,1.7,.4,1,.6,2.1,.5,3.3,0,2-.4,3.3-1.2,4.2-1.1,.9-2.5,1.4-4,1.3h-5.2v5.3h0Zm44.4-7.8h4.9c.6,0,1.2,0,1.8-.2,.3-.2,.5-.5,.5-.9v-4.1c0-.4-.2-.7-.5-.9-.6-.2-1.2-.3-1.8-.2h-4.9v6.3Zm7.9,7.8l-3.3-5.7h-4.6v5.7h-3.2v-16.3h8.1c1.1-.1,2.3,.1,3.4,.5,.8,.3,1.4,.9,1.8,1.7,.4,1,.6,2.1,.5,3.3,.1,1.1-.2,2.2-.6,3.1-.4,.8-1.2,1.3-2.1,1.6l3.6,6-3.6,.1h0Zm41.4,0h-3.2v-16.3h11l-.4,2.1h-7.4v5.3h6.5v2.1h-6.5v6.8h0Zm16.3,0h3.2v-16.3h-3.2v16.3Zm-92.9-4.3c-.6,1.4-1.2,2.8-1.8,4.3h2.8c.3,0,.5-.1,.6-.4,.5-1.3,1.1-2.6,1.6-3.9h-3.2Zm50.1,0h-2c-.6,1.4-1.2,2.8-1.8,4.3h2.8c.3,0,.5-.1,.6-.4,.5-1.3,1.1-2.6,1.6-3.9h-1.2m-61.5,18.1v-2.4c-.1-.6,.1-1.2,.5-1.7,.5-.4,1-.6,1.6-.5h1.3c.5,0,1,.1,1.4,.4,.3,.4,.5,.8,.5,1.3,0,.2-.1,.3-.3,.3s-.2-.1-.3-.3c0-.3-.1-.7-.4-.9-.3-.2-.7-.3-1.1-.2h-1.3c-.3,0-.6,0-.9,.2-.2,.1-.4,.3-.5,.5-.1,.3-.2,.6-.2,1v2.4c0,.3,0,.7,.2,1,.1,.2,.3,.4,.5,.5,.3,.1,.6,.2,1,.2h1.3c.4,0,.7-.1,1.1-.2,.3-.2,.4-.6,.4-.9,0-.1,.1-.3,.2-.3h.1c.2,0,.3,.1,.3,.3,0,.5-.2,1-.5,1.3-.4,.3-.9,.5-1.4,.4h-1.3c-.6,.1-1.2-.1-1.6-.5-.5-.7-.7-1.3-.6-1.9h0Zm18.3-.2h3l-1.5-3.6-1.5,3.6Zm4.4,2.2c0,.1-.1,.2-.2,.2h-.1c-.1,0-.2-.1-.2-.2l-.7-1.7h-3.4l-.7,1.7c-.1,.1-.1,.2-.2,.2h-.1c-.1-.1-.2-.1-.2-.2v-.1l2.6-6.2c0-.1,.2-.2,.3-.2h0c.1,0,.3,.1,.3,.2l2.6,6.2v.1h0Zm15.6-4.8c0-.4-.1-.7-.3-1-.3-.2-.6-.3-.9-.3h-2.2v2.9h2.2c.3,0,.7-.1,.9-.3,.2-.3,.3-.6,.3-1v-.3Zm.1-1.4c.3,.4,.5,.9,.4,1.4v.3c0,.5-.1,1-.4,1.4-.4,.3-.8,.5-1.3,.5h-2.2v2.6c0,.2-.1,.3-.3,.3-.1,0-.3-.1-.3-.2v-6.4c0-.2,.1-.3,.3-.3h2.4c.5-.1,1,.1,1.4,.4h0Zm12.2,6.3c0-.1-.1-.1-.1-.2v-6.2q0-.1,.1-.2t.2-.1,.2,.1c0,.1,.1,.1,.1,.2v6.3q0,.1-.1,.2-.1,.1-.2,.1c0-.1-.1-.1-.2-.2m14.9,0c-.1,0-.1-.1-.1-.2v-6h-2.2q-.1,0-.2-.1-.1-.1-.1-.2,0-.1,.1-.2,.1-.1,.2-.1h5q.1,0,.2,.1,.1,.1,.1,.2,0,.1-.1,.2-.1,.1-.2,.1h-2.2v6q0,.1-.1,.2c0,.1-.1,.1-.2,.1s-.2,0-.2-.1m13.8-2.3h3l-1.5-3.6-1.5,3.6Zm4.4,2.2c0,.1-.1,.2-.2,.2h-.1c-.1,0-.2-.1-.2-.2l-.7-1.7h-3.4l-.7,1.7c-.1,.1-.1,.2-.2,.2h-.1c-.1-.1-.2-.1-.2-.2v-.1l2.6-6.2c0-.1,.2-.2,.3-.2h0c.1,0,.3,.1,.3,.2l2.6,6.2v.1h0Zm11.7,0v-6.3c0-.2,.1-.3,.3-.3,.1,0,.3,.1,.3,.2v6.1h3.2c.1,0,.3,.1,.3,.2v.1c0,.2-.1,.3-.3,.3h-3.5c-.1,0-.3-.1-.3-.3h0"/>
</svg>