<?xml version="1.0" encoding="UTF-8"?>
<svg id="katman_1" data-name="katman 1" xmlns="http://www.w3.org/2000/svg" width="300" height="100" viewBox="0 0 300 100">
  <defs>
    <style>
      .cls-1 {
        fill: #28286e;
        fill-rule: evenodd;
      }
    </style>
  </defs>
  <g id="Hovers_-Color_-Fonts-_-Icons" data-name="Hovers,-Color,-Fonts-&amp;amp;-Icons">
    <g id="Group-23">
      <path id="Fill-1" class="cls-1" d="M107.64,55.04c0,2.89-1.65,4.55-4.91,4.55h-7.78v-3.43h6.86c1,0,1.49-.35,1.49-1.23,0-.72-.54-1.18-1.73-2.01l-4.07-3.11c-2.06-1.55-2.93-3-2.93-4.71,0-2.92,1.73-4.26,5.15-4.26h7.59v3.43h-6.83c-1.06,0-1.57,.35-1.57,1.26,0,.7,.54,1.15,1.76,1.95l4.04,2.78c2.06,1.39,2.93,3.08,2.93,4.77"/>
      <polygon id="Fill-3" class="cls-1" points="123.54 44.28 118.62 44.28 118.62 59.59 114.26 59.59 114.26 44.28 109.34 44.28 109.34 40.85 123.54 40.85 123.54 44.28"/>
      <path id="Fill-5" class="cls-1" d="M135.26,52.85l-2.61-7.42-2.63,7.42h5.24Zm1.12,3.13h-7.5l-1.28,3.61h-4.63l7.42-18.74h4.47l7.42,18.74h-4.63l-1.28-3.61Z"/>
      <path id="Fill-7" class="cls-1" d="M149.65,49.69c2.38,0,3.09-.83,3.09-2.81s-.7-2.81-3.09-2.81h-1.9v5.62h1.9Zm7.97,9.91h-4.36l-.84-3.59c-.54-2.49-1.03-3.16-2.93-3.19h-1.73v6.77h-4.34v-18.74h7.78c4.04,0,5.88,1.77,5.88,5.62,0,2.6-1.03,4.18-3.12,4.82,1.49,.7,2.22,2.09,2.82,4.71l.84,3.59Z"/>
      <path id="Fill-9" class="cls-1" d="M164.68,49.93l6.73-9.08h5.04l-7.07,9.08,7.55,9.67h-5.04l-7.21-9.67Zm-4.22,9.67h4.22v-18.74h-4.22v18.74Z"/>
      <polygon id="Fill-11" class="cls-1" points="204.76 40.85 199.09 59.59 196.44 59.59 191.97 44.6 187.49 59.59 184.81 59.59 179.2 40.85 181.8 40.85 186.22 56.68 190.91 40.85 193.03 40.85 197.71 56.68 202.16 40.85 204.76 40.85"/>
      <path id="Fill-13" class="cls-1" d="M215.99,52.93l-3.55-9.4-3.58,9.4h7.12Zm.67,1.79h-8.47l-1.85,4.87h-2.71l7.5-18.74h2.61l7.5,18.74h-2.72l-1.85-4.87Z"/>
      <path id="Fill-15" class="cls-1" d="M229.38,50.04c2.98,0,4.09-1.15,4.09-3.67s-1.11-3.64-4.09-3.64h-3.39v7.31h3.39Zm7.18,9.56h-2.52l-.68-3.21c-.68-3.35-1.52-4.47-4.07-4.53h-3.31v7.74h-2.49v-18.74h6.72c3.98,0,5.75,1.74,5.75,5.3,0,2.68-1.11,4.31-3.44,4.85,1.84,.7,2.68,2.28,3.33,5.38l.7,3.21Z"/>
      <g id="Fill-17">
        <path id="path-1" class="cls-1" d="M243.02,42.83v5.7h8.35v1.85h-8.35v4.02c0,2.22,.97,3.21,3.18,3.21h6.27v1.98h-6.65c-3.93,0-5.28-1.29-5.28-4.98v-13.76h11.93v1.98h-9.45Z"/>
      </g>
      <path id="Fill-20" class="cls-1" d="M66.15,52.34l-3.21,3.31h0s-.02,.01-.03,.01c-.03,0-.05-.02-.05-.05v-.02h0l1.22-4.7c.1-.34,.03-.72-.23-.99l-3.21-3.31h0s0-.02,0-.03c0-.03,.02-.05,.05-.05h.02l4.56,1.26c.33,.11,.7,.03,.96-.24l3.21-3.31h0s.02-.01,.03-.01c.03,0,.05,.02,.05,.05v.02h0l-1.22,4.7c-.1,.34-.03,.72,.23,.99l3.21,3.31h0s0,.02,0,.03c0,.03-.02,.05-.05,.05h-.02l-4.56-1.26c-.33-.11-.7-.03-.96,.24m18.06-2.75l-7.67-7.91c-.26-.27-.63-.35-.96-.24l-5.05,1.4h-.02s-.05-.02-.05-.05c0-.02,0-.03,.02-.04h0c.55-.38,1.39-1.06,3.38-3.12,.18-.19,.18-.5,0-.69l-7.36-7.59c-.18-.19-.48-.19-.67,0l-7.67,7.91c-.26,.27-.34,.65-.23,.99l1.35,5.2h0v.02s-.02,.05-.05,.05c-.02,0-.03,0-.04-.02h0c-.37-.57-1.03-1.43-3.03-3.49-.18-.19-.48-.19-.67,0l-7.36,7.59c-.18,.19-.18,.5,0,.69l7.67,7.91c.26,.27,.63,.35,.96,.24l5.05-1.4h.02s.05,.02,.05,.05c0,.02,0,.03-.02,.04h0c-.55,.38-1.39,1.06-3.38,3.12-.18,.19-.18,.5,0,.69l7.36,7.59c.18,.19,.48,.19,.67,0l7.67-7.91c.26-.27,.34-.65,.23-.99l-1.35-5.2h0v-.02s.02-.05,.05-.05c.02,0,.03,0,.04,.02h0c.37,.57,1.03,1.43,3.03,3.49,.18,.19,.48,.19,.67,0l7.36-7.59c.18-.19,.18-.5,0-.69"/>
    </g>
  </g>
</svg>