<?xml version="1.0" encoding="utf-8"?>
<!-- Generator: Adobe Illustrator 26.3.1, SVG Export Plug-In . SVG Version: 6.00 Build 0)  -->
<svg version="1.1" id="katman_1" xmlns="http://www.w3.org/2000/svg" xmlns:xlink="http://www.w3.org/1999/xlink" x="0px" y="0px"
	 viewBox="0 0 270.3 100" style="enable-background:new 0 0 270.3 100;" xml:space="preserve">
<style type="text/css">
	.st0{fill:#3952A8;}
</style>
<g>
	<path class="st0" d="M66.6,69.4C66.5,69.4,66.5,69.4,66.6,69.4c-0.1,0.1,0,0.1,0,0.1S66.6,69.5,66.6,69.4
		C66.6,69.4,66.6,69.4,66.6,69.4"/>
	<path class="st0" d="M64.7,68.8c-0.1,0-0.1,0.1-0.1,0.1c0,0.1,0.1,0.1,0.1,0.1s0.1-0.1,0.1-0.1C64.9,68.8,64.8,68.8,64.7,68.8"/>
	<path class="st0" d="M62.9,67.9c-0.1,0-0.2,0.1-0.2,0.2c0,0.1,0.1,0.2,0.2,0.2c0.1,0,0.2-0.1,0.2-0.2S63.1,67.9,62.9,67.9"/>
	<path class="st0" d="M61.3,66.9c-0.1,0-0.3,0.1-0.3,0.3s0.1,0.3,0.3,0.3c0.1,0,0.3-0.1,0.3-0.3S61.4,66.9,61.3,66.9"/>
	<path class="st0" d="M59.7,65.7c-0.2,0-0.3,0.1-0.3,0.3c0,0.2,0.1,0.3,0.3,0.3c0.2,0,0.3-0.1,0.3-0.3C60,65.9,59.9,65.7,59.7,65.7"
		/>
	<path class="st0" d="M58.2,64.4c-0.2,0-0.4,0.2-0.4,0.4s0.2,0.4,0.4,0.4s0.4-0.2,0.4-0.4S58.5,64.4,58.2,64.4"/>
	<path class="st0" d="M56.9,62.9c-0.3,0-0.5,0.2-0.5,0.5c0,0.3,0.2,0.5,0.5,0.5s0.5-0.2,0.5-0.5C57.4,63.1,57.2,62.9,56.9,62.9"/>
	<path class="st0" d="M55.8,61.2c-0.3,0-0.5,0.2-0.5,0.5c0,0.3,0.2,0.5,0.5,0.5c0.3,0,0.5-0.2,0.5-0.5
		C56.3,61.5,56.1,61.2,55.8,61.2"/>
	<path class="st0" d="M55.4,60.1c0-0.3-0.3-0.6-0.6-0.6s-0.6,0.3-0.6,0.6c0,0.3,0.3,0.6,0.6,0.6S55.4,60.4,55.4,60.1"/>
	<path class="st0" d="M54.8,58.3c0-0.4-0.3-0.7-0.7-0.7s-0.7,0.3-0.7,0.7s0.3,0.7,0.7,0.7S54.8,58.7,54.8,58.3"/>
	<path class="st0" d="M54.4,56.4c0-0.4-0.3-0.7-0.7-0.7c-0.4,0-0.7,0.3-0.7,0.7s0.3,0.7,0.7,0.7C54.1,57.1,54.4,56.8,54.4,56.4"/>
	<path class="st0" d="M54.2,54.5c0-0.4-0.3-0.8-0.8-0.8c-0.4,0-0.8,0.3-0.8,0.8c0,0.4,0.3,0.8,0.8,0.8S54.2,54.9,54.2,54.5"/>
	<path class="st0" d="M53.5,53.4c0.5,0,0.9-0.4,0.9-0.9c0-0.5-0.4-0.9-0.9-0.9s-0.9,0.4-0.9,0.9C52.6,53,53,53.4,53.5,53.4"/>
	<path class="st0" d="M52.8,50.6c0,0.5,0.4,0.9,0.9,0.9s0.9-0.4,0.9-0.9c0-0.5-0.4-0.9-0.9-0.9C53.3,49.7,52.8,50.1,52.8,50.6"/>
	<path class="st0" d="M80.8,64.9C80.8,64.9,80.8,64.9,80.8,64.9c-0.1,0.1,0,0.1,0,0.1C80.9,65,80.9,65,80.8,64.9
		C80.9,64.9,80.9,64.9,80.8,64.9"/>
	<path class="st0" d="M79.1,65.8c-0.1,0-0.1,0.1-0.1,0.1c0,0.1,0.1,0.1,0.1,0.1c0.1,0,0.1-0.1,0.1-0.1
		C79.2,65.8,79.2,65.8,79.1,65.8"/>
	<path class="st0" d="M77.3,66.4c-0.1,0-0.2,0.1-0.2,0.2s0.1,0.2,0.2,0.2s0.2-0.1,0.2-0.2C77.5,66.5,77.4,66.4,77.3,66.4"/>
	<path class="st0" d="M75.5,66.9c-0.1,0-0.2,0.1-0.2,0.2s0.1,0.2,0.2,0.2c0.1,0,0.2-0.1,0.2-0.2C75.7,67,75.6,66.9,75.5,66.9"/>
	<path class="st0" d="M73.5,67.1c-0.2,0-0.3,0.1-0.3,0.3c0,0.2,0.1,0.3,0.3,0.3c0.2,0,0.3-0.1,0.3-0.3
		C73.9,67.3,73.7,67.1,73.5,67.1"/>
	<path class="st0" d="M71.6,67.2c-0.2,0-0.3,0.1-0.3,0.3s0.1,0.3,0.3,0.3c0.2,0,0.3-0.2,0.3-0.3C72,67.4,71.8,67.2,71.6,67.2"/>
	<path class="st0" d="M69.7,67.1c-0.2,0-0.4,0.2-0.4,0.4s0.2,0.4,0.4,0.4c0.2,0,0.4-0.2,0.4-0.4C70.1,67.3,69.9,67.1,69.7,67.1"/>
	<path class="st0" d="M67.8,66.7c-0.3,0-0.5,0.2-0.5,0.5s0.2,0.5,0.5,0.5s0.5-0.2,0.5-0.5C68.2,66.9,68,66.7,67.8,66.7"/>
	<path class="st0" d="M65.9,66.1c-0.3,0-0.5,0.2-0.5,0.5c0,0.3,0.2,0.5,0.5,0.5c0.3,0,0.5-0.2,0.5-0.5
		C66.5,66.4,66.2,66.1,65.9,66.1"/>
	<path class="st0" d="M64.1,65.3c-0.3,0-0.6,0.3-0.6,0.6s0.3,0.6,0.6,0.6c0.3,0,0.6-0.3,0.6-0.6C64.7,65.6,64.5,65.3,64.1,65.3"/>
	<path class="st0" d="M63.1,64.9c0-0.3-0.3-0.6-0.6-0.6s-0.7,0.3-0.7,0.6c0,0.3,0.3,0.6,0.7,0.6C62.9,65.6,63.1,65.3,63.1,64.9"/>
	<path class="st0" d="M61,63c-0.4,0-0.7,0.3-0.7,0.7s0.3,0.7,0.7,0.7c0.4,0,0.7-0.3,0.7-0.7S61.4,63,61,63"/>
	<path class="st0" d="M59.6,61.5c-0.4,0-0.8,0.3-0.8,0.8s0.3,0.8,0.8,0.8s0.8-0.3,0.8-0.8S60.1,61.5,59.6,61.5"/>
	<path class="st0" d="M58.5,61.6c0.5,0,0.8-0.4,0.8-0.8c0-0.5-0.4-0.8-0.8-0.8s-0.8,0.4-0.8,0.8C57.7,61.2,58,61.6,58.5,61.6"/>
	<path class="st0" d="M58.4,59c0-0.5-0.4-0.9-0.9-0.9c-0.5,0-0.9,0.4-0.9,0.9c0,0.5,0.4,0.9,0.9,0.9C58,59.9,58.4,59.5,58.4,59"/>
	<path class="st0" d="M87.8,51.7C87.7,51.7,87.7,51.7,87.8,51.7c-0.1,0.1,0,0.1,0,0.1C87.8,51.8,87.8,51.8,87.8,51.7
		C87.8,51.7,87.8,51.7,87.8,51.7"/>
	<path class="st0" d="M87.2,53.5c-0.1,0-0.1,0.1-0.1,0.1s0.1,0.1,0.1,0.1c0.1,0,0.1-0.1,0.1-0.1S87.2,53.5,87.2,53.5"/>
	<path class="st0" d="M86.4,55.2c-0.1,0-0.1,0.1-0.1,0.1s0.1,0.2,0.1,0.2c0.1,0,0.2-0.1,0.2-0.2C86.6,55.3,86.5,55.2,86.4,55.2"/>
	<path class="st0" d="M85.5,56.9c-0.1,0-0.2,0.1-0.2,0.2c0,0.1,0.1,0.2,0.2,0.2s0.2-0.1,0.2-0.2C85.7,56.9,85.6,56.9,85.5,56.9"/>
	<path class="st0" d="M84.3,58.4c-0.1,0-0.3,0.1-0.3,0.3c0,0.1,0.1,0.3,0.3,0.3c0.1,0,0.3-0.1,0.3-0.3
		C84.6,58.5,84.5,58.4,84.3,58.4"/>
	<path class="st0" d="M83.1,59.8c-0.2,0-0.3,0.1-0.3,0.3c0,0.2,0.1,0.3,0.3,0.3c0.2,0,0.3-0.1,0.3-0.3
		C83.4,59.9,83.2,59.8,83.1,59.8"/>
	<path class="st0" d="M81.6,61c-0.2,0-0.4,0.2-0.4,0.4c0,0.2,0.2,0.4,0.4,0.4c0.2,0,0.4-0.2,0.4-0.4C82,61.2,81.8,61,81.6,61"/>
	<path class="st0" d="M80.1,62.1c-0.2,0-0.4,0.2-0.4,0.4c0,0.2,0.2,0.4,0.4,0.4s0.4-0.2,0.4-0.4C80.5,62.3,80.3,62.1,80.1,62.1"/>
	<path class="st0" d="M78.4,63c-0.3,0-0.5,0.2-0.5,0.5c0,0.3,0.2,0.5,0.5,0.5c0.3,0,0.5-0.2,0.5-0.5C78.9,63.2,78.7,63,78.4,63"/>
	<path class="st0" d="M76.6,63.7c-0.3,0-0.5,0.2-0.5,0.5c0,0.3,0.2,0.5,0.5,0.5c0.3,0,0.5-0.2,0.5-0.5
		C77.1,63.9,76.9,63.7,76.6,63.7"/>
	<path class="st0" d="M74.7,64.1c-0.3,0-0.6,0.3-0.6,0.6s0.3,0.6,0.6,0.6s0.6-0.3,0.6-0.6C75.3,64.3,75,64.1,74.7,64.1"/>
	<path class="st0" d="M72.8,64.3c-0.3,0-0.6,0.3-0.6,0.6c0,0.3,0.3,0.6,0.6,0.6s0.6-0.3,0.6-0.6C73.4,64.5,73.1,64.3,72.8,64.3"/>
	<path class="st0" d="M71.6,64.8c0-0.4-0.3-0.7-0.7-0.7c-0.4,0-0.7,0.3-0.7,0.7s0.3,0.7,0.7,0.7C71.2,65.5,71.6,65.2,71.6,64.8"/>
	<path class="st0" d="M69.7,64.5c0-0.4-0.3-0.7-0.7-0.7c-0.4,0-0.7,0.3-0.7,0.7c0,0.4,0.3,0.7,0.7,0.7S69.7,65,69.7,64.5"/>
	<path class="st0" d="M67.9,64c0-0.4-0.3-0.8-0.8-0.8c-0.4,0-0.8,0.3-0.8,0.8s0.3,0.8,0.8,0.8C67.5,64.8,67.9,64.5,67.9,64"/>
	<path class="st0" d="M66.2,63.2c0-0.5-0.4-0.8-0.8-0.8s-0.8,0.4-0.8,0.8c0,0.5,0.4,0.8,0.8,0.8C65.8,64.1,66.2,63.7,66.2,63.2"/>
	<path class="st0" d="M83.3,37.6C83.3,37.6,83.4,37.5,83.3,37.6c0.1-0.1,0-0.1,0-0.1S83.2,37.5,83.3,37.6
		C83.2,37.5,83.3,37.6,83.3,37.6"/>
	<path class="st0" d="M84.2,39.3c0.1,0,0.1-0.1,0.1-0.1c0-0.1-0.1-0.1-0.1-0.1c-0.1,0-0.1,0.1-0.1,0.1
		C84.1,39.3,84.1,39.3,84.2,39.3"/>
	<path class="st0" d="M84.9,41.2c0.1,0,0.1-0.1,0.1-0.1s-0.1-0.1-0.1-0.1s-0.1,0.1-0.1,0.1C84.7,41.1,84.8,41.2,84.9,41.2"/>
	<path class="st0" d="M85.4,43.1c0.1,0,0.2-0.1,0.2-0.2c0-0.1-0.1-0.2-0.2-0.2s-0.2,0.1-0.2,0.2C85.2,43,85.3,43.1,85.4,43.1"/>
	<path class="st0" d="M85.5,44.8c0,0.1,0.1,0.3,0.3,0.3c0.1,0,0.3-0.1,0.3-0.3c0-0.1-0.1-0.3-0.3-0.3C85.6,44.5,85.5,44.6,85.5,44.8
		"/>
	<path class="st0" d="M85.9,46.4c-0.2,0-0.3,0.1-0.3,0.3c0,0.2,0.1,0.3,0.3,0.3c0.2,0,0.3-0.1,0.3-0.3C86.2,46.5,86,46.4,85.9,46.4"
		/>
	<path class="st0" d="M85.8,48.3c-0.2,0-0.4,0.2-0.4,0.4c0,0.2,0.2,0.4,0.4,0.4c0.2,0,0.4-0.2,0.4-0.4S86,48.3,85.8,48.3"/>
	<path class="st0" d="M85.5,50.1c-0.2,0-0.4,0.2-0.4,0.4c0,0.2,0.2,0.4,0.4,0.4s0.4-0.2,0.4-0.4C85.9,50.3,85.7,50.1,85.5,50.1"/>
	<path class="st0" d="M85.4,52.4c0-0.3-0.2-0.5-0.5-0.5s-0.5,0.2-0.5,0.5c0,0.3,0.2,0.5,0.5,0.5C85.2,52.9,85.4,52.7,85.4,52.4"/>
	<path class="st0" d="M84.2,53.7c-0.3,0-0.5,0.2-0.5,0.5c0,0.3,0.2,0.5,0.5,0.5c0.3,0,0.5-0.2,0.5-0.5
		C84.7,53.9,84.5,53.7,84.2,53.7"/>
	<path class="st0" d="M83.2,55.3c-0.3,0-0.6,0.3-0.6,0.6s0.3,0.6,0.6,0.6s0.6-0.3,0.6-0.6S83.5,55.3,83.2,55.3"/>
	<path class="st0" d="M82,56.7c-0.3,0-0.6,0.3-0.6,0.6S81.7,58,82,58s0.6-0.3,0.6-0.6S82.4,56.7,82,56.7"/>
	<path class="st0" d="M80.6,58c-0.4,0-0.7,0.3-0.7,0.7s0.3,0.7,0.7,0.7c0.4,0,0.7-0.3,0.7-0.7C81.3,58.3,81,58,80.6,58"/>
	<path class="st0" d="M79,59.1c-0.4,0-0.7,0.3-0.7,0.7c0,0.4,0.3,0.7,0.7,0.7c0.4,0,0.7-0.3,0.7-0.7C79.8,59.4,79.4,59.1,79,59.1"/>
	<path class="st0" d="M77.4,60c-0.4,0-0.8,0.3-0.8,0.8c0,0.4,0.3,0.8,0.8,0.8s0.8-0.3,0.8-0.8C78.1,60.3,77.8,60,77.4,60"/>
	<path class="st0" d="M75.6,60.7c-0.5,0-0.8,0.4-0.8,0.8c0,0.5,0.4,0.8,0.8,0.8c0.5,0,0.8-0.4,0.8-0.8C76.4,61,76,60.7,75.6,60.7"/>
	<path class="st0" d="M70.1,30.6C70.1,30.6,70.1,30.6,70.1,30.6c0.1-0.1,0-0.1,0-0.1S70,30.5,70.1,30.6C70,30.6,70,30.6,70.1,30.6"
		/>
	<path class="st0" d="M71.9,31.2c0.1,0,0.1-0.1,0.1-0.1c0-0.1-0.1-0.1-0.1-0.1c-0.1,0-0.1,0.1-0.1,0.1
		C71.8,31.2,71.8,31.2,71.9,31.2"/>
	<path class="st0" d="M73.7,32.1c0.1,0,0.1-0.1,0.1-0.1c0-0.1-0.1-0.2-0.1-0.2c-0.1,0-0.2,0.1-0.2,0.2C73.5,32,73.6,32.1,73.7,32.1"
		/>
	<path class="st0" d="M75.4,33.1c0.1,0,0.2-0.1,0.2-0.2c0-0.1-0.1-0.2-0.2-0.2c-0.1,0-0.2,0.1-0.2,0.2C75.2,33,75.2,33.1,75.4,33.1"
		/>
	<path class="st0" d="M76.9,34.2c0.1,0,0.3-0.1,0.3-0.3s-0.1-0.3-0.3-0.3s-0.3,0.1-0.3,0.3C76.7,34.1,76.8,34.2,76.9,34.2"/>
	<path class="st0" d="M78.4,35.6c0.2,0,0.3-0.1,0.3-0.3c0-0.2-0.1-0.3-0.3-0.3c-0.2,0-0.3,0.1-0.3,0.3
		C78.1,35.4,78.2,35.6,78.4,35.6"/>
	<path class="st0" d="M79.7,37.1c0.2,0,0.4-0.2,0.4-0.4c0-0.2-0.2-0.4-0.4-0.4s-0.4,0.2-0.4,0.4C79.3,36.9,79.5,37.1,79.7,37.1"/>
	<path class="st0" d="M80.9,38.7c0.2,0,0.4-0.2,0.4-0.4c0-0.2-0.2-0.4-0.4-0.4c-0.2,0-0.4,0.2-0.4,0.4
		C80.4,38.4,80.6,38.7,80.9,38.7"/>
	<path class="st0" d="M81.8,40.4c0.3,0,0.5-0.2,0.5-0.5c0-0.3-0.2-0.5-0.5-0.5c-0.3,0-0.5,0.2-0.5,0.5
		C81.3,40.2,81.5,40.4,81.8,40.4"/>
	<path class="st0" d="M82,41.7c0,0.3,0.2,0.5,0.5,0.5c0.3,0,0.5-0.2,0.5-0.5s-0.2-0.5-0.5-0.5C82.2,41.2,82,41.4,82,41.7"/>
	<path class="st0" d="M82.4,43.6c0,0.3,0.3,0.6,0.6,0.6s0.6-0.3,0.6-0.6S83.3,43,83,43S82.4,43.3,82.4,43.6"/>
	<path class="st0" d="M82.6,45.5c0,0.3,0.3,0.6,0.6,0.6s0.6-0.3,0.6-0.6c0-0.3-0.3-0.6-0.6-0.6C82.8,44.9,82.6,45.2,82.6,45.5"/>
	<path class="st0" d="M83.8,47.5c0-0.4-0.3-0.7-0.7-0.7s-0.7,0.3-0.7,0.7s0.3,0.7,0.7,0.7C83.5,48.2,83.8,47.8,83.8,47.5"/>
	<path class="st0" d="M83.6,49.4c0-0.4-0.3-0.7-0.7-0.7c-0.4,0-0.7,0.3-0.7,0.7c0,0.4,0.3,0.7,0.7,0.7
		C83.3,50.1,83.6,49.8,83.6,49.4"/>
	<path class="st0" d="M83.1,51.2c0-0.4-0.3-0.8-0.8-0.8s-0.8,0.3-0.8,0.8c0,0.4,0.3,0.8,0.8,0.8C82.8,52,83.1,51.7,83.1,51.2"/>
	<path class="st0" d="M81.5,52.2c-0.5,0-0.8,0.4-0.8,0.8s0.4,0.8,0.8,0.8c0.5,0,0.8-0.4,0.8-0.8C82.4,52.5,82,52.2,81.5,52.2"/>
	<path class="st0" d="M55.8,35.1C55.8,35.1,55.9,35.1,55.8,35.1c0.1-0.1,0-0.1,0-0.1C55.8,35,55.7,35,55.8,35.1
		C55.7,35.1,55.8,35.1,55.8,35.1"/>
	<path class="st0" d="M57.5,34.2c0.1,0,0.1-0.1,0.1-0.1S57.6,34,57.5,34c-0.1,0-0.1,0.1-0.1,0.1S57.5,34.2,57.5,34.2"/>
	<path class="st0" d="M59.3,33.6c0.1,0,0.2-0.1,0.2-0.1s-0.1-0.2-0.2-0.2c-0.1,0-0.1,0.1-0.1,0.2C59.2,33.5,59.2,33.6,59.3,33.6"/>
	<path class="st0" d="M61.2,33.1c0.1,0,0.2-0.1,0.2-0.2c0-0.1-0.1-0.2-0.2-0.2c-0.1,0-0.2,0.1-0.2,0.2C61,33,61.1,33.1,61.2,33.1"/>
	<path class="st0" d="M63.1,32.8c0.1,0,0.3-0.1,0.3-0.3c0-0.1-0.1-0.3-0.3-0.3c-0.1,0-0.3,0.1-0.3,0.3
		C62.8,32.7,62.9,32.8,63.1,32.8"/>
	<path class="st0" d="M65,32.8c0.2,0,0.3-0.1,0.3-0.3c0-0.2-0.1-0.3-0.3-0.3s-0.3,0.1-0.3,0.3C64.7,32.6,64.8,32.8,65,32.8"/>
	<path class="st0" d="M66.9,32.9c0.2,0,0.4-0.2,0.4-0.4c0-0.2-0.2-0.4-0.4-0.4c-0.2,0-0.4,0.2-0.4,0.4S66.7,32.9,66.9,32.9"/>
	<path class="st0" d="M68.8,33.2c0.2,0,0.4-0.2,0.4-0.4c0-0.2-0.2-0.4-0.4-0.4s-0.4,0.2-0.4,0.4C68.4,33.1,68.6,33.2,68.8,33.2"/>
	<path class="st0" d="M70.7,33.8c0.3,0,0.5-0.2,0.5-0.5s-0.2-0.5-0.5-0.5c-0.3,0-0.5,0.2-0.5,0.5C70.3,33.6,70.5,33.8,70.7,33.8"/>
	<path class="st0" d="M72.5,34.6c0.3,0,0.5-0.2,0.5-0.5c0-0.3-0.2-0.5-0.5-0.5c-0.3,0-0.5,0.2-0.5,0.5C72,34.4,72.2,34.6,72.5,34.6"
		/>
	<path class="st0" d="M73.6,35.1c0,0.3,0.3,0.6,0.6,0.6c0.3,0,0.6-0.3,0.6-0.6s-0.3-0.6-0.6-0.6S73.6,34.8,73.6,35.1"/>
	<path class="st0" d="M75.7,37c0.3,0,0.6-0.3,0.6-0.6s-0.3-0.6-0.6-0.6S75,36,75,36.3C75,36.7,75.3,37,75.7,37"/>
	<path class="st0" d="M77,38.4c0.4,0,0.7-0.3,0.7-0.7S77.4,37,77,37c-0.4,0-0.7,0.3-0.7,0.7C76.3,38.1,76.6,38.4,77,38.4"/>
	<path class="st0" d="M78.1,38.5c-0.4,0-0.7,0.3-0.7,0.7c0,0.4,0.3,0.7,0.7,0.7c0.4,0,0.7-0.3,0.7-0.7
		C78.9,38.9,78.6,38.5,78.1,38.5"/>
	<path class="st0" d="M78.3,41c0,0.4,0.3,0.8,0.8,0.8s0.8-0.3,0.8-0.8s-0.3-0.8-0.8-0.8C78.7,40.2,78.3,40.5,78.3,41"/>
	<path class="st0" d="M79,42.8c0,0.5,0.4,0.8,0.8,0.8c0.5,0,0.8-0.4,0.8-0.8s-0.4-0.8-0.8-0.8C79.3,41.9,79,42.3,79,42.8"/>
	<path class="st0" d="M80.2,43.7c-0.5,0-0.9,0.4-0.9,0.9c0,0.5,0.4,0.9,0.9,0.9s0.9-0.4,0.9-0.9C81.2,44.2,80.8,43.7,80.2,43.7"/>
	<path class="st0" d="M48.9,48.2C48.8,48.2,48.8,48.2,48.9,48.2c-0.1,0.1,0,0.2,0,0.2C48.9,48.3,49,48.3,48.9,48.2
		C49,48.2,48.9,48.2,48.9,48.2"/>
	<path class="st0" d="M49.5,46.2c-0.1,0-0.2,0.1-0.2,0.2c0,0.1,0.1,0.2,0.2,0.2s0.2-0.1,0.2-0.2C49.7,46.3,49.6,46.2,49.5,46.2"/>
	<path class="st0" d="M50.5,44.6c0-0.2-0.1-0.3-0.3-0.3c-0.2,0-0.3,0.1-0.3,0.3c0,0.2,0.1,0.3,0.3,0.3
		C50.4,44.9,50.5,44.8,50.5,44.6"/>
	<path class="st0" d="M51.2,43.3c0.2,0,0.4-0.2,0.4-0.4c0-0.2-0.2-0.4-0.4-0.4c-0.2,0-0.4,0.2-0.4,0.4C50.8,43.2,51,43.3,51.2,43.3"
		/>
	<path class="st0" d="M52.3,41.9c0.3,0,0.5-0.2,0.5-0.5s-0.2-0.5-0.5-0.5c-0.3,0-0.5,0.2-0.5,0.5S52,41.9,52.3,41.9"/>
	<path class="st0" d="M53.6,40.5c0.3,0,0.6-0.3,0.6-0.6c0-0.3-0.3-0.6-0.6-0.6c-0.3,0-0.6,0.3-0.6,0.6S53.2,40.5,53.6,40.5"/>
	<path class="st0" d="M55,39.3c0.4,0,0.7-0.3,0.7-0.7c0-0.4-0.3-0.7-0.7-0.7c-0.4,0-0.7,0.3-0.7,0.7C54.3,39,54.6,39.3,55,39.3"/>
	<path class="st0" d="M56.5,38.3c0.4,0,0.8-0.3,0.8-0.8c0-0.4-0.3-0.8-0.8-0.8c-0.4,0-0.8,0.3-0.8,0.8
		C55.7,37.9,56.1,38.3,56.5,38.3"/>
	<path class="st0" d="M58.2,37.4c0.5,0,0.9-0.4,0.9-0.9c0-0.5-0.4-0.9-0.9-0.9c-0.5,0-0.9,0.4-0.9,0.9C57.3,37,57.7,37.4,58.2,37.4"
		/>
	<path class="st0" d="M60,36.8c0.5,0,0.9-0.4,1-0.8c0.2,0.3,0.5,0.5,0.9,0.5c0.4,0,0.8-0.2,1-0.6c0.2,0.3,0.6,0.5,1,0.5
		c0.3,0,0.7-0.1,0.9-0.4c0.2,0.3,0.6,0.5,1.1,0.5c0.3,0,0.5-0.1,0.7-0.2c0.1,0.1,0.1,0.1,0.2,0.2c-0.3,0-0.6,0.2-0.8,0.4
		c-0.3-0.2-0.6-0.4-0.9-0.4c-0.5,0-0.9,0.2-1.1,0.6c-0.2-0.2-0.5-0.3-0.8-0.3c-0.5,0-1,0.3-1.2,0.7c-0.2-0.1-0.4-0.2-0.7-0.2
		c-0.6,0-1.1,0.4-1.2,1c-0.2-0.1-0.4-0.2-0.6-0.2c-0.6,0-1.2,0.5-1.2,1.2l0,0c-0.2-0.1-0.3-0.1-0.5-0.1c-0.6,0-1.1,0.5-1.1,1.1
		c0,0.1,0,0.2,0.1,0.3c-0.1-0.1-0.3-0.1-0.5-0.1c-0.5,0-1,0.5-1,1c0,0.5,0.5,1,1,1s1-0.5,1-1c0-0.1,0-0.2,0-0.3
		c0.2,0.1,0.4,0.2,0.6,0.2c0.6,0,1.1-0.5,1.1-1c0.2,0.1,0.4,0.2,0.6,0.2c0,0,0,0,0.1,0c-0.2,0.2-0.4,0.5-0.4,0.9c-0.1,0-0.1,0-0.2,0
		c-0.7,0-1.3,0.6-1.3,1.3c0,0.1,0,0.1,0,0.1c-0.1,0-0.1,0-0.1,0c-0.7,0-1.2,0.5-1.2,1.2c0,0.1,0,0.3,0.1,0.4c0,0-0.1,0-0.1,0
		c-0.6,0-1.1,0.5-1.1,1.1c0,0.2,0.1,0.4,0.2,0.6h0c-0.6,0-1.1,0.5-1.1,1.1c0,0.3,0.1,0.6,0.3,0.8c0,0,0,0-0.1,0c-0.5,0-1,0.5-1,1
		s0.5,1,1,1s1-0.4,1-1c0-0.3-0.1-0.5-0.3-0.7c0,0,0.1,0,0.1,0c0.3,0,0.6-0.1,0.8-0.3v0c0,0.3,0.1,0.5,0.2,0.7
		c-0.5,0.2-0.8,0.6-0.8,1.1c0,0.3,0.2,0.7,0.4,0.9c-0.4,0.2-0.7,0.6-0.7,1s0.2,0.8,0.6,1c-0.3,0.2-0.6,0.5-0.6,1
		c0,0.5,0.3,0.9,0.8,1c-0.3,0.2-0.5,0.5-0.5,0.9c0,0.5,0.5,1,1,1c0.1,0,0.1,0,0.2,0c-0.4,0.1-0.7,0.5-0.7,0.9c0,0.5,0.4,1,1,1
		s1-0.4,1-1s-0.4-1-1-1c-0.1,0-0.1,0-0.2,0c0.4-0.1,0.7-0.5,0.7-1c0,0,0-0.1,0-0.1c0.1,0.2,0.3,0.3,0.6,0.3
		c-0.2,0.2-0.3,0.4-0.3,0.7c0,0.6,0.5,1.1,1.1,1.1h0c-0.1,0.2-0.2,0.4-0.2,0.6c0,0.6,0.5,1.1,1.1,1.1c0.1,0,0.2,0,0.3-0.1
		c-0.1,0.2-0.2,0.3-0.2,0.5c0,0.5,0.5,1,1,1c0.2,0,0.5-0.1,0.6-0.2c-0.1,0.2-0.2,0.4-0.2,0.6c0,0.5,0.4,1,1,1c0.5,0,1-0.4,1-1
		c0-0.3-0.1-0.5-0.3-0.7c0.1,0,0.3,0,0.4-0.1l0,0c0,0.5,0.3,0.8,0.6,1c-0.1,0-0.1,0-0.2,0c-0.5,0-0.9,0.4-0.9,0.9
		c0,0.5,0.4,0.9,0.9,0.9c0.5,0,0.9-0.4,0.9-0.9c0-0.3-0.2-0.6-0.5-0.8c0.1,0,0.2,0,0.3,0c0.2,0,0.4-0.1,0.6-0.2c0.1,0.6,0.5,1,1.1,1
		c0.3,0,0.6-0.1,0.8-0.3c0.1,0.5,0.5,0.9,1,0.9c0.4,0,0.7-0.2,0.9-0.5c0.1,0.5,0.5,0.8,1,0.8c0.5,0,1-0.4,1-0.9c0,0.5,0.4,0.9,1,0.9
		s1-0.4,1-1s-0.4-0.9-0.9-1c0.1-0.1,0.1-0.2,0.2-0.3c0.2,0.2,0.5,0.3,0.8,0.3c0.1,0,0.2,0,0.3-0.1c-0.2,0.2-0.4,0.4-0.4,0.7
		c0,0.5,0.4,0.9,0.9,0.9c0.5,0,0.9-0.4,0.9-0.9c0-0.5-0.4-0.9-0.9-0.9c-0.1,0-0.2,0-0.3,0c0.3-0.2,0.5-0.4,0.5-0.7
		c0.2,0.2,0.4,0.3,0.7,0.3c0.6,0,1.1-0.5,1.1-1.1v0c0.2,0.1,0.4,0.2,0.6,0.2c0.6,0,1.1-0.5,1.1-1.1c0-0.1,0-0.2-0.1-0.3
		c0.2,0.1,0.3,0.2,0.5,0.2c0.5,0,1-0.5,1-1c0-0.2-0.1-0.5-0.2-0.6c0.2,0.1,0.4,0.2,0.6,0.2c0.5,0,1-0.4,1-1s-0.4-1-1-1
		c-0.3,0-0.5,0.1-0.7,0.3c0-0.1,0-0.3-0.1-0.4l0,0c0.5,0,0.8-0.3,1-0.6c0,0.1,0,0.1,0,0.2c0,0.5,0.4,0.9,0.9,0.9s0.9-0.4,0.9-0.9
		c0-0.5-0.4-0.9-0.9-0.9c-0.3,0-0.6,0.2-0.8,0.5c0-0.1,0-0.2,0-0.3c0-0.2-0.1-0.4-0.2-0.6c0.6-0.1,1-0.5,1-1.1
		c0-0.3-0.1-0.6-0.3-0.8c0.5-0.1,0.9-0.5,0.9-1c0-0.4-0.2-0.7-0.5-0.9c0.5-0.1,0.8-0.5,0.8-1c0-0.5-0.4-1-0.9-1c0.5,0,0.9-0.4,0.9-1
		s-0.4-1-1-1s-1,0.4-1,1c0,0.5,0.4,0.9,0.8,1c-0.5,0-0.9,0.5-0.9,1c0,0.4,0.2,0.7,0.5,0.9c-0.5,0.1-0.9,0.5-0.9,1
		c0,0.3,0.1,0.5,0.3,0.7c-0.5,0.1-1,0.5-1,1.1c0,0.2,0.1,0.4,0.1,0.5c-0.6,0-1.1,0.5-1.1,1.2c0,0.1,0,0.2,0.1,0.3c0,0,0,0-0.1,0
		c-0.7,0-1.2,0.5-1.2,1.2c0,0,0,0.1,0,0.1c-0.1,0-0.1,0-0.2,0c-0.6,0-1.2,0.5-1.2,1.1c-0.1,0-0.2-0.1-0.3-0.1c-0.5,0-1,0.3-1.2,0.7
		c-0.3-0.2-0.6-0.3-1-0.2c-0.4,0.1-0.7,0.3-0.8,0.7c-0.3-0.3-0.6-0.4-1-0.4c-0.4,0.1-0.7,0.3-0.9,0.6c-0.2-0.3-0.5-0.4-0.9-0.4
		s-0.6,0.1-0.9,0.4c-0.1-0.3-0.4-0.5-0.7-0.6c-0.3-0.1-0.7,0-1,0.2c-0.1-0.3-0.3-0.6-0.6-0.8c-0.3-0.1-0.7-0.1-1,0
		c0-0.3-0.1-0.7-0.4-0.9c-0.3-0.2-0.6-0.3-0.9-0.2c0.1-0.3,0-0.7-0.2-1c-0.2-0.3-0.6-0.5-0.9-0.5c0.1-0.3,0.1-0.7,0-1
		c-0.1-0.3-0.4-0.5-0.7-0.6c0.2-0.2,0.3-0.6,0.2-0.9c-0.1-0.3-0.3-0.7-0.6-0.8c0.3-0.2,0.5-0.5,0.5-1c0-0.3-0.1-0.7-0.4-0.9
		c0.3-0.1,0.5-0.4,0.6-0.7s0-0.7-0.2-1c0.3-0.1,0.6-0.3,0.7-0.5c0.2-0.3,0.2-0.7,0.1-1c0.3,0,0.7-0.1,0.9-0.4c0.2-0.3,0.3-0.6,0.3-1
		c0.3,0.1,0.7,0,1-0.2c0.3-0.2,0.5-0.5,0.5-0.8c0.3,0.1,0.7,0.2,1,0.1c0.3-0.1,0.5-0.4,0.6-0.7c0.2,0.2,0.5,0.3,0.9,0.3l0,0
		c0.4,0,0.7-0.2,0.9-0.5c0.2,0.3,0.5,0.5,0.9,0.5c0.3,0,0.7-0.1,0.9-0.3c0.1,0.3,0.4,0.5,0.7,0.7c0.3,0.1,0.7,0.1,1-0.1
		c0.1,0.3,0.3,0.6,0.6,0.8l0,0c0.3,0.1,0.5,0.2,0.8,0.1c0,0.1,0.1,0.1,0.1,0.1c0,0.3,0.1,0.5,0.3,0.7l0,0c0.6,0.6,2,2.1,1.7,4.1
		c-0.1,0.5,0.2,0.7,0.6,0.4c2.2-2.4,1.8-5.2,1.8-5.6c0-0.2-0.1-0.4-0.1-0.6c0-0.1,0-0.3,0-0.4c0-0.6-0.3-1.2-0.7-1.5
		c0-0.1,0-0.2,0-0.3c0-0.7-0.5-1.4-1.1-1.7c0-0.8-0.6-1.5-1.4-1.7c-0.1-0.7-0.8-1.3-1.6-1.3c0,0-0.1,0-0.1,0
		c-0.2-0.6-0.8-1.1-1.5-1.1c-0.1,0-0.3,0-0.4,0.1c-0.2-0.5-0.7-0.9-1.3-0.9c-0.2,0-0.5,0.1-0.6,0.1c-0.2-0.4-0.7-0.7-1.2-0.7
		c-0.3,0-0.6,0.1-0.9,0.3c-0.2-0.3-0.6-0.5-1-0.5c-0.4,0-0.8,0.2-1,0.5c-0.2-0.3-0.5-0.4-0.9-0.4c-0.5,0-0.9,0.3-1.1,0.7
		C62.6,34.2,62.3,34,62,34c-0.6,0-1,0.4-1.1,1c-0.2-0.2-0.5-0.4-0.8-0.4c-0.5,0-1,0.4-1,1C59,36.3,59.5,36.8,60,36.8"/>
	<path class="st0" d="M53.3,62.4C53.3,62.4,53.3,62.5,53.3,62.4c-0.1,0.1-0.1,0.2,0,0.2C53.4,62.6,53.4,62.6,53.3,62.4
		C53.4,62.5,53.4,62.4,53.3,62.4"/>
	<path class="st0" d="M52.5,60.7c-0.1,0-0.1,0.1-0.1,0.1c0,0.1,0.1,0.1,0.1,0.1s0.1-0.1,0.1-0.1C52.6,60.7,52.5,60.7,52.5,60.7"/>
	<path class="st0" d="M51.7,58.8c-0.1,0-0.2,0.1-0.2,0.2c0,0.1,0.1,0.2,0.2,0.2S52,59.1,52,59C52,58.9,51.8,58.8,51.7,58.8"/>
	<path class="st0" d="M51.2,56.9c-0.2,0-0.3,0.1-0.3,0.3c0,0.2,0.1,0.3,0.3,0.3s0.3-0.1,0.3-0.3C51.5,57,51.4,56.9,51.2,56.9"/>
	<path class="st0" d="M51.3,55.2c0-0.2-0.2-0.4-0.4-0.4s-0.4,0.2-0.4,0.4c0,0.2,0.2,0.4,0.4,0.4C51.1,55.6,51.3,55.4,51.3,55.2"/>
	<path class="st0" d="M51.2,53.3c0-0.3-0.2-0.5-0.5-0.5s-0.5,0.2-0.5,0.5s0.2,0.5,0.5,0.5S51.2,53.6,51.2,53.3"/>
	<path class="st0" d="M50.3,51.4c0,0.3,0.2,0.5,0.5,0.5c0.3,0,0.5-0.2,0.5-0.5c0-0.3-0.2-0.5-0.5-0.5C50.6,50.8,50.3,51.1,50.3,51.4
		"/>
	<path class="st0" d="M51.1,50.1c0.3,0,0.6-0.3,0.6-0.6c0-0.3-0.3-0.6-0.6-0.6c-0.3,0-0.6,0.3-0.6,0.6
		C50.5,49.8,50.8,50.1,51.1,50.1"/>
	<path class="st0" d="M51.7,46.9c-0.4,0-0.7,0.3-0.7,0.7s0.3,0.7,0.7,0.7s0.7-0.3,0.7-0.7C52.4,47.2,52.1,46.9,51.7,46.9"/>
	<path class="st0" d="M52.4,46.6c0.4,0,0.8-0.3,0.8-0.8c0-0.4-0.3-0.8-0.8-0.8s-0.8,0.3-0.8,0.8C51.7,46.3,52,46.6,52.4,46.6"/>
	<path class="st0" d="M53.4,45c0.5,0,0.8-0.4,0.8-0.8s-0.4-0.8-0.8-0.8s-0.8,0.4-0.8,0.8S53,45,53.4,45"/>
	<path class="st0" d="M55.6,42.7c0-0.5-0.4-0.9-0.9-0.9s-0.9,0.4-0.9,0.9c0,0.5,0.4,0.9,0.9,0.9C55.1,43.6,55.6,43.2,55.6,42.7"/>
	<path class="st0" d="M103,57.4c-1,0-2-0.2-2.9-0.6c-0.9-0.4-1.7-0.9-2.3-1.6c-0.7-0.7-1.2-1.4-1.6-2.3c-0.4-0.9-0.6-1.8-0.6-2.9
		s0.2-2,0.6-2.9c0.4-0.9,0.9-1.7,1.6-2.3c0.7-0.7,1.4-1.2,2.3-1.6c0.9-0.4,1.8-0.6,2.9-0.6s2,0.2,2.9,0.6c0.9,0.4,1.7,1,2.4,1.6
		c0.1,0.1,0.3,0.3,0.3,0.5c0.1,0.3,0.1,0.5-0.1,0.7c-0.2,0.3-0.4,0.4-0.7,0.4l0,0c-0.3,0-0.6-0.1-0.8-0.3c-0.5-0.4-1.1-0.8-1.8-1.2
		c-0.7-0.3-1.4-0.5-2.2-0.5s-1.5,0.1-2.1,0.4s-1.2,0.7-1.7,1.2c-0.5,0.5-0.9,1.1-1.2,1.8c-0.3,0.7-0.4,1.4-0.4,2.1s0.1,1.5,0.4,2.1
		c0.3,0.7,0.7,1.2,1.2,1.7c0.5,0.5,1.1,0.9,1.7,1.2s1.4,0.4,2.1,0.4c0.8,0,1.5-0.1,2.2-0.5c0.7-0.3,1.3-0.7,1.8-1.3
		c0.1-0.2,0.3-0.3,0.6-0.3c0.1,0,0.1,0,0.2,0c0.2,0,0.3,0.1,0.5,0.1c0.2,0.2,0.3,0.5,0.3,0.7s-0.1,0.5-0.3,0.7
		c-0.7,0.7-1.5,1.3-2.4,1.7C105.1,57.2,104.1,57.4,103,57.4"/>
	<path class="st0" d="M118.4,57.4c-1,0-2-0.2-2.9-0.6c-0.9-0.4-1.7-0.9-2.3-1.6c-0.7-0.7-1.2-1.4-1.6-2.3c-0.4-0.9-0.6-1.8-0.6-2.9
		s0.2-2,0.6-2.9c0.4-0.9,0.9-1.7,1.6-2.3c0.7-0.7,1.4-1.2,2.3-1.6c0.9-0.4,1.8-0.6,2.9-0.6s2,0.2,2.9,0.6c0.9,0.4,1.7,0.9,2.3,1.6
		s1.2,1.4,1.6,2.3c0.4,0.9,0.6,1.8,0.6,2.9s-0.2,2-0.6,2.9c-0.4,0.9-0.9,1.7-1.6,2.3c-0.7,0.7-1.4,1.2-2.3,1.6
		C120.3,57.2,119.4,57.4,118.4,57.4 M118.4,44.6c-0.7,0-1.5,0.1-2.1,0.4c-0.7,0.3-1.2,0.7-1.7,1.2c-0.5,0.5-0.9,1.1-1.2,1.8
		c-0.3,0.7-0.4,1.4-0.4,2.1s0.1,1.5,0.4,2.1c0.3,0.7,0.7,1.2,1.2,1.7c0.5,0.5,1.1,0.9,1.7,1.2c0.7,0.3,1.4,0.4,2.1,0.4
		s1.5-0.1,2.1-0.4s1.2-0.7,1.7-1.2c0.5-0.5,0.9-1.1,1.2-1.7c0.3-0.7,0.4-1.4,0.4-2.1s-0.1-1.5-0.4-2.1c-0.3-0.7-0.7-1.2-1.2-1.8
		c-0.5-0.5-1.1-0.9-1.7-1.2C119.8,44.7,119.1,44.6,118.4,44.6"/>
	<path class="st0" d="M138.7,57.4c-0.3,0-0.5-0.1-0.7-0.3c-0.2-0.2-0.3-0.4-0.3-0.7v-8.4c0-0.5-0.1-0.9-0.3-1.4
		c-0.2-0.4-0.4-0.8-0.8-1.1c-0.3-0.3-0.7-0.6-1.1-0.8c-0.4-0.2-0.9-0.3-1.4-0.3c-0.5,0-1,0.1-1.4,0.3c-0.4,0.2-0.8,0.4-1.1,0.8
		c-0.3,0.3-0.6,0.7-0.7,1.1c-0.2,0.4-0.3,0.9-0.3,1.4v8.4c0,0.3-0.1,0.5-0.3,0.7c-0.2,0.2-0.4,0.3-0.7,0.3s-0.5-0.1-0.7-0.3
		c-0.2-0.2-0.3-0.4-0.3-0.7V48c0-0.7,0.1-1.4,0.4-2.1s0.7-1.2,1.2-1.7c0.5-0.5,1.1-0.9,1.7-1.2c0.7-0.3,1.4-0.4,2.1-0.4
		s1.4,0.1,2.1,0.4c0.7,0.3,1.2,0.7,1.7,1.2c0.5,0.5,0.9,1.1,1.2,1.7c0.3,0.7,0.4,1.4,0.4,2.1v8.4c0,0.3-0.1,0.5-0.3,0.7
		C139.2,57.3,138.9,57.4,138.7,57.4"/>
	<path class="st0" d="M147.9,57.4c-0.7,0-1.4-0.1-2-0.3c-0.6-0.2-1.2-0.5-1.7-1c-0.5-0.4-0.9-0.9-1.2-1.4c-0.3-0.5-0.4-1.2-0.4-1.8
		c0-0.2,0.1-0.5,0.3-0.6c0.2-0.2,0.4-0.3,0.6-0.3c0.3,0,0.5,0.1,0.6,0.3c0.2,0.2,0.3,0.4,0.3,0.6c0,0.4,0.1,0.7,0.3,1
		c0.2,0.3,0.4,0.6,0.7,0.9c0.3,0.2,0.7,0.4,1.1,0.6c0.4,0.1,0.9,0.2,1.4,0.2s1-0.1,1.4-0.2c0.4-0.1,0.8-0.3,1.1-0.6
		c0.3-0.2,0.6-0.5,0.7-0.9c0.2-0.3,0.2-0.7,0.2-1c0-0.3-0.1-0.7-0.3-1c-0.2-0.3-0.4-0.6-0.7-0.8c-0.3-0.2-0.7-0.4-1.1-0.6
		c-0.4-0.2-0.8-0.3-1.3-0.3c-0.6,0-1.2-0.2-1.8-0.4c-0.6-0.2-1.1-0.5-1.6-0.8c-0.5-0.3-0.8-0.7-1.1-1.1c-0.3-0.4-0.4-1-0.4-1.5
		c0-0.5,0.1-1,0.4-1.5c0.3-0.5,0.6-0.9,1.1-1.2c0.4-0.3,1-0.6,1.6-0.8c0.6-0.2,1.2-0.3,1.9-0.3c0.7,0,1.3,0.1,1.9,0.3
		c0.6,0.2,1.1,0.5,1.6,0.8c0.5,0.3,0.8,0.7,1.1,1.2c0.3,0.5,0.4,1,0.4,1.5c0,0.3-0.1,0.5-0.3,0.7c-0.2,0.2-0.4,0.3-0.7,0.3
		c-0.3,0-0.5-0.1-0.7-0.3c-0.2-0.2-0.3-0.4-0.3-0.7c0-0.2-0.1-0.4-0.2-0.6c-0.2-0.2-0.4-0.4-0.7-0.6c-0.3-0.2-0.6-0.3-1-0.4
		c-0.4-0.1-0.8-0.1-1.2-0.1s-0.8,0.1-1.2,0.1c-0.4,0.1-0.7,0.2-1,0.4c-0.3,0.2-0.5,0.4-0.6,0.6c-0.1,0.2-0.2,0.5-0.2,0.7
		c0,0.2,0.1,0.4,0.3,0.6c0.2,0.2,0.5,0.4,0.7,0.6c0.3,0.2,0.7,0.3,1,0.4c0.4,0.1,0.7,0.2,1,0.2c0.7,0.1,1.4,0.2,2,0.5
		c0.6,0.3,1.2,0.6,1.6,1c0.5,0.4,0.8,0.9,1.1,1.4c0.3,0.5,0.4,1.1,0.4,1.7c0,0.6-0.1,1.2-0.4,1.8c-0.3,0.5-0.7,1-1.2,1.4
		c-0.5,0.4-1,0.7-1.7,1C149.3,57.3,148.7,57.4,147.9,57.4"/>
	<path class="st0" d="M157.4,57.4c-0.3,0-0.5-0.1-0.7-0.3c-0.2-0.2-0.3-0.4-0.3-0.7V43.6c0-0.3,0.1-0.5,0.3-0.7
		c0.2-0.2,0.4-0.3,0.7-0.3h7.9c0.3,0,0.5,0.1,0.7,0.3c0.2,0.2,0.3,0.4,0.3,0.7c0,0.3-0.1,0.5-0.3,0.7c-0.2,0.2-0.4,0.3-0.7,0.3h-6.9
		V49h4.9c0.3,0,0.5,0.1,0.7,0.3c0.2,0.2,0.3,0.4,0.3,0.7s-0.1,0.5-0.3,0.7c-0.2,0.2-0.4,0.3-0.7,0.3h-4.9v4.6h6.9
		c0.3,0,0.5,0.1,0.7,0.3c0.2,0.2,0.3,0.4,0.3,0.7c0,0.3-0.1,0.5-0.3,0.7c-0.2,0.2-0.4,0.3-0.7,0.3L157.4,57.4L157.4,57.4z"/>
	<path class="st0" d="M178.7,57.4c-0.3,0-0.5-0.1-0.7-0.3c-0.2-0.2-0.3-0.4-0.3-0.7v-8.4c0-0.5-0.1-0.9-0.3-1.4
		c-0.2-0.4-0.4-0.8-0.8-1.1c-0.3-0.3-0.7-0.6-1.1-0.8c-0.4-0.2-0.9-0.3-1.4-0.3c-0.5,0-1,0.1-1.4,0.3c-0.4,0.2-0.8,0.4-1.1,0.8
		c-0.3,0.3-0.6,0.7-0.7,1.1c-0.2,0.4-0.3,0.9-0.3,1.4v8.4c0,0.3-0.1,0.5-0.3,0.7c-0.2,0.2-0.4,0.3-0.7,0.3s-0.5-0.1-0.7-0.3
		c-0.2-0.2-0.3-0.4-0.3-0.7v-8.4c0-0.7,0.1-1.4,0.4-2.1c0.3-0.7,0.7-1.2,1.2-1.7c0.5-0.5,1.1-0.9,1.7-1.2c0.7-0.3,1.4-0.4,2.1-0.4
		c0.7,0,1.4,0.1,2.1,0.4c0.6,0.3,1.2,0.7,1.7,1.2c0.5,0.5,0.9,1.1,1.2,1.7c0.3,0.7,0.4,1.4,0.4,2.1v8.4c0,0.3-0.1,0.5-0.3,0.7
		C179.2,57.3,178.9,57.4,178.7,57.4"/>
	<path class="st0" d="M187.9,57.4c-0.7,0-1.4-0.1-2-0.3c-0.6-0.2-1.2-0.5-1.7-1c-0.5-0.4-0.9-0.9-1.2-1.4c-0.3-0.5-0.4-1.2-0.4-1.8
		c0-0.2,0.1-0.5,0.3-0.6c0.2-0.2,0.4-0.3,0.6-0.3c0.3,0,0.5,0.1,0.6,0.3c0.2,0.2,0.3,0.4,0.3,0.6c0,0.4,0.1,0.7,0.3,1
		c0.2,0.3,0.4,0.6,0.7,0.9c0.3,0.3,0.7,0.4,1.1,0.6c0.4,0.1,0.9,0.2,1.4,0.2s1-0.1,1.4-0.2c0.4-0.1,0.8-0.3,1.1-0.6
		c0.3-0.2,0.6-0.5,0.7-0.9c0.2-0.3,0.2-0.7,0.2-1c0-0.3-0.1-0.7-0.3-1c-0.2-0.3-0.4-0.6-0.7-0.8c-0.3-0.2-0.7-0.4-1.1-0.6
		c-0.4-0.2-0.8-0.3-1.3-0.3c-0.6,0-1.2-0.2-1.8-0.4c-0.6-0.2-1.1-0.5-1.6-0.8c-0.5-0.3-0.8-0.7-1.1-1.1c-0.3-0.4-0.4-1-0.4-1.5
		c0-0.5,0.1-1,0.4-1.5c0.3-0.5,0.6-0.9,1.1-1.2c0.5-0.3,1-0.6,1.6-0.8c0.6-0.2,1.2-0.3,1.9-0.3c0.7,0,1.3,0.1,1.9,0.3
		c0.6,0.2,1.1,0.5,1.6,0.8c0.5,0.3,0.8,0.7,1.1,1.2c0.3,0.5,0.4,1,0.4,1.5c0,0.3-0.1,0.5-0.3,0.7c-0.2,0.2-0.4,0.3-0.7,0.3
		c-0.3,0-0.5-0.1-0.7-0.3c-0.2-0.2-0.3-0.4-0.3-0.7c0-0.2-0.1-0.4-0.2-0.6c-0.1-0.2-0.4-0.4-0.7-0.6c-0.3-0.2-0.6-0.3-1-0.4
		c-0.4-0.1-0.8-0.1-1.2-0.1s-0.8,0.1-1.2,0.1c-0.4,0.1-0.7,0.2-1,0.4c-0.3,0.2-0.5,0.4-0.6,0.6c-0.1,0.2-0.2,0.5-0.2,0.7
		c0,0.2,0.1,0.4,0.3,0.6c0.2,0.2,0.5,0.4,0.7,0.6c0.3,0.2,0.7,0.3,1,0.4c0.3,0.1,0.7,0.2,1,0.2c0.7,0.1,1.4,0.2,2,0.5
		c0.6,0.3,1.2,0.6,1.6,1c0.5,0.4,0.8,0.9,1.1,1.4c0.3,0.5,0.4,1.1,0.4,1.7c0,0.6-0.1,1.2-0.4,1.8c-0.3,0.5-0.7,1-1.2,1.4
		c-0.5,0.4-1,0.7-1.7,1C189.4,57.3,188.7,57.4,187.9,57.4"/>
	<path class="st0" d="M202.1,57.4c-0.3,0-0.5-0.1-0.7-0.3c-0.2-0.2-0.3-0.4-0.3-0.7v-4.8l-5.8-7.5c-0.1-0.2-0.2-0.4-0.2-0.7
		c0-0.3,0.1-0.5,0.3-0.6c0.2-0.1,0.4-0.2,0.6-0.2c0.3,0,0.5,0.1,0.7,0.3l5.3,6.8l5.4-6.8c0.2-0.2,0.4-0.3,0.6-0.3h0
		c0.3,0,0.5,0.1,0.7,0.2c0.2,0.2,0.3,0.4,0.3,0.6c0,0.3-0.1,0.5-0.2,0.7l-5.9,7.5v4.8c0,0.3-0.1,0.5-0.3,0.7
		C202.6,57.3,202.4,57.4,202.1,57.4"/>
	<path class="st0" d="M216.3,57.4c-0.7,0-1.4-0.1-2-0.3c-0.6-0.2-1.2-0.5-1.7-1c-0.5-0.4-0.9-0.9-1.2-1.4c-0.3-0.5-0.4-1.2-0.4-1.8
		c0-0.2,0.1-0.5,0.3-0.6c0.2-0.2,0.4-0.3,0.6-0.3s0.5,0.1,0.6,0.3c0.2,0.2,0.3,0.4,0.3,0.6c0,0.4,0.1,0.7,0.3,1
		c0.2,0.3,0.4,0.6,0.7,0.9c0.3,0.2,0.7,0.4,1.1,0.6c0.4,0.1,0.9,0.2,1.4,0.2c0.5,0,1-0.1,1.4-0.2c0.4-0.1,0.8-0.3,1.1-0.6
		c0.3-0.2,0.6-0.5,0.7-0.9c0.2-0.3,0.2-0.7,0.2-1c0-0.3-0.1-0.7-0.3-1c-0.2-0.3-0.4-0.6-0.7-0.8c-0.3-0.2-0.7-0.4-1.1-0.6
		c-0.4-0.2-0.8-0.3-1.3-0.3c-0.6,0-1.2-0.2-1.8-0.4c-0.6-0.2-1.1-0.5-1.6-0.8c-0.5-0.3-0.8-0.7-1.1-1.1c-0.3-0.4-0.4-1-0.4-1.5
		c0-0.5,0.1-1,0.4-1.5c0.3-0.5,0.6-0.9,1.1-1.2c0.4-0.3,1-0.6,1.6-0.8c0.6-0.2,1.2-0.3,1.9-0.3c0.7,0,1.3,0.1,1.9,0.3
		c0.6,0.2,1.1,0.5,1.6,0.8c0.5,0.3,0.8,0.7,1.1,1.2c0.3,0.5,0.4,1,0.4,1.5c0,0.3-0.1,0.5-0.3,0.7c-0.2,0.2-0.4,0.3-0.7,0.3
		c-0.3,0-0.5-0.1-0.7-0.3c-0.2-0.2-0.3-0.4-0.3-0.7c0-0.2-0.1-0.4-0.2-0.6c-0.2-0.2-0.4-0.4-0.7-0.6c-0.3-0.2-0.6-0.3-1-0.4
		c-0.4-0.1-0.8-0.1-1.2-0.1s-0.8,0.1-1.2,0.1c-0.4,0.1-0.7,0.2-1,0.4c-0.3,0.2-0.5,0.4-0.6,0.6c-0.1,0.2-0.2,0.5-0.2,0.7
		c0,0.2,0.1,0.4,0.3,0.6c0.2,0.2,0.5,0.4,0.7,0.6c0.3,0.2,0.7,0.3,1,0.4c0.4,0.1,0.7,0.2,1,0.2c0.7,0.1,1.4,0.2,2,0.5
		c0.6,0.3,1.2,0.6,1.6,1c0.5,0.4,0.8,0.9,1.1,1.4c0.3,0.5,0.4,1.1,0.4,1.7s-0.1,1.2-0.4,1.8c-0.3,0.5-0.7,1-1.2,1.4
		c-0.5,0.4-1,0.7-1.7,1C217.7,57.3,217,57.4,216.3,57.4"/>
</g>
</svg>
