<?xml version="1.0" encoding="utf-8"?>
<!-- Generator: Adobe Illustrator 26.3.1, SVG Export Plug-In . SVG Version: 6.00 Build 0)  -->
<svg version="1.1" id="katman_1" xmlns="http://www.w3.org/2000/svg" xmlns:xlink="http://www.w3.org/1999/xlink" x="0px" y="0px"
	 viewBox="0 0 300 100" style="enable-background:new 0 0 300 100;" xml:space="preserve">
<style type="text/css">
	.st0{display:none;fill:#FFFFFF;}
</style>
<g id="Group_161" transform="translate(879.235 -222.48)">
	<path id="Path_620" d="M-812.6,283.5h-21.8v-21.9h21.8V283.5z M-822.6,279.6v-14h-1.8v14H-822.6z M-820.1,275
		c1.9,0.3,1.9,0.3,1.9-1.5c0-2.2,0-4.3,0-6.5c0-1.8-0.2-1.8-1.9-1.3V275z M-827,265.4c-0.8,0.3-1.8-0.6-1.9,0.7c-0.2,3,0,6,0,9h1.9
		V265.4z"/>
	<path id="Path_621" d="M-655.9,274l3.3,4.8c-1.5,0.6-2.2,0.4-3.1-0.8c-0.8-1.1-1.5-2.3-2.3-3.3c-0.3-0.3-0.6-0.7-0.9-0.7
		c-2.1-0.1-4.1,0-6.3,0v5h-2.1v-13.1h4.6c1.9,0,3.8,0,5.8,0c2.3,0,3.8,1.2,4.3,3.1c0.5,2-0.5,3.8-2.6,4.8
		C-655.4,273.8-655.6,273.9-655.9,274z M-665.2,272c3,0,5.9,0.1,8.8,0c1.1-0.1,1.9-1,1.8-2.1c0-0.1,0-0.1,0-0.2c0-1.1-0.8-2-1.9-2
		c-1.6-0.1-3.1-0.1-4.7-0.1c-1.3,0-2.7,0-4,0L-665.2,272z"/>
	<path id="Path_622" d="M-732.4,279c-1.5,0.5-3.1,0-4-1.3c-2.4-2.8-5.1-5.6-7.7-8.4c-0.3-0.3-0.5-0.7-0.7-1l-0.4,0.3V279h-2.1v-13
		c1.3-0.3,2.6-0.3,3.7,0.9c2.8,3.3,5.9,6.4,9,9.8v-10.8h2.2V279z"/>
	<path id="Path_623" d="M-683.7,273.4c-2,0-4.1,0.1-6.1,0c-1.2-0.1-1.7,0.3-1.5,1.5c0.1,0.8,0.1,1.5,0,2.2h11.5c0.4,1.9,0.3,2-1.4,2
		c-3.6,0-7.3,0-10.9,0c-0.4,0-0.9,0-1.4-0.1v-13.2h1.5c3.7,0,7.4,0,11.1,0c0.7,0,1.2-0.1,1.3,0.9c0,1-0.6,1-1.3,1c-3,0-6,0-9,0
		c-0.4,0-0.9,0-1.3,0.1c-0.1,0.1-0.1,0.3-0.2,0.3c-0.3,3.3-0.3,3.3,2.9,3.3c1.1,0,2.3,0,3.3,0C-683.3,271.4-683.3,271.5-683.7,273.4
		z"/>
	<path id="Path_624" d="M-798.2,279h-2.1v-13c0.4,0,0.8-0.1,1.1-0.1c3.2,0,6.4,0,9.5,0c2.3-0.1,4.2,1.7,4.3,3.9c0,0.1,0,0.1,0,0.2
		c0,2.3-1.8,4-4,4.1h-0.1c-2.5,0.1-5,0.1-7.5,0c-0.9,0-1.3,0.3-1.2,1.2C-798.1,276.4-798.2,277.6-798.2,279z M-798.1,272
		c3,0,5.9,0,8.6,0c1.2,0,2.1-0.9,2.1-2.1c0.1-1.1-0.7-2-1.8-2.2c0,0,0,0-0.1,0c-2.9-0.1-5.9,0-8.9,0L-798.1,272L-798.1,272z"/>
	<path id="Path_625" d="M-624.4,279c-1.4,0.3-2.5,0.1-2.9-1.4c-0.3-1.3-1.3-1.6-2.5-1.5c-1.8,0.1-3.6,0.1-5.4,0
		c-1.2-0.3-2.3,0.5-2.6,1.6c-0.7,1.7-0.8,1.7-3,1.3c1.2-2.3,2.3-4.5,3.6-6.8c1-1.8,1.9-3.7,2.9-5.5c0.6-1,2.9-1.2,3.4-0.2
		c2.2,4.1,4.3,8.1,6.4,12.2C-624.4,278.7-624.4,278.8-624.4,279z M-632.5,267.7l-3.4,6.4h6.8L-632.5,267.7z"/>
	<path id="Path_626" d="M-776.1,279c0.4-0.8,0.8-1.6,1.3-2.4c1.8-3.3,3.5-6.6,5.3-9.9c0.6-1.1,2.9-1.2,3.5-0.1
		c2.2,4,4.3,8.1,6.4,12.1c0,0.1,0,0.2,0,0.3c-1.7,0.6-2.1,0.5-2.8-1.1c-0.3-1.3-1.6-2-2.9-1.8c-1.8,0.2-3.5,0.2-5.3,0
		c-1.1-0.2-2.1,0.4-2.4,1.5C-773.9,279.3-774,279.3-776.1,279z M-771.2,274h6.8l-3.3-6.4L-771.2,274z"/>
	<path id="Path_627" d="M-711.8,279h-2.2v-11.3h-6.4v-1.8h14.7v1.8h-6.3L-711.8,279z"/>
	<path id="Path_628" class="st0" d="M-822.6,279.6h-1.8v-14h1.8V279.6z"/>
	<path id="Path_629" class="st0" d="M-818.1,273.5c0,1.8,0,1.8-1.9,1.5v-9.4c1.8-0.5,1.9-0.3,1.9,1.3"/>
	<path id="Path_630" class="st0" d="M-827,265.4v9.7h-1.9c0-3-0.1-6,0-9C-828.8,264.8-827.7,265.7-827,265.4z"/>
</g>
</svg>
