<?xml version="1.0" encoding="utf-8"?>
<!-- Generator: Adobe Illustrator 26.3.1, SVG Export Plug-In . SVG Version: 6.00 Build 0)  -->
<svg version="1.1" id="katman_1" xmlns="http://www.w3.org/2000/svg" xmlns:xlink="http://www.w3.org/1999/xlink" x="0px" y="0px"
	 viewBox="0 0 300 100" style="enable-background:new 0 0 300 100;" xml:space="preserve">
<style type="text/css">
	.st0{fill:#00E100;}
</style>
<path class="st0" d="M92,40.9L67.3,26.6l-3.1,1.8V32l-3.1-1.8L58,32v3.6l-3.1-1.8l-3.1,1.8v28.5l3.1,1.8l3.1-1.8v3.6l3.1,1.8
	l3.1-1.8v3.6l3.1,1.8L92,58.7v-3.6l-3.1-1.8l3.1-1.8V48l-3.1-1.8l3.1-1.8V40.9z M58,60.5l-3.1,1.8v-25l3.1,1.8V60.5z M67.3,62.3
	v-3.6l12.4-7.1l3.1,1.8L67.3,62.3z M76.5,49.8l-9.3,5.3V44.5L76.5,49.8z M79.6,48l-12.4-7.1v-3.6l15.4,8.9L79.6,48z M61.1,33.8
	l3.1,1.8v3.6l-3.1-1.8V33.8z M61.1,40.9l3.1,1.8V57l-3.1,1.8V40.9z M61.1,62.3l3.1-1.8v3.6l-3.1,1.8V62.3z M88.9,57L67.3,69.4v-3.6
	l18.5-10.7L88.9,57z M88.9,49.8l-3.1,1.8l-3.1-1.8l3.1-1.8L88.9,49.8z M85.8,44.5L67.3,33.8v-3.6l21.6,12.5L85.8,44.5L85.8,44.5z"/>
<path d="M104.8,62.3h-3.6v-25h10.9c5,0,8,3,8,7.5s-3,7.5-8,7.5h-7.3L104.8,62.3L104.8,62.3z M116.6,44.8c0-2.5-1.4-4.5-4.5-4.5h-7.3
	v8.9h7.3C115.1,49.3,116.6,47.3,116.6,44.8z M121.4,48.6c0.4-3,2.9-5.3,7.9-5.3c3.1,0,5.7,0.8,7,3c0.6,1,0.9,2.2,0.9,3.7v12.3h-3.4
	V60c-1.1,1.4-3.2,2.9-6.2,2.9c-3.8,0-7-2-7-6.1c0-3.2,2.2-5.5,6.8-5.9l6.4-0.5V50c0-2.5-1.1-4.1-4.5-4.1c-2.7,0-4.2,1.1-4.4,2.7
	L121.4,48.6L121.4,48.6z M133.8,54.3v-1.4l-6.1,0.5c-2.5,0.2-3.7,1.4-3.7,3.4c0,2.5,1.8,3.4,3.9,3.4C131.1,60.2,133.8,58,133.8,54.3
	L133.8,54.3z M147.8,46.6c-2.5,0-4.1,1.4-4.1,4.6v11.1h-3.4V43.8h3.4v2.1c0.9-1.6,2.3-2.5,5-2.5h1v3.2L147.8,46.6L147.8,46.6z
	 M150.6,48.6c0.4-3,2.9-5.3,7.9-5.3c3.1,0,5.7,0.8,7,3c0.6,1,0.9,2.2,0.9,3.7v12.3H163V60c-1.1,1.4-3.2,2.9-6.2,2.9
	c-3.8,0-7-2-7-6.1c0-3.2,2.2-5.5,6.8-5.9l6.4-0.5V50c0-2.5-1.1-4.1-4.5-4.1c-2.7,0-4.2,1.1-4.4,2.7L150.6,48.6L150.6,48.6z
	 M163,54.3v-1.4l-6.1,0.5c-2.5,0.2-3.7,1.4-3.7,3.4c0,2.5,1.8,3.4,3.9,3.4C160.3,60.2,163,58,163,54.3L163,54.3z M183.2,59.8
	c-1.1,1.8-3.2,3-6.1,3c-5.6,0-8.6-4.5-8.6-9.8s3-9.8,8.6-9.8c2.9,0,5,1.2,6.1,3v-8.9h3.4v25h-3.4L183.2,59.8L183.2,59.8z
	 M177.7,46.1c-3.7,0-5.7,3-5.7,7s2,7,5.7,7c3.7,0,5.7-3.2,5.7-7C183.4,49.3,181.5,46.1,177.7,46.1z M199.9,59.5v2.9h-11v-2.9h3.8
	V46.6h-3.8v-2.9h7.2v15.7L199.9,59.5L199.9,59.5z M196.1,40.9h-3.4v-3.6h3.4V40.9z M214.3,59.5c-0.7,1.1-2.7,2.7-5.9,2.7
	c-5.2,0-8.6-4.3-8.6-9.4s3.4-9.4,8.6-9.4c3.2,0,5.2,1.6,5.9,2.7v-2.1h3.4v16.6c0,5.9-3.4,8.9-8.8,8.9c-4.1,0-7.2-2.1-7.9-5.3h3.6
	c0.3,1.3,1.6,2.7,4.3,2.7c3.9,0,5.3-2.5,5.3-6.2L214.3,59.5L214.3,59.5z M208.7,46.1c-3.4,0-5.5,3-5.5,6.6c0,3.6,2.1,6.6,5.5,6.6
	c3.6,0,5.7-3,5.7-6.6C214.4,49.1,212.3,46.1,208.7,46.1L208.7,46.1z M224.2,45.9c1.1-2,3.2-2.7,5.3-2.7c2.5,0,4.8,1.1,5.9,3.2
	c1.1-2,3-3.2,6.2-3.2c3.9,0,6.8,2.3,6.8,7v12.1h-3.4V50.7c0-3-1.2-4.6-4.1-4.6c-2.3,0-4.6,1.4-4.6,5.2v11.1h-3.4V50.7
	c0-3-1.2-4.6-4.1-4.6c-2.3,0-4.6,1.4-4.6,5.2v11.1h-3.4V43.8h3.4L224.2,45.9L224.2,45.9z"/>
</svg>
