<?xml version="1.0" encoding="UTF-8"?>
<svg id="katman_1" data-name="katman 1" xmlns="http://www.w3.org/2000/svg" viewBox="0 0 300 100">
  <defs>
    <style>
      .cls-1 {
        fill: #020101;
      }
    </style>
  </defs>
  <path id="polychain-capital" class="cls-1" d="M74,41.39h2.51v1.19h-9.08v-1.19h2.51v-15.62c0-.5-.17-.66-.66-.66h-1.85v-1.35h9.74c1.14,0,2.28,.16,3.37,.5,2.17,.78,3.55,2.91,3.37,5.21-.11,2.27-1.79,4.15-4.03,4.53-1.6,.27-3.23,.38-4.86,.33-.83,0-1.19,.16-1.19,.83v5.38c.15,.26,.2,.56,.16,.86Zm-.16-16.45v8.06c1.18,.08,2.36,.08,3.53,0,1.52-.17,2.01-.83,2.18-2.35v-3.37c-.06-1.09-.93-1.95-2.02-2.01-1.19-.17-2.35-.17-3.7-.33h0Zm30.57,32.89c.47-.49,.98-.94,1.52-1.35,.17-.17,.5-.33,.66-.17,.17,0,.33,.5,.33,.66v6.04c0,.33,0,.66-.66,.66-.5,0-.83,0-1.02-.66-.12-.93-.4-1.84-.83-2.68-.83-1.85-2.18-3.04-4.36-2.84-2.19-.12-4.24,1.07-5.22,3.03-.32,.58-.54,1.2-.66,1.85-.44,2.67-.39,5.41,.17,8.06,.64,2.81,3.36,4.65,6.21,4.19,2.63-.35,4.62-2.56,4.69-5.22,0-.5,.33-.66,.83-.66s.5,.33,.5,.83c-.28,2.95-2.36,5.42-5.21,6.21-3.04,.66-7.73-.17-10.07-4.03-1.47-2.41-1.9-5.32-1.19-8.06,1.19-6.04,7.23-8.06,11.09-7.06,1.13,.22,2.23,.62,3.23,1.19h0ZM170.05,24.25v1.19h-1.85c-.5,0-.66,.17-.66,.66v5.71c0,.33,0,.66,.5,.66h6.04v-7.06h-2.51v-1.19h8.72v1.19h-1.85c-.5,0-.66,.16-.66,.66v14.79c0,.5,.16,.66,.66,.5h1.35c.5,0,.5,.33,.5,.66,0,.5-.17,.5-.5,.5h-8.22c-.33-1.19-.17-1.19,.83-1.19h1.35v-6.87c0-.5-.17-.83-.83-.66h-5.22c-.5,0-.66,.17-.66,.66v6.37c0,.5,.17,.66,.66,.66h.83q1.02,0,1.02,1.19h-8.72v-1.19h1.85c.5,0,.66-.17,.66-.66v-14.79c0-.5-.17-.66-.66-.66h-1.85v-1.17c3.34,.04,6.18,.04,9.21,.04h0Zm-82.78,9.07c.17-3.03,.83-5.55,3.2-7.73,3.53-3.2,11.59-2.84,13.6,4.03,.92,2.76,.74,5.76-.5,8.39-1.57,3.39-5.22,5.31-8.91,4.69-3.59-.4-6.48-3.14-7.06-6.71-.2-.88-.31-1.77-.33-2.67h0Zm4.19-.17c-.03,1.01,.03,2.03,.17,3.04,.05,1.76,.77,3.44,2.02,4.69,1.23,1.3,3.29,1.34,4.58,.11h0s.07-.07,.11-.11c.72-.85,1.29-1.81,1.69-2.84,.6-2.3,.72-4.71,.33-7.06-.1-1.16-.38-2.3-.83-3.37-.74-2-2.97-3.01-4.96-2.27h0c-1.05,.39-1.87,1.22-2.26,2.27-.99,1.52-.83,3.53-.83,5.55h0Zm122.24-7.73v-1.19h5.38c.63-.08,1.24,.25,1.52,.83,2.68,3.7,5.38,7.4,8.06,11.09,0-.17,0,0,.33,.17,0-.33,.16-.5,.16-.66v-9.24c0-.66-.16-1.02-.83-1.02-.57,.02-1.13-.04-1.69-.17v-1.19h6.38v1.19c-.66,0-.99,.17-1.52,.17-.66,0-1.02,.33-1.02,1.19v15.12c0,.33-.17,.83-.5,.83-.36-.04-.71-.15-1.02-.33-.17,0-.17-.16-.17-.33-3.04-4.19-6.04-8.39-9.24-12.58-.5-.83-1.19-1.52-1.85-2.51v13.42c0,.83,.16,1.19,.99,1.19h.5q.99,0,.99,1.19h-6.37c-.33-1.02-.33-1.19,.83-1.19q1.52-.17,1.52-1.69v-13.45c0-.66-.17-1.02-.83-.83h-1.63Zm-76.9,48.83h2.02c.5,0,.5,.33,.5,.66s0,.66-.5,.66h-7.89c-.5,0-.5-.17-.5-.66,0-.33,0-.66,.5-.66h2.01v-14.92c0-.66-.17-1.02-.83-1.02h-1.02c-.5,0-.66-.17-.66-.66s.17-.66,.66-.66h9.57c2.02,0,4.03,.66,5.05,2.51,1.44,2.26,.77,5.25-1.49,6.69h0c-.57,.36-1.21,.6-1.87,.7-1.55,.27-3.12,.38-4.69,.33-.66,0-.83,.17-.83,.83-.03,2.18-.03,4.03-.03,6.21h0Zm-.17-12.09v3.37c0,.33,0,.66,.5,.66,1.01,.03,2.03-.03,3.03-.17,1.09,.03,1.99-.82,2.02-1.91h0c0-.09,0-.18,0-.26v-3.52c-.17-1.35-.66-2.01-2.02-2.18-1.02-.17-1.85,0-2.84-.17-.5,0-.66,.17-.66,.66-.03,1.34-.03,2.53-.03,3.52h0Zm29.55-3.7c-1.02,.07-2.04,.24-3.03,.5-.81,.19-1.42,.86-1.52,1.69-.19,.71-.3,1.44-.33,2.18q-.16,1.02-1.35,.83v-1.35c.19-1.5,.3-3.01,.33-4.53,0-.33,0-.66,.5-.66h14.95c.13,.01,.24,.07,.33,.17,.17,2.02,.33,4.19,.5,6.21q-1.19,.33-1.35-.83c-.21-.54-.32-1.11-.33-1.69-.2-1.4-1.43-2.42-2.84-2.34h-1.85v15.62h3.53v1.19h-10.92v-1.19h3.53c-.14-5.19-.14-10.4-.14-15.78h0Zm34.6-15.93h-8.22c-.33-1.19-.17-1.19,.83-1.19h1.19c-.5-1.19-.83-2.35-1.19-3.37,0-.17-.33-.17-.5-.17h-5.05c-.17,0-.5,.17-.5,.33-.33,1.02-.66,2.01-1.02,3.04,.5,0,.83,.17,1.19,.17,1.02,0,1.02,.33,.83,1.19h-5.88q-.17-1.19,.83-1.19c.88,.11,1.69-.48,1.85-1.35,1.69-5.05,3.53-10.07,5.38-15.29,.17-.5,.33-1.02,1.02-1.02s1.02,.33,1.19,1.02c1.35,4.03,2.84,8.06,4.19,12.09,.53,1.32,.98,2.66,1.35,4.03,.13,.44,.56,.73,1.02,.66h.5q1.16-.14,.99,1.05h0Zm-7.73-6.22c-.83-2.35-1.69-4.53-2.35-6.9h-.16c-.83,2.18-1.52,4.53-2.35,6.71,1.61,.17,3.24,.23,4.86,.19Zm-73.04,37.93h2.18c-.5-1.19-.83-2.34-1.19-3.37,0-.16-.33-.33-.5-.33h-5.05c-.25,.04-.48,.16-.66,.33-.33,1.02-.66,1.85-1.02,3.04,.66,.17,1.35,.17,2.01,.33v1.19h-5.87q-.33-1.19,.83-1.19,1.35,0,1.85-1.35c1.85-5.05,3.53-10.07,5.38-15.29,.17-.5,.33-1.02,1.19-1.02s1.02,.5,1.19,1.02c1.85,5.22,3.7,10.57,5.55,15.78,.17,.66,.5,.83,1.19,.83h.83c.5,0,.5,.33,.5,.66s-.17,.66-.5,.66h-7.23c-1.02-.11-.49-.77-.66-1.3h0Zm-4.55-5.02h5.05c-.83-2.35-1.69-4.52-2.34-6.9h-.17c-.85,2.37-1.68,4.55-2.54,6.9h0Zm70.86,6.21v-1.19h2.18c-.46-1.1-.85-2.22-1.19-3.37,0-.16-.33-.33-.66-.33h-4.85c-.29,.05-.54,.23-.66,.5-.33,.83-.66,1.85-1.02,3.04,.66,.17,1.35,.17,2.01,.33v1.19h-5.88c-.33-1.02-.33-1.19,.83-1.19q1.35,0,1.85-1.35c1.85-5.05,3.53-10.07,5.38-15.12,.17-.5,.33-1.02,1.19-1.02s1.02,.5,1.19,1.02c1.85,5.22,3.7,10.57,5.55,15.78,.17,.5,.5,.83,1.02,.66h.66c.5,0,.83,0,.83,.66s-.33,.66-.83,.66h-6.9c-.17-.28-.33-.28-.69-.28h0Zm-1.82-12.94h-.17c-.83,2.18-1.52,4.53-2.35,6.71h5.05c-1-2.18-1.84-4.41-2.54-6.7h0Zm-52.76-29.19c1.52-2.68,2.84-5.05,4.36-7.73-.66-.17-1.19-.17-1.85-.33v-1.19h5.88v1.02l-.16,.16c-1.69-.16-2.51,.66-3.2,2.02-1.19,2.51-2.68,4.86-4.03,7.23-.19,.31-.3,.66-.33,1.02v5.05c0,.5,.17,.66,.66,.66h.83q1.02,0,.83,1.19h-8.55v-1.19h1.85c.33,0,.66-.17,.66-.5v-5.22c0-.33-.17-.5-.33-.83-1.69-3.03-3.36-5.88-5.05-8.72-.32-.31-.74-.48-1.19-.5-.5-.08-1.01-.08-1.52,0v-1.19h8.39v1.19c-.68-.02-1.35,.03-2.01,.17,1.76,2.45,3.12,4.99,4.77,7.67h0Zm26.88-5.88v2.84c0,.5,0,.83-.66,.83-.5,0-.83-.16-.83-.66-.07-1.74-.94-3.34-2.35-4.36-2.51-2.02-6.71-.66-7.89,2.51-.33,1.37-.5,2.78-.5,4.19-.02,1.76,.2,3.52,.66,5.22,.66,2.51,3.2,3.86,5.88,3.7,2.48-.32,4.38-2.36,4.53-4.85,0-.5,.17-.83,.83-.83s.5,.5,.5,.83c-.28,2.83-2.3,5.17-5.05,5.88-4.05,.97-8.26-.8-10.4-4.36-2.02-3.7-2.02-10.57,3.53-13.44,2.84-1.52,6.04-1.85,8.91,.17,.17,.17,.5,0,.66,0,.36-.38,.76-.72,1.19-1.02,.16,0,.5-.33,.66-.17,.16,0,.33,.5,.33,.66v2.87Zm52.23,40.79c-.33,2.35-.5,4.53-.83,6.9,0,.17-.5,.33-.83,.33h-11.59q-1.02,0-.83-1.19h2.34v-15.09c0-.66-.16-1.02-.83-.83h-.66q-1.19,0-.83-1.19h9.24c.33,1.19,.17,1.19-.83,1.19h-2.18v15.8c3.03,.66,5.38-.66,6.04-3.53,.17-.5,.17-1.02,.33-1.52,.25-1.02,.25-1.2,1.43-.87h0ZM121.18,35.34c-.33,2.35-.5,4.86-.83,7.23h-13.27v-1.19h1.85c.5,0,.66-.17,.66-.66v-15.28h-2.35v-1.19h9.57v1.19h-3.21v15.09c0,.66,.17,.83,.83,.83,3.37,0,4.86-1.35,5.55-4.69,0-.17,.17-.33,.17-.5-.33-.99,.19-.99,1.02-.83h0Zm27.54,22.99v-1.19h9.08v1.19h-2.01c-.33,0-.66,.17-.66,.5v15.12q0,.17,.16,.33h2.51v1.19h-9.08v-1.19h2.01c.5,0,.5-.16,.5-.5v-14.78c0-.5-.16-.66-.66-.66h-1.85Zm54.08-32.89v-1.19h8.06q.99-.17,.99,1.19h-2.7v15.09c0,.83,.17,1.02,1.02,.83h.66q.99,0,.99,1.19h-9.08q-.17-1.19,1.02-1.19,1.69,0,1.69-1.69v-13.43c0-.66-.17-1.02-.83-.83-.66,.03-1.32,.03-1.82,.03h0Z"/>
</svg>