<?xml version="1.0" encoding="utf-8"?>
<!-- Generator: Adobe Illustrator 26.3.1, SVG Export Plug-In . SVG Version: 6.00 Build 0)  -->
<svg version="1.1" id="katman_1" xmlns="http://www.w3.org/2000/svg" xmlns:xlink="http://www.w3.org/1999/xlink" x="0px" y="0px"
	 viewBox="0 0 300 100" style="enable-background:new 0 0 300 100;" xml:space="preserve">
<style type="text/css">
	.st0{clip-path:url(#SVGID_00000073687311781155702340000000283263164868788884_);}
	.st1{fill:#1B1917;}
</style>
<g>
	<defs>
		<rect id="SVGID_1_" x="83.4" y="41.2" width="133.6" height="17.8"/>
	</defs>
	<clipPath id="SVGID_00000097495757697397704550000000483416844624023217_">
		<use xlink:href="#SVGID_1_"  style="overflow:visible;"/>
	</clipPath>
	<g style="clip-path:url(#SVGID_00000097495757697397704550000000483416844624023217_);">
		<path class="st1" d="M130.7,58.8l-1.7-3c0.8-1.5,0.8-3.3,0.8-5.7c0-3,0-5.2-1.7-7c-1.2-1.3-2.9-2-4.7-1.9c-1.8,0-3.5,0.7-4.7,1.9
			c-1.7,1.7-1.7,3.9-1.7,7c0,3.1-0.1,5.2,1.7,7c0.6,0.6,1.3,1.1,2.1,1.5c0.8,0.3,1.7,0.5,2.5,0.5c0.5,0,1-0.1,1.4-0.2L130.7,58.8z
			 M121.1,55c-0.6-0.7-0.8-1.5-0.8-4.9s0.2-4.2,0.8-4.9c0.3-0.3,0.6-0.5,1-0.7c0.4-0.2,0.8-0.2,1.2-0.2c0.4,0,0.8,0.1,1.2,0.2
			c0.4,0.2,0.7,0.4,1,0.7c0.6,0.7,0.8,1.5,0.8,4.9s-0.2,4.2-0.8,4.9c-0.3,0.3-0.6,0.5-1,0.7c-0.4,0.1-0.8,0.2-1.2,0.2
			c-0.4,0-0.8-0.1-1.2-0.2C121.7,55.5,121.4,55.3,121.1,55z"/>
		<path class="st1" d="M170.1,41.4h3.3v17.5h-3.3V41.4z"/>
		<path class="st1" d="M89.7,59c-2.6,0-4.6-0.5-6.3-2.3l2.2-2.2c1.1,1,2.6,1.6,4.1,1.5c2,0,3.1-0.7,3.1-2.2c0-0.3,0-0.5-0.1-0.8
			c-0.1-0.2-0.2-0.5-0.4-0.7c-0.4-0.4-1-0.6-1.5-0.6l-2.1-0.3c-1.2-0.1-2.4-0.6-3.3-1.5c-0.4-0.5-0.7-1-1-1.6
			c-0.2-0.6-0.3-1.2-0.3-1.9c0-3.1,2.2-5.3,6-5.3c2.3,0,4.1,0.5,5.6,2l-2.2,2.1c-1-0.9-2.2-1.3-3.5-1.2c-1.8,0-2.7,1-2.7,2.2
			c0,0.5,0.2,0.9,0.5,1.3c0.5,0.4,1,0.6,1.6,0.7l2.1,0.3c1.2,0,2.4,0.5,3.3,1.4c0.5,0.5,0.8,1.1,1.1,1.7c0.2,0.6,0.3,1.3,0.3,2
			C96.2,57.1,93.3,59,89.7,59"/>
		<path class="st1" d="M101.1,58.8V41.4h11.4v3h-8v4.1h6.8v3.1h-6.8v4.3h8v3L101.1,58.8"/>
		<path class="st1" d="M141.2,59c-3.5,0-6.4-2.4-6.4-6.2V41.4h3.4v11.4c0,2,1.2,3.2,3,3.2s3-1.2,3-3.2V41.4h3.3v11.4
			C147.5,56.5,144.7,59,141.2,59"/>
		<path class="st1" d="M163.5,57.1c-1.2,1.3-2.9,2-4.7,1.9c-1.8,0-3.5-0.7-4.7-1.9c-1.7-1.7-1.7-3.9-1.7-7s-0.1-5.2,1.7-7
			c1.2-1.3,2.9-2,4.6-1.9c1.8,0,3.4,0.7,4.7,1.9c1.7,1.7,1.7,3.9,1.7,7S165.2,55.3,163.5,57.1z M161,45.2c-1.2-1.2-3.1-1.2-4.3,0
			c0,0,0,0,0,0c-0.6,0.7-0.8,1.5-0.8,4.9s0.2,4.2,0.8,4.9c1.2,1.2,3.1,1.2,4.3,0c0,0,0,0,0,0c0.6-0.7,0.8-1.5,0.8-4.9
			S161.6,45.9,161,45.2L161,45.2z"/>
		<path class="st1" d="M189.4,58.8l-1-3.1h-6.1l-1.1,3.1h-3.5l6.3-17.5h2.6l6.3,17.5H189.4z M185.3,46.4l-2.2,6.4h4.3L185.3,46.4z"
			/>
		<path class="st1" d="M212.7,41.4h4.3v4.4h-4.3V41.4z"/>
		<path class="st1" d="M201.9,55.1V41.4h-2.2v15.9L201.9,55.1z"/>
		<path class="st1" d="M203.4,56.6l-2.2,2.2H217v-2.2H203.4z"/>
		<path class="st1" d="M206.2,50.7v-9.4h-2.2v11.5L206.2,50.7z"/>
		<path class="st1" d="M207.8,52.3l-2.2,2.2H217v-2.2H207.8z"/>
		<path class="st1" d="M210.5,46.4v-5h-2.2v7.2L210.5,46.4z"/>
		<path class="st1" d="M212.1,47.9l-2.2,2.2h7.1v-2.2H212.1z"/>
	</g>
</g>
</svg>
