<?xml version="1.0" encoding="utf-8"?>
<!-- Generator: Adobe Illustrator 26.3.1, SVG Export Plug-In . SVG Version: 6.00 Build 0)  -->
<svg version="1.1" id="katman_1" xmlns="http://www.w3.org/2000/svg" xmlns:xlink="http://www.w3.org/1999/xlink" x="0px" y="0px"
	 viewBox="0 0 300 100" style="enable-background:new 0 0 300 100;" xml:space="preserve">
<style type="text/css">
	.st0{fill:#E84142;}
	.st1{fill:#FFFFFF;}
	.st2{fill-rule:evenodd;clip-rule:evenodd;fill:#E84142;}
</style>
<path class="st0" d="M106.7,43.2h2.1l5.8,13.4h-2.7l-1.2-3.1h-5.8l-1.2,3.1h-2.7L106.7,43.2z M109.7,51.4l-2.1-5.4l-2.1,5.4H109.7z"
	/>
<path class="st0" d="M117,43.2h2.7l3.6,10.1l3.8-10.1h2.6l-5.4,13.4h-2.1L117,43.2z"/>
<path class="st0" d="M138.2,43.2h2.1l5.8,13.4h-2.7l-1.2-3.1h-5.8l-1.2,3.1h-2.7L138.2,43.2z M141.2,51.4l-2.1-5.4l-2.1,5.4H141.2z"
	/>
<path class="st0" d="M151.3,43.2h2.4v11.2h5.7v2.1h-8.1V43.2z"/>
<path class="st0" d="M169.1,43.2h2.1l5.8,13.4h-2.7l-1.2-3.1h-5.8l-1.2,3.1h-2.7L169.1,43.2z M172.1,51.4l-2.1-5.4l-2.1,5.4H172.1z"
	/>
<path class="st0" d="M182.2,43.2h3.1l6.5,9.9h0v-9.9h2.4v13.4h-3l-6.6-10.2h0v10.2h-2.4V43.2z"/>
<path class="st0" d="M210.1,46.3c-0.5-0.5-1-0.9-1.4-1.1c-0.5-0.2-0.9-0.3-1.4-0.3c-0.7,0-1.3,0.1-1.9,0.4c-0.6,0.2-1,0.6-1.4,1
	c-0.4,0.4-0.7,0.9-0.9,1.5c-0.2,0.6-0.3,1.2-0.3,1.9c0,0.7,0.1,1.4,0.3,2c0.2,0.6,0.5,1.1,0.9,1.6c0.4,0.4,0.9,0.8,1.4,1
	c0.6,0.3,1.2,0.4,1.9,0.4c0.5,0,1.1-0.1,1.6-0.4c0.5-0.3,1-0.7,1.4-1.2l2,1.4c-0.6,0.8-1.3,1.4-2.2,1.8c-0.9,0.4-1.8,0.6-2.8,0.6
	c-1,0-2-0.2-2.8-0.5c-0.9-0.3-1.6-0.8-2.2-1.4c-0.6-0.6-1.1-1.4-1.5-2.2c-0.4-0.9-0.5-1.8-0.5-2.8c0-1.1,0.2-2,0.5-2.9
	c0.4-0.9,0.8-1.6,1.5-2.2c0.6-0.6,1.4-1.1,2.2-1.4c0.9-0.3,1.8-0.5,2.8-0.5c0.9,0,1.7,0.2,2.5,0.5c0.8,0.3,1.5,0.9,2.2,1.6
	L210.1,46.3z"/>
<path class="st0" d="M217.7,43.2h2.4v5.3h6.2v-5.3h2.4v13.4h-2.4v-5.9H220v5.9h-2.4V43.2z"/>
<path class="st0" d="M235.4,43.2h8.8v2.1h-6.5v3.3h6.1v2.1h-6.1v3.6h6.8v2.1h-9.2V43.2z"/>
<circle class="st1" cx="74.7" cy="49.8" r="15"/>
<path class="st2" d="M93.8,49.8c0,10.6-8.6,19.2-19.2,19.2s-19.2-8.6-19.2-19.2s8.6-19.2,19.2-19.2S93.8,39.3,93.8,49.8z M69.2,57.5
	h-3.7c-0.8,0-1.2,0-1.4-0.2c-0.3-0.2-0.4-0.4-0.4-0.7c0-0.3,0.2-0.6,0.6-1.3l9.2-16.2c0.4-0.7,0.6-1,0.8-1.2c0.3-0.1,0.6-0.1,0.9,0
	c0.2,0.1,0.4,0.5,0.8,1.2l1.9,3.3l0,0l0,0c0.4,0.7,0.6,1.1,0.7,1.5c0.1,0.4,0.1,0.9,0,1.3c-0.1,0.4-0.3,0.8-0.7,1.5L73,55.3l0,0
	c-0.4,0.7-0.6,1.1-0.9,1.4c-0.3,0.3-0.7,0.5-1.1,0.7C70.5,57.5,70.1,57.5,69.2,57.5z M78.6,57.5h5.3l0,0c0.8,0,1.2,0,1.4-0.2
	c0.3-0.2,0.4-0.4,0.4-0.7c0-0.3-0.2-0.6-0.5-1.2c0,0,0,0,0-0.1l-2.7-4.6l0-0.1c-0.4-0.6-0.6-1-0.8-1.1c-0.3-0.1-0.6-0.1-0.9,0
	c-0.2,0.1-0.4,0.5-0.8,1.1l-2.7,4.6l0,0c-0.4,0.7-0.6,1-0.6,1.3c0,0.3,0.2,0.6,0.4,0.7C77.4,57.5,77.8,57.5,78.6,57.5z"/>
</svg>
