<svg xmlns="http://www.w3.org/2000/svg" fill-rule="nonzero" image-rendering="optimizeQuality" shape-rendering="geometricPrecision" viewBox="0 0 4091.3 4091.7">
    <path d="M4030.1 2540.8c-273.24 1096-1383.3 1763-2479.5 1489.7C454.9 3757.26-212.1 2647.1 61.3 1551.2 334.42 455.1 1444.5-212 2540.3 61.2c1096.1 273.24 1763 1383.5 1489.8 2479.6l.02-.02z" fill="#f7931a"/><path d="M2947.8 1754.4c40.72-272.26-166.56-418.61-450-516.24l91.95-368.8-224.5-55.94-89.51 359.09-179.87-42.34 90.16-361.46-224.36-55.94-92 368.68-143.35-33.69.26-1.16-309.59-77.31-59.72 239.78s166.56 38.18 163.05 40.53c90.91 22.69 107.35 82.87 104.62 130.57l-104.74 420.15c6.26 1.59 14.38 3.89 23.34 7.49l-23.73-5.87L1373 2390.51c-11.11 27.62-39.31 69.07-102.87 53.33 2.25 3.26-163.17-40.72-163.17-40.72L995.5 2660.1l292.15 72.83 160.06 41.3-92.9 373.03 224.24 55.94 92-369.07 178.91 46.43-91.69 367.33 224.51 55.94 92.89-372.33c382.82 72.45 670.67 43.24 791.83-303.02 97.63-278.78-4.86-439.58-206.26-544.44 146.69-33.83 257.18-130.31 286.64-329.61l-.07-.05zm-512.93 719.26c-69.38 278.78-538.76 128.08-690.94 90.29l123.28-494.2c152.17 37.99 640.17 113.17 567.67 403.91zm69.43-723.3c-63.29 253.58-453.96 124.75-580.69 93.16l111.77-448.21c126.73 31.59 534.85 90.55 468.94 355.05h-.02z" fill="#fff"/>
</svg>