<svg fill="#0073ff" viewBox="0 0 375 346.51" xmlns="http://www.w3.org/2000/svg">
        <path d="m102.76 172a25.31 25.31 0 0 0 23.78 26.65h1.46a25.26 25.26 0 1 0-25.24-26.65z"/>
        <path d="m8.62 165.5a8.16 8.16 0 1 0 7.69 8.61 8.15 8.15 0 0 0-7.69-8.61z"/>
        <path d="m101.16 25.43a8.16 8.16 0 1 0-11-3.62 8.18 8.18 0 0 0 11 3.62z"/>
        <path d="m126.78 70.1a12.61 12.61 0 1 0-16.94-5.59 12.62 12.62 0 0 0 16.94 5.59z"/>
        <path d="m40.58 100.82a10.39 10.39 0 1 0-3-14.38 10.39 10.39 0 0 0 3 14.38z"/>
        <path d="M55.93,161a12.62,12.62,0,1,0,11.88,13.31A12.62,12.62,0,0,0,55.93,161Z"/>
        <path d="m42 245.72a10.39 10.39 0 1 0 13.95 4.6 10.37 10.37 0 0 0-13.95-4.6z"/>
        <path d="M91,134.89a14.84,14.84,0,1,0-4.27-20.55A14.83,14.83,0,0,0,91,134.89Z"/>
        <path d="m246.47 69.1a12.62 12.62 0 1 0-3.63-17.47 12.61 12.61 0 0 0 3.63 17.47z"/>
        <path d="m272.35 24.57a8.16 8.16 0 1 0-2.35-11.31 8.16 8.16 0 0 0 2.35 11.31z"/>
        <path d="m248.45 147.91a25.25 25.25 0 0 0-2.87 50.42h1.45a25.25 25.25 0 0 0 1.42-50.46z"/>
        <path d="M135.08,133.14A25.12,25.12,0,0,0,157.64,147a25.25,25.25,0,0,0,22.54-36.62,25.25,25.25,0,1,0-45.1,22.73Z"/>
        <path d="m333 100.79a10.39 10.39 0 1 0-14-4.6 10.4 10.4 0 0 0 14 4.6z"/>
        <path d="m269 108.83a14.84 14.84 0 1 0 19.94 6.58 14.86 14.86 0 0 0-19.94-6.58z"/>
        <path d="m186.55 20.76a10.39 10.39 0 1 0-9.79-11 10.38 10.38 0 0 0 9.79 11z"/>
        <path d="m186.43 86.13a14.84 14.84 0 1 0-14-15.66 14.84 14.84 0 0 0 14 15.66z"/>
        <path d="m106 237.68a14.84 14.84 0 1 0-19.93-6.58 14.85 14.85 0 0 0 19.93 6.58z"/>
        <path d="M196,107.79a25.22,25.22,0,1,0,21.14-11.41A25.28,25.28,0,0,0,196,107.79Z"/>
        <path d="m239.92 213.37a25.26 25.26 0 1 0-11.18 33.91 25.11 25.11 0 0 0 11.18-33.91z"/>
        <path d="m284 211.62a14.84 14.84 0 1 0 4.27 20.55 14.84 14.84 0 0 0-4.27-20.55z"/>
        <path d="m332.38 173.68a12.62 12.62 0 1 0-13.31 11.88 12.62 12.62 0 0 0 13.31-11.88z"/>
        <path d="m367.3 164.71a8.16 8.16 0 1 0 7.69 8.61 8.17 8.17 0 0 0-7.69-8.61z"/>
        <path d="m334.42 245.68a10.39 10.39 0 1 0 3 14.39 10.39 10.39 0 0 0-3-14.39z"/>
        <path d="m102.65 321.94a8.16 8.16 0 1 0 2.34 11.3 8.17 8.17 0 0 0-2.34-11.3z"/>
        <path d="m273.83 321.08a8.16 8.16 0 1 0 11 3.62 8.16 8.16 0 0 0-11-3.62z"/>
        <path d="M179,238.71a25.25,25.25,0,1,0-21.14,11.41A25.1,25.1,0,0,0,179,238.71Z"/>
        <path d="m128.53 277.41a12.62 12.62 0 1 0 3.63 17.47 12.62 12.62 0 0 0-3.63-17.47z"/>
        <path d="m187.38 325.74a10.39 10.39 0 1 0 9.78 11 10.39 10.39 0 0 0-9.78-11z"/>
        <path d="m187.49 260.37a14.84 14.84 0 1 0 14 15.67 14.85 14.85 0 0 0-14-15.67z"/>
        <path d="m248.21 276.4a12.62 12.62 0 1 0 17 5.59 12.62 12.62 0 0 0-17-5.59z"/>
</svg>