<svg fill="#1969FF" viewBox="0 0 1024 1024" xmlns="http://www.w3.org/2000/svg">
    <circle cx="512" cy="512" r="512"/>
    <path d="m480.95 162.82c17.25-9.0939 43.496-9.0939 60.746 0l176.02 92.795c10.389 5.4765 16.094 13.638 17.117 22.063h0.16819v466.43c-0.22918 9.1905-5.9883 18.319-17.285 24.274l-176.02 92.795c-17.25 9.0937-43.496 9.0937-60.746 0l-176.02-92.795c-11.249-5.9303-16.647-15.123-16.915-24.274-0.027446-0.93888-0.029849-1.7127-8.32e-4 -2.35l8.32e-4 -460.94c-0.026245-0.64836-0.026522-1.294-6.47e-4 -1.9368l6.47e-4 -1.2036h0.078642c0.7818-8.5182 6.2284-16.471 16.836-22.063l176.02-92.795zm226.05 374.18-165.36 87.46c-17.225 9.1111-43.433 9.1111-60.658 0l-164.99-87.265v205.47l164.99 86.802c9.7501 5.2167 19.888 10.299 29.76 10.521l0.56935 0.007547c9.8525 0.032183 19.418-4.9775 29.117-9.7202l166.57-88.359v-204.92zm-446.58 197c0 17.881 2.0597 29.633 6.1493 37.912 3.3896 6.8627 8.4755 12.107 17.762 18.489l0.53009 0.36173c2.038 1.3869 4.283 2.8394 7.0159 4.5456l3.2227 1.9913 9.8961 6.0257-14.194 23.675-11.076-6.7492-1.8618-1.1535c-3.2026-1.995-5.857-3.7077-8.3329-5.3927-26.467-18.002-36.338-37.63-36.532-78.461l-0.002947-1.2439h27.424zm237.58-321c-1.2807 0.44042-2.4812 0.95115-3.5755 1.5304l-175.75 93.094c-0.18445 0.097151-0.36032 0.1943-0.5277 0.2896l-0.14883 0.086047 0.27598 0.15914 0.40055 0.21743 175.75 93.094c1.0943 0.5792 2.2948 1.0899 3.5755 1.5304v-190zm28 0v190c1.2816-0.44042 2.4821-0.95115 3.5764-1.5304l175.75-93.094c0.18454-0.097151 0.36078-0.1943 0.52779-0.2896l0.14948-0.086973-0.27589-0.15822-0.40138-0.21743-175.75-93.094c-1.0943-0.5792-2.2948-1.0899-3.5764-1.5304zm181-102-158 83 158 83v-166zm-391 0v166l158-83-158-83zm213.42-123.37c-9.1473-4.8362-25.698-4.8362-34.845 0l-175.9 92.997c-0.18461 0.097974-0.36063 0.1941-0.52815 0.29023l-0.14896 0.085959 0.27622 0.15805 0.4009 0.21813 175.9 92.996c9.1473 4.8368 25.698 4.8368 34.845 0l175.9-92.996c0.1847-0.097974 0.36109-0.1941 0.52825-0.2893l0.14961-0.086883-0.27613-0.15805-0.40173-0.21813-175.9-92.997zm203.77 9.3729 11.076 6.7493 1.8615 1.1532c3.2025 1.9945 5.857 3.7081 8.3332 5.3922 26.467 18.003 36.338 37.63 36.532 78.461l0.002744 1.2439h-27.424c0-17.882-2.06-29.633-6.1497-37.913-3.3891-6.862-8.4749-12.106-17.761-18.488l-0.53054-0.36247c-2.038-1.3862-4.2828-2.8386-7.016-4.5452l-3.2226-1.9914-9.8964-6.0254 14.194-23.675z" fill="#fff" fillRule="nonzero"/>
</svg>