<svg xmlns="http://www.w3.org/2000/svg" fill="#a0a0a0" viewBox="0 0 500 456.4">
    <path d="M27.32 49.897c-.92.027-1.816-.3-2.504-.913s-1.115-1.466-1.195-2.385l-.416-3.266c-3.964-1.131-6.284-4.067-6.886-8.73L12.751 7.087a13.2 13.2 0 0 0-2.315-.166c-1.148-.01-2.291.138-3.398.44v41.73H.037V15.548c0-4.552 2.041-7.766 5.76-9.104V4.282c0-2.5 1.518-4.179 3.774-4.179s3.671 1.405 4.036 3.968l.278 2.004c4.071 1.139 6.45 4.413 7.156 9.727l3.298 26.523a15.72 15.72 0 0 0 5.967 0l3.298-26.519c.69-5.318 3.096-8.592 7.156-9.742l.277-2.004c.365-2.552 1.8-3.969 4.036-3.969s3.775 1.679 3.775 4.179v2.163c3.718 1.337 5.76 4.551 5.76 9.103v33.543h-7.009V7.357a12.54 12.54 0 0 0-3.398-.44c-.775-.013-1.55.043-2.315.166l-3.568 27.52c-.591 4.58-2.966 7.588-6.886 8.73l-.393 3.27a3.53 3.53 0 0 1-3.719 3.294zm-2.818-6.246l.36 2.813a2.35 2.35 0 0 0 2.458 2.203 2.31 2.31 0 0 0 .907-.117c.291-.1.559-.256.789-.461a2.31 2.31 0 0 0 .547-.733c.132-.278.206-.58.219-.888l.361-2.817a17.39 17.39 0 0 1-5.641 0zm24.346 4.21h4.511V15.548c0-3.857-1.554-6.52-4.511-7.762v40.075zm-47.574 0h4.523V7.786c-2.954 1.242-4.492 3.905-4.492 7.762l-.031 32.313zM14.063 7.429l3.497 27.012c.499 3.908 2.343 6.436 5.475 7.539l-3.231-26.024c-.595-4.587-2.478-7.388-5.741-8.527zm26.519 0c-3.263 1.139-5.154 3.94-5.741 8.531L31.61 41.964c3.136-1.103 4.975-3.631 5.475-7.539l3.497-26.996zM7.046 6.048c1.112-.271 2.253-.404 3.397-.397.716-.008 1.431.035 2.141.127l-.214-1.56c-.273-1.912-1.217-2.881-2.799-2.881S7.046 2.46 7.046 4.266v1.782zm37.155-.397a13.99 13.99 0 0 1 3.398.397V4.282c0-1.806-.968-2.929-2.526-2.929s-2.525.968-2.799 2.881l-.214 1.56c.71-.092 1.425-.135 2.141-.127v-.016z" transform="matrix(9.1624 0 0 9.1624 -.33901 -.83378)" clip-path="url(#clip0)"/>
</svg>