<?xml version="1.0" encoding="utf-8"?>
<!-- Generator: Adobe Illustrator 26.3.1, SVG Export Plug-In . SVG Version: 6.00 Build 0)  -->
<svg version="1.1" id="katman_1" xmlns="http://www.w3.org/2000/svg" xmlns:xlink="http://www.w3.org/1999/xlink" x="0px" y="0px"
	 viewBox="0 0 300 100" style="enable-background:new 0 0 300 100;" xml:space="preserve">
<style type="text/css">
	.st0{display:none;fill:#FEFEFE;}
	.st1{fill:#010101;}
	.st2{fill:#FEFEFE;}
	.st3{fill:#FDFDFD;}
</style>
<g>
	<path class="st0" d="M149.9,79.2c-28.8,0-57.6,0-86.4,0c-0.8,0-1-0.1-1-0.9c0-18.9,0-37.8,0-56.7c0-0.7,0.1-0.9,0.8-0.9
		c57.8,0,115.6,0,173.4,0c0.6,0,0.8,0.1,0.8,0.8c0,19,0,37.9,0,56.9c0,0.8-0.2,0.8-0.9,0.8C207.7,79.2,178.8,79.2,149.9,79.2z"/>
	<path d="M118.1,50c0,3.9,0,7.8,0,11.8c0,0.7-0.2,1.2-0.9,1.5c-6.9,4-13.8,8-20.8,12c-0.5,0.3-0.9,0.4-1.5,0
		c-6.5-3.8-13-7.6-19.6-11.2c-1.7-0.9-2.1-2-2.1-3.8c0.1-7.4,0.1-14.9,0-22.3c0-0.7,0.3-1.1,0.9-1.5c6.9-4,13.9-7.9,20.8-11.9
		c0.7-0.4,1.1-0.2,1.7,0.1c5.1,2.9,10.2,5.9,15.3,8.8c1.8,1,3.6,2.1,5.5,3.1c0.6,0.3,0.7,0.8,0.7,1.4C118.1,42,118.1,46,118.1,50z"
		/>
	<path d="M170.6,43.9c1.3-1.1,2.5-1.6,3.9-1.4c0.9,0.1,1.8,0.5,2.3,1.2c0.4,0.5,0.6,0.4,1,0c1.6-1.6,4.3-1.7,5.9-0.1
		c0.7,0.7,1,1.5,1,2.4c0.1,2.5,0,5,0.1,7.5c0,0.3,0,0.6-0.4,0.6c-0.7,0-1.4,0-2.1,0c-0.6,0-0.4-0.5-0.4-0.8c0-2,0-4,0-6
		c0-1-0.3-1.9-1.4-2.2c-1.4-0.5-2.7,0.4-2.7,2.1c0,2,0,4,0,6c0,0.7-0.1,1-1,1c-1.9,0-1.9,0-1.9-1.9c0-1.8,0.1-3.6-0.1-5.5
		c-0.2-1.1-0.9-1.8-2-1.8c-1,0-1.9,0.7-1.9,1.8c-0.1,2.1-0.1,4.2-0.1,6.3c0,0.8-0.1,1.1-1,1c-1.9-0.1-1.9,0-1.9-1.9
		c0-2.8,0-5.6,0-8.4c0-0.9,0.2-1.3,1.2-1.2C169.9,42.8,170.8,42.4,170.6,43.9z"/>
	<path d="M140.3,49.4c0,1.9,0,3.8,0,5.7c0,2.1-1,3.5-3,4c-2.4,0.6-4.6,0.5-6.4-1.5c-0.5-0.5-0.4-0.8,0.2-1c0.4-0.1,0.7-0.3,1-0.5
		c0.5-0.3,0.9-0.3,1.4,0.1c0.9,0.7,1.9,0.6,2.9,0.1c0.8-0.4,0.9-1.1,1-1.9c0-0.8-0.3-0.7-0.8-0.5c-2.1,0.7-3.9,0.4-5.5-1.1
		c-1.6-1.5-2.2-5-1.1-7.3c1-2.3,3.1-3.5,5.5-3.1c1.3,0.2,2.5,0.6,3.9,0.2c0.8-0.2,1,0.1,1,0.9C140.3,45.6,140.3,47.5,140.3,49.4z"/>
	<path d="M149.3,49.2c-1.1,0-2.1,0-3.2,0c-0.8,0-0.8,0.3-0.7,0.9c0.5,1.8,3.1,2.2,4.5,0.8c0.4-0.4,2.7-0.3,3.1,0.2
		c0.2,0.3-0.1,0.5-0.2,0.7c-1.3,2-3.7,2.9-6.2,2.3c-2.3-0.5-4-2.3-4.3-4.7c-0.3-2.4,0.2-4.6,2.4-6.1c1.8-1.3,3.8-1.4,5.8-0.5
		c2.4,1.1,3.1,3.6,2.9,5.8c0,0.5-0.4,0.5-0.7,0.5C151.5,49.2,150.4,49.2,149.3,49.2z"/>
	<path d="M193.5,49.2c-1.1,0-2.1,0-3.2,0c-0.7,0-0.8,0.2-0.6,0.9c0.6,1.7,3,2.5,4.2,1.1c0.8-0.8,1.4-0.6,2.3-0.4
		c1.4,0.4,1.5,0.6,0.4,1.8c-1.8,1.9-4.8,2.4-7.2,1.2c-2.3-1.2-3.4-4-2.7-6.9c0.5-2.2,1.8-3.6,4-4.2c2.1-0.5,4.1-0.3,5.6,1.5
		c1.2,1.3,1.5,2.9,1.4,4.6c0,0.5-0.4,0.5-0.7,0.5C195.8,49.2,194.7,49.2,193.5,49.2z"/>
	<path d="M160.6,42.4c3.4,0.2,5.8,2.8,5.6,6.2c-0.2,3.5-2.8,6-6,5.8c-3.5-0.2-5.7-2.7-5.6-6.3C154.8,44.7,157.3,42.3,160.6,42.4z"/>
	<path d="M215.5,42.8c2.8-0.1,2.8-0.1,3.8,2.3c0.6,1.4,1.1,2.8,1.6,4.2c0.1,0.3,0.1,0.8,0.6,0.8c0.4,0,0.3-0.4,0.5-0.7
		c0.7-1.9,1.5-3.7,2.1-5.6c0.3-0.8,0.7-1.1,1.6-1.1c1.7,0.1,1.7,0,1.1,1.6c-1.9,4.7-3.8,9.5-5.7,14.2c-0.2,0.5-2.2,1-2.6,0.6
		c-0.2-0.2,0-0.5,0-0.7c0.3-0.9,0.5-1.8,1-2.6c0.7-1.3,0.4-2.4-0.1-3.7C218,49.1,216.8,46,215.5,42.8z"/>
	<path d="M200.2,48.4c0-0.9,0-1.7,0-2.6c0-0.7-0.2-1.1-0.9-0.9c-0.9,0.2-1.1-0.3-1.1-1.1c0-0.9,0.2-1.2,1.1-1.1
		c0.8,0.1,1-0.2,0.9-0.9c0-0.3,0-0.6,0-0.9c0-1.5-0.2-1.3,1.3-1.3c1.8,0,1.6-0.3,1.6,1.6c0,1.6,0,1.6,1.6,1.6c0.1,0,0.3,0,0.4,0
		c1.3,0,1.6,0.3,1.3,1.7c-0.1,0.3-0.2,0.5-0.5,0.5c-0.1,0-0.2,0-0.3,0c-0.8,0.1-1.9-0.4-2.3,0.2c-0.4,0.5-0.1,1.5-0.1,2.3
		c0,0.8,0,1.7,0,2.5c0,1.5,0.4,1.9,1.9,1.9c1.5,0,1.5,0,1.4,1.6c0,0.5-0.2,0.7-0.6,0.7c-1.2,0.1-2.3,0.2-3.5-0.2
		c-1.3-0.5-1.9-1.5-2-2.8C200.2,50.2,200.3,49.3,200.2,48.4C200.2,48.4,200.2,48.4,200.2,48.4z"/>
	<path class="st1" d="M210.9,44.4c1.2-1,2.1-1.6,3.4-1.6c0.7,0,1.1,0,1,0.9c0,0.3,0,0.6,0,0.9c0.1,0.6-0.1,0.8-0.8,0.8
		c-1.7-0.1-2.9,1-3,2.7c-0.1,1.7-0.1,3.5-0.1,5.3c0,0.6-0.1,0.9-0.8,0.9c-2,0-2,0-2-2c0-2.9,0-5.7,0-8.6c0-0.7,0.2-1,0.9-0.9
		c0.1,0,0.2,0,0.3,0C210.7,42.6,211.2,42.9,210.9,44.4z"/>
	<path class="st2" d="M114.6,51.2c0,3,0,5.9,0,8.9c0,0.6-0.2,0.9-0.7,1.2c-5.7,3.3-11.5,6.6-17.2,9.9c-0.7,0.4-1.2,0.5-2,0.1
		c-5.1-3-10.2-5.9-15.3-8.8c-0.8-0.5-0.7-0.7,0-1.1c1.4-0.8,2.8-1.6,4.2-2.4c0.5-0.3,0.8-0.2,1.3,0c3.3,1.9,6.6,3.8,9.8,5.7
		c0.6,0.4,1.1,0.4,1.8,0c3.8-2.2,7.6-4.4,11.4-6.6c0.6-0.3,0.8-0.7,0.8-1.4c0-3.8,0-7.6,0-11.4c0-0.6,0.1-1,0.7-1.3
		c1.4-0.7,2.7-1.5,4-2.3c0.8-0.5,1-0.5,1,0.5C114.6,45.2,114.6,48.2,114.6,51.2z"/>
	<path class="st2" d="M112.9,38.1c-1.9,1.1-3.7,2.1-5.4,3.1c-0.4,0.2-0.7,0.1-1-0.1c-3.3-1.9-6.5-3.8-9.8-5.7
		c-0.6-0.4-1.1-0.4-1.8,0c-4.2,2.5-8.5,4.9-12.7,7.3c-0.7,0.4-0.9,0.8-0.9,1.5c0,3.7,0,7.4,0,11.1c0,0.7-0.2,1.1-0.9,1.4
		c-1,0.5-2,1.1-3,1.7c-0.5,0.3-0.7,0.2-0.7-0.4c0-6.1,0-12.2,0-18.4c0-0.4,0.2-0.7,0.5-0.9c5.9-3.4,11.9-6.8,17.8-10.3
		c0.5-0.3,0.8-0.2,1.2,0.1c4.3,2.5,8.6,4.9,12.9,7.4C110.4,36.7,111.6,37.3,112.9,38.1z"/>
	<path class="st2" d="M84.9,45.7c2.3,1.3,4.5,2.6,6.6,3.8c1.1,0.6,2.2,1.2,3.2,1.9c0.8,0.6,1.4,0.4,2.2-0.1c2.6-1.5,5.2-3,7.7-4.5
		c0.6-0.4,0.7-0.2,0.7,0.4c0,2.5,0,5,0,7.5c0,0.5-0.1,0.8-0.6,1.1c-2.9,1.6-5.8,3.2-8.6,4.9c-0.5,0.3-0.8,0.1-1.1-0.1
		c-3.2-1.8-6.4-3.6-9.6-5.5c-0.3-0.2-0.6-0.4-0.6-0.9C84.9,51.5,84.9,48.7,84.9,45.7z"/>
	<path class="st2" d="M95.7,38.9c0.3,0.1,0.6,0.2,0.8,0.4c2.1,1.2,4.3,2.5,6.4,3.7c0.6,0.3,0.6,0.5,0,0.8c-2.2,1.2-4.4,2.5-6.5,3.7
		c-0.5,0.3-0.9,0.3-1.4,0c-2.2-1.3-4.4-2.6-6.6-3.8c-0.5-0.3-0.5-0.4,0-0.7c2.3-1.3,4.5-2.6,6.8-3.9C95.4,39,95.5,39,95.7,38.9z"/>
	<path class="st2" d="M137.9,48.4c-0.1,0.5-0.1,0.9-0.2,1.4c-0.3,1.4-1.1,2.1-2.4,2.1c-1.3,0-2.2-0.7-2.6-1.9c-0.3-1-0.3-2.1,0-3.2
		c0.4-1.2,1.4-1.9,2.8-1.9c1.1,0,1.9,0.7,2.2,1.9C137.8,47.4,137.8,47.9,137.9,48.4z"/>
	<path class="st3" d="M145.4,47.1c0.3-1.5,1.1-2.2,2.6-2.2c1.3,0,2,0.5,2.3,1.6c0.1,0.4,0.2,0.7-0.4,0.7
		C148.4,47.1,146.9,47.1,145.4,47.1z"/>
	<path class="st3" d="M192.2,47.1c-0.6,0-1.2,0-1.9,0c-0.8,0.1-0.8-0.3-0.5-0.9c0.4-1,1.6-1.5,2.9-1.4c1,0.1,1.6,0.7,1.9,1.6
		c0.1,0.4,0,0.6-0.4,0.6C193.5,47.1,192.9,47.1,192.2,47.1z"/>
	<path class="st2" d="M157.6,48.4c0-2.4,1.3-3.7,3.4-3.3c0.8,0.1,1.4,0.5,1.8,1.3c0.6,1.3,0.6,2.6,0.1,3.9c-0.4,1.1-1.3,1.6-2.4,1.6
		c-1.1,0-1.9-0.4-2.4-1.4C157.7,49.8,157.6,49.1,157.6,48.4z"/>
</g>
</svg>
