<?xml version="1.0" encoding="utf-8"?>
<!-- Generator: Adobe Illustrator 26.3.1, SVG Export Plug-In . SVG Version: 6.00 Build 0)  -->
<svg version="1.1" id="katman_1" xmlns="http://www.w3.org/2000/svg" xmlns:xlink="http://www.w3.org/1999/xlink" x="0px" y="0px"
	 viewBox="0 0 300 100" style="enable-background:new 0 0 300 100;" xml:space="preserve">
<style type="text/css">
	.st0{fill:#27AAE1;}
</style>
<g id="Layer_2">
	<g id="Layer_1-2">
		<path class="st0" d="M81.9,58.3l-0.1-2.2c-0.8,0.8-1.7,1.4-2.7,1.9c-0.9,0.4-1.9,0.6-2.9,0.6c-0.8,0-1.6-0.1-2.4-0.4
			c-0.6-0.2-1.2-0.5-1.6-1c-0.4-0.4-0.7-0.9-0.9-1.5C71.1,55.2,71,54.6,71,54c0-1.6,0.6-2.9,1.8-3.8s3-1.4,5.4-1.4h3.4v-1.4
			c0-1-0.3-1.7-0.9-2.3c-0.6-0.6-1.6-0.9-2.8-0.9c-0.9,0-1.8,0.1-2.7,0.3c-0.9,0.2-1.9,0.5-2.8,0.9v-2.5c0.4-0.1,0.8-0.3,1.2-0.4
			s0.9-0.2,1.4-0.3c0.5-0.1,1-0.2,1.5-0.2c0.5-0.1,1.1-0.1,1.6-0.1c0.9,0,1.8,0.1,2.7,0.3c0.7,0.2,1.4,0.5,2,1c0.5,0.4,1,1,1.3,1.7
			c0.3,0.8,0.5,1.6,0.4,2.4v11.2H81.9z M81.6,50.9H78c-0.6,0-1.2,0.1-1.8,0.2c-0.5,0.1-0.9,0.3-1.3,0.6c-0.3,0.2-0.6,0.6-0.7,0.9
			c-0.2,0.4-0.2,0.8-0.2,1.2c0,0.3,0,0.6,0.1,0.9c0.1,0.3,0.3,0.5,0.5,0.8c0.2,0.2,0.5,0.4,0.8,0.5c0.4,0.1,0.8,0.2,1.3,0.2
			c0.6,0,1.4-0.2,2.2-0.6c1-0.5,1.9-1.1,2.7-1.9L81.6,50.9z M117.3,57.7c-0.7,0.3-1.5,0.5-2.3,0.6c-0.8,0.1-1.6,0.2-2.4,0.2
			c-2.6,0-4.6-0.7-5.9-2.1c-1.4-1.4-2.1-3.4-2.1-6.1c0-1.2,0.2-2.4,0.6-3.5c0.4-1,0.9-1.9,1.7-2.7c0.7-0.8,1.6-1.3,2.6-1.7
			c1.1-0.4,2.2-0.6,3.3-0.6c0.8,0,1.6,0.1,2.4,0.2c0.7,0.1,1.4,0.3,2.1,0.6v2.7c-0.7-0.4-1.4-0.6-2.1-0.8c-0.7-0.2-1.5-0.3-2.3-0.3
			c-0.7,0-1.4,0.1-2.1,0.4c-0.6,0.3-1.2,0.7-1.7,1.2c-0.5,0.5-0.9,1.2-1.2,1.9c-0.3,0.8-0.4,1.7-0.4,2.5c0,2,0.5,3.4,1.4,4.4
			c1,1,2.3,1.5,4,1.5c0.8,0,1.5-0.1,2.2-0.3c0.7-0.2,1.4-0.4,2.1-0.8L117.3,57.7z M133.4,58.3l-0.1-2.2c-0.8,0.8-1.7,1.4-2.7,1.9
			c-0.9,0.4-1.9,0.6-2.9,0.6c-0.8,0-1.6-0.1-2.4-0.4c-0.6-0.2-1.2-0.5-1.6-1c-0.4-0.4-0.7-0.9-0.9-1.5c-0.2-0.6-0.3-1.2-0.3-1.8
			c0-1.6,0.6-2.9,1.8-3.8c1.2-0.9,3-1.4,5.4-1.4h3.4v-1.4c0-1-0.3-1.7-0.9-2.3c-0.6-0.6-1.6-0.9-2.8-0.9c-0.9,0-1.8,0.1-2.7,0.3
			c-0.9,0.2-1.9,0.5-2.8,0.9v-2.6c0.4-0.1,0.8-0.3,1.2-0.4s0.9-0.2,1.4-0.3c0.5-0.1,1-0.2,1.5-0.2c0.5-0.1,1.1-0.1,1.6-0.1
			c0.9,0,1.8,0.1,2.7,0.3c0.7,0.2,1.4,0.5,2,1c0.5,0.4,1,1,1.3,1.7c0.3,0.8,0.5,1.6,0.4,2.4v11.2H133.4z M133.1,50.9h-3.6
			c-0.6,0-1.2,0.1-1.8,0.2c-0.5,0.1-0.9,0.3-1.3,0.6c-0.3,0.2-0.6,0.6-0.7,0.9c-0.2,0.4-0.2,0.8-0.2,1.2c0,0.3,0,0.6,0.1,0.9
			c0.1,0.3,0.3,0.5,0.5,0.8c0.2,0.2,0.5,0.4,0.8,0.5c0.4,0.1,0.8,0.2,1.3,0.2c0.6,0,1.4-0.2,2.2-0.6c1-0.5,1.9-1.1,2.7-1.9
			L133.1,50.9z M155.1,49.9c0,1.5-0.2,2.7-0.6,3.8c-0.4,1-0.9,1.9-1.7,2.7c-0.7,0.7-1.6,1.3-2.5,1.6c-1,0.4-2.1,0.5-3.2,0.5
			c-0.5,0-1,0-1.6-0.1c-0.5-0.1-1.1-0.1-1.6-0.3V65h-2.8V42h2.5l0.2,2.7c0.8-1.1,1.7-1.9,2.6-2.4c0.9-0.5,1.9-0.7,3-0.7
			c0.9,0,1.7,0.2,2.5,0.6c0.7,0.4,1.3,1,1.8,1.7c0.5,0.8,0.9,1.7,1.1,2.6C155,47.6,155.2,48.8,155.1,49.9L155.1,49.9z M152.3,50
			c0-0.8-0.1-1.6-0.2-2.4c-0.1-0.6-0.3-1.3-0.6-1.8c-0.2-0.5-0.6-0.9-1-1.2c-0.4-0.3-1-0.4-1.5-0.4c-0.4,0-0.7,0.1-1.1,0.2
			c-0.4,0.1-0.8,0.3-1.1,0.6c-0.5,0.3-0.9,0.7-1.3,1.1c-0.5,0.5-1,1.1-1.4,1.6v7.9c0.5,0.2,1.1,0.4,1.7,0.5c0.6,0.1,1.1,0.2,1.7,0.2
			c1.5,0,2.7-0.5,3.6-1.6C151.8,53.7,152.3,52.1,152.3,50L152.3,50z M165,44.4h-4.8V42h7.7V56h4.9v2.4h-13.1V56h5.4L165,44.4z
			 M166,35.2c0.3,0,0.6,0.1,0.9,0.2c0.3,0.1,0.5,0.3,0.7,0.5c0.2,0.2,0.4,0.4,0.5,0.7c0.1,0.3,0.2,0.6,0.2,0.9
			c0,0.3-0.1,0.6-0.2,0.9c-0.1,0.3-0.3,0.5-0.5,0.7c-0.2,0.2-0.4,0.4-0.7,0.5c-0.6,0.2-1.2,0.2-1.8,0c-0.3-0.1-0.5-0.3-0.7-0.5
			c-0.2-0.2-0.4-0.4-0.5-0.7c-0.1-0.3-0.2-0.6-0.2-0.9c0-0.3,0.1-0.6,0.2-0.9c0.1-0.3,0.3-0.5,0.5-0.7c0.2-0.2,0.4-0.4,0.7-0.5
			C165.4,35.3,165.7,35.2,166,35.2z M190.9,58.1c-0.7,0.2-1.3,0.3-2,0.3c-0.7,0.1-1.4,0.1-2.1,0.1c-2,0-3.6-0.5-4.6-1.4
			c-1-0.9-1.5-2.3-1.5-4.3v-8.5h-4.6V42h4.6v-4.5l2.8-0.7V42h7.3v2.4h-7.3v8.3c0,1.2,0.3,2,0.9,2.6c0.6,0.6,1.5,0.9,2.8,0.9
			c0.6,0,1.1,0,1.7-0.1c0.7-0.1,1.3-0.2,1.9-0.4L190.9,58.1z M206.5,58.3l-0.1-2.2c-0.8,0.8-1.7,1.4-2.7,1.9
			c-0.9,0.4-1.9,0.6-2.9,0.6c-0.8,0-1.6-0.1-2.4-0.4c-0.6-0.2-1.2-0.5-1.6-1c-0.4-0.4-0.7-0.9-0.9-1.5c-0.2-0.6-0.3-1.2-0.3-1.8
			c0-1.6,0.6-2.9,1.8-3.8c1.2-0.9,3-1.4,5.4-1.4h3.4v-1.4c0-1-0.3-1.7-0.9-2.3c-0.6-0.6-1.6-0.9-2.8-0.9c-0.9,0-1.8,0.1-2.7,0.3
			c-0.9,0.2-1.9,0.5-2.8,0.9v-2.6c0.4-0.1,0.8-0.3,1.2-0.4s0.9-0.2,1.4-0.3c0.5-0.1,1-0.2,1.5-0.2c0.5-0.1,1.1-0.1,1.6-0.1
			c0.9,0,1.8,0.1,2.7,0.3c0.7,0.2,1.4,0.5,2,1c0.5,0.4,1,1,1.3,1.7c0.3,0.8,0.5,1.6,0.4,2.4v11.2H206.5z M206.2,50.9h-3.6
			c-0.6,0-1.2,0.1-1.8,0.2c-0.5,0.1-0.9,0.3-1.3,0.6c-0.3,0.2-0.6,0.6-0.7,0.9c-0.2,0.4-0.2,0.8-0.2,1.2c0,0.3,0,0.6,0.1,0.9
			c0.1,0.3,0.3,0.5,0.5,0.8c0.2,0.2,0.5,0.4,0.8,0.5c0.4,0.1,0.8,0.2,1.3,0.2c0.6,0,1.4-0.2,2.2-0.6c1-0.5,1.9-1.1,2.7-1.9
			L206.2,50.9z M219.9,37.7h-4.8v-2.3h7.7V56h4.9v2.4h-13.1V56h5.4V37.7z M104.4,60.7H86.1v-2.3h18.3V60.7z"/>
	</g>
</g>
</svg>
