<?xml version="1.0" encoding="utf-8"?>
<!-- Generator: Adobe Illustrator 26.3.1, SVG Export Plug-In . SVG Version: 6.00 Build 0)  -->
<svg version="1.1" id="katman_1" xmlns="http://www.w3.org/2000/svg" xmlns:xlink="http://www.w3.org/1999/xlink" x="0px" y="0px"
	 viewBox="0 0 300 100" style="enable-background:new 0 0 300 100;" xml:space="preserve">
<g id="One-Pager-Version">
	<g id="Home-Page" transform="translate(-98.000000, -37.000000)">
		<g id="Logo-Lght" transform="translate(98.000000, 37.000000)">
			<g id="colablogo">
				<path id="Shape" d="M174.3,30.6h-10.7v-3.5h14.2v33.2h-3.5V30.6z M126.6,50.6h-3.5v33h18.7v-3.5h-15.2V50.6z M130.7,21.8h-0.8
					v-0.7V17v-0.5h0.9h1h0.5h0.2h0.1c1.6,0,2.8,1.2,2.8,2.7c0,1.5-1.1,2.7-2.8,2.7h0h-0.2h-0.5H130.7z M131,20.9h1.5
					c1.1,0,1.8-0.7,1.8-1.7s-0.7-1.7-1.7-1.8H131h-0.1L131,20.9L131,20.9z M125.4,21.8h0.9h2.2v-0.9h-2.2v-3.5h2.2v-0.9h-2.2h-0.9
					h-2.2v0.9h2.2v3.5h-2.2v0.9H125.4z M148.6,19.1c0,1.6-1.3,2.9-2.9,2.9c-1.6,0-2.9-1.3-2.9-2.9c0-1.6,1.3-2.9,2.9-2.9
					C147.2,16.2,148.6,17.5,148.6,19.1z M145.6,17.2c-1.1,0-1.9,0.9-1.9,1.9c0,1.1,0.9,1.9,1.9,1.9c1.1,0,1.9-0.9,1.9-1.9
					C147.5,18.1,146.7,17.2,145.6,17.2z M136.4,16.4v0.9v3.5v0.9h4h1.4v-0.9h-4.4v-1.3h3.4v-0.9h-3.5v-1.3h4.4v-0.9h-1.4H136.4z
					 M160.9,35.7c0,4.9-3.9,8.6-8.8,8.6c-4.9,0-8.7-3.7-8.7-8.6c0-4.9,3.9-8.6,8.7-8.6C157,27.1,160.9,30.8,160.9,35.7z M152.1,30.2
					c-3.1,0-5.3,2.3-5.3,5.5c0,3.2,2.2,5.5,5.3,5.5c3,0,5.3-2.2,5.3-5.5C157.4,32.5,155.2,30.2,152.1,30.2z M131.7,44.3
					c3.2,0,5.9-1.6,7.3-4.1l-2.6-1.8c-1.1,1.8-2.6,2.8-4.7,2.8c-3.1,0-5.3-2.2-5.3-5.4c0-3.3,2.3-5.5,5.3-5.5c2.1,0,3.6,1,4.7,2.8
					l2.6-1.8c-1.4-2.5-4.1-4.1-7.3-4.1c-4.9,0-8.8,3.7-8.8,8.6S126.8,44.3,131.7,44.3z M172.6,83.6H167h-1.6V67.1h3.2h2.6
					c3,0,5.2,1.9,5.2,4.6c0,1.2-0.5,2.2-1.2,3c1.8,0.7,2.9,2.1,2.9,4.1C178,81.6,175.8,83.6,172.6,83.6z M168.5,73.8h2.3
					c1.4,0,2.1-0.8,2.1-1.9c0-1.1-0.7-1.9-2.1-1.9h-2.3V73.8z M174.7,78.6c0-1.3-0.9-2.1-2.3-2.1h-3.8v4.1h3.8
					C173.8,80.7,174.7,79.9,174.7,78.6z M149.1,83.6h-3.5l7.2-16.5h1.1l7.2,16.5h-3.5l-0.9-2.1h-6.6L149.1,83.6z M153.2,73.3
					l-2.1,5.5h4.2L153.2,73.3z"/>
			</g>
		</g>
	</g>
</g>
</svg>
