<?xml version="1.0" encoding="utf-8"?>
<!-- Generator: Adobe Illustrator 26.3.1, SVG Export Plug-In . SVG Version: 6.00 Build 0)  -->
<svg version="1.1" id="katman_1" xmlns="http://www.w3.org/2000/svg" xmlns:xlink="http://www.w3.org/1999/xlink" x="0px" y="0px"
	 viewBox="0 0 300 100" style="enable-background:new 0 0 300 100;" xml:space="preserve">
<style type="text/css">
	.st0{display:none;fill:#FFFCFA;}
	.st1{fill-rule:evenodd;clip-rule:evenodd;fill:#1CA97F;}
	.st2{display:none;fill:#FEFEFE;}
	.st3{fill:#1CA87F;}
	.st4{fill:#1CA97F;}
	.st5{fill:#1DA87F;}
	.st6{fill:#1DA97F;}
	.st7{fill:#FCFDFD;}
	.st8{fill:#F8FCFA;}
</style>
<path class="st0" d="M83.2,25.2L83.2,25.2C96.9,25.2,108,36.3,108,50l0,0c0,13.7-11.1,24.8-24.8,24.8l0,0
	c-13.7,0-24.8-11.1-24.8-24.8l0,0C58.4,36.3,69.5,25.2,83.2,25.2z"/>
<path class="st1" d="M83.2,74.8C96.9,74.8,108,63.7,108,50S96.9,25.2,83.2,25.2S58.4,36.3,58.4,50S69.5,74.8,83.2,74.8z M86.4,41.2
	l8.3-4.9l0,10.1c0,2.6-1.4,5-3.6,6.3l-7.6,4.4v7.5l-8.3-4.9c-2.2-1.3-3.6-3.7-3.6-6.3l0-10.1l8.3,4.9c1.3,0.7,2.3,1.8,2.9,3.1v-3.9
	C82.8,44.9,84.2,42.5,86.4,41.2z"/>
<g>
	<path class="st2" d="M110,73.4c0-14.7,0-29.4,0-44.2c0-1.5,0.3-1.8,1.8-1.8c49.1,0.1,98.3,0.1,147.4,0c1.5,0,1.8,0.3,1.8,1.8
		c-0.1,14.1-0.1,28.1,0,42.2c0,1.7-0.3,2.1-2,2C209.3,73.4,159.7,73.4,110,73.4z"/>
	<path class="st3" d="M135.9,53.5c0-5,0.1-10.1-0.1-15.1c-0.1-2,0.6-2.5,2.5-2.4c1.7,0.1,2.7,0.1,2.6,2.4c-0.2,7.2,0,14.5-0.1,21.7
		c0,1,0.8,2.7-0.9,2.9c-1.6,0.2-3.5,0.7-4.8-1.4c-3.1-4.8-6.5-9.5-9.8-14.2c-0.5-0.7-1-1.4-2-2.7c0,5.8-0.1,10.9,0.1,16
		c0.1,2.2-0.9,2.3-2.6,2.4c-1.8,0-2.6-0.3-2.5-2.4c0.1-7.3,0-14.6,0.1-22c0-0.9-0.6-2.4,0.6-2.5c1.6-0.2,3.4-0.9,4.7,1
		c3.4,5,6.8,9.8,10.2,14.8c0.4,0.6,0.9,1.2,1.3,1.8C135.5,53.6,135.7,53.5,135.9,53.5z"/>
	<path class="st3" d="M156,60.5c-2.4,2.5-5,3.2-8,2.5c-2.7-0.7-4.3-2.6-4.5-5.3c-0.2-2.8,1-4.7,3.8-5.8c2.2-0.9,4.5-0.9,6.9-1
		c0.6,0,1.5,0.3,1.8-0.5c0.3-0.9,0.1-1.8-0.5-2.6c-1.3-1.7-4.3-1.6-5.9,0.2c-0.4,0.5-0.6,1.3-1.4,1.2c-1.2-0.1-2.8,0.7-3.5-0.5
		c-0.6-1.1,0.4-2.4,1.2-3.3c2.2-2.6,7-3.5,10.9-2.1c3.2,1.2,4.4,3.2,4.4,7.3c0,3.2,0.1,6.5,0,9.7c0,1,1,2.9-1.3,2.6
		C158.1,62.8,155.6,64.2,156,60.5z"/>
	<path class="st4" d="M214,54.3c-1.8,0-3.7,0-5.5,0c-1.1,0-1.4,0.3-1.1,1.5c0.9,3.5,5.2,5,7.6,2.3c1.4-1.5,2.9-1.2,4.5-1.3
		c0.9-0.1,1.3,0.4,0.9,1.2c-0.4,0.8-0.8,1.7-1.4,2.3c-2.8,3.2-6.5,3.5-10.3,2.5c-3.4-0.9-5.3-3.3-6.1-6.6c-0.5-2.2-0.5-4.5,0-6.7
		c1-4.4,4.9-7.3,9.3-7c4.9,0.3,8,3.2,8.7,8c0.1,0.7,0.2,1.3,0.3,2c0.2,1.3-0.3,1.8-1.6,1.8C217.4,54.3,215.7,54.3,214,54.3z"/>
	<path class="st3" d="M228.5,45.2c1.6-1.7,3.3-2.4,5.2-2.6c4-0.4,7.1,2,7.3,6c0.2,4.3,0.1,8.6,0.1,12.9c0,2.3-1.7,1.2-2.7,1.3
		c-1,0.2-2.1,0.3-2.1-1.5c0-3.7,0.3-7.5-0.2-11.2c-0.2-2-1.2-3.2-3.3-3.3c-2.2-0.1-3.6,1-4.2,3.1c-0.2,0.9-0.2,1.8-0.2,2.7
		c0,2.7-0.2,5.5,0,8.2c0.2,2.3-1.3,1.9-2.7,2c-1.6,0.1-2.4-0.1-2.3-2.1c0.1-5.2,0-10.5,0.1-15.7c0-0.8-0.6-2.3,1.1-2.2
		C225.9,43.2,228.2,41.8,228.5,45.2z"/>
	<path class="st5" d="M166.3,56.8c1.1-0.2,2.1,0,2.8,1.4c0.6,1.1,1.9,1.3,3.1,1.3c1.4-0.1,3.1-0.1,3.3-1.9c0.2-1.8-1.4-2-2.7-2.3
		c-1.7-0.5-3.4-0.8-5-1.4c-2.2-0.8-3.6-2.3-3.7-4.8c-0.1-2.6,1.1-4.4,3.4-5.6c4-1.9,9.6-0.9,11.6,2.2c0.6,0.9,1.4,2,0.6,3.2
		c-0.5,0.7-3.9,0.2-4.5-0.7c-0.4-0.6-0.9-1.2-1.6-1.5c-1.7-0.7-4.3-0.1-4.6,1.3c-0.4,2.2,1.4,2.4,2.8,2.8c1.7,0.5,3.6,0.8,5.3,1.4
		c3.9,1.5,4.7,6,1.7,8.9c-3,2.9-10,3.1-13.2,0.2c-0.5-0.4-0.9-1-1.2-1.6C163,57.2,163.2,56.8,166.3,56.8z"/>
	<path class="st6" d="M197.9,50.3c-1,0.1-1.8-0.1-2.5-1.4c-1.6-2.9-5.4-2.9-7.1,0c-1.5,2.6-1.5,5.5-0.1,8.1c1.6,3,5.7,3.2,7.2,0.1
		c1.2-2.3,3-1.2,4.5-1.3c0.8-0.1,0.6,0.8,0.5,1.4c-0.3,1.5-1,2.8-2.2,3.8c-2.9,2.6-6.3,2.8-9.8,1.8c-3.3-1-5.2-3.5-5.9-6.8
		c-0.5-2-0.4-4.1,0-6.2c0.8-4.2,4-6.8,8.7-7.2c3.8-0.4,7.4,1.6,8.8,4.8C201,49.9,200.7,50.3,197.9,50.3z"/>
	<path class="st6" d="M245.7,53c0-1.3,0-2.7,0-4c0.1-1.3,0-2.3-1.8-2.1c-1,0.1-1-0.7-0.9-1.4c0.1-0.8-0.5-2.4,0.5-2.4
		c3.1,0.1,2-2.1,2.2-3.5c0.1-0.7-0.1-1.7,1.1-1.6c1.3,0.1,2.7-0.6,3.8,0.5c0.4,0.4,0.2,1.4,0.2,2.2c-0.1,1.5,0.1,2.7,2.1,2.3
		c1.6-0.3,1.8,0.6,1.7,1.9c0,1.2,0,2.3-1.6,2c-1.9-0.3-2.2,0.6-2.1,2.3c0.1,2.5,0,5,0.1,7.5c0,1.5,0.5,2.8,2.4,2.8
		c1.9,0,1.1,1.4,1.3,2.3c0.2,1.2-0.5,1.5-1.6,1.6c-4.6,0.4-6.9-1.5-7.1-6.1C245.6,55.8,245.7,54.4,245.7,53
		C245.7,53,245.7,53,245.7,53z"/>
	<path class="st7" d="M153.8,54.5c0.5,0.2,1.7-0.7,2.1,0.4c0.4,1.1-0.1,2.1-0.8,3c-0.5,0.6-1.1,0.9-1.8,1.2c-1.4,0.6-2.8,0.5-4-0.5
		c-0.7-0.6-1-1.4-0.7-2.2c0.6-1.6,2-1.8,3.5-1.9C152.5,54.4,153,54.5,153.8,54.5z"/>
	<path class="st8" d="M215.9,50.9c-2.5,0-4.8-0.1-7.1,0c-1.6,0.1-1.7-0.7-1.1-1.8c0.8-1.7,2.2-2.7,4.1-2.6
		C214.2,46.7,215.4,48.2,215.9,50.9z"/>
</g>
</svg>
