<?xml version="1.0" encoding="utf-8"?>
<!-- Generator: Adobe Illustrator 26.3.1, SVG Export Plug-In . SVG Version: 6.00 Build 0)  -->
<svg version="1.1" id="katman_1" xmlns="http://www.w3.org/2000/svg" xmlns:xlink="http://www.w3.org/1999/xlink" x="0px" y="0px"
	 viewBox="0 0 300 100" style="enable-background:new 0 0 300 100;" xml:space="preserve">
<style type="text/css">
	.st0{fill-rule:evenodd;clip-rule:evenodd;}
</style>
<path class="st0" d="M71.4,78.4c16.8,0,30.4-12.9,30.4-28.8S88.2,20.9,71.4,20.9S41,33.8,41,49.7S54.6,78.4,71.4,78.4z M75.4,39.5
	l10.3-5.7v8.4v3.4c0,3-1.7,5.8-4.4,7.3L71.8,58v0.4v8.4l-10.3-5.7c-2.8-1.5-4.4-4.3-4.4-7.3v-3.5V42l10.3,5.7
	c1.6,0.8,2.8,2.1,3.6,3.6v-1v-3.5C70.9,43.7,72.6,41,75.4,39.5z"/>
<path d="M114.5,62.6V36h5.4l11.7,16.9c0.6,1,1,1.7,1.2,2.1V36h5.1v26.5h-5.4l-11.7-17c-0.6-1-1-1.7-1.2-2.1v19.1H114.5z M160.4,62.6
	h-5.1c-0.6-0.8-1-1.8-1-3c-1.4,2.4-3.6,3.5-6.7,3.5c-2,0-3.6-0.5-4.8-1.6c-1.2-1.1-1.8-2.5-1.8-4.3c0-1.8,0.7-3.2,1.9-4.2
	c1.3-1,3-1.7,5.1-2l6-0.9v-0.7c0-1.9-1.2-2.8-3.6-2.8c-1.1,0-2,0.2-2.6,0.6c-0.6,0.4-0.9,0.9-0.9,1.5c0,0.1,0,0.3,0.1,0.4l-4.5,1.4
	c-0.3-0.5-0.4-1-0.4-1.6c0-1.5,0.8-2.9,2.3-4c1.5-1.2,3.6-1.7,6.1-1.7c2.8,0,5,0.6,6.5,1.7c1.5,1.1,2.2,2.8,2.2,5.1v7.9
	C159,59.8,159.5,61.3,160.4,62.6z M148.8,59.2c1.5,0,2.8-0.5,3.7-1.4c1-1,1.4-2.3,1.4-4v-0.3l-4.8,0.8c-2.2,0.4-3.3,1.3-3.3,2.8
	c0,0.7,0.3,1.3,0.8,1.7C147.2,59,147.9,59.2,148.8,59.2z M167.5,48.4c0,1.2,1.6,2.1,4.7,2.6c2.3,0.4,4,1.1,5.1,2.1
	c1.1,0.9,1.6,2.1,1.6,3.7c0,1.8-0.7,3.3-2.1,4.5c-1.4,1.2-3.3,1.7-5.7,1.7c-2.3,0-4.2-0.5-5.7-1.6c-1.5-1.1-2.6-2.4-3.4-4l4-2.4
	c0.4,1.2,1.1,2.2,1.9,2.9c0.9,0.7,1.9,1.1,3.2,1.1c0.8,0,1.5-0.2,2.2-0.5c0.6-0.4,1-0.9,1-1.5c0-0.6-0.3-1.1-1-1.4
	c-0.7-0.4-1.8-0.7-3.2-1c-4.6-0.8-6.9-2.8-6.9-5.9c0-1.7,0.7-3,2.2-4c1.4-1,3.2-1.5,5.3-1.5c2.1,0,3.8,0.4,5.1,1.1
	c1.3,0.8,2.4,1.9,3.2,3.6l-3.7,2c-0.9-2.2-2.4-3.3-4.5-3.3C168.5,46.7,167.5,47.3,167.5,48.4z M196.5,55.2l4.1,2.5
	c-1.9,3.6-5,5.4-9.3,5.4c-3,0-5.5-0.9-7.5-2.7c-2-1.8-3-4.3-3-7.2s1-5.3,3-7.2s4.5-2.8,7.4-2.8c2.2,0,4.1,0.4,5.7,1.4
	c1.6,0.9,2.8,2.1,3.5,3.7l-4.1,2.6c-1-2.1-2.7-3.2-5-3.2c-1.5,0-2.8,0.5-3.8,1.5c-1,1-1.5,2.3-1.5,3.9c0,1.7,0.5,3,1.5,4
	c1,1,2.2,1.5,3.8,1.5c1.3,0,2.3-0.3,3.1-0.8C195.2,57.2,195.9,56.3,196.5,55.2z M222.2,54.3h-15.3c0.1,1.4,0.7,2.6,1.7,3.5
	c1,0.8,2.2,1.2,3.7,1.2c2.5,0,4.3-1.1,5.5-3.5l3.8,2.1c-1.9,3.7-5,5.5-9.3,5.5c-2.8,0-5.3-0.9-7.3-2.8c-2-1.9-3-4.3-3-7.2
	c0-2.9,1-5.3,3-7.2s4.5-2.8,7.5-2.8c2.8,0,5.1,0.9,7,2.6c1.8,1.7,2.7,4,2.7,6.8V54.3z M212.4,46.9c-1.3,0-2.5,0.4-3.5,1.1
	c-1,0.7-1.6,1.7-2,2.8h10.7c-0.3-1.2-0.8-2.2-1.7-2.9C214.9,47.2,213.8,46.9,212.4,46.9z M244.2,49.7v12.8h-5.1V51.7
	c0-2.7-1.4-4-4-4c-1.3,0-2.5,0.5-3.3,1.5c-0.8,1-1.3,2.3-1.3,3.8v9.6h-5.1V43.7h5.1v3c1.6-2.4,3.9-3.6,6.7-3.6
	c2.1,0,3.8,0.6,5.1,1.8C243.6,46.2,244.2,47.8,244.2,49.7z M245.9,47.6v-3.9h3.1v-5.1h5.1v5.1h4.3v3.9H254v8.6
	c0,1.8,0.8,2.6,2.5,2.6c0.6,0,1.1-0.1,1.7-0.2l0.5,3.9c-1,0.4-2.1,0.5-3.4,0.5c-4.3,0-6.4-2-6.4-6v-9.5L245.9,47.6L245.9,47.6z"/>
</svg>
