<?xml version="1.0" encoding="utf-8"?>
<!-- Generator: Adobe Illustrator 26.3.1, SVG Export Plug-In . SVG Version: 6.00 Build 0)  -->
<svg version="1.1" id="katman_1" xmlns="http://www.w3.org/2000/svg" xmlns:xlink="http://www.w3.org/1999/xlink" x="0px" y="0px"
	 viewBox="0 0 300 100" style="enable-background:new 0 0 300 100;" xml:space="preserve">
<style type="text/css">
	.st0{fill:#1F5EFF;}
	.st1{fill-rule:evenodd;clip-rule:evenodd;fill:#1F5EFF;}
</style>
<path class="st0" d="M113.7,53.1c0,0,2,1.4,4.4,1.4c1.8,0,2.5-0.7,2.5-1.7c0-1-0.6-1.5-3.2-2.2c-3.4-0.9-5.1-2.1-5.1-4.5
	c0-2.7,2-4.4,5.8-4.4c4,0,5.6,1.5,5.6,1.5l-1.6,2.5c0,0-1.6-1.2-4-1.2c-1.6,0-2.4,0.6-2.4,1.5c0,0.9,0.8,1.3,3.1,1.9
	c3.6,1,5.3,2.3,5.3,4.7c0,2.6-1.8,4.7-5.9,4.7c-4.1,0-6.1-1.9-6.1-1.9L113.7,53.1z M140.1,42.1h3.5l-5.6,9.2V57h-3v-5.7l-5.6-9.2
	h3.5l3.1,5.2l0.4,0.9h0.3l0.4-0.9L140.1,42.1z M150.4,53.1c0,0,2,1.4,4.4,1.4c1.8,0,2.5-0.7,2.5-1.7c0-1-0.6-1.5-3.2-2.2
	c-3.4-0.9-5.1-2.1-5.1-4.5c0-2.7,2-4.4,5.8-4.4c4,0,5.6,1.5,5.6,1.5l-1.6,2.5c0,0-1.6-1.2-4-1.2c-1.6,0-2.4,0.6-2.4,1.5
	c0,0.9,0.8,1.3,3.1,1.9c3.6,1,5.3,2.3,5.3,4.7c0,2.6-1.8,4.7-5.9,4.7c-4.1,0-6.1-1.9-6.1-1.9L150.4,53.1z M180.5,55.5
	c0,0-1.7,1.8-5.3,1.8c-4.9,0-7.9-3.5-7.9-7.8s3-7.8,7.9-7.8c3.6,0,5.3,1.8,5.3,1.8l-1.7,2.3c0,0-1.5-1.3-3.5-1.3
	c-2.9,0-4.9,2.1-4.9,4.9c0,2.8,2,4.9,4.9,4.9c2.3,0,3.5-1.3,3.5-1.3L180.5,55.5z M186.4,49.5c0-4.3,3-7.8,7.9-7.8
	c4.9,0,7.9,3.5,7.9,7.8s-3,7.8-7.9,7.8C189.4,57.3,186.4,53.8,186.4,49.5z M199.1,49.5c0-2.8-2-4.9-4.8-4.9c-2.8,0-4.8,2.1-4.8,4.9
	c0,2.8,2,4.9,4.8,4.9C197.1,54.4,199.1,52.4,199.1,49.5z M212.8,57h-3V42.1h3V57z M235,57h-0.7l-10-9.1V57h-3V42.1h0.7l10,8.9v-8.9
	h3V57z"/>
<g>
	<path class="st1" d="M96.8,61.7c-1,0.8-2.1,1.6-3.3,2.3c0.2-0.2-0.5-0.9-0.3-1.1c5.3-4.6,6.6-10.6,4.4-15.9c-0.3-0.7,0.3-1,0.3-1.6
		C102.9,50,102.4,56.9,96.8,61.7z"/>
	<path class="st1" d="M98,45.4c-1.8-1.7-4.3-3.1-7.6-4c0,0,0,0,0,0c0,0,0,0,0,0c1.1,0.3,1.2,1.5,1.9,2.2c1.6,1.3,2,3.1,2.2,5.4
		c0.2,3.4,0.2,6.8-2.3,9.7c-1.3,1.6-2.9,3-4.9,3.8c-0.1,0.1-0.3,0.1-0.4,0.2c0,0,0,0-0.1,0c-0.9,0.4-2,0.7-3.1,0.9
		c-4,0.8-9.3,0.4-15.8-1.6c2.6,2,5.3,3.3,8.1,4.1c3,0.8,6.1,1,9,0.7c0,0,0,0,0,0c0.4,0,0.9-0.1,1.3-0.2c1.7-0.3,3.3-0.8,4.8-1.4h0
		c0.8-0.3,1.6-0.7,2.4-1.1c0.2-0.2,0.4-0.4,0.7-0.6C100.2,58.2,101.6,51,98,45.4z"/>
	<path class="st1" d="M86.9,62.6c7.5-3.1,7.9-10.8-0.8-15.2c-6.4-3.2-3.5-8.2,4.3-6.1C99.1,43.6,96.5,58.9,86.9,62.6z"/>
	<path class="st1" d="M98.6,37.1c-8.3-2.6-14.7-2.4-18.9-0.7c0,0,0,0-0.1,0c-6.3,2.6-7.6,8.4-2.8,12.7c-1.3-1-2.7-2.1-3.3-3.5
		c-0.8-1.8-1-4-0.7-5.9c0.4-2.5,2-4.8,4.7-6.2c1-0.6,2.6-1,4-1.2C87,31.8,93.2,33,98.6,37.1z"/>
	<path class="st1" d="M78.2,58.2c-0.5-0.2-1.2-0.3-1.7-0.5c-6.4-2.6-9.8-7.3-9.7-12.1c0.1-3.3,2.1-6.7,5.3-9.5
		c0.9-0.8,2.1-1.5,3.2-2.1c0,0,0,0,0,0c1.5-0.6,3.1-1.1,4.8-1.4c0.4-0.1,0.9-0.1,1.3-0.2c-0.5,0.1-1,0.2-1.5,0.3
		c-8.3,2.2-8.8,11.9-3.2,16.5c0,0,0,0,0,0c1,0.9,2.2,1.7,3.6,2.5C86.2,54.6,84.4,59,78.2,58.2z"/>
	<path class="st1" d="M78.2,58.2c-0.6-0.1-1.3-0.2-2.1-0.4c-12.2-3.3-14-13.7-6.4-20.4c1.6-1.4,3.5-2.5,5.6-3.4
		c-1.1,0.7-2.1,1.4-3,2.2C64.2,43.2,65.8,54.2,78.2,58.2z"/>
</g>
</svg>
